%TF.GenerationSoftware,KiCad,Pcbnew,9.0.9*%
%TF.CreationDate,2026-09-26T08:25:51+00:00*%
%TF.ProjectId,Flechas127,466c6563-6861-4733-9132-372e6b696361,rev?*%
%TF.SameCoordinates,Original*%
%TF.FileFunction,Copper,L1,Top*%
%TF.FilePolarity,Positive*%
%FSLAX46Y46*%
G04 Gerber Fmt 4.6, Leading zero omitted, Abs format (unit mm)*
G04 Created by KiCad (PCBNEW 9.0.9) date 2026-09-26 08:25:51*
%MOMM*%
%LPD*%
G01*
G04 APERTURE LIST*
%TA.AperFunction,ComponentPad*%
%ADD10R,2.400000X2.400000*%
%TD*%
%TA.AperFunction,ComponentPad*%
%ADD11C,2.400000*%
%TD*%
%TA.AperFunction,ComponentPad*%
%ADD12R,2.600000X1.600000*%
%TD*%
%TA.AperFunction,ComponentPad*%
%ADD13O,2.600000X1.600000*%
%TD*%
%TA.AperFunction,ComponentPad*%
%ADD14C,2.600000*%
%TD*%
%TA.AperFunction,ComponentPad*%
%ADD15R,1.600000X2.600000*%
%TD*%
%TA.AperFunction,ComponentPad*%
%ADD16O,1.600000X2.600000*%
%TD*%
%TA.AperFunction,ComponentPad*%
%ADD17R,3.000000X3.000000*%
%TD*%
%TA.AperFunction,ComponentPad*%
%ADD18C,3.000000*%
%TD*%
G04 APERTURE END LIST*
D10*
%TO.P,DZ1,1*%
%TO.N,/V12*%
X119200000Y-119620000D03*
D11*
%TO.P,DZ1,2*%
%TO.N,/GND*%
X129360000Y-119620000D03*
%TD*%
D12*
%TO.P,U1,1*%
%TO.N,/GND*%
X111620000Y-140000000D03*
D13*
%TO.P,U1,2*%
%TO.N,/TIM*%
X111620000Y-137460000D03*
%TO.P,U1,3*%
%TO.N,/CLK_W1*%
X111620000Y-134920000D03*
%TO.P,U1,4*%
%TO.N,/V12*%
X111620000Y-132380000D03*
%TO.P,U1,5*%
%TO.N,unconnected-(U1-CONT-Pad5)*%
X104000000Y-132380000D03*
%TO.P,U1,6*%
%TO.N,/TIM*%
X104000000Y-134920000D03*
%TO.P,U1,7*%
%TO.N,unconnected-(U1-DISCH-Pad7)*%
X104000000Y-137460000D03*
%TO.P,U1,8*%
%TO.N,/V12*%
X104000000Y-140000000D03*
%TD*%
D11*
%TO.P,W2,1*%
%TO.N,/V12*%
X106667500Y-145720000D03*
%TO.P,W2,2*%
%TO.N,/V12_W2*%
X106667500Y-155880000D03*
%TD*%
D14*
%TO.P,C2,1*%
%TO.N,/L*%
X114200000Y-112400000D03*
%TO.P,C2,2*%
%TO.N,/X2*%
X124200000Y-112400000D03*
X129200000Y-112400000D03*
%TD*%
D12*
%TO.P,SCR2,1*%
%TO.N,/GND*%
X141500000Y-156300000D03*
D13*
%TO.P,SCR2,2*%
%TO.N,/G2*%
X141500000Y-153760000D03*
%TO.P,SCR2,3*%
%TO.N,/F2N*%
X141500000Y-151220000D03*
%TD*%
D12*
%TO.P,U2,1*%
%TO.N,unconnected-(U2-Q5-Pad1)*%
X126500000Y-156000000D03*
D13*
%TO.P,U2,2*%
%TO.N,/Q1*%
X126500000Y-153460000D03*
%TO.P,U2,3*%
%TO.N,/Q0*%
X126500000Y-150920000D03*
%TO.P,U2,4*%
%TO.N,/Q2*%
X126500000Y-148380000D03*
%TO.P,U2,5*%
%TO.N,unconnected-(U2-Q6-Pad5)*%
X126500000Y-145840000D03*
%TO.P,U2,6*%
%TO.N,unconnected-(U2-Q7-Pad6)*%
X126500000Y-143300000D03*
%TO.P,U2,7*%
%TO.N,/RST*%
X126500000Y-140760000D03*
%TO.P,U2,8*%
%TO.N,/GND*%
X126500000Y-138220000D03*
%TO.P,U2,9*%
%TO.N,unconnected-(U2-Q8-Pad9)*%
X118880000Y-138220000D03*
%TO.P,U2,10*%
%TO.N,unconnected-(U2-Q4-Pad10)*%
X118880000Y-140760000D03*
%TO.P,U2,11*%
%TO.N,unconnected-(U2-Q9-Pad11)*%
X118880000Y-143300000D03*
%TO.P,U2,12*%
%TO.N,unconnected-(U2-Cout-Pad12)*%
X118880000Y-145840000D03*
%TO.P,U2,13*%
%TO.N,/RST*%
X118880000Y-148380000D03*
%TO.P,U2,14*%
%TO.N,/CLK*%
X118880000Y-150920000D03*
%TO.P,U2,15*%
%TO.N,/RST*%
X118880000Y-153460000D03*
%TO.P,U2,16*%
%TO.N,/V12_W2*%
X118880000Y-156000000D03*
%TD*%
D10*
%TO.P,C3,1*%
%TO.N,/V12*%
X110500000Y-125500000D03*
D11*
%TO.P,C3,2*%
%TO.N,/GND*%
X114310000Y-125500000D03*
%TD*%
D15*
%TO.P,C5,1*%
%TO.N,/TIM*%
X111500000Y-150500000D03*
D16*
%TO.P,C5,2*%
%TO.N,/GND*%
X114040000Y-150500000D03*
%TD*%
D10*
%TO.P,BR1,1*%
%TO.N,/V12*%
X140300000Y-104800000D03*
D11*
%TO.P,BR1,2*%
%TO.N,/GND*%
X145380000Y-109880000D03*
%TO.P,BR1,3*%
%TO.N,/ACL*%
X140300000Y-109880000D03*
%TO.P,BR1,4*%
%TO.N,/N*%
X145380000Y-104800000D03*
%TD*%
D14*
%TO.P,R1,1*%
%TO.N,/X1*%
X134000000Y-104800000D03*
%TO.P,R1,2*%
%TO.N,/ACL*%
X134000000Y-112420000D03*
%TD*%
%TO.P,R2,1*%
%TO.N,/X2*%
X134000000Y-116500000D03*
%TO.P,R2,2*%
%TO.N,/ACF*%
X134000000Y-124120000D03*
%TD*%
D11*
%TO.P,W1,1*%
%TO.N,/CLK*%
X122225000Y-131115000D03*
%TO.P,W1,2*%
%TO.N,/CLK_W1*%
X114605000Y-131115000D03*
%TD*%
D17*
%TO.P,J2,1*%
%TO.N,/VF*%
X145880000Y-130000000D03*
D18*
%TO.P,J2,2*%
%TO.N,/F3N*%
X145880000Y-135080000D03*
%TO.P,J2,3*%
%TO.N,/F1N*%
X145880000Y-140160000D03*
%TO.P,J2,4*%
%TO.N,/F2N*%
X145880000Y-145240000D03*
%TD*%
D14*
%TO.P,C1,1*%
%TO.N,/L*%
X114200000Y-104800000D03*
%TO.P,C1,2*%
%TO.N,/X1*%
X124200000Y-104800000D03*
X129200000Y-104800000D03*
%TD*%
D17*
%TO.P,J1,1*%
%TO.N,/N*%
X105800000Y-105200000D03*
D18*
%TO.P,J1,2*%
%TO.N,/L*%
X105800000Y-110280000D03*
%TD*%
D11*
%TO.P,R9,1*%
%TO.N,/Q1*%
X131500000Y-153760000D03*
%TO.P,R9,2*%
%TO.N,/G2*%
X136580000Y-153760000D03*
%TD*%
D10*
%TO.P,BR2,1*%
%TO.N,/VF*%
X145880000Y-121500000D03*
D11*
%TO.P,BR2,2*%
%TO.N,/GND*%
X140800000Y-116420000D03*
%TO.P,BR2,3*%
%TO.N,/N*%
X145880000Y-116420000D03*
%TO.P,BR2,4*%
%TO.N,/ACF*%
X140800000Y-121500000D03*
%TD*%
D12*
%TO.P,SCR1,1*%
%TO.N,/GND*%
X141500000Y-147600000D03*
D13*
%TO.P,SCR1,2*%
%TO.N,/G1*%
X141500000Y-145060000D03*
%TO.P,SCR1,3*%
%TO.N,/F1N*%
X141500000Y-142520000D03*
%TD*%
D11*
%TO.P,R10,1*%
%TO.N,/Q2*%
X131500000Y-136360000D03*
%TO.P,R10,2*%
%TO.N,/G3*%
X136580000Y-136360000D03*
%TD*%
%TO.P,R6,1*%
%TO.N,/CLK*%
X103000000Y-150500000D03*
%TO.P,R6,2*%
%TO.N,/TIM*%
X108080000Y-150500000D03*
%TD*%
%TO.P,R3,1*%
%TO.N,/L*%
X105800000Y-115200000D03*
%TO.P,R3,2*%
%TO.N,/N*%
X105800000Y-120280000D03*
%TD*%
D12*
%TO.P,SCR3,1*%
%TO.N,/GND*%
X141500000Y-138900000D03*
D13*
%TO.P,SCR3,2*%
%TO.N,/G3*%
X141500000Y-136360000D03*
%TO.P,SCR3,3*%
%TO.N,/F3N*%
X141500000Y-133820000D03*
%TD*%
D11*
%TO.P,R8,1*%
%TO.N,/Q0*%
X131500000Y-145060000D03*
%TO.P,R8,2*%
%TO.N,/G1*%
X136580000Y-145060000D03*
%TD*%
M02*
