M48
; DRILL file {KiCad 9.0.9} date 2026-09-26T08:25:52+0000
; FORMAT={-:-/ absolute / metric / decimal}
; #@! TF.CreationDate,2026-09-26T08:25:52+00:00
; #@! TF.GenerationSoftware,Kicad,Pcbnew,9.0.9
; #@! TF.FileFunction,Plated,1,2,PTH
FMAT,2
METRIC
; #@! TA.AperFunction,Plated,PTH,ComponentDrill
T1C0.800
; #@! TA.AperFunction,Plated,PTH,ComponentDrill
T2C1.000
; #@! TA.AperFunction,Plated,PTH,ComponentDrill
T3C1.300
%
G90
G05
T1
X103.0Y-150.5
X104.0Y-132.38
X104.0Y-134.92
X104.0Y-137.46
X104.0Y-140.0
X105.8Y-115.2
X105.8Y-120.28
X106.667Y-145.72
X106.667Y-155.88
X108.08Y-150.5
X110.5Y-125.5
X111.5Y-150.5
X111.62Y-132.38
X111.62Y-134.92
X111.62Y-137.46
X111.62Y-140.0
X114.04Y-150.5
X114.31Y-125.5
X114.605Y-131.115
X118.88Y-138.22
X118.88Y-140.76
X118.88Y-143.3
X118.88Y-145.84
X118.88Y-148.38
X118.88Y-150.92
X118.88Y-153.46
X118.88Y-156.0
X122.225Y-131.115
X126.5Y-138.22
X126.5Y-140.76
X126.5Y-143.3
X126.5Y-145.84
X126.5Y-148.38
X126.5Y-150.92
X126.5Y-153.46
X126.5Y-156.0
X131.5Y-136.36
X131.5Y-145.06
X131.5Y-153.76
X136.58Y-136.36
X136.58Y-145.06
X136.58Y-153.76
X141.5Y-133.82
X141.5Y-136.36
X141.5Y-138.9
X141.5Y-142.52
X141.5Y-145.06
X141.5Y-147.6
X141.5Y-151.22
X141.5Y-153.76
X141.5Y-156.3
T2
X114.2Y-104.8
X114.2Y-112.4
X119.2Y-119.62
X124.2Y-104.8
X124.2Y-112.4
X129.2Y-104.8
X129.2Y-112.4
X129.36Y-119.62
X134.0Y-104.8
X134.0Y-112.42
X134.0Y-116.5
X134.0Y-124.12
X140.3Y-104.8
X140.3Y-109.88
X140.8Y-116.42
X140.8Y-121.5
X145.38Y-104.8
X145.38Y-109.88
X145.88Y-116.42
X145.88Y-121.5
T3
X105.8Y-105.2
X105.8Y-110.28
X145.88Y-130.0
X145.88Y-135.08
X145.88Y-140.16
X145.88Y-145.24
M30
