%TF.GenerationSoftware,KiCad,Pcbnew,9.0.9*%
%TF.CreationDate,2026-09-26T08:25:51+00:00*%
%TF.ProjectId,Flechas127,466c6563-6861-4733-9132-372e6b696361,rev?*%
%TF.SameCoordinates,Original*%
%TF.FileFunction,Copper,L2,Bot*%
%TF.FilePolarity,Positive*%
%FSLAX46Y46*%
G04 Gerber Fmt 4.6, Leading zero omitted, Abs format (unit mm)*
G04 Created by KiCad (PCBNEW 9.0.9) date 2026-09-26 08:25:51*
%MOMM*%
%LPD*%
G01*
G04 APERTURE LIST*
%ADD10C,0.192000*%
%TA.AperFunction,NonConductor*%
%ADD11C,0.192000*%
%TD*%
%TA.AperFunction,ComponentPad*%
%ADD12R,2.400000X2.400000*%
%TD*%
%TA.AperFunction,ComponentPad*%
%ADD13C,2.400000*%
%TD*%
%TA.AperFunction,ComponentPad*%
%ADD14R,2.600000X1.600000*%
%TD*%
%TA.AperFunction,ComponentPad*%
%ADD15O,2.600000X1.600000*%
%TD*%
%TA.AperFunction,ComponentPad*%
%ADD16C,2.600000*%
%TD*%
%TA.AperFunction,ComponentPad*%
%ADD17R,1.600000X2.600000*%
%TD*%
%TA.AperFunction,ComponentPad*%
%ADD18O,1.600000X2.600000*%
%TD*%
%TA.AperFunction,ComponentPad*%
%ADD19R,3.000000X3.000000*%
%TD*%
%TA.AperFunction,ComponentPad*%
%ADD20C,3.000000*%
%TD*%
%TA.AperFunction,Conductor*%
%ADD21C,1.200000*%
%TD*%
%TA.AperFunction,Conductor*%
%ADD22C,0.800000*%
%TD*%
G04 APERTURE END LIST*
D10*
D11*
X120342856Y-158416587D02*
X120742856Y-158416587D01*
X120742856Y-159045158D02*
X120742856Y-157845158D01*
X120742856Y-157845158D02*
X120171428Y-157845158D01*
X119142857Y-159045158D02*
X119714285Y-159045158D01*
X119714285Y-159045158D02*
X119714285Y-157845158D01*
X118742856Y-158416587D02*
X118342856Y-158416587D01*
X118171428Y-159045158D02*
X118742856Y-159045158D01*
X118742856Y-159045158D02*
X118742856Y-157845158D01*
X118742856Y-157845158D02*
X118171428Y-157845158D01*
X116971428Y-158930873D02*
X117028571Y-158988016D01*
X117028571Y-158988016D02*
X117199999Y-159045158D01*
X117199999Y-159045158D02*
X117314285Y-159045158D01*
X117314285Y-159045158D02*
X117485714Y-158988016D01*
X117485714Y-158988016D02*
X117599999Y-158873730D01*
X117599999Y-158873730D02*
X117657142Y-158759444D01*
X117657142Y-158759444D02*
X117714285Y-158530873D01*
X117714285Y-158530873D02*
X117714285Y-158359444D01*
X117714285Y-158359444D02*
X117657142Y-158130873D01*
X117657142Y-158130873D02*
X117599999Y-158016587D01*
X117599999Y-158016587D02*
X117485714Y-157902301D01*
X117485714Y-157902301D02*
X117314285Y-157845158D01*
X117314285Y-157845158D02*
X117199999Y-157845158D01*
X117199999Y-157845158D02*
X117028571Y-157902301D01*
X117028571Y-157902301D02*
X116971428Y-157959444D01*
X116457142Y-159045158D02*
X116457142Y-157845158D01*
X116457142Y-158416587D02*
X115771428Y-158416587D01*
X115771428Y-159045158D02*
X115771428Y-157845158D01*
X115257142Y-158702301D02*
X114685714Y-158702301D01*
X115371428Y-159045158D02*
X114971428Y-157845158D01*
X114971428Y-157845158D02*
X114571428Y-159045158D01*
X114228571Y-158988016D02*
X114057143Y-159045158D01*
X114057143Y-159045158D02*
X113771428Y-159045158D01*
X113771428Y-159045158D02*
X113657143Y-158988016D01*
X113657143Y-158988016D02*
X113600000Y-158930873D01*
X113600000Y-158930873D02*
X113542857Y-158816587D01*
X113542857Y-158816587D02*
X113542857Y-158702301D01*
X113542857Y-158702301D02*
X113600000Y-158588016D01*
X113600000Y-158588016D02*
X113657143Y-158530873D01*
X113657143Y-158530873D02*
X113771428Y-158473730D01*
X113771428Y-158473730D02*
X114000000Y-158416587D01*
X114000000Y-158416587D02*
X114114285Y-158359444D01*
X114114285Y-158359444D02*
X114171428Y-158302301D01*
X114171428Y-158302301D02*
X114228571Y-158188016D01*
X114228571Y-158188016D02*
X114228571Y-158073730D01*
X114228571Y-158073730D02*
X114171428Y-157959444D01*
X114171428Y-157959444D02*
X114114285Y-157902301D01*
X114114285Y-157902301D02*
X114000000Y-157845158D01*
X114000000Y-157845158D02*
X113714285Y-157845158D01*
X113714285Y-157845158D02*
X113542857Y-157902301D01*
X111485714Y-159045158D02*
X112171428Y-159045158D01*
X111828571Y-159045158D02*
X111828571Y-157845158D01*
X111828571Y-157845158D02*
X111942857Y-158016587D01*
X111942857Y-158016587D02*
X112057142Y-158130873D01*
X112057142Y-158130873D02*
X112171428Y-158188016D01*
X111028571Y-157959444D02*
X110971428Y-157902301D01*
X110971428Y-157902301D02*
X110857143Y-157845158D01*
X110857143Y-157845158D02*
X110571428Y-157845158D01*
X110571428Y-157845158D02*
X110457143Y-157902301D01*
X110457143Y-157902301D02*
X110400000Y-157959444D01*
X110400000Y-157959444D02*
X110342857Y-158073730D01*
X110342857Y-158073730D02*
X110342857Y-158188016D01*
X110342857Y-158188016D02*
X110400000Y-158359444D01*
X110400000Y-158359444D02*
X111085714Y-159045158D01*
X111085714Y-159045158D02*
X110342857Y-159045158D01*
X109942857Y-157845158D02*
X109142857Y-157845158D01*
X109142857Y-157845158D02*
X109657143Y-159045158D01*
X108857143Y-157845158D02*
X108457143Y-159045158D01*
X108457143Y-159045158D02*
X108057143Y-157845158D01*
X106857143Y-158245158D02*
X106571429Y-159045158D01*
X106571429Y-159045158D02*
X106285714Y-158245158D01*
X105200000Y-159045158D02*
X105885714Y-159045158D01*
X105542857Y-159045158D02*
X105542857Y-157845158D01*
X105542857Y-157845158D02*
X105657143Y-158016587D01*
X105657143Y-158016587D02*
X105771428Y-158130873D01*
X105771428Y-158130873D02*
X105885714Y-158188016D01*
D12*
%TO.P,DZ1,1*%
%TO.N,/V12*%
X119200000Y-119620000D03*
D13*
%TO.P,DZ1,2*%
%TO.N,/GND*%
X129360000Y-119620000D03*
%TD*%
D14*
%TO.P,U1,1*%
%TO.N,/GND*%
X111620000Y-140000000D03*
D15*
%TO.P,U1,2*%
%TO.N,/TIM*%
X111620000Y-137460000D03*
%TO.P,U1,3*%
%TO.N,/CLK_W1*%
X111620000Y-134920000D03*
%TO.P,U1,4*%
%TO.N,/V12*%
X111620000Y-132380000D03*
%TO.P,U1,5*%
%TO.N,unconnected-(U1-CONT-Pad5)*%
X104000000Y-132380000D03*
%TO.P,U1,6*%
%TO.N,/TIM*%
X104000000Y-134920000D03*
%TO.P,U1,7*%
%TO.N,unconnected-(U1-DISCH-Pad7)*%
X104000000Y-137460000D03*
%TO.P,U1,8*%
%TO.N,/V12*%
X104000000Y-140000000D03*
%TD*%
D13*
%TO.P,W2,1*%
%TO.N,/V12*%
X106667500Y-145720000D03*
%TO.P,W2,2*%
%TO.N,/V12_W2*%
X106667500Y-155880000D03*
%TD*%
D16*
%TO.P,C2,1*%
%TO.N,/L*%
X114200000Y-112400000D03*
%TO.P,C2,2*%
%TO.N,/X2*%
X124200000Y-112400000D03*
X129200000Y-112400000D03*
%TD*%
D14*
%TO.P,SCR2,1*%
%TO.N,/GND*%
X141500000Y-156300000D03*
D15*
%TO.P,SCR2,2*%
%TO.N,/G2*%
X141500000Y-153760000D03*
%TO.P,SCR2,3*%
%TO.N,/F2N*%
X141500000Y-151220000D03*
%TD*%
D14*
%TO.P,U2,1*%
%TO.N,unconnected-(U2-Q5-Pad1)*%
X126500000Y-156000000D03*
D15*
%TO.P,U2,2*%
%TO.N,/Q1*%
X126500000Y-153460000D03*
%TO.P,U2,3*%
%TO.N,/Q0*%
X126500000Y-150920000D03*
%TO.P,U2,4*%
%TO.N,/Q2*%
X126500000Y-148380000D03*
%TO.P,U2,5*%
%TO.N,unconnected-(U2-Q6-Pad5)*%
X126500000Y-145840000D03*
%TO.P,U2,6*%
%TO.N,unconnected-(U2-Q7-Pad6)*%
X126500000Y-143300000D03*
%TO.P,U2,7*%
%TO.N,/RST*%
X126500000Y-140760000D03*
%TO.P,U2,8*%
%TO.N,/GND*%
X126500000Y-138220000D03*
%TO.P,U2,9*%
%TO.N,unconnected-(U2-Q8-Pad9)*%
X118880000Y-138220000D03*
%TO.P,U2,10*%
%TO.N,unconnected-(U2-Q4-Pad10)*%
X118880000Y-140760000D03*
%TO.P,U2,11*%
%TO.N,unconnected-(U2-Q9-Pad11)*%
X118880000Y-143300000D03*
%TO.P,U2,12*%
%TO.N,unconnected-(U2-Cout-Pad12)*%
X118880000Y-145840000D03*
%TO.P,U2,13*%
%TO.N,/RST*%
X118880000Y-148380000D03*
%TO.P,U2,14*%
%TO.N,/CLK*%
X118880000Y-150920000D03*
%TO.P,U2,15*%
%TO.N,/RST*%
X118880000Y-153460000D03*
%TO.P,U2,16*%
%TO.N,/V12_W2*%
X118880000Y-156000000D03*
%TD*%
D12*
%TO.P,C3,1*%
%TO.N,/V12*%
X110500000Y-125500000D03*
D13*
%TO.P,C3,2*%
%TO.N,/GND*%
X114310000Y-125500000D03*
%TD*%
D17*
%TO.P,C5,1*%
%TO.N,/TIM*%
X111500000Y-150500000D03*
D18*
%TO.P,C5,2*%
%TO.N,/GND*%
X114040000Y-150500000D03*
%TD*%
D12*
%TO.P,BR1,1*%
%TO.N,/V12*%
X140300000Y-104800000D03*
D13*
%TO.P,BR1,2*%
%TO.N,/GND*%
X145380000Y-109880000D03*
%TO.P,BR1,3*%
%TO.N,/ACL*%
X140300000Y-109880000D03*
%TO.P,BR1,4*%
%TO.N,/N*%
X145380000Y-104800000D03*
%TD*%
D16*
%TO.P,R1,1*%
%TO.N,/X1*%
X134000000Y-104800000D03*
%TO.P,R1,2*%
%TO.N,/ACL*%
X134000000Y-112420000D03*
%TD*%
%TO.P,R2,1*%
%TO.N,/X2*%
X134000000Y-116500000D03*
%TO.P,R2,2*%
%TO.N,/ACF*%
X134000000Y-124120000D03*
%TD*%
D13*
%TO.P,W1,1*%
%TO.N,/CLK*%
X122225000Y-131115000D03*
%TO.P,W1,2*%
%TO.N,/CLK_W1*%
X114605000Y-131115000D03*
%TD*%
D19*
%TO.P,J2,1*%
%TO.N,/VF*%
X145880000Y-130000000D03*
D20*
%TO.P,J2,2*%
%TO.N,/F3N*%
X145880000Y-135080000D03*
%TO.P,J2,3*%
%TO.N,/F1N*%
X145880000Y-140160000D03*
%TO.P,J2,4*%
%TO.N,/F2N*%
X145880000Y-145240000D03*
%TD*%
D16*
%TO.P,C1,1*%
%TO.N,/L*%
X114200000Y-104800000D03*
%TO.P,C1,2*%
%TO.N,/X1*%
X124200000Y-104800000D03*
X129200000Y-104800000D03*
%TD*%
D19*
%TO.P,J1,1*%
%TO.N,/N*%
X105800000Y-105200000D03*
D20*
%TO.P,J1,2*%
%TO.N,/L*%
X105800000Y-110280000D03*
%TD*%
D13*
%TO.P,R9,1*%
%TO.N,/Q1*%
X131500000Y-153760000D03*
%TO.P,R9,2*%
%TO.N,/G2*%
X136580000Y-153760000D03*
%TD*%
D12*
%TO.P,BR2,1*%
%TO.N,/VF*%
X145880000Y-121500000D03*
D13*
%TO.P,BR2,2*%
%TO.N,/GND*%
X140800000Y-116420000D03*
%TO.P,BR2,3*%
%TO.N,/N*%
X145880000Y-116420000D03*
%TO.P,BR2,4*%
%TO.N,/ACF*%
X140800000Y-121500000D03*
%TD*%
D14*
%TO.P,SCR1,1*%
%TO.N,/GND*%
X141500000Y-147600000D03*
D15*
%TO.P,SCR1,2*%
%TO.N,/G1*%
X141500000Y-145060000D03*
%TO.P,SCR1,3*%
%TO.N,/F1N*%
X141500000Y-142520000D03*
%TD*%
D13*
%TO.P,R10,1*%
%TO.N,/Q2*%
X131500000Y-136360000D03*
%TO.P,R10,2*%
%TO.N,/G3*%
X136580000Y-136360000D03*
%TD*%
%TO.P,R6,1*%
%TO.N,/CLK*%
X103000000Y-150500000D03*
%TO.P,R6,2*%
%TO.N,/TIM*%
X108080000Y-150500000D03*
%TD*%
%TO.P,R3,1*%
%TO.N,/L*%
X105800000Y-115200000D03*
%TO.P,R3,2*%
%TO.N,/N*%
X105800000Y-120280000D03*
%TD*%
D14*
%TO.P,SCR3,1*%
%TO.N,/GND*%
X141500000Y-138900000D03*
D15*
%TO.P,SCR3,2*%
%TO.N,/G3*%
X141500000Y-136360000D03*
%TO.P,SCR3,3*%
%TO.N,/F3N*%
X141500000Y-133820000D03*
%TD*%
D13*
%TO.P,R8,1*%
%TO.N,/Q0*%
X131500000Y-145060000D03*
%TO.P,R8,2*%
%TO.N,/G1*%
X136580000Y-145060000D03*
%TD*%
D21*
%TO.N,/ACF*%
X134000000Y-124120000D02*
X140800000Y-124120000D01*
X140800000Y-124120000D02*
X140800000Y-121500000D01*
%TO.N,/ACL*%
X137800000Y-112420000D02*
X140300000Y-109880000D01*
X134000000Y-112420000D02*
X137800000Y-112420000D01*
D22*
%TO.N,/CLK*%
X116510000Y-137465000D02*
X116510000Y-136829999D01*
X116192500Y-137782500D02*
X116510000Y-137465000D01*
X117780000Y-150800000D02*
X116192500Y-149212500D01*
X115240000Y-153340000D02*
X117780000Y-150800000D01*
X116510000Y-136829999D02*
X122225000Y-131115000D01*
X105715000Y-153340000D02*
X115240000Y-153340000D01*
X118732500Y-150800000D02*
X117780000Y-150800000D01*
X116192500Y-149212500D02*
X116192500Y-137782500D01*
X102857500Y-150482500D02*
X105715000Y-153340000D01*
%TO.N,/CLK_W1*%
X114605000Y-131115000D02*
X114287500Y-131432500D01*
X114287500Y-133337500D02*
X112700000Y-134925000D01*
X112700000Y-134925000D02*
X111747500Y-134925000D01*
X114287500Y-131432500D02*
X114287500Y-133337500D01*
%TO.N,/F1N*%
X143497500Y-142545000D02*
X141592500Y-142545000D01*
X146037500Y-140005000D02*
X143497500Y-142545000D01*
%TO.N,/F2N*%
X146037500Y-145085000D02*
X146037500Y-147942500D01*
X146037500Y-147942500D02*
X142862500Y-151117500D01*
X142862500Y-151117500D02*
X141592500Y-151117500D01*
%TO.N,/F3N*%
X146037500Y-134925000D02*
X145085000Y-133972500D01*
X145085000Y-133972500D02*
X141592500Y-133972500D01*
%TO.N,/G1*%
X141592500Y-145085000D02*
X141275000Y-144767499D01*
X141275000Y-144767499D02*
X136829999Y-144767499D01*
X136829999Y-144767499D02*
X136512500Y-145085000D01*
%TO.N,/G2*%
X136829999Y-153340000D02*
X136512500Y-153657500D01*
X141275000Y-153340000D02*
X136829999Y-153340000D01*
X141592500Y-153657500D02*
X141275000Y-153340000D01*
%TO.N,/G3*%
X141592500Y-136512500D02*
X136512500Y-136512500D01*
%TO.N,/GND*%
X141592500Y-139052500D02*
X135560000Y-139052500D01*
X142700000Y-112560000D02*
X140800000Y-114460000D01*
X141592500Y-147625000D02*
X135560000Y-147625000D01*
X126352499Y-138100000D02*
X126352499Y-128257500D01*
X113652500Y-140957500D02*
X112700000Y-140005000D01*
X112700000Y-140005000D02*
X114287500Y-138417500D01*
X123495000Y-125400000D02*
X129210000Y-119685000D01*
X133972500Y-154927500D02*
X133972500Y-149212500D01*
X141592500Y-156197500D02*
X135242500Y-156197500D01*
X135560000Y-147625000D02*
X133972500Y-146037500D01*
X133972500Y-135242500D02*
X132702499Y-133972500D01*
X133972500Y-140640000D02*
X135560000Y-139052500D01*
X133972500Y-137465000D02*
X133972500Y-135242500D01*
X114605000Y-135242500D02*
X118097500Y-131750000D01*
X114605000Y-135560000D02*
X114605000Y-135242500D01*
X111747500Y-140005000D02*
X112700000Y-140005000D01*
X132702499Y-133972500D02*
X126352499Y-133972500D01*
X133972500Y-146037500D02*
X133972500Y-140640000D01*
X118097500Y-131750000D02*
X118097500Y-125400000D01*
X113652500Y-150165000D02*
X113652500Y-140957500D01*
X114287500Y-125400000D02*
X123495000Y-125400000D01*
X133972500Y-149212500D02*
X135560000Y-147625000D01*
X140800000Y-116420000D02*
X137600000Y-119620000D01*
X135242500Y-156197500D02*
X133972500Y-154927500D01*
X140800000Y-114460000D02*
X140800000Y-116420000D01*
X137600000Y-119620000D02*
X129360000Y-119620000D01*
X135560000Y-139052500D02*
X133972500Y-137465000D01*
X145380000Y-109880000D02*
X142700000Y-112560000D01*
X114287500Y-135877500D02*
X114605000Y-135560000D01*
X113970000Y-150482500D02*
X113652500Y-150165000D01*
X126352499Y-128257500D02*
X123495000Y-125400000D01*
X114287500Y-138417500D02*
X114287500Y-135877500D01*
D21*
%TO.N,/L*%
X112300000Y-110280000D02*
X114200000Y-112400000D01*
X105800000Y-110280000D02*
X112300000Y-110280000D01*
X105800000Y-110280000D02*
X105800000Y-115200000D01*
X114200000Y-112400000D02*
X114200000Y-104800000D01*
%TO.N,/N*%
X145380000Y-101600000D02*
X145380000Y-104800000D01*
X105800000Y-105200000D02*
X101600000Y-105200000D01*
X101600000Y-105200000D02*
X101600000Y-120280000D01*
X148400000Y-101600000D02*
X148400000Y-116420000D01*
X105800000Y-101600000D02*
X148400000Y-101600000D01*
X105800000Y-105200000D02*
X105800000Y-101600000D01*
X101600000Y-120280000D02*
X105800000Y-120280000D01*
X148400000Y-116420000D02*
X145880000Y-116420000D01*
D22*
%TO.N,/Q0*%
X127622500Y-150800000D02*
X126352499Y-150800000D01*
X131432500Y-146990000D02*
X127622500Y-150800000D01*
X131432500Y-145085000D02*
X131432500Y-146990000D01*
%TO.N,/Q1*%
X131115000Y-153340000D02*
X126352499Y-153340000D01*
X131432500Y-153657500D02*
X131115000Y-153340000D01*
%TO.N,/Q2*%
X128892500Y-144767499D02*
X128892500Y-145402500D01*
X129210000Y-139370000D02*
X129210000Y-144450000D01*
X129210000Y-145402500D02*
X129210000Y-146672500D01*
X131432500Y-136512500D02*
X131432500Y-137147500D01*
X129210000Y-144450000D02*
X128892500Y-144767499D01*
X127622500Y-148260000D02*
X126352499Y-148260000D01*
X129210000Y-146672500D02*
X127622500Y-148260000D01*
X128892500Y-145402500D02*
X129210000Y-145402500D01*
X131432500Y-137147500D02*
X129210000Y-139370000D01*
%TO.N,/RST*%
X121590000Y-151752500D02*
X121590000Y-149847500D01*
X120002500Y-153340000D02*
X121590000Y-151752500D01*
X118732500Y-153340000D02*
X120002500Y-153340000D01*
X118732500Y-148260000D02*
X120002500Y-148260000D01*
X123812500Y-142227500D02*
X125400000Y-140640000D01*
X125400000Y-140640000D02*
X126352499Y-140640000D01*
X120002500Y-148260000D02*
X123812500Y-144450000D01*
X121590000Y-149847500D02*
X120002500Y-148260000D01*
X123812500Y-144450000D02*
X123812500Y-142227500D01*
%TO.N,/TIM*%
X107937500Y-150482500D02*
X111430000Y-150482500D01*
X109207500Y-138417500D02*
X110795000Y-136829999D01*
X111430000Y-150482500D02*
X111430000Y-147625000D01*
X109842500Y-136829999D02*
X111112500Y-136829999D01*
X111112500Y-136829999D02*
X111747500Y-137465000D01*
X108255000Y-135242500D02*
X109842500Y-136829999D01*
X111430000Y-147625000D02*
X109207500Y-145402500D01*
X104445000Y-135242500D02*
X108255000Y-135242500D01*
X104127500Y-134925000D02*
X104445000Y-135242500D01*
X109207500Y-145402500D02*
X109207500Y-138417500D01*
%TO.N,/V12*%
X101587500Y-131115000D02*
X102540000Y-130162500D01*
X119200000Y-108600000D02*
X119200000Y-119620000D01*
X102857500Y-140005000D02*
X101587500Y-138735000D01*
X140300000Y-104800000D02*
X136500000Y-108600000D01*
X101587500Y-138735000D02*
X101587500Y-131115000D01*
X106667500Y-142545000D02*
X104127500Y-140005000D01*
X106667500Y-145720000D02*
X106667500Y-142545000D01*
X116192500Y-119685000D02*
X119050000Y-119685000D01*
X110477500Y-125400000D02*
X116192500Y-119685000D01*
X102540000Y-130162500D02*
X110477500Y-130162500D01*
X136500000Y-108600000D02*
X119200000Y-108600000D01*
X110477500Y-131115000D02*
X110477500Y-125400000D01*
X104127500Y-140005000D02*
X102857500Y-140005000D01*
X111747500Y-132384999D02*
X110477500Y-131115000D01*
%TO.N,/V12_W2*%
X118732500Y-155880000D02*
X106667500Y-155880000D01*
D21*
%TO.N,/VF*%
X145880000Y-121500000D02*
X145880000Y-130000000D01*
%TO.N,/X1*%
X124200000Y-104800000D02*
X129199999Y-104800000D01*
X129199999Y-104800000D02*
X134000000Y-104800000D01*
%TO.N,/X2*%
X129199999Y-112400000D02*
X131300000Y-114500000D01*
X131300000Y-114500000D02*
X134000000Y-116500000D01*
X124200000Y-112400000D02*
X129199999Y-112400000D01*
%TD*%
M02*
