%TF.GenerationSoftware,KiCad,Pcbnew,9.0.9*%
%TF.CreationDate,2026-09-26T23:30:10+00:00*%
%TF.ProjectId,Fuente3,4675656e-7465-4332-9e6b-696361645f70,rev?*%
%TF.SameCoordinates,Original*%
%TF.FileFunction,Copper,L2,Bot*%
%TF.FilePolarity,Positive*%
%FSLAX46Y46*%
G04 Gerber Fmt 4.6, Leading zero omitted, Abs format (unit mm)*
G04 Created by KiCad (PCBNEW 9.0.9) date 2026-09-26 23:30:10*
%MOMM*%
%LPD*%
G01*
G04 APERTURE LIST*
%ADD10C,0.180000*%
%TA.AperFunction,NonConductor*%
%ADD11C,0.180000*%
%TD*%
%TA.AperFunction,ComponentPad*%
%ADD12C,2.600000*%
%TD*%
%TA.AperFunction,ComponentPad*%
%ADD13R,3.000000X3.000000*%
%TD*%
%TA.AperFunction,ComponentPad*%
%ADD14R,2.400000X2.400000*%
%TD*%
%TA.AperFunction,ComponentPad*%
%ADD15C,2.400000*%
%TD*%
%TA.AperFunction,ComponentPad*%
%ADD16C,3.000000*%
%TD*%
%TA.AperFunction,Conductor*%
%ADD17C,1.200000*%
%TD*%
G04 APERTURE END LIST*
D10*
D11*
X134619048Y-147929449D02*
X134952381Y-147929449D01*
X134952381Y-148453259D02*
X134952381Y-147453259D01*
X134952381Y-147453259D02*
X134476191Y-147453259D01*
X134095238Y-147453259D02*
X134095238Y-148262782D01*
X134095238Y-148262782D02*
X134047619Y-148358020D01*
X134047619Y-148358020D02*
X134000000Y-148405640D01*
X134000000Y-148405640D02*
X133904762Y-148453259D01*
X133904762Y-148453259D02*
X133714286Y-148453259D01*
X133714286Y-148453259D02*
X133619048Y-148405640D01*
X133619048Y-148405640D02*
X133571429Y-148358020D01*
X133571429Y-148358020D02*
X133523810Y-148262782D01*
X133523810Y-148262782D02*
X133523810Y-147453259D01*
X133047619Y-147929449D02*
X132714286Y-147929449D01*
X132571429Y-148453259D02*
X133047619Y-148453259D01*
X133047619Y-148453259D02*
X133047619Y-147453259D01*
X133047619Y-147453259D02*
X132571429Y-147453259D01*
X132142857Y-148453259D02*
X132142857Y-147453259D01*
X132142857Y-147453259D02*
X131571429Y-148453259D01*
X131571429Y-148453259D02*
X131571429Y-147453259D01*
X131238095Y-147453259D02*
X130666667Y-147453259D01*
X130952381Y-148453259D02*
X130952381Y-147453259D01*
X130333333Y-147929449D02*
X130000000Y-147929449D01*
X129857143Y-148453259D02*
X130333333Y-148453259D01*
X130333333Y-148453259D02*
X130333333Y-147453259D01*
X130333333Y-147453259D02*
X129857143Y-147453259D01*
X128761904Y-147453259D02*
X128142857Y-147453259D01*
X128142857Y-147453259D02*
X128476190Y-147834211D01*
X128476190Y-147834211D02*
X128333333Y-147834211D01*
X128333333Y-147834211D02*
X128238095Y-147881830D01*
X128238095Y-147881830D02*
X128190476Y-147929449D01*
X128190476Y-147929449D02*
X128142857Y-148024687D01*
X128142857Y-148024687D02*
X128142857Y-148262782D01*
X128142857Y-148262782D02*
X128190476Y-148358020D01*
X128190476Y-148358020D02*
X128238095Y-148405640D01*
X128238095Y-148405640D02*
X128333333Y-148453259D01*
X128333333Y-148453259D02*
X128619047Y-148453259D01*
X128619047Y-148453259D02*
X128714285Y-148405640D01*
X128714285Y-148405640D02*
X128761904Y-148358020D01*
X126999999Y-148405640D02*
X126857142Y-148453259D01*
X126857142Y-148453259D02*
X126619047Y-148453259D01*
X126619047Y-148453259D02*
X126523809Y-148405640D01*
X126523809Y-148405640D02*
X126476190Y-148358020D01*
X126476190Y-148358020D02*
X126428571Y-148262782D01*
X126428571Y-148262782D02*
X126428571Y-148167544D01*
X126428571Y-148167544D02*
X126476190Y-148072306D01*
X126476190Y-148072306D02*
X126523809Y-148024687D01*
X126523809Y-148024687D02*
X126619047Y-147977068D01*
X126619047Y-147977068D02*
X126809523Y-147929449D01*
X126809523Y-147929449D02*
X126904761Y-147881830D01*
X126904761Y-147881830D02*
X126952380Y-147834211D01*
X126952380Y-147834211D02*
X126999999Y-147738973D01*
X126999999Y-147738973D02*
X126999999Y-147643735D01*
X126999999Y-147643735D02*
X126952380Y-147548497D01*
X126952380Y-147548497D02*
X126904761Y-147500878D01*
X126904761Y-147500878D02*
X126809523Y-147453259D01*
X126809523Y-147453259D02*
X126571428Y-147453259D01*
X126571428Y-147453259D02*
X126428571Y-147500878D01*
X126047618Y-148167544D02*
X125571428Y-148167544D01*
X126142856Y-148453259D02*
X125809523Y-147453259D01*
X125809523Y-147453259D02*
X125476190Y-148453259D01*
X124666666Y-148453259D02*
X125142856Y-148453259D01*
X125142856Y-148453259D02*
X125142856Y-147453259D01*
X124333332Y-148453259D02*
X124333332Y-147453259D01*
X123857142Y-148453259D02*
X123857142Y-147453259D01*
X123857142Y-147453259D02*
X123619047Y-147453259D01*
X123619047Y-147453259D02*
X123476190Y-147500878D01*
X123476190Y-147500878D02*
X123380952Y-147596116D01*
X123380952Y-147596116D02*
X123333333Y-147691354D01*
X123333333Y-147691354D02*
X123285714Y-147881830D01*
X123285714Y-147881830D02*
X123285714Y-148024687D01*
X123285714Y-148024687D02*
X123333333Y-148215163D01*
X123333333Y-148215163D02*
X123380952Y-148310401D01*
X123380952Y-148310401D02*
X123476190Y-148405640D01*
X123476190Y-148405640D02*
X123619047Y-148453259D01*
X123619047Y-148453259D02*
X123857142Y-148453259D01*
X122904761Y-148167544D02*
X122428571Y-148167544D01*
X122999999Y-148453259D02*
X122666666Y-147453259D01*
X122666666Y-147453259D02*
X122333333Y-148453259D01*
X122047618Y-148405640D02*
X121904761Y-148453259D01*
X121904761Y-148453259D02*
X121666666Y-148453259D01*
X121666666Y-148453259D02*
X121571428Y-148405640D01*
X121571428Y-148405640D02*
X121523809Y-148358020D01*
X121523809Y-148358020D02*
X121476190Y-148262782D01*
X121476190Y-148262782D02*
X121476190Y-148167544D01*
X121476190Y-148167544D02*
X121523809Y-148072306D01*
X121523809Y-148072306D02*
X121571428Y-148024687D01*
X121571428Y-148024687D02*
X121666666Y-147977068D01*
X121666666Y-147977068D02*
X121857142Y-147929449D01*
X121857142Y-147929449D02*
X121952380Y-147881830D01*
X121952380Y-147881830D02*
X121999999Y-147834211D01*
X121999999Y-147834211D02*
X122047618Y-147738973D01*
X122047618Y-147738973D02*
X122047618Y-147643735D01*
X122047618Y-147643735D02*
X121999999Y-147548497D01*
X121999999Y-147548497D02*
X121952380Y-147500878D01*
X121952380Y-147500878D02*
X121857142Y-147453259D01*
X121857142Y-147453259D02*
X121619047Y-147453259D01*
X121619047Y-147453259D02*
X121476190Y-147500878D01*
X120380951Y-147786592D02*
X120142856Y-148453259D01*
X120142856Y-148453259D02*
X119904761Y-147786592D01*
X118999999Y-148453259D02*
X119571427Y-148453259D01*
X119285713Y-148453259D02*
X119285713Y-147453259D01*
X119285713Y-147453259D02*
X119380951Y-147596116D01*
X119380951Y-147596116D02*
X119476189Y-147691354D01*
X119476189Y-147691354D02*
X119571427Y-147738973D01*
D12*
%TO.P,C2,1*%
%TO.N,/L*%
X113500000Y-119600000D03*
%TO.P,C2,2*%
%TO.N,/X2*%
X123500000Y-119600000D03*
X128500000Y-119600000D03*
%TD*%
D13*
%TO.P,J6,1*%
%TO.N,/S3+*%
X120000000Y-139800000D03*
%TD*%
%TO.P,J3,1*%
%TO.N,/S1-*%
X143579999Y-114200000D03*
%TD*%
D12*
%TO.P,R2,1*%
%TO.N,/X2*%
X133000000Y-119600000D03*
%TO.P,R2,2*%
%TO.N,/AC2*%
X133000000Y-127220000D03*
%TD*%
D14*
%TO.P,BR2,1*%
%TO.N,/S2+*%
X138500000Y-119600000D03*
D15*
%TO.P,BR2,2*%
%TO.N,/S2-*%
X143580000Y-124680000D03*
%TO.P,BR2,3*%
%TO.N,/AC2*%
X138500000Y-124680000D03*
%TO.P,BR2,4*%
%TO.N,/N*%
X143580000Y-119600000D03*
%TD*%
D13*
%TO.P,J2,1*%
%TO.N,/S1+*%
X120000000Y-109800000D03*
%TD*%
D14*
%TO.P,BR1,1*%
%TO.N,/S1+*%
X138500000Y-104600000D03*
D15*
%TO.P,BR1,2*%
%TO.N,/S1-*%
X143580000Y-109680000D03*
%TO.P,BR1,3*%
%TO.N,/AC1*%
X138500000Y-109680000D03*
%TO.P,BR1,4*%
%TO.N,/N*%
X143580000Y-104600000D03*
%TD*%
D13*
%TO.P,J1,1*%
%TO.N,/N*%
X105800000Y-105200000D03*
D16*
%TO.P,J1,2*%
%TO.N,/L*%
X105800000Y-110280000D03*
%TD*%
D12*
%TO.P,R3,1*%
%TO.N,/X3*%
X133000000Y-134600000D03*
%TO.P,R3,2*%
%TO.N,/AC3*%
X133000000Y-142220000D03*
%TD*%
%TO.P,R1,1*%
%TO.N,/X1*%
X133000000Y-104600000D03*
%TO.P,R1,2*%
%TO.N,/AC1*%
X133000000Y-112220000D03*
%TD*%
D13*
%TO.P,J4,1*%
%TO.N,/S2+*%
X120000000Y-124800000D03*
%TD*%
%TO.P,J7,1*%
%TO.N,/S3-*%
X143579999Y-144200000D03*
%TD*%
%TO.P,J5,1*%
%TO.N,/S2-*%
X143579999Y-129199999D03*
%TD*%
D12*
%TO.P,C1,1*%
%TO.N,/L*%
X113500000Y-104600000D03*
%TO.P,C1,2*%
%TO.N,/X1*%
X123500000Y-104600000D03*
X128500000Y-104600000D03*
%TD*%
%TO.P,C3,1*%
%TO.N,/L*%
X113500000Y-134600000D03*
%TO.P,C3,2*%
%TO.N,/X3*%
X123500000Y-134600000D03*
X128500000Y-134600000D03*
%TD*%
D15*
%TO.P,R10,1*%
%TO.N,/L*%
X105800000Y-115200000D03*
%TO.P,R10,2*%
%TO.N,/N*%
X105800000Y-120280000D03*
%TD*%
D14*
%TO.P,BR3,1*%
%TO.N,/S3+*%
X138500000Y-134600000D03*
D15*
%TO.P,BR3,2*%
%TO.N,/S3-*%
X143580000Y-139680000D03*
%TO.P,BR3,3*%
%TO.N,/AC3*%
X138500000Y-139680000D03*
%TO.P,BR3,4*%
%TO.N,/N*%
X143580000Y-134600000D03*
%TD*%
D17*
%TO.N,/AC1*%
X135500000Y-112220000D02*
X138500000Y-109680000D01*
X133000000Y-112220000D02*
X135500000Y-112220000D01*
%TO.N,/AC2*%
X135500000Y-127220000D02*
X138500000Y-124680000D01*
X133000000Y-127220000D02*
X135500000Y-127220000D01*
%TO.N,/AC3*%
X135500000Y-142220000D02*
X138500000Y-139680000D01*
X133000000Y-142220000D02*
X135500000Y-142220000D01*
%TO.N,/L*%
X113500000Y-104600000D02*
X113500000Y-134600000D01*
X105800000Y-110280000D02*
X113500000Y-110280000D01*
X105800000Y-110280000D02*
X105800000Y-115200000D01*
%TO.N,/N*%
X105800000Y-105200000D02*
X105800000Y-101400000D01*
X105800000Y-101400000D02*
X148400000Y-101400000D01*
X101600000Y-105200000D02*
X101600000Y-120280000D01*
X148400000Y-101400000D02*
X148400000Y-134600000D01*
X105800000Y-105200000D02*
X101600000Y-105200000D01*
X148400000Y-119600000D02*
X143579999Y-119600000D01*
X148400000Y-104600000D02*
X143579999Y-104600000D01*
X101600000Y-120280000D02*
X105800000Y-120280000D01*
X148400000Y-134600000D02*
X143579999Y-134600000D01*
%TO.N,/S1+*%
X135600000Y-108200000D02*
X121000000Y-108200000D01*
X121000000Y-108200000D02*
X120000000Y-109800000D01*
X138500000Y-104600000D02*
X135600000Y-107500000D01*
X135600000Y-107500000D02*
X135600000Y-108200000D01*
%TO.N,/S1-*%
X143579999Y-109680000D02*
X143579999Y-114200000D01*
%TO.N,/S2+*%
X135600000Y-123200000D02*
X121000000Y-123200000D01*
X121000000Y-123200000D02*
X120000000Y-124800000D01*
X135600000Y-122500000D02*
X135600000Y-123200000D01*
X138500000Y-119600000D02*
X135600000Y-122500000D01*
%TO.N,/S2-*%
X143579999Y-124680000D02*
X143579999Y-129199999D01*
%TO.N,/S3+*%
X135600000Y-137500000D02*
X135600000Y-138200000D01*
X135600000Y-138200000D02*
X121000000Y-138200000D01*
X121000000Y-138200000D02*
X120000000Y-139800000D01*
X138500000Y-134600000D02*
X135600000Y-137500000D01*
%TO.N,/S3-*%
X143579999Y-139680000D02*
X143579999Y-144200000D01*
%TO.N,/X1*%
X123500000Y-104600000D02*
X128500000Y-104600000D01*
X128500000Y-104600000D02*
X133000000Y-104600000D01*
%TO.N,/X2*%
X123500000Y-119600000D02*
X128500000Y-119600000D01*
X128500000Y-119600000D02*
X133000000Y-119600000D01*
%TO.N,/X3*%
X123500000Y-134600000D02*
X128500000Y-134600000D01*
X128500000Y-134600000D02*
X133000000Y-134600000D01*
%TD*%
M02*
