M48
; DRILL file {KiCad 9.0.9} date 2026-09-26T23:30:10+0000
; FORMAT={-:-/ absolute / metric / decimal}
; #@! TF.CreationDate,2026-09-26T23:30:10+00:00
; #@! TF.GenerationSoftware,Kicad,Pcbnew,9.0.9
; #@! TF.FileFunction,Plated,1,2,PTH
FMAT,2
METRIC
; #@! TA.AperFunction,Plated,PTH,ComponentDrill
T1C0.800
; #@! TA.AperFunction,Plated,PTH,ComponentDrill
T2C1.000
; #@! TA.AperFunction,Plated,PTH,ComponentDrill
T3C1.300
%
G90
G05
T1
X105.8Y-115.2
X105.8Y-120.28
T2
X113.5Y-104.6
X113.5Y-119.6
X113.5Y-134.6
X123.5Y-104.6
X123.5Y-119.6
X123.5Y-134.6
X128.5Y-104.6
X128.5Y-119.6
X128.5Y-134.6
X133.0Y-104.6
X133.0Y-112.22
X133.0Y-119.6
X133.0Y-127.22
X133.0Y-134.6
X133.0Y-142.22
X138.5Y-104.6
X138.5Y-109.68
X138.5Y-119.6
X138.5Y-124.68
X138.5Y-134.6
X138.5Y-139.68
X143.58Y-104.6
X143.58Y-109.68
X143.58Y-119.6
X143.58Y-124.68
X143.58Y-134.6
X143.58Y-139.68
T3
X105.8Y-105.2
X105.8Y-110.28
X120.0Y-109.8
X120.0Y-124.8
X120.0Y-139.8
X143.58Y-114.2
X143.58Y-129.2
X143.58Y-144.2
M30
