%TF.GenerationSoftware,KiCad,Pcbnew,9.0.9*%
%TF.CreationDate,2026-09-26T23:30:10+00:00*%
%TF.ProjectId,Fuente3,4675656e-7465-4332-9e6b-696361645f70,rev?*%
%TF.SameCoordinates,Original*%
%TF.FileFunction,Legend,Top*%
%TF.FilePolarity,Positive*%
%FSLAX46Y46*%
G04 Gerber Fmt 4.6, Leading zero omitted, Abs format (unit mm)*
G04 Created by KiCad (PCBNEW 9.0.9) date 2026-09-26 23:30:10*
%MOMM*%
%LPD*%
G01*
G04 APERTURE LIST*
%ADD10C,0.180000*%
%ADD11C,0.192000*%
%ADD12C,0.150000*%
%ADD13C,0.120000*%
G04 APERTURE END LIST*
D10*
X104180952Y-114160735D02*
X103723809Y-114160735D01*
X103952381Y-114160735D02*
X103952381Y-113360735D01*
X103952381Y-113360735D02*
X103876190Y-113475020D01*
X103876190Y-113475020D02*
X103800000Y-113551211D01*
X103800000Y-113551211D02*
X103723809Y-113589306D01*
X104485714Y-113436925D02*
X104523810Y-113398830D01*
X104523810Y-113398830D02*
X104600000Y-113360735D01*
X104600000Y-113360735D02*
X104790476Y-113360735D01*
X104790476Y-113360735D02*
X104866667Y-113398830D01*
X104866667Y-113398830D02*
X104904762Y-113436925D01*
X104904762Y-113436925D02*
X104942857Y-113513116D01*
X104942857Y-113513116D02*
X104942857Y-113589306D01*
X104942857Y-113589306D02*
X104904762Y-113703592D01*
X104904762Y-113703592D02*
X104447619Y-114160735D01*
X104447619Y-114160735D02*
X104942857Y-114160735D01*
X105209524Y-113360735D02*
X105742858Y-113360735D01*
X105742858Y-113360735D02*
X105400000Y-114160735D01*
X105933334Y-113360735D02*
X106200001Y-114160735D01*
X106200001Y-114160735D02*
X106466667Y-113360735D01*
X107190477Y-114084544D02*
X107152381Y-114122640D01*
X107152381Y-114122640D02*
X107038096Y-114160735D01*
X107038096Y-114160735D02*
X106961905Y-114160735D01*
X106961905Y-114160735D02*
X106847619Y-114122640D01*
X106847619Y-114122640D02*
X106771429Y-114046449D01*
X106771429Y-114046449D02*
X106733334Y-113970259D01*
X106733334Y-113970259D02*
X106695238Y-113817878D01*
X106695238Y-113817878D02*
X106695238Y-113703592D01*
X106695238Y-113703592D02*
X106733334Y-113551211D01*
X106733334Y-113551211D02*
X106771429Y-113475020D01*
X106771429Y-113475020D02*
X106847619Y-113398830D01*
X106847619Y-113398830D02*
X106961905Y-113360735D01*
X106961905Y-113360735D02*
X107038096Y-113360735D01*
X107038096Y-113360735D02*
X107152381Y-113398830D01*
X107152381Y-113398830D02*
X107190477Y-113436925D01*
X107495238Y-113932163D02*
X107876191Y-113932163D01*
X107419048Y-114160735D02*
X107685715Y-113360735D01*
X107685715Y-113360735D02*
X107952381Y-114160735D01*
X113038096Y-146960735D02*
X113038096Y-146160735D01*
X113038096Y-146160735D02*
X113342858Y-146160735D01*
X113342858Y-146160735D02*
X113419048Y-146198830D01*
X113419048Y-146198830D02*
X113457143Y-146236925D01*
X113457143Y-146236925D02*
X113495239Y-146313116D01*
X113495239Y-146313116D02*
X113495239Y-146427401D01*
X113495239Y-146427401D02*
X113457143Y-146503592D01*
X113457143Y-146503592D02*
X113419048Y-146541687D01*
X113419048Y-146541687D02*
X113342858Y-146579782D01*
X113342858Y-146579782D02*
X113038096Y-146579782D01*
X113838096Y-146541687D02*
X114104762Y-146541687D01*
X114219048Y-146960735D02*
X113838096Y-146960735D01*
X113838096Y-146960735D02*
X113838096Y-146160735D01*
X113838096Y-146160735D02*
X114219048Y-146160735D01*
X114942858Y-146960735D02*
X114561906Y-146960735D01*
X114561906Y-146960735D02*
X114561906Y-146160735D01*
X115209525Y-146960735D02*
X115209525Y-146160735D01*
X116009524Y-146198830D02*
X115933334Y-146160735D01*
X115933334Y-146160735D02*
X115819048Y-146160735D01*
X115819048Y-146160735D02*
X115704762Y-146198830D01*
X115704762Y-146198830D02*
X115628572Y-146275020D01*
X115628572Y-146275020D02*
X115590477Y-146351211D01*
X115590477Y-146351211D02*
X115552381Y-146503592D01*
X115552381Y-146503592D02*
X115552381Y-146617878D01*
X115552381Y-146617878D02*
X115590477Y-146770259D01*
X115590477Y-146770259D02*
X115628572Y-146846449D01*
X115628572Y-146846449D02*
X115704762Y-146922640D01*
X115704762Y-146922640D02*
X115819048Y-146960735D01*
X115819048Y-146960735D02*
X115895239Y-146960735D01*
X115895239Y-146960735D02*
X116009524Y-146922640D01*
X116009524Y-146922640D02*
X116047620Y-146884544D01*
X116047620Y-146884544D02*
X116047620Y-146617878D01*
X116047620Y-146617878D02*
X115895239Y-146617878D01*
X116847620Y-146960735D02*
X116580953Y-146579782D01*
X116390477Y-146960735D02*
X116390477Y-146160735D01*
X116390477Y-146160735D02*
X116695239Y-146160735D01*
X116695239Y-146160735D02*
X116771429Y-146198830D01*
X116771429Y-146198830D02*
X116809524Y-146236925D01*
X116809524Y-146236925D02*
X116847620Y-146313116D01*
X116847620Y-146313116D02*
X116847620Y-146427401D01*
X116847620Y-146427401D02*
X116809524Y-146503592D01*
X116809524Y-146503592D02*
X116771429Y-146541687D01*
X116771429Y-146541687D02*
X116695239Y-146579782D01*
X116695239Y-146579782D02*
X116390477Y-146579782D01*
X117342858Y-146160735D02*
X117495239Y-146160735D01*
X117495239Y-146160735D02*
X117571429Y-146198830D01*
X117571429Y-146198830D02*
X117647620Y-146275020D01*
X117647620Y-146275020D02*
X117685715Y-146427401D01*
X117685715Y-146427401D02*
X117685715Y-146694068D01*
X117685715Y-146694068D02*
X117647620Y-146846449D01*
X117647620Y-146846449D02*
X117571429Y-146922640D01*
X117571429Y-146922640D02*
X117495239Y-146960735D01*
X117495239Y-146960735D02*
X117342858Y-146960735D01*
X117342858Y-146960735D02*
X117266667Y-146922640D01*
X117266667Y-146922640D02*
X117190477Y-146846449D01*
X117190477Y-146846449D02*
X117152381Y-146694068D01*
X117152381Y-146694068D02*
X117152381Y-146427401D01*
X117152381Y-146427401D02*
X117190477Y-146275020D01*
X117190477Y-146275020D02*
X117266667Y-146198830D01*
X117266667Y-146198830D02*
X117342858Y-146160735D01*
X119057143Y-146960735D02*
X118600000Y-146960735D01*
X118828572Y-146960735D02*
X118828572Y-146160735D01*
X118828572Y-146160735D02*
X118752381Y-146275020D01*
X118752381Y-146275020D02*
X118676191Y-146351211D01*
X118676191Y-146351211D02*
X118600000Y-146389306D01*
X119361905Y-146236925D02*
X119400001Y-146198830D01*
X119400001Y-146198830D02*
X119476191Y-146160735D01*
X119476191Y-146160735D02*
X119666667Y-146160735D01*
X119666667Y-146160735D02*
X119742858Y-146198830D01*
X119742858Y-146198830D02*
X119780953Y-146236925D01*
X119780953Y-146236925D02*
X119819048Y-146313116D01*
X119819048Y-146313116D02*
X119819048Y-146389306D01*
X119819048Y-146389306D02*
X119780953Y-146503592D01*
X119780953Y-146503592D02*
X119323810Y-146960735D01*
X119323810Y-146960735D02*
X119819048Y-146960735D01*
X120085715Y-146160735D02*
X120619049Y-146160735D01*
X120619049Y-146160735D02*
X120276191Y-146960735D01*
X120809525Y-146160735D02*
X121076192Y-146960735D01*
X121076192Y-146960735D02*
X121342858Y-146160735D01*
X122219049Y-146655973D02*
X122828573Y-146655973D01*
X123819049Y-146960735D02*
X123819049Y-146160735D01*
X123819049Y-146160735D02*
X124276192Y-146960735D01*
X124276192Y-146960735D02*
X124276192Y-146160735D01*
X124809525Y-146160735D02*
X124961906Y-146160735D01*
X124961906Y-146160735D02*
X125038096Y-146198830D01*
X125038096Y-146198830D02*
X125114287Y-146275020D01*
X125114287Y-146275020D02*
X125152382Y-146427401D01*
X125152382Y-146427401D02*
X125152382Y-146694068D01*
X125152382Y-146694068D02*
X125114287Y-146846449D01*
X125114287Y-146846449D02*
X125038096Y-146922640D01*
X125038096Y-146922640D02*
X124961906Y-146960735D01*
X124961906Y-146960735D02*
X124809525Y-146960735D01*
X124809525Y-146960735D02*
X124733334Y-146922640D01*
X124733334Y-146922640D02*
X124657144Y-146846449D01*
X124657144Y-146846449D02*
X124619048Y-146694068D01*
X124619048Y-146694068D02*
X124619048Y-146427401D01*
X124619048Y-146427401D02*
X124657144Y-146275020D01*
X124657144Y-146275020D02*
X124733334Y-146198830D01*
X124733334Y-146198830D02*
X124809525Y-146160735D01*
X125990477Y-146160735D02*
X126447620Y-146160735D01*
X126219048Y-146960735D02*
X126219048Y-146160735D01*
X126866668Y-146160735D02*
X127019049Y-146160735D01*
X127019049Y-146160735D02*
X127095239Y-146198830D01*
X127095239Y-146198830D02*
X127171430Y-146275020D01*
X127171430Y-146275020D02*
X127209525Y-146427401D01*
X127209525Y-146427401D02*
X127209525Y-146694068D01*
X127209525Y-146694068D02*
X127171430Y-146846449D01*
X127171430Y-146846449D02*
X127095239Y-146922640D01*
X127095239Y-146922640D02*
X127019049Y-146960735D01*
X127019049Y-146960735D02*
X126866668Y-146960735D01*
X126866668Y-146960735D02*
X126790477Y-146922640D01*
X126790477Y-146922640D02*
X126714287Y-146846449D01*
X126714287Y-146846449D02*
X126676191Y-146694068D01*
X126676191Y-146694068D02*
X126676191Y-146427401D01*
X126676191Y-146427401D02*
X126714287Y-146275020D01*
X126714287Y-146275020D02*
X126790477Y-146198830D01*
X126790477Y-146198830D02*
X126866668Y-146160735D01*
X128009525Y-146884544D02*
X127971429Y-146922640D01*
X127971429Y-146922640D02*
X127857144Y-146960735D01*
X127857144Y-146960735D02*
X127780953Y-146960735D01*
X127780953Y-146960735D02*
X127666667Y-146922640D01*
X127666667Y-146922640D02*
X127590477Y-146846449D01*
X127590477Y-146846449D02*
X127552382Y-146770259D01*
X127552382Y-146770259D02*
X127514286Y-146617878D01*
X127514286Y-146617878D02*
X127514286Y-146503592D01*
X127514286Y-146503592D02*
X127552382Y-146351211D01*
X127552382Y-146351211D02*
X127590477Y-146275020D01*
X127590477Y-146275020D02*
X127666667Y-146198830D01*
X127666667Y-146198830D02*
X127780953Y-146160735D01*
X127780953Y-146160735D02*
X127857144Y-146160735D01*
X127857144Y-146160735D02*
X127971429Y-146198830D01*
X127971429Y-146198830D02*
X128009525Y-146236925D01*
X128314286Y-146732163D02*
X128695239Y-146732163D01*
X128238096Y-146960735D02*
X128504763Y-146160735D01*
X128504763Y-146160735D02*
X128771429Y-146960735D01*
X129495239Y-146960735D02*
X129228572Y-146579782D01*
X129038096Y-146960735D02*
X129038096Y-146160735D01*
X129038096Y-146160735D02*
X129342858Y-146160735D01*
X129342858Y-146160735D02*
X129419048Y-146198830D01*
X129419048Y-146198830D02*
X129457143Y-146236925D01*
X129457143Y-146236925D02*
X129495239Y-146313116D01*
X129495239Y-146313116D02*
X129495239Y-146427401D01*
X129495239Y-146427401D02*
X129457143Y-146503592D01*
X129457143Y-146503592D02*
X129419048Y-146541687D01*
X129419048Y-146541687D02*
X129342858Y-146579782D01*
X129342858Y-146579782D02*
X129038096Y-146579782D01*
X130447620Y-146541687D02*
X130714286Y-146541687D01*
X130828572Y-146960735D02*
X130447620Y-146960735D01*
X130447620Y-146960735D02*
X130447620Y-146160735D01*
X130447620Y-146160735D02*
X130828572Y-146160735D01*
X131171430Y-146960735D02*
X131171430Y-146160735D01*
X131171430Y-146160735D02*
X131628573Y-146960735D01*
X131628573Y-146960735D02*
X131628573Y-146160735D01*
X132466668Y-146884544D02*
X132428572Y-146922640D01*
X132428572Y-146922640D02*
X132314287Y-146960735D01*
X132314287Y-146960735D02*
X132238096Y-146960735D01*
X132238096Y-146960735D02*
X132123810Y-146922640D01*
X132123810Y-146922640D02*
X132047620Y-146846449D01*
X132047620Y-146846449D02*
X132009525Y-146770259D01*
X132009525Y-146770259D02*
X131971429Y-146617878D01*
X131971429Y-146617878D02*
X131971429Y-146503592D01*
X131971429Y-146503592D02*
X132009525Y-146351211D01*
X132009525Y-146351211D02*
X132047620Y-146275020D01*
X132047620Y-146275020D02*
X132123810Y-146198830D01*
X132123810Y-146198830D02*
X132238096Y-146160735D01*
X132238096Y-146160735D02*
X132314287Y-146160735D01*
X132314287Y-146160735D02*
X132428572Y-146198830D01*
X132428572Y-146198830D02*
X132466668Y-146236925D01*
X132809525Y-146960735D02*
X132809525Y-146160735D01*
X132809525Y-146541687D02*
X133266668Y-146541687D01*
X133266668Y-146960735D02*
X133266668Y-146160735D01*
X133647620Y-146160735D02*
X133647620Y-146808354D01*
X133647620Y-146808354D02*
X133685715Y-146884544D01*
X133685715Y-146884544D02*
X133723810Y-146922640D01*
X133723810Y-146922640D02*
X133800001Y-146960735D01*
X133800001Y-146960735D02*
X133952382Y-146960735D01*
X133952382Y-146960735D02*
X134028572Y-146922640D01*
X134028572Y-146922640D02*
X134066667Y-146884544D01*
X134066667Y-146884544D02*
X134104763Y-146808354D01*
X134104763Y-146808354D02*
X134104763Y-146160735D01*
X134752381Y-146541687D02*
X134485715Y-146541687D01*
X134485715Y-146960735D02*
X134485715Y-146160735D01*
X134485715Y-146160735D02*
X134866667Y-146160735D01*
X135133333Y-146732163D02*
X135514286Y-146732163D01*
X135057143Y-146960735D02*
X135323810Y-146160735D01*
X135323810Y-146160735D02*
X135590476Y-146960735D01*
X135857143Y-146960735D02*
X135857143Y-146160735D01*
X135857143Y-146160735D02*
X136047619Y-146160735D01*
X136047619Y-146160735D02*
X136161905Y-146198830D01*
X136161905Y-146198830D02*
X136238095Y-146275020D01*
X136238095Y-146275020D02*
X136276190Y-146351211D01*
X136276190Y-146351211D02*
X136314286Y-146503592D01*
X136314286Y-146503592D02*
X136314286Y-146617878D01*
X136314286Y-146617878D02*
X136276190Y-146770259D01*
X136276190Y-146770259D02*
X136238095Y-146846449D01*
X136238095Y-146846449D02*
X136161905Y-146922640D01*
X136161905Y-146922640D02*
X136047619Y-146960735D01*
X136047619Y-146960735D02*
X135857143Y-146960735D01*
X136619047Y-146732163D02*
X137000000Y-146732163D01*
X136542857Y-146960735D02*
X136809524Y-146160735D01*
X136809524Y-146160735D02*
X137076190Y-146960735D01*
X118999999Y-148341687D02*
X119114285Y-148379782D01*
X119114285Y-148379782D02*
X119152380Y-148417878D01*
X119152380Y-148417878D02*
X119190476Y-148494068D01*
X119190476Y-148494068D02*
X119190476Y-148608354D01*
X119190476Y-148608354D02*
X119152380Y-148684544D01*
X119152380Y-148684544D02*
X119114285Y-148722640D01*
X119114285Y-148722640D02*
X119038095Y-148760735D01*
X119038095Y-148760735D02*
X118733333Y-148760735D01*
X118733333Y-148760735D02*
X118733333Y-147960735D01*
X118733333Y-147960735D02*
X118999999Y-147960735D01*
X118999999Y-147960735D02*
X119076190Y-147998830D01*
X119076190Y-147998830D02*
X119114285Y-148036925D01*
X119114285Y-148036925D02*
X119152380Y-148113116D01*
X119152380Y-148113116D02*
X119152380Y-148189306D01*
X119152380Y-148189306D02*
X119114285Y-148265497D01*
X119114285Y-148265497D02*
X119076190Y-148303592D01*
X119076190Y-148303592D02*
X118999999Y-148341687D01*
X118999999Y-148341687D02*
X118733333Y-148341687D01*
X119533333Y-148684544D02*
X119571428Y-148722640D01*
X119571428Y-148722640D02*
X119533333Y-148760735D01*
X119533333Y-148760735D02*
X119495237Y-148722640D01*
X119495237Y-148722640D02*
X119533333Y-148684544D01*
X119533333Y-148684544D02*
X119533333Y-148760735D01*
X119533333Y-148265497D02*
X119571428Y-148303592D01*
X119571428Y-148303592D02*
X119533333Y-148341687D01*
X119533333Y-148341687D02*
X119495237Y-148303592D01*
X119495237Y-148303592D02*
X119533333Y-148265497D01*
X119533333Y-148265497D02*
X119533333Y-148341687D01*
X120790475Y-148341687D02*
X120523809Y-148341687D01*
X120523809Y-148760735D02*
X120523809Y-147960735D01*
X120523809Y-147960735D02*
X120904761Y-147960735D01*
X121209523Y-147960735D02*
X121209523Y-148608354D01*
X121209523Y-148608354D02*
X121247618Y-148684544D01*
X121247618Y-148684544D02*
X121285713Y-148722640D01*
X121285713Y-148722640D02*
X121361904Y-148760735D01*
X121361904Y-148760735D02*
X121514285Y-148760735D01*
X121514285Y-148760735D02*
X121590475Y-148722640D01*
X121590475Y-148722640D02*
X121628570Y-148684544D01*
X121628570Y-148684544D02*
X121666666Y-148608354D01*
X121666666Y-148608354D02*
X121666666Y-147960735D01*
X122047618Y-148341687D02*
X122314284Y-148341687D01*
X122428570Y-148760735D02*
X122047618Y-148760735D01*
X122047618Y-148760735D02*
X122047618Y-147960735D01*
X122047618Y-147960735D02*
X122428570Y-147960735D01*
X122771428Y-148760735D02*
X122771428Y-147960735D01*
X122771428Y-147960735D02*
X123228571Y-148760735D01*
X123228571Y-148760735D02*
X123228571Y-147960735D01*
X123495237Y-147960735D02*
X123952380Y-147960735D01*
X123723808Y-148760735D02*
X123723808Y-147960735D01*
X124219047Y-148341687D02*
X124485713Y-148341687D01*
X124599999Y-148760735D02*
X124219047Y-148760735D01*
X124219047Y-148760735D02*
X124219047Y-147960735D01*
X124219047Y-147960735D02*
X124599999Y-147960735D01*
X125476190Y-147960735D02*
X125971428Y-147960735D01*
X125971428Y-147960735D02*
X125704762Y-148265497D01*
X125704762Y-148265497D02*
X125819047Y-148265497D01*
X125819047Y-148265497D02*
X125895238Y-148303592D01*
X125895238Y-148303592D02*
X125933333Y-148341687D01*
X125933333Y-148341687D02*
X125971428Y-148417878D01*
X125971428Y-148417878D02*
X125971428Y-148608354D01*
X125971428Y-148608354D02*
X125933333Y-148684544D01*
X125933333Y-148684544D02*
X125895238Y-148722640D01*
X125895238Y-148722640D02*
X125819047Y-148760735D01*
X125819047Y-148760735D02*
X125590476Y-148760735D01*
X125590476Y-148760735D02*
X125514285Y-148722640D01*
X125514285Y-148722640D02*
X125476190Y-148684544D01*
X126885714Y-148722640D02*
X127000000Y-148760735D01*
X127000000Y-148760735D02*
X127190476Y-148760735D01*
X127190476Y-148760735D02*
X127266667Y-148722640D01*
X127266667Y-148722640D02*
X127304762Y-148684544D01*
X127304762Y-148684544D02*
X127342857Y-148608354D01*
X127342857Y-148608354D02*
X127342857Y-148532163D01*
X127342857Y-148532163D02*
X127304762Y-148455973D01*
X127304762Y-148455973D02*
X127266667Y-148417878D01*
X127266667Y-148417878D02*
X127190476Y-148379782D01*
X127190476Y-148379782D02*
X127038095Y-148341687D01*
X127038095Y-148341687D02*
X126961905Y-148303592D01*
X126961905Y-148303592D02*
X126923810Y-148265497D01*
X126923810Y-148265497D02*
X126885714Y-148189306D01*
X126885714Y-148189306D02*
X126885714Y-148113116D01*
X126885714Y-148113116D02*
X126923810Y-148036925D01*
X126923810Y-148036925D02*
X126961905Y-147998830D01*
X126961905Y-147998830D02*
X127038095Y-147960735D01*
X127038095Y-147960735D02*
X127228572Y-147960735D01*
X127228572Y-147960735D02*
X127342857Y-147998830D01*
X127647619Y-148532163D02*
X128028572Y-148532163D01*
X127571429Y-148760735D02*
X127838096Y-147960735D01*
X127838096Y-147960735D02*
X128104762Y-148760735D01*
X128752381Y-148760735D02*
X128371429Y-148760735D01*
X128371429Y-148760735D02*
X128371429Y-147960735D01*
X129019048Y-148760735D02*
X129019048Y-147960735D01*
X129400000Y-148760735D02*
X129400000Y-147960735D01*
X129400000Y-147960735D02*
X129590476Y-147960735D01*
X129590476Y-147960735D02*
X129704762Y-147998830D01*
X129704762Y-147998830D02*
X129780952Y-148075020D01*
X129780952Y-148075020D02*
X129819047Y-148151211D01*
X129819047Y-148151211D02*
X129857143Y-148303592D01*
X129857143Y-148303592D02*
X129857143Y-148417878D01*
X129857143Y-148417878D02*
X129819047Y-148570259D01*
X129819047Y-148570259D02*
X129780952Y-148646449D01*
X129780952Y-148646449D02*
X129704762Y-148722640D01*
X129704762Y-148722640D02*
X129590476Y-148760735D01*
X129590476Y-148760735D02*
X129400000Y-148760735D01*
X130161904Y-148532163D02*
X130542857Y-148532163D01*
X130085714Y-148760735D02*
X130352381Y-147960735D01*
X130352381Y-147960735D02*
X130619047Y-148760735D01*
X130847618Y-148722640D02*
X130961904Y-148760735D01*
X130961904Y-148760735D02*
X131152380Y-148760735D01*
X131152380Y-148760735D02*
X131228571Y-148722640D01*
X131228571Y-148722640D02*
X131266666Y-148684544D01*
X131266666Y-148684544D02*
X131304761Y-148608354D01*
X131304761Y-148608354D02*
X131304761Y-148532163D01*
X131304761Y-148532163D02*
X131266666Y-148455973D01*
X131266666Y-148455973D02*
X131228571Y-148417878D01*
X131228571Y-148417878D02*
X131152380Y-148379782D01*
X131152380Y-148379782D02*
X130999999Y-148341687D01*
X130999999Y-148341687D02*
X130923809Y-148303592D01*
X130923809Y-148303592D02*
X130885714Y-148265497D01*
X130885714Y-148265497D02*
X130847618Y-148189306D01*
X130847618Y-148189306D02*
X130847618Y-148113116D01*
X130847618Y-148113116D02*
X130885714Y-148036925D01*
X130885714Y-148036925D02*
X130923809Y-147998830D01*
X130923809Y-147998830D02*
X130999999Y-147960735D01*
X130999999Y-147960735D02*
X131190476Y-147960735D01*
X131190476Y-147960735D02*
X131304761Y-147998830D01*
X147364140Y-115442857D02*
X147406997Y-115314286D01*
X147406997Y-115314286D02*
X147406997Y-115100000D01*
X147406997Y-115100000D02*
X147364140Y-115014286D01*
X147364140Y-115014286D02*
X147321282Y-114971428D01*
X147321282Y-114971428D02*
X147235568Y-114928571D01*
X147235568Y-114928571D02*
X147149854Y-114928571D01*
X147149854Y-114928571D02*
X147064140Y-114971428D01*
X147064140Y-114971428D02*
X147021282Y-115014286D01*
X147021282Y-115014286D02*
X146978425Y-115100000D01*
X146978425Y-115100000D02*
X146935568Y-115271428D01*
X146935568Y-115271428D02*
X146892711Y-115357143D01*
X146892711Y-115357143D02*
X146849854Y-115400000D01*
X146849854Y-115400000D02*
X146764140Y-115442857D01*
X146764140Y-115442857D02*
X146678425Y-115442857D01*
X146678425Y-115442857D02*
X146592711Y-115400000D01*
X146592711Y-115400000D02*
X146549854Y-115357143D01*
X146549854Y-115357143D02*
X146506997Y-115271428D01*
X146506997Y-115271428D02*
X146506997Y-115057143D01*
X146506997Y-115057143D02*
X146549854Y-114928571D01*
X147406997Y-114071428D02*
X147406997Y-114585714D01*
X147406997Y-114328571D02*
X146506997Y-114328571D01*
X146506997Y-114328571D02*
X146635568Y-114414285D01*
X146635568Y-114414285D02*
X146721282Y-114500000D01*
X146721282Y-114500000D02*
X146764140Y-114585714D01*
X147064140Y-113685714D02*
X147064140Y-113000000D01*
X147364140Y-130442856D02*
X147406997Y-130314285D01*
X147406997Y-130314285D02*
X147406997Y-130099999D01*
X147406997Y-130099999D02*
X147364140Y-130014285D01*
X147364140Y-130014285D02*
X147321282Y-129971427D01*
X147321282Y-129971427D02*
X147235568Y-129928570D01*
X147235568Y-129928570D02*
X147149854Y-129928570D01*
X147149854Y-129928570D02*
X147064140Y-129971427D01*
X147064140Y-129971427D02*
X147021282Y-130014285D01*
X147021282Y-130014285D02*
X146978425Y-130099999D01*
X146978425Y-130099999D02*
X146935568Y-130271427D01*
X146935568Y-130271427D02*
X146892711Y-130357142D01*
X146892711Y-130357142D02*
X146849854Y-130399999D01*
X146849854Y-130399999D02*
X146764140Y-130442856D01*
X146764140Y-130442856D02*
X146678425Y-130442856D01*
X146678425Y-130442856D02*
X146592711Y-130399999D01*
X146592711Y-130399999D02*
X146549854Y-130357142D01*
X146549854Y-130357142D02*
X146506997Y-130271427D01*
X146506997Y-130271427D02*
X146506997Y-130057142D01*
X146506997Y-130057142D02*
X146549854Y-129928570D01*
X146592711Y-129585713D02*
X146549854Y-129542856D01*
X146549854Y-129542856D02*
X146506997Y-129457142D01*
X146506997Y-129457142D02*
X146506997Y-129242856D01*
X146506997Y-129242856D02*
X146549854Y-129157142D01*
X146549854Y-129157142D02*
X146592711Y-129114284D01*
X146592711Y-129114284D02*
X146678425Y-129071427D01*
X146678425Y-129071427D02*
X146764140Y-129071427D01*
X146764140Y-129071427D02*
X146892711Y-129114284D01*
X146892711Y-129114284D02*
X147406997Y-129628570D01*
X147406997Y-129628570D02*
X147406997Y-129071427D01*
X147064140Y-128685713D02*
X147064140Y-127999999D01*
X147364140Y-145442857D02*
X147406997Y-145314286D01*
X147406997Y-145314286D02*
X147406997Y-145100000D01*
X147406997Y-145100000D02*
X147364140Y-145014286D01*
X147364140Y-145014286D02*
X147321282Y-144971428D01*
X147321282Y-144971428D02*
X147235568Y-144928571D01*
X147235568Y-144928571D02*
X147149854Y-144928571D01*
X147149854Y-144928571D02*
X147064140Y-144971428D01*
X147064140Y-144971428D02*
X147021282Y-145014286D01*
X147021282Y-145014286D02*
X146978425Y-145100000D01*
X146978425Y-145100000D02*
X146935568Y-145271428D01*
X146935568Y-145271428D02*
X146892711Y-145357143D01*
X146892711Y-145357143D02*
X146849854Y-145400000D01*
X146849854Y-145400000D02*
X146764140Y-145442857D01*
X146764140Y-145442857D02*
X146678425Y-145442857D01*
X146678425Y-145442857D02*
X146592711Y-145400000D01*
X146592711Y-145400000D02*
X146549854Y-145357143D01*
X146549854Y-145357143D02*
X146506997Y-145271428D01*
X146506997Y-145271428D02*
X146506997Y-145057143D01*
X146506997Y-145057143D02*
X146549854Y-144928571D01*
X146506997Y-144628571D02*
X146506997Y-144071428D01*
X146506997Y-144071428D02*
X146849854Y-144371428D01*
X146849854Y-144371428D02*
X146849854Y-144242857D01*
X146849854Y-144242857D02*
X146892711Y-144157143D01*
X146892711Y-144157143D02*
X146935568Y-144114285D01*
X146935568Y-144114285D02*
X147021282Y-144071428D01*
X147021282Y-144071428D02*
X147235568Y-144071428D01*
X147235568Y-144071428D02*
X147321282Y-144114285D01*
X147321282Y-144114285D02*
X147364140Y-144157143D01*
X147364140Y-144157143D02*
X147406997Y-144242857D01*
X147406997Y-144242857D02*
X147406997Y-144500000D01*
X147406997Y-144500000D02*
X147364140Y-144585714D01*
X147364140Y-144585714D02*
X147321282Y-144628571D01*
X147064140Y-143685714D02*
X147064140Y-143000000D01*
X115019048Y-110205640D02*
X115161905Y-110253259D01*
X115161905Y-110253259D02*
X115400000Y-110253259D01*
X115400000Y-110253259D02*
X115495238Y-110205640D01*
X115495238Y-110205640D02*
X115542857Y-110158020D01*
X115542857Y-110158020D02*
X115590476Y-110062782D01*
X115590476Y-110062782D02*
X115590476Y-109967544D01*
X115590476Y-109967544D02*
X115542857Y-109872306D01*
X115542857Y-109872306D02*
X115495238Y-109824687D01*
X115495238Y-109824687D02*
X115400000Y-109777068D01*
X115400000Y-109777068D02*
X115209524Y-109729449D01*
X115209524Y-109729449D02*
X115114286Y-109681830D01*
X115114286Y-109681830D02*
X115066667Y-109634211D01*
X115066667Y-109634211D02*
X115019048Y-109538973D01*
X115019048Y-109538973D02*
X115019048Y-109443735D01*
X115019048Y-109443735D02*
X115066667Y-109348497D01*
X115066667Y-109348497D02*
X115114286Y-109300878D01*
X115114286Y-109300878D02*
X115209524Y-109253259D01*
X115209524Y-109253259D02*
X115447619Y-109253259D01*
X115447619Y-109253259D02*
X115590476Y-109300878D01*
X116542857Y-110253259D02*
X115971429Y-110253259D01*
X116257143Y-110253259D02*
X116257143Y-109253259D01*
X116257143Y-109253259D02*
X116161905Y-109396116D01*
X116161905Y-109396116D02*
X116066667Y-109491354D01*
X116066667Y-109491354D02*
X115971429Y-109538973D01*
X116971429Y-109872306D02*
X117733334Y-109872306D01*
X117352381Y-110253259D02*
X117352381Y-109491354D01*
X115019048Y-125205640D02*
X115161905Y-125253259D01*
X115161905Y-125253259D02*
X115400000Y-125253259D01*
X115400000Y-125253259D02*
X115495238Y-125205640D01*
X115495238Y-125205640D02*
X115542857Y-125158020D01*
X115542857Y-125158020D02*
X115590476Y-125062782D01*
X115590476Y-125062782D02*
X115590476Y-124967544D01*
X115590476Y-124967544D02*
X115542857Y-124872306D01*
X115542857Y-124872306D02*
X115495238Y-124824687D01*
X115495238Y-124824687D02*
X115400000Y-124777068D01*
X115400000Y-124777068D02*
X115209524Y-124729449D01*
X115209524Y-124729449D02*
X115114286Y-124681830D01*
X115114286Y-124681830D02*
X115066667Y-124634211D01*
X115066667Y-124634211D02*
X115019048Y-124538973D01*
X115019048Y-124538973D02*
X115019048Y-124443735D01*
X115019048Y-124443735D02*
X115066667Y-124348497D01*
X115066667Y-124348497D02*
X115114286Y-124300878D01*
X115114286Y-124300878D02*
X115209524Y-124253259D01*
X115209524Y-124253259D02*
X115447619Y-124253259D01*
X115447619Y-124253259D02*
X115590476Y-124300878D01*
X115971429Y-124348497D02*
X116019048Y-124300878D01*
X116019048Y-124300878D02*
X116114286Y-124253259D01*
X116114286Y-124253259D02*
X116352381Y-124253259D01*
X116352381Y-124253259D02*
X116447619Y-124300878D01*
X116447619Y-124300878D02*
X116495238Y-124348497D01*
X116495238Y-124348497D02*
X116542857Y-124443735D01*
X116542857Y-124443735D02*
X116542857Y-124538973D01*
X116542857Y-124538973D02*
X116495238Y-124681830D01*
X116495238Y-124681830D02*
X115923810Y-125253259D01*
X115923810Y-125253259D02*
X116542857Y-125253259D01*
X116971429Y-124872306D02*
X117733334Y-124872306D01*
X117352381Y-125253259D02*
X117352381Y-124491354D01*
X115019048Y-140205640D02*
X115161905Y-140253259D01*
X115161905Y-140253259D02*
X115400000Y-140253259D01*
X115400000Y-140253259D02*
X115495238Y-140205640D01*
X115495238Y-140205640D02*
X115542857Y-140158020D01*
X115542857Y-140158020D02*
X115590476Y-140062782D01*
X115590476Y-140062782D02*
X115590476Y-139967544D01*
X115590476Y-139967544D02*
X115542857Y-139872306D01*
X115542857Y-139872306D02*
X115495238Y-139824687D01*
X115495238Y-139824687D02*
X115400000Y-139777068D01*
X115400000Y-139777068D02*
X115209524Y-139729449D01*
X115209524Y-139729449D02*
X115114286Y-139681830D01*
X115114286Y-139681830D02*
X115066667Y-139634211D01*
X115066667Y-139634211D02*
X115019048Y-139538973D01*
X115019048Y-139538973D02*
X115019048Y-139443735D01*
X115019048Y-139443735D02*
X115066667Y-139348497D01*
X115066667Y-139348497D02*
X115114286Y-139300878D01*
X115114286Y-139300878D02*
X115209524Y-139253259D01*
X115209524Y-139253259D02*
X115447619Y-139253259D01*
X115447619Y-139253259D02*
X115590476Y-139300878D01*
X115923810Y-139253259D02*
X116542857Y-139253259D01*
X116542857Y-139253259D02*
X116209524Y-139634211D01*
X116209524Y-139634211D02*
X116352381Y-139634211D01*
X116352381Y-139634211D02*
X116447619Y-139681830D01*
X116447619Y-139681830D02*
X116495238Y-139729449D01*
X116495238Y-139729449D02*
X116542857Y-139824687D01*
X116542857Y-139824687D02*
X116542857Y-140062782D01*
X116542857Y-140062782D02*
X116495238Y-140158020D01*
X116495238Y-140158020D02*
X116447619Y-140205640D01*
X116447619Y-140205640D02*
X116352381Y-140253259D01*
X116352381Y-140253259D02*
X116066667Y-140253259D01*
X116066667Y-140253259D02*
X115971429Y-140205640D01*
X115971429Y-140205640D02*
X115923810Y-140158020D01*
X116971429Y-139872306D02*
X117733334Y-139872306D01*
X117352381Y-140253259D02*
X117352381Y-139491354D01*
D11*
X109557143Y-105745158D02*
X109557143Y-104545158D01*
X109557143Y-104545158D02*
X110242857Y-105745158D01*
X110242857Y-105745158D02*
X110242857Y-104545158D01*
X110271428Y-110845158D02*
X109700000Y-110845158D01*
X109700000Y-110845158D02*
X109700000Y-109645158D01*
D12*
X120833333Y-115709580D02*
X120785714Y-115757200D01*
X120785714Y-115757200D02*
X120642857Y-115804819D01*
X120642857Y-115804819D02*
X120547619Y-115804819D01*
X120547619Y-115804819D02*
X120404762Y-115757200D01*
X120404762Y-115757200D02*
X120309524Y-115661961D01*
X120309524Y-115661961D02*
X120261905Y-115566723D01*
X120261905Y-115566723D02*
X120214286Y-115376247D01*
X120214286Y-115376247D02*
X120214286Y-115233390D01*
X120214286Y-115233390D02*
X120261905Y-115042914D01*
X120261905Y-115042914D02*
X120309524Y-114947676D01*
X120309524Y-114947676D02*
X120404762Y-114852438D01*
X120404762Y-114852438D02*
X120547619Y-114804819D01*
X120547619Y-114804819D02*
X120642857Y-114804819D01*
X120642857Y-114804819D02*
X120785714Y-114852438D01*
X120785714Y-114852438D02*
X120833333Y-114900057D01*
X121214286Y-114900057D02*
X121261905Y-114852438D01*
X121261905Y-114852438D02*
X121357143Y-114804819D01*
X121357143Y-114804819D02*
X121595238Y-114804819D01*
X121595238Y-114804819D02*
X121690476Y-114852438D01*
X121690476Y-114852438D02*
X121738095Y-114900057D01*
X121738095Y-114900057D02*
X121785714Y-114995295D01*
X121785714Y-114995295D02*
X121785714Y-115090533D01*
X121785714Y-115090533D02*
X121738095Y-115233390D01*
X121738095Y-115233390D02*
X121166667Y-115804819D01*
X121166667Y-115804819D02*
X121785714Y-115804819D01*
D10*
X123347618Y-122160735D02*
X122890475Y-122160735D01*
X123119047Y-122160735D02*
X123119047Y-121360735D01*
X123119047Y-121360735D02*
X123042856Y-121475020D01*
X123042856Y-121475020D02*
X122966666Y-121551211D01*
X122966666Y-121551211D02*
X122890475Y-121589306D01*
X123842857Y-121360735D02*
X123919047Y-121360735D01*
X123919047Y-121360735D02*
X123995238Y-121398830D01*
X123995238Y-121398830D02*
X124033333Y-121436925D01*
X124033333Y-121436925D02*
X124071428Y-121513116D01*
X124071428Y-121513116D02*
X124109523Y-121665497D01*
X124109523Y-121665497D02*
X124109523Y-121855973D01*
X124109523Y-121855973D02*
X124071428Y-122008354D01*
X124071428Y-122008354D02*
X124033333Y-122084544D01*
X124033333Y-122084544D02*
X123995238Y-122122640D01*
X123995238Y-122122640D02*
X123919047Y-122160735D01*
X123919047Y-122160735D02*
X123842857Y-122160735D01*
X123842857Y-122160735D02*
X123766666Y-122122640D01*
X123766666Y-122122640D02*
X123728571Y-122084544D01*
X123728571Y-122084544D02*
X123690476Y-122008354D01*
X123690476Y-122008354D02*
X123652380Y-121855973D01*
X123652380Y-121855973D02*
X123652380Y-121665497D01*
X123652380Y-121665497D02*
X123690476Y-121513116D01*
X123690476Y-121513116D02*
X123728571Y-121436925D01*
X123728571Y-121436925D02*
X123766666Y-121398830D01*
X123766666Y-121398830D02*
X123842857Y-121360735D01*
X128347618Y-122160735D02*
X127890475Y-122160735D01*
X128119047Y-122160735D02*
X128119047Y-121360735D01*
X128119047Y-121360735D02*
X128042856Y-121475020D01*
X128042856Y-121475020D02*
X127966666Y-121551211D01*
X127966666Y-121551211D02*
X127890475Y-121589306D01*
X129071428Y-121360735D02*
X128690476Y-121360735D01*
X128690476Y-121360735D02*
X128652380Y-121741687D01*
X128652380Y-121741687D02*
X128690476Y-121703592D01*
X128690476Y-121703592D02*
X128766666Y-121665497D01*
X128766666Y-121665497D02*
X128957142Y-121665497D01*
X128957142Y-121665497D02*
X129033333Y-121703592D01*
X129033333Y-121703592D02*
X129071428Y-121741687D01*
X129071428Y-121741687D02*
X129109523Y-121817878D01*
X129109523Y-121817878D02*
X129109523Y-122008354D01*
X129109523Y-122008354D02*
X129071428Y-122084544D01*
X129071428Y-122084544D02*
X129033333Y-122122640D01*
X129033333Y-122122640D02*
X128957142Y-122160735D01*
X128957142Y-122160735D02*
X128766666Y-122160735D01*
X128766666Y-122160735D02*
X128690476Y-122122640D01*
X128690476Y-122122640D02*
X128652380Y-122084544D01*
D12*
X119666666Y-136254819D02*
X119666666Y-136969104D01*
X119666666Y-136969104D02*
X119619047Y-137111961D01*
X119619047Y-137111961D02*
X119523809Y-137207200D01*
X119523809Y-137207200D02*
X119380952Y-137254819D01*
X119380952Y-137254819D02*
X119285714Y-137254819D01*
X120571428Y-136254819D02*
X120380952Y-136254819D01*
X120380952Y-136254819D02*
X120285714Y-136302438D01*
X120285714Y-136302438D02*
X120238095Y-136350057D01*
X120238095Y-136350057D02*
X120142857Y-136492914D01*
X120142857Y-136492914D02*
X120095238Y-136683390D01*
X120095238Y-136683390D02*
X120095238Y-137064342D01*
X120095238Y-137064342D02*
X120142857Y-137159580D01*
X120142857Y-137159580D02*
X120190476Y-137207200D01*
X120190476Y-137207200D02*
X120285714Y-137254819D01*
X120285714Y-137254819D02*
X120476190Y-137254819D01*
X120476190Y-137254819D02*
X120571428Y-137207200D01*
X120571428Y-137207200D02*
X120619047Y-137159580D01*
X120619047Y-137159580D02*
X120666666Y-137064342D01*
X120666666Y-137064342D02*
X120666666Y-136826247D01*
X120666666Y-136826247D02*
X120619047Y-136731009D01*
X120619047Y-136731009D02*
X120571428Y-136683390D01*
X120571428Y-136683390D02*
X120476190Y-136635771D01*
X120476190Y-136635771D02*
X120285714Y-136635771D01*
X120285714Y-136635771D02*
X120190476Y-136683390D01*
X120190476Y-136683390D02*
X120142857Y-136731009D01*
X120142857Y-136731009D02*
X120095238Y-136826247D01*
X143246665Y-110654819D02*
X143246665Y-111369104D01*
X143246665Y-111369104D02*
X143199046Y-111511961D01*
X143199046Y-111511961D02*
X143103808Y-111607200D01*
X143103808Y-111607200D02*
X142960951Y-111654819D01*
X142960951Y-111654819D02*
X142865713Y-111654819D01*
X143627618Y-110654819D02*
X144246665Y-110654819D01*
X144246665Y-110654819D02*
X143913332Y-111035771D01*
X143913332Y-111035771D02*
X144056189Y-111035771D01*
X144056189Y-111035771D02*
X144151427Y-111083390D01*
X144151427Y-111083390D02*
X144199046Y-111131009D01*
X144199046Y-111131009D02*
X144246665Y-111226247D01*
X144246665Y-111226247D02*
X144246665Y-111464342D01*
X144246665Y-111464342D02*
X144199046Y-111559580D01*
X144199046Y-111559580D02*
X144151427Y-111607200D01*
X144151427Y-111607200D02*
X144056189Y-111654819D01*
X144056189Y-111654819D02*
X143770475Y-111654819D01*
X143770475Y-111654819D02*
X143675237Y-111607200D01*
X143675237Y-111607200D02*
X143627618Y-111559580D01*
X136374819Y-123576666D02*
X135898628Y-123909999D01*
X136374819Y-124148094D02*
X135374819Y-124148094D01*
X135374819Y-124148094D02*
X135374819Y-123767142D01*
X135374819Y-123767142D02*
X135422438Y-123671904D01*
X135422438Y-123671904D02*
X135470057Y-123624285D01*
X135470057Y-123624285D02*
X135565295Y-123576666D01*
X135565295Y-123576666D02*
X135708152Y-123576666D01*
X135708152Y-123576666D02*
X135803390Y-123624285D01*
X135803390Y-123624285D02*
X135851009Y-123671904D01*
X135851009Y-123671904D02*
X135898628Y-123767142D01*
X135898628Y-123767142D02*
X135898628Y-124148094D01*
X135470057Y-123195713D02*
X135422438Y-123148094D01*
X135422438Y-123148094D02*
X135374819Y-123052856D01*
X135374819Y-123052856D02*
X135374819Y-122814761D01*
X135374819Y-122814761D02*
X135422438Y-122719523D01*
X135422438Y-122719523D02*
X135470057Y-122671904D01*
X135470057Y-122671904D02*
X135565295Y-122624285D01*
X135565295Y-122624285D02*
X135660533Y-122624285D01*
X135660533Y-122624285D02*
X135803390Y-122671904D01*
X135803390Y-122671904D02*
X136374819Y-123243332D01*
X136374819Y-123243332D02*
X136374819Y-122624285D01*
X140135238Y-116229009D02*
X140278095Y-116276628D01*
X140278095Y-116276628D02*
X140325714Y-116324247D01*
X140325714Y-116324247D02*
X140373333Y-116419485D01*
X140373333Y-116419485D02*
X140373333Y-116562342D01*
X140373333Y-116562342D02*
X140325714Y-116657580D01*
X140325714Y-116657580D02*
X140278095Y-116705200D01*
X140278095Y-116705200D02*
X140182857Y-116752819D01*
X140182857Y-116752819D02*
X139801905Y-116752819D01*
X139801905Y-116752819D02*
X139801905Y-115752819D01*
X139801905Y-115752819D02*
X140135238Y-115752819D01*
X140135238Y-115752819D02*
X140230476Y-115800438D01*
X140230476Y-115800438D02*
X140278095Y-115848057D01*
X140278095Y-115848057D02*
X140325714Y-115943295D01*
X140325714Y-115943295D02*
X140325714Y-116038533D01*
X140325714Y-116038533D02*
X140278095Y-116133771D01*
X140278095Y-116133771D02*
X140230476Y-116181390D01*
X140230476Y-116181390D02*
X140135238Y-116229009D01*
X140135238Y-116229009D02*
X139801905Y-116229009D01*
X141373333Y-116752819D02*
X141040000Y-116276628D01*
X140801905Y-116752819D02*
X140801905Y-115752819D01*
X140801905Y-115752819D02*
X141182857Y-115752819D01*
X141182857Y-115752819D02*
X141278095Y-115800438D01*
X141278095Y-115800438D02*
X141325714Y-115848057D01*
X141325714Y-115848057D02*
X141373333Y-115943295D01*
X141373333Y-115943295D02*
X141373333Y-116086152D01*
X141373333Y-116086152D02*
X141325714Y-116181390D01*
X141325714Y-116181390D02*
X141278095Y-116229009D01*
X141278095Y-116229009D02*
X141182857Y-116276628D01*
X141182857Y-116276628D02*
X140801905Y-116276628D01*
X141754286Y-115848057D02*
X141801905Y-115800438D01*
X141801905Y-115800438D02*
X141897143Y-115752819D01*
X141897143Y-115752819D02*
X142135238Y-115752819D01*
X142135238Y-115752819D02*
X142230476Y-115800438D01*
X142230476Y-115800438D02*
X142278095Y-115848057D01*
X142278095Y-115848057D02*
X142325714Y-115943295D01*
X142325714Y-115943295D02*
X142325714Y-116038533D01*
X142325714Y-116038533D02*
X142278095Y-116181390D01*
X142278095Y-116181390D02*
X141706667Y-116752819D01*
X141706667Y-116752819D02*
X142325714Y-116752819D01*
D10*
X135842857Y-118488640D02*
X136757143Y-118488640D01*
X136300000Y-118945782D02*
X136300000Y-118031497D01*
X145342857Y-125988640D02*
X146257143Y-125988640D01*
X145485714Y-118488640D02*
X145542857Y-118431497D01*
X145542857Y-118431497D02*
X145657143Y-118374354D01*
X145657143Y-118374354D02*
X145885714Y-118488640D01*
X145885714Y-118488640D02*
X146000000Y-118431497D01*
X146000000Y-118431497D02*
X146057143Y-118374354D01*
X135985714Y-125988640D02*
X136042857Y-125931497D01*
X136042857Y-125931497D02*
X136157143Y-125874354D01*
X136157143Y-125874354D02*
X136385714Y-125988640D01*
X136385714Y-125988640D02*
X136500000Y-125931497D01*
X136500000Y-125931497D02*
X136557143Y-125874354D01*
D12*
X119666666Y-106254819D02*
X119666666Y-106969104D01*
X119666666Y-106969104D02*
X119619047Y-107111961D01*
X119619047Y-107111961D02*
X119523809Y-107207200D01*
X119523809Y-107207200D02*
X119380952Y-107254819D01*
X119380952Y-107254819D02*
X119285714Y-107254819D01*
X120095238Y-106350057D02*
X120142857Y-106302438D01*
X120142857Y-106302438D02*
X120238095Y-106254819D01*
X120238095Y-106254819D02*
X120476190Y-106254819D01*
X120476190Y-106254819D02*
X120571428Y-106302438D01*
X120571428Y-106302438D02*
X120619047Y-106350057D01*
X120619047Y-106350057D02*
X120666666Y-106445295D01*
X120666666Y-106445295D02*
X120666666Y-106540533D01*
X120666666Y-106540533D02*
X120619047Y-106683390D01*
X120619047Y-106683390D02*
X120047619Y-107254819D01*
X120047619Y-107254819D02*
X120666666Y-107254819D01*
X140135238Y-101229009D02*
X140278095Y-101276628D01*
X140278095Y-101276628D02*
X140325714Y-101324247D01*
X140325714Y-101324247D02*
X140373333Y-101419485D01*
X140373333Y-101419485D02*
X140373333Y-101562342D01*
X140373333Y-101562342D02*
X140325714Y-101657580D01*
X140325714Y-101657580D02*
X140278095Y-101705200D01*
X140278095Y-101705200D02*
X140182857Y-101752819D01*
X140182857Y-101752819D02*
X139801905Y-101752819D01*
X139801905Y-101752819D02*
X139801905Y-100752819D01*
X139801905Y-100752819D02*
X140135238Y-100752819D01*
X140135238Y-100752819D02*
X140230476Y-100800438D01*
X140230476Y-100800438D02*
X140278095Y-100848057D01*
X140278095Y-100848057D02*
X140325714Y-100943295D01*
X140325714Y-100943295D02*
X140325714Y-101038533D01*
X140325714Y-101038533D02*
X140278095Y-101133771D01*
X140278095Y-101133771D02*
X140230476Y-101181390D01*
X140230476Y-101181390D02*
X140135238Y-101229009D01*
X140135238Y-101229009D02*
X139801905Y-101229009D01*
X141373333Y-101752819D02*
X141040000Y-101276628D01*
X140801905Y-101752819D02*
X140801905Y-100752819D01*
X140801905Y-100752819D02*
X141182857Y-100752819D01*
X141182857Y-100752819D02*
X141278095Y-100800438D01*
X141278095Y-100800438D02*
X141325714Y-100848057D01*
X141325714Y-100848057D02*
X141373333Y-100943295D01*
X141373333Y-100943295D02*
X141373333Y-101086152D01*
X141373333Y-101086152D02*
X141325714Y-101181390D01*
X141325714Y-101181390D02*
X141278095Y-101229009D01*
X141278095Y-101229009D02*
X141182857Y-101276628D01*
X141182857Y-101276628D02*
X140801905Y-101276628D01*
X142325714Y-101752819D02*
X141754286Y-101752819D01*
X142040000Y-101752819D02*
X142040000Y-100752819D01*
X142040000Y-100752819D02*
X141944762Y-100895676D01*
X141944762Y-100895676D02*
X141849524Y-100990914D01*
X141849524Y-100990914D02*
X141754286Y-101038533D01*
D10*
X135842857Y-103488640D02*
X136757143Y-103488640D01*
X136300000Y-103945782D02*
X136300000Y-103031497D01*
X145485714Y-103488640D02*
X145542857Y-103431497D01*
X145542857Y-103431497D02*
X145657143Y-103374354D01*
X145657143Y-103374354D02*
X145885714Y-103488640D01*
X145885714Y-103488640D02*
X146000000Y-103431497D01*
X146000000Y-103431497D02*
X146057143Y-103374354D01*
X135985714Y-110988640D02*
X136042857Y-110931497D01*
X136042857Y-110931497D02*
X136157143Y-110874354D01*
X136157143Y-110874354D02*
X136385714Y-110988640D01*
X136385714Y-110988640D02*
X136500000Y-110931497D01*
X136500000Y-110931497D02*
X136557143Y-110874354D01*
X145342857Y-110988640D02*
X146257143Y-110988640D01*
D12*
X111574819Y-108073333D02*
X112289104Y-108073333D01*
X112289104Y-108073333D02*
X112431961Y-108120952D01*
X112431961Y-108120952D02*
X112527200Y-108216190D01*
X112527200Y-108216190D02*
X112574819Y-108359047D01*
X112574819Y-108359047D02*
X112574819Y-108454285D01*
X112574819Y-107073333D02*
X112574819Y-107644761D01*
X112574819Y-107359047D02*
X111574819Y-107359047D01*
X111574819Y-107359047D02*
X111717676Y-107454285D01*
X111717676Y-107454285D02*
X111812914Y-107549523D01*
X111812914Y-107549523D02*
X111860533Y-107644761D01*
X136374819Y-138576666D02*
X135898628Y-138909999D01*
X136374819Y-139148094D02*
X135374819Y-139148094D01*
X135374819Y-139148094D02*
X135374819Y-138767142D01*
X135374819Y-138767142D02*
X135422438Y-138671904D01*
X135422438Y-138671904D02*
X135470057Y-138624285D01*
X135470057Y-138624285D02*
X135565295Y-138576666D01*
X135565295Y-138576666D02*
X135708152Y-138576666D01*
X135708152Y-138576666D02*
X135803390Y-138624285D01*
X135803390Y-138624285D02*
X135851009Y-138671904D01*
X135851009Y-138671904D02*
X135898628Y-138767142D01*
X135898628Y-138767142D02*
X135898628Y-139148094D01*
X135374819Y-138243332D02*
X135374819Y-137624285D01*
X135374819Y-137624285D02*
X135755771Y-137957618D01*
X135755771Y-137957618D02*
X135755771Y-137814761D01*
X135755771Y-137814761D02*
X135803390Y-137719523D01*
X135803390Y-137719523D02*
X135851009Y-137671904D01*
X135851009Y-137671904D02*
X135946247Y-137624285D01*
X135946247Y-137624285D02*
X136184342Y-137624285D01*
X136184342Y-137624285D02*
X136279580Y-137671904D01*
X136279580Y-137671904D02*
X136327200Y-137719523D01*
X136327200Y-137719523D02*
X136374819Y-137814761D01*
X136374819Y-137814761D02*
X136374819Y-138100475D01*
X136374819Y-138100475D02*
X136327200Y-138195713D01*
X136327200Y-138195713D02*
X136279580Y-138243332D01*
X136374819Y-108576666D02*
X135898628Y-108909999D01*
X136374819Y-109148094D02*
X135374819Y-109148094D01*
X135374819Y-109148094D02*
X135374819Y-108767142D01*
X135374819Y-108767142D02*
X135422438Y-108671904D01*
X135422438Y-108671904D02*
X135470057Y-108624285D01*
X135470057Y-108624285D02*
X135565295Y-108576666D01*
X135565295Y-108576666D02*
X135708152Y-108576666D01*
X135708152Y-108576666D02*
X135803390Y-108624285D01*
X135803390Y-108624285D02*
X135851009Y-108671904D01*
X135851009Y-108671904D02*
X135898628Y-108767142D01*
X135898628Y-108767142D02*
X135898628Y-109148094D01*
X136374819Y-107624285D02*
X136374819Y-108195713D01*
X136374819Y-107909999D02*
X135374819Y-107909999D01*
X135374819Y-107909999D02*
X135517676Y-108005237D01*
X135517676Y-108005237D02*
X135612914Y-108100475D01*
X135612914Y-108100475D02*
X135660533Y-108195713D01*
X119666666Y-121254819D02*
X119666666Y-121969104D01*
X119666666Y-121969104D02*
X119619047Y-122111961D01*
X119619047Y-122111961D02*
X119523809Y-122207200D01*
X119523809Y-122207200D02*
X119380952Y-122254819D01*
X119380952Y-122254819D02*
X119285714Y-122254819D01*
X120571428Y-121588152D02*
X120571428Y-122254819D01*
X120333333Y-121207200D02*
X120095238Y-121921485D01*
X120095238Y-121921485D02*
X120714285Y-121921485D01*
X143246665Y-140654819D02*
X143246665Y-141369104D01*
X143246665Y-141369104D02*
X143199046Y-141511961D01*
X143199046Y-141511961D02*
X143103808Y-141607200D01*
X143103808Y-141607200D02*
X142960951Y-141654819D01*
X142960951Y-141654819D02*
X142865713Y-141654819D01*
X143627618Y-140654819D02*
X144294284Y-140654819D01*
X144294284Y-140654819D02*
X143865713Y-141654819D01*
X143246665Y-125654818D02*
X143246665Y-126369103D01*
X143246665Y-126369103D02*
X143199046Y-126511960D01*
X143199046Y-126511960D02*
X143103808Y-126607199D01*
X143103808Y-126607199D02*
X142960951Y-126654818D01*
X142960951Y-126654818D02*
X142865713Y-126654818D01*
X144199046Y-125654818D02*
X143722856Y-125654818D01*
X143722856Y-125654818D02*
X143675237Y-126131008D01*
X143675237Y-126131008D02*
X143722856Y-126083389D01*
X143722856Y-126083389D02*
X143818094Y-126035770D01*
X143818094Y-126035770D02*
X144056189Y-126035770D01*
X144056189Y-126035770D02*
X144151427Y-126083389D01*
X144151427Y-126083389D02*
X144199046Y-126131008D01*
X144199046Y-126131008D02*
X144246665Y-126226246D01*
X144246665Y-126226246D02*
X144246665Y-126464341D01*
X144246665Y-126464341D02*
X144199046Y-126559579D01*
X144199046Y-126559579D02*
X144151427Y-126607199D01*
X144151427Y-126607199D02*
X144056189Y-126654818D01*
X144056189Y-126654818D02*
X143818094Y-126654818D01*
X143818094Y-126654818D02*
X143722856Y-126607199D01*
X143722856Y-126607199D02*
X143675237Y-126559579D01*
X120833333Y-100709580D02*
X120785714Y-100757200D01*
X120785714Y-100757200D02*
X120642857Y-100804819D01*
X120642857Y-100804819D02*
X120547619Y-100804819D01*
X120547619Y-100804819D02*
X120404762Y-100757200D01*
X120404762Y-100757200D02*
X120309524Y-100661961D01*
X120309524Y-100661961D02*
X120261905Y-100566723D01*
X120261905Y-100566723D02*
X120214286Y-100376247D01*
X120214286Y-100376247D02*
X120214286Y-100233390D01*
X120214286Y-100233390D02*
X120261905Y-100042914D01*
X120261905Y-100042914D02*
X120309524Y-99947676D01*
X120309524Y-99947676D02*
X120404762Y-99852438D01*
X120404762Y-99852438D02*
X120547619Y-99804819D01*
X120547619Y-99804819D02*
X120642857Y-99804819D01*
X120642857Y-99804819D02*
X120785714Y-99852438D01*
X120785714Y-99852438D02*
X120833333Y-99900057D01*
X121785714Y-100804819D02*
X121214286Y-100804819D01*
X121500000Y-100804819D02*
X121500000Y-99804819D01*
X121500000Y-99804819D02*
X121404762Y-99947676D01*
X121404762Y-99947676D02*
X121309524Y-100042914D01*
X121309524Y-100042914D02*
X121214286Y-100090533D01*
D10*
X123347618Y-107160735D02*
X122890475Y-107160735D01*
X123119047Y-107160735D02*
X123119047Y-106360735D01*
X123119047Y-106360735D02*
X123042856Y-106475020D01*
X123042856Y-106475020D02*
X122966666Y-106551211D01*
X122966666Y-106551211D02*
X122890475Y-106589306D01*
X123842857Y-106360735D02*
X123919047Y-106360735D01*
X123919047Y-106360735D02*
X123995238Y-106398830D01*
X123995238Y-106398830D02*
X124033333Y-106436925D01*
X124033333Y-106436925D02*
X124071428Y-106513116D01*
X124071428Y-106513116D02*
X124109523Y-106665497D01*
X124109523Y-106665497D02*
X124109523Y-106855973D01*
X124109523Y-106855973D02*
X124071428Y-107008354D01*
X124071428Y-107008354D02*
X124033333Y-107084544D01*
X124033333Y-107084544D02*
X123995238Y-107122640D01*
X123995238Y-107122640D02*
X123919047Y-107160735D01*
X123919047Y-107160735D02*
X123842857Y-107160735D01*
X123842857Y-107160735D02*
X123766666Y-107122640D01*
X123766666Y-107122640D02*
X123728571Y-107084544D01*
X123728571Y-107084544D02*
X123690476Y-107008354D01*
X123690476Y-107008354D02*
X123652380Y-106855973D01*
X123652380Y-106855973D02*
X123652380Y-106665497D01*
X123652380Y-106665497D02*
X123690476Y-106513116D01*
X123690476Y-106513116D02*
X123728571Y-106436925D01*
X123728571Y-106436925D02*
X123766666Y-106398830D01*
X123766666Y-106398830D02*
X123842857Y-106360735D01*
X128347618Y-107160735D02*
X127890475Y-107160735D01*
X128119047Y-107160735D02*
X128119047Y-106360735D01*
X128119047Y-106360735D02*
X128042856Y-106475020D01*
X128042856Y-106475020D02*
X127966666Y-106551211D01*
X127966666Y-106551211D02*
X127890475Y-106589306D01*
X129071428Y-106360735D02*
X128690476Y-106360735D01*
X128690476Y-106360735D02*
X128652380Y-106741687D01*
X128652380Y-106741687D02*
X128690476Y-106703592D01*
X128690476Y-106703592D02*
X128766666Y-106665497D01*
X128766666Y-106665497D02*
X128957142Y-106665497D01*
X128957142Y-106665497D02*
X129033333Y-106703592D01*
X129033333Y-106703592D02*
X129071428Y-106741687D01*
X129071428Y-106741687D02*
X129109523Y-106817878D01*
X129109523Y-106817878D02*
X129109523Y-107008354D01*
X129109523Y-107008354D02*
X129071428Y-107084544D01*
X129071428Y-107084544D02*
X129033333Y-107122640D01*
X129033333Y-107122640D02*
X128957142Y-107160735D01*
X128957142Y-107160735D02*
X128766666Y-107160735D01*
X128766666Y-107160735D02*
X128690476Y-107122640D01*
X128690476Y-107122640D02*
X128652380Y-107084544D01*
D12*
X120833333Y-130709580D02*
X120785714Y-130757200D01*
X120785714Y-130757200D02*
X120642857Y-130804819D01*
X120642857Y-130804819D02*
X120547619Y-130804819D01*
X120547619Y-130804819D02*
X120404762Y-130757200D01*
X120404762Y-130757200D02*
X120309524Y-130661961D01*
X120309524Y-130661961D02*
X120261905Y-130566723D01*
X120261905Y-130566723D02*
X120214286Y-130376247D01*
X120214286Y-130376247D02*
X120214286Y-130233390D01*
X120214286Y-130233390D02*
X120261905Y-130042914D01*
X120261905Y-130042914D02*
X120309524Y-129947676D01*
X120309524Y-129947676D02*
X120404762Y-129852438D01*
X120404762Y-129852438D02*
X120547619Y-129804819D01*
X120547619Y-129804819D02*
X120642857Y-129804819D01*
X120642857Y-129804819D02*
X120785714Y-129852438D01*
X120785714Y-129852438D02*
X120833333Y-129900057D01*
X121166667Y-129804819D02*
X121785714Y-129804819D01*
X121785714Y-129804819D02*
X121452381Y-130185771D01*
X121452381Y-130185771D02*
X121595238Y-130185771D01*
X121595238Y-130185771D02*
X121690476Y-130233390D01*
X121690476Y-130233390D02*
X121738095Y-130281009D01*
X121738095Y-130281009D02*
X121785714Y-130376247D01*
X121785714Y-130376247D02*
X121785714Y-130614342D01*
X121785714Y-130614342D02*
X121738095Y-130709580D01*
X121738095Y-130709580D02*
X121690476Y-130757200D01*
X121690476Y-130757200D02*
X121595238Y-130804819D01*
X121595238Y-130804819D02*
X121309524Y-130804819D01*
X121309524Y-130804819D02*
X121214286Y-130757200D01*
X121214286Y-130757200D02*
X121166667Y-130709580D01*
D10*
X128347618Y-137160735D02*
X127890475Y-137160735D01*
X128119047Y-137160735D02*
X128119047Y-136360735D01*
X128119047Y-136360735D02*
X128042856Y-136475020D01*
X128042856Y-136475020D02*
X127966666Y-136551211D01*
X127966666Y-136551211D02*
X127890475Y-136589306D01*
X129071428Y-136360735D02*
X128690476Y-136360735D01*
X128690476Y-136360735D02*
X128652380Y-136741687D01*
X128652380Y-136741687D02*
X128690476Y-136703592D01*
X128690476Y-136703592D02*
X128766666Y-136665497D01*
X128766666Y-136665497D02*
X128957142Y-136665497D01*
X128957142Y-136665497D02*
X129033333Y-136703592D01*
X129033333Y-136703592D02*
X129071428Y-136741687D01*
X129071428Y-136741687D02*
X129109523Y-136817878D01*
X129109523Y-136817878D02*
X129109523Y-137008354D01*
X129109523Y-137008354D02*
X129071428Y-137084544D01*
X129071428Y-137084544D02*
X129033333Y-137122640D01*
X129033333Y-137122640D02*
X128957142Y-137160735D01*
X128957142Y-137160735D02*
X128766666Y-137160735D01*
X128766666Y-137160735D02*
X128690476Y-137122640D01*
X128690476Y-137122640D02*
X128652380Y-137084544D01*
X123347618Y-137160735D02*
X122890475Y-137160735D01*
X123119047Y-137160735D02*
X123119047Y-136360735D01*
X123119047Y-136360735D02*
X123042856Y-136475020D01*
X123042856Y-136475020D02*
X122966666Y-136551211D01*
X122966666Y-136551211D02*
X122890475Y-136589306D01*
X123842857Y-136360735D02*
X123919047Y-136360735D01*
X123919047Y-136360735D02*
X123995238Y-136398830D01*
X123995238Y-136398830D02*
X124033333Y-136436925D01*
X124033333Y-136436925D02*
X124071428Y-136513116D01*
X124071428Y-136513116D02*
X124109523Y-136665497D01*
X124109523Y-136665497D02*
X124109523Y-136855973D01*
X124109523Y-136855973D02*
X124071428Y-137008354D01*
X124071428Y-137008354D02*
X124033333Y-137084544D01*
X124033333Y-137084544D02*
X123995238Y-137122640D01*
X123995238Y-137122640D02*
X123919047Y-137160735D01*
X123919047Y-137160735D02*
X123842857Y-137160735D01*
X123842857Y-137160735D02*
X123766666Y-137122640D01*
X123766666Y-137122640D02*
X123728571Y-137084544D01*
X123728571Y-137084544D02*
X123690476Y-137008354D01*
X123690476Y-137008354D02*
X123652380Y-136855973D01*
X123652380Y-136855973D02*
X123652380Y-136665497D01*
X123652380Y-136665497D02*
X123690476Y-136513116D01*
X123690476Y-136513116D02*
X123728571Y-136436925D01*
X123728571Y-136436925D02*
X123766666Y-136398830D01*
X123766666Y-136398830D02*
X123842857Y-136360735D01*
D12*
X108624819Y-118382857D02*
X108148628Y-118716190D01*
X108624819Y-118954285D02*
X107624819Y-118954285D01*
X107624819Y-118954285D02*
X107624819Y-118573333D01*
X107624819Y-118573333D02*
X107672438Y-118478095D01*
X107672438Y-118478095D02*
X107720057Y-118430476D01*
X107720057Y-118430476D02*
X107815295Y-118382857D01*
X107815295Y-118382857D02*
X107958152Y-118382857D01*
X107958152Y-118382857D02*
X108053390Y-118430476D01*
X108053390Y-118430476D02*
X108101009Y-118478095D01*
X108101009Y-118478095D02*
X108148628Y-118573333D01*
X108148628Y-118573333D02*
X108148628Y-118954285D01*
X108624819Y-117430476D02*
X108624819Y-118001904D01*
X108624819Y-117716190D02*
X107624819Y-117716190D01*
X107624819Y-117716190D02*
X107767676Y-117811428D01*
X107767676Y-117811428D02*
X107862914Y-117906666D01*
X107862914Y-117906666D02*
X107910533Y-118001904D01*
X107624819Y-116811428D02*
X107624819Y-116716190D01*
X107624819Y-116716190D02*
X107672438Y-116620952D01*
X107672438Y-116620952D02*
X107720057Y-116573333D01*
X107720057Y-116573333D02*
X107815295Y-116525714D01*
X107815295Y-116525714D02*
X108005771Y-116478095D01*
X108005771Y-116478095D02*
X108243866Y-116478095D01*
X108243866Y-116478095D02*
X108434342Y-116525714D01*
X108434342Y-116525714D02*
X108529580Y-116573333D01*
X108529580Y-116573333D02*
X108577200Y-116620952D01*
X108577200Y-116620952D02*
X108624819Y-116716190D01*
X108624819Y-116716190D02*
X108624819Y-116811428D01*
X108624819Y-116811428D02*
X108577200Y-116906666D01*
X108577200Y-116906666D02*
X108529580Y-116954285D01*
X108529580Y-116954285D02*
X108434342Y-117001904D01*
X108434342Y-117001904D02*
X108243866Y-117049523D01*
X108243866Y-117049523D02*
X108005771Y-117049523D01*
X108005771Y-117049523D02*
X107815295Y-117001904D01*
X107815295Y-117001904D02*
X107720057Y-116954285D01*
X107720057Y-116954285D02*
X107672438Y-116906666D01*
X107672438Y-116906666D02*
X107624819Y-116811428D01*
X140135238Y-131229009D02*
X140278095Y-131276628D01*
X140278095Y-131276628D02*
X140325714Y-131324247D01*
X140325714Y-131324247D02*
X140373333Y-131419485D01*
X140373333Y-131419485D02*
X140373333Y-131562342D01*
X140373333Y-131562342D02*
X140325714Y-131657580D01*
X140325714Y-131657580D02*
X140278095Y-131705200D01*
X140278095Y-131705200D02*
X140182857Y-131752819D01*
X140182857Y-131752819D02*
X139801905Y-131752819D01*
X139801905Y-131752819D02*
X139801905Y-130752819D01*
X139801905Y-130752819D02*
X140135238Y-130752819D01*
X140135238Y-130752819D02*
X140230476Y-130800438D01*
X140230476Y-130800438D02*
X140278095Y-130848057D01*
X140278095Y-130848057D02*
X140325714Y-130943295D01*
X140325714Y-130943295D02*
X140325714Y-131038533D01*
X140325714Y-131038533D02*
X140278095Y-131133771D01*
X140278095Y-131133771D02*
X140230476Y-131181390D01*
X140230476Y-131181390D02*
X140135238Y-131229009D01*
X140135238Y-131229009D02*
X139801905Y-131229009D01*
X141373333Y-131752819D02*
X141040000Y-131276628D01*
X140801905Y-131752819D02*
X140801905Y-130752819D01*
X140801905Y-130752819D02*
X141182857Y-130752819D01*
X141182857Y-130752819D02*
X141278095Y-130800438D01*
X141278095Y-130800438D02*
X141325714Y-130848057D01*
X141325714Y-130848057D02*
X141373333Y-130943295D01*
X141373333Y-130943295D02*
X141373333Y-131086152D01*
X141373333Y-131086152D02*
X141325714Y-131181390D01*
X141325714Y-131181390D02*
X141278095Y-131229009D01*
X141278095Y-131229009D02*
X141182857Y-131276628D01*
X141182857Y-131276628D02*
X140801905Y-131276628D01*
X141706667Y-130752819D02*
X142325714Y-130752819D01*
X142325714Y-130752819D02*
X141992381Y-131133771D01*
X141992381Y-131133771D02*
X142135238Y-131133771D01*
X142135238Y-131133771D02*
X142230476Y-131181390D01*
X142230476Y-131181390D02*
X142278095Y-131229009D01*
X142278095Y-131229009D02*
X142325714Y-131324247D01*
X142325714Y-131324247D02*
X142325714Y-131562342D01*
X142325714Y-131562342D02*
X142278095Y-131657580D01*
X142278095Y-131657580D02*
X142230476Y-131705200D01*
X142230476Y-131705200D02*
X142135238Y-131752819D01*
X142135238Y-131752819D02*
X141849524Y-131752819D01*
X141849524Y-131752819D02*
X141754286Y-131705200D01*
X141754286Y-131705200D02*
X141706667Y-131657580D01*
D10*
X135985714Y-140988640D02*
X136042857Y-140931497D01*
X136042857Y-140931497D02*
X136157143Y-140874354D01*
X136157143Y-140874354D02*
X136385714Y-140988640D01*
X136385714Y-140988640D02*
X136500000Y-140931497D01*
X136500000Y-140931497D02*
X136557143Y-140874354D01*
X135842857Y-133488640D02*
X136757143Y-133488640D01*
X136300000Y-133945782D02*
X136300000Y-133031497D01*
X145342857Y-140988640D02*
X146257143Y-140988640D01*
X145485714Y-133488640D02*
X145542857Y-133431497D01*
X145542857Y-133431497D02*
X145657143Y-133374354D01*
X145657143Y-133374354D02*
X145885714Y-133488640D01*
X145885714Y-133488640D02*
X146000000Y-133431497D01*
X146000000Y-133431497D02*
X146057143Y-133374354D01*
D13*
%TO.C,C2*%
X111880000Y-116480000D02*
X130120000Y-116480000D01*
X111880000Y-122720000D02*
X111880000Y-116480000D01*
X130120000Y-116480000D02*
X130120000Y-122720000D01*
X130120000Y-122720000D02*
X111880000Y-122720000D01*
%TO.C,J6*%
X118400000Y-138200000D02*
X121600000Y-138200000D01*
X121600000Y-141400000D01*
X118400000Y-141400000D01*
X118400000Y-138200000D01*
%TO.C,J3*%
X141979999Y-112600000D02*
X145179999Y-112600000D01*
X145179999Y-115800000D01*
X141979999Y-115800000D01*
X141979999Y-112600000D01*
%TO.C,R2*%
X133000000Y-121520000D02*
X133000000Y-125720000D01*
X134920000Y-119600000D02*
G75*
G02*
X131080000Y-119600000I-1920000J0D01*
G01*
X131080000Y-119600000D02*
G75*
G02*
X134920000Y-119600000I1920000J0D01*
G01*
%TO.C,BR2*%
X136976000Y-119219000D02*
X136976000Y-125061000D01*
X138119000Y-118076000D02*
G75*
G02*
X136976000Y-125061000I2921000J-4064000D01*
G01*
%TO.C,J2*%
X118400000Y-108200000D02*
X121600000Y-108200000D01*
X121600000Y-111400000D01*
X118400000Y-111400000D01*
X118400000Y-108200000D01*
%TO.C,BR1*%
X136976000Y-104219000D02*
X136976000Y-110061000D01*
X138119000Y-103076000D02*
G75*
G02*
X136976000Y-110061000I2921000J-4064000D01*
G01*
%TO.C,J1*%
X101080000Y-102540000D02*
X111120000Y-102540000D01*
X101080000Y-104900000D02*
X101080000Y-102540000D01*
X101080000Y-112940000D02*
X101080000Y-105500000D01*
X101700000Y-102540000D02*
X101700000Y-112940000D01*
X103200000Y-102540000D02*
X103200000Y-112940000D01*
X108100000Y-102540000D02*
X108100000Y-112940000D01*
X111120000Y-102540000D02*
X111120000Y-112940000D01*
X111120000Y-112940000D02*
X101080000Y-112940000D01*
X101080000Y-105200000D02*
X100470000Y-105640000D01*
X100470000Y-104760000D01*
X101080000Y-105200000D01*
G36*
X101080000Y-105200000D02*
G01*
X100470000Y-105640000D01*
X100470000Y-104760000D01*
X101080000Y-105200000D01*
G37*
%TO.C,R3*%
X133000000Y-136520000D02*
X133000000Y-140720000D01*
X134920000Y-134600000D02*
G75*
G02*
X131080000Y-134600000I-1920000J0D01*
G01*
X131080000Y-134600000D02*
G75*
G02*
X134920000Y-134600000I1920000J0D01*
G01*
%TO.C,R1*%
X133000000Y-106520000D02*
X133000000Y-110720000D01*
X134920000Y-104600000D02*
G75*
G02*
X131080000Y-104600000I-1920000J0D01*
G01*
X131080000Y-104600000D02*
G75*
G02*
X134920000Y-104600000I1920000J0D01*
G01*
%TO.C,J4*%
X118400000Y-123200000D02*
X121600000Y-123200000D01*
X121600000Y-126400000D01*
X118400000Y-126400000D01*
X118400000Y-123200000D01*
%TO.C,J7*%
X141979999Y-142600000D02*
X145179999Y-142600000D01*
X145179999Y-145800000D01*
X141979999Y-145800000D01*
X141979999Y-142600000D01*
%TO.C,J5*%
X141979999Y-127599999D02*
X145179999Y-127599999D01*
X145179999Y-130799999D01*
X141979999Y-130799999D01*
X141979999Y-127599999D01*
%TO.C,C1*%
X111880000Y-101480000D02*
X130120000Y-101480000D01*
X111880000Y-107720000D02*
X111880000Y-101480000D01*
X130120000Y-101480000D02*
X130120000Y-107720000D01*
X130120000Y-107720000D02*
X111880000Y-107720000D01*
%TO.C,C3*%
X111880000Y-131480000D02*
X130120000Y-131480000D01*
X111880000Y-137720000D02*
X111880000Y-131480000D01*
X130120000Y-131480000D02*
X130120000Y-137720000D01*
X130120000Y-137720000D02*
X111880000Y-137720000D01*
%TO.C,R10*%
X105800000Y-116570000D02*
X105800000Y-119180000D01*
X107170000Y-115200000D02*
G75*
G02*
X104430000Y-115200000I-1370000J0D01*
G01*
X104430000Y-115200000D02*
G75*
G02*
X107170000Y-115200000I1370000J0D01*
G01*
%TO.C,BR3*%
X136976000Y-134219000D02*
X136976000Y-140061000D01*
X138119000Y-133076000D02*
G75*
G02*
X136976000Y-140061000I2921000J-4064000D01*
G01*
%TD*%
%LPC*%
%LPD*%
M02*
