<svg xmlns="http://www.w3.org/2000/svg" width="50mm" height="50mm" viewBox="0 0 50 50" font-family="Arial,Helvetica,sans-serif">
<rect x="0" y="0" width="50" height="50" fill="#fff" stroke="#000" stroke-width="0.3"/>
<path d="M22.00 2.75 L22.00 4.90" fill="none" stroke="#efdcc6" stroke-width="1.6" stroke-linecap="round" stroke-linejoin="round"/>
<path d="M22.00 8.20 L22.00 9.60" fill="none" stroke="#efdcc6" stroke-width="1.6" stroke-linecap="round" stroke-linejoin="round"/>
<path d="M15.50 12.75 L19.40 14.50 L19.40 16.60" fill="none" stroke="#efdcc6" stroke-width="1.6" stroke-linecap="round" stroke-linejoin="round"/>
<path d="M22.00 12.90 L19.40 14.50" fill="none" stroke="#efdcc6" stroke-width="1.6" stroke-linecap="round" stroke-linejoin="round"/>
<path d="M12.60 16.60 L12.00 21.00" fill="none" stroke="#efdcc6" stroke-width="1.6" stroke-linecap="round" stroke-linejoin="round"/>
<path d="M15.85 21.00 L12.00 21.00 L12.00 24.85" fill="none" stroke="#efdcc6" stroke-width="1.6" stroke-linecap="round" stroke-linejoin="round"/>
<path d="M20.15 21.00 L24.00 21.00 L24.00 24.85" fill="none" stroke="#efdcc6" stroke-width="1.6" stroke-linecap="round" stroke-linejoin="round"/>
<path d="M24.00 29.15 L24.00 33.00 L20.15 33.00" fill="none" stroke="#efdcc6" stroke-width="1.6" stroke-linecap="round" stroke-linejoin="round"/>
<path d="M12.00 29.15 L12.00 33.00 L15.85 33.00" fill="none" stroke="#efdcc6" stroke-width="1.6" stroke-linecap="round" stroke-linejoin="round"/>
<path d="M16.10 28.55 L15.85 33.00" fill="none" stroke="#efdcc6" stroke-width="1.6" stroke-linecap="round" stroke-linejoin="round"/>
<path d="M19.90 25.45 L20.15 21.00" fill="none" stroke="#efdcc6" stroke-width="1.6" stroke-linecap="round" stroke-linejoin="round"/>
<path d="M24.00 21.00 L27.50 21.00 L27.50 39.00 L25.15 42.70" fill="none" stroke="#efdcc6" stroke-width="1.6" stroke-linecap="round" stroke-linejoin="round"/>
<path d="M12.00 33.00 L12.00 39.00 L15.15 42.70" fill="none" stroke="#efdcc6" stroke-width="1.6" stroke-linecap="round" stroke-linejoin="round"/>
<path d="M20.15 33.00 L20.15 48.00" fill="none" stroke="#efdcc6" stroke-width="1.6" stroke-linecap="round" stroke-linejoin="round"/>
<path d="M42.00 2.75 L42.00 4.90" fill="none" stroke="#efdcc6" stroke-width="1.6" stroke-linecap="round" stroke-linejoin="round"/>
<path d="M42.00 8.20 L42.00 9.60" fill="none" stroke="#efdcc6" stroke-width="1.6" stroke-linecap="round" stroke-linejoin="round"/>
<path d="M35.50 12.75 L39.40 14.50 L39.40 16.60" fill="none" stroke="#efdcc6" stroke-width="1.6" stroke-linecap="round" stroke-linejoin="round"/>
<path d="M42.00 12.90 L39.40 14.50" fill="none" stroke="#efdcc6" stroke-width="1.6" stroke-linecap="round" stroke-linejoin="round"/>
<path d="M32.60 16.60 L32.00 21.00" fill="none" stroke="#efdcc6" stroke-width="1.6" stroke-linecap="round" stroke-linejoin="round"/>
<path d="M35.85 21.00 L32.00 21.00 L32.00 24.85" fill="none" stroke="#efdcc6" stroke-width="1.6" stroke-linecap="round" stroke-linejoin="round"/>
<path d="M40.15 21.00 L44.00 21.00 L44.00 24.85" fill="none" stroke="#efdcc6" stroke-width="1.6" stroke-linecap="round" stroke-linejoin="round"/>
<path d="M44.00 29.15 L44.00 33.00 L40.15 33.00" fill="none" stroke="#efdcc6" stroke-width="1.6" stroke-linecap="round" stroke-linejoin="round"/>
<path d="M32.00 29.15 L32.00 33.00 L35.85 33.00" fill="none" stroke="#efdcc6" stroke-width="1.6" stroke-linecap="round" stroke-linejoin="round"/>
<path d="M36.10 28.55 L35.85 33.00" fill="none" stroke="#efdcc6" stroke-width="1.6" stroke-linecap="round" stroke-linejoin="round"/>
<path d="M39.90 25.45 L40.15 21.00" fill="none" stroke="#efdcc6" stroke-width="1.6" stroke-linecap="round" stroke-linejoin="round"/>
<path d="M44.00 21.00 L47.50 21.00 L47.50 39.00 L45.15 42.70" fill="none" stroke="#efdcc6" stroke-width="1.6" stroke-linecap="round" stroke-linejoin="round"/>
<path d="M32.00 33.00 L32.00 39.00 L35.15 42.70" fill="none" stroke="#efdcc6" stroke-width="1.6" stroke-linecap="round" stroke-linejoin="round"/>
<path d="M40.15 33.00 L40.15 48.00" fill="none" stroke="#efdcc6" stroke-width="1.6" stroke-linecap="round" stroke-linejoin="round"/>
<path d="M4.00 8.00 L4.00 2.75 L42.00 2.75" fill="none" stroke="#efdcc6" stroke-width="1.6" stroke-linecap="round" stroke-linejoin="round"/>
<path d="M4.00 13.00 L4.00 38.50 L9.50 44.00 L9.50 48.00 L40.15 48.00" fill="none" stroke="#efdcc6" stroke-width="1.6" stroke-linecap="round" stroke-linejoin="round"/>
<path d="M9.30 10.25 L6.50 13.00 L4.00 13.00" fill="none" stroke="#efdcc6" stroke-width="1.6" stroke-linecap="round" stroke-linejoin="round"/>
<rect x="21.00" y="4.10" width="2.0" height="1.6" rx="0.8" fill="#e6e6e6"/>
<rect x="21.00" y="7.40" width="2.0" height="1.6" rx="0.8" fill="#e6e6e6"/>
<rect x="21.00" y="8.80" width="2.0" height="1.6" rx="0.8" fill="#e6e6e6"/>
<rect x="21.00" y="12.10" width="2.0" height="1.6" rx="0.8" fill="#e6e6e6"/>
<rect x="11.60" y="14.90" width="2.0" height="3.4" rx="1.0" fill="#e6e6e6"/>
<rect x="18.40" y="14.90" width="2.0" height="3.4" rx="1.0" fill="#e6e6e6"/>
<rect x="14.65" y="20.05" width="2.4" height="1.9" rx="0.95" fill="#e6e6e6"/>
<rect x="18.95" y="20.05" width="2.4" height="1.9" rx="0.95" fill="#e6e6e6"/>
<rect x="11.05" y="23.65" width="1.9" height="2.4" rx="0.95" fill="#e6e6e6"/>
<rect x="11.05" y="27.95" width="1.9" height="2.4" rx="0.95" fill="#e6e6e6"/>
<rect x="14.65" y="32.05" width="2.4" height="1.9" rx="0.95" fill="#e6e6e6"/>
<rect x="18.95" y="32.05" width="2.4" height="1.9" rx="0.95" fill="#e6e6e6"/>
<rect x="23.05" y="23.65" width="1.9" height="2.4" rx="0.95" fill="#e6e6e6"/>
<rect x="23.05" y="27.95" width="1.9" height="2.4" rx="0.95" fill="#e6e6e6"/>
<rect x="41.00" y="4.10" width="2.0" height="1.6" rx="0.8" fill="#e6e6e6"/>
<rect x="41.00" y="7.40" width="2.0" height="1.6" rx="0.8" fill="#e6e6e6"/>
<rect x="41.00" y="8.80" width="2.0" height="1.6" rx="0.8" fill="#e6e6e6"/>
<rect x="41.00" y="12.10" width="2.0" height="1.6" rx="0.8" fill="#e6e6e6"/>
<rect x="31.60" y="14.90" width="2.0" height="3.4" rx="1.0" fill="#e6e6e6"/>
<rect x="38.40" y="14.90" width="2.0" height="3.4" rx="1.0" fill="#e6e6e6"/>
<rect x="34.65" y="20.05" width="2.4" height="1.9" rx="0.95" fill="#e6e6e6"/>
<rect x="38.95" y="20.05" width="2.4" height="1.9" rx="0.95" fill="#e6e6e6"/>
<rect x="31.05" y="23.65" width="1.9" height="2.4" rx="0.95" fill="#e6e6e6"/>
<rect x="31.05" y="27.95" width="1.9" height="2.4" rx="0.95" fill="#e6e6e6"/>
<rect x="34.65" y="32.05" width="2.4" height="1.9" rx="0.95" fill="#e6e6e6"/>
<rect x="38.95" y="32.05" width="2.4" height="1.9" rx="0.95" fill="#e6e6e6"/>
<rect x="43.05" y="23.65" width="1.9" height="2.4" rx="0.95" fill="#e6e6e6"/>
<rect x="43.05" y="27.95" width="1.9" height="2.4" rx="0.95" fill="#e6e6e6"/>
<rect x="0.3" y="5.5" width="7.4" height="10" fill="none" stroke="#000" stroke-width="0.35"/><text x="4.00" y="18.50" font-size="2.0" text-anchor="middle" font-weight="700" fill="#000">J0</text><text x="4.00" y="20.60" font-size="1.3" text-anchor="middle" font-weight="400" fill="#000">127V</text>
<rect x="6.9" y="0.8" width="4.8" height="11.4" rx="1.5" fill="none" stroke="#000" stroke-width="0.35"/><text x="9.90" y="6.50" font-size="1.4" text-anchor="middle" font-weight="700" fill="#000" transform="rotate(-90 9.9 6.5)">RV1</text>
<rect x="11.9" y="0.4" width="7.2" height="14.8" fill="none" stroke="#000" stroke-width="0.35"/>
<path d="M14.5 6.75 L16.5 8.75 M16.5 6.75 L14.5 8.75" stroke="#c00" stroke-width="0.4"/><text x="15.50" y="10.20" font-size="1.5" text-anchor="middle" font-weight="700" fill="#000">C1</text><text x="15.50" y="5.40" font-size="1.2" text-anchor="middle" font-weight="400" fill="#000">X2</text>
<circle cx="18.0" cy="27.0" r="6.5" fill="none" stroke="#000" stroke-width="0.35"/><path d="M20.6 21.0 A6.5 6.5 0 0 1 24.3 28.5" stroke="#000" stroke-width="1.6" fill="none" opacity="0.35"/>
<text x="18.00" y="32.00" font-size="1.6" text-anchor="middle" font-weight="700" fill="#000">CE1</text><text x="14.70" y="29.60" font-size="2.2" text-anchor="middle" font-weight="700" fill="#000">+</text><text x="21.60" y="26.40" font-size="2.2" text-anchor="middle" font-weight="700" fill="#000">−</text>
<rect x="16.0" y="35.6" width="7.5" height="2.6" rx="1.1" fill="none" stroke="#000" stroke-width="0.35"/><text x="19.75" y="35.00" font-size="1.2" text-anchor="middle" font-weight="400" fill="#000">RC 220k</text>
<rect x="12.350000000000001" y="39.1" width="15.6" height="7.4" fill="none" stroke="#000" stroke-width="0.35"/>
<path d="M19.15 41.7 L21.15 43.7 M21.15 41.7 L19.15 43.7" stroke="#c00" stroke-width="0.4"/>
<text x="15.15" y="40.90" font-size="1.6" text-anchor="middle" font-weight="700" fill="#000">+</text><text x="25.15" y="40.90" font-size="1.6" text-anchor="middle" font-weight="700" fill="#000">−</text><text x="20.15" y="49.40" font-size="1.4" text-anchor="middle" font-weight="700" fill="#000">SAL 1</text>
<rect x="31.9" y="0.4" width="7.2" height="14.8" fill="none" stroke="#000" stroke-width="0.35"/>
<path d="M34.5 6.75 L36.5 8.75 M36.5 6.75 L34.5 8.75" stroke="#c00" stroke-width="0.4"/><text x="35.50" y="10.20" font-size="1.5" text-anchor="middle" font-weight="700" fill="#000">C2</text><text x="35.50" y="5.40" font-size="1.2" text-anchor="middle" font-weight="400" fill="#000">X2</text>
<circle cx="38.0" cy="27.0" r="6.5" fill="none" stroke="#000" stroke-width="0.35"/><path d="M40.6 21.0 A6.5 6.5 0 0 1 44.3 28.5" stroke="#000" stroke-width="1.6" fill="none" opacity="0.35"/>
<text x="38.00" y="32.00" font-size="1.6" text-anchor="middle" font-weight="700" fill="#000">CE2</text><text x="34.70" y="29.60" font-size="2.2" text-anchor="middle" font-weight="700" fill="#000">+</text><text x="41.60" y="26.40" font-size="2.2" text-anchor="middle" font-weight="700" fill="#000">−</text>
<rect x="36.0" y="35.6" width="7.5" height="2.6" rx="1.1" fill="none" stroke="#000" stroke-width="0.35"/><text x="39.75" y="35.00" font-size="1.2" text-anchor="middle" font-weight="400" fill="#000">RC 220k</text>
<rect x="32.35" y="39.1" width="15.6" height="7.4" fill="none" stroke="#000" stroke-width="0.35"/>
<path d="M39.15 41.7 L41.15 43.7 M41.15 41.7 L39.15 43.7" stroke="#c00" stroke-width="0.4"/>
<text x="35.15" y="40.90" font-size="1.6" text-anchor="middle" font-weight="700" fill="#000">+</text><text x="45.15" y="40.90" font-size="1.6" text-anchor="middle" font-weight="700" fill="#000">−</text><text x="40.15" y="49.40" font-size="1.4" text-anchor="middle" font-weight="700" fill="#000">SAL 2</text>
<circle cx="15.5" cy="2.75" r="0.55" fill="#000"/>
<circle cx="15.5" cy="12.75" r="0.55" fill="#000"/>
<circle cx="16.1" cy="28.55" r="0.55" fill="#000"/>
<circle cx="19.9" cy="25.45" r="0.55" fill="#000"/>
<circle cx="12.0" cy="36.9" r="0.55" fill="#000"/>
<circle cx="27.5" cy="36.9" r="0.55" fill="#000"/>
<circle cx="15.15" cy="42.7" r="0.55" fill="#000"/>
<circle cx="25.15" cy="42.7" r="0.55" fill="#000"/>
<circle cx="35.5" cy="2.75" r="0.55" fill="#000"/>
<circle cx="35.5" cy="12.75" r="0.55" fill="#000"/>
<circle cx="36.1" cy="28.55" r="0.55" fill="#000"/>
<circle cx="39.9" cy="25.45" r="0.55" fill="#000"/>
<circle cx="32.0" cy="36.9" r="0.55" fill="#000"/>
<circle cx="47.5" cy="36.9" r="0.55" fill="#000"/>
<circle cx="35.15" cy="42.7" r="0.55" fill="#000"/>
<circle cx="45.15" cy="42.7" r="0.55" fill="#000"/>
<circle cx="4.0" cy="8" r="0.55" fill="#000"/>
<circle cx="4.0" cy="13" r="0.55" fill="#000"/>
<circle cx="9.3" cy="2.75" r="0.55" fill="#000"/>
<circle cx="9.3" cy="10.25" r="0.55" fill="#000"/>
<circle cx="3.6" cy="46.4" r="1.6" fill="none" stroke="#000" stroke-width="0.35"/>
<circle cx="46.8" cy="6.2" r="1.6" fill="none" stroke="#000" stroke-width="0.35"/>
</svg>