%TF.GenerationSoftware,KiCad,Pcbnew,9.0.9*%
%TF.CreationDate,2026-10-06T22:25:13+00:00*%
%TF.ProjectId,AP1_Plantilla,4150315f-506c-4616-9e74-696c6c612e6b,rev?*%
%TF.SameCoordinates,Original*%
%TF.FileFunction,Paste,Top*%
%TF.FilePolarity,Positive*%
%FSLAX46Y46*%
G04 Gerber Fmt 4.6, Leading zero omitted, Abs format (unit mm)*
G04 Created by KiCad (PCBNEW 9.0.9) date 2026-10-06 22:25:13*
%MOMM*%
%LPD*%
G01*
G04 APERTURE LIST*
G04 Aperture macros list*
%AMRoundRect*
0 Rectangle with rounded corners*
0 $1 Rounding radius*
0 $2 $3 $4 $5 $6 $7 $8 $9 X,Y pos of 4 corners*
0 Add a 4 corners polygon primitive as box body*
4,1,4,$2,$3,$4,$5,$6,$7,$8,$9,$2,$3,0*
0 Add four circle primitives for the rounded corners*
1,1,$1+$1,$2,$3*
1,1,$1+$1,$4,$5*
1,1,$1+$1,$6,$7*
1,1,$1+$1,$8,$9*
0 Add four rect primitives between the rounded corners*
20,1,$1+$1,$2,$3,$4,$5,0*
20,1,$1+$1,$4,$5,$6,$7,0*
20,1,$1+$1,$6,$7,$8,$9,0*
20,1,$1+$1,$8,$9,$2,$3,0*%
G04 Aperture macros list end*
%ADD10RoundRect,0.250000X0.650000X-0.325000X0.650000X0.325000X-0.650000X0.325000X-0.650000X-0.325000X0*%
%ADD11RoundRect,0.200000X-0.200000X-0.275000X0.200000X-0.275000X0.200000X0.275000X-0.200000X0.275000X0*%
%ADD12RoundRect,0.250000X-0.375000X-0.625000X0.375000X-0.625000X0.375000X0.625000X-0.375000X0.625000X0*%
%ADD13RoundRect,0.250000X-1.000000X-0.900000X1.000000X-0.900000X1.000000X0.900000X-1.000000X0.900000X0*%
%ADD14RoundRect,0.250000X-0.300000X-1.600000X0.300000X-1.600000X0.300000X1.600000X-0.300000X1.600000X0*%
%ADD15RoundRect,0.250000X0.325000X0.650000X-0.325000X0.650000X-0.325000X-0.650000X0.325000X-0.650000X0*%
%ADD16RoundRect,0.150000X-0.825000X-0.150000X0.825000X-0.150000X0.825000X0.150000X-0.825000X0.150000X0*%
%ADD17RoundRect,0.150000X-0.512500X-0.150000X0.512500X-0.150000X0.512500X0.150000X-0.512500X0.150000X0*%
%ADD18RoundRect,0.250000X-1.000000X-0.650000X1.000000X-0.650000X1.000000X0.650000X-1.000000X0.650000X0*%
%ADD19RoundRect,0.225000X0.250000X-0.225000X0.250000X0.225000X-0.250000X0.225000X-0.250000X-0.225000X0*%
%ADD20RoundRect,0.225000X-0.225000X-0.250000X0.225000X-0.250000X0.225000X0.250000X-0.225000X0.250000X0*%
%ADD21RoundRect,0.250000X0.650000X-1.000000X0.650000X1.000000X-0.650000X1.000000X-0.650000X-1.000000X0*%
G04 APERTURE END LIST*
D10*
%TO.C,C1*%
X135000000Y-144275000D03*
X135000000Y-141325000D03*
%TD*%
%TO.C,C2*%
X138000000Y-144275000D03*
X138000000Y-141325000D03*
%TD*%
D11*
%TO.C,RB1*%
X104175000Y-112500000D03*
X105825000Y-112500000D03*
%TD*%
D12*
%TO.C,F1*%
X113600000Y-143200000D03*
X116400000Y-143200000D03*
%TD*%
D13*
%TO.C,D2*%
X126850000Y-143200000D03*
X131150000Y-143200000D03*
%TD*%
D11*
%TO.C,RB2*%
X108775000Y-112400000D03*
X110425000Y-112400000D03*
%TD*%
D10*
%TO.C,C4*%
X115200000Y-112475000D03*
X115200000Y-109525000D03*
%TD*%
D14*
%TO.C,L1*%
X109500000Y-104000000D03*
X112500000Y-104000000D03*
%TD*%
D15*
%TO.C,C5*%
X106075000Y-110400000D03*
X103125000Y-110400000D03*
%TD*%
D16*
%TO.C,U1*%
X154525000Y-110095000D03*
X154525000Y-111365000D03*
X154525000Y-112635000D03*
X154525000Y-113905000D03*
X159475000Y-113905000D03*
X159475000Y-112635000D03*
X159475000Y-111365000D03*
X159475000Y-110095000D03*
%TD*%
D17*
%TO.C,U2*%
X109862500Y-108050000D03*
X109862500Y-109000000D03*
X109862500Y-109950000D03*
X112137500Y-109950000D03*
X112137500Y-109000000D03*
X112137500Y-108050000D03*
%TD*%
D18*
%TO.C,D1*%
X119500000Y-143200000D03*
X123500000Y-143200000D03*
%TD*%
D19*
%TO.C,C3*%
X107800000Y-108575000D03*
X107800000Y-107025000D03*
%TD*%
D20*
%TO.C,C6*%
X156225000Y-116400000D03*
X157775000Y-116400000D03*
%TD*%
D21*
%TO.C,D3*%
X115200000Y-107000000D03*
X115200000Y-103000000D03*
%TD*%
M02*
