%TF.GenerationSoftware,KiCad,Pcbnew,9.0.9*%
%TF.CreationDate,2026-10-05T06:27:06+00:00*%
%TF.ProjectId,AP1_Plantilla,4150315f-506c-4616-9e74-696c6c612e6b,rev?*%
%TF.SameCoordinates,Original*%
%TF.FileFunction,Legend,Top*%
%TF.FilePolarity,Positive*%
%FSLAX46Y46*%
G04 Gerber Fmt 4.6, Leading zero omitted, Abs format (unit mm)*
G04 Created by KiCad (PCBNEW 9.0.9) date 2026-10-05 06:27:06*
%MOMM*%
%LPD*%
G01*
G04 APERTURE LIST*
G04 Aperture macros list*
%AMRoundRect*
0 Rectangle with rounded corners*
0 $1 Rounding radius*
0 $2 $3 $4 $5 $6 $7 $8 $9 X,Y pos of 4 corners*
0 Add a 4 corners polygon primitive as box body*
4,1,4,$2,$3,$4,$5,$6,$7,$8,$9,$2,$3,0*
0 Add four circle primitives for the rounded corners*
1,1,$1+$1,$2,$3*
1,1,$1+$1,$4,$5*
1,1,$1+$1,$6,$7*
1,1,$1+$1,$8,$9*
0 Add four rect primitives between the rounded corners*
20,1,$1+$1,$2,$3,$4,$5,0*
20,1,$1+$1,$4,$5,$6,$7,0*
20,1,$1+$1,$6,$7,$8,$9,0*
20,1,$1+$1,$8,$9,$2,$3,0*%
G04 Aperture macros list end*
%ADD10C,0.120000*%
%ADD11C,0.180000*%
%ADD12C,0.150000*%
%ADD13RoundRect,0.250000X-0.300000X-1.600000X0.300000X-1.600000X0.300000X1.600000X-0.300000X1.600000X0*%
%ADD14C,1.500000*%
%ADD15RoundRect,0.250000X0.650000X-0.325000X0.650000X0.325000X-0.650000X0.325000X-0.650000X-0.325000X0*%
%ADD16RoundRect,0.250000X0.650000X-1.000000X0.650000X1.000000X-0.650000X1.000000X-0.650000X-1.000000X0*%
%ADD17RoundRect,0.150000X-0.825000X-0.150000X0.825000X-0.150000X0.825000X0.150000X-0.825000X0.150000X0*%
%ADD18C,3.200000*%
%ADD19R,1.700000X1.700000*%
%ADD20C,1.700000*%
%ADD21RoundRect,0.225000X0.250000X-0.225000X0.250000X0.225000X-0.250000X0.225000X-0.250000X-0.225000X0*%
%ADD22RoundRect,0.250000X0.325000X0.650000X-0.325000X0.650000X-0.325000X-0.650000X0.325000X-0.650000X0*%
%ADD23RoundRect,0.150000X-0.512500X-0.150000X0.512500X-0.150000X0.512500X0.150000X-0.512500X0.150000X0*%
%ADD24RoundRect,0.200000X-0.200000X-0.275000X0.200000X-0.275000X0.200000X0.275000X-0.200000X0.275000X0*%
%ADD25RoundRect,0.250000X-1.000000X-0.650000X1.000000X-0.650000X1.000000X0.650000X-1.000000X0.650000X0*%
%ADD26RoundRect,0.250000X-1.000000X-0.900000X1.000000X-0.900000X1.000000X0.900000X-1.000000X0.900000X0*%
%ADD27RoundRect,0.250000X-1.050000X-1.050000X1.050000X-1.050000X1.050000X1.050000X-1.050000X1.050000X0*%
%ADD28C,2.600000*%
%ADD29RoundRect,0.225000X-0.225000X-0.250000X0.225000X-0.250000X0.225000X0.250000X-0.225000X0.250000X0*%
%ADD30RoundRect,0.250000X-0.375000X-0.625000X0.375000X-0.625000X0.375000X0.625000X-0.375000X0.625000X0*%
G04 APERTURE END LIST*
D10*
X144747616Y-140163855D02*
X144747616Y-140735283D01*
X144747616Y-140735283D02*
X144709521Y-140849569D01*
X144709521Y-140849569D02*
X144633330Y-140925760D01*
X144633330Y-140925760D02*
X144519045Y-140963855D01*
X144519045Y-140963855D02*
X144442854Y-140963855D01*
X145242854Y-140506712D02*
X145166664Y-140468617D01*
X145166664Y-140468617D02*
X145128569Y-140430521D01*
X145128569Y-140430521D02*
X145090473Y-140354331D01*
X145090473Y-140354331D02*
X145090473Y-140316236D01*
X145090473Y-140316236D02*
X145128569Y-140240045D01*
X145128569Y-140240045D02*
X145166664Y-140201950D01*
X145166664Y-140201950D02*
X145242854Y-140163855D01*
X145242854Y-140163855D02*
X145395235Y-140163855D01*
X145395235Y-140163855D02*
X145471426Y-140201950D01*
X145471426Y-140201950D02*
X145509521Y-140240045D01*
X145509521Y-140240045D02*
X145547616Y-140316236D01*
X145547616Y-140316236D02*
X145547616Y-140354331D01*
X145547616Y-140354331D02*
X145509521Y-140430521D01*
X145509521Y-140430521D02*
X145471426Y-140468617D01*
X145471426Y-140468617D02*
X145395235Y-140506712D01*
X145395235Y-140506712D02*
X145242854Y-140506712D01*
X145242854Y-140506712D02*
X145166664Y-140544807D01*
X145166664Y-140544807D02*
X145128569Y-140582902D01*
X145128569Y-140582902D02*
X145090473Y-140659093D01*
X145090473Y-140659093D02*
X145090473Y-140811474D01*
X145090473Y-140811474D02*
X145128569Y-140887664D01*
X145128569Y-140887664D02*
X145166664Y-140925760D01*
X145166664Y-140925760D02*
X145242854Y-140963855D01*
X145242854Y-140963855D02*
X145395235Y-140963855D01*
X145395235Y-140963855D02*
X145471426Y-140925760D01*
X145471426Y-140925760D02*
X145509521Y-140887664D01*
X145509521Y-140887664D02*
X145547616Y-140811474D01*
X145547616Y-140811474D02*
X145547616Y-140659093D01*
X145547616Y-140659093D02*
X145509521Y-140582902D01*
X145509521Y-140582902D02*
X145471426Y-140544807D01*
X145471426Y-140544807D02*
X145395235Y-140506712D01*
X145890474Y-140887664D02*
X145928569Y-140925760D01*
X145928569Y-140925760D02*
X145890474Y-140963855D01*
X145890474Y-140963855D02*
X145852378Y-140925760D01*
X145852378Y-140925760D02*
X145890474Y-140887664D01*
X145890474Y-140887664D02*
X145890474Y-140963855D01*
X145890474Y-140468617D02*
X145928569Y-140506712D01*
X145928569Y-140506712D02*
X145890474Y-140544807D01*
X145890474Y-140544807D02*
X145852378Y-140506712D01*
X145852378Y-140506712D02*
X145890474Y-140468617D01*
X145890474Y-140468617D02*
X145890474Y-140544807D01*
X147299997Y-140963855D02*
X146842854Y-140963855D01*
X147071426Y-140963855D02*
X147071426Y-140163855D01*
X147071426Y-140163855D02*
X146995235Y-140278140D01*
X146995235Y-140278140D02*
X146919045Y-140354331D01*
X146919045Y-140354331D02*
X146842854Y-140392426D01*
X147642855Y-140659093D02*
X148252379Y-140659093D01*
X148595235Y-140240045D02*
X148633331Y-140201950D01*
X148633331Y-140201950D02*
X148709521Y-140163855D01*
X148709521Y-140163855D02*
X148899997Y-140163855D01*
X148899997Y-140163855D02*
X148976188Y-140201950D01*
X148976188Y-140201950D02*
X149014283Y-140240045D01*
X149014283Y-140240045D02*
X149052378Y-140316236D01*
X149052378Y-140316236D02*
X149052378Y-140392426D01*
X149052378Y-140392426D02*
X149014283Y-140506712D01*
X149014283Y-140506712D02*
X148557140Y-140963855D01*
X148557140Y-140963855D02*
X149052378Y-140963855D01*
X150423807Y-140963855D02*
X149966664Y-140963855D01*
X150195236Y-140963855D02*
X150195236Y-140163855D01*
X150195236Y-140163855D02*
X150119045Y-140278140D01*
X150119045Y-140278140D02*
X150042855Y-140354331D01*
X150042855Y-140354331D02*
X149966664Y-140392426D01*
X150728569Y-140240045D02*
X150766665Y-140201950D01*
X150766665Y-140201950D02*
X150842855Y-140163855D01*
X150842855Y-140163855D02*
X151033331Y-140163855D01*
X151033331Y-140163855D02*
X151109522Y-140201950D01*
X151109522Y-140201950D02*
X151147617Y-140240045D01*
X151147617Y-140240045D02*
X151185712Y-140316236D01*
X151185712Y-140316236D02*
X151185712Y-140392426D01*
X151185712Y-140392426D02*
X151147617Y-140506712D01*
X151147617Y-140506712D02*
X150690474Y-140963855D01*
X150690474Y-140963855D02*
X151185712Y-140963855D01*
X151414284Y-140163855D02*
X151680951Y-140963855D01*
X151680951Y-140963855D02*
X151947617Y-140163855D01*
X153357141Y-140163855D02*
X153852379Y-140163855D01*
X153852379Y-140163855D02*
X153585713Y-140468617D01*
X153585713Y-140468617D02*
X153699998Y-140468617D01*
X153699998Y-140468617D02*
X153776189Y-140506712D01*
X153776189Y-140506712D02*
X153814284Y-140544807D01*
X153814284Y-140544807D02*
X153852379Y-140620998D01*
X153852379Y-140620998D02*
X153852379Y-140811474D01*
X153852379Y-140811474D02*
X153814284Y-140887664D01*
X153814284Y-140887664D02*
X153776189Y-140925760D01*
X153776189Y-140925760D02*
X153699998Y-140963855D01*
X153699998Y-140963855D02*
X153471427Y-140963855D01*
X153471427Y-140963855D02*
X153395236Y-140925760D01*
X153395236Y-140925760D02*
X153357141Y-140887664D01*
X154195237Y-140659093D02*
X154804761Y-140659093D01*
X155528570Y-140430521D02*
X155528570Y-140963855D01*
X155338094Y-140125760D02*
X155147617Y-140697188D01*
X155147617Y-140697188D02*
X155642856Y-140697188D01*
X155985713Y-140925760D02*
X155985713Y-140963855D01*
X155985713Y-140963855D02*
X155947618Y-141040045D01*
X155947618Y-141040045D02*
X155909522Y-141078140D01*
X156747617Y-140963855D02*
X156290474Y-140963855D01*
X156519046Y-140963855D02*
X156519046Y-140163855D01*
X156519046Y-140163855D02*
X156442855Y-140278140D01*
X156442855Y-140278140D02*
X156366665Y-140354331D01*
X156366665Y-140354331D02*
X156290474Y-140392426D01*
X157433332Y-140163855D02*
X157280951Y-140163855D01*
X157280951Y-140163855D02*
X157204760Y-140201950D01*
X157204760Y-140201950D02*
X157166665Y-140240045D01*
X157166665Y-140240045D02*
X157090475Y-140354331D01*
X157090475Y-140354331D02*
X157052379Y-140506712D01*
X157052379Y-140506712D02*
X157052379Y-140811474D01*
X157052379Y-140811474D02*
X157090475Y-140887664D01*
X157090475Y-140887664D02*
X157128570Y-140925760D01*
X157128570Y-140925760D02*
X157204760Y-140963855D01*
X157204760Y-140963855D02*
X157357141Y-140963855D01*
X157357141Y-140963855D02*
X157433332Y-140925760D01*
X157433332Y-140925760D02*
X157471427Y-140887664D01*
X157471427Y-140887664D02*
X157509522Y-140811474D01*
X157509522Y-140811474D02*
X157509522Y-140620998D01*
X157509522Y-140620998D02*
X157471427Y-140544807D01*
X157471427Y-140544807D02*
X157433332Y-140506712D01*
X157433332Y-140506712D02*
X157357141Y-140468617D01*
X157357141Y-140468617D02*
X157204760Y-140468617D01*
X157204760Y-140468617D02*
X157128570Y-140506712D01*
X157128570Y-140506712D02*
X157090475Y-140544807D01*
X157090475Y-140544807D02*
X157052379Y-140620998D01*
X158880951Y-140201950D02*
X158804761Y-140163855D01*
X158804761Y-140163855D02*
X158690475Y-140163855D01*
X158690475Y-140163855D02*
X158576189Y-140201950D01*
X158576189Y-140201950D02*
X158499999Y-140278140D01*
X158499999Y-140278140D02*
X158461904Y-140354331D01*
X158461904Y-140354331D02*
X158423808Y-140506712D01*
X158423808Y-140506712D02*
X158423808Y-140620998D01*
X158423808Y-140620998D02*
X158461904Y-140773379D01*
X158461904Y-140773379D02*
X158499999Y-140849569D01*
X158499999Y-140849569D02*
X158576189Y-140925760D01*
X158576189Y-140925760D02*
X158690475Y-140963855D01*
X158690475Y-140963855D02*
X158766666Y-140963855D01*
X158766666Y-140963855D02*
X158880951Y-140925760D01*
X158880951Y-140925760D02*
X158919047Y-140887664D01*
X158919047Y-140887664D02*
X158919047Y-140620998D01*
X158919047Y-140620998D02*
X158766666Y-140620998D01*
X159261904Y-140963855D02*
X159261904Y-140163855D01*
X159261904Y-140163855D02*
X159719047Y-140963855D01*
X159719047Y-140963855D02*
X159719047Y-140163855D01*
X160099999Y-140963855D02*
X160099999Y-140163855D01*
X160099999Y-140163855D02*
X160290475Y-140163855D01*
X160290475Y-140163855D02*
X160404761Y-140201950D01*
X160404761Y-140201950D02*
X160480951Y-140278140D01*
X160480951Y-140278140D02*
X160519046Y-140354331D01*
X160519046Y-140354331D02*
X160557142Y-140506712D01*
X160557142Y-140506712D02*
X160557142Y-140620998D01*
X160557142Y-140620998D02*
X160519046Y-140773379D01*
X160519046Y-140773379D02*
X160480951Y-140849569D01*
X160480951Y-140849569D02*
X160404761Y-140925760D01*
X160404761Y-140925760D02*
X160290475Y-140963855D01*
X160290475Y-140963855D02*
X160099999Y-140963855D01*
X162499999Y-140163855D02*
X162119047Y-140163855D01*
X162119047Y-140163855D02*
X162080951Y-140544807D01*
X162080951Y-140544807D02*
X162119047Y-140506712D01*
X162119047Y-140506712D02*
X162195237Y-140468617D01*
X162195237Y-140468617D02*
X162385713Y-140468617D01*
X162385713Y-140468617D02*
X162461904Y-140506712D01*
X162461904Y-140506712D02*
X162499999Y-140544807D01*
X162499999Y-140544807D02*
X162538094Y-140620998D01*
X162538094Y-140620998D02*
X162538094Y-140811474D01*
X162538094Y-140811474D02*
X162499999Y-140887664D01*
X162499999Y-140887664D02*
X162461904Y-140925760D01*
X162461904Y-140925760D02*
X162385713Y-140963855D01*
X162385713Y-140963855D02*
X162195237Y-140963855D01*
X162195237Y-140963855D02*
X162119047Y-140925760D01*
X162119047Y-140925760D02*
X162080951Y-140887664D01*
X162880952Y-140659093D02*
X163490476Y-140659093D01*
X163985713Y-140506712D02*
X163909523Y-140468617D01*
X163909523Y-140468617D02*
X163871428Y-140430521D01*
X163871428Y-140430521D02*
X163833332Y-140354331D01*
X163833332Y-140354331D02*
X163833332Y-140316236D01*
X163833332Y-140316236D02*
X163871428Y-140240045D01*
X163871428Y-140240045D02*
X163909523Y-140201950D01*
X163909523Y-140201950D02*
X163985713Y-140163855D01*
X163985713Y-140163855D02*
X164138094Y-140163855D01*
X164138094Y-140163855D02*
X164214285Y-140201950D01*
X164214285Y-140201950D02*
X164252380Y-140240045D01*
X164252380Y-140240045D02*
X164290475Y-140316236D01*
X164290475Y-140316236D02*
X164290475Y-140354331D01*
X164290475Y-140354331D02*
X164252380Y-140430521D01*
X164252380Y-140430521D02*
X164214285Y-140468617D01*
X164214285Y-140468617D02*
X164138094Y-140506712D01*
X164138094Y-140506712D02*
X163985713Y-140506712D01*
X163985713Y-140506712D02*
X163909523Y-140544807D01*
X163909523Y-140544807D02*
X163871428Y-140582902D01*
X163871428Y-140582902D02*
X163833332Y-140659093D01*
X163833332Y-140659093D02*
X163833332Y-140811474D01*
X163833332Y-140811474D02*
X163871428Y-140887664D01*
X163871428Y-140887664D02*
X163909523Y-140925760D01*
X163909523Y-140925760D02*
X163985713Y-140963855D01*
X163985713Y-140963855D02*
X164138094Y-140963855D01*
X164138094Y-140963855D02*
X164214285Y-140925760D01*
X164214285Y-140925760D02*
X164252380Y-140887664D01*
X164252380Y-140887664D02*
X164290475Y-140811474D01*
X164290475Y-140811474D02*
X164290475Y-140659093D01*
X164290475Y-140659093D02*
X164252380Y-140582902D01*
X164252380Y-140582902D02*
X164214285Y-140544807D01*
X164214285Y-140544807D02*
X164138094Y-140506712D01*
X165242857Y-140963855D02*
X165242857Y-140163855D01*
X165242857Y-140163855D02*
X165547619Y-140163855D01*
X165547619Y-140163855D02*
X165623809Y-140201950D01*
X165623809Y-140201950D02*
X165661904Y-140240045D01*
X165661904Y-140240045D02*
X165700000Y-140316236D01*
X165700000Y-140316236D02*
X165700000Y-140430521D01*
X165700000Y-140430521D02*
X165661904Y-140506712D01*
X165661904Y-140506712D02*
X165623809Y-140544807D01*
X165623809Y-140544807D02*
X165547619Y-140582902D01*
X165547619Y-140582902D02*
X165242857Y-140582902D01*
X165966666Y-140163855D02*
X166157142Y-140963855D01*
X166157142Y-140963855D02*
X166309523Y-140392426D01*
X166309523Y-140392426D02*
X166461904Y-140963855D01*
X166461904Y-140963855D02*
X166652381Y-140163855D01*
X166957143Y-140963855D02*
X166957143Y-140163855D01*
X166957143Y-140163855D02*
X167223809Y-140735283D01*
X167223809Y-140735283D02*
X167490476Y-140163855D01*
X167490476Y-140163855D02*
X167490476Y-140963855D01*
X168290476Y-140963855D02*
X167833333Y-140963855D01*
X168061905Y-140963855D02*
X168061905Y-140163855D01*
X168061905Y-140163855D02*
X167985714Y-140278140D01*
X167985714Y-140278140D02*
X167909524Y-140354331D01*
X167909524Y-140354331D02*
X167833333Y-140392426D01*
X168633334Y-140659093D02*
X169242858Y-140659093D01*
X169966667Y-140430521D02*
X169966667Y-140963855D01*
X169776191Y-140125760D02*
X169585714Y-140697188D01*
X169585714Y-140697188D02*
X170080953Y-140697188D01*
X171642858Y-140963855D02*
X171795239Y-140963855D01*
X171795239Y-140963855D02*
X171871429Y-140925760D01*
X171871429Y-140925760D02*
X171909525Y-140887664D01*
X171909525Y-140887664D02*
X171985715Y-140773379D01*
X171985715Y-140773379D02*
X172023810Y-140620998D01*
X172023810Y-140620998D02*
X172023810Y-140316236D01*
X172023810Y-140316236D02*
X171985715Y-140240045D01*
X171985715Y-140240045D02*
X171947620Y-140201950D01*
X171947620Y-140201950D02*
X171871429Y-140163855D01*
X171871429Y-140163855D02*
X171719048Y-140163855D01*
X171719048Y-140163855D02*
X171642858Y-140201950D01*
X171642858Y-140201950D02*
X171604763Y-140240045D01*
X171604763Y-140240045D02*
X171566667Y-140316236D01*
X171566667Y-140316236D02*
X171566667Y-140506712D01*
X171566667Y-140506712D02*
X171604763Y-140582902D01*
X171604763Y-140582902D02*
X171642858Y-140620998D01*
X171642858Y-140620998D02*
X171719048Y-140659093D01*
X171719048Y-140659093D02*
X171871429Y-140659093D01*
X171871429Y-140659093D02*
X171947620Y-140620998D01*
X171947620Y-140620998D02*
X171985715Y-140582902D01*
X171985715Y-140582902D02*
X172023810Y-140506712D01*
X172366668Y-140659093D02*
X172976192Y-140659093D01*
X173776191Y-140963855D02*
X173319048Y-140963855D01*
X173547620Y-140963855D02*
X173547620Y-140163855D01*
X173547620Y-140163855D02*
X173471429Y-140278140D01*
X173471429Y-140278140D02*
X173395239Y-140354331D01*
X173395239Y-140354331D02*
X173319048Y-140392426D01*
X174271430Y-140163855D02*
X174347620Y-140163855D01*
X174347620Y-140163855D02*
X174423811Y-140201950D01*
X174423811Y-140201950D02*
X174461906Y-140240045D01*
X174461906Y-140240045D02*
X174500001Y-140316236D01*
X174500001Y-140316236D02*
X174538096Y-140468617D01*
X174538096Y-140468617D02*
X174538096Y-140659093D01*
X174538096Y-140659093D02*
X174500001Y-140811474D01*
X174500001Y-140811474D02*
X174461906Y-140887664D01*
X174461906Y-140887664D02*
X174423811Y-140925760D01*
X174423811Y-140925760D02*
X174347620Y-140963855D01*
X174347620Y-140963855D02*
X174271430Y-140963855D01*
X174271430Y-140963855D02*
X174195239Y-140925760D01*
X174195239Y-140925760D02*
X174157144Y-140887664D01*
X174157144Y-140887664D02*
X174119049Y-140811474D01*
X174119049Y-140811474D02*
X174080953Y-140659093D01*
X174080953Y-140659093D02*
X174080953Y-140468617D01*
X174080953Y-140468617D02*
X174119049Y-140316236D01*
X174119049Y-140316236D02*
X174157144Y-140240045D01*
X174157144Y-140240045D02*
X174195239Y-140201950D01*
X174195239Y-140201950D02*
X174271430Y-140163855D01*
X175947621Y-140887664D02*
X175909525Y-140925760D01*
X175909525Y-140925760D02*
X175795240Y-140963855D01*
X175795240Y-140963855D02*
X175719049Y-140963855D01*
X175719049Y-140963855D02*
X175604763Y-140925760D01*
X175604763Y-140925760D02*
X175528573Y-140849569D01*
X175528573Y-140849569D02*
X175490478Y-140773379D01*
X175490478Y-140773379D02*
X175452382Y-140620998D01*
X175452382Y-140620998D02*
X175452382Y-140506712D01*
X175452382Y-140506712D02*
X175490478Y-140354331D01*
X175490478Y-140354331D02*
X175528573Y-140278140D01*
X175528573Y-140278140D02*
X175604763Y-140201950D01*
X175604763Y-140201950D02*
X175719049Y-140163855D01*
X175719049Y-140163855D02*
X175795240Y-140163855D01*
X175795240Y-140163855D02*
X175909525Y-140201950D01*
X175909525Y-140201950D02*
X175947621Y-140240045D01*
X176176192Y-140163855D02*
X176633335Y-140163855D01*
X176404763Y-140963855D02*
X176404763Y-140163855D01*
X177357145Y-140963855D02*
X177090478Y-140582902D01*
X176900002Y-140963855D02*
X176900002Y-140163855D01*
X176900002Y-140163855D02*
X177204764Y-140163855D01*
X177204764Y-140163855D02*
X177280954Y-140201950D01*
X177280954Y-140201950D02*
X177319049Y-140240045D01*
X177319049Y-140240045D02*
X177357145Y-140316236D01*
X177357145Y-140316236D02*
X177357145Y-140430521D01*
X177357145Y-140430521D02*
X177319049Y-140506712D01*
X177319049Y-140506712D02*
X177280954Y-140544807D01*
X177280954Y-140544807D02*
X177204764Y-140582902D01*
X177204764Y-140582902D02*
X176900002Y-140582902D01*
X178080954Y-140963855D02*
X177700002Y-140963855D01*
X177700002Y-140963855D02*
X177700002Y-140163855D01*
X178766668Y-140963855D02*
X178309525Y-140963855D01*
X178538097Y-140963855D02*
X178538097Y-140163855D01*
X178538097Y-140163855D02*
X178461906Y-140278140D01*
X178461906Y-140278140D02*
X178385716Y-140354331D01*
X178385716Y-140354331D02*
X178309525Y-140392426D01*
X179109526Y-140659093D02*
X179719050Y-140659093D01*
X180061906Y-140240045D02*
X180100002Y-140201950D01*
X180100002Y-140201950D02*
X180176192Y-140163855D01*
X180176192Y-140163855D02*
X180366668Y-140163855D01*
X180366668Y-140163855D02*
X180442859Y-140201950D01*
X180442859Y-140201950D02*
X180480954Y-140240045D01*
X180480954Y-140240045D02*
X180519049Y-140316236D01*
X180519049Y-140316236D02*
X180519049Y-140392426D01*
X180519049Y-140392426D02*
X180480954Y-140506712D01*
X180480954Y-140506712D02*
X180023811Y-140963855D01*
X180023811Y-140963855D02*
X180519049Y-140963855D01*
X148785711Y-142363855D02*
X148328568Y-142363855D01*
X148557140Y-142363855D02*
X148557140Y-141563855D01*
X148557140Y-141563855D02*
X148480949Y-141678140D01*
X148480949Y-141678140D02*
X148404759Y-141754331D01*
X148404759Y-141754331D02*
X148328568Y-141792426D01*
X149547616Y-142363855D02*
X149090473Y-142363855D01*
X149319045Y-142363855D02*
X149319045Y-141563855D01*
X149319045Y-141563855D02*
X149242854Y-141678140D01*
X149242854Y-141678140D02*
X149166664Y-141754331D01*
X149166664Y-141754331D02*
X149090473Y-141792426D01*
X150461902Y-142325760D02*
X150576188Y-142363855D01*
X150576188Y-142363855D02*
X150766664Y-142363855D01*
X150766664Y-142363855D02*
X150842855Y-142325760D01*
X150842855Y-142325760D02*
X150880950Y-142287664D01*
X150880950Y-142287664D02*
X150919045Y-142211474D01*
X150919045Y-142211474D02*
X150919045Y-142135283D01*
X150919045Y-142135283D02*
X150880950Y-142059093D01*
X150880950Y-142059093D02*
X150842855Y-142020998D01*
X150842855Y-142020998D02*
X150766664Y-141982902D01*
X150766664Y-141982902D02*
X150614283Y-141944807D01*
X150614283Y-141944807D02*
X150538093Y-141906712D01*
X150538093Y-141906712D02*
X150499998Y-141868617D01*
X150499998Y-141868617D02*
X150461902Y-141792426D01*
X150461902Y-141792426D02*
X150461902Y-141716236D01*
X150461902Y-141716236D02*
X150499998Y-141640045D01*
X150499998Y-141640045D02*
X150538093Y-141601950D01*
X150538093Y-141601950D02*
X150614283Y-141563855D01*
X150614283Y-141563855D02*
X150804760Y-141563855D01*
X150804760Y-141563855D02*
X150919045Y-141601950D01*
X151261903Y-142363855D02*
X151261903Y-141563855D01*
X151261903Y-141563855D02*
X151452379Y-141563855D01*
X151452379Y-141563855D02*
X151566665Y-141601950D01*
X151566665Y-141601950D02*
X151642855Y-141678140D01*
X151642855Y-141678140D02*
X151680950Y-141754331D01*
X151680950Y-141754331D02*
X151719046Y-141906712D01*
X151719046Y-141906712D02*
X151719046Y-142020998D01*
X151719046Y-142020998D02*
X151680950Y-142173379D01*
X151680950Y-142173379D02*
X151642855Y-142249569D01*
X151642855Y-142249569D02*
X151566665Y-142325760D01*
X151566665Y-142325760D02*
X151452379Y-142363855D01*
X151452379Y-142363855D02*
X151261903Y-142363855D01*
X152023807Y-142135283D02*
X152404760Y-142135283D01*
X151947617Y-142363855D02*
X152214284Y-141563855D01*
X152214284Y-141563855D02*
X152480950Y-142363855D01*
X154385712Y-142363855D02*
X153928569Y-142363855D01*
X154157141Y-142363855D02*
X154157141Y-141563855D01*
X154157141Y-141563855D02*
X154080950Y-141678140D01*
X154080950Y-141678140D02*
X154004760Y-141754331D01*
X154004760Y-141754331D02*
X153928569Y-141792426D01*
X154690474Y-141640045D02*
X154728570Y-141601950D01*
X154728570Y-141601950D02*
X154804760Y-141563855D01*
X154804760Y-141563855D02*
X154995236Y-141563855D01*
X154995236Y-141563855D02*
X155071427Y-141601950D01*
X155071427Y-141601950D02*
X155109522Y-141640045D01*
X155109522Y-141640045D02*
X155147617Y-141716236D01*
X155147617Y-141716236D02*
X155147617Y-141792426D01*
X155147617Y-141792426D02*
X155109522Y-141906712D01*
X155109522Y-141906712D02*
X154652379Y-142363855D01*
X154652379Y-142363855D02*
X155147617Y-142363855D01*
X156061903Y-142325760D02*
X156176189Y-142363855D01*
X156176189Y-142363855D02*
X156366665Y-142363855D01*
X156366665Y-142363855D02*
X156442856Y-142325760D01*
X156442856Y-142325760D02*
X156480951Y-142287664D01*
X156480951Y-142287664D02*
X156519046Y-142211474D01*
X156519046Y-142211474D02*
X156519046Y-142135283D01*
X156519046Y-142135283D02*
X156480951Y-142059093D01*
X156480951Y-142059093D02*
X156442856Y-142020998D01*
X156442856Y-142020998D02*
X156366665Y-141982902D01*
X156366665Y-141982902D02*
X156214284Y-141944807D01*
X156214284Y-141944807D02*
X156138094Y-141906712D01*
X156138094Y-141906712D02*
X156099999Y-141868617D01*
X156099999Y-141868617D02*
X156061903Y-141792426D01*
X156061903Y-141792426D02*
X156061903Y-141716236D01*
X156061903Y-141716236D02*
X156099999Y-141640045D01*
X156099999Y-141640045D02*
X156138094Y-141601950D01*
X156138094Y-141601950D02*
X156214284Y-141563855D01*
X156214284Y-141563855D02*
X156404761Y-141563855D01*
X156404761Y-141563855D02*
X156519046Y-141601950D01*
X157319047Y-142287664D02*
X157280951Y-142325760D01*
X157280951Y-142325760D02*
X157166666Y-142363855D01*
X157166666Y-142363855D02*
X157090475Y-142363855D01*
X157090475Y-142363855D02*
X156976189Y-142325760D01*
X156976189Y-142325760D02*
X156899999Y-142249569D01*
X156899999Y-142249569D02*
X156861904Y-142173379D01*
X156861904Y-142173379D02*
X156823808Y-142020998D01*
X156823808Y-142020998D02*
X156823808Y-141906712D01*
X156823808Y-141906712D02*
X156861904Y-141754331D01*
X156861904Y-141754331D02*
X156899999Y-141678140D01*
X156899999Y-141678140D02*
X156976189Y-141601950D01*
X156976189Y-141601950D02*
X157090475Y-141563855D01*
X157090475Y-141563855D02*
X157166666Y-141563855D01*
X157166666Y-141563855D02*
X157280951Y-141601950D01*
X157280951Y-141601950D02*
X157319047Y-141640045D01*
X158042856Y-142363855D02*
X157661904Y-142363855D01*
X157661904Y-142363855D02*
X157661904Y-141563855D01*
X159947618Y-142363855D02*
X159490475Y-142363855D01*
X159719047Y-142363855D02*
X159719047Y-141563855D01*
X159719047Y-141563855D02*
X159642856Y-141678140D01*
X159642856Y-141678140D02*
X159566666Y-141754331D01*
X159566666Y-141754331D02*
X159490475Y-141792426D01*
X160214285Y-141563855D02*
X160709523Y-141563855D01*
X160709523Y-141563855D02*
X160442857Y-141868617D01*
X160442857Y-141868617D02*
X160557142Y-141868617D01*
X160557142Y-141868617D02*
X160633333Y-141906712D01*
X160633333Y-141906712D02*
X160671428Y-141944807D01*
X160671428Y-141944807D02*
X160709523Y-142020998D01*
X160709523Y-142020998D02*
X160709523Y-142211474D01*
X160709523Y-142211474D02*
X160671428Y-142287664D01*
X160671428Y-142287664D02*
X160633333Y-142325760D01*
X160633333Y-142325760D02*
X160557142Y-142363855D01*
X160557142Y-142363855D02*
X160328571Y-142363855D01*
X160328571Y-142363855D02*
X160252380Y-142325760D01*
X160252380Y-142325760D02*
X160214285Y-142287664D01*
X161623809Y-142135283D02*
X162004762Y-142135283D01*
X161547619Y-142363855D02*
X161814286Y-141563855D01*
X161814286Y-141563855D02*
X162080952Y-142363855D01*
X162728571Y-142363855D02*
X162347619Y-142363855D01*
X162347619Y-142363855D02*
X162347619Y-141563855D01*
X162995238Y-141944807D02*
X163261904Y-141944807D01*
X163376190Y-142363855D02*
X162995238Y-142363855D01*
X162995238Y-142363855D02*
X162995238Y-141563855D01*
X162995238Y-141563855D02*
X163376190Y-141563855D01*
X164176191Y-142363855D02*
X163909524Y-141982902D01*
X163719048Y-142363855D02*
X163719048Y-141563855D01*
X163719048Y-141563855D02*
X164023810Y-141563855D01*
X164023810Y-141563855D02*
X164100000Y-141601950D01*
X164100000Y-141601950D02*
X164138095Y-141640045D01*
X164138095Y-141640045D02*
X164176191Y-141716236D01*
X164176191Y-141716236D02*
X164176191Y-141830521D01*
X164176191Y-141830521D02*
X164138095Y-141906712D01*
X164138095Y-141906712D02*
X164100000Y-141944807D01*
X164100000Y-141944807D02*
X164023810Y-141982902D01*
X164023810Y-141982902D02*
X163719048Y-141982902D01*
X164404762Y-141563855D02*
X164861905Y-141563855D01*
X164633333Y-142363855D02*
X164633333Y-141563855D01*
X165090476Y-142135283D02*
X165471429Y-142135283D01*
X165014286Y-142363855D02*
X165280953Y-141563855D01*
X165280953Y-141563855D02*
X165547619Y-142363855D01*
X167452381Y-142363855D02*
X166995238Y-142363855D01*
X167223810Y-142363855D02*
X167223810Y-141563855D01*
X167223810Y-141563855D02*
X167147619Y-141678140D01*
X167147619Y-141678140D02*
X167071429Y-141754331D01*
X167071429Y-141754331D02*
X166995238Y-141792426D01*
X168138096Y-141830521D02*
X168138096Y-142363855D01*
X167947620Y-141525760D02*
X167757143Y-142097188D01*
X167757143Y-142097188D02*
X168252382Y-142097188D01*
X169128572Y-142135283D02*
X169509525Y-142135283D01*
X169052382Y-142363855D02*
X169319049Y-141563855D01*
X169319049Y-141563855D02*
X169585715Y-142363855D01*
X169852382Y-141563855D02*
X169852382Y-142211474D01*
X169852382Y-142211474D02*
X169890477Y-142287664D01*
X169890477Y-142287664D02*
X169928572Y-142325760D01*
X169928572Y-142325760D02*
X170004763Y-142363855D01*
X170004763Y-142363855D02*
X170157144Y-142363855D01*
X170157144Y-142363855D02*
X170233334Y-142325760D01*
X170233334Y-142325760D02*
X170271429Y-142287664D01*
X170271429Y-142287664D02*
X170309525Y-142211474D01*
X170309525Y-142211474D02*
X170309525Y-141563855D01*
X170614286Y-141563855D02*
X171147620Y-142363855D01*
X171147620Y-141563855D02*
X170614286Y-142363855D01*
X173090477Y-142363855D02*
X172633334Y-142363855D01*
X172861906Y-142363855D02*
X172861906Y-141563855D01*
X172861906Y-141563855D02*
X172785715Y-141678140D01*
X172785715Y-141678140D02*
X172709525Y-141754331D01*
X172709525Y-141754331D02*
X172633334Y-141792426D01*
X173814287Y-141563855D02*
X173433335Y-141563855D01*
X173433335Y-141563855D02*
X173395239Y-141944807D01*
X173395239Y-141944807D02*
X173433335Y-141906712D01*
X173433335Y-141906712D02*
X173509525Y-141868617D01*
X173509525Y-141868617D02*
X173700001Y-141868617D01*
X173700001Y-141868617D02*
X173776192Y-141906712D01*
X173776192Y-141906712D02*
X173814287Y-141944807D01*
X173814287Y-141944807D02*
X173852382Y-142020998D01*
X173852382Y-142020998D02*
X173852382Y-142211474D01*
X173852382Y-142211474D02*
X173814287Y-142287664D01*
X173814287Y-142287664D02*
X173776192Y-142325760D01*
X173776192Y-142325760D02*
X173700001Y-142363855D01*
X173700001Y-142363855D02*
X173509525Y-142363855D01*
X173509525Y-142363855D02*
X173433335Y-142325760D01*
X173433335Y-142325760D02*
X173395239Y-142287664D01*
X174728573Y-141563855D02*
X175223811Y-141563855D01*
X175223811Y-141563855D02*
X174957145Y-141868617D01*
X174957145Y-141868617D02*
X175071430Y-141868617D01*
X175071430Y-141868617D02*
X175147621Y-141906712D01*
X175147621Y-141906712D02*
X175185716Y-141944807D01*
X175185716Y-141944807D02*
X175223811Y-142020998D01*
X175223811Y-142020998D02*
X175223811Y-142211474D01*
X175223811Y-142211474D02*
X175185716Y-142287664D01*
X175185716Y-142287664D02*
X175147621Y-142325760D01*
X175147621Y-142325760D02*
X175071430Y-142363855D01*
X175071430Y-142363855D02*
X174842859Y-142363855D01*
X174842859Y-142363855D02*
X174766668Y-142325760D01*
X174766668Y-142325760D02*
X174728573Y-142287664D01*
X175452383Y-141563855D02*
X175719050Y-142363855D01*
X175719050Y-142363855D02*
X175985716Y-141563855D01*
X176176192Y-141563855D02*
X176671430Y-141563855D01*
X176671430Y-141563855D02*
X176404764Y-141868617D01*
X176404764Y-141868617D02*
X176519049Y-141868617D01*
X176519049Y-141868617D02*
X176595240Y-141906712D01*
X176595240Y-141906712D02*
X176633335Y-141944807D01*
X176633335Y-141944807D02*
X176671430Y-142020998D01*
X176671430Y-142020998D02*
X176671430Y-142211474D01*
X176671430Y-142211474D02*
X176633335Y-142287664D01*
X176633335Y-142287664D02*
X176595240Y-142325760D01*
X176595240Y-142325760D02*
X176519049Y-142363855D01*
X176519049Y-142363855D02*
X176290478Y-142363855D01*
X176290478Y-142363855D02*
X176214287Y-142325760D01*
X176214287Y-142325760D02*
X176176192Y-142287664D01*
D11*
X103142857Y-146088640D02*
X104057143Y-146088640D01*
X103600000Y-146545782D02*
X103600000Y-145631497D01*
X108222857Y-146088640D02*
X109137143Y-146088640D01*
D12*
X110833333Y-101504819D02*
X110357143Y-101504819D01*
X110357143Y-101504819D02*
X110357143Y-100504819D01*
X111690476Y-101504819D02*
X111119048Y-101504819D01*
X111404762Y-101504819D02*
X111404762Y-100504819D01*
X111404762Y-100504819D02*
X111309524Y-100647676D01*
X111309524Y-100647676D02*
X111214286Y-100742914D01*
X111214286Y-100742914D02*
X111119048Y-100790533D01*
X118990476Y-103914295D02*
X119447619Y-103914295D01*
X119219047Y-104714295D02*
X119219047Y-103914295D01*
X119714286Y-104714295D02*
X119714286Y-103914295D01*
X119714286Y-103914295D02*
X120019048Y-103914295D01*
X120019048Y-103914295D02*
X120095238Y-103952390D01*
X120095238Y-103952390D02*
X120133333Y-103990485D01*
X120133333Y-103990485D02*
X120171429Y-104066676D01*
X120171429Y-104066676D02*
X120171429Y-104180961D01*
X120171429Y-104180961D02*
X120133333Y-104257152D01*
X120133333Y-104257152D02*
X120095238Y-104295247D01*
X120095238Y-104295247D02*
X120019048Y-104333342D01*
X120019048Y-104333342D02*
X119714286Y-104333342D01*
X120476190Y-103990485D02*
X120514286Y-103952390D01*
X120514286Y-103952390D02*
X120590476Y-103914295D01*
X120590476Y-103914295D02*
X120780952Y-103914295D01*
X120780952Y-103914295D02*
X120857143Y-103952390D01*
X120857143Y-103952390D02*
X120895238Y-103990485D01*
X120895238Y-103990485D02*
X120933333Y-104066676D01*
X120933333Y-104066676D02*
X120933333Y-104142866D01*
X120933333Y-104142866D02*
X120895238Y-104257152D01*
X120895238Y-104257152D02*
X120438095Y-104714295D01*
X120438095Y-104714295D02*
X120933333Y-104714295D01*
X136509580Y-142966666D02*
X136557200Y-143014285D01*
X136557200Y-143014285D02*
X136604819Y-143157142D01*
X136604819Y-143157142D02*
X136604819Y-143252380D01*
X136604819Y-143252380D02*
X136557200Y-143395237D01*
X136557200Y-143395237D02*
X136461961Y-143490475D01*
X136461961Y-143490475D02*
X136366723Y-143538094D01*
X136366723Y-143538094D02*
X136176247Y-143585713D01*
X136176247Y-143585713D02*
X136033390Y-143585713D01*
X136033390Y-143585713D02*
X135842914Y-143538094D01*
X135842914Y-143538094D02*
X135747676Y-143490475D01*
X135747676Y-143490475D02*
X135652438Y-143395237D01*
X135652438Y-143395237D02*
X135604819Y-143252380D01*
X135604819Y-143252380D02*
X135604819Y-143157142D01*
X135604819Y-143157142D02*
X135652438Y-143014285D01*
X135652438Y-143014285D02*
X135700057Y-142966666D01*
X135700057Y-142585713D02*
X135652438Y-142538094D01*
X135652438Y-142538094D02*
X135604819Y-142442856D01*
X135604819Y-142442856D02*
X135604819Y-142204761D01*
X135604819Y-142204761D02*
X135652438Y-142109523D01*
X135652438Y-142109523D02*
X135700057Y-142061904D01*
X135700057Y-142061904D02*
X135795295Y-142014285D01*
X135795295Y-142014285D02*
X135890533Y-142014285D01*
X135890533Y-142014285D02*
X136033390Y-142061904D01*
X136033390Y-142061904D02*
X136604819Y-142633332D01*
X136604819Y-142633332D02*
X136604819Y-142014285D01*
X113154819Y-105738094D02*
X112154819Y-105738094D01*
X112154819Y-105738094D02*
X112154819Y-105499999D01*
X112154819Y-105499999D02*
X112202438Y-105357142D01*
X112202438Y-105357142D02*
X112297676Y-105261904D01*
X112297676Y-105261904D02*
X112392914Y-105214285D01*
X112392914Y-105214285D02*
X112583390Y-105166666D01*
X112583390Y-105166666D02*
X112726247Y-105166666D01*
X112726247Y-105166666D02*
X112916723Y-105214285D01*
X112916723Y-105214285D02*
X113011961Y-105261904D01*
X113011961Y-105261904D02*
X113107200Y-105357142D01*
X113107200Y-105357142D02*
X113154819Y-105499999D01*
X113154819Y-105499999D02*
X113154819Y-105738094D01*
X112154819Y-104833332D02*
X112154819Y-104214285D01*
X112154819Y-104214285D02*
X112535771Y-104547618D01*
X112535771Y-104547618D02*
X112535771Y-104404761D01*
X112535771Y-104404761D02*
X112583390Y-104309523D01*
X112583390Y-104309523D02*
X112631009Y-104261904D01*
X112631009Y-104261904D02*
X112726247Y-104214285D01*
X112726247Y-104214285D02*
X112964342Y-104214285D01*
X112964342Y-104214285D02*
X113059580Y-104261904D01*
X113059580Y-104261904D02*
X113107200Y-104309523D01*
X113107200Y-104309523D02*
X113154819Y-104404761D01*
X113154819Y-104404761D02*
X113154819Y-104690475D01*
X113154819Y-104690475D02*
X113107200Y-104785713D01*
X113107200Y-104785713D02*
X113059580Y-104833332D01*
X156238095Y-108054819D02*
X156238095Y-108864342D01*
X156238095Y-108864342D02*
X156285714Y-108959580D01*
X156285714Y-108959580D02*
X156333333Y-109007200D01*
X156333333Y-109007200D02*
X156428571Y-109054819D01*
X156428571Y-109054819D02*
X156619047Y-109054819D01*
X156619047Y-109054819D02*
X156714285Y-109007200D01*
X156714285Y-109007200D02*
X156761904Y-108959580D01*
X156761904Y-108959580D02*
X156809523Y-108864342D01*
X156809523Y-108864342D02*
X156809523Y-108054819D01*
X157809523Y-109054819D02*
X157238095Y-109054819D01*
X157523809Y-109054819D02*
X157523809Y-108054819D01*
X157523809Y-108054819D02*
X157428571Y-108197676D01*
X157428571Y-108197676D02*
X157333333Y-108292914D01*
X157333333Y-108292914D02*
X157238095Y-108340533D01*
X139990476Y-138914295D02*
X140447619Y-138914295D01*
X140219047Y-139714295D02*
X140219047Y-138914295D01*
X140714286Y-139714295D02*
X140714286Y-138914295D01*
X140714286Y-138914295D02*
X141019048Y-138914295D01*
X141019048Y-138914295D02*
X141095238Y-138952390D01*
X141095238Y-138952390D02*
X141133333Y-138990485D01*
X141133333Y-138990485D02*
X141171429Y-139066676D01*
X141171429Y-139066676D02*
X141171429Y-139180961D01*
X141171429Y-139180961D02*
X141133333Y-139257152D01*
X141133333Y-139257152D02*
X141095238Y-139295247D01*
X141095238Y-139295247D02*
X141019048Y-139333342D01*
X141019048Y-139333342D02*
X140714286Y-139333342D01*
X141933333Y-139714295D02*
X141476190Y-139714295D01*
X141704762Y-139714295D02*
X141704762Y-138914295D01*
X141704762Y-138914295D02*
X141628571Y-139028580D01*
X141628571Y-139028580D02*
X141552381Y-139104771D01*
X141552381Y-139104771D02*
X141476190Y-139142866D01*
X145396666Y-102684819D02*
X145396666Y-103399104D01*
X145396666Y-103399104D02*
X145349047Y-103541961D01*
X145349047Y-103541961D02*
X145253809Y-103637200D01*
X145253809Y-103637200D02*
X145110952Y-103684819D01*
X145110952Y-103684819D02*
X145015714Y-103684819D01*
X145777619Y-102684819D02*
X146444285Y-102684819D01*
X146444285Y-102684819D02*
X146015714Y-103684819D01*
X113709580Y-111166666D02*
X113757200Y-111214285D01*
X113757200Y-111214285D02*
X113804819Y-111357142D01*
X113804819Y-111357142D02*
X113804819Y-111452380D01*
X113804819Y-111452380D02*
X113757200Y-111595237D01*
X113757200Y-111595237D02*
X113661961Y-111690475D01*
X113661961Y-111690475D02*
X113566723Y-111738094D01*
X113566723Y-111738094D02*
X113376247Y-111785713D01*
X113376247Y-111785713D02*
X113233390Y-111785713D01*
X113233390Y-111785713D02*
X113042914Y-111738094D01*
X113042914Y-111738094D02*
X112947676Y-111690475D01*
X112947676Y-111690475D02*
X112852438Y-111595237D01*
X112852438Y-111595237D02*
X112804819Y-111452380D01*
X112804819Y-111452380D02*
X112804819Y-111357142D01*
X112804819Y-111357142D02*
X112852438Y-111214285D01*
X112852438Y-111214285D02*
X112900057Y-111166666D01*
X113138152Y-110309523D02*
X113804819Y-110309523D01*
X112757200Y-110547618D02*
X113471485Y-110785713D01*
X113471485Y-110785713D02*
X113471485Y-110166666D01*
X106729580Y-107966666D02*
X106777200Y-108014285D01*
X106777200Y-108014285D02*
X106824819Y-108157142D01*
X106824819Y-108157142D02*
X106824819Y-108252380D01*
X106824819Y-108252380D02*
X106777200Y-108395237D01*
X106777200Y-108395237D02*
X106681961Y-108490475D01*
X106681961Y-108490475D02*
X106586723Y-108538094D01*
X106586723Y-108538094D02*
X106396247Y-108585713D01*
X106396247Y-108585713D02*
X106253390Y-108585713D01*
X106253390Y-108585713D02*
X106062914Y-108538094D01*
X106062914Y-108538094D02*
X105967676Y-108490475D01*
X105967676Y-108490475D02*
X105872438Y-108395237D01*
X105872438Y-108395237D02*
X105824819Y-108252380D01*
X105824819Y-108252380D02*
X105824819Y-108157142D01*
X105824819Y-108157142D02*
X105872438Y-108014285D01*
X105872438Y-108014285D02*
X105920057Y-107966666D01*
X105824819Y-107633332D02*
X105824819Y-107014285D01*
X105824819Y-107014285D02*
X106205771Y-107347618D01*
X106205771Y-107347618D02*
X106205771Y-107204761D01*
X106205771Y-107204761D02*
X106253390Y-107109523D01*
X106253390Y-107109523D02*
X106301009Y-107061904D01*
X106301009Y-107061904D02*
X106396247Y-107014285D01*
X106396247Y-107014285D02*
X106634342Y-107014285D01*
X106634342Y-107014285D02*
X106729580Y-107061904D01*
X106729580Y-107061904D02*
X106777200Y-107109523D01*
X106777200Y-107109523D02*
X106824819Y-107204761D01*
X106824819Y-107204761D02*
X106824819Y-107490475D01*
X106824819Y-107490475D02*
X106777200Y-107585713D01*
X106777200Y-107585713D02*
X106729580Y-107633332D01*
X104433333Y-112609580D02*
X104385714Y-112657200D01*
X104385714Y-112657200D02*
X104242857Y-112704819D01*
X104242857Y-112704819D02*
X104147619Y-112704819D01*
X104147619Y-112704819D02*
X104004762Y-112657200D01*
X104004762Y-112657200D02*
X103909524Y-112561961D01*
X103909524Y-112561961D02*
X103861905Y-112466723D01*
X103861905Y-112466723D02*
X103814286Y-112276247D01*
X103814286Y-112276247D02*
X103814286Y-112133390D01*
X103814286Y-112133390D02*
X103861905Y-111942914D01*
X103861905Y-111942914D02*
X103909524Y-111847676D01*
X103909524Y-111847676D02*
X104004762Y-111752438D01*
X104004762Y-111752438D02*
X104147619Y-111704819D01*
X104147619Y-111704819D02*
X104242857Y-111704819D01*
X104242857Y-111704819D02*
X104385714Y-111752438D01*
X104385714Y-111752438D02*
X104433333Y-111800057D01*
X105338095Y-111704819D02*
X104861905Y-111704819D01*
X104861905Y-111704819D02*
X104814286Y-112181009D01*
X104814286Y-112181009D02*
X104861905Y-112133390D01*
X104861905Y-112133390D02*
X104957143Y-112085771D01*
X104957143Y-112085771D02*
X105195238Y-112085771D01*
X105195238Y-112085771D02*
X105290476Y-112133390D01*
X105290476Y-112133390D02*
X105338095Y-112181009D01*
X105338095Y-112181009D02*
X105385714Y-112276247D01*
X105385714Y-112276247D02*
X105385714Y-112514342D01*
X105385714Y-112514342D02*
X105338095Y-112609580D01*
X105338095Y-112609580D02*
X105290476Y-112657200D01*
X105290476Y-112657200D02*
X105195238Y-112704819D01*
X105195238Y-112704819D02*
X104957143Y-112704819D01*
X104957143Y-112704819D02*
X104861905Y-112657200D01*
X104861905Y-112657200D02*
X104814286Y-112609580D01*
X110238095Y-106054819D02*
X110238095Y-106864342D01*
X110238095Y-106864342D02*
X110285714Y-106959580D01*
X110285714Y-106959580D02*
X110333333Y-107007200D01*
X110333333Y-107007200D02*
X110428571Y-107054819D01*
X110428571Y-107054819D02*
X110619047Y-107054819D01*
X110619047Y-107054819D02*
X110714285Y-107007200D01*
X110714285Y-107007200D02*
X110761904Y-106959580D01*
X110761904Y-106959580D02*
X110809523Y-106864342D01*
X110809523Y-106864342D02*
X110809523Y-106054819D01*
X111238095Y-106150057D02*
X111285714Y-106102438D01*
X111285714Y-106102438D02*
X111380952Y-106054819D01*
X111380952Y-106054819D02*
X111619047Y-106054819D01*
X111619047Y-106054819D02*
X111714285Y-106102438D01*
X111714285Y-106102438D02*
X111761904Y-106150057D01*
X111761904Y-106150057D02*
X111809523Y-106245295D01*
X111809523Y-106245295D02*
X111809523Y-106340533D01*
X111809523Y-106340533D02*
X111761904Y-106483390D01*
X111761904Y-106483390D02*
X111190476Y-107054819D01*
X111190476Y-107054819D02*
X111809523Y-107054819D01*
X162990476Y-117914295D02*
X163447619Y-117914295D01*
X163219047Y-118714295D02*
X163219047Y-117914295D01*
X163714286Y-118714295D02*
X163714286Y-117914295D01*
X163714286Y-117914295D02*
X164019048Y-117914295D01*
X164019048Y-117914295D02*
X164095238Y-117952390D01*
X164095238Y-117952390D02*
X164133333Y-117990485D01*
X164133333Y-117990485D02*
X164171429Y-118066676D01*
X164171429Y-118066676D02*
X164171429Y-118180961D01*
X164171429Y-118180961D02*
X164133333Y-118257152D01*
X164133333Y-118257152D02*
X164095238Y-118295247D01*
X164095238Y-118295247D02*
X164019048Y-118333342D01*
X164019048Y-118333342D02*
X163714286Y-118333342D01*
X164857143Y-118180961D02*
X164857143Y-118714295D01*
X164666667Y-117876200D02*
X164476190Y-118447628D01*
X164476190Y-118447628D02*
X164971429Y-118447628D01*
X108933333Y-111424819D02*
X108600000Y-110948628D01*
X108361905Y-111424819D02*
X108361905Y-110424819D01*
X108361905Y-110424819D02*
X108742857Y-110424819D01*
X108742857Y-110424819D02*
X108838095Y-110472438D01*
X108838095Y-110472438D02*
X108885714Y-110520057D01*
X108885714Y-110520057D02*
X108933333Y-110615295D01*
X108933333Y-110615295D02*
X108933333Y-110758152D01*
X108933333Y-110758152D02*
X108885714Y-110853390D01*
X108885714Y-110853390D02*
X108838095Y-110901009D01*
X108838095Y-110901009D02*
X108742857Y-110948628D01*
X108742857Y-110948628D02*
X108361905Y-110948628D01*
X109695238Y-110901009D02*
X109838095Y-110948628D01*
X109838095Y-110948628D02*
X109885714Y-110996247D01*
X109885714Y-110996247D02*
X109933333Y-111091485D01*
X109933333Y-111091485D02*
X109933333Y-111234342D01*
X109933333Y-111234342D02*
X109885714Y-111329580D01*
X109885714Y-111329580D02*
X109838095Y-111377200D01*
X109838095Y-111377200D02*
X109742857Y-111424819D01*
X109742857Y-111424819D02*
X109361905Y-111424819D01*
X109361905Y-111424819D02*
X109361905Y-110424819D01*
X109361905Y-110424819D02*
X109695238Y-110424819D01*
X109695238Y-110424819D02*
X109790476Y-110472438D01*
X109790476Y-110472438D02*
X109838095Y-110520057D01*
X109838095Y-110520057D02*
X109885714Y-110615295D01*
X109885714Y-110615295D02*
X109885714Y-110710533D01*
X109885714Y-110710533D02*
X109838095Y-110805771D01*
X109838095Y-110805771D02*
X109790476Y-110853390D01*
X109790476Y-110853390D02*
X109695238Y-110901009D01*
X109695238Y-110901009D02*
X109361905Y-110901009D01*
X110314286Y-110520057D02*
X110361905Y-110472438D01*
X110361905Y-110472438D02*
X110457143Y-110424819D01*
X110457143Y-110424819D02*
X110695238Y-110424819D01*
X110695238Y-110424819D02*
X110790476Y-110472438D01*
X110790476Y-110472438D02*
X110838095Y-110520057D01*
X110838095Y-110520057D02*
X110885714Y-110615295D01*
X110885714Y-110615295D02*
X110885714Y-110710533D01*
X110885714Y-110710533D02*
X110838095Y-110853390D01*
X110838095Y-110853390D02*
X110266667Y-111424819D01*
X110266667Y-111424819D02*
X110885714Y-111424819D01*
X157074819Y-147063333D02*
X157789104Y-147063333D01*
X157789104Y-147063333D02*
X157931961Y-147110952D01*
X157931961Y-147110952D02*
X158027200Y-147206190D01*
X158027200Y-147206190D02*
X158074819Y-147349047D01*
X158074819Y-147349047D02*
X158074819Y-147444285D01*
X157503390Y-146444285D02*
X157455771Y-146539523D01*
X157455771Y-146539523D02*
X157408152Y-146587142D01*
X157408152Y-146587142D02*
X157312914Y-146634761D01*
X157312914Y-146634761D02*
X157265295Y-146634761D01*
X157265295Y-146634761D02*
X157170057Y-146587142D01*
X157170057Y-146587142D02*
X157122438Y-146539523D01*
X157122438Y-146539523D02*
X157074819Y-146444285D01*
X157074819Y-146444285D02*
X157074819Y-146253809D01*
X157074819Y-146253809D02*
X157122438Y-146158571D01*
X157122438Y-146158571D02*
X157170057Y-146110952D01*
X157170057Y-146110952D02*
X157265295Y-146063333D01*
X157265295Y-146063333D02*
X157312914Y-146063333D01*
X157312914Y-146063333D02*
X157408152Y-146110952D01*
X157408152Y-146110952D02*
X157455771Y-146158571D01*
X157455771Y-146158571D02*
X157503390Y-146253809D01*
X157503390Y-146253809D02*
X157503390Y-146444285D01*
X157503390Y-146444285D02*
X157551009Y-146539523D01*
X157551009Y-146539523D02*
X157598628Y-146587142D01*
X157598628Y-146587142D02*
X157693866Y-146634761D01*
X157693866Y-146634761D02*
X157884342Y-146634761D01*
X157884342Y-146634761D02*
X157979580Y-146587142D01*
X157979580Y-146587142D02*
X158027200Y-146539523D01*
X158027200Y-146539523D02*
X158074819Y-146444285D01*
X158074819Y-146444285D02*
X158074819Y-146253809D01*
X158074819Y-146253809D02*
X158027200Y-146158571D01*
X158027200Y-146158571D02*
X157979580Y-146110952D01*
X157979580Y-146110952D02*
X157884342Y-146063333D01*
X157884342Y-146063333D02*
X157693866Y-146063333D01*
X157693866Y-146063333D02*
X157598628Y-146110952D01*
X157598628Y-146110952D02*
X157551009Y-146158571D01*
X157551009Y-146158571D02*
X157503390Y-146253809D01*
X120761905Y-141154819D02*
X120761905Y-140154819D01*
X120761905Y-140154819D02*
X121000000Y-140154819D01*
X121000000Y-140154819D02*
X121142857Y-140202438D01*
X121142857Y-140202438D02*
X121238095Y-140297676D01*
X121238095Y-140297676D02*
X121285714Y-140392914D01*
X121285714Y-140392914D02*
X121333333Y-140583390D01*
X121333333Y-140583390D02*
X121333333Y-140726247D01*
X121333333Y-140726247D02*
X121285714Y-140916723D01*
X121285714Y-140916723D02*
X121238095Y-141011961D01*
X121238095Y-141011961D02*
X121142857Y-141107200D01*
X121142857Y-141107200D02*
X121000000Y-141154819D01*
X121000000Y-141154819D02*
X120761905Y-141154819D01*
X122285714Y-141154819D02*
X121714286Y-141154819D01*
X122000000Y-141154819D02*
X122000000Y-140154819D01*
X122000000Y-140154819D02*
X121904762Y-140297676D01*
X121904762Y-140297676D02*
X121809524Y-140392914D01*
X121809524Y-140392914D02*
X121714286Y-140440533D01*
X133509580Y-142966666D02*
X133557200Y-143014285D01*
X133557200Y-143014285D02*
X133604819Y-143157142D01*
X133604819Y-143157142D02*
X133604819Y-143252380D01*
X133604819Y-143252380D02*
X133557200Y-143395237D01*
X133557200Y-143395237D02*
X133461961Y-143490475D01*
X133461961Y-143490475D02*
X133366723Y-143538094D01*
X133366723Y-143538094D02*
X133176247Y-143585713D01*
X133176247Y-143585713D02*
X133033390Y-143585713D01*
X133033390Y-143585713D02*
X132842914Y-143538094D01*
X132842914Y-143538094D02*
X132747676Y-143490475D01*
X132747676Y-143490475D02*
X132652438Y-143395237D01*
X132652438Y-143395237D02*
X132604819Y-143252380D01*
X132604819Y-143252380D02*
X132604819Y-143157142D01*
X132604819Y-143157142D02*
X132652438Y-143014285D01*
X132652438Y-143014285D02*
X132700057Y-142966666D01*
X133604819Y-142014285D02*
X133604819Y-142585713D01*
X133604819Y-142299999D02*
X132604819Y-142299999D01*
X132604819Y-142299999D02*
X132747676Y-142395237D01*
X132747676Y-142395237D02*
X132842914Y-142490475D01*
X132842914Y-142490475D02*
X132890533Y-142585713D01*
X128261905Y-140654819D02*
X128261905Y-139654819D01*
X128261905Y-139654819D02*
X128500000Y-139654819D01*
X128500000Y-139654819D02*
X128642857Y-139702438D01*
X128642857Y-139702438D02*
X128738095Y-139797676D01*
X128738095Y-139797676D02*
X128785714Y-139892914D01*
X128785714Y-139892914D02*
X128833333Y-140083390D01*
X128833333Y-140083390D02*
X128833333Y-140226247D01*
X128833333Y-140226247D02*
X128785714Y-140416723D01*
X128785714Y-140416723D02*
X128738095Y-140511961D01*
X128738095Y-140511961D02*
X128642857Y-140607200D01*
X128642857Y-140607200D02*
X128500000Y-140654819D01*
X128500000Y-140654819D02*
X128261905Y-140654819D01*
X129214286Y-139750057D02*
X129261905Y-139702438D01*
X129261905Y-139702438D02*
X129357143Y-139654819D01*
X129357143Y-139654819D02*
X129595238Y-139654819D01*
X129595238Y-139654819D02*
X129690476Y-139702438D01*
X129690476Y-139702438D02*
X129738095Y-139750057D01*
X129738095Y-139750057D02*
X129785714Y-139845295D01*
X129785714Y-139845295D02*
X129785714Y-139940533D01*
X129785714Y-139940533D02*
X129738095Y-140083390D01*
X129738095Y-140083390D02*
X129166667Y-140654819D01*
X129166667Y-140654819D02*
X129785714Y-140654819D01*
X158990476Y-117914295D02*
X159447619Y-117914295D01*
X159219047Y-118714295D02*
X159219047Y-117914295D01*
X159714286Y-118714295D02*
X159714286Y-117914295D01*
X159714286Y-117914295D02*
X160019048Y-117914295D01*
X160019048Y-117914295D02*
X160095238Y-117952390D01*
X160095238Y-117952390D02*
X160133333Y-117990485D01*
X160133333Y-117990485D02*
X160171429Y-118066676D01*
X160171429Y-118066676D02*
X160171429Y-118180961D01*
X160171429Y-118180961D02*
X160133333Y-118257152D01*
X160133333Y-118257152D02*
X160095238Y-118295247D01*
X160095238Y-118295247D02*
X160019048Y-118333342D01*
X160019048Y-118333342D02*
X159714286Y-118333342D01*
X160438095Y-117914295D02*
X160933333Y-117914295D01*
X160933333Y-117914295D02*
X160666667Y-118219057D01*
X160666667Y-118219057D02*
X160780952Y-118219057D01*
X160780952Y-118219057D02*
X160857143Y-118257152D01*
X160857143Y-118257152D02*
X160895238Y-118295247D01*
X160895238Y-118295247D02*
X160933333Y-118371438D01*
X160933333Y-118371438D02*
X160933333Y-118561914D01*
X160933333Y-118561914D02*
X160895238Y-118638104D01*
X160895238Y-118638104D02*
X160857143Y-118676200D01*
X160857143Y-118676200D02*
X160780952Y-118714295D01*
X160780952Y-118714295D02*
X160552381Y-118714295D01*
X160552381Y-118714295D02*
X160476190Y-118676200D01*
X160476190Y-118676200D02*
X160438095Y-118638104D01*
X105806666Y-142234819D02*
X105806666Y-142949104D01*
X105806666Y-142949104D02*
X105759047Y-143091961D01*
X105759047Y-143091961D02*
X105663809Y-143187200D01*
X105663809Y-143187200D02*
X105520952Y-143234819D01*
X105520952Y-143234819D02*
X105425714Y-143234819D01*
X106806666Y-143234819D02*
X106235238Y-143234819D01*
X106520952Y-143234819D02*
X106520952Y-142234819D01*
X106520952Y-142234819D02*
X106425714Y-142377676D01*
X106425714Y-142377676D02*
X106330476Y-142472914D01*
X106330476Y-142472914D02*
X106235238Y-142520533D01*
X156833333Y-115329580D02*
X156785714Y-115377200D01*
X156785714Y-115377200D02*
X156642857Y-115424819D01*
X156642857Y-115424819D02*
X156547619Y-115424819D01*
X156547619Y-115424819D02*
X156404762Y-115377200D01*
X156404762Y-115377200D02*
X156309524Y-115281961D01*
X156309524Y-115281961D02*
X156261905Y-115186723D01*
X156261905Y-115186723D02*
X156214286Y-114996247D01*
X156214286Y-114996247D02*
X156214286Y-114853390D01*
X156214286Y-114853390D02*
X156261905Y-114662914D01*
X156261905Y-114662914D02*
X156309524Y-114567676D01*
X156309524Y-114567676D02*
X156404762Y-114472438D01*
X156404762Y-114472438D02*
X156547619Y-114424819D01*
X156547619Y-114424819D02*
X156642857Y-114424819D01*
X156642857Y-114424819D02*
X156785714Y-114472438D01*
X156785714Y-114472438D02*
X156833333Y-114520057D01*
X157690476Y-114424819D02*
X157500000Y-114424819D01*
X157500000Y-114424819D02*
X157404762Y-114472438D01*
X157404762Y-114472438D02*
X157357143Y-114520057D01*
X157357143Y-114520057D02*
X157261905Y-114662914D01*
X157261905Y-114662914D02*
X157214286Y-114853390D01*
X157214286Y-114853390D02*
X157214286Y-115234342D01*
X157214286Y-115234342D02*
X157261905Y-115329580D01*
X157261905Y-115329580D02*
X157309524Y-115377200D01*
X157309524Y-115377200D02*
X157404762Y-115424819D01*
X157404762Y-115424819D02*
X157595238Y-115424819D01*
X157595238Y-115424819D02*
X157690476Y-115377200D01*
X157690476Y-115377200D02*
X157738095Y-115329580D01*
X157738095Y-115329580D02*
X157785714Y-115234342D01*
X157785714Y-115234342D02*
X157785714Y-114996247D01*
X157785714Y-114996247D02*
X157738095Y-114901009D01*
X157738095Y-114901009D02*
X157690476Y-114853390D01*
X157690476Y-114853390D02*
X157595238Y-114805771D01*
X157595238Y-114805771D02*
X157404762Y-114805771D01*
X157404762Y-114805771D02*
X157309524Y-114853390D01*
X157309524Y-114853390D02*
X157261905Y-114901009D01*
X157261905Y-114901009D02*
X157214286Y-114996247D01*
X114666666Y-141301009D02*
X114333333Y-141301009D01*
X114333333Y-141824819D02*
X114333333Y-140824819D01*
X114333333Y-140824819D02*
X114809523Y-140824819D01*
X115714285Y-141824819D02*
X115142857Y-141824819D01*
X115428571Y-141824819D02*
X115428571Y-140824819D01*
X115428571Y-140824819D02*
X115333333Y-140967676D01*
X115333333Y-140967676D02*
X115238095Y-141062914D01*
X115238095Y-141062914D02*
X115142857Y-141110533D01*
X104333333Y-111524819D02*
X104000000Y-111048628D01*
X103761905Y-111524819D02*
X103761905Y-110524819D01*
X103761905Y-110524819D02*
X104142857Y-110524819D01*
X104142857Y-110524819D02*
X104238095Y-110572438D01*
X104238095Y-110572438D02*
X104285714Y-110620057D01*
X104285714Y-110620057D02*
X104333333Y-110715295D01*
X104333333Y-110715295D02*
X104333333Y-110858152D01*
X104333333Y-110858152D02*
X104285714Y-110953390D01*
X104285714Y-110953390D02*
X104238095Y-111001009D01*
X104238095Y-111001009D02*
X104142857Y-111048628D01*
X104142857Y-111048628D02*
X103761905Y-111048628D01*
X105095238Y-111001009D02*
X105238095Y-111048628D01*
X105238095Y-111048628D02*
X105285714Y-111096247D01*
X105285714Y-111096247D02*
X105333333Y-111191485D01*
X105333333Y-111191485D02*
X105333333Y-111334342D01*
X105333333Y-111334342D02*
X105285714Y-111429580D01*
X105285714Y-111429580D02*
X105238095Y-111477200D01*
X105238095Y-111477200D02*
X105142857Y-111524819D01*
X105142857Y-111524819D02*
X104761905Y-111524819D01*
X104761905Y-111524819D02*
X104761905Y-110524819D01*
X104761905Y-110524819D02*
X105095238Y-110524819D01*
X105095238Y-110524819D02*
X105190476Y-110572438D01*
X105190476Y-110572438D02*
X105238095Y-110620057D01*
X105238095Y-110620057D02*
X105285714Y-110715295D01*
X105285714Y-110715295D02*
X105285714Y-110810533D01*
X105285714Y-110810533D02*
X105238095Y-110905771D01*
X105238095Y-110905771D02*
X105190476Y-110953390D01*
X105190476Y-110953390D02*
X105095238Y-111001009D01*
X105095238Y-111001009D02*
X104761905Y-111001009D01*
X106285714Y-111524819D02*
X105714286Y-111524819D01*
X106000000Y-111524819D02*
X106000000Y-110524819D01*
X106000000Y-110524819D02*
X105904762Y-110667676D01*
X105904762Y-110667676D02*
X105809524Y-110762914D01*
X105809524Y-110762914D02*
X105714286Y-110810533D01*
D10*
%TO.C,L1*%
X108890000Y-101890000D02*
X113110000Y-101890000D01*
X113110000Y-106110000D02*
X108890000Y-106110000D01*
%TO.C,TP2*%
X120950000Y-106000000D02*
G75*
G02*
X119050000Y-106000000I-950000J0D01*
G01*
X119050000Y-106000000D02*
G75*
G02*
X120950000Y-106000000I950000J0D01*
G01*
%TO.C,C2*%
X137090000Y-143511252D02*
X137090000Y-142088748D01*
X138910000Y-143511252D02*
X138910000Y-142088748D01*
%TO.C,D3*%
X113550000Y-108510000D02*
X113550000Y-103000000D01*
X113550000Y-108510000D02*
X116850000Y-108510000D01*
X116850000Y-108510000D02*
X116850000Y-103000000D01*
%TO.C,U1*%
X154940000Y-109440000D02*
X159060000Y-109440000D01*
X154940000Y-109535000D02*
X154940000Y-109440000D01*
X154940000Y-114560000D02*
X154940000Y-114465000D01*
X159060000Y-109440000D02*
X159060000Y-109535000D01*
X159060000Y-114465000D02*
X159060000Y-114560000D01*
X159060000Y-114560000D02*
X154940000Y-114560000D01*
X154400000Y-109530000D02*
X154160000Y-109200000D01*
X154640000Y-109200000D01*
X154400000Y-109530000D01*
G36*
X154400000Y-109530000D02*
G01*
X154160000Y-109200000D01*
X154640000Y-109200000D01*
X154400000Y-109530000D01*
G37*
%TO.C,TP1*%
X141950000Y-141000000D02*
G75*
G02*
X140050000Y-141000000I-950000J0D01*
G01*
X140050000Y-141000000D02*
G75*
G02*
X141950000Y-141000000I950000J0D01*
G01*
%TO.C,J7*%
X143130000Y-104670000D02*
X143130000Y-125110000D01*
X143130000Y-104670000D02*
X145730000Y-104670000D01*
X143130000Y-125110000D02*
X148330000Y-125110000D01*
X145730000Y-104670000D02*
X145730000Y-107270000D01*
X145730000Y-107270000D02*
X148330000Y-107270000D01*
X147000000Y-104670000D02*
X148330000Y-104670000D01*
X148330000Y-104670000D02*
X148330000Y-106000000D01*
X148330000Y-107270000D02*
X148330000Y-125110000D01*
%TO.C,C4*%
X114290000Y-111711252D02*
X114290000Y-110288748D01*
X116110000Y-111711252D02*
X116110000Y-110288748D01*
%TO.C,C3*%
X107290000Y-107940580D02*
X107290000Y-107659420D01*
X108310000Y-107940580D02*
X108310000Y-107659420D01*
%TO.C,C5*%
X105311252Y-109490000D02*
X103888748Y-109490000D01*
X105311252Y-111310000D02*
X103888748Y-111310000D01*
%TO.C,U2*%
X110090000Y-107440000D02*
X111910000Y-107440000D01*
X110090000Y-107490000D02*
X110090000Y-107440000D01*
X110090000Y-110560000D02*
X110090000Y-110510000D01*
X111910000Y-107440000D02*
X111910000Y-107490000D01*
X111910000Y-110510000D02*
X111910000Y-110560000D01*
X111910000Y-110560000D02*
X110090000Y-110560000D01*
X109550000Y-107490000D02*
X109310000Y-107160000D01*
X109790000Y-107160000D01*
X109550000Y-107490000D01*
G36*
X109550000Y-107490000D02*
G01*
X109310000Y-107160000D01*
X109790000Y-107160000D01*
X109550000Y-107490000D01*
G37*
%TO.C,TP4*%
X164950000Y-120000000D02*
G75*
G02*
X163050000Y-120000000I-950000J0D01*
G01*
X163050000Y-120000000D02*
G75*
G02*
X164950000Y-120000000I950000J0D01*
G01*
%TO.C,RB2*%
X109362742Y-111877500D02*
X109837258Y-111877500D01*
X109362742Y-112922500D02*
X109837258Y-112922500D01*
%TO.C,J8*%
X158620000Y-144080000D02*
X179160000Y-144080000D01*
X158620000Y-146730000D02*
X158620000Y-144080000D01*
X158620000Y-149380000D02*
X158620000Y-148000000D01*
X160000000Y-149380000D02*
X158620000Y-149380000D01*
X161270000Y-146730000D02*
X158620000Y-146730000D01*
X161270000Y-149380000D02*
X161270000Y-146730000D01*
X161270000Y-149380000D02*
X179160000Y-149380000D01*
X179160000Y-149380000D02*
X179160000Y-144080000D01*
%TO.C,D1*%
X117990000Y-141550000D02*
X117990000Y-144850000D01*
X117990000Y-141550000D02*
X123500000Y-141550000D01*
X117990000Y-144850000D02*
X123500000Y-144850000D01*
%TO.C,PROTO1*%
D12*
X102500000Y-113700000D02*
X133440000Y-113700000D01*
X133440000Y-139560000D01*
X102500000Y-139560000D01*
X102500000Y-113700000D01*
D10*
%TO.C,C1*%
X134090000Y-143511252D02*
X134090000Y-142088748D01*
X135910000Y-143511252D02*
X135910000Y-142088748D01*
%TO.C,D2*%
X125340000Y-141050000D02*
X125340000Y-145350000D01*
X125340000Y-141050000D02*
X131150000Y-141050000D01*
X125340000Y-145350000D02*
X131150000Y-145350000D01*
%TO.C,TP3*%
X160950000Y-120000000D02*
G75*
G02*
X159050000Y-120000000I-950000J0D01*
G01*
X159050000Y-120000000D02*
G75*
G02*
X160950000Y-120000000I950000J0D01*
G01*
%TO.C,J1*%
X100940000Y-143780000D02*
X111340000Y-143780000D01*
X100940000Y-145900000D02*
X111340000Y-145900000D01*
X100940000Y-152100000D02*
X111340000Y-152100000D01*
X100940000Y-154600000D02*
X111340000Y-154600000D01*
X100940000Y-155220000D02*
X100940000Y-143780000D01*
X103300000Y-155220000D02*
X100940000Y-155220000D01*
X111340000Y-143780000D02*
X111340000Y-155220000D01*
X111340000Y-155220000D02*
X103900000Y-155220000D01*
X104040000Y-155830000D02*
X103160000Y-155830000D01*
X103600000Y-155220000D01*
X104040000Y-155830000D01*
G36*
X104040000Y-155830000D02*
G01*
X103160000Y-155830000D01*
X103600000Y-155220000D01*
X104040000Y-155830000D01*
G37*
%TO.C,C6*%
X156859420Y-115890000D02*
X157140580Y-115890000D01*
X156859420Y-116910000D02*
X157140580Y-116910000D01*
%TO.C,F1*%
X114397936Y-142290000D02*
X115602064Y-142290000D01*
X114397936Y-144110000D02*
X115602064Y-144110000D01*
%TO.C,RB1*%
X104762742Y-111977500D02*
X105237258Y-111977500D01*
X104762742Y-113022500D02*
X105237258Y-113022500D01*
%TD*%
%LPC*%
D13*
%TO.C,L1*%
X109500000Y-104000000D03*
X112500000Y-104000000D03*
%TD*%
D14*
%TO.C,TP2*%
X120000000Y-106000000D03*
%TD*%
D15*
%TO.C,C2*%
X138000000Y-144275000D03*
X138000000Y-141325000D03*
%TD*%
D16*
%TO.C,D3*%
X115200000Y-107000000D03*
X115200000Y-103000000D03*
%TD*%
D17*
%TO.C,U1*%
X154525000Y-110095000D03*
X154525000Y-111365000D03*
X154525000Y-112635000D03*
X154525000Y-113905000D03*
X159475000Y-113905000D03*
X159475000Y-112635000D03*
X159475000Y-111365000D03*
X159475000Y-110095000D03*
%TD*%
D14*
%TO.C,TP1*%
X141000000Y-141000000D03*
%TD*%
D18*
%TO.C,H3*%
X184500000Y-152500000D03*
%TD*%
D19*
%TO.C,J7*%
X147000000Y-106000000D03*
D20*
X144460000Y-106000000D03*
X147000000Y-108540000D03*
X144460000Y-108540000D03*
X147000000Y-111080000D03*
X144460000Y-111080000D03*
X147000000Y-113620000D03*
X144460000Y-113620000D03*
X147000000Y-116160000D03*
X144460000Y-116160000D03*
X147000000Y-118700000D03*
X144460000Y-118700000D03*
X147000000Y-121240000D03*
X144460000Y-121240000D03*
X147000000Y-123780000D03*
X144460000Y-123780000D03*
%TD*%
D15*
%TO.C,C4*%
X115200000Y-112475000D03*
X115200000Y-109525000D03*
%TD*%
D21*
%TO.C,C3*%
X107800000Y-108575000D03*
X107800000Y-107025000D03*
%TD*%
D22*
%TO.C,C5*%
X106075000Y-110400000D03*
X103125000Y-110400000D03*
%TD*%
D23*
%TO.C,U2*%
X109862500Y-108050000D03*
X109862500Y-109000000D03*
X109862500Y-109950000D03*
X112137500Y-109950000D03*
X112137500Y-109000000D03*
X112137500Y-108050000D03*
%TD*%
D14*
%TO.C,TP4*%
X164000000Y-120000000D03*
%TD*%
D24*
%TO.C,RB2*%
X108775000Y-112400000D03*
X110425000Y-112400000D03*
%TD*%
D19*
%TO.C,J8*%
X160000000Y-148000000D03*
D20*
X160000000Y-145460000D03*
X162540000Y-148000000D03*
X162540000Y-145460000D03*
X165080000Y-148000000D03*
X165080000Y-145460000D03*
X167620000Y-148000000D03*
X167620000Y-145460000D03*
X170160000Y-148000000D03*
X170160000Y-145460000D03*
X172700000Y-148000000D03*
X172700000Y-145460000D03*
X175240000Y-148000000D03*
X175240000Y-145460000D03*
X177780000Y-148000000D03*
X177780000Y-145460000D03*
%TD*%
D25*
%TO.C,D1*%
X119500000Y-143200000D03*
X123500000Y-143200000D03*
%TD*%
D18*
%TO.C,H2*%
X184500000Y-139500000D03*
%TD*%
D20*
%TO.C,PROTO1*%
X104000000Y-115200000D03*
X104000000Y-117740000D03*
X104000000Y-120280000D03*
X104000000Y-122820000D03*
X104000000Y-125360000D03*
X104000000Y-127900000D03*
X104000000Y-130440000D03*
X104000000Y-132980000D03*
X104000000Y-135520000D03*
X104000000Y-138060000D03*
X106540000Y-115200000D03*
X106540000Y-117740000D03*
X106540000Y-120280000D03*
X106540000Y-122820000D03*
X106540000Y-125360000D03*
X106540000Y-127900000D03*
X106540000Y-130440000D03*
X106540000Y-132980000D03*
X106540000Y-135520000D03*
X106540000Y-138060000D03*
X109080000Y-115200000D03*
X109080000Y-117740000D03*
X109080000Y-120280000D03*
X109080000Y-122820000D03*
X109080000Y-125360000D03*
X109080000Y-127900000D03*
X109080000Y-130440000D03*
X109080000Y-132980000D03*
X109080000Y-135520000D03*
X109080000Y-138060000D03*
X111620000Y-115200000D03*
X111620000Y-117740000D03*
X111620000Y-120280000D03*
X111620000Y-122820000D03*
X111620000Y-125360000D03*
X111620000Y-127900000D03*
X111620000Y-130440000D03*
X111620000Y-132980000D03*
X111620000Y-135520000D03*
X111620000Y-138060000D03*
X114160000Y-115200000D03*
X114160000Y-117740000D03*
X114160000Y-120280000D03*
X114160000Y-122820000D03*
X114160000Y-125360000D03*
X114160000Y-127900000D03*
X114160000Y-130440000D03*
X114160000Y-132980000D03*
X114160000Y-135520000D03*
X114160000Y-138060000D03*
X116700000Y-115200000D03*
X116700000Y-117740000D03*
X116700000Y-120280000D03*
X116700000Y-122820000D03*
X116700000Y-125360000D03*
X116700000Y-127900000D03*
X116700000Y-130440000D03*
X116700000Y-132980000D03*
X116700000Y-135520000D03*
X116700000Y-138060000D03*
X119240000Y-115200000D03*
X119240000Y-117740000D03*
X119240000Y-120280000D03*
X119240000Y-122820000D03*
X119240000Y-125360000D03*
X119240000Y-127900000D03*
X119240000Y-130440000D03*
X119240000Y-132980000D03*
X119240000Y-135520000D03*
X119240000Y-138060000D03*
X121780000Y-115200000D03*
X121780000Y-117740000D03*
X121780000Y-120280000D03*
X121780000Y-122820000D03*
X121780000Y-125360000D03*
X121780000Y-127900000D03*
X121780000Y-130440000D03*
X121780000Y-132980000D03*
X121780000Y-135520000D03*
X121780000Y-138060000D03*
X124320000Y-115200000D03*
X124320000Y-117740000D03*
X124320000Y-120280000D03*
X124320000Y-122820000D03*
X124320000Y-125360000D03*
X124320000Y-127900000D03*
X124320000Y-130440000D03*
X124320000Y-132980000D03*
X124320000Y-135520000D03*
X124320000Y-138060000D03*
X126860000Y-115200000D03*
X126860000Y-117740000D03*
X126860000Y-120280000D03*
X126860000Y-122820000D03*
X126860000Y-125360000D03*
X126860000Y-127900000D03*
X126860000Y-130440000D03*
X126860000Y-132980000D03*
X126860000Y-135520000D03*
X126860000Y-138060000D03*
X129400000Y-115200000D03*
X129400000Y-117740000D03*
X129400000Y-120280000D03*
X129400000Y-122820000D03*
X129400000Y-125360000D03*
X129400000Y-127900000D03*
X129400000Y-130440000D03*
X129400000Y-132980000D03*
X129400000Y-135520000D03*
X129400000Y-138060000D03*
X131940000Y-115200000D03*
X131940000Y-117740000D03*
X131940000Y-120280000D03*
X131940000Y-122820000D03*
X131940000Y-125360000D03*
X131940000Y-127900000D03*
X131940000Y-130440000D03*
X131940000Y-132980000D03*
X131940000Y-135520000D03*
X131940000Y-138060000D03*
%TD*%
D15*
%TO.C,C1*%
X135000000Y-144275000D03*
X135000000Y-141325000D03*
%TD*%
D26*
%TO.C,D2*%
X126850000Y-143200000D03*
X131150000Y-143200000D03*
%TD*%
D14*
%TO.C,TP3*%
X160000000Y-120000000D03*
%TD*%
D27*
%TO.C,J1*%
X103600000Y-149800000D03*
D28*
X108680000Y-149800000D03*
%TD*%
D29*
%TO.C,C6*%
X156225000Y-116400000D03*
X157775000Y-116400000D03*
%TD*%
D30*
%TO.C,F1*%
X113600000Y-143200000D03*
X116400000Y-143200000D03*
%TD*%
D18*
%TO.C,H1*%
X103500000Y-103500000D03*
%TD*%
D24*
%TO.C,RB1*%
X104175000Y-112500000D03*
X105825000Y-112500000D03*
%TD*%
%LPD*%
M02*
