%TF.GenerationSoftware,KiCad,Pcbnew,9.0.9*%
%TF.CreationDate,2026-10-05T06:27:06+00:00*%
%TF.ProjectId,AP1_Plantilla,4150315f-506c-4616-9e74-696c6c612e6b,rev?*%
%TF.SameCoordinates,Original*%
%TF.FileFunction,Legend,Bot*%
%TF.FilePolarity,Positive*%
%FSLAX46Y46*%
G04 Gerber Fmt 4.6, Leading zero omitted, Abs format (unit mm)*
G04 Created by KiCad (PCBNEW 9.0.9) date 2026-10-05 06:27:06*
%MOMM*%
%LPD*%
G01*
G04 APERTURE LIST*
G04 Aperture macros list*
%AMRoundRect*
0 Rectangle with rounded corners*
0 $1 Rounding radius*
0 $2 $3 $4 $5 $6 $7 $8 $9 X,Y pos of 4 corners*
0 Add a 4 corners polygon primitive as box body*
4,1,4,$2,$3,$4,$5,$6,$7,$8,$9,$2,$3,0*
0 Add four circle primitives for the rounded corners*
1,1,$1+$1,$2,$3*
1,1,$1+$1,$4,$5*
1,1,$1+$1,$6,$7*
1,1,$1+$1,$8,$9*
0 Add four rect primitives between the rounded corners*
20,1,$1+$1,$2,$3,$4,$5,0*
20,1,$1+$1,$4,$5,$6,$7,0*
20,1,$1+$1,$6,$7,$8,$9,0*
20,1,$1+$1,$8,$9,$2,$3,0*%
G04 Aperture macros list end*
%ADD10C,0.150000*%
%ADD11C,3.200000*%
%ADD12R,1.700000X1.700000*%
%ADD13C,1.700000*%
%ADD14RoundRect,0.250000X-1.050000X-1.050000X1.050000X-1.050000X1.050000X1.050000X-1.050000X1.050000X0*%
%ADD15C,2.600000*%
G04 APERTURE END LIST*
D10*
X126071427Y-127454819D02*
X126071427Y-126454819D01*
X126071427Y-126454819D02*
X125690475Y-126454819D01*
X125690475Y-126454819D02*
X125595237Y-126502438D01*
X125595237Y-126502438D02*
X125547618Y-126550057D01*
X125547618Y-126550057D02*
X125499999Y-126645295D01*
X125499999Y-126645295D02*
X125499999Y-126788152D01*
X125499999Y-126788152D02*
X125547618Y-126883390D01*
X125547618Y-126883390D02*
X125595237Y-126931009D01*
X125595237Y-126931009D02*
X125690475Y-126978628D01*
X125690475Y-126978628D02*
X126071427Y-126978628D01*
X124499999Y-127454819D02*
X124833332Y-126978628D01*
X125071427Y-127454819D02*
X125071427Y-126454819D01*
X125071427Y-126454819D02*
X124690475Y-126454819D01*
X124690475Y-126454819D02*
X124595237Y-126502438D01*
X124595237Y-126502438D02*
X124547618Y-126550057D01*
X124547618Y-126550057D02*
X124499999Y-126645295D01*
X124499999Y-126645295D02*
X124499999Y-126788152D01*
X124499999Y-126788152D02*
X124547618Y-126883390D01*
X124547618Y-126883390D02*
X124595237Y-126931009D01*
X124595237Y-126931009D02*
X124690475Y-126978628D01*
X124690475Y-126978628D02*
X125071427Y-126978628D01*
X123880951Y-126454819D02*
X123690475Y-126454819D01*
X123690475Y-126454819D02*
X123595237Y-126502438D01*
X123595237Y-126502438D02*
X123499999Y-126597676D01*
X123499999Y-126597676D02*
X123452380Y-126788152D01*
X123452380Y-126788152D02*
X123452380Y-127121485D01*
X123452380Y-127121485D02*
X123499999Y-127311961D01*
X123499999Y-127311961D02*
X123595237Y-127407200D01*
X123595237Y-127407200D02*
X123690475Y-127454819D01*
X123690475Y-127454819D02*
X123880951Y-127454819D01*
X123880951Y-127454819D02*
X123976189Y-127407200D01*
X123976189Y-127407200D02*
X124071427Y-127311961D01*
X124071427Y-127311961D02*
X124119046Y-127121485D01*
X124119046Y-127121485D02*
X124119046Y-126788152D01*
X124119046Y-126788152D02*
X124071427Y-126597676D01*
X124071427Y-126597676D02*
X123976189Y-126502438D01*
X123976189Y-126502438D02*
X123880951Y-126454819D01*
X123166665Y-126454819D02*
X122595237Y-126454819D01*
X122880951Y-127454819D02*
X122880951Y-126454819D01*
X122071427Y-126454819D02*
X121880951Y-126454819D01*
X121880951Y-126454819D02*
X121785713Y-126502438D01*
X121785713Y-126502438D02*
X121690475Y-126597676D01*
X121690475Y-126597676D02*
X121642856Y-126788152D01*
X121642856Y-126788152D02*
X121642856Y-127121485D01*
X121642856Y-127121485D02*
X121690475Y-127311961D01*
X121690475Y-127311961D02*
X121785713Y-127407200D01*
X121785713Y-127407200D02*
X121880951Y-127454819D01*
X121880951Y-127454819D02*
X122071427Y-127454819D01*
X122071427Y-127454819D02*
X122166665Y-127407200D01*
X122166665Y-127407200D02*
X122261903Y-127311961D01*
X122261903Y-127311961D02*
X122309522Y-127121485D01*
X122309522Y-127121485D02*
X122309522Y-126788152D01*
X122309522Y-126788152D02*
X122261903Y-126597676D01*
X122261903Y-126597676D02*
X122166665Y-126502438D01*
X122166665Y-126502438D02*
X122071427Y-126454819D01*
X121357141Y-126454819D02*
X120785713Y-126454819D01*
X121071427Y-127454819D02*
X121071427Y-126454819D01*
X120452379Y-127454819D02*
X120452379Y-126454819D01*
X119976189Y-127454819D02*
X119976189Y-126454819D01*
X119976189Y-126454819D02*
X119595237Y-126454819D01*
X119595237Y-126454819D02*
X119499999Y-126502438D01*
X119499999Y-126502438D02*
X119452380Y-126550057D01*
X119452380Y-126550057D02*
X119404761Y-126645295D01*
X119404761Y-126645295D02*
X119404761Y-126788152D01*
X119404761Y-126788152D02*
X119452380Y-126883390D01*
X119452380Y-126883390D02*
X119499999Y-126931009D01*
X119499999Y-126931009D02*
X119595237Y-126978628D01*
X119595237Y-126978628D02*
X119976189Y-126978628D01*
X118785713Y-126454819D02*
X118595237Y-126454819D01*
X118595237Y-126454819D02*
X118499999Y-126502438D01*
X118499999Y-126502438D02*
X118404761Y-126597676D01*
X118404761Y-126597676D02*
X118357142Y-126788152D01*
X118357142Y-126788152D02*
X118357142Y-127121485D01*
X118357142Y-127121485D02*
X118404761Y-127311961D01*
X118404761Y-127311961D02*
X118499999Y-127407200D01*
X118499999Y-127407200D02*
X118595237Y-127454819D01*
X118595237Y-127454819D02*
X118785713Y-127454819D01*
X118785713Y-127454819D02*
X118880951Y-127407200D01*
X118880951Y-127407200D02*
X118976189Y-127311961D01*
X118976189Y-127311961D02*
X119023808Y-127121485D01*
X119023808Y-127121485D02*
X119023808Y-126788152D01*
X119023808Y-126788152D02*
X118976189Y-126597676D01*
X118976189Y-126597676D02*
X118880951Y-126502438D01*
X118880951Y-126502438D02*
X118785713Y-126454819D01*
X117976189Y-127407200D02*
X117833332Y-127454819D01*
X117833332Y-127454819D02*
X117595237Y-127454819D01*
X117595237Y-127454819D02*
X117499999Y-127407200D01*
X117499999Y-127407200D02*
X117452380Y-127359580D01*
X117452380Y-127359580D02*
X117404761Y-127264342D01*
X117404761Y-127264342D02*
X117404761Y-127169104D01*
X117404761Y-127169104D02*
X117452380Y-127073866D01*
X117452380Y-127073866D02*
X117499999Y-127026247D01*
X117499999Y-127026247D02*
X117595237Y-126978628D01*
X117595237Y-126978628D02*
X117785713Y-126931009D01*
X117785713Y-126931009D02*
X117880951Y-126883390D01*
X117880951Y-126883390D02*
X117928570Y-126835771D01*
X117928570Y-126835771D02*
X117976189Y-126740533D01*
X117976189Y-126740533D02*
X117976189Y-126645295D01*
X117976189Y-126645295D02*
X117928570Y-126550057D01*
X117928570Y-126550057D02*
X117880951Y-126502438D01*
X117880951Y-126502438D02*
X117785713Y-126454819D01*
X117785713Y-126454819D02*
X117547618Y-126454819D01*
X117547618Y-126454819D02*
X117404761Y-126502438D01*
X116261903Y-126550057D02*
X116214284Y-126502438D01*
X116214284Y-126502438D02*
X116119046Y-126454819D01*
X116119046Y-126454819D02*
X115880951Y-126454819D01*
X115880951Y-126454819D02*
X115785713Y-126502438D01*
X115785713Y-126502438D02*
X115738094Y-126550057D01*
X115738094Y-126550057D02*
X115690475Y-126645295D01*
X115690475Y-126645295D02*
X115690475Y-126740533D01*
X115690475Y-126740533D02*
X115738094Y-126883390D01*
X115738094Y-126883390D02*
X116309522Y-127454819D01*
X116309522Y-127454819D02*
X115690475Y-127454819D01*
X115261903Y-127359580D02*
X115214284Y-127407200D01*
X115214284Y-127407200D02*
X115261903Y-127454819D01*
X115261903Y-127454819D02*
X115309522Y-127407200D01*
X115309522Y-127407200D02*
X115261903Y-127359580D01*
X115261903Y-127359580D02*
X115261903Y-127454819D01*
X114309523Y-126454819D02*
X114785713Y-126454819D01*
X114785713Y-126454819D02*
X114833332Y-126931009D01*
X114833332Y-126931009D02*
X114785713Y-126883390D01*
X114785713Y-126883390D02*
X114690475Y-126835771D01*
X114690475Y-126835771D02*
X114452380Y-126835771D01*
X114452380Y-126835771D02*
X114357142Y-126883390D01*
X114357142Y-126883390D02*
X114309523Y-126931009D01*
X114309523Y-126931009D02*
X114261904Y-127026247D01*
X114261904Y-127026247D02*
X114261904Y-127264342D01*
X114261904Y-127264342D02*
X114309523Y-127359580D01*
X114309523Y-127359580D02*
X114357142Y-127407200D01*
X114357142Y-127407200D02*
X114452380Y-127454819D01*
X114452380Y-127454819D02*
X114690475Y-127454819D01*
X114690475Y-127454819D02*
X114785713Y-127407200D01*
X114785713Y-127407200D02*
X114833332Y-127359580D01*
X113404761Y-126788152D02*
X113404761Y-127454819D01*
X113642856Y-126407200D02*
X113880951Y-127121485D01*
X113880951Y-127121485D02*
X113261904Y-127121485D01*
X112119046Y-127454819D02*
X112119046Y-126788152D01*
X112119046Y-126883390D02*
X112071427Y-126835771D01*
X112071427Y-126835771D02*
X111976189Y-126788152D01*
X111976189Y-126788152D02*
X111833332Y-126788152D01*
X111833332Y-126788152D02*
X111738094Y-126835771D01*
X111738094Y-126835771D02*
X111690475Y-126931009D01*
X111690475Y-126931009D02*
X111690475Y-127454819D01*
X111690475Y-126931009D02*
X111642856Y-126835771D01*
X111642856Y-126835771D02*
X111547618Y-126788152D01*
X111547618Y-126788152D02*
X111404761Y-126788152D01*
X111404761Y-126788152D02*
X111309522Y-126835771D01*
X111309522Y-126835771D02*
X111261903Y-126931009D01*
X111261903Y-126931009D02*
X111261903Y-127454819D01*
X110785713Y-127454819D02*
X110785713Y-126788152D01*
X110785713Y-126883390D02*
X110738094Y-126835771D01*
X110738094Y-126835771D02*
X110642856Y-126788152D01*
X110642856Y-126788152D02*
X110499999Y-126788152D01*
X110499999Y-126788152D02*
X110404761Y-126835771D01*
X110404761Y-126835771D02*
X110357142Y-126931009D01*
X110357142Y-126931009D02*
X110357142Y-127454819D01*
X110357142Y-126931009D02*
X110309523Y-126835771D01*
X110309523Y-126835771D02*
X110214285Y-126788152D01*
X110214285Y-126788152D02*
X110071428Y-126788152D01*
X110071428Y-126788152D02*
X109976189Y-126835771D01*
X109976189Y-126835771D02*
X109928570Y-126931009D01*
X109928570Y-126931009D02*
X109928570Y-127454819D01*
X157428573Y-155254819D02*
X157904763Y-155254819D01*
X157904763Y-155254819D02*
X157904763Y-154254819D01*
X156714287Y-155207200D02*
X156809525Y-155254819D01*
X156809525Y-155254819D02*
X157000001Y-155254819D01*
X157000001Y-155254819D02*
X157095239Y-155207200D01*
X157095239Y-155207200D02*
X157142858Y-155111961D01*
X157142858Y-155111961D02*
X157142858Y-154731009D01*
X157142858Y-154731009D02*
X157095239Y-154635771D01*
X157095239Y-154635771D02*
X157000001Y-154588152D01*
X157000001Y-154588152D02*
X156809525Y-154588152D01*
X156809525Y-154588152D02*
X156714287Y-154635771D01*
X156714287Y-154635771D02*
X156666668Y-154731009D01*
X156666668Y-154731009D02*
X156666668Y-154826247D01*
X156666668Y-154826247D02*
X157142858Y-154921485D01*
X156380953Y-154588152D02*
X156000001Y-154588152D01*
X156238096Y-154254819D02*
X156238096Y-155111961D01*
X156238096Y-155111961D02*
X156190477Y-155207200D01*
X156190477Y-155207200D02*
X156095239Y-155254819D01*
X156095239Y-155254819D02*
X156000001Y-155254819D01*
X155666667Y-155254819D02*
X155666667Y-154588152D01*
X155666667Y-154778628D02*
X155619048Y-154683390D01*
X155619048Y-154683390D02*
X155571429Y-154635771D01*
X155571429Y-154635771D02*
X155476191Y-154588152D01*
X155476191Y-154588152D02*
X155380953Y-154588152D01*
X154666667Y-155207200D02*
X154761905Y-155254819D01*
X154761905Y-155254819D02*
X154952381Y-155254819D01*
X154952381Y-155254819D02*
X155047619Y-155207200D01*
X155047619Y-155207200D02*
X155095238Y-155111961D01*
X155095238Y-155111961D02*
X155095238Y-154731009D01*
X155095238Y-154731009D02*
X155047619Y-154635771D01*
X155047619Y-154635771D02*
X154952381Y-154588152D01*
X154952381Y-154588152D02*
X154761905Y-154588152D01*
X154761905Y-154588152D02*
X154666667Y-154635771D01*
X154666667Y-154635771D02*
X154619048Y-154731009D01*
X154619048Y-154731009D02*
X154619048Y-154826247D01*
X154619048Y-154826247D02*
X155095238Y-154921485D01*
X154190476Y-155254819D02*
X154190476Y-154588152D01*
X154190476Y-154778628D02*
X154142857Y-154683390D01*
X154142857Y-154683390D02*
X154095238Y-154635771D01*
X154095238Y-154635771D02*
X154000000Y-154588152D01*
X154000000Y-154588152D02*
X153904762Y-154588152D01*
X153428571Y-155254819D02*
X153523809Y-155207200D01*
X153523809Y-155207200D02*
X153571428Y-155159580D01*
X153571428Y-155159580D02*
X153619047Y-155064342D01*
X153619047Y-155064342D02*
X153619047Y-154778628D01*
X153619047Y-154778628D02*
X153571428Y-154683390D01*
X153571428Y-154683390D02*
X153523809Y-154635771D01*
X153523809Y-154635771D02*
X153428571Y-154588152D01*
X153428571Y-154588152D02*
X153285714Y-154588152D01*
X153285714Y-154588152D02*
X153190476Y-154635771D01*
X153190476Y-154635771D02*
X153142857Y-154683390D01*
X153142857Y-154683390D02*
X153095238Y-154778628D01*
X153095238Y-154778628D02*
X153095238Y-155064342D01*
X153095238Y-155064342D02*
X153142857Y-155159580D01*
X153142857Y-155159580D02*
X153190476Y-155207200D01*
X153190476Y-155207200D02*
X153285714Y-155254819D01*
X153285714Y-155254819D02*
X153428571Y-155254819D01*
X152190476Y-155254819D02*
X152666666Y-155254819D01*
X152666666Y-155254819D02*
X152666666Y-154254819D01*
X151428571Y-155254819D02*
X151428571Y-154731009D01*
X151428571Y-154731009D02*
X151476190Y-154635771D01*
X151476190Y-154635771D02*
X151571428Y-154588152D01*
X151571428Y-154588152D02*
X151761904Y-154588152D01*
X151761904Y-154588152D02*
X151857142Y-154635771D01*
X151428571Y-155207200D02*
X151523809Y-155254819D01*
X151523809Y-155254819D02*
X151761904Y-155254819D01*
X151761904Y-155254819D02*
X151857142Y-155207200D01*
X151857142Y-155207200D02*
X151904761Y-155111961D01*
X151904761Y-155111961D02*
X151904761Y-155016723D01*
X151904761Y-155016723D02*
X151857142Y-154921485D01*
X151857142Y-154921485D02*
X151761904Y-154873866D01*
X151761904Y-154873866D02*
X151523809Y-154873866D01*
X151523809Y-154873866D02*
X151428571Y-154826247D01*
X150952380Y-155254819D02*
X150952380Y-154254819D01*
X150952380Y-154635771D02*
X150857142Y-154588152D01*
X150857142Y-154588152D02*
X150666666Y-154588152D01*
X150666666Y-154588152D02*
X150571428Y-154635771D01*
X150571428Y-154635771D02*
X150523809Y-154683390D01*
X150523809Y-154683390D02*
X150476190Y-154778628D01*
X150476190Y-154778628D02*
X150476190Y-155064342D01*
X150476190Y-155064342D02*
X150523809Y-155159580D01*
X150523809Y-155159580D02*
X150571428Y-155207200D01*
X150571428Y-155207200D02*
X150666666Y-155254819D01*
X150666666Y-155254819D02*
X150857142Y-155254819D01*
X150857142Y-155254819D02*
X150952380Y-155207200D01*
X149333332Y-154969104D02*
X148857142Y-154969104D01*
X149428570Y-155254819D02*
X149095237Y-154254819D01*
X149095237Y-154254819D02*
X148761904Y-155254819D01*
X148428570Y-155254819D02*
X148428570Y-154254819D01*
X148428570Y-154254819D02*
X148047618Y-154254819D01*
X148047618Y-154254819D02*
X147952380Y-154302438D01*
X147952380Y-154302438D02*
X147904761Y-154350057D01*
X147904761Y-154350057D02*
X147857142Y-154445295D01*
X147857142Y-154445295D02*
X147857142Y-154588152D01*
X147857142Y-154588152D02*
X147904761Y-154683390D01*
X147904761Y-154683390D02*
X147952380Y-154731009D01*
X147952380Y-154731009D02*
X148047618Y-154778628D01*
X148047618Y-154778628D02*
X148428570Y-154778628D01*
X147428570Y-154873866D02*
X146666666Y-154873866D01*
X145666666Y-155254819D02*
X146238094Y-155254819D01*
X145952380Y-155254819D02*
X145952380Y-154254819D01*
X145952380Y-154254819D02*
X146047618Y-154397676D01*
X146047618Y-154397676D02*
X146142856Y-154492914D01*
X146142856Y-154492914D02*
X146238094Y-154540533D01*
X144476189Y-155254819D02*
X144476189Y-154254819D01*
X144476189Y-154254819D02*
X144095237Y-154254819D01*
X144095237Y-154254819D02*
X143999999Y-154302438D01*
X143999999Y-154302438D02*
X143952380Y-154350057D01*
X143952380Y-154350057D02*
X143904761Y-154445295D01*
X143904761Y-154445295D02*
X143904761Y-154588152D01*
X143904761Y-154588152D02*
X143952380Y-154683390D01*
X143952380Y-154683390D02*
X143999999Y-154731009D01*
X143999999Y-154731009D02*
X144095237Y-154778628D01*
X144095237Y-154778628D02*
X144476189Y-154778628D01*
X142999999Y-155254819D02*
X143476189Y-155254819D01*
X143476189Y-155254819D02*
X143476189Y-154254819D01*
X142714284Y-154969104D02*
X142238094Y-154969104D01*
X142809522Y-155254819D02*
X142476189Y-154254819D01*
X142476189Y-154254819D02*
X142142856Y-155254819D01*
X141809522Y-155254819D02*
X141809522Y-154254819D01*
X141809522Y-154254819D02*
X141238094Y-155254819D01*
X141238094Y-155254819D02*
X141238094Y-154254819D01*
X140904760Y-154254819D02*
X140333332Y-154254819D01*
X140619046Y-155254819D02*
X140619046Y-154254819D01*
X139999998Y-155254819D02*
X139999998Y-154254819D01*
X139047618Y-155254819D02*
X139523808Y-155254819D01*
X139523808Y-155254819D02*
X139523808Y-154254819D01*
X138238094Y-155254819D02*
X138714284Y-155254819D01*
X138714284Y-155254819D02*
X138714284Y-154254819D01*
X137952379Y-154969104D02*
X137476189Y-154969104D01*
X138047617Y-155254819D02*
X137714284Y-154254819D01*
X137714284Y-154254819D02*
X137380951Y-155254819D01*
X134999998Y-155254819D02*
X135571426Y-155254819D01*
X135285712Y-155254819D02*
X135285712Y-154254819D01*
X135285712Y-154254819D02*
X135380950Y-154397676D01*
X135380950Y-154397676D02*
X135476188Y-154492914D01*
X135476188Y-154492914D02*
X135571426Y-154540533D01*
X134619045Y-154350057D02*
X134571426Y-154302438D01*
X134571426Y-154302438D02*
X134476188Y-154254819D01*
X134476188Y-154254819D02*
X134238093Y-154254819D01*
X134238093Y-154254819D02*
X134142855Y-154302438D01*
X134142855Y-154302438D02*
X134095236Y-154350057D01*
X134095236Y-154350057D02*
X134047617Y-154445295D01*
X134047617Y-154445295D02*
X134047617Y-154540533D01*
X134047617Y-154540533D02*
X134095236Y-154683390D01*
X134095236Y-154683390D02*
X134666664Y-155254819D01*
X134666664Y-155254819D02*
X134047617Y-155254819D01*
X133619045Y-154873866D02*
X132857141Y-154873866D01*
X132428569Y-154350057D02*
X132380950Y-154302438D01*
X132380950Y-154302438D02*
X132285712Y-154254819D01*
X132285712Y-154254819D02*
X132047617Y-154254819D01*
X132047617Y-154254819D02*
X131952379Y-154302438D01*
X131952379Y-154302438D02*
X131904760Y-154350057D01*
X131904760Y-154350057D02*
X131857141Y-154445295D01*
X131857141Y-154445295D02*
X131857141Y-154540533D01*
X131857141Y-154540533D02*
X131904760Y-154683390D01*
X131904760Y-154683390D02*
X132476188Y-155254819D01*
X132476188Y-155254819D02*
X131857141Y-155254819D01*
X130999998Y-154588152D02*
X130999998Y-155254819D01*
X131238093Y-154207200D02*
X131476188Y-154921485D01*
X131476188Y-154921485D02*
X130857141Y-154921485D01*
X130619045Y-154254819D02*
X130285712Y-155254819D01*
X130285712Y-155254819D02*
X129952379Y-154254819D01*
%LPC*%
D11*
%TO.C,H3*%
X184500000Y-152500000D03*
%TD*%
D12*
%TO.C,J7*%
X147000000Y-106000000D03*
D13*
X144460000Y-106000000D03*
X147000000Y-108540000D03*
X144460000Y-108540000D03*
X147000000Y-111080000D03*
X144460000Y-111080000D03*
X147000000Y-113620000D03*
X144460000Y-113620000D03*
X147000000Y-116160000D03*
X144460000Y-116160000D03*
X147000000Y-118700000D03*
X144460000Y-118700000D03*
X147000000Y-121240000D03*
X144460000Y-121240000D03*
X147000000Y-123780000D03*
X144460000Y-123780000D03*
%TD*%
D12*
%TO.C,J8*%
X160000000Y-148000000D03*
D13*
X160000000Y-145460000D03*
X162540000Y-148000000D03*
X162540000Y-145460000D03*
X165080000Y-148000000D03*
X165080000Y-145460000D03*
X167620000Y-148000000D03*
X167620000Y-145460000D03*
X170160000Y-148000000D03*
X170160000Y-145460000D03*
X172700000Y-148000000D03*
X172700000Y-145460000D03*
X175240000Y-148000000D03*
X175240000Y-145460000D03*
X177780000Y-148000000D03*
X177780000Y-145460000D03*
%TD*%
D11*
%TO.C,H2*%
X184500000Y-139500000D03*
%TD*%
D13*
%TO.C,PROTO1*%
X104000000Y-115200000D03*
X104000000Y-117740000D03*
X104000000Y-120280000D03*
X104000000Y-122820000D03*
X104000000Y-125360000D03*
X104000000Y-127900000D03*
X104000000Y-130440000D03*
X104000000Y-132980000D03*
X104000000Y-135520000D03*
X104000000Y-138060000D03*
X106540000Y-115200000D03*
X106540000Y-117740000D03*
X106540000Y-120280000D03*
X106540000Y-122820000D03*
X106540000Y-125360000D03*
X106540000Y-127900000D03*
X106540000Y-130440000D03*
X106540000Y-132980000D03*
X106540000Y-135520000D03*
X106540000Y-138060000D03*
X109080000Y-115200000D03*
X109080000Y-117740000D03*
X109080000Y-120280000D03*
X109080000Y-122820000D03*
X109080000Y-125360000D03*
X109080000Y-127900000D03*
X109080000Y-130440000D03*
X109080000Y-132980000D03*
X109080000Y-135520000D03*
X109080000Y-138060000D03*
X111620000Y-115200000D03*
X111620000Y-117740000D03*
X111620000Y-120280000D03*
X111620000Y-122820000D03*
X111620000Y-125360000D03*
X111620000Y-127900000D03*
X111620000Y-130440000D03*
X111620000Y-132980000D03*
X111620000Y-135520000D03*
X111620000Y-138060000D03*
X114160000Y-115200000D03*
X114160000Y-117740000D03*
X114160000Y-120280000D03*
X114160000Y-122820000D03*
X114160000Y-125360000D03*
X114160000Y-127900000D03*
X114160000Y-130440000D03*
X114160000Y-132980000D03*
X114160000Y-135520000D03*
X114160000Y-138060000D03*
X116700000Y-115200000D03*
X116700000Y-117740000D03*
X116700000Y-120280000D03*
X116700000Y-122820000D03*
X116700000Y-125360000D03*
X116700000Y-127900000D03*
X116700000Y-130440000D03*
X116700000Y-132980000D03*
X116700000Y-135520000D03*
X116700000Y-138060000D03*
X119240000Y-115200000D03*
X119240000Y-117740000D03*
X119240000Y-120280000D03*
X119240000Y-122820000D03*
X119240000Y-125360000D03*
X119240000Y-127900000D03*
X119240000Y-130440000D03*
X119240000Y-132980000D03*
X119240000Y-135520000D03*
X119240000Y-138060000D03*
X121780000Y-115200000D03*
X121780000Y-117740000D03*
X121780000Y-120280000D03*
X121780000Y-122820000D03*
X121780000Y-125360000D03*
X121780000Y-127900000D03*
X121780000Y-130440000D03*
X121780000Y-132980000D03*
X121780000Y-135520000D03*
X121780000Y-138060000D03*
X124320000Y-115200000D03*
X124320000Y-117740000D03*
X124320000Y-120280000D03*
X124320000Y-122820000D03*
X124320000Y-125360000D03*
X124320000Y-127900000D03*
X124320000Y-130440000D03*
X124320000Y-132980000D03*
X124320000Y-135520000D03*
X124320000Y-138060000D03*
X126860000Y-115200000D03*
X126860000Y-117740000D03*
X126860000Y-120280000D03*
X126860000Y-122820000D03*
X126860000Y-125360000D03*
X126860000Y-127900000D03*
X126860000Y-130440000D03*
X126860000Y-132980000D03*
X126860000Y-135520000D03*
X126860000Y-138060000D03*
X129400000Y-115200000D03*
X129400000Y-117740000D03*
X129400000Y-120280000D03*
X129400000Y-122820000D03*
X129400000Y-125360000D03*
X129400000Y-127900000D03*
X129400000Y-130440000D03*
X129400000Y-132980000D03*
X129400000Y-135520000D03*
X129400000Y-138060000D03*
X131940000Y-115200000D03*
X131940000Y-117740000D03*
X131940000Y-120280000D03*
X131940000Y-122820000D03*
X131940000Y-125360000D03*
X131940000Y-127900000D03*
X131940000Y-130440000D03*
X131940000Y-132980000D03*
X131940000Y-135520000D03*
X131940000Y-138060000D03*
%TD*%
D14*
%TO.C,J1*%
X103600000Y-149800000D03*
D15*
X108680000Y-149800000D03*
%TD*%
D11*
%TO.C,H1*%
X103500000Y-103500000D03*
%TD*%
%LPD*%
M02*
