M48
; DRILL file {KiCad 9.0.9} date 2026-10-06T22:25:14+0000
; FORMAT={-:-/ absolute / metric / decimal}
; #@! TF.CreationDate,2026-10-06T22:25:14+00:00
; #@! TF.GenerationSoftware,Kicad,Pcbnew,9.0.9
; #@! TF.FileFunction,Plated,1,2,PTH
FMAT,2
METRIC
; #@! TA.AperFunction,Plated,PTH,ViaDrill
T1C0.300
; #@! TA.AperFunction,Plated,PTH,ComponentDrill
T2C1.000
; #@! TA.AperFunction,Plated,PTH,ComponentDrill
T3C1.700
%
G90
G05
T1
X100.751Y-110.4
X100.751Y-149.957
X102.0Y-112.0
X102.0Y-117.0
X102.0Y-122.0
X102.0Y-127.0
X102.0Y-132.0
X102.0Y-137.0
X102.0Y-142.0
X102.0Y-147.0
X103.125Y-108.982
X104.835Y-113.744
X106.759Y-113.525
X107.0Y-102.0
X107.0Y-142.0
X109.165Y-144.235
X110.407Y-114.064
X111.343Y-111.929
X111.601Y-113.506
X112.0Y-142.0
X112.0Y-147.0
X113.8Y-105.194
X116.4Y-144.586
X116.87Y-107.295
X117.0Y-112.0
X117.0Y-147.0
X117.274Y-113.85
X119.5Y-144.614
X122.0Y-112.0
X122.0Y-147.0
X123.5Y-144.633
X126.85Y-144.859
X127.0Y-112.0
X127.0Y-147.0
X128.795Y-141.65
X128.85Y-142.95
X132.0Y-112.0
X132.0Y-147.0
X133.58Y-144.065
X136.1Y-142.815
X137.0Y-112.0
X137.0Y-117.0
X137.0Y-122.0
X137.0Y-127.0
X137.0Y-132.0
X137.0Y-137.0
X137.0Y-147.0
X142.0Y-137.0
X142.0Y-147.0
X147.0Y-102.0
X147.0Y-127.0
X147.0Y-142.0
X147.0Y-147.0
X148.725Y-112.315
X148.825Y-111.045
X150.075Y-113.585
X150.474Y-120.011
X151.225Y-114.855
X152.0Y-102.0
X152.0Y-107.0
X152.0Y-132.0
X152.0Y-147.0
X157.0Y-102.0
X157.0Y-107.0
X157.0Y-112.0
X157.0Y-137.0
X157.857Y-118.499
X157.961Y-112.759
X157.979Y-113.905
X158.202Y-110.739
X162.0Y-102.0
X162.0Y-107.0
X162.0Y-112.0
X162.0Y-117.0
X162.0Y-142.0
X167.0Y-102.0
X167.0Y-107.0
X167.0Y-112.0
X167.0Y-117.0
X167.0Y-122.0
X171.905Y-142.671
X172.0Y-102.0
X172.0Y-107.0
X172.0Y-112.0
X172.0Y-117.0
X172.0Y-122.0
X172.0Y-127.0
X177.0Y-132.0
X182.0Y-132.0
X182.0Y-137.0
X182.0Y-142.0
X182.0Y-147.0
T2
X104.0Y-115.2
X104.0Y-117.74
X104.0Y-120.28
X104.0Y-122.82
X104.0Y-125.36
X104.0Y-127.9
X104.0Y-130.44
X104.0Y-132.98
X104.0Y-135.52
X104.0Y-138.06
X106.54Y-115.2
X106.54Y-117.74
X106.54Y-120.28
X106.54Y-122.82
X106.54Y-125.36
X106.54Y-127.9
X106.54Y-130.44
X106.54Y-132.98
X106.54Y-135.52
X106.54Y-138.06
X109.08Y-115.2
X109.08Y-117.74
X109.08Y-120.28
X109.08Y-122.82
X109.08Y-125.36
X109.08Y-127.9
X109.08Y-130.44
X109.08Y-132.98
X109.08Y-135.52
X109.08Y-138.06
X111.62Y-115.2
X111.62Y-117.74
X111.62Y-120.28
X111.62Y-122.82
X111.62Y-125.36
X111.62Y-127.9
X111.62Y-130.44
X111.62Y-132.98
X111.62Y-135.52
X111.62Y-138.06
X114.16Y-115.2
X114.16Y-117.74
X114.16Y-120.28
X114.16Y-122.82
X114.16Y-125.36
X114.16Y-127.9
X114.16Y-130.44
X114.16Y-132.98
X114.16Y-135.52
X114.16Y-138.06
X116.7Y-115.2
X116.7Y-117.74
X116.7Y-120.28
X116.7Y-122.82
X116.7Y-125.36
X116.7Y-127.9
X116.7Y-130.44
X116.7Y-132.98
X116.7Y-135.52
X116.7Y-138.06
X119.24Y-115.2
X119.24Y-117.74
X119.24Y-120.28
X119.24Y-122.82
X119.24Y-125.36
X119.24Y-127.9
X119.24Y-130.44
X119.24Y-132.98
X119.24Y-135.52
X119.24Y-138.06
X121.78Y-115.2
X121.78Y-117.74
X121.78Y-120.28
X121.78Y-122.82
X121.78Y-125.36
X121.78Y-127.9
X121.78Y-130.44
X121.78Y-132.98
X121.78Y-135.52
X121.78Y-138.06
X124.32Y-115.2
X124.32Y-117.74
X124.32Y-120.28
X124.32Y-122.82
X124.32Y-125.36
X124.32Y-127.9
X124.32Y-130.44
X124.32Y-132.98
X124.32Y-135.52
X124.32Y-138.06
X126.86Y-115.2
X126.86Y-117.74
X126.86Y-120.28
X126.86Y-122.82
X126.86Y-125.36
X126.86Y-127.9
X126.86Y-130.44
X126.86Y-132.98
X126.86Y-135.52
X126.86Y-138.06
X129.4Y-115.2
X129.4Y-117.74
X129.4Y-120.28
X129.4Y-122.82
X129.4Y-125.36
X129.4Y-127.9
X129.4Y-130.44
X129.4Y-132.98
X129.4Y-135.52
X129.4Y-138.06
X131.94Y-115.2
X131.94Y-117.74
X131.94Y-120.28
X131.94Y-122.82
X131.94Y-125.36
X131.94Y-127.9
X131.94Y-130.44
X131.94Y-132.98
X131.94Y-135.52
X131.94Y-138.06
X144.46Y-106.0
X144.46Y-108.54
X144.46Y-111.08
X144.46Y-113.62
X144.46Y-116.16
X144.46Y-118.7
X144.46Y-121.24
X144.46Y-123.78
X147.0Y-106.0
X147.0Y-108.54
X147.0Y-111.08
X147.0Y-113.62
X147.0Y-116.16
X147.0Y-118.7
X147.0Y-121.24
X147.0Y-123.78
X160.0Y-145.46
X160.0Y-148.0
X162.54Y-145.46
X162.54Y-148.0
X165.08Y-145.46
X165.08Y-148.0
X167.62Y-145.46
X167.62Y-148.0
X170.16Y-145.46
X170.16Y-148.0
X172.7Y-145.46
X172.7Y-148.0
X175.24Y-145.46
X175.24Y-148.0
X177.78Y-145.46
X177.78Y-148.0
T3
X103.0Y-150.4
X106.96Y-150.4
M30
