%TF.GenerationSoftware,KiCad,Pcbnew,9.0.9*%
%TF.CreationDate,2026-10-06T22:26:35+00:00*%
%TF.ProjectId,AP1_Industrial,4150315f-496e-4647-9573-747269616c2e,rev?*%
%TF.SameCoordinates,Original*%
%TF.FileFunction,Copper,L2,Bot*%
%TF.FilePolarity,Positive*%
%FSLAX46Y46*%
G04 Gerber Fmt 4.6, Leading zero omitted, Abs format (unit mm)*
G04 Created by KiCad (PCBNEW 9.0.9) date 2026-10-06 22:26:35*
%MOMM*%
%LPD*%
G01*
G04 APERTURE LIST*
G04 Aperture macros list*
%AMRoundRect*
0 Rectangle with rounded corners*
0 $1 Rounding radius*
0 $2 $3 $4 $5 $6 $7 $8 $9 X,Y pos of 4 corners*
0 Add a 4 corners polygon primitive as box body*
4,1,4,$2,$3,$4,$5,$6,$7,$8,$9,$2,$3,0*
0 Add four circle primitives for the rounded corners*
1,1,$1+$1,$2,$3*
1,1,$1+$1,$4,$5*
1,1,$1+$1,$6,$7*
1,1,$1+$1,$8,$9*
0 Add four rect primitives between the rounded corners*
20,1,$1+$1,$2,$3,$4,$5,0*
20,1,$1+$1,$4,$5,$6,$7,0*
20,1,$1+$1,$6,$7,$8,$9,0*
20,1,$1+$1,$8,$9,$2,$3,0*%
G04 Aperture macros list end*
%TA.AperFunction,ComponentPad*%
%ADD10RoundRect,0.250000X-0.600000X-0.750000X0.600000X-0.750000X0.600000X0.750000X-0.600000X0.750000X0*%
%TD*%
%TA.AperFunction,ComponentPad*%
%ADD11O,1.700000X2.000000*%
%TD*%
%TA.AperFunction,ComponentPad*%
%ADD12R,2.250000X1.750000*%
%TD*%
%TA.AperFunction,ComponentPad*%
%ADD13O,2.250000X1.750000*%
%TD*%
%TA.AperFunction,ComponentPad*%
%ADD14R,1.700000X1.700000*%
%TD*%
%TA.AperFunction,ComponentPad*%
%ADD15C,1.700000*%
%TD*%
%TA.AperFunction,ComponentPad*%
%ADD16RoundRect,0.250001X-1.099999X-1.099999X1.099999X-1.099999X1.099999X1.099999X-1.099999X1.099999X0*%
%TD*%
%TA.AperFunction,ComponentPad*%
%ADD17C,2.700000*%
%TD*%
%TA.AperFunction,ViaPad*%
%ADD18C,0.600000*%
%TD*%
%TA.AperFunction,Conductor*%
%ADD19C,0.250000*%
%TD*%
%TA.AperFunction,Conductor*%
%ADD20C,0.600000*%
%TD*%
G04 APERTURE END LIST*
D10*
%TO.P,J5,1*%
%TO.N,/DIM1*%
X103000000Y-151000000D03*
D11*
%TO.P,J5,2*%
%TO.N,/ISOGND*%
X105500000Y-151000000D03*
%TD*%
D12*
%TO.P,U2,1*%
%TO.N,/GND*%
X120000000Y-124900000D03*
D13*
%TO.P,U2,2*%
%TO.N,/V12*%
X120000000Y-127440000D03*
%TO.P,U2,3*%
%TO.N,/ISOGND*%
X120000000Y-129980000D03*
%TO.P,U2,4*%
%TO.N,/ISO12*%
X120000000Y-132520000D03*
%TD*%
D10*
%TO.P,J9,1*%
%TO.N,/DIM4*%
X129100000Y-151000000D03*
D11*
%TO.P,J9,2*%
%TO.N,/ISOGND*%
X131600000Y-151000000D03*
%TD*%
D10*
%TO.P,J6,1*%
%TO.N,/DIM2*%
X111700000Y-151000000D03*
D11*
%TO.P,J6,2*%
%TO.N,/ISOGND*%
X114200000Y-151000000D03*
%TD*%
D14*
%TO.P,J7,1*%
%TO.N,/V12*%
X147000000Y-106000000D03*
D15*
%TO.P,J7,2*%
X144460000Y-106000000D03*
%TO.P,J7,3*%
%TO.N,/GND*%
X147000000Y-108540000D03*
%TO.P,J7,4*%
X144460000Y-108540000D03*
%TO.P,J7,5*%
%TO.N,/PWM1*%
X147000000Y-111080000D03*
%TO.P,J7,6*%
%TO.N,/PWM2*%
X144460000Y-111080000D03*
%TO.P,J7,7*%
%TO.N,/PWM3*%
X147000000Y-113620000D03*
%TO.P,J7,8*%
%TO.N,/PWM4*%
X144460000Y-113620000D03*
%TO.P,J7,9*%
%TO.N,/CC1*%
X147000000Y-116160000D03*
%TO.P,J7,10*%
%TO.N,unconnected-(J7-Pin_10-Pad10)*%
X144460000Y-116160000D03*
%TO.P,J7,11*%
%TO.N,/SDA*%
X147000000Y-118700000D03*
%TO.P,J7,12*%
%TO.N,/SCL*%
X144460000Y-118700000D03*
%TO.P,J7,13*%
%TO.N,unconnected-(J7-Pin_13-Pad13)*%
X147000000Y-121240000D03*
%TO.P,J7,14*%
%TO.N,/AUX*%
X144460000Y-121240000D03*
%TO.P,J7,15*%
%TO.N,/3V3*%
X147000000Y-123780000D03*
%TO.P,J7,16*%
%TO.N,/GND*%
X144460000Y-123780000D03*
%TD*%
D10*
%TO.P,J8,1*%
%TO.N,/DIM3*%
X120400000Y-151000000D03*
D11*
%TO.P,J8,2*%
%TO.N,/ISOGND*%
X122900000Y-151000000D03*
%TD*%
D10*
%TO.P,J2,1*%
%TO.N,/VIN*%
X158500000Y-151000000D03*
D11*
%TO.P,J2,2*%
%TO.N,/K1*%
X161000000Y-151000000D03*
%TD*%
D16*
%TO.P,J1,1*%
%TO.N,/VIN_RAW*%
X147500000Y-150400000D03*
D17*
%TO.P,J1,2*%
%TO.N,/GND*%
X151460000Y-150400000D03*
%TD*%
D10*
%TO.P,J4,1*%
%TO.N,/VIN*%
X167200000Y-151000000D03*
D11*
%TO.P,J4,2*%
%TO.N,/K2*%
X169700000Y-151000000D03*
%TD*%
D18*
%TO.N,/GND*%
X166000000Y-114000000D03*
X100750500Y-110400013D03*
X154000000Y-102000000D03*
X112363000Y-112362000D03*
X170000000Y-130000000D03*
X186000000Y-146000000D03*
X102000000Y-118000000D03*
X166000000Y-130000000D03*
X186000000Y-142000000D03*
X178000000Y-134000000D03*
X102000000Y-114000000D03*
X166000000Y-142000000D03*
X162000000Y-106000000D03*
X170000000Y-106000000D03*
X130000000Y-106000000D03*
X158000000Y-154000000D03*
X126000000Y-110000000D03*
X146000000Y-102000000D03*
X162000000Y-154000000D03*
X158000000Y-122000000D03*
X158000000Y-106000000D03*
X182000000Y-146000000D03*
X162000000Y-102000000D03*
X182000000Y-134000000D03*
X168983838Y-136649374D03*
X166000000Y-126000000D03*
X186000000Y-150000000D03*
X182000000Y-154000000D03*
X154000000Y-126000000D03*
X113800500Y-105193682D03*
X130000000Y-110000000D03*
X118000000Y-110000000D03*
X170000000Y-122000000D03*
X162000000Y-122000000D03*
X105138427Y-127834350D03*
X166000000Y-118000000D03*
X130000000Y-122000000D03*
X174000000Y-138000000D03*
X154000000Y-154000000D03*
X182000000Y-150000000D03*
X170000000Y-102000000D03*
X150000000Y-106000000D03*
X160493688Y-137514910D03*
X150000000Y-102000000D03*
X170000000Y-110000000D03*
X162000000Y-114000000D03*
X174000000Y-154000000D03*
X126000000Y-106000000D03*
X153954000Y-134726000D03*
X148224930Y-114855001D03*
X178000000Y-142000000D03*
X158000000Y-102000000D03*
X166000000Y-110000000D03*
X105766197Y-124216531D03*
X166000000Y-154000000D03*
X170000000Y-126000000D03*
X106000000Y-102000000D03*
X150000000Y-154000000D03*
X103031000Y-111804000D03*
X138000000Y-106000000D03*
X138000000Y-114000000D03*
X134540045Y-127834350D03*
X146000000Y-154000000D03*
X116610000Y-108116000D03*
X158000000Y-142000000D03*
X106000000Y-118000000D03*
X170000000Y-114000000D03*
X178000000Y-150000000D03*
X178000000Y-146000000D03*
X118000000Y-106000000D03*
X142000000Y-118000000D03*
X182000000Y-138000000D03*
X162000000Y-110000000D03*
X162000000Y-126000000D03*
X114000000Y-126000000D03*
X142000000Y-122000000D03*
X178000000Y-154000000D03*
X166000000Y-122000000D03*
X154000000Y-146000000D03*
X150000000Y-146000000D03*
X103281000Y-125786000D03*
X100750500Y-127084350D03*
X122000000Y-106000000D03*
X162000000Y-118000000D03*
X144950000Y-131601617D03*
X166000000Y-106000000D03*
X124885145Y-127834350D03*
X151395630Y-138899986D03*
X122000000Y-110000000D03*
X154000000Y-106000000D03*
X170000000Y-154000000D03*
X170000000Y-118000000D03*
X166000000Y-102000000D03*
X174000000Y-142000000D03*
X178000000Y-138000000D03*
X148825310Y-111045001D03*
X148825311Y-113585001D03*
X133966197Y-124826644D03*
X158000000Y-118000000D03*
X166000000Y-146000000D03*
X148224930Y-112315001D03*
X182000000Y-142000000D03*
X134000000Y-106000000D03*
X146000000Y-126000000D03*
X102000000Y-106000000D03*
X186000000Y-134000000D03*
X156591137Y-111359943D03*
X134000000Y-110000000D03*
X174000000Y-146000000D03*
X110000000Y-126000000D03*
X174000000Y-150000000D03*
X158000000Y-146000000D03*
%TO.N,/VIN*%
X162904000Y-133396000D03*
X130344000Y-113514000D03*
X149140000Y-136874000D03*
%TO.N,/V12*%
X104175000Y-113920000D03*
X122322000Y-124712000D03*
%TO.N,/K1*%
X164552000Y-141182000D03*
X166867000Y-136167000D03*
%TO.N,/K2*%
X170738000Y-136910000D03*
%TO.N,/AUX*%
X161421000Y-138046000D03*
%TO.N,/CC1*%
X167921000Y-137804000D03*
%TO.N,/ISOGND*%
X110000000Y-154000000D03*
X118000000Y-154000000D03*
X100750500Y-140656543D03*
X110000000Y-146000000D03*
X138000000Y-154000000D03*
X114000000Y-146000000D03*
X100750500Y-137264154D03*
X126000000Y-134000000D03*
X134000000Y-154000000D03*
X130000000Y-154000000D03*
X107800000Y-138669000D03*
X134883500Y-137195800D03*
X105410903Y-140714155D03*
X121813143Y-138239246D03*
X122000000Y-134000000D03*
X122000000Y-146000000D03*
X126000000Y-154000000D03*
X130000000Y-146000000D03*
X130114000Y-141750000D03*
X122000000Y-154000000D03*
X118000000Y-134000000D03*
X120109500Y-140855001D03*
X134000000Y-150000000D03*
X138000000Y-150000000D03*
X118000000Y-146000000D03*
X102000000Y-154000000D03*
X113989689Y-140913321D03*
X134000000Y-134000000D03*
X130389000Y-139527000D03*
X105282257Y-136750500D03*
X106000000Y-146000000D03*
X118450000Y-131510940D03*
X133063143Y-143275066D03*
X114000000Y-154000000D03*
X106000000Y-154000000D03*
%TO.N,/ISO12*%
X132182000Y-135832000D03*
X137200000Y-134589000D03*
X106342000Y-133009000D03*
%TO.N,/OUT1*%
X105578000Y-137784000D03*
X102535000Y-143490000D03*
%TO.N,/FL1*%
X113111000Y-138635000D03*
X105785000Y-135375000D03*
X101264000Y-139490000D03*
%TO.N,/FL2*%
X110044000Y-134634000D03*
X115061000Y-139832000D03*
X105874000Y-139631000D03*
%TO.N,/OUT3*%
X130010000Y-144225000D03*
X125018000Y-137741000D03*
%TO.N,/FL4*%
X139178000Y-140148000D03*
X131908000Y-137800000D03*
%TO.N,/OUT4*%
X126979000Y-138856000D03*
X135245000Y-143470000D03*
%TO.N,/DIM1*%
X100999000Y-145050000D03*
%TO.N,/SDA*%
X157730000Y-113905000D03*
%TO.N,/3V3*%
X158202000Y-110739000D03*
X157001000Y-115624000D03*
%TO.N,/LA1*%
X103754000Y-123529000D03*
X104445000Y-126993000D03*
%TO.N,/LA3*%
X132955000Y-123530000D03*
X133648000Y-127112000D03*
%TO.N,/EM3*%
X127173000Y-136730000D03*
X129988000Y-133916000D03*
%TD*%
D19*
%TO.N,/GND*%
X153954000Y-134726000D02*
X153954000Y-147906000D01*
X103531000Y-122789000D02*
X119090000Y-122789000D01*
X153954000Y-134726000D02*
X153954000Y-133274000D01*
X103125000Y-125630000D02*
X103125000Y-123195000D01*
X144460000Y-123780000D02*
X143266000Y-122586000D01*
X103531000Y-112420000D02*
X103531000Y-122789000D01*
X112363000Y-112362000D02*
X103590000Y-112362000D01*
X119090000Y-122789000D02*
X120000000Y-123698000D01*
X112363000Y-112362000D02*
X116610000Y-108116000D01*
X103125000Y-123195000D02*
X103531000Y-122789000D01*
X153954000Y-147906000D02*
X151460000Y-150400000D01*
X103590000Y-112362000D02*
X103031000Y-111804000D01*
X103281000Y-125786000D02*
X103125000Y-125630000D01*
X143266000Y-122586000D02*
X143266000Y-109734000D01*
X153954000Y-133274000D02*
X144460000Y-123780000D01*
X120000000Y-124900000D02*
X120000000Y-123698000D01*
X103590000Y-112362000D02*
X103531000Y-112420000D01*
X143266000Y-109734000D02*
X144460000Y-108540000D01*
D20*
%TO.N,/VIN*%
X162904000Y-133396000D02*
X162904000Y-146596000D01*
X130344000Y-113514000D02*
X149140000Y-132310000D01*
X149140000Y-132310000D02*
X149140000Y-136874000D01*
X162904000Y-146596000D02*
X158500000Y-151000000D01*
%TO.N,/V12*%
X111786000Y-113920000D02*
X122322000Y-124456000D01*
X104175000Y-113920000D02*
X111786000Y-113920000D01*
X122322000Y-124456000D02*
X122322000Y-124712000D01*
%TO.N,/K1*%
X164552000Y-141182000D02*
X164552000Y-138483000D01*
X164552000Y-148800000D02*
X162352000Y-151000000D01*
X164552000Y-141182000D02*
X164552000Y-148800000D01*
X164552000Y-138483000D02*
X166867000Y-136167000D01*
X161000000Y-151000000D02*
X162352000Y-151000000D01*
%TO.N,/K2*%
X170738000Y-136910000D02*
X169700000Y-137948000D01*
X169700000Y-137948000D02*
X169700000Y-151000000D01*
D19*
%TO.N,/AUX*%
X161421000Y-138046000D02*
X161421000Y-136524000D01*
X145730000Y-122510000D02*
X144460000Y-121240000D01*
X161421000Y-136524000D02*
X147408000Y-122510000D01*
X147408000Y-122510000D02*
X145730000Y-122510000D01*
%TO.N,/CC1*%
X145782000Y-117378000D02*
X145782000Y-119183000D01*
X167921000Y-136328000D02*
X167921000Y-137804000D01*
X147000000Y-116160000D02*
X145782000Y-117378000D01*
X145782000Y-119183000D02*
X146569000Y-119970000D01*
X146569000Y-119970000D02*
X151562000Y-119970000D01*
X151562000Y-119970000D02*
X167921000Y-136328000D01*
%TO.N,/ISOGND*%
X107800000Y-149643000D02*
X107800000Y-149877000D01*
X107800000Y-138669000D02*
X107800000Y-149643000D01*
X112548000Y-149643000D02*
X107800000Y-149643000D01*
X113023000Y-150118000D02*
X112548000Y-149643000D01*
X131600000Y-143236000D02*
X131600000Y-151000000D01*
X107800000Y-149877000D02*
X106677000Y-151000000D01*
X114200000Y-151000000D02*
X113023000Y-151000000D01*
X130114000Y-141750000D02*
X131600000Y-143236000D01*
X130114000Y-141750000D02*
X130389000Y-141474000D01*
X113023000Y-151000000D02*
X113023000Y-150118000D01*
X130389000Y-141474000D02*
X130389000Y-139527000D01*
X105500000Y-151000000D02*
X106677000Y-151000000D01*
%TO.N,/ISO12*%
X135957000Y-135832000D02*
X132182000Y-135832000D01*
X118060000Y-133009000D02*
X106342000Y-133009000D01*
X120000000Y-132520000D02*
X118548000Y-132520000D01*
X118548000Y-132520000D02*
X118060000Y-133009000D01*
X137200000Y-134589000D02*
X135957000Y-135832000D01*
%TO.N,/OUT1*%
X105578000Y-137784000D02*
X102535000Y-140828000D01*
X102535000Y-140828000D02*
X102535000Y-143490000D01*
%TO.N,/FL1*%
X109851000Y-135375000D02*
X105785000Y-135375000D01*
X105785000Y-135375000D02*
X105379000Y-135375000D01*
X113111000Y-138635000D02*
X109851000Y-135375000D01*
X105379000Y-135375000D02*
X101264000Y-139490000D01*
%TO.N,/FL2*%
X107482000Y-138024000D02*
X105874000Y-139631000D01*
X108121000Y-138024000D02*
X107482000Y-138024000D01*
X114510000Y-139280000D02*
X113756000Y-139280000D01*
X115061000Y-139832000D02*
X114510000Y-139280000D01*
X109377000Y-139280000D02*
X108121000Y-138024000D01*
X113756000Y-139280000D02*
X113756000Y-138345000D01*
X113756000Y-139280000D02*
X109377000Y-139280000D01*
X113756000Y-138345000D02*
X110044000Y-134634000D01*
%TO.N,/OUT3*%
X125018000Y-137741000D02*
X125018000Y-139233000D01*
X125018000Y-139233000D02*
X130010000Y-144225000D01*
%TO.N,/FL4*%
X131908000Y-137800000D02*
X134256000Y-140148000D01*
X134256000Y-140148000D02*
X139178000Y-140148000D01*
%TO.N,/OUT4*%
X126979000Y-138856000D02*
X130631000Y-138856000D01*
X130631000Y-138856000D02*
X135245000Y-143470000D01*
%TO.N,/DIM1*%
X100999000Y-145050000D02*
X103000000Y-147051000D01*
X103000000Y-147051000D02*
X103000000Y-151000000D01*
%TO.N,/SDA*%
X151795000Y-113905000D02*
X157730000Y-113905000D01*
X147000000Y-118700000D02*
X151795000Y-113905000D01*
%TO.N,/3V3*%
X158202000Y-110739000D02*
X158634000Y-111171000D01*
X158634000Y-111171000D02*
X158634000Y-113992000D01*
X158634000Y-113992000D02*
X157001000Y-115624000D01*
%TO.N,/LA1*%
X104685000Y-124460000D02*
X104685000Y-126753000D01*
X103754000Y-123529000D02*
X104685000Y-124460000D01*
X104685000Y-126753000D02*
X104445000Y-126993000D01*
%TO.N,/LA3*%
X132955000Y-126420000D02*
X133648000Y-127112000D01*
X132955000Y-123530000D02*
X132955000Y-126420000D01*
%TO.N,/EM3*%
X127173000Y-136730000D02*
X129988000Y-133916000D01*
%TD*%
%TA.AperFunction,Conductor*%
%TO.N,/ISOGND*%
G36*
X121943039Y-128419685D02*
G01*
X121988794Y-128472489D01*
X122000000Y-128524000D01*
X122000000Y-132199999D01*
X141376000Y-132199999D01*
X141443039Y-132219684D01*
X141488794Y-132272488D01*
X141500000Y-132323999D01*
X141500000Y-155575500D01*
X141480315Y-155642539D01*
X141427511Y-155688294D01*
X141376000Y-155699500D01*
X102004428Y-155699500D01*
X101995582Y-155699184D01*
X101766982Y-155682834D01*
X101749470Y-155680316D01*
X101529862Y-155632543D01*
X101512887Y-155627559D01*
X101302311Y-155549019D01*
X101286217Y-155541669D01*
X101088963Y-155433959D01*
X101074080Y-155424394D01*
X100894163Y-155289710D01*
X100880792Y-155278124D01*
X100721875Y-155119207D01*
X100710289Y-155105836D01*
X100575605Y-154925919D01*
X100566040Y-154911036D01*
X100458330Y-154713782D01*
X100450983Y-154697694D01*
X100372437Y-154487103D01*
X100367458Y-154470144D01*
X100319683Y-154250529D01*
X100317165Y-154233017D01*
X100300816Y-154004418D01*
X100300500Y-153995572D01*
X100300500Y-145499930D01*
X100320185Y-145432891D01*
X100372989Y-145387136D01*
X100442147Y-145377192D01*
X100505703Y-145406217D01*
X100512387Y-145413314D01*
X100512733Y-145412969D01*
X100518480Y-145418716D01*
X100630284Y-145530520D01*
X100630286Y-145530521D01*
X100630290Y-145530524D01*
X100767209Y-145609573D01*
X100767216Y-145609577D01*
X100919943Y-145650500D01*
X100946390Y-145650500D01*
X101013429Y-145670185D01*
X101034071Y-145686819D01*
X102538181Y-147190928D01*
X102571666Y-147252251D01*
X102574500Y-147278609D01*
X102574500Y-149575500D01*
X102554815Y-149642539D01*
X102502011Y-149688294D01*
X102450500Y-149699500D01*
X102356898Y-149699500D01*
X102317853Y-149704188D01*
X102268438Y-149710122D01*
X102127656Y-149765639D01*
X102007077Y-149857077D01*
X101915639Y-149977656D01*
X101860122Y-150118438D01*
X101854188Y-150167853D01*
X101849500Y-150206898D01*
X101849500Y-151793102D01*
X101854005Y-151830617D01*
X101860122Y-151881561D01*
X101915639Y-152022343D01*
X102007077Y-152142922D01*
X102127656Y-152234360D01*
X102127657Y-152234360D01*
X102127658Y-152234361D01*
X102268436Y-152289877D01*
X102356898Y-152300500D01*
X102356903Y-152300500D01*
X103643097Y-152300500D01*
X103643102Y-152300500D01*
X103731564Y-152289877D01*
X103872342Y-152234361D01*
X103992922Y-152142922D01*
X104084361Y-152022342D01*
X104135433Y-151892832D01*
X104178338Y-151837690D01*
X104244246Y-151814497D01*
X104312230Y-151830617D01*
X104351105Y-151865439D01*
X104470272Y-152029459D01*
X104470276Y-152029464D01*
X104620535Y-152179723D01*
X104620540Y-152179727D01*
X104792442Y-152304620D01*
X104981782Y-152401095D01*
X105183871Y-152466757D01*
X105250000Y-152477231D01*
X105250000Y-151433012D01*
X105307007Y-151465925D01*
X105434174Y-151500000D01*
X105565826Y-151500000D01*
X105692993Y-151465925D01*
X105750000Y-151433012D01*
X105750000Y-152477230D01*
X105816126Y-152466757D01*
X105816129Y-152466757D01*
X106018217Y-152401095D01*
X106207557Y-152304620D01*
X106379459Y-152179727D01*
X106379464Y-152179723D01*
X106529723Y-152029464D01*
X106529727Y-152029459D01*
X106654620Y-151857557D01*
X106751095Y-151668217D01*
X106816757Y-151466130D01*
X106816757Y-151466127D01*
X106850000Y-151256246D01*
X106850000Y-151250000D01*
X105933012Y-151250000D01*
X105965925Y-151192993D01*
X106000000Y-151065826D01*
X106000000Y-150934174D01*
X105965925Y-150807007D01*
X105933012Y-150750000D01*
X106850000Y-150750000D01*
X106850000Y-150743753D01*
X106816757Y-150533872D01*
X106816757Y-150533869D01*
X106751095Y-150331782D01*
X106714259Y-150259487D01*
X106687463Y-150206898D01*
X110549500Y-150206898D01*
X110549500Y-151793102D01*
X110554005Y-151830617D01*
X110560122Y-151881561D01*
X110615639Y-152022343D01*
X110707077Y-152142922D01*
X110827656Y-152234360D01*
X110827657Y-152234360D01*
X110827658Y-152234361D01*
X110968436Y-152289877D01*
X111056898Y-152300500D01*
X111056903Y-152300500D01*
X112343097Y-152300500D01*
X112343102Y-152300500D01*
X112431564Y-152289877D01*
X112572342Y-152234361D01*
X112692922Y-152142922D01*
X112784361Y-152022342D01*
X112835433Y-151892832D01*
X112878338Y-151837690D01*
X112944246Y-151814497D01*
X113012230Y-151830617D01*
X113051105Y-151865439D01*
X113170272Y-152029459D01*
X113170276Y-152029464D01*
X113320535Y-152179723D01*
X113320540Y-152179727D01*
X113492442Y-152304620D01*
X113681782Y-152401095D01*
X113883871Y-152466757D01*
X113950000Y-152477231D01*
X113950000Y-151433012D01*
X114007007Y-151465925D01*
X114134174Y-151500000D01*
X114265826Y-151500000D01*
X114392993Y-151465925D01*
X114450000Y-151433012D01*
X114450000Y-152477230D01*
X114516126Y-152466757D01*
X114516129Y-152466757D01*
X114718217Y-152401095D01*
X114907557Y-152304620D01*
X115079459Y-152179727D01*
X115079464Y-152179723D01*
X115229723Y-152029464D01*
X115229727Y-152029459D01*
X115354620Y-151857557D01*
X115451095Y-151668217D01*
X115516757Y-151466130D01*
X115516757Y-151466127D01*
X115550000Y-151256246D01*
X115550000Y-151250000D01*
X114633012Y-151250000D01*
X114665925Y-151192993D01*
X114700000Y-151065826D01*
X114700000Y-150934174D01*
X114665925Y-150807007D01*
X114633012Y-150750000D01*
X115550000Y-150750000D01*
X115550000Y-150743753D01*
X115516757Y-150533872D01*
X115516757Y-150533869D01*
X115451095Y-150331782D01*
X115414259Y-150259487D01*
X115387463Y-150206898D01*
X119249500Y-150206898D01*
X119249500Y-151793102D01*
X119254005Y-151830617D01*
X119260122Y-151881561D01*
X119315639Y-152022343D01*
X119407077Y-152142922D01*
X119527656Y-152234360D01*
X119527657Y-152234360D01*
X119527658Y-152234361D01*
X119668436Y-152289877D01*
X119756898Y-152300500D01*
X119756903Y-152300500D01*
X121043097Y-152300500D01*
X121043102Y-152300500D01*
X121131564Y-152289877D01*
X121272342Y-152234361D01*
X121392922Y-152142922D01*
X121484361Y-152022342D01*
X121535433Y-151892832D01*
X121578338Y-151837690D01*
X121644246Y-151814497D01*
X121712230Y-151830617D01*
X121751105Y-151865439D01*
X121870272Y-152029459D01*
X121870276Y-152029464D01*
X122020535Y-152179723D01*
X122020540Y-152179727D01*
X122192442Y-152304620D01*
X122381782Y-152401095D01*
X122583871Y-152466757D01*
X122650000Y-152477231D01*
X122650000Y-151433012D01*
X122707007Y-151465925D01*
X122834174Y-151500000D01*
X122965826Y-151500000D01*
X123092993Y-151465925D01*
X123150000Y-151433012D01*
X123150000Y-152477230D01*
X123216126Y-152466757D01*
X123216129Y-152466757D01*
X123418217Y-152401095D01*
X123607557Y-152304620D01*
X123779459Y-152179727D01*
X123779464Y-152179723D01*
X123929723Y-152029464D01*
X123929727Y-152029459D01*
X124054620Y-151857557D01*
X124151095Y-151668217D01*
X124216757Y-151466130D01*
X124216757Y-151466127D01*
X124250000Y-151256246D01*
X124250000Y-151250000D01*
X123333012Y-151250000D01*
X123365925Y-151192993D01*
X123400000Y-151065826D01*
X123400000Y-150934174D01*
X123365925Y-150807007D01*
X123333012Y-150750000D01*
X124250000Y-150750000D01*
X124250000Y-150743753D01*
X124216757Y-150533872D01*
X124216757Y-150533869D01*
X124151095Y-150331782D01*
X124114259Y-150259487D01*
X124087463Y-150206898D01*
X127949500Y-150206898D01*
X127949500Y-151793102D01*
X127954005Y-151830617D01*
X127960122Y-151881561D01*
X128015639Y-152022343D01*
X128107077Y-152142922D01*
X128227656Y-152234360D01*
X128227657Y-152234360D01*
X128227658Y-152234361D01*
X128368436Y-152289877D01*
X128456898Y-152300500D01*
X128456903Y-152300500D01*
X129743097Y-152300500D01*
X129743102Y-152300500D01*
X129831564Y-152289877D01*
X129972342Y-152234361D01*
X130092922Y-152142922D01*
X130184361Y-152022342D01*
X130235433Y-151892832D01*
X130278338Y-151837690D01*
X130344246Y-151814497D01*
X130412230Y-151830617D01*
X130451105Y-151865439D01*
X130570272Y-152029459D01*
X130570276Y-152029464D01*
X130720535Y-152179723D01*
X130720540Y-152179727D01*
X130892442Y-152304620D01*
X131081782Y-152401095D01*
X131283871Y-152466757D01*
X131350000Y-152477231D01*
X131350000Y-151433012D01*
X131407007Y-151465925D01*
X131534174Y-151500000D01*
X131665826Y-151500000D01*
X131792993Y-151465925D01*
X131850000Y-151433012D01*
X131850000Y-152477230D01*
X131916126Y-152466757D01*
X131916129Y-152466757D01*
X132118217Y-152401095D01*
X132307557Y-152304620D01*
X132479459Y-152179727D01*
X132479464Y-152179723D01*
X132629723Y-152029464D01*
X132629727Y-152029459D01*
X132754620Y-151857557D01*
X132851095Y-151668217D01*
X132916757Y-151466130D01*
X132916757Y-151466127D01*
X132950000Y-151256246D01*
X132950000Y-151250000D01*
X132033012Y-151250000D01*
X132065925Y-151192993D01*
X132100000Y-151065826D01*
X132100000Y-150934174D01*
X132065925Y-150807007D01*
X132033012Y-150750000D01*
X132950000Y-150750000D01*
X132950000Y-150743753D01*
X132916757Y-150533872D01*
X132916757Y-150533869D01*
X132851095Y-150331782D01*
X132754620Y-150142442D01*
X132629727Y-149970540D01*
X132629723Y-149970535D01*
X132479464Y-149820276D01*
X132479459Y-149820272D01*
X132307557Y-149695379D01*
X132118215Y-149598903D01*
X131916124Y-149533241D01*
X131850000Y-149522768D01*
X131850000Y-150566988D01*
X131792993Y-150534075D01*
X131665826Y-150500000D01*
X131534174Y-150500000D01*
X131407007Y-150534075D01*
X131350000Y-150566988D01*
X131350000Y-149522768D01*
X131349999Y-149522768D01*
X131283875Y-149533241D01*
X131081784Y-149598903D01*
X130892442Y-149695379D01*
X130720540Y-149820272D01*
X130720535Y-149820276D01*
X130570276Y-149970535D01*
X130570272Y-149970540D01*
X130451105Y-150134560D01*
X130395775Y-150177226D01*
X130326162Y-150183205D01*
X130264367Y-150150599D01*
X130235433Y-150107165D01*
X130184362Y-149977660D01*
X130184361Y-149977658D01*
X130092922Y-149857077D01*
X129972343Y-149765639D01*
X129831561Y-149710122D01*
X129785926Y-149704642D01*
X129743102Y-149699500D01*
X128456898Y-149699500D01*
X128417853Y-149704188D01*
X128368438Y-149710122D01*
X128227656Y-149765639D01*
X128107077Y-149857077D01*
X128015639Y-149977656D01*
X127960122Y-150118438D01*
X127954188Y-150167853D01*
X127949500Y-150206898D01*
X124087463Y-150206898D01*
X124054620Y-150142442D01*
X123929727Y-149970540D01*
X123929723Y-149970535D01*
X123779464Y-149820276D01*
X123779459Y-149820272D01*
X123607557Y-149695379D01*
X123418215Y-149598903D01*
X123216124Y-149533241D01*
X123150000Y-149522768D01*
X123150000Y-150566988D01*
X123092993Y-150534075D01*
X122965826Y-150500000D01*
X122834174Y-150500000D01*
X122707007Y-150534075D01*
X122650000Y-150566988D01*
X122650000Y-149522768D01*
X122649999Y-149522768D01*
X122583875Y-149533241D01*
X122381784Y-149598903D01*
X122192442Y-149695379D01*
X122020540Y-149820272D01*
X122020535Y-149820276D01*
X121870276Y-149970535D01*
X121870272Y-149970540D01*
X121751105Y-150134560D01*
X121695775Y-150177226D01*
X121626162Y-150183205D01*
X121564367Y-150150599D01*
X121535433Y-150107165D01*
X121484362Y-149977660D01*
X121484361Y-149977658D01*
X121392922Y-149857077D01*
X121272343Y-149765639D01*
X121131561Y-149710122D01*
X121085926Y-149704642D01*
X121043102Y-149699500D01*
X119756898Y-149699500D01*
X119717853Y-149704188D01*
X119668438Y-149710122D01*
X119527656Y-149765639D01*
X119407077Y-149857077D01*
X119315639Y-149977656D01*
X119260122Y-150118438D01*
X119254188Y-150167853D01*
X119249500Y-150206898D01*
X115387463Y-150206898D01*
X115354620Y-150142442D01*
X115229727Y-149970540D01*
X115229723Y-149970535D01*
X115079464Y-149820276D01*
X115079459Y-149820272D01*
X114907557Y-149695379D01*
X114718215Y-149598903D01*
X114516124Y-149533241D01*
X114450000Y-149522768D01*
X114450000Y-150566988D01*
X114392993Y-150534075D01*
X114265826Y-150500000D01*
X114134174Y-150500000D01*
X114007007Y-150534075D01*
X113950000Y-150566988D01*
X113950000Y-149522768D01*
X113949999Y-149522768D01*
X113883875Y-149533241D01*
X113681784Y-149598903D01*
X113492442Y-149695379D01*
X113320540Y-149820272D01*
X113320535Y-149820276D01*
X113170276Y-149970535D01*
X113170272Y-149970540D01*
X113051105Y-150134560D01*
X112995775Y-150177226D01*
X112926162Y-150183205D01*
X112864367Y-150150599D01*
X112835433Y-150107165D01*
X112784362Y-149977660D01*
X112784361Y-149977658D01*
X112692922Y-149857077D01*
X112572343Y-149765639D01*
X112431561Y-149710122D01*
X112385926Y-149704642D01*
X112343102Y-149699500D01*
X111056898Y-149699500D01*
X111017853Y-149704188D01*
X110968438Y-149710122D01*
X110827656Y-149765639D01*
X110707077Y-149857077D01*
X110615639Y-149977656D01*
X110560122Y-150118438D01*
X110554188Y-150167853D01*
X110549500Y-150206898D01*
X106687463Y-150206898D01*
X106654620Y-150142442D01*
X106529727Y-149970540D01*
X106529723Y-149970535D01*
X106379464Y-149820276D01*
X106379459Y-149820272D01*
X106207557Y-149695379D01*
X106018215Y-149598903D01*
X105816124Y-149533241D01*
X105750000Y-149522768D01*
X105750000Y-150566988D01*
X105692993Y-150534075D01*
X105565826Y-150500000D01*
X105434174Y-150500000D01*
X105307007Y-150534075D01*
X105250000Y-150566988D01*
X105250000Y-149522768D01*
X105249999Y-149522768D01*
X105183875Y-149533241D01*
X104981784Y-149598903D01*
X104792442Y-149695379D01*
X104620540Y-149820272D01*
X104620535Y-149820276D01*
X104470276Y-149970535D01*
X104470272Y-149970540D01*
X104351105Y-150134560D01*
X104295775Y-150177226D01*
X104226162Y-150183205D01*
X104164367Y-150150599D01*
X104135433Y-150107165D01*
X104084362Y-149977660D01*
X104084361Y-149977658D01*
X103992922Y-149857077D01*
X103872343Y-149765639D01*
X103731561Y-149710122D01*
X103685926Y-149704642D01*
X103643102Y-149699500D01*
X103643097Y-149699500D01*
X103549500Y-149699500D01*
X103482461Y-149679815D01*
X103436706Y-149627011D01*
X103425500Y-149575500D01*
X103425500Y-146994984D01*
X103425500Y-146994982D01*
X103396503Y-146886763D01*
X103340485Y-146789737D01*
X103261263Y-146710515D01*
X103261262Y-146710514D01*
X103256932Y-146706184D01*
X103256921Y-146706174D01*
X101635819Y-145085071D01*
X101602334Y-145023748D01*
X101599500Y-144997390D01*
X101599500Y-144970945D01*
X101599500Y-144970943D01*
X101558577Y-144818216D01*
X101539155Y-144784576D01*
X101479524Y-144681290D01*
X101479518Y-144681282D01*
X101367717Y-144569481D01*
X101367709Y-144569475D01*
X101230790Y-144490426D01*
X101230786Y-144490424D01*
X101230784Y-144490423D01*
X101078057Y-144449500D01*
X100919943Y-144449500D01*
X100767216Y-144490423D01*
X100767209Y-144490426D01*
X100630290Y-144569475D01*
X100630282Y-144569481D01*
X100512733Y-144687031D01*
X100510384Y-144684682D01*
X100466418Y-144716769D01*
X100396671Y-144720906D01*
X100335759Y-144686678D01*
X100303022Y-144624952D01*
X100300500Y-144600069D01*
X100300500Y-143410943D01*
X101934500Y-143410943D01*
X101934500Y-143569057D01*
X101944082Y-143604815D01*
X101975423Y-143721783D01*
X101975426Y-143721790D01*
X102054475Y-143858709D01*
X102054479Y-143858714D01*
X102054480Y-143858716D01*
X102166284Y-143970520D01*
X102166286Y-143970521D01*
X102166290Y-143970524D01*
X102303209Y-144049573D01*
X102303216Y-144049577D01*
X102455943Y-144090500D01*
X102455945Y-144090500D01*
X102614055Y-144090500D01*
X102614057Y-144090500D01*
X102766784Y-144049577D01*
X102903716Y-143970520D01*
X103015520Y-143858716D01*
X103094577Y-143721784D01*
X103135500Y-143569057D01*
X103135500Y-143410943D01*
X103094577Y-143258216D01*
X103083026Y-143238209D01*
X103015524Y-143121290D01*
X103015518Y-143121282D01*
X102996819Y-143102583D01*
X102963334Y-143041260D01*
X102960500Y-143014902D01*
X102960500Y-141055558D01*
X102980185Y-140988519D01*
X102996804Y-140967891D01*
X103257033Y-140707577D01*
X104553240Y-139410943D01*
X105543025Y-138420833D01*
X105604343Y-138387338D01*
X105630721Y-138384500D01*
X105657055Y-138384500D01*
X105657057Y-138384500D01*
X105809784Y-138343577D01*
X105946716Y-138264520D01*
X106058520Y-138152716D01*
X106137577Y-138015784D01*
X106178500Y-137863057D01*
X106178500Y-137704943D01*
X106137577Y-137552216D01*
X106067758Y-137431284D01*
X106058524Y-137415290D01*
X106058518Y-137415282D01*
X105946717Y-137303481D01*
X105946709Y-137303475D01*
X105809790Y-137224426D01*
X105809786Y-137224424D01*
X105809784Y-137224423D01*
X105657057Y-137183500D01*
X105498943Y-137183500D01*
X105346216Y-137224423D01*
X105346209Y-137224426D01*
X105209290Y-137303475D01*
X105209282Y-137303481D01*
X105097481Y-137415282D01*
X105097475Y-137415290D01*
X105018426Y-137552209D01*
X105018423Y-137552216D01*
X104977500Y-137704943D01*
X104977500Y-137731498D01*
X104957815Y-137798537D01*
X104941196Y-137819165D01*
X102381420Y-140379783D01*
X102234032Y-140527219D01*
X102194515Y-140566737D01*
X102194497Y-140566767D01*
X102194472Y-140566793D01*
X102194224Y-140567221D01*
X102194223Y-140567223D01*
X102166449Y-140615347D01*
X102166285Y-140615632D01*
X102138497Y-140663763D01*
X102138487Y-140663797D01*
X102138470Y-140663828D01*
X102123908Y-140718209D01*
X102109500Y-140771982D01*
X102109500Y-140772017D01*
X102109491Y-140772051D01*
X102109491Y-140772126D01*
X102109491Y-140772127D01*
X102109500Y-140828070D01*
X102109500Y-143014902D01*
X102089815Y-143081941D01*
X102073181Y-143102583D01*
X102054481Y-143121282D01*
X102054475Y-143121290D01*
X101975426Y-143258209D01*
X101975423Y-143258216D01*
X101934500Y-143410943D01*
X100300500Y-143410943D01*
X100300500Y-139410943D01*
X100663500Y-139410943D01*
X100663500Y-139569057D01*
X100704139Y-139720722D01*
X100704423Y-139721783D01*
X100704426Y-139721790D01*
X100783475Y-139858709D01*
X100783479Y-139858714D01*
X100783480Y-139858716D01*
X100895284Y-139970520D01*
X100895286Y-139970521D01*
X100895290Y-139970524D01*
X100945841Y-139999709D01*
X101032216Y-140049577D01*
X101184943Y-140090500D01*
X101184945Y-140090500D01*
X101343055Y-140090500D01*
X101343057Y-140090500D01*
X101495784Y-140049577D01*
X101632716Y-139970520D01*
X101744520Y-139858716D01*
X101823577Y-139721784D01*
X101864500Y-139569057D01*
X101864500Y-139542609D01*
X101884185Y-139475570D01*
X101900814Y-139454933D01*
X105402222Y-135953524D01*
X105463545Y-135920040D01*
X105533237Y-135925024D01*
X105551903Y-135933819D01*
X105553216Y-135934577D01*
X105705943Y-135975500D01*
X105705945Y-135975500D01*
X105864055Y-135975500D01*
X105864057Y-135975500D01*
X106016784Y-135934577D01*
X106153716Y-135855520D01*
X106172417Y-135836819D01*
X106233740Y-135803334D01*
X106260098Y-135800500D01*
X109623390Y-135800500D01*
X109690429Y-135820185D01*
X109711071Y-135836819D01*
X112474181Y-138599928D01*
X112488155Y-138625519D01*
X112504547Y-138649649D01*
X112505842Y-138657912D01*
X112507666Y-138661251D01*
X112510460Y-138684444D01*
X112510500Y-138686010D01*
X112510500Y-138714057D01*
X112511291Y-138717010D01*
X112511555Y-138727335D01*
X112504185Y-138755027D01*
X112499770Y-138783348D01*
X112495312Y-138788370D01*
X112493587Y-138794855D01*
X112472418Y-138814165D01*
X112453391Y-138835604D01*
X112446861Y-138837479D01*
X112441968Y-138841943D01*
X112415886Y-138846375D01*
X112387595Y-138854500D01*
X109604609Y-138854500D01*
X109537570Y-138834815D01*
X109516928Y-138818181D01*
X108963271Y-138264524D01*
X108382263Y-137683515D01*
X108285237Y-137627497D01*
X108177018Y-137598500D01*
X108177017Y-137598500D01*
X107480531Y-137598500D01*
X107426114Y-137598483D01*
X107426050Y-137598500D01*
X107425982Y-137598500D01*
X107425979Y-137598500D01*
X107371728Y-137613036D01*
X107371516Y-137613093D01*
X107371514Y-137613094D01*
X107371346Y-137613138D01*
X107370843Y-137613273D01*
X107317886Y-137627446D01*
X107317827Y-137627479D01*
X107317763Y-137627497D01*
X107317492Y-137627653D01*
X107317486Y-137627655D01*
X107269831Y-137655169D01*
X107269801Y-137655187D01*
X107220834Y-137683438D01*
X107220747Y-137683504D01*
X107199308Y-137704943D01*
X107182202Y-137722049D01*
X105963743Y-138939753D01*
X105909254Y-138994208D01*
X105847921Y-139027674D01*
X105821600Y-139030500D01*
X105794943Y-139030500D01*
X105642216Y-139071423D01*
X105642209Y-139071426D01*
X105505290Y-139150475D01*
X105505282Y-139150481D01*
X105393481Y-139262282D01*
X105393475Y-139262290D01*
X105314426Y-139399209D01*
X105314423Y-139399216D01*
X105273500Y-139551943D01*
X105273500Y-139710057D01*
X105313334Y-139858717D01*
X105314423Y-139862783D01*
X105314426Y-139862790D01*
X105393475Y-139999709D01*
X105393479Y-139999714D01*
X105393480Y-139999716D01*
X105505284Y-140111520D01*
X105505286Y-140111521D01*
X105505290Y-140111524D01*
X105642209Y-140190573D01*
X105642216Y-140190577D01*
X105794943Y-140231500D01*
X105794945Y-140231500D01*
X105953055Y-140231500D01*
X105953057Y-140231500D01*
X106105784Y-140190577D01*
X106242716Y-140111520D01*
X106354520Y-139999716D01*
X106433577Y-139862784D01*
X106474500Y-139710057D01*
X106474500Y-139683818D01*
X106494185Y-139616779D01*
X106510843Y-139596112D01*
X107621856Y-138485790D01*
X107648775Y-138471103D01*
X107674575Y-138454523D01*
X107680805Y-138453627D01*
X107683190Y-138452326D01*
X107709510Y-138449500D01*
X107893390Y-138449500D01*
X107960429Y-138469185D01*
X107981071Y-138485819D01*
X109032174Y-139536921D01*
X109032184Y-139536932D01*
X109036514Y-139541262D01*
X109036515Y-139541263D01*
X109115737Y-139620485D01*
X109212763Y-139676503D01*
X109320981Y-139705500D01*
X109320982Y-139705500D01*
X113699982Y-139705500D01*
X114282098Y-139705500D01*
X114311590Y-139714160D01*
X114341624Y-139720722D01*
X114346569Y-139724430D01*
X114349137Y-139725185D01*
X114369859Y-139741899D01*
X114424261Y-139796400D01*
X114457690Y-139857753D01*
X114460500Y-139884001D01*
X114460500Y-139911057D01*
X114497617Y-140049577D01*
X114501423Y-140063783D01*
X114501426Y-140063790D01*
X114580475Y-140200709D01*
X114580479Y-140200714D01*
X114580480Y-140200716D01*
X114692284Y-140312520D01*
X114692286Y-140312521D01*
X114692290Y-140312524D01*
X114808788Y-140379783D01*
X114829216Y-140391577D01*
X114981943Y-140432500D01*
X114981945Y-140432500D01*
X115140055Y-140432500D01*
X115140057Y-140432500D01*
X115292784Y-140391577D01*
X115429716Y-140312520D01*
X115541520Y-140200716D01*
X115620577Y-140063784D01*
X115661500Y-139911057D01*
X115661500Y-139752943D01*
X115620577Y-139600216D01*
X115602587Y-139569056D01*
X115541524Y-139463290D01*
X115541518Y-139463282D01*
X115429717Y-139351481D01*
X115429709Y-139351475D01*
X115292790Y-139272426D01*
X115292786Y-139272424D01*
X115292784Y-139272423D01*
X115140057Y-139231500D01*
X115140056Y-139231500D01*
X115114220Y-139231500D01*
X115084725Y-139222839D01*
X115054695Y-139216278D01*
X115049749Y-139212569D01*
X115047181Y-139211815D01*
X115026459Y-139195102D01*
X114981913Y-139150475D01*
X114856471Y-139024806D01*
X114855895Y-139024147D01*
X114811310Y-138979562D01*
X114811255Y-138979461D01*
X114811233Y-138979484D01*
X114771573Y-138939753D01*
X114771293Y-138939538D01*
X114771292Y-138939537D01*
X114771265Y-138939516D01*
X114755515Y-138930423D01*
X114722936Y-138911613D01*
X114722492Y-138911356D01*
X114674596Y-138883646D01*
X114674407Y-138883595D01*
X114674237Y-138883497D01*
X114674223Y-138883493D01*
X114674221Y-138883492D01*
X114620413Y-138869075D01*
X114620313Y-138869014D01*
X114620305Y-138869046D01*
X114566393Y-138854548D01*
X114566228Y-138854525D01*
X114566065Y-138854504D01*
X114566035Y-138854500D01*
X114566018Y-138854500D01*
X114510386Y-138854500D01*
X114446790Y-138854442D01*
X114445907Y-138854500D01*
X114305500Y-138854500D01*
X114238461Y-138834815D01*
X114192706Y-138782011D01*
X114181500Y-138730500D01*
X114181500Y-138400990D01*
X114181508Y-138400961D01*
X114181500Y-138341207D01*
X114181500Y-138288982D01*
X114181498Y-138288976D01*
X114181493Y-138288935D01*
X114181493Y-138288924D01*
X114166328Y-138232359D01*
X114152503Y-138180763D01*
X114152500Y-138180759D01*
X114152500Y-138180756D01*
X114152481Y-138180709D01*
X114124566Y-138132374D01*
X114124557Y-138132359D01*
X114124206Y-138131751D01*
X114096485Y-138083737D01*
X114096465Y-138083717D01*
X114096450Y-138083691D01*
X114055644Y-138042896D01*
X114044531Y-138031783D01*
X114011950Y-137999201D01*
X114011842Y-137999105D01*
X113754177Y-137741509D01*
X113674590Y-137661943D01*
X124417500Y-137661943D01*
X124417500Y-137820057D01*
X124429022Y-137863055D01*
X124458423Y-137972783D01*
X124458426Y-137972790D01*
X124537475Y-138109709D01*
X124537481Y-138109717D01*
X124556181Y-138128417D01*
X124589666Y-138189740D01*
X124592500Y-138216098D01*
X124592500Y-139289017D01*
X124621497Y-139397236D01*
X124621498Y-139397239D01*
X124629410Y-139410943D01*
X124677515Y-139494263D01*
X124677517Y-139494265D01*
X129373181Y-144189929D01*
X129406666Y-144251252D01*
X129409500Y-144277610D01*
X129409500Y-144304057D01*
X129448472Y-144449500D01*
X129450423Y-144456783D01*
X129450426Y-144456790D01*
X129529475Y-144593709D01*
X129529479Y-144593714D01*
X129529480Y-144593716D01*
X129641284Y-144705520D01*
X129641286Y-144705521D01*
X129641290Y-144705524D01*
X129778209Y-144784573D01*
X129778216Y-144784577D01*
X129930943Y-144825500D01*
X129930945Y-144825500D01*
X130089055Y-144825500D01*
X130089057Y-144825500D01*
X130241784Y-144784577D01*
X130378716Y-144705520D01*
X130490520Y-144593716D01*
X130569577Y-144456784D01*
X130610500Y-144304057D01*
X130610500Y-144145943D01*
X130569577Y-143993216D01*
X130556474Y-143970520D01*
X130490524Y-143856290D01*
X130490518Y-143856282D01*
X130378717Y-143744481D01*
X130378709Y-143744475D01*
X130241790Y-143665426D01*
X130241786Y-143665424D01*
X130241784Y-143665423D01*
X130089057Y-143624500D01*
X130089056Y-143624500D01*
X130062610Y-143624500D01*
X129995571Y-143604815D01*
X129974929Y-143588181D01*
X125479819Y-139093071D01*
X125465115Y-139066143D01*
X125448523Y-139040325D01*
X125447631Y-139034124D01*
X125446334Y-139031748D01*
X125443500Y-139005390D01*
X125443500Y-138776943D01*
X126378500Y-138776943D01*
X126378500Y-138935057D01*
X126413625Y-139066143D01*
X126419423Y-139087783D01*
X126419426Y-139087790D01*
X126498475Y-139224709D01*
X126498479Y-139224714D01*
X126498480Y-139224716D01*
X126610284Y-139336520D01*
X126610286Y-139336521D01*
X126610290Y-139336524D01*
X126747209Y-139415573D01*
X126747216Y-139415577D01*
X126899943Y-139456500D01*
X126899945Y-139456500D01*
X127058055Y-139456500D01*
X127058057Y-139456500D01*
X127210784Y-139415577D01*
X127347716Y-139336520D01*
X127366417Y-139317819D01*
X127427740Y-139284334D01*
X127454098Y-139281500D01*
X130403390Y-139281500D01*
X130470429Y-139301185D01*
X130491071Y-139317819D01*
X134608181Y-143434928D01*
X134641666Y-143496251D01*
X134644500Y-143522609D01*
X134644500Y-143549057D01*
X134659441Y-143604815D01*
X134685423Y-143701783D01*
X134685426Y-143701790D01*
X134764475Y-143838709D01*
X134764479Y-143838714D01*
X134764480Y-143838716D01*
X134876284Y-143950520D01*
X134876286Y-143950521D01*
X134876290Y-143950524D01*
X134910925Y-143970520D01*
X135013216Y-144029577D01*
X135165943Y-144070500D01*
X135165945Y-144070500D01*
X135324055Y-144070500D01*
X135324057Y-144070500D01*
X135476784Y-144029577D01*
X135613716Y-143950520D01*
X135725520Y-143838716D01*
X135804577Y-143701784D01*
X135845500Y-143549057D01*
X135845500Y-143390943D01*
X135804577Y-143238216D01*
X135804573Y-143238209D01*
X135725524Y-143101290D01*
X135725518Y-143101282D01*
X135613717Y-142989481D01*
X135613709Y-142989475D01*
X135476790Y-142910426D01*
X135476786Y-142910424D01*
X135476784Y-142910423D01*
X135324057Y-142869500D01*
X135324056Y-142869500D01*
X135297609Y-142869500D01*
X135230570Y-142849815D01*
X135209928Y-142833181D01*
X130892265Y-138515517D01*
X130892264Y-138515516D01*
X130892263Y-138515515D01*
X130795237Y-138459497D01*
X130687018Y-138430500D01*
X130687017Y-138430500D01*
X127454098Y-138430500D01*
X127387059Y-138410815D01*
X127366417Y-138394181D01*
X127347717Y-138375481D01*
X127347709Y-138375475D01*
X127210790Y-138296426D01*
X127210786Y-138296424D01*
X127210784Y-138296423D01*
X127058057Y-138255500D01*
X126899943Y-138255500D01*
X126747216Y-138296423D01*
X126747209Y-138296426D01*
X126610290Y-138375475D01*
X126610282Y-138375481D01*
X126498481Y-138487282D01*
X126498475Y-138487290D01*
X126419426Y-138624209D01*
X126419423Y-138624216D01*
X126378500Y-138776943D01*
X125443500Y-138776943D01*
X125443500Y-138216098D01*
X125463185Y-138149059D01*
X125479819Y-138128417D01*
X125498520Y-138109716D01*
X125577577Y-137972784D01*
X125618500Y-137820057D01*
X125618500Y-137720943D01*
X131307500Y-137720943D01*
X131307500Y-137879057D01*
X131344138Y-138015790D01*
X131348423Y-138031783D01*
X131348426Y-138031790D01*
X131427475Y-138168709D01*
X131427479Y-138168714D01*
X131427480Y-138168716D01*
X131539284Y-138280520D01*
X131539286Y-138280521D01*
X131539290Y-138280524D01*
X131644398Y-138341207D01*
X131676216Y-138359577D01*
X131828943Y-138400500D01*
X131855390Y-138400500D01*
X131922429Y-138420185D01*
X131943071Y-138436819D01*
X133915515Y-140409263D01*
X133994737Y-140488485D01*
X134029385Y-140508489D01*
X134091763Y-140544503D01*
X134199981Y-140573500D01*
X134199982Y-140573500D01*
X138702902Y-140573500D01*
X138769941Y-140593185D01*
X138790583Y-140609819D01*
X138809284Y-140628520D01*
X138809286Y-140628521D01*
X138809290Y-140628524D01*
X138871342Y-140664349D01*
X138946216Y-140707577D01*
X139098943Y-140748500D01*
X139098945Y-140748500D01*
X139257055Y-140748500D01*
X139257057Y-140748500D01*
X139409784Y-140707577D01*
X139546716Y-140628520D01*
X139658520Y-140516716D01*
X139737577Y-140379784D01*
X139778500Y-140227057D01*
X139778500Y-140068943D01*
X139737577Y-139916216D01*
X139737573Y-139916209D01*
X139658524Y-139779290D01*
X139658518Y-139779282D01*
X139546717Y-139667481D01*
X139546709Y-139667475D01*
X139409790Y-139588426D01*
X139409786Y-139588424D01*
X139409784Y-139588423D01*
X139257057Y-139547500D01*
X139098943Y-139547500D01*
X138946216Y-139588423D01*
X138946209Y-139588426D01*
X138809290Y-139667475D01*
X138809282Y-139667481D01*
X138790583Y-139686181D01*
X138729260Y-139719666D01*
X138702902Y-139722500D01*
X134483610Y-139722500D01*
X134416571Y-139702815D01*
X134395929Y-139686181D01*
X132544819Y-137835071D01*
X132511334Y-137773748D01*
X132508500Y-137747390D01*
X132508500Y-137720945D01*
X132508500Y-137720943D01*
X132467577Y-137568216D01*
X132467573Y-137568209D01*
X132388524Y-137431290D01*
X132388518Y-137431282D01*
X132276717Y-137319481D01*
X132276709Y-137319475D01*
X132139790Y-137240426D01*
X132139786Y-137240424D01*
X132139784Y-137240423D01*
X131987057Y-137199500D01*
X131828943Y-137199500D01*
X131676216Y-137240423D01*
X131676209Y-137240426D01*
X131539290Y-137319475D01*
X131539282Y-137319481D01*
X131427481Y-137431282D01*
X131427475Y-137431290D01*
X131348426Y-137568209D01*
X131348423Y-137568216D01*
X131307500Y-137720943D01*
X125618500Y-137720943D01*
X125618500Y-137661943D01*
X125577577Y-137509216D01*
X125532587Y-137431290D01*
X125498524Y-137372290D01*
X125498518Y-137372282D01*
X125386717Y-137260481D01*
X125386709Y-137260475D01*
X125249790Y-137181426D01*
X125249786Y-137181424D01*
X125249784Y-137181423D01*
X125097057Y-137140500D01*
X124938943Y-137140500D01*
X124786216Y-137181423D01*
X124786209Y-137181426D01*
X124649290Y-137260475D01*
X124649282Y-137260481D01*
X124537481Y-137372282D01*
X124537475Y-137372290D01*
X124458426Y-137509209D01*
X124458423Y-137509216D01*
X124417500Y-137661943D01*
X113674590Y-137661943D01*
X112742904Y-136730509D01*
X112663317Y-136650943D01*
X126572500Y-136650943D01*
X126572500Y-136809056D01*
X126613423Y-136961783D01*
X126613426Y-136961790D01*
X126692475Y-137098709D01*
X126692479Y-137098714D01*
X126692480Y-137098716D01*
X126804284Y-137210520D01*
X126804286Y-137210521D01*
X126804290Y-137210524D01*
X126941209Y-137289573D01*
X126941216Y-137289577D01*
X127093943Y-137330500D01*
X127093945Y-137330500D01*
X127252055Y-137330500D01*
X127252057Y-137330500D01*
X127404784Y-137289577D01*
X127541716Y-137210520D01*
X127653520Y-137098716D01*
X127732577Y-136961784D01*
X127773500Y-136809057D01*
X127773500Y-136782729D01*
X127793185Y-136715690D01*
X127809830Y-136695036D01*
X128752258Y-135752943D01*
X131581500Y-135752943D01*
X131581500Y-135911057D01*
X131598768Y-135975500D01*
X131622423Y-136063783D01*
X131622426Y-136063790D01*
X131701475Y-136200709D01*
X131701479Y-136200714D01*
X131701480Y-136200716D01*
X131813284Y-136312520D01*
X131813286Y-136312521D01*
X131813290Y-136312524D01*
X131950209Y-136391573D01*
X131950216Y-136391577D01*
X132102943Y-136432500D01*
X132102945Y-136432500D01*
X132261055Y-136432500D01*
X132261057Y-136432500D01*
X132413784Y-136391577D01*
X132550716Y-136312520D01*
X132569417Y-136293819D01*
X132630740Y-136260334D01*
X132657098Y-136257500D01*
X136013016Y-136257500D01*
X136013018Y-136257500D01*
X136121237Y-136228503D01*
X136218263Y-136172485D01*
X137164929Y-135225819D01*
X137226252Y-135192334D01*
X137252610Y-135189500D01*
X137279055Y-135189500D01*
X137279057Y-135189500D01*
X137431784Y-135148577D01*
X137568716Y-135069520D01*
X137680520Y-134957716D01*
X137759577Y-134820784D01*
X137800500Y-134668057D01*
X137800500Y-134509943D01*
X137759577Y-134357216D01*
X137717720Y-134284717D01*
X137680524Y-134220290D01*
X137680518Y-134220282D01*
X137568717Y-134108481D01*
X137568709Y-134108475D01*
X137431790Y-134029426D01*
X137431786Y-134029424D01*
X137431784Y-134029423D01*
X137279057Y-133988500D01*
X137120943Y-133988500D01*
X136968216Y-134029423D01*
X136968209Y-134029426D01*
X136831290Y-134108475D01*
X136831282Y-134108481D01*
X136719481Y-134220282D01*
X136719475Y-134220290D01*
X136640426Y-134357209D01*
X136640423Y-134357216D01*
X136599500Y-134509943D01*
X136599500Y-134536390D01*
X136579815Y-134603429D01*
X136563181Y-134624071D01*
X135817071Y-135370181D01*
X135755748Y-135403666D01*
X135729390Y-135406500D01*
X132657098Y-135406500D01*
X132590059Y-135386815D01*
X132569417Y-135370181D01*
X132550717Y-135351481D01*
X132550709Y-135351475D01*
X132413790Y-135272426D01*
X132413786Y-135272424D01*
X132413784Y-135272423D01*
X132261057Y-135231500D01*
X132102943Y-135231500D01*
X131950216Y-135272423D01*
X131950209Y-135272426D01*
X131813290Y-135351475D01*
X131813282Y-135351481D01*
X131701481Y-135463282D01*
X131701475Y-135463290D01*
X131622426Y-135600209D01*
X131622423Y-135600216D01*
X131581500Y-135752943D01*
X128752258Y-135752943D01*
X129952825Y-134552802D01*
X130014154Y-134519329D01*
X130040491Y-134516500D01*
X130067055Y-134516500D01*
X130067057Y-134516500D01*
X130219784Y-134475577D01*
X130356716Y-134396520D01*
X130468520Y-134284716D01*
X130547577Y-134147784D01*
X130588500Y-133995057D01*
X130588500Y-133836943D01*
X130547577Y-133684216D01*
X130504371Y-133609380D01*
X130468524Y-133547290D01*
X130468518Y-133547282D01*
X130356717Y-133435481D01*
X130356709Y-133435475D01*
X130219790Y-133356426D01*
X130219786Y-133356424D01*
X130219784Y-133356423D01*
X130067057Y-133315500D01*
X129908943Y-133315500D01*
X129756216Y-133356423D01*
X129756209Y-133356426D01*
X129619290Y-133435475D01*
X129619282Y-133435481D01*
X129507481Y-133547282D01*
X129507475Y-133547290D01*
X129428426Y-133684209D01*
X129428423Y-133684216D01*
X129387500Y-133836943D01*
X129387500Y-133863269D01*
X129367815Y-133930308D01*
X129351166Y-133950966D01*
X128746975Y-134554943D01*
X127347897Y-135953525D01*
X127208175Y-136093197D01*
X127146846Y-136126671D01*
X127120509Y-136129500D01*
X127093943Y-136129500D01*
X126941216Y-136170423D01*
X126941209Y-136170426D01*
X126804290Y-136249475D01*
X126804282Y-136249481D01*
X126692481Y-136361282D01*
X126692475Y-136361290D01*
X126613426Y-136498209D01*
X126613423Y-136498216D01*
X126572500Y-136650943D01*
X112663317Y-136650943D01*
X110680831Y-134668992D01*
X110647337Y-134607673D01*
X110644500Y-134581299D01*
X110644500Y-134554945D01*
X110644500Y-134554943D01*
X110603577Y-134402216D01*
X110600291Y-134396524D01*
X110524524Y-134265290D01*
X110524518Y-134265282D01*
X110412717Y-134153481D01*
X110412709Y-134153475D01*
X110275790Y-134074426D01*
X110275786Y-134074424D01*
X110275784Y-134074423D01*
X110123057Y-134033500D01*
X109964943Y-134033500D01*
X109812216Y-134074423D01*
X109812209Y-134074426D01*
X109675290Y-134153475D01*
X109675282Y-134153481D01*
X109563481Y-134265282D01*
X109563475Y-134265290D01*
X109484426Y-134402209D01*
X109484423Y-134402216D01*
X109443500Y-134554943D01*
X109443500Y-134713056D01*
X109465030Y-134793407D01*
X109463367Y-134863256D01*
X109424204Y-134921119D01*
X109359976Y-134948623D01*
X109345255Y-134949500D01*
X106260098Y-134949500D01*
X106193059Y-134929815D01*
X106172417Y-134913181D01*
X106153717Y-134894481D01*
X106153709Y-134894475D01*
X106016790Y-134815426D01*
X106016786Y-134815424D01*
X106016784Y-134815423D01*
X105864057Y-134774500D01*
X105705943Y-134774500D01*
X105553216Y-134815423D01*
X105553209Y-134815426D01*
X105416290Y-134894475D01*
X105416286Y-134894478D01*
X105396830Y-134913934D01*
X105335506Y-134947418D01*
X105325339Y-134949190D01*
X105322981Y-134949500D01*
X105214763Y-134978497D01*
X105214760Y-134978498D01*
X105117740Y-135034513D01*
X105117734Y-135034517D01*
X101299071Y-138853181D01*
X101237748Y-138886666D01*
X101211390Y-138889500D01*
X101184943Y-138889500D01*
X101032216Y-138930423D01*
X101032209Y-138930426D01*
X100895290Y-139009475D01*
X100895282Y-139009481D01*
X100783481Y-139121282D01*
X100783475Y-139121290D01*
X100704426Y-139258209D01*
X100704423Y-139258216D01*
X100663500Y-139410943D01*
X100300500Y-139410943D01*
X100300500Y-132323999D01*
X100320185Y-132256960D01*
X100372989Y-132211205D01*
X100424500Y-132199999D01*
X106099207Y-132199999D01*
X106166246Y-132219684D01*
X106212001Y-132272488D01*
X106221945Y-132341646D01*
X106192920Y-132405202D01*
X106134142Y-132442976D01*
X106131333Y-132443764D01*
X106110216Y-132449423D01*
X106110209Y-132449426D01*
X105973290Y-132528475D01*
X105973282Y-132528481D01*
X105861481Y-132640282D01*
X105861475Y-132640290D01*
X105782426Y-132777209D01*
X105782423Y-132777216D01*
X105741500Y-132929943D01*
X105741500Y-133088057D01*
X105753324Y-133132182D01*
X105782423Y-133240783D01*
X105782426Y-133240790D01*
X105861475Y-133377709D01*
X105861479Y-133377714D01*
X105861480Y-133377716D01*
X105973284Y-133489520D01*
X105973286Y-133489521D01*
X105973290Y-133489524D01*
X106073335Y-133547284D01*
X106110216Y-133568577D01*
X106262943Y-133609500D01*
X106262945Y-133609500D01*
X106421055Y-133609500D01*
X106421057Y-133609500D01*
X106573784Y-133568577D01*
X106710716Y-133489520D01*
X106729417Y-133470819D01*
X106790740Y-133437334D01*
X106817098Y-133434500D01*
X118004203Y-133434500D01*
X118004417Y-133434557D01*
X118060435Y-133434500D01*
X118116018Y-133434500D01*
X118116026Y-133434500D01*
X118116451Y-133434443D01*
X118116454Y-133434443D01*
X118170826Y-133419814D01*
X118224237Y-133405503D01*
X118224427Y-133405392D01*
X118224643Y-133405335D01*
X118265002Y-133381977D01*
X118272978Y-133377362D01*
X118273089Y-133377298D01*
X118285665Y-133370036D01*
X118321263Y-133349485D01*
X118321273Y-133349474D01*
X118321309Y-133349448D01*
X118321521Y-133349285D01*
X118321596Y-133349225D01*
X118321612Y-133349217D01*
X118361111Y-133309636D01*
X118400485Y-133270263D01*
X118400595Y-133270071D01*
X118553379Y-133116973D01*
X118614667Y-133083426D01*
X118684364Y-133088339D01*
X118740340Y-133130153D01*
X118741718Y-133132182D01*
X118741758Y-133132154D01*
X118744621Y-133136095D01*
X118744622Y-133136096D01*
X118853379Y-133285787D01*
X118984213Y-133416621D01*
X119133904Y-133525378D01*
X119176893Y-133547282D01*
X119298764Y-133609379D01*
X119298767Y-133609380D01*
X119386750Y-133637967D01*
X119474736Y-133666555D01*
X119657486Y-133695500D01*
X119657487Y-133695500D01*
X120342513Y-133695500D01*
X120342514Y-133695500D01*
X120525264Y-133666555D01*
X120701235Y-133609379D01*
X120866096Y-133525378D01*
X121015787Y-133416621D01*
X121146621Y-133285787D01*
X121255378Y-133136096D01*
X121339379Y-132971235D01*
X121396555Y-132795264D01*
X121425500Y-132612514D01*
X121425500Y-132427486D01*
X121396555Y-132244736D01*
X121352512Y-132109185D01*
X121339380Y-132068767D01*
X121339379Y-132068764D01*
X121255377Y-131903903D01*
X121146621Y-131754213D01*
X121015787Y-131623379D01*
X120866096Y-131514622D01*
X120866092Y-131514620D01*
X120783304Y-131472437D01*
X120732508Y-131424462D01*
X120715713Y-131356641D01*
X120738251Y-131290506D01*
X120783304Y-131251467D01*
X120970657Y-131156005D01*
X121145754Y-131028788D01*
X121145755Y-131028788D01*
X121298788Y-130875755D01*
X121298788Y-130875754D01*
X121426005Y-130700657D01*
X121524263Y-130507817D01*
X121524264Y-130507814D01*
X121591142Y-130301983D01*
X121591142Y-130301980D01*
X121602543Y-130230000D01*
X120476314Y-130230000D01*
X120500870Y-130187467D01*
X120537500Y-130050763D01*
X120537500Y-129909237D01*
X120500870Y-129772533D01*
X120476314Y-129730000D01*
X121602543Y-129730000D01*
X121591142Y-129658019D01*
X121591142Y-129658016D01*
X121524264Y-129452185D01*
X121524263Y-129452182D01*
X121426005Y-129259342D01*
X121298788Y-129084245D01*
X121298788Y-129084244D01*
X121145755Y-128931211D01*
X120970657Y-128803994D01*
X120783304Y-128708532D01*
X120776355Y-128701969D01*
X120767336Y-128698814D01*
X120751368Y-128678370D01*
X120732508Y-128660557D01*
X120730210Y-128651280D01*
X120724329Y-128643750D01*
X120721949Y-128617918D01*
X120715713Y-128592736D01*
X120718795Y-128583690D01*
X120717919Y-128574175D01*
X120729882Y-128551156D01*
X120738251Y-128526601D01*
X120746591Y-128519007D01*
X120750141Y-128512179D01*
X120771545Y-128496291D01*
X120777957Y-128490454D01*
X120780589Y-128488945D01*
X120866096Y-128445378D01*
X120901379Y-128419742D01*
X120907202Y-128416407D01*
X120934920Y-128409780D01*
X120961765Y-128400202D01*
X120968844Y-128400000D01*
X121876000Y-128400000D01*
X121943039Y-128419685D01*
G37*
%TD.AperFunction*%
%TA.AperFunction,Conductor*%
G36*
X119045283Y-128404148D02*
G01*
X119059989Y-128403399D01*
X119092798Y-128416407D01*
X119098620Y-128419742D01*
X119133904Y-128445378D01*
X119219401Y-128488941D01*
X119222042Y-128490454D01*
X119244210Y-128513549D01*
X119267491Y-128535537D01*
X119268247Y-128538591D01*
X119270426Y-128540861D01*
X119276590Y-128572281D01*
X119284286Y-128603358D01*
X119283271Y-128606335D01*
X119283877Y-128609423D01*
X119272077Y-128639183D01*
X119261749Y-128669492D01*
X119259284Y-128671449D01*
X119258125Y-128674374D01*
X119216696Y-128708531D01*
X119029344Y-128803992D01*
X118854245Y-128931211D01*
X118854244Y-128931211D01*
X118701211Y-129084244D01*
X118701211Y-129084245D01*
X118573994Y-129259342D01*
X118475736Y-129452182D01*
X118475735Y-129452185D01*
X118408857Y-129658016D01*
X118408857Y-129658019D01*
X118397457Y-129730000D01*
X119523686Y-129730000D01*
X119499130Y-129772533D01*
X119462500Y-129909237D01*
X119462500Y-130050763D01*
X119499130Y-130187467D01*
X119523686Y-130230000D01*
X118397457Y-130230000D01*
X118408857Y-130301980D01*
X118408857Y-130301983D01*
X118475735Y-130507814D01*
X118475736Y-130507817D01*
X118573994Y-130700657D01*
X118701211Y-130875754D01*
X118701211Y-130875755D01*
X118854244Y-131028788D01*
X119029342Y-131156005D01*
X119216695Y-131251467D01*
X119267491Y-131299442D01*
X119284286Y-131367263D01*
X119261748Y-131433398D01*
X119216696Y-131472436D01*
X119133906Y-131514620D01*
X119059058Y-131569000D01*
X118984213Y-131623379D01*
X118984211Y-131623381D01*
X118984210Y-131623381D01*
X118853381Y-131754210D01*
X118853381Y-131754211D01*
X118853379Y-131754213D01*
X118806672Y-131818499D01*
X118744622Y-131903903D01*
X118682018Y-132026770D01*
X118671610Y-132037789D01*
X118665330Y-132051580D01*
X118648109Y-132062672D01*
X118634043Y-132077566D01*
X118618408Y-132081803D01*
X118606591Y-132089416D01*
X118571662Y-132094475D01*
X118547719Y-132094499D01*
X118547564Y-132094500D01*
X118491965Y-132094500D01*
X118491838Y-132094517D01*
X118491837Y-132094516D01*
X118491550Y-132094555D01*
X118437296Y-132109152D01*
X118416974Y-132114597D01*
X118383752Y-132123499D01*
X118383720Y-132123513D01*
X118383441Y-132123629D01*
X118383369Y-132123658D01*
X118335330Y-132151459D01*
X118335222Y-132151521D01*
X118286735Y-132179515D01*
X118286492Y-132179701D01*
X118286472Y-132179717D01*
X118286397Y-132179774D01*
X118247308Y-132218942D01*
X118247221Y-132219029D01*
X118211682Y-132254569D01*
X118150360Y-132288055D01*
X118081609Y-132283138D01*
X118090022Y-132341646D01*
X118060997Y-132405202D01*
X118055055Y-132411590D01*
X118022937Y-132443774D01*
X117938404Y-132528481D01*
X117919832Y-132547091D01*
X117858544Y-132580639D01*
X117832061Y-132583500D01*
X106817098Y-132583500D01*
X106750059Y-132563815D01*
X106729417Y-132547181D01*
X106710717Y-132528481D01*
X106710709Y-132528475D01*
X106573790Y-132449426D01*
X106573786Y-132449424D01*
X106573784Y-132449423D01*
X106552698Y-132443773D01*
X106493039Y-132407409D01*
X106462510Y-132344562D01*
X106470805Y-132275187D01*
X106515290Y-132221309D01*
X106581842Y-132200034D01*
X106584793Y-132199999D01*
X117967284Y-132199999D01*
X118014541Y-132213875D01*
X118000316Y-132175737D01*
X118000000Y-132166889D01*
X118000000Y-128524000D01*
X118019685Y-128456961D01*
X118072489Y-128411206D01*
X118124000Y-128400000D01*
X119031156Y-128400000D01*
X119045283Y-128404148D01*
G37*
%TD.AperFunction*%
%TD*%
%TA.AperFunction,Conductor*%
%TO.N,/GND*%
G36*
X146534075Y-108732993D02*
G01*
X146599901Y-108847007D01*
X146692993Y-108940099D01*
X146807007Y-109005925D01*
X146870590Y-109022962D01*
X146238282Y-109655269D01*
X146238282Y-109655270D01*
X146292449Y-109694624D01*
X146481780Y-109791094D01*
X146510705Y-109800492D01*
X146568381Y-109839929D01*
X146595580Y-109904287D01*
X146583667Y-109973134D01*
X146536424Y-110024610D01*
X146528685Y-110028908D01*
X146397004Y-110096004D01*
X146250505Y-110202441D01*
X146250500Y-110202445D01*
X146122445Y-110330500D01*
X146122441Y-110330505D01*
X146016006Y-110477002D01*
X145933788Y-110638360D01*
X145933787Y-110638363D01*
X145877829Y-110810589D01*
X145852473Y-110970678D01*
X145822544Y-111033813D01*
X145763232Y-111070744D01*
X145693369Y-111069746D01*
X145635137Y-111031136D01*
X145607527Y-110970678D01*
X145593740Y-110883639D01*
X145582171Y-110810591D01*
X145533224Y-110659945D01*
X145526212Y-110638363D01*
X145526211Y-110638360D01*
X145497740Y-110582484D01*
X145443996Y-110477006D01*
X145366463Y-110370290D01*
X145337558Y-110330505D01*
X145337554Y-110330500D01*
X145209499Y-110202445D01*
X145209494Y-110202441D01*
X145062995Y-110096004D01*
X144931314Y-110028908D01*
X144880519Y-109980934D01*
X144863724Y-109913113D01*
X144886262Y-109846978D01*
X144940977Y-109803527D01*
X144949295Y-109800492D01*
X144978217Y-109791095D01*
X145167554Y-109694622D01*
X145221716Y-109655270D01*
X145221717Y-109655270D01*
X144589408Y-109022962D01*
X144652993Y-109005925D01*
X144767007Y-108940099D01*
X144860099Y-108847007D01*
X144925925Y-108732993D01*
X144942962Y-108669409D01*
X145575270Y-109301717D01*
X145575270Y-109301716D01*
X145614622Y-109247554D01*
X145619514Y-109237954D01*
X145667488Y-109187157D01*
X145735308Y-109170361D01*
X145801444Y-109192897D01*
X145840486Y-109237954D01*
X145845375Y-109247550D01*
X145884728Y-109301716D01*
X146517037Y-108669408D01*
X146534075Y-108732993D01*
G37*
%TD.AperFunction*%
%TA.AperFunction,Conductor*%
G36*
X145762130Y-106038661D02*
G01*
X145820363Y-106077271D01*
X145848477Y-106141234D01*
X145849500Y-106157127D01*
X145849500Y-106894856D01*
X145849502Y-106894882D01*
X145852413Y-106919987D01*
X145852415Y-106919991D01*
X145897793Y-107022764D01*
X145897794Y-107022765D01*
X145977235Y-107102206D01*
X146080009Y-107147585D01*
X146105135Y-107150500D01*
X146236923Y-107150499D01*
X146303960Y-107170183D01*
X146349715Y-107222987D01*
X146359659Y-107292145D01*
X146330635Y-107355701D01*
X146296387Y-107382507D01*
X146296590Y-107382838D01*
X146293715Y-107384599D01*
X146293239Y-107384972D01*
X146292451Y-107385373D01*
X146292440Y-107385380D01*
X146238282Y-107424727D01*
X146238282Y-107424728D01*
X146870591Y-108057037D01*
X146807007Y-108074075D01*
X146692993Y-108139901D01*
X146599901Y-108232993D01*
X146534075Y-108347007D01*
X146517037Y-108410591D01*
X145884728Y-107778282D01*
X145884727Y-107778282D01*
X145845380Y-107832440D01*
X145840483Y-107842051D01*
X145792506Y-107892845D01*
X145724684Y-107909638D01*
X145658550Y-107887098D01*
X145619516Y-107842048D01*
X145614626Y-107832452D01*
X145575270Y-107778282D01*
X145575269Y-107778282D01*
X144942962Y-108410590D01*
X144925925Y-108347007D01*
X144860099Y-108232993D01*
X144767007Y-108139901D01*
X144652993Y-108074075D01*
X144589409Y-108057037D01*
X145221716Y-107424728D01*
X145167550Y-107385375D01*
X144978217Y-107288904D01*
X144949292Y-107279506D01*
X144891616Y-107240068D01*
X144864418Y-107175710D01*
X144876333Y-107106863D01*
X144923577Y-107055388D01*
X144931315Y-107051090D01*
X145062994Y-106983996D01*
X145209501Y-106877553D01*
X145337553Y-106749501D01*
X145443996Y-106602994D01*
X145526211Y-106441639D01*
X145582171Y-106269409D01*
X145603027Y-106137729D01*
X145632956Y-106074595D01*
X145692267Y-106037663D01*
X145762130Y-106038661D01*
G37*
%TD.AperFunction*%
%TA.AperFunction,Conductor*%
G36*
X172443039Y-100320185D02*
G01*
X172488794Y-100372989D01*
X172500000Y-100424500D01*
X172500000Y-130500000D01*
X187575500Y-130500000D01*
X187642539Y-130519685D01*
X187688294Y-130572489D01*
X187699500Y-130624000D01*
X187699500Y-153995572D01*
X187699184Y-154004419D01*
X187682833Y-154233019D01*
X187680315Y-154250530D01*
X187632544Y-154470133D01*
X187627560Y-154487109D01*
X187549016Y-154697691D01*
X187541666Y-154713783D01*
X187433961Y-154911032D01*
X187424396Y-154925917D01*
X187289708Y-155105838D01*
X187278122Y-155119208D01*
X187119208Y-155278122D01*
X187105838Y-155289708D01*
X186925917Y-155424396D01*
X186911032Y-155433961D01*
X186713783Y-155541666D01*
X186697691Y-155549016D01*
X186487109Y-155627560D01*
X186470133Y-155632544D01*
X186250530Y-155680315D01*
X186233019Y-155682833D01*
X186025320Y-155697688D01*
X186004417Y-155699184D01*
X185995572Y-155699500D01*
X144624000Y-155699500D01*
X144556961Y-155679815D01*
X144511206Y-155627011D01*
X144500000Y-155575500D01*
X144500000Y-152381995D01*
X182699500Y-152381995D01*
X182699500Y-152618004D01*
X182699501Y-152618020D01*
X182730306Y-152852010D01*
X182791394Y-153079993D01*
X182881714Y-153298045D01*
X182881719Y-153298056D01*
X182952677Y-153420957D01*
X182999727Y-153502450D01*
X182999729Y-153502453D01*
X182999730Y-153502454D01*
X183143406Y-153689697D01*
X183143412Y-153689704D01*
X183310295Y-153856587D01*
X183310301Y-153856592D01*
X183497550Y-154000273D01*
X183628918Y-154076118D01*
X183701943Y-154118280D01*
X183701948Y-154118282D01*
X183701951Y-154118284D01*
X183920007Y-154208606D01*
X184147986Y-154269693D01*
X184381989Y-154300500D01*
X184381996Y-154300500D01*
X184618004Y-154300500D01*
X184618011Y-154300500D01*
X184852014Y-154269693D01*
X185079993Y-154208606D01*
X185298049Y-154118284D01*
X185502450Y-154000273D01*
X185689699Y-153856592D01*
X185856592Y-153689699D01*
X186000273Y-153502450D01*
X186118284Y-153298049D01*
X186208606Y-153079993D01*
X186269693Y-152852014D01*
X186300500Y-152618011D01*
X186300500Y-152381989D01*
X186269693Y-152147986D01*
X186208606Y-151920007D01*
X186118284Y-151701951D01*
X186118282Y-151701948D01*
X186118280Y-151701943D01*
X186069474Y-151617409D01*
X186000273Y-151497550D01*
X185856592Y-151310301D01*
X185856587Y-151310295D01*
X185689704Y-151143412D01*
X185689697Y-151143406D01*
X185502454Y-150999730D01*
X185502453Y-150999729D01*
X185502450Y-150999727D01*
X185402194Y-150941844D01*
X185298056Y-150881719D01*
X185298045Y-150881714D01*
X185079993Y-150791394D01*
X184852010Y-150730306D01*
X184618020Y-150699501D01*
X184618017Y-150699500D01*
X184618011Y-150699500D01*
X184381989Y-150699500D01*
X184381983Y-150699500D01*
X184381979Y-150699501D01*
X184147989Y-150730306D01*
X183920006Y-150791394D01*
X183701954Y-150881714D01*
X183701943Y-150881719D01*
X183497545Y-150999730D01*
X183310302Y-151143406D01*
X183310295Y-151143412D01*
X183143412Y-151310295D01*
X183143406Y-151310302D01*
X182999730Y-151497545D01*
X182881719Y-151701943D01*
X182881714Y-151701954D01*
X182791394Y-151920006D01*
X182730306Y-152147989D01*
X182699501Y-152381979D01*
X182699500Y-152381995D01*
X144500000Y-152381995D01*
X144500000Y-149256900D01*
X145849500Y-149256900D01*
X145849500Y-151543091D01*
X145860123Y-151631562D01*
X145915639Y-151772342D01*
X145915640Y-151772344D01*
X146007077Y-151892922D01*
X146071166Y-151941522D01*
X146127658Y-151984361D01*
X146268436Y-152039876D01*
X146356901Y-152050500D01*
X148643098Y-152050499D01*
X148731564Y-152039876D01*
X148872342Y-151984361D01*
X148992922Y-151892922D01*
X149084361Y-151772342D01*
X149139876Y-151631564D01*
X149150500Y-151543099D01*
X149150499Y-150278751D01*
X149610000Y-150278751D01*
X149610000Y-150521248D01*
X149610001Y-150521264D01*
X149641653Y-150761687D01*
X149704421Y-150995939D01*
X149797220Y-151219978D01*
X149797227Y-151219992D01*
X149918481Y-151430010D01*
X149987061Y-151519384D01*
X150705884Y-150800560D01*
X150706740Y-150802626D01*
X150799762Y-150941844D01*
X150918156Y-151060238D01*
X151057374Y-151153260D01*
X151059437Y-151154114D01*
X150340614Y-151872936D01*
X150340614Y-151872937D01*
X150429989Y-151941517D01*
X150429996Y-151941522D01*
X150640007Y-152062772D01*
X150640021Y-152062779D01*
X150864060Y-152155578D01*
X151098312Y-152218346D01*
X151338735Y-152249998D01*
X151338752Y-152250000D01*
X151581248Y-152250000D01*
X151581264Y-152249998D01*
X151821687Y-152218346D01*
X152055939Y-152155578D01*
X152279978Y-152062779D01*
X152279992Y-152062772D01*
X152490016Y-151941515D01*
X152579384Y-151872939D01*
X152579384Y-151872936D01*
X151860562Y-151154114D01*
X151862626Y-151153260D01*
X152001844Y-151060238D01*
X152120238Y-150941844D01*
X152213260Y-150802626D01*
X152214114Y-150800562D01*
X152932936Y-151519384D01*
X152932939Y-151519384D01*
X153001515Y-151430016D01*
X153122772Y-151219992D01*
X153122779Y-151219978D01*
X153215578Y-150995939D01*
X153278346Y-150761687D01*
X153309998Y-150521264D01*
X153310000Y-150521248D01*
X153310000Y-150278751D01*
X153309998Y-150278735D01*
X153278346Y-150038312D01*
X153215578Y-149804060D01*
X153122779Y-149580021D01*
X153122772Y-149580007D01*
X153001522Y-149369996D01*
X153001517Y-149369989D01*
X152932937Y-149280614D01*
X152932936Y-149280614D01*
X152214114Y-149999436D01*
X152213260Y-149997374D01*
X152120238Y-149858156D01*
X152001844Y-149739762D01*
X151862626Y-149646740D01*
X151860560Y-149645884D01*
X152579384Y-148927061D01*
X152490010Y-148858481D01*
X152279992Y-148737227D01*
X152279978Y-148737220D01*
X152055939Y-148644421D01*
X151821687Y-148581653D01*
X151581264Y-148550001D01*
X151581248Y-148550000D01*
X151338752Y-148550000D01*
X151338735Y-148550001D01*
X151098312Y-148581653D01*
X150864060Y-148644421D01*
X150640021Y-148737220D01*
X150640006Y-148737227D01*
X150429990Y-148858480D01*
X150340614Y-148927060D01*
X150340614Y-148927061D01*
X151059438Y-149645885D01*
X151057374Y-149646740D01*
X150918156Y-149739762D01*
X150799762Y-149858156D01*
X150706740Y-149997374D01*
X150705885Y-149999438D01*
X149987061Y-149280614D01*
X149987060Y-149280614D01*
X149918480Y-149369990D01*
X149797227Y-149580006D01*
X149797220Y-149580021D01*
X149704421Y-149804060D01*
X149641653Y-150038312D01*
X149610001Y-150278735D01*
X149610000Y-150278751D01*
X149150499Y-150278751D01*
X149150499Y-149256902D01*
X149139876Y-149168436D01*
X149084361Y-149027658D01*
X149008076Y-148927061D01*
X148992922Y-148907077D01*
X148872344Y-148815640D01*
X148872342Y-148815639D01*
X148731564Y-148760124D01*
X148731561Y-148760123D01*
X148643099Y-148749500D01*
X146356908Y-148749500D01*
X146268437Y-148760123D01*
X146127657Y-148815639D01*
X146127655Y-148815640D01*
X146007077Y-148907077D01*
X145915640Y-149027655D01*
X145860124Y-149168437D01*
X145860123Y-149168438D01*
X145849500Y-149256900D01*
X144500000Y-149256900D01*
X144500000Y-128818597D01*
X144519685Y-128751558D01*
X144572489Y-128705803D01*
X144641647Y-128695859D01*
X144705203Y-128724884D01*
X144711681Y-128730916D01*
X148503181Y-132522416D01*
X148536666Y-132583739D01*
X148539500Y-132610097D01*
X148539500Y-136953056D01*
X148580423Y-137105783D01*
X148580426Y-137105790D01*
X148659475Y-137242709D01*
X148659479Y-137242714D01*
X148659480Y-137242716D01*
X148771284Y-137354520D01*
X148771286Y-137354521D01*
X148771290Y-137354524D01*
X148878781Y-137416583D01*
X148908216Y-137433577D01*
X149060943Y-137474500D01*
X149060945Y-137474500D01*
X149219055Y-137474500D01*
X149219057Y-137474500D01*
X149371784Y-137433577D01*
X149508716Y-137354520D01*
X149620520Y-137242716D01*
X149699577Y-137105784D01*
X149740500Y-136953057D01*
X149740500Y-132230943D01*
X149713709Y-132130956D01*
X149699577Y-132078215D01*
X149664137Y-132016832D01*
X149664137Y-132016831D01*
X149620522Y-131941287D01*
X149620521Y-131941286D01*
X149620520Y-131941284D01*
X149508716Y-131829480D01*
X149508715Y-131829479D01*
X149504385Y-131825149D01*
X149504374Y-131825139D01*
X130831590Y-113152355D01*
X130831588Y-113152352D01*
X130712717Y-113033481D01*
X130712716Y-113033480D01*
X130625904Y-112983360D01*
X130625904Y-112983359D01*
X130625900Y-112983358D01*
X130575785Y-112954423D01*
X130423057Y-112913499D01*
X130264943Y-112913499D01*
X130157587Y-112942265D01*
X130112210Y-112954424D01*
X130112209Y-112954425D01*
X130062096Y-112983359D01*
X130062095Y-112983360D01*
X130018689Y-113008420D01*
X129975285Y-113033479D01*
X129975282Y-113033481D01*
X129863481Y-113145282D01*
X129863479Y-113145285D01*
X129813361Y-113232094D01*
X129813359Y-113232096D01*
X129784425Y-113282209D01*
X129784424Y-113282210D01*
X129774432Y-113319500D01*
X129743499Y-113434943D01*
X129743499Y-113434945D01*
X129743499Y-113593054D01*
X129743498Y-113593054D01*
X129784422Y-113745783D01*
X129810304Y-113790611D01*
X129810306Y-113790614D01*
X129863479Y-113882714D01*
X129863481Y-113882717D01*
X129982349Y-114001585D01*
X129982355Y-114001590D01*
X144169084Y-128188319D01*
X144202569Y-128249642D01*
X144197585Y-128319334D01*
X144155713Y-128375267D01*
X144090249Y-128399684D01*
X144081403Y-128400000D01*
X124617086Y-128400000D01*
X124550047Y-128380315D01*
X124504292Y-128327511D01*
X124494504Y-128294699D01*
X124478276Y-128188319D01*
X124448237Y-127991396D01*
X124437031Y-127939885D01*
X124426006Y-127900900D01*
X124353357Y-127644013D01*
X124353355Y-127644009D01*
X124332009Y-127593499D01*
X124230874Y-127354183D01*
X124073033Y-127081994D01*
X123882323Y-126831734D01*
X123836568Y-126778930D01*
X123819517Y-126760563D01*
X123719772Y-126653120D01*
X123719767Y-126653116D01*
X123719762Y-126653110D01*
X123484341Y-126444358D01*
X123224613Y-126266757D01*
X123216817Y-126262756D01*
X123067388Y-126186078D01*
X123016730Y-126137958D01*
X123000000Y-126075755D01*
X123000000Y-125600000D01*
X121749000Y-125600000D01*
X121681961Y-125580315D01*
X121636206Y-125527511D01*
X121625000Y-125476000D01*
X121625000Y-125163598D01*
X121644685Y-125096559D01*
X121697489Y-125050804D01*
X121766647Y-125040860D01*
X121830203Y-125069885D01*
X121836681Y-125075917D01*
X121841480Y-125080716D01*
X121953284Y-125192520D01*
X121953286Y-125192521D01*
X121953290Y-125192524D01*
X122090209Y-125271573D01*
X122090216Y-125271577D01*
X122242943Y-125312500D01*
X122242945Y-125312500D01*
X122401055Y-125312500D01*
X122401057Y-125312500D01*
X122553784Y-125271577D01*
X122690716Y-125192520D01*
X122802520Y-125080716D01*
X122881577Y-124943784D01*
X122922500Y-124791057D01*
X122922500Y-124376943D01*
X122900748Y-124295763D01*
X122881577Y-124224215D01*
X122844028Y-124159179D01*
X122844028Y-124159178D01*
X122802522Y-124087287D01*
X122802521Y-124087286D01*
X122802520Y-124087284D01*
X122690716Y-123975480D01*
X122690715Y-123975479D01*
X122686385Y-123971149D01*
X122686374Y-123971139D01*
X122166178Y-123450943D01*
X132354500Y-123450943D01*
X132354500Y-123609057D01*
X132376043Y-123689454D01*
X132395423Y-123761783D01*
X132395426Y-123761790D01*
X132474475Y-123898709D01*
X132474481Y-123898717D01*
X132493181Y-123917417D01*
X132526666Y-123978740D01*
X132529500Y-124005098D01*
X132529500Y-126364139D01*
X132529460Y-126364289D01*
X132529500Y-126420307D01*
X132529500Y-126476034D01*
X132529539Y-126476326D01*
X132544081Y-126530439D01*
X132544092Y-126530528D01*
X132544104Y-126530525D01*
X132558497Y-126584237D01*
X132558600Y-126584488D01*
X132558611Y-126584515D01*
X132558616Y-126584523D01*
X132586323Y-126632434D01*
X132586347Y-126632522D01*
X132586368Y-126632511D01*
X132614513Y-126681260D01*
X132614707Y-126681513D01*
X132654183Y-126720932D01*
X132654181Y-126720933D01*
X132654246Y-126720994D01*
X132699162Y-126765910D01*
X132699686Y-126766368D01*
X133011118Y-127077351D01*
X133044647Y-127138649D01*
X133047500Y-127165095D01*
X133047500Y-127191056D01*
X133088423Y-127343783D01*
X133088426Y-127343790D01*
X133167475Y-127480709D01*
X133167479Y-127480714D01*
X133167480Y-127480716D01*
X133279284Y-127592520D01*
X133279286Y-127592521D01*
X133279290Y-127592524D01*
X133368466Y-127644009D01*
X133416216Y-127671577D01*
X133568943Y-127712500D01*
X133568945Y-127712500D01*
X133727055Y-127712500D01*
X133727057Y-127712500D01*
X133879784Y-127671577D01*
X134016716Y-127592520D01*
X134128520Y-127480716D01*
X134207577Y-127343784D01*
X134248500Y-127191057D01*
X134248500Y-127032943D01*
X134207577Y-126880216D01*
X134179583Y-126831729D01*
X134128524Y-126743290D01*
X134128518Y-126743282D01*
X134016717Y-126631481D01*
X134016709Y-126631475D01*
X133879790Y-126552426D01*
X133879786Y-126552424D01*
X133879784Y-126552423D01*
X133727057Y-126511500D01*
X133727056Y-126511500D01*
X133700125Y-126511500D01*
X133633086Y-126491815D01*
X133612507Y-126475244D01*
X133416882Y-126279901D01*
X133383353Y-126218602D01*
X133380500Y-126192157D01*
X133380500Y-124005098D01*
X133400185Y-123938059D01*
X133416819Y-123917417D01*
X133435520Y-123898716D01*
X133514577Y-123761784D01*
X133555500Y-123609057D01*
X133555500Y-123450943D01*
X133514577Y-123298216D01*
X133444597Y-123177006D01*
X133435524Y-123161290D01*
X133435518Y-123161282D01*
X133323717Y-123049481D01*
X133323709Y-123049475D01*
X133186790Y-122970426D01*
X133186786Y-122970424D01*
X133186784Y-122970423D01*
X133034057Y-122929500D01*
X132875943Y-122929500D01*
X132723216Y-122970423D01*
X132723209Y-122970426D01*
X132586290Y-123049475D01*
X132586282Y-123049481D01*
X132474481Y-123161282D01*
X132474475Y-123161290D01*
X132395426Y-123298209D01*
X132395423Y-123298216D01*
X132354500Y-123450943D01*
X122166178Y-123450943D01*
X112273590Y-113558355D01*
X112273588Y-113558352D01*
X112154717Y-113439481D01*
X112154716Y-113439480D01*
X112062956Y-113386503D01*
X112062955Y-113386502D01*
X112017783Y-113360422D01*
X111942044Y-113340128D01*
X111865057Y-113319499D01*
X111706943Y-113319499D01*
X111699347Y-113319499D01*
X111699331Y-113319500D01*
X104095943Y-113319500D01*
X103943216Y-113360423D01*
X103943209Y-113360426D01*
X103806290Y-113439475D01*
X103806282Y-113439481D01*
X103694481Y-113551282D01*
X103694475Y-113551290D01*
X103615426Y-113688209D01*
X103615423Y-113688216D01*
X103574500Y-113840943D01*
X103574500Y-113999057D01*
X103575178Y-114001585D01*
X103615423Y-114151783D01*
X103615426Y-114151790D01*
X103694475Y-114288709D01*
X103694479Y-114288714D01*
X103694480Y-114288716D01*
X103806284Y-114400520D01*
X103806286Y-114400521D01*
X103806290Y-114400524D01*
X103917235Y-114464577D01*
X103943216Y-114479577D01*
X104095943Y-114520500D01*
X111485903Y-114520500D01*
X111552942Y-114540185D01*
X111573584Y-114556819D01*
X120330084Y-123313319D01*
X120363569Y-123374642D01*
X120358585Y-123444334D01*
X120316713Y-123500267D01*
X120251249Y-123524684D01*
X120250281Y-123524718D01*
X120250000Y-123525000D01*
X120250000Y-124423686D01*
X120207467Y-124399130D01*
X120070763Y-124362500D01*
X119929237Y-124362500D01*
X119792533Y-124399130D01*
X119750000Y-124423686D01*
X119750000Y-123525000D01*
X118827155Y-123525000D01*
X118767627Y-123531401D01*
X118767620Y-123531403D01*
X118632913Y-123581645D01*
X118632906Y-123581649D01*
X118517812Y-123667809D01*
X118517809Y-123667812D01*
X118431649Y-123782906D01*
X118431645Y-123782913D01*
X118381403Y-123917620D01*
X118381401Y-123917627D01*
X118375000Y-123977155D01*
X118375000Y-124650000D01*
X119523686Y-124650000D01*
X119499130Y-124692533D01*
X119462500Y-124829237D01*
X119462500Y-124970763D01*
X119499130Y-125107467D01*
X119523686Y-125150000D01*
X118375000Y-125150000D01*
X118375000Y-125476000D01*
X118355315Y-125543039D01*
X118302511Y-125588794D01*
X118251000Y-125600000D01*
X117000000Y-125600000D01*
X117000000Y-126071123D01*
X116980315Y-126138162D01*
X116938206Y-126178390D01*
X116868864Y-126218602D01*
X116681990Y-126326969D01*
X116431729Y-126517680D01*
X116378919Y-126563441D01*
X116253120Y-126680227D01*
X116253111Y-126680236D01*
X116253110Y-126680238D01*
X116238263Y-126696982D01*
X116044356Y-126915661D01*
X115866754Y-127175391D01*
X115723111Y-127455322D01*
X115723106Y-127455333D01*
X115615684Y-127751049D01*
X115595997Y-127818096D01*
X115573216Y-127900900D01*
X115514256Y-128209981D01*
X115514255Y-128209988D01*
X115509613Y-128283786D01*
X115485758Y-128349457D01*
X115430186Y-128391806D01*
X115385858Y-128400000D01*
X100424500Y-128400000D01*
X100357461Y-128380315D01*
X100311706Y-128327511D01*
X100300500Y-128276000D01*
X100300500Y-123449943D01*
X103153500Y-123449943D01*
X103153500Y-123608057D01*
X103169512Y-123667812D01*
X103194423Y-123760783D01*
X103194426Y-123760790D01*
X103273475Y-123897709D01*
X103273479Y-123897714D01*
X103273480Y-123897716D01*
X103385284Y-124009520D01*
X103385286Y-124009521D01*
X103385290Y-124009524D01*
X103519497Y-124087007D01*
X103522216Y-124088577D01*
X103674943Y-124129500D01*
X103701390Y-124129500D01*
X103768429Y-124149185D01*
X103789071Y-124165819D01*
X104223181Y-124599929D01*
X104256666Y-124661252D01*
X104259500Y-124687610D01*
X104259500Y-126335109D01*
X104239815Y-126402148D01*
X104197500Y-126442496D01*
X104076287Y-126512477D01*
X104076282Y-126512481D01*
X103964481Y-126624282D01*
X103964475Y-126624290D01*
X103885426Y-126761209D01*
X103885423Y-126761216D01*
X103844500Y-126913943D01*
X103844500Y-127072057D01*
X103876386Y-127191055D01*
X103885423Y-127224783D01*
X103885426Y-127224790D01*
X103964475Y-127361709D01*
X103964479Y-127361714D01*
X103964480Y-127361716D01*
X104076284Y-127473520D01*
X104076286Y-127473521D01*
X104076290Y-127473524D01*
X104213209Y-127552573D01*
X104213216Y-127552577D01*
X104365943Y-127593500D01*
X104365945Y-127593500D01*
X104524055Y-127593500D01*
X104524057Y-127593500D01*
X104676784Y-127552577D01*
X104813716Y-127473520D01*
X104925520Y-127361716D01*
X105004577Y-127224784D01*
X105045500Y-127072057D01*
X105045500Y-127012821D01*
X105062114Y-126950819D01*
X105081502Y-126917238D01*
X105081503Y-126917237D01*
X105082390Y-126913925D01*
X105091424Y-126880215D01*
X105100961Y-126844617D01*
X105110500Y-126809019D01*
X105110500Y-126696982D01*
X105110500Y-124403982D01*
X105081503Y-124295763D01*
X105025485Y-124198737D01*
X104946263Y-124119515D01*
X104390819Y-123564071D01*
X104357334Y-123502748D01*
X104354500Y-123476390D01*
X104354500Y-123449945D01*
X104354500Y-123449943D01*
X104313577Y-123297216D01*
X104313573Y-123297209D01*
X104234524Y-123160290D01*
X104234518Y-123160282D01*
X104122717Y-123048481D01*
X104122709Y-123048475D01*
X103985790Y-122969426D01*
X103985786Y-122969424D01*
X103985784Y-122969423D01*
X103833057Y-122928500D01*
X103674943Y-122928500D01*
X103522216Y-122969423D01*
X103522209Y-122969426D01*
X103385290Y-123048475D01*
X103385282Y-123048481D01*
X103273481Y-123160282D01*
X103273475Y-123160290D01*
X103194426Y-123297209D01*
X103194423Y-123297216D01*
X103153500Y-123449943D01*
X100300500Y-123449943D01*
X100300500Y-108433753D01*
X143110000Y-108433753D01*
X143110000Y-108646246D01*
X143143242Y-108856127D01*
X143143242Y-108856130D01*
X143208904Y-109058217D01*
X143305375Y-109247550D01*
X143344728Y-109301716D01*
X143977037Y-108669408D01*
X143994075Y-108732993D01*
X144059901Y-108847007D01*
X144152993Y-108940099D01*
X144267007Y-109005925D01*
X144330590Y-109022962D01*
X143698282Y-109655269D01*
X143698282Y-109655270D01*
X143752449Y-109694624D01*
X143941780Y-109791094D01*
X143970705Y-109800492D01*
X144028381Y-109839929D01*
X144055580Y-109904287D01*
X144043667Y-109973134D01*
X143996424Y-110024610D01*
X143988685Y-110028908D01*
X143857004Y-110096004D01*
X143710505Y-110202441D01*
X143710500Y-110202445D01*
X143582445Y-110330500D01*
X143582441Y-110330505D01*
X143476006Y-110477002D01*
X143393788Y-110638360D01*
X143393787Y-110638363D01*
X143337829Y-110810589D01*
X143309500Y-110989448D01*
X143309500Y-111170551D01*
X143337829Y-111349410D01*
X143393787Y-111521636D01*
X143393788Y-111521639D01*
X143476006Y-111682997D01*
X143582441Y-111829494D01*
X143582445Y-111829499D01*
X143710500Y-111957554D01*
X143710505Y-111957558D01*
X143838287Y-112050396D01*
X143857006Y-112063996D01*
X143962484Y-112117740D01*
X144018360Y-112146211D01*
X144018363Y-112146212D01*
X144104476Y-112174191D01*
X144190591Y-112202171D01*
X144263639Y-112213740D01*
X144350678Y-112227527D01*
X144413813Y-112257456D01*
X144450744Y-112316768D01*
X144449746Y-112386631D01*
X144411136Y-112444863D01*
X144350678Y-112472473D01*
X144190589Y-112497829D01*
X144018363Y-112553787D01*
X144018360Y-112553788D01*
X143857002Y-112636006D01*
X143710505Y-112742441D01*
X143710500Y-112742445D01*
X143582445Y-112870500D01*
X143582441Y-112870505D01*
X143476006Y-113017002D01*
X143393788Y-113178360D01*
X143393787Y-113178363D01*
X143337829Y-113350589D01*
X143309500Y-113529448D01*
X143309500Y-113710551D01*
X143337829Y-113889410D01*
X143393787Y-114061636D01*
X143393788Y-114061639D01*
X143476006Y-114222997D01*
X143582441Y-114369494D01*
X143582445Y-114369499D01*
X143710500Y-114497554D01*
X143710505Y-114497558D01*
X143769177Y-114540185D01*
X143857006Y-114603996D01*
X143962484Y-114657740D01*
X144018360Y-114686211D01*
X144018363Y-114686212D01*
X144104476Y-114714191D01*
X144190591Y-114742171D01*
X144263639Y-114753740D01*
X144350678Y-114767527D01*
X144413813Y-114797456D01*
X144450744Y-114856768D01*
X144449746Y-114926631D01*
X144411136Y-114984863D01*
X144350678Y-115012473D01*
X144190589Y-115037829D01*
X144018363Y-115093787D01*
X144018360Y-115093788D01*
X143857002Y-115176006D01*
X143710505Y-115282441D01*
X143710500Y-115282445D01*
X143582445Y-115410500D01*
X143582441Y-115410505D01*
X143476006Y-115557002D01*
X143393788Y-115718360D01*
X143393787Y-115718363D01*
X143337829Y-115890589D01*
X143309500Y-116069448D01*
X143309500Y-116250551D01*
X143337829Y-116429410D01*
X143393787Y-116601636D01*
X143393788Y-116601639D01*
X143429943Y-116672595D01*
X143476003Y-116762993D01*
X143476006Y-116762997D01*
X143582441Y-116909494D01*
X143582445Y-116909499D01*
X143710500Y-117037554D01*
X143710505Y-117037558D01*
X143814833Y-117113356D01*
X143857006Y-117143996D01*
X143956223Y-117194550D01*
X144018360Y-117226211D01*
X144018363Y-117226212D01*
X144073400Y-117244094D01*
X144190591Y-117282171D01*
X144263639Y-117293740D01*
X144350678Y-117307527D01*
X144413813Y-117337456D01*
X144450744Y-117396768D01*
X144449746Y-117466631D01*
X144411136Y-117524863D01*
X144350678Y-117552473D01*
X144190589Y-117577829D01*
X144018363Y-117633787D01*
X144018360Y-117633788D01*
X143857002Y-117716006D01*
X143710505Y-117822441D01*
X143710500Y-117822445D01*
X143582445Y-117950500D01*
X143582441Y-117950505D01*
X143476006Y-118097002D01*
X143393788Y-118258360D01*
X143393787Y-118258363D01*
X143337829Y-118430589D01*
X143309500Y-118609448D01*
X143309500Y-118790551D01*
X143337829Y-118969410D01*
X143393787Y-119141636D01*
X143393788Y-119141639D01*
X143476006Y-119302997D01*
X143582441Y-119449494D01*
X143582445Y-119449499D01*
X143710500Y-119577554D01*
X143710505Y-119577558D01*
X143782019Y-119629515D01*
X143857006Y-119683996D01*
X143962484Y-119737740D01*
X144018360Y-119766211D01*
X144018363Y-119766212D01*
X144104476Y-119794191D01*
X144190591Y-119822171D01*
X144263639Y-119833740D01*
X144350678Y-119847527D01*
X144413813Y-119877456D01*
X144450744Y-119936768D01*
X144449746Y-120006631D01*
X144411136Y-120064863D01*
X144350678Y-120092473D01*
X144190589Y-120117829D01*
X144018363Y-120173787D01*
X144018360Y-120173788D01*
X143857002Y-120256006D01*
X143710505Y-120362441D01*
X143710500Y-120362445D01*
X143582445Y-120490500D01*
X143582441Y-120490505D01*
X143476006Y-120637002D01*
X143393788Y-120798360D01*
X143393787Y-120798363D01*
X143337829Y-120970589D01*
X143309500Y-121149448D01*
X143309500Y-121330551D01*
X143337829Y-121509410D01*
X143393787Y-121681636D01*
X143393788Y-121681639D01*
X143476006Y-121842997D01*
X143582441Y-121989494D01*
X143582445Y-121989499D01*
X143710500Y-122117554D01*
X143710505Y-122117558D01*
X143787066Y-122173182D01*
X143857006Y-122223996D01*
X143958780Y-122275853D01*
X143988684Y-122291090D01*
X144039480Y-122339065D01*
X144056275Y-122406886D01*
X144033737Y-122473021D01*
X143979022Y-122516472D01*
X143970708Y-122519506D01*
X143941781Y-122528905D01*
X143752439Y-122625380D01*
X143698282Y-122664727D01*
X143698282Y-122664728D01*
X144330591Y-123297037D01*
X144267007Y-123314075D01*
X144152993Y-123379901D01*
X144059901Y-123472993D01*
X143994075Y-123587007D01*
X143977037Y-123650591D01*
X143344728Y-123018282D01*
X143344727Y-123018282D01*
X143305380Y-123072439D01*
X143208904Y-123261782D01*
X143143242Y-123463869D01*
X143143242Y-123463872D01*
X143110000Y-123673753D01*
X143110000Y-123886246D01*
X143143242Y-124096127D01*
X143143242Y-124096130D01*
X143208904Y-124298217D01*
X143305375Y-124487550D01*
X143344728Y-124541716D01*
X143977037Y-123909408D01*
X143994075Y-123972993D01*
X144059901Y-124087007D01*
X144152993Y-124180099D01*
X144267007Y-124245925D01*
X144330590Y-124262962D01*
X143698282Y-124895269D01*
X143698282Y-124895270D01*
X143752449Y-124934624D01*
X143941782Y-125031095D01*
X144143870Y-125096757D01*
X144353754Y-125130000D01*
X144566246Y-125130000D01*
X144776127Y-125096757D01*
X144776130Y-125096757D01*
X144978217Y-125031095D01*
X145167554Y-124934622D01*
X145221716Y-124895270D01*
X145221717Y-124895270D01*
X144589408Y-124262962D01*
X144652993Y-124245925D01*
X144767007Y-124180099D01*
X144860099Y-124087007D01*
X144925925Y-123972993D01*
X144942962Y-123909408D01*
X145575270Y-124541717D01*
X145575270Y-124541716D01*
X145614622Y-124487554D01*
X145711095Y-124298217D01*
X145720492Y-124269295D01*
X145759928Y-124211618D01*
X145824286Y-124184419D01*
X145893133Y-124196331D01*
X145944610Y-124243574D01*
X145948908Y-124251314D01*
X146016004Y-124382995D01*
X146122441Y-124529494D01*
X146122445Y-124529499D01*
X146250500Y-124657554D01*
X146250505Y-124657558D01*
X146378287Y-124750396D01*
X146397006Y-124763996D01*
X146502484Y-124817740D01*
X146558360Y-124846211D01*
X146558363Y-124846212D01*
X146644476Y-124874191D01*
X146730591Y-124902171D01*
X146813429Y-124915291D01*
X146909449Y-124930500D01*
X146909454Y-124930500D01*
X147090551Y-124930500D01*
X147177259Y-124916765D01*
X147269409Y-124902171D01*
X147441639Y-124846211D01*
X147602994Y-124763996D01*
X147749501Y-124657553D01*
X147877553Y-124529501D01*
X147983996Y-124382994D01*
X148066211Y-124221639D01*
X148114428Y-124073238D01*
X148153864Y-124015563D01*
X148218223Y-123988364D01*
X148287069Y-124000278D01*
X148320043Y-124023878D01*
X154868188Y-130572489D01*
X160908036Y-136612768D01*
X160959184Y-136663919D01*
X160992667Y-136725243D01*
X160995500Y-136751597D01*
X160995500Y-137570902D01*
X160975815Y-137637941D01*
X160959181Y-137658583D01*
X160940481Y-137677282D01*
X160940475Y-137677290D01*
X160861426Y-137814209D01*
X160861423Y-137814216D01*
X160820500Y-137966943D01*
X160820500Y-138125057D01*
X160854337Y-138251336D01*
X160861423Y-138277783D01*
X160861426Y-138277790D01*
X160940475Y-138414709D01*
X160940479Y-138414714D01*
X160940480Y-138414716D01*
X161052284Y-138526520D01*
X161052286Y-138526521D01*
X161052290Y-138526524D01*
X161189209Y-138605573D01*
X161189216Y-138605577D01*
X161341943Y-138646500D01*
X161341945Y-138646500D01*
X161500055Y-138646500D01*
X161500057Y-138646500D01*
X161652784Y-138605577D01*
X161789716Y-138526520D01*
X161901520Y-138414716D01*
X161980577Y-138277784D01*
X162021500Y-138125057D01*
X162021500Y-137966943D01*
X161980577Y-137814216D01*
X161923997Y-137716215D01*
X161901524Y-137677290D01*
X161901518Y-137677282D01*
X161882819Y-137658583D01*
X161849334Y-137597260D01*
X161846500Y-137570902D01*
X161846500Y-136504256D01*
X161846502Y-136467997D01*
X161846500Y-136467989D01*
X161846500Y-136467982D01*
X161832785Y-136416796D01*
X161819047Y-136365518D01*
X161817984Y-136360613D01*
X161817962Y-136360559D01*
X161816446Y-136357932D01*
X161786362Y-136305825D01*
X161786361Y-136305823D01*
X161783857Y-136301486D01*
X161761494Y-136262749D01*
X161761490Y-136262745D01*
X161761488Y-136262741D01*
X161761487Y-136262739D01*
X161712819Y-136214071D01*
X158815898Y-133316943D01*
X147771075Y-122271333D01*
X147737593Y-122210010D01*
X147742580Y-122140318D01*
X147771079Y-122095975D01*
X147817767Y-122049287D01*
X147877553Y-121989501D01*
X147983996Y-121842994D01*
X148066211Y-121681639D01*
X148122171Y-121509409D01*
X148136765Y-121417259D01*
X148150500Y-121330551D01*
X148150500Y-121149448D01*
X148134019Y-121045397D01*
X148122171Y-120970591D01*
X148066211Y-120798361D01*
X148066211Y-120798360D01*
X148037740Y-120742484D01*
X147983996Y-120637006D01*
X147980874Y-120632709D01*
X147951578Y-120592385D01*
X147928098Y-120526578D01*
X147943924Y-120458525D01*
X147994030Y-120409830D01*
X148051896Y-120395500D01*
X151334398Y-120395500D01*
X151401437Y-120415185D01*
X151422077Y-120431816D01*
X166500277Y-135509094D01*
X166504610Y-135517029D01*
X166511848Y-135522445D01*
X166521092Y-135547212D01*
X166533763Y-135570416D01*
X166533118Y-135579433D01*
X166536280Y-135587904D01*
X166530665Y-135613740D01*
X166528781Y-135640108D01*
X166522971Y-135649150D01*
X166521444Y-135656180D01*
X166500299Y-135684439D01*
X166444940Y-135739823D01*
X166444920Y-135739843D01*
X166381120Y-135803642D01*
X166380915Y-135803874D01*
X164129390Y-138056371D01*
X164129291Y-138056472D01*
X164071480Y-138114284D01*
X164071445Y-138114343D01*
X164071401Y-138114388D01*
X164037747Y-138172709D01*
X164033676Y-138179763D01*
X164033662Y-138179786D01*
X163992418Y-138251222D01*
X163992374Y-138251328D01*
X163971172Y-138330522D01*
X163971166Y-138330546D01*
X163951500Y-138403943D01*
X163951500Y-138404004D01*
X163951482Y-138404072D01*
X163951482Y-138404145D01*
X163951481Y-138404149D01*
X163951500Y-138483682D01*
X163951500Y-148499903D01*
X163931815Y-148566942D01*
X163915181Y-148587584D01*
X162196409Y-150306355D01*
X162135086Y-150339840D01*
X162065394Y-150334856D01*
X162009461Y-150292984D01*
X161998247Y-150274975D01*
X161983996Y-150247006D01*
X161983994Y-150247003D01*
X161983993Y-150247001D01*
X161877558Y-150100505D01*
X161877554Y-150100500D01*
X161749499Y-149972445D01*
X161749494Y-149972441D01*
X161602997Y-149866006D01*
X161602996Y-149866005D01*
X161602994Y-149866004D01*
X161551300Y-149839664D01*
X161441639Y-149783788D01*
X161441636Y-149783787D01*
X161269410Y-149727829D01*
X161090551Y-149699500D01*
X161090546Y-149699500D01*
X160949096Y-149699500D01*
X160882057Y-149679815D01*
X160836302Y-149627011D01*
X160826358Y-149557853D01*
X160855383Y-149494297D01*
X160861415Y-149487819D01*
X161180798Y-149168436D01*
X163384520Y-146964716D01*
X163463577Y-146827784D01*
X163504501Y-146675057D01*
X163504501Y-146516942D01*
X163504501Y-146509347D01*
X163504500Y-146509329D01*
X163504500Y-133316945D01*
X163504500Y-133316943D01*
X163463577Y-133164216D01*
X163463573Y-133164209D01*
X163384524Y-133027290D01*
X163384518Y-133027282D01*
X163272717Y-132915481D01*
X163272709Y-132915475D01*
X163135790Y-132836426D01*
X163135786Y-132836424D01*
X163135784Y-132836423D01*
X162983057Y-132795500D01*
X162824943Y-132795500D01*
X162672216Y-132836423D01*
X162672209Y-132836426D01*
X162535290Y-132915475D01*
X162535282Y-132915481D01*
X162423481Y-133027282D01*
X162423475Y-133027290D01*
X162344426Y-133164209D01*
X162344423Y-133164216D01*
X162303500Y-133316943D01*
X162303500Y-146295902D01*
X162283815Y-146362941D01*
X162267181Y-146383583D01*
X158987584Y-149663181D01*
X158926261Y-149696666D01*
X158899903Y-149699500D01*
X157856898Y-149699500D01*
X157817853Y-149704188D01*
X157768438Y-149710122D01*
X157627656Y-149765639D01*
X157507077Y-149857077D01*
X157415639Y-149977656D01*
X157360122Y-150118438D01*
X157356085Y-150152064D01*
X157349500Y-150206898D01*
X157349500Y-151793102D01*
X157355126Y-151839954D01*
X157360122Y-151881561D01*
X157360122Y-151881563D01*
X157360123Y-151881564D01*
X157375283Y-151920006D01*
X157415639Y-152022343D01*
X157507077Y-152142922D01*
X157627656Y-152234360D01*
X157627657Y-152234360D01*
X157627658Y-152234361D01*
X157768436Y-152289877D01*
X157856898Y-152300500D01*
X157856903Y-152300500D01*
X159143097Y-152300500D01*
X159143102Y-152300500D01*
X159231564Y-152289877D01*
X159372342Y-152234361D01*
X159492922Y-152142922D01*
X159584361Y-152022342D01*
X159639877Y-151881564D01*
X159650500Y-151793102D01*
X159650500Y-151502669D01*
X159670185Y-151435630D01*
X159722989Y-151389875D01*
X159792147Y-151379931D01*
X159855703Y-151408956D01*
X159892431Y-151464351D01*
X159933787Y-151591636D01*
X159933788Y-151591639D01*
X160016006Y-151752997D01*
X160122441Y-151899494D01*
X160122445Y-151899499D01*
X160250500Y-152027554D01*
X160250505Y-152027558D01*
X160378287Y-152120396D01*
X160397006Y-152133996D01*
X160502484Y-152187740D01*
X160558360Y-152216211D01*
X160558363Y-152216212D01*
X160644476Y-152244191D01*
X160730591Y-152272171D01*
X160813429Y-152285291D01*
X160909449Y-152300500D01*
X160909454Y-152300500D01*
X161090551Y-152300500D01*
X161177259Y-152286765D01*
X161269409Y-152272171D01*
X161441639Y-152216211D01*
X161602994Y-152133996D01*
X161749501Y-152027553D01*
X161877553Y-151899501D01*
X161983996Y-151752994D01*
X162027198Y-151668204D01*
X162037647Y-151657140D01*
X162043970Y-151643297D01*
X162061150Y-151632255D01*
X162075173Y-151617409D01*
X162090852Y-151613167D01*
X162102748Y-151605523D01*
X162137683Y-151600500D01*
X162265331Y-151600500D01*
X162265347Y-151600501D01*
X162272943Y-151600501D01*
X162431054Y-151600501D01*
X162431057Y-151600501D01*
X162583785Y-151559577D01*
X162633904Y-151530639D01*
X162720716Y-151480520D01*
X162832520Y-151368716D01*
X162832520Y-151368714D01*
X162842728Y-151358507D01*
X162842730Y-151358504D01*
X163994336Y-150206898D01*
X166049500Y-150206898D01*
X166049500Y-151793102D01*
X166055126Y-151839954D01*
X166060122Y-151881561D01*
X166060122Y-151881563D01*
X166060123Y-151881564D01*
X166075283Y-151920006D01*
X166115639Y-152022343D01*
X166207077Y-152142922D01*
X166327656Y-152234360D01*
X166327657Y-152234360D01*
X166327658Y-152234361D01*
X166468436Y-152289877D01*
X166556898Y-152300500D01*
X166556903Y-152300500D01*
X167843097Y-152300500D01*
X167843102Y-152300500D01*
X167931564Y-152289877D01*
X168072342Y-152234361D01*
X168192922Y-152142922D01*
X168284361Y-152022342D01*
X168339877Y-151881564D01*
X168350500Y-151793102D01*
X168350500Y-151502669D01*
X168370185Y-151435630D01*
X168422989Y-151389875D01*
X168492147Y-151379931D01*
X168555703Y-151408956D01*
X168592431Y-151464351D01*
X168633787Y-151591636D01*
X168633788Y-151591639D01*
X168716006Y-151752997D01*
X168822441Y-151899494D01*
X168822445Y-151899499D01*
X168950500Y-152027554D01*
X168950505Y-152027558D01*
X169078287Y-152120396D01*
X169097006Y-152133996D01*
X169202484Y-152187740D01*
X169258360Y-152216211D01*
X169258363Y-152216212D01*
X169344476Y-152244191D01*
X169430591Y-152272171D01*
X169513429Y-152285291D01*
X169609449Y-152300500D01*
X169609454Y-152300500D01*
X169790551Y-152300500D01*
X169877259Y-152286765D01*
X169969409Y-152272171D01*
X169996265Y-152263444D01*
X170006872Y-152259999D01*
X170006872Y-152259998D01*
X170141639Y-152216211D01*
X170302994Y-152133996D01*
X170449501Y-152027553D01*
X170577553Y-151899501D01*
X170683996Y-151752994D01*
X170766211Y-151591639D01*
X170822171Y-151419409D01*
X170849003Y-151250000D01*
X170850500Y-151240551D01*
X170850500Y-150759448D01*
X170826608Y-150608608D01*
X170822171Y-150580591D01*
X170766211Y-150408361D01*
X170766211Y-150408360D01*
X170737740Y-150352484D01*
X170683996Y-150247006D01*
X170615017Y-150152064D01*
X170577558Y-150100505D01*
X170577554Y-150100500D01*
X170449499Y-149972445D01*
X170449494Y-149972441D01*
X170351615Y-149901328D01*
X170308949Y-149845998D01*
X170300500Y-149801010D01*
X170300500Y-139381995D01*
X182699500Y-139381995D01*
X182699500Y-139618004D01*
X182699501Y-139618020D01*
X182730306Y-139852010D01*
X182791394Y-140079993D01*
X182881714Y-140298045D01*
X182881719Y-140298056D01*
X182952677Y-140420957D01*
X182999727Y-140502450D01*
X182999729Y-140502453D01*
X182999730Y-140502454D01*
X183143406Y-140689697D01*
X183143412Y-140689704D01*
X183310295Y-140856587D01*
X183310301Y-140856592D01*
X183497550Y-141000273D01*
X183628918Y-141076118D01*
X183701943Y-141118280D01*
X183701948Y-141118282D01*
X183701951Y-141118284D01*
X183920007Y-141208606D01*
X184147986Y-141269693D01*
X184381989Y-141300500D01*
X184381996Y-141300500D01*
X184618004Y-141300500D01*
X184618011Y-141300500D01*
X184852014Y-141269693D01*
X185079993Y-141208606D01*
X185298049Y-141118284D01*
X185502450Y-141000273D01*
X185689699Y-140856592D01*
X185856592Y-140689699D01*
X186000273Y-140502450D01*
X186118284Y-140298049D01*
X186208606Y-140079993D01*
X186269693Y-139852014D01*
X186300500Y-139618011D01*
X186300500Y-139381989D01*
X186269693Y-139147986D01*
X186208606Y-138920007D01*
X186118284Y-138701951D01*
X186118282Y-138701948D01*
X186118280Y-138701943D01*
X186062640Y-138605573D01*
X186000273Y-138497550D01*
X185856592Y-138310301D01*
X185856587Y-138310295D01*
X185689704Y-138143412D01*
X185689697Y-138143406D01*
X185502454Y-137999730D01*
X185502453Y-137999729D01*
X185502450Y-137999727D01*
X185420957Y-137952677D01*
X185298056Y-137881719D01*
X185298045Y-137881714D01*
X185079993Y-137791394D01*
X184852010Y-137730306D01*
X184618020Y-137699501D01*
X184618017Y-137699500D01*
X184618011Y-137699500D01*
X184381989Y-137699500D01*
X184381983Y-137699500D01*
X184381979Y-137699501D01*
X184147989Y-137730306D01*
X183920006Y-137791394D01*
X183701954Y-137881714D01*
X183701943Y-137881719D01*
X183497545Y-137999730D01*
X183310302Y-138143406D01*
X183310295Y-138143412D01*
X183143412Y-138310295D01*
X183143406Y-138310302D01*
X182999730Y-138497545D01*
X182881719Y-138701943D01*
X182881714Y-138701954D01*
X182791394Y-138920006D01*
X182730306Y-139147989D01*
X182699501Y-139381979D01*
X182699500Y-139381995D01*
X170300500Y-139381995D01*
X170300500Y-138248097D01*
X170320185Y-138181058D01*
X170336819Y-138160416D01*
X170705841Y-137791394D01*
X171218520Y-137278716D01*
X171297577Y-137141784D01*
X171338501Y-136989057D01*
X171338501Y-136830942D01*
X171297577Y-136678215D01*
X171218520Y-136541284D01*
X171106716Y-136429480D01*
X170969785Y-136350423D01*
X170817058Y-136309499D01*
X170658943Y-136309499D01*
X170582579Y-136329961D01*
X170506214Y-136350423D01*
X170506209Y-136350426D01*
X170369290Y-136429475D01*
X170369282Y-136429481D01*
X169219479Y-137579284D01*
X169196413Y-137619236D01*
X169186664Y-137636124D01*
X169162901Y-137677282D01*
X169150074Y-137699500D01*
X169140423Y-137716215D01*
X169099499Y-137868943D01*
X169099499Y-137868945D01*
X169099499Y-138037046D01*
X169099500Y-138037059D01*
X169099500Y-149801010D01*
X169079815Y-149868049D01*
X169048385Y-149901328D01*
X168950505Y-149972441D01*
X168950500Y-149972445D01*
X168822445Y-150100500D01*
X168822441Y-150100505D01*
X168716006Y-150247002D01*
X168633788Y-150408360D01*
X168633787Y-150408363D01*
X168592431Y-150535648D01*
X168552994Y-150593323D01*
X168488635Y-150620522D01*
X168419789Y-150608608D01*
X168368313Y-150561364D01*
X168350500Y-150497330D01*
X168350500Y-150206903D01*
X168350500Y-150206898D01*
X168339877Y-150118436D01*
X168284361Y-149977658D01*
X168284360Y-149977657D01*
X168284360Y-149977656D01*
X168192922Y-149857077D01*
X168072343Y-149765639D01*
X167931561Y-149710122D01*
X167885926Y-149704642D01*
X167843102Y-149699500D01*
X166556898Y-149699500D01*
X166517853Y-149704188D01*
X166468438Y-149710122D01*
X166327656Y-149765639D01*
X166207077Y-149857077D01*
X166115639Y-149977656D01*
X166060122Y-150118438D01*
X166056085Y-150152064D01*
X166049500Y-150206898D01*
X163994336Y-150206898D01*
X164910506Y-149290728D01*
X164910511Y-149290724D01*
X164920714Y-149280520D01*
X164920716Y-149280520D01*
X165032520Y-149168716D01*
X165107277Y-149039232D01*
X165111577Y-149031785D01*
X165152501Y-148879057D01*
X165152501Y-148720943D01*
X165152501Y-148713348D01*
X165152500Y-148713330D01*
X165152500Y-138783005D01*
X165172185Y-138715966D01*
X165188800Y-138695343D01*
X165237623Y-138646499D01*
X167283802Y-136599436D01*
X167345116Y-136565939D01*
X167414808Y-136570909D01*
X167470751Y-136612768D01*
X167495182Y-136678227D01*
X167495500Y-136687100D01*
X167495500Y-137328902D01*
X167475815Y-137395941D01*
X167459181Y-137416583D01*
X167440481Y-137435282D01*
X167440475Y-137435290D01*
X167361426Y-137572209D01*
X167361423Y-137572216D01*
X167320500Y-137724943D01*
X167320500Y-137883057D01*
X167359086Y-138027060D01*
X167361423Y-138035783D01*
X167361426Y-138035790D01*
X167440475Y-138172709D01*
X167440479Y-138172714D01*
X167440480Y-138172716D01*
X167552284Y-138284520D01*
X167552286Y-138284521D01*
X167552290Y-138284524D01*
X167632004Y-138330546D01*
X167689216Y-138363577D01*
X167841943Y-138404500D01*
X167841945Y-138404500D01*
X168000055Y-138404500D01*
X168000057Y-138404500D01*
X168152784Y-138363577D01*
X168289716Y-138284520D01*
X168401520Y-138172716D01*
X168480577Y-138035784D01*
X168521500Y-137883057D01*
X168521500Y-137724943D01*
X168480577Y-137572216D01*
X168479818Y-137570902D01*
X168401524Y-137435290D01*
X168401518Y-137435282D01*
X168382819Y-137416583D01*
X168349334Y-137355260D01*
X168346500Y-137328902D01*
X168346500Y-136384013D01*
X168346502Y-136384006D01*
X168346500Y-136301840D01*
X168346500Y-136271982D01*
X168346499Y-136271978D01*
X168346499Y-136271969D01*
X168327312Y-136200371D01*
X168327312Y-136200369D01*
X168319047Y-136169525D01*
X168319045Y-136169518D01*
X168317502Y-136163760D01*
X168317498Y-136163753D01*
X168317498Y-136163751D01*
X168291011Y-136117877D01*
X168263306Y-136069891D01*
X168261976Y-136067419D01*
X168261476Y-136066725D01*
X168225816Y-136031067D01*
X168225811Y-136031063D01*
X168176438Y-135981690D01*
X168176410Y-135981665D01*
X151855998Y-119662250D01*
X151855998Y-119662249D01*
X151855996Y-119662248D01*
X151823263Y-119629515D01*
X151823260Y-119629513D01*
X151823256Y-119629509D01*
X151771255Y-119599488D01*
X151771252Y-119599486D01*
X151727036Y-119573958D01*
X151726288Y-119573518D01*
X151726227Y-119573492D01*
X151667125Y-119557658D01*
X151667125Y-119557657D01*
X151667121Y-119557657D01*
X151618886Y-119544732D01*
X151618058Y-119544503D01*
X151618020Y-119544498D01*
X151618005Y-119544498D01*
X151561987Y-119544500D01*
X148051896Y-119544500D01*
X147984857Y-119524815D01*
X147939102Y-119472011D01*
X147929158Y-119402853D01*
X147951578Y-119347615D01*
X147968369Y-119324502D01*
X147983996Y-119302994D01*
X148066211Y-119141639D01*
X148122171Y-118969409D01*
X148136765Y-118877259D01*
X148150500Y-118790551D01*
X148150500Y-118609448D01*
X148122171Y-118430590D01*
X148084094Y-118313401D01*
X148082099Y-118243560D01*
X148114342Y-118187404D01*
X151934929Y-114366819D01*
X151996252Y-114333334D01*
X152022610Y-114330500D01*
X157254902Y-114330500D01*
X157321941Y-114350185D01*
X157328481Y-114354689D01*
X157335984Y-114360220D01*
X157361284Y-114385520D01*
X157402881Y-114409536D01*
X157408454Y-114413644D01*
X157425570Y-114436162D01*
X157445090Y-114456633D01*
X157446435Y-114463612D01*
X157450735Y-114469269D01*
X157452960Y-114497463D01*
X157458314Y-114525240D01*
X157455672Y-114531837D01*
X157456232Y-114538922D01*
X157442858Y-114563846D01*
X157432347Y-114590105D01*
X157423305Y-114600289D01*
X157423198Y-114600490D01*
X157423058Y-114600567D01*
X157422530Y-114601163D01*
X157036250Y-114987208D01*
X156974916Y-115020674D01*
X156948595Y-115023500D01*
X156921943Y-115023500D01*
X156769216Y-115064423D01*
X156769209Y-115064426D01*
X156632290Y-115143475D01*
X156632282Y-115143481D01*
X156520481Y-115255282D01*
X156520475Y-115255290D01*
X156441426Y-115392209D01*
X156441423Y-115392216D01*
X156400500Y-115544943D01*
X156400500Y-115703057D01*
X156404601Y-115718360D01*
X156441423Y-115855783D01*
X156441426Y-115855790D01*
X156520475Y-115992709D01*
X156520479Y-115992714D01*
X156520480Y-115992716D01*
X156632284Y-116104520D01*
X156632286Y-116104521D01*
X156632290Y-116104524D01*
X156710618Y-116149746D01*
X156769216Y-116183577D01*
X156921943Y-116224500D01*
X156921945Y-116224500D01*
X157080055Y-116224500D01*
X157080057Y-116224500D01*
X157232784Y-116183577D01*
X157369716Y-116104520D01*
X157481520Y-115992716D01*
X157560577Y-115855784D01*
X157601500Y-115703057D01*
X157601500Y-115676815D01*
X157621185Y-115609776D01*
X157637846Y-115589107D01*
X157682037Y-115544943D01*
X158895205Y-114332518D01*
X158895263Y-114332485D01*
X158935193Y-114292554D01*
X158974405Y-114253367D01*
X158974413Y-114253351D01*
X158974469Y-114253278D01*
X158974485Y-114253263D01*
X158993960Y-114219528D01*
X159002498Y-114204743D01*
X159002499Y-114204743D01*
X159002508Y-114204722D01*
X159030453Y-114156358D01*
X159030454Y-114156353D01*
X159030459Y-114156345D01*
X159030499Y-114156248D01*
X159030501Y-114156240D01*
X159030503Y-114156237D01*
X159044755Y-114103046D01*
X159059483Y-114048149D01*
X159059483Y-114048081D01*
X159059500Y-114048018D01*
X159059500Y-113992130D01*
X159059517Y-113936112D01*
X159059515Y-113936107D01*
X159059518Y-113928226D01*
X159059500Y-113927934D01*
X159059500Y-111114984D01*
X159059500Y-111114982D01*
X159030503Y-111006763D01*
X158974485Y-110909737D01*
X158895263Y-110830515D01*
X158895261Y-110830513D01*
X158838819Y-110774071D01*
X158805334Y-110712748D01*
X158802500Y-110686390D01*
X158802500Y-110659945D01*
X158802500Y-110659943D01*
X158761577Y-110507216D01*
X158761573Y-110507209D01*
X158682524Y-110370290D01*
X158682518Y-110370282D01*
X158570717Y-110258481D01*
X158570709Y-110258475D01*
X158433790Y-110179426D01*
X158433786Y-110179424D01*
X158433784Y-110179423D01*
X158281057Y-110138500D01*
X158122943Y-110138500D01*
X157970216Y-110179423D01*
X157970209Y-110179426D01*
X157833290Y-110258475D01*
X157833282Y-110258481D01*
X157721481Y-110370282D01*
X157721475Y-110370290D01*
X157642426Y-110507209D01*
X157642423Y-110507216D01*
X157601500Y-110659943D01*
X157601500Y-110818057D01*
X157626067Y-110909740D01*
X157642423Y-110970783D01*
X157642426Y-110970790D01*
X157721475Y-111107709D01*
X157721479Y-111107714D01*
X157721480Y-111107716D01*
X157833284Y-111219520D01*
X157833286Y-111219521D01*
X157833290Y-111219524D01*
X157970209Y-111298573D01*
X157970216Y-111298577D01*
X158116594Y-111337798D01*
X158176254Y-111374163D01*
X158206783Y-111437010D01*
X158208500Y-111457573D01*
X158208500Y-113273089D01*
X158188815Y-113340128D01*
X158136011Y-113385883D01*
X158066853Y-113395827D01*
X158022502Y-113380477D01*
X157961788Y-113345425D01*
X157961786Y-113345424D01*
X157961784Y-113345423D01*
X157809057Y-113304500D01*
X157650943Y-113304500D01*
X157498216Y-113345423D01*
X157498209Y-113345426D01*
X157361290Y-113424475D01*
X157361282Y-113424481D01*
X157342583Y-113443181D01*
X157281260Y-113476666D01*
X157254902Y-113479500D01*
X151738982Y-113479500D01*
X151630763Y-113508497D01*
X151630760Y-113508498D01*
X151533740Y-113564513D01*
X151533734Y-113564517D01*
X148164834Y-116933416D01*
X148103511Y-116966901D01*
X148033819Y-116961917D01*
X147977886Y-116920045D01*
X147953469Y-116854581D01*
X147968321Y-116786308D01*
X147976832Y-116772854D01*
X147983996Y-116762994D01*
X148066211Y-116601639D01*
X148122171Y-116429409D01*
X148136765Y-116337259D01*
X148150500Y-116250551D01*
X148150500Y-116069448D01*
X148134019Y-115965397D01*
X148122171Y-115890591D01*
X148066211Y-115718361D01*
X148066211Y-115718360D01*
X148018860Y-115625431D01*
X147983996Y-115557006D01*
X147970396Y-115538287D01*
X147877558Y-115410505D01*
X147877554Y-115410500D01*
X147749499Y-115282445D01*
X147749494Y-115282441D01*
X147602997Y-115176006D01*
X147602996Y-115176005D01*
X147602994Y-115176004D01*
X147551300Y-115149664D01*
X147441639Y-115093788D01*
X147441636Y-115093787D01*
X147269410Y-115037829D01*
X147109321Y-115012473D01*
X147046186Y-114982544D01*
X147009255Y-114923232D01*
X147010253Y-114853370D01*
X147048863Y-114795137D01*
X147109321Y-114767527D01*
X147179425Y-114756422D01*
X147269409Y-114742171D01*
X147441639Y-114686211D01*
X147602994Y-114603996D01*
X147749501Y-114497553D01*
X147877553Y-114369501D01*
X147983996Y-114222994D01*
X148066211Y-114061639D01*
X148122171Y-113889409D01*
X148144919Y-113745785D01*
X148150500Y-113710551D01*
X148150500Y-113529448D01*
X148133873Y-113424475D01*
X148122171Y-113350591D01*
X148066211Y-113178361D01*
X148066211Y-113178360D01*
X147992390Y-113033481D01*
X147983996Y-113017006D01*
X147959550Y-112983359D01*
X147877558Y-112870505D01*
X147877554Y-112870500D01*
X147749499Y-112742445D01*
X147749494Y-112742441D01*
X147602997Y-112636006D01*
X147602996Y-112636005D01*
X147602994Y-112636004D01*
X147551300Y-112609664D01*
X147441639Y-112553788D01*
X147441636Y-112553787D01*
X147269410Y-112497829D01*
X147109321Y-112472473D01*
X147046186Y-112442544D01*
X147009255Y-112383232D01*
X147010253Y-112313370D01*
X147048863Y-112255137D01*
X147109321Y-112227527D01*
X147179425Y-112216422D01*
X147269409Y-112202171D01*
X147441639Y-112146211D01*
X147602994Y-112063996D01*
X147749501Y-111957553D01*
X147877553Y-111829501D01*
X147983996Y-111682994D01*
X148066211Y-111521639D01*
X148122171Y-111349409D01*
X148142743Y-111219524D01*
X148150500Y-111170551D01*
X148150500Y-110989448D01*
X148134019Y-110885397D01*
X148122171Y-110810591D01*
X148073224Y-110659945D01*
X148066212Y-110638363D01*
X148066211Y-110638360D01*
X148037740Y-110582484D01*
X147983996Y-110477006D01*
X147906463Y-110370290D01*
X147877558Y-110330505D01*
X147877554Y-110330500D01*
X147749499Y-110202445D01*
X147749494Y-110202441D01*
X147602995Y-110096004D01*
X147471314Y-110028908D01*
X147420519Y-109980934D01*
X147403724Y-109913113D01*
X147426262Y-109846978D01*
X147480977Y-109803527D01*
X147489295Y-109800492D01*
X147518217Y-109791095D01*
X147707554Y-109694622D01*
X147761716Y-109655270D01*
X147761717Y-109655270D01*
X147129408Y-109022962D01*
X147192993Y-109005925D01*
X147307007Y-108940099D01*
X147400099Y-108847007D01*
X147465925Y-108732993D01*
X147482962Y-108669408D01*
X148115270Y-109301717D01*
X148115270Y-109301716D01*
X148154622Y-109247554D01*
X148251095Y-109058217D01*
X148316757Y-108856130D01*
X148316757Y-108856127D01*
X148350000Y-108646246D01*
X148350000Y-108433753D01*
X148316757Y-108223872D01*
X148316757Y-108223869D01*
X148251095Y-108021782D01*
X148154624Y-107832449D01*
X148115270Y-107778282D01*
X148115269Y-107778282D01*
X147482962Y-108410590D01*
X147465925Y-108347007D01*
X147400099Y-108232993D01*
X147307007Y-108139901D01*
X147192993Y-108074075D01*
X147129409Y-108057037D01*
X147761716Y-107424728D01*
X147707550Y-107385375D01*
X147706786Y-107384986D01*
X147706546Y-107384759D01*
X147703396Y-107382829D01*
X147703801Y-107382167D01*
X147655988Y-107337013D01*
X147639191Y-107269192D01*
X147661726Y-107203057D01*
X147716440Y-107159604D01*
X147763076Y-107150499D01*
X147894864Y-107150499D01*
X147894879Y-107150497D01*
X147894882Y-107150497D01*
X147919987Y-107147586D01*
X147919988Y-107147585D01*
X147919991Y-107147585D01*
X148022765Y-107102206D01*
X148102206Y-107022765D01*
X148147585Y-106919991D01*
X148150500Y-106894865D01*
X148150499Y-105105136D01*
X148150497Y-105105117D01*
X148147586Y-105080012D01*
X148147585Y-105080010D01*
X148147585Y-105080009D01*
X148102206Y-104977235D01*
X148022765Y-104897794D01*
X148022763Y-104897793D01*
X147919992Y-104852415D01*
X147894865Y-104849500D01*
X146105143Y-104849500D01*
X146105117Y-104849502D01*
X146080012Y-104852413D01*
X146080008Y-104852415D01*
X145977235Y-104897793D01*
X145897794Y-104977234D01*
X145852415Y-105080006D01*
X145852415Y-105080008D01*
X145849500Y-105105131D01*
X145849500Y-105842871D01*
X145829815Y-105909910D01*
X145777011Y-105955665D01*
X145707853Y-105965609D01*
X145644297Y-105936584D01*
X145606523Y-105877806D01*
X145603027Y-105862269D01*
X145596107Y-105818585D01*
X145582171Y-105730591D01*
X145526211Y-105558361D01*
X145526211Y-105558360D01*
X145497740Y-105502484D01*
X145443996Y-105397006D01*
X145373881Y-105300500D01*
X145337558Y-105250505D01*
X145337554Y-105250500D01*
X145209499Y-105122445D01*
X145209494Y-105122441D01*
X145062997Y-105016006D01*
X145062996Y-105016005D01*
X145062994Y-105016004D01*
X144986906Y-104977235D01*
X144901639Y-104933788D01*
X144901636Y-104933787D01*
X144729410Y-104877829D01*
X144550551Y-104849500D01*
X144550546Y-104849500D01*
X144369454Y-104849500D01*
X144369449Y-104849500D01*
X144190589Y-104877829D01*
X144018363Y-104933787D01*
X144018360Y-104933788D01*
X143857002Y-105016006D01*
X143710505Y-105122441D01*
X143710500Y-105122445D01*
X143582445Y-105250500D01*
X143582441Y-105250505D01*
X143476006Y-105397002D01*
X143393788Y-105558360D01*
X143393787Y-105558363D01*
X143337829Y-105730589D01*
X143309500Y-105909448D01*
X143309500Y-106090551D01*
X143337829Y-106269410D01*
X143393787Y-106441636D01*
X143393788Y-106441639D01*
X143476006Y-106602997D01*
X143582441Y-106749494D01*
X143582445Y-106749499D01*
X143710500Y-106877554D01*
X143710505Y-106877558D01*
X143838287Y-106970396D01*
X143857006Y-106983996D01*
X143933092Y-107022764D01*
X143988684Y-107051090D01*
X144039480Y-107099065D01*
X144056275Y-107166886D01*
X144033737Y-107233021D01*
X143979022Y-107276472D01*
X143970708Y-107279506D01*
X143941781Y-107288905D01*
X143752439Y-107385380D01*
X143698282Y-107424727D01*
X143698282Y-107424728D01*
X144330591Y-108057037D01*
X144267007Y-108074075D01*
X144152993Y-108139901D01*
X144059901Y-108232993D01*
X143994075Y-108347007D01*
X143977037Y-108410591D01*
X143344728Y-107778282D01*
X143344727Y-107778282D01*
X143305380Y-107832439D01*
X143208904Y-108021782D01*
X143143242Y-108223869D01*
X143143242Y-108223872D01*
X143110000Y-108433753D01*
X100300500Y-108433753D01*
X100300500Y-103381995D01*
X101699500Y-103381995D01*
X101699500Y-103618004D01*
X101699501Y-103618020D01*
X101730306Y-103852010D01*
X101791394Y-104079993D01*
X101881714Y-104298045D01*
X101881719Y-104298056D01*
X101952677Y-104420957D01*
X101999727Y-104502450D01*
X101999729Y-104502453D01*
X101999730Y-104502454D01*
X102143406Y-104689697D01*
X102143412Y-104689704D01*
X102310295Y-104856587D01*
X102310302Y-104856593D01*
X102410904Y-104933787D01*
X102497550Y-105000273D01*
X102628918Y-105076118D01*
X102701943Y-105118280D01*
X102701948Y-105118282D01*
X102701951Y-105118284D01*
X102920007Y-105208606D01*
X103147986Y-105269693D01*
X103381989Y-105300500D01*
X103381996Y-105300500D01*
X103618004Y-105300500D01*
X103618011Y-105300500D01*
X103852014Y-105269693D01*
X104079993Y-105208606D01*
X104298049Y-105118284D01*
X104502450Y-105000273D01*
X104689699Y-104856592D01*
X104856592Y-104689699D01*
X105000273Y-104502450D01*
X105118284Y-104298049D01*
X105208606Y-104079993D01*
X105269693Y-103852014D01*
X105300500Y-103618011D01*
X105300500Y-103381989D01*
X105269693Y-103147986D01*
X105208606Y-102920007D01*
X105118284Y-102701951D01*
X105118282Y-102701948D01*
X105118280Y-102701943D01*
X105076118Y-102628918D01*
X105000273Y-102497550D01*
X104856592Y-102310301D01*
X104856587Y-102310295D01*
X104689704Y-102143412D01*
X104689697Y-102143406D01*
X104502454Y-101999730D01*
X104502453Y-101999729D01*
X104502450Y-101999727D01*
X104420957Y-101952677D01*
X104298056Y-101881719D01*
X104298045Y-101881714D01*
X104079993Y-101791394D01*
X103955873Y-101758136D01*
X103852014Y-101730307D01*
X103852013Y-101730306D01*
X103852010Y-101730306D01*
X103618020Y-101699501D01*
X103618017Y-101699500D01*
X103618011Y-101699500D01*
X103381989Y-101699500D01*
X103381983Y-101699500D01*
X103381979Y-101699501D01*
X103147989Y-101730306D01*
X102920006Y-101791394D01*
X102701954Y-101881714D01*
X102701943Y-101881719D01*
X102497545Y-101999730D01*
X102310302Y-102143406D01*
X102310295Y-102143412D01*
X102143412Y-102310295D01*
X102143406Y-102310302D01*
X101999730Y-102497545D01*
X101881719Y-102701943D01*
X101881714Y-102701954D01*
X101791394Y-102920006D01*
X101730306Y-103147989D01*
X101699501Y-103381979D01*
X101699500Y-103381995D01*
X100300500Y-103381995D01*
X100300500Y-102004427D01*
X100300816Y-101995581D01*
X100308959Y-101881719D01*
X100317165Y-101766973D01*
X100319681Y-101749476D01*
X100367457Y-101529852D01*
X100372434Y-101512901D01*
X100450986Y-101302295D01*
X100458325Y-101286226D01*
X100566043Y-101088955D01*
X100575599Y-101074086D01*
X100710293Y-100894156D01*
X100721867Y-100880799D01*
X100880799Y-100721867D01*
X100894156Y-100710293D01*
X101074086Y-100575599D01*
X101088955Y-100566043D01*
X101286226Y-100458325D01*
X101302295Y-100450986D01*
X101512901Y-100372434D01*
X101529852Y-100367457D01*
X101749476Y-100319681D01*
X101766973Y-100317165D01*
X101995582Y-100300816D01*
X102004428Y-100300500D01*
X102047594Y-100300500D01*
X172376000Y-100300500D01*
X172443039Y-100320185D01*
G37*
%TD.AperFunction*%
%TD*%
M02*
