%TF.GenerationSoftware,KiCad,Pcbnew,9.0.9*%
%TF.CreationDate,2026-10-02T04:23:02+00:00*%
%TF.ProjectId,AP1_Industrial,4150315f-496e-4647-9573-747269616c2e,rev?*%
%TF.SameCoordinates,Original*%
%TF.FileFunction,Copper,L2,Bot*%
%TF.FilePolarity,Positive*%
%FSLAX46Y46*%
G04 Gerber Fmt 4.6, Leading zero omitted, Abs format (unit mm)*
G04 Created by KiCad (PCBNEW 9.0.9) date 2026-10-02 04:23:02*
%MOMM*%
%LPD*%
G01*
G04 APERTURE LIST*
G04 Aperture macros list*
%AMRoundRect*
0 Rectangle with rounded corners*
0 $1 Rounding radius*
0 $2 $3 $4 $5 $6 $7 $8 $9 X,Y pos of 4 corners*
0 Add a 4 corners polygon primitive as box body*
4,1,4,$2,$3,$4,$5,$6,$7,$8,$9,$2,$3,0*
0 Add four circle primitives for the rounded corners*
1,1,$1+$1,$2,$3*
1,1,$1+$1,$4,$5*
1,1,$1+$1,$6,$7*
1,1,$1+$1,$8,$9*
0 Add four rect primitives between the rounded corners*
20,1,$1+$1,$2,$3,$4,$5,0*
20,1,$1+$1,$4,$5,$6,$7,0*
20,1,$1+$1,$6,$7,$8,$9,0*
20,1,$1+$1,$8,$9,$2,$3,0*%
G04 Aperture macros list end*
%TA.AperFunction,ComponentPad*%
%ADD10RoundRect,0.250001X-0.949999X-0.949999X0.949999X-0.949999X0.949999X0.949999X-0.949999X0.949999X0*%
%TD*%
%TA.AperFunction,ComponentPad*%
%ADD11C,2.400000*%
%TD*%
%TA.AperFunction,ComponentPad*%
%ADD12R,1.700000X1.700000*%
%TD*%
%TA.AperFunction,ComponentPad*%
%ADD13C,1.700000*%
%TD*%
%TA.AperFunction,ComponentPad*%
%ADD14R,2.250000X1.750000*%
%TD*%
%TA.AperFunction,ComponentPad*%
%ADD15O,2.250000X1.750000*%
%TD*%
%TA.AperFunction,ComponentPad*%
%ADD16RoundRect,0.250000X-1.050000X-1.050000X1.050000X-1.050000X1.050000X1.050000X-1.050000X1.050000X0*%
%TD*%
%TA.AperFunction,ComponentPad*%
%ADD17C,2.600000*%
%TD*%
%TA.AperFunction,ViaPad*%
%ADD18C,0.600000*%
%TD*%
%TA.AperFunction,Conductor*%
%ADD19C,0.250000*%
%TD*%
%TA.AperFunction,Conductor*%
%ADD20C,0.600000*%
%TD*%
G04 APERTURE END LIST*
D10*
%TO.P,J3,1*%
%TO.N,/DIM1*%
X103000000Y-149800000D03*
D11*
%TO.P,J3,2*%
%TO.N,/ISOGND*%
X106500000Y-149800000D03*
%TO.P,J3,3*%
%TO.N,/DIM2*%
X110000000Y-149800000D03*
%TO.P,J3,4*%
%TO.N,/ISOGND*%
X113500000Y-149800000D03*
%TO.P,J3,5*%
%TO.N,/DIM3*%
X117000000Y-149800000D03*
%TO.P,J3,6*%
%TO.N,/ISOGND*%
X120500000Y-149800000D03*
%TO.P,J3,7*%
%TO.N,/DIM4*%
X124000000Y-149800000D03*
%TO.P,J3,8*%
%TO.N,/ISOGND*%
X127500000Y-149800000D03*
%TD*%
D12*
%TO.P,J7,1*%
%TO.N,/V12*%
X147000000Y-106000000D03*
D13*
%TO.P,J7,2*%
X144460000Y-106000000D03*
%TO.P,J7,3*%
%TO.N,/GND*%
X147000000Y-108540000D03*
%TO.P,J7,4*%
X144460000Y-108540000D03*
%TO.P,J7,5*%
%TO.N,/PWM1*%
X147000000Y-111080000D03*
%TO.P,J7,6*%
%TO.N,/PWM2*%
X144460000Y-111080000D03*
%TO.P,J7,7*%
%TO.N,/PWM3*%
X147000000Y-113620000D03*
%TO.P,J7,8*%
%TO.N,/PWM4*%
X144460000Y-113620000D03*
%TO.P,J7,9*%
%TO.N,/CC1*%
X147000000Y-116160000D03*
%TO.P,J7,10*%
%TO.N,unconnected-(J7-Pin_10-Pad10)*%
X144460000Y-116160000D03*
%TO.P,J7,11*%
%TO.N,/SDA*%
X147000000Y-118700000D03*
%TO.P,J7,12*%
%TO.N,/SCL*%
X144460000Y-118700000D03*
%TO.P,J7,13*%
%TO.N,unconnected-(J7-Pin_13-Pad13)*%
X147000000Y-121240000D03*
%TO.P,J7,14*%
%TO.N,/AUX*%
X144460000Y-121240000D03*
%TO.P,J7,15*%
%TO.N,/3V3*%
X147000000Y-123780000D03*
%TO.P,J7,16*%
%TO.N,/GND*%
X144460000Y-123780000D03*
%TD*%
D10*
%TO.P,J2,1*%
%TO.N,/VIN*%
X162000000Y-149800000D03*
D11*
%TO.P,J2,2*%
%TO.N,/K1*%
X165500000Y-149800000D03*
%TO.P,J2,3*%
%TO.N,/VIN*%
X169000000Y-149800000D03*
%TO.P,J2,4*%
%TO.N,/K2*%
X172500000Y-149800000D03*
%TD*%
D14*
%TO.P,U2,1*%
%TO.N,/GND*%
X120000000Y-124900000D03*
D15*
%TO.P,U2,2*%
%TO.N,/V12*%
X120000000Y-127440000D03*
%TO.P,U2,3*%
%TO.N,/ISOGND*%
X120000000Y-129980000D03*
%TO.P,U2,4*%
%TO.N,/ISO12*%
X120000000Y-132520000D03*
%TD*%
D16*
%TO.P,J1,1*%
%TO.N,/VIN_RAW*%
X148000000Y-149800000D03*
D17*
%TO.P,J1,2*%
%TO.N,/GND*%
X153080000Y-149800000D03*
%TD*%
D18*
%TO.N,/GND*%
X110000000Y-114000000D03*
X144950000Y-131601617D03*
X126000000Y-106000000D03*
X162000000Y-126000000D03*
X113800500Y-105193682D03*
X174000000Y-154000000D03*
X170000000Y-114000000D03*
X178000000Y-150000000D03*
X122000000Y-106000000D03*
X182000000Y-146000000D03*
X142000000Y-122000000D03*
X166000000Y-154000000D03*
X162000000Y-146000000D03*
X150000000Y-102000000D03*
X170000000Y-126000000D03*
X148825310Y-111045001D03*
X122000000Y-110000000D03*
X116610000Y-108116000D03*
X166000000Y-106000000D03*
X114000000Y-122000000D03*
X166173186Y-141140986D03*
X182000000Y-142000000D03*
X146000000Y-154000000D03*
X168300500Y-136556383D03*
X163460273Y-140411394D03*
X170000000Y-154000000D03*
X150000000Y-126000000D03*
X174000000Y-138000000D03*
X145838482Y-122464930D03*
X118000000Y-106000000D03*
X134000000Y-106000000D03*
X111330000Y-112362000D03*
X100750500Y-127084350D03*
X111100879Y-111005696D03*
X170000000Y-118000000D03*
X182000000Y-150000000D03*
X150000000Y-154000000D03*
X178000000Y-146000000D03*
X182000000Y-134000000D03*
X178000000Y-142000000D03*
X158000000Y-122000000D03*
X178000000Y-138000000D03*
X160865130Y-137014909D03*
X106000000Y-102000000D03*
X138000000Y-110000000D03*
X126000000Y-110000000D03*
X105213159Y-127834350D03*
X162000000Y-102000000D03*
X154000000Y-122000000D03*
X130000000Y-110000000D03*
X144950000Y-143520752D03*
X162000000Y-122000000D03*
X166000000Y-130000000D03*
X170000000Y-122000000D03*
X170000000Y-102000000D03*
X158000000Y-118000000D03*
X124841494Y-127661500D03*
X142000000Y-118000000D03*
X142000000Y-110000000D03*
X130000000Y-106000000D03*
X106000000Y-114000000D03*
X154000000Y-102000000D03*
X186000000Y-150000000D03*
X166000000Y-126000000D03*
X182000000Y-154000000D03*
X166000000Y-110000000D03*
X170000000Y-130000000D03*
X162000000Y-110000000D03*
X148224930Y-112315001D03*
X186000000Y-134000000D03*
X158000000Y-106000000D03*
X166000000Y-122000000D03*
X166000000Y-102000000D03*
X110000000Y-126000000D03*
X162000000Y-106000000D03*
X134000000Y-110000000D03*
X166000000Y-114000000D03*
X118000000Y-122000000D03*
X106000000Y-118000000D03*
X154000000Y-154000000D03*
X158000000Y-154000000D03*
X118000000Y-110000000D03*
X158000000Y-150000000D03*
X142000000Y-126000000D03*
X102000000Y-106000000D03*
X114000000Y-126000000D03*
X105050000Y-109332000D03*
X150000000Y-106000000D03*
X114000000Y-118000000D03*
X186000000Y-146000000D03*
X158000000Y-142000000D03*
X178000000Y-154000000D03*
X154000000Y-106000000D03*
X170000000Y-110000000D03*
X100750500Y-110400013D03*
X104308000Y-125936000D03*
X174000000Y-146000000D03*
X178000000Y-134000000D03*
X174000000Y-142000000D03*
X151395630Y-138899986D03*
X170000000Y-106000000D03*
X150000000Y-146000000D03*
X182000000Y-138000000D03*
X162000000Y-118000000D03*
X102000000Y-114000000D03*
X158000000Y-102000000D03*
X186000000Y-142000000D03*
X124488000Y-122496000D03*
X157522000Y-145456000D03*
X110000000Y-122000000D03*
X154000000Y-146000000D03*
X146000000Y-102000000D03*
X158000000Y-126000000D03*
X162000000Y-154000000D03*
X154000000Y-126000000D03*
X138000000Y-106000000D03*
X100750500Y-123227127D03*
X162000000Y-130000000D03*
X102000000Y-118000000D03*
%TO.N,/VF*%
X154433000Y-142705000D03*
X150163000Y-142789000D03*
%TO.N,/VIN*%
X116640000Y-113514000D03*
X169923000Y-136223000D03*
X149140000Y-136874000D03*
%TO.N,/K1*%
X164552000Y-141182000D03*
%TO.N,/AUX*%
X159462000Y-138046000D03*
%TO.N,/CC1*%
X167421000Y-138046000D03*
%TO.N,/ISOGND*%
X100750500Y-132899999D03*
X114000000Y-146000000D03*
X134826762Y-141364374D03*
X120063143Y-137489246D03*
X134683228Y-138207814D03*
X130000000Y-154000000D03*
X110000000Y-154000000D03*
X102000000Y-146000000D03*
X134000000Y-150000000D03*
X106000000Y-146000000D03*
X138000000Y-150000000D03*
X106000000Y-154000000D03*
X111193000Y-141929000D03*
X134487728Y-134621500D03*
X138000000Y-154000000D03*
X118450000Y-131510940D03*
X111545627Y-134582200D03*
X130000000Y-150000000D03*
X134000000Y-154000000D03*
X122000000Y-134000000D03*
X114448648Y-140913321D03*
X122000000Y-154000000D03*
X102505000Y-141750000D03*
X118000000Y-146000000D03*
X114000000Y-154000000D03*
X126000000Y-134000000D03*
X100750500Y-139635898D03*
X102000000Y-154000000D03*
X126000000Y-146000000D03*
X118000000Y-154000000D03*
X118200500Y-134119200D03*
X126000000Y-154000000D03*
X100750500Y-137263643D03*
%TO.N,/ISO12*%
X135662000Y-133496000D03*
X138644000Y-133488000D03*
X106341000Y-133458000D03*
%TO.N,/FL1*%
X106180000Y-134500000D03*
X113109000Y-138635000D03*
X105022000Y-139026000D03*
%TO.N,/FL2*%
X115061000Y-139832000D03*
X105816000Y-140234000D03*
X110323000Y-134634000D03*
%TO.N,/OUT2*%
X111475000Y-140885000D03*
X105604000Y-143973000D03*
%TO.N,/OUT3*%
X130223000Y-143448000D03*
X124800000Y-138000000D03*
%TO.N,/FL4*%
X131942000Y-140952000D03*
X135170000Y-140243000D03*
%TO.N,/OUT4*%
X126993000Y-138719000D03*
X135022000Y-144225000D03*
%TO.N,/DIM4*%
X132738000Y-143006000D03*
%TO.N,/SDA*%
X157979000Y-113905000D03*
%TO.N,/3V3*%
X157361000Y-115414000D03*
X158202000Y-110739000D03*
%TO.N,/PWM1*%
X111764000Y-114436000D03*
X103981000Y-124550000D03*
%TO.N,/PWM2*%
X106804000Y-124103000D03*
%TO.N,/PWM4*%
X138022000Y-123767000D03*
%TO.N,/LA1*%
X103741000Y-123516000D03*
X104518000Y-126994000D03*
%TO.N,/EM3*%
X130724000Y-133916000D03*
X127188000Y-136730000D03*
%TO.N,/LA4*%
X137949000Y-122026000D03*
X138664000Y-126284000D03*
%TD*%
D19*
%TO.N,/GND*%
X102668000Y-118717000D02*
X102668000Y-124772000D01*
X153080000Y-149800000D02*
X153177000Y-149800000D01*
X120000000Y-124900000D02*
X122083000Y-124900000D01*
X153177000Y-149800000D02*
X157522000Y-145456000D01*
X105050000Y-109332000D02*
X108551000Y-112834000D01*
X145730000Y-109810000D02*
X147000000Y-108540000D01*
X103886000Y-125936000D02*
X104308000Y-125936000D01*
X115577000Y-108116000D02*
X116610000Y-108116000D01*
X104267000Y-127669000D02*
X103886000Y-127288000D01*
X144460000Y-123780000D02*
X145730000Y-122510000D01*
X120000000Y-124900000D02*
X107637000Y-124900000D01*
X111330000Y-112362000D02*
X109023000Y-112362000D01*
X122083000Y-124900000D02*
X124488000Y-122496000D01*
X103886000Y-127288000D02*
X103886000Y-125936000D01*
X102668000Y-124772000D02*
X103831000Y-125936000D01*
X109023000Y-112362000D02*
X108551000Y-112834000D01*
X103831000Y-125936000D02*
X103886000Y-125936000D01*
X107637000Y-124900000D02*
X104868000Y-127669000D01*
X108551000Y-112834000D02*
X102668000Y-118717000D01*
X104868000Y-127669000D02*
X104267000Y-127669000D01*
X111330000Y-112362000D02*
X115577000Y-108116000D01*
X145730000Y-122510000D02*
X145730000Y-109810000D01*
D20*
%TO.N,/VF*%
X154433000Y-142705000D02*
X150247000Y-142705000D01*
X150247000Y-142705000D02*
X150163000Y-142789000D01*
%TO.N,/VIN*%
X144245000Y-127408000D02*
X130534000Y-127408000D01*
X149140000Y-132304000D02*
X144245000Y-127408000D01*
X167298000Y-151502000D02*
X163702000Y-151502000D01*
X163702000Y-151502000D02*
X162000000Y-149800000D01*
X169923000Y-136223000D02*
X169923000Y-148877000D01*
X130534000Y-127408000D02*
X116640000Y-113514000D01*
X149140000Y-136874000D02*
X149140000Y-132304000D01*
X169923000Y-148877000D02*
X167298000Y-151502000D01*
%TO.N,/K1*%
X164552000Y-141182000D02*
X165500000Y-142131000D01*
X165500000Y-142131000D02*
X165500000Y-149800000D01*
D19*
%TO.N,/AUX*%
X143233000Y-122467000D02*
X143233000Y-124275000D01*
X157004000Y-138046000D02*
X159462000Y-138046000D01*
X144460000Y-121240000D02*
X143233000Y-122467000D01*
X143233000Y-124275000D02*
X157004000Y-138046000D01*
%TO.N,/CC1*%
X153063000Y-110097000D02*
X158486000Y-110097000D01*
X158486000Y-110097000D02*
X167421000Y-119032000D01*
X147000000Y-116160000D02*
X153063000Y-110097000D01*
X167421000Y-119032000D02*
X167421000Y-138046000D01*
%TO.N,/ISOGND*%
X111193000Y-141929000D02*
X111193000Y-145107000D01*
X122062000Y-151362000D02*
X118932000Y-148232000D01*
X106500000Y-149800000D02*
X102505000Y-145805000D01*
X110000000Y-146300000D02*
X113500000Y-149800000D01*
X115068000Y-148232000D02*
X113500000Y-149800000D01*
X102505000Y-145805000D02*
X102505000Y-141750000D01*
X127500000Y-149800000D02*
X125938000Y-151362000D01*
X118932000Y-148232000D02*
X115068000Y-148232000D01*
X125938000Y-151362000D02*
X122062000Y-151362000D01*
X111193000Y-145107000D02*
X106500000Y-149800000D01*
%TO.N,/ISO12*%
X135662000Y-133496000D02*
X138636000Y-133496000D01*
X106341000Y-133458000D02*
X117610000Y-133458000D01*
X120000000Y-132520000D02*
X118548000Y-132520000D01*
X138636000Y-133496000D02*
X138644000Y-133488000D01*
X117610000Y-133458000D02*
X118548000Y-132520000D01*
%TO.N,/FL1*%
X105022000Y-135658000D02*
X105022000Y-139026000D01*
X110316000Y-138635000D02*
X113109000Y-138635000D01*
X106180000Y-134500000D02*
X105022000Y-135658000D01*
X106180000Y-134500000D02*
X110316000Y-138635000D01*
%TO.N,/FL2*%
X105816000Y-140234000D02*
X112434000Y-140234000D01*
X113949000Y-138260000D02*
X110323000Y-134634000D01*
X115061000Y-139832000D02*
X113949000Y-138719000D01*
X112434000Y-140234000D02*
X113949000Y-138719000D01*
X113949000Y-138719000D02*
X113949000Y-138260000D01*
%TO.N,/OUT2*%
X108692000Y-140885000D02*
X105604000Y-143973000D01*
X111475000Y-140885000D02*
X108692000Y-140885000D01*
%TO.N,/OUT3*%
X124800000Y-138000000D02*
X130223000Y-143422000D01*
X130223000Y-143422000D02*
X130223000Y-143448000D01*
%TO.N,/FL4*%
X132651000Y-140243000D02*
X135170000Y-140243000D01*
X131942000Y-140952000D02*
X132651000Y-140243000D01*
%TO.N,/OUT4*%
X135022000Y-144225000D02*
X133018000Y-142221000D01*
X133018000Y-142221000D02*
X130495000Y-142221000D01*
X130495000Y-142221000D02*
X126993000Y-138719000D01*
%TO.N,/DIM4*%
X128527000Y-147218000D02*
X126582000Y-147218000D01*
X126582000Y-147218000D02*
X124000000Y-149800000D01*
X132738000Y-143006000D02*
X128527000Y-147218000D01*
%TO.N,/SDA*%
X153184000Y-118700000D02*
X147000000Y-118700000D01*
X157979000Y-113905000D02*
X153184000Y-118700000D01*
%TO.N,/3V3*%
X147000000Y-123780000D02*
X148995000Y-123780000D01*
X148995000Y-123780000D02*
X157361000Y-115414000D01*
X158616000Y-114159000D02*
X157361000Y-115414000D01*
X158202000Y-110739000D02*
X158616000Y-111153000D01*
X158616000Y-111153000D02*
X158616000Y-114159000D01*
%TO.N,/PWM1*%
X111764000Y-116766000D02*
X103981000Y-124550000D01*
X111764000Y-114436000D02*
X111764000Y-116766000D01*
%TO.N,/PWM2*%
X118106000Y-111080000D02*
X144460000Y-111080000D01*
X106804000Y-124103000D02*
X106804000Y-122383000D01*
X106804000Y-122383000D02*
X118106000Y-111080000D01*
%TO.N,/PWM4*%
X144460000Y-113620000D02*
X139138000Y-118942000D01*
X139138000Y-122651000D02*
X138022000Y-123767000D01*
X139138000Y-118942000D02*
X139138000Y-122651000D01*
%TO.N,/LA1*%
X104947000Y-125667000D02*
X104947000Y-126564000D01*
X103741000Y-123516000D02*
X103120000Y-124137000D01*
X103995000Y-125357000D02*
X104052000Y-125300000D01*
X103892000Y-125357000D02*
X103995000Y-125357000D01*
X104581000Y-125300000D02*
X104947000Y-125667000D01*
X104947000Y-126564000D02*
X104518000Y-126994000D01*
X103120000Y-124585000D02*
X103892000Y-125357000D01*
X104052000Y-125300000D02*
X104581000Y-125300000D01*
X103120000Y-124137000D02*
X103120000Y-124585000D01*
%TO.N,/EM3*%
X130724000Y-133916000D02*
X127909000Y-136730000D01*
X127909000Y-136730000D02*
X127188000Y-136730000D01*
%TO.N,/LA4*%
X137392000Y-122584000D02*
X137392000Y-125012000D01*
X137949000Y-122026000D02*
X137392000Y-122584000D01*
X137392000Y-125012000D02*
X138664000Y-126284000D01*
%TD*%
%TA.AperFunction,Conductor*%
%TO.N,/GND*%
G36*
X172443039Y-100320185D02*
G01*
X172488794Y-100372989D01*
X172500000Y-100424500D01*
X172500000Y-130500000D01*
X187575500Y-130500000D01*
X187642539Y-130519685D01*
X187688294Y-130572489D01*
X187699500Y-130624000D01*
X187699500Y-153995572D01*
X187699184Y-154004419D01*
X187682833Y-154233019D01*
X187680315Y-154250530D01*
X187632544Y-154470133D01*
X187627560Y-154487109D01*
X187549016Y-154697691D01*
X187541666Y-154713783D01*
X187433961Y-154911032D01*
X187424396Y-154925917D01*
X187289708Y-155105838D01*
X187278122Y-155119208D01*
X187119208Y-155278122D01*
X187105838Y-155289708D01*
X186925917Y-155424396D01*
X186911032Y-155433961D01*
X186713783Y-155541666D01*
X186697691Y-155549016D01*
X186487109Y-155627560D01*
X186470133Y-155632544D01*
X186250530Y-155680315D01*
X186233019Y-155682833D01*
X186025320Y-155697688D01*
X186004417Y-155699184D01*
X185995572Y-155699500D01*
X144624000Y-155699500D01*
X144556961Y-155679815D01*
X144511206Y-155627011D01*
X144500000Y-155575500D01*
X144500000Y-152381995D01*
X182699500Y-152381995D01*
X182699500Y-152618004D01*
X182699501Y-152618020D01*
X182730306Y-152852010D01*
X182791394Y-153079993D01*
X182881714Y-153298045D01*
X182881719Y-153298056D01*
X182952677Y-153420957D01*
X182999727Y-153502450D01*
X182999729Y-153502453D01*
X182999730Y-153502454D01*
X183143406Y-153689697D01*
X183143412Y-153689704D01*
X183310295Y-153856587D01*
X183310301Y-153856592D01*
X183497550Y-154000273D01*
X183628918Y-154076118D01*
X183701943Y-154118280D01*
X183701948Y-154118282D01*
X183701951Y-154118284D01*
X183920007Y-154208606D01*
X184147986Y-154269693D01*
X184381989Y-154300500D01*
X184381996Y-154300500D01*
X184618004Y-154300500D01*
X184618011Y-154300500D01*
X184852014Y-154269693D01*
X185079993Y-154208606D01*
X185298049Y-154118284D01*
X185502450Y-154000273D01*
X185689699Y-153856592D01*
X185856592Y-153689699D01*
X186000273Y-153502450D01*
X186118284Y-153298049D01*
X186208606Y-153079993D01*
X186269693Y-152852014D01*
X186300500Y-152618011D01*
X186300500Y-152381989D01*
X186269693Y-152147986D01*
X186208606Y-151920007D01*
X186118284Y-151701951D01*
X186118282Y-151701948D01*
X186118280Y-151701943D01*
X186076118Y-151628918D01*
X186000273Y-151497550D01*
X185875053Y-151334360D01*
X185856593Y-151310302D01*
X185856587Y-151310295D01*
X185689704Y-151143412D01*
X185689697Y-151143406D01*
X185502454Y-150999730D01*
X185502453Y-150999729D01*
X185502450Y-150999727D01*
X185420957Y-150952677D01*
X185298056Y-150881719D01*
X185298045Y-150881714D01*
X185079993Y-150791394D01*
X184852010Y-150730306D01*
X184618020Y-150699501D01*
X184618017Y-150699500D01*
X184618011Y-150699500D01*
X184381989Y-150699500D01*
X184381983Y-150699500D01*
X184381979Y-150699501D01*
X184147989Y-150730306D01*
X183920006Y-150791394D01*
X183701954Y-150881714D01*
X183701943Y-150881719D01*
X183497545Y-150999730D01*
X183310302Y-151143406D01*
X183310295Y-151143412D01*
X183143412Y-151310295D01*
X183143406Y-151310302D01*
X182999730Y-151497545D01*
X182881719Y-151701943D01*
X182881714Y-151701954D01*
X182791394Y-151920006D01*
X182730306Y-152147989D01*
X182699501Y-152381979D01*
X182699500Y-152381995D01*
X144500000Y-152381995D01*
X144500000Y-148706898D01*
X146399500Y-148706898D01*
X146399500Y-150893102D01*
X146405126Y-150939954D01*
X146410122Y-150981561D01*
X146465639Y-151122343D01*
X146557077Y-151242922D01*
X146677656Y-151334360D01*
X146677657Y-151334360D01*
X146677658Y-151334361D01*
X146818436Y-151389877D01*
X146906898Y-151400500D01*
X146906903Y-151400500D01*
X149093097Y-151400500D01*
X149093102Y-151400500D01*
X149181564Y-151389877D01*
X149322342Y-151334361D01*
X149442922Y-151242922D01*
X149534361Y-151122342D01*
X149589877Y-150981564D01*
X149600500Y-150893102D01*
X149600500Y-149682014D01*
X151280000Y-149682014D01*
X151280000Y-149917985D01*
X151310799Y-150151914D01*
X151371870Y-150379837D01*
X151462160Y-150597819D01*
X151462165Y-150597828D01*
X151580144Y-150802171D01*
X151580145Y-150802172D01*
X151642721Y-150883723D01*
X152478958Y-150047487D01*
X152503978Y-150107890D01*
X152575112Y-150214351D01*
X152665649Y-150304888D01*
X152772110Y-150376022D01*
X152832511Y-150401041D01*
X151996275Y-151237277D01*
X152077827Y-151299854D01*
X152077828Y-151299855D01*
X152282171Y-151417834D01*
X152282180Y-151417839D01*
X152500163Y-151508129D01*
X152500161Y-151508129D01*
X152728085Y-151569200D01*
X152962014Y-151599999D01*
X152962029Y-151600000D01*
X153197971Y-151600000D01*
X153197985Y-151599999D01*
X153431914Y-151569200D01*
X153659837Y-151508129D01*
X153877819Y-151417839D01*
X153877828Y-151417834D01*
X154082181Y-151299850D01*
X154163723Y-151237279D01*
X154163723Y-151237276D01*
X153327487Y-150401041D01*
X153387890Y-150376022D01*
X153494351Y-150304888D01*
X153584888Y-150214351D01*
X153656022Y-150107890D01*
X153681041Y-150047488D01*
X154517276Y-150883723D01*
X154517279Y-150883723D01*
X154579850Y-150802181D01*
X154697834Y-150597828D01*
X154697839Y-150597819D01*
X154788129Y-150379837D01*
X154849200Y-150151914D01*
X154879999Y-149917985D01*
X154880000Y-149917971D01*
X154880000Y-149682028D01*
X154879999Y-149682014D01*
X154849200Y-149448085D01*
X154788129Y-149220162D01*
X154697839Y-149002180D01*
X154697834Y-149002171D01*
X154618751Y-148865196D01*
X154585093Y-148806900D01*
X160499500Y-148806900D01*
X160499500Y-150793091D01*
X160510123Y-150881562D01*
X160565639Y-151022342D01*
X160565640Y-151022344D01*
X160657077Y-151142922D01*
X160757814Y-151219313D01*
X160777658Y-151234361D01*
X160918436Y-151289876D01*
X161006901Y-151300500D01*
X162599902Y-151300499D01*
X162666941Y-151320184D01*
X162687583Y-151336818D01*
X163217139Y-151866374D01*
X163217149Y-151866385D01*
X163221479Y-151870715D01*
X163221480Y-151870716D01*
X163333284Y-151982520D01*
X163333286Y-151982521D01*
X163333290Y-151982524D01*
X163470209Y-152061573D01*
X163470216Y-152061577D01*
X163581745Y-152091461D01*
X163622942Y-152102500D01*
X163622943Y-152102500D01*
X167211331Y-152102500D01*
X167211347Y-152102501D01*
X167218943Y-152102501D01*
X167377054Y-152102501D01*
X167377057Y-152102501D01*
X167529785Y-152061577D01*
X167579904Y-152032639D01*
X167666716Y-151982520D01*
X167778520Y-151870716D01*
X167778520Y-151870714D01*
X167788728Y-151860507D01*
X167788730Y-151860504D01*
X168396437Y-151252796D01*
X168457758Y-151219313D01*
X168522433Y-151222547D01*
X168648632Y-151263553D01*
X168736110Y-151277408D01*
X168881903Y-151300500D01*
X168881908Y-151300500D01*
X169118097Y-151300500D01*
X169351368Y-151263553D01*
X169414863Y-151242922D01*
X169575992Y-151190568D01*
X169786433Y-151083343D01*
X169977510Y-150944517D01*
X170144517Y-150777510D01*
X170283343Y-150586433D01*
X170390568Y-150375992D01*
X170463553Y-150151368D01*
X170489175Y-149989598D01*
X170500500Y-149918097D01*
X170500500Y-149681902D01*
X170999500Y-149681902D01*
X170999500Y-149918097D01*
X171036446Y-150151368D01*
X171086329Y-150304888D01*
X171100143Y-150347405D01*
X171109433Y-150375994D01*
X171135045Y-150426260D01*
X171216657Y-150586433D01*
X171355483Y-150777510D01*
X171522490Y-150944517D01*
X171713567Y-151083343D01*
X171790107Y-151122342D01*
X171924003Y-151190566D01*
X171924005Y-151190566D01*
X171924008Y-151190568D01*
X172012476Y-151219313D01*
X172148631Y-151263553D01*
X172381903Y-151300500D01*
X172381908Y-151300500D01*
X172618097Y-151300500D01*
X172851368Y-151263553D01*
X172914863Y-151242922D01*
X173075992Y-151190568D01*
X173286433Y-151083343D01*
X173477510Y-150944517D01*
X173644517Y-150777510D01*
X173783343Y-150586433D01*
X173890568Y-150375992D01*
X173963553Y-150151368D01*
X173989175Y-149989598D01*
X174000500Y-149918097D01*
X174000500Y-149681902D01*
X173963553Y-149448631D01*
X173890566Y-149224003D01*
X173783342Y-149013566D01*
X173644517Y-148822490D01*
X173477510Y-148655483D01*
X173286433Y-148516657D01*
X173286429Y-148516655D01*
X173075996Y-148409433D01*
X172851368Y-148336446D01*
X172618097Y-148299500D01*
X172618092Y-148299500D01*
X172381908Y-148299500D01*
X172381903Y-148299500D01*
X172148631Y-148336446D01*
X171924003Y-148409433D01*
X171713566Y-148516657D01*
X171604550Y-148595862D01*
X171522490Y-148655483D01*
X171522488Y-148655485D01*
X171522487Y-148655485D01*
X171355485Y-148822487D01*
X171355485Y-148822488D01*
X171355483Y-148822490D01*
X171324455Y-148865196D01*
X171216657Y-149013566D01*
X171109433Y-149224003D01*
X171036446Y-149448631D01*
X170999500Y-149681902D01*
X170500500Y-149681902D01*
X170463553Y-149448635D01*
X170463553Y-149448632D01*
X170416804Y-149304758D01*
X170414810Y-149234918D01*
X170427346Y-149204446D01*
X170482577Y-149108784D01*
X170523501Y-148956057D01*
X170523501Y-148797942D01*
X170523501Y-148790347D01*
X170523500Y-148790329D01*
X170523500Y-139381995D01*
X182699500Y-139381995D01*
X182699500Y-139618004D01*
X182699501Y-139618020D01*
X182730306Y-139852010D01*
X182791394Y-140079993D01*
X182881714Y-140298045D01*
X182881719Y-140298056D01*
X182952677Y-140420957D01*
X182999727Y-140502450D01*
X182999729Y-140502453D01*
X182999730Y-140502454D01*
X183143406Y-140689697D01*
X183143412Y-140689704D01*
X183310295Y-140856587D01*
X183310301Y-140856592D01*
X183497550Y-141000273D01*
X183628918Y-141076118D01*
X183701943Y-141118280D01*
X183701948Y-141118282D01*
X183701951Y-141118284D01*
X183920007Y-141208606D01*
X184147986Y-141269693D01*
X184381989Y-141300500D01*
X184381996Y-141300500D01*
X184618004Y-141300500D01*
X184618011Y-141300500D01*
X184852014Y-141269693D01*
X185079993Y-141208606D01*
X185298049Y-141118284D01*
X185502450Y-141000273D01*
X185689699Y-140856592D01*
X185856592Y-140689699D01*
X186000273Y-140502450D01*
X186118284Y-140298049D01*
X186208606Y-140079993D01*
X186269693Y-139852014D01*
X186300500Y-139618011D01*
X186300500Y-139381989D01*
X186269693Y-139147986D01*
X186208606Y-138920007D01*
X186118284Y-138701951D01*
X186118282Y-138701948D01*
X186118280Y-138701943D01*
X186062640Y-138605573D01*
X186000273Y-138497550D01*
X185856592Y-138310301D01*
X185856587Y-138310295D01*
X185689704Y-138143412D01*
X185689697Y-138143406D01*
X185502454Y-137999730D01*
X185502453Y-137999729D01*
X185502450Y-137999727D01*
X185420957Y-137952677D01*
X185298056Y-137881719D01*
X185298045Y-137881714D01*
X185079993Y-137791394D01*
X184852010Y-137730306D01*
X184618020Y-137699501D01*
X184618017Y-137699500D01*
X184618011Y-137699500D01*
X184381989Y-137699500D01*
X184381983Y-137699500D01*
X184381979Y-137699501D01*
X184147989Y-137730306D01*
X183920006Y-137791394D01*
X183701954Y-137881714D01*
X183701943Y-137881719D01*
X183497545Y-137999730D01*
X183310302Y-138143406D01*
X183310295Y-138143412D01*
X183143412Y-138310295D01*
X183143406Y-138310302D01*
X182999730Y-138497545D01*
X182881719Y-138701943D01*
X182881714Y-138701954D01*
X182791394Y-138920006D01*
X182730306Y-139147989D01*
X182699501Y-139381979D01*
X182699500Y-139381995D01*
X170523500Y-139381995D01*
X170523500Y-136143945D01*
X170523500Y-136143943D01*
X170482577Y-135991216D01*
X170482573Y-135991209D01*
X170403524Y-135854290D01*
X170403518Y-135854282D01*
X170291717Y-135742481D01*
X170291709Y-135742475D01*
X170154790Y-135663426D01*
X170154786Y-135663424D01*
X170154784Y-135663423D01*
X170002057Y-135622500D01*
X169843943Y-135622500D01*
X169691216Y-135663423D01*
X169691209Y-135663426D01*
X169554290Y-135742475D01*
X169554282Y-135742481D01*
X169442481Y-135854282D01*
X169442475Y-135854290D01*
X169363426Y-135991209D01*
X169363423Y-135991216D01*
X169322500Y-136143943D01*
X169322500Y-148186689D01*
X169302815Y-148253728D01*
X169250011Y-148299483D01*
X169180853Y-148309427D01*
X169179103Y-148309162D01*
X169118098Y-148299500D01*
X169118092Y-148299500D01*
X168881908Y-148299500D01*
X168881903Y-148299500D01*
X168648631Y-148336446D01*
X168424003Y-148409433D01*
X168213566Y-148516657D01*
X168104550Y-148595862D01*
X168022490Y-148655483D01*
X168022488Y-148655485D01*
X168022487Y-148655485D01*
X167855485Y-148822487D01*
X167855485Y-148822488D01*
X167855483Y-148822490D01*
X167824455Y-148865196D01*
X167716657Y-149013566D01*
X167609433Y-149224003D01*
X167536446Y-149448631D01*
X167499500Y-149681902D01*
X167499500Y-149918097D01*
X167536447Y-150151369D01*
X167536447Y-150151372D01*
X167577450Y-150277564D01*
X167579445Y-150347405D01*
X167547200Y-150403563D01*
X167085584Y-150865181D01*
X167058656Y-150879884D01*
X167032838Y-150896477D01*
X167026637Y-150897368D01*
X167024261Y-150898666D01*
X166997903Y-150901500D01*
X166797797Y-150901500D01*
X166730758Y-150881815D01*
X166685003Y-150829011D01*
X166675059Y-150759853D01*
X166697479Y-150704614D01*
X166701195Y-150699500D01*
X166783343Y-150586433D01*
X166890568Y-150375992D01*
X166963553Y-150151368D01*
X166989175Y-149989598D01*
X167000500Y-149918097D01*
X167000500Y-149681902D01*
X166963553Y-149448631D01*
X166890566Y-149224003D01*
X166783342Y-149013566D01*
X166644517Y-148822490D01*
X166477510Y-148655483D01*
X166381971Y-148586070D01*
X166286431Y-148516655D01*
X166168204Y-148456415D01*
X166117409Y-148408441D01*
X166100500Y-148345931D01*
X166100500Y-142132269D01*
X166100542Y-142052259D01*
X166100500Y-142052101D01*
X166100500Y-142051943D01*
X166080188Y-141976137D01*
X166059699Y-141899511D01*
X166059618Y-141899371D01*
X166059577Y-141899216D01*
X166019809Y-141830335D01*
X165980714Y-141762538D01*
X165980713Y-141762536D01*
X165980522Y-141762287D01*
X165980520Y-141762284D01*
X165923840Y-141705604D01*
X165632327Y-141413784D01*
X165038488Y-140819318D01*
X165032600Y-140813424D01*
X165032520Y-140813284D01*
X164975946Y-140756710D01*
X164973301Y-140754062D01*
X164920968Y-140701673D01*
X164920886Y-140701611D01*
X164920718Y-140701482D01*
X164920716Y-140701480D01*
X164851791Y-140661686D01*
X164784080Y-140622546D01*
X164783952Y-140622511D01*
X164783832Y-140622442D01*
X164783786Y-140622423D01*
X164707947Y-140602102D01*
X164707884Y-140602085D01*
X164631369Y-140581539D01*
X164631249Y-140581523D01*
X164631116Y-140581506D01*
X164631072Y-140581500D01*
X164631057Y-140581500D01*
X164553269Y-140581500D01*
X164473259Y-140581458D01*
X164473258Y-140581458D01*
X164473255Y-140581458D01*
X164472950Y-140581498D01*
X164397373Y-140601748D01*
X164397313Y-140601764D01*
X164320506Y-140622301D01*
X164320230Y-140622414D01*
X164252216Y-140661682D01*
X164252161Y-140661714D01*
X164183531Y-140701289D01*
X164183294Y-140701470D01*
X164183284Y-140701480D01*
X164127171Y-140757591D01*
X164126595Y-140758166D01*
X164071675Y-140813031D01*
X164071595Y-140813168D01*
X164071480Y-140813284D01*
X164071422Y-140813383D01*
X164071421Y-140813385D01*
X164031698Y-140882184D01*
X164031699Y-140882185D01*
X164031686Y-140882208D01*
X163992546Y-140949920D01*
X163992504Y-140950075D01*
X163992423Y-140950216D01*
X163992409Y-140950266D01*
X163992408Y-140950269D01*
X163972118Y-141025991D01*
X163972102Y-141026053D01*
X163951540Y-141102627D01*
X163951500Y-141102926D01*
X163951500Y-141180796D01*
X163951458Y-141260749D01*
X163951497Y-141261044D01*
X163971609Y-141336105D01*
X163971617Y-141336169D01*
X163971625Y-141336168D01*
X163992300Y-141413489D01*
X163992419Y-141413780D01*
X164031680Y-141481779D01*
X164031698Y-141481847D01*
X164031714Y-141481838D01*
X164071287Y-141550466D01*
X164071476Y-141550712D01*
X164071480Y-141550716D01*
X164127261Y-141606497D01*
X164863227Y-142343238D01*
X164896680Y-142404578D01*
X164899500Y-142430872D01*
X164899500Y-148345931D01*
X164879815Y-148412970D01*
X164831796Y-148456415D01*
X164713568Y-148516655D01*
X164579896Y-148613774D01*
X164522490Y-148655483D01*
X164522488Y-148655485D01*
X164522487Y-148655485D01*
X164355485Y-148822487D01*
X164355485Y-148822488D01*
X164355483Y-148822490D01*
X164324455Y-148865196D01*
X164216657Y-149013566D01*
X164109433Y-149224003D01*
X164036446Y-149448631D01*
X163999500Y-149681902D01*
X163999500Y-149918097D01*
X164036446Y-150151368D01*
X164086329Y-150304888D01*
X164100143Y-150347405D01*
X164109433Y-150375994D01*
X164216657Y-150586433D01*
X164302521Y-150704614D01*
X164306752Y-150716474D01*
X164314997Y-150725989D01*
X164318270Y-150748754D01*
X164326001Y-150770421D01*
X164323149Y-150782685D01*
X164324941Y-150795147D01*
X164315386Y-150816069D01*
X164310176Y-150838475D01*
X164301146Y-150847250D01*
X164295916Y-150858703D01*
X164276566Y-150871138D01*
X164260070Y-150887170D01*
X164246322Y-150890574D01*
X164237138Y-150896477D01*
X164202203Y-150901500D01*
X164002097Y-150901500D01*
X163935058Y-150881815D01*
X163914416Y-150865181D01*
X163536818Y-150487583D01*
X163503333Y-150426260D01*
X163500499Y-150399902D01*
X163500499Y-148806908D01*
X163500499Y-148806902D01*
X163489876Y-148718436D01*
X163434361Y-148577658D01*
X163434359Y-148577655D01*
X163342922Y-148457077D01*
X163222344Y-148365640D01*
X163222342Y-148365639D01*
X163081564Y-148310124D01*
X163081561Y-148310123D01*
X162993099Y-148299500D01*
X161006908Y-148299500D01*
X160918437Y-148310123D01*
X160777657Y-148365639D01*
X160777655Y-148365640D01*
X160657077Y-148457077D01*
X160565640Y-148577655D01*
X160565639Y-148577658D01*
X160510977Y-148716275D01*
X160510124Y-148718437D01*
X160510123Y-148718438D01*
X160499500Y-148806900D01*
X154585093Y-148806900D01*
X154579855Y-148797828D01*
X154579854Y-148797827D01*
X154517277Y-148716275D01*
X153681041Y-149552511D01*
X153656022Y-149492110D01*
X153584888Y-149385649D01*
X153494351Y-149295112D01*
X153387890Y-149223978D01*
X153327488Y-149198958D01*
X154163723Y-148362721D01*
X154082172Y-148300145D01*
X154082171Y-148300144D01*
X153877828Y-148182165D01*
X153877819Y-148182160D01*
X153659836Y-148091870D01*
X153659838Y-148091870D01*
X153431914Y-148030799D01*
X153197985Y-148000000D01*
X152962014Y-148000000D01*
X152728085Y-148030799D01*
X152500162Y-148091870D01*
X152282180Y-148182160D01*
X152282171Y-148182165D01*
X152077828Y-148300144D01*
X152077818Y-148300150D01*
X151996275Y-148362720D01*
X151996275Y-148362721D01*
X152832512Y-149198958D01*
X152772110Y-149223978D01*
X152665649Y-149295112D01*
X152575112Y-149385649D01*
X152503978Y-149492110D01*
X152478958Y-149552511D01*
X151642721Y-148716275D01*
X151642720Y-148716275D01*
X151580150Y-148797818D01*
X151580144Y-148797828D01*
X151462165Y-149002171D01*
X151462160Y-149002180D01*
X151371870Y-149220162D01*
X151310799Y-149448085D01*
X151280000Y-149682014D01*
X149600500Y-149682014D01*
X149600500Y-148706898D01*
X149589877Y-148618436D01*
X149534361Y-148477658D01*
X149534360Y-148477657D01*
X149534360Y-148477656D01*
X149442922Y-148357077D01*
X149322343Y-148265639D01*
X149181561Y-148210122D01*
X149135926Y-148204642D01*
X149093102Y-148199500D01*
X146906898Y-148199500D01*
X146867853Y-148204188D01*
X146818438Y-148210122D01*
X146677656Y-148265639D01*
X146557077Y-148357077D01*
X146465639Y-148477656D01*
X146410122Y-148618438D01*
X146405674Y-148655483D01*
X146399500Y-148706898D01*
X144500000Y-148706898D01*
X144500000Y-142868054D01*
X149562498Y-142868054D01*
X149603424Y-143020789D01*
X149603425Y-143020790D01*
X149629232Y-143065488D01*
X149629233Y-143065490D01*
X149682475Y-143157709D01*
X149682479Y-143157714D01*
X149682480Y-143157716D01*
X149794284Y-143269520D01*
X149856604Y-143305500D01*
X149931215Y-143348577D01*
X150083943Y-143389501D01*
X150083946Y-143389501D01*
X150242054Y-143389501D01*
X150242057Y-143389501D01*
X150394785Y-143348577D01*
X150440622Y-143322112D01*
X150502622Y-143305500D01*
X154512055Y-143305500D01*
X154512057Y-143305500D01*
X154664784Y-143264577D01*
X154801716Y-143185520D01*
X154913520Y-143073716D01*
X154992577Y-142936784D01*
X155033500Y-142784057D01*
X155033500Y-142625943D01*
X154992577Y-142473216D01*
X154938499Y-142379549D01*
X154913524Y-142336290D01*
X154913518Y-142336282D01*
X154801717Y-142224481D01*
X154801709Y-142224475D01*
X154664790Y-142145426D01*
X154664786Y-142145424D01*
X154664784Y-142145423D01*
X154512057Y-142104500D01*
X154512056Y-142104500D01*
X150333669Y-142104500D01*
X150333653Y-142104499D01*
X150326057Y-142104499D01*
X150167943Y-142104499D01*
X150064306Y-142132269D01*
X150015214Y-142145423D01*
X149995157Y-142157004D01*
X149995154Y-142157005D01*
X149878290Y-142224475D01*
X149878282Y-142224481D01*
X149682479Y-142420284D01*
X149657231Y-142464015D01*
X149646560Y-142482500D01*
X149603423Y-142557215D01*
X149562499Y-142709943D01*
X149562499Y-142709945D01*
X149562499Y-142868054D01*
X149562498Y-142868054D01*
X144500000Y-142868054D01*
X144500000Y-128811779D01*
X144519685Y-128744740D01*
X144572489Y-128698985D01*
X144641647Y-128689041D01*
X144705203Y-128718066D01*
X144711686Y-128724103D01*
X148503190Y-132516382D01*
X148536669Y-132577707D01*
X148539500Y-132604053D01*
X148539500Y-136953056D01*
X148580423Y-137105783D01*
X148580426Y-137105790D01*
X148659475Y-137242709D01*
X148659479Y-137242714D01*
X148659480Y-137242716D01*
X148771284Y-137354520D01*
X148771286Y-137354521D01*
X148771290Y-137354524D01*
X148908209Y-137433573D01*
X148908216Y-137433577D01*
X149060943Y-137474500D01*
X149060945Y-137474500D01*
X149219055Y-137474500D01*
X149219057Y-137474500D01*
X149371784Y-137433577D01*
X149508716Y-137354520D01*
X149620520Y-137242716D01*
X149699577Y-137105784D01*
X149740500Y-136953057D01*
X149740500Y-132310565D01*
X149740509Y-132225004D01*
X149740500Y-132224970D01*
X149740500Y-132224943D01*
X149721813Y-132155205D01*
X149699601Y-132072273D01*
X149699598Y-132072269D01*
X149699592Y-132072244D01*
X149699577Y-132072219D01*
X149699577Y-132072216D01*
X149658284Y-132000695D01*
X149658282Y-132000685D01*
X149658280Y-132000687D01*
X149646740Y-131980696D01*
X149620557Y-131935334D01*
X149620554Y-131935331D01*
X149620552Y-131935327D01*
X149620522Y-131935287D01*
X149620520Y-131935284D01*
X149556994Y-131871758D01*
X148205197Y-130519685D01*
X144731398Y-127045175D01*
X144725535Y-127039311D01*
X144725520Y-127039284D01*
X144667548Y-126981312D01*
X144613765Y-126927518D01*
X144613764Y-126927517D01*
X144613719Y-126927483D01*
X144613716Y-126927480D01*
X144544504Y-126887520D01*
X144476842Y-126848447D01*
X144476811Y-126848438D01*
X144476784Y-126848423D01*
X144476367Y-126848311D01*
X144476365Y-126848310D01*
X144401168Y-126828160D01*
X144401168Y-126828159D01*
X144401157Y-126828158D01*
X144324121Y-126807508D01*
X144324062Y-126807500D01*
X144324057Y-126807500D01*
X144249712Y-126807500D01*
X144249643Y-126807499D01*
X144158058Y-126807490D01*
X144157904Y-126807500D01*
X139269930Y-126807500D01*
X139202891Y-126787815D01*
X139157136Y-126735011D01*
X139147192Y-126665853D01*
X139162542Y-126621501D01*
X139195779Y-126563932D01*
X139223577Y-126515784D01*
X139264500Y-126363057D01*
X139264500Y-126204943D01*
X139223577Y-126052216D01*
X139223573Y-126052209D01*
X139144524Y-125915290D01*
X139144518Y-125915282D01*
X139032717Y-125803481D01*
X139032709Y-125803475D01*
X138895790Y-125724426D01*
X138895786Y-125724424D01*
X138895784Y-125724423D01*
X138743057Y-125683500D01*
X138743056Y-125683500D01*
X138716610Y-125683500D01*
X138649571Y-125663815D01*
X138628929Y-125647181D01*
X137853819Y-124872071D01*
X137820334Y-124810748D01*
X137817500Y-124784390D01*
X137817500Y-124491500D01*
X137837185Y-124424461D01*
X137889989Y-124378706D01*
X137941500Y-124367500D01*
X138101055Y-124367500D01*
X138101057Y-124367500D01*
X138253784Y-124326577D01*
X138390716Y-124247520D01*
X138502520Y-124135716D01*
X138581577Y-123998784D01*
X138622500Y-123846057D01*
X138622500Y-123819608D01*
X138642185Y-123752569D01*
X138658815Y-123731931D01*
X139389053Y-123001692D01*
X139389058Y-123001689D01*
X139399261Y-122991485D01*
X139399263Y-122991485D01*
X139478485Y-122912263D01*
X139534503Y-122815237D01*
X139539657Y-122796004D01*
X139544081Y-122779495D01*
X139553790Y-122743257D01*
X139563500Y-122707019D01*
X139563500Y-122594982D01*
X139563500Y-119169609D01*
X139583185Y-119102570D01*
X139599814Y-119081933D01*
X143295171Y-115386575D01*
X143356492Y-115353092D01*
X143426184Y-115358076D01*
X143482117Y-115399948D01*
X143506534Y-115465412D01*
X143491682Y-115533685D01*
X143483172Y-115547138D01*
X143476006Y-115557002D01*
X143393788Y-115718360D01*
X143393787Y-115718363D01*
X143337829Y-115890589D01*
X143309500Y-116069448D01*
X143309500Y-116250551D01*
X143337829Y-116429410D01*
X143393787Y-116601636D01*
X143393788Y-116601639D01*
X143476006Y-116762997D01*
X143582441Y-116909494D01*
X143582445Y-116909499D01*
X143710500Y-117037554D01*
X143710505Y-117037558D01*
X143838287Y-117130396D01*
X143857006Y-117143996D01*
X143962484Y-117197740D01*
X144018360Y-117226211D01*
X144018363Y-117226212D01*
X144104476Y-117254191D01*
X144190591Y-117282171D01*
X144263639Y-117293740D01*
X144350678Y-117307527D01*
X144413813Y-117337456D01*
X144450744Y-117396768D01*
X144449746Y-117466631D01*
X144411136Y-117524863D01*
X144350678Y-117552473D01*
X144190589Y-117577829D01*
X144018363Y-117633787D01*
X144018360Y-117633788D01*
X143857002Y-117716006D01*
X143710505Y-117822441D01*
X143710500Y-117822445D01*
X143582445Y-117950500D01*
X143582441Y-117950505D01*
X143476006Y-118097002D01*
X143393788Y-118258360D01*
X143393787Y-118258363D01*
X143337829Y-118430589D01*
X143309500Y-118609448D01*
X143309500Y-118790551D01*
X143337829Y-118969410D01*
X143393787Y-119141636D01*
X143393788Y-119141639D01*
X143476006Y-119302997D01*
X143582441Y-119449494D01*
X143582445Y-119449499D01*
X143710500Y-119577554D01*
X143710505Y-119577558D01*
X143838287Y-119670396D01*
X143857006Y-119683996D01*
X143962484Y-119737740D01*
X144018360Y-119766211D01*
X144018363Y-119766212D01*
X144104476Y-119794191D01*
X144190591Y-119822171D01*
X144263639Y-119833740D01*
X144350678Y-119847527D01*
X144413813Y-119877456D01*
X144450744Y-119936768D01*
X144449746Y-120006631D01*
X144411136Y-120064863D01*
X144350678Y-120092473D01*
X144190589Y-120117829D01*
X144018363Y-120173787D01*
X144018360Y-120173788D01*
X143857002Y-120256006D01*
X143710505Y-120362441D01*
X143710500Y-120362445D01*
X143582445Y-120490500D01*
X143582441Y-120490505D01*
X143476006Y-120637002D01*
X143393788Y-120798360D01*
X143393787Y-120798363D01*
X143337829Y-120970589D01*
X143309500Y-121149448D01*
X143309500Y-121330551D01*
X143337828Y-121509409D01*
X143375905Y-121626596D01*
X143377900Y-121696437D01*
X143345655Y-121752595D01*
X142971737Y-122126515D01*
X142892517Y-122205734D01*
X142892513Y-122205740D01*
X142836498Y-122302760D01*
X142836497Y-122302763D01*
X142807500Y-122410982D01*
X142807500Y-124218982D01*
X142807500Y-124331018D01*
X142836497Y-124439237D01*
X142892515Y-124536263D01*
X156663515Y-138307263D01*
X156742737Y-138386485D01*
X156839763Y-138442503D01*
X156947982Y-138471500D01*
X158986902Y-138471500D01*
X159053941Y-138491185D01*
X159074583Y-138507819D01*
X159093284Y-138526520D01*
X159093286Y-138526521D01*
X159093290Y-138526524D01*
X159230209Y-138605573D01*
X159230216Y-138605577D01*
X159382943Y-138646500D01*
X159382945Y-138646500D01*
X159541055Y-138646500D01*
X159541057Y-138646500D01*
X159693784Y-138605577D01*
X159830716Y-138526520D01*
X159942520Y-138414716D01*
X160021577Y-138277784D01*
X160062500Y-138125057D01*
X160062500Y-137966943D01*
X160021577Y-137814216D01*
X159955347Y-137699501D01*
X159942524Y-137677290D01*
X159942518Y-137677282D01*
X159830717Y-137565481D01*
X159830709Y-137565475D01*
X159693790Y-137486426D01*
X159693786Y-137486424D01*
X159693784Y-137486423D01*
X159541057Y-137445500D01*
X159382943Y-137445500D01*
X159230216Y-137486423D01*
X159230209Y-137486426D01*
X159093290Y-137565475D01*
X159093282Y-137565481D01*
X159074583Y-137584181D01*
X159013260Y-137617666D01*
X158986902Y-137620500D01*
X157231610Y-137620500D01*
X157164571Y-137600815D01*
X157143929Y-137584181D01*
X144828924Y-125269176D01*
X144795439Y-125207853D01*
X144800423Y-125138161D01*
X144842295Y-125082228D01*
X144878288Y-125063564D01*
X144978215Y-125031096D01*
X145167554Y-124934622D01*
X145221716Y-124895270D01*
X145221717Y-124895270D01*
X144589409Y-124262962D01*
X144652993Y-124245925D01*
X144767007Y-124180099D01*
X144860099Y-124087007D01*
X144925925Y-123972993D01*
X144942962Y-123909409D01*
X145575270Y-124541717D01*
X145575270Y-124541716D01*
X145614622Y-124487554D01*
X145711095Y-124298217D01*
X145720492Y-124269295D01*
X145759928Y-124211618D01*
X145824286Y-124184419D01*
X145893133Y-124196331D01*
X145944610Y-124243574D01*
X145948908Y-124251314D01*
X146016004Y-124382995D01*
X146122441Y-124529494D01*
X146122445Y-124529499D01*
X146250500Y-124657554D01*
X146250505Y-124657558D01*
X146313740Y-124703500D01*
X146397006Y-124763996D01*
X146502484Y-124817740D01*
X146558360Y-124846211D01*
X146558363Y-124846212D01*
X146637951Y-124872071D01*
X146730591Y-124902171D01*
X146813429Y-124915291D01*
X146909449Y-124930500D01*
X146909454Y-124930500D01*
X147090551Y-124930500D01*
X147177259Y-124916765D01*
X147269409Y-124902171D01*
X147441639Y-124846211D01*
X147602994Y-124763996D01*
X147749501Y-124657553D01*
X147877553Y-124529501D01*
X147983996Y-124382994D01*
X148039937Y-124273203D01*
X148087910Y-124222409D01*
X148150421Y-124205500D01*
X149051016Y-124205500D01*
X149051018Y-124205500D01*
X149159237Y-124176503D01*
X149256263Y-124120485D01*
X157325929Y-116050819D01*
X157387252Y-116017334D01*
X157413610Y-116014500D01*
X157440055Y-116014500D01*
X157440057Y-116014500D01*
X157592784Y-115973577D01*
X157729716Y-115894520D01*
X157841520Y-115782716D01*
X157920577Y-115645784D01*
X157961500Y-115493057D01*
X157961500Y-115466610D01*
X157981185Y-115399571D01*
X157997819Y-115378929D01*
X158465650Y-114911098D01*
X158956485Y-114420263D01*
X159012503Y-114323237D01*
X159041500Y-114215018D01*
X159041500Y-114102982D01*
X159041500Y-111553610D01*
X159061185Y-111486571D01*
X159113989Y-111440816D01*
X159183147Y-111430872D01*
X159246703Y-111459897D01*
X159253181Y-111465929D01*
X166959181Y-119171929D01*
X166992666Y-119233252D01*
X166995500Y-119259610D01*
X166995500Y-137570902D01*
X166975815Y-137637941D01*
X166959181Y-137658583D01*
X166940481Y-137677282D01*
X166940475Y-137677290D01*
X166861426Y-137814209D01*
X166861423Y-137814216D01*
X166820500Y-137966943D01*
X166820500Y-138125056D01*
X166861423Y-138277783D01*
X166861426Y-138277790D01*
X166940475Y-138414709D01*
X166940479Y-138414714D01*
X166940480Y-138414716D01*
X167052284Y-138526520D01*
X167052286Y-138526521D01*
X167052290Y-138526524D01*
X167189209Y-138605573D01*
X167189216Y-138605577D01*
X167341943Y-138646500D01*
X167341945Y-138646500D01*
X167500055Y-138646500D01*
X167500057Y-138646500D01*
X167652784Y-138605577D01*
X167789716Y-138526520D01*
X167901520Y-138414716D01*
X167980577Y-138277784D01*
X168021500Y-138125057D01*
X168021500Y-137966943D01*
X167980577Y-137814216D01*
X167914347Y-137699501D01*
X167901524Y-137677290D01*
X167901518Y-137677282D01*
X167882819Y-137658583D01*
X167849334Y-137597260D01*
X167846500Y-137570902D01*
X167846500Y-118975984D01*
X167846500Y-118975982D01*
X167817503Y-118867763D01*
X167761485Y-118770737D01*
X167682263Y-118691515D01*
X158747263Y-109756515D01*
X158650237Y-109700497D01*
X158542018Y-109671500D01*
X153119019Y-109671500D01*
X153006982Y-109671500D01*
X152898763Y-109700497D01*
X152898760Y-109700498D01*
X152801740Y-109756513D01*
X152801734Y-109756517D01*
X148164834Y-114393416D01*
X148103511Y-114426901D01*
X148033819Y-114421917D01*
X147977886Y-114380045D01*
X147953469Y-114314581D01*
X147968321Y-114246308D01*
X147976832Y-114232854D01*
X147983996Y-114222994D01*
X148066211Y-114061639D01*
X148122171Y-113889409D01*
X148144919Y-113745785D01*
X148150500Y-113710551D01*
X148150500Y-113529448D01*
X148133873Y-113424475D01*
X148122171Y-113350591D01*
X148088701Y-113247580D01*
X148066212Y-113178363D01*
X148066211Y-113178360D01*
X148037740Y-113122484D01*
X147983996Y-113017006D01*
X147959551Y-112983360D01*
X147877558Y-112870505D01*
X147877554Y-112870500D01*
X147749499Y-112742445D01*
X147749494Y-112742441D01*
X147602997Y-112636006D01*
X147602996Y-112636005D01*
X147602994Y-112636004D01*
X147551300Y-112609664D01*
X147441639Y-112553788D01*
X147441636Y-112553787D01*
X147269410Y-112497829D01*
X147109321Y-112472473D01*
X147046186Y-112442544D01*
X147009255Y-112383232D01*
X147010253Y-112313370D01*
X147048863Y-112255137D01*
X147109321Y-112227527D01*
X147179425Y-112216422D01*
X147269409Y-112202171D01*
X147441639Y-112146211D01*
X147602994Y-112063996D01*
X147749501Y-111957553D01*
X147877553Y-111829501D01*
X147983996Y-111682994D01*
X148066211Y-111521639D01*
X148122171Y-111349409D01*
X148142743Y-111219524D01*
X148150500Y-111170551D01*
X148150500Y-110989448D01*
X148124149Y-110823082D01*
X148122171Y-110810591D01*
X148080878Y-110683501D01*
X148066212Y-110638363D01*
X148066211Y-110638360D01*
X148025682Y-110558819D01*
X147983996Y-110477006D01*
X147970396Y-110458287D01*
X147877558Y-110330505D01*
X147877554Y-110330500D01*
X147749499Y-110202445D01*
X147749494Y-110202441D01*
X147602995Y-110096004D01*
X147471314Y-110028908D01*
X147420519Y-109980934D01*
X147403724Y-109913113D01*
X147426262Y-109846978D01*
X147480977Y-109803527D01*
X147489295Y-109800492D01*
X147518217Y-109791095D01*
X147707554Y-109694622D01*
X147761716Y-109655270D01*
X147761717Y-109655270D01*
X147129408Y-109022962D01*
X147192993Y-109005925D01*
X147307007Y-108940099D01*
X147400099Y-108847007D01*
X147465925Y-108732993D01*
X147482962Y-108669408D01*
X148115270Y-109301717D01*
X148115270Y-109301716D01*
X148154622Y-109247554D01*
X148251095Y-109058217D01*
X148316757Y-108856130D01*
X148316757Y-108856127D01*
X148350000Y-108646246D01*
X148350000Y-108433753D01*
X148316757Y-108223872D01*
X148316757Y-108223869D01*
X148251095Y-108021782D01*
X148154624Y-107832449D01*
X148115270Y-107778282D01*
X148115269Y-107778282D01*
X147482962Y-108410590D01*
X147465925Y-108347007D01*
X147400099Y-108232993D01*
X147307007Y-108139901D01*
X147192993Y-108074075D01*
X147129409Y-108057037D01*
X147761716Y-107424728D01*
X147707550Y-107385375D01*
X147706786Y-107384986D01*
X147706546Y-107384759D01*
X147703396Y-107382829D01*
X147703801Y-107382167D01*
X147655988Y-107337013D01*
X147639191Y-107269192D01*
X147661726Y-107203057D01*
X147716440Y-107159604D01*
X147763076Y-107150499D01*
X147894864Y-107150499D01*
X147894879Y-107150497D01*
X147894882Y-107150497D01*
X147919987Y-107147586D01*
X147919988Y-107147585D01*
X147919991Y-107147585D01*
X148022765Y-107102206D01*
X148102206Y-107022765D01*
X148147585Y-106919991D01*
X148150500Y-106894865D01*
X148150499Y-105105136D01*
X148150497Y-105105117D01*
X148147586Y-105080012D01*
X148147585Y-105080010D01*
X148147585Y-105080009D01*
X148102206Y-104977235D01*
X148022765Y-104897794D01*
X148022763Y-104897793D01*
X147919992Y-104852415D01*
X147894865Y-104849500D01*
X146105143Y-104849500D01*
X146105117Y-104849502D01*
X146080012Y-104852413D01*
X146080008Y-104852415D01*
X145977235Y-104897793D01*
X145897794Y-104977234D01*
X145852415Y-105080006D01*
X145852415Y-105080008D01*
X145849500Y-105105131D01*
X145849500Y-105842871D01*
X145829815Y-105909910D01*
X145777011Y-105955665D01*
X145707853Y-105965609D01*
X145644297Y-105936584D01*
X145606523Y-105877806D01*
X145603027Y-105862269D01*
X145596107Y-105818585D01*
X145582171Y-105730591D01*
X145526211Y-105558361D01*
X145526211Y-105558360D01*
X145497740Y-105502484D01*
X145443996Y-105397006D01*
X145373881Y-105300500D01*
X145337558Y-105250505D01*
X145337554Y-105250500D01*
X145209499Y-105122445D01*
X145209494Y-105122441D01*
X145062997Y-105016006D01*
X145062996Y-105016005D01*
X145062994Y-105016004D01*
X144986906Y-104977235D01*
X144901639Y-104933788D01*
X144901636Y-104933787D01*
X144729410Y-104877829D01*
X144550551Y-104849500D01*
X144550546Y-104849500D01*
X144369454Y-104849500D01*
X144369449Y-104849500D01*
X144190589Y-104877829D01*
X144018363Y-104933787D01*
X144018360Y-104933788D01*
X143857002Y-105016006D01*
X143710505Y-105122441D01*
X143710500Y-105122445D01*
X143582445Y-105250500D01*
X143582441Y-105250505D01*
X143476006Y-105397002D01*
X143393788Y-105558360D01*
X143393787Y-105558363D01*
X143337829Y-105730589D01*
X143309500Y-105909448D01*
X143309500Y-106090551D01*
X143337829Y-106269410D01*
X143393787Y-106441636D01*
X143393788Y-106441639D01*
X143476006Y-106602997D01*
X143582441Y-106749494D01*
X143582445Y-106749499D01*
X143710500Y-106877554D01*
X143710505Y-106877558D01*
X143838287Y-106970396D01*
X143857006Y-106983996D01*
X143933092Y-107022764D01*
X143988684Y-107051090D01*
X144039480Y-107099065D01*
X144056275Y-107166886D01*
X144033737Y-107233021D01*
X143979022Y-107276472D01*
X143970708Y-107279506D01*
X143941781Y-107288905D01*
X143752439Y-107385380D01*
X143698282Y-107424727D01*
X143698282Y-107424728D01*
X144330591Y-108057037D01*
X144267007Y-108074075D01*
X144152993Y-108139901D01*
X144059901Y-108232993D01*
X143994075Y-108347007D01*
X143977037Y-108410591D01*
X143344728Y-107778282D01*
X143344727Y-107778282D01*
X143305380Y-107832439D01*
X143208904Y-108021782D01*
X143143242Y-108223869D01*
X143143242Y-108223872D01*
X143110000Y-108433753D01*
X143110000Y-108646246D01*
X143143242Y-108856127D01*
X143143242Y-108856130D01*
X143208904Y-109058217D01*
X143305375Y-109247550D01*
X143344728Y-109301716D01*
X143977037Y-108669408D01*
X143994075Y-108732993D01*
X144059901Y-108847007D01*
X144152993Y-108940099D01*
X144267007Y-109005925D01*
X144330590Y-109022962D01*
X143698282Y-109655269D01*
X143698282Y-109655270D01*
X143752449Y-109694624D01*
X143941780Y-109791094D01*
X143970705Y-109800492D01*
X144028381Y-109839929D01*
X144055580Y-109904287D01*
X144043667Y-109973134D01*
X143996424Y-110024610D01*
X143988685Y-110028908D01*
X143857004Y-110096004D01*
X143710505Y-110202441D01*
X143710500Y-110202445D01*
X143582445Y-110330500D01*
X143582441Y-110330505D01*
X143476006Y-110477001D01*
X143451379Y-110525334D01*
X143420062Y-110586796D01*
X143372090Y-110637591D01*
X143309579Y-110654500D01*
X118162011Y-110654500D01*
X118162000Y-110654497D01*
X118094778Y-110654500D01*
X118049982Y-110654500D01*
X118049978Y-110654500D01*
X118049968Y-110654501D01*
X118049964Y-110654501D01*
X117989917Y-110670593D01*
X117989814Y-110670621D01*
X117989539Y-110670695D01*
X117941763Y-110683497D01*
X117941755Y-110683501D01*
X117941746Y-110683504D01*
X117940669Y-110684125D01*
X117940668Y-110684126D01*
X117897369Y-110709127D01*
X117897367Y-110709128D01*
X117844733Y-110739517D01*
X117844728Y-110739521D01*
X117810815Y-110773436D01*
X117810814Y-110773436D01*
X117761205Y-110823046D01*
X117761172Y-110823082D01*
X112401185Y-116183545D01*
X112339863Y-116217033D01*
X112270172Y-116212052D01*
X112214236Y-116170183D01*
X112189816Y-116104720D01*
X112189500Y-116095868D01*
X112189500Y-114911098D01*
X112209185Y-114844059D01*
X112225819Y-114823417D01*
X112244520Y-114804716D01*
X112323577Y-114667784D01*
X112364500Y-114515057D01*
X112364500Y-114356943D01*
X112323577Y-114204216D01*
X112249990Y-114076758D01*
X112244524Y-114067290D01*
X112244518Y-114067282D01*
X112132717Y-113955481D01*
X112132709Y-113955475D01*
X111995790Y-113876426D01*
X111995786Y-113876424D01*
X111995784Y-113876423D01*
X111843057Y-113835500D01*
X111684943Y-113835500D01*
X111532216Y-113876423D01*
X111532209Y-113876426D01*
X111395290Y-113955475D01*
X111395282Y-113955481D01*
X111283481Y-114067282D01*
X111283475Y-114067290D01*
X111204426Y-114204209D01*
X111204423Y-114204216D01*
X111163500Y-114356943D01*
X111163500Y-114515057D01*
X111187331Y-114603993D01*
X111204423Y-114667783D01*
X111204426Y-114667790D01*
X111283475Y-114804709D01*
X111283481Y-114804717D01*
X111302181Y-114823417D01*
X111335666Y-114884740D01*
X111338500Y-114911098D01*
X111338500Y-116538409D01*
X111318815Y-116605448D01*
X111302187Y-116626085D01*
X104525220Y-123403922D01*
X104463899Y-123437411D01*
X104394207Y-123432431D01*
X104338271Y-123390563D01*
X104317759Y-123348342D01*
X104300577Y-123284216D01*
X104238677Y-123177001D01*
X104221524Y-123147290D01*
X104221518Y-123147282D01*
X104109717Y-123035481D01*
X104109709Y-123035475D01*
X103972790Y-122956426D01*
X103972786Y-122956424D01*
X103972784Y-122956423D01*
X103820057Y-122915500D01*
X103661943Y-122915500D01*
X103509216Y-122956423D01*
X103509209Y-122956426D01*
X103372290Y-123035475D01*
X103372282Y-123035481D01*
X103260481Y-123147282D01*
X103260475Y-123147290D01*
X103181426Y-123284209D01*
X103181423Y-123284216D01*
X103140500Y-123436943D01*
X103140500Y-123463390D01*
X103120815Y-123530429D01*
X103104181Y-123551071D01*
X102779517Y-123875734D01*
X102779513Y-123875740D01*
X102723498Y-123972760D01*
X102723497Y-123972763D01*
X102694500Y-124080982D01*
X102694500Y-124528982D01*
X102694500Y-124641018D01*
X102723497Y-124749237D01*
X102779515Y-124846263D01*
X103630737Y-125697485D01*
X103727763Y-125753503D01*
X103835982Y-125782500D01*
X103835984Y-125782500D01*
X104051016Y-125782500D01*
X104051018Y-125782500D01*
X104159237Y-125753503D01*
X104178965Y-125742112D01*
X104194453Y-125737962D01*
X104206030Y-125730523D01*
X104240965Y-125725500D01*
X104352951Y-125725500D01*
X104419990Y-125745185D01*
X104440751Y-125761938D01*
X104485300Y-125806608D01*
X104518702Y-125867976D01*
X104521500Y-125894170D01*
X104521500Y-126276230D01*
X104501815Y-126343269D01*
X104449011Y-126389024D01*
X104429594Y-126396005D01*
X104286214Y-126434423D01*
X104286209Y-126434426D01*
X104149290Y-126513475D01*
X104149282Y-126513481D01*
X104037481Y-126625282D01*
X104037475Y-126625290D01*
X103958426Y-126762209D01*
X103958423Y-126762216D01*
X103917500Y-126914943D01*
X103917500Y-127073057D01*
X103944921Y-127175391D01*
X103958423Y-127225783D01*
X103958426Y-127225790D01*
X104037475Y-127362709D01*
X104037479Y-127362714D01*
X104037480Y-127362716D01*
X104149284Y-127474520D01*
X104149286Y-127474521D01*
X104149290Y-127474524D01*
X104286209Y-127553573D01*
X104286216Y-127553577D01*
X104438943Y-127594500D01*
X104438945Y-127594500D01*
X104597055Y-127594500D01*
X104597057Y-127594500D01*
X104749784Y-127553577D01*
X104886716Y-127474520D01*
X104998520Y-127362716D01*
X105077577Y-127225784D01*
X105118500Y-127073057D01*
X105118500Y-127045826D01*
X105127125Y-127016452D01*
X105133599Y-126986526D01*
X105137411Y-126981420D01*
X105138185Y-126978787D01*
X105154717Y-126958247D01*
X105185391Y-126927502D01*
X105247875Y-126864872D01*
X105287485Y-126825263D01*
X105287492Y-126825249D01*
X105287701Y-126824979D01*
X105287781Y-126824873D01*
X105287788Y-126824867D01*
X105315486Y-126776762D01*
X105315495Y-126776767D01*
X105315552Y-126776647D01*
X105343503Y-126728237D01*
X105343504Y-126728230D01*
X105343694Y-126727774D01*
X105358084Y-126673818D01*
X105358086Y-126673818D01*
X105358086Y-126673804D01*
X105372500Y-126620018D01*
X105372500Y-126619782D01*
X105372560Y-126619558D01*
X105372564Y-126619528D01*
X105372563Y-126619526D01*
X105372565Y-126619523D01*
X105372500Y-126563932D01*
X105372500Y-125667214D01*
X105372576Y-125611562D01*
X105372500Y-125611276D01*
X105372500Y-125610982D01*
X105364282Y-125580315D01*
X105358117Y-125557306D01*
X105358072Y-125557138D01*
X105343728Y-125503307D01*
X105343501Y-125502757D01*
X105315658Y-125454534D01*
X105315658Y-125454535D01*
X105315654Y-125454528D01*
X105287841Y-125406202D01*
X105287633Y-125405993D01*
X105287485Y-125405737D01*
X105247941Y-125366193D01*
X104927509Y-125044885D01*
X104927509Y-125044884D01*
X104921631Y-125038990D01*
X104921485Y-125038737D01*
X104881894Y-124999146D01*
X104881892Y-124999143D01*
X104842729Y-124959873D01*
X104842393Y-124959615D01*
X104842264Y-124959516D01*
X104842263Y-124959515D01*
X104794186Y-124931757D01*
X104794067Y-124931632D01*
X104794043Y-124931674D01*
X104745780Y-124903721D01*
X104745673Y-124903677D01*
X104745555Y-124903628D01*
X104745249Y-124903500D01*
X104691562Y-124889114D01*
X104691567Y-124889093D01*
X104691401Y-124889071D01*
X104643487Y-124876163D01*
X104583876Y-124839718D01*
X104553432Y-124776830D01*
X104555967Y-124724345D01*
X104581500Y-124629057D01*
X104581500Y-124602567D01*
X104601185Y-124535528D01*
X104617813Y-124514891D01*
X104645147Y-124487554D01*
X106166813Y-122965691D01*
X106228134Y-122932203D01*
X106297826Y-122937183D01*
X106353762Y-122979051D01*
X106378183Y-123044514D01*
X106378500Y-123053368D01*
X106378500Y-123627902D01*
X106358815Y-123694941D01*
X106342181Y-123715583D01*
X106323481Y-123734282D01*
X106323475Y-123734290D01*
X106244426Y-123871209D01*
X106244424Y-123871214D01*
X106244423Y-123871216D01*
X106203500Y-124023943D01*
X106203500Y-124182057D01*
X106226876Y-124269295D01*
X106244423Y-124334783D01*
X106244426Y-124334790D01*
X106323475Y-124471709D01*
X106323479Y-124471714D01*
X106323480Y-124471716D01*
X106435284Y-124583520D01*
X106435286Y-124583521D01*
X106435290Y-124583524D01*
X106534874Y-124641018D01*
X106572216Y-124662577D01*
X106724943Y-124703500D01*
X106724945Y-124703500D01*
X106883055Y-124703500D01*
X106883057Y-124703500D01*
X107035784Y-124662577D01*
X107172716Y-124583520D01*
X107284520Y-124471716D01*
X107363577Y-124334784D01*
X107404500Y-124182057D01*
X107404500Y-124023943D01*
X107363577Y-123871216D01*
X107349051Y-123846056D01*
X107284524Y-123734290D01*
X107284518Y-123734282D01*
X107265819Y-123715583D01*
X107232334Y-123654260D01*
X107229500Y-123627902D01*
X107229500Y-122610594D01*
X107249185Y-122543555D01*
X107265811Y-122522921D01*
X115952153Y-113835810D01*
X116013474Y-113802323D01*
X116083165Y-113807304D01*
X116131555Y-113840039D01*
X116140545Y-113849920D01*
X116159480Y-113882716D01*
X116271284Y-113994520D01*
X116271286Y-113994521D01*
X116280424Y-114003659D01*
X130049139Y-127772374D01*
X130049149Y-127772385D01*
X130053479Y-127776715D01*
X130053480Y-127776716D01*
X130165284Y-127888520D01*
X130252095Y-127938639D01*
X130252097Y-127938641D01*
X130302213Y-127967576D01*
X130302215Y-127967577D01*
X130454942Y-128008500D01*
X130454943Y-128008500D01*
X143944860Y-128008500D01*
X143974305Y-128017146D01*
X144004298Y-128023674D01*
X144009305Y-128027423D01*
X144011899Y-128028185D01*
X144032550Y-128044828D01*
X144176020Y-128188328D01*
X144209499Y-128249655D01*
X144204507Y-128319346D01*
X144162630Y-128375275D01*
X144097163Y-128399685D01*
X144088330Y-128400000D01*
X124617086Y-128400000D01*
X124550047Y-128380315D01*
X124504292Y-128327511D01*
X124494504Y-128294699D01*
X124481580Y-128209978D01*
X124448237Y-127991396D01*
X124437031Y-127939885D01*
X124422505Y-127888520D01*
X124353357Y-127644013D01*
X124353355Y-127644009D01*
X124332432Y-127594500D01*
X124230874Y-127354183D01*
X124073033Y-127081994D01*
X123882323Y-126831734D01*
X123879225Y-126828159D01*
X123836558Y-126778919D01*
X123719772Y-126653120D01*
X123719767Y-126653116D01*
X123719762Y-126653110D01*
X123484341Y-126444358D01*
X123224613Y-126266757D01*
X123104155Y-126204945D01*
X123067388Y-126186078D01*
X123016730Y-126137958D01*
X123000000Y-126075755D01*
X123000000Y-125600000D01*
X121749000Y-125600000D01*
X121681961Y-125580315D01*
X121636206Y-125527511D01*
X121625000Y-125476000D01*
X121625000Y-125150000D01*
X120476314Y-125150000D01*
X120500870Y-125107467D01*
X120537500Y-124970763D01*
X120537500Y-124829237D01*
X120500870Y-124692533D01*
X120476314Y-124650000D01*
X121625000Y-124650000D01*
X121625000Y-123977172D01*
X121624999Y-123977155D01*
X121618598Y-123917627D01*
X121618596Y-123917620D01*
X121568354Y-123782913D01*
X121568350Y-123782906D01*
X121482190Y-123667812D01*
X121482187Y-123667809D01*
X121367093Y-123581649D01*
X121367086Y-123581645D01*
X121232379Y-123531403D01*
X121232372Y-123531401D01*
X121172844Y-123525000D01*
X120250000Y-123525000D01*
X120250000Y-124423686D01*
X120207467Y-124399130D01*
X120070763Y-124362500D01*
X119929237Y-124362500D01*
X119792533Y-124399130D01*
X119750000Y-124423686D01*
X119750000Y-123525000D01*
X118827155Y-123525000D01*
X118767627Y-123531401D01*
X118767620Y-123531403D01*
X118632913Y-123581645D01*
X118632906Y-123581649D01*
X118517812Y-123667809D01*
X118517809Y-123667812D01*
X118431649Y-123782906D01*
X118431645Y-123782913D01*
X118381403Y-123917620D01*
X118381401Y-123917627D01*
X118375000Y-123977155D01*
X118375000Y-124650000D01*
X119523686Y-124650000D01*
X119499130Y-124692533D01*
X119462500Y-124829237D01*
X119462500Y-124970763D01*
X119499130Y-125107467D01*
X119523686Y-125150000D01*
X118375000Y-125150000D01*
X118375000Y-125476000D01*
X118355315Y-125543039D01*
X118302511Y-125588794D01*
X118251000Y-125600000D01*
X117000000Y-125600000D01*
X117000000Y-126071123D01*
X116980315Y-126138162D01*
X116938206Y-126178390D01*
X116892415Y-126204945D01*
X116681990Y-126326969D01*
X116431729Y-126517680D01*
X116378919Y-126563441D01*
X116253120Y-126680227D01*
X116253111Y-126680236D01*
X116253110Y-126680238D01*
X116204542Y-126735011D01*
X116044356Y-126915661D01*
X115866754Y-127175391D01*
X115723111Y-127455322D01*
X115723106Y-127455333D01*
X115615684Y-127751049D01*
X115595997Y-127818096D01*
X115573216Y-127900900D01*
X115514256Y-128209981D01*
X115514255Y-128209988D01*
X115509613Y-128283786D01*
X115485758Y-128349457D01*
X115430186Y-128391806D01*
X115385858Y-128400000D01*
X100424500Y-128400000D01*
X100357461Y-128380315D01*
X100311706Y-128327511D01*
X100300500Y-128276000D01*
X100300500Y-103381995D01*
X101699500Y-103381995D01*
X101699500Y-103618004D01*
X101699501Y-103618020D01*
X101730306Y-103852010D01*
X101791394Y-104079993D01*
X101881714Y-104298045D01*
X101881719Y-104298056D01*
X101952677Y-104420957D01*
X101999727Y-104502450D01*
X101999729Y-104502453D01*
X101999730Y-104502454D01*
X102143406Y-104689697D01*
X102143412Y-104689704D01*
X102310295Y-104856587D01*
X102310302Y-104856593D01*
X102410904Y-104933787D01*
X102497550Y-105000273D01*
X102628918Y-105076118D01*
X102701943Y-105118280D01*
X102701948Y-105118282D01*
X102701951Y-105118284D01*
X102920007Y-105208606D01*
X103147986Y-105269693D01*
X103381989Y-105300500D01*
X103381996Y-105300500D01*
X103618004Y-105300500D01*
X103618011Y-105300500D01*
X103852014Y-105269693D01*
X104079993Y-105208606D01*
X104298049Y-105118284D01*
X104502450Y-105000273D01*
X104689699Y-104856592D01*
X104856592Y-104689699D01*
X105000273Y-104502450D01*
X105118284Y-104298049D01*
X105208606Y-104079993D01*
X105269693Y-103852014D01*
X105300500Y-103618011D01*
X105300500Y-103381989D01*
X105269693Y-103147986D01*
X105208606Y-102920007D01*
X105118284Y-102701951D01*
X105118282Y-102701948D01*
X105118280Y-102701943D01*
X105076118Y-102628918D01*
X105000273Y-102497550D01*
X104856592Y-102310301D01*
X104856587Y-102310295D01*
X104689704Y-102143412D01*
X104689697Y-102143406D01*
X104502454Y-101999730D01*
X104502453Y-101999729D01*
X104502450Y-101999727D01*
X104420957Y-101952677D01*
X104298056Y-101881719D01*
X104298045Y-101881714D01*
X104079993Y-101791394D01*
X103955873Y-101758136D01*
X103852014Y-101730307D01*
X103852013Y-101730306D01*
X103852010Y-101730306D01*
X103618020Y-101699501D01*
X103618017Y-101699500D01*
X103618011Y-101699500D01*
X103381989Y-101699500D01*
X103381983Y-101699500D01*
X103381979Y-101699501D01*
X103147989Y-101730306D01*
X102920006Y-101791394D01*
X102701954Y-101881714D01*
X102701943Y-101881719D01*
X102497545Y-101999730D01*
X102310302Y-102143406D01*
X102310295Y-102143412D01*
X102143412Y-102310295D01*
X102143406Y-102310302D01*
X101999730Y-102497545D01*
X101881719Y-102701943D01*
X101881714Y-102701954D01*
X101791394Y-102920006D01*
X101730306Y-103147989D01*
X101699501Y-103381979D01*
X101699500Y-103381995D01*
X100300500Y-103381995D01*
X100300500Y-102004427D01*
X100300816Y-101995581D01*
X100308959Y-101881719D01*
X100317165Y-101766973D01*
X100319681Y-101749476D01*
X100367457Y-101529852D01*
X100372434Y-101512901D01*
X100450986Y-101302295D01*
X100458325Y-101286226D01*
X100566043Y-101088955D01*
X100575599Y-101074086D01*
X100710293Y-100894156D01*
X100721867Y-100880799D01*
X100880799Y-100721867D01*
X100894156Y-100710293D01*
X101074086Y-100575599D01*
X101088955Y-100566043D01*
X101286226Y-100458325D01*
X101302295Y-100450986D01*
X101512901Y-100372434D01*
X101529852Y-100367457D01*
X101749476Y-100319681D01*
X101766973Y-100317165D01*
X101995582Y-100300816D01*
X102004428Y-100300500D01*
X102047594Y-100300500D01*
X172376000Y-100300500D01*
X172443039Y-100320185D01*
G37*
%TD.AperFunction*%
%TA.AperFunction,Conductor*%
G36*
X145766630Y-121250253D02*
G01*
X145824863Y-121288863D01*
X145852473Y-121349321D01*
X145877829Y-121509410D01*
X145933787Y-121681636D01*
X145933788Y-121681639D01*
X146016006Y-121842997D01*
X146122441Y-121989494D01*
X146122445Y-121989499D01*
X146250500Y-122117554D01*
X146250505Y-122117558D01*
X146371879Y-122205740D01*
X146397006Y-122223996D01*
X146487062Y-122269882D01*
X146558360Y-122306211D01*
X146558363Y-122306212D01*
X146610162Y-122323042D01*
X146730591Y-122362171D01*
X146803639Y-122373740D01*
X146890678Y-122387527D01*
X146953813Y-122417456D01*
X146990744Y-122476768D01*
X146989746Y-122546631D01*
X146951136Y-122604863D01*
X146890678Y-122632473D01*
X146730589Y-122657829D01*
X146558363Y-122713787D01*
X146558360Y-122713788D01*
X146397002Y-122796006D01*
X146250505Y-122902441D01*
X146250500Y-122902445D01*
X146122445Y-123030500D01*
X146122441Y-123030505D01*
X146016004Y-123177004D01*
X145948908Y-123308685D01*
X145900933Y-123359480D01*
X145833112Y-123376275D01*
X145766977Y-123353737D01*
X145723527Y-123299021D01*
X145720492Y-123290705D01*
X145711094Y-123261780D01*
X145614624Y-123072449D01*
X145575270Y-123018282D01*
X145575269Y-123018282D01*
X144942962Y-123650590D01*
X144925925Y-123587007D01*
X144860099Y-123472993D01*
X144767007Y-123379901D01*
X144652993Y-123314075D01*
X144589407Y-123297036D01*
X145221716Y-122664728D01*
X145167550Y-122625375D01*
X144978217Y-122528904D01*
X144949292Y-122519506D01*
X144891616Y-122480068D01*
X144864418Y-122415710D01*
X144876333Y-122346863D01*
X144923577Y-122295388D01*
X144931315Y-122291090D01*
X145062994Y-122223996D01*
X145209501Y-122117553D01*
X145337553Y-121989501D01*
X145443996Y-121842994D01*
X145526211Y-121681639D01*
X145582171Y-121509409D01*
X145596422Y-121419425D01*
X145607527Y-121349321D01*
X145637456Y-121286186D01*
X145696768Y-121249255D01*
X145766630Y-121250253D01*
G37*
%TD.AperFunction*%
%TA.AperFunction,Conductor*%
G36*
X145747071Y-118709973D02*
G01*
X145766630Y-118710253D01*
X145780040Y-118719144D01*
X145795543Y-118723457D01*
X145808561Y-118738054D01*
X145824863Y-118748863D01*
X145831855Y-118764173D01*
X145842047Y-118775602D01*
X145852473Y-118809321D01*
X145877829Y-118969410D01*
X145933787Y-119141636D01*
X145933788Y-119141639D01*
X146016006Y-119302997D01*
X146122441Y-119449494D01*
X146122445Y-119449499D01*
X146250500Y-119577554D01*
X146250505Y-119577558D01*
X146378287Y-119670396D01*
X146397006Y-119683996D01*
X146502484Y-119737740D01*
X146558360Y-119766211D01*
X146558363Y-119766212D01*
X146644476Y-119794191D01*
X146730591Y-119822171D01*
X146803639Y-119833740D01*
X146890678Y-119847527D01*
X146953813Y-119877456D01*
X146990744Y-119936768D01*
X146989746Y-120006631D01*
X146951136Y-120064863D01*
X146890678Y-120092473D01*
X146730589Y-120117829D01*
X146558363Y-120173787D01*
X146558360Y-120173788D01*
X146397002Y-120256006D01*
X146250505Y-120362441D01*
X146250500Y-120362445D01*
X146122445Y-120490500D01*
X146122441Y-120490505D01*
X146016006Y-120637002D01*
X145933788Y-120798360D01*
X145933787Y-120798363D01*
X145877829Y-120970589D01*
X145852473Y-121130678D01*
X145822544Y-121193813D01*
X145763232Y-121230744D01*
X145693369Y-121229746D01*
X145635137Y-121191136D01*
X145607527Y-121130678D01*
X145593740Y-121043639D01*
X145582171Y-120970591D01*
X145526211Y-120798361D01*
X145526211Y-120798360D01*
X145497740Y-120742484D01*
X145443996Y-120637006D01*
X145430396Y-120618287D01*
X145337558Y-120490505D01*
X145337554Y-120490500D01*
X145209499Y-120362445D01*
X145209494Y-120362441D01*
X145062997Y-120256006D01*
X145062996Y-120256005D01*
X145062994Y-120256004D01*
X145011300Y-120229664D01*
X144901639Y-120173788D01*
X144901636Y-120173787D01*
X144729410Y-120117829D01*
X144569321Y-120092473D01*
X144506186Y-120062544D01*
X144469255Y-120003232D01*
X144470253Y-119933370D01*
X144508863Y-119875137D01*
X144569321Y-119847527D01*
X144639425Y-119836422D01*
X144729409Y-119822171D01*
X144901639Y-119766211D01*
X145062994Y-119683996D01*
X145209501Y-119577553D01*
X145337553Y-119449501D01*
X145443996Y-119302994D01*
X145526211Y-119141639D01*
X145582171Y-118969409D01*
X145598271Y-118867760D01*
X145607527Y-118809321D01*
X145614418Y-118794782D01*
X145616481Y-118778824D01*
X145629077Y-118763860D01*
X145637456Y-118746186D01*
X145651116Y-118737679D01*
X145661478Y-118725372D01*
X145680162Y-118719594D01*
X145696768Y-118709255D01*
X145712857Y-118709484D01*
X145728229Y-118704732D01*
X145747071Y-118709973D01*
G37*
%TD.AperFunction*%
%TA.AperFunction,Conductor*%
G36*
X145766630Y-116170253D02*
G01*
X145824863Y-116208863D01*
X145852473Y-116269321D01*
X145877829Y-116429410D01*
X145933787Y-116601636D01*
X145933788Y-116601639D01*
X146016006Y-116762997D01*
X146122441Y-116909494D01*
X146122445Y-116909499D01*
X146250500Y-117037554D01*
X146250505Y-117037558D01*
X146378287Y-117130396D01*
X146397006Y-117143996D01*
X146502484Y-117197740D01*
X146558360Y-117226211D01*
X146558363Y-117226212D01*
X146644476Y-117254191D01*
X146730591Y-117282171D01*
X146803639Y-117293740D01*
X146890678Y-117307527D01*
X146953813Y-117337456D01*
X146990744Y-117396768D01*
X146989746Y-117466631D01*
X146951136Y-117524863D01*
X146890678Y-117552473D01*
X146730589Y-117577829D01*
X146558363Y-117633787D01*
X146558360Y-117633788D01*
X146397002Y-117716006D01*
X146250505Y-117822441D01*
X146250500Y-117822445D01*
X146122445Y-117950500D01*
X146122441Y-117950505D01*
X146016006Y-118097002D01*
X145933788Y-118258360D01*
X145933787Y-118258363D01*
X145877829Y-118430589D01*
X145852473Y-118590678D01*
X145822544Y-118653813D01*
X145763232Y-118690744D01*
X145693369Y-118689746D01*
X145635137Y-118651136D01*
X145607527Y-118590678D01*
X145593740Y-118503639D01*
X145582171Y-118430591D01*
X145526211Y-118258361D01*
X145526211Y-118258360D01*
X145497740Y-118202484D01*
X145443996Y-118097006D01*
X145430396Y-118078287D01*
X145337558Y-117950505D01*
X145337554Y-117950500D01*
X145209499Y-117822445D01*
X145209494Y-117822441D01*
X145062997Y-117716006D01*
X145062996Y-117716005D01*
X145062994Y-117716004D01*
X145011300Y-117689664D01*
X144901639Y-117633788D01*
X144901636Y-117633787D01*
X144729410Y-117577829D01*
X144569321Y-117552473D01*
X144506186Y-117522544D01*
X144469255Y-117463232D01*
X144470253Y-117393370D01*
X144508863Y-117335137D01*
X144569321Y-117307527D01*
X144639425Y-117296422D01*
X144729409Y-117282171D01*
X144901639Y-117226211D01*
X145062994Y-117143996D01*
X145209501Y-117037553D01*
X145337553Y-116909501D01*
X145443996Y-116762994D01*
X145526211Y-116601639D01*
X145582171Y-116429409D01*
X145596422Y-116339425D01*
X145607527Y-116269321D01*
X145637456Y-116206186D01*
X145696768Y-116169255D01*
X145766630Y-116170253D01*
G37*
%TD.AperFunction*%
%TA.AperFunction,Conductor*%
G36*
X145766630Y-113630253D02*
G01*
X145824863Y-113668863D01*
X145852473Y-113729321D01*
X145877829Y-113889410D01*
X145933787Y-114061636D01*
X145933788Y-114061639D01*
X145954854Y-114102982D01*
X146016003Y-114222993D01*
X146016006Y-114222997D01*
X146122441Y-114369494D01*
X146122445Y-114369499D01*
X146250500Y-114497554D01*
X146250505Y-114497558D01*
X146274591Y-114515057D01*
X146397006Y-114603996D01*
X146502484Y-114657740D01*
X146558360Y-114686211D01*
X146558363Y-114686212D01*
X146613400Y-114704094D01*
X146730591Y-114742171D01*
X146803639Y-114753740D01*
X146890678Y-114767527D01*
X146953813Y-114797456D01*
X146990744Y-114856768D01*
X146989746Y-114926631D01*
X146951136Y-114984863D01*
X146890678Y-115012473D01*
X146730589Y-115037829D01*
X146558363Y-115093787D01*
X146558360Y-115093788D01*
X146397002Y-115176006D01*
X146250505Y-115282441D01*
X146250500Y-115282445D01*
X146122445Y-115410500D01*
X146122441Y-115410505D01*
X146016006Y-115557002D01*
X145933788Y-115718360D01*
X145933787Y-115718363D01*
X145877829Y-115890589D01*
X145852473Y-116050678D01*
X145822544Y-116113813D01*
X145763232Y-116150744D01*
X145693369Y-116149746D01*
X145635137Y-116111136D01*
X145607527Y-116050678D01*
X145593740Y-115963639D01*
X145582171Y-115890591D01*
X145526211Y-115718361D01*
X145526211Y-115718360D01*
X145489230Y-115645783D01*
X145443996Y-115557006D01*
X145378320Y-115466610D01*
X145337558Y-115410505D01*
X145337554Y-115410500D01*
X145209499Y-115282445D01*
X145209494Y-115282441D01*
X145062997Y-115176006D01*
X145062996Y-115176005D01*
X145062994Y-115176004D01*
X144993732Y-115140713D01*
X144901639Y-115093788D01*
X144901636Y-115093787D01*
X144729410Y-115037829D01*
X144569321Y-115012473D01*
X144506186Y-114982544D01*
X144469255Y-114923232D01*
X144470253Y-114853370D01*
X144508863Y-114795137D01*
X144569321Y-114767527D01*
X144639425Y-114756422D01*
X144729409Y-114742171D01*
X144901639Y-114686211D01*
X145062994Y-114603996D01*
X145209501Y-114497553D01*
X145337553Y-114369501D01*
X145443996Y-114222994D01*
X145526211Y-114061639D01*
X145582171Y-113889409D01*
X145604919Y-113745785D01*
X145607527Y-113729321D01*
X145637456Y-113666186D01*
X145696768Y-113629255D01*
X145766630Y-113630253D01*
G37*
%TD.AperFunction*%
%TA.AperFunction,Conductor*%
G36*
X145766630Y-111090253D02*
G01*
X145824863Y-111128863D01*
X145852473Y-111189321D01*
X145877829Y-111349410D01*
X145933787Y-111521636D01*
X145933788Y-111521639D01*
X146016006Y-111682997D01*
X146122441Y-111829494D01*
X146122445Y-111829499D01*
X146250500Y-111957554D01*
X146250505Y-111957558D01*
X146378287Y-112050396D01*
X146397006Y-112063996D01*
X146502484Y-112117740D01*
X146558360Y-112146211D01*
X146558363Y-112146212D01*
X146644476Y-112174191D01*
X146730591Y-112202171D01*
X146803639Y-112213740D01*
X146890678Y-112227527D01*
X146953813Y-112257456D01*
X146990744Y-112316768D01*
X146989746Y-112386631D01*
X146951136Y-112444863D01*
X146890678Y-112472473D01*
X146730589Y-112497829D01*
X146558363Y-112553787D01*
X146558360Y-112553788D01*
X146397002Y-112636006D01*
X146250505Y-112742441D01*
X146250500Y-112742445D01*
X146122445Y-112870500D01*
X146122441Y-112870505D01*
X146016006Y-113017002D01*
X145933788Y-113178360D01*
X145933787Y-113178363D01*
X145877829Y-113350589D01*
X145852473Y-113510678D01*
X145822544Y-113573813D01*
X145763232Y-113610744D01*
X145693369Y-113609746D01*
X145635137Y-113571136D01*
X145607527Y-113510678D01*
X145593740Y-113423639D01*
X145582171Y-113350591D01*
X145548701Y-113247580D01*
X145526212Y-113178363D01*
X145526211Y-113178360D01*
X145497740Y-113122484D01*
X145443996Y-113017006D01*
X145419551Y-112983360D01*
X145337558Y-112870505D01*
X145337554Y-112870500D01*
X145209499Y-112742445D01*
X145209494Y-112742441D01*
X145062997Y-112636006D01*
X145062996Y-112636005D01*
X145062994Y-112636004D01*
X145011300Y-112609664D01*
X144901639Y-112553788D01*
X144901636Y-112553787D01*
X144729410Y-112497829D01*
X144569321Y-112472473D01*
X144506186Y-112442544D01*
X144469255Y-112383232D01*
X144470253Y-112313370D01*
X144508863Y-112255137D01*
X144569321Y-112227527D01*
X144639425Y-112216422D01*
X144729409Y-112202171D01*
X144901639Y-112146211D01*
X145062994Y-112063996D01*
X145209501Y-111957553D01*
X145337553Y-111829501D01*
X145443996Y-111682994D01*
X145526211Y-111521639D01*
X145582171Y-111349409D01*
X145602743Y-111219524D01*
X145607527Y-111189321D01*
X145637456Y-111126186D01*
X145696768Y-111089255D01*
X145766630Y-111090253D01*
G37*
%TD.AperFunction*%
%TA.AperFunction,Conductor*%
G36*
X146534075Y-108732993D02*
G01*
X146599901Y-108847007D01*
X146692993Y-108940099D01*
X146807007Y-109005925D01*
X146870590Y-109022962D01*
X146238282Y-109655269D01*
X146238282Y-109655270D01*
X146292449Y-109694624D01*
X146481780Y-109791094D01*
X146510705Y-109800492D01*
X146568381Y-109839929D01*
X146595580Y-109904287D01*
X146583667Y-109973134D01*
X146536424Y-110024610D01*
X146528685Y-110028908D01*
X146397004Y-110096004D01*
X146250505Y-110202441D01*
X146250500Y-110202445D01*
X146122445Y-110330500D01*
X146122441Y-110330505D01*
X146016006Y-110477002D01*
X145933788Y-110638360D01*
X145933787Y-110638363D01*
X145877829Y-110810589D01*
X145852473Y-110970678D01*
X145822544Y-111033813D01*
X145763232Y-111070744D01*
X145693369Y-111069746D01*
X145635137Y-111031136D01*
X145607527Y-110970678D01*
X145584149Y-110823082D01*
X145582171Y-110810591D01*
X145540878Y-110683501D01*
X145526212Y-110638363D01*
X145526211Y-110638360D01*
X145485682Y-110558819D01*
X145443996Y-110477006D01*
X145430396Y-110458287D01*
X145337558Y-110330505D01*
X145337554Y-110330500D01*
X145209499Y-110202445D01*
X145209494Y-110202441D01*
X145062995Y-110096004D01*
X144931314Y-110028908D01*
X144880519Y-109980934D01*
X144863724Y-109913113D01*
X144886262Y-109846978D01*
X144940977Y-109803527D01*
X144949295Y-109800492D01*
X144978217Y-109791095D01*
X145167554Y-109694622D01*
X145221716Y-109655270D01*
X145221717Y-109655270D01*
X144589408Y-109022962D01*
X144652993Y-109005925D01*
X144767007Y-108940099D01*
X144860099Y-108847007D01*
X144925925Y-108732993D01*
X144942962Y-108669409D01*
X145575270Y-109301717D01*
X145575270Y-109301716D01*
X145614622Y-109247554D01*
X145619514Y-109237954D01*
X145667488Y-109187157D01*
X145735308Y-109170361D01*
X145801444Y-109192897D01*
X145840486Y-109237954D01*
X145845375Y-109247550D01*
X145884728Y-109301716D01*
X146517037Y-108669408D01*
X146534075Y-108732993D01*
G37*
%TD.AperFunction*%
%TA.AperFunction,Conductor*%
G36*
X145762130Y-106038661D02*
G01*
X145820363Y-106077271D01*
X145848477Y-106141234D01*
X145849500Y-106157127D01*
X145849500Y-106894856D01*
X145849502Y-106894882D01*
X145852413Y-106919987D01*
X145852415Y-106919991D01*
X145897793Y-107022764D01*
X145897794Y-107022765D01*
X145977235Y-107102206D01*
X146080009Y-107147585D01*
X146105135Y-107150500D01*
X146236923Y-107150499D01*
X146303960Y-107170183D01*
X146349715Y-107222987D01*
X146359659Y-107292145D01*
X146330635Y-107355701D01*
X146296387Y-107382507D01*
X146296590Y-107382838D01*
X146293715Y-107384599D01*
X146293239Y-107384972D01*
X146292451Y-107385373D01*
X146292440Y-107385380D01*
X146238282Y-107424727D01*
X146238282Y-107424728D01*
X146870591Y-108057037D01*
X146807007Y-108074075D01*
X146692993Y-108139901D01*
X146599901Y-108232993D01*
X146534075Y-108347007D01*
X146517037Y-108410591D01*
X145884728Y-107778282D01*
X145884727Y-107778282D01*
X145845380Y-107832440D01*
X145840483Y-107842051D01*
X145792506Y-107892845D01*
X145724684Y-107909638D01*
X145658550Y-107887098D01*
X145619516Y-107842048D01*
X145614626Y-107832452D01*
X145575270Y-107778282D01*
X145575269Y-107778282D01*
X144942962Y-108410590D01*
X144925925Y-108347007D01*
X144860099Y-108232993D01*
X144767007Y-108139901D01*
X144652993Y-108074075D01*
X144589409Y-108057037D01*
X145221716Y-107424728D01*
X145167550Y-107385375D01*
X144978217Y-107288904D01*
X144949292Y-107279506D01*
X144891616Y-107240068D01*
X144864418Y-107175710D01*
X144876333Y-107106863D01*
X144923577Y-107055388D01*
X144931315Y-107051090D01*
X145062994Y-106983996D01*
X145209501Y-106877553D01*
X145337553Y-106749501D01*
X145443996Y-106602994D01*
X145526211Y-106441639D01*
X145582171Y-106269409D01*
X145603027Y-106137729D01*
X145632956Y-106074595D01*
X145692267Y-106037663D01*
X145762130Y-106038661D01*
G37*
%TD.AperFunction*%
%TD*%
%TA.AperFunction,Conductor*%
%TO.N,/ISOGND*%
G36*
X119045283Y-128404148D02*
G01*
X119059989Y-128403399D01*
X119092798Y-128416407D01*
X119098620Y-128419742D01*
X119133904Y-128445378D01*
X119219401Y-128488941D01*
X119222042Y-128490454D01*
X119244210Y-128513549D01*
X119267491Y-128535537D01*
X119268247Y-128538591D01*
X119270426Y-128540861D01*
X119276590Y-128572281D01*
X119284286Y-128603358D01*
X119283271Y-128606335D01*
X119283877Y-128609423D01*
X119272077Y-128639183D01*
X119261749Y-128669492D01*
X119259284Y-128671449D01*
X119258125Y-128674374D01*
X119216696Y-128708531D01*
X119029344Y-128803992D01*
X118854245Y-128931211D01*
X118854244Y-128931211D01*
X118701211Y-129084244D01*
X118701211Y-129084245D01*
X118573994Y-129259342D01*
X118475736Y-129452182D01*
X118475735Y-129452185D01*
X118408857Y-129658016D01*
X118408857Y-129658019D01*
X118397457Y-129730000D01*
X119523686Y-129730000D01*
X119499130Y-129772533D01*
X119462500Y-129909237D01*
X119462500Y-130050763D01*
X119499130Y-130187467D01*
X119523686Y-130230000D01*
X118397457Y-130230000D01*
X118408857Y-130301980D01*
X118408857Y-130301983D01*
X118475735Y-130507814D01*
X118475736Y-130507817D01*
X118573994Y-130700657D01*
X118701211Y-130875754D01*
X118701211Y-130875755D01*
X118854244Y-131028788D01*
X119029342Y-131156005D01*
X119216695Y-131251467D01*
X119267491Y-131299442D01*
X119284286Y-131367263D01*
X119261748Y-131433398D01*
X119216696Y-131472436D01*
X119133906Y-131514620D01*
X119059058Y-131569000D01*
X118984213Y-131623379D01*
X118984211Y-131623381D01*
X118984210Y-131623381D01*
X118853381Y-131754210D01*
X118853381Y-131754211D01*
X118853379Y-131754213D01*
X118806672Y-131818499D01*
X118744622Y-131903903D01*
X118682006Y-132026795D01*
X118634031Y-132077591D01*
X118571521Y-132094500D01*
X118491981Y-132094500D01*
X118385397Y-132123059D01*
X118385396Y-132123058D01*
X118383766Y-132123495D01*
X118383760Y-132123498D01*
X118286740Y-132179513D01*
X118286734Y-132179517D01*
X118211681Y-132254571D01*
X118150358Y-132288056D01*
X118081212Y-132283111D01*
X118089629Y-132341646D01*
X118060604Y-132405202D01*
X118054572Y-132411680D01*
X117470071Y-132996181D01*
X117408748Y-133029666D01*
X117382390Y-133032500D01*
X106816098Y-133032500D01*
X106749059Y-133012815D01*
X106728417Y-132996181D01*
X106709717Y-132977481D01*
X106709709Y-132977475D01*
X106572790Y-132898426D01*
X106572786Y-132898424D01*
X106572784Y-132898423D01*
X106420057Y-132857500D01*
X106261943Y-132857500D01*
X106109216Y-132898423D01*
X106109209Y-132898426D01*
X105972290Y-132977475D01*
X105972282Y-132977481D01*
X105860481Y-133089282D01*
X105860475Y-133089290D01*
X105781426Y-133226209D01*
X105781423Y-133226216D01*
X105740500Y-133378943D01*
X105740500Y-133537057D01*
X105748539Y-133567057D01*
X105781423Y-133689783D01*
X105781426Y-133689790D01*
X105860478Y-133826714D01*
X105861800Y-133828437D01*
X105862463Y-133830153D01*
X105864543Y-133833755D01*
X105863981Y-133834079D01*
X105886997Y-133893605D01*
X105872960Y-133962050D01*
X105825431Y-134011311D01*
X105811288Y-134019477D01*
X105811282Y-134019481D01*
X105699481Y-134131282D01*
X105699475Y-134131290D01*
X105620426Y-134268209D01*
X105620423Y-134268216D01*
X105579500Y-134420943D01*
X105579500Y-134447389D01*
X105559815Y-134514428D01*
X105543181Y-134535070D01*
X104743295Y-135334955D01*
X104743296Y-135334956D01*
X104681514Y-135396738D01*
X104681513Y-135396740D01*
X104625498Y-135493760D01*
X104625497Y-135493763D01*
X104596500Y-135601982D01*
X104596500Y-138550902D01*
X104576815Y-138617941D01*
X104560181Y-138638583D01*
X104541481Y-138657282D01*
X104541475Y-138657290D01*
X104462426Y-138794209D01*
X104462423Y-138794216D01*
X104421500Y-138946943D01*
X104421500Y-139105057D01*
X104455381Y-139231500D01*
X104462423Y-139257783D01*
X104462426Y-139257790D01*
X104541475Y-139394709D01*
X104541479Y-139394714D01*
X104541480Y-139394716D01*
X104653284Y-139506520D01*
X104653286Y-139506521D01*
X104653290Y-139506524D01*
X104752902Y-139564034D01*
X104790216Y-139585577D01*
X104942943Y-139626500D01*
X104942945Y-139626500D01*
X105101055Y-139626500D01*
X105101057Y-139626500D01*
X105253784Y-139585577D01*
X105390716Y-139506520D01*
X105502520Y-139394716D01*
X105581577Y-139257784D01*
X105622500Y-139105057D01*
X105622500Y-138946943D01*
X105581577Y-138794216D01*
X105560800Y-138758229D01*
X105502524Y-138657290D01*
X105502518Y-138657282D01*
X105483819Y-138638583D01*
X105450334Y-138577260D01*
X105447500Y-138550902D01*
X105447500Y-135885608D01*
X105467185Y-135818569D01*
X105483815Y-135797931D01*
X106092367Y-135189378D01*
X106153688Y-135155895D01*
X106223379Y-135160879D01*
X106267714Y-135189367D01*
X110013411Y-138934159D01*
X110013410Y-138934159D01*
X110013422Y-138934170D01*
X110054733Y-138975482D01*
X110054776Y-138975515D01*
X110054778Y-138975516D01*
X110102042Y-139002796D01*
X110102052Y-139002807D01*
X110102055Y-139002804D01*
X110151782Y-139031514D01*
X110151807Y-139031520D01*
X110151811Y-139031523D01*
X110207760Y-139046506D01*
X110207772Y-139046514D01*
X110207773Y-139046511D01*
X110246930Y-139057002D01*
X110259982Y-139060500D01*
X110259983Y-139060500D01*
X110260025Y-139060504D01*
X110260033Y-139060507D01*
X110316051Y-139060500D01*
X112633902Y-139060500D01*
X112660805Y-139068399D01*
X112688450Y-139073142D01*
X112696467Y-139078871D01*
X112700941Y-139080185D01*
X112717613Y-139093021D01*
X112719638Y-139094874D01*
X112740284Y-139115520D01*
X112745474Y-139118516D01*
X112755463Y-139127657D01*
X112766816Y-139146421D01*
X112781956Y-139162293D01*
X112784548Y-139175729D01*
X112791632Y-139187437D01*
X112791037Y-139209361D01*
X112795193Y-139230897D01*
X112790109Y-139243601D01*
X112789739Y-139257281D01*
X112777385Y-139275405D01*
X112769238Y-139295768D01*
X112759433Y-139306817D01*
X112294071Y-139772181D01*
X112232748Y-139805666D01*
X112206390Y-139808500D01*
X106291098Y-139808500D01*
X106224059Y-139788815D01*
X106203417Y-139772181D01*
X106184717Y-139753481D01*
X106184709Y-139753475D01*
X106047790Y-139674426D01*
X106047786Y-139674424D01*
X106047784Y-139674423D01*
X105895057Y-139633500D01*
X105736943Y-139633500D01*
X105584216Y-139674423D01*
X105584211Y-139674425D01*
X105546903Y-139695963D01*
X105546856Y-139695992D01*
X105447284Y-139753480D01*
X105433049Y-139767714D01*
X105433047Y-139767716D01*
X105335478Y-139865286D01*
X105335475Y-139865290D01*
X105256426Y-140002209D01*
X105256423Y-140002216D01*
X105215500Y-140154943D01*
X105215500Y-140313057D01*
X105247505Y-140432499D01*
X105256423Y-140465783D01*
X105256426Y-140465790D01*
X105335475Y-140602709D01*
X105335479Y-140602714D01*
X105335480Y-140602716D01*
X105447284Y-140714520D01*
X105447286Y-140714521D01*
X105447290Y-140714524D01*
X105477541Y-140731989D01*
X105584216Y-140793577D01*
X105736943Y-140834500D01*
X105736945Y-140834500D01*
X105895055Y-140834500D01*
X105895057Y-140834500D01*
X106047784Y-140793577D01*
X106184716Y-140714520D01*
X106203417Y-140695819D01*
X106264740Y-140662334D01*
X106291098Y-140659500D01*
X108016390Y-140659500D01*
X108083429Y-140679185D01*
X108129184Y-140731989D01*
X108139128Y-140801147D01*
X108110103Y-140864703D01*
X108104071Y-140871181D01*
X105639071Y-143336181D01*
X105577748Y-143369666D01*
X105551390Y-143372500D01*
X105524943Y-143372500D01*
X105372216Y-143413423D01*
X105372209Y-143413426D01*
X105235290Y-143492475D01*
X105235282Y-143492481D01*
X105123481Y-143604282D01*
X105123475Y-143604290D01*
X105044426Y-143741209D01*
X105044423Y-143741216D01*
X105003500Y-143893943D01*
X105003500Y-144052056D01*
X105044423Y-144204783D01*
X105044426Y-144204790D01*
X105123475Y-144341709D01*
X105123479Y-144341714D01*
X105123480Y-144341716D01*
X105235284Y-144453520D01*
X105235286Y-144453521D01*
X105235290Y-144453524D01*
X105372209Y-144532573D01*
X105372216Y-144532577D01*
X105524943Y-144573500D01*
X105524945Y-144573500D01*
X105683055Y-144573500D01*
X105683057Y-144573500D01*
X105835784Y-144532577D01*
X105972716Y-144453520D01*
X106084520Y-144341716D01*
X106163577Y-144204784D01*
X106204500Y-144052057D01*
X106204500Y-144025610D01*
X106224185Y-143958571D01*
X106240819Y-143937929D01*
X108831929Y-141346819D01*
X108893252Y-141313334D01*
X108919610Y-141310500D01*
X110999902Y-141310500D01*
X111066941Y-141330185D01*
X111087583Y-141346819D01*
X111106284Y-141365520D01*
X111106286Y-141365521D01*
X111106290Y-141365524D01*
X111222329Y-141432518D01*
X111243216Y-141444577D01*
X111395943Y-141485500D01*
X111395945Y-141485500D01*
X111554055Y-141485500D01*
X111554057Y-141485500D01*
X111706784Y-141444577D01*
X111843716Y-141365520D01*
X111955520Y-141253716D01*
X112034577Y-141116784D01*
X112075500Y-140964057D01*
X112075500Y-140805943D01*
X112075499Y-140805941D01*
X112074676Y-140799687D01*
X112085441Y-140730652D01*
X112131820Y-140678395D01*
X112197615Y-140659500D01*
X112490016Y-140659500D01*
X112490018Y-140659500D01*
X112598237Y-140630503D01*
X112695263Y-140574485D01*
X113861145Y-139408601D01*
X113922466Y-139375118D01*
X113992157Y-139380102D01*
X114036543Y-139408640D01*
X114416377Y-139788815D01*
X114424221Y-139796666D01*
X114457678Y-139858004D01*
X114460500Y-139884308D01*
X114460500Y-139911057D01*
X114487338Y-140011216D01*
X114501423Y-140063783D01*
X114501426Y-140063790D01*
X114580475Y-140200709D01*
X114580479Y-140200714D01*
X114580480Y-140200716D01*
X114692284Y-140312520D01*
X114692286Y-140312521D01*
X114692290Y-140312524D01*
X114829209Y-140391573D01*
X114829216Y-140391577D01*
X114981943Y-140432500D01*
X114981945Y-140432500D01*
X115140055Y-140432500D01*
X115140057Y-140432500D01*
X115292784Y-140391577D01*
X115429716Y-140312520D01*
X115541520Y-140200716D01*
X115620577Y-140063784D01*
X115661500Y-139911057D01*
X115661500Y-139752943D01*
X115620577Y-139600216D01*
X115599688Y-139564034D01*
X115541524Y-139463290D01*
X115541518Y-139463282D01*
X115429717Y-139351481D01*
X115429709Y-139351475D01*
X115292790Y-139272426D01*
X115292786Y-139272424D01*
X115292784Y-139272423D01*
X115140057Y-139231500D01*
X115140056Y-139231500D01*
X115113913Y-139231500D01*
X115046874Y-139211815D01*
X115026192Y-139195142D01*
X114410779Y-138579175D01*
X114377322Y-138517837D01*
X114374500Y-138491533D01*
X114374500Y-138203984D01*
X114374500Y-138203982D01*
X114345503Y-138095763D01*
X114289485Y-137998737D01*
X114210263Y-137919515D01*
X114210262Y-137919514D01*
X114205932Y-137915184D01*
X114205921Y-137915174D01*
X113021244Y-136730497D01*
X112941690Y-136650943D01*
X126587500Y-136650943D01*
X126587500Y-136809056D01*
X126628423Y-136961783D01*
X126628426Y-136961790D01*
X126707475Y-137098709D01*
X126707479Y-137098714D01*
X126707480Y-137098716D01*
X126819284Y-137210520D01*
X126819286Y-137210521D01*
X126819290Y-137210524D01*
X126956209Y-137289573D01*
X126956216Y-137289577D01*
X127108943Y-137330500D01*
X127108945Y-137330500D01*
X127267055Y-137330500D01*
X127267057Y-137330500D01*
X127419784Y-137289577D01*
X127556716Y-137210520D01*
X127575417Y-137191819D01*
X127602344Y-137177115D01*
X127628163Y-137160523D01*
X127634363Y-137159631D01*
X127636740Y-137158334D01*
X127663098Y-137155500D01*
X127908924Y-137155500D01*
X127908934Y-137155500D01*
X127964943Y-137155510D01*
X127964956Y-137155506D01*
X127964993Y-137155502D01*
X127965005Y-137155500D01*
X127965018Y-137155500D01*
X128002230Y-137145528D01*
X128019358Y-137140940D01*
X128019375Y-137140935D01*
X128025483Y-137139299D01*
X128073166Y-137126532D01*
X128073177Y-137126525D01*
X128073217Y-137126507D01*
X128073237Y-137126503D01*
X128122999Y-137097772D01*
X128170203Y-137070531D01*
X128170213Y-137070520D01*
X128170246Y-137070494D01*
X128170263Y-137070485D01*
X128170279Y-137070468D01*
X128170303Y-137070450D01*
X128170608Y-137070139D01*
X128209603Y-137031143D01*
X128209622Y-137031133D01*
X128209618Y-137031129D01*
X129355546Y-135885608D01*
X130688825Y-134552802D01*
X130750154Y-134519329D01*
X130776491Y-134516500D01*
X130803055Y-134516500D01*
X130803057Y-134516500D01*
X130955784Y-134475577D01*
X131092716Y-134396520D01*
X131204520Y-134284716D01*
X131283577Y-134147784D01*
X131324500Y-133995057D01*
X131324500Y-133836943D01*
X131283577Y-133684216D01*
X131240371Y-133609380D01*
X131204524Y-133547290D01*
X131204518Y-133547282D01*
X131092717Y-133435481D01*
X131092709Y-133435475D01*
X131060610Y-133416943D01*
X135061500Y-133416943D01*
X135061500Y-133575057D01*
X135100280Y-133719784D01*
X135102423Y-133727783D01*
X135102426Y-133727790D01*
X135181475Y-133864709D01*
X135181479Y-133864714D01*
X135181480Y-133864716D01*
X135293284Y-133976520D01*
X135293286Y-133976521D01*
X135293290Y-133976524D01*
X135416358Y-134047576D01*
X135430216Y-134055577D01*
X135582943Y-134096500D01*
X135582945Y-134096500D01*
X135741055Y-134096500D01*
X135741057Y-134096500D01*
X135893784Y-134055577D01*
X136030716Y-133976520D01*
X136049417Y-133957819D01*
X136110740Y-133924334D01*
X136137098Y-133921500D01*
X138176902Y-133921500D01*
X138243941Y-133941185D01*
X138264583Y-133957819D01*
X138275284Y-133968520D01*
X138275286Y-133968521D01*
X138275290Y-133968524D01*
X138412209Y-134047573D01*
X138412216Y-134047577D01*
X138564943Y-134088500D01*
X138564945Y-134088500D01*
X138723055Y-134088500D01*
X138723057Y-134088500D01*
X138875784Y-134047577D01*
X139012716Y-133968520D01*
X139124520Y-133856716D01*
X139203577Y-133719784D01*
X139244500Y-133567057D01*
X139244500Y-133408943D01*
X139203577Y-133256216D01*
X139186253Y-133226209D01*
X139124524Y-133119290D01*
X139124518Y-133119282D01*
X139012717Y-133007481D01*
X139012709Y-133007475D01*
X138875790Y-132928426D01*
X138875786Y-132928424D01*
X138875784Y-132928423D01*
X138723057Y-132887500D01*
X138564943Y-132887500D01*
X138412216Y-132928423D01*
X138412209Y-132928426D01*
X138275290Y-133007475D01*
X138275282Y-133007481D01*
X138248583Y-133034181D01*
X138187260Y-133067666D01*
X138160902Y-133070500D01*
X136137098Y-133070500D01*
X136070059Y-133050815D01*
X136049417Y-133034181D01*
X136030717Y-133015481D01*
X136030709Y-133015475D01*
X135893790Y-132936426D01*
X135893786Y-132936424D01*
X135893784Y-132936423D01*
X135741057Y-132895500D01*
X135582943Y-132895500D01*
X135430216Y-132936423D01*
X135430209Y-132936426D01*
X135293290Y-133015475D01*
X135293282Y-133015481D01*
X135181481Y-133127282D01*
X135181475Y-133127290D01*
X135102426Y-133264209D01*
X135102423Y-133264216D01*
X135061500Y-133416943D01*
X131060610Y-133416943D01*
X130955790Y-133356426D01*
X130955786Y-133356424D01*
X130955784Y-133356423D01*
X130803057Y-133315500D01*
X130644943Y-133315500D01*
X130492216Y-133356423D01*
X130492209Y-133356426D01*
X130355290Y-133435475D01*
X130355282Y-133435481D01*
X130243481Y-133547282D01*
X130243475Y-133547290D01*
X130164426Y-133684209D01*
X130164423Y-133684216D01*
X130123500Y-133836943D01*
X130123500Y-133863269D01*
X130103815Y-133930308D01*
X130087166Y-133950966D01*
X129456518Y-134581390D01*
X128640879Y-135396740D01*
X127769112Y-136268197D01*
X127742183Y-136282894D01*
X127716381Y-136299477D01*
X127710165Y-136300370D01*
X127707783Y-136301671D01*
X127681446Y-136304500D01*
X127663098Y-136304500D01*
X127596059Y-136284815D01*
X127575417Y-136268181D01*
X127556717Y-136249481D01*
X127556709Y-136249475D01*
X127419790Y-136170426D01*
X127419786Y-136170424D01*
X127419784Y-136170423D01*
X127267057Y-136129500D01*
X127108943Y-136129500D01*
X126956216Y-136170423D01*
X126956209Y-136170426D01*
X126819290Y-136249475D01*
X126819282Y-136249481D01*
X126707481Y-136361282D01*
X126707475Y-136361290D01*
X126628426Y-136498209D01*
X126628423Y-136498216D01*
X126587500Y-136650943D01*
X112941690Y-136650943D01*
X112558944Y-136268197D01*
X110959819Y-134669071D01*
X110926334Y-134607748D01*
X110923500Y-134581390D01*
X110923500Y-134554945D01*
X110923500Y-134554943D01*
X110882577Y-134402216D01*
X110879291Y-134396524D01*
X110803524Y-134265290D01*
X110803518Y-134265282D01*
X110691717Y-134153481D01*
X110691712Y-134153477D01*
X110624871Y-134114887D01*
X110576656Y-134064321D01*
X110563432Y-133995714D01*
X110589400Y-133930849D01*
X110646314Y-133890320D01*
X110686871Y-133883500D01*
X117666016Y-133883500D01*
X117666018Y-133883500D01*
X117774237Y-133854503D01*
X117871263Y-133798485D01*
X118553239Y-133116506D01*
X118614560Y-133083023D01*
X118684251Y-133088007D01*
X118740185Y-133129878D01*
X118741739Y-133132167D01*
X118741758Y-133132154D01*
X118744621Y-133136095D01*
X118744622Y-133136096D01*
X118853379Y-133285787D01*
X118984213Y-133416621D01*
X119133904Y-133525378D01*
X119176893Y-133547282D01*
X119298764Y-133609379D01*
X119298767Y-133609380D01*
X119386750Y-133637967D01*
X119474736Y-133666555D01*
X119657486Y-133695500D01*
X119657487Y-133695500D01*
X120342513Y-133695500D01*
X120342514Y-133695500D01*
X120525264Y-133666555D01*
X120701235Y-133609379D01*
X120866096Y-133525378D01*
X121015787Y-133416621D01*
X121146621Y-133285787D01*
X121255378Y-133136096D01*
X121339379Y-132971235D01*
X121396555Y-132795264D01*
X121425500Y-132612514D01*
X121425500Y-132427486D01*
X121396555Y-132244736D01*
X121339379Y-132068765D01*
X121339379Y-132068764D01*
X121255377Y-131903903D01*
X121146621Y-131754213D01*
X121015787Y-131623379D01*
X120866096Y-131514622D01*
X120866092Y-131514620D01*
X120783304Y-131472437D01*
X120732508Y-131424462D01*
X120715713Y-131356641D01*
X120738251Y-131290506D01*
X120783304Y-131251467D01*
X120970657Y-131156005D01*
X121145754Y-131028788D01*
X121145755Y-131028788D01*
X121298788Y-130875755D01*
X121298788Y-130875754D01*
X121426005Y-130700657D01*
X121524263Y-130507817D01*
X121524264Y-130507814D01*
X121591142Y-130301983D01*
X121591142Y-130301980D01*
X121602543Y-130230000D01*
X120476314Y-130230000D01*
X120500870Y-130187467D01*
X120537500Y-130050763D01*
X120537500Y-129909237D01*
X120500870Y-129772533D01*
X120476314Y-129730000D01*
X121602543Y-129730000D01*
X121591142Y-129658019D01*
X121591142Y-129658016D01*
X121524264Y-129452185D01*
X121524263Y-129452182D01*
X121426005Y-129259342D01*
X121298788Y-129084245D01*
X121298788Y-129084244D01*
X121145755Y-128931211D01*
X120970657Y-128803994D01*
X120783304Y-128708532D01*
X120776355Y-128701969D01*
X120767336Y-128698814D01*
X120751368Y-128678370D01*
X120732508Y-128660557D01*
X120730210Y-128651280D01*
X120724329Y-128643750D01*
X120721949Y-128617918D01*
X120715713Y-128592736D01*
X120718795Y-128583690D01*
X120717919Y-128574175D01*
X120729882Y-128551156D01*
X120738251Y-128526601D01*
X120746591Y-128519007D01*
X120750141Y-128512179D01*
X120771545Y-128496291D01*
X120777957Y-128490454D01*
X120780589Y-128488945D01*
X120866096Y-128445378D01*
X120901379Y-128419742D01*
X120907202Y-128416407D01*
X120934920Y-128409780D01*
X120961765Y-128400202D01*
X120968844Y-128400000D01*
X121876000Y-128400000D01*
X121943039Y-128419685D01*
X121988794Y-128472489D01*
X122000000Y-128524000D01*
X122000000Y-132199999D01*
X141376000Y-132199999D01*
X141443039Y-132219684D01*
X141488794Y-132272488D01*
X141500000Y-132323999D01*
X141500000Y-155575500D01*
X141480315Y-155642539D01*
X141427511Y-155688294D01*
X141376000Y-155699500D01*
X102004428Y-155699500D01*
X101995582Y-155699184D01*
X101766982Y-155682834D01*
X101749470Y-155680316D01*
X101529862Y-155632543D01*
X101512887Y-155627559D01*
X101302311Y-155549019D01*
X101286217Y-155541669D01*
X101088963Y-155433959D01*
X101074080Y-155424394D01*
X100894163Y-155289710D01*
X100880792Y-155278124D01*
X100721875Y-155119207D01*
X100710289Y-155105836D01*
X100575605Y-154925919D01*
X100566040Y-154911036D01*
X100458330Y-154713782D01*
X100450983Y-154697694D01*
X100372437Y-154487103D01*
X100367458Y-154470144D01*
X100319683Y-154250529D01*
X100317165Y-154233017D01*
X100300816Y-154004418D01*
X100300500Y-153995572D01*
X100300500Y-148806900D01*
X101499500Y-148806900D01*
X101499500Y-150793091D01*
X101510123Y-150881562D01*
X101565639Y-151022342D01*
X101565640Y-151022344D01*
X101657077Y-151142922D01*
X101719908Y-151190568D01*
X101777658Y-151234361D01*
X101918436Y-151289876D01*
X102006901Y-151300500D01*
X103993098Y-151300499D01*
X104081564Y-151289876D01*
X104222342Y-151234361D01*
X104342922Y-151142922D01*
X104418637Y-151043076D01*
X104418640Y-151043074D01*
X104434357Y-151022348D01*
X104434359Y-151022344D01*
X104434361Y-151022342D01*
X104489876Y-150881564D01*
X104500500Y-150793099D01*
X104500499Y-149688575D01*
X104800000Y-149688575D01*
X104800000Y-149911424D01*
X104829085Y-150132354D01*
X104829088Y-150132367D01*
X104886763Y-150347618D01*
X104972045Y-150553502D01*
X104972054Y-150553520D01*
X105083464Y-150746491D01*
X105083473Y-150746504D01*
X105134040Y-150812403D01*
X105134043Y-150812403D01*
X105935387Y-150011059D01*
X105940889Y-150031591D01*
X106019881Y-150168408D01*
X106131592Y-150280119D01*
X106268409Y-150359111D01*
X106288940Y-150364612D01*
X105487595Y-151165955D01*
X105487595Y-151165956D01*
X105553507Y-151216533D01*
X105746485Y-151327949D01*
X105746497Y-151327954D01*
X105952381Y-151413236D01*
X106167632Y-151470911D01*
X106167645Y-151470914D01*
X106388575Y-151500000D01*
X106611425Y-151500000D01*
X106832354Y-151470914D01*
X106832367Y-151470911D01*
X107047618Y-151413236D01*
X107253502Y-151327954D01*
X107253514Y-151327949D01*
X107446498Y-151216530D01*
X107512403Y-151165957D01*
X107512404Y-151165956D01*
X106711059Y-150364612D01*
X106731591Y-150359111D01*
X106868408Y-150280119D01*
X106980119Y-150168408D01*
X107059111Y-150031591D01*
X107064612Y-150011059D01*
X107865956Y-150812404D01*
X107865957Y-150812403D01*
X107916530Y-150746498D01*
X108027949Y-150553514D01*
X108027954Y-150553502D01*
X108113236Y-150347618D01*
X108170911Y-150132367D01*
X108170914Y-150132354D01*
X108200000Y-149911424D01*
X108200000Y-149688576D01*
X108199999Y-149688574D01*
X108199121Y-149681902D01*
X108499500Y-149681902D01*
X108499500Y-149918097D01*
X108536446Y-150151368D01*
X108609433Y-150375996D01*
X108699878Y-150553502D01*
X108716657Y-150586433D01*
X108855483Y-150777510D01*
X109022490Y-150944517D01*
X109213567Y-151083343D01*
X109312991Y-151134002D01*
X109424003Y-151190566D01*
X109424005Y-151190566D01*
X109424008Y-151190568D01*
X109503911Y-151216530D01*
X109648631Y-151263553D01*
X109881903Y-151300500D01*
X109881908Y-151300500D01*
X110118097Y-151300500D01*
X110351368Y-151263553D01*
X110441211Y-151234361D01*
X110575992Y-151190568D01*
X110786433Y-151083343D01*
X110977510Y-150944517D01*
X111144517Y-150777510D01*
X111283343Y-150586433D01*
X111390568Y-150375992D01*
X111463553Y-150151368D01*
X111500500Y-149918097D01*
X111500500Y-149688575D01*
X111800000Y-149688575D01*
X111800000Y-149911424D01*
X111829085Y-150132354D01*
X111829088Y-150132367D01*
X111886763Y-150347618D01*
X111972045Y-150553502D01*
X111972054Y-150553520D01*
X112083464Y-150746491D01*
X112083473Y-150746504D01*
X112134040Y-150812403D01*
X112134043Y-150812403D01*
X112935387Y-150011059D01*
X112940889Y-150031591D01*
X113019881Y-150168408D01*
X113131592Y-150280119D01*
X113268409Y-150359111D01*
X113288940Y-150364612D01*
X112487595Y-151165955D01*
X112487595Y-151165956D01*
X112553507Y-151216533D01*
X112746485Y-151327949D01*
X112746497Y-151327954D01*
X112952381Y-151413236D01*
X113167632Y-151470911D01*
X113167645Y-151470914D01*
X113388575Y-151500000D01*
X113611425Y-151500000D01*
X113832354Y-151470914D01*
X113832367Y-151470911D01*
X114047618Y-151413236D01*
X114253502Y-151327954D01*
X114253514Y-151327949D01*
X114446498Y-151216530D01*
X114512403Y-151165957D01*
X114512404Y-151165956D01*
X113711059Y-150364612D01*
X113731591Y-150359111D01*
X113868408Y-150280119D01*
X113980119Y-150168408D01*
X114059111Y-150031591D01*
X114064612Y-150011059D01*
X114865956Y-150812404D01*
X114865957Y-150812403D01*
X114916530Y-150746498D01*
X115027949Y-150553514D01*
X115027954Y-150553502D01*
X115113236Y-150347618D01*
X115170911Y-150132367D01*
X115170914Y-150132354D01*
X115200000Y-149911424D01*
X115200000Y-149688576D01*
X115199999Y-149688574D01*
X115199121Y-149681902D01*
X115499500Y-149681902D01*
X115499500Y-149918097D01*
X115536446Y-150151368D01*
X115609433Y-150375996D01*
X115699878Y-150553502D01*
X115716657Y-150586433D01*
X115855483Y-150777510D01*
X116022490Y-150944517D01*
X116213567Y-151083343D01*
X116312991Y-151134002D01*
X116424003Y-151190566D01*
X116424005Y-151190566D01*
X116424008Y-151190568D01*
X116503911Y-151216530D01*
X116648631Y-151263553D01*
X116881903Y-151300500D01*
X116881908Y-151300500D01*
X117118097Y-151300500D01*
X117351368Y-151263553D01*
X117441211Y-151234361D01*
X117575992Y-151190568D01*
X117786433Y-151083343D01*
X117977510Y-150944517D01*
X118144517Y-150777510D01*
X118283343Y-150586433D01*
X118390568Y-150375992D01*
X118463553Y-150151368D01*
X118500500Y-149918097D01*
X118500500Y-149688575D01*
X118800000Y-149688575D01*
X118800000Y-149911424D01*
X118829085Y-150132354D01*
X118829088Y-150132367D01*
X118886763Y-150347618D01*
X118972045Y-150553502D01*
X118972054Y-150553520D01*
X119083464Y-150746491D01*
X119083473Y-150746504D01*
X119134040Y-150812403D01*
X119134043Y-150812403D01*
X119935387Y-150011059D01*
X119940889Y-150031591D01*
X120019881Y-150168408D01*
X120131592Y-150280119D01*
X120268409Y-150359111D01*
X120288940Y-150364612D01*
X119487595Y-151165955D01*
X119487595Y-151165956D01*
X119553507Y-151216533D01*
X119746485Y-151327949D01*
X119746497Y-151327954D01*
X119952381Y-151413236D01*
X120167632Y-151470911D01*
X120167645Y-151470914D01*
X120388575Y-151500000D01*
X120611425Y-151500000D01*
X120832354Y-151470914D01*
X120832367Y-151470911D01*
X121047618Y-151413236D01*
X121253502Y-151327954D01*
X121253514Y-151327949D01*
X121446498Y-151216530D01*
X121512403Y-151165957D01*
X121512404Y-151165956D01*
X120711059Y-150364612D01*
X120731591Y-150359111D01*
X120868408Y-150280119D01*
X120980119Y-150168408D01*
X121059111Y-150031591D01*
X121064612Y-150011059D01*
X121865956Y-150812404D01*
X121865957Y-150812403D01*
X121916530Y-150746498D01*
X122027949Y-150553514D01*
X122027954Y-150553502D01*
X122113236Y-150347618D01*
X122170911Y-150132367D01*
X122170914Y-150132354D01*
X122200000Y-149911424D01*
X122200000Y-149688576D01*
X122199999Y-149688574D01*
X122199121Y-149681902D01*
X122499500Y-149681902D01*
X122499500Y-149918097D01*
X122536446Y-150151368D01*
X122609433Y-150375996D01*
X122699878Y-150553502D01*
X122716657Y-150586433D01*
X122855483Y-150777510D01*
X123022490Y-150944517D01*
X123213567Y-151083343D01*
X123312991Y-151134002D01*
X123424003Y-151190566D01*
X123424005Y-151190566D01*
X123424008Y-151190568D01*
X123503911Y-151216530D01*
X123648631Y-151263553D01*
X123881903Y-151300500D01*
X123881908Y-151300500D01*
X124118097Y-151300500D01*
X124351368Y-151263553D01*
X124441211Y-151234361D01*
X124575992Y-151190568D01*
X124786433Y-151083343D01*
X124977510Y-150944517D01*
X125144517Y-150777510D01*
X125283343Y-150586433D01*
X125390568Y-150375992D01*
X125463553Y-150151368D01*
X125500500Y-149918097D01*
X125500500Y-149688575D01*
X125800000Y-149688575D01*
X125800000Y-149911424D01*
X125829085Y-150132354D01*
X125829088Y-150132367D01*
X125886763Y-150347618D01*
X125972045Y-150553502D01*
X125972054Y-150553520D01*
X126083464Y-150746491D01*
X126083473Y-150746504D01*
X126134040Y-150812403D01*
X126134043Y-150812403D01*
X126935387Y-150011059D01*
X126940889Y-150031591D01*
X127019881Y-150168408D01*
X127131592Y-150280119D01*
X127268409Y-150359111D01*
X127288940Y-150364612D01*
X126487595Y-151165955D01*
X126487595Y-151165956D01*
X126553507Y-151216533D01*
X126746485Y-151327949D01*
X126746497Y-151327954D01*
X126952381Y-151413236D01*
X127167632Y-151470911D01*
X127167645Y-151470914D01*
X127388575Y-151500000D01*
X127611425Y-151500000D01*
X127832354Y-151470914D01*
X127832367Y-151470911D01*
X128047618Y-151413236D01*
X128253502Y-151327954D01*
X128253514Y-151327949D01*
X128446498Y-151216530D01*
X128512403Y-151165957D01*
X128512404Y-151165956D01*
X127711059Y-150364612D01*
X127731591Y-150359111D01*
X127868408Y-150280119D01*
X127980119Y-150168408D01*
X128059111Y-150031591D01*
X128064612Y-150011059D01*
X128865956Y-150812404D01*
X128865957Y-150812403D01*
X128916530Y-150746498D01*
X129027949Y-150553514D01*
X129027954Y-150553502D01*
X129113236Y-150347618D01*
X129170911Y-150132367D01*
X129170914Y-150132354D01*
X129200000Y-149911424D01*
X129200000Y-149688575D01*
X129170914Y-149467645D01*
X129170911Y-149467632D01*
X129113236Y-149252381D01*
X129027954Y-149046497D01*
X129027949Y-149046485D01*
X128916533Y-148853507D01*
X128865956Y-148787595D01*
X128865955Y-148787595D01*
X128064612Y-149588939D01*
X128059111Y-149568409D01*
X127980119Y-149431592D01*
X127868408Y-149319881D01*
X127731591Y-149240889D01*
X127711058Y-149235387D01*
X128512403Y-148434043D01*
X128512403Y-148434040D01*
X128446504Y-148383473D01*
X128446491Y-148383464D01*
X128253520Y-148272054D01*
X128253502Y-148272045D01*
X128047618Y-148186763D01*
X127832367Y-148129088D01*
X127832354Y-148129085D01*
X127611425Y-148100000D01*
X127388575Y-148100000D01*
X127167645Y-148129085D01*
X127167632Y-148129088D01*
X126952381Y-148186763D01*
X126746497Y-148272045D01*
X126746479Y-148272054D01*
X126553511Y-148383462D01*
X126487595Y-148434042D01*
X127288941Y-149235387D01*
X127268409Y-149240889D01*
X127131592Y-149319881D01*
X127019881Y-149431592D01*
X126940889Y-149568409D01*
X126935387Y-149588940D01*
X126134042Y-148787595D01*
X126083462Y-148853511D01*
X125972054Y-149046479D01*
X125972045Y-149046497D01*
X125886763Y-149252381D01*
X125829088Y-149467632D01*
X125829085Y-149467645D01*
X125800000Y-149688575D01*
X125500500Y-149688575D01*
X125500500Y-149681902D01*
X125463553Y-149448631D01*
X125449605Y-149405705D01*
X125390568Y-149224008D01*
X125359630Y-149163288D01*
X125346734Y-149094618D01*
X125373011Y-149029878D01*
X125382425Y-149019321D01*
X126721929Y-147679819D01*
X126783252Y-147646334D01*
X126809610Y-147643500D01*
X128471006Y-147643500D01*
X128471032Y-147643507D01*
X128527050Y-147643500D01*
X128583018Y-147643500D01*
X128583028Y-147643497D01*
X128583059Y-147643493D01*
X128583069Y-147643493D01*
X128613509Y-147635332D01*
X128638249Y-147628701D01*
X128638252Y-147628699D01*
X128691237Y-147614503D01*
X128691242Y-147614499D01*
X128691264Y-147614494D01*
X128691279Y-147614485D01*
X128691284Y-147614484D01*
X128742324Y-147585007D01*
X128788263Y-147558485D01*
X128788266Y-147558481D01*
X128788286Y-147558470D01*
X128788299Y-147558456D01*
X128788304Y-147558454D01*
X128830364Y-147516383D01*
X128830366Y-147516381D01*
X128830368Y-147516383D01*
X128830375Y-147516371D01*
X128867485Y-147479263D01*
X128867486Y-147479260D01*
X128873276Y-147473471D01*
X128873343Y-147473394D01*
X132041930Y-144304055D01*
X132702999Y-143642829D01*
X132764319Y-143609337D01*
X132790691Y-143606500D01*
X132817055Y-143606500D01*
X132817057Y-143606500D01*
X132969784Y-143565577D01*
X133106716Y-143486520D01*
X133218520Y-143374716D01*
X133266359Y-143291854D01*
X133316923Y-143243640D01*
X133385530Y-143230416D01*
X133450395Y-143256383D01*
X133461426Y-143266174D01*
X134385181Y-144189929D01*
X134418666Y-144251252D01*
X134421500Y-144277610D01*
X134421500Y-144304057D01*
X134461550Y-144453524D01*
X134462423Y-144456783D01*
X134462426Y-144456790D01*
X134541475Y-144593709D01*
X134541479Y-144593714D01*
X134541480Y-144593716D01*
X134653284Y-144705520D01*
X134653286Y-144705521D01*
X134653290Y-144705524D01*
X134790209Y-144784573D01*
X134790216Y-144784577D01*
X134942943Y-144825500D01*
X134942945Y-144825500D01*
X135101055Y-144825500D01*
X135101057Y-144825500D01*
X135253784Y-144784577D01*
X135390716Y-144705520D01*
X135502520Y-144593716D01*
X135581577Y-144456784D01*
X135622500Y-144304057D01*
X135622500Y-144145943D01*
X135581577Y-143993216D01*
X135561575Y-143958571D01*
X135502524Y-143856290D01*
X135502518Y-143856282D01*
X135390717Y-143744481D01*
X135390709Y-143744475D01*
X135253790Y-143665426D01*
X135253786Y-143665424D01*
X135253784Y-143665423D01*
X135101057Y-143624500D01*
X135101056Y-143624500D01*
X135074610Y-143624500D01*
X135007571Y-143604815D01*
X134986929Y-143588181D01*
X133279265Y-141880517D01*
X133279263Y-141880515D01*
X133182237Y-141824497D01*
X133074018Y-141795500D01*
X133074017Y-141795500D01*
X130722610Y-141795500D01*
X130655571Y-141775815D01*
X130634929Y-141759181D01*
X129748691Y-140872943D01*
X131341500Y-140872943D01*
X131341500Y-141031057D01*
X131364471Y-141116784D01*
X131382423Y-141183783D01*
X131382426Y-141183790D01*
X131461475Y-141320709D01*
X131461479Y-141320714D01*
X131461480Y-141320716D01*
X131573284Y-141432520D01*
X131573286Y-141432521D01*
X131573290Y-141432524D01*
X131665047Y-141485499D01*
X131710216Y-141511577D01*
X131862943Y-141552500D01*
X132021057Y-141552500D01*
X132173784Y-141511577D01*
X132310716Y-141432520D01*
X132422520Y-141320716D01*
X132501577Y-141183784D01*
X132542500Y-141031057D01*
X132542500Y-141004610D01*
X132562185Y-140937571D01*
X132578819Y-140916929D01*
X132790929Y-140704819D01*
X132852252Y-140671334D01*
X132878610Y-140668500D01*
X134694902Y-140668500D01*
X134761941Y-140688185D01*
X134782583Y-140704819D01*
X134801284Y-140723520D01*
X134801286Y-140723521D01*
X134801290Y-140723524D01*
X134922627Y-140793577D01*
X134938216Y-140802577D01*
X135090943Y-140843500D01*
X135090945Y-140843500D01*
X135249055Y-140843500D01*
X135249057Y-140843500D01*
X135401784Y-140802577D01*
X135538716Y-140723520D01*
X135650520Y-140611716D01*
X135729577Y-140474784D01*
X135770500Y-140322057D01*
X135770500Y-140163943D01*
X135729577Y-140011216D01*
X135671751Y-139911057D01*
X135650524Y-139874290D01*
X135650518Y-139874282D01*
X135538717Y-139762481D01*
X135538709Y-139762475D01*
X135401790Y-139683426D01*
X135401786Y-139683424D01*
X135401784Y-139683423D01*
X135249057Y-139642500D01*
X135090943Y-139642500D01*
X134938216Y-139683423D01*
X134938209Y-139683426D01*
X134801290Y-139762475D01*
X134801282Y-139762481D01*
X134782583Y-139781181D01*
X134721260Y-139814666D01*
X134694902Y-139817500D01*
X132707018Y-139817500D01*
X132594981Y-139817500D01*
X132486763Y-139846497D01*
X132486761Y-139846498D01*
X132486760Y-139846498D01*
X132389740Y-139902513D01*
X132389734Y-139902517D01*
X131977071Y-140315181D01*
X131915748Y-140348666D01*
X131889390Y-140351500D01*
X131862943Y-140351500D01*
X131710216Y-140392423D01*
X131710209Y-140392426D01*
X131573290Y-140471475D01*
X131573282Y-140471481D01*
X131461481Y-140583282D01*
X131461475Y-140583290D01*
X131382426Y-140720209D01*
X131382423Y-140720216D01*
X131341500Y-140872943D01*
X129748691Y-140872943D01*
X127629819Y-138754071D01*
X127596334Y-138692748D01*
X127593500Y-138666390D01*
X127593500Y-138639945D01*
X127593500Y-138639943D01*
X127552577Y-138487216D01*
X127548710Y-138480518D01*
X127473524Y-138350290D01*
X127473518Y-138350282D01*
X127361717Y-138238481D01*
X127361709Y-138238475D01*
X127224790Y-138159426D01*
X127224786Y-138159424D01*
X127224784Y-138159423D01*
X127072057Y-138118500D01*
X126913943Y-138118500D01*
X126761216Y-138159423D01*
X126761209Y-138159426D01*
X126624290Y-138238475D01*
X126624282Y-138238481D01*
X126512481Y-138350282D01*
X126512475Y-138350290D01*
X126433426Y-138487209D01*
X126433423Y-138487216D01*
X126392500Y-138639943D01*
X126392500Y-138691190D01*
X126372815Y-138758229D01*
X126320011Y-138803984D01*
X126250853Y-138813928D01*
X126187297Y-138784903D01*
X126180827Y-138778879D01*
X125436827Y-138035016D01*
X125403336Y-137973696D01*
X125400500Y-137947327D01*
X125400500Y-137920945D01*
X125400500Y-137920943D01*
X125359577Y-137768216D01*
X125359573Y-137768209D01*
X125280524Y-137631290D01*
X125280518Y-137631282D01*
X125168717Y-137519481D01*
X125168709Y-137519475D01*
X125031790Y-137440426D01*
X125031786Y-137440424D01*
X125031784Y-137440423D01*
X124879057Y-137399500D01*
X124720943Y-137399500D01*
X124568216Y-137440423D01*
X124568209Y-137440426D01*
X124431290Y-137519475D01*
X124431282Y-137519481D01*
X124319481Y-137631282D01*
X124319475Y-137631290D01*
X124240426Y-137768209D01*
X124240423Y-137768216D01*
X124199500Y-137920943D01*
X124199500Y-138079057D01*
X124232974Y-138203982D01*
X124240423Y-138231783D01*
X124240426Y-138231790D01*
X124319475Y-138368709D01*
X124319479Y-138368714D01*
X124319480Y-138368716D01*
X124431284Y-138480520D01*
X124431286Y-138480521D01*
X124431290Y-138480524D01*
X124539268Y-138542864D01*
X124568216Y-138559577D01*
X124720943Y-138600500D01*
X124747452Y-138600500D01*
X124814491Y-138620185D01*
X124835123Y-138636809D01*
X129586173Y-143386983D01*
X129619664Y-143448302D01*
X129622500Y-143474671D01*
X129622500Y-143527057D01*
X129643787Y-143606499D01*
X129663423Y-143679783D01*
X129663426Y-143679790D01*
X129742475Y-143816709D01*
X129742479Y-143816714D01*
X129742480Y-143816716D01*
X129854284Y-143928520D01*
X129854286Y-143928521D01*
X129854290Y-143928524D01*
X129966342Y-143993216D01*
X129991216Y-144007577D01*
X130143943Y-144048500D01*
X130143945Y-144048500D01*
X130302055Y-144048500D01*
X130302057Y-144048500D01*
X130454784Y-144007577D01*
X130591716Y-143928520D01*
X130703520Y-143816716D01*
X130782577Y-143679784D01*
X130823500Y-143527057D01*
X130823500Y-143368943D01*
X130782577Y-143216216D01*
X130733349Y-143130950D01*
X130703524Y-143079290D01*
X130703518Y-143079282D01*
X130591717Y-142967481D01*
X130591709Y-142967475D01*
X130454790Y-142888426D01*
X130454787Y-142888424D01*
X130454784Y-142888423D01*
X130454780Y-142888422D01*
X130447277Y-142885314D01*
X130448541Y-142882260D01*
X130402023Y-142853898D01*
X130371502Y-142791047D01*
X130379806Y-142721673D01*
X130424298Y-142667801D01*
X130490853Y-142646535D01*
X130493788Y-142646500D01*
X132051045Y-142646500D01*
X132071608Y-142652538D01*
X132093004Y-142653815D01*
X132104466Y-142662186D01*
X132118084Y-142666185D01*
X132132117Y-142682380D01*
X132149428Y-142695023D01*
X132154545Y-142708263D01*
X132163839Y-142718989D01*
X132166889Y-142740201D01*
X132174616Y-142760194D01*
X132172754Y-142780991D01*
X132173783Y-142788147D01*
X132172514Y-142795425D01*
X132171774Y-142799027D01*
X132137500Y-142926943D01*
X132137500Y-142966058D01*
X132134969Y-142978393D01*
X132124253Y-142998581D01*
X132117815Y-143020507D01*
X132102574Y-143039422D01*
X132102211Y-143040108D01*
X132101867Y-143040301D01*
X132101192Y-143041139D01*
X128387042Y-146756171D01*
X128325722Y-146789663D01*
X128299350Y-146792500D01*
X126638018Y-146792500D01*
X126525981Y-146792500D01*
X126417763Y-146821497D01*
X126417761Y-146821498D01*
X126417760Y-146821498D01*
X126320740Y-146877513D01*
X126320734Y-146877517D01*
X124780685Y-148417565D01*
X124719362Y-148451050D01*
X124649670Y-148446066D01*
X124636717Y-148440372D01*
X124575992Y-148409432D01*
X124575991Y-148409431D01*
X124575986Y-148409429D01*
X124351370Y-148336447D01*
X124118097Y-148299500D01*
X124118092Y-148299500D01*
X123881908Y-148299500D01*
X123881903Y-148299500D01*
X123648631Y-148336446D01*
X123424003Y-148409433D01*
X123213566Y-148516657D01*
X123104550Y-148595862D01*
X123022490Y-148655483D01*
X123022488Y-148655485D01*
X123022487Y-148655485D01*
X122855485Y-148822487D01*
X122855485Y-148822488D01*
X122855483Y-148822490D01*
X122832948Y-148853507D01*
X122716657Y-149013566D01*
X122609433Y-149224003D01*
X122536446Y-149448631D01*
X122499500Y-149681902D01*
X122199121Y-149681902D01*
X122170914Y-149467645D01*
X122170911Y-149467632D01*
X122113236Y-149252381D01*
X122027954Y-149046497D01*
X122027949Y-149046485D01*
X121916533Y-148853507D01*
X121865956Y-148787595D01*
X121865955Y-148787595D01*
X121064612Y-149588939D01*
X121059111Y-149568409D01*
X120980119Y-149431592D01*
X120868408Y-149319881D01*
X120731591Y-149240889D01*
X120711058Y-149235387D01*
X121512403Y-148434043D01*
X121512403Y-148434040D01*
X121446504Y-148383473D01*
X121446491Y-148383464D01*
X121253520Y-148272054D01*
X121253502Y-148272045D01*
X121047618Y-148186763D01*
X120832367Y-148129088D01*
X120832354Y-148129085D01*
X120611425Y-148100000D01*
X120388575Y-148100000D01*
X120167645Y-148129085D01*
X120167632Y-148129088D01*
X119952381Y-148186763D01*
X119746497Y-148272045D01*
X119746479Y-148272054D01*
X119553511Y-148383462D01*
X119487595Y-148434042D01*
X120288941Y-149235387D01*
X120268409Y-149240889D01*
X120131592Y-149319881D01*
X120019881Y-149431592D01*
X119940889Y-149568409D01*
X119935387Y-149588940D01*
X119134042Y-148787595D01*
X119083462Y-148853511D01*
X118972054Y-149046479D01*
X118972045Y-149046497D01*
X118886763Y-149252381D01*
X118829088Y-149467632D01*
X118829085Y-149467645D01*
X118800000Y-149688575D01*
X118500500Y-149688575D01*
X118500500Y-149681902D01*
X118463553Y-149448631D01*
X118390566Y-149224003D01*
X118334002Y-149112991D01*
X118283343Y-149013567D01*
X118144517Y-148822490D01*
X117977510Y-148655483D01*
X117786433Y-148516657D01*
X117575996Y-148409433D01*
X117351368Y-148336446D01*
X117118097Y-148299500D01*
X117118092Y-148299500D01*
X116881908Y-148299500D01*
X116881903Y-148299500D01*
X116648631Y-148336446D01*
X116424003Y-148409433D01*
X116213566Y-148516657D01*
X116104550Y-148595862D01*
X116022490Y-148655483D01*
X116022488Y-148655485D01*
X116022487Y-148655485D01*
X115855485Y-148822487D01*
X115855485Y-148822488D01*
X115855483Y-148822490D01*
X115832948Y-148853507D01*
X115716657Y-149013566D01*
X115609433Y-149224003D01*
X115536446Y-149448631D01*
X115499500Y-149681902D01*
X115199121Y-149681902D01*
X115170914Y-149467645D01*
X115170911Y-149467632D01*
X115113236Y-149252381D01*
X115027954Y-149046497D01*
X115027949Y-149046485D01*
X114916533Y-148853507D01*
X114865956Y-148787595D01*
X114865955Y-148787595D01*
X114064612Y-149588939D01*
X114059111Y-149568409D01*
X113980119Y-149431592D01*
X113868408Y-149319881D01*
X113731591Y-149240889D01*
X113711058Y-149235387D01*
X114512403Y-148434043D01*
X114512403Y-148434040D01*
X114446504Y-148383473D01*
X114446491Y-148383464D01*
X114253520Y-148272054D01*
X114253502Y-148272045D01*
X114047618Y-148186763D01*
X113832367Y-148129088D01*
X113832354Y-148129085D01*
X113611425Y-148100000D01*
X113388575Y-148100000D01*
X113167645Y-148129085D01*
X113167632Y-148129088D01*
X112952381Y-148186763D01*
X112746497Y-148272045D01*
X112746479Y-148272054D01*
X112553511Y-148383462D01*
X112487595Y-148434042D01*
X113288941Y-149235387D01*
X113268409Y-149240889D01*
X113131592Y-149319881D01*
X113019881Y-149431592D01*
X112940889Y-149568409D01*
X112935387Y-149588940D01*
X112134042Y-148787595D01*
X112083462Y-148853511D01*
X111972054Y-149046479D01*
X111972045Y-149046497D01*
X111886763Y-149252381D01*
X111829088Y-149467632D01*
X111829085Y-149467645D01*
X111800000Y-149688575D01*
X111500500Y-149688575D01*
X111500500Y-149681902D01*
X111463553Y-149448631D01*
X111390566Y-149224003D01*
X111334002Y-149112991D01*
X111283343Y-149013567D01*
X111144517Y-148822490D01*
X110977510Y-148655483D01*
X110786433Y-148516657D01*
X110575996Y-148409433D01*
X110351368Y-148336446D01*
X110118097Y-148299500D01*
X110118092Y-148299500D01*
X109881908Y-148299500D01*
X109881903Y-148299500D01*
X109648631Y-148336446D01*
X109424003Y-148409433D01*
X109213566Y-148516657D01*
X109104550Y-148595862D01*
X109022490Y-148655483D01*
X109022488Y-148655485D01*
X109022487Y-148655485D01*
X108855485Y-148822487D01*
X108855485Y-148822488D01*
X108855483Y-148822490D01*
X108832948Y-148853507D01*
X108716657Y-149013566D01*
X108609433Y-149224003D01*
X108536446Y-149448631D01*
X108499500Y-149681902D01*
X108199121Y-149681902D01*
X108170914Y-149467645D01*
X108170911Y-149467632D01*
X108113236Y-149252381D01*
X108027954Y-149046497D01*
X108027949Y-149046485D01*
X107916533Y-148853507D01*
X107865956Y-148787595D01*
X107865955Y-148787595D01*
X107064612Y-149588939D01*
X107059111Y-149568409D01*
X106980119Y-149431592D01*
X106868408Y-149319881D01*
X106731591Y-149240889D01*
X106711058Y-149235387D01*
X107512403Y-148434043D01*
X107512403Y-148434040D01*
X107446504Y-148383473D01*
X107446491Y-148383464D01*
X107253520Y-148272054D01*
X107253502Y-148272045D01*
X107047618Y-148186763D01*
X106832367Y-148129088D01*
X106832354Y-148129085D01*
X106611425Y-148100000D01*
X106388575Y-148100000D01*
X106167645Y-148129085D01*
X106167632Y-148129088D01*
X105952381Y-148186763D01*
X105746497Y-148272045D01*
X105746479Y-148272054D01*
X105553511Y-148383462D01*
X105487595Y-148434042D01*
X106288941Y-149235387D01*
X106268409Y-149240889D01*
X106131592Y-149319881D01*
X106019881Y-149431592D01*
X105940889Y-149568409D01*
X105935387Y-149588940D01*
X105134042Y-148787595D01*
X105083462Y-148853511D01*
X104972054Y-149046479D01*
X104972045Y-149046497D01*
X104886763Y-149252381D01*
X104829088Y-149467632D01*
X104829085Y-149467645D01*
X104800000Y-149688575D01*
X104500499Y-149688575D01*
X104500499Y-148806902D01*
X104489876Y-148718436D01*
X104434361Y-148577658D01*
X104418634Y-148556919D01*
X104418634Y-148556918D01*
X104342922Y-148457077D01*
X104222344Y-148365640D01*
X104222342Y-148365639D01*
X104081564Y-148310124D01*
X104081561Y-148310123D01*
X103993099Y-148299500D01*
X102006908Y-148299500D01*
X101918437Y-148310123D01*
X101777657Y-148365639D01*
X101777655Y-148365640D01*
X101657077Y-148457077D01*
X101565640Y-148577655D01*
X101565639Y-148577658D01*
X101534949Y-148655485D01*
X101510124Y-148718437D01*
X101510123Y-148718438D01*
X101499500Y-148806900D01*
X100300500Y-148806900D01*
X100300500Y-132323999D01*
X100320185Y-132256960D01*
X100372989Y-132211205D01*
X100424500Y-132199999D01*
X117966891Y-132199999D01*
X118014589Y-132214005D01*
X118000316Y-132175736D01*
X118000000Y-132166890D01*
X118000000Y-128524000D01*
X118019685Y-128456961D01*
X118072489Y-128411206D01*
X118124000Y-128400000D01*
X119031156Y-128400000D01*
X119045283Y-128404148D01*
G37*
%TD.AperFunction*%
%TD*%
M02*
