%TF.GenerationSoftware,KiCad,Pcbnew,9.0.9*%
%TF.CreationDate,2026-10-02T04:23:02+00:00*%
%TF.ProjectId,AP1_Industrial,4150315f-496e-4647-9573-747269616c2e,rev?*%
%TF.SameCoordinates,Original*%
%TF.FileFunction,Paste,Top*%
%TF.FilePolarity,Positive*%
%FSLAX46Y46*%
G04 Gerber Fmt 4.6, Leading zero omitted, Abs format (unit mm)*
G04 Created by KiCad (PCBNEW 9.0.9) date 2026-10-02 04:23:02*
%MOMM*%
%LPD*%
G01*
G04 APERTURE LIST*
G04 Aperture macros list*
%AMRoundRect*
0 Rectangle with rounded corners*
0 $1 Rounding radius*
0 $2 $3 $4 $5 $6 $7 $8 $9 X,Y pos of 4 corners*
0 Add a 4 corners polygon primitive as box body*
4,1,4,$2,$3,$4,$5,$6,$7,$8,$9,$2,$3,0*
0 Add four circle primitives for the rounded corners*
1,1,$1+$1,$2,$3*
1,1,$1+$1,$4,$5*
1,1,$1+$1,$6,$7*
1,1,$1+$1,$8,$9*
0 Add four rect primitives between the rounded corners*
20,1,$1+$1,$2,$3,$4,$5,0*
20,1,$1+$1,$4,$5,$6,$7,0*
20,1,$1+$1,$6,$7,$8,$9,0*
20,1,$1+$1,$8,$9,$2,$3,0*%
G04 Aperture macros list end*
%ADD10RoundRect,0.200000X0.275000X-0.200000X0.275000X0.200000X-0.275000X0.200000X-0.275000X-0.200000X0*%
%ADD11RoundRect,0.225000X-0.225000X-0.250000X0.225000X-0.250000X0.225000X0.250000X-0.225000X0.250000X0*%
%ADD12RoundRect,0.200000X-0.200000X-0.275000X0.200000X-0.275000X0.200000X0.275000X-0.200000X0.275000X0*%
%ADD13RoundRect,0.250000X-0.375000X-0.625000X0.375000X-0.625000X0.375000X0.625000X-0.375000X0.625000X0*%
%ADD14RoundRect,0.250000X0.650000X-0.325000X0.650000X0.325000X-0.650000X0.325000X-0.650000X-0.325000X0*%
%ADD15RoundRect,0.225000X0.375000X-0.225000X0.375000X0.225000X-0.375000X0.225000X-0.375000X-0.225000X0*%
%ADD16RoundRect,0.225000X0.250000X-0.225000X0.250000X0.225000X-0.250000X0.225000X-0.250000X-0.225000X0*%
%ADD17RoundRect,0.150000X-0.587500X-0.150000X0.587500X-0.150000X0.587500X0.150000X-0.587500X0.150000X0*%
%ADD18RoundRect,0.150000X-0.150000X0.662500X-0.150000X-0.662500X0.150000X-0.662500X0.150000X0.662500X0*%
%ADD19RoundRect,0.150000X-0.512500X-0.150000X0.512500X-0.150000X0.512500X0.150000X-0.512500X0.150000X0*%
%ADD20RoundRect,0.250000X-0.300000X-1.600000X0.300000X-1.600000X0.300000X1.600000X-0.300000X1.600000X0*%
%ADD21RoundRect,0.150000X-0.825000X-0.150000X0.825000X-0.150000X0.825000X0.150000X-0.825000X0.150000X0*%
%ADD22RoundRect,0.250000X-1.000000X-0.650000X1.000000X-0.650000X1.000000X0.650000X-1.000000X0.650000X0*%
%ADD23RoundRect,0.250000X-1.000000X-0.900000X1.000000X-0.900000X1.000000X0.900000X-1.000000X0.900000X0*%
%ADD24RoundRect,0.250000X0.650000X-1.000000X0.650000X1.000000X-0.650000X1.000000X-0.650000X-1.000000X0*%
%ADD25RoundRect,0.250000X0.325000X0.650000X-0.325000X0.650000X-0.325000X-0.650000X0.325000X-0.650000X0*%
G04 APERTURE END LIST*
D10*
%TO.C,RA4*%
X136000000Y-144225000D03*
X136000000Y-142575000D03*
%TD*%
D11*
%TO.C,C9*%
X125225000Y-142700000D03*
X126775000Y-142700000D03*
%TD*%
D12*
%TO.C,RK1*%
X162175000Y-138800000D03*
X163825000Y-138800000D03*
%TD*%
D10*
%TO.C,RL3*%
X132200000Y-124425000D03*
X132200000Y-122775000D03*
%TD*%
%TO.C,RF3*%
X133200000Y-137025000D03*
X133200000Y-135375000D03*
%TD*%
%TO.C,RD4*%
X136200000Y-140225000D03*
X136200000Y-138575000D03*
%TD*%
%TO.C,RA3*%
X131000000Y-144225000D03*
X131000000Y-142575000D03*
%TD*%
D13*
%TO.C,F1*%
X146200000Y-141900000D03*
X149000000Y-141900000D03*
%TD*%
D14*
%TO.C,C2*%
X158000000Y-138275000D03*
X158000000Y-135325000D03*
%TD*%
D15*
%TO.C,DZ2*%
X108700000Y-145050000D03*
X108700000Y-141750000D03*
%TD*%
D16*
%TO.C,CF4*%
X138200000Y-140175000D03*
X138200000Y-138625000D03*
%TD*%
D17*
%TO.C,Q1*%
X162062500Y-141050000D03*
X162062500Y-142950000D03*
X163937500Y-142000000D03*
%TD*%
D18*
%TO.C,OK1*%
X103635000Y-127112500D03*
X102365000Y-127112500D03*
X102365000Y-133487500D03*
X103635000Y-133487500D03*
%TD*%
D12*
%TO.C,RK2*%
X168175000Y-138800000D03*
X169825000Y-138800000D03*
%TD*%
D16*
%TO.C,CF1*%
X104000000Y-140175000D03*
X104000000Y-138625000D03*
%TD*%
D14*
%TO.C,C1*%
X155400000Y-138275000D03*
X155400000Y-135325000D03*
%TD*%
D19*
%TO.C,U1*%
X109862500Y-108050000D03*
X109862500Y-109000000D03*
X109862500Y-109950000D03*
X112137500Y-109950000D03*
X112137500Y-109000000D03*
X112137500Y-108050000D03*
%TD*%
D10*
%TO.C,RE3*%
X131200000Y-137025000D03*
X131200000Y-135375000D03*
%TD*%
D11*
%TO.C,C10*%
X156225000Y-116400000D03*
X157775000Y-116400000D03*
%TD*%
D10*
%TO.C,RA1*%
X101800000Y-144225000D03*
X101800000Y-142575000D03*
%TD*%
D20*
%TO.C,L1*%
X109500000Y-104000000D03*
X112500000Y-104000000D03*
%TD*%
D10*
%TO.C,RA2*%
X106600000Y-144225000D03*
X106600000Y-142575000D03*
%TD*%
D21*
%TO.C,U3*%
X111625000Y-136095000D03*
X111625000Y-137365000D03*
X111625000Y-138635000D03*
X111625000Y-139905000D03*
X116575000Y-139905000D03*
X116575000Y-138635000D03*
X116575000Y-137365000D03*
X116575000Y-136095000D03*
%TD*%
D12*
%TO.C,RB2*%
X108775000Y-112400000D03*
X110425000Y-112400000D03*
%TD*%
D15*
%TO.C,DZ4*%
X138100000Y-145050000D03*
X138100000Y-141750000D03*
%TD*%
%TO.C,DZ1*%
X103900000Y-145050000D03*
X103900000Y-141750000D03*
%TD*%
D22*
%TO.C,D1*%
X151600000Y-141300000D03*
X155600000Y-141300000D03*
%TD*%
D10*
%TO.C,RL2*%
X107800000Y-124425000D03*
X107800000Y-122775000D03*
%TD*%
%TO.C,RD1*%
X102000000Y-140225000D03*
X102000000Y-138575000D03*
%TD*%
D12*
%TO.C,RB1*%
X104175000Y-112500000D03*
X105825000Y-112500000D03*
%TD*%
D16*
%TO.C,CF3*%
X133200000Y-140175000D03*
X133200000Y-138625000D03*
%TD*%
D18*
%TO.C,OK3*%
X132835000Y-127112500D03*
X131565000Y-127112500D03*
X131565000Y-133487500D03*
X132835000Y-133487500D03*
%TD*%
D10*
%TO.C,RD2*%
X106800000Y-140225000D03*
X106800000Y-138575000D03*
%TD*%
%TO.C,RF1*%
X104000000Y-137025000D03*
X104000000Y-135375000D03*
%TD*%
D11*
%TO.C,C8*%
X113325000Y-142700000D03*
X114875000Y-142700000D03*
%TD*%
D16*
%TO.C,C3*%
X107800000Y-108575000D03*
X107800000Y-107025000D03*
%TD*%
D15*
%TO.C,DZ3*%
X133100000Y-145050000D03*
X133100000Y-141750000D03*
%TD*%
D14*
%TO.C,C6*%
X127000000Y-126075000D03*
X127000000Y-123125000D03*
%TD*%
D18*
%TO.C,OK2*%
X108435000Y-127112500D03*
X107165000Y-127112500D03*
X107165000Y-133487500D03*
X108435000Y-133487500D03*
%TD*%
D23*
%TO.C,D2*%
X147050000Y-136600000D03*
X151350000Y-136600000D03*
%TD*%
D10*
%TO.C,RE4*%
X136200000Y-137025000D03*
X136200000Y-135375000D03*
%TD*%
%TO.C,RD3*%
X131200000Y-140225000D03*
X131200000Y-138575000D03*
%TD*%
D21*
%TO.C,U4*%
X123525000Y-136095000D03*
X123525000Y-137365000D03*
X123525000Y-138635000D03*
X123525000Y-139905000D03*
X128475000Y-139905000D03*
X128475000Y-138635000D03*
X128475000Y-137365000D03*
X128475000Y-136095000D03*
%TD*%
D22*
%TO.C,D5*%
X168500000Y-134800000D03*
X172500000Y-134800000D03*
%TD*%
D10*
%TO.C,RE2*%
X106800000Y-137025000D03*
X106800000Y-135375000D03*
%TD*%
D24*
%TO.C,D3*%
X115200000Y-107000000D03*
X115200000Y-103000000D03*
%TD*%
D21*
%TO.C,U5*%
X154525000Y-110095000D03*
X154525000Y-111365000D03*
X154525000Y-112635000D03*
X154525000Y-113905000D03*
X159475000Y-113905000D03*
X159475000Y-112635000D03*
X159475000Y-111365000D03*
X159475000Y-110095000D03*
%TD*%
D10*
%TO.C,RE1*%
X102000000Y-137025000D03*
X102000000Y-135375000D03*
%TD*%
D18*
%TO.C,OK4*%
X137835000Y-127112500D03*
X136565000Y-127112500D03*
X136565000Y-133487500D03*
X137835000Y-133487500D03*
%TD*%
D22*
%TO.C,D4*%
X161500000Y-134800000D03*
X165500000Y-134800000D03*
%TD*%
D14*
%TO.C,C4*%
X115200000Y-112475000D03*
X115200000Y-109525000D03*
%TD*%
D16*
%TO.C,CF2*%
X108800000Y-140175000D03*
X108800000Y-138625000D03*
%TD*%
D10*
%TO.C,RF2*%
X108800000Y-137025000D03*
X108800000Y-135375000D03*
%TD*%
%TO.C,RF4*%
X138200000Y-137025000D03*
X138200000Y-135375000D03*
%TD*%
D25*
%TO.C,C5*%
X106075000Y-110400000D03*
X103125000Y-110400000D03*
%TD*%
D10*
%TO.C,RL4*%
X137200000Y-124425000D03*
X137200000Y-122775000D03*
%TD*%
D17*
%TO.C,Q2*%
X168062500Y-141050000D03*
X168062500Y-142950000D03*
X169937500Y-142000000D03*
%TD*%
D10*
%TO.C,RL1*%
X103000000Y-124425000D03*
X103000000Y-122775000D03*
%TD*%
D14*
%TO.C,C7*%
X120000000Y-138875000D03*
X120000000Y-135925000D03*
%TD*%
M02*
