%TF.GenerationSoftware,KiCad,Pcbnew,9.0.9*%
%TF.CreationDate,2026-10-01T07:35:30+00:00*%
%TF.ProjectId,AP1_Programador,4150315f-5072-46f6-9772-616d61646f72,rev?*%
%TF.SameCoordinates,Original*%
%TF.FileFunction,Legend,Top*%
%TF.FilePolarity,Positive*%
%FSLAX46Y46*%
G04 Gerber Fmt 4.6, Leading zero omitted, Abs format (unit mm)*
G04 Created by KiCad (PCBNEW 9.0.9) date 2026-10-01 07:35:30*
%MOMM*%
%LPD*%
G01*
G04 APERTURE LIST*
G04 Aperture macros list*
%AMRoundRect*
0 Rectangle with rounded corners*
0 $1 Rounding radius*
0 $2 $3 $4 $5 $6 $7 $8 $9 X,Y pos of 4 corners*
0 Add a 4 corners polygon primitive as box body*
4,1,4,$2,$3,$4,$5,$6,$7,$8,$9,$2,$3,0*
0 Add four circle primitives for the rounded corners*
1,1,$1+$1,$2,$3*
1,1,$1+$1,$4,$5*
1,1,$1+$1,$6,$7*
1,1,$1+$1,$8,$9*
0 Add four rect primitives between the rounded corners*
20,1,$1+$1,$2,$3,$4,$5,0*
20,1,$1+$1,$4,$5,$6,$7,0*
20,1,$1+$1,$6,$7,$8,$9,0*
20,1,$1+$1,$8,$9,$2,$3,0*%
G04 Aperture macros list end*
%ADD10C,0.090000*%
%ADD11C,0.105000*%
%ADD12C,0.120000*%
%ADD13C,0.150000*%
%ADD14RoundRect,0.200000X-0.200000X-0.275000X0.200000X-0.275000X0.200000X0.275000X-0.200000X0.275000X0*%
%ADD15RoundRect,0.250200X-0.649800X-0.649800X0.649800X-0.649800X0.649800X0.649800X-0.649800X0.649800X0*%
%ADD16C,1.800000*%
%ADD17RoundRect,0.150000X0.150000X0.625000X-0.150000X0.625000X-0.150000X-0.625000X0.150000X-0.625000X0*%
%ADD18RoundRect,0.250000X0.350000X0.650000X-0.350000X0.650000X-0.350000X-0.650000X0.350000X-0.650000X0*%
%ADD19RoundRect,0.250000X0.650000X-0.325000X0.650000X0.325000X-0.650000X0.325000X-0.650000X-0.325000X0*%
%ADD20RoundRect,0.200000X0.275000X-0.200000X0.275000X0.200000X-0.275000X0.200000X-0.275000X-0.200000X0*%
%ADD21RoundRect,0.225000X-0.225000X-0.250000X0.225000X-0.250000X0.225000X0.250000X-0.225000X0.250000X0*%
%ADD22R,1.700000X1.000000*%
%ADD23RoundRect,0.250000X-0.300000X-1.600000X0.300000X-1.600000X0.300000X1.600000X-0.300000X1.600000X0*%
%ADD24RoundRect,0.250000X-0.250000X-0.475000X0.250000X-0.475000X0.250000X0.475000X-0.250000X0.475000X0*%
%ADD25C,0.650000*%
%ADD26R,0.600000X1.450000*%
%ADD27R,0.300000X1.450000*%
%ADD28O,1.000000X2.100000*%
%ADD29O,1.000000X1.600000*%
%ADD30RoundRect,0.150000X-0.512500X-0.150000X0.512500X-0.150000X0.512500X0.150000X-0.512500X0.150000X0*%
%ADD31RoundRect,0.225000X-0.225000X-0.375000X0.225000X-0.375000X0.225000X0.375000X-0.225000X0.375000X0*%
%ADD32C,1.500000*%
%ADD33R,0.900000X1.500000*%
%ADD34C,0.600000*%
%ADD35R,2.900000X2.900000*%
%ADD36C,3.200000*%
%ADD37R,1.700000X1.700000*%
%ADD38C,1.700000*%
%ADD39RoundRect,0.218750X-0.218750X-0.256250X0.218750X-0.256250X0.218750X0.256250X-0.218750X0.256250X0*%
G04 APERTURE END LIST*
D10*
X126742857Y-130572891D02*
X127114285Y-130572891D01*
X127114285Y-130572891D02*
X126914285Y-130801462D01*
X126914285Y-130801462D02*
X127000000Y-130801462D01*
X127000000Y-130801462D02*
X127057143Y-130830034D01*
X127057143Y-130830034D02*
X127085714Y-130858605D01*
X127085714Y-130858605D02*
X127114285Y-130915748D01*
X127114285Y-130915748D02*
X127114285Y-131058605D01*
X127114285Y-131058605D02*
X127085714Y-131115748D01*
X127085714Y-131115748D02*
X127057143Y-131144320D01*
X127057143Y-131144320D02*
X127000000Y-131172891D01*
X127000000Y-131172891D02*
X126828571Y-131172891D01*
X126828571Y-131172891D02*
X126771428Y-131144320D01*
X126771428Y-131144320D02*
X126742857Y-131115748D01*
X127285714Y-130572891D02*
X127485714Y-131172891D01*
X127485714Y-131172891D02*
X127685714Y-130572891D01*
X127828572Y-130572891D02*
X128200000Y-130572891D01*
X128200000Y-130572891D02*
X128000000Y-130801462D01*
X128000000Y-130801462D02*
X128085715Y-130801462D01*
X128085715Y-130801462D02*
X128142858Y-130830034D01*
X128142858Y-130830034D02*
X128171429Y-130858605D01*
X128171429Y-130858605D02*
X128200000Y-130915748D01*
X128200000Y-130915748D02*
X128200000Y-131058605D01*
X128200000Y-131058605D02*
X128171429Y-131115748D01*
X128171429Y-131115748D02*
X128142858Y-131144320D01*
X128142858Y-131144320D02*
X128085715Y-131172891D01*
X128085715Y-131172891D02*
X127914286Y-131172891D01*
X127914286Y-131172891D02*
X127857143Y-131144320D01*
X127857143Y-131144320D02*
X127828572Y-131115748D01*
X129228572Y-130601462D02*
X129171430Y-130572891D01*
X129171430Y-130572891D02*
X129085715Y-130572891D01*
X129085715Y-130572891D02*
X129000001Y-130601462D01*
X129000001Y-130601462D02*
X128942858Y-130658605D01*
X128942858Y-130658605D02*
X128914287Y-130715748D01*
X128914287Y-130715748D02*
X128885715Y-130830034D01*
X128885715Y-130830034D02*
X128885715Y-130915748D01*
X128885715Y-130915748D02*
X128914287Y-131030034D01*
X128914287Y-131030034D02*
X128942858Y-131087177D01*
X128942858Y-131087177D02*
X129000001Y-131144320D01*
X129000001Y-131144320D02*
X129085715Y-131172891D01*
X129085715Y-131172891D02*
X129142858Y-131172891D01*
X129142858Y-131172891D02*
X129228572Y-131144320D01*
X129228572Y-131144320D02*
X129257144Y-131115748D01*
X129257144Y-131115748D02*
X129257144Y-130915748D01*
X129257144Y-130915748D02*
X129142858Y-130915748D01*
X129514287Y-131172891D02*
X129514287Y-130572891D01*
X129514287Y-130572891D02*
X129857144Y-131172891D01*
X129857144Y-131172891D02*
X129857144Y-130572891D01*
X130142858Y-131172891D02*
X130142858Y-130572891D01*
X130142858Y-130572891D02*
X130285715Y-130572891D01*
X130285715Y-130572891D02*
X130371429Y-130601462D01*
X130371429Y-130601462D02*
X130428572Y-130658605D01*
X130428572Y-130658605D02*
X130457143Y-130715748D01*
X130457143Y-130715748D02*
X130485715Y-130830034D01*
X130485715Y-130830034D02*
X130485715Y-130915748D01*
X130485715Y-130915748D02*
X130457143Y-131030034D01*
X130457143Y-131030034D02*
X130428572Y-131087177D01*
X130428572Y-131087177D02*
X130371429Y-131144320D01*
X130371429Y-131144320D02*
X130285715Y-131172891D01*
X130285715Y-131172891D02*
X130142858Y-131172891D01*
X131200001Y-131172891D02*
X131200001Y-130572891D01*
X131828572Y-131172891D02*
X131628572Y-130887177D01*
X131485715Y-131172891D02*
X131485715Y-130572891D01*
X131485715Y-130572891D02*
X131714286Y-130572891D01*
X131714286Y-130572891D02*
X131771429Y-130601462D01*
X131771429Y-130601462D02*
X131800000Y-130630034D01*
X131800000Y-130630034D02*
X131828572Y-130687177D01*
X131828572Y-130687177D02*
X131828572Y-130772891D01*
X131828572Y-130772891D02*
X131800000Y-130830034D01*
X131800000Y-130830034D02*
X131771429Y-130858605D01*
X131771429Y-130858605D02*
X131714286Y-130887177D01*
X131714286Y-130887177D02*
X131485715Y-130887177D01*
X132542858Y-131172891D02*
X132542858Y-130572891D01*
X132542858Y-130572891D02*
X132742858Y-131001462D01*
X132742858Y-131001462D02*
X132942858Y-130572891D01*
X132942858Y-130572891D02*
X132942858Y-131172891D01*
X133342857Y-130572891D02*
X133457143Y-130572891D01*
X133457143Y-130572891D02*
X133514286Y-130601462D01*
X133514286Y-130601462D02*
X133571429Y-130658605D01*
X133571429Y-130658605D02*
X133600000Y-130772891D01*
X133600000Y-130772891D02*
X133600000Y-130972891D01*
X133600000Y-130972891D02*
X133571429Y-131087177D01*
X133571429Y-131087177D02*
X133514286Y-131144320D01*
X133514286Y-131144320D02*
X133457143Y-131172891D01*
X133457143Y-131172891D02*
X133342857Y-131172891D01*
X133342857Y-131172891D02*
X133285715Y-131144320D01*
X133285715Y-131144320D02*
X133228572Y-131087177D01*
X133228572Y-131087177D02*
X133200000Y-130972891D01*
X133200000Y-130972891D02*
X133200000Y-130772891D01*
X133200000Y-130772891D02*
X133228572Y-130658605D01*
X133228572Y-130658605D02*
X133285715Y-130601462D01*
X133285715Y-130601462D02*
X133342857Y-130572891D01*
X133857143Y-131172891D02*
X133857143Y-130572891D01*
X133857143Y-130572891D02*
X134000000Y-130572891D01*
X134000000Y-130572891D02*
X134085714Y-130601462D01*
X134085714Y-130601462D02*
X134142857Y-130658605D01*
X134142857Y-130658605D02*
X134171428Y-130715748D01*
X134171428Y-130715748D02*
X134200000Y-130830034D01*
X134200000Y-130830034D02*
X134200000Y-130915748D01*
X134200000Y-130915748D02*
X134171428Y-131030034D01*
X134171428Y-131030034D02*
X134142857Y-131087177D01*
X134142857Y-131087177D02*
X134085714Y-131144320D01*
X134085714Y-131144320D02*
X134000000Y-131172891D01*
X134000000Y-131172891D02*
X133857143Y-131172891D01*
X134571428Y-130572891D02*
X134685714Y-130572891D01*
X134685714Y-130572891D02*
X134742857Y-130601462D01*
X134742857Y-130601462D02*
X134800000Y-130658605D01*
X134800000Y-130658605D02*
X134828571Y-130772891D01*
X134828571Y-130772891D02*
X134828571Y-130972891D01*
X134828571Y-130972891D02*
X134800000Y-131087177D01*
X134800000Y-131087177D02*
X134742857Y-131144320D01*
X134742857Y-131144320D02*
X134685714Y-131172891D01*
X134685714Y-131172891D02*
X134571428Y-131172891D01*
X134571428Y-131172891D02*
X134514286Y-131144320D01*
X134514286Y-131144320D02*
X134457143Y-131087177D01*
X134457143Y-131087177D02*
X134428571Y-130972891D01*
X134428571Y-130972891D02*
X134428571Y-130772891D01*
X134428571Y-130772891D02*
X134457143Y-130658605D01*
X134457143Y-130658605D02*
X134514286Y-130601462D01*
X134514286Y-130601462D02*
X134571428Y-130572891D01*
D11*
X129533333Y-140951706D02*
X129299999Y-140951706D01*
X129299999Y-141318373D02*
X129299999Y-140618373D01*
X129299999Y-140618373D02*
X129633333Y-140618373D01*
X129866666Y-141118373D02*
X130199999Y-141118373D01*
X129799999Y-141318373D02*
X130033333Y-140618373D01*
X130033333Y-140618373D02*
X130266666Y-141318373D01*
X130833333Y-141318373D02*
X130499999Y-141318373D01*
X130499999Y-141318373D02*
X130499999Y-140618373D01*
X131400000Y-141318373D02*
X131066666Y-141318373D01*
X131066666Y-141318373D02*
X131066666Y-140618373D01*
X131600000Y-141118373D02*
X131933333Y-141118373D01*
X131533333Y-141318373D02*
X131766667Y-140618373D01*
X131766667Y-140618373D02*
X132000000Y-141318373D01*
X141083334Y-140618373D02*
X141216667Y-140618373D01*
X141216667Y-140618373D02*
X141283334Y-140651706D01*
X141283334Y-140651706D02*
X141350000Y-140718373D01*
X141350000Y-140718373D02*
X141383334Y-140851706D01*
X141383334Y-140851706D02*
X141383334Y-141085040D01*
X141383334Y-141085040D02*
X141350000Y-141218373D01*
X141350000Y-141218373D02*
X141283334Y-141285040D01*
X141283334Y-141285040D02*
X141216667Y-141318373D01*
X141216667Y-141318373D02*
X141083334Y-141318373D01*
X141083334Y-141318373D02*
X141016667Y-141285040D01*
X141016667Y-141285040D02*
X140950000Y-141218373D01*
X140950000Y-141218373D02*
X140916667Y-141085040D01*
X140916667Y-141085040D02*
X140916667Y-140851706D01*
X140916667Y-140851706D02*
X140950000Y-140718373D01*
X140950000Y-140718373D02*
X141016667Y-140651706D01*
X141016667Y-140651706D02*
X141083334Y-140618373D01*
X141683333Y-141318373D02*
X141683333Y-140618373D01*
X142083333Y-141318373D02*
X141783333Y-140918373D01*
X142083333Y-140618373D02*
X141683333Y-141018373D01*
D12*
X117995238Y-121563855D02*
X117995238Y-120763855D01*
X117995238Y-120763855D02*
X118261904Y-121335283D01*
X118261904Y-121335283D02*
X118528571Y-120763855D01*
X118528571Y-120763855D02*
X118528571Y-121563855D01*
X119061905Y-120763855D02*
X119214286Y-120763855D01*
X119214286Y-120763855D02*
X119290476Y-120801950D01*
X119290476Y-120801950D02*
X119366667Y-120878140D01*
X119366667Y-120878140D02*
X119404762Y-121030521D01*
X119404762Y-121030521D02*
X119404762Y-121297188D01*
X119404762Y-121297188D02*
X119366667Y-121449569D01*
X119366667Y-121449569D02*
X119290476Y-121525760D01*
X119290476Y-121525760D02*
X119214286Y-121563855D01*
X119214286Y-121563855D02*
X119061905Y-121563855D01*
X119061905Y-121563855D02*
X118985714Y-121525760D01*
X118985714Y-121525760D02*
X118909524Y-121449569D01*
X118909524Y-121449569D02*
X118871428Y-121297188D01*
X118871428Y-121297188D02*
X118871428Y-121030521D01*
X118871428Y-121030521D02*
X118909524Y-120878140D01*
X118909524Y-120878140D02*
X118985714Y-120801950D01*
X118985714Y-120801950D02*
X119061905Y-120763855D01*
X119747619Y-121563855D02*
X119747619Y-120763855D01*
X119747619Y-120763855D02*
X119938095Y-120763855D01*
X119938095Y-120763855D02*
X120052381Y-120801950D01*
X120052381Y-120801950D02*
X120128571Y-120878140D01*
X120128571Y-120878140D02*
X120166666Y-120954331D01*
X120166666Y-120954331D02*
X120204762Y-121106712D01*
X120204762Y-121106712D02*
X120204762Y-121220998D01*
X120204762Y-121220998D02*
X120166666Y-121373379D01*
X120166666Y-121373379D02*
X120128571Y-121449569D01*
X120128571Y-121449569D02*
X120052381Y-121525760D01*
X120052381Y-121525760D02*
X119938095Y-121563855D01*
X119938095Y-121563855D02*
X119747619Y-121563855D01*
X120700000Y-120763855D02*
X120852381Y-120763855D01*
X120852381Y-120763855D02*
X120928571Y-120801950D01*
X120928571Y-120801950D02*
X121004762Y-120878140D01*
X121004762Y-120878140D02*
X121042857Y-121030521D01*
X121042857Y-121030521D02*
X121042857Y-121297188D01*
X121042857Y-121297188D02*
X121004762Y-121449569D01*
X121004762Y-121449569D02*
X120928571Y-121525760D01*
X120928571Y-121525760D02*
X120852381Y-121563855D01*
X120852381Y-121563855D02*
X120700000Y-121563855D01*
X120700000Y-121563855D02*
X120623809Y-121525760D01*
X120623809Y-121525760D02*
X120547619Y-121449569D01*
X120547619Y-121449569D02*
X120509523Y-121297188D01*
X120509523Y-121297188D02*
X120509523Y-121030521D01*
X120509523Y-121030521D02*
X120547619Y-120878140D01*
X120547619Y-120878140D02*
X120623809Y-120801950D01*
X120623809Y-120801950D02*
X120700000Y-120763855D01*
X118338095Y-128363855D02*
X118071428Y-127982902D01*
X117880952Y-128363855D02*
X117880952Y-127563855D01*
X117880952Y-127563855D02*
X118185714Y-127563855D01*
X118185714Y-127563855D02*
X118261904Y-127601950D01*
X118261904Y-127601950D02*
X118299999Y-127640045D01*
X118299999Y-127640045D02*
X118338095Y-127716236D01*
X118338095Y-127716236D02*
X118338095Y-127830521D01*
X118338095Y-127830521D02*
X118299999Y-127906712D01*
X118299999Y-127906712D02*
X118261904Y-127944807D01*
X118261904Y-127944807D02*
X118185714Y-127982902D01*
X118185714Y-127982902D02*
X117880952Y-127982902D01*
X118680952Y-127944807D02*
X118947618Y-127944807D01*
X119061904Y-128363855D02*
X118680952Y-128363855D01*
X118680952Y-128363855D02*
X118680952Y-127563855D01*
X118680952Y-127563855D02*
X119061904Y-127563855D01*
X119366666Y-128325760D02*
X119480952Y-128363855D01*
X119480952Y-128363855D02*
X119671428Y-128363855D01*
X119671428Y-128363855D02*
X119747619Y-128325760D01*
X119747619Y-128325760D02*
X119785714Y-128287664D01*
X119785714Y-128287664D02*
X119823809Y-128211474D01*
X119823809Y-128211474D02*
X119823809Y-128135283D01*
X119823809Y-128135283D02*
X119785714Y-128059093D01*
X119785714Y-128059093D02*
X119747619Y-128020998D01*
X119747619Y-128020998D02*
X119671428Y-127982902D01*
X119671428Y-127982902D02*
X119519047Y-127944807D01*
X119519047Y-127944807D02*
X119442857Y-127906712D01*
X119442857Y-127906712D02*
X119404762Y-127868617D01*
X119404762Y-127868617D02*
X119366666Y-127792426D01*
X119366666Y-127792426D02*
X119366666Y-127716236D01*
X119366666Y-127716236D02*
X119404762Y-127640045D01*
X119404762Y-127640045D02*
X119442857Y-127601950D01*
X119442857Y-127601950D02*
X119519047Y-127563855D01*
X119519047Y-127563855D02*
X119709524Y-127563855D01*
X119709524Y-127563855D02*
X119823809Y-127601950D01*
X120166667Y-127944807D02*
X120433333Y-127944807D01*
X120547619Y-128363855D02*
X120166667Y-128363855D01*
X120166667Y-128363855D02*
X120166667Y-127563855D01*
X120166667Y-127563855D02*
X120547619Y-127563855D01*
X120776191Y-127563855D02*
X121233334Y-127563855D01*
X121004762Y-128363855D02*
X121004762Y-127563855D01*
D13*
X105380951Y-141454819D02*
X104904761Y-141454819D01*
X104904761Y-141454819D02*
X104904761Y-140454819D01*
X106095237Y-141407200D02*
X105999999Y-141454819D01*
X105999999Y-141454819D02*
X105809523Y-141454819D01*
X105809523Y-141454819D02*
X105714285Y-141407200D01*
X105714285Y-141407200D02*
X105666666Y-141311961D01*
X105666666Y-141311961D02*
X105666666Y-140931009D01*
X105666666Y-140931009D02*
X105714285Y-140835771D01*
X105714285Y-140835771D02*
X105809523Y-140788152D01*
X105809523Y-140788152D02*
X105999999Y-140788152D01*
X105999999Y-140788152D02*
X106095237Y-140835771D01*
X106095237Y-140835771D02*
X106142856Y-140931009D01*
X106142856Y-140931009D02*
X106142856Y-141026247D01*
X106142856Y-141026247D02*
X105666666Y-141121485D01*
X106428571Y-140788152D02*
X106809523Y-140788152D01*
X106571428Y-140454819D02*
X106571428Y-141311961D01*
X106571428Y-141311961D02*
X106619047Y-141407200D01*
X106619047Y-141407200D02*
X106714285Y-141454819D01*
X106714285Y-141454819D02*
X106809523Y-141454819D01*
X107142857Y-141454819D02*
X107142857Y-140788152D01*
X107142857Y-140978628D02*
X107190476Y-140883390D01*
X107190476Y-140883390D02*
X107238095Y-140835771D01*
X107238095Y-140835771D02*
X107333333Y-140788152D01*
X107333333Y-140788152D02*
X107428571Y-140788152D01*
X108142857Y-141407200D02*
X108047619Y-141454819D01*
X108047619Y-141454819D02*
X107857143Y-141454819D01*
X107857143Y-141454819D02*
X107761905Y-141407200D01*
X107761905Y-141407200D02*
X107714286Y-141311961D01*
X107714286Y-141311961D02*
X107714286Y-140931009D01*
X107714286Y-140931009D02*
X107761905Y-140835771D01*
X107761905Y-140835771D02*
X107857143Y-140788152D01*
X107857143Y-140788152D02*
X108047619Y-140788152D01*
X108047619Y-140788152D02*
X108142857Y-140835771D01*
X108142857Y-140835771D02*
X108190476Y-140931009D01*
X108190476Y-140931009D02*
X108190476Y-141026247D01*
X108190476Y-141026247D02*
X107714286Y-141121485D01*
X108619048Y-141454819D02*
X108619048Y-140788152D01*
X108619048Y-140978628D02*
X108666667Y-140883390D01*
X108666667Y-140883390D02*
X108714286Y-140835771D01*
X108714286Y-140835771D02*
X108809524Y-140788152D01*
X108809524Y-140788152D02*
X108904762Y-140788152D01*
X109380953Y-141454819D02*
X109285715Y-141407200D01*
X109285715Y-141407200D02*
X109238096Y-141359580D01*
X109238096Y-141359580D02*
X109190477Y-141264342D01*
X109190477Y-141264342D02*
X109190477Y-140978628D01*
X109190477Y-140978628D02*
X109238096Y-140883390D01*
X109238096Y-140883390D02*
X109285715Y-140835771D01*
X109285715Y-140835771D02*
X109380953Y-140788152D01*
X109380953Y-140788152D02*
X109523810Y-140788152D01*
X109523810Y-140788152D02*
X109619048Y-140835771D01*
X109619048Y-140835771D02*
X109666667Y-140883390D01*
X109666667Y-140883390D02*
X109714286Y-140978628D01*
X109714286Y-140978628D02*
X109714286Y-141264342D01*
X109714286Y-141264342D02*
X109666667Y-141359580D01*
X109666667Y-141359580D02*
X109619048Y-141407200D01*
X109619048Y-141407200D02*
X109523810Y-141454819D01*
X109523810Y-141454819D02*
X109380953Y-141454819D01*
X110619048Y-141454819D02*
X110142858Y-141454819D01*
X110142858Y-141454819D02*
X110142858Y-140454819D01*
X111380953Y-141454819D02*
X111380953Y-140931009D01*
X111380953Y-140931009D02*
X111333334Y-140835771D01*
X111333334Y-140835771D02*
X111238096Y-140788152D01*
X111238096Y-140788152D02*
X111047620Y-140788152D01*
X111047620Y-140788152D02*
X110952382Y-140835771D01*
X111380953Y-141407200D02*
X111285715Y-141454819D01*
X111285715Y-141454819D02*
X111047620Y-141454819D01*
X111047620Y-141454819D02*
X110952382Y-141407200D01*
X110952382Y-141407200D02*
X110904763Y-141311961D01*
X110904763Y-141311961D02*
X110904763Y-141216723D01*
X110904763Y-141216723D02*
X110952382Y-141121485D01*
X110952382Y-141121485D02*
X111047620Y-141073866D01*
X111047620Y-141073866D02*
X111285715Y-141073866D01*
X111285715Y-141073866D02*
X111380953Y-141026247D01*
X111857144Y-141454819D02*
X111857144Y-140454819D01*
X111857144Y-140835771D02*
X111952382Y-140788152D01*
X111952382Y-140788152D02*
X112142858Y-140788152D01*
X112142858Y-140788152D02*
X112238096Y-140835771D01*
X112238096Y-140835771D02*
X112285715Y-140883390D01*
X112285715Y-140883390D02*
X112333334Y-140978628D01*
X112333334Y-140978628D02*
X112333334Y-141264342D01*
X112333334Y-141264342D02*
X112285715Y-141359580D01*
X112285715Y-141359580D02*
X112238096Y-141407200D01*
X112238096Y-141407200D02*
X112142858Y-141454819D01*
X112142858Y-141454819D02*
X111952382Y-141454819D01*
X111952382Y-141454819D02*
X111857144Y-141407200D01*
X113476192Y-141169104D02*
X113952382Y-141169104D01*
X113380954Y-141454819D02*
X113714287Y-140454819D01*
X113714287Y-140454819D02*
X114047620Y-141454819D01*
X114380954Y-141454819D02*
X114380954Y-140454819D01*
X114380954Y-140454819D02*
X114761906Y-140454819D01*
X114761906Y-140454819D02*
X114857144Y-140502438D01*
X114857144Y-140502438D02*
X114904763Y-140550057D01*
X114904763Y-140550057D02*
X114952382Y-140645295D01*
X114952382Y-140645295D02*
X114952382Y-140788152D01*
X114952382Y-140788152D02*
X114904763Y-140883390D01*
X114904763Y-140883390D02*
X114857144Y-140931009D01*
X114857144Y-140931009D02*
X114761906Y-140978628D01*
X114761906Y-140978628D02*
X114380954Y-140978628D01*
X115380954Y-141073866D02*
X116142859Y-141073866D01*
X117142858Y-141454819D02*
X116571430Y-141454819D01*
X116857144Y-141454819D02*
X116857144Y-140454819D01*
X116857144Y-140454819D02*
X116761906Y-140597676D01*
X116761906Y-140597676D02*
X116666668Y-140692914D01*
X116666668Y-140692914D02*
X116571430Y-140740533D01*
X103357142Y-110024819D02*
X103023809Y-109548628D01*
X102785714Y-110024819D02*
X102785714Y-109024819D01*
X102785714Y-109024819D02*
X103166666Y-109024819D01*
X103166666Y-109024819D02*
X103261904Y-109072438D01*
X103261904Y-109072438D02*
X103309523Y-109120057D01*
X103309523Y-109120057D02*
X103357142Y-109215295D01*
X103357142Y-109215295D02*
X103357142Y-109358152D01*
X103357142Y-109358152D02*
X103309523Y-109453390D01*
X103309523Y-109453390D02*
X103261904Y-109501009D01*
X103261904Y-109501009D02*
X103166666Y-109548628D01*
X103166666Y-109548628D02*
X102785714Y-109548628D01*
X104309523Y-110024819D02*
X103738095Y-110024819D01*
X104023809Y-110024819D02*
X104023809Y-109024819D01*
X104023809Y-109024819D02*
X103928571Y-109167676D01*
X103928571Y-109167676D02*
X103833333Y-109262914D01*
X103833333Y-109262914D02*
X103738095Y-109310533D01*
X104928571Y-109024819D02*
X105023809Y-109024819D01*
X105023809Y-109024819D02*
X105119047Y-109072438D01*
X105119047Y-109072438D02*
X105166666Y-109120057D01*
X105166666Y-109120057D02*
X105214285Y-109215295D01*
X105214285Y-109215295D02*
X105261904Y-109405771D01*
X105261904Y-109405771D02*
X105261904Y-109643866D01*
X105261904Y-109643866D02*
X105214285Y-109834342D01*
X105214285Y-109834342D02*
X105166666Y-109929580D01*
X105166666Y-109929580D02*
X105119047Y-109977200D01*
X105119047Y-109977200D02*
X105023809Y-110024819D01*
X105023809Y-110024819D02*
X104928571Y-110024819D01*
X104928571Y-110024819D02*
X104833333Y-109977200D01*
X104833333Y-109977200D02*
X104785714Y-109929580D01*
X104785714Y-109929580D02*
X104738095Y-109834342D01*
X104738095Y-109834342D02*
X104690476Y-109643866D01*
X104690476Y-109643866D02*
X104690476Y-109405771D01*
X104690476Y-109405771D02*
X104738095Y-109215295D01*
X104738095Y-109215295D02*
X104785714Y-109120057D01*
X104785714Y-109120057D02*
X104833333Y-109072438D01*
X104833333Y-109072438D02*
X104928571Y-109024819D01*
X141333333Y-136824819D02*
X141000000Y-136348628D01*
X140761905Y-136824819D02*
X140761905Y-135824819D01*
X140761905Y-135824819D02*
X141142857Y-135824819D01*
X141142857Y-135824819D02*
X141238095Y-135872438D01*
X141238095Y-135872438D02*
X141285714Y-135920057D01*
X141285714Y-135920057D02*
X141333333Y-136015295D01*
X141333333Y-136015295D02*
X141333333Y-136158152D01*
X141333333Y-136158152D02*
X141285714Y-136253390D01*
X141285714Y-136253390D02*
X141238095Y-136301009D01*
X141238095Y-136301009D02*
X141142857Y-136348628D01*
X141142857Y-136348628D02*
X140761905Y-136348628D01*
X142190476Y-135824819D02*
X142000000Y-135824819D01*
X142000000Y-135824819D02*
X141904762Y-135872438D01*
X141904762Y-135872438D02*
X141857143Y-135920057D01*
X141857143Y-135920057D02*
X141761905Y-136062914D01*
X141761905Y-136062914D02*
X141714286Y-136253390D01*
X141714286Y-136253390D02*
X141714286Y-136634342D01*
X141714286Y-136634342D02*
X141761905Y-136729580D01*
X141761905Y-136729580D02*
X141809524Y-136777200D01*
X141809524Y-136777200D02*
X141904762Y-136824819D01*
X141904762Y-136824819D02*
X142095238Y-136824819D01*
X142095238Y-136824819D02*
X142190476Y-136777200D01*
X142190476Y-136777200D02*
X142238095Y-136729580D01*
X142238095Y-136729580D02*
X142285714Y-136634342D01*
X142285714Y-136634342D02*
X142285714Y-136396247D01*
X142285714Y-136396247D02*
X142238095Y-136301009D01*
X142238095Y-136301009D02*
X142190476Y-136253390D01*
X142190476Y-136253390D02*
X142095238Y-136205771D01*
X142095238Y-136205771D02*
X141904762Y-136205771D01*
X141904762Y-136205771D02*
X141809524Y-136253390D01*
X141809524Y-136253390D02*
X141761905Y-136301009D01*
X141761905Y-136301009D02*
X141714286Y-136396247D01*
X128238095Y-134854819D02*
X128238095Y-135664342D01*
X128238095Y-135664342D02*
X128285714Y-135759580D01*
X128285714Y-135759580D02*
X128333333Y-135807200D01*
X128333333Y-135807200D02*
X128428571Y-135854819D01*
X128428571Y-135854819D02*
X128619047Y-135854819D01*
X128619047Y-135854819D02*
X128714285Y-135807200D01*
X128714285Y-135807200D02*
X128761904Y-135759580D01*
X128761904Y-135759580D02*
X128809523Y-135664342D01*
X128809523Y-135664342D02*
X128809523Y-134854819D01*
X129714285Y-135188152D02*
X129714285Y-135854819D01*
X129476190Y-134807200D02*
X129238095Y-135521485D01*
X129238095Y-135521485D02*
X129857142Y-135521485D01*
X103357142Y-113624819D02*
X103023809Y-113148628D01*
X102785714Y-113624819D02*
X102785714Y-112624819D01*
X102785714Y-112624819D02*
X103166666Y-112624819D01*
X103166666Y-112624819D02*
X103261904Y-112672438D01*
X103261904Y-112672438D02*
X103309523Y-112720057D01*
X103309523Y-112720057D02*
X103357142Y-112815295D01*
X103357142Y-112815295D02*
X103357142Y-112958152D01*
X103357142Y-112958152D02*
X103309523Y-113053390D01*
X103309523Y-113053390D02*
X103261904Y-113101009D01*
X103261904Y-113101009D02*
X103166666Y-113148628D01*
X103166666Y-113148628D02*
X102785714Y-113148628D01*
X104309523Y-113624819D02*
X103738095Y-113624819D01*
X104023809Y-113624819D02*
X104023809Y-112624819D01*
X104023809Y-112624819D02*
X103928571Y-112767676D01*
X103928571Y-112767676D02*
X103833333Y-112862914D01*
X103833333Y-112862914D02*
X103738095Y-112910533D01*
X104690476Y-112720057D02*
X104738095Y-112672438D01*
X104738095Y-112672438D02*
X104833333Y-112624819D01*
X104833333Y-112624819D02*
X105071428Y-112624819D01*
X105071428Y-112624819D02*
X105166666Y-112672438D01*
X105166666Y-112672438D02*
X105214285Y-112720057D01*
X105214285Y-112720057D02*
X105261904Y-112815295D01*
X105261904Y-112815295D02*
X105261904Y-112910533D01*
X105261904Y-112910533D02*
X105214285Y-113053390D01*
X105214285Y-113053390D02*
X104642857Y-113624819D01*
X104642857Y-113624819D02*
X105261904Y-113624819D01*
X140666666Y-137084819D02*
X140666666Y-137799104D01*
X140666666Y-137799104D02*
X140619047Y-137941961D01*
X140619047Y-137941961D02*
X140523809Y-138037200D01*
X140523809Y-138037200D02*
X140380952Y-138084819D01*
X140380952Y-138084819D02*
X140285714Y-138084819D01*
X141047619Y-137084819D02*
X141666666Y-137084819D01*
X141666666Y-137084819D02*
X141333333Y-137465771D01*
X141333333Y-137465771D02*
X141476190Y-137465771D01*
X141476190Y-137465771D02*
X141571428Y-137513390D01*
X141571428Y-137513390D02*
X141619047Y-137561009D01*
X141619047Y-137561009D02*
X141666666Y-137656247D01*
X141666666Y-137656247D02*
X141666666Y-137894342D01*
X141666666Y-137894342D02*
X141619047Y-137989580D01*
X141619047Y-137989580D02*
X141571428Y-138037200D01*
X141571428Y-138037200D02*
X141476190Y-138084819D01*
X141476190Y-138084819D02*
X141190476Y-138084819D01*
X141190476Y-138084819D02*
X141095238Y-138037200D01*
X141095238Y-138037200D02*
X141047619Y-137989580D01*
X104509580Y-131166666D02*
X104557200Y-131214285D01*
X104557200Y-131214285D02*
X104604819Y-131357142D01*
X104604819Y-131357142D02*
X104604819Y-131452380D01*
X104604819Y-131452380D02*
X104557200Y-131595237D01*
X104557200Y-131595237D02*
X104461961Y-131690475D01*
X104461961Y-131690475D02*
X104366723Y-131738094D01*
X104366723Y-131738094D02*
X104176247Y-131785713D01*
X104176247Y-131785713D02*
X104033390Y-131785713D01*
X104033390Y-131785713D02*
X103842914Y-131738094D01*
X103842914Y-131738094D02*
X103747676Y-131690475D01*
X103747676Y-131690475D02*
X103652438Y-131595237D01*
X103652438Y-131595237D02*
X103604819Y-131452380D01*
X103604819Y-131452380D02*
X103604819Y-131357142D01*
X103604819Y-131357142D02*
X103652438Y-131214285D01*
X103652438Y-131214285D02*
X103700057Y-131166666D01*
X103604819Y-130261904D02*
X103604819Y-130738094D01*
X103604819Y-130738094D02*
X104081009Y-130785713D01*
X104081009Y-130785713D02*
X104033390Y-130738094D01*
X104033390Y-130738094D02*
X103985771Y-130642856D01*
X103985771Y-130642856D02*
X103985771Y-130404761D01*
X103985771Y-130404761D02*
X104033390Y-130309523D01*
X104033390Y-130309523D02*
X104081009Y-130261904D01*
X104081009Y-130261904D02*
X104176247Y-130214285D01*
X104176247Y-130214285D02*
X104414342Y-130214285D01*
X104414342Y-130214285D02*
X104509580Y-130261904D01*
X104509580Y-130261904D02*
X104557200Y-130309523D01*
X104557200Y-130309523D02*
X104604819Y-130404761D01*
X104604819Y-130404761D02*
X104604819Y-130642856D01*
X104604819Y-130642856D02*
X104557200Y-130738094D01*
X104557200Y-130738094D02*
X104509580Y-130785713D01*
X114424819Y-111766666D02*
X113948628Y-112099999D01*
X114424819Y-112338094D02*
X113424819Y-112338094D01*
X113424819Y-112338094D02*
X113424819Y-111957142D01*
X113424819Y-111957142D02*
X113472438Y-111861904D01*
X113472438Y-111861904D02*
X113520057Y-111814285D01*
X113520057Y-111814285D02*
X113615295Y-111766666D01*
X113615295Y-111766666D02*
X113758152Y-111766666D01*
X113758152Y-111766666D02*
X113853390Y-111814285D01*
X113853390Y-111814285D02*
X113901009Y-111861904D01*
X113901009Y-111861904D02*
X113948628Y-111957142D01*
X113948628Y-111957142D02*
X113948628Y-112338094D01*
X113758152Y-110909523D02*
X114424819Y-110909523D01*
X113377200Y-111147618D02*
X114091485Y-111385713D01*
X114091485Y-111385713D02*
X114091485Y-110766666D01*
X121333333Y-135529580D02*
X121285714Y-135577200D01*
X121285714Y-135577200D02*
X121142857Y-135624819D01*
X121142857Y-135624819D02*
X121047619Y-135624819D01*
X121047619Y-135624819D02*
X120904762Y-135577200D01*
X120904762Y-135577200D02*
X120809524Y-135481961D01*
X120809524Y-135481961D02*
X120761905Y-135386723D01*
X120761905Y-135386723D02*
X120714286Y-135196247D01*
X120714286Y-135196247D02*
X120714286Y-135053390D01*
X120714286Y-135053390D02*
X120761905Y-134862914D01*
X120761905Y-134862914D02*
X120809524Y-134767676D01*
X120809524Y-134767676D02*
X120904762Y-134672438D01*
X120904762Y-134672438D02*
X121047619Y-134624819D01*
X121047619Y-134624819D02*
X121142857Y-134624819D01*
X121142857Y-134624819D02*
X121285714Y-134672438D01*
X121285714Y-134672438D02*
X121333333Y-134720057D01*
X121666667Y-134624819D02*
X122285714Y-134624819D01*
X122285714Y-134624819D02*
X121952381Y-135005771D01*
X121952381Y-135005771D02*
X122095238Y-135005771D01*
X122095238Y-135005771D02*
X122190476Y-135053390D01*
X122190476Y-135053390D02*
X122238095Y-135101009D01*
X122238095Y-135101009D02*
X122285714Y-135196247D01*
X122285714Y-135196247D02*
X122285714Y-135434342D01*
X122285714Y-135434342D02*
X122238095Y-135529580D01*
X122238095Y-135529580D02*
X122190476Y-135577200D01*
X122190476Y-135577200D02*
X122095238Y-135624819D01*
X122095238Y-135624819D02*
X121809524Y-135624819D01*
X121809524Y-135624819D02*
X121714286Y-135577200D01*
X121714286Y-135577200D02*
X121666667Y-135529580D01*
X109833333Y-127229580D02*
X109785714Y-127277200D01*
X109785714Y-127277200D02*
X109642857Y-127324819D01*
X109642857Y-127324819D02*
X109547619Y-127324819D01*
X109547619Y-127324819D02*
X109404762Y-127277200D01*
X109404762Y-127277200D02*
X109309524Y-127181961D01*
X109309524Y-127181961D02*
X109261905Y-127086723D01*
X109261905Y-127086723D02*
X109214286Y-126896247D01*
X109214286Y-126896247D02*
X109214286Y-126753390D01*
X109214286Y-126753390D02*
X109261905Y-126562914D01*
X109261905Y-126562914D02*
X109309524Y-126467676D01*
X109309524Y-126467676D02*
X109404762Y-126372438D01*
X109404762Y-126372438D02*
X109547619Y-126324819D01*
X109547619Y-126324819D02*
X109642857Y-126324819D01*
X109642857Y-126324819D02*
X109785714Y-126372438D01*
X109785714Y-126372438D02*
X109833333Y-126420057D01*
X110690476Y-126658152D02*
X110690476Y-127324819D01*
X110452381Y-126277200D02*
X110214286Y-126991485D01*
X110214286Y-126991485D02*
X110833333Y-126991485D01*
X118166667Y-121057200D02*
X118309524Y-121104819D01*
X118309524Y-121104819D02*
X118547619Y-121104819D01*
X118547619Y-121104819D02*
X118642857Y-121057200D01*
X118642857Y-121057200D02*
X118690476Y-121009580D01*
X118690476Y-121009580D02*
X118738095Y-120914342D01*
X118738095Y-120914342D02*
X118738095Y-120819104D01*
X118738095Y-120819104D02*
X118690476Y-120723866D01*
X118690476Y-120723866D02*
X118642857Y-120676247D01*
X118642857Y-120676247D02*
X118547619Y-120628628D01*
X118547619Y-120628628D02*
X118357143Y-120581009D01*
X118357143Y-120581009D02*
X118261905Y-120533390D01*
X118261905Y-120533390D02*
X118214286Y-120485771D01*
X118214286Y-120485771D02*
X118166667Y-120390533D01*
X118166667Y-120390533D02*
X118166667Y-120295295D01*
X118166667Y-120295295D02*
X118214286Y-120200057D01*
X118214286Y-120200057D02*
X118261905Y-120152438D01*
X118261905Y-120152438D02*
X118357143Y-120104819D01*
X118357143Y-120104819D02*
X118595238Y-120104819D01*
X118595238Y-120104819D02*
X118738095Y-120152438D01*
X119071429Y-120104819D02*
X119309524Y-121104819D01*
X119309524Y-121104819D02*
X119500000Y-120390533D01*
X119500000Y-120390533D02*
X119690476Y-121104819D01*
X119690476Y-121104819D02*
X119928572Y-120104819D01*
X120261905Y-120200057D02*
X120309524Y-120152438D01*
X120309524Y-120152438D02*
X120404762Y-120104819D01*
X120404762Y-120104819D02*
X120642857Y-120104819D01*
X120642857Y-120104819D02*
X120738095Y-120152438D01*
X120738095Y-120152438D02*
X120785714Y-120200057D01*
X120785714Y-120200057D02*
X120833333Y-120295295D01*
X120833333Y-120295295D02*
X120833333Y-120390533D01*
X120833333Y-120390533D02*
X120785714Y-120533390D01*
X120785714Y-120533390D02*
X120214286Y-121104819D01*
X120214286Y-121104819D02*
X120833333Y-121104819D01*
X114833333Y-128704819D02*
X114357143Y-128704819D01*
X114357143Y-128704819D02*
X114357143Y-127704819D01*
X115690476Y-128704819D02*
X115119048Y-128704819D01*
X115404762Y-128704819D02*
X115404762Y-127704819D01*
X115404762Y-127704819D02*
X115309524Y-127847676D01*
X115309524Y-127847676D02*
X115214286Y-127942914D01*
X115214286Y-127942914D02*
X115119048Y-127990533D01*
X122624819Y-111766666D02*
X122148628Y-112099999D01*
X122624819Y-112338094D02*
X121624819Y-112338094D01*
X121624819Y-112338094D02*
X121624819Y-111957142D01*
X121624819Y-111957142D02*
X121672438Y-111861904D01*
X121672438Y-111861904D02*
X121720057Y-111814285D01*
X121720057Y-111814285D02*
X121815295Y-111766666D01*
X121815295Y-111766666D02*
X121958152Y-111766666D01*
X121958152Y-111766666D02*
X122053390Y-111814285D01*
X122053390Y-111814285D02*
X122101009Y-111861904D01*
X122101009Y-111861904D02*
X122148628Y-111957142D01*
X122148628Y-111957142D02*
X122148628Y-112338094D01*
X121624819Y-111433332D02*
X121624819Y-110814285D01*
X121624819Y-110814285D02*
X122005771Y-111147618D01*
X122005771Y-111147618D02*
X122005771Y-111004761D01*
X122005771Y-111004761D02*
X122053390Y-110909523D01*
X122053390Y-110909523D02*
X122101009Y-110861904D01*
X122101009Y-110861904D02*
X122196247Y-110814285D01*
X122196247Y-110814285D02*
X122434342Y-110814285D01*
X122434342Y-110814285D02*
X122529580Y-110861904D01*
X122529580Y-110861904D02*
X122577200Y-110909523D01*
X122577200Y-110909523D02*
X122624819Y-111004761D01*
X122624819Y-111004761D02*
X122624819Y-111290475D01*
X122624819Y-111290475D02*
X122577200Y-111385713D01*
X122577200Y-111385713D02*
X122529580Y-111433332D01*
X134333333Y-136729580D02*
X134285714Y-136777200D01*
X134285714Y-136777200D02*
X134142857Y-136824819D01*
X134142857Y-136824819D02*
X134047619Y-136824819D01*
X134047619Y-136824819D02*
X133904762Y-136777200D01*
X133904762Y-136777200D02*
X133809524Y-136681961D01*
X133809524Y-136681961D02*
X133761905Y-136586723D01*
X133761905Y-136586723D02*
X133714286Y-136396247D01*
X133714286Y-136396247D02*
X133714286Y-136253390D01*
X133714286Y-136253390D02*
X133761905Y-136062914D01*
X133761905Y-136062914D02*
X133809524Y-135967676D01*
X133809524Y-135967676D02*
X133904762Y-135872438D01*
X133904762Y-135872438D02*
X134047619Y-135824819D01*
X134047619Y-135824819D02*
X134142857Y-135824819D01*
X134142857Y-135824819D02*
X134285714Y-135872438D01*
X134285714Y-135872438D02*
X134333333Y-135920057D01*
X134904762Y-136253390D02*
X134809524Y-136205771D01*
X134809524Y-136205771D02*
X134761905Y-136158152D01*
X134761905Y-136158152D02*
X134714286Y-136062914D01*
X134714286Y-136062914D02*
X134714286Y-136015295D01*
X134714286Y-136015295D02*
X134761905Y-135920057D01*
X134761905Y-135920057D02*
X134809524Y-135872438D01*
X134809524Y-135872438D02*
X134904762Y-135824819D01*
X134904762Y-135824819D02*
X135095238Y-135824819D01*
X135095238Y-135824819D02*
X135190476Y-135872438D01*
X135190476Y-135872438D02*
X135238095Y-135920057D01*
X135238095Y-135920057D02*
X135285714Y-136015295D01*
X135285714Y-136015295D02*
X135285714Y-136062914D01*
X135285714Y-136062914D02*
X135238095Y-136158152D01*
X135238095Y-136158152D02*
X135190476Y-136205771D01*
X135190476Y-136205771D02*
X135095238Y-136253390D01*
X135095238Y-136253390D02*
X134904762Y-136253390D01*
X134904762Y-136253390D02*
X134809524Y-136301009D01*
X134809524Y-136301009D02*
X134761905Y-136348628D01*
X134761905Y-136348628D02*
X134714286Y-136443866D01*
X134714286Y-136443866D02*
X134714286Y-136634342D01*
X134714286Y-136634342D02*
X134761905Y-136729580D01*
X134761905Y-136729580D02*
X134809524Y-136777200D01*
X134809524Y-136777200D02*
X134904762Y-136824819D01*
X134904762Y-136824819D02*
X135095238Y-136824819D01*
X135095238Y-136824819D02*
X135190476Y-136777200D01*
X135190476Y-136777200D02*
X135238095Y-136729580D01*
X135238095Y-136729580D02*
X135285714Y-136634342D01*
X135285714Y-136634342D02*
X135285714Y-136443866D01*
X135285714Y-136443866D02*
X135238095Y-136348628D01*
X135238095Y-136348628D02*
X135190476Y-136301009D01*
X135190476Y-136301009D02*
X135095238Y-136253390D01*
X121333333Y-137624819D02*
X121000000Y-137148628D01*
X120761905Y-137624819D02*
X120761905Y-136624819D01*
X120761905Y-136624819D02*
X121142857Y-136624819D01*
X121142857Y-136624819D02*
X121238095Y-136672438D01*
X121238095Y-136672438D02*
X121285714Y-136720057D01*
X121285714Y-136720057D02*
X121333333Y-136815295D01*
X121333333Y-136815295D02*
X121333333Y-136958152D01*
X121333333Y-136958152D02*
X121285714Y-137053390D01*
X121285714Y-137053390D02*
X121238095Y-137101009D01*
X121238095Y-137101009D02*
X121142857Y-137148628D01*
X121142857Y-137148628D02*
X120761905Y-137148628D01*
X121714286Y-136720057D02*
X121761905Y-136672438D01*
X121761905Y-136672438D02*
X121857143Y-136624819D01*
X121857143Y-136624819D02*
X122095238Y-136624819D01*
X122095238Y-136624819D02*
X122190476Y-136672438D01*
X122190476Y-136672438D02*
X122238095Y-136720057D01*
X122238095Y-136720057D02*
X122285714Y-136815295D01*
X122285714Y-136815295D02*
X122285714Y-136910533D01*
X122285714Y-136910533D02*
X122238095Y-137053390D01*
X122238095Y-137053390D02*
X121666667Y-137624819D01*
X121666667Y-137624819D02*
X122285714Y-137624819D01*
X121333333Y-128679580D02*
X121285714Y-128727200D01*
X121285714Y-128727200D02*
X121142857Y-128774819D01*
X121142857Y-128774819D02*
X121047619Y-128774819D01*
X121047619Y-128774819D02*
X120904762Y-128727200D01*
X120904762Y-128727200D02*
X120809524Y-128631961D01*
X120809524Y-128631961D02*
X120761905Y-128536723D01*
X120761905Y-128536723D02*
X120714286Y-128346247D01*
X120714286Y-128346247D02*
X120714286Y-128203390D01*
X120714286Y-128203390D02*
X120761905Y-128012914D01*
X120761905Y-128012914D02*
X120809524Y-127917676D01*
X120809524Y-127917676D02*
X120904762Y-127822438D01*
X120904762Y-127822438D02*
X121047619Y-127774819D01*
X121047619Y-127774819D02*
X121142857Y-127774819D01*
X121142857Y-127774819D02*
X121285714Y-127822438D01*
X121285714Y-127822438D02*
X121333333Y-127870057D01*
X122285714Y-128774819D02*
X121714286Y-128774819D01*
X122000000Y-128774819D02*
X122000000Y-127774819D01*
X122000000Y-127774819D02*
X121904762Y-127917676D01*
X121904762Y-127917676D02*
X121809524Y-128012914D01*
X121809524Y-128012914D02*
X121714286Y-128060533D01*
X134333333Y-138424819D02*
X134000000Y-137948628D01*
X133761905Y-138424819D02*
X133761905Y-137424819D01*
X133761905Y-137424819D02*
X134142857Y-137424819D01*
X134142857Y-137424819D02*
X134238095Y-137472438D01*
X134238095Y-137472438D02*
X134285714Y-137520057D01*
X134285714Y-137520057D02*
X134333333Y-137615295D01*
X134333333Y-137615295D02*
X134333333Y-137758152D01*
X134333333Y-137758152D02*
X134285714Y-137853390D01*
X134285714Y-137853390D02*
X134238095Y-137901009D01*
X134238095Y-137901009D02*
X134142857Y-137948628D01*
X134142857Y-137948628D02*
X133761905Y-137948628D01*
X134904762Y-137853390D02*
X134809524Y-137805771D01*
X134809524Y-137805771D02*
X134761905Y-137758152D01*
X134761905Y-137758152D02*
X134714286Y-137662914D01*
X134714286Y-137662914D02*
X134714286Y-137615295D01*
X134714286Y-137615295D02*
X134761905Y-137520057D01*
X134761905Y-137520057D02*
X134809524Y-137472438D01*
X134809524Y-137472438D02*
X134904762Y-137424819D01*
X134904762Y-137424819D02*
X135095238Y-137424819D01*
X135095238Y-137424819D02*
X135190476Y-137472438D01*
X135190476Y-137472438D02*
X135238095Y-137520057D01*
X135238095Y-137520057D02*
X135285714Y-137615295D01*
X135285714Y-137615295D02*
X135285714Y-137662914D01*
X135285714Y-137662914D02*
X135238095Y-137758152D01*
X135238095Y-137758152D02*
X135190476Y-137805771D01*
X135190476Y-137805771D02*
X135095238Y-137853390D01*
X135095238Y-137853390D02*
X134904762Y-137853390D01*
X134904762Y-137853390D02*
X134809524Y-137901009D01*
X134809524Y-137901009D02*
X134761905Y-137948628D01*
X134761905Y-137948628D02*
X134714286Y-138043866D01*
X134714286Y-138043866D02*
X134714286Y-138234342D01*
X134714286Y-138234342D02*
X134761905Y-138329580D01*
X134761905Y-138329580D02*
X134809524Y-138377200D01*
X134809524Y-138377200D02*
X134904762Y-138424819D01*
X134904762Y-138424819D02*
X135095238Y-138424819D01*
X135095238Y-138424819D02*
X135190476Y-138377200D01*
X135190476Y-138377200D02*
X135238095Y-138329580D01*
X135238095Y-138329580D02*
X135285714Y-138234342D01*
X135285714Y-138234342D02*
X135285714Y-138043866D01*
X135285714Y-138043866D02*
X135238095Y-137948628D01*
X135238095Y-137948628D02*
X135190476Y-137901009D01*
X135190476Y-137901009D02*
X135095238Y-137853390D01*
X119166666Y-109299819D02*
X119166666Y-110014104D01*
X119166666Y-110014104D02*
X119119047Y-110156961D01*
X119119047Y-110156961D02*
X119023809Y-110252200D01*
X119023809Y-110252200D02*
X118880952Y-110299819D01*
X118880952Y-110299819D02*
X118785714Y-110299819D01*
X119595238Y-109395057D02*
X119642857Y-109347438D01*
X119642857Y-109347438D02*
X119738095Y-109299819D01*
X119738095Y-109299819D02*
X119976190Y-109299819D01*
X119976190Y-109299819D02*
X120071428Y-109347438D01*
X120071428Y-109347438D02*
X120119047Y-109395057D01*
X120119047Y-109395057D02*
X120166666Y-109490295D01*
X120166666Y-109490295D02*
X120166666Y-109585533D01*
X120166666Y-109585533D02*
X120119047Y-109728390D01*
X120119047Y-109728390D02*
X119547619Y-110299819D01*
X119547619Y-110299819D02*
X120166666Y-110299819D01*
X118738095Y-109454819D02*
X118738095Y-110264342D01*
X118738095Y-110264342D02*
X118785714Y-110359580D01*
X118785714Y-110359580D02*
X118833333Y-110407200D01*
X118833333Y-110407200D02*
X118928571Y-110454819D01*
X118928571Y-110454819D02*
X119119047Y-110454819D01*
X119119047Y-110454819D02*
X119214285Y-110407200D01*
X119214285Y-110407200D02*
X119261904Y-110359580D01*
X119261904Y-110359580D02*
X119309523Y-110264342D01*
X119309523Y-110264342D02*
X119309523Y-109454819D01*
X119690476Y-109454819D02*
X120309523Y-109454819D01*
X120309523Y-109454819D02*
X119976190Y-109835771D01*
X119976190Y-109835771D02*
X120119047Y-109835771D01*
X120119047Y-109835771D02*
X120214285Y-109883390D01*
X120214285Y-109883390D02*
X120261904Y-109931009D01*
X120261904Y-109931009D02*
X120309523Y-110026247D01*
X120309523Y-110026247D02*
X120309523Y-110264342D01*
X120309523Y-110264342D02*
X120261904Y-110359580D01*
X120261904Y-110359580D02*
X120214285Y-110407200D01*
X120214285Y-110407200D02*
X120119047Y-110454819D01*
X120119047Y-110454819D02*
X119833333Y-110454819D01*
X119833333Y-110454819D02*
X119738095Y-110407200D01*
X119738095Y-110407200D02*
X119690476Y-110359580D01*
X107761905Y-136654819D02*
X107761905Y-135654819D01*
X107761905Y-135654819D02*
X108000000Y-135654819D01*
X108000000Y-135654819D02*
X108142857Y-135702438D01*
X108142857Y-135702438D02*
X108238095Y-135797676D01*
X108238095Y-135797676D02*
X108285714Y-135892914D01*
X108285714Y-135892914D02*
X108333333Y-136083390D01*
X108333333Y-136083390D02*
X108333333Y-136226247D01*
X108333333Y-136226247D02*
X108285714Y-136416723D01*
X108285714Y-136416723D02*
X108238095Y-136511961D01*
X108238095Y-136511961D02*
X108142857Y-136607200D01*
X108142857Y-136607200D02*
X108000000Y-136654819D01*
X108000000Y-136654819D02*
X107761905Y-136654819D01*
X108714286Y-135750057D02*
X108761905Y-135702438D01*
X108761905Y-135702438D02*
X108857143Y-135654819D01*
X108857143Y-135654819D02*
X109095238Y-135654819D01*
X109095238Y-135654819D02*
X109190476Y-135702438D01*
X109190476Y-135702438D02*
X109238095Y-135750057D01*
X109238095Y-135750057D02*
X109285714Y-135845295D01*
X109285714Y-135845295D02*
X109285714Y-135940533D01*
X109285714Y-135940533D02*
X109238095Y-136083390D01*
X109238095Y-136083390D02*
X108666667Y-136654819D01*
X108666667Y-136654819D02*
X109285714Y-136654819D01*
D12*
X102116666Y-120969593D02*
X102516666Y-120969593D01*
X102316666Y-121669593D02*
X102316666Y-120969593D01*
X102749999Y-121669593D02*
X102749999Y-120969593D01*
X102749999Y-120969593D02*
X103016666Y-120969593D01*
X103016666Y-120969593D02*
X103083333Y-121002926D01*
X103083333Y-121002926D02*
X103116666Y-121036260D01*
X103116666Y-121036260D02*
X103149999Y-121102926D01*
X103149999Y-121102926D02*
X103149999Y-121202926D01*
X103149999Y-121202926D02*
X103116666Y-121269593D01*
X103116666Y-121269593D02*
X103083333Y-121302926D01*
X103083333Y-121302926D02*
X103016666Y-121336260D01*
X103016666Y-121336260D02*
X102749999Y-121336260D01*
X103416666Y-121036260D02*
X103449999Y-121002926D01*
X103449999Y-121002926D02*
X103516666Y-120969593D01*
X103516666Y-120969593D02*
X103683333Y-120969593D01*
X103683333Y-120969593D02*
X103749999Y-121002926D01*
X103749999Y-121002926D02*
X103783333Y-121036260D01*
X103783333Y-121036260D02*
X103816666Y-121102926D01*
X103816666Y-121102926D02*
X103816666Y-121169593D01*
X103816666Y-121169593D02*
X103783333Y-121269593D01*
X103783333Y-121269593D02*
X103383333Y-121669593D01*
X103383333Y-121669593D02*
X103816666Y-121669593D01*
D13*
X127108095Y-104954819D02*
X127108095Y-105764342D01*
X127108095Y-105764342D02*
X127155714Y-105859580D01*
X127155714Y-105859580D02*
X127203333Y-105907200D01*
X127203333Y-105907200D02*
X127298571Y-105954819D01*
X127298571Y-105954819D02*
X127489047Y-105954819D01*
X127489047Y-105954819D02*
X127584285Y-105907200D01*
X127584285Y-105907200D02*
X127631904Y-105859580D01*
X127631904Y-105859580D02*
X127679523Y-105764342D01*
X127679523Y-105764342D02*
X127679523Y-104954819D01*
X128679523Y-105954819D02*
X128108095Y-105954819D01*
X128393809Y-105954819D02*
X128393809Y-104954819D01*
X128393809Y-104954819D02*
X128298571Y-105097676D01*
X128298571Y-105097676D02*
X128203333Y-105192914D01*
X128203333Y-105192914D02*
X128108095Y-105240533D01*
D12*
X102116666Y-123969593D02*
X102516666Y-123969593D01*
X102316666Y-124669593D02*
X102316666Y-123969593D01*
X102749999Y-124669593D02*
X102749999Y-123969593D01*
X102749999Y-123969593D02*
X103016666Y-123969593D01*
X103016666Y-123969593D02*
X103083333Y-124002926D01*
X103083333Y-124002926D02*
X103116666Y-124036260D01*
X103116666Y-124036260D02*
X103149999Y-124102926D01*
X103149999Y-124102926D02*
X103149999Y-124202926D01*
X103149999Y-124202926D02*
X103116666Y-124269593D01*
X103116666Y-124269593D02*
X103083333Y-124302926D01*
X103083333Y-124302926D02*
X103016666Y-124336260D01*
X103016666Y-124336260D02*
X102749999Y-124336260D01*
X103383333Y-123969593D02*
X103816666Y-123969593D01*
X103816666Y-123969593D02*
X103583333Y-124236260D01*
X103583333Y-124236260D02*
X103683333Y-124236260D01*
X103683333Y-124236260D02*
X103749999Y-124269593D01*
X103749999Y-124269593D02*
X103783333Y-124302926D01*
X103783333Y-124302926D02*
X103816666Y-124369593D01*
X103816666Y-124369593D02*
X103816666Y-124536260D01*
X103816666Y-124536260D02*
X103783333Y-124602926D01*
X103783333Y-124602926D02*
X103749999Y-124636260D01*
X103749999Y-124636260D02*
X103683333Y-124669593D01*
X103683333Y-124669593D02*
X103483333Y-124669593D01*
X103483333Y-124669593D02*
X103416666Y-124636260D01*
X103416666Y-124636260D02*
X103383333Y-124602926D01*
D13*
X109238095Y-128054819D02*
X109238095Y-128864342D01*
X109238095Y-128864342D02*
X109285714Y-128959580D01*
X109285714Y-128959580D02*
X109333333Y-129007200D01*
X109333333Y-129007200D02*
X109428571Y-129054819D01*
X109428571Y-129054819D02*
X109619047Y-129054819D01*
X109619047Y-129054819D02*
X109714285Y-129007200D01*
X109714285Y-129007200D02*
X109761904Y-128959580D01*
X109761904Y-128959580D02*
X109809523Y-128864342D01*
X109809523Y-128864342D02*
X109809523Y-128054819D01*
X110238095Y-128150057D02*
X110285714Y-128102438D01*
X110285714Y-128102438D02*
X110380952Y-128054819D01*
X110380952Y-128054819D02*
X110619047Y-128054819D01*
X110619047Y-128054819D02*
X110714285Y-128102438D01*
X110714285Y-128102438D02*
X110761904Y-128150057D01*
X110761904Y-128150057D02*
X110809523Y-128245295D01*
X110809523Y-128245295D02*
X110809523Y-128340533D01*
X110809523Y-128340533D02*
X110761904Y-128483390D01*
X110761904Y-128483390D02*
X110190476Y-129054819D01*
X110190476Y-129054819D02*
X110809523Y-129054819D01*
X114833333Y-136879580D02*
X114785714Y-136927200D01*
X114785714Y-136927200D02*
X114642857Y-136974819D01*
X114642857Y-136974819D02*
X114547619Y-136974819D01*
X114547619Y-136974819D02*
X114404762Y-136927200D01*
X114404762Y-136927200D02*
X114309524Y-136831961D01*
X114309524Y-136831961D02*
X114261905Y-136736723D01*
X114261905Y-136736723D02*
X114214286Y-136546247D01*
X114214286Y-136546247D02*
X114214286Y-136403390D01*
X114214286Y-136403390D02*
X114261905Y-136212914D01*
X114261905Y-136212914D02*
X114309524Y-136117676D01*
X114309524Y-136117676D02*
X114404762Y-136022438D01*
X114404762Y-136022438D02*
X114547619Y-135974819D01*
X114547619Y-135974819D02*
X114642857Y-135974819D01*
X114642857Y-135974819D02*
X114785714Y-136022438D01*
X114785714Y-136022438D02*
X114833333Y-136070057D01*
X115166667Y-135974819D02*
X115833333Y-135974819D01*
X115833333Y-135974819D02*
X115404762Y-136974819D01*
X137833333Y-136824819D02*
X137500000Y-136348628D01*
X137261905Y-136824819D02*
X137261905Y-135824819D01*
X137261905Y-135824819D02*
X137642857Y-135824819D01*
X137642857Y-135824819D02*
X137738095Y-135872438D01*
X137738095Y-135872438D02*
X137785714Y-135920057D01*
X137785714Y-135920057D02*
X137833333Y-136015295D01*
X137833333Y-136015295D02*
X137833333Y-136158152D01*
X137833333Y-136158152D02*
X137785714Y-136253390D01*
X137785714Y-136253390D02*
X137738095Y-136301009D01*
X137738095Y-136301009D02*
X137642857Y-136348628D01*
X137642857Y-136348628D02*
X137261905Y-136348628D01*
X138738095Y-135824819D02*
X138261905Y-135824819D01*
X138261905Y-135824819D02*
X138214286Y-136301009D01*
X138214286Y-136301009D02*
X138261905Y-136253390D01*
X138261905Y-136253390D02*
X138357143Y-136205771D01*
X138357143Y-136205771D02*
X138595238Y-136205771D01*
X138595238Y-136205771D02*
X138690476Y-136253390D01*
X138690476Y-136253390D02*
X138738095Y-136301009D01*
X138738095Y-136301009D02*
X138785714Y-136396247D01*
X138785714Y-136396247D02*
X138785714Y-136634342D01*
X138785714Y-136634342D02*
X138738095Y-136729580D01*
X138738095Y-136729580D02*
X138690476Y-136777200D01*
X138690476Y-136777200D02*
X138595238Y-136824819D01*
X138595238Y-136824819D02*
X138357143Y-136824819D01*
X138357143Y-136824819D02*
X138261905Y-136777200D01*
X138261905Y-136777200D02*
X138214286Y-136729580D01*
X103357142Y-115424819D02*
X103023809Y-114948628D01*
X102785714Y-115424819D02*
X102785714Y-114424819D01*
X102785714Y-114424819D02*
X103166666Y-114424819D01*
X103166666Y-114424819D02*
X103261904Y-114472438D01*
X103261904Y-114472438D02*
X103309523Y-114520057D01*
X103309523Y-114520057D02*
X103357142Y-114615295D01*
X103357142Y-114615295D02*
X103357142Y-114758152D01*
X103357142Y-114758152D02*
X103309523Y-114853390D01*
X103309523Y-114853390D02*
X103261904Y-114901009D01*
X103261904Y-114901009D02*
X103166666Y-114948628D01*
X103166666Y-114948628D02*
X102785714Y-114948628D01*
X104309523Y-115424819D02*
X103738095Y-115424819D01*
X104023809Y-115424819D02*
X104023809Y-114424819D01*
X104023809Y-114424819D02*
X103928571Y-114567676D01*
X103928571Y-114567676D02*
X103833333Y-114662914D01*
X103833333Y-114662914D02*
X103738095Y-114710533D01*
X104642857Y-114424819D02*
X105261904Y-114424819D01*
X105261904Y-114424819D02*
X104928571Y-114805771D01*
X104928571Y-114805771D02*
X105071428Y-114805771D01*
X105071428Y-114805771D02*
X105166666Y-114853390D01*
X105166666Y-114853390D02*
X105214285Y-114901009D01*
X105214285Y-114901009D02*
X105261904Y-114996247D01*
X105261904Y-114996247D02*
X105261904Y-115234342D01*
X105261904Y-115234342D02*
X105214285Y-115329580D01*
X105214285Y-115329580D02*
X105166666Y-115377200D01*
X105166666Y-115377200D02*
X105071428Y-115424819D01*
X105071428Y-115424819D02*
X104785714Y-115424819D01*
X104785714Y-115424819D02*
X104690476Y-115377200D01*
X104690476Y-115377200D02*
X104642857Y-115329580D01*
D12*
X102116666Y-135469593D02*
X102516666Y-135469593D01*
X102316666Y-136169593D02*
X102316666Y-135469593D01*
X102749999Y-136169593D02*
X102749999Y-135469593D01*
X102749999Y-135469593D02*
X103016666Y-135469593D01*
X103016666Y-135469593D02*
X103083333Y-135502926D01*
X103083333Y-135502926D02*
X103116666Y-135536260D01*
X103116666Y-135536260D02*
X103149999Y-135602926D01*
X103149999Y-135602926D02*
X103149999Y-135702926D01*
X103149999Y-135702926D02*
X103116666Y-135769593D01*
X103116666Y-135769593D02*
X103083333Y-135802926D01*
X103083333Y-135802926D02*
X103016666Y-135836260D01*
X103016666Y-135836260D02*
X102749999Y-135836260D01*
X103749999Y-135702926D02*
X103749999Y-136169593D01*
X103583333Y-135436260D02*
X103416666Y-135936260D01*
X103416666Y-135936260D02*
X103849999Y-135936260D01*
D13*
X121333333Y-131329580D02*
X121285714Y-131377200D01*
X121285714Y-131377200D02*
X121142857Y-131424819D01*
X121142857Y-131424819D02*
X121047619Y-131424819D01*
X121047619Y-131424819D02*
X120904762Y-131377200D01*
X120904762Y-131377200D02*
X120809524Y-131281961D01*
X120809524Y-131281961D02*
X120761905Y-131186723D01*
X120761905Y-131186723D02*
X120714286Y-130996247D01*
X120714286Y-130996247D02*
X120714286Y-130853390D01*
X120714286Y-130853390D02*
X120761905Y-130662914D01*
X120761905Y-130662914D02*
X120809524Y-130567676D01*
X120809524Y-130567676D02*
X120904762Y-130472438D01*
X120904762Y-130472438D02*
X121047619Y-130424819D01*
X121047619Y-130424819D02*
X121142857Y-130424819D01*
X121142857Y-130424819D02*
X121285714Y-130472438D01*
X121285714Y-130472438D02*
X121333333Y-130520057D01*
X121714286Y-130520057D02*
X121761905Y-130472438D01*
X121761905Y-130472438D02*
X121857143Y-130424819D01*
X121857143Y-130424819D02*
X122095238Y-130424819D01*
X122095238Y-130424819D02*
X122190476Y-130472438D01*
X122190476Y-130472438D02*
X122238095Y-130520057D01*
X122238095Y-130520057D02*
X122285714Y-130615295D01*
X122285714Y-130615295D02*
X122285714Y-130710533D01*
X122285714Y-130710533D02*
X122238095Y-130853390D01*
X122238095Y-130853390D02*
X121666667Y-131424819D01*
X121666667Y-131424819D02*
X122285714Y-131424819D01*
X133857142Y-135024819D02*
X133523809Y-134548628D01*
X133285714Y-135024819D02*
X133285714Y-134024819D01*
X133285714Y-134024819D02*
X133666666Y-134024819D01*
X133666666Y-134024819D02*
X133761904Y-134072438D01*
X133761904Y-134072438D02*
X133809523Y-134120057D01*
X133809523Y-134120057D02*
X133857142Y-134215295D01*
X133857142Y-134215295D02*
X133857142Y-134358152D01*
X133857142Y-134358152D02*
X133809523Y-134453390D01*
X133809523Y-134453390D02*
X133761904Y-134501009D01*
X133761904Y-134501009D02*
X133666666Y-134548628D01*
X133666666Y-134548628D02*
X133285714Y-134548628D01*
X134809523Y-135024819D02*
X134238095Y-135024819D01*
X134523809Y-135024819D02*
X134523809Y-134024819D01*
X134523809Y-134024819D02*
X134428571Y-134167676D01*
X134428571Y-134167676D02*
X134333333Y-134262914D01*
X134333333Y-134262914D02*
X134238095Y-134310533D01*
X135666666Y-134358152D02*
X135666666Y-135024819D01*
X135428571Y-133977200D02*
X135190476Y-134691485D01*
X135190476Y-134691485D02*
X135809523Y-134691485D01*
X103357142Y-111824819D02*
X103023809Y-111348628D01*
X102785714Y-111824819D02*
X102785714Y-110824819D01*
X102785714Y-110824819D02*
X103166666Y-110824819D01*
X103166666Y-110824819D02*
X103261904Y-110872438D01*
X103261904Y-110872438D02*
X103309523Y-110920057D01*
X103309523Y-110920057D02*
X103357142Y-111015295D01*
X103357142Y-111015295D02*
X103357142Y-111158152D01*
X103357142Y-111158152D02*
X103309523Y-111253390D01*
X103309523Y-111253390D02*
X103261904Y-111301009D01*
X103261904Y-111301009D02*
X103166666Y-111348628D01*
X103166666Y-111348628D02*
X102785714Y-111348628D01*
X104309523Y-111824819D02*
X103738095Y-111824819D01*
X104023809Y-111824819D02*
X104023809Y-110824819D01*
X104023809Y-110824819D02*
X103928571Y-110967676D01*
X103928571Y-110967676D02*
X103833333Y-111062914D01*
X103833333Y-111062914D02*
X103738095Y-111110533D01*
X105261904Y-111824819D02*
X104690476Y-111824819D01*
X104976190Y-111824819D02*
X104976190Y-110824819D01*
X104976190Y-110824819D02*
X104880952Y-110967676D01*
X104880952Y-110967676D02*
X104785714Y-111062914D01*
X104785714Y-111062914D02*
X104690476Y-111110533D01*
X141333333Y-138424819D02*
X141000000Y-137948628D01*
X140761905Y-138424819D02*
X140761905Y-137424819D01*
X140761905Y-137424819D02*
X141142857Y-137424819D01*
X141142857Y-137424819D02*
X141238095Y-137472438D01*
X141238095Y-137472438D02*
X141285714Y-137520057D01*
X141285714Y-137520057D02*
X141333333Y-137615295D01*
X141333333Y-137615295D02*
X141333333Y-137758152D01*
X141333333Y-137758152D02*
X141285714Y-137853390D01*
X141285714Y-137853390D02*
X141238095Y-137901009D01*
X141238095Y-137901009D02*
X141142857Y-137948628D01*
X141142857Y-137948628D02*
X140761905Y-137948628D01*
X141666667Y-137424819D02*
X142333333Y-137424819D01*
X142333333Y-137424819D02*
X141904762Y-138424819D01*
X107761905Y-133654819D02*
X107761905Y-132654819D01*
X107761905Y-132654819D02*
X108000000Y-132654819D01*
X108000000Y-132654819D02*
X108142857Y-132702438D01*
X108142857Y-132702438D02*
X108238095Y-132797676D01*
X108238095Y-132797676D02*
X108285714Y-132892914D01*
X108285714Y-132892914D02*
X108333333Y-133083390D01*
X108333333Y-133083390D02*
X108333333Y-133226247D01*
X108333333Y-133226247D02*
X108285714Y-133416723D01*
X108285714Y-133416723D02*
X108238095Y-133511961D01*
X108238095Y-133511961D02*
X108142857Y-133607200D01*
X108142857Y-133607200D02*
X108000000Y-133654819D01*
X108000000Y-133654819D02*
X107761905Y-133654819D01*
X109285714Y-133654819D02*
X108714286Y-133654819D01*
X109000000Y-133654819D02*
X109000000Y-132654819D01*
X109000000Y-132654819D02*
X108904762Y-132797676D01*
X108904762Y-132797676D02*
X108809524Y-132892914D01*
X108809524Y-132892914D02*
X108714286Y-132940533D01*
X137833333Y-138424819D02*
X137500000Y-137948628D01*
X137261905Y-138424819D02*
X137261905Y-137424819D01*
X137261905Y-137424819D02*
X137642857Y-137424819D01*
X137642857Y-137424819D02*
X137738095Y-137472438D01*
X137738095Y-137472438D02*
X137785714Y-137520057D01*
X137785714Y-137520057D02*
X137833333Y-137615295D01*
X137833333Y-137615295D02*
X137833333Y-137758152D01*
X137833333Y-137758152D02*
X137785714Y-137853390D01*
X137785714Y-137853390D02*
X137738095Y-137901009D01*
X137738095Y-137901009D02*
X137642857Y-137948628D01*
X137642857Y-137948628D02*
X137261905Y-137948628D01*
X138309524Y-138424819D02*
X138500000Y-138424819D01*
X138500000Y-138424819D02*
X138595238Y-138377200D01*
X138595238Y-138377200D02*
X138642857Y-138329580D01*
X138642857Y-138329580D02*
X138738095Y-138186723D01*
X138738095Y-138186723D02*
X138785714Y-137996247D01*
X138785714Y-137996247D02*
X138785714Y-137615295D01*
X138785714Y-137615295D02*
X138738095Y-137520057D01*
X138738095Y-137520057D02*
X138690476Y-137472438D01*
X138690476Y-137472438D02*
X138595238Y-137424819D01*
X138595238Y-137424819D02*
X138404762Y-137424819D01*
X138404762Y-137424819D02*
X138309524Y-137472438D01*
X138309524Y-137472438D02*
X138261905Y-137520057D01*
X138261905Y-137520057D02*
X138214286Y-137615295D01*
X138214286Y-137615295D02*
X138214286Y-137853390D01*
X138214286Y-137853390D02*
X138261905Y-137948628D01*
X138261905Y-137948628D02*
X138309524Y-137996247D01*
X138309524Y-137996247D02*
X138404762Y-138043866D01*
X138404762Y-138043866D02*
X138595238Y-138043866D01*
X138595238Y-138043866D02*
X138690476Y-137996247D01*
X138690476Y-137996247D02*
X138738095Y-137948628D01*
X138738095Y-137948628D02*
X138785714Y-137853390D01*
X124074819Y-133333333D02*
X124789104Y-133333333D01*
X124789104Y-133333333D02*
X124931961Y-133380952D01*
X124931961Y-133380952D02*
X125027200Y-133476190D01*
X125027200Y-133476190D02*
X125074819Y-133619047D01*
X125074819Y-133619047D02*
X125074819Y-133714285D01*
X124408152Y-132428571D02*
X125074819Y-132428571D01*
X124027200Y-132666666D02*
X124741485Y-132904761D01*
X124741485Y-132904761D02*
X124741485Y-132285714D01*
X114833333Y-134279580D02*
X114785714Y-134327200D01*
X114785714Y-134327200D02*
X114642857Y-134374819D01*
X114642857Y-134374819D02*
X114547619Y-134374819D01*
X114547619Y-134374819D02*
X114404762Y-134327200D01*
X114404762Y-134327200D02*
X114309524Y-134231961D01*
X114309524Y-134231961D02*
X114261905Y-134136723D01*
X114261905Y-134136723D02*
X114214286Y-133946247D01*
X114214286Y-133946247D02*
X114214286Y-133803390D01*
X114214286Y-133803390D02*
X114261905Y-133612914D01*
X114261905Y-133612914D02*
X114309524Y-133517676D01*
X114309524Y-133517676D02*
X114404762Y-133422438D01*
X114404762Y-133422438D02*
X114547619Y-133374819D01*
X114547619Y-133374819D02*
X114642857Y-133374819D01*
X114642857Y-133374819D02*
X114785714Y-133422438D01*
X114785714Y-133422438D02*
X114833333Y-133470057D01*
X115690476Y-133374819D02*
X115500000Y-133374819D01*
X115500000Y-133374819D02*
X115404762Y-133422438D01*
X115404762Y-133422438D02*
X115357143Y-133470057D01*
X115357143Y-133470057D02*
X115261905Y-133612914D01*
X115261905Y-133612914D02*
X115214286Y-133803390D01*
X115214286Y-133803390D02*
X115214286Y-134184342D01*
X115214286Y-134184342D02*
X115261905Y-134279580D01*
X115261905Y-134279580D02*
X115309524Y-134327200D01*
X115309524Y-134327200D02*
X115404762Y-134374819D01*
X115404762Y-134374819D02*
X115595238Y-134374819D01*
X115595238Y-134374819D02*
X115690476Y-134327200D01*
X115690476Y-134327200D02*
X115738095Y-134279580D01*
X115738095Y-134279580D02*
X115785714Y-134184342D01*
X115785714Y-134184342D02*
X115785714Y-133946247D01*
X115785714Y-133946247D02*
X115738095Y-133851009D01*
X115738095Y-133851009D02*
X115690476Y-133803390D01*
X115690476Y-133803390D02*
X115595238Y-133755771D01*
X115595238Y-133755771D02*
X115404762Y-133755771D01*
X115404762Y-133755771D02*
X115309524Y-133803390D01*
X115309524Y-133803390D02*
X115261905Y-133851009D01*
X115261905Y-133851009D02*
X115214286Y-133946247D01*
X118166667Y-114257200D02*
X118309524Y-114304819D01*
X118309524Y-114304819D02*
X118547619Y-114304819D01*
X118547619Y-114304819D02*
X118642857Y-114257200D01*
X118642857Y-114257200D02*
X118690476Y-114209580D01*
X118690476Y-114209580D02*
X118738095Y-114114342D01*
X118738095Y-114114342D02*
X118738095Y-114019104D01*
X118738095Y-114019104D02*
X118690476Y-113923866D01*
X118690476Y-113923866D02*
X118642857Y-113876247D01*
X118642857Y-113876247D02*
X118547619Y-113828628D01*
X118547619Y-113828628D02*
X118357143Y-113781009D01*
X118357143Y-113781009D02*
X118261905Y-113733390D01*
X118261905Y-113733390D02*
X118214286Y-113685771D01*
X118214286Y-113685771D02*
X118166667Y-113590533D01*
X118166667Y-113590533D02*
X118166667Y-113495295D01*
X118166667Y-113495295D02*
X118214286Y-113400057D01*
X118214286Y-113400057D02*
X118261905Y-113352438D01*
X118261905Y-113352438D02*
X118357143Y-113304819D01*
X118357143Y-113304819D02*
X118595238Y-113304819D01*
X118595238Y-113304819D02*
X118738095Y-113352438D01*
X119071429Y-113304819D02*
X119309524Y-114304819D01*
X119309524Y-114304819D02*
X119500000Y-113590533D01*
X119500000Y-113590533D02*
X119690476Y-114304819D01*
X119690476Y-114304819D02*
X119928572Y-113304819D01*
X120833333Y-114304819D02*
X120261905Y-114304819D01*
X120547619Y-114304819D02*
X120547619Y-113304819D01*
X120547619Y-113304819D02*
X120452381Y-113447676D01*
X120452381Y-113447676D02*
X120357143Y-113542914D01*
X120357143Y-113542914D02*
X120261905Y-113590533D01*
X137261905Y-140024819D02*
X137261905Y-139024819D01*
X137261905Y-139024819D02*
X137500000Y-139024819D01*
X137500000Y-139024819D02*
X137642857Y-139072438D01*
X137642857Y-139072438D02*
X137738095Y-139167676D01*
X137738095Y-139167676D02*
X137785714Y-139262914D01*
X137785714Y-139262914D02*
X137833333Y-139453390D01*
X137833333Y-139453390D02*
X137833333Y-139596247D01*
X137833333Y-139596247D02*
X137785714Y-139786723D01*
X137785714Y-139786723D02*
X137738095Y-139881961D01*
X137738095Y-139881961D02*
X137642857Y-139977200D01*
X137642857Y-139977200D02*
X137500000Y-140024819D01*
X137500000Y-140024819D02*
X137261905Y-140024819D01*
X138690476Y-139358152D02*
X138690476Y-140024819D01*
X138452381Y-138977200D02*
X138214286Y-139691485D01*
X138214286Y-139691485D02*
X138833333Y-139691485D01*
X121333333Y-133624819D02*
X121000000Y-133148628D01*
X120761905Y-133624819D02*
X120761905Y-132624819D01*
X120761905Y-132624819D02*
X121142857Y-132624819D01*
X121142857Y-132624819D02*
X121238095Y-132672438D01*
X121238095Y-132672438D02*
X121285714Y-132720057D01*
X121285714Y-132720057D02*
X121333333Y-132815295D01*
X121333333Y-132815295D02*
X121333333Y-132958152D01*
X121333333Y-132958152D02*
X121285714Y-133053390D01*
X121285714Y-133053390D02*
X121238095Y-133101009D01*
X121238095Y-133101009D02*
X121142857Y-133148628D01*
X121142857Y-133148628D02*
X120761905Y-133148628D01*
X122285714Y-133624819D02*
X121714286Y-133624819D01*
X122000000Y-133624819D02*
X122000000Y-132624819D01*
X122000000Y-132624819D02*
X121904762Y-132767676D01*
X121904762Y-132767676D02*
X121809524Y-132862914D01*
X121809524Y-132862914D02*
X121714286Y-132910533D01*
X133761905Y-140024819D02*
X133761905Y-139024819D01*
X133761905Y-139024819D02*
X134000000Y-139024819D01*
X134000000Y-139024819D02*
X134142857Y-139072438D01*
X134142857Y-139072438D02*
X134238095Y-139167676D01*
X134238095Y-139167676D02*
X134285714Y-139262914D01*
X134285714Y-139262914D02*
X134333333Y-139453390D01*
X134333333Y-139453390D02*
X134333333Y-139596247D01*
X134333333Y-139596247D02*
X134285714Y-139786723D01*
X134285714Y-139786723D02*
X134238095Y-139881961D01*
X134238095Y-139881961D02*
X134142857Y-139977200D01*
X134142857Y-139977200D02*
X134000000Y-140024819D01*
X134000000Y-140024819D02*
X133761905Y-140024819D01*
X134666667Y-139024819D02*
X135285714Y-139024819D01*
X135285714Y-139024819D02*
X134952381Y-139405771D01*
X134952381Y-139405771D02*
X135095238Y-139405771D01*
X135095238Y-139405771D02*
X135190476Y-139453390D01*
X135190476Y-139453390D02*
X135238095Y-139501009D01*
X135238095Y-139501009D02*
X135285714Y-139596247D01*
X135285714Y-139596247D02*
X135285714Y-139834342D01*
X135285714Y-139834342D02*
X135238095Y-139929580D01*
X135238095Y-139929580D02*
X135190476Y-139977200D01*
X135190476Y-139977200D02*
X135095238Y-140024819D01*
X135095238Y-140024819D02*
X134809524Y-140024819D01*
X134809524Y-140024819D02*
X134714286Y-139977200D01*
X134714286Y-139977200D02*
X134666667Y-139929580D01*
D12*
X102116666Y-117969593D02*
X102516666Y-117969593D01*
X102316666Y-118669593D02*
X102316666Y-117969593D01*
X102749999Y-118669593D02*
X102749999Y-117969593D01*
X102749999Y-117969593D02*
X103016666Y-117969593D01*
X103016666Y-117969593D02*
X103083333Y-118002926D01*
X103083333Y-118002926D02*
X103116666Y-118036260D01*
X103116666Y-118036260D02*
X103149999Y-118102926D01*
X103149999Y-118102926D02*
X103149999Y-118202926D01*
X103149999Y-118202926D02*
X103116666Y-118269593D01*
X103116666Y-118269593D02*
X103083333Y-118302926D01*
X103083333Y-118302926D02*
X103016666Y-118336260D01*
X103016666Y-118336260D02*
X102749999Y-118336260D01*
X103816666Y-118669593D02*
X103416666Y-118669593D01*
X103616666Y-118669593D02*
X103616666Y-117969593D01*
X103616666Y-117969593D02*
X103549999Y-118069593D01*
X103549999Y-118069593D02*
X103483333Y-118136260D01*
X103483333Y-118136260D02*
X103416666Y-118169593D01*
%TO.C,R10*%
X103762742Y-110477500D02*
X104237258Y-110477500D01*
X103762742Y-111522500D02*
X104237258Y-111522500D01*
%TO.C,R6*%
X141262742Y-137277500D02*
X141737258Y-137277500D01*
X141262742Y-138322500D02*
X141737258Y-138322500D01*
%TO.C,U4*%
X131640000Y-136290000D02*
X129040000Y-136290000D01*
X131640000Y-136640000D02*
X131640000Y-136290000D01*
X131640000Y-138960000D02*
X131640000Y-139300000D01*
X131640000Y-139300000D02*
X126550000Y-139300000D01*
X131140000Y-139300000D02*
G75*
G02*
X126940083Y-139301736I-2100000J100000D01*
G01*
%TO.C,R12*%
X103762742Y-114077500D02*
X104237258Y-114077500D01*
X103762742Y-115122500D02*
X104237258Y-115122500D01*
%TO.C,J3*%
X137890000Y-132935000D02*
X137890000Y-135435000D01*
X137890000Y-135435000D02*
X138940000Y-135435000D01*
X142940000Y-130965000D02*
X139060000Y-130965000D01*
X143060000Y-135435000D02*
X143060000Y-136425000D01*
X144110000Y-132935000D02*
X144110000Y-135435000D01*
X144110000Y-135435000D02*
X143060000Y-135435000D01*
%TO.C,C5*%
X105090000Y-131711252D02*
X105090000Y-130288748D01*
X106910000Y-131711252D02*
X106910000Y-130288748D01*
%TO.C,R4*%
X114877500Y-111837258D02*
X114877500Y-111362742D01*
X115922500Y-111837258D02*
X115922500Y-111362742D01*
%TO.C,C3*%
X121359420Y-136090000D02*
X121640580Y-136090000D01*
X121359420Y-137110000D02*
X121640580Y-137110000D01*
%TO.C,C4*%
X109859420Y-127790000D02*
X110140580Y-127790000D01*
X109859420Y-128810000D02*
X110140580Y-128810000D01*
%TO.C,SW2*%
X116750000Y-123400000D02*
X116750000Y-125400000D01*
X117800000Y-122100000D02*
X118250000Y-121650000D01*
X117800000Y-126700000D02*
X118250000Y-127150000D01*
X118250000Y-121650000D02*
X120750000Y-121650000D01*
X118250000Y-127150000D02*
X120750000Y-127150000D01*
X121200000Y-122100000D02*
X120750000Y-121650000D01*
X121200000Y-126700000D02*
X120750000Y-127150000D01*
X122250000Y-123400000D02*
X122250000Y-125400000D01*
%TO.C,L1*%
X112890000Y-129090000D02*
X117110000Y-129090000D01*
X117110000Y-133310000D02*
X112890000Y-133310000D01*
%TO.C,R3*%
X123077500Y-111837258D02*
X123077500Y-111362742D01*
X124122500Y-111837258D02*
X124122500Y-111362742D01*
%TO.C,C8*%
X134359420Y-137290000D02*
X134640580Y-137290000D01*
X134359420Y-138310000D02*
X134640580Y-138310000D01*
%TO.C,R2*%
X121262742Y-138077500D02*
X121737258Y-138077500D01*
X121262742Y-139122500D02*
X121737258Y-139122500D01*
%TO.C,C1*%
X121238748Y-129265000D02*
X121761252Y-129265000D01*
X121238748Y-130735000D02*
X121761252Y-130735000D01*
%TO.C,R8*%
X134262742Y-138877500D02*
X134737258Y-138877500D01*
X134262742Y-139922500D02*
X134737258Y-139922500D01*
%TO.C,J2*%
X114800000Y-102200000D02*
X114800000Y-100300000D01*
X114800000Y-106100000D02*
X114800000Y-104100000D01*
X124200000Y-100300000D02*
X114800000Y-100300000D01*
X124200000Y-102200000D02*
X124200000Y-100300000D01*
X124200000Y-106100000D02*
X124200000Y-104100000D01*
%TO.C,U3*%
X118590000Y-110840000D02*
X120410000Y-110840000D01*
X118590000Y-110890000D02*
X118590000Y-110840000D01*
X118590000Y-113960000D02*
X118590000Y-113910000D01*
X120410000Y-110840000D02*
X120410000Y-110890000D01*
X120410000Y-113910000D02*
X120410000Y-113960000D01*
X120410000Y-113960000D02*
X118590000Y-113960000D01*
X118050000Y-110890000D02*
X117810000Y-110560000D01*
X118290000Y-110560000D01*
X118050000Y-110890000D01*
G36*
X118050000Y-110890000D02*
G01*
X117810000Y-110560000D01*
X118290000Y-110560000D01*
X118050000Y-110890000D01*
G37*
%TO.C,D2*%
X106140000Y-137200000D02*
X106140000Y-139200000D01*
X106140000Y-137200000D02*
X110150000Y-137200000D01*
X106140000Y-139200000D02*
X110150000Y-139200000D01*
%TO.C,TP2*%
X103950000Y-123000000D02*
G75*
G02*
X102050000Y-123000000I-950000J0D01*
G01*
X102050000Y-123000000D02*
G75*
G02*
X103950000Y-123000000I950000J0D01*
G01*
%TO.C,U1*%
X125990000Y-106890000D02*
X125990000Y-125110000D01*
X126290000Y-106890000D02*
X125990000Y-106890000D01*
X126290000Y-125110000D02*
X125990000Y-125110000D01*
X146210000Y-106890000D02*
X140400000Y-106890000D01*
X146210000Y-106890000D02*
X146210000Y-125110000D01*
X146210000Y-125110000D02*
X139710000Y-125110000D01*
X140200000Y-106900000D02*
X139700000Y-106900000D01*
X139700000Y-106400000D01*
X140200000Y-106900000D01*
G36*
X140200000Y-106900000D02*
G01*
X139700000Y-106900000D01*
X139700000Y-106400000D01*
X140200000Y-106900000D01*
G37*
%TO.C,TP3*%
X103950000Y-126000000D02*
G75*
G02*
X102050000Y-126000000I-950000J0D01*
G01*
X102050000Y-126000000D02*
G75*
G02*
X103950000Y-126000000I950000J0D01*
G01*
%TO.C,U2*%
X109090000Y-129440000D02*
X110910000Y-129440000D01*
X109090000Y-129490000D02*
X109090000Y-129440000D01*
X109090000Y-132560000D02*
X109090000Y-132510000D01*
X110910000Y-129440000D02*
X110910000Y-129490000D01*
X110910000Y-132510000D02*
X110910000Y-132560000D01*
X110910000Y-132560000D02*
X109090000Y-132560000D01*
X108550000Y-129490000D02*
X108310000Y-129160000D01*
X108790000Y-129160000D01*
X108550000Y-129490000D01*
G36*
X108550000Y-129490000D02*
G01*
X108310000Y-129160000D01*
X108790000Y-129160000D01*
X108550000Y-129490000D01*
G37*
%TO.C,C7*%
X114738748Y-137465000D02*
X115261252Y-137465000D01*
X114738748Y-138935000D02*
X115261252Y-138935000D01*
%TO.C,R5*%
X137762742Y-137277500D02*
X138237258Y-137277500D01*
X137762742Y-138322500D02*
X138237258Y-138322500D01*
%TO.C,R13*%
X103762742Y-115877500D02*
X104237258Y-115877500D01*
X103762742Y-116922500D02*
X104237258Y-116922500D01*
%TO.C,TP4*%
X103950000Y-137500000D02*
G75*
G02*
X102050000Y-137500000I-950000J0D01*
G01*
X102050000Y-137500000D02*
G75*
G02*
X103950000Y-137500000I950000J0D01*
G01*
%TO.C,C2*%
X121359420Y-131890000D02*
X121640580Y-131890000D01*
X121359420Y-132910000D02*
X121640580Y-132910000D01*
%TO.C,R14*%
X134262742Y-135477500D02*
X134737258Y-135477500D01*
X134262742Y-136522500D02*
X134737258Y-136522500D01*
%TO.C,R11*%
X103762742Y-112277500D02*
X104237258Y-112277500D01*
X103762742Y-113322500D02*
X104237258Y-113322500D01*
%TO.C,R7*%
X141262742Y-138877500D02*
X141737258Y-138877500D01*
X141262742Y-139922500D02*
X141737258Y-139922500D01*
%TO.C,D1*%
X106140000Y-134200000D02*
X106140000Y-136200000D01*
X106140000Y-134200000D02*
X110150000Y-134200000D01*
X106140000Y-136200000D02*
X110150000Y-136200000D01*
%TO.C,R9*%
X137762742Y-138877500D02*
X138237258Y-138877500D01*
X137762742Y-139922500D02*
X138237258Y-139922500D01*
%TO.C,J4*%
X125620000Y-134380000D02*
X125620000Y-133000000D01*
X127000000Y-134380000D02*
X125620000Y-134380000D01*
X128270000Y-131620000D02*
X136000000Y-131620000D01*
X128270000Y-134380000D02*
X128270000Y-131620000D01*
X128270000Y-134380000D02*
X136000000Y-134380000D01*
X136000000Y-134380000D02*
X136000000Y-131620000D01*
%TO.C,C6*%
X114738748Y-134865000D02*
X115261252Y-134865000D01*
X114738748Y-136335000D02*
X115261252Y-136335000D01*
%TO.C,SW1*%
X116750000Y-116600000D02*
X116750000Y-118600000D01*
X117800000Y-115300000D02*
X118250000Y-114850000D01*
X117800000Y-119900000D02*
X118250000Y-120350000D01*
X118250000Y-114850000D02*
X120750000Y-114850000D01*
X118250000Y-120350000D02*
X120750000Y-120350000D01*
X121200000Y-115300000D02*
X120750000Y-114850000D01*
X121200000Y-119900000D02*
X120750000Y-120350000D01*
X122250000Y-116600000D02*
X122250000Y-118600000D01*
%TO.C,D4*%
X136515000Y-140265000D02*
X136515000Y-141735000D01*
X136515000Y-141735000D02*
X138800000Y-141735000D01*
X138800000Y-140265000D02*
X136515000Y-140265000D01*
%TO.C,R1*%
X121262742Y-134077500D02*
X121737258Y-134077500D01*
X121262742Y-135122500D02*
X121737258Y-135122500D01*
%TO.C,D3*%
X133015000Y-140265000D02*
X133015000Y-141735000D01*
X133015000Y-141735000D02*
X135300000Y-141735000D01*
X135300000Y-140265000D02*
X133015000Y-140265000D01*
%TO.C,TP1*%
X103950000Y-120000000D02*
G75*
G02*
X102050000Y-120000000I-950000J0D01*
G01*
X102050000Y-120000000D02*
G75*
G02*
X103950000Y-120000000I950000J0D01*
G01*
%TD*%
%LPC*%
D14*
%TO.C,R10*%
X103175000Y-111000000D03*
X104825000Y-111000000D03*
%TD*%
%TO.C,R6*%
X140675000Y-137800000D03*
X142325000Y-137800000D03*
%TD*%
D15*
%TO.C,U4*%
X126500000Y-137800000D03*
D16*
X129040000Y-137800000D03*
X131580000Y-137800000D03*
%TD*%
D14*
%TO.C,R12*%
X103175000Y-114600000D03*
X104825000Y-114600000D03*
%TD*%
D17*
%TO.C,J3*%
X142500000Y-135650000D03*
X141500000Y-135650000D03*
X140500000Y-135650000D03*
X139500000Y-135650000D03*
D18*
X143800000Y-131775000D03*
X138200000Y-131775000D03*
%TD*%
D19*
%TO.C,C5*%
X106000000Y-132475000D03*
X106000000Y-129525000D03*
%TD*%
D20*
%TO.C,R4*%
X115400000Y-112425000D03*
X115400000Y-110775000D03*
%TD*%
D21*
%TO.C,C3*%
X120725000Y-136600000D03*
X122275000Y-136600000D03*
%TD*%
%TO.C,C4*%
X109225000Y-128300000D03*
X110775000Y-128300000D03*
%TD*%
D22*
%TO.C,SW2*%
X116350000Y-122500000D03*
X122650000Y-122500000D03*
X116350000Y-126300000D03*
X122650000Y-126300000D03*
%TD*%
D23*
%TO.C,L1*%
X113500000Y-131200000D03*
X116500000Y-131200000D03*
%TD*%
D20*
%TO.C,R3*%
X123600000Y-112425000D03*
X123600000Y-110775000D03*
%TD*%
D21*
%TO.C,C8*%
X133725000Y-137800000D03*
X135275000Y-137800000D03*
%TD*%
D14*
%TO.C,R2*%
X120675000Y-138600000D03*
X122325000Y-138600000D03*
%TD*%
D24*
%TO.C,C1*%
X120550000Y-130000000D03*
X122450000Y-130000000D03*
%TD*%
D14*
%TO.C,R8*%
X133675000Y-139400000D03*
X135325000Y-139400000D03*
%TD*%
D25*
%TO.C,J2*%
X122390000Y-106800000D03*
X116610000Y-106800000D03*
D26*
X122750000Y-108245000D03*
X121950000Y-108245000D03*
D27*
X120750000Y-108245000D03*
X119750000Y-108245000D03*
X119250000Y-108245000D03*
X118250000Y-108245000D03*
D26*
X117050000Y-108245000D03*
X116250000Y-108245000D03*
X116250000Y-108245000D03*
X117050000Y-108245000D03*
D27*
X117750000Y-108245000D03*
X118750000Y-108245000D03*
X120250000Y-108245000D03*
X121250000Y-108245000D03*
D26*
X121950000Y-108245000D03*
X122750000Y-108245000D03*
D28*
X123820000Y-107330000D03*
D29*
X123820000Y-103150000D03*
D28*
X115180000Y-107330000D03*
D29*
X115180000Y-103150000D03*
%TD*%
D30*
%TO.C,U3*%
X118362500Y-111450000D03*
X118362500Y-112400000D03*
X118362500Y-113350000D03*
X120637500Y-113350000D03*
X120637500Y-112400000D03*
X120637500Y-111450000D03*
%TD*%
D31*
%TO.C,D2*%
X106850000Y-138200000D03*
X110150000Y-138200000D03*
%TD*%
D32*
%TO.C,TP2*%
X103000000Y-123000000D03*
%TD*%
D33*
%TO.C,U1*%
X139000000Y-107250000D03*
X137500000Y-107250000D03*
X136000000Y-107250000D03*
X134500000Y-107250000D03*
X133000000Y-107250000D03*
X131500000Y-107250000D03*
X130000000Y-107250000D03*
X128500000Y-107250000D03*
X127000000Y-107250000D03*
X127000000Y-124750000D03*
X128500000Y-124750000D03*
X130000000Y-124750000D03*
X131500000Y-124750000D03*
X133000000Y-124750000D03*
X134500000Y-124750000D03*
X136000000Y-124750000D03*
X137500000Y-124750000D03*
X139000000Y-124750000D03*
D34*
X133350000Y-115860000D03*
X132250000Y-115860000D03*
X133900000Y-116410000D03*
X132800000Y-116410000D03*
X131700000Y-116410000D03*
X133350000Y-116960000D03*
D35*
X132800000Y-116960000D03*
D34*
X132250000Y-116960000D03*
X133900000Y-117510000D03*
X132800000Y-117510000D03*
X131700000Y-117510000D03*
X133350000Y-118060000D03*
X132250000Y-118060000D03*
%TD*%
D32*
%TO.C,TP3*%
X103000000Y-126000000D03*
%TD*%
D30*
%TO.C,U2*%
X108862500Y-130050000D03*
X108862500Y-131000000D03*
X108862500Y-131950000D03*
X111137500Y-131950000D03*
X111137500Y-131000000D03*
X111137500Y-130050000D03*
%TD*%
D24*
%TO.C,C7*%
X114050000Y-138200000D03*
X115950000Y-138200000D03*
%TD*%
D36*
%TO.C,H1*%
X148500000Y-139500000D03*
%TD*%
D14*
%TO.C,R5*%
X137175000Y-137800000D03*
X138825000Y-137800000D03*
%TD*%
%TO.C,R13*%
X103175000Y-116400000D03*
X104825000Y-116400000D03*
%TD*%
D32*
%TO.C,TP4*%
X103000000Y-137500000D03*
%TD*%
D21*
%TO.C,C2*%
X120725000Y-132400000D03*
X122275000Y-132400000D03*
%TD*%
D14*
%TO.C,R14*%
X133675000Y-136000000D03*
X135325000Y-136000000D03*
%TD*%
%TO.C,R11*%
X103175000Y-112800000D03*
X104825000Y-112800000D03*
%TD*%
%TO.C,R7*%
X140675000Y-139400000D03*
X142325000Y-139400000D03*
%TD*%
D31*
%TO.C,D1*%
X106850000Y-135200000D03*
X110150000Y-135200000D03*
%TD*%
D14*
%TO.C,R9*%
X137175000Y-139400000D03*
X138825000Y-139400000D03*
%TD*%
D37*
%TO.C,J4*%
X127000000Y-133000000D03*
D38*
X129540000Y-133000000D03*
X132080000Y-133000000D03*
X134620000Y-133000000D03*
%TD*%
D24*
%TO.C,C6*%
X114050000Y-135600000D03*
X115950000Y-135600000D03*
%TD*%
D22*
%TO.C,SW1*%
X116350000Y-115700000D03*
X122650000Y-115700000D03*
X116350000Y-119500000D03*
X122650000Y-119500000D03*
%TD*%
D39*
%TO.C,D4*%
X137212500Y-141000000D03*
X138787500Y-141000000D03*
%TD*%
D14*
%TO.C,R1*%
X120675000Y-134600000D03*
X122325000Y-134600000D03*
%TD*%
D39*
%TO.C,D3*%
X133712500Y-141000000D03*
X135287500Y-141000000D03*
%TD*%
D32*
%TO.C,TP1*%
X103000000Y-120000000D03*
%TD*%
D37*
%TO.C,J1*%
X111000000Y-106000000D03*
D38*
X108460000Y-106000000D03*
X111000000Y-108540000D03*
X108460000Y-108540000D03*
X111000000Y-111080000D03*
X108460000Y-111080000D03*
X111000000Y-113620000D03*
X108460000Y-113620000D03*
X111000000Y-116160000D03*
X108460000Y-116160000D03*
X111000000Y-118700000D03*
X108460000Y-118700000D03*
X111000000Y-121240000D03*
X108460000Y-121240000D03*
X111000000Y-123780000D03*
X108460000Y-123780000D03*
%TD*%
%LPD*%
M02*
