%TF.GenerationSoftware,KiCad,Pcbnew,9.0.9*%
%TF.CreationDate,2026-10-02T06:36:33+00:00*%
%TF.ProjectId,AP1_Programador,4150315f-5072-46f6-9772-616d61646f72,rev?*%
%TF.SameCoordinates,Original*%
%TF.FileFunction,Copper,L1,Top*%
%TF.FilePolarity,Positive*%
%FSLAX46Y46*%
G04 Gerber Fmt 4.6, Leading zero omitted, Abs format (unit mm)*
G04 Created by KiCad (PCBNEW 9.0.9) date 2026-10-02 06:36:33*
%MOMM*%
%LPD*%
G01*
G04 APERTURE LIST*
G04 Aperture macros list*
%AMRoundRect*
0 Rectangle with rounded corners*
0 $1 Rounding radius*
0 $2 $3 $4 $5 $6 $7 $8 $9 X,Y pos of 4 corners*
0 Add a 4 corners polygon primitive as box body*
4,1,4,$2,$3,$4,$5,$6,$7,$8,$9,$2,$3,0*
0 Add four circle primitives for the rounded corners*
1,1,$1+$1,$2,$3*
1,1,$1+$1,$4,$5*
1,1,$1+$1,$6,$7*
1,1,$1+$1,$8,$9*
0 Add four rect primitives between the rounded corners*
20,1,$1+$1,$2,$3,$4,$5,0*
20,1,$1+$1,$4,$5,$6,$7,0*
20,1,$1+$1,$6,$7,$8,$9,0*
20,1,$1+$1,$8,$9,$2,$3,0*%
G04 Aperture macros list end*
%TA.AperFunction,SMDPad,CuDef*%
%ADD10RoundRect,0.200000X-0.200000X-0.275000X0.200000X-0.275000X0.200000X0.275000X-0.200000X0.275000X0*%
%TD*%
%TA.AperFunction,SMDPad,CuDef*%
%ADD11RoundRect,0.225000X-0.225000X-0.250000X0.225000X-0.250000X0.225000X0.250000X-0.225000X0.250000X0*%
%TD*%
%TA.AperFunction,SMDPad,CuDef*%
%ADD12RoundRect,0.150000X-0.512500X-0.150000X0.512500X-0.150000X0.512500X0.150000X-0.512500X0.150000X0*%
%TD*%
%TA.AperFunction,SMDPad,CuDef*%
%ADD13C,1.500000*%
%TD*%
%TA.AperFunction,SMDPad,CuDef*%
%ADD14RoundRect,0.250000X-0.250000X-0.475000X0.250000X-0.475000X0.250000X0.475000X-0.250000X0.475000X0*%
%TD*%
%TA.AperFunction,ComponentPad*%
%ADD15RoundRect,0.250200X-0.649800X-0.649800X0.649800X-0.649800X0.649800X0.649800X-0.649800X0.649800X0*%
%TD*%
%TA.AperFunction,ComponentPad*%
%ADD16C,1.800000*%
%TD*%
%TA.AperFunction,SMDPad,CuDef*%
%ADD17RoundRect,0.225000X-0.225000X-0.375000X0.225000X-0.375000X0.225000X0.375000X-0.225000X0.375000X0*%
%TD*%
%TA.AperFunction,SMDPad,CuDef*%
%ADD18RoundRect,0.218750X-0.218750X-0.256250X0.218750X-0.256250X0.218750X0.256250X-0.218750X0.256250X0*%
%TD*%
%TA.AperFunction,SMDPad,CuDef*%
%ADD19R,0.900000X1.500000*%
%TD*%
%TA.AperFunction,HeatsinkPad*%
%ADD20C,0.600000*%
%TD*%
%TA.AperFunction,HeatsinkPad*%
%ADD21R,2.900000X2.900000*%
%TD*%
%TA.AperFunction,SMDPad,CuDef*%
%ADD22R,1.000000X0.750000*%
%TD*%
%TA.AperFunction,SMDPad,CuDef*%
%ADD23RoundRect,0.250000X0.650000X-0.325000X0.650000X0.325000X-0.650000X0.325000X-0.650000X-0.325000X0*%
%TD*%
%TA.AperFunction,SMDPad,CuDef*%
%ADD24RoundRect,0.250000X-0.300000X-1.600000X0.300000X-1.600000X0.300000X1.600000X-0.300000X1.600000X0*%
%TD*%
%TA.AperFunction,SMDPad,CuDef*%
%ADD25RoundRect,0.200000X0.275000X-0.200000X0.275000X0.200000X-0.275000X0.200000X-0.275000X-0.200000X0*%
%TD*%
%TA.AperFunction,ComponentPad*%
%ADD26R,1.700000X1.700000*%
%TD*%
%TA.AperFunction,ComponentPad*%
%ADD27C,1.700000*%
%TD*%
%TA.AperFunction,SMDPad,CuDef*%
%ADD28RoundRect,0.150000X0.150000X0.625000X-0.150000X0.625000X-0.150000X-0.625000X0.150000X-0.625000X0*%
%TD*%
%TA.AperFunction,SMDPad,CuDef*%
%ADD29RoundRect,0.250000X0.350000X0.650000X-0.350000X0.650000X-0.350000X-0.650000X0.350000X-0.650000X0*%
%TD*%
%TA.AperFunction,SMDPad,CuDef*%
%ADD30R,0.600000X1.450000*%
%TD*%
%TA.AperFunction,SMDPad,CuDef*%
%ADD31R,0.300000X1.450000*%
%TD*%
%TA.AperFunction,HeatsinkPad*%
%ADD32O,1.000000X2.100000*%
%TD*%
%TA.AperFunction,HeatsinkPad*%
%ADD33O,1.000000X1.600000*%
%TD*%
%TA.AperFunction,ViaPad*%
%ADD34C,0.600000*%
%TD*%
%TA.AperFunction,Conductor*%
%ADD35C,0.500000*%
%TD*%
%TA.AperFunction,Conductor*%
%ADD36C,0.250000*%
%TD*%
%TA.AperFunction,Conductor*%
%ADD37C,0.187400*%
%TD*%
%TA.AperFunction,Conductor*%
%ADD38C,0.375000*%
%TD*%
G04 APERTURE END LIST*
D10*
%TO.P,R8,1*%
%TO.N,/3V3*%
X133675000Y-139400000D03*
%TO.P,R8,2*%
%TO.N,/LEDRA*%
X135325000Y-139400000D03*
%TD*%
D11*
%TO.P,C8,1*%
%TO.N,/IRV*%
X133725000Y-137800000D03*
%TO.P,C8,2*%
%TO.N,/GND*%
X135275000Y-137800000D03*
%TD*%
D10*
%TO.P,R6,1*%
%TO.N,/3V3*%
X140675000Y-137800000D03*
%TO.P,R6,2*%
%TO.N,/SCL*%
X142325000Y-137800000D03*
%TD*%
D12*
%TO.P,U2,1*%
%TO.N,/3V3*%
X108862500Y-130050000D03*
%TO.P,U2,2*%
%TO.N,/VLOG*%
X108862500Y-131000000D03*
%TO.P,U2,3*%
X108862500Y-131950000D03*
%TO.P,U2,4*%
%TO.N,/GND*%
X111137500Y-131950000D03*
%TO.P,U2,5*%
%TO.N,/SWP*%
X111137500Y-131000000D03*
%TO.P,U2,6*%
%TO.N,/BSTP*%
X111137500Y-130050000D03*
%TD*%
D13*
%TO.P,TP3,1*%
%TO.N,/EN*%
X103000000Y-126000000D03*
%TD*%
D14*
%TO.P,C6,1*%
%TO.N,/3V3*%
X114050000Y-135600000D03*
%TO.P,C6,2*%
%TO.N,/GND*%
X115950000Y-135600000D03*
%TD*%
D10*
%TO.P,R11,1*%
%TO.N,/PWM2*%
X103175000Y-112800000D03*
%TO.P,R11,2*%
%TO.N,/GND*%
X104825000Y-112800000D03*
%TD*%
D15*
%TO.P,U4,1*%
%TO.N,/IR*%
X126500000Y-137800000D03*
D16*
%TO.P,U4,2*%
%TO.N,/GND*%
X129040000Y-137800000D03*
%TO.P,U4,3*%
%TO.N,/IRV*%
X131580000Y-137800000D03*
%TD*%
D10*
%TO.P,R13,1*%
%TO.N,/PWM4*%
X103175000Y-116400000D03*
%TO.P,R13,2*%
%TO.N,/GND*%
X104825000Y-116400000D03*
%TD*%
D13*
%TO.P,TP2,1*%
%TO.N,/GND*%
X103000000Y-123000000D03*
%TD*%
D17*
%TO.P,D1,1*%
%TO.N,/VLOG*%
X106850000Y-135200000D03*
%TO.P,D1,2*%
%TO.N,/V12*%
X110150000Y-135200000D03*
%TD*%
D10*
%TO.P,R1,1*%
%TO.N,/3V3*%
X120675000Y-134600000D03*
%TO.P,R1,2*%
%TO.N,/EN*%
X122325000Y-134600000D03*
%TD*%
D18*
%TO.P,D3,1*%
%TO.N,/ALERT*%
X133712500Y-141000000D03*
%TO.P,D3,2*%
%TO.N,/LEDRA*%
X135287500Y-141000000D03*
%TD*%
D10*
%TO.P,R10,1*%
%TO.N,/PWM1*%
X103175000Y-111000000D03*
%TO.P,R10,2*%
%TO.N,/GND*%
X104825000Y-111000000D03*
%TD*%
D17*
%TO.P,D2,1*%
%TO.N,/VLOG*%
X106850000Y-138200000D03*
%TO.P,D2,2*%
%TO.N,/VBUS*%
X110150000Y-138200000D03*
%TD*%
D11*
%TO.P,C2,1*%
%TO.N,/3V3*%
X120725000Y-132400000D03*
%TO.P,C2,2*%
%TO.N,/GND*%
X122275000Y-132400000D03*
%TD*%
D19*
%TO.P,U1,1*%
%TO.N,/3V3*%
X139000000Y-107250000D03*
%TO.P,U1,2*%
%TO.N,/EN*%
X137500000Y-107250000D03*
%TO.P,U1,3*%
%TO.N,/PWM1*%
X136000000Y-107250000D03*
%TO.P,U1,4*%
%TO.N,/PWM2*%
X134500000Y-107250000D03*
%TO.P,U1,5*%
%TO.N,/PWM3*%
X133000000Y-107250000D03*
%TO.P,U1,6*%
%TO.N,/PWM4*%
X131500000Y-107250000D03*
%TO.P,U1,7*%
%TO.N,/SCL*%
X130000000Y-107250000D03*
%TO.P,U1,8*%
%TO.N,/BOOT*%
X128500000Y-107250000D03*
%TO.P,U1,9*%
%TO.N,/GND*%
X127000000Y-107250000D03*
%TO.P,U1,10*%
%TO.N,/CC1*%
X127000000Y-124750000D03*
%TO.P,U1,11*%
%TO.N,/ALERT*%
X128500000Y-124750000D03*
%TO.P,U1,12*%
%TO.N,/LEDV*%
X130000000Y-124750000D03*
%TO.P,U1,13*%
%TO.N,/USB_DN*%
X131500000Y-124750000D03*
%TO.P,U1,14*%
%TO.N,/USB_DP*%
X133000000Y-124750000D03*
%TO.P,U1,15*%
%TO.N,/IR*%
X134500000Y-124750000D03*
%TO.P,U1,16*%
%TO.N,/SDA*%
X136000000Y-124750000D03*
%TO.P,U1,17*%
%TO.N,/AUX*%
X137500000Y-124750000D03*
%TO.P,U1,18*%
%TO.N,/CC2*%
X139000000Y-124750000D03*
D20*
%TO.P,U1,19*%
%TO.N,/GND*%
X133400000Y-116360000D03*
X132200000Y-116360000D03*
D21*
X132800000Y-116960000D03*
D20*
X133400000Y-117560000D03*
X132200000Y-117560000D03*
%TD*%
D22*
%TO.P,SW2,1*%
%TO.N,/EN*%
X116500000Y-122525000D03*
X122500000Y-122525000D03*
%TO.P,SW2,2*%
%TO.N,/GND*%
X116500000Y-126275000D03*
X122500000Y-126275000D03*
%TD*%
D18*
%TO.P,D4,1*%
%TO.N,/GND*%
X137212500Y-141000000D03*
%TO.P,D4,2*%
%TO.N,/LEDVA*%
X138787500Y-141000000D03*
%TD*%
D10*
%TO.P,R2,1*%
%TO.N,/3V3*%
X120675000Y-138600000D03*
%TO.P,R2,2*%
%TO.N,/BOOT*%
X122325000Y-138600000D03*
%TD*%
D23*
%TO.P,C5,1*%
%TO.N,/VLOG*%
X106000000Y-132475000D03*
%TO.P,C5,2*%
%TO.N,/GND*%
X106000000Y-129525000D03*
%TD*%
D24*
%TO.P,L1,1*%
%TO.N,/SWP*%
X113500000Y-131200000D03*
%TO.P,L1,2*%
%TO.N,/3V3*%
X116500000Y-131200000D03*
%TD*%
D25*
%TO.P,R3,1*%
%TO.N,/CC1U*%
X123600000Y-112425000D03*
%TO.P,R3,2*%
%TO.N,/GND*%
X123600000Y-110775000D03*
%TD*%
D10*
%TO.P,R5,1*%
%TO.N,/3V3*%
X137175000Y-137800000D03*
%TO.P,R5,2*%
%TO.N,/SDA*%
X138825000Y-137800000D03*
%TD*%
D11*
%TO.P,C3,1*%
%TO.N,/EN*%
X120725000Y-136600000D03*
%TO.P,C3,2*%
%TO.N,/GND*%
X122275000Y-136600000D03*
%TD*%
D10*
%TO.P,R7,1*%
%TO.N,/3V3*%
X140675000Y-139400000D03*
%TO.P,R7,2*%
%TO.N,/ALERT*%
X142325000Y-139400000D03*
%TD*%
D14*
%TO.P,C7,1*%
%TO.N,/3V3*%
X114050000Y-138200000D03*
%TO.P,C7,2*%
%TO.N,/GND*%
X115950000Y-138200000D03*
%TD*%
D26*
%TO.P,J4,1*%
%TO.N,/3V3*%
X127000000Y-133000000D03*
D27*
%TO.P,J4,2*%
%TO.N,/GND*%
X129540000Y-133000000D03*
%TO.P,J4,3*%
%TO.N,/IR*%
X132080000Y-133000000D03*
%TO.P,J4,4*%
%TO.N,/BOOT*%
X134620000Y-133000000D03*
%TD*%
D10*
%TO.P,R12,1*%
%TO.N,/PWM3*%
X103175000Y-114600000D03*
%TO.P,R12,2*%
%TO.N,/GND*%
X104825000Y-114600000D03*
%TD*%
D22*
%TO.P,SW1,1*%
%TO.N,/BOOT*%
X116500000Y-115725000D03*
X122500000Y-115725000D03*
%TO.P,SW1,2*%
%TO.N,/GND*%
X116500000Y-119475000D03*
X122500000Y-119475000D03*
%TD*%
D13*
%TO.P,TP4,1*%
%TO.N,/BOOT*%
X103000000Y-137500000D03*
%TD*%
D14*
%TO.P,C1,1*%
%TO.N,/3V3*%
X120550000Y-130000000D03*
%TO.P,C1,2*%
%TO.N,/GND*%
X122450000Y-130000000D03*
%TD*%
D25*
%TO.P,R4,1*%
%TO.N,/CC2U*%
X115400000Y-112425000D03*
%TO.P,R4,2*%
%TO.N,/GND*%
X115400000Y-110775000D03*
%TD*%
D28*
%TO.P,J3,1*%
%TO.N,/GND*%
X142500000Y-135650000D03*
%TO.P,J3,2*%
%TO.N,/3V3*%
X141500000Y-135650000D03*
%TO.P,J3,3*%
%TO.N,/SDA*%
X140500000Y-135650000D03*
%TO.P,J3,4*%
%TO.N,/SCL*%
X139500000Y-135650000D03*
D29*
%TO.P,J3,MP*%
%TO.N,/GND*%
X143800000Y-131775000D03*
X138200000Y-131775000D03*
%TD*%
D10*
%TO.P,R14,1*%
%TO.N,/3V3*%
X133675000Y-136000000D03*
%TO.P,R14,2*%
%TO.N,/IRV*%
X135325000Y-136000000D03*
%TD*%
D12*
%TO.P,U3,1*%
%TO.N,/USB_DN*%
X118362500Y-111450000D03*
%TO.P,U3,2*%
%TO.N,/GND*%
X118362500Y-112400000D03*
%TO.P,U3,3*%
%TO.N,/USB_DP*%
X118362500Y-113350000D03*
%TO.P,U3,4*%
X120637500Y-113350000D03*
%TO.P,U3,5*%
%TO.N,/VBUS*%
X120637500Y-112400000D03*
%TO.P,U3,6*%
%TO.N,/USB_DN*%
X120637500Y-111450000D03*
%TD*%
D10*
%TO.P,R9,1*%
%TO.N,/LEDV*%
X137175000Y-139400000D03*
%TO.P,R9,2*%
%TO.N,/LEDVA*%
X138825000Y-139400000D03*
%TD*%
D30*
%TO.P,J2,A1*%
%TO.N,/GND*%
X122750000Y-108245000D03*
%TO.P,J2,A4*%
%TO.N,/VBUS*%
X121950000Y-108245000D03*
D31*
%TO.P,J2,A5*%
%TO.N,/CC1U*%
X120750000Y-108245000D03*
%TO.P,J2,A6*%
%TO.N,/USB_DP*%
X119750000Y-108245000D03*
%TO.P,J2,A7*%
%TO.N,/USB_DN*%
X119250000Y-108245000D03*
%TO.P,J2,A8*%
%TO.N,unconnected-(J2-SBU1-PadA8)*%
X118250000Y-108245000D03*
D30*
%TO.P,J2,A9*%
%TO.N,/VBUS*%
X117050000Y-108245000D03*
%TO.P,J2,A12*%
%TO.N,/GND*%
X116250000Y-108245000D03*
%TO.P,J2,B1*%
X116250000Y-108245000D03*
%TO.P,J2,B4*%
%TO.N,/VBUS*%
X117050000Y-108245000D03*
D31*
%TO.P,J2,B5*%
%TO.N,/CC2U*%
X117750000Y-108245000D03*
%TO.P,J2,B6*%
%TO.N,/USB_DP*%
X118750000Y-108245000D03*
%TO.P,J2,B7*%
%TO.N,/USB_DN*%
X120250000Y-108245000D03*
%TO.P,J2,B8*%
%TO.N,unconnected-(J2-SBU2-PadB8)*%
X121250000Y-108245000D03*
D30*
%TO.P,J2,B9*%
%TO.N,/VBUS*%
X121950000Y-108245000D03*
%TO.P,J2,B12*%
%TO.N,/GND*%
X122750000Y-108245000D03*
D32*
%TO.P,J2,S1*%
X123820000Y-107330000D03*
D33*
X123820000Y-103150000D03*
D32*
X115180000Y-107330000D03*
D33*
X115180000Y-103150000D03*
%TD*%
D13*
%TO.P,TP1,1*%
%TO.N,/3V3*%
X103000000Y-120000000D03*
%TD*%
D11*
%TO.P,C4,1*%
%TO.N,/BSTP*%
X109225000Y-128300000D03*
%TO.P,C4,2*%
%TO.N,/SWP*%
X110775000Y-128300000D03*
%TD*%
D26*
%TO.P,J1,1*%
%TO.N,/V12*%
X111000000Y-106000000D03*
D27*
%TO.P,J1,2*%
X108460000Y-106000000D03*
%TO.P,J1,3*%
%TO.N,/GND*%
X111000000Y-108540000D03*
%TO.P,J1,4*%
X108460000Y-108540000D03*
%TO.P,J1,5*%
%TO.N,/PWM1*%
X111000000Y-111080000D03*
%TO.P,J1,6*%
%TO.N,/PWM2*%
X108460000Y-111080000D03*
%TO.P,J1,7*%
%TO.N,/PWM3*%
X111000000Y-113620000D03*
%TO.P,J1,8*%
%TO.N,/PWM4*%
X108460000Y-113620000D03*
%TO.P,J1,9*%
%TO.N,/CC1*%
X111000000Y-116160000D03*
%TO.P,J1,10*%
%TO.N,/CC2*%
X108460000Y-116160000D03*
%TO.P,J1,11*%
%TO.N,/SDA*%
X111000000Y-118700000D03*
%TO.P,J1,12*%
%TO.N,/SCL*%
X108460000Y-118700000D03*
%TO.P,J1,13*%
%TO.N,/ALERT*%
X111000000Y-121240000D03*
%TO.P,J1,14*%
%TO.N,/AUX*%
X108460000Y-121240000D03*
%TO.P,J1,15*%
%TO.N,/3V3*%
X111000000Y-123780000D03*
%TO.P,J1,16*%
%TO.N,/GND*%
X108460000Y-123780000D03*
%TD*%
D34*
%TO.N,/3V3*%
X138269000Y-109784000D03*
X138381000Y-135097000D03*
X106605000Y-120939000D03*
X108105000Y-129185000D03*
X132900000Y-140172000D03*
%TO.N,/EN*%
X123246000Y-134419000D03*
X120777000Y-122525000D03*
X120777000Y-125407000D03*
X123565000Y-115885000D03*
%TO.N,/PWM1*%
X103977000Y-110218000D03*
%TO.N,/PWM3*%
X104067000Y-115376000D03*
X120518000Y-106010000D03*
%TO.N,/PWM4*%
X112778000Y-112006000D03*
X112232000Y-104798000D03*
%TO.N,/SCL*%
X138689000Y-136060000D03*
X129997000Y-108538000D03*
X143240000Y-137712000D03*
%TO.N,/BOOT*%
X127827000Y-108519000D03*
X124300000Y-138012000D03*
X122602000Y-141057000D03*
X127920000Y-116879000D03*
%TO.N,/CC1*%
X115577000Y-123229000D03*
%TO.N,/ALERT*%
X132273000Y-141082000D03*
X129623000Y-126004000D03*
X139736000Y-140783000D03*
%TO.N,/LEDV*%
X131040000Y-126002000D03*
X136233000Y-137618000D03*
%TO.N,/USB_DN*%
X127794000Y-123496000D03*
X124191000Y-113344000D03*
%TO.N,/USB_DP*%
X118100000Y-109473000D03*
X117013000Y-124706000D03*
X117193000Y-113133000D03*
%TO.N,/SDA*%
X139647000Y-130451000D03*
X113102000Y-121726000D03*
X139734000Y-137800000D03*
%TO.N,/VBUS*%
X117050000Y-110191000D03*
X121879000Y-109499000D03*
X112474000Y-137880000D03*
X121832000Y-112602000D03*
%TO.N,/CC2U*%
X117774000Y-107014000D03*
X113773000Y-111015000D03*
%TO.N,/V12*%
X109100000Y-135474000D03*
%TD*%
D35*
%TO.N,/3V3*%
X120675000Y-138600000D02*
X119800000Y-137725000D01*
X120675000Y-138600000D02*
X122247000Y-140172000D01*
X120725000Y-132400000D02*
X119969000Y-131644000D01*
X103939000Y-120939000D02*
X103000000Y-120000000D01*
X115252000Y-139402000D02*
X114050000Y-138200000D01*
X108105000Y-129185000D02*
X108862000Y-129943000D01*
X122247000Y-140172000D02*
X132900000Y-140172000D01*
X140675000Y-137800000D02*
X141500000Y-136975000D01*
X130000000Y-136000000D02*
X127000000Y-133000000D01*
X125698000Y-133000000D02*
X125323000Y-133375000D01*
X132903000Y-140172000D02*
X132900000Y-140172000D01*
X138381000Y-135097000D02*
X137175000Y-136302000D01*
X120550000Y-131062000D02*
X120550000Y-130000000D01*
X140675000Y-137800000D02*
X140675000Y-139400000D01*
X120725000Y-133375000D02*
X120725000Y-132400000D01*
X116500000Y-131200000D02*
X116944000Y-131644000D01*
X138269000Y-109784000D02*
X139000000Y-109053000D01*
X120675000Y-138600000D02*
X119873000Y-139402000D01*
X110000000Y-130563000D02*
X110000000Y-132352000D01*
X127000000Y-133000000D02*
X125698000Y-133000000D01*
X114050000Y-138200000D02*
X114050000Y-135600000D01*
X138381000Y-135097000D02*
X139118000Y-134359000D01*
X116944000Y-131644000D02*
X119969000Y-131644000D01*
X139000000Y-109053000D02*
X139000000Y-107250000D01*
X106605000Y-120939000D02*
X103939000Y-120939000D01*
X133675000Y-139400000D02*
X132903000Y-140172000D01*
X139118000Y-134359000D02*
X140860000Y-134359000D01*
X110000000Y-132352000D02*
X113248000Y-135600000D01*
X120725000Y-134550000D02*
X120725000Y-133375000D01*
X133675000Y-136000000D02*
X130000000Y-136000000D01*
X113248000Y-135600000D02*
X114050000Y-135600000D01*
X119969000Y-131644000D02*
X120550000Y-131062000D01*
X109487000Y-130050000D02*
X110000000Y-130563000D01*
X141500000Y-134999000D02*
X141500000Y-135650000D01*
X120675000Y-134600000D02*
X120725000Y-134550000D01*
X119873000Y-139402000D02*
X115252000Y-139402000D01*
X119800000Y-135475000D02*
X120675000Y-134600000D01*
X137175000Y-136302000D02*
X137175000Y-137800000D01*
X141500000Y-136975000D02*
X141500000Y-135650000D01*
X108862500Y-130050000D02*
X108862000Y-130050000D01*
X108862000Y-130050000D02*
X109487000Y-130050000D01*
X140860000Y-134359000D02*
X141500000Y-134999000D01*
X125323000Y-133375000D02*
X120725000Y-133375000D01*
X119800000Y-137725000D02*
X119800000Y-135475000D01*
X108862000Y-129943000D02*
X108862000Y-130050000D01*
D36*
%TO.N,/EN*%
X103000000Y-126000000D02*
X101893000Y-124893000D01*
X102594000Y-121883000D02*
X103543000Y-121883000D01*
X104170000Y-122510000D02*
X108919000Y-122510000D01*
X129942000Y-115885000D02*
X123565000Y-115885000D01*
X137500000Y-108327000D02*
X129942000Y-115885000D01*
X108919000Y-122510000D02*
X109823000Y-123414000D01*
X101893000Y-122584000D02*
X102594000Y-121883000D01*
X103543000Y-121883000D02*
X104170000Y-122510000D01*
X123246000Y-134419000D02*
X122506000Y-134419000D01*
X120777000Y-125406000D02*
X120777000Y-125407000D01*
X120725000Y-136200000D02*
X122325000Y-134600000D01*
X109823000Y-124267000D02*
X110962000Y-125406000D01*
X110962000Y-125406000D02*
X120777000Y-125406000D01*
X137500000Y-107250000D02*
X137500000Y-108327000D01*
X116500000Y-122525000D02*
X120777000Y-122525000D01*
X120725000Y-136600000D02*
X120725000Y-136200000D01*
X101893000Y-124893000D02*
X101893000Y-122584000D01*
X109823000Y-123414000D02*
X109823000Y-124267000D01*
X120777000Y-122525000D02*
X122500000Y-122525000D01*
X122506000Y-134419000D02*
X122325000Y-134600000D01*
%TO.N,/PWM1*%
X129428000Y-114898000D02*
X136000000Y-108327000D01*
X114724000Y-114898000D02*
X129428000Y-114898000D01*
X103957000Y-110218000D02*
X103175000Y-111000000D01*
X136000000Y-107250000D02*
X136000000Y-108327000D01*
X103977000Y-110218000D02*
X103957000Y-110218000D01*
X111000000Y-111080000D02*
X111000000Y-111174000D01*
X111000000Y-111174000D02*
X114724000Y-114898000D01*
%TO.N,/PWM2*%
X110513000Y-107363000D02*
X109730000Y-108146000D01*
X114668000Y-105372000D02*
X112677000Y-107363000D01*
X109730000Y-108146000D02*
X109730000Y-109810000D01*
X109730000Y-109810000D02*
X108460000Y-111080000D01*
X104118000Y-111857000D02*
X103175000Y-112800000D01*
X112677000Y-107363000D02*
X110513000Y-107363000D01*
X134500000Y-106173000D02*
X133699000Y-105372000D01*
X108460000Y-111080000D02*
X107683000Y-111857000D01*
X133699000Y-105372000D02*
X114668000Y-105372000D01*
X107683000Y-111857000D02*
X104118000Y-111857000D01*
X134500000Y-107250000D02*
X134500000Y-106173000D01*
%TO.N,/PWM3*%
X120666000Y-105863000D02*
X132689000Y-105863000D01*
X103175000Y-114600000D02*
X103951000Y-115376000D01*
X132689000Y-105863000D02*
X133000000Y-106173000D01*
X103951000Y-115376000D02*
X104067000Y-115376000D01*
X133000000Y-107250000D02*
X133000000Y-106173000D01*
X120518000Y-106010000D02*
X120666000Y-105863000D01*
%TO.N,/PWM4*%
X131500000Y-108327000D02*
X125387000Y-114440000D01*
X115211000Y-114440000D02*
X112778000Y-112006000D01*
X125387000Y-114440000D02*
X115211000Y-114440000D01*
X103175000Y-116400000D02*
X101940000Y-115165000D01*
X101940000Y-110271000D02*
X107413000Y-104798000D01*
X101940000Y-115165000D02*
X101940000Y-110271000D01*
X131500000Y-107250000D02*
X131500000Y-108327000D01*
X107413000Y-104798000D02*
X112232000Y-104798000D01*
%TO.N,/SCL*%
X110564000Y-109837000D02*
X109823000Y-110577000D01*
X139090000Y-136060000D02*
X139500000Y-135650000D01*
X129997000Y-108538000D02*
X124547000Y-113988000D01*
X107272000Y-117512000D02*
X108460000Y-118700000D01*
X142413000Y-137712000D02*
X142325000Y-137800000D01*
X143240000Y-137712000D02*
X142413000Y-137712000D01*
X108891000Y-112350000D02*
X108063000Y-112350000D01*
X130000000Y-107250000D02*
X130000000Y-108327000D01*
X109823000Y-110577000D02*
X109823000Y-111418000D01*
X111495000Y-109837000D02*
X110564000Y-109837000D01*
X107272000Y-113142000D02*
X107272000Y-117512000D01*
X109823000Y-111418000D02*
X108891000Y-112350000D01*
X115646000Y-113988000D02*
X111495000Y-109837000D01*
X129997000Y-108330000D02*
X130000000Y-108327000D01*
X124547000Y-113988000D02*
X115646000Y-113988000D01*
X138689000Y-136060000D02*
X139090000Y-136060000D01*
X129997000Y-108538000D02*
X129997000Y-108330000D01*
X108063000Y-112350000D02*
X107272000Y-113142000D01*
%TO.N,/BOOT*%
X106557000Y-141057000D02*
X122602000Y-141057000D01*
X123260000Y-116879000D02*
X122500000Y-116118000D01*
X128500000Y-108327000D02*
X128019000Y-108327000D01*
X124300000Y-138012000D02*
X122913000Y-138012000D01*
X128019000Y-108327000D02*
X127827000Y-108519000D01*
X128500000Y-107250000D02*
X128500000Y-108327000D01*
X122913000Y-138012000D02*
X122325000Y-138600000D01*
X127920000Y-116879000D02*
X123260000Y-116879000D01*
X116500000Y-115725000D02*
X117327000Y-115725000D01*
X122500000Y-115725000D02*
X122500000Y-116118000D01*
X103000000Y-137500000D02*
X106557000Y-141057000D01*
X122500000Y-116118000D02*
X117720000Y-116118000D01*
X117720000Y-116118000D02*
X117327000Y-115725000D01*
%TO.N,/GND*%
X115400000Y-110775000D02*
X116250000Y-109925000D01*
X104825000Y-109541000D02*
X104825000Y-111000000D01*
X104825000Y-116400000D02*
X104825000Y-114600000D01*
X136078000Y-136553000D02*
X135275000Y-137355000D01*
X130737000Y-134197000D02*
X135974000Y-134197000D01*
X113970000Y-108540000D02*
X115180000Y-107330000D01*
X111138000Y-131950000D02*
X112615000Y-133428000D01*
X115180000Y-103150000D02*
X123820000Y-103150000D01*
X105826000Y-108540000D02*
X104825000Y-109541000D01*
X123820000Y-107330000D02*
X124817000Y-108327000D01*
X127000000Y-107250000D02*
X127000000Y-108327000D01*
X136078000Y-134300000D02*
X136078000Y-136553000D01*
X102423000Y-113269000D02*
X102800000Y-113646000D01*
X124817000Y-108327000D02*
X127000000Y-108327000D01*
X127765000Y-136525000D02*
X122350000Y-136525000D01*
X115000000Y-128933000D02*
X121383000Y-128933000D01*
X115000000Y-126275000D02*
X115000000Y-128933000D01*
X101410000Y-125999000D02*
X104146000Y-128735000D01*
X121383000Y-128933000D02*
X122450000Y-130000000D01*
X122450000Y-131756000D02*
X128296000Y-131756000D01*
X108460000Y-123780000D02*
X103780000Y-123780000D01*
X115400000Y-110775000D02*
X117025000Y-112400000D01*
X115000000Y-128933000D02*
X115000000Y-133428000D01*
X117025000Y-112400000D02*
X118362000Y-112400000D01*
X118362000Y-112400000D02*
X118362500Y-112400000D01*
X106000000Y-128735000D02*
X108460000Y-126275000D01*
X108460000Y-126275000D02*
X115000000Y-126275000D01*
X136414000Y-138938000D02*
X136414000Y-140201000D01*
X115950000Y-134378000D02*
X115950000Y-135600000D01*
X108460000Y-108540000D02*
X105826000Y-108540000D01*
X111137500Y-131950000D02*
X111138000Y-131950000D01*
X115000000Y-126275000D02*
X116500000Y-126275000D01*
X104825000Y-116400000D02*
X101410000Y-119815000D01*
X104825000Y-114600000D02*
X104825000Y-113646000D01*
X122500000Y-119475000D02*
X122500000Y-118773000D01*
X142500000Y-131775000D02*
X142500000Y-135650000D01*
X122905000Y-110080000D02*
X122905000Y-108245000D01*
X123763000Y-117510000D02*
X122500000Y-118773000D01*
X131700000Y-117510000D02*
X123763000Y-117510000D01*
X138200000Y-131775000D02*
X135974000Y-134001000D01*
X123600000Y-110775000D02*
X122905000Y-110080000D01*
X122450000Y-130000000D02*
X122450000Y-131756000D01*
X135974000Y-134197000D02*
X136078000Y-134300000D01*
X115950000Y-138200000D02*
X115950000Y-135600000D01*
X103349000Y-109541000D02*
X102423000Y-110468000D01*
X122275000Y-131931000D02*
X122450000Y-131756000D01*
X135275000Y-137800000D02*
X136414000Y-138938000D01*
X122350000Y-136525000D02*
X122275000Y-136600000D01*
X116250000Y-108245000D02*
X115335000Y-107330000D01*
X115335000Y-107330000D02*
X115180000Y-107330000D01*
X122275000Y-132400000D02*
X122275000Y-131931000D01*
X115000000Y-133428000D02*
X115950000Y-134378000D01*
X129540000Y-133000000D02*
X130737000Y-134197000D01*
X108460000Y-126275000D02*
X108460000Y-123780000D01*
X136414000Y-140201000D02*
X137212000Y-141000000D01*
X122500000Y-119475000D02*
X116500000Y-119475000D01*
X104825000Y-109541000D02*
X103349000Y-109541000D01*
X103780000Y-123780000D02*
X103000000Y-123000000D01*
X135275000Y-137355000D02*
X135275000Y-137800000D01*
X138200000Y-131775000D02*
X142500000Y-131775000D01*
X129040000Y-137800000D02*
X127765000Y-136525000D01*
X121383000Y-128933000D02*
X122500000Y-127817000D01*
X106000000Y-129525000D02*
X106000000Y-128735000D01*
X104146000Y-128735000D02*
X106000000Y-128735000D01*
X102800000Y-113646000D02*
X104825000Y-113646000D01*
X122905000Y-108245000D02*
X122750000Y-108245000D01*
X102423000Y-110468000D02*
X102423000Y-113269000D01*
X122500000Y-127817000D02*
X122500000Y-126275000D01*
X112615000Y-133428000D02*
X115000000Y-133428000D01*
X111000000Y-108540000D02*
X113970000Y-108540000D01*
X135974000Y-134001000D02*
X135974000Y-134197000D01*
X101410000Y-119815000D02*
X101410000Y-125999000D01*
X142500000Y-131775000D02*
X143800000Y-131775000D01*
X128296000Y-131756000D02*
X129540000Y-133000000D01*
X123820000Y-107330000D02*
X122905000Y-108245000D01*
X104825000Y-113646000D02*
X104825000Y-112800000D01*
X116250000Y-109925000D02*
X116250000Y-108245000D01*
X137212500Y-141000000D02*
X137212000Y-141000000D01*
%TO.N,/CC1*%
X126555000Y-123229000D02*
X115577000Y-123229000D01*
X127000000Y-123673000D02*
X126555000Y-123229000D01*
X127000000Y-124750000D02*
X127000000Y-123673000D01*
%TO.N,/ALERT*%
X142325000Y-139400000D02*
X140942000Y-140783000D01*
X133712500Y-141000000D02*
X133712000Y-141000000D01*
X125531000Y-125827000D02*
X128500000Y-125827000D01*
X133631000Y-141082000D02*
X132273000Y-141082000D01*
X113638000Y-123878000D02*
X123582000Y-123878000D01*
X111000000Y-121240000D02*
X113638000Y-123878000D01*
X140942000Y-140783000D02*
X139736000Y-140783000D01*
X133712000Y-141000000D02*
X133631000Y-141082000D01*
X129446000Y-125827000D02*
X129623000Y-126004000D01*
X128500000Y-125827000D02*
X129446000Y-125827000D01*
X128500000Y-124750000D02*
X128500000Y-125827000D01*
X123582000Y-123878000D02*
X125531000Y-125827000D01*
D37*
%TO.N,/LEDV*%
X137175000Y-138912000D02*
X137046000Y-138912000D01*
D36*
X131040000Y-126002000D02*
X130000000Y-124962000D01*
D37*
X137046000Y-138912000D02*
X136233000Y-138099000D01*
D36*
X130000000Y-124962000D02*
X130000000Y-124750000D01*
X137175000Y-138912000D02*
X137175000Y-139400000D01*
D37*
X136233000Y-138099000D02*
X136233000Y-137618000D01*
D36*
%TO.N,/USB_DN*%
X120250000Y-108245000D02*
X120250000Y-107193000D01*
X121571000Y-111450000D02*
X122511000Y-112390000D01*
X122511000Y-112390000D02*
X122511000Y-112596000D01*
X131500000Y-123673000D02*
X127972000Y-123673000D01*
X131500000Y-124750000D02*
X131500000Y-123673000D01*
X122511000Y-112596000D02*
X123259000Y-113344000D01*
X119250000Y-108245000D02*
X119250000Y-107193000D01*
X120638000Y-111450000D02*
X120250000Y-111450000D01*
X120250000Y-111450000D02*
X120250000Y-108245000D01*
X120638000Y-111450000D02*
X121571000Y-111450000D01*
X120250000Y-107193000D02*
X119250000Y-107193000D01*
X123259000Y-113344000D02*
X124191000Y-113344000D01*
X127972000Y-123673000D02*
X127794000Y-123496000D01*
X120250000Y-111450000D02*
X118362000Y-111450000D01*
%TO.N,/USB_DP*%
X118750000Y-109297000D02*
X118276000Y-109297000D01*
X119750000Y-108245000D02*
X119750000Y-109297000D01*
X132194000Y-126633000D02*
X133000000Y-125827000D01*
X118750000Y-108245000D02*
X118750000Y-109297000D01*
X133000000Y-124750000D02*
X133000000Y-125827000D01*
X118362000Y-113350000D02*
X120638000Y-113350000D01*
X119750000Y-109297000D02*
X118750000Y-109297000D01*
X125246000Y-126633000D02*
X132194000Y-126633000D01*
X118276000Y-109297000D02*
X118100000Y-109473000D01*
X123319000Y-124706000D02*
X125246000Y-126633000D01*
X117193000Y-113133000D02*
X118146000Y-113133000D01*
X118146000Y-113133000D02*
X118362000Y-113350000D01*
X117013000Y-124706000D02*
X123319000Y-124706000D01*
%TO.N,/IR*%
X134500000Y-130580000D02*
X132080000Y-133000000D01*
X134500000Y-124750000D02*
X134500000Y-130580000D01*
%TO.N,/SDA*%
X136000000Y-124750000D02*
X136000000Y-126805000D01*
X134053000Y-121726000D02*
X113102000Y-121726000D01*
X136000000Y-123673000D02*
X134053000Y-121726000D01*
X136000000Y-126805000D02*
X139647000Y-130451000D01*
X140500000Y-136461000D02*
X140500000Y-135650000D01*
X139734000Y-137800000D02*
X139734000Y-137227000D01*
X138825000Y-137800000D02*
X139734000Y-137800000D01*
X136000000Y-124750000D02*
X136000000Y-123673000D01*
X139734000Y-137227000D02*
X140500000Y-136461000D01*
%TO.N,/AUX*%
X137500000Y-124750000D02*
X137500000Y-123673000D01*
X109667000Y-120033000D02*
X112294000Y-120033000D01*
X112294000Y-120033000D02*
X113312000Y-121051000D01*
X108460000Y-121240000D02*
X109667000Y-120033000D01*
X134878000Y-121051000D02*
X137500000Y-123673000D01*
X113312000Y-121051000D02*
X134878000Y-121051000D01*
%TO.N,/CC2*%
X135503000Y-120177000D02*
X139000000Y-123673000D01*
X114216000Y-120177000D02*
X135503000Y-120177000D01*
X109730000Y-117430000D02*
X111469000Y-117430000D01*
X111469000Y-117430000D02*
X114216000Y-120177000D01*
X139000000Y-124750000D02*
X139000000Y-123673000D01*
X108460000Y-116160000D02*
X109730000Y-117430000D01*
D35*
%TO.N,/VBUS*%
X110470000Y-137880000D02*
X110150000Y-138200000D01*
X121950000Y-109428000D02*
X121879000Y-109499000D01*
X120637500Y-112400000D02*
X120638000Y-112400000D01*
X112474000Y-137880000D02*
X110470000Y-137880000D01*
D38*
X120638000Y-112400000D02*
X120840000Y-112602000D01*
X120840000Y-112602000D02*
X121832000Y-112602000D01*
D35*
X117050000Y-110191000D02*
X117050000Y-108245000D01*
X121950000Y-108245000D02*
X121950000Y-109428000D01*
D36*
%TO.N,/CC1U*%
X120750000Y-109297000D02*
X122039000Y-110585000D01*
X122039000Y-110585000D02*
X122300000Y-110585000D01*
D37*
X122799000Y-111271000D02*
X122799000Y-111085000D01*
D36*
X123600000Y-112072000D02*
X122799000Y-111271000D01*
X123600000Y-112425000D02*
X123600000Y-112072000D01*
D37*
X122799000Y-111085000D02*
X122300000Y-110585000D01*
D36*
X120750000Y-108245000D02*
X120750000Y-109297000D01*
%TO.N,/CC2U*%
X115400000Y-112425000D02*
X115182000Y-112425000D01*
X115182000Y-112425000D02*
X113773000Y-111015000D01*
X117750000Y-108245000D02*
X117750000Y-107193000D01*
X117750000Y-107193000D02*
X117750000Y-107038000D01*
X117750000Y-107038000D02*
X117774000Y-107014000D01*
D35*
%TO.N,/VLOG*%
X108862500Y-131000000D02*
X108862000Y-131000000D01*
X106850000Y-135200000D02*
X106850000Y-132475000D01*
X108862000Y-131950000D02*
X108862000Y-131000000D01*
X106000000Y-132475000D02*
X106850000Y-132475000D01*
X106850000Y-132475000D02*
X108338000Y-132475000D01*
X106850000Y-135200000D02*
X106850000Y-138200000D01*
X108338000Y-132475000D02*
X108862000Y-131950000D01*
X108862500Y-131950000D02*
X108862000Y-131950000D01*
%TO.N,/V12*%
X109876000Y-135474000D02*
X110150000Y-135200000D01*
X108460000Y-106000000D02*
X111000000Y-106000000D01*
X109100000Y-135474000D02*
X109876000Y-135474000D01*
%TO.N,/SWP*%
X112286000Y-129643000D02*
X112286000Y-131000000D01*
X112286000Y-131000000D02*
X113300000Y-131000000D01*
X111138000Y-131000000D02*
X112286000Y-131000000D01*
X111138000Y-131000000D02*
X111137500Y-131000000D01*
X113300000Y-131000000D02*
X113500000Y-131200000D01*
X110775000Y-128300000D02*
X110943000Y-128300000D01*
X110943000Y-128300000D02*
X112286000Y-129643000D01*
D36*
%TO.N,/BSTP*%
X111138000Y-130050000D02*
X109388000Y-128300000D01*
X109388000Y-128300000D02*
X109225000Y-128300000D01*
%TO.N,/LEDRA*%
X135287500Y-141000000D02*
X135288000Y-141000000D01*
X135288000Y-141000000D02*
X135325000Y-140962000D01*
X135325000Y-140962000D02*
X135325000Y-139400000D01*
%TO.N,/LEDVA*%
X138788000Y-141000000D02*
X138788000Y-139438000D01*
X138787500Y-141000000D02*
X138788000Y-141000000D01*
X138788000Y-139438000D02*
X138825000Y-139400000D01*
%TO.N,/IRV*%
X133725000Y-137600000D02*
X135325000Y-136000000D01*
X131580000Y-137800000D02*
X133725000Y-137800000D01*
X133725000Y-137800000D02*
X133725000Y-137600000D01*
%TD*%
%TA.AperFunction,Conductor*%
%TO.N,/GND*%
G36*
X150004418Y-100300816D02*
G01*
X150233020Y-100317165D01*
X150250529Y-100319683D01*
X150470144Y-100367458D01*
X150487103Y-100372437D01*
X150697694Y-100450983D01*
X150713777Y-100458327D01*
X150911034Y-100566039D01*
X150911036Y-100566040D01*
X150925919Y-100575605D01*
X151105836Y-100710289D01*
X151119206Y-100721874D01*
X151278124Y-100880792D01*
X151289710Y-100894163D01*
X151424394Y-101074080D01*
X151433959Y-101088963D01*
X151541669Y-101286217D01*
X151549019Y-101302311D01*
X151627559Y-101512887D01*
X151632543Y-101529862D01*
X151680316Y-101749470D01*
X151682834Y-101766982D01*
X151699184Y-101995581D01*
X151699500Y-102004427D01*
X151699500Y-139995572D01*
X151699184Y-140004419D01*
X151682833Y-140233019D01*
X151680315Y-140250529D01*
X151680315Y-140250530D01*
X151632544Y-140470133D01*
X151627560Y-140487109D01*
X151549016Y-140697691D01*
X151541666Y-140713783D01*
X151433961Y-140911032D01*
X151424396Y-140925917D01*
X151289708Y-141105838D01*
X151278123Y-141119207D01*
X151119208Y-141278122D01*
X151105838Y-141289708D01*
X150925917Y-141424396D01*
X150911032Y-141433961D01*
X150713783Y-141541666D01*
X150697691Y-141549016D01*
X150487109Y-141627560D01*
X150470136Y-141632543D01*
X150470133Y-141632544D01*
X150250530Y-141680315D01*
X150233019Y-141682833D01*
X150027138Y-141697559D01*
X150004417Y-141699184D01*
X149995572Y-141699500D01*
X139570304Y-141699500D01*
X139503265Y-141679815D01*
X139457510Y-141627011D01*
X139447566Y-141557853D01*
X139460071Y-141521048D01*
X139460003Y-141521022D01*
X139460560Y-141519608D01*
X139462220Y-141514724D01*
X139463112Y-141513136D01*
X139463112Y-141513135D01*
X139463115Y-141513132D01*
X139487288Y-141451831D01*
X139530193Y-141396690D01*
X139596101Y-141373497D01*
X139634732Y-141377548D01*
X139656943Y-141383500D01*
X139656945Y-141383500D01*
X139815055Y-141383500D01*
X139815057Y-141383500D01*
X139967784Y-141342577D01*
X140104716Y-141263520D01*
X140123417Y-141244819D01*
X140184740Y-141211334D01*
X140211098Y-141208500D01*
X140998016Y-141208500D01*
X140998018Y-141208500D01*
X141106237Y-141179503D01*
X141203263Y-141123485D01*
X142114928Y-140211817D01*
X142176251Y-140178333D01*
X142202609Y-140175499D01*
X142572871Y-140175499D01*
X142572872Y-140175499D01*
X142632483Y-140169091D01*
X142767331Y-140118796D01*
X142882546Y-140032546D01*
X142968796Y-139917331D01*
X143019091Y-139782483D01*
X143025500Y-139722873D01*
X143025499Y-139381995D01*
X146699500Y-139381995D01*
X146699500Y-139618004D01*
X146699501Y-139618020D01*
X146730306Y-139852010D01*
X146791394Y-140079993D01*
X146881714Y-140298045D01*
X146881719Y-140298056D01*
X146928480Y-140379047D01*
X146999727Y-140502450D01*
X146999729Y-140502453D01*
X146999730Y-140502454D01*
X147143406Y-140689697D01*
X147143412Y-140689704D01*
X147310295Y-140856587D01*
X147310302Y-140856593D01*
X147381249Y-140911032D01*
X147497550Y-141000273D01*
X147628918Y-141076118D01*
X147701943Y-141118280D01*
X147701948Y-141118282D01*
X147701951Y-141118284D01*
X147920007Y-141208606D01*
X148147986Y-141269693D01*
X148381989Y-141300500D01*
X148381996Y-141300500D01*
X148618004Y-141300500D01*
X148618011Y-141300500D01*
X148852014Y-141269693D01*
X149079993Y-141208606D01*
X149298049Y-141118284D01*
X149502450Y-141000273D01*
X149689699Y-140856592D01*
X149856592Y-140689699D01*
X150000273Y-140502450D01*
X150118284Y-140298049D01*
X150208606Y-140079993D01*
X150269693Y-139852014D01*
X150300500Y-139618011D01*
X150300500Y-139381989D01*
X150269693Y-139147986D01*
X150208606Y-138920007D01*
X150118284Y-138701951D01*
X150118282Y-138701948D01*
X150118280Y-138701943D01*
X150072456Y-138622575D01*
X150000273Y-138497550D01*
X149901946Y-138369407D01*
X149856593Y-138310302D01*
X149856587Y-138310295D01*
X149689704Y-138143412D01*
X149689697Y-138143406D01*
X149502454Y-137999730D01*
X149502453Y-137999729D01*
X149502450Y-137999727D01*
X149416320Y-137950000D01*
X149298056Y-137881719D01*
X149298045Y-137881714D01*
X149079993Y-137791394D01*
X148852010Y-137730306D01*
X148618020Y-137699501D01*
X148618017Y-137699500D01*
X148618011Y-137699500D01*
X148381989Y-137699500D01*
X148381983Y-137699500D01*
X148381979Y-137699501D01*
X148147989Y-137730306D01*
X147920006Y-137791394D01*
X147701954Y-137881714D01*
X147701943Y-137881719D01*
X147497545Y-137999730D01*
X147310302Y-138143406D01*
X147310295Y-138143412D01*
X147143412Y-138310295D01*
X147143406Y-138310302D01*
X146999730Y-138497545D01*
X146881719Y-138701943D01*
X146881714Y-138701954D01*
X146791394Y-138920006D01*
X146730306Y-139147989D01*
X146699501Y-139381979D01*
X146699500Y-139381995D01*
X143025499Y-139381995D01*
X143025499Y-139077128D01*
X143019091Y-139017517D01*
X143011583Y-138997388D01*
X142968797Y-138882671D01*
X142968793Y-138882664D01*
X142911824Y-138806564D01*
X142882546Y-138767454D01*
X142791457Y-138699265D01*
X142749588Y-138643333D01*
X142744604Y-138573641D01*
X142778089Y-138512318D01*
X142791452Y-138500738D01*
X142882546Y-138432546D01*
X142953617Y-138337606D01*
X143009550Y-138295737D01*
X143079242Y-138290753D01*
X143084937Y-138292134D01*
X143160943Y-138312500D01*
X143160946Y-138312500D01*
X143319055Y-138312500D01*
X143319057Y-138312500D01*
X143471784Y-138271577D01*
X143608716Y-138192520D01*
X143720520Y-138080716D01*
X143799577Y-137943784D01*
X143840500Y-137791057D01*
X143840500Y-137632943D01*
X143799577Y-137480216D01*
X143783667Y-137452658D01*
X143720524Y-137343290D01*
X143720518Y-137343282D01*
X143608717Y-137231481D01*
X143608709Y-137231475D01*
X143471790Y-137152426D01*
X143471786Y-137152424D01*
X143471784Y-137152423D01*
X143319057Y-137111500D01*
X143160943Y-137111500D01*
X143008216Y-137152423D01*
X143008211Y-137152425D01*
X142996761Y-137159036D01*
X142978035Y-137163578D01*
X142961120Y-137172815D01*
X142944778Y-137171645D01*
X142928861Y-137175507D01*
X142910651Y-137169204D01*
X142891428Y-137167829D01*
X142865028Y-137153413D01*
X142862834Y-137152654D01*
X142860451Y-137150914D01*
X142809085Y-137112461D01*
X142767215Y-137056527D01*
X142762231Y-136986836D01*
X142795717Y-136925513D01*
X142848803Y-136894118D01*
X142910197Y-136876281D01*
X143051552Y-136792685D01*
X143051561Y-136792678D01*
X143167678Y-136676561D01*
X143167685Y-136676552D01*
X143251282Y-136535196D01*
X143251283Y-136535193D01*
X143297099Y-136377495D01*
X143297100Y-136377489D01*
X143299999Y-136340649D01*
X143300000Y-136340634D01*
X143300000Y-135900000D01*
X142624000Y-135900000D01*
X142556961Y-135880315D01*
X142511206Y-135827511D01*
X142500000Y-135776000D01*
X142500000Y-135650000D01*
X142374000Y-135650000D01*
X142306961Y-135630315D01*
X142261206Y-135577511D01*
X142250000Y-135526000D01*
X142250000Y-135400000D01*
X142750000Y-135400000D01*
X143300000Y-135400000D01*
X143300000Y-134959365D01*
X143299999Y-134959350D01*
X143297100Y-134922510D01*
X143297099Y-134922504D01*
X143251283Y-134764806D01*
X143251282Y-134764803D01*
X143167685Y-134623447D01*
X143167678Y-134623438D01*
X143051561Y-134507321D01*
X143051552Y-134507314D01*
X142910196Y-134423717D01*
X142910193Y-134423716D01*
X142752494Y-134377900D01*
X142752497Y-134377900D01*
X142750000Y-134377703D01*
X142750000Y-135400000D01*
X142250000Y-135400000D01*
X142250000Y-134377703D01*
X142247503Y-134377900D01*
X142089806Y-134423716D01*
X142089803Y-134423717D01*
X141948442Y-134507317D01*
X141943811Y-134510910D01*
X141878773Y-134536443D01*
X141810256Y-134522760D01*
X141780133Y-134500609D01*
X141556659Y-134277135D01*
X141198015Y-133918490D01*
X141152069Y-133891963D01*
X141072482Y-133846014D01*
X141071960Y-133845874D01*
X141071960Y-133845875D01*
X141002521Y-133827269D01*
X140932475Y-133808500D01*
X140932474Y-133808500D01*
X139190284Y-133808500D01*
X139190101Y-133808451D01*
X139117627Y-133808500D01*
X139045525Y-133808500D01*
X139045514Y-133808500D01*
X139045154Y-133808548D01*
X138975477Y-133827269D01*
X138975398Y-133827290D01*
X138912605Y-133844115D01*
X138905523Y-133846014D01*
X138905504Y-133846019D01*
X138905202Y-133846143D01*
X138905182Y-133846151D01*
X138842278Y-133882525D01*
X138841800Y-133882801D01*
X138779985Y-133918491D01*
X138779852Y-133918623D01*
X138779687Y-133918719D01*
X138779639Y-133918766D01*
X138779637Y-133918768D01*
X138728097Y-133970375D01*
X138728098Y-133970376D01*
X138728043Y-133970430D01*
X138728041Y-133970434D01*
X138727335Y-133971139D01*
X138726569Y-133971905D01*
X138677491Y-134020985D01*
X138677400Y-134021140D01*
X138671608Y-134026941D01*
X138671601Y-134026950D01*
X138188171Y-134511035D01*
X138155846Y-134532652D01*
X138156254Y-134533359D01*
X138012287Y-134616477D01*
X138012282Y-134616481D01*
X137900481Y-134728282D01*
X137900479Y-134728285D01*
X137879396Y-134764803D01*
X137821423Y-134865216D01*
X137821422Y-134865218D01*
X137817361Y-134872253D01*
X137816687Y-134871864D01*
X137794986Y-134904324D01*
X136842756Y-135855764D01*
X136842755Y-135855763D01*
X136837075Y-135861437D01*
X136836985Y-135861491D01*
X136788032Y-135910442D01*
X136786720Y-135911754D01*
X136786489Y-135911985D01*
X136734623Y-135963808D01*
X136734498Y-135963972D01*
X136699578Y-136024456D01*
X136699553Y-136024500D01*
X136662101Y-136089305D01*
X136662018Y-136089504D01*
X136643074Y-136160206D01*
X136643061Y-136160255D01*
X136624531Y-136229297D01*
X136624530Y-136229409D01*
X136624500Y-136229525D01*
X136624500Y-136302959D01*
X136624470Y-136374246D01*
X136624500Y-136374358D01*
X136624500Y-136939619D01*
X136604815Y-137006658D01*
X136552011Y-137052413D01*
X136482853Y-137062357D01*
X136468407Y-137059394D01*
X136464784Y-137058423D01*
X136312057Y-137017500D01*
X136153943Y-137017500D01*
X136153941Y-137017500D01*
X136096007Y-137033023D01*
X136026157Y-137031360D01*
X135993642Y-137015413D01*
X135811538Y-136890156D01*
X135791364Y-136865346D01*
X135769989Y-136841581D01*
X135769475Y-136838426D01*
X135767459Y-136835946D01*
X135763902Y-136804171D01*
X135758768Y-136772619D01*
X135760041Y-136769687D01*
X135759686Y-136766510D01*
X135773873Y-136737853D01*
X135786611Y-136708537D01*
X135789959Y-136705360D01*
X135790686Y-136703894D01*
X135792914Y-136702558D01*
X135807497Y-136688727D01*
X135882546Y-136632546D01*
X135968796Y-136517331D01*
X136019091Y-136382483D01*
X136025500Y-136322873D01*
X136025499Y-135677128D01*
X136019091Y-135617517D01*
X136018576Y-135616137D01*
X135968797Y-135482671D01*
X135968793Y-135482664D01*
X135882547Y-135367455D01*
X135882544Y-135367452D01*
X135767335Y-135281206D01*
X135767328Y-135281202D01*
X135632486Y-135230910D01*
X135632485Y-135230909D01*
X135632483Y-135230909D01*
X135572873Y-135224500D01*
X135572863Y-135224500D01*
X135077129Y-135224500D01*
X135077123Y-135224501D01*
X135017516Y-135230908D01*
X134882671Y-135281202D01*
X134882664Y-135281206D01*
X134767455Y-135367452D01*
X134767452Y-135367455D01*
X134681206Y-135482664D01*
X134681202Y-135482671D01*
X134630908Y-135617517D01*
X134624501Y-135677116D01*
X134624501Y-135677123D01*
X134624500Y-135677135D01*
X134624500Y-136047389D01*
X134615845Y-136076863D01*
X134609302Y-136106870D01*
X134605573Y-136111846D01*
X134604815Y-136114428D01*
X134588137Y-136135114D01*
X134587136Y-136136114D01*
X134525797Y-136169568D01*
X134456107Y-136164549D01*
X134400195Y-136122650D01*
X134375811Y-136057173D01*
X134375499Y-136048405D01*
X134375499Y-135677128D01*
X134369091Y-135617517D01*
X134368576Y-135616137D01*
X134318797Y-135482671D01*
X134318793Y-135482664D01*
X134232547Y-135367455D01*
X134232544Y-135367452D01*
X134117335Y-135281206D01*
X134117328Y-135281202D01*
X133982486Y-135230910D01*
X133982485Y-135230909D01*
X133982483Y-135230909D01*
X133922873Y-135224500D01*
X133922863Y-135224500D01*
X133427129Y-135224500D01*
X133427123Y-135224501D01*
X133367516Y-135230908D01*
X133232671Y-135281202D01*
X133232664Y-135281206D01*
X133117457Y-135367451D01*
X133117449Y-135367458D01*
X133093232Y-135399810D01*
X133037299Y-135441682D01*
X132993965Y-135449500D01*
X130279386Y-135449500D01*
X130212347Y-135429815D01*
X130191705Y-135413181D01*
X129340120Y-134561596D01*
X129306635Y-134500273D01*
X129311619Y-134430581D01*
X129353491Y-134374648D01*
X129418955Y-134350231D01*
X129428881Y-134350266D01*
X129428881Y-134350000D01*
X129646246Y-134350000D01*
X129856127Y-134316757D01*
X129856130Y-134316757D01*
X130058217Y-134251095D01*
X130247554Y-134154622D01*
X130301716Y-134115270D01*
X130301717Y-134115270D01*
X129669408Y-133482962D01*
X129732993Y-133465925D01*
X129847007Y-133400099D01*
X129940099Y-133307007D01*
X130005925Y-133192993D01*
X130022962Y-133129408D01*
X130655270Y-133761717D01*
X130655270Y-133761716D01*
X130694622Y-133707554D01*
X130791095Y-133518217D01*
X130800492Y-133489295D01*
X130839928Y-133431618D01*
X130904286Y-133404419D01*
X130973133Y-133416331D01*
X131024610Y-133463574D01*
X131028908Y-133471314D01*
X131096004Y-133602995D01*
X131202441Y-133749494D01*
X131202445Y-133749499D01*
X131330500Y-133877554D01*
X131330505Y-133877558D01*
X131414358Y-133938480D01*
X131477006Y-133983996D01*
X131570930Y-134031853D01*
X131638360Y-134066211D01*
X131638363Y-134066212D01*
X131720296Y-134092833D01*
X131810591Y-134122171D01*
X131893429Y-134135291D01*
X131989449Y-134150500D01*
X131989454Y-134150500D01*
X132170551Y-134150500D01*
X132257259Y-134136765D01*
X132349409Y-134122171D01*
X132521639Y-134066211D01*
X132682994Y-133983996D01*
X132829501Y-133877553D01*
X132957553Y-133749501D01*
X133063996Y-133602994D01*
X133146211Y-133441639D01*
X133202171Y-133269409D01*
X133225160Y-133124263D01*
X133227527Y-133109321D01*
X133257456Y-133046186D01*
X133316768Y-133009255D01*
X133386630Y-133010253D01*
X133444863Y-133048863D01*
X133472473Y-133109321D01*
X133497829Y-133269410D01*
X133553787Y-133441636D01*
X133553788Y-133441639D01*
X133636006Y-133602997D01*
X133742441Y-133749494D01*
X133742445Y-133749499D01*
X133870500Y-133877554D01*
X133870505Y-133877558D01*
X133954358Y-133938480D01*
X134017006Y-133983996D01*
X134110930Y-134031853D01*
X134178360Y-134066211D01*
X134178363Y-134066212D01*
X134260296Y-134092833D01*
X134350591Y-134122171D01*
X134433429Y-134135291D01*
X134529449Y-134150500D01*
X134529454Y-134150500D01*
X134710551Y-134150500D01*
X134797259Y-134136765D01*
X134889409Y-134122171D01*
X135061639Y-134066211D01*
X135222994Y-133983996D01*
X135369501Y-133877553D01*
X135497553Y-133749501D01*
X135603996Y-133602994D01*
X135686211Y-133441639D01*
X135742171Y-133269409D01*
X135765160Y-133124263D01*
X135770500Y-133090551D01*
X135770500Y-132909448D01*
X135749162Y-132774733D01*
X135742171Y-132730591D01*
X135698530Y-132596275D01*
X135686212Y-132558363D01*
X135686211Y-132558360D01*
X135643729Y-132474986D01*
X137100001Y-132474986D01*
X137110494Y-132577697D01*
X137165641Y-132744119D01*
X137165643Y-132744124D01*
X137257684Y-132893345D01*
X137381654Y-133017315D01*
X137530875Y-133109356D01*
X137530880Y-133109358D01*
X137697302Y-133164505D01*
X137697309Y-133164506D01*
X137800019Y-133174999D01*
X137949999Y-133174999D01*
X138450000Y-133174999D01*
X138599972Y-133174999D01*
X138599986Y-133174998D01*
X138702697Y-133164505D01*
X138869119Y-133109358D01*
X138869124Y-133109356D01*
X139018345Y-133017315D01*
X139142315Y-132893345D01*
X139234356Y-132744124D01*
X139234358Y-132744119D01*
X139289505Y-132577697D01*
X139289506Y-132577690D01*
X139299999Y-132474986D01*
X142700001Y-132474986D01*
X142710494Y-132577697D01*
X142765641Y-132744119D01*
X142765643Y-132744124D01*
X142857684Y-132893345D01*
X142981654Y-133017315D01*
X143130875Y-133109356D01*
X143130880Y-133109358D01*
X143297302Y-133164505D01*
X143297309Y-133164506D01*
X143400019Y-133174999D01*
X143549999Y-133174999D01*
X144050000Y-133174999D01*
X144199972Y-133174999D01*
X144199986Y-133174998D01*
X144302697Y-133164505D01*
X144469119Y-133109358D01*
X144469124Y-133109356D01*
X144618345Y-133017315D01*
X144742315Y-132893345D01*
X144834356Y-132744124D01*
X144834358Y-132744119D01*
X144889505Y-132577697D01*
X144889506Y-132577690D01*
X144899999Y-132474986D01*
X144900000Y-132474973D01*
X144900000Y-132025000D01*
X144050000Y-132025000D01*
X144050000Y-133174999D01*
X143549999Y-133174999D01*
X143550000Y-133174998D01*
X143550000Y-132025000D01*
X142700001Y-132025000D01*
X142700001Y-132474986D01*
X139299999Y-132474986D01*
X139300000Y-132474973D01*
X139300000Y-132025000D01*
X138450000Y-132025000D01*
X138450000Y-133174999D01*
X137949999Y-133174999D01*
X137950000Y-133174998D01*
X137950000Y-132025000D01*
X137100001Y-132025000D01*
X137100001Y-132474986D01*
X135643729Y-132474986D01*
X135643722Y-132474973D01*
X135603996Y-132397006D01*
X135587052Y-132373685D01*
X135497558Y-132250505D01*
X135497554Y-132250500D01*
X135369499Y-132122445D01*
X135369494Y-132122441D01*
X135302783Y-132073972D01*
X135302760Y-132073957D01*
X135222993Y-132016003D01*
X135061639Y-131933788D01*
X135061636Y-131933787D01*
X134889410Y-131877829D01*
X134710551Y-131849500D01*
X134710546Y-131849500D01*
X134529454Y-131849500D01*
X134529449Y-131849500D01*
X134350589Y-131877829D01*
X134178363Y-131933787D01*
X134178360Y-131933788D01*
X134017004Y-132016005D01*
X134007142Y-132023170D01*
X133941335Y-132046648D01*
X133873282Y-132030821D01*
X133824588Y-131980714D01*
X133810714Y-131912236D01*
X133836065Y-131847127D01*
X133846578Y-131835169D01*
X133990557Y-131691191D01*
X134606735Y-131075013D01*
X137100000Y-131075013D01*
X137100000Y-131525000D01*
X137950000Y-131525000D01*
X137950000Y-130375000D01*
X137800027Y-130375000D01*
X137800012Y-130375001D01*
X137697302Y-130385494D01*
X137530880Y-130440641D01*
X137530875Y-130440643D01*
X137381654Y-130532684D01*
X137257684Y-130656654D01*
X137165643Y-130805875D01*
X137165641Y-130805880D01*
X137110494Y-130972302D01*
X137110493Y-130972309D01*
X137100000Y-131075013D01*
X134606735Y-131075013D01*
X134840485Y-130841263D01*
X134896503Y-130744237D01*
X134925500Y-130636018D01*
X134925500Y-130523981D01*
X134925500Y-125918063D01*
X134945185Y-125851024D01*
X134986713Y-125811134D01*
X135007276Y-125799059D01*
X135019991Y-125797585D01*
X135122765Y-125752206D01*
X135173536Y-125701434D01*
X135187213Y-125693404D01*
X135206339Y-125688614D01*
X135223642Y-125679167D01*
X135239533Y-125680303D01*
X135254991Y-125676433D01*
X135273669Y-125682744D01*
X135293334Y-125684151D01*
X135310522Y-125695197D01*
X135321183Y-125698800D01*
X135326510Y-125705472D01*
X135337681Y-125712652D01*
X135377235Y-125752206D01*
X135430478Y-125775715D01*
X135480006Y-125797584D01*
X135480007Y-125797584D01*
X135480009Y-125797585D01*
X135480010Y-125797585D01*
X135483053Y-125798413D01*
X135486032Y-125800245D01*
X135488542Y-125801353D01*
X135488391Y-125801694D01*
X135542573Y-125835007D01*
X135572861Y-125897970D01*
X135574500Y-125918063D01*
X135574500Y-126749010D01*
X135574492Y-126749040D01*
X135574500Y-126805058D01*
X135574500Y-126861047D01*
X135589276Y-126916165D01*
X135589279Y-126916178D01*
X135603496Y-126969236D01*
X135603522Y-126969299D01*
X135632010Y-127018622D01*
X135632015Y-127018643D01*
X135632021Y-127018641D01*
X135655033Y-127058500D01*
X135659515Y-127066263D01*
X135659549Y-127066307D01*
X135659551Y-127066310D01*
X135699657Y-127106405D01*
X135738737Y-127145485D01*
X135738762Y-127145499D01*
X138764617Y-130170524D01*
X138798111Y-130231842D01*
X138793136Y-130301535D01*
X138751272Y-130357474D01*
X138685811Y-130381900D01*
X138664347Y-130381575D01*
X138599990Y-130375000D01*
X138450000Y-130375000D01*
X138450000Y-131525000D01*
X139299999Y-131525000D01*
X139299999Y-131141304D01*
X139319464Y-131075013D01*
X142700000Y-131075013D01*
X142700000Y-131525000D01*
X143550000Y-131525000D01*
X144050000Y-131525000D01*
X144899999Y-131525000D01*
X144899999Y-131075028D01*
X144899998Y-131075013D01*
X144889505Y-130972302D01*
X144834358Y-130805880D01*
X144834356Y-130805875D01*
X144742315Y-130656654D01*
X144618345Y-130532684D01*
X144469124Y-130440643D01*
X144469119Y-130440641D01*
X144302697Y-130385494D01*
X144302690Y-130385493D01*
X144199986Y-130375000D01*
X144050000Y-130375000D01*
X144050000Y-131525000D01*
X143550000Y-131525000D01*
X143550000Y-130375000D01*
X143400027Y-130375000D01*
X143400012Y-130375001D01*
X143297302Y-130385494D01*
X143130880Y-130440641D01*
X143130875Y-130440643D01*
X142981654Y-130532684D01*
X142857684Y-130656654D01*
X142765643Y-130805875D01*
X142765641Y-130805880D01*
X142710494Y-130972302D01*
X142710493Y-130972309D01*
X142700000Y-131075013D01*
X139319464Y-131075013D01*
X139319684Y-131074265D01*
X139372488Y-131028510D01*
X139441646Y-131018566D01*
X139456078Y-131021525D01*
X139567943Y-131051500D01*
X139567946Y-131051500D01*
X139726055Y-131051500D01*
X139726057Y-131051500D01*
X139878784Y-131010577D01*
X140015716Y-130931520D01*
X140127520Y-130819716D01*
X140206577Y-130682784D01*
X140247500Y-130530057D01*
X140247500Y-130371943D01*
X140206577Y-130219216D01*
X140187400Y-130186000D01*
X140170927Y-130118099D01*
X140193780Y-130052073D01*
X140248701Y-130008882D01*
X140294787Y-130000000D01*
X151100000Y-130000000D01*
X151100000Y-102000000D01*
X140100000Y-102000000D01*
X140100000Y-129804367D01*
X140080315Y-129871406D01*
X140027511Y-129917161D01*
X139958353Y-129927105D01*
X139914002Y-129911755D01*
X139878788Y-129891425D01*
X139878786Y-129891424D01*
X139878784Y-129891423D01*
X139726057Y-129850500D01*
X139726056Y-129850500D01*
X139699518Y-129850500D01*
X139632479Y-129830815D01*
X139611849Y-129814193D01*
X139354488Y-129556903D01*
X136804074Y-127007187D01*
X136461831Y-126665038D01*
X136428337Y-126603720D01*
X136425500Y-126577345D01*
X136425500Y-125918063D01*
X136445185Y-125851024D01*
X136486713Y-125811134D01*
X136507276Y-125799059D01*
X136519991Y-125797585D01*
X136622765Y-125752206D01*
X136673536Y-125701434D01*
X136687213Y-125693404D01*
X136706339Y-125688614D01*
X136723642Y-125679167D01*
X136739533Y-125680303D01*
X136754991Y-125676433D01*
X136773669Y-125682744D01*
X136793334Y-125684151D01*
X136810522Y-125695197D01*
X136821183Y-125698800D01*
X136826510Y-125705472D01*
X136837681Y-125712652D01*
X136877235Y-125752206D01*
X136980009Y-125797585D01*
X137005135Y-125800500D01*
X137994864Y-125800499D01*
X137994879Y-125800497D01*
X137994882Y-125800497D01*
X138019987Y-125797586D01*
X138019988Y-125797585D01*
X138019991Y-125797585D01*
X138122765Y-125752206D01*
X138162319Y-125712652D01*
X138223642Y-125679167D01*
X138293334Y-125684151D01*
X138337681Y-125712652D01*
X138377235Y-125752206D01*
X138480009Y-125797585D01*
X138505135Y-125800500D01*
X139494864Y-125800499D01*
X139494879Y-125800497D01*
X139494882Y-125800497D01*
X139519987Y-125797586D01*
X139519988Y-125797585D01*
X139519991Y-125797585D01*
X139622765Y-125752206D01*
X139702206Y-125672765D01*
X139747585Y-125569991D01*
X139750500Y-125544865D01*
X139750499Y-123955136D01*
X139750000Y-123950829D01*
X139747586Y-123930012D01*
X139747585Y-123930010D01*
X139747585Y-123930009D01*
X139702206Y-123827235D01*
X139622765Y-123747794D01*
X139622763Y-123747793D01*
X139519993Y-123702415D01*
X139511544Y-123700117D01*
X139501526Y-123693958D01*
X139489931Y-123692010D01*
X139472307Y-123675993D01*
X139452024Y-123663523D01*
X139445616Y-123651736D01*
X139438225Y-123645019D01*
X139424327Y-123612576D01*
X139410675Y-123561654D01*
X139410670Y-123561637D01*
X139396503Y-123508763D01*
X139396502Y-123508761D01*
X139396478Y-123508702D01*
X139368803Y-123460785D01*
X139368792Y-123460767D01*
X139352654Y-123432815D01*
X139340485Y-123411737D01*
X139340462Y-123411714D01*
X139340447Y-123411688D01*
X139301955Y-123373207D01*
X139261263Y-123332515D01*
X139255485Y-123326737D01*
X139255376Y-123326642D01*
X139242805Y-123314075D01*
X135802706Y-119874958D01*
X135802706Y-119874957D01*
X135802704Y-119874956D01*
X135764263Y-119836515D01*
X135764240Y-119836501D01*
X135764218Y-119836479D01*
X135734728Y-119819459D01*
X135714702Y-119807900D01*
X135714148Y-119807580D01*
X135667237Y-119780497D01*
X135667208Y-119780489D01*
X135667180Y-119780473D01*
X135667069Y-119780443D01*
X135638721Y-119772851D01*
X135610975Y-119765421D01*
X135610974Y-119765420D01*
X135608599Y-119764784D01*
X135559018Y-119751500D01*
X135558988Y-119751500D01*
X135558958Y-119751492D01*
X135558931Y-119751492D01*
X135502938Y-119751500D01*
X123577862Y-119751500D01*
X123510823Y-119731815D01*
X123502366Y-119725000D01*
X121491837Y-119725000D01*
X121448496Y-119748666D01*
X121422138Y-119751500D01*
X117577862Y-119751500D01*
X117510823Y-119731815D01*
X117502366Y-119725000D01*
X115491837Y-119725000D01*
X115448496Y-119748666D01*
X115422138Y-119751500D01*
X114443610Y-119751500D01*
X114376571Y-119731815D01*
X114355929Y-119715181D01*
X113692903Y-119052155D01*
X115500000Y-119052155D01*
X115500000Y-119225000D01*
X116250000Y-119225000D01*
X116750000Y-119225000D01*
X117500000Y-119225000D01*
X117500000Y-119052172D01*
X117499999Y-119052155D01*
X121500000Y-119052155D01*
X121500000Y-119225000D01*
X122250000Y-119225000D01*
X122750000Y-119225000D01*
X123500000Y-119225000D01*
X123500000Y-119052172D01*
X123499999Y-119052155D01*
X123493598Y-118992627D01*
X123493596Y-118992620D01*
X123443354Y-118857913D01*
X123443350Y-118857906D01*
X123357190Y-118742812D01*
X123357187Y-118742809D01*
X123242093Y-118656649D01*
X123242086Y-118656645D01*
X123107379Y-118606403D01*
X123107372Y-118606401D01*
X123047844Y-118600000D01*
X122750000Y-118600000D01*
X122750000Y-119225000D01*
X122250000Y-119225000D01*
X122250000Y-118600000D01*
X121952155Y-118600000D01*
X121892627Y-118606401D01*
X121892620Y-118606403D01*
X121757913Y-118656645D01*
X121757906Y-118656649D01*
X121642812Y-118742809D01*
X121642809Y-118742812D01*
X121556649Y-118857906D01*
X121556645Y-118857913D01*
X121506403Y-118992620D01*
X121506401Y-118992627D01*
X121500000Y-119052155D01*
X117499999Y-119052155D01*
X117493598Y-118992627D01*
X117493596Y-118992620D01*
X117443354Y-118857913D01*
X117443350Y-118857906D01*
X117357190Y-118742812D01*
X117357187Y-118742809D01*
X117242093Y-118656649D01*
X117242086Y-118656645D01*
X117107379Y-118606403D01*
X117107372Y-118606401D01*
X117047844Y-118600000D01*
X116750000Y-118600000D01*
X116750000Y-119225000D01*
X116250000Y-119225000D01*
X116250000Y-118600000D01*
X115952155Y-118600000D01*
X115892627Y-118606401D01*
X115892620Y-118606403D01*
X115757913Y-118656645D01*
X115757906Y-118656649D01*
X115642812Y-118742809D01*
X115642809Y-118742812D01*
X115556649Y-118857906D01*
X115556645Y-118857913D01*
X115506403Y-118992620D01*
X115506401Y-118992627D01*
X115500000Y-119052155D01*
X113692903Y-119052155D01*
X112963460Y-118322712D01*
X112916593Y-118275845D01*
X131837706Y-118275845D01*
X131966652Y-118329257D01*
X131966656Y-118329258D01*
X132121202Y-118359999D01*
X132121206Y-118360000D01*
X132278794Y-118360000D01*
X132278797Y-118359999D01*
X132433343Y-118329258D01*
X132433347Y-118329257D01*
X132562293Y-118275845D01*
X133037706Y-118275845D01*
X133166652Y-118329257D01*
X133166656Y-118329258D01*
X133321202Y-118359999D01*
X133321206Y-118360000D01*
X133478794Y-118360000D01*
X133478797Y-118359999D01*
X133633343Y-118329258D01*
X133633347Y-118329257D01*
X133762293Y-118275845D01*
X133400001Y-117913553D01*
X133400000Y-117913553D01*
X133037706Y-118275845D01*
X132562293Y-118275845D01*
X132200001Y-117913553D01*
X132200000Y-117913553D01*
X131837706Y-118275845D01*
X112916593Y-118275845D01*
X112121951Y-117481202D01*
X131400000Y-117481202D01*
X131400000Y-117638797D01*
X131430741Y-117793343D01*
X131430743Y-117793351D01*
X131484153Y-117922293D01*
X131846446Y-117560001D01*
X131846446Y-117559999D01*
X131816610Y-117530163D01*
X132050000Y-117530163D01*
X132050000Y-117589837D01*
X132072836Y-117644968D01*
X132115032Y-117687164D01*
X132170163Y-117710000D01*
X132229837Y-117710000D01*
X132284968Y-117687164D01*
X132327164Y-117644968D01*
X132350000Y-117589837D01*
X132350000Y-117559999D01*
X132553553Y-117559999D01*
X132800000Y-117806446D01*
X133046446Y-117560001D01*
X133046446Y-117560000D01*
X133016609Y-117530163D01*
X133250000Y-117530163D01*
X133250000Y-117589837D01*
X133272836Y-117644968D01*
X133315032Y-117687164D01*
X133370163Y-117710000D01*
X133429837Y-117710000D01*
X133484968Y-117687164D01*
X133527164Y-117644968D01*
X133550000Y-117589837D01*
X133550000Y-117559999D01*
X133753553Y-117559999D01*
X133753553Y-117560001D01*
X134115845Y-117922293D01*
X134169257Y-117793347D01*
X134169258Y-117793343D01*
X134199999Y-117638797D01*
X134200000Y-117638794D01*
X134200000Y-117481206D01*
X134199999Y-117481202D01*
X134169258Y-117326656D01*
X134169257Y-117326652D01*
X134115845Y-117197706D01*
X133753553Y-117559999D01*
X133550000Y-117559999D01*
X133550000Y-117530163D01*
X133527164Y-117475032D01*
X133484968Y-117432836D01*
X133429837Y-117410000D01*
X133370163Y-117410000D01*
X133315032Y-117432836D01*
X133272836Y-117475032D01*
X133250000Y-117530163D01*
X133016609Y-117530163D01*
X132800000Y-117313553D01*
X132553553Y-117559999D01*
X132350000Y-117559999D01*
X132350000Y-117530163D01*
X132327164Y-117475032D01*
X132284968Y-117432836D01*
X132229837Y-117410000D01*
X132170163Y-117410000D01*
X132115032Y-117432836D01*
X132072836Y-117475032D01*
X132050000Y-117530163D01*
X131816610Y-117530163D01*
X131484153Y-117197705D01*
X131430743Y-117326648D01*
X131430741Y-117326656D01*
X131400000Y-117481202D01*
X112121951Y-117481202D01*
X111801582Y-117160833D01*
X111768097Y-117099510D01*
X111773081Y-117029818D01*
X111801578Y-116985475D01*
X111877553Y-116909501D01*
X111983996Y-116762994D01*
X112066211Y-116601639D01*
X112122171Y-116429409D01*
X112140045Y-116316556D01*
X112150500Y-116250551D01*
X112150500Y-116069448D01*
X112129296Y-115935577D01*
X112122171Y-115890591D01*
X112066211Y-115718361D01*
X112066211Y-115718360D01*
X112037740Y-115662484D01*
X111983996Y-115557006D01*
X111923586Y-115473858D01*
X111877558Y-115410505D01*
X111877554Y-115410500D01*
X111749499Y-115282445D01*
X111749494Y-115282441D01*
X111602997Y-115176006D01*
X111602996Y-115176005D01*
X111602994Y-115176004D01*
X111540601Y-115144213D01*
X111441639Y-115093788D01*
X111441636Y-115093787D01*
X111269410Y-115037829D01*
X111109321Y-115012473D01*
X111046186Y-114982544D01*
X111009255Y-114923232D01*
X111010253Y-114853370D01*
X111048863Y-114795137D01*
X111109321Y-114767527D01*
X111179425Y-114756422D01*
X111269409Y-114742171D01*
X111441639Y-114686211D01*
X111602994Y-114603996D01*
X111749501Y-114497553D01*
X111877553Y-114369501D01*
X111983996Y-114222994D01*
X112066211Y-114061639D01*
X112122171Y-113889409D01*
X112145307Y-113743334D01*
X112150500Y-113710551D01*
X112150500Y-113529448D01*
X112131920Y-113412142D01*
X112122171Y-113350591D01*
X112073409Y-113200514D01*
X112064706Y-113173728D01*
X112066176Y-113173250D01*
X112059426Y-113110577D01*
X112090689Y-113048091D01*
X112150771Y-113012428D01*
X112220597Y-113014908D01*
X112269141Y-113044889D01*
X114379174Y-115154921D01*
X114379184Y-115154932D01*
X114383514Y-115159262D01*
X114383515Y-115159263D01*
X114462737Y-115238485D01*
X114559742Y-115294491D01*
X114559763Y-115294503D01*
X114667981Y-115323500D01*
X114667982Y-115323500D01*
X115575500Y-115323500D01*
X115642539Y-115343185D01*
X115688294Y-115395989D01*
X115699500Y-115447500D01*
X115699500Y-116144856D01*
X115699502Y-116144882D01*
X115702413Y-116169987D01*
X115702415Y-116169991D01*
X115747793Y-116272764D01*
X115747794Y-116272765D01*
X115827235Y-116352206D01*
X115930009Y-116397585D01*
X115955135Y-116400500D01*
X117044864Y-116400499D01*
X117044879Y-116400497D01*
X117044882Y-116400497D01*
X117069987Y-116397586D01*
X117069988Y-116397585D01*
X117069991Y-116397585D01*
X117172765Y-116352206D01*
X117174929Y-116350041D01*
X117179836Y-116347361D01*
X117182245Y-116345712D01*
X117182411Y-116345955D01*
X117236247Y-116316556D01*
X117305939Y-116321537D01*
X117350292Y-116350040D01*
X117458737Y-116458485D01*
X117555763Y-116514503D01*
X117663982Y-116543500D01*
X117776018Y-116543500D01*
X122272178Y-116543500D01*
X122339217Y-116563185D01*
X122359917Y-116579876D01*
X122429949Y-116650000D01*
X122878867Y-117099510D01*
X122913681Y-117134369D01*
X122913680Y-117134369D01*
X122919443Y-117140139D01*
X122919515Y-117140263D01*
X122959021Y-117179769D01*
X122959022Y-117179771D01*
X122985663Y-117206446D01*
X122998513Y-117219313D01*
X122998517Y-117219315D01*
X122998741Y-117219488D01*
X123047329Y-117247541D01*
X123047397Y-117247580D01*
X123071345Y-117261426D01*
X123095503Y-117275395D01*
X123095511Y-117275397D01*
X123095756Y-117275499D01*
X123095763Y-117275503D01*
X123149820Y-117289987D01*
X123203702Y-117304463D01*
X123203841Y-117304463D01*
X123203975Y-117304499D01*
X123203978Y-117304500D01*
X123203982Y-117304500D01*
X123259720Y-117304500D01*
X123259757Y-117304500D01*
X123315739Y-117304537D01*
X123315742Y-117304536D01*
X123323490Y-117304541D01*
X123324130Y-117304500D01*
X127444902Y-117304500D01*
X127511941Y-117324185D01*
X127532583Y-117340819D01*
X127551284Y-117359520D01*
X127551286Y-117359521D01*
X127551290Y-117359524D01*
X127678272Y-117432836D01*
X127688216Y-117438577D01*
X127840943Y-117479500D01*
X127840945Y-117479500D01*
X127999055Y-117479500D01*
X127999057Y-117479500D01*
X128151784Y-117438577D01*
X128288716Y-117359520D01*
X128400520Y-117247716D01*
X128479577Y-117110784D01*
X128519980Y-116959999D01*
X131953553Y-116959999D01*
X132200000Y-117206446D01*
X132446446Y-116960001D01*
X132446446Y-116960000D01*
X132446445Y-116959999D01*
X133153553Y-116959999D01*
X133400000Y-117206446D01*
X133646446Y-116960001D01*
X133646446Y-116960000D01*
X133400000Y-116713553D01*
X133153553Y-116959999D01*
X132446445Y-116959999D01*
X132200000Y-116713553D01*
X131953553Y-116959999D01*
X128519980Y-116959999D01*
X128520500Y-116958057D01*
X128520500Y-116799943D01*
X128479577Y-116647216D01*
X128456039Y-116606446D01*
X128400526Y-116510293D01*
X128400522Y-116510288D01*
X128400520Y-116510284D01*
X128400516Y-116510280D01*
X128400295Y-116509992D01*
X128400178Y-116509691D01*
X128396457Y-116503245D01*
X128397461Y-116502664D01*
X128375098Y-116444824D01*
X128389132Y-116376379D01*
X128437943Y-116326386D01*
X128498667Y-116310500D01*
X129998016Y-116310500D01*
X129998018Y-116310500D01*
X130106237Y-116281503D01*
X130106758Y-116281202D01*
X131400000Y-116281202D01*
X131400000Y-116438797D01*
X131430741Y-116593343D01*
X131430743Y-116593351D01*
X131484153Y-116722293D01*
X131846446Y-116360001D01*
X131846446Y-116359999D01*
X131816610Y-116330163D01*
X132050000Y-116330163D01*
X132050000Y-116389837D01*
X132072836Y-116444968D01*
X132115032Y-116487164D01*
X132170163Y-116510000D01*
X132229837Y-116510000D01*
X132284968Y-116487164D01*
X132327164Y-116444968D01*
X132350000Y-116389837D01*
X132350000Y-116359999D01*
X132553553Y-116359999D01*
X132800000Y-116606446D01*
X133046446Y-116360001D01*
X133046446Y-116360000D01*
X133016609Y-116330163D01*
X133250000Y-116330163D01*
X133250000Y-116389837D01*
X133272836Y-116444968D01*
X133315032Y-116487164D01*
X133370163Y-116510000D01*
X133429837Y-116510000D01*
X133484968Y-116487164D01*
X133527164Y-116444968D01*
X133550000Y-116389837D01*
X133550000Y-116359999D01*
X133753553Y-116359999D01*
X133753553Y-116360001D01*
X134115845Y-116722293D01*
X134169257Y-116593347D01*
X134169258Y-116593343D01*
X134199999Y-116438797D01*
X134200000Y-116438794D01*
X134200000Y-116281206D01*
X134199999Y-116281202D01*
X134169258Y-116126656D01*
X134169257Y-116126652D01*
X134115845Y-115997706D01*
X133753553Y-116359999D01*
X133550000Y-116359999D01*
X133550000Y-116330163D01*
X133527164Y-116275032D01*
X133484968Y-116232836D01*
X133429837Y-116210000D01*
X133370163Y-116210000D01*
X133315032Y-116232836D01*
X133272836Y-116275032D01*
X133250000Y-116330163D01*
X133016609Y-116330163D01*
X132800000Y-116113553D01*
X132553553Y-116359999D01*
X132350000Y-116359999D01*
X132350000Y-116330163D01*
X132327164Y-116275032D01*
X132284968Y-116232836D01*
X132229837Y-116210000D01*
X132170163Y-116210000D01*
X132115032Y-116232836D01*
X132072836Y-116275032D01*
X132050000Y-116330163D01*
X131816610Y-116330163D01*
X131484153Y-115997705D01*
X131430743Y-116126648D01*
X131430741Y-116126656D01*
X131400000Y-116281202D01*
X130106758Y-116281202D01*
X130203263Y-116225485D01*
X130784595Y-115644153D01*
X131837705Y-115644153D01*
X132200000Y-116006446D01*
X132200001Y-116006446D01*
X132562293Y-115644153D01*
X133037705Y-115644153D01*
X133400000Y-116006446D01*
X133400001Y-116006446D01*
X133762293Y-115644153D01*
X133633351Y-115590743D01*
X133633343Y-115590741D01*
X133478797Y-115560000D01*
X133321202Y-115560000D01*
X133166656Y-115590741D01*
X133166648Y-115590743D01*
X133037705Y-115644153D01*
X132562293Y-115644153D01*
X132433351Y-115590743D01*
X132433343Y-115590741D01*
X132278797Y-115560000D01*
X132121202Y-115560000D01*
X131966656Y-115590741D01*
X131966648Y-115590743D01*
X131837705Y-115644153D01*
X130784595Y-115644153D01*
X137840485Y-108588263D01*
X137896503Y-108491237D01*
X137924314Y-108387440D01*
X137960677Y-108327783D01*
X137981963Y-108312221D01*
X138004052Y-108299433D01*
X138019991Y-108297585D01*
X138122765Y-108252206D01*
X138173811Y-108201159D01*
X138187875Y-108193018D01*
X138206667Y-108188436D01*
X138223642Y-108179167D01*
X138239910Y-108180330D01*
X138255756Y-108176467D01*
X138274039Y-108182771D01*
X138293334Y-108184151D01*
X138311035Y-108195527D01*
X138321809Y-108199242D01*
X138326936Y-108205746D01*
X138337681Y-108212652D01*
X138377234Y-108252205D01*
X138386714Y-108258699D01*
X138385768Y-108260078D01*
X138428963Y-108296564D01*
X138449490Y-108363350D01*
X138449500Y-108364912D01*
X138449500Y-108773612D01*
X138429815Y-108840651D01*
X138413181Y-108861293D01*
X138076567Y-109197906D01*
X138043894Y-109219740D01*
X138044253Y-109220361D01*
X138037218Y-109224422D01*
X138037216Y-109224423D01*
X137997152Y-109247554D01*
X137900285Y-109303479D01*
X137900282Y-109303481D01*
X137788481Y-109415282D01*
X137788475Y-109415290D01*
X137709426Y-109552209D01*
X137709423Y-109552216D01*
X137668500Y-109704943D01*
X137668500Y-109863057D01*
X137709017Y-110014266D01*
X137709423Y-110015783D01*
X137709426Y-110015790D01*
X137788475Y-110152709D01*
X137788479Y-110152714D01*
X137788480Y-110152716D01*
X137900284Y-110264520D01*
X137900286Y-110264521D01*
X137900290Y-110264524D01*
X137944628Y-110290122D01*
X138037216Y-110343577D01*
X138189943Y-110384500D01*
X138189945Y-110384500D01*
X138348055Y-110384500D01*
X138348057Y-110384500D01*
X138500784Y-110343577D01*
X138637716Y-110264520D01*
X138749520Y-110152716D01*
X138828577Y-110015784D01*
X138828577Y-110015780D01*
X138832640Y-110008745D01*
X138833262Y-110009104D01*
X138855092Y-109976431D01*
X139440510Y-109391015D01*
X139512984Y-109265485D01*
X139517790Y-109247550D01*
X139524582Y-109222205D01*
X139537823Y-109172785D01*
X139550500Y-109125475D01*
X139550500Y-108364912D01*
X139570185Y-108297873D01*
X139614071Y-108259845D01*
X139613286Y-108258699D01*
X139622760Y-108252207D01*
X139622765Y-108252206D01*
X139702206Y-108172765D01*
X139747585Y-108069991D01*
X139750500Y-108044865D01*
X139750499Y-106455136D01*
X139750417Y-106454426D01*
X139747586Y-106430012D01*
X139747585Y-106430010D01*
X139747585Y-106430009D01*
X139702206Y-106327235D01*
X139622765Y-106247794D01*
X139609151Y-106241783D01*
X139519992Y-106202415D01*
X139494865Y-106199500D01*
X138505143Y-106199500D01*
X138505117Y-106199502D01*
X138480012Y-106202413D01*
X138480008Y-106202415D01*
X138377235Y-106247793D01*
X138377234Y-106247794D01*
X138337681Y-106287348D01*
X138276358Y-106320833D01*
X138206666Y-106315849D01*
X138162319Y-106287348D01*
X138122765Y-106247794D01*
X138019992Y-106202415D01*
X137994865Y-106199500D01*
X137005143Y-106199500D01*
X137005117Y-106199502D01*
X136980012Y-106202413D01*
X136980008Y-106202415D01*
X136877235Y-106247793D01*
X136877234Y-106247794D01*
X136837681Y-106287348D01*
X136776358Y-106320833D01*
X136706666Y-106315849D01*
X136662319Y-106287348D01*
X136622765Y-106247794D01*
X136519992Y-106202415D01*
X136494865Y-106199500D01*
X135505143Y-106199500D01*
X135505117Y-106199502D01*
X135480012Y-106202413D01*
X135480008Y-106202415D01*
X135377235Y-106247793D01*
X135377234Y-106247794D01*
X135337681Y-106287348D01*
X135276358Y-106320833D01*
X135206666Y-106315849D01*
X135187875Y-106306982D01*
X135173811Y-106298840D01*
X135122765Y-106247794D01*
X135019991Y-106202415D01*
X135004052Y-106200565D01*
X134981963Y-106187778D01*
X134968568Y-106173697D01*
X134952012Y-106163518D01*
X134942850Y-106146661D01*
X134933806Y-106137154D01*
X134931696Y-106126140D01*
X134924315Y-106112559D01*
X134896503Y-106008763D01*
X134840485Y-105911737D01*
X134761263Y-105832515D01*
X133960263Y-105031515D01*
X133863237Y-104975497D01*
X133755018Y-104946500D01*
X114724018Y-104946500D01*
X114611981Y-104946500D01*
X114503763Y-104975497D01*
X114503761Y-104975498D01*
X114503760Y-104975498D01*
X114406740Y-105031513D01*
X114406734Y-105031517D01*
X112537071Y-106901181D01*
X112510143Y-106915884D01*
X112484325Y-106932477D01*
X112478124Y-106933368D01*
X112475748Y-106934666D01*
X112449390Y-106937500D01*
X112274500Y-106937500D01*
X112207461Y-106917815D01*
X112161706Y-106865011D01*
X112150500Y-106813500D01*
X112150500Y-106172624D01*
X112150499Y-105522499D01*
X112170184Y-105455461D01*
X112222987Y-105409706D01*
X112274499Y-105398500D01*
X112311055Y-105398500D01*
X112311057Y-105398500D01*
X112463784Y-105357577D01*
X112600716Y-105278520D01*
X112712520Y-105166716D01*
X112791577Y-105029784D01*
X112832500Y-104877057D01*
X112832500Y-104718943D01*
X112791577Y-104566216D01*
X112791573Y-104566209D01*
X112712524Y-104429290D01*
X112712518Y-104429282D01*
X112600717Y-104317481D01*
X112600709Y-104317475D01*
X112463790Y-104238426D01*
X112463786Y-104238424D01*
X112463784Y-104238423D01*
X112311057Y-104197500D01*
X112152943Y-104197500D01*
X112000216Y-104238423D01*
X112000209Y-104238426D01*
X111863290Y-104317475D01*
X111863282Y-104317481D01*
X111844583Y-104336181D01*
X111783260Y-104369666D01*
X111756902Y-104372500D01*
X107356982Y-104372500D01*
X107248763Y-104401497D01*
X107248760Y-104401498D01*
X107151740Y-104457513D01*
X107151734Y-104457517D01*
X101599517Y-110009734D01*
X101599513Y-110009740D01*
X101543498Y-110106760D01*
X101543497Y-110106763D01*
X101514500Y-110214982D01*
X101514500Y-115108982D01*
X101514500Y-115221018D01*
X101543497Y-115329237D01*
X101599515Y-115426263D01*
X101599517Y-115426265D01*
X102438181Y-116264929D01*
X102471666Y-116326252D01*
X102474500Y-116352610D01*
X102474500Y-116722869D01*
X102474501Y-116722876D01*
X102480908Y-116782483D01*
X102531202Y-116917328D01*
X102531206Y-116917335D01*
X102617452Y-117032544D01*
X102617455Y-117032547D01*
X102732664Y-117118793D01*
X102732671Y-117118797D01*
X102774422Y-117134369D01*
X102867517Y-117169091D01*
X102927127Y-117175500D01*
X103422872Y-117175499D01*
X103482483Y-117169091D01*
X103617331Y-117118796D01*
X103732546Y-117032546D01*
X103783109Y-116965002D01*
X103839041Y-116923133D01*
X103908733Y-116918149D01*
X103970056Y-116951634D01*
X103988491Y-116975165D01*
X104069927Y-117109877D01*
X104190122Y-117230072D01*
X104335604Y-117318019D01*
X104335603Y-117318019D01*
X104497894Y-117368590D01*
X104497893Y-117368590D01*
X104568408Y-117374998D01*
X104568426Y-117374999D01*
X105075000Y-117374999D01*
X105081581Y-117374999D01*
X105152102Y-117368591D01*
X105152107Y-117368590D01*
X105314396Y-117318018D01*
X105459877Y-117230072D01*
X105580072Y-117109877D01*
X105668019Y-116964395D01*
X105718590Y-116802106D01*
X105725000Y-116731572D01*
X105725000Y-116650000D01*
X105075000Y-116650000D01*
X105075000Y-117374999D01*
X104568426Y-117374999D01*
X104574999Y-117374998D01*
X104575000Y-117374998D01*
X104575000Y-116150000D01*
X105075000Y-116150000D01*
X105724999Y-116150000D01*
X105724999Y-116068417D01*
X105718591Y-115997897D01*
X105718590Y-115997892D01*
X105668018Y-115835603D01*
X105580072Y-115690122D01*
X105477631Y-115587681D01*
X105444146Y-115526358D01*
X105449130Y-115456666D01*
X105477631Y-115412319D01*
X105580071Y-115309878D01*
X105580072Y-115309877D01*
X105668019Y-115164395D01*
X105718590Y-115002106D01*
X105725000Y-114931572D01*
X105725000Y-114850000D01*
X105075000Y-114850000D01*
X105075000Y-116150000D01*
X104575000Y-116150000D01*
X104575000Y-115730343D01*
X104591612Y-115668344D01*
X104626577Y-115607784D01*
X104667500Y-115455057D01*
X104667500Y-115296943D01*
X104626577Y-115144216D01*
X104591613Y-115083656D01*
X104587462Y-115068167D01*
X104580023Y-115056591D01*
X104575000Y-115021656D01*
X104575000Y-114350000D01*
X105075000Y-114350000D01*
X105724999Y-114350000D01*
X105724999Y-114268417D01*
X105718591Y-114197897D01*
X105718590Y-114197892D01*
X105668018Y-114035603D01*
X105580072Y-113890122D01*
X105477631Y-113787681D01*
X105444146Y-113726358D01*
X105449130Y-113656666D01*
X105477631Y-113612319D01*
X105580071Y-113509878D01*
X105580072Y-113509877D01*
X105668019Y-113364395D01*
X105718590Y-113202106D01*
X105725000Y-113131572D01*
X105725000Y-113050000D01*
X105075000Y-113050000D01*
X105075000Y-114350000D01*
X104575000Y-114350000D01*
X104575000Y-112406500D01*
X104594685Y-112339461D01*
X104647489Y-112293706D01*
X104699000Y-112282500D01*
X104951000Y-112282500D01*
X105018039Y-112302185D01*
X105063794Y-112354989D01*
X105075000Y-112406500D01*
X105075000Y-112550000D01*
X105724999Y-112550000D01*
X105724999Y-112468417D01*
X105720393Y-112417720D01*
X105733931Y-112349174D01*
X105782378Y-112298829D01*
X105843884Y-112282500D01*
X107229952Y-112282500D01*
X107296991Y-112302185D01*
X107342746Y-112354989D01*
X107352690Y-112424147D01*
X107323665Y-112487703D01*
X107317693Y-112494120D01*
X107285854Y-112526000D01*
X106971042Y-112841207D01*
X106970939Y-112841312D01*
X106931515Y-112880737D01*
X106931446Y-112880855D01*
X106931350Y-112880952D01*
X106931291Y-112881053D01*
X106931289Y-112881056D01*
X106903479Y-112929293D01*
X106903386Y-112929456D01*
X106875497Y-112977763D01*
X106875461Y-112977894D01*
X106875393Y-112978014D01*
X106875343Y-112978199D01*
X106875343Y-112978200D01*
X106860961Y-113032007D01*
X106860941Y-113032084D01*
X106846500Y-113085982D01*
X106846500Y-113086119D01*
X106846465Y-113086250D01*
X106846500Y-113142268D01*
X106846500Y-117455982D01*
X106846500Y-117568018D01*
X106866188Y-117641493D01*
X106875497Y-117676236D01*
X106875498Y-117676239D01*
X106884172Y-117691263D01*
X106931515Y-117773263D01*
X106931517Y-117773265D01*
X107345655Y-118187403D01*
X107379140Y-118248726D01*
X107375905Y-118313402D01*
X107337829Y-118430589D01*
X107309500Y-118609448D01*
X107309500Y-118790551D01*
X107337829Y-118969410D01*
X107393787Y-119141636D01*
X107393788Y-119141639D01*
X107476006Y-119302997D01*
X107582441Y-119449494D01*
X107582445Y-119449499D01*
X107710500Y-119577554D01*
X107710505Y-119577558D01*
X107814831Y-119653354D01*
X107857006Y-119683996D01*
X107962484Y-119737740D01*
X108018360Y-119766211D01*
X108018363Y-119766212D01*
X108084686Y-119787761D01*
X108190591Y-119822171D01*
X108263639Y-119833740D01*
X108350678Y-119847527D01*
X108413813Y-119877456D01*
X108450744Y-119936768D01*
X108449746Y-120006631D01*
X108411136Y-120064863D01*
X108350678Y-120092473D01*
X108190589Y-120117829D01*
X108018363Y-120173787D01*
X108018360Y-120173788D01*
X107857002Y-120256006D01*
X107710505Y-120362441D01*
X107710500Y-120362445D01*
X107582445Y-120490500D01*
X107582441Y-120490505D01*
X107476004Y-120637004D01*
X107406229Y-120773943D01*
X107358254Y-120824738D01*
X107290433Y-120841533D01*
X107224299Y-120818995D01*
X107180848Y-120764279D01*
X107175973Y-120749748D01*
X107164577Y-120707216D01*
X107142893Y-120669657D01*
X107085524Y-120570290D01*
X107085518Y-120570282D01*
X106973717Y-120458481D01*
X106973709Y-120458475D01*
X106836790Y-120379426D01*
X106836786Y-120379424D01*
X106836784Y-120379423D01*
X106684057Y-120338500D01*
X106525943Y-120338500D01*
X106373216Y-120379423D01*
X106373214Y-120379423D01*
X106365365Y-120381527D01*
X106365179Y-120380834D01*
X106326637Y-120388500D01*
X104218386Y-120388500D01*
X104188945Y-120379855D01*
X104158959Y-120373332D01*
X104153943Y-120369577D01*
X104151347Y-120368815D01*
X104130705Y-120352181D01*
X104069408Y-120290884D01*
X104035923Y-120229561D01*
X104035472Y-120179014D01*
X104050500Y-120103465D01*
X104050500Y-119896535D01*
X104010130Y-119693580D01*
X103930941Y-119502402D01*
X103815977Y-119330345D01*
X103815975Y-119330342D01*
X103669657Y-119184024D01*
X103583626Y-119126541D01*
X103497598Y-119069059D01*
X103456829Y-119052172D01*
X103306420Y-118989870D01*
X103306412Y-118989868D01*
X103103469Y-118949500D01*
X103103465Y-118949500D01*
X102896535Y-118949500D01*
X102896530Y-118949500D01*
X102693587Y-118989868D01*
X102693579Y-118989870D01*
X102502403Y-119069058D01*
X102330342Y-119184024D01*
X102184024Y-119330342D01*
X102069058Y-119502403D01*
X101989870Y-119693579D01*
X101989868Y-119693587D01*
X101949500Y-119896530D01*
X101949500Y-120103469D01*
X101989868Y-120306412D01*
X101989870Y-120306420D01*
X102069058Y-120497596D01*
X102184024Y-120669657D01*
X102330342Y-120815975D01*
X102330345Y-120815977D01*
X102502402Y-120930941D01*
X102693580Y-121010130D01*
X102878673Y-121046947D01*
X102896530Y-121050499D01*
X102896534Y-121050500D01*
X102896535Y-121050500D01*
X103103466Y-121050500D01*
X103121327Y-121046947D01*
X103179013Y-121035472D01*
X103186918Y-121036179D01*
X103194357Y-121033405D01*
X103221216Y-121039248D01*
X103248601Y-121041698D01*
X103256611Y-121046947D01*
X103262630Y-121048257D01*
X103290884Y-121069408D01*
X103467295Y-121245819D01*
X103500780Y-121307142D01*
X103495796Y-121376834D01*
X103453924Y-121432767D01*
X103388460Y-121457184D01*
X103379614Y-121457500D01*
X102537982Y-121457500D01*
X102429763Y-121486497D01*
X102429760Y-121486498D01*
X102332740Y-121542513D01*
X102332734Y-121542517D01*
X101552517Y-122322734D01*
X101552513Y-122322740D01*
X101496498Y-122419760D01*
X101496497Y-122419763D01*
X101467500Y-122527982D01*
X101467500Y-124836982D01*
X101467500Y-124949018D01*
X101496497Y-125057237D01*
X101552515Y-125154263D01*
X101552517Y-125154265D01*
X101961147Y-125562895D01*
X101994632Y-125624218D01*
X101990121Y-125687292D01*
X101991638Y-125687753D01*
X101989868Y-125693587D01*
X101949500Y-125896530D01*
X101949500Y-126103469D01*
X101989868Y-126306412D01*
X101989870Y-126306420D01*
X102039478Y-126426185D01*
X102069059Y-126497598D01*
X102122344Y-126577345D01*
X102184024Y-126669657D01*
X102330342Y-126815975D01*
X102330345Y-126815977D01*
X102502402Y-126930941D01*
X102693580Y-127010130D01*
X102896530Y-127050499D01*
X102896534Y-127050500D01*
X102896535Y-127050500D01*
X103103466Y-127050500D01*
X103103467Y-127050499D01*
X103306420Y-127010130D01*
X103497598Y-126930941D01*
X103669655Y-126815977D01*
X103787788Y-126697844D01*
X115500000Y-126697844D01*
X115506401Y-126757372D01*
X115506403Y-126757379D01*
X115556645Y-126892086D01*
X115556649Y-126892093D01*
X115642809Y-127007187D01*
X115642812Y-127007190D01*
X115757906Y-127093350D01*
X115757913Y-127093354D01*
X115892620Y-127143596D01*
X115892627Y-127143598D01*
X115952155Y-127149999D01*
X115952172Y-127150000D01*
X116250000Y-127150000D01*
X116750000Y-127150000D01*
X117047828Y-127150000D01*
X117047844Y-127149999D01*
X117107372Y-127143598D01*
X117107379Y-127143596D01*
X117242086Y-127093354D01*
X117242093Y-127093350D01*
X117357187Y-127007190D01*
X117357190Y-127007187D01*
X117443350Y-126892093D01*
X117443354Y-126892086D01*
X117493596Y-126757379D01*
X117493598Y-126757372D01*
X117499999Y-126697844D01*
X121500000Y-126697844D01*
X121506401Y-126757372D01*
X121506403Y-126757379D01*
X121556645Y-126892086D01*
X121556649Y-126892093D01*
X121642809Y-127007187D01*
X121642812Y-127007190D01*
X121757906Y-127093350D01*
X121757913Y-127093354D01*
X121892620Y-127143596D01*
X121892627Y-127143598D01*
X121952155Y-127149999D01*
X121952172Y-127150000D01*
X122250000Y-127150000D01*
X122750000Y-127150000D01*
X123047828Y-127150000D01*
X123047844Y-127149999D01*
X123107372Y-127143598D01*
X123107379Y-127143596D01*
X123242086Y-127093354D01*
X123242093Y-127093350D01*
X123357187Y-127007190D01*
X123357190Y-127007187D01*
X123443350Y-126892093D01*
X123443354Y-126892086D01*
X123493596Y-126757379D01*
X123493598Y-126757372D01*
X123499999Y-126697844D01*
X123500000Y-126697827D01*
X123500000Y-126525000D01*
X122750000Y-126525000D01*
X122750000Y-127150000D01*
X122250000Y-127150000D01*
X122250000Y-126525000D01*
X121500000Y-126525000D01*
X121500000Y-126697844D01*
X117499999Y-126697844D01*
X117500000Y-126697827D01*
X117500000Y-126525000D01*
X116750000Y-126525000D01*
X116750000Y-127150000D01*
X116250000Y-127150000D01*
X116250000Y-126525000D01*
X115500000Y-126525000D01*
X115500000Y-126697844D01*
X103787788Y-126697844D01*
X103815977Y-126669655D01*
X103930941Y-126497598D01*
X104010130Y-126306420D01*
X104050500Y-126103465D01*
X104050500Y-125896535D01*
X104010130Y-125693580D01*
X103930941Y-125502402D01*
X103815977Y-125330345D01*
X103815975Y-125330342D01*
X103669657Y-125184024D01*
X103539051Y-125096757D01*
X103497598Y-125069059D01*
X103469062Y-125057239D01*
X103306420Y-124989870D01*
X103306412Y-124989868D01*
X103204658Y-124969628D01*
X103103469Y-124949500D01*
X103103465Y-124949500D01*
X102896535Y-124949500D01*
X102896530Y-124949500D01*
X102693587Y-124989868D01*
X102687753Y-124991638D01*
X102687018Y-124989216D01*
X102628528Y-124995490D01*
X102566057Y-124964199D01*
X102562895Y-124961147D01*
X102354819Y-124753071D01*
X102321334Y-124691748D01*
X102318500Y-124665390D01*
X102318500Y-124258015D01*
X102338185Y-124190976D01*
X102390989Y-124145221D01*
X102460147Y-124135277D01*
X102498797Y-124147531D01*
X102520165Y-124158419D01*
X102707294Y-124219221D01*
X102901618Y-124250000D01*
X103098382Y-124250000D01*
X103292705Y-124219221D01*
X103479835Y-124158418D01*
X103655143Y-124069095D01*
X103690125Y-124043678D01*
X103690126Y-124043678D01*
X102910904Y-123264457D01*
X102877419Y-123203134D01*
X102882403Y-123133443D01*
X102910904Y-123089095D01*
X103089095Y-122910904D01*
X103150418Y-122877419D01*
X103220110Y-122882403D01*
X103264457Y-122910904D01*
X104043678Y-123690126D01*
X104043678Y-123690125D01*
X104069095Y-123655143D01*
X104158418Y-123479835D01*
X104219221Y-123292705D01*
X104250000Y-123098382D01*
X104250000Y-123059500D01*
X104269685Y-122992461D01*
X104322489Y-122946706D01*
X104374000Y-122935500D01*
X107172805Y-122935500D01*
X107239844Y-122955185D01*
X107285599Y-123007989D01*
X107295543Y-123077147D01*
X107283289Y-123115795D01*
X107208907Y-123261775D01*
X107208905Y-123261779D01*
X107143242Y-123463869D01*
X107143242Y-123463872D01*
X107110000Y-123673753D01*
X107110000Y-123886246D01*
X107143242Y-124096127D01*
X107143242Y-124096130D01*
X107208904Y-124298217D01*
X107305375Y-124487550D01*
X107344728Y-124541716D01*
X107977036Y-123909407D01*
X107994075Y-123972993D01*
X108059901Y-124087007D01*
X108152993Y-124180099D01*
X108267007Y-124245925D01*
X108330590Y-124262962D01*
X107698282Y-124895269D01*
X107698282Y-124895270D01*
X107752449Y-124934624D01*
X107941782Y-125031095D01*
X108143870Y-125096757D01*
X108353754Y-125130000D01*
X108566246Y-125130000D01*
X108776127Y-125096757D01*
X108776130Y-125096757D01*
X108978217Y-125031095D01*
X109167554Y-124934622D01*
X109221716Y-124895270D01*
X109221717Y-124895270D01*
X108589408Y-124262962D01*
X108652993Y-124245925D01*
X108767007Y-124180099D01*
X108860099Y-124087007D01*
X108925925Y-123972993D01*
X108942962Y-123909408D01*
X109388985Y-124355431D01*
X109421078Y-124411016D01*
X109426496Y-124431235D01*
X109426498Y-124431240D01*
X109482512Y-124528259D01*
X109482514Y-124528261D01*
X109482515Y-124528263D01*
X110621513Y-125667260D01*
X110621515Y-125667263D01*
X110700737Y-125746485D01*
X110751367Y-125775716D01*
X110760436Y-125780952D01*
X110797757Y-125802500D01*
X110797758Y-125802501D01*
X110797760Y-125802501D01*
X110797763Y-125802503D01*
X110905981Y-125831500D01*
X110905982Y-125831500D01*
X115376000Y-125831500D01*
X115443039Y-125851185D01*
X115488794Y-125903989D01*
X115500000Y-125955500D01*
X115500000Y-126025000D01*
X117500000Y-126025000D01*
X117500000Y-125955500D01*
X117519685Y-125888461D01*
X117572489Y-125842706D01*
X117624000Y-125831500D01*
X120300902Y-125831500D01*
X120367941Y-125851185D01*
X120388583Y-125867819D01*
X120408284Y-125887520D01*
X120408286Y-125887521D01*
X120408290Y-125887524D01*
X120526030Y-125955500D01*
X120545216Y-125966577D01*
X120697943Y-126007500D01*
X120697945Y-126007500D01*
X120856055Y-126007500D01*
X120856057Y-126007500D01*
X121008784Y-125966577D01*
X121145716Y-125887520D01*
X121257520Y-125775716D01*
X121272182Y-125750319D01*
X121322745Y-125702105D01*
X121391352Y-125688880D01*
X121456218Y-125714846D01*
X121496748Y-125771759D01*
X121502859Y-125825572D01*
X121500000Y-125852166D01*
X121500000Y-126025000D01*
X122250000Y-126025000D01*
X122250000Y-125400000D01*
X121952155Y-125400000D01*
X121892627Y-125406401D01*
X121892620Y-125406403D01*
X121757913Y-125456645D01*
X121757906Y-125456649D01*
X121642812Y-125542809D01*
X121591466Y-125611398D01*
X121535532Y-125653268D01*
X121465840Y-125658252D01*
X121404517Y-125624766D01*
X121371033Y-125563442D01*
X121372425Y-125504993D01*
X121377500Y-125486057D01*
X121377500Y-125327943D01*
X121366688Y-125287592D01*
X121368351Y-125217743D01*
X121407514Y-125159881D01*
X121471742Y-125132377D01*
X121486463Y-125131500D01*
X123091390Y-125131500D01*
X123158429Y-125151185D01*
X123179071Y-125167819D01*
X123206487Y-125195235D01*
X123239972Y-125256558D01*
X123234988Y-125326250D01*
X123193116Y-125382183D01*
X123127652Y-125406600D01*
X123105551Y-125406205D01*
X123047846Y-125400001D01*
X123047828Y-125400000D01*
X122750000Y-125400000D01*
X122750000Y-126025000D01*
X123500000Y-126025000D01*
X123500000Y-125852172D01*
X123499999Y-125852158D01*
X123493794Y-125794450D01*
X123506198Y-125725690D01*
X123553808Y-125674552D01*
X123621507Y-125657272D01*
X123687801Y-125679336D01*
X123704764Y-125693512D01*
X124984737Y-126973485D01*
X125081763Y-127029503D01*
X125189982Y-127058500D01*
X125189984Y-127058500D01*
X132250016Y-127058500D01*
X132250018Y-127058500D01*
X132358237Y-127029503D01*
X132455263Y-126973485D01*
X133340485Y-126088263D01*
X133396503Y-125991237D01*
X133424315Y-125887441D01*
X133460679Y-125827782D01*
X133481964Y-125812221D01*
X133504053Y-125799433D01*
X133519991Y-125797585D01*
X133622765Y-125752206D01*
X133673811Y-125701159D01*
X133687875Y-125693018D01*
X133706667Y-125688436D01*
X133723642Y-125679167D01*
X133739910Y-125680330D01*
X133755756Y-125676467D01*
X133774039Y-125682771D01*
X133793334Y-125684151D01*
X133811035Y-125695527D01*
X133821809Y-125699242D01*
X133826936Y-125705746D01*
X133837681Y-125712652D01*
X133877235Y-125752206D01*
X133930478Y-125775715D01*
X133980006Y-125797584D01*
X133980007Y-125797584D01*
X133980009Y-125797585D01*
X133980010Y-125797585D01*
X133983053Y-125798413D01*
X133986032Y-125800245D01*
X133988542Y-125801353D01*
X133988391Y-125801694D01*
X134042573Y-125835007D01*
X134072861Y-125897970D01*
X134074500Y-125918064D01*
X134074500Y-130352389D01*
X134054815Y-130419428D01*
X134038181Y-130440070D01*
X132592595Y-131885655D01*
X132531272Y-131919140D01*
X132466596Y-131915905D01*
X132432465Y-131904815D01*
X132349409Y-131877828D01*
X132170551Y-131849500D01*
X132170546Y-131849500D01*
X131989454Y-131849500D01*
X131989449Y-131849500D01*
X131810589Y-131877829D01*
X131638363Y-131933787D01*
X131638360Y-131933788D01*
X131477002Y-132016006D01*
X131330505Y-132122441D01*
X131330500Y-132122445D01*
X131202445Y-132250500D01*
X131202441Y-132250505D01*
X131096004Y-132397004D01*
X131028908Y-132528685D01*
X130980933Y-132579480D01*
X130913112Y-132596275D01*
X130846977Y-132573737D01*
X130803527Y-132519021D01*
X130800492Y-132510705D01*
X130791094Y-132481780D01*
X130694624Y-132292449D01*
X130655270Y-132238282D01*
X130655269Y-132238282D01*
X130022962Y-132870590D01*
X130005925Y-132807007D01*
X129940099Y-132692993D01*
X129847007Y-132599901D01*
X129732993Y-132534075D01*
X129669409Y-132517037D01*
X130301716Y-131884728D01*
X130247550Y-131845375D01*
X130058217Y-131748904D01*
X129856129Y-131683242D01*
X129646246Y-131650000D01*
X129433754Y-131650000D01*
X129223872Y-131683242D01*
X129223869Y-131683242D01*
X129021782Y-131748904D01*
X128832439Y-131845380D01*
X128778282Y-131884727D01*
X128778282Y-131884728D01*
X129410591Y-132517037D01*
X129347007Y-132534075D01*
X129232993Y-132599901D01*
X129139901Y-132692993D01*
X129074075Y-132807007D01*
X129057037Y-132870591D01*
X128424728Y-132238282D01*
X128424727Y-132238282D01*
X128385380Y-132292440D01*
X128385377Y-132292445D01*
X128384981Y-132293223D01*
X128384752Y-132293464D01*
X128382838Y-132296590D01*
X128382180Y-132296187D01*
X128337004Y-132344017D01*
X128269183Y-132360809D01*
X128203049Y-132338268D01*
X128159600Y-132283551D01*
X128150499Y-132236923D01*
X128150499Y-132105143D01*
X128150499Y-132105136D01*
X128150098Y-132101677D01*
X128147586Y-132080012D01*
X128147585Y-132080011D01*
X128147585Y-132080009D01*
X128102206Y-131977235D01*
X128022765Y-131897794D01*
X127995273Y-131885655D01*
X127919992Y-131852415D01*
X127894865Y-131849500D01*
X126105143Y-131849500D01*
X126105117Y-131849502D01*
X126080012Y-131852413D01*
X126080008Y-131852415D01*
X125977235Y-131897793D01*
X125897794Y-131977234D01*
X125852415Y-132080006D01*
X125852415Y-132080008D01*
X125849500Y-132105131D01*
X125849500Y-132325500D01*
X125829815Y-132392539D01*
X125777011Y-132438294D01*
X125725500Y-132449500D01*
X125625524Y-132449500D01*
X125575202Y-132462983D01*
X125575203Y-132462984D01*
X125485514Y-132487016D01*
X125359986Y-132559489D01*
X125359983Y-132559491D01*
X125131294Y-132788181D01*
X125069971Y-132821666D01*
X125043613Y-132824500D01*
X123349000Y-132824500D01*
X123281961Y-132804815D01*
X123236206Y-132752011D01*
X123225000Y-132700500D01*
X123225000Y-132650000D01*
X122399000Y-132650000D01*
X122331961Y-132630315D01*
X122286206Y-132577511D01*
X122275000Y-132526000D01*
X122275000Y-132400000D01*
X122149000Y-132400000D01*
X122081961Y-132380315D01*
X122036206Y-132327511D01*
X122025000Y-132276000D01*
X122025000Y-132150000D01*
X122525000Y-132150000D01*
X123224999Y-132150000D01*
X123224999Y-132101692D01*
X123224998Y-132101677D01*
X123214855Y-132002392D01*
X123161547Y-131841518D01*
X123161542Y-131841507D01*
X123072575Y-131697271D01*
X123072572Y-131697267D01*
X122952732Y-131577427D01*
X122952728Y-131577424D01*
X122808492Y-131488457D01*
X122808481Y-131488452D01*
X122741801Y-131466357D01*
X122585020Y-131428749D01*
X122548327Y-131425000D01*
X122525000Y-131425000D01*
X122525000Y-132150000D01*
X122025000Y-132150000D01*
X122025000Y-131417118D01*
X122013405Y-131395884D01*
X121996674Y-131413903D01*
X121945862Y-131430703D01*
X121902392Y-131435144D01*
X121741518Y-131488452D01*
X121741507Y-131488457D01*
X121597271Y-131577424D01*
X121597267Y-131577427D01*
X121477427Y-131697267D01*
X121477422Y-131697273D01*
X121467914Y-131712688D01*
X121415964Y-131759410D01*
X121347001Y-131770629D01*
X121287454Y-131746390D01*
X121209976Y-131687636D01*
X121075588Y-131634640D01*
X121050347Y-131631609D01*
X121043436Y-131630779D01*
X121031095Y-131625487D01*
X121017685Y-131624851D01*
X120999611Y-131611985D01*
X120979222Y-131603242D01*
X120971702Y-131592119D01*
X120960764Y-131584333D01*
X120952515Y-131563738D01*
X120940090Y-131545360D01*
X120939777Y-131531937D01*
X120934785Y-131519473D01*
X120938979Y-131497687D01*
X120938463Y-131475509D01*
X120945745Y-131462546D01*
X120947995Y-131450863D01*
X120966714Y-131425222D01*
X120968463Y-131422110D01*
X120969467Y-131421055D01*
X120990509Y-131400015D01*
X120990628Y-131399807D01*
X120990800Y-131399636D01*
X121026875Y-131337025D01*
X121062984Y-131274485D01*
X121063046Y-131274251D01*
X121063166Y-131274044D01*
X121081550Y-131205196D01*
X121100500Y-131134475D01*
X121100500Y-131134466D01*
X121100561Y-131134009D01*
X121100500Y-131062695D01*
X121100500Y-130999597D01*
X121120185Y-130932558D01*
X121149575Y-130900793D01*
X121192922Y-130867922D01*
X121289486Y-130740584D01*
X121291317Y-130741972D01*
X121332607Y-130701689D01*
X121401058Y-130687682D01*
X121466216Y-130712905D01*
X121507394Y-130769351D01*
X121508391Y-130772241D01*
X121515640Y-130794115D01*
X121515643Y-130794124D01*
X121607684Y-130943345D01*
X121731654Y-131067315D01*
X121880875Y-131159356D01*
X121880882Y-131159359D01*
X121972262Y-131189639D01*
X122029707Y-131229411D01*
X122041029Y-131256644D01*
X122047850Y-131247533D01*
X122047852Y-131247532D01*
X122047853Y-131247531D01*
X122073494Y-131237968D01*
X122113314Y-131223115D01*
X122113318Y-131223115D01*
X122134768Y-131223441D01*
X122150023Y-131224999D01*
X122199999Y-131224998D01*
X122200000Y-131224998D01*
X122200000Y-131201295D01*
X122700000Y-131201295D01*
X122784228Y-131221500D01*
X122852696Y-131214506D01*
X123019119Y-131159358D01*
X123019124Y-131159356D01*
X123168345Y-131067315D01*
X123292315Y-130943345D01*
X123384356Y-130794124D01*
X123384358Y-130794119D01*
X123439505Y-130627697D01*
X123439506Y-130627690D01*
X123449999Y-130524986D01*
X123450000Y-130524973D01*
X123450000Y-130250000D01*
X122700000Y-130250000D01*
X122700000Y-131201295D01*
X122200000Y-131201295D01*
X122200000Y-129750000D01*
X122700000Y-129750000D01*
X123449999Y-129750000D01*
X123449999Y-129475028D01*
X123449998Y-129475013D01*
X123439505Y-129372302D01*
X123384358Y-129205880D01*
X123384356Y-129205875D01*
X123292315Y-129056654D01*
X123168345Y-128932684D01*
X123019124Y-128840643D01*
X123019119Y-128840641D01*
X122852697Y-128785494D01*
X122852690Y-128785493D01*
X122749986Y-128775000D01*
X122700000Y-128775000D01*
X122700000Y-129750000D01*
X122200000Y-129750000D01*
X122200000Y-128775000D01*
X122199999Y-128774999D01*
X122150029Y-128775000D01*
X122150011Y-128775001D01*
X122047302Y-128785494D01*
X121880880Y-128840641D01*
X121880875Y-128840643D01*
X121731654Y-128932684D01*
X121607684Y-129056654D01*
X121515643Y-129205875D01*
X121515640Y-129205884D01*
X121508391Y-129227759D01*
X121468618Y-129285203D01*
X121404102Y-129312025D01*
X121335326Y-129299709D01*
X121290834Y-129258393D01*
X121289486Y-129259416D01*
X121192922Y-129132077D01*
X121072343Y-129040639D01*
X120931561Y-128985122D01*
X120885926Y-128979642D01*
X120843102Y-128974500D01*
X120256898Y-128974500D01*
X120217853Y-128979188D01*
X120168438Y-128985122D01*
X120027656Y-129040639D01*
X119907077Y-129132077D01*
X119815639Y-129252656D01*
X119760122Y-129393438D01*
X119755217Y-129434293D01*
X119749500Y-129481898D01*
X119749500Y-130518102D01*
X119755126Y-130564954D01*
X119760122Y-130606561D01*
X119815639Y-130747343D01*
X119867190Y-130815323D01*
X119867312Y-130815645D01*
X119867588Y-130815851D01*
X119879697Y-130848232D01*
X119892013Y-130880635D01*
X119891941Y-130880972D01*
X119892062Y-130881294D01*
X119884745Y-130915070D01*
X119877585Y-130948998D01*
X119877318Y-130949356D01*
X119877270Y-130949580D01*
X119856144Y-130977853D01*
X119777030Y-131057105D01*
X119715736Y-131090643D01*
X119689272Y-131093500D01*
X117474500Y-131093500D01*
X117407461Y-131073815D01*
X117361706Y-131021011D01*
X117350500Y-130969500D01*
X117350500Y-129556903D01*
X117350500Y-129556898D01*
X117339877Y-129468436D01*
X117284361Y-129327658D01*
X117284360Y-129327657D01*
X117284360Y-129327656D01*
X117192922Y-129207077D01*
X117072343Y-129115639D01*
X116969588Y-129075118D01*
X116931564Y-129060123D01*
X116931563Y-129060122D01*
X116931561Y-129060122D01*
X116885926Y-129054642D01*
X116843102Y-129049500D01*
X116156898Y-129049500D01*
X116117853Y-129054188D01*
X116068438Y-129060122D01*
X115927656Y-129115639D01*
X115807077Y-129207077D01*
X115715639Y-129327656D01*
X115660122Y-129468438D01*
X115656668Y-129497207D01*
X115649500Y-129556898D01*
X115649500Y-132843102D01*
X115655126Y-132889954D01*
X115660122Y-132931561D01*
X115715639Y-133072343D01*
X115807077Y-133192922D01*
X115927656Y-133284360D01*
X115927657Y-133284360D01*
X115927658Y-133284361D01*
X116068436Y-133339877D01*
X116156898Y-133350500D01*
X116156903Y-133350500D01*
X116843097Y-133350500D01*
X116843102Y-133350500D01*
X116931564Y-133339877D01*
X117072342Y-133284361D01*
X117192922Y-133192922D01*
X117284361Y-133072342D01*
X117339877Y-132931564D01*
X117350500Y-132843102D01*
X117350500Y-132318500D01*
X117370185Y-132251461D01*
X117422989Y-132205706D01*
X117474500Y-132194500D01*
X119689613Y-132194500D01*
X119719053Y-132203144D01*
X119749040Y-132209668D01*
X119754055Y-132213422D01*
X119756652Y-132214185D01*
X119777294Y-132230819D01*
X119938181Y-132391706D01*
X119971666Y-132453029D01*
X119974500Y-132479387D01*
X119974500Y-132691144D01*
X119975718Y-132701283D01*
X119984640Y-132775588D01*
X120037636Y-132909976D01*
X120119035Y-133017315D01*
X120124922Y-133025078D01*
X120125425Y-133025459D01*
X120125767Y-133025923D01*
X120130917Y-133031072D01*
X120130143Y-133031845D01*
X120166948Y-133081650D01*
X120174500Y-133124263D01*
X120174500Y-133862679D01*
X120154815Y-133929718D01*
X120124813Y-133961944D01*
X120117459Y-133967449D01*
X120117451Y-133967457D01*
X120031206Y-134082664D01*
X120031202Y-134082671D01*
X119980908Y-134217517D01*
X119974501Y-134277116D01*
X119974501Y-134277123D01*
X119974500Y-134277135D01*
X119974500Y-134470612D01*
X119954815Y-134537651D01*
X119938181Y-134558293D01*
X119359491Y-135136983D01*
X119359485Y-135136991D01*
X119287601Y-135261499D01*
X119287602Y-135261500D01*
X119287017Y-135262512D01*
X119287016Y-135262515D01*
X119249500Y-135402525D01*
X119249500Y-137797475D01*
X119250177Y-137800000D01*
X119271359Y-137879056D01*
X119287014Y-137937480D01*
X119287016Y-137937485D01*
X119359489Y-138063013D01*
X119359491Y-138063016D01*
X119808794Y-138512319D01*
X119813132Y-138520264D01*
X119820380Y-138525690D01*
X119829614Y-138550449D01*
X119842279Y-138573642D01*
X119841633Y-138582671D01*
X119844797Y-138591154D01*
X119839180Y-138616974D01*
X119837295Y-138643334D01*
X119831476Y-138652387D01*
X119829945Y-138659427D01*
X119808794Y-138687681D01*
X119681294Y-138815181D01*
X119619971Y-138848666D01*
X119593613Y-138851500D01*
X117074000Y-138851500D01*
X117006961Y-138831815D01*
X116961206Y-138779011D01*
X116950000Y-138727500D01*
X116950000Y-138450000D01*
X116074000Y-138450000D01*
X116006961Y-138430315D01*
X115961206Y-138377511D01*
X115950000Y-138326000D01*
X115950000Y-138200000D01*
X115824000Y-138200000D01*
X115756961Y-138180315D01*
X115711206Y-138127511D01*
X115700000Y-138076000D01*
X115700000Y-136964456D01*
X115679196Y-136926357D01*
X115684180Y-136856665D01*
X115697756Y-136835541D01*
X116200000Y-136835541D01*
X116220804Y-136873641D01*
X116215820Y-136943333D01*
X116200000Y-136967949D01*
X116200000Y-137950000D01*
X116949999Y-137950000D01*
X116949999Y-137675028D01*
X116949998Y-137675013D01*
X116939505Y-137572302D01*
X116884358Y-137405880D01*
X116884356Y-137405875D01*
X116792315Y-137256654D01*
X116668345Y-137132684D01*
X116519124Y-137040643D01*
X116519119Y-137040641D01*
X116449904Y-137017706D01*
X116392459Y-136977934D01*
X116365636Y-136913418D01*
X116377951Y-136844642D01*
X116425494Y-136793442D01*
X116449904Y-136782294D01*
X116519119Y-136759358D01*
X116519124Y-136759356D01*
X116668345Y-136667315D01*
X116792315Y-136543345D01*
X116884356Y-136394124D01*
X116884358Y-136394119D01*
X116939505Y-136227697D01*
X116939506Y-136227690D01*
X116949999Y-136124986D01*
X116950000Y-136124973D01*
X116950000Y-135850000D01*
X116200000Y-135850000D01*
X116200000Y-136835541D01*
X115697756Y-136835541D01*
X115700000Y-136832049D01*
X115700000Y-135350000D01*
X116200000Y-135350000D01*
X116949999Y-135350000D01*
X116949999Y-135075028D01*
X116949998Y-135075013D01*
X116939505Y-134972302D01*
X116884358Y-134805880D01*
X116884356Y-134805875D01*
X116792315Y-134656654D01*
X116668345Y-134532684D01*
X116519124Y-134440643D01*
X116519119Y-134440641D01*
X116352697Y-134385494D01*
X116352690Y-134385493D01*
X116249986Y-134375000D01*
X116200000Y-134375000D01*
X116200000Y-135350000D01*
X115700000Y-135350000D01*
X115700000Y-134375000D01*
X115699999Y-134374999D01*
X115650029Y-134375000D01*
X115650011Y-134375001D01*
X115547302Y-134385494D01*
X115380880Y-134440641D01*
X115380875Y-134440643D01*
X115231654Y-134532684D01*
X115107684Y-134656654D01*
X115015643Y-134805875D01*
X115015640Y-134805884D01*
X115008391Y-134827759D01*
X114968618Y-134885203D01*
X114904102Y-134912025D01*
X114835326Y-134899709D01*
X114790834Y-134858393D01*
X114789486Y-134859416D01*
X114692922Y-134732077D01*
X114572343Y-134640639D01*
X114431561Y-134585122D01*
X114385926Y-134579642D01*
X114343102Y-134574500D01*
X113756898Y-134574500D01*
X113717853Y-134579188D01*
X113668438Y-134585122D01*
X113527656Y-134640639D01*
X113407077Y-134732077D01*
X113385841Y-134760081D01*
X113329647Y-134801603D01*
X113259926Y-134806153D01*
X113199358Y-134772834D01*
X111388206Y-132961681D01*
X111354721Y-132900358D01*
X111359705Y-132830666D01*
X111401577Y-132774733D01*
X111467041Y-132750316D01*
X111475887Y-132750000D01*
X111715634Y-132750000D01*
X111715649Y-132749999D01*
X111752489Y-132747100D01*
X111752495Y-132747099D01*
X111910193Y-132701283D01*
X111910196Y-132701282D01*
X112051552Y-132617685D01*
X112051561Y-132617678D01*
X112167678Y-132501561D01*
X112167685Y-132501552D01*
X112251281Y-132360198D01*
X112297100Y-132202486D01*
X112297295Y-132200001D01*
X112297295Y-132200000D01*
X111261500Y-132200000D01*
X111194461Y-132180315D01*
X111148706Y-132127511D01*
X111137500Y-132076000D01*
X111137500Y-131824000D01*
X111157185Y-131756961D01*
X111209989Y-131711206D01*
X111261500Y-131700000D01*
X112297295Y-131700000D01*
X112297295Y-131699998D01*
X112297099Y-131697503D01*
X112296967Y-131696777D01*
X112297010Y-131696366D01*
X112296603Y-131691191D01*
X112297563Y-131691115D01*
X112304287Y-131627292D01*
X112348011Y-131572795D01*
X112414258Y-131550589D01*
X112418949Y-131550500D01*
X112525500Y-131550500D01*
X112592539Y-131570185D01*
X112638294Y-131622989D01*
X112649500Y-131674500D01*
X112649500Y-132843102D01*
X112655126Y-132889954D01*
X112660122Y-132931561D01*
X112715639Y-133072343D01*
X112807077Y-133192922D01*
X112927656Y-133284360D01*
X112927657Y-133284360D01*
X112927658Y-133284361D01*
X113068436Y-133339877D01*
X113156898Y-133350500D01*
X113156903Y-133350500D01*
X113843097Y-133350500D01*
X113843102Y-133350500D01*
X113931564Y-133339877D01*
X114072342Y-133284361D01*
X114192922Y-133192922D01*
X114284361Y-133072342D01*
X114339877Y-132931564D01*
X114350500Y-132843102D01*
X114350500Y-129556898D01*
X114339877Y-129468436D01*
X114284361Y-129327658D01*
X114284360Y-129327657D01*
X114284360Y-129327656D01*
X114192922Y-129207077D01*
X114072343Y-129115639D01*
X113969588Y-129075118D01*
X113931564Y-129060123D01*
X113931563Y-129060122D01*
X113931561Y-129060122D01*
X113885926Y-129054642D01*
X113843102Y-129049500D01*
X113156898Y-129049500D01*
X113117853Y-129054188D01*
X113068438Y-129060122D01*
X112927656Y-129115639D01*
X112807075Y-129207079D01*
X112805521Y-129208634D01*
X112803750Y-129209600D01*
X112800319Y-129212203D01*
X112799928Y-129211687D01*
X112744198Y-129242119D01*
X112674506Y-129237135D01*
X112630159Y-129208634D01*
X111561819Y-128140294D01*
X111528334Y-128078971D01*
X111525500Y-128052613D01*
X111525500Y-128008862D01*
X111525500Y-128008856D01*
X111515359Y-127924410D01*
X111462364Y-127790025D01*
X111462363Y-127790024D01*
X111462363Y-127790023D01*
X111375078Y-127674921D01*
X111259976Y-127587636D01*
X111125588Y-127534640D01*
X111082242Y-127529435D01*
X111041144Y-127524500D01*
X110508856Y-127524500D01*
X110470841Y-127529065D01*
X110424411Y-127534640D01*
X110290023Y-127587636D01*
X110174923Y-127674920D01*
X110098804Y-127775298D01*
X110042611Y-127816821D01*
X109972890Y-127821372D01*
X109911776Y-127787507D01*
X109901196Y-127775298D01*
X109825076Y-127674920D01*
X109709976Y-127587636D01*
X109575588Y-127534640D01*
X109532242Y-127529435D01*
X109491144Y-127524500D01*
X108958856Y-127524500D01*
X108920841Y-127529065D01*
X108874411Y-127534640D01*
X108740023Y-127587636D01*
X108624921Y-127674921D01*
X108537636Y-127790023D01*
X108484640Y-127924411D01*
X108479065Y-127970841D01*
X108474500Y-128008856D01*
X108474500Y-128008862D01*
X108474500Y-128500724D01*
X108454815Y-128567763D01*
X108402011Y-128613518D01*
X108332853Y-128623462D01*
X108318407Y-128620499D01*
X108184057Y-128584500D01*
X108025943Y-128584500D01*
X107873216Y-128625423D01*
X107873209Y-128625426D01*
X107736290Y-128704475D01*
X107736282Y-128704481D01*
X107624481Y-128816282D01*
X107624477Y-128816287D01*
X107564723Y-128919786D01*
X107514156Y-128968001D01*
X107445549Y-128981225D01*
X107380684Y-128955257D01*
X107340156Y-128898343D01*
X107339630Y-128896789D01*
X107334359Y-128880882D01*
X107334356Y-128880875D01*
X107242315Y-128731654D01*
X107118345Y-128607684D01*
X106969124Y-128515643D01*
X106969119Y-128515641D01*
X106802697Y-128460494D01*
X106802690Y-128460493D01*
X106699986Y-128450000D01*
X106250000Y-128450000D01*
X106250000Y-129275000D01*
X107412284Y-129275000D01*
X107479323Y-129294685D01*
X107525078Y-129347489D01*
X107532057Y-129366901D01*
X107539698Y-129395418D01*
X107545423Y-129416783D01*
X107545426Y-129416790D01*
X107624475Y-129553709D01*
X107624479Y-129553714D01*
X107624480Y-129553716D01*
X107736284Y-129665520D01*
X107736285Y-129665521D01*
X107736287Y-129665522D01*
X107838264Y-129724398D01*
X107886479Y-129774964D01*
X107899621Y-129842837D01*
X107899635Y-129842838D01*
X107899632Y-129842893D01*
X107899723Y-129843361D01*
X107899500Y-129845739D01*
X107899500Y-130254269D01*
X107902353Y-130284699D01*
X107902353Y-130284701D01*
X107944012Y-130403752D01*
X107947207Y-130412882D01*
X107973385Y-130448353D01*
X107975610Y-130451367D01*
X107999580Y-130516997D01*
X107984264Y-130585167D01*
X107975610Y-130598633D01*
X107947207Y-130637118D01*
X107947206Y-130637119D01*
X107902353Y-130765298D01*
X107902353Y-130765300D01*
X107899500Y-130795730D01*
X107899500Y-131204269D01*
X107902353Y-131234699D01*
X107902353Y-131234701D01*
X107947206Y-131362880D01*
X107947207Y-131362882D01*
X107971563Y-131395884D01*
X107975610Y-131401367D01*
X107999580Y-131466997D01*
X107984264Y-131535167D01*
X107975610Y-131548633D01*
X107947207Y-131587118D01*
X107947206Y-131587119D01*
X107902353Y-131715298D01*
X107902353Y-131715300D01*
X107899500Y-131745730D01*
X107899500Y-131800500D01*
X107879815Y-131867539D01*
X107827011Y-131913294D01*
X107775500Y-131924500D01*
X107231472Y-131924500D01*
X107164433Y-131904815D01*
X107132668Y-131875425D01*
X107042922Y-131757077D01*
X106922343Y-131665639D01*
X106814190Y-131622989D01*
X106781564Y-131610123D01*
X106781563Y-131610122D01*
X106781561Y-131610122D01*
X106735926Y-131604642D01*
X106693102Y-131599500D01*
X105306898Y-131599500D01*
X105267853Y-131604188D01*
X105218438Y-131610122D01*
X105077656Y-131665639D01*
X104957077Y-131757077D01*
X104865639Y-131877656D01*
X104810122Y-132018438D01*
X104806735Y-132046648D01*
X104799500Y-132106898D01*
X104799500Y-132843102D01*
X104805126Y-132889954D01*
X104810122Y-132931561D01*
X104865639Y-133072343D01*
X104957077Y-133192922D01*
X105077656Y-133284360D01*
X105077657Y-133284360D01*
X105077658Y-133284361D01*
X105218436Y-133339877D01*
X105306898Y-133350500D01*
X106175500Y-133350500D01*
X106242539Y-133370185D01*
X106288294Y-133422989D01*
X106299500Y-133474500D01*
X106299500Y-134350736D01*
X106279815Y-134417775D01*
X106255761Y-134443774D01*
X106255916Y-134443929D01*
X106251946Y-134447898D01*
X106250434Y-134449533D01*
X106249926Y-134449917D01*
X106249918Y-134449926D01*
X106162636Y-134565023D01*
X106109640Y-134699411D01*
X106106173Y-134728285D01*
X106099500Y-134783856D01*
X106099500Y-135616144D01*
X106100564Y-135625000D01*
X106109640Y-135700588D01*
X106162636Y-135834976D01*
X106249918Y-135950073D01*
X106249922Y-135950078D01*
X106250425Y-135950459D01*
X106250767Y-135950923D01*
X106255917Y-135956072D01*
X106255143Y-135956845D01*
X106291948Y-136006650D01*
X106299500Y-136049263D01*
X106299500Y-137350736D01*
X106279815Y-137417775D01*
X106255761Y-137443774D01*
X106255916Y-137443929D01*
X106251946Y-137447898D01*
X106250434Y-137449533D01*
X106249926Y-137449917D01*
X106249918Y-137449926D01*
X106162636Y-137565023D01*
X106109640Y-137699411D01*
X106104885Y-137739010D01*
X106099500Y-137783856D01*
X106099500Y-138616144D01*
X106104053Y-138654057D01*
X106109640Y-138700588D01*
X106162636Y-138834976D01*
X106249921Y-138950078D01*
X106365023Y-139037363D01*
X106365024Y-139037363D01*
X106365025Y-139037364D01*
X106499410Y-139090359D01*
X106583856Y-139100500D01*
X106583862Y-139100500D01*
X107116138Y-139100500D01*
X107116144Y-139100500D01*
X107200590Y-139090359D01*
X107334975Y-139037364D01*
X107450078Y-138950078D01*
X107537364Y-138834975D01*
X107590359Y-138700590D01*
X107600500Y-138616144D01*
X107600500Y-137783856D01*
X107590359Y-137699410D01*
X107537364Y-137565025D01*
X107537363Y-137565024D01*
X107537363Y-137565023D01*
X107450081Y-137449926D01*
X107450078Y-137449922D01*
X107450076Y-137449920D01*
X107450073Y-137449917D01*
X107449566Y-137449533D01*
X107449219Y-137449064D01*
X107444084Y-137443929D01*
X107444855Y-137443157D01*
X107408048Y-137393337D01*
X107400500Y-137350736D01*
X107400500Y-136049263D01*
X107420185Y-135982224D01*
X107444238Y-135956227D01*
X107444083Y-135956072D01*
X107448074Y-135952080D01*
X107449573Y-135950460D01*
X107450078Y-135950078D01*
X107537364Y-135834975D01*
X107590359Y-135700590D01*
X107600500Y-135616144D01*
X107600500Y-135394943D01*
X108499500Y-135394943D01*
X108499500Y-135553057D01*
X108539032Y-135700590D01*
X108540423Y-135705783D01*
X108540426Y-135705790D01*
X108619475Y-135842709D01*
X108619479Y-135842714D01*
X108619480Y-135842716D01*
X108731284Y-135954520D01*
X108731286Y-135954521D01*
X108731290Y-135954524D01*
X108868209Y-136033573D01*
X108868216Y-136033577D01*
X109020943Y-136074500D01*
X109020945Y-136074500D01*
X109179055Y-136074500D01*
X109179057Y-136074500D01*
X109331784Y-136033577D01*
X109331785Y-136033576D01*
X109339635Y-136031473D01*
X109339746Y-136031888D01*
X109343428Y-136029523D01*
X109378363Y-136024500D01*
X109609676Y-136024500D01*
X109656179Y-136036675D01*
X109657135Y-136034253D01*
X109753084Y-136072090D01*
X109799410Y-136090359D01*
X109883856Y-136100500D01*
X109883862Y-136100500D01*
X110416138Y-136100500D01*
X110416144Y-136100500D01*
X110500590Y-136090359D01*
X110634975Y-136037364D01*
X110750078Y-135950078D01*
X110837364Y-135834975D01*
X110890359Y-135700590D01*
X110900500Y-135616144D01*
X110900500Y-134783856D01*
X110890359Y-134699410D01*
X110837364Y-134565025D01*
X110837363Y-134565024D01*
X110837363Y-134565023D01*
X110750078Y-134449921D01*
X110634976Y-134362636D01*
X110500588Y-134309640D01*
X110457242Y-134304435D01*
X110416144Y-134299500D01*
X109883856Y-134299500D01*
X109845841Y-134304065D01*
X109799411Y-134309640D01*
X109665023Y-134362636D01*
X109549921Y-134449921D01*
X109462636Y-134565023D01*
X109409639Y-134699415D01*
X109399251Y-134785923D01*
X109371714Y-134850137D01*
X109313831Y-134889270D01*
X109244043Y-134890913D01*
X109179057Y-134873500D01*
X109020943Y-134873500D01*
X108868216Y-134914423D01*
X108868209Y-134914426D01*
X108731290Y-134993475D01*
X108731282Y-134993481D01*
X108619481Y-135105282D01*
X108619475Y-135105290D01*
X108540426Y-135242209D01*
X108540423Y-135242216D01*
X108499500Y-135394943D01*
X107600500Y-135394943D01*
X107600500Y-134783856D01*
X107590359Y-134699410D01*
X107537364Y-134565025D01*
X107537363Y-134565024D01*
X107537363Y-134565023D01*
X107450081Y-134449926D01*
X107450078Y-134449922D01*
X107450076Y-134449920D01*
X107450073Y-134449917D01*
X107449566Y-134449533D01*
X107449219Y-134449064D01*
X107444084Y-134443929D01*
X107444855Y-134443157D01*
X107408048Y-134393337D01*
X107400500Y-134350736D01*
X107400500Y-133149500D01*
X107420185Y-133082461D01*
X107472989Y-133036706D01*
X107524500Y-133025500D01*
X108265796Y-133025500D01*
X108266051Y-133025568D01*
X108337475Y-133025500D01*
X108410475Y-133025500D01*
X108410480Y-133025498D01*
X108410992Y-133025430D01*
X108410999Y-133025430D01*
X108480217Y-133006812D01*
X108550485Y-132987984D01*
X108550716Y-132987850D01*
X108550974Y-132987781D01*
X108613403Y-132951658D01*
X108676015Y-132915509D01*
X108676024Y-132915499D01*
X108676232Y-132915341D01*
X108676393Y-132915217D01*
X108676424Y-132915192D01*
X108676434Y-132915187D01*
X108691235Y-132900358D01*
X108727316Y-132864207D01*
X108727315Y-132864207D01*
X108727322Y-132864201D01*
X108778509Y-132813015D01*
X108778642Y-132812783D01*
X108973377Y-132617678D01*
X109004095Y-132586902D01*
X109065386Y-132553359D01*
X109091859Y-132550500D01*
X109407350Y-132550500D01*
X109474389Y-132570185D01*
X109514737Y-132612500D01*
X109559490Y-132690015D01*
X112909986Y-136040510D01*
X112909988Y-136040511D01*
X112909992Y-136040514D01*
X112985346Y-136084019D01*
X112995749Y-136090025D01*
X113035515Y-136112984D01*
X113175525Y-136150500D01*
X113175526Y-136150500D01*
X113179122Y-136150500D01*
X113193104Y-136155297D01*
X113211879Y-136168590D01*
X113232923Y-136177893D01*
X113241081Y-136189265D01*
X113250128Y-136195671D01*
X113255850Y-136209854D01*
X113268219Y-136227096D01*
X113315637Y-136347339D01*
X113315638Y-136347341D01*
X113407077Y-136467922D01*
X113450425Y-136500793D01*
X113491948Y-136556985D01*
X113499500Y-136599597D01*
X113499500Y-137200402D01*
X113479815Y-137267441D01*
X113450427Y-137299204D01*
X113407080Y-137332075D01*
X113407074Y-137332082D01*
X113315639Y-137452656D01*
X113291444Y-137514011D01*
X113260123Y-137593436D01*
X113260122Y-137593438D01*
X113260122Y-137593440D01*
X113260051Y-137594031D01*
X113259858Y-137594478D01*
X113258173Y-137601148D01*
X113257113Y-137600880D01*
X113232509Y-137658244D01*
X113174624Y-137697373D01*
X113104773Y-137698995D01*
X113045134Y-137662596D01*
X113029549Y-137641238D01*
X112954524Y-137511290D01*
X112954518Y-137511282D01*
X112842717Y-137399481D01*
X112842709Y-137399475D01*
X112705790Y-137320426D01*
X112705786Y-137320424D01*
X112705784Y-137320423D01*
X112553057Y-137279500D01*
X112394943Y-137279500D01*
X112242216Y-137320423D01*
X112242214Y-137320423D01*
X112234365Y-137322527D01*
X112234179Y-137321834D01*
X112195637Y-137329500D01*
X110574516Y-137329500D01*
X110529027Y-137320855D01*
X110508040Y-137312579D01*
X110500590Y-137309641D01*
X110416144Y-137299500D01*
X109883856Y-137299500D01*
X109845841Y-137304065D01*
X109799411Y-137309640D01*
X109665023Y-137362636D01*
X109549921Y-137449921D01*
X109462636Y-137565023D01*
X109409640Y-137699411D01*
X109404885Y-137739010D01*
X109399500Y-137783856D01*
X109399500Y-138616144D01*
X109404053Y-138654057D01*
X109409640Y-138700588D01*
X109462636Y-138834976D01*
X109549921Y-138950078D01*
X109665023Y-139037363D01*
X109665024Y-139037363D01*
X109665025Y-139037364D01*
X109799410Y-139090359D01*
X109883856Y-139100500D01*
X109883862Y-139100500D01*
X110416138Y-139100500D01*
X110416144Y-139100500D01*
X110500590Y-139090359D01*
X110634975Y-139037364D01*
X110750078Y-138950078D01*
X110837364Y-138834975D01*
X110890359Y-138700590D01*
X110900500Y-138616144D01*
X110900500Y-138554500D01*
X110920185Y-138487461D01*
X110972989Y-138441706D01*
X111024500Y-138430500D01*
X112195637Y-138430500D01*
X112234179Y-138438165D01*
X112234365Y-138437473D01*
X112242214Y-138439576D01*
X112242216Y-138439577D01*
X112394943Y-138480500D01*
X112394945Y-138480500D01*
X112553055Y-138480500D01*
X112553057Y-138480500D01*
X112705784Y-138439577D01*
X112842716Y-138360520D01*
X112954520Y-138248716D01*
X113018113Y-138138567D01*
X113068679Y-138090353D01*
X113137286Y-138077129D01*
X113202151Y-138103097D01*
X113242680Y-138160011D01*
X113249500Y-138200568D01*
X113249500Y-138718102D01*
X113250903Y-138729785D01*
X113260122Y-138806561D01*
X113260122Y-138806563D01*
X113260123Y-138806564D01*
X113263521Y-138815181D01*
X113315639Y-138947343D01*
X113407077Y-139067922D01*
X113527656Y-139159360D01*
X113527657Y-139159360D01*
X113527658Y-139159361D01*
X113668436Y-139214877D01*
X113756898Y-139225500D01*
X114245613Y-139225500D01*
X114312652Y-139245185D01*
X114333294Y-139261819D01*
X114913985Y-139842510D01*
X115005572Y-139895387D01*
X115039515Y-139914984D01*
X115179525Y-139952500D01*
X115179526Y-139952500D01*
X115179528Y-139952500D01*
X119945472Y-139952500D01*
X119945474Y-139952500D01*
X119945475Y-139952500D01*
X120085485Y-139914984D01*
X120119428Y-139895387D01*
X120211015Y-139842510D01*
X120587319Y-139466206D01*
X120648642Y-139432721D01*
X120718334Y-139437705D01*
X120762681Y-139466206D01*
X121716294Y-140419819D01*
X121749779Y-140481142D01*
X121744795Y-140550834D01*
X121702923Y-140606767D01*
X121637459Y-140631184D01*
X121628613Y-140631500D01*
X106784610Y-140631500D01*
X106717571Y-140611815D01*
X106696929Y-140595181D01*
X104038853Y-137937105D01*
X104005368Y-137875782D01*
X104009878Y-137812711D01*
X104008361Y-137812251D01*
X104010125Y-137806430D01*
X104010130Y-137806420D01*
X104050500Y-137603465D01*
X104050500Y-137396535D01*
X104010130Y-137193580D01*
X103930941Y-137002402D01*
X103815977Y-136830345D01*
X103815975Y-136830342D01*
X103669657Y-136684024D01*
X103578718Y-136623261D01*
X103497598Y-136569059D01*
X103490442Y-136566095D01*
X103306420Y-136489870D01*
X103306412Y-136489868D01*
X103103469Y-136449500D01*
X103103465Y-136449500D01*
X102896535Y-136449500D01*
X102896530Y-136449500D01*
X102693587Y-136489868D01*
X102693579Y-136489870D01*
X102502403Y-136569058D01*
X102330342Y-136684024D01*
X102184024Y-136830342D01*
X102069058Y-137002403D01*
X101989870Y-137193579D01*
X101989868Y-137193587D01*
X101949500Y-137396530D01*
X101949500Y-137603469D01*
X101989868Y-137806412D01*
X101989870Y-137806420D01*
X102069058Y-137997596D01*
X102184024Y-138169657D01*
X102330342Y-138315975D01*
X102330345Y-138315977D01*
X102502402Y-138430941D01*
X102693580Y-138510130D01*
X102896279Y-138550449D01*
X102896530Y-138550499D01*
X102896534Y-138550500D01*
X102896535Y-138550500D01*
X103103466Y-138550500D01*
X103103467Y-138550499D01*
X103306420Y-138510130D01*
X103306430Y-138510125D01*
X103312251Y-138508361D01*
X103312987Y-138510789D01*
X103371436Y-138504503D01*
X103433916Y-138535776D01*
X103437105Y-138538853D01*
X106295737Y-141397485D01*
X106392763Y-141453503D01*
X106401058Y-141455725D01*
X106460718Y-141492090D01*
X106491247Y-141554937D01*
X106482952Y-141624312D01*
X106438467Y-141678190D01*
X106371915Y-141699465D01*
X106368964Y-141699500D01*
X102004428Y-141699500D01*
X101995582Y-141699184D01*
X101766982Y-141682834D01*
X101749470Y-141680316D01*
X101529862Y-141632543D01*
X101512887Y-141627559D01*
X101504181Y-141624312D01*
X101302311Y-141549019D01*
X101286217Y-141541669D01*
X101088963Y-141433959D01*
X101074080Y-141424394D01*
X100894163Y-141289710D01*
X100880792Y-141278124D01*
X100721875Y-141119207D01*
X100710289Y-141105836D01*
X100575605Y-140925919D01*
X100566040Y-140911036D01*
X100545817Y-140874000D01*
X100458327Y-140713777D01*
X100450983Y-140697694D01*
X100372437Y-140487103D01*
X100367458Y-140470144D01*
X100319683Y-140250529D01*
X100317165Y-140233017D01*
X100313095Y-140176113D01*
X100300816Y-140004418D01*
X100300500Y-139995572D01*
X100300500Y-129899986D01*
X104600001Y-129899986D01*
X104610494Y-130002697D01*
X104665641Y-130169119D01*
X104665643Y-130169124D01*
X104757684Y-130318345D01*
X104881654Y-130442315D01*
X105030875Y-130534356D01*
X105030880Y-130534358D01*
X105197302Y-130589505D01*
X105197309Y-130589506D01*
X105300019Y-130599999D01*
X105749999Y-130599999D01*
X106250000Y-130599999D01*
X106699972Y-130599999D01*
X106699986Y-130599998D01*
X106802697Y-130589505D01*
X106969119Y-130534358D01*
X106969124Y-130534356D01*
X107118345Y-130442315D01*
X107242315Y-130318345D01*
X107334356Y-130169124D01*
X107334358Y-130169119D01*
X107389505Y-130002697D01*
X107389506Y-130002690D01*
X107399999Y-129899986D01*
X107400000Y-129899973D01*
X107400000Y-129775000D01*
X106250000Y-129775000D01*
X106250000Y-130599999D01*
X105749999Y-130599999D01*
X105750000Y-130599998D01*
X105750000Y-129775000D01*
X104600001Y-129775000D01*
X104600001Y-129899986D01*
X100300500Y-129899986D01*
X100300500Y-129150013D01*
X104600000Y-129150013D01*
X104600000Y-129275000D01*
X105750000Y-129275000D01*
X105750000Y-128450000D01*
X105300028Y-128450000D01*
X105300012Y-128450001D01*
X105197302Y-128460494D01*
X105030880Y-128515641D01*
X105030875Y-128515643D01*
X104881654Y-128607684D01*
X104757684Y-128731654D01*
X104665643Y-128880875D01*
X104665641Y-128880880D01*
X104610494Y-129047302D01*
X104610493Y-129047309D01*
X104600000Y-129150013D01*
X100300500Y-129150013D01*
X100300500Y-102751504D01*
X114180000Y-102751504D01*
X114180000Y-102900000D01*
X114880000Y-102900000D01*
X114880000Y-103400000D01*
X114180000Y-103400000D01*
X114180000Y-103548495D01*
X114218427Y-103741681D01*
X114218430Y-103741693D01*
X114293807Y-103923671D01*
X114293814Y-103923684D01*
X114403248Y-104087462D01*
X114403251Y-104087466D01*
X114542533Y-104226748D01*
X114542537Y-104226751D01*
X114706315Y-104336185D01*
X114706328Y-104336192D01*
X114888308Y-104411569D01*
X114930000Y-104419862D01*
X114930000Y-103616988D01*
X114939940Y-103634205D01*
X114995795Y-103690060D01*
X115064204Y-103729556D01*
X115140504Y-103750000D01*
X115219496Y-103750000D01*
X115295796Y-103729556D01*
X115364205Y-103690060D01*
X115420060Y-103634205D01*
X115430000Y-103616988D01*
X115430000Y-104419862D01*
X115471690Y-104411569D01*
X115471692Y-104411569D01*
X115653671Y-104336192D01*
X115653684Y-104336185D01*
X115817462Y-104226751D01*
X115817466Y-104226748D01*
X115956748Y-104087466D01*
X115956751Y-104087462D01*
X116066185Y-103923684D01*
X116066192Y-103923671D01*
X116141569Y-103741693D01*
X116141572Y-103741681D01*
X116179999Y-103548495D01*
X116180000Y-103548492D01*
X116180000Y-103400000D01*
X115480000Y-103400000D01*
X115480000Y-102900000D01*
X116180000Y-102900000D01*
X116180000Y-102751508D01*
X116179999Y-102751504D01*
X122820000Y-102751504D01*
X122820000Y-102900000D01*
X123520000Y-102900000D01*
X123520000Y-103400000D01*
X122820000Y-103400000D01*
X122820000Y-103548495D01*
X122858427Y-103741681D01*
X122858430Y-103741693D01*
X122933807Y-103923671D01*
X122933814Y-103923684D01*
X123043248Y-104087462D01*
X123043251Y-104087466D01*
X123182533Y-104226748D01*
X123182537Y-104226751D01*
X123346315Y-104336185D01*
X123346328Y-104336192D01*
X123528308Y-104411569D01*
X123570000Y-104419862D01*
X123570000Y-103616988D01*
X123579940Y-103634205D01*
X123635795Y-103690060D01*
X123704204Y-103729556D01*
X123780504Y-103750000D01*
X123859496Y-103750000D01*
X123935796Y-103729556D01*
X124004205Y-103690060D01*
X124060060Y-103634205D01*
X124070000Y-103616988D01*
X124070000Y-104419862D01*
X124111690Y-104411569D01*
X124111692Y-104411569D01*
X124293671Y-104336192D01*
X124293684Y-104336185D01*
X124457462Y-104226751D01*
X124457466Y-104226748D01*
X124596748Y-104087466D01*
X124596751Y-104087462D01*
X124706185Y-103923684D01*
X124706192Y-103923671D01*
X124781569Y-103741693D01*
X124781572Y-103741681D01*
X124819999Y-103548495D01*
X124820000Y-103548492D01*
X124820000Y-103400000D01*
X124120000Y-103400000D01*
X124120000Y-102900000D01*
X124820000Y-102900000D01*
X124820000Y-102751508D01*
X124819999Y-102751504D01*
X124781572Y-102558318D01*
X124781569Y-102558306D01*
X124706192Y-102376328D01*
X124706185Y-102376315D01*
X124596751Y-102212537D01*
X124596748Y-102212533D01*
X124457466Y-102073251D01*
X124457462Y-102073248D01*
X124293684Y-101963814D01*
X124293671Y-101963807D01*
X124111691Y-101888429D01*
X124111683Y-101888427D01*
X124070000Y-101880135D01*
X124070000Y-102683011D01*
X124060060Y-102665795D01*
X124004205Y-102609940D01*
X123935796Y-102570444D01*
X123859496Y-102550000D01*
X123780504Y-102550000D01*
X123704204Y-102570444D01*
X123635795Y-102609940D01*
X123579940Y-102665795D01*
X123570000Y-102683011D01*
X123570000Y-101880136D01*
X123569999Y-101880135D01*
X123528316Y-101888427D01*
X123528308Y-101888429D01*
X123346328Y-101963807D01*
X123346315Y-101963814D01*
X123182537Y-102073248D01*
X123182533Y-102073251D01*
X123043251Y-102212533D01*
X123043248Y-102212537D01*
X122933814Y-102376315D01*
X122933807Y-102376328D01*
X122858430Y-102558306D01*
X122858427Y-102558318D01*
X122820000Y-102751504D01*
X116179999Y-102751504D01*
X116141572Y-102558318D01*
X116141569Y-102558306D01*
X116066192Y-102376328D01*
X116066185Y-102376315D01*
X115956751Y-102212537D01*
X115956748Y-102212533D01*
X115817466Y-102073251D01*
X115817462Y-102073248D01*
X115653684Y-101963814D01*
X115653671Y-101963807D01*
X115471691Y-101888429D01*
X115471683Y-101888427D01*
X115430000Y-101880135D01*
X115430000Y-102683011D01*
X115420060Y-102665795D01*
X115364205Y-102609940D01*
X115295796Y-102570444D01*
X115219496Y-102550000D01*
X115140504Y-102550000D01*
X115064204Y-102570444D01*
X114995795Y-102609940D01*
X114939940Y-102665795D01*
X114930000Y-102683011D01*
X114930000Y-101880136D01*
X114929999Y-101880135D01*
X114888316Y-101888427D01*
X114888308Y-101888429D01*
X114706328Y-101963807D01*
X114706315Y-101963814D01*
X114542537Y-102073248D01*
X114542533Y-102073251D01*
X114403251Y-102212533D01*
X114403248Y-102212537D01*
X114293814Y-102376315D01*
X114293807Y-102376328D01*
X114218430Y-102558306D01*
X114218427Y-102558318D01*
X114180000Y-102751504D01*
X100300500Y-102751504D01*
X100300500Y-102004427D01*
X100300816Y-101995581D01*
X100303088Y-101963814D01*
X100317165Y-101766973D01*
X100319683Y-101749470D01*
X100367457Y-101529852D01*
X100372434Y-101512901D01*
X100450986Y-101302295D01*
X100458325Y-101286226D01*
X100566043Y-101088955D01*
X100575599Y-101074086D01*
X100710293Y-100894156D01*
X100721867Y-100880799D01*
X100880799Y-100721867D01*
X100894156Y-100710293D01*
X101074086Y-100575599D01*
X101088955Y-100566043D01*
X101286226Y-100458325D01*
X101302295Y-100450986D01*
X101512901Y-100372434D01*
X101529852Y-100367457D01*
X101749476Y-100319681D01*
X101766973Y-100317165D01*
X101995582Y-100300816D01*
X102004428Y-100300500D01*
X102047594Y-100300500D01*
X149952405Y-100300500D01*
X149995572Y-100300500D01*
X150004418Y-100300816D01*
G37*
%TD.AperFunction*%
%TA.AperFunction,Conductor*%
G36*
X136087935Y-138556334D02*
G01*
X136119245Y-138558574D01*
X136122940Y-138560949D01*
X136126095Y-138561365D01*
X136134014Y-138568066D01*
X136163592Y-138587075D01*
X136455290Y-138878773D01*
X136488775Y-138940096D01*
X136483794Y-139009778D01*
X136480910Y-139017511D01*
X136480908Y-139017517D01*
X136474501Y-139077116D01*
X136474501Y-139077123D01*
X136474500Y-139077136D01*
X136474500Y-139722870D01*
X136474501Y-139722876D01*
X136480908Y-139782483D01*
X136531202Y-139917328D01*
X136531203Y-139917330D01*
X136586754Y-139991536D01*
X136611171Y-140057000D01*
X136596320Y-140125273D01*
X136552589Y-140171383D01*
X136544920Y-140176113D01*
X136426114Y-140294919D01*
X136337908Y-140437922D01*
X136337906Y-140437927D01*
X136285057Y-140597416D01*
X136275000Y-140695849D01*
X136275000Y-140750000D01*
X137088500Y-140750000D01*
X137155539Y-140769685D01*
X137201294Y-140822489D01*
X137212500Y-140874000D01*
X137212500Y-141126000D01*
X137192815Y-141193039D01*
X137140011Y-141238794D01*
X137088500Y-141250000D01*
X136275001Y-141250000D01*
X136275001Y-141304152D01*
X136285056Y-141402583D01*
X136329431Y-141536496D01*
X136330410Y-141564960D01*
X136334463Y-141593147D01*
X136331595Y-141599425D01*
X136331833Y-141606325D01*
X136317268Y-141630798D01*
X136305438Y-141656703D01*
X136299630Y-141660435D01*
X136296101Y-141666366D01*
X136270618Y-141679079D01*
X136246660Y-141694477D01*
X136236964Y-141695871D01*
X136233581Y-141697559D01*
X136211725Y-141699500D01*
X136070304Y-141699500D01*
X136003265Y-141679815D01*
X135957510Y-141627011D01*
X135947566Y-141557853D01*
X135960071Y-141521048D01*
X135960003Y-141521022D01*
X135960560Y-141519608D01*
X135962220Y-141514724D01*
X135963112Y-141513136D01*
X135963112Y-141513135D01*
X135963115Y-141513132D01*
X136015479Y-141380346D01*
X136025500Y-141296902D01*
X136025500Y-140703098D01*
X136024629Y-140695849D01*
X136022159Y-140675283D01*
X136015479Y-140619654D01*
X135963115Y-140486868D01*
X135957000Y-140478804D01*
X135876867Y-140373132D01*
X135799575Y-140314520D01*
X135797094Y-140311163D01*
X135793297Y-140309429D01*
X135776506Y-140283301D01*
X135758051Y-140258327D01*
X135757135Y-140253159D01*
X135755523Y-140250651D01*
X135750500Y-140215716D01*
X135750500Y-140193464D01*
X135770185Y-140126425D01*
X135800187Y-140094199D01*
X135882546Y-140032546D01*
X135968796Y-139917331D01*
X136019091Y-139782483D01*
X136025500Y-139722873D01*
X136025499Y-139077128D01*
X136019091Y-139017517D01*
X136011583Y-138997388D01*
X135968797Y-138882671D01*
X135968795Y-138882668D01*
X135965879Y-138878773D01*
X135911830Y-138806572D01*
X135887413Y-138741111D01*
X135902264Y-138672838D01*
X135928800Y-138639509D01*
X135993614Y-138582002D01*
X136022012Y-138568628D01*
X136049553Y-138553590D01*
X136053366Y-138553862D01*
X136056825Y-138552234D01*
X136087935Y-138556334D01*
G37*
%TD.AperFunction*%
%TA.AperFunction,Conductor*%
G36*
X125799541Y-133819236D02*
G01*
X125842731Y-133874157D01*
X125850788Y-133905958D01*
X125852415Y-133919993D01*
X125897793Y-134022764D01*
X125897794Y-134022765D01*
X125977235Y-134102206D01*
X126080009Y-134147585D01*
X126105135Y-134150500D01*
X127320612Y-134150499D01*
X127387651Y-134170184D01*
X127408293Y-134186818D01*
X129440314Y-136218839D01*
X129473799Y-136280162D01*
X129468815Y-136349854D01*
X129426943Y-136405787D01*
X129361479Y-136430204D01*
X129333235Y-136428993D01*
X129150181Y-136400000D01*
X128929819Y-136400000D01*
X128712164Y-136434473D01*
X128502589Y-136502567D01*
X128306233Y-136602616D01*
X128242485Y-136648931D01*
X128242485Y-136648932D01*
X128951414Y-137357861D01*
X128866306Y-137380667D01*
X128763694Y-137439910D01*
X128679910Y-137523694D01*
X128620667Y-137626306D01*
X128597861Y-137711414D01*
X127888932Y-137002485D01*
X127888931Y-137002485D01*
X127888582Y-137002967D01*
X127833252Y-137045633D01*
X127763639Y-137051612D01*
X127701843Y-137019007D01*
X127672909Y-136975574D01*
X127634336Y-136877759D01*
X127542864Y-136757136D01*
X127446451Y-136684023D01*
X127422240Y-136665663D01*
X127281410Y-136610127D01*
X127235982Y-136604672D01*
X127192910Y-136599500D01*
X125807090Y-136599500D01*
X125767249Y-136604284D01*
X125718589Y-136610127D01*
X125577759Y-136665663D01*
X125457136Y-136757136D01*
X125365663Y-136877759D01*
X125310127Y-137018589D01*
X125304449Y-137065880D01*
X125299500Y-137107090D01*
X125299500Y-138492910D01*
X125303569Y-138526793D01*
X125310127Y-138581410D01*
X125365663Y-138722240D01*
X125369652Y-138727500D01*
X125457136Y-138842864D01*
X125577759Y-138934336D01*
X125718588Y-138989872D01*
X125807090Y-139000500D01*
X125807096Y-139000500D01*
X127192904Y-139000500D01*
X127192910Y-139000500D01*
X127281412Y-138989872D01*
X127422241Y-138934336D01*
X127542864Y-138842864D01*
X127634336Y-138722241D01*
X127672910Y-138624424D01*
X127715813Y-138569283D01*
X127781721Y-138546089D01*
X127849706Y-138562209D01*
X127888581Y-138597031D01*
X127888931Y-138597513D01*
X127888932Y-138597513D01*
X128597861Y-137888584D01*
X128620667Y-137973694D01*
X128679910Y-138076306D01*
X128763694Y-138160090D01*
X128866306Y-138219333D01*
X128951414Y-138242137D01*
X128242485Y-138951065D01*
X128242485Y-138951066D01*
X128306243Y-138997388D01*
X128502589Y-139097432D01*
X128712164Y-139165526D01*
X128929819Y-139200000D01*
X129150181Y-139200000D01*
X129367835Y-139165526D01*
X129577410Y-139097432D01*
X129773760Y-138997386D01*
X129837513Y-138951066D01*
X129837514Y-138951066D01*
X129128585Y-138242138D01*
X129213694Y-138219333D01*
X129316306Y-138160090D01*
X129400090Y-138076306D01*
X129459333Y-137973694D01*
X129482137Y-137888585D01*
X130191066Y-138597514D01*
X130191066Y-138597513D01*
X130237388Y-138533758D01*
X130311466Y-138388371D01*
X130359440Y-138337574D01*
X130427261Y-138320779D01*
X130493396Y-138343316D01*
X130532435Y-138388369D01*
X130551139Y-138425076D01*
X130553240Y-138429199D01*
X130664310Y-138582073D01*
X130797927Y-138715690D01*
X130950801Y-138826760D01*
X131030347Y-138867290D01*
X131119163Y-138912545D01*
X131119165Y-138912545D01*
X131119168Y-138912547D01*
X131203955Y-138940096D01*
X131298881Y-138970940D01*
X131485514Y-139000500D01*
X131485519Y-139000500D01*
X131674486Y-139000500D01*
X131861118Y-138970940D01*
X131922283Y-138951066D01*
X132040832Y-138912547D01*
X132209199Y-138826760D01*
X132362073Y-138715690D01*
X132495690Y-138582073D01*
X132606760Y-138429199D01*
X132676052Y-138293204D01*
X132686501Y-138282140D01*
X132692824Y-138268297D01*
X132710003Y-138257256D01*
X132724026Y-138242409D01*
X132739707Y-138238167D01*
X132751602Y-138230523D01*
X132786537Y-138225500D01*
X132919929Y-138225500D01*
X132986968Y-138245185D01*
X133032723Y-138297989D01*
X133035284Y-138304011D01*
X133037635Y-138309975D01*
X133124920Y-138425076D01*
X133124922Y-138425078D01*
X133216417Y-138494461D01*
X133217278Y-138495114D01*
X133258801Y-138551307D01*
X133263352Y-138621028D01*
X133229487Y-138682142D01*
X133216664Y-138693184D01*
X133117452Y-138767455D01*
X133031206Y-138882664D01*
X133031202Y-138882671D01*
X132980908Y-139017517D01*
X132974501Y-139077116D01*
X132974501Y-139077123D01*
X132974500Y-139077135D01*
X132974500Y-139270612D01*
X132954815Y-139337651D01*
X132938181Y-139358293D01*
X132712689Y-139583784D01*
X132705767Y-139588409D01*
X132702831Y-139592641D01*
X132672481Y-139610656D01*
X132669110Y-139612053D01*
X132621637Y-139621500D01*
X122598117Y-139621500D01*
X122531078Y-139601815D01*
X122485323Y-139549011D01*
X122475379Y-139479853D01*
X122504404Y-139416297D01*
X122563182Y-139378523D01*
X122584864Y-139374210D01*
X122632483Y-139369091D01*
X122767328Y-139318797D01*
X122767327Y-139318797D01*
X122767331Y-139318796D01*
X122882546Y-139232546D01*
X122968796Y-139117331D01*
X123019091Y-138982483D01*
X123025500Y-138922873D01*
X123025499Y-138561499D01*
X123045183Y-138494461D01*
X123097987Y-138448706D01*
X123149499Y-138437500D01*
X123824902Y-138437500D01*
X123891941Y-138457185D01*
X123912583Y-138473819D01*
X123931284Y-138492520D01*
X123931286Y-138492521D01*
X123931290Y-138492524D01*
X124050528Y-138561365D01*
X124068216Y-138571577D01*
X124220943Y-138612500D01*
X124220945Y-138612500D01*
X124379055Y-138612500D01*
X124379057Y-138612500D01*
X124531784Y-138571577D01*
X124668716Y-138492520D01*
X124780520Y-138380716D01*
X124859577Y-138243784D01*
X124900500Y-138091057D01*
X124900500Y-137932943D01*
X124859577Y-137780216D01*
X124835787Y-137739010D01*
X124780524Y-137643290D01*
X124780518Y-137643282D01*
X124668717Y-137531481D01*
X124668709Y-137531475D01*
X124531790Y-137452426D01*
X124531786Y-137452424D01*
X124531784Y-137452423D01*
X124379057Y-137411500D01*
X124220943Y-137411500D01*
X124068216Y-137452423D01*
X124068209Y-137452426D01*
X123931290Y-137531475D01*
X123931282Y-137531481D01*
X123912583Y-137550181D01*
X123851260Y-137583666D01*
X123824902Y-137586500D01*
X123088167Y-137586500D01*
X123021128Y-137566815D01*
X122975373Y-137514011D01*
X122965429Y-137444853D01*
X122994454Y-137381297D01*
X123000486Y-137374819D01*
X123072572Y-137302732D01*
X123072575Y-137302728D01*
X123161542Y-137158492D01*
X123161547Y-137158481D01*
X123192730Y-137064380D01*
X123192730Y-137064379D01*
X123214855Y-136997608D01*
X123224999Y-136898322D01*
X123225000Y-136898309D01*
X123225000Y-136850000D01*
X122525000Y-136850000D01*
X122525000Y-137574999D01*
X122548944Y-137598943D01*
X122553281Y-137606886D01*
X122560527Y-137612310D01*
X122569764Y-137637072D01*
X122582429Y-137660266D01*
X122581783Y-137669292D01*
X122584947Y-137677773D01*
X122579330Y-137703596D01*
X122577445Y-137729958D01*
X122571627Y-137739010D01*
X122570097Y-137746047D01*
X122548947Y-137774302D01*
X122535072Y-137788178D01*
X122473750Y-137821665D01*
X122447388Y-137824500D01*
X122077130Y-137824500D01*
X122077123Y-137824501D01*
X122017516Y-137830908D01*
X121882671Y-137881202D01*
X121882664Y-137881206D01*
X121767455Y-137967452D01*
X121767452Y-137967455D01*
X121681206Y-138082664D01*
X121681202Y-138082671D01*
X121630908Y-138217517D01*
X121624501Y-138277116D01*
X121624501Y-138277123D01*
X121624500Y-138277135D01*
X121624500Y-138471613D01*
X121618261Y-138492858D01*
X121616682Y-138514947D01*
X121608609Y-138525730D01*
X121604815Y-138538652D01*
X121588081Y-138553151D01*
X121574810Y-138570880D01*
X121562189Y-138575587D01*
X121552011Y-138584407D01*
X121530093Y-138587558D01*
X121509346Y-138595297D01*
X121496185Y-138592434D01*
X121482853Y-138594351D01*
X121462709Y-138585151D01*
X121441073Y-138580445D01*
X121423347Y-138567176D01*
X121419297Y-138565326D01*
X121412819Y-138559294D01*
X121411818Y-138558293D01*
X121378333Y-138496970D01*
X121375499Y-138470612D01*
X121375499Y-138277129D01*
X121375498Y-138277123D01*
X121375497Y-138277116D01*
X121369091Y-138217517D01*
X121362769Y-138200568D01*
X121318797Y-138082671D01*
X121318793Y-138082664D01*
X121232547Y-137967455D01*
X121232544Y-137967452D01*
X121117335Y-137881206D01*
X121117328Y-137881202D01*
X120982482Y-137830908D01*
X120982483Y-137830908D01*
X120922883Y-137824501D01*
X120922881Y-137824500D01*
X120922873Y-137824500D01*
X120922865Y-137824500D01*
X120729387Y-137824500D01*
X120662348Y-137804815D01*
X120641706Y-137788181D01*
X120440706Y-137587181D01*
X120407221Y-137525858D01*
X120412205Y-137456166D01*
X120454077Y-137400233D01*
X120519541Y-137375816D01*
X120528387Y-137375500D01*
X120991138Y-137375500D01*
X120991144Y-137375500D01*
X121075590Y-137365359D01*
X121209975Y-137312364D01*
X121287457Y-137253607D01*
X121352763Y-137228785D01*
X121421127Y-137243212D01*
X121467917Y-137287314D01*
X121477426Y-137302731D01*
X121597267Y-137422572D01*
X121597271Y-137422575D01*
X121741507Y-137511542D01*
X121741518Y-137511547D01*
X121902393Y-137564855D01*
X122001683Y-137574999D01*
X122025000Y-137574998D01*
X122025000Y-136350000D01*
X122525000Y-136350000D01*
X123224999Y-136350000D01*
X123224999Y-136301689D01*
X123224998Y-136301677D01*
X123214855Y-136202392D01*
X123161547Y-136041518D01*
X123161542Y-136041507D01*
X123072575Y-135897271D01*
X123072572Y-135897267D01*
X122952732Y-135777427D01*
X122952728Y-135777424D01*
X122808492Y-135688457D01*
X122808481Y-135688452D01*
X122647606Y-135635144D01*
X122548322Y-135625000D01*
X122525000Y-135625000D01*
X122525000Y-136350000D01*
X122025000Y-136350000D01*
X122025000Y-135603336D01*
X122017570Y-135589730D01*
X122017570Y-135589724D01*
X122017567Y-135589718D01*
X122020290Y-135551695D01*
X122022554Y-135520038D01*
X122022557Y-135520032D01*
X122022558Y-135520027D01*
X122022579Y-135519998D01*
X122051051Y-135475695D01*
X122114931Y-135411815D01*
X122176253Y-135378333D01*
X122202610Y-135375499D01*
X122572871Y-135375499D01*
X122572872Y-135375499D01*
X122632483Y-135369091D01*
X122767331Y-135318796D01*
X122882546Y-135232546D01*
X122968796Y-135117331D01*
X122980580Y-135085734D01*
X123022450Y-135029803D01*
X123087914Y-135005385D01*
X123128852Y-135009293D01*
X123166943Y-135019500D01*
X123166945Y-135019500D01*
X123325055Y-135019500D01*
X123325057Y-135019500D01*
X123477784Y-134978577D01*
X123614716Y-134899520D01*
X123726520Y-134787716D01*
X123805577Y-134650784D01*
X123846500Y-134498057D01*
X123846500Y-134339943D01*
X123805577Y-134187216D01*
X123786759Y-134154622D01*
X123761863Y-134111499D01*
X123745390Y-134043599D01*
X123768243Y-133977572D01*
X123823165Y-133934382D01*
X123869250Y-133925500D01*
X125395472Y-133925500D01*
X125395474Y-133925500D01*
X125395475Y-133925500D01*
X125535485Y-133887984D01*
X125553552Y-133877553D01*
X125661015Y-133815510D01*
X125661017Y-133815507D01*
X125665614Y-133812854D01*
X125733515Y-133796383D01*
X125799541Y-133819236D01*
G37*
%TD.AperFunction*%
%TA.AperFunction,Conductor*%
G36*
X130942782Y-136570185D02*
G01*
X130988537Y-136622989D01*
X130998481Y-136692147D01*
X130969456Y-136755703D01*
X130948628Y-136774818D01*
X130797927Y-136884310D01*
X130797925Y-136884312D01*
X130797924Y-136884312D01*
X130664312Y-137017924D01*
X130664312Y-137017925D01*
X130664310Y-137017927D01*
X130566591Y-137152425D01*
X130553240Y-137170801D01*
X130532435Y-137211631D01*
X130484459Y-137262426D01*
X130416638Y-137279220D01*
X130350503Y-137256681D01*
X130311466Y-137211629D01*
X130237388Y-137066243D01*
X130191066Y-137002485D01*
X130191065Y-137002485D01*
X129482137Y-137711413D01*
X129459333Y-137626306D01*
X129400090Y-137523694D01*
X129316306Y-137439910D01*
X129213694Y-137380667D01*
X129128583Y-137357861D01*
X129850418Y-136636027D01*
X129854657Y-136615851D01*
X129903708Y-136566095D01*
X129963910Y-136550500D01*
X130072474Y-136550500D01*
X130875743Y-136550500D01*
X130942782Y-136570185D01*
G37*
%TD.AperFunction*%
%TA.AperFunction,Conductor*%
G36*
X103970056Y-113351634D02*
G01*
X103988491Y-113375165D01*
X104069927Y-113509877D01*
X104172369Y-113612319D01*
X104205854Y-113673642D01*
X104200870Y-113743334D01*
X104172369Y-113787681D01*
X104069928Y-113890121D01*
X104069927Y-113890122D01*
X103988491Y-114024834D01*
X103936963Y-114072022D01*
X103868103Y-114083860D01*
X103803775Y-114056591D01*
X103783108Y-114034995D01*
X103732547Y-113967455D01*
X103732544Y-113967452D01*
X103617335Y-113881206D01*
X103617328Y-113881202D01*
X103482486Y-113830910D01*
X103482485Y-113830909D01*
X103482483Y-113830909D01*
X103422873Y-113824500D01*
X103422863Y-113824500D01*
X102927129Y-113824500D01*
X102927123Y-113824501D01*
X102867516Y-113830908D01*
X102732671Y-113881202D01*
X102732664Y-113881206D01*
X102617455Y-113967452D01*
X102588766Y-114005776D01*
X102532832Y-114047646D01*
X102463140Y-114052630D01*
X102401818Y-114019144D01*
X102368333Y-113957820D01*
X102365500Y-113931464D01*
X102365500Y-113468535D01*
X102385185Y-113401496D01*
X102437989Y-113355741D01*
X102507147Y-113345797D01*
X102570703Y-113374822D01*
X102588762Y-113394219D01*
X102617454Y-113432546D01*
X102617455Y-113432546D01*
X102617456Y-113432548D01*
X102732664Y-113518793D01*
X102732671Y-113518797D01*
X102777618Y-113535561D01*
X102867517Y-113569091D01*
X102927127Y-113575500D01*
X103422872Y-113575499D01*
X103482483Y-113569091D01*
X103617331Y-113518796D01*
X103732546Y-113432546D01*
X103783109Y-113365002D01*
X103839041Y-113323133D01*
X103908733Y-113318149D01*
X103970056Y-113351634D01*
G37*
%TD.AperFunction*%
%TA.AperFunction,Conductor*%
G36*
X114099333Y-106644926D02*
G01*
X114155267Y-106686798D01*
X114179684Y-106752262D01*
X114180000Y-106761108D01*
X114180000Y-107080000D01*
X114880000Y-107080000D01*
X114880000Y-107580000D01*
X114180000Y-107580000D01*
X114180000Y-107978495D01*
X114218427Y-108171681D01*
X114218430Y-108171693D01*
X114293807Y-108353671D01*
X114293814Y-108353684D01*
X114403248Y-108517462D01*
X114403251Y-108517466D01*
X114542533Y-108656748D01*
X114542537Y-108656751D01*
X114706315Y-108766185D01*
X114706328Y-108766192D01*
X114888308Y-108841569D01*
X114930000Y-108849862D01*
X114930000Y-108046988D01*
X114939940Y-108064205D01*
X114995795Y-108120060D01*
X115064204Y-108159556D01*
X115140504Y-108180000D01*
X115219496Y-108180000D01*
X115295796Y-108159556D01*
X115364205Y-108120060D01*
X115420060Y-108064205D01*
X115459556Y-107995796D01*
X115459769Y-107995000D01*
X116126000Y-107995000D01*
X116193039Y-108014685D01*
X116238794Y-108067489D01*
X116250000Y-108119000D01*
X116250000Y-108245000D01*
X116325501Y-108245000D01*
X116392540Y-108264685D01*
X116438295Y-108317489D01*
X116449501Y-108369000D01*
X116449501Y-109014856D01*
X116449502Y-109014882D01*
X116452413Y-109039987D01*
X116452414Y-109039991D01*
X116488934Y-109122699D01*
X116499500Y-109172785D01*
X116499500Y-109912637D01*
X116495088Y-109945419D01*
X116492104Y-109956304D01*
X116490423Y-109959216D01*
X116452133Y-110102116D01*
X116452018Y-110102536D01*
X116433908Y-110131864D01*
X116415840Y-110161508D01*
X116415504Y-110161670D01*
X116415310Y-110161986D01*
X116384183Y-110176885D01*
X116352993Y-110192037D01*
X116352623Y-110191992D01*
X116352289Y-110192153D01*
X116318011Y-110187854D01*
X116283617Y-110183742D01*
X116283330Y-110183505D01*
X116282962Y-110183459D01*
X116256438Y-110161301D01*
X116236359Y-110144723D01*
X116234697Y-110146026D01*
X116230071Y-110140121D01*
X116109877Y-110019927D01*
X115964395Y-109931980D01*
X115964396Y-109931980D01*
X115802105Y-109881409D01*
X115802106Y-109881409D01*
X115731572Y-109875000D01*
X115650000Y-109875000D01*
X115650000Y-110525000D01*
X116378056Y-110525000D01*
X116432640Y-110495194D01*
X116502332Y-110500178D01*
X116558266Y-110542048D01*
X116566386Y-110554358D01*
X116569477Y-110559712D01*
X116569479Y-110559715D01*
X116569480Y-110559716D01*
X116681284Y-110671520D01*
X116681286Y-110671521D01*
X116681290Y-110671524D01*
X116734962Y-110702511D01*
X116818216Y-110750577D01*
X116970943Y-110791500D01*
X116970945Y-110791500D01*
X117129055Y-110791500D01*
X117129057Y-110791500D01*
X117281784Y-110750577D01*
X117418716Y-110671520D01*
X117530520Y-110559716D01*
X117609577Y-110422784D01*
X117650500Y-110270057D01*
X117650500Y-110121653D01*
X117670185Y-110054614D01*
X117722989Y-110008859D01*
X117792147Y-109998915D01*
X117836500Y-110014266D01*
X117868216Y-110032577D01*
X118020943Y-110073500D01*
X118020945Y-110073500D01*
X118179055Y-110073500D01*
X118179057Y-110073500D01*
X118331784Y-110032577D01*
X118468716Y-109953520D01*
X118580520Y-109841716D01*
X118607498Y-109794989D01*
X118613554Y-109784500D01*
X118664121Y-109736284D01*
X118720941Y-109722500D01*
X119700500Y-109722500D01*
X119767539Y-109742185D01*
X119813294Y-109794989D01*
X119824500Y-109846500D01*
X119824500Y-110900500D01*
X119804815Y-110967539D01*
X119752011Y-111013294D01*
X119700500Y-111024500D01*
X119294177Y-111024500D01*
X119227138Y-111004815D01*
X119204524Y-110983617D01*
X119203721Y-110984421D01*
X119197151Y-110977851D01*
X119162816Y-110952511D01*
X119087882Y-110897207D01*
X119087880Y-110897206D01*
X118959700Y-110852353D01*
X118929270Y-110849500D01*
X118929266Y-110849500D01*
X117795734Y-110849500D01*
X117795730Y-110849500D01*
X117765300Y-110852353D01*
X117765298Y-110852353D01*
X117637119Y-110897206D01*
X117637117Y-110897207D01*
X117527850Y-110977850D01*
X117447207Y-111087117D01*
X117447206Y-111087119D01*
X117402353Y-111215298D01*
X117402353Y-111215300D01*
X117399500Y-111245730D01*
X117399500Y-111654269D01*
X117402353Y-111684699D01*
X117403964Y-111692073D01*
X117401528Y-111692604D01*
X117404465Y-111750378D01*
X117371551Y-111809208D01*
X117332321Y-111848439D01*
X117332313Y-111848449D01*
X117248718Y-111989801D01*
X117202899Y-112147513D01*
X117202704Y-112149998D01*
X117202705Y-112150000D01*
X118238500Y-112150000D01*
X118305539Y-112169685D01*
X118351294Y-112222489D01*
X118362500Y-112274000D01*
X118362500Y-112526000D01*
X118342815Y-112593039D01*
X118290011Y-112638794D01*
X118238500Y-112650000D01*
X117590645Y-112650000D01*
X117528646Y-112633387D01*
X117424784Y-112573423D01*
X117272057Y-112532500D01*
X117113943Y-112532500D01*
X116961216Y-112573423D01*
X116961209Y-112573426D01*
X116824290Y-112652475D01*
X116824282Y-112652481D01*
X116712481Y-112764282D01*
X116712475Y-112764290D01*
X116633426Y-112901209D01*
X116633423Y-112901216D01*
X116592500Y-113053943D01*
X116592500Y-113212057D01*
X116633423Y-113364784D01*
X116639416Y-113375165D01*
X116640188Y-113376501D01*
X116656660Y-113444401D01*
X116633807Y-113510428D01*
X116578885Y-113553618D01*
X116532800Y-113562500D01*
X115873610Y-113562500D01*
X115806571Y-113542815D01*
X115785929Y-113526181D01*
X115596928Y-113337180D01*
X115563443Y-113275857D01*
X115568427Y-113206165D01*
X115610299Y-113150232D01*
X115675763Y-113125815D01*
X115684609Y-113125499D01*
X115722871Y-113125499D01*
X115722872Y-113125499D01*
X115782483Y-113119091D01*
X115917331Y-113068796D01*
X116032546Y-112982546D01*
X116118796Y-112867331D01*
X116169091Y-112732483D01*
X116175500Y-112672873D01*
X116175499Y-112177128D01*
X116169091Y-112117517D01*
X116166549Y-112110702D01*
X116118797Y-111982671D01*
X116118793Y-111982664D01*
X116032547Y-111867455D01*
X116026036Y-111862581D01*
X115982168Y-111829741D01*
X115965003Y-111816891D01*
X115923133Y-111760957D01*
X115918149Y-111691265D01*
X115951635Y-111629943D01*
X115975166Y-111611508D01*
X116109874Y-111530074D01*
X116109878Y-111530071D01*
X116230072Y-111409877D01*
X116318019Y-111264395D01*
X116368590Y-111102106D01*
X116375000Y-111031572D01*
X116375000Y-111025000D01*
X115524000Y-111025000D01*
X115456961Y-111005315D01*
X115411206Y-110952511D01*
X115400000Y-110901000D01*
X115400000Y-110775000D01*
X115274000Y-110775000D01*
X115206961Y-110755315D01*
X115161206Y-110702511D01*
X115150000Y-110651000D01*
X115150000Y-109875000D01*
X115149999Y-109874999D01*
X115068417Y-109875000D01*
X114997897Y-109881408D01*
X114997892Y-109881409D01*
X114835603Y-109931981D01*
X114690122Y-110019927D01*
X114569927Y-110140122D01*
X114481980Y-110285604D01*
X114431409Y-110447893D01*
X114424999Y-110518429D01*
X114424872Y-110521243D01*
X114424175Y-110521211D01*
X114405315Y-110585441D01*
X114352511Y-110631196D01*
X114283353Y-110641140D01*
X114219797Y-110612115D01*
X114213319Y-110606083D01*
X114141717Y-110534481D01*
X114141709Y-110534475D01*
X114004790Y-110455426D01*
X114004786Y-110455424D01*
X114004784Y-110455423D01*
X113852057Y-110414500D01*
X113693943Y-110414500D01*
X113541216Y-110455423D01*
X113541209Y-110455426D01*
X113404290Y-110534475D01*
X113404282Y-110534481D01*
X113292481Y-110646282D01*
X113292477Y-110646287D01*
X113231830Y-110751333D01*
X113181263Y-110799548D01*
X113112656Y-110812772D01*
X113047792Y-110786804D01*
X113036762Y-110777014D01*
X111756265Y-109496517D01*
X111756263Y-109496515D01*
X111659237Y-109440497D01*
X111551018Y-109411500D01*
X111551017Y-109411500D01*
X111543168Y-109409397D01*
X111543767Y-109407160D01*
X111490764Y-109383711D01*
X111483168Y-109376722D01*
X111129408Y-109022962D01*
X111192993Y-109005925D01*
X111307007Y-108940099D01*
X111400099Y-108847007D01*
X111465925Y-108732993D01*
X111482962Y-108669409D01*
X112115270Y-109301717D01*
X112115270Y-109301716D01*
X112154622Y-109247554D01*
X112251095Y-109058217D01*
X112313465Y-108866262D01*
X115430000Y-108866262D01*
X115443999Y-108886813D01*
X115450000Y-108924923D01*
X115450000Y-109017844D01*
X115456401Y-109077372D01*
X115456403Y-109077379D01*
X115506645Y-109212086D01*
X115506649Y-109212093D01*
X115592809Y-109327187D01*
X115592812Y-109327190D01*
X115707906Y-109413350D01*
X115707913Y-109413354D01*
X115842620Y-109463596D01*
X115842627Y-109463598D01*
X115902155Y-109469999D01*
X115902172Y-109470000D01*
X116000000Y-109470000D01*
X116000000Y-108495000D01*
X115430000Y-108495000D01*
X115430000Y-108866262D01*
X112313465Y-108866262D01*
X112316757Y-108856130D01*
X112316757Y-108856127D01*
X112350000Y-108646246D01*
X112350000Y-108433753D01*
X112316757Y-108223872D01*
X112316757Y-108223869D01*
X112251095Y-108021782D01*
X112224097Y-107968795D01*
X112211201Y-107900126D01*
X112237477Y-107835385D01*
X112294584Y-107795128D01*
X112334582Y-107788500D01*
X112733016Y-107788500D01*
X112733018Y-107788500D01*
X112841237Y-107759503D01*
X112938263Y-107703485D01*
X113968322Y-106673425D01*
X114029642Y-106639942D01*
X114099333Y-106644926D01*
G37*
%TD.AperFunction*%
%TA.AperFunction,Conductor*%
G36*
X125944571Y-106292910D02*
G01*
X125960216Y-106292352D01*
X125977409Y-106302553D01*
X125996589Y-106308185D01*
X126006839Y-106320014D01*
X126020305Y-106328004D01*
X126029254Y-106345883D01*
X126042344Y-106360989D01*
X126044990Y-106377318D01*
X126051580Y-106390483D01*
X126052840Y-106425754D01*
X126050000Y-106452169D01*
X126050000Y-107000000D01*
X126876000Y-107000000D01*
X126943039Y-107019685D01*
X126988794Y-107072489D01*
X127000000Y-107124000D01*
X127000000Y-107250000D01*
X127126000Y-107250000D01*
X127193039Y-107269685D01*
X127238794Y-107322489D01*
X127250000Y-107374000D01*
X127250000Y-108335914D01*
X127245775Y-108368007D01*
X127226500Y-108439943D01*
X127226500Y-108598057D01*
X127265374Y-108743135D01*
X127267423Y-108750783D01*
X127267426Y-108750790D01*
X127346475Y-108887709D01*
X127346479Y-108887714D01*
X127346480Y-108887716D01*
X127458284Y-108999520D01*
X127458286Y-108999521D01*
X127458290Y-108999524D01*
X127528398Y-109040000D01*
X127595216Y-109078577D01*
X127747943Y-109119500D01*
X127747945Y-109119500D01*
X127906055Y-109119500D01*
X127906057Y-109119500D01*
X128058784Y-109078577D01*
X128195716Y-108999520D01*
X128307520Y-108887716D01*
X128349790Y-108814500D01*
X128400357Y-108766285D01*
X128457178Y-108752500D01*
X128556016Y-108752500D01*
X128556018Y-108752500D01*
X128664237Y-108723503D01*
X128761263Y-108667485D01*
X128840485Y-108588263D01*
X128896503Y-108491237D01*
X128924314Y-108387440D01*
X128929635Y-108378711D01*
X128931042Y-108368578D01*
X128947513Y-108349380D01*
X128960677Y-108327783D01*
X128969878Y-108323313D01*
X128976538Y-108315551D01*
X129011536Y-108299885D01*
X129019983Y-108297585D01*
X129019991Y-108297585D01*
X129122765Y-108252206D01*
X129162319Y-108212652D01*
X129170238Y-108208327D01*
X129175642Y-108201102D01*
X129200424Y-108191844D01*
X129223642Y-108179167D01*
X129232640Y-108179810D01*
X129241094Y-108176653D01*
X129266947Y-108182263D01*
X129293334Y-108184151D01*
X129302361Y-108189949D01*
X129309375Y-108191472D01*
X129337539Y-108212545D01*
X129337639Y-108212610D01*
X129377235Y-108252206D01*
X129377303Y-108252236D01*
X129385462Y-108260387D01*
X129396857Y-108281231D01*
X129411936Y-108299589D01*
X129413308Y-108311325D01*
X129418977Y-108321694D01*
X129417293Y-108345392D01*
X129420053Y-108368986D01*
X129417598Y-108380203D01*
X129396500Y-108458943D01*
X129396500Y-108485389D01*
X129389138Y-108510459D01*
X129385546Y-108536347D01*
X129379450Y-108543450D01*
X129376815Y-108552428D01*
X129360181Y-108573070D01*
X124890635Y-113042615D01*
X124829312Y-113076100D01*
X124759620Y-113071116D01*
X124703687Y-113029244D01*
X124695567Y-113016934D01*
X124671522Y-112975287D01*
X124671518Y-112975282D01*
X124559717Y-112863481D01*
X124559716Y-112863480D01*
X124436890Y-112792567D01*
X124388675Y-112742001D01*
X124375994Y-112676215D01*
X124375601Y-112676194D01*
X124375500Y-112676194D01*
X124375499Y-112676188D01*
X124375322Y-112676179D01*
X124375467Y-112673477D01*
X124375451Y-112673394D01*
X124375494Y-112672971D01*
X124375497Y-112672896D01*
X124375500Y-112672873D01*
X124375499Y-112177128D01*
X124369091Y-112117517D01*
X124366549Y-112110702D01*
X124318797Y-111982671D01*
X124318793Y-111982664D01*
X124232547Y-111867455D01*
X124226036Y-111862581D01*
X124182168Y-111829741D01*
X124165003Y-111816891D01*
X124123133Y-111760957D01*
X124118149Y-111691265D01*
X124151635Y-111629943D01*
X124175166Y-111611508D01*
X124309874Y-111530074D01*
X124309878Y-111530071D01*
X124430072Y-111409877D01*
X124518019Y-111264395D01*
X124568590Y-111102106D01*
X124575000Y-111031572D01*
X124575000Y-111025000D01*
X123724000Y-111025000D01*
X123656961Y-111005315D01*
X123611206Y-110952511D01*
X123600000Y-110901000D01*
X123600000Y-110775000D01*
X123474000Y-110775000D01*
X123406961Y-110755315D01*
X123361206Y-110702511D01*
X123350000Y-110651000D01*
X123350000Y-110525000D01*
X123850000Y-110525000D01*
X124574999Y-110525000D01*
X124574999Y-110518416D01*
X124574998Y-110518402D01*
X124568591Y-110447897D01*
X124568590Y-110447892D01*
X124518018Y-110285603D01*
X124430072Y-110140122D01*
X124309877Y-110019927D01*
X124164395Y-109931980D01*
X124164396Y-109931980D01*
X124002105Y-109881409D01*
X124002106Y-109881409D01*
X123931572Y-109875000D01*
X123850000Y-109875000D01*
X123850000Y-110525000D01*
X123350000Y-110525000D01*
X123350000Y-109875000D01*
X123349999Y-109874999D01*
X123268417Y-109875000D01*
X123197897Y-109881408D01*
X123197892Y-109881409D01*
X123035603Y-109931981D01*
X122890122Y-110019927D01*
X122769927Y-110140122D01*
X122732032Y-110202809D01*
X122680504Y-110249997D01*
X122611644Y-110261835D01*
X122563915Y-110246046D01*
X122464239Y-110188498D01*
X122464238Y-110188497D01*
X122464237Y-110188497D01*
X122420316Y-110176728D01*
X122356012Y-110159498D01*
X122350562Y-110158781D01*
X122286667Y-110130511D01*
X122248199Y-110072185D01*
X122247371Y-110002320D01*
X122279070Y-109948165D01*
X122359520Y-109867716D01*
X122393511Y-109808841D01*
X122438574Y-109730790D01*
X122438574Y-109730788D01*
X122438577Y-109730784D01*
X122460278Y-109649789D01*
X122461279Y-109646847D01*
X122472894Y-109603500D01*
X122486636Y-109552216D01*
X122500500Y-109500475D01*
X122500500Y-109172785D01*
X122511066Y-109122698D01*
X122530548Y-109078577D01*
X122547585Y-109039991D01*
X122550500Y-109014865D01*
X122550499Y-108344859D01*
X122570183Y-108277822D01*
X122622987Y-108232067D01*
X122689248Y-108221741D01*
X122890749Y-108245880D01*
X122916336Y-108256844D01*
X122943039Y-108264685D01*
X122948002Y-108270412D01*
X122954971Y-108273399D01*
X122970569Y-108296456D01*
X122988794Y-108317489D01*
X122990688Y-108326196D01*
X122994121Y-108331271D01*
X122994403Y-108343276D01*
X123000000Y-108369000D01*
X123000000Y-109470000D01*
X123097828Y-109470000D01*
X123097844Y-109469999D01*
X123157372Y-109463598D01*
X123157379Y-109463596D01*
X123292086Y-109413354D01*
X123292093Y-109413350D01*
X123407187Y-109327190D01*
X123407190Y-109327187D01*
X123493350Y-109212093D01*
X123493354Y-109212086D01*
X123543596Y-109077379D01*
X123543598Y-109077372D01*
X123549999Y-109017844D01*
X123550000Y-109017827D01*
X123550000Y-108924923D01*
X123569685Y-108857884D01*
X123570000Y-108857530D01*
X123570000Y-108046988D01*
X123579940Y-108064205D01*
X123635795Y-108120060D01*
X123704204Y-108159556D01*
X123780504Y-108180000D01*
X123859496Y-108180000D01*
X123935796Y-108159556D01*
X124004205Y-108120060D01*
X124060060Y-108064205D01*
X124070000Y-108046988D01*
X124070000Y-108849862D01*
X124111690Y-108841569D01*
X124111692Y-108841569D01*
X124293671Y-108766192D01*
X124293684Y-108766185D01*
X124457462Y-108656751D01*
X124457466Y-108656748D01*
X124596748Y-108517466D01*
X124596751Y-108517462D01*
X124706185Y-108353684D01*
X124706192Y-108353671D01*
X124781569Y-108171693D01*
X124781572Y-108171681D01*
X124806205Y-108047844D01*
X126050000Y-108047844D01*
X126056401Y-108107372D01*
X126056403Y-108107379D01*
X126106645Y-108242086D01*
X126106649Y-108242093D01*
X126192809Y-108357187D01*
X126192812Y-108357190D01*
X126307906Y-108443350D01*
X126307913Y-108443354D01*
X126442620Y-108493596D01*
X126442627Y-108493598D01*
X126502155Y-108499999D01*
X126502172Y-108500000D01*
X126750000Y-108500000D01*
X126750000Y-107500000D01*
X126050000Y-107500000D01*
X126050000Y-108047844D01*
X124806205Y-108047844D01*
X124819999Y-107978495D01*
X124820000Y-107978492D01*
X124820000Y-107580000D01*
X124120000Y-107580000D01*
X124120000Y-107080000D01*
X124820000Y-107080000D01*
X124820000Y-106681508D01*
X124819999Y-106681504D01*
X124781572Y-106488318D01*
X124781570Y-106488311D01*
X124769824Y-106459951D01*
X124762356Y-106390482D01*
X124793632Y-106328003D01*
X124853721Y-106292351D01*
X124884386Y-106288500D01*
X125929550Y-106288500D01*
X125944571Y-106292910D01*
G37*
%TD.AperFunction*%
%TA.AperFunction,Conductor*%
G36*
X102570703Y-111574822D02*
G01*
X102588762Y-111594219D01*
X102617454Y-111632546D01*
X102617455Y-111632546D01*
X102617456Y-111632548D01*
X102732664Y-111718793D01*
X102732671Y-111718797D01*
X102777618Y-111735561D01*
X102867517Y-111769091D01*
X102927127Y-111775500D01*
X103298389Y-111775499D01*
X103319635Y-111781737D01*
X103341723Y-111783317D01*
X103352505Y-111791388D01*
X103365428Y-111795183D01*
X103379929Y-111811919D01*
X103397656Y-111825189D01*
X103402362Y-111837807D01*
X103411183Y-111847987D01*
X103414334Y-111869905D01*
X103422073Y-111890653D01*
X103419210Y-111903813D01*
X103421127Y-111917146D01*
X103411927Y-111937288D01*
X103407221Y-111958926D01*
X103393950Y-111976652D01*
X103392102Y-111980701D01*
X103386070Y-111987180D01*
X103385069Y-111988181D01*
X103323746Y-112021666D01*
X103297388Y-112024500D01*
X102927130Y-112024500D01*
X102927123Y-112024501D01*
X102867516Y-112030908D01*
X102732671Y-112081202D01*
X102732664Y-112081206D01*
X102617455Y-112167452D01*
X102588766Y-112205776D01*
X102532832Y-112247646D01*
X102463140Y-112252630D01*
X102401818Y-112219144D01*
X102368333Y-112157820D01*
X102365500Y-112131464D01*
X102365500Y-111668535D01*
X102385185Y-111601496D01*
X102437989Y-111555741D01*
X102507147Y-111545797D01*
X102570703Y-111574822D01*
G37*
%TD.AperFunction*%
%TA.AperFunction,Conductor*%
G36*
X107208867Y-105665422D02*
G01*
X107240400Y-105665873D01*
X107243450Y-105667895D01*
X107247104Y-105668157D01*
X107272353Y-105687058D01*
X107298633Y-105704483D01*
X107300106Y-105707835D01*
X107303037Y-105710029D01*
X107314057Y-105739574D01*
X107326747Y-105768446D01*
X107326676Y-105773407D01*
X107327454Y-105775493D01*
X107326243Y-105803737D01*
X107309500Y-105909448D01*
X107309500Y-106090551D01*
X107337829Y-106269410D01*
X107393787Y-106441636D01*
X107393788Y-106441639D01*
X107440585Y-106533481D01*
X107475301Y-106601615D01*
X107476006Y-106602997D01*
X107582441Y-106749494D01*
X107582445Y-106749499D01*
X107710500Y-106877554D01*
X107710505Y-106877558D01*
X107793009Y-106937500D01*
X107857006Y-106983996D01*
X107933092Y-107022764D01*
X107988684Y-107051090D01*
X108039480Y-107099065D01*
X108056275Y-107166886D01*
X108033737Y-107233021D01*
X107979022Y-107276472D01*
X107970708Y-107279506D01*
X107941781Y-107288905D01*
X107752439Y-107385380D01*
X107698282Y-107424727D01*
X107698282Y-107424728D01*
X108330591Y-108057037D01*
X108267007Y-108074075D01*
X108152993Y-108139901D01*
X108059901Y-108232993D01*
X107994075Y-108347007D01*
X107977037Y-108410591D01*
X107344728Y-107778282D01*
X107344727Y-107778282D01*
X107305380Y-107832439D01*
X107208904Y-108021782D01*
X107143242Y-108223869D01*
X107143242Y-108223872D01*
X107110000Y-108433753D01*
X107110000Y-108646246D01*
X107143242Y-108856127D01*
X107143242Y-108856130D01*
X107208904Y-109058217D01*
X107305375Y-109247550D01*
X107344728Y-109301716D01*
X107977037Y-108669408D01*
X107994075Y-108732993D01*
X108059901Y-108847007D01*
X108152993Y-108940099D01*
X108267007Y-109005925D01*
X108330590Y-109022962D01*
X107698282Y-109655269D01*
X107698282Y-109655270D01*
X107752449Y-109694624D01*
X107941780Y-109791094D01*
X107970705Y-109800492D01*
X108028381Y-109839929D01*
X108055580Y-109904287D01*
X108043667Y-109973134D01*
X107996424Y-110024610D01*
X107988685Y-110028908D01*
X107857004Y-110096004D01*
X107710505Y-110202441D01*
X107710500Y-110202445D01*
X107582445Y-110330500D01*
X107582441Y-110330505D01*
X107476006Y-110477002D01*
X107393788Y-110638360D01*
X107393787Y-110638363D01*
X107337829Y-110810589D01*
X107309500Y-110989448D01*
X107309500Y-111170550D01*
X107328119Y-111288101D01*
X107319165Y-111357395D01*
X107274169Y-111410847D01*
X107207417Y-111431487D01*
X107205646Y-111431500D01*
X105849000Y-111431500D01*
X105781961Y-111411815D01*
X105736206Y-111359011D01*
X105725000Y-111307500D01*
X105725000Y-111250000D01*
X105075000Y-111250000D01*
X105075000Y-111307500D01*
X105055315Y-111374539D01*
X105002511Y-111420294D01*
X104951000Y-111431500D01*
X104699000Y-111431500D01*
X104631961Y-111411815D01*
X104586206Y-111359011D01*
X104575000Y-111307500D01*
X104575000Y-110750000D01*
X105075000Y-110750000D01*
X105724999Y-110750000D01*
X105724999Y-110668417D01*
X105718591Y-110597897D01*
X105718590Y-110597892D01*
X105668018Y-110435603D01*
X105580072Y-110290122D01*
X105459877Y-110169927D01*
X105314395Y-110081980D01*
X105314396Y-110081980D01*
X105152105Y-110031409D01*
X105152106Y-110031409D01*
X105081572Y-110025000D01*
X105075000Y-110025000D01*
X105075000Y-110750000D01*
X104575000Y-110750000D01*
X104575000Y-110306387D01*
X104577500Y-110297057D01*
X104577500Y-110138943D01*
X104575000Y-110129612D01*
X104575000Y-110025001D01*
X104552317Y-110002320D01*
X104548625Y-109998629D01*
X104528913Y-109972941D01*
X104457522Y-109849287D01*
X104457518Y-109849282D01*
X104345717Y-109737481D01*
X104345709Y-109737475D01*
X104208790Y-109658426D01*
X104208786Y-109658424D01*
X104208784Y-109658423D01*
X104056057Y-109617500D01*
X103897943Y-109617500D01*
X103745216Y-109658423D01*
X103745209Y-109658426D01*
X103608290Y-109737475D01*
X103608282Y-109737481D01*
X103496481Y-109849282D01*
X103496475Y-109849290D01*
X103417426Y-109986209D01*
X103417423Y-109986214D01*
X103378201Y-110132594D01*
X103341835Y-110192254D01*
X103278988Y-110222783D01*
X103258426Y-110224500D01*
X102927130Y-110224500D01*
X102927115Y-110224501D01*
X102896900Y-110227749D01*
X102828141Y-110215341D01*
X102777006Y-110167728D01*
X102759729Y-110100028D01*
X102781797Y-110033735D01*
X102795963Y-110016784D01*
X107116091Y-105696656D01*
X107143760Y-105681548D01*
X107170538Y-105664875D01*
X107174199Y-105664927D01*
X107177412Y-105663173D01*
X107208867Y-105665422D01*
G37*
%TD.AperFunction*%
%TA.AperFunction,Conductor*%
G36*
X109792540Y-106570185D02*
G01*
X109838295Y-106622989D01*
X109849501Y-106674500D01*
X109849501Y-106894856D01*
X109849502Y-106894882D01*
X109852413Y-106919987D01*
X109852415Y-106919991D01*
X109897793Y-107022764D01*
X109985360Y-107110331D01*
X109982699Y-107112991D01*
X110013845Y-107151160D01*
X110021738Y-107220582D01*
X109990846Y-107283252D01*
X109987257Y-107286993D01*
X109451296Y-107822955D01*
X109451295Y-107822955D01*
X109451296Y-107822956D01*
X109389512Y-107884740D01*
X109333498Y-107981759D01*
X109333495Y-107981766D01*
X109328079Y-108001980D01*
X109295986Y-108057566D01*
X108942962Y-108410590D01*
X108925925Y-108347007D01*
X108860099Y-108232993D01*
X108767007Y-108139901D01*
X108652993Y-108074075D01*
X108589409Y-108057037D01*
X109221716Y-107424728D01*
X109167550Y-107385375D01*
X108978217Y-107288904D01*
X108949292Y-107279506D01*
X108891616Y-107240068D01*
X108864418Y-107175710D01*
X108876333Y-107106863D01*
X108923577Y-107055388D01*
X108931315Y-107051090D01*
X109062994Y-106983996D01*
X109209501Y-106877553D01*
X109337553Y-106749501D01*
X109358877Y-106720151D01*
X109444999Y-106601615D01*
X109449330Y-106598274D01*
X109451604Y-106593297D01*
X109476706Y-106577164D01*
X109500329Y-106558949D01*
X109507000Y-106557696D01*
X109510382Y-106555523D01*
X109545317Y-106550500D01*
X109725501Y-106550500D01*
X109792540Y-106570185D01*
G37*
%TD.AperFunction*%
%TD*%
M02*
