M48
; DRILL file {KiCad 9.0.9} date 2026-10-01T07:35:31+0000
; FORMAT={-:-/ absolute / metric / decimal}
; #@! TF.CreationDate,2026-10-01T07:35:31+00:00
; #@! TF.GenerationSoftware,Kicad,Pcbnew,9.0.9
; #@! TF.FileFunction,Plated,1,2,PTH
FMAT,2
METRIC
; #@! TA.AperFunction,Plated,PTH,ComponentDrill
T1C0.200
; #@! TA.AperFunction,Plated,PTH,ViaDrill
T2C0.300
; #@! TA.AperFunction,Plated,PTH,ComponentDrill
T3C0.600
; #@! TA.AperFunction,Plated,PTH,ComponentDrill
T4C0.900
; #@! TA.AperFunction,Plated,PTH,ComponentDrill
T5C1.000
%
G90
G05
T1
X131.7Y-116.41
X131.7Y-117.51
X132.25Y-115.86
X132.25Y-116.96
X132.25Y-118.06
X132.8Y-116.41
X132.8Y-117.51
X133.35Y-115.86
X133.35Y-116.96
X133.35Y-118.06
X133.9Y-116.41
X133.9Y-117.51
T2
X103.794Y-113.744
X104.025Y-120.75
X106.102Y-126.626
X106.683Y-109.247
X109.1Y-135.474
X111.278Y-136.786
X113.173Y-114.316
X114.132Y-120.988
X114.95Y-124.315
X117.05Y-109.534
X117.243Y-112.866
X117.825Y-119.5
X118.75Y-118.432
X118.75Y-122.5
X118.762Y-105.998
X120.086Y-135.715
X121.806Y-112.589
X121.938Y-113.478
X122.049Y-109.541
X122.362Y-111.773
X124.061Y-137.531
X124.061Y-140.193
X124.573Y-136.074
X124.585Y-115.23
X124.888Y-122.276
X124.928Y-110.611
X125.176Y-125.827
X127.891Y-122.818
X129.994Y-108.538
X130.0Y-126.038
X132.751Y-141.0
X136.411Y-137.082
X136.878Y-134.742
X137.232Y-136.803
X138.47Y-126.272
X139.0Y-108.527
X139.574Y-137.051
X139.75Y-139.949
X139.759Y-140.97
X141.962Y-134.117
X143.245Y-137.88
T4
X126.5Y-137.8
X129.04Y-137.8
X131.58Y-137.8
T5
X108.46Y-106.0
X108.46Y-108.54
X108.46Y-111.08
X108.46Y-113.62
X108.46Y-116.16
X108.46Y-118.7
X108.46Y-121.24
X108.46Y-123.78
X111.0Y-106.0
X111.0Y-108.54
X111.0Y-111.08
X111.0Y-113.62
X111.0Y-116.16
X111.0Y-118.7
X111.0Y-121.24
X111.0Y-123.78
X127.0Y-133.0
X129.54Y-133.0
X132.08Y-133.0
X134.62Y-133.0
T3
X115.18Y-103.45G85X115.18Y-102.85
G05
X115.18Y-107.88G85X115.18Y-106.78
G05
X123.82Y-103.45G85X123.82Y-102.85
G05
X123.82Y-107.88G85X123.82Y-106.78
G05
M30
