M48
; DRILL file {KiCad 9.0.9} date 2026-10-02T00:09:37+0000
; FORMAT={-:-/ absolute / metric / decimal}
; #@! TF.CreationDate,2026-10-02T00:09:37+00:00
; #@! TF.GenerationSoftware,Kicad,Pcbnew,9.0.9
; #@! TF.FileFunction,Plated,1,2,PTH
FMAT,2
METRIC
; #@! TA.AperFunction,Plated,PTH,ComponentDrill
T1C0.200
; #@! TA.AperFunction,Plated,PTH,ViaDrill
T2C0.300
; #@! TA.AperFunction,Plated,PTH,ComponentDrill
T3C0.600
; #@! TA.AperFunction,Plated,PTH,ComponentDrill
T4C0.900
; #@! TA.AperFunction,Plated,PTH,ComponentDrill
T5C1.000
%
G90
G05
T1
X131.7Y-116.41
X131.7Y-117.51
X132.25Y-115.86
X132.25Y-116.96
X132.25Y-118.06
X132.8Y-116.41
X132.8Y-117.51
X133.35Y-115.86
X133.35Y-116.96
X133.35Y-118.06
X133.9Y-116.41
X133.9Y-117.51
T2
X103.977Y-110.218
X104.067Y-115.376
X106.605Y-120.939
X108.105Y-129.185
X109.1Y-135.474
X112.232Y-104.798
X112.474Y-137.88
X112.778Y-112.006
X113.102Y-121.726
X113.773Y-111.015
X115.577Y-123.229
X117.013Y-124.706
X117.05Y-110.191
X117.193Y-113.133
X117.774Y-107.014
X118.1Y-109.473
X120.518Y-106.01
X120.777Y-122.525
X120.777Y-125.407
X121.832Y-112.602
X121.879Y-109.499
X122.602Y-141.057
X123.246Y-134.419
X123.565Y-115.885
X124.191Y-113.344
X124.3Y-138.012
X127.794Y-123.496
X127.827Y-108.519
X127.92Y-116.879
X129.623Y-126.004
X129.997Y-108.538
X131.04Y-126.002
X132.273Y-141.082
X132.9Y-140.172
X136.233Y-137.618
X138.269Y-109.784
X138.381Y-135.097
X138.689Y-136.06
X139.647Y-130.451
X139.734Y-137.8
X139.736Y-140.783
X143.24Y-137.712
T4
X126.5Y-137.8
X129.04Y-137.8
X131.58Y-137.8
T5
X108.46Y-106.0
X108.46Y-108.54
X108.46Y-111.08
X108.46Y-113.62
X108.46Y-116.16
X108.46Y-118.7
X108.46Y-121.24
X108.46Y-123.78
X111.0Y-106.0
X111.0Y-108.54
X111.0Y-111.08
X111.0Y-113.62
X111.0Y-116.16
X111.0Y-118.7
X111.0Y-121.24
X111.0Y-123.78
X127.0Y-133.0
X129.54Y-133.0
X132.08Y-133.0
X134.62Y-133.0
T3
X115.18Y-103.45G85X115.18Y-102.85
G05
X115.18Y-107.88G85X115.18Y-106.78
G05
X123.82Y-103.45G85X123.82Y-102.85
G05
X123.82Y-107.88G85X123.82Y-106.78
G05
M30
