%TF.GenerationSoftware,KiCad,Pcbnew,9.0.9*%
%TF.CreationDate,2026-10-01T08:31:16+00:00*%
%TF.ProjectId,AP1_Programador,4150315f-5072-46f6-9772-616d61646f72,rev?*%
%TF.SameCoordinates,Original*%
%TF.FileFunction,Soldermask,Top*%
%TF.FilePolarity,Negative*%
%FSLAX46Y46*%
G04 Gerber Fmt 4.6, Leading zero omitted, Abs format (unit mm)*
G04 Created by KiCad (PCBNEW 9.0.9) date 2026-10-01 08:31:16*
%MOMM*%
%LPD*%
G01*
G04 APERTURE LIST*
G04 Aperture macros list*
%AMRoundRect*
0 Rectangle with rounded corners*
0 $1 Rounding radius*
0 $2 $3 $4 $5 $6 $7 $8 $9 X,Y pos of 4 corners*
0 Add a 4 corners polygon primitive as box body*
4,1,4,$2,$3,$4,$5,$6,$7,$8,$9,$2,$3,0*
0 Add four circle primitives for the rounded corners*
1,1,$1+$1,$2,$3*
1,1,$1+$1,$4,$5*
1,1,$1+$1,$6,$7*
1,1,$1+$1,$8,$9*
0 Add four rect primitives between the rounded corners*
20,1,$1+$1,$2,$3,$4,$5,0*
20,1,$1+$1,$4,$5,$6,$7,0*
20,1,$1+$1,$6,$7,$8,$9,0*
20,1,$1+$1,$8,$9,$2,$3,0*%
G04 Aperture macros list end*
%ADD10RoundRect,0.200000X-0.200000X-0.275000X0.200000X-0.275000X0.200000X0.275000X-0.200000X0.275000X0*%
%ADD11RoundRect,0.250200X-0.649800X-0.649800X0.649800X-0.649800X0.649800X0.649800X-0.649800X0.649800X0*%
%ADD12C,1.800000*%
%ADD13RoundRect,0.150000X0.150000X0.625000X-0.150000X0.625000X-0.150000X-0.625000X0.150000X-0.625000X0*%
%ADD14RoundRect,0.250000X0.350000X0.650000X-0.350000X0.650000X-0.350000X-0.650000X0.350000X-0.650000X0*%
%ADD15RoundRect,0.250000X0.650000X-0.325000X0.650000X0.325000X-0.650000X0.325000X-0.650000X-0.325000X0*%
%ADD16RoundRect,0.200000X0.275000X-0.200000X0.275000X0.200000X-0.275000X0.200000X-0.275000X-0.200000X0*%
%ADD17RoundRect,0.225000X-0.225000X-0.250000X0.225000X-0.250000X0.225000X0.250000X-0.225000X0.250000X0*%
%ADD18R,1.700000X1.000000*%
%ADD19RoundRect,0.250000X-0.300000X-1.600000X0.300000X-1.600000X0.300000X1.600000X-0.300000X1.600000X0*%
%ADD20RoundRect,0.250000X-0.250000X-0.475000X0.250000X-0.475000X0.250000X0.475000X-0.250000X0.475000X0*%
%ADD21C,0.650000*%
%ADD22R,0.600000X1.450000*%
%ADD23R,0.300000X1.450000*%
%ADD24O,1.000000X2.100000*%
%ADD25O,1.000000X1.600000*%
%ADD26RoundRect,0.150000X-0.512500X-0.150000X0.512500X-0.150000X0.512500X0.150000X-0.512500X0.150000X0*%
%ADD27RoundRect,0.225000X-0.225000X-0.375000X0.225000X-0.375000X0.225000X0.375000X-0.225000X0.375000X0*%
%ADD28C,1.500000*%
%ADD29R,0.900000X1.500000*%
%ADD30C,0.600000*%
%ADD31R,2.900000X2.900000*%
%ADD32C,3.200000*%
%ADD33R,1.700000X1.700000*%
%ADD34C,1.700000*%
%ADD35RoundRect,0.218750X-0.218750X-0.256250X0.218750X-0.256250X0.218750X0.256250X-0.218750X0.256250X0*%
G04 APERTURE END LIST*
D10*
%TO.C,R10*%
X103175000Y-111000000D03*
X104825000Y-111000000D03*
%TD*%
%TO.C,R6*%
X140675000Y-137800000D03*
X142325000Y-137800000D03*
%TD*%
D11*
%TO.C,U4*%
X126500000Y-137800000D03*
D12*
X129040000Y-137800000D03*
X131580000Y-137800000D03*
%TD*%
D10*
%TO.C,R12*%
X103175000Y-114600000D03*
X104825000Y-114600000D03*
%TD*%
D13*
%TO.C,J3*%
X142500000Y-135650000D03*
X141500000Y-135650000D03*
X140500000Y-135650000D03*
X139500000Y-135650000D03*
D14*
X143800000Y-131775000D03*
X138200000Y-131775000D03*
%TD*%
D15*
%TO.C,C5*%
X106000000Y-132475000D03*
X106000000Y-129525000D03*
%TD*%
D16*
%TO.C,R4*%
X115400000Y-112425000D03*
X115400000Y-110775000D03*
%TD*%
D17*
%TO.C,C3*%
X120725000Y-136600000D03*
X122275000Y-136600000D03*
%TD*%
%TO.C,C4*%
X109225000Y-128300000D03*
X110775000Y-128300000D03*
%TD*%
D18*
%TO.C,SW2*%
X116350000Y-122500000D03*
X122650000Y-122500000D03*
X116350000Y-126300000D03*
X122650000Y-126300000D03*
%TD*%
D19*
%TO.C,L1*%
X113500000Y-131200000D03*
X116500000Y-131200000D03*
%TD*%
D16*
%TO.C,R3*%
X123600000Y-112425000D03*
X123600000Y-110775000D03*
%TD*%
D17*
%TO.C,C8*%
X133725000Y-137800000D03*
X135275000Y-137800000D03*
%TD*%
D10*
%TO.C,R2*%
X120675000Y-138600000D03*
X122325000Y-138600000D03*
%TD*%
D20*
%TO.C,C1*%
X120550000Y-130000000D03*
X122450000Y-130000000D03*
%TD*%
D10*
%TO.C,R8*%
X133675000Y-139400000D03*
X135325000Y-139400000D03*
%TD*%
D21*
%TO.C,J2*%
X122390000Y-106800000D03*
X116610000Y-106800000D03*
D22*
X122750000Y-108245000D03*
X121950000Y-108245000D03*
D23*
X120750000Y-108245000D03*
X119750000Y-108245000D03*
X119250000Y-108245000D03*
X118250000Y-108245000D03*
D22*
X117050000Y-108245000D03*
X116250000Y-108245000D03*
X116250000Y-108245000D03*
X117050000Y-108245000D03*
D23*
X117750000Y-108245000D03*
X118750000Y-108245000D03*
X120250000Y-108245000D03*
X121250000Y-108245000D03*
D22*
X121950000Y-108245000D03*
X122750000Y-108245000D03*
D24*
X123820000Y-107330000D03*
D25*
X123820000Y-103150000D03*
D24*
X115180000Y-107330000D03*
D25*
X115180000Y-103150000D03*
%TD*%
D26*
%TO.C,U3*%
X118362500Y-111450000D03*
X118362500Y-112400000D03*
X118362500Y-113350000D03*
X120637500Y-113350000D03*
X120637500Y-112400000D03*
X120637500Y-111450000D03*
%TD*%
D27*
%TO.C,D2*%
X106850000Y-138200000D03*
X110150000Y-138200000D03*
%TD*%
D28*
%TO.C,TP2*%
X103000000Y-123000000D03*
%TD*%
D29*
%TO.C,U1*%
X139000000Y-107250000D03*
X137500000Y-107250000D03*
X136000000Y-107250000D03*
X134500000Y-107250000D03*
X133000000Y-107250000D03*
X131500000Y-107250000D03*
X130000000Y-107250000D03*
X128500000Y-107250000D03*
X127000000Y-107250000D03*
X127000000Y-124750000D03*
X128500000Y-124750000D03*
X130000000Y-124750000D03*
X131500000Y-124750000D03*
X133000000Y-124750000D03*
X134500000Y-124750000D03*
X136000000Y-124750000D03*
X137500000Y-124750000D03*
X139000000Y-124750000D03*
D30*
X133350000Y-115860000D03*
X132250000Y-115860000D03*
X133900000Y-116410000D03*
X132800000Y-116410000D03*
X131700000Y-116410000D03*
X133350000Y-116960000D03*
D31*
X132800000Y-116960000D03*
D30*
X132250000Y-116960000D03*
X133900000Y-117510000D03*
X132800000Y-117510000D03*
X131700000Y-117510000D03*
X133350000Y-118060000D03*
X132250000Y-118060000D03*
%TD*%
D28*
%TO.C,TP3*%
X103000000Y-126000000D03*
%TD*%
D26*
%TO.C,U2*%
X108862500Y-130050000D03*
X108862500Y-131000000D03*
X108862500Y-131950000D03*
X111137500Y-131950000D03*
X111137500Y-131000000D03*
X111137500Y-130050000D03*
%TD*%
D20*
%TO.C,C7*%
X114050000Y-138200000D03*
X115950000Y-138200000D03*
%TD*%
D32*
%TO.C,H1*%
X148500000Y-139500000D03*
%TD*%
D10*
%TO.C,R5*%
X137175000Y-137800000D03*
X138825000Y-137800000D03*
%TD*%
%TO.C,R13*%
X103175000Y-116400000D03*
X104825000Y-116400000D03*
%TD*%
D28*
%TO.C,TP4*%
X103000000Y-137500000D03*
%TD*%
D17*
%TO.C,C2*%
X120725000Y-132400000D03*
X122275000Y-132400000D03*
%TD*%
D10*
%TO.C,R14*%
X133675000Y-136000000D03*
X135325000Y-136000000D03*
%TD*%
%TO.C,R11*%
X103175000Y-112800000D03*
X104825000Y-112800000D03*
%TD*%
%TO.C,R7*%
X140675000Y-139400000D03*
X142325000Y-139400000D03*
%TD*%
D27*
%TO.C,D1*%
X106850000Y-135200000D03*
X110150000Y-135200000D03*
%TD*%
D10*
%TO.C,R9*%
X137175000Y-139400000D03*
X138825000Y-139400000D03*
%TD*%
D33*
%TO.C,J4*%
X127000000Y-133000000D03*
D34*
X129540000Y-133000000D03*
X132080000Y-133000000D03*
X134620000Y-133000000D03*
%TD*%
D20*
%TO.C,C6*%
X114050000Y-135600000D03*
X115950000Y-135600000D03*
%TD*%
D18*
%TO.C,SW1*%
X116350000Y-115700000D03*
X122650000Y-115700000D03*
X116350000Y-119500000D03*
X122650000Y-119500000D03*
%TD*%
D35*
%TO.C,D4*%
X137212500Y-141000000D03*
X138787500Y-141000000D03*
%TD*%
D10*
%TO.C,R1*%
X120675000Y-134600000D03*
X122325000Y-134600000D03*
%TD*%
D35*
%TO.C,D3*%
X133712500Y-141000000D03*
X135287500Y-141000000D03*
%TD*%
D28*
%TO.C,TP1*%
X103000000Y-120000000D03*
%TD*%
D33*
%TO.C,J1*%
X111000000Y-106000000D03*
D34*
X108460000Y-106000000D03*
X111000000Y-108540000D03*
X108460000Y-108540000D03*
X111000000Y-111080000D03*
X108460000Y-111080000D03*
X111000000Y-113620000D03*
X108460000Y-113620000D03*
X111000000Y-116160000D03*
X108460000Y-116160000D03*
X111000000Y-118700000D03*
X108460000Y-118700000D03*
X111000000Y-121240000D03*
X108460000Y-121240000D03*
X111000000Y-123780000D03*
X108460000Y-123780000D03*
%TD*%
M02*
