%TF.GenerationSoftware,KiCad,Pcbnew,9.0.9*%
%TF.CreationDate,2026-09-25T07:32:36+00:00*%
%TF.ProjectId,ControladorFlechas,436f6e74-726f-46c6-9164-6f72466c6563,rev?*%
%TF.SameCoordinates,Original*%
%TF.FileFunction,Soldermask,Bot*%
%TF.FilePolarity,Negative*%
%FSLAX46Y46*%
G04 Gerber Fmt 4.6, Leading zero omitted, Abs format (unit mm)*
G04 Created by KiCad (PCBNEW 9.0.9) date 2026-09-25 07:32:36*
%MOMM*%
%LPD*%
G01*
G04 APERTURE LIST*
%ADD10R,1.600000X2.600000*%
%ADD11O,1.600000X2.600000*%
%ADD12C,2.400000*%
%ADD13R,2.400000X2.400000*%
%ADD14R,3.000000X3.000000*%
%ADD15C,3.000000*%
%ADD16C,3.200000*%
%ADD17R,2.600000X1.600000*%
%ADD18O,2.600000X1.600000*%
%ADD19R,2.600000X2.600000*%
%ADD20C,2.600000*%
%ADD21R,1.800000X3.000000*%
%ADD22O,1.800000X3.000000*%
G04 APERTURE END LIST*
D10*
%TO.C,Q4*%
X133820000Y-115405000D03*
D11*
X136360000Y-115405000D03*
X138900000Y-115405000D03*
%TD*%
D10*
%TO.C,C5*%
X141757500Y-114770000D03*
D11*
X144297500Y-114770000D03*
%TD*%
D12*
%TO.C,R16*%
X103340000Y-65239999D03*
X93180000Y-65239999D03*
%TD*%
%TO.C,R24*%
X69050000Y-78575000D03*
X69050000Y-73495000D03*
%TD*%
%TO.C,R28*%
X127470000Y-110960000D03*
X132550000Y-110960000D03*
%TD*%
D13*
%TO.C,D7*%
X110642500Y-111595000D03*
D12*
X110642500Y-103975000D03*
%TD*%
D13*
%TO.C,D1*%
X118580000Y-62700000D03*
D12*
X128740000Y-62700000D03*
%TD*%
D10*
%TO.C,U5*%
X72860000Y-83020000D03*
D11*
X70320000Y-83020000D03*
X67780000Y-83020000D03*
%TD*%
D14*
%TO.C,J6*%
X76670000Y-123660000D03*
D15*
X81750000Y-123660000D03*
%TD*%
D10*
%TO.C,LED3*%
X97625000Y-75082500D03*
D11*
X100165000Y-75082500D03*
%TD*%
D12*
%TO.C,R7*%
X130009999Y-85560000D03*
X119849999Y-85560000D03*
%TD*%
D10*
%TO.C,C8*%
X123660000Y-112229999D03*
D11*
X121120000Y-112229999D03*
%TD*%
D12*
%TO.C,R26*%
X69050000Y-92545000D03*
X69050000Y-87465000D03*
%TD*%
D16*
%TO.C,H3*%
X54000000Y-126000000D03*
%TD*%
D12*
%TO.C,JP3*%
X65239999Y-112865000D03*
X72859999Y-112865000D03*
%TD*%
%TO.C,R3*%
X114770000Y-76035000D03*
X114770000Y-70955000D03*
%TD*%
%TO.C,F1*%
X141440000Y-62700000D03*
X136360000Y-62700000D03*
%TD*%
%TO.C,R11*%
X107150000Y-111595000D03*
X107150000Y-116675000D03*
%TD*%
D13*
%TO.C,C3*%
X132550000Y-74765000D03*
D12*
X132550000Y-78575000D03*
%TD*%
%TO.C,R2*%
X123660000Y-74765000D03*
X118580000Y-74765000D03*
%TD*%
D16*
%TO.C,H4*%
X151000000Y-126000000D03*
%TD*%
D13*
%TO.C,D5*%
X113500000Y-107785000D03*
D12*
X121120000Y-107785000D03*
%TD*%
D16*
%TO.C,H2*%
X151000000Y-54000000D03*
%TD*%
D14*
%TO.C,J1*%
X149060000Y-80480000D03*
D15*
X149060000Y-75400000D03*
%TD*%
D17*
%TO.C,U1*%
X137630000Y-90640000D03*
D18*
X137630000Y-93180000D03*
X137630000Y-95720000D03*
X137630000Y-98260000D03*
X145250000Y-98260000D03*
X145250000Y-95720000D03*
X145250000Y-93180000D03*
X145250000Y-90640000D03*
%TD*%
D12*
%TO.C,R14*%
X103340000Y-83972500D03*
X103340000Y-89052500D03*
%TD*%
%TO.C,R25*%
X74130000Y-73495000D03*
X74130000Y-78575000D03*
%TD*%
%TO.C,R29*%
X140170000Y-110325000D03*
X145250000Y-110325000D03*
%TD*%
%TO.C,R8*%
X133185000Y-82702500D03*
X138265000Y-82702500D03*
%TD*%
%TO.C,R17*%
X80480000Y-64605000D03*
X80480000Y-59525000D03*
%TD*%
%TO.C,R1*%
X92545000Y-53810000D03*
X92545000Y-58890000D03*
%TD*%
%TO.C,C2*%
X102070000Y-55080000D03*
X102070000Y-60160000D03*
%TD*%
D13*
%TO.C,C1*%
X108100000Y-55080000D03*
D12*
X108100000Y-58890000D03*
%TD*%
D17*
%TO.C,LED1*%
X97625000Y-61430000D03*
D18*
X97625000Y-58890000D03*
%TD*%
D17*
%TO.C,U2*%
X108420000Y-83020000D03*
D18*
X108420000Y-85560000D03*
X108420000Y-88100000D03*
X108420000Y-90640000D03*
X108420000Y-93180000D03*
X108420000Y-95720000D03*
X108420000Y-98260000D03*
X108420000Y-100800000D03*
X116040000Y-100800000D03*
X116040000Y-98260000D03*
X116040000Y-95720000D03*
X116040000Y-93180000D03*
X116040000Y-90640000D03*
X116040000Y-88100000D03*
X116040000Y-85560000D03*
X116040000Y-83020000D03*
%TD*%
D14*
%TO.C,J3*%
X56350000Y-62700000D03*
D15*
X56350000Y-67780000D03*
X56350000Y-72860000D03*
X56350000Y-77940000D03*
%TD*%
D12*
%TO.C,R21*%
X80480000Y-92545000D03*
X80480000Y-87465000D03*
%TD*%
%TO.C,R27*%
X74130000Y-87465000D03*
X74130000Y-92545000D03*
%TD*%
%TO.C,R5*%
X150329999Y-88100000D03*
X150329999Y-93180000D03*
%TD*%
D14*
%TO.C,J2*%
X149060000Y-67780000D03*
D15*
X149060000Y-62700000D03*
%TD*%
D12*
%TO.C,R30*%
X123660000Y-104610000D03*
X133820000Y-104610000D03*
%TD*%
D14*
%TO.C,J4*%
X136360000Y-123660000D03*
D15*
X141440000Y-123660000D03*
%TD*%
D12*
%TO.C,R23*%
X74130000Y-59525000D03*
X74130000Y-64605000D03*
%TD*%
D19*
%TO.C,D2*%
X114770000Y-55080000D03*
D20*
X114770000Y-67780000D03*
%TD*%
D12*
%TO.C,R10*%
X114770000Y-116675000D03*
X114770000Y-121755000D03*
%TD*%
%TO.C,C7*%
X111595000Y-76670000D03*
X111595000Y-71590000D03*
%TD*%
D10*
%TO.C,U4*%
X72860000Y-69050000D03*
D11*
X70320000Y-69050000D03*
X67780000Y-69050000D03*
%TD*%
D17*
%TO.C,LED6*%
X140487500Y-79527500D03*
D18*
X140487500Y-76987500D03*
%TD*%
D12*
%TO.C,JP2*%
X58255000Y-112229999D03*
X58255000Y-119849999D03*
%TD*%
D14*
%TO.C,J5*%
X63970000Y-123660000D03*
D15*
X69050000Y-123660000D03*
%TD*%
D12*
%TO.C,R9*%
X119532500Y-100800000D03*
X129692500Y-100800000D03*
%TD*%
%TO.C,W1*%
X143345000Y-82702500D03*
X143345000Y-75082500D03*
%TD*%
%TO.C,C6*%
X145250000Y-102070000D03*
X140170000Y-102070000D03*
%TD*%
%TO.C,R13*%
X103340000Y-70002500D03*
X103340000Y-75082500D03*
%TD*%
D10*
%TO.C,U6*%
X72860000Y-96990000D03*
D11*
X70320000Y-96990000D03*
X67780000Y-96990000D03*
%TD*%
D12*
%TO.C,C4*%
X146519999Y-86830000D03*
X141439999Y-86830000D03*
%TD*%
%TO.C,R22*%
X69050000Y-64605000D03*
X69050000Y-59525000D03*
%TD*%
%TO.C,R6*%
X150329999Y-96990000D03*
X150329999Y-102070000D03*
%TD*%
D10*
%TO.C,LED4*%
X97625000Y-89052500D03*
D11*
X100165000Y-89052500D03*
%TD*%
D10*
%TO.C,Q3*%
X83020000Y-96990000D03*
D11*
X80480000Y-96990000D03*
X77940000Y-96990000D03*
%TD*%
D21*
%TO.C,U3*%
X121120000Y-70320000D03*
D22*
X123660000Y-70320000D03*
X126200000Y-70320000D03*
%TD*%
D12*
%TO.C,R18*%
X103340000Y-79210000D03*
X93180000Y-79210000D03*
%TD*%
D10*
%TO.C,Q1*%
X83020000Y-69050000D03*
D11*
X80480000Y-69050000D03*
X77940000Y-69050000D03*
%TD*%
D12*
%TO.C,R19*%
X80480000Y-78575000D03*
X80480000Y-73495000D03*
%TD*%
%TO.C,R20*%
X103340000Y-93180000D03*
X93180000Y-93180000D03*
%TD*%
D16*
%TO.C,H1*%
X54000000Y-54000000D03*
%TD*%
D12*
%TO.C,R15*%
X103340000Y-97942500D03*
X103340000Y-103022500D03*
%TD*%
D10*
%TO.C,Q2*%
X83020000Y-83020000D03*
D11*
X80480000Y-83020000D03*
X77940000Y-83020000D03*
%TD*%
D12*
%TO.C,SW2*%
X123660000Y-116675000D03*
X123660000Y-123025000D03*
X119215000Y-116675000D03*
X119215000Y-123025000D03*
%TD*%
D18*
%TO.C,RV1*%
X150329999Y-107150000D03*
X150329999Y-109690000D03*
X150329999Y-112230000D03*
%TD*%
D10*
%TO.C,LED5*%
X97625000Y-103022500D03*
D11*
X100165000Y-103022500D03*
%TD*%
M02*
