M48
; DRILL file {KiCad 9.0.9} date 2026-09-25T07:32:37+0000
; FORMAT={-:-/ absolute / metric / decimal}
; #@! TF.CreationDate,2026-09-25T07:32:37+00:00
; #@! TF.GenerationSoftware,Kicad,Pcbnew,9.0.9
; #@! TF.FileFunction,Plated,1,2,PTH
FMAT,2
METRIC
; #@! TA.AperFunction,Plated,PTH,ComponentDrill
T1C0.800
; #@! TA.AperFunction,Plated,PTH,ComponentDrill
T2C1.000
; #@! TA.AperFunction,Plated,PTH,ComponentDrill
T3C1.100
; #@! TA.AperFunction,Plated,PTH,ComponentDrill
T4C1.300
%
G90
G05
T1
X58.255Y-112.23
X58.255Y-119.85
X65.24Y-112.865
X67.78Y-69.05
X67.78Y-83.02
X67.78Y-96.99
X69.05Y-59.525
X69.05Y-64.605
X69.05Y-73.495
X69.05Y-78.575
X69.05Y-87.465
X69.05Y-92.545
X70.32Y-69.05
X70.32Y-83.02
X70.32Y-96.99
X72.86Y-112.865
X72.86Y-69.05
X72.86Y-83.02
X72.86Y-96.99
X74.13Y-59.525
X74.13Y-64.605
X74.13Y-73.495
X74.13Y-78.575
X74.13Y-87.465
X74.13Y-92.545
X77.94Y-69.05
X77.94Y-83.02
X77.94Y-96.99
X80.48Y-59.525
X80.48Y-64.605
X80.48Y-69.05
X80.48Y-73.495
X80.48Y-78.575
X80.48Y-83.02
X80.48Y-87.465
X80.48Y-92.545
X80.48Y-96.99
X83.02Y-69.05
X83.02Y-83.02
X83.02Y-96.99
X92.545Y-53.81
X92.545Y-58.89
X93.18Y-65.24
X93.18Y-79.21
X93.18Y-93.18
X97.625Y-58.89
X97.625Y-61.43
X97.625Y-75.082
X97.625Y-89.052
X97.625Y-103.022
X100.165Y-75.082
X100.165Y-89.052
X100.165Y-103.022
X102.07Y-55.08
X102.07Y-60.16
X103.34Y-65.24
X103.34Y-70.002
X103.34Y-75.082
X103.34Y-79.21
X103.34Y-83.972
X103.34Y-89.052
X103.34Y-93.18
X103.34Y-97.942
X103.34Y-103.022
X107.15Y-111.595
X107.15Y-116.675
X108.1Y-55.08
X108.1Y-58.89
X108.42Y-83.02
X108.42Y-85.56
X108.42Y-88.1
X108.42Y-90.64
X108.42Y-93.18
X108.42Y-95.72
X108.42Y-98.26
X108.42Y-100.8
X110.642Y-103.975
X110.642Y-111.595
X111.595Y-71.59
X111.595Y-76.67
X113.5Y-107.785
X114.77Y-70.955
X114.77Y-76.035
X114.77Y-116.675
X114.77Y-121.755
X116.04Y-83.02
X116.04Y-85.56
X116.04Y-88.1
X116.04Y-90.64
X116.04Y-93.18
X116.04Y-95.72
X116.04Y-98.26
X116.04Y-100.8
X118.58Y-74.765
X119.532Y-100.8
X119.85Y-85.56
X121.12Y-107.785
X121.12Y-112.23
X123.66Y-74.765
X123.66Y-104.61
X123.66Y-112.23
X127.47Y-110.96
X129.692Y-100.8
X130.01Y-85.56
X132.55Y-74.765
X132.55Y-78.575
X132.55Y-110.96
X133.185Y-82.703
X133.82Y-104.61
X133.82Y-115.405
X136.36Y-62.7
X136.36Y-115.405
X137.63Y-90.64
X137.63Y-93.18
X137.63Y-95.72
X137.63Y-98.26
X138.265Y-82.703
X138.9Y-115.405
X140.17Y-102.07
X140.17Y-110.325
X140.487Y-76.987
X140.487Y-79.528
X141.44Y-86.83
X141.44Y-62.7
X141.757Y-114.77
X143.345Y-75.082
X143.345Y-82.703
X144.297Y-114.77
X145.25Y-90.64
X145.25Y-93.18
X145.25Y-95.72
X145.25Y-98.26
X145.25Y-102.07
X145.25Y-110.325
X146.52Y-86.83
X150.33Y-88.1
X150.33Y-93.18
X150.33Y-96.99
X150.33Y-102.07
X150.33Y-107.15
X150.33Y-109.69
X150.33Y-112.23
T2
X114.77Y-55.08
X114.77Y-67.78
X118.58Y-62.7
X119.215Y-116.675
X119.215Y-123.025
X123.66Y-116.675
X123.66Y-123.025
X128.74Y-62.7
T3
X121.12Y-70.32
X123.66Y-70.32
X126.2Y-70.32
T4
X56.35Y-62.7
X56.35Y-67.78
X56.35Y-72.86
X56.35Y-77.94
X63.97Y-123.66
X69.05Y-123.66
X76.67Y-123.66
X81.75Y-123.66
X136.36Y-123.66
X141.44Y-123.66
X149.06Y-62.7
X149.06Y-67.78
X149.06Y-75.4
X149.06Y-80.48
M30
