M48
; DRILL file {KiCad 9.0.9} date 2026-10-02T00:33:17+0000
; FORMAT={-:-/ absolute / metric / decimal}
; #@! TF.CreationDate,2026-10-02T00:33:17+00:00
; #@! TF.GenerationSoftware,Kicad,Pcbnew,9.0.9
; #@! TF.FileFunction,Plated,1,4,PTH
FMAT,2
METRIC
; #@! TA.AperFunction,Plated,PTH,ViaDrill
T1C0.300
; #@! TA.AperFunction,Plated,PTH,ViaDrill
T2C0.400
; #@! TA.AperFunction,Plated,PTH,ComponentDrill
T3C1.000
; #@! TA.AperFunction,Plated,PTH,ComponentDrill
T4C1.200
; #@! TA.AperFunction,Plated,PTH,ComponentDrill
T5C1.300
; #@! TA.AperFunction,Plated,PTH,ComponentDrill
T6C1.780
%
G90
G05
T1
X100.751Y-110.4
X100.751Y-113.875
X100.751Y-127.368
X102.0Y-107.0
X104.137Y-128.598
X104.422Y-136.294
X104.447Y-115.595
X104.5Y-121.378
X104.855Y-133.5
X105.882Y-122.552
X105.882Y-134.994
X106.653Y-115.751
X107.275Y-120.686
X107.6Y-119.45
X107.6Y-131.95
X108.549Y-136.562
X111.919Y-112.613
X111.944Y-130.1
X111.981Y-117.6
X113.8Y-105.194
X115.35Y-121.326
X115.622Y-124.692
X117.0Y-107.0
X119.2Y-123.45
X119.2Y-129.87
X122.0Y-107.0
X122.0Y-117.0
X123.055Y-112.65
X123.208Y-121.211
X126.026Y-118.51
X127.0Y-107.0
X127.82Y-124.971
X132.0Y-107.0
X132.0Y-132.0
X137.0Y-107.0
X137.0Y-112.0
X138.2Y-134.7
X140.2Y-116.2
X141.2Y-112.35
X146.629Y-129.386
X147.0Y-102.0
X148.777Y-117.235
X149.116Y-135.719
X149.153Y-129.064
X150.514Y-129.097
X151.168Y-112.782
X152.0Y-102.0
X152.034Y-127.324
X153.261Y-129.466
X156.778Y-122.52
X157.0Y-102.0
X157.0Y-132.0
X157.903Y-122.355
X157.922Y-121.085
X157.936Y-118.645
X158.603Y-124.221
X158.696Y-126.275
X162.0Y-102.0
X162.0Y-107.0
X162.0Y-112.0
X162.428Y-126.761
X162.579Y-122.125
X163.15Y-132.052
X163.228Y-129.076
X164.108Y-126.197
X167.0Y-102.0
X167.0Y-107.0
X167.0Y-112.0
X167.0Y-117.0
X167.0Y-147.0
X170.055Y-138.037
X172.0Y-102.0
X172.0Y-107.0
X172.0Y-112.0
X172.0Y-117.0
X172.0Y-122.0
X172.0Y-127.0
X174.551Y-138.0
X174.888Y-133.637
X177.0Y-132.0
X177.0Y-147.0
X182.0Y-132.0
X182.0Y-137.0
X182.0Y-142.0
X182.0Y-147.0
T2
X126.9Y-133.8
X126.9Y-136.6
X127.4Y-141.0
X138.4Y-132.7
X138.4Y-133.6
X139.4Y-132.7
X139.4Y-133.6
X140.4Y-132.7
X140.4Y-133.6
X141.2Y-132.7
X141.2Y-133.6
X145.6Y-132.9
X145.6Y-134.0
X146.8Y-132.9
X146.8Y-134.0
X148.0Y-132.9
X148.0Y-134.0
X152.6Y-132.9
X152.6Y-134.0
X153.8Y-132.9
X153.8Y-134.0
X155.0Y-132.9
X155.0Y-134.0
X159.6Y-132.9
X159.6Y-134.0
X160.8Y-132.9
X160.8Y-134.0
X162.0Y-132.9
X162.0Y-134.0
X166.6Y-132.9
X166.6Y-134.0
X167.8Y-132.9
X167.8Y-134.0
X169.0Y-132.9
X169.0Y-134.0
T3
X144.46Y-106.0
X144.46Y-108.54
X144.46Y-111.08
X144.46Y-113.62
X144.46Y-116.16
X144.46Y-118.7
X144.46Y-121.24
X144.46Y-123.78
X147.0Y-106.0
X147.0Y-108.54
X147.0Y-111.08
X147.0Y-113.62
X147.0Y-116.16
X147.0Y-118.7
X147.0Y-121.24
X147.0Y-123.78
T4
X103.0Y-149.8
X106.5Y-149.8
X110.0Y-149.8
X113.5Y-149.8
X167.0Y-149.8
X170.5Y-149.8
T5
X120.0Y-149.8
X125.08Y-149.8
X132.0Y-149.8
X137.08Y-149.8
X144.5Y-149.8
X149.58Y-149.8
X154.66Y-149.8
X159.74Y-149.8
T6
X130.6Y-128.08
X130.6Y-138.0
X134.0Y-128.08
X134.0Y-138.0
M30
