%TF.GenerationSoftware,KiCad,Pcbnew,9.0.9*%
%TF.CreationDate,2026-10-02T06:35:20+00:00*%
%TF.ProjectId,AP1_Base,4150315f-4261-4736-952e-6b696361645f,rev?*%
%TF.SameCoordinates,Original*%
%TF.FileFunction,Paste,Top*%
%TF.FilePolarity,Positive*%
%FSLAX46Y46*%
G04 Gerber Fmt 4.6, Leading zero omitted, Abs format (unit mm)*
G04 Created by KiCad (PCBNEW 9.0.9) date 2026-10-02 06:35:20*
%MOMM*%
%LPD*%
G01*
G04 APERTURE LIST*
G04 Aperture macros list*
%AMRoundRect*
0 Rectangle with rounded corners*
0 $1 Rounding radius*
0 $2 $3 $4 $5 $6 $7 $8 $9 X,Y pos of 4 corners*
0 Add a 4 corners polygon primitive as box body*
4,1,4,$2,$3,$4,$5,$6,$7,$8,$9,$2,$3,0*
0 Add four circle primitives for the rounded corners*
1,1,$1+$1,$2,$3*
1,1,$1+$1,$4,$5*
1,1,$1+$1,$6,$7*
1,1,$1+$1,$8,$9*
0 Add four rect primitives between the rounded corners*
20,1,$1+$1,$2,$3,$4,$5,0*
20,1,$1+$1,$4,$5,$6,$7,0*
20,1,$1+$1,$6,$7,$8,$9,0*
20,1,$1+$1,$8,$9,$2,$3,0*%
G04 Aperture macros list end*
%ADD10RoundRect,0.250000X-0.312500X-0.625000X0.312500X-0.625000X0.312500X0.625000X-0.312500X0.625000X0*%
%ADD11RoundRect,0.250000X0.650000X-1.000000X0.650000X1.000000X-0.650000X1.000000X-0.650000X-1.000000X0*%
%ADD12RoundRect,0.250000X-0.600000X-2.600000X0.600000X-2.600000X0.600000X2.600000X-0.600000X2.600000X0*%
%ADD13RoundRect,0.150000X-0.150000X-0.215000X0.150000X-0.215000X0.150000X0.215000X-0.150000X0.215000X0*%
%ADD14RoundRect,0.100000X-0.687500X-0.100000X0.687500X-0.100000X0.687500X0.100000X-0.687500X0.100000X0*%
%ADD15RoundRect,0.375000X-0.375000X0.375000X-0.375000X-0.375000X0.375000X-0.375000X0.375000X0.375000X0*%
%ADD16RoundRect,0.125000X-0.125000X0.250000X-0.125000X-0.250000X0.125000X-0.250000X0.125000X0.250000X0*%
%ADD17RoundRect,0.100000X-0.100000X0.275000X-0.100000X-0.275000X0.100000X-0.275000X0.100000X0.275000X0*%
%ADD18RoundRect,0.200000X-0.200000X-0.275000X0.200000X-0.275000X0.200000X0.275000X-0.200000X0.275000X0*%
%ADD19RoundRect,0.250000X0.650000X-0.325000X0.650000X0.325000X-0.650000X0.325000X-0.650000X-0.325000X0*%
%ADD20RoundRect,0.150000X-0.825000X-0.150000X0.825000X-0.150000X0.825000X0.150000X-0.825000X0.150000X0*%
%ADD21RoundRect,0.250000X-0.325000X-0.650000X0.325000X-0.650000X0.325000X0.650000X-0.325000X0.650000X0*%
%ADD22RoundRect,0.200000X0.275000X-0.200000X0.275000X0.200000X-0.275000X0.200000X-0.275000X-0.200000X0*%
%ADD23RoundRect,0.250000X-1.000000X-0.650000X1.000000X-0.650000X1.000000X0.650000X-1.000000X0.650000X0*%
%ADD24RoundRect,0.250000X0.325000X0.650000X-0.325000X0.650000X-0.325000X-0.650000X0.325000X-0.650000X0*%
%ADD25RoundRect,0.075000X0.650000X0.075000X-0.650000X0.075000X-0.650000X-0.075000X0.650000X-0.075000X0*%
%ADD26RoundRect,0.150000X-0.587500X-0.150000X0.587500X-0.150000X0.587500X0.150000X-0.587500X0.150000X0*%
%ADD27RoundRect,0.225000X0.250000X-0.225000X0.250000X0.225000X-0.250000X0.225000X-0.250000X-0.225000X0*%
%ADD28RoundRect,0.225000X-0.225000X-0.250000X0.225000X-0.250000X0.225000X0.250000X-0.225000X0.250000X0*%
%ADD29RoundRect,0.250000X-0.375000X-0.625000X0.375000X-0.625000X0.375000X0.625000X-0.375000X0.625000X0*%
%ADD30RoundRect,0.225000X-0.225000X-0.375000X0.225000X-0.375000X0.225000X0.375000X-0.225000X0.375000X0*%
%ADD31RoundRect,0.250000X-1.000000X-0.900000X1.000000X-0.900000X1.000000X0.900000X-1.000000X0.900000X0*%
%ADD32RoundRect,0.112500X-0.187500X-0.112500X0.187500X-0.112500X0.187500X0.112500X-0.187500X0.112500X0*%
%ADD33RoundRect,0.150000X-0.512500X-0.150000X0.512500X-0.150000X0.512500X0.150000X-0.512500X0.150000X0*%
%ADD34RoundRect,0.250000X-0.362500X-1.425000X0.362500X-1.425000X0.362500X1.425000X-0.362500X1.425000X0*%
%ADD35RoundRect,0.250000X-1.950000X-1.000000X1.950000X-1.000000X1.950000X1.000000X-1.950000X1.000000X0*%
%ADD36RoundRect,0.250000X-0.300000X-1.600000X0.300000X-1.600000X0.300000X1.600000X-0.300000X1.600000X0*%
G04 APERTURE END LIST*
D10*
%TO.C,RSC1*%
X103037500Y-121000000D03*
X105962500Y-121000000D03*
%TD*%
D11*
%TO.C,D7*%
X115200000Y-107000000D03*
X115200000Y-103000000D03*
%TD*%
D12*
%TO.C,L2*%
X110550000Y-117600000D03*
X115050000Y-117600000D03*
%TD*%
D13*
%TO.C,U7*%
X104625000Y-129550000D03*
X104625000Y-130450000D03*
X105375000Y-129550000D03*
X105375000Y-130450000D03*
D14*
X102887500Y-129025000D03*
X102887500Y-129675000D03*
X102887500Y-130325000D03*
X102887500Y-130975000D03*
X107112500Y-130975000D03*
X107112500Y-130325000D03*
X107112500Y-129675000D03*
X107112500Y-129025000D03*
%TD*%
D10*
%TO.C,RSC2*%
X103037500Y-133500000D03*
X105962500Y-133500000D03*
%TD*%
D15*
%TO.C,Q1*%
X146950000Y-137600000D03*
X145250000Y-137600000D03*
X146950000Y-139300000D03*
X145250000Y-139300000D03*
D16*
X148005000Y-140705000D03*
X146735000Y-140705000D03*
X145465000Y-140705000D03*
X144195000Y-140705000D03*
D17*
X148005000Y-134900000D03*
X146735000Y-134900000D03*
X145465000Y-134900000D03*
X144195000Y-134900000D03*
%TD*%
D18*
%TO.C,RP1*%
X146875000Y-130700000D03*
X148525000Y-130700000D03*
%TD*%
D12*
%TO.C,L3*%
X110550000Y-130100000D03*
X115050000Y-130100000D03*
%TD*%
D19*
%TO.C,C6*%
X115200000Y-112475000D03*
X115200000Y-109525000D03*
%TD*%
D20*
%TO.C,U4*%
X161125000Y-123595000D03*
X161125000Y-124865000D03*
X161125000Y-126135000D03*
X161125000Y-127405000D03*
X166075000Y-127405000D03*
X166075000Y-126135000D03*
X166075000Y-124865000D03*
X166075000Y-123595000D03*
%TD*%
D21*
%TO.C,C13*%
X122525000Y-136600000D03*
X125475000Y-136600000D03*
%TD*%
D13*
%TO.C,U6*%
X104625000Y-117050000D03*
X104625000Y-117950000D03*
X105375000Y-117050000D03*
X105375000Y-117950000D03*
D14*
X102887500Y-116525000D03*
X102887500Y-117175000D03*
X102887500Y-117825000D03*
X102887500Y-118475000D03*
X107112500Y-118475000D03*
X107112500Y-117825000D03*
X107112500Y-117175000D03*
X107112500Y-116525000D03*
%TD*%
D22*
%TO.C,RAUX*%
X171500000Y-141325000D03*
X171500000Y-139675000D03*
%TD*%
D23*
%TO.C,D3*%
X110300000Y-135500000D03*
X114300000Y-135500000D03*
%TD*%
D15*
%TO.C,Q2*%
X153950000Y-137600000D03*
X152250000Y-137600000D03*
X153950000Y-139300000D03*
X152250000Y-139300000D03*
D16*
X155005000Y-140705000D03*
X153735000Y-140705000D03*
X152465000Y-140705000D03*
X151195000Y-140705000D03*
D17*
X155005000Y-134900000D03*
X153735000Y-134900000D03*
X152465000Y-134900000D03*
X151195000Y-134900000D03*
%TD*%
D24*
%TO.C,C7*%
X106075000Y-110400000D03*
X103125000Y-110400000D03*
%TD*%
D25*
%TO.C,U1*%
X126300000Y-124200000D03*
X126300000Y-123700000D03*
X126300000Y-123200000D03*
X126300000Y-122700000D03*
X126300000Y-122200000D03*
X121900000Y-122200000D03*
X121900000Y-122700000D03*
X121900000Y-123200000D03*
X121900000Y-123700000D03*
X121900000Y-124200000D03*
%TD*%
D18*
%TO.C,RP2*%
X153875000Y-130700000D03*
X155525000Y-130700000D03*
%TD*%
D23*
%TO.C,D2*%
X110300000Y-123000000D03*
X114300000Y-123000000D03*
%TD*%
D18*
%TO.C,RF1*%
X104175000Y-112500000D03*
X105825000Y-112500000D03*
%TD*%
%TO.C,RG4*%
X164675000Y-130700000D03*
X166325000Y-130700000D03*
%TD*%
D26*
%TO.C,Q5*%
X171262500Y-135050000D03*
X171262500Y-136950000D03*
X173137500Y-136000000D03*
%TD*%
D27*
%TO.C,C8*%
X157600000Y-126275000D03*
X157600000Y-124725000D03*
%TD*%
%TO.C,C9*%
X168300000Y-126275000D03*
X168300000Y-124725000D03*
%TD*%
D28*
%TO.C,C4*%
X123325000Y-119800000D03*
X124875000Y-119800000D03*
%TD*%
D18*
%TO.C,RC1*%
X103675000Y-126400000D03*
X105325000Y-126400000D03*
%TD*%
%TO.C,RG0*%
X138175000Y-130600000D03*
X139825000Y-130600000D03*
%TD*%
D29*
%TO.C,F2*%
X114200000Y-140500000D03*
X117000000Y-140500000D03*
%TD*%
D30*
%TO.C,DZ1*%
X137850000Y-127900000D03*
X141150000Y-127900000D03*
%TD*%
D31*
%TO.C,D1*%
X121450000Y-141000000D03*
X125750000Y-141000000D03*
%TD*%
D32*
%TO.C,D8*%
X150550000Y-120600000D03*
X152650000Y-120600000D03*
%TD*%
D20*
%TO.C,U8*%
X155825000Y-117595000D03*
X155825000Y-118865000D03*
X155825000Y-120135000D03*
X155825000Y-121405000D03*
X160775000Y-121405000D03*
X160775000Y-120135000D03*
X160775000Y-118865000D03*
X160775000Y-117595000D03*
%TD*%
%TO.C,U9*%
X150525000Y-107595000D03*
X150525000Y-108865000D03*
X150525000Y-110135000D03*
X150525000Y-111405000D03*
X155475000Y-111405000D03*
X155475000Y-110135000D03*
X155475000Y-108865000D03*
X155475000Y-107595000D03*
%TD*%
D28*
%TO.C,C14*%
X152225000Y-115200000D03*
X153775000Y-115200000D03*
%TD*%
D33*
%TO.C,U2*%
X109862500Y-108050000D03*
X109862500Y-109000000D03*
X109862500Y-109950000D03*
X112137500Y-109950000D03*
X112137500Y-109000000D03*
X112137500Y-108050000D03*
%TD*%
D34*
%TO.C,RS1*%
X121137500Y-128600000D03*
X127062500Y-128600000D03*
%TD*%
D18*
%TO.C,RP4*%
X167875000Y-130700000D03*
X169525000Y-130700000D03*
%TD*%
D15*
%TO.C,Q3*%
X160950000Y-137600000D03*
X159250000Y-137600000D03*
X160950000Y-139300000D03*
X159250000Y-139300000D03*
D16*
X162005000Y-140705000D03*
X160735000Y-140705000D03*
X159465000Y-140705000D03*
X158195000Y-140705000D03*
D17*
X162005000Y-134900000D03*
X160735000Y-134900000D03*
X159465000Y-134900000D03*
X158195000Y-134900000D03*
%TD*%
D15*
%TO.C,Q4*%
X167950000Y-137600000D03*
X166250000Y-137600000D03*
X167950000Y-139300000D03*
X166250000Y-139300000D03*
D16*
X169005000Y-140705000D03*
X167735000Y-140705000D03*
X166465000Y-140705000D03*
X165195000Y-140705000D03*
D17*
X169005000Y-134900000D03*
X167735000Y-134900000D03*
X166465000Y-134900000D03*
X165195000Y-134900000D03*
%TD*%
D20*
%TO.C,U3*%
X150525000Y-123595000D03*
X150525000Y-124865000D03*
X150525000Y-126135000D03*
X150525000Y-127405000D03*
X155475000Y-127405000D03*
X155475000Y-126135000D03*
X155475000Y-124865000D03*
X155475000Y-123595000D03*
%TD*%
D18*
%TO.C,RF2*%
X108775000Y-112400000D03*
X110425000Y-112400000D03*
%TD*%
%TO.C,RC2*%
X103675000Y-138900000D03*
X105325000Y-138900000D03*
%TD*%
%TO.C,RP3*%
X160875000Y-130700000D03*
X162525000Y-130700000D03*
%TD*%
D11*
%TO.C,D4*%
X176000000Y-142000000D03*
X176000000Y-138000000D03*
%TD*%
D21*
%TO.C,C3*%
X122525000Y-133800000D03*
X125475000Y-133800000D03*
%TD*%
D18*
%TO.C,RG3*%
X157675000Y-130700000D03*
X159325000Y-130700000D03*
%TD*%
D21*
%TO.C,C11*%
X103025000Y-124000000D03*
X105975000Y-124000000D03*
%TD*%
D35*
%TO.C,C1*%
X119800000Y-113000000D03*
X128200000Y-113000000D03*
%TD*%
D21*
%TO.C,C12*%
X103025000Y-136500000D03*
X105975000Y-136500000D03*
%TD*%
D18*
%TO.C,RG2*%
X150675000Y-130700000D03*
X152325000Y-130700000D03*
%TD*%
D15*
%TO.C,QR1*%
X139850000Y-137600000D03*
X138150000Y-137600000D03*
X139850000Y-139300000D03*
X138150000Y-139300000D03*
D16*
X140905000Y-140705000D03*
X139635000Y-140705000D03*
X138365000Y-140705000D03*
X137095000Y-140705000D03*
D17*
X140905000Y-134900000D03*
X139635000Y-134900000D03*
X138365000Y-134900000D03*
X137095000Y-134900000D03*
%TD*%
D28*
%TO.C,C15*%
X157525000Y-115000000D03*
X159075000Y-115000000D03*
%TD*%
D32*
%TO.C,D9*%
X164350000Y-120600000D03*
X166450000Y-120600000D03*
%TD*%
D18*
%TO.C,RG1*%
X143675000Y-130700000D03*
X145325000Y-130700000D03*
%TD*%
D27*
%TO.C,C5*%
X107800000Y-108575000D03*
X107800000Y-107025000D03*
%TD*%
D36*
%TO.C,L1*%
X109500000Y-104000000D03*
X112500000Y-104000000D03*
%TD*%
M02*
