%TF.GenerationSoftware,KiCad,Pcbnew,9.0.9*%
%TF.CreationDate,2026-10-01T08:09:15+00:00*%
%TF.ProjectId,AP1_Base,4150315f-4261-4736-952e-6b696361645f,rev?*%
%TF.SameCoordinates,Original*%
%TF.FileFunction,Legend,Bot*%
%TF.FilePolarity,Positive*%
%FSLAX46Y46*%
G04 Gerber Fmt 4.6, Leading zero omitted, Abs format (unit mm)*
G04 Created by KiCad (PCBNEW 9.0.9) date 2026-10-01 08:09:15*
%MOMM*%
%LPD*%
G01*
G04 APERTURE LIST*
G04 Aperture macros list*
%AMRoundRect*
0 Rectangle with rounded corners*
0 $1 Rounding radius*
0 $2 $3 $4 $5 $6 $7 $8 $9 X,Y pos of 4 corners*
0 Add a 4 corners polygon primitive as box body*
4,1,4,$2,$3,$4,$5,$6,$7,$8,$9,$2,$3,0*
0 Add four circle primitives for the rounded corners*
1,1,$1+$1,$2,$3*
1,1,$1+$1,$4,$5*
1,1,$1+$1,$6,$7*
1,1,$1+$1,$8,$9*
0 Add four rect primitives between the rounded corners*
20,1,$1+$1,$2,$3,$4,$5,0*
20,1,$1+$1,$4,$5,$6,$7,0*
20,1,$1+$1,$6,$7,$8,$9,0*
20,1,$1+$1,$8,$9,$2,$3,0*%
G04 Aperture macros list end*
%ADD10C,0.135000*%
%ADD11C,0.150000*%
%ADD12C,0.180000*%
%ADD13RoundRect,0.250000X-1.050000X-1.050000X1.050000X-1.050000X1.050000X1.050000X-1.050000X1.050000X0*%
%ADD14C,2.600000*%
%ADD15C,3.200000*%
%ADD16RoundRect,0.250001X-0.949999X-0.949999X0.949999X-0.949999X0.949999X0.949999X-0.949999X0.949999X0*%
%ADD17C,2.400000*%
%ADD18R,1.700000X1.700000*%
%ADD19C,1.700000*%
%ADD20C,2.780000*%
G04 APERTURE END LIST*
D10*
X132792858Y-102366480D02*
X132664287Y-102409337D01*
X132664287Y-102409337D02*
X132450001Y-102409337D01*
X132450001Y-102409337D02*
X132364287Y-102366480D01*
X132364287Y-102366480D02*
X132321429Y-102323622D01*
X132321429Y-102323622D02*
X132278572Y-102237908D01*
X132278572Y-102237908D02*
X132278572Y-102152194D01*
X132278572Y-102152194D02*
X132321429Y-102066480D01*
X132321429Y-102066480D02*
X132364287Y-102023622D01*
X132364287Y-102023622D02*
X132450001Y-101980765D01*
X132450001Y-101980765D02*
X132621429Y-101937908D01*
X132621429Y-101937908D02*
X132707144Y-101895051D01*
X132707144Y-101895051D02*
X132750001Y-101852194D01*
X132750001Y-101852194D02*
X132792858Y-101766480D01*
X132792858Y-101766480D02*
X132792858Y-101680765D01*
X132792858Y-101680765D02*
X132750001Y-101595051D01*
X132750001Y-101595051D02*
X132707144Y-101552194D01*
X132707144Y-101552194D02*
X132621429Y-101509337D01*
X132621429Y-101509337D02*
X132407144Y-101509337D01*
X132407144Y-101509337D02*
X132278572Y-101552194D01*
X131507144Y-102409337D02*
X131507144Y-101937908D01*
X131507144Y-101937908D02*
X131550001Y-101852194D01*
X131550001Y-101852194D02*
X131635715Y-101809337D01*
X131635715Y-101809337D02*
X131807144Y-101809337D01*
X131807144Y-101809337D02*
X131892858Y-101852194D01*
X131507144Y-102366480D02*
X131592858Y-102409337D01*
X131592858Y-102409337D02*
X131807144Y-102409337D01*
X131807144Y-102409337D02*
X131892858Y-102366480D01*
X131892858Y-102366480D02*
X131935715Y-102280765D01*
X131935715Y-102280765D02*
X131935715Y-102195051D01*
X131935715Y-102195051D02*
X131892858Y-102109337D01*
X131892858Y-102109337D02*
X131807144Y-102066480D01*
X131807144Y-102066480D02*
X131592858Y-102066480D01*
X131592858Y-102066480D02*
X131507144Y-102023622D01*
X130950000Y-102409337D02*
X131035715Y-102366480D01*
X131035715Y-102366480D02*
X131078572Y-102280765D01*
X131078572Y-102280765D02*
X131078572Y-101509337D01*
X130607143Y-102409337D02*
X130607143Y-101809337D01*
X130607143Y-101509337D02*
X130650000Y-101552194D01*
X130650000Y-101552194D02*
X130607143Y-101595051D01*
X130607143Y-101595051D02*
X130564286Y-101552194D01*
X130564286Y-101552194D02*
X130607143Y-101509337D01*
X130607143Y-101509337D02*
X130607143Y-101595051D01*
X129792858Y-102409337D02*
X129792858Y-101509337D01*
X129792858Y-102366480D02*
X129878572Y-102409337D01*
X129878572Y-102409337D02*
X130050000Y-102409337D01*
X130050000Y-102409337D02*
X130135715Y-102366480D01*
X130135715Y-102366480D02*
X130178572Y-102323622D01*
X130178572Y-102323622D02*
X130221429Y-102237908D01*
X130221429Y-102237908D02*
X130221429Y-101980765D01*
X130221429Y-101980765D02*
X130178572Y-101895051D01*
X130178572Y-101895051D02*
X130135715Y-101852194D01*
X130135715Y-101852194D02*
X130050000Y-101809337D01*
X130050000Y-101809337D02*
X129878572Y-101809337D01*
X129878572Y-101809337D02*
X129792858Y-101852194D01*
X128978572Y-102409337D02*
X128978572Y-101937908D01*
X128978572Y-101937908D02*
X129021429Y-101852194D01*
X129021429Y-101852194D02*
X129107143Y-101809337D01*
X129107143Y-101809337D02*
X129278572Y-101809337D01*
X129278572Y-101809337D02*
X129364286Y-101852194D01*
X128978572Y-102366480D02*
X129064286Y-102409337D01*
X129064286Y-102409337D02*
X129278572Y-102409337D01*
X129278572Y-102409337D02*
X129364286Y-102366480D01*
X129364286Y-102366480D02*
X129407143Y-102280765D01*
X129407143Y-102280765D02*
X129407143Y-102195051D01*
X129407143Y-102195051D02*
X129364286Y-102109337D01*
X129364286Y-102109337D02*
X129278572Y-102066480D01*
X129278572Y-102066480D02*
X129064286Y-102066480D01*
X129064286Y-102066480D02*
X128978572Y-102023622D01*
X128592857Y-102366480D02*
X128507143Y-102409337D01*
X128507143Y-102409337D02*
X128335714Y-102409337D01*
X128335714Y-102409337D02*
X128250000Y-102366480D01*
X128250000Y-102366480D02*
X128207143Y-102280765D01*
X128207143Y-102280765D02*
X128207143Y-102237908D01*
X128207143Y-102237908D02*
X128250000Y-102152194D01*
X128250000Y-102152194D02*
X128335714Y-102109337D01*
X128335714Y-102109337D02*
X128464286Y-102109337D01*
X128464286Y-102109337D02*
X128550000Y-102066480D01*
X128550000Y-102066480D02*
X128592857Y-101980765D01*
X128592857Y-101980765D02*
X128592857Y-101937908D01*
X128592857Y-101937908D02*
X128550000Y-101852194D01*
X128550000Y-101852194D02*
X128464286Y-101809337D01*
X128464286Y-101809337D02*
X128335714Y-101809337D01*
X128335714Y-101809337D02*
X128250000Y-101852194D01*
X126621429Y-102323622D02*
X126664286Y-102366480D01*
X126664286Y-102366480D02*
X126792858Y-102409337D01*
X126792858Y-102409337D02*
X126878572Y-102409337D01*
X126878572Y-102409337D02*
X127007143Y-102366480D01*
X127007143Y-102366480D02*
X127092858Y-102280765D01*
X127092858Y-102280765D02*
X127135715Y-102195051D01*
X127135715Y-102195051D02*
X127178572Y-102023622D01*
X127178572Y-102023622D02*
X127178572Y-101895051D01*
X127178572Y-101895051D02*
X127135715Y-101723622D01*
X127135715Y-101723622D02*
X127092858Y-101637908D01*
X127092858Y-101637908D02*
X127007143Y-101552194D01*
X127007143Y-101552194D02*
X126878572Y-101509337D01*
X126878572Y-101509337D02*
X126792858Y-101509337D01*
X126792858Y-101509337D02*
X126664286Y-101552194D01*
X126664286Y-101552194D02*
X126621429Y-101595051D01*
X125721429Y-102323622D02*
X125764286Y-102366480D01*
X125764286Y-102366480D02*
X125892858Y-102409337D01*
X125892858Y-102409337D02*
X125978572Y-102409337D01*
X125978572Y-102409337D02*
X126107143Y-102366480D01*
X126107143Y-102366480D02*
X126192858Y-102280765D01*
X126192858Y-102280765D02*
X126235715Y-102195051D01*
X126235715Y-102195051D02*
X126278572Y-102023622D01*
X126278572Y-102023622D02*
X126278572Y-101895051D01*
X126278572Y-101895051D02*
X126235715Y-101723622D01*
X126235715Y-101723622D02*
X126192858Y-101637908D01*
X126192858Y-101637908D02*
X126107143Y-101552194D01*
X126107143Y-101552194D02*
X125978572Y-101509337D01*
X125978572Y-101509337D02*
X125892858Y-101509337D01*
X125892858Y-101509337D02*
X125764286Y-101552194D01*
X125764286Y-101552194D02*
X125721429Y-101595051D01*
X124778572Y-101809337D02*
X124435715Y-101809337D01*
X124650001Y-102409337D02*
X124650001Y-101637908D01*
X124650001Y-101637908D02*
X124607144Y-101552194D01*
X124607144Y-101552194D02*
X124521429Y-101509337D01*
X124521429Y-101509337D02*
X124435715Y-101509337D01*
X124007143Y-102409337D02*
X124092858Y-102366480D01*
X124092858Y-102366480D02*
X124135715Y-102280765D01*
X124135715Y-102280765D02*
X124135715Y-101509337D01*
X123535714Y-102409337D02*
X123621429Y-102366480D01*
X123621429Y-102366480D02*
X123664286Y-102323622D01*
X123664286Y-102323622D02*
X123707143Y-102237908D01*
X123707143Y-102237908D02*
X123707143Y-101980765D01*
X123707143Y-101980765D02*
X123664286Y-101895051D01*
X123664286Y-101895051D02*
X123621429Y-101852194D01*
X123621429Y-101852194D02*
X123535714Y-101809337D01*
X123535714Y-101809337D02*
X123407143Y-101809337D01*
X123407143Y-101809337D02*
X123321429Y-101852194D01*
X123321429Y-101852194D02*
X123278572Y-101895051D01*
X123278572Y-101895051D02*
X123235714Y-101980765D01*
X123235714Y-101980765D02*
X123235714Y-102237908D01*
X123235714Y-102237908D02*
X123278572Y-102323622D01*
X123278572Y-102323622D02*
X123321429Y-102366480D01*
X123321429Y-102366480D02*
X123407143Y-102409337D01*
X123407143Y-102409337D02*
X123535714Y-102409337D01*
X122978571Y-101809337D02*
X122635714Y-101809337D01*
X122850000Y-101509337D02*
X122850000Y-102280765D01*
X122850000Y-102280765D02*
X122807143Y-102366480D01*
X122807143Y-102366480D02*
X122721428Y-102409337D01*
X122721428Y-102409337D02*
X122635714Y-102409337D01*
X121950000Y-102409337D02*
X121950000Y-101937908D01*
X121950000Y-101937908D02*
X121992857Y-101852194D01*
X121992857Y-101852194D02*
X122078571Y-101809337D01*
X122078571Y-101809337D02*
X122250000Y-101809337D01*
X122250000Y-101809337D02*
X122335714Y-101852194D01*
X121950000Y-102366480D02*
X122035714Y-102409337D01*
X122035714Y-102409337D02*
X122250000Y-102409337D01*
X122250000Y-102409337D02*
X122335714Y-102366480D01*
X122335714Y-102366480D02*
X122378571Y-102280765D01*
X122378571Y-102280765D02*
X122378571Y-102195051D01*
X122378571Y-102195051D02*
X122335714Y-102109337D01*
X122335714Y-102109337D02*
X122250000Y-102066480D01*
X122250000Y-102066480D02*
X122035714Y-102066480D01*
X122035714Y-102066480D02*
X121950000Y-102023622D01*
X121521428Y-101809337D02*
X121521428Y-102409337D01*
X121521428Y-101895051D02*
X121478571Y-101852194D01*
X121478571Y-101852194D02*
X121392856Y-101809337D01*
X121392856Y-101809337D02*
X121264285Y-101809337D01*
X121264285Y-101809337D02*
X121178571Y-101852194D01*
X121178571Y-101852194D02*
X121135714Y-101937908D01*
X121135714Y-101937908D02*
X121135714Y-102409337D01*
X120835713Y-101809337D02*
X120492856Y-101809337D01*
X120707142Y-101509337D02*
X120707142Y-102280765D01*
X120707142Y-102280765D02*
X120664285Y-102366480D01*
X120664285Y-102366480D02*
X120578570Y-102409337D01*
X120578570Y-102409337D02*
X120492856Y-102409337D01*
X119849999Y-102366480D02*
X119935713Y-102409337D01*
X119935713Y-102409337D02*
X120107142Y-102409337D01*
X120107142Y-102409337D02*
X120192856Y-102366480D01*
X120192856Y-102366480D02*
X120235713Y-102280765D01*
X120235713Y-102280765D02*
X120235713Y-101937908D01*
X120235713Y-101937908D02*
X120192856Y-101852194D01*
X120192856Y-101852194D02*
X120107142Y-101809337D01*
X120107142Y-101809337D02*
X119935713Y-101809337D01*
X119935713Y-101809337D02*
X119849999Y-101852194D01*
X119849999Y-101852194D02*
X119807142Y-101937908D01*
X119807142Y-101937908D02*
X119807142Y-102023622D01*
X119807142Y-102023622D02*
X120235713Y-102109337D01*
X119464284Y-102366480D02*
X119378570Y-102409337D01*
X119378570Y-102409337D02*
X119207141Y-102409337D01*
X119207141Y-102409337D02*
X119121427Y-102366480D01*
X119121427Y-102366480D02*
X119078570Y-102280765D01*
X119078570Y-102280765D02*
X119078570Y-102237908D01*
X119078570Y-102237908D02*
X119121427Y-102152194D01*
X119121427Y-102152194D02*
X119207141Y-102109337D01*
X119207141Y-102109337D02*
X119335713Y-102109337D01*
X119335713Y-102109337D02*
X119421427Y-102066480D01*
X119421427Y-102066480D02*
X119464284Y-101980765D01*
X119464284Y-101980765D02*
X119464284Y-101937908D01*
X119464284Y-101937908D02*
X119421427Y-101852194D01*
X119421427Y-101852194D02*
X119335713Y-101809337D01*
X119335713Y-101809337D02*
X119207141Y-101809337D01*
X119207141Y-101809337D02*
X119121427Y-101852194D01*
X118692856Y-102323622D02*
X118649999Y-102366480D01*
X118649999Y-102366480D02*
X118692856Y-102409337D01*
X118692856Y-102409337D02*
X118735713Y-102366480D01*
X118735713Y-102366480D02*
X118692856Y-102323622D01*
X118692856Y-102323622D02*
X118692856Y-102409337D01*
X118692856Y-101852194D02*
X118649999Y-101895051D01*
X118649999Y-101895051D02*
X118692856Y-101937908D01*
X118692856Y-101937908D02*
X118735713Y-101895051D01*
X118735713Y-101895051D02*
X118692856Y-101852194D01*
X118692856Y-101852194D02*
X118692856Y-101937908D01*
X117578571Y-101809337D02*
X117578571Y-102409337D01*
X117578571Y-101895051D02*
X117535714Y-101852194D01*
X117535714Y-101852194D02*
X117449999Y-101809337D01*
X117449999Y-101809337D02*
X117321428Y-101809337D01*
X117321428Y-101809337D02*
X117235714Y-101852194D01*
X117235714Y-101852194D02*
X117192857Y-101937908D01*
X117192857Y-101937908D02*
X117192857Y-102409337D01*
X116635713Y-102409337D02*
X116721428Y-102366480D01*
X116721428Y-102366480D02*
X116764285Y-102323622D01*
X116764285Y-102323622D02*
X116807142Y-102237908D01*
X116807142Y-102237908D02*
X116807142Y-101980765D01*
X116807142Y-101980765D02*
X116764285Y-101895051D01*
X116764285Y-101895051D02*
X116721428Y-101852194D01*
X116721428Y-101852194D02*
X116635713Y-101809337D01*
X116635713Y-101809337D02*
X116507142Y-101809337D01*
X116507142Y-101809337D02*
X116421428Y-101852194D01*
X116421428Y-101852194D02*
X116378571Y-101895051D01*
X116378571Y-101895051D02*
X116335713Y-101980765D01*
X116335713Y-101980765D02*
X116335713Y-102237908D01*
X116335713Y-102237908D02*
X116378571Y-102323622D01*
X116378571Y-102323622D02*
X116421428Y-102366480D01*
X116421428Y-102366480D02*
X116507142Y-102409337D01*
X116507142Y-102409337D02*
X116635713Y-102409337D01*
X114878571Y-101809337D02*
X114878571Y-102409337D01*
X115264285Y-101809337D02*
X115264285Y-102280765D01*
X115264285Y-102280765D02*
X115221428Y-102366480D01*
X115221428Y-102366480D02*
X115135713Y-102409337D01*
X115135713Y-102409337D02*
X115007142Y-102409337D01*
X115007142Y-102409337D02*
X114921428Y-102366480D01*
X114921428Y-102366480D02*
X114878571Y-102323622D01*
X114449999Y-101809337D02*
X114449999Y-102409337D01*
X114449999Y-101895051D02*
X114407142Y-101852194D01*
X114407142Y-101852194D02*
X114321427Y-101809337D01*
X114321427Y-101809337D02*
X114192856Y-101809337D01*
X114192856Y-101809337D02*
X114107142Y-101852194D01*
X114107142Y-101852194D02*
X114064285Y-101937908D01*
X114064285Y-101937908D02*
X114064285Y-102409337D01*
X113635713Y-102409337D02*
X113635713Y-101809337D01*
X113635713Y-101509337D02*
X113678570Y-101552194D01*
X113678570Y-101552194D02*
X113635713Y-101595051D01*
X113635713Y-101595051D02*
X113592856Y-101552194D01*
X113592856Y-101552194D02*
X113635713Y-101509337D01*
X113635713Y-101509337D02*
X113635713Y-101595051D01*
X113207142Y-102409337D02*
X113207142Y-101809337D01*
X113207142Y-101980765D02*
X113164285Y-101895051D01*
X113164285Y-101895051D02*
X113121428Y-101852194D01*
X113121428Y-101852194D02*
X113035713Y-101809337D01*
X113035713Y-101809337D02*
X112949999Y-101809337D01*
X111578571Y-102409337D02*
X111578571Y-101937908D01*
X111578571Y-101937908D02*
X111621428Y-101852194D01*
X111621428Y-101852194D02*
X111707142Y-101809337D01*
X111707142Y-101809337D02*
X111878571Y-101809337D01*
X111878571Y-101809337D02*
X111964285Y-101852194D01*
X111578571Y-102366480D02*
X111664285Y-102409337D01*
X111664285Y-102409337D02*
X111878571Y-102409337D01*
X111878571Y-102409337D02*
X111964285Y-102366480D01*
X111964285Y-102366480D02*
X112007142Y-102280765D01*
X112007142Y-102280765D02*
X112007142Y-102195051D01*
X112007142Y-102195051D02*
X111964285Y-102109337D01*
X111964285Y-102109337D02*
X111878571Y-102066480D01*
X111878571Y-102066480D02*
X111664285Y-102066480D01*
X111664285Y-102066480D02*
X111578571Y-102023622D01*
X110592856Y-101809337D02*
X110249999Y-101809337D01*
X110464285Y-101509337D02*
X110464285Y-102280765D01*
X110464285Y-102280765D02*
X110421428Y-102366480D01*
X110421428Y-102366480D02*
X110335713Y-102409337D01*
X110335713Y-102409337D02*
X110249999Y-102409337D01*
X109949999Y-102409337D02*
X109949999Y-101809337D01*
X109949999Y-101509337D02*
X109992856Y-101552194D01*
X109992856Y-101552194D02*
X109949999Y-101595051D01*
X109949999Y-101595051D02*
X109907142Y-101552194D01*
X109907142Y-101552194D02*
X109949999Y-101509337D01*
X109949999Y-101509337D02*
X109949999Y-101595051D01*
X109178571Y-102366480D02*
X109264285Y-102409337D01*
X109264285Y-102409337D02*
X109435714Y-102409337D01*
X109435714Y-102409337D02*
X109521428Y-102366480D01*
X109521428Y-102366480D02*
X109564285Y-102280765D01*
X109564285Y-102280765D02*
X109564285Y-101937908D01*
X109564285Y-101937908D02*
X109521428Y-101852194D01*
X109521428Y-101852194D02*
X109435714Y-101809337D01*
X109435714Y-101809337D02*
X109264285Y-101809337D01*
X109264285Y-101809337D02*
X109178571Y-101852194D01*
X109178571Y-101852194D02*
X109135714Y-101937908D01*
X109135714Y-101937908D02*
X109135714Y-102023622D01*
X109135714Y-102023622D02*
X109564285Y-102109337D01*
X108749999Y-102409337D02*
X108749999Y-101809337D01*
X108749999Y-101980765D02*
X108707142Y-101895051D01*
X108707142Y-101895051D02*
X108664285Y-101852194D01*
X108664285Y-101852194D02*
X108578570Y-101809337D01*
X108578570Y-101809337D02*
X108492856Y-101809337D01*
X108192856Y-102409337D02*
X108192856Y-101809337D01*
X108192856Y-101980765D02*
X108149999Y-101895051D01*
X108149999Y-101895051D02*
X108107142Y-101852194D01*
X108107142Y-101852194D02*
X108021427Y-101809337D01*
X108021427Y-101809337D02*
X107935713Y-101809337D01*
X107249999Y-102409337D02*
X107249999Y-101937908D01*
X107249999Y-101937908D02*
X107292856Y-101852194D01*
X107292856Y-101852194D02*
X107378570Y-101809337D01*
X107378570Y-101809337D02*
X107549999Y-101809337D01*
X107549999Y-101809337D02*
X107635713Y-101852194D01*
X107249999Y-102366480D02*
X107335713Y-102409337D01*
X107335713Y-102409337D02*
X107549999Y-102409337D01*
X107549999Y-102409337D02*
X107635713Y-102366480D01*
X107635713Y-102366480D02*
X107678570Y-102280765D01*
X107678570Y-102280765D02*
X107678570Y-102195051D01*
X107678570Y-102195051D02*
X107635713Y-102109337D01*
X107635713Y-102109337D02*
X107549999Y-102066480D01*
X107549999Y-102066480D02*
X107335713Y-102066480D01*
X107335713Y-102066480D02*
X107249999Y-102023622D01*
D11*
X161095240Y-155254819D02*
X161571430Y-155254819D01*
X161571430Y-155254819D02*
X161571430Y-154254819D01*
X160380954Y-155207200D02*
X160476192Y-155254819D01*
X160476192Y-155254819D02*
X160666668Y-155254819D01*
X160666668Y-155254819D02*
X160761906Y-155207200D01*
X160761906Y-155207200D02*
X160809525Y-155111961D01*
X160809525Y-155111961D02*
X160809525Y-154731009D01*
X160809525Y-154731009D02*
X160761906Y-154635771D01*
X160761906Y-154635771D02*
X160666668Y-154588152D01*
X160666668Y-154588152D02*
X160476192Y-154588152D01*
X160476192Y-154588152D02*
X160380954Y-154635771D01*
X160380954Y-154635771D02*
X160333335Y-154731009D01*
X160333335Y-154731009D02*
X160333335Y-154826247D01*
X160333335Y-154826247D02*
X160809525Y-154921485D01*
X160047620Y-154588152D02*
X159666668Y-154588152D01*
X159904763Y-154254819D02*
X159904763Y-155111961D01*
X159904763Y-155111961D02*
X159857144Y-155207200D01*
X159857144Y-155207200D02*
X159761906Y-155254819D01*
X159761906Y-155254819D02*
X159666668Y-155254819D01*
X159333334Y-155254819D02*
X159333334Y-154588152D01*
X159333334Y-154778628D02*
X159285715Y-154683390D01*
X159285715Y-154683390D02*
X159238096Y-154635771D01*
X159238096Y-154635771D02*
X159142858Y-154588152D01*
X159142858Y-154588152D02*
X159047620Y-154588152D01*
X158333334Y-155207200D02*
X158428572Y-155254819D01*
X158428572Y-155254819D02*
X158619048Y-155254819D01*
X158619048Y-155254819D02*
X158714286Y-155207200D01*
X158714286Y-155207200D02*
X158761905Y-155111961D01*
X158761905Y-155111961D02*
X158761905Y-154731009D01*
X158761905Y-154731009D02*
X158714286Y-154635771D01*
X158714286Y-154635771D02*
X158619048Y-154588152D01*
X158619048Y-154588152D02*
X158428572Y-154588152D01*
X158428572Y-154588152D02*
X158333334Y-154635771D01*
X158333334Y-154635771D02*
X158285715Y-154731009D01*
X158285715Y-154731009D02*
X158285715Y-154826247D01*
X158285715Y-154826247D02*
X158761905Y-154921485D01*
X157857143Y-155254819D02*
X157857143Y-154588152D01*
X157857143Y-154778628D02*
X157809524Y-154683390D01*
X157809524Y-154683390D02*
X157761905Y-154635771D01*
X157761905Y-154635771D02*
X157666667Y-154588152D01*
X157666667Y-154588152D02*
X157571429Y-154588152D01*
X157095238Y-155254819D02*
X157190476Y-155207200D01*
X157190476Y-155207200D02*
X157238095Y-155159580D01*
X157238095Y-155159580D02*
X157285714Y-155064342D01*
X157285714Y-155064342D02*
X157285714Y-154778628D01*
X157285714Y-154778628D02*
X157238095Y-154683390D01*
X157238095Y-154683390D02*
X157190476Y-154635771D01*
X157190476Y-154635771D02*
X157095238Y-154588152D01*
X157095238Y-154588152D02*
X156952381Y-154588152D01*
X156952381Y-154588152D02*
X156857143Y-154635771D01*
X156857143Y-154635771D02*
X156809524Y-154683390D01*
X156809524Y-154683390D02*
X156761905Y-154778628D01*
X156761905Y-154778628D02*
X156761905Y-155064342D01*
X156761905Y-155064342D02*
X156809524Y-155159580D01*
X156809524Y-155159580D02*
X156857143Y-155207200D01*
X156857143Y-155207200D02*
X156952381Y-155254819D01*
X156952381Y-155254819D02*
X157095238Y-155254819D01*
X155857143Y-155254819D02*
X156333333Y-155254819D01*
X156333333Y-155254819D02*
X156333333Y-154254819D01*
X155095238Y-155254819D02*
X155095238Y-154731009D01*
X155095238Y-154731009D02*
X155142857Y-154635771D01*
X155142857Y-154635771D02*
X155238095Y-154588152D01*
X155238095Y-154588152D02*
X155428571Y-154588152D01*
X155428571Y-154588152D02*
X155523809Y-154635771D01*
X155095238Y-155207200D02*
X155190476Y-155254819D01*
X155190476Y-155254819D02*
X155428571Y-155254819D01*
X155428571Y-155254819D02*
X155523809Y-155207200D01*
X155523809Y-155207200D02*
X155571428Y-155111961D01*
X155571428Y-155111961D02*
X155571428Y-155016723D01*
X155571428Y-155016723D02*
X155523809Y-154921485D01*
X155523809Y-154921485D02*
X155428571Y-154873866D01*
X155428571Y-154873866D02*
X155190476Y-154873866D01*
X155190476Y-154873866D02*
X155095238Y-154826247D01*
X154619047Y-155254819D02*
X154619047Y-154254819D01*
X154619047Y-154635771D02*
X154523809Y-154588152D01*
X154523809Y-154588152D02*
X154333333Y-154588152D01*
X154333333Y-154588152D02*
X154238095Y-154635771D01*
X154238095Y-154635771D02*
X154190476Y-154683390D01*
X154190476Y-154683390D02*
X154142857Y-154778628D01*
X154142857Y-154778628D02*
X154142857Y-155064342D01*
X154142857Y-155064342D02*
X154190476Y-155159580D01*
X154190476Y-155159580D02*
X154238095Y-155207200D01*
X154238095Y-155207200D02*
X154333333Y-155254819D01*
X154333333Y-155254819D02*
X154523809Y-155254819D01*
X154523809Y-155254819D02*
X154619047Y-155207200D01*
X152999999Y-154969104D02*
X152523809Y-154969104D01*
X153095237Y-155254819D02*
X152761904Y-154254819D01*
X152761904Y-154254819D02*
X152428571Y-155254819D01*
X152095237Y-155254819D02*
X152095237Y-154254819D01*
X152095237Y-154254819D02*
X151714285Y-154254819D01*
X151714285Y-154254819D02*
X151619047Y-154302438D01*
X151619047Y-154302438D02*
X151571428Y-154350057D01*
X151571428Y-154350057D02*
X151523809Y-154445295D01*
X151523809Y-154445295D02*
X151523809Y-154588152D01*
X151523809Y-154588152D02*
X151571428Y-154683390D01*
X151571428Y-154683390D02*
X151619047Y-154731009D01*
X151619047Y-154731009D02*
X151714285Y-154778628D01*
X151714285Y-154778628D02*
X152095237Y-154778628D01*
X151095237Y-154873866D02*
X150333333Y-154873866D01*
X149333333Y-155254819D02*
X149904761Y-155254819D01*
X149619047Y-155254819D02*
X149619047Y-154254819D01*
X149619047Y-154254819D02*
X149714285Y-154397676D01*
X149714285Y-154397676D02*
X149809523Y-154492914D01*
X149809523Y-154492914D02*
X149904761Y-154540533D01*
X147809523Y-154731009D02*
X147666666Y-154778628D01*
X147666666Y-154778628D02*
X147619047Y-154826247D01*
X147619047Y-154826247D02*
X147571428Y-154921485D01*
X147571428Y-154921485D02*
X147571428Y-155064342D01*
X147571428Y-155064342D02*
X147619047Y-155159580D01*
X147619047Y-155159580D02*
X147666666Y-155207200D01*
X147666666Y-155207200D02*
X147761904Y-155254819D01*
X147761904Y-155254819D02*
X148142856Y-155254819D01*
X148142856Y-155254819D02*
X148142856Y-154254819D01*
X148142856Y-154254819D02*
X147809523Y-154254819D01*
X147809523Y-154254819D02*
X147714285Y-154302438D01*
X147714285Y-154302438D02*
X147666666Y-154350057D01*
X147666666Y-154350057D02*
X147619047Y-154445295D01*
X147619047Y-154445295D02*
X147619047Y-154540533D01*
X147619047Y-154540533D02*
X147666666Y-154635771D01*
X147666666Y-154635771D02*
X147714285Y-154683390D01*
X147714285Y-154683390D02*
X147809523Y-154731009D01*
X147809523Y-154731009D02*
X148142856Y-154731009D01*
X147190475Y-154969104D02*
X146714285Y-154969104D01*
X147285713Y-155254819D02*
X146952380Y-154254819D01*
X146952380Y-154254819D02*
X146619047Y-155254819D01*
X146333332Y-155207200D02*
X146190475Y-155254819D01*
X146190475Y-155254819D02*
X145952380Y-155254819D01*
X145952380Y-155254819D02*
X145857142Y-155207200D01*
X145857142Y-155207200D02*
X145809523Y-155159580D01*
X145809523Y-155159580D02*
X145761904Y-155064342D01*
X145761904Y-155064342D02*
X145761904Y-154969104D01*
X145761904Y-154969104D02*
X145809523Y-154873866D01*
X145809523Y-154873866D02*
X145857142Y-154826247D01*
X145857142Y-154826247D02*
X145952380Y-154778628D01*
X145952380Y-154778628D02*
X146142856Y-154731009D01*
X146142856Y-154731009D02*
X146238094Y-154683390D01*
X146238094Y-154683390D02*
X146285713Y-154635771D01*
X146285713Y-154635771D02*
X146333332Y-154540533D01*
X146333332Y-154540533D02*
X146333332Y-154445295D01*
X146333332Y-154445295D02*
X146285713Y-154350057D01*
X146285713Y-154350057D02*
X146238094Y-154302438D01*
X146238094Y-154302438D02*
X146142856Y-154254819D01*
X146142856Y-154254819D02*
X145904761Y-154254819D01*
X145904761Y-154254819D02*
X145761904Y-154302438D01*
X145333332Y-154731009D02*
X144999999Y-154731009D01*
X144857142Y-155254819D02*
X145333332Y-155254819D01*
X145333332Y-155254819D02*
X145333332Y-154254819D01*
X145333332Y-154254819D02*
X144857142Y-154254819D01*
X143238094Y-154588152D02*
X143238094Y-155254819D01*
X143666665Y-154588152D02*
X143666665Y-155111961D01*
X143666665Y-155111961D02*
X143619046Y-155207200D01*
X143619046Y-155207200D02*
X143523808Y-155254819D01*
X143523808Y-155254819D02*
X143380951Y-155254819D01*
X143380951Y-155254819D02*
X143285713Y-155207200D01*
X143285713Y-155207200D02*
X143238094Y-155159580D01*
X142761903Y-154588152D02*
X142761903Y-155254819D01*
X142761903Y-154683390D02*
X142714284Y-154635771D01*
X142714284Y-154635771D02*
X142619046Y-154588152D01*
X142619046Y-154588152D02*
X142476189Y-154588152D01*
X142476189Y-154588152D02*
X142380951Y-154635771D01*
X142380951Y-154635771D02*
X142333332Y-154731009D01*
X142333332Y-154731009D02*
X142333332Y-155254819D01*
X141857141Y-155254819D02*
X141857141Y-154588152D01*
X141857141Y-154254819D02*
X141904760Y-154302438D01*
X141904760Y-154302438D02*
X141857141Y-154350057D01*
X141857141Y-154350057D02*
X141809522Y-154302438D01*
X141809522Y-154302438D02*
X141857141Y-154254819D01*
X141857141Y-154254819D02*
X141857141Y-154350057D01*
X141476189Y-154588152D02*
X141238094Y-155254819D01*
X141238094Y-155254819D02*
X140999999Y-154588152D01*
X140238094Y-155207200D02*
X140333332Y-155254819D01*
X140333332Y-155254819D02*
X140523808Y-155254819D01*
X140523808Y-155254819D02*
X140619046Y-155207200D01*
X140619046Y-155207200D02*
X140666665Y-155111961D01*
X140666665Y-155111961D02*
X140666665Y-154731009D01*
X140666665Y-154731009D02*
X140619046Y-154635771D01*
X140619046Y-154635771D02*
X140523808Y-154588152D01*
X140523808Y-154588152D02*
X140333332Y-154588152D01*
X140333332Y-154588152D02*
X140238094Y-154635771D01*
X140238094Y-154635771D02*
X140190475Y-154731009D01*
X140190475Y-154731009D02*
X140190475Y-154826247D01*
X140190475Y-154826247D02*
X140666665Y-154921485D01*
X139761903Y-155254819D02*
X139761903Y-154588152D01*
X139761903Y-154778628D02*
X139714284Y-154683390D01*
X139714284Y-154683390D02*
X139666665Y-154635771D01*
X139666665Y-154635771D02*
X139571427Y-154588152D01*
X139571427Y-154588152D02*
X139476189Y-154588152D01*
X139190474Y-155207200D02*
X139095236Y-155254819D01*
X139095236Y-155254819D02*
X138904760Y-155254819D01*
X138904760Y-155254819D02*
X138809522Y-155207200D01*
X138809522Y-155207200D02*
X138761903Y-155111961D01*
X138761903Y-155111961D02*
X138761903Y-155064342D01*
X138761903Y-155064342D02*
X138809522Y-154969104D01*
X138809522Y-154969104D02*
X138904760Y-154921485D01*
X138904760Y-154921485D02*
X139047617Y-154921485D01*
X139047617Y-154921485D02*
X139142855Y-154873866D01*
X139142855Y-154873866D02*
X139190474Y-154778628D01*
X139190474Y-154778628D02*
X139190474Y-154731009D01*
X139190474Y-154731009D02*
X139142855Y-154635771D01*
X139142855Y-154635771D02*
X139047617Y-154588152D01*
X139047617Y-154588152D02*
X138904760Y-154588152D01*
X138904760Y-154588152D02*
X138809522Y-154635771D01*
X137904760Y-155254819D02*
X137904760Y-154731009D01*
X137904760Y-154731009D02*
X137952379Y-154635771D01*
X137952379Y-154635771D02*
X138047617Y-154588152D01*
X138047617Y-154588152D02*
X138238093Y-154588152D01*
X138238093Y-154588152D02*
X138333331Y-154635771D01*
X137904760Y-155207200D02*
X137999998Y-155254819D01*
X137999998Y-155254819D02*
X138238093Y-155254819D01*
X138238093Y-155254819D02*
X138333331Y-155207200D01*
X138333331Y-155207200D02*
X138380950Y-155111961D01*
X138380950Y-155111961D02*
X138380950Y-155016723D01*
X138380950Y-155016723D02*
X138333331Y-154921485D01*
X138333331Y-154921485D02*
X138238093Y-154873866D01*
X138238093Y-154873866D02*
X137999998Y-154873866D01*
X137999998Y-154873866D02*
X137904760Y-154826247D01*
X137285712Y-155254819D02*
X137380950Y-155207200D01*
X137380950Y-155207200D02*
X137428569Y-155111961D01*
X137428569Y-155111961D02*
X137428569Y-154254819D01*
X134857140Y-155254819D02*
X135428568Y-155254819D01*
X135142854Y-155254819D02*
X135142854Y-154254819D01*
X135142854Y-154254819D02*
X135238092Y-154397676D01*
X135238092Y-154397676D02*
X135333330Y-154492914D01*
X135333330Y-154492914D02*
X135428568Y-154540533D01*
X134476187Y-154350057D02*
X134428568Y-154302438D01*
X134428568Y-154302438D02*
X134333330Y-154254819D01*
X134333330Y-154254819D02*
X134095235Y-154254819D01*
X134095235Y-154254819D02*
X133999997Y-154302438D01*
X133999997Y-154302438D02*
X133952378Y-154350057D01*
X133952378Y-154350057D02*
X133904759Y-154445295D01*
X133904759Y-154445295D02*
X133904759Y-154540533D01*
X133904759Y-154540533D02*
X133952378Y-154683390D01*
X133952378Y-154683390D02*
X134523806Y-155254819D01*
X134523806Y-155254819D02*
X133904759Y-155254819D01*
X133476187Y-154873866D02*
X132714283Y-154873866D01*
X132285711Y-154350057D02*
X132238092Y-154302438D01*
X132238092Y-154302438D02*
X132142854Y-154254819D01*
X132142854Y-154254819D02*
X131904759Y-154254819D01*
X131904759Y-154254819D02*
X131809521Y-154302438D01*
X131809521Y-154302438D02*
X131761902Y-154350057D01*
X131761902Y-154350057D02*
X131714283Y-154445295D01*
X131714283Y-154445295D02*
X131714283Y-154540533D01*
X131714283Y-154540533D02*
X131761902Y-154683390D01*
X131761902Y-154683390D02*
X132333330Y-155254819D01*
X132333330Y-155254819D02*
X131714283Y-155254819D01*
X130857140Y-154588152D02*
X130857140Y-155254819D01*
X131095235Y-154207200D02*
X131333330Y-154921485D01*
X131333330Y-154921485D02*
X130714283Y-154921485D01*
X130476187Y-154254819D02*
X130142854Y-155254819D01*
X130142854Y-155254819D02*
X129809521Y-154254819D01*
X128761901Y-154350057D02*
X128714282Y-154302438D01*
X128714282Y-154302438D02*
X128619044Y-154254819D01*
X128619044Y-154254819D02*
X128380949Y-154254819D01*
X128380949Y-154254819D02*
X128285711Y-154302438D01*
X128285711Y-154302438D02*
X128238092Y-154350057D01*
X128238092Y-154350057D02*
X128190473Y-154445295D01*
X128190473Y-154445295D02*
X128190473Y-154540533D01*
X128190473Y-154540533D02*
X128238092Y-154683390D01*
X128238092Y-154683390D02*
X128809520Y-155254819D01*
X128809520Y-155254819D02*
X128190473Y-155254819D01*
X127571425Y-154254819D02*
X127476187Y-154254819D01*
X127476187Y-154254819D02*
X127380949Y-154302438D01*
X127380949Y-154302438D02*
X127333330Y-154350057D01*
X127333330Y-154350057D02*
X127285711Y-154445295D01*
X127285711Y-154445295D02*
X127238092Y-154635771D01*
X127238092Y-154635771D02*
X127238092Y-154873866D01*
X127238092Y-154873866D02*
X127285711Y-155064342D01*
X127285711Y-155064342D02*
X127333330Y-155159580D01*
X127333330Y-155159580D02*
X127380949Y-155207200D01*
X127380949Y-155207200D02*
X127476187Y-155254819D01*
X127476187Y-155254819D02*
X127571425Y-155254819D01*
X127571425Y-155254819D02*
X127666663Y-155207200D01*
X127666663Y-155207200D02*
X127714282Y-155159580D01*
X127714282Y-155159580D02*
X127761901Y-155064342D01*
X127761901Y-155064342D02*
X127809520Y-154873866D01*
X127809520Y-154873866D02*
X127809520Y-154635771D01*
X127809520Y-154635771D02*
X127761901Y-154445295D01*
X127761901Y-154445295D02*
X127714282Y-154350057D01*
X127714282Y-154350057D02*
X127666663Y-154302438D01*
X127666663Y-154302438D02*
X127571425Y-154254819D01*
X126857139Y-154969104D02*
X126380949Y-154969104D01*
X126952377Y-155254819D02*
X126619044Y-154254819D01*
X126619044Y-154254819D02*
X126285711Y-155254819D01*
D12*
X179428570Y-145545782D02*
X179999998Y-145545782D01*
X179999998Y-145545782D02*
X179999998Y-144345782D01*
X178571426Y-145488640D02*
X178685712Y-145545782D01*
X178685712Y-145545782D02*
X178914284Y-145545782D01*
X178914284Y-145545782D02*
X179028569Y-145488640D01*
X179028569Y-145488640D02*
X179085712Y-145374354D01*
X179085712Y-145374354D02*
X179085712Y-144917211D01*
X179085712Y-144917211D02*
X179028569Y-144802925D01*
X179028569Y-144802925D02*
X178914284Y-144745782D01*
X178914284Y-144745782D02*
X178685712Y-144745782D01*
X178685712Y-144745782D02*
X178571426Y-144802925D01*
X178571426Y-144802925D02*
X178514284Y-144917211D01*
X178514284Y-144917211D02*
X178514284Y-145031497D01*
X178514284Y-145031497D02*
X179085712Y-145145782D01*
X178171427Y-144745782D02*
X177714284Y-144745782D01*
X177999998Y-144345782D02*
X177999998Y-145374354D01*
X177999998Y-145374354D02*
X177942855Y-145488640D01*
X177942855Y-145488640D02*
X177828570Y-145545782D01*
X177828570Y-145545782D02*
X177714284Y-145545782D01*
X177314284Y-145545782D02*
X177314284Y-144745782D01*
X177314284Y-144974354D02*
X177257141Y-144860068D01*
X177257141Y-144860068D02*
X177199999Y-144802925D01*
X177199999Y-144802925D02*
X177085713Y-144745782D01*
X177085713Y-144745782D02*
X176971427Y-144745782D01*
X176114284Y-145488640D02*
X176228570Y-145545782D01*
X176228570Y-145545782D02*
X176457142Y-145545782D01*
X176457142Y-145545782D02*
X176571427Y-145488640D01*
X176571427Y-145488640D02*
X176628570Y-145374354D01*
X176628570Y-145374354D02*
X176628570Y-144917211D01*
X176628570Y-144917211D02*
X176571427Y-144802925D01*
X176571427Y-144802925D02*
X176457142Y-144745782D01*
X176457142Y-144745782D02*
X176228570Y-144745782D01*
X176228570Y-144745782D02*
X176114284Y-144802925D01*
X176114284Y-144802925D02*
X176057142Y-144917211D01*
X176057142Y-144917211D02*
X176057142Y-145031497D01*
X176057142Y-145031497D02*
X176628570Y-145145782D01*
X175542856Y-145545782D02*
X175542856Y-144745782D01*
X175542856Y-144974354D02*
X175485713Y-144860068D01*
X175485713Y-144860068D02*
X175428571Y-144802925D01*
X175428571Y-144802925D02*
X175314285Y-144745782D01*
X175314285Y-144745782D02*
X175199999Y-144745782D01*
X174628571Y-145545782D02*
X174742856Y-145488640D01*
X174742856Y-145488640D02*
X174799999Y-145431497D01*
X174799999Y-145431497D02*
X174857142Y-145317211D01*
X174857142Y-145317211D02*
X174857142Y-144974354D01*
X174857142Y-144974354D02*
X174799999Y-144860068D01*
X174799999Y-144860068D02*
X174742856Y-144802925D01*
X174742856Y-144802925D02*
X174628571Y-144745782D01*
X174628571Y-144745782D02*
X174457142Y-144745782D01*
X174457142Y-144745782D02*
X174342856Y-144802925D01*
X174342856Y-144802925D02*
X174285714Y-144860068D01*
X174285714Y-144860068D02*
X174228571Y-144974354D01*
X174228571Y-144974354D02*
X174228571Y-145317211D01*
X174228571Y-145317211D02*
X174285714Y-145431497D01*
X174285714Y-145431497D02*
X174342856Y-145488640D01*
X174342856Y-145488640D02*
X174457142Y-145545782D01*
X174457142Y-145545782D02*
X174628571Y-145545782D01*
X173142857Y-145545782D02*
X173714285Y-145545782D01*
X173714285Y-145545782D02*
X173714285Y-144345782D01*
X172228571Y-145545782D02*
X172228571Y-144917211D01*
X172228571Y-144917211D02*
X172285713Y-144802925D01*
X172285713Y-144802925D02*
X172399999Y-144745782D01*
X172399999Y-144745782D02*
X172628571Y-144745782D01*
X172628571Y-144745782D02*
X172742856Y-144802925D01*
X172228571Y-145488640D02*
X172342856Y-145545782D01*
X172342856Y-145545782D02*
X172628571Y-145545782D01*
X172628571Y-145545782D02*
X172742856Y-145488640D01*
X172742856Y-145488640D02*
X172799999Y-145374354D01*
X172799999Y-145374354D02*
X172799999Y-145260068D01*
X172799999Y-145260068D02*
X172742856Y-145145782D01*
X172742856Y-145145782D02*
X172628571Y-145088640D01*
X172628571Y-145088640D02*
X172342856Y-145088640D01*
X172342856Y-145088640D02*
X172228571Y-145031497D01*
X171657142Y-145545782D02*
X171657142Y-144345782D01*
X171657142Y-144802925D02*
X171542857Y-144745782D01*
X171542857Y-144745782D02*
X171314285Y-144745782D01*
X171314285Y-144745782D02*
X171199999Y-144802925D01*
X171199999Y-144802925D02*
X171142857Y-144860068D01*
X171142857Y-144860068D02*
X171085714Y-144974354D01*
X171085714Y-144974354D02*
X171085714Y-145317211D01*
X171085714Y-145317211D02*
X171142857Y-145431497D01*
X171142857Y-145431497D02*
X171199999Y-145488640D01*
X171199999Y-145488640D02*
X171314285Y-145545782D01*
X171314285Y-145545782D02*
X171542857Y-145545782D01*
X171542857Y-145545782D02*
X171657142Y-145488640D01*
X169714285Y-145202925D02*
X169142857Y-145202925D01*
X169828571Y-145545782D02*
X169428571Y-144345782D01*
X169428571Y-144345782D02*
X169028571Y-145545782D01*
X168628571Y-145545782D02*
X168628571Y-144345782D01*
X168628571Y-144345782D02*
X168171428Y-144345782D01*
X168171428Y-144345782D02*
X168057143Y-144402925D01*
X168057143Y-144402925D02*
X168000000Y-144460068D01*
X168000000Y-144460068D02*
X167942857Y-144574354D01*
X167942857Y-144574354D02*
X167942857Y-144745782D01*
X167942857Y-144745782D02*
X168000000Y-144860068D01*
X168000000Y-144860068D02*
X168057143Y-144917211D01*
X168057143Y-144917211D02*
X168171428Y-144974354D01*
X168171428Y-144974354D02*
X168628571Y-144974354D01*
X167428571Y-145088640D02*
X166514286Y-145088640D01*
X165314286Y-145545782D02*
X166000000Y-145545782D01*
X165657143Y-145545782D02*
X165657143Y-144345782D01*
X165657143Y-144345782D02*
X165771429Y-144517211D01*
X165771429Y-144517211D02*
X165885714Y-144631497D01*
X165885714Y-144631497D02*
X166000000Y-144688640D01*
X163485714Y-144917211D02*
X163314286Y-144974354D01*
X163314286Y-144974354D02*
X163257143Y-145031497D01*
X163257143Y-145031497D02*
X163200000Y-145145782D01*
X163200000Y-145145782D02*
X163200000Y-145317211D01*
X163200000Y-145317211D02*
X163257143Y-145431497D01*
X163257143Y-145431497D02*
X163314286Y-145488640D01*
X163314286Y-145488640D02*
X163428571Y-145545782D01*
X163428571Y-145545782D02*
X163885714Y-145545782D01*
X163885714Y-145545782D02*
X163885714Y-144345782D01*
X163885714Y-144345782D02*
X163485714Y-144345782D01*
X163485714Y-144345782D02*
X163371429Y-144402925D01*
X163371429Y-144402925D02*
X163314286Y-144460068D01*
X163314286Y-144460068D02*
X163257143Y-144574354D01*
X163257143Y-144574354D02*
X163257143Y-144688640D01*
X163257143Y-144688640D02*
X163314286Y-144802925D01*
X163314286Y-144802925D02*
X163371429Y-144860068D01*
X163371429Y-144860068D02*
X163485714Y-144917211D01*
X163485714Y-144917211D02*
X163885714Y-144917211D01*
X162742857Y-145202925D02*
X162171429Y-145202925D01*
X162857143Y-145545782D02*
X162457143Y-144345782D01*
X162457143Y-144345782D02*
X162057143Y-145545782D01*
X161714286Y-145488640D02*
X161542858Y-145545782D01*
X161542858Y-145545782D02*
X161257143Y-145545782D01*
X161257143Y-145545782D02*
X161142858Y-145488640D01*
X161142858Y-145488640D02*
X161085715Y-145431497D01*
X161085715Y-145431497D02*
X161028572Y-145317211D01*
X161028572Y-145317211D02*
X161028572Y-145202925D01*
X161028572Y-145202925D02*
X161085715Y-145088640D01*
X161085715Y-145088640D02*
X161142858Y-145031497D01*
X161142858Y-145031497D02*
X161257143Y-144974354D01*
X161257143Y-144974354D02*
X161485715Y-144917211D01*
X161485715Y-144917211D02*
X161600000Y-144860068D01*
X161600000Y-144860068D02*
X161657143Y-144802925D01*
X161657143Y-144802925D02*
X161714286Y-144688640D01*
X161714286Y-144688640D02*
X161714286Y-144574354D01*
X161714286Y-144574354D02*
X161657143Y-144460068D01*
X161657143Y-144460068D02*
X161600000Y-144402925D01*
X161600000Y-144402925D02*
X161485715Y-144345782D01*
X161485715Y-144345782D02*
X161200000Y-144345782D01*
X161200000Y-144345782D02*
X161028572Y-144402925D01*
X160514286Y-144917211D02*
X160114286Y-144917211D01*
X159942858Y-145545782D02*
X160514286Y-145545782D01*
X160514286Y-145545782D02*
X160514286Y-144345782D01*
X160514286Y-144345782D02*
X159942858Y-144345782D01*
%LPC*%
D13*
%TO.C,J4*%
X144500000Y-149800000D03*
D14*
X149580000Y-149800000D03*
X154660000Y-149800000D03*
X159740000Y-149800000D03*
%TD*%
D15*
%TO.C,H3*%
X184500000Y-152500000D03*
%TD*%
D16*
%TO.C,J5*%
X103000000Y-149800000D03*
D17*
X106500000Y-149800000D03*
X110000000Y-149800000D03*
X113500000Y-149800000D03*
%TD*%
D18*
%TO.C,J7*%
X147000000Y-106000000D03*
D19*
X144460000Y-106000000D03*
X147000000Y-108540000D03*
X144460000Y-108540000D03*
X147000000Y-111080000D03*
X144460000Y-111080000D03*
X147000000Y-113620000D03*
X144460000Y-113620000D03*
X147000000Y-116160000D03*
X144460000Y-116160000D03*
X147000000Y-118700000D03*
X144460000Y-118700000D03*
X147000000Y-121240000D03*
X144460000Y-121240000D03*
X147000000Y-123780000D03*
X144460000Y-123780000D03*
%TD*%
D13*
%TO.C,J3*%
X120000000Y-149800000D03*
D14*
X125080000Y-149800000D03*
%TD*%
D15*
%TO.C,H2*%
X184500000Y-139500000D03*
%TD*%
D13*
%TO.C,J1*%
X132000000Y-149800000D03*
D14*
X137080000Y-149800000D03*
%TD*%
D20*
%TO.C,F1*%
X130600000Y-138000000D03*
X134000000Y-138000000D03*
X130600000Y-128080000D03*
X134000000Y-128080000D03*
%TD*%
D15*
%TO.C,H1*%
X103500000Y-103500000D03*
%TD*%
D16*
%TO.C,J6*%
X167000000Y-149800000D03*
D17*
X170500000Y-149800000D03*
%TD*%
%LPD*%
M02*
