%TF.GenerationSoftware,KiCad,Pcbnew,9.0.9*%
%TF.CreationDate,2026-10-06T22:32:15+00:00*%
%TF.ProjectId,AP1_Base,4150315f-4261-4736-952e-6b696361645f,rev?*%
%TF.SameCoordinates,Original*%
%TF.FileFunction,Copper,L4,Bot*%
%TF.FilePolarity,Positive*%
%FSLAX46Y46*%
G04 Gerber Fmt 4.6, Leading zero omitted, Abs format (unit mm)*
G04 Created by KiCad (PCBNEW 9.0.9) date 2026-10-06 22:32:15*
%MOMM*%
%LPD*%
G01*
G04 APERTURE LIST*
G04 Aperture macros list*
%AMRoundRect*
0 Rectangle with rounded corners*
0 $1 Rounding radius*
0 $2 $3 $4 $5 $6 $7 $8 $9 X,Y pos of 4 corners*
0 Add a 4 corners polygon primitive as box body*
4,1,4,$2,$3,$4,$5,$6,$7,$8,$9,$2,$3,0*
0 Add four circle primitives for the rounded corners*
1,1,$1+$1,$2,$3*
1,1,$1+$1,$4,$5*
1,1,$1+$1,$6,$7*
1,1,$1+$1,$8,$9*
0 Add four rect primitives between the rounded corners*
20,1,$1+$1,$2,$3,$4,$5,0*
20,1,$1+$1,$4,$5,$6,$7,0*
20,1,$1+$1,$6,$7,$8,$9,0*
20,1,$1+$1,$8,$9,$2,$3,0*%
G04 Aperture macros list end*
%TA.AperFunction,ComponentPad*%
%ADD10RoundRect,0.250000X-0.600000X-0.750000X0.600000X-0.750000X0.600000X0.750000X-0.600000X0.750000X0*%
%TD*%
%TA.AperFunction,ComponentPad*%
%ADD11O,1.700000X2.000000*%
%TD*%
%TA.AperFunction,ComponentPad*%
%ADD12RoundRect,0.250001X-1.099999X-1.099999X1.099999X-1.099999X1.099999X1.099999X-1.099999X1.099999X0*%
%TD*%
%TA.AperFunction,ComponentPad*%
%ADD13C,2.700000*%
%TD*%
%TA.AperFunction,ComponentPad*%
%ADD14R,1.700000X1.700000*%
%TD*%
%TA.AperFunction,ComponentPad*%
%ADD15C,1.700000*%
%TD*%
%TA.AperFunction,ComponentPad*%
%ADD16C,2.780000*%
%TD*%
%TA.AperFunction,ViaPad*%
%ADD17C,0.600000*%
%TD*%
%TA.AperFunction,ViaPad*%
%ADD18C,0.800000*%
%TD*%
%TA.AperFunction,Conductor*%
%ADD19C,0.300000*%
%TD*%
%TA.AperFunction,Conductor*%
%ADD20C,0.250000*%
%TD*%
%TA.AperFunction,Conductor*%
%ADD21C,0.600000*%
%TD*%
G04 APERTURE END LIST*
D10*
%TO.P,J6,1*%
%TO.N,/V12*%
X166500000Y-151000000D03*
D11*
%TO.P,J6,2*%
%TO.N,/AUXD*%
X169000000Y-151000000D03*
%TD*%
D10*
%TO.P,J8,1*%
%TO.N,/LEDA2*%
X111600000Y-151000000D03*
D11*
%TO.P,J8,2*%
%TO.N,/LEDK2*%
X114100000Y-151000000D03*
%TD*%
D12*
%TO.P,J1,1*%
%TO.N,/VIN_RAW*%
X130000000Y-150400000D03*
D13*
%TO.P,J1,2*%
X133960000Y-150400000D03*
%TO.P,J1,3*%
%TO.N,/GNDIN*%
X137920000Y-150400000D03*
%TO.P,J1,4*%
X141880000Y-150400000D03*
%TD*%
D10*
%TO.P,J5,1*%
%TO.N,/LEDA1*%
X103000000Y-151000000D03*
D11*
%TO.P,J5,2*%
%TO.N,/LEDK1*%
X105500000Y-151000000D03*
%TD*%
D14*
%TO.P,J7,1*%
%TO.N,/V12*%
X147000000Y-106000000D03*
D15*
%TO.P,J7,2*%
X144460000Y-106000000D03*
%TO.P,J7,3*%
%TO.N,/GND*%
X147000000Y-108540000D03*
%TO.P,J7,4*%
X144460000Y-108540000D03*
%TO.P,J7,5*%
%TO.N,/PWM1*%
X147000000Y-111080000D03*
%TO.P,J7,6*%
%TO.N,/PWM2*%
X144460000Y-111080000D03*
%TO.P,J7,7*%
%TO.N,/PWM3*%
X147000000Y-113620000D03*
%TO.P,J7,8*%
%TO.N,/PWM4*%
X144460000Y-113620000D03*
%TO.P,J7,9*%
%TO.N,/CC1*%
X147000000Y-116160000D03*
%TO.P,J7,10*%
%TO.N,/CC2*%
X144460000Y-116160000D03*
%TO.P,J7,11*%
%TO.N,/SDA*%
X147000000Y-118700000D03*
%TO.P,J7,12*%
%TO.N,/SCL*%
X144460000Y-118700000D03*
%TO.P,J7,13*%
%TO.N,/ALERT*%
X147000000Y-121240000D03*
%TO.P,J7,14*%
%TO.N,/AUX*%
X144460000Y-121240000D03*
%TO.P,J7,15*%
%TO.N,/3V3*%
X147000000Y-123780000D03*
%TO.P,J7,16*%
%TO.N,/GND*%
X144460000Y-123780000D03*
%TD*%
D16*
%TO.P,F1,1*%
%TO.N,/VIN_RAW*%
X130600000Y-138000000D03*
X134000000Y-138000000D03*
%TO.P,F1,2*%
%TO.N,/VF*%
X130600000Y-128080000D03*
X134000000Y-128080000D03*
%TD*%
D12*
%TO.P,J3,1*%
%TO.N,/VIN*%
X119600000Y-150400000D03*
D13*
%TO.P,J3,2*%
X123560000Y-150400000D03*
%TD*%
D12*
%TO.P,J4,1*%
%TO.N,/CH1*%
X148000000Y-150400000D03*
D13*
%TO.P,J4,2*%
%TO.N,/CH2*%
X151960000Y-150400000D03*
%TO.P,J4,3*%
%TO.N,/CH3*%
X155920000Y-150400000D03*
%TO.P,J4,4*%
%TO.N,/CH4*%
X159880000Y-150400000D03*
%TD*%
D17*
%TO.N,/ISN*%
X119200000Y-130900000D03*
X119200000Y-123450000D03*
D18*
%TO.N,/GND*%
X145600000Y-134000000D03*
D17*
X100750500Y-127368308D03*
X156991121Y-122605001D03*
D18*
X159600000Y-132900000D03*
X167800000Y-132900000D03*
D17*
X172000000Y-107000000D03*
X182000000Y-147000000D03*
X167000000Y-107000000D03*
X107000000Y-147000000D03*
X104422311Y-123852500D03*
D18*
X159600000Y-134000000D03*
D17*
X172000000Y-127000000D03*
X162000000Y-112000000D03*
D18*
X138400000Y-132700000D03*
X169000000Y-134000000D03*
X166600000Y-134000000D03*
D17*
X115350500Y-121325704D03*
X132000000Y-107000000D03*
D18*
X155000000Y-134000000D03*
X148000000Y-132900000D03*
X162000000Y-132900000D03*
X146800000Y-132900000D03*
X152600000Y-132900000D03*
X148000000Y-134000000D03*
X141200000Y-133600000D03*
D17*
X182000000Y-137000000D03*
D18*
X160800000Y-134000000D03*
D17*
X127000000Y-107000000D03*
X163058118Y-126490500D03*
X162579223Y-122125500D03*
X132000000Y-117000000D03*
X172000000Y-147000000D03*
D18*
X167800000Y-134000000D03*
D17*
X100750500Y-110400013D03*
D18*
X169000000Y-132900000D03*
D17*
X157960499Y-118524959D03*
X167000000Y-117000000D03*
X115610872Y-124692169D03*
X126758867Y-125409587D03*
D18*
X153800000Y-134000000D03*
X166600000Y-132900000D03*
D17*
X152591137Y-108032500D03*
X127000000Y-117000000D03*
X113800500Y-105193682D03*
X107219313Y-134686131D03*
X123055500Y-112650013D03*
X152602500Y-111695500D03*
D18*
X127400000Y-141000000D03*
X141200000Y-132700000D03*
X152600000Y-134000000D03*
X162000000Y-134000000D03*
X160800000Y-132900000D03*
D17*
X182000000Y-142000000D03*
X147000000Y-102000000D03*
X117000000Y-107000000D03*
X157922456Y-121085001D03*
X100750500Y-113875500D03*
X122000000Y-117000000D03*
D18*
X145600000Y-132900000D03*
X140400000Y-132700000D03*
D17*
X161370500Y-129335500D03*
X111919185Y-112613158D03*
D18*
X138400000Y-133600000D03*
D17*
X172000000Y-102000000D03*
X182000000Y-132000000D03*
D18*
X153800000Y-132900000D03*
D17*
X137000000Y-112000000D03*
X172000000Y-117000000D03*
X152000000Y-102000000D03*
D18*
X126900000Y-136600000D03*
D17*
X167000000Y-102000000D03*
D18*
X140400000Y-133600000D03*
D17*
X172000000Y-112000000D03*
D18*
X139400000Y-132700000D03*
D17*
X162000000Y-107000000D03*
X177000000Y-147000000D03*
X122000000Y-107000000D03*
D18*
X126900000Y-133800000D03*
D17*
X157000000Y-102000000D03*
X167000000Y-112000000D03*
X167000000Y-147000000D03*
X137000000Y-107000000D03*
X162000000Y-102000000D03*
D18*
X155000000Y-132900000D03*
D17*
X141806304Y-129375500D03*
X107000000Y-142000000D03*
X148378686Y-109815001D03*
X153260564Y-129465721D03*
X172000000Y-132000000D03*
X104392981Y-127762193D03*
X123207697Y-121217709D03*
X132000000Y-132000000D03*
X132000000Y-112000000D03*
X162285500Y-150906898D03*
D18*
X139400000Y-133600000D03*
D17*
X172000000Y-122000000D03*
X177000000Y-132000000D03*
X102000000Y-107000000D03*
D18*
X146800000Y-134000000D03*
D17*
%TO.N,/SDA*%
X153286000Y-112791000D03*
%TO.N,/3V3*%
X142850000Y-128000000D03*
X136125000Y-117988000D03*
%TO.N,/V12*%
X161351000Y-145210000D03*
X154152000Y-125470000D03*
%TO.N,/VCC*%
X104339000Y-136500000D03*
X107053000Y-136600000D03*
X106203000Y-122552000D03*
X106653000Y-115751000D03*
%TO.N,/LEDA1*%
X101554000Y-116474000D03*
X104500000Y-121378000D03*
%TO.N,/LEDK1*%
X111981000Y-117600000D03*
%TO.N,/LEDA2*%
X103364000Y-128303000D03*
X106746000Y-150007000D03*
X104500000Y-133916000D03*
%TO.N,/LEDK2*%
X111944000Y-130100000D03*
%TO.N,/CC1*%
X141200000Y-112350000D03*
X107600000Y-119450000D03*
%TO.N,/CC2*%
X107600000Y-131949999D03*
X140200000Y-116200000D03*
%TO.N,/PWM1*%
X149253000Y-125509000D03*
%TO.N,/PWM2*%
X149170000Y-128619000D03*
%TO.N,/PWM3*%
X159642000Y-124863000D03*
%TO.N,/PWM4*%
X159238000Y-126761000D03*
%TO.N,/GO3*%
X163390000Y-124865000D03*
X160170000Y-129057000D03*
%TO.N,/AUX*%
X166347000Y-128779000D03*
%TO.N,/AUXD*%
X174551000Y-138000000D03*
%TD*%
D19*
%TO.N,/ISN*%
X119200000Y-130900000D02*
X119200000Y-123450000D01*
D20*
%TO.N,/SDA*%
X146488000Y-114797000D02*
X145730000Y-114039000D01*
X147310000Y-114797000D02*
X146488000Y-114797000D01*
X146514000Y-112405000D02*
X152900000Y-112405000D01*
X147000000Y-118700000D02*
X148177000Y-117523000D01*
X148177000Y-115664000D02*
X147310000Y-114797000D01*
X145730000Y-113189000D02*
X146514000Y-112405000D01*
X152900000Y-112405000D02*
X153286000Y-112791000D01*
X148177000Y-117523000D02*
X148177000Y-115664000D01*
X145730000Y-114039000D02*
X145730000Y-113189000D01*
%TO.N,/3V3*%
X142850000Y-124713000D02*
X136125000Y-117988000D01*
X142850000Y-128000000D02*
X142850000Y-124713000D01*
D21*
%TO.N,/V12*%
X154152000Y-111800000D02*
X154152000Y-125470000D01*
X148352000Y-106000000D02*
X154152000Y-111800000D01*
X147000000Y-106000000D02*
X148352000Y-106000000D01*
X166500000Y-150359000D02*
X161351000Y-145210000D01*
X166500000Y-151000000D02*
X166500000Y-150359000D01*
%TO.N,/VCC*%
X106203000Y-116201000D02*
X106653000Y-115751000D01*
X106203000Y-122552000D02*
X106203000Y-116201000D01*
X104439000Y-136600000D02*
X104339000Y-136500000D01*
X107053000Y-136600000D02*
X104439000Y-136600000D01*
%TO.N,/LEDA1*%
X102501000Y-150501000D02*
X102501000Y-123377000D01*
X103000000Y-151000000D02*
X102501000Y-150501000D01*
X104500000Y-121378000D02*
X101554000Y-118432000D01*
X101554000Y-118432000D02*
X101554000Y-116474000D01*
X102501000Y-123377000D02*
X104500000Y-121378000D01*
%TO.N,/LEDK1*%
X106952000Y-151000000D02*
X109781000Y-148170000D01*
X105500000Y-151000000D02*
X106952000Y-151000000D01*
X109781000Y-119800000D02*
X111981000Y-117600000D01*
X109781000Y-148170000D02*
X109781000Y-119800000D01*
%TO.N,/LEDA2*%
X106746000Y-150007000D02*
X103482000Y-146743000D01*
X104500000Y-129439000D02*
X103364000Y-128303000D01*
X103482000Y-134933000D02*
X104500000Y-133916000D01*
X103482000Y-146743000D02*
X103482000Y-134933000D01*
X104500000Y-133916000D02*
X104500000Y-129439000D01*
%TO.N,/LEDK2*%
X114100000Y-151000000D02*
X111944000Y-148844000D01*
X111944000Y-148844000D02*
X111944000Y-130100000D01*
D19*
%TO.N,/CC1*%
X107600000Y-101000000D02*
X107600000Y-119450000D01*
X141200000Y-101000000D02*
X107600000Y-101000000D01*
X141200000Y-112350000D02*
X141200000Y-101000000D01*
%TO.N,/CC2*%
X140200000Y-101800000D02*
X108600000Y-101800000D01*
X107600000Y-125000000D02*
X107600000Y-131949999D01*
X140200000Y-116200000D02*
X140200000Y-101800000D01*
X108600000Y-124000000D02*
X107600000Y-125000000D01*
X108600000Y-101800000D02*
X108600000Y-124000000D01*
D20*
%TO.N,/PWM1*%
X149253000Y-124298000D02*
X149253000Y-125509000D01*
X143274000Y-119191000D02*
X144071000Y-119988000D01*
X147464000Y-122510000D02*
X149253000Y-124298000D01*
X144071000Y-119988000D02*
X144900000Y-119988000D01*
X145730000Y-120818000D02*
X145730000Y-121671000D01*
X147000000Y-111080000D02*
X145637000Y-112443000D01*
X143870000Y-112443000D02*
X143274000Y-113040000D01*
X145637000Y-112443000D02*
X143870000Y-112443000D01*
X144900000Y-119988000D02*
X145730000Y-120818000D01*
X146569000Y-122510000D02*
X147464000Y-122510000D01*
X143274000Y-113040000D02*
X143274000Y-119191000D01*
X145730000Y-121671000D02*
X146569000Y-122510000D01*
%TO.N,/PWM2*%
X147586000Y-128619000D02*
X149170000Y-128619000D01*
X142815000Y-112725000D02*
X142815000Y-123848000D01*
X142815000Y-123848000D02*
X147586000Y-128619000D01*
X144460000Y-111080000D02*
X142815000Y-112725000D01*
%TO.N,/PWM3*%
X151515000Y-118135000D02*
X147000000Y-113620000D01*
X153841000Y-126114000D02*
X151515000Y-123788000D01*
X158391000Y-126114000D02*
X153841000Y-126114000D01*
X151515000Y-123788000D02*
X151515000Y-118135000D01*
X159642000Y-124863000D02*
X158391000Y-126114000D01*
%TO.N,/PWM4*%
X147409000Y-119970000D02*
X151063000Y-123624000D01*
X146569000Y-119970000D02*
X147409000Y-119970000D01*
X151063000Y-123983000D02*
X153841000Y-126761000D01*
X145744000Y-119145000D02*
X146569000Y-119970000D01*
X153841000Y-126761000D02*
X159238000Y-126761000D01*
X144460000Y-113620000D02*
X145744000Y-114904000D01*
X145744000Y-114904000D02*
X145744000Y-119145000D01*
X151063000Y-123624000D02*
X151063000Y-123983000D01*
%TO.N,/GO3*%
X160170000Y-128085000D02*
X163390000Y-124865000D01*
X160170000Y-129057000D02*
X160170000Y-128085000D01*
%TO.N,/AUX*%
X163043000Y-124203000D02*
X159292000Y-127953000D01*
X166347000Y-128779000D02*
X166347000Y-126926000D01*
X159292000Y-127953000D02*
X149436000Y-127953000D01*
X145730000Y-124247000D02*
X145730000Y-122510000D01*
X163624000Y-124203000D02*
X163043000Y-124203000D01*
X145730000Y-122510000D02*
X144460000Y-121240000D01*
X149436000Y-127953000D02*
X145730000Y-124247000D01*
X166347000Y-126926000D02*
X163624000Y-124203000D01*
D21*
%TO.N,/AUXD*%
X174551000Y-146800000D02*
X174551000Y-138000000D01*
X170352000Y-151000000D02*
X174551000Y-146800000D01*
X169000000Y-151000000D02*
X170352000Y-151000000D01*
%TD*%
%TA.AperFunction,Conductor*%
%TO.N,/GND*%
G36*
X145269873Y-124236319D02*
G01*
X145302056Y-124295259D01*
X145302397Y-124295168D01*
X145302772Y-124296570D01*
X145303358Y-124297642D01*
X145303913Y-124300829D01*
X145304609Y-124303426D01*
X145333497Y-124411237D01*
X145389515Y-124508263D01*
X145389517Y-124508265D01*
X148825505Y-127944253D01*
X148858990Y-128005576D01*
X148854006Y-128075268D01*
X148819490Y-128125244D01*
X148810342Y-128133250D01*
X148801284Y-128138480D01*
X148779661Y-128160102D01*
X148776568Y-128162810D01*
X148748443Y-128175822D01*
X148721260Y-128190666D01*
X148714879Y-128191352D01*
X148713157Y-128192149D01*
X148710672Y-128191804D01*
X148694902Y-128193500D01*
X147813610Y-128193500D01*
X147746571Y-128173815D01*
X147725929Y-128157181D01*
X144835717Y-125266969D01*
X144802232Y-125205646D01*
X144807216Y-125135954D01*
X144849088Y-125080021D01*
X144885081Y-125061357D01*
X144978215Y-125031096D01*
X145167554Y-124934622D01*
X145221716Y-124895270D01*
X145221717Y-124895270D01*
X144589408Y-124262962D01*
X144652993Y-124245925D01*
X144767007Y-124180099D01*
X144860099Y-124087007D01*
X144925925Y-123972993D01*
X144942962Y-123909408D01*
X145269873Y-124236319D01*
G37*
%TD.AperFunction*%
%TA.AperFunction,Conductor*%
G36*
X143387944Y-121777197D02*
G01*
X143394314Y-121776925D01*
X143419343Y-121791537D01*
X143445703Y-121803575D01*
X143450529Y-121809743D01*
X143454654Y-121812151D01*
X143474986Y-121840996D01*
X143475478Y-121841963D01*
X143476006Y-121842999D01*
X143582441Y-121989494D01*
X143582445Y-121989499D01*
X143710500Y-122117554D01*
X143710505Y-122117558D01*
X143781918Y-122169442D01*
X143857006Y-122223996D01*
X143958780Y-122275853D01*
X143988684Y-122291090D01*
X144039480Y-122339065D01*
X144056275Y-122406886D01*
X144033737Y-122473021D01*
X143979022Y-122516472D01*
X143970708Y-122519506D01*
X143941781Y-122528905D01*
X143752439Y-122625380D01*
X143698282Y-122664727D01*
X143698282Y-122664728D01*
X144330591Y-123297037D01*
X144267007Y-123314075D01*
X144152993Y-123379901D01*
X144059901Y-123472993D01*
X143994075Y-123587007D01*
X143977037Y-123650591D01*
X143333942Y-123007496D01*
X143305851Y-123001595D01*
X143256094Y-122952543D01*
X143240500Y-122892342D01*
X143240500Y-121897288D01*
X143242296Y-121891171D01*
X143241120Y-121884907D01*
X143252021Y-121858051D01*
X143260185Y-121830249D01*
X143265000Y-121826076D01*
X143267399Y-121820168D01*
X143291093Y-121803466D01*
X143312989Y-121784494D01*
X143319297Y-121783586D01*
X143324508Y-121779914D01*
X143353464Y-121778674D01*
X143382147Y-121774550D01*
X143387944Y-121777197D01*
G37*
%TD.AperFunction*%
%TA.AperFunction,Conductor*%
G36*
X148357496Y-106854731D02*
G01*
X153486167Y-111983402D01*
X153519652Y-112044725D01*
X153514668Y-112114417D01*
X153472796Y-112170350D01*
X153407332Y-112194767D01*
X153389023Y-112194721D01*
X153377525Y-112193840D01*
X153365057Y-112190500D01*
X153333876Y-112190500D01*
X153329147Y-112190138D01*
X153300727Y-112179376D01*
X153271571Y-112170815D01*
X153265767Y-112166137D01*
X153263805Y-112165395D01*
X153262264Y-112163315D01*
X153250929Y-112154181D01*
X153161265Y-112064517D01*
X153161263Y-112064515D01*
X153064237Y-112008497D01*
X152956018Y-111979500D01*
X152956017Y-111979500D01*
X148011936Y-111979500D01*
X147944897Y-111959815D01*
X147899142Y-111907011D01*
X147889198Y-111837853D01*
X147911618Y-111782615D01*
X147956424Y-111720944D01*
X147983996Y-111682994D01*
X148066211Y-111521639D01*
X148122171Y-111349409D01*
X148136765Y-111257259D01*
X148150500Y-111170551D01*
X148150500Y-110989448D01*
X148134019Y-110885397D01*
X148122171Y-110810591D01*
X148066211Y-110638361D01*
X148066211Y-110638360D01*
X148037740Y-110582484D01*
X147983996Y-110477006D01*
X147970396Y-110458287D01*
X147877558Y-110330505D01*
X147877554Y-110330500D01*
X147749499Y-110202445D01*
X147749494Y-110202441D01*
X147602995Y-110096004D01*
X147471314Y-110028908D01*
X147420519Y-109980934D01*
X147403724Y-109913113D01*
X147426262Y-109846978D01*
X147480977Y-109803527D01*
X147489295Y-109800492D01*
X147518217Y-109791095D01*
X147707554Y-109694622D01*
X147761716Y-109655270D01*
X147761717Y-109655270D01*
X147129408Y-109022962D01*
X147192993Y-109005925D01*
X147307007Y-108940099D01*
X147400099Y-108847007D01*
X147465925Y-108732993D01*
X147482962Y-108669408D01*
X148115270Y-109301717D01*
X148115270Y-109301716D01*
X148154622Y-109247554D01*
X148251095Y-109058217D01*
X148316757Y-108856130D01*
X148316757Y-108856127D01*
X148350000Y-108646246D01*
X148350000Y-108433753D01*
X148316757Y-108223872D01*
X148316757Y-108223869D01*
X148251095Y-108021782D01*
X148154624Y-107832449D01*
X148115270Y-107778282D01*
X148115269Y-107778282D01*
X147482962Y-108410590D01*
X147465925Y-108347007D01*
X147400099Y-108232993D01*
X147307007Y-108139901D01*
X147192993Y-108074075D01*
X147129409Y-108057037D01*
X147761716Y-107424728D01*
X147707550Y-107385375D01*
X147706786Y-107384986D01*
X147706546Y-107384759D01*
X147703396Y-107382829D01*
X147703801Y-107382167D01*
X147655988Y-107337013D01*
X147639191Y-107269192D01*
X147661726Y-107203057D01*
X147716440Y-107159604D01*
X147763076Y-107150499D01*
X147894864Y-107150499D01*
X147894879Y-107150497D01*
X147894882Y-107150497D01*
X147919987Y-107147586D01*
X147919988Y-107147585D01*
X147919991Y-107147585D01*
X148022765Y-107102206D01*
X148102206Y-107022765D01*
X148147585Y-106919991D01*
X148147585Y-106919988D01*
X148150033Y-106910993D01*
X148153512Y-106911939D01*
X148173882Y-106863844D01*
X148231588Y-106824451D01*
X148301430Y-106822510D01*
X148357496Y-106854731D01*
G37*
%TD.AperFunction*%
%TA.AperFunction,Conductor*%
G36*
X146534075Y-108732993D02*
G01*
X146599901Y-108847007D01*
X146692993Y-108940099D01*
X146807007Y-109005925D01*
X146870590Y-109022962D01*
X146238282Y-109655269D01*
X146238282Y-109655270D01*
X146292449Y-109694624D01*
X146481780Y-109791094D01*
X146510705Y-109800492D01*
X146568381Y-109839929D01*
X146595580Y-109904287D01*
X146583667Y-109973134D01*
X146536424Y-110024610D01*
X146528685Y-110028908D01*
X146397004Y-110096004D01*
X146250505Y-110202441D01*
X146250500Y-110202445D01*
X146122445Y-110330500D01*
X146122441Y-110330505D01*
X146016006Y-110477002D01*
X145933788Y-110638360D01*
X145933787Y-110638363D01*
X145877829Y-110810589D01*
X145852473Y-110970678D01*
X145822544Y-111033813D01*
X145763232Y-111070744D01*
X145693369Y-111069746D01*
X145635137Y-111031136D01*
X145607527Y-110970678D01*
X145593740Y-110883639D01*
X145582171Y-110810591D01*
X145526211Y-110638361D01*
X145526211Y-110638360D01*
X145497740Y-110582484D01*
X145443996Y-110477006D01*
X145430396Y-110458287D01*
X145337558Y-110330505D01*
X145337554Y-110330500D01*
X145209499Y-110202445D01*
X145209494Y-110202441D01*
X145062995Y-110096004D01*
X144931314Y-110028908D01*
X144880519Y-109980934D01*
X144863724Y-109913113D01*
X144886262Y-109846978D01*
X144940977Y-109803527D01*
X144949295Y-109800492D01*
X144978217Y-109791095D01*
X145167554Y-109694622D01*
X145221716Y-109655270D01*
X145221717Y-109655270D01*
X144589408Y-109022962D01*
X144652993Y-109005925D01*
X144767007Y-108940099D01*
X144860099Y-108847007D01*
X144925925Y-108732993D01*
X144942962Y-108669409D01*
X145575270Y-109301717D01*
X145575270Y-109301716D01*
X145614622Y-109247554D01*
X145619514Y-109237954D01*
X145667488Y-109187157D01*
X145735308Y-109170361D01*
X145801444Y-109192897D01*
X145840486Y-109237954D01*
X145845375Y-109247550D01*
X145884728Y-109301716D01*
X146517037Y-108669408D01*
X146534075Y-108732993D01*
G37*
%TD.AperFunction*%
%TA.AperFunction,Conductor*%
G36*
X145762130Y-106038661D02*
G01*
X145820363Y-106077271D01*
X145848477Y-106141234D01*
X145849500Y-106157127D01*
X145849500Y-106894856D01*
X145849502Y-106894882D01*
X145852413Y-106919987D01*
X145852415Y-106919991D01*
X145897793Y-107022764D01*
X145897794Y-107022765D01*
X145977235Y-107102206D01*
X146080009Y-107147585D01*
X146105135Y-107150500D01*
X146236923Y-107150499D01*
X146303960Y-107170183D01*
X146349715Y-107222987D01*
X146359659Y-107292145D01*
X146330635Y-107355701D01*
X146296387Y-107382507D01*
X146296590Y-107382838D01*
X146293715Y-107384599D01*
X146293239Y-107384972D01*
X146292451Y-107385373D01*
X146292440Y-107385380D01*
X146238282Y-107424727D01*
X146238282Y-107424728D01*
X146870591Y-108057037D01*
X146807007Y-108074075D01*
X146692993Y-108139901D01*
X146599901Y-108232993D01*
X146534075Y-108347007D01*
X146517037Y-108410591D01*
X145884728Y-107778282D01*
X145884727Y-107778282D01*
X145845380Y-107832440D01*
X145840483Y-107842051D01*
X145792506Y-107892845D01*
X145724684Y-107909638D01*
X145658550Y-107887098D01*
X145619516Y-107842048D01*
X145614626Y-107832452D01*
X145575270Y-107778282D01*
X145575269Y-107778282D01*
X144942962Y-108410590D01*
X144925925Y-108347007D01*
X144860099Y-108232993D01*
X144767007Y-108139901D01*
X144652993Y-108074075D01*
X144589409Y-108057037D01*
X145221716Y-107424728D01*
X145167550Y-107385375D01*
X144978217Y-107288904D01*
X144949292Y-107279506D01*
X144891616Y-107240068D01*
X144864418Y-107175710D01*
X144876333Y-107106863D01*
X144923577Y-107055388D01*
X144931315Y-107051090D01*
X145062994Y-106983996D01*
X145209501Y-106877553D01*
X145337553Y-106749501D01*
X145443996Y-106602994D01*
X145526211Y-106441639D01*
X145582171Y-106269409D01*
X145603027Y-106137729D01*
X145632956Y-106074595D01*
X145692267Y-106037663D01*
X145762130Y-106038661D01*
G37*
%TD.AperFunction*%
%TA.AperFunction,Conductor*%
G36*
X172443039Y-100320185D02*
G01*
X172488794Y-100372989D01*
X172500000Y-100424500D01*
X172500000Y-130500000D01*
X187575500Y-130500000D01*
X187642539Y-130519685D01*
X187688294Y-130572489D01*
X187699500Y-130624000D01*
X187699500Y-153995572D01*
X187699184Y-154004418D01*
X187699184Y-154004419D01*
X187682833Y-154233019D01*
X187680315Y-154250530D01*
X187632544Y-154470133D01*
X187627560Y-154487109D01*
X187549016Y-154697691D01*
X187541666Y-154713783D01*
X187433961Y-154911032D01*
X187424396Y-154925917D01*
X187289708Y-155105838D01*
X187278123Y-155119207D01*
X187119208Y-155278122D01*
X187105838Y-155289708D01*
X186925917Y-155424396D01*
X186911032Y-155433961D01*
X186713783Y-155541666D01*
X186697691Y-155549016D01*
X186487109Y-155627560D01*
X186470136Y-155632543D01*
X186470133Y-155632544D01*
X186250530Y-155680315D01*
X186233019Y-155682833D01*
X186025320Y-155697688D01*
X186004417Y-155699184D01*
X185995572Y-155699500D01*
X102004428Y-155699500D01*
X101995582Y-155699184D01*
X101766982Y-155682834D01*
X101749470Y-155680316D01*
X101529862Y-155632543D01*
X101512887Y-155627559D01*
X101302311Y-155549019D01*
X101286217Y-155541669D01*
X101088963Y-155433959D01*
X101074080Y-155424394D01*
X100894163Y-155289710D01*
X100880792Y-155278124D01*
X100721875Y-155119207D01*
X100710289Y-155105836D01*
X100575605Y-154925919D01*
X100566040Y-154911036D01*
X100458330Y-154713782D01*
X100450983Y-154697694D01*
X100372437Y-154487103D01*
X100367458Y-154470144D01*
X100319683Y-154250529D01*
X100317165Y-154233017D01*
X100308959Y-154118284D01*
X100300816Y-154004418D01*
X100300500Y-153995572D01*
X100300500Y-152381995D01*
X182699500Y-152381995D01*
X182699500Y-152618004D01*
X182699501Y-152618020D01*
X182730306Y-152852010D01*
X182791394Y-153079993D01*
X182881714Y-153298045D01*
X182881719Y-153298056D01*
X182952677Y-153420957D01*
X182999727Y-153502450D01*
X182999729Y-153502453D01*
X182999730Y-153502454D01*
X183143406Y-153689697D01*
X183143412Y-153689704D01*
X183310295Y-153856587D01*
X183310301Y-153856592D01*
X183497550Y-154000273D01*
X183628918Y-154076118D01*
X183701943Y-154118280D01*
X183701948Y-154118282D01*
X183701951Y-154118284D01*
X183920007Y-154208606D01*
X184147986Y-154269693D01*
X184381989Y-154300500D01*
X184381996Y-154300500D01*
X184618004Y-154300500D01*
X184618011Y-154300500D01*
X184852014Y-154269693D01*
X185079993Y-154208606D01*
X185298049Y-154118284D01*
X185502450Y-154000273D01*
X185689699Y-153856592D01*
X185856592Y-153689699D01*
X186000273Y-153502450D01*
X186118284Y-153298049D01*
X186208606Y-153079993D01*
X186269693Y-152852014D01*
X186300500Y-152618011D01*
X186300500Y-152381989D01*
X186269693Y-152147986D01*
X186208606Y-151920007D01*
X186118284Y-151701951D01*
X186118282Y-151701948D01*
X186118280Y-151701943D01*
X186069474Y-151617409D01*
X186000273Y-151497550D01*
X185901415Y-151368716D01*
X185856593Y-151310302D01*
X185856587Y-151310295D01*
X185689704Y-151143412D01*
X185689697Y-151143406D01*
X185502454Y-150999730D01*
X185502453Y-150999729D01*
X185502450Y-150999727D01*
X185420957Y-150952677D01*
X185298056Y-150881719D01*
X185298045Y-150881714D01*
X185079993Y-150791394D01*
X184852010Y-150730306D01*
X184618020Y-150699501D01*
X184618017Y-150699500D01*
X184618011Y-150699500D01*
X184381989Y-150699500D01*
X184381983Y-150699500D01*
X184381979Y-150699501D01*
X184147989Y-150730306D01*
X183920006Y-150791394D01*
X183701954Y-150881714D01*
X183701943Y-150881719D01*
X183497545Y-150999730D01*
X183310302Y-151143406D01*
X183310295Y-151143412D01*
X183143412Y-151310295D01*
X183143406Y-151310302D01*
X182999730Y-151497545D01*
X182881719Y-151701943D01*
X182881714Y-151701954D01*
X182791394Y-151920006D01*
X182730306Y-152147989D01*
X182699501Y-152381979D01*
X182699500Y-152381995D01*
X100300500Y-152381995D01*
X100300500Y-118511054D01*
X100953498Y-118511054D01*
X100994423Y-118663785D01*
X101023358Y-118713900D01*
X101023359Y-118713904D01*
X101023360Y-118713904D01*
X101067608Y-118790546D01*
X101073479Y-118800714D01*
X101073481Y-118800717D01*
X101192349Y-118919585D01*
X101192355Y-118919590D01*
X103563083Y-121290318D01*
X103596568Y-121351641D01*
X103591584Y-121421333D01*
X103563083Y-121465680D01*
X102132286Y-122896478D01*
X102020481Y-123008282D01*
X102020475Y-123008290D01*
X101984499Y-123070604D01*
X101984499Y-123070605D01*
X101941424Y-123145211D01*
X101941423Y-123145212D01*
X101921864Y-123218209D01*
X101900499Y-123297943D01*
X101900499Y-123297945D01*
X101900499Y-123466046D01*
X101900500Y-123466059D01*
X101900500Y-149992479D01*
X101891855Y-150037968D01*
X101860122Y-150118436D01*
X101853485Y-150173713D01*
X101849500Y-150206898D01*
X101849500Y-151793102D01*
X101855126Y-151839954D01*
X101860122Y-151881561D01*
X101860122Y-151881563D01*
X101860123Y-151881564D01*
X101875283Y-151920006D01*
X101915639Y-152022343D01*
X102007077Y-152142922D01*
X102127656Y-152234360D01*
X102127657Y-152234360D01*
X102127658Y-152234361D01*
X102268436Y-152289877D01*
X102356898Y-152300500D01*
X102356903Y-152300500D01*
X103643097Y-152300500D01*
X103643102Y-152300500D01*
X103731564Y-152289877D01*
X103872342Y-152234361D01*
X103992922Y-152142922D01*
X104084361Y-152022342D01*
X104139877Y-151881564D01*
X104150500Y-151793102D01*
X104150500Y-151502669D01*
X104170185Y-151435630D01*
X104222989Y-151389875D01*
X104292147Y-151379931D01*
X104355703Y-151408956D01*
X104392431Y-151464351D01*
X104433787Y-151591636D01*
X104433788Y-151591639D01*
X104516006Y-151752997D01*
X104622441Y-151899494D01*
X104622445Y-151899499D01*
X104750500Y-152027554D01*
X104750505Y-152027558D01*
X104878287Y-152120396D01*
X104897006Y-152133996D01*
X105002484Y-152187740D01*
X105058360Y-152216211D01*
X105058363Y-152216212D01*
X105144476Y-152244191D01*
X105230591Y-152272171D01*
X105313429Y-152285291D01*
X105409449Y-152300500D01*
X105409454Y-152300500D01*
X105590551Y-152300500D01*
X105677259Y-152286765D01*
X105769409Y-152272171D01*
X105941639Y-152216211D01*
X106102994Y-152133996D01*
X106249501Y-152027553D01*
X106377553Y-151899501D01*
X106483996Y-151752994D01*
X106527198Y-151668204D01*
X106537647Y-151657140D01*
X106543970Y-151643297D01*
X106561150Y-151632255D01*
X106575173Y-151617409D01*
X106590852Y-151613167D01*
X106602748Y-151605523D01*
X106637683Y-151600500D01*
X106864787Y-151600500D01*
X106865013Y-151600514D01*
X106873044Y-151600512D01*
X106873049Y-151600514D01*
X106955034Y-151600500D01*
X107031057Y-151600500D01*
X107031064Y-151600497D01*
X107031143Y-151600487D01*
X107031163Y-151600487D01*
X107100577Y-151581873D01*
X107110612Y-151579183D01*
X107110612Y-151579185D01*
X107110628Y-151579178D01*
X107183784Y-151559577D01*
X107183796Y-151559569D01*
X107183865Y-151559540D01*
X107183884Y-151559536D01*
X107183903Y-151559524D01*
X107183909Y-151559522D01*
X107251948Y-151520222D01*
X107251953Y-151520219D01*
X107320716Y-151480520D01*
X107320719Y-151480516D01*
X107320751Y-151480498D01*
X107320763Y-151480489D01*
X107320794Y-151480457D01*
X107320801Y-151480454D01*
X107374526Y-151426709D01*
X107374528Y-151426707D01*
X107374531Y-151426710D01*
X107374542Y-151426692D01*
X107432520Y-151368716D01*
X107432520Y-151368715D01*
X107438255Y-151362981D01*
X107438416Y-151362796D01*
X108593906Y-150206898D01*
X110449500Y-150206898D01*
X110449500Y-151793102D01*
X110455126Y-151839954D01*
X110460122Y-151881561D01*
X110460122Y-151881563D01*
X110460123Y-151881564D01*
X110475283Y-151920006D01*
X110515639Y-152022343D01*
X110607077Y-152142922D01*
X110727656Y-152234360D01*
X110727657Y-152234360D01*
X110727658Y-152234361D01*
X110868436Y-152289877D01*
X110956898Y-152300500D01*
X110956903Y-152300500D01*
X112243097Y-152300500D01*
X112243102Y-152300500D01*
X112331564Y-152289877D01*
X112472342Y-152234361D01*
X112592922Y-152142922D01*
X112684361Y-152022342D01*
X112739877Y-151881564D01*
X112750500Y-151793102D01*
X112750500Y-151502669D01*
X112770185Y-151435630D01*
X112822989Y-151389875D01*
X112892147Y-151379931D01*
X112955703Y-151408956D01*
X112992431Y-151464351D01*
X113033787Y-151591636D01*
X113033788Y-151591639D01*
X113116006Y-151752997D01*
X113222441Y-151899494D01*
X113222445Y-151899499D01*
X113350500Y-152027554D01*
X113350505Y-152027558D01*
X113478287Y-152120396D01*
X113497006Y-152133996D01*
X113602484Y-152187740D01*
X113658360Y-152216211D01*
X113658363Y-152216212D01*
X113744476Y-152244191D01*
X113830591Y-152272171D01*
X113913429Y-152285291D01*
X114009449Y-152300500D01*
X114009454Y-152300500D01*
X114190551Y-152300500D01*
X114277259Y-152286765D01*
X114369409Y-152272171D01*
X114541639Y-152216211D01*
X114702994Y-152133996D01*
X114849501Y-152027553D01*
X114977553Y-151899501D01*
X115083996Y-151752994D01*
X115166211Y-151591639D01*
X115222171Y-151419409D01*
X115239453Y-151310295D01*
X115250500Y-151240551D01*
X115250500Y-150759448D01*
X115226608Y-150608608D01*
X115222171Y-150580591D01*
X115166211Y-150408361D01*
X115166211Y-150408360D01*
X115128738Y-150334817D01*
X115083996Y-150247006D01*
X115001580Y-150133569D01*
X114977558Y-150100505D01*
X114977554Y-150100500D01*
X114849499Y-149972445D01*
X114849494Y-149972441D01*
X114702997Y-149866006D01*
X114702996Y-149866005D01*
X114702994Y-149866004D01*
X114651300Y-149839664D01*
X114541639Y-149783788D01*
X114541636Y-149783787D01*
X114369410Y-149727829D01*
X114190551Y-149699500D01*
X114190546Y-149699500D01*
X114009454Y-149699500D01*
X114009449Y-149699500D01*
X113830589Y-149727829D01*
X113786982Y-149741998D01*
X113717141Y-149743993D01*
X113660983Y-149711748D01*
X113206135Y-149256900D01*
X117949500Y-149256900D01*
X117949500Y-151543091D01*
X117960123Y-151631562D01*
X118015639Y-151772342D01*
X118015640Y-151772344D01*
X118107077Y-151892922D01*
X118155417Y-151929579D01*
X118227658Y-151984361D01*
X118368436Y-152039876D01*
X118456901Y-152050500D01*
X120743098Y-152050499D01*
X120831564Y-152039876D01*
X120972342Y-151984361D01*
X121092922Y-151892922D01*
X121184361Y-151772342D01*
X121239876Y-151631564D01*
X121250500Y-151543099D01*
X121250499Y-150270097D01*
X121909500Y-150270097D01*
X121909500Y-150529902D01*
X121950140Y-150786493D01*
X122030422Y-151033576D01*
X122148368Y-151265054D01*
X122181242Y-151310301D01*
X122301069Y-151475229D01*
X122484771Y-151658931D01*
X122694949Y-151811634D01*
X122832188Y-151881561D01*
X122926423Y-151929577D01*
X122926425Y-151929577D01*
X122926428Y-151929579D01*
X123173507Y-152009860D01*
X123305706Y-152030797D01*
X123430098Y-152050500D01*
X123430103Y-152050500D01*
X123689902Y-152050500D01*
X123803298Y-152032539D01*
X123946493Y-152009860D01*
X124193572Y-151929579D01*
X124425051Y-151811634D01*
X124635229Y-151658931D01*
X124818931Y-151475229D01*
X124971634Y-151265051D01*
X125089579Y-151033572D01*
X125169860Y-150786493D01*
X125202471Y-150580591D01*
X125210500Y-150529902D01*
X125210500Y-150270097D01*
X125183638Y-150100499D01*
X125169860Y-150013507D01*
X125089579Y-149766428D01*
X125089577Y-149766425D01*
X125089577Y-149766423D01*
X124986514Y-149564153D01*
X124971634Y-149534949D01*
X124818931Y-149324771D01*
X124751060Y-149256900D01*
X128349500Y-149256900D01*
X128349500Y-151543091D01*
X128360123Y-151631562D01*
X128415639Y-151772342D01*
X128415640Y-151772344D01*
X128507077Y-151892922D01*
X128555417Y-151929579D01*
X128627658Y-151984361D01*
X128768436Y-152039876D01*
X128856901Y-152050500D01*
X131143098Y-152050499D01*
X131231564Y-152039876D01*
X131372342Y-151984361D01*
X131492922Y-151892922D01*
X131584361Y-151772342D01*
X131639876Y-151631564D01*
X131650500Y-151543099D01*
X131650499Y-150270097D01*
X132309500Y-150270097D01*
X132309500Y-150529902D01*
X132350140Y-150786493D01*
X132430422Y-151033576D01*
X132548368Y-151265054D01*
X132581242Y-151310301D01*
X132701069Y-151475229D01*
X132884771Y-151658931D01*
X133094949Y-151811634D01*
X133232188Y-151881561D01*
X133326423Y-151929577D01*
X133326425Y-151929577D01*
X133326428Y-151929579D01*
X133573507Y-152009860D01*
X133705706Y-152030797D01*
X133830098Y-152050500D01*
X133830103Y-152050500D01*
X134089902Y-152050500D01*
X134203298Y-152032539D01*
X134346493Y-152009860D01*
X134593572Y-151929579D01*
X134825051Y-151811634D01*
X135035229Y-151658931D01*
X135218931Y-151475229D01*
X135371634Y-151265051D01*
X135489579Y-151033572D01*
X135569860Y-150786493D01*
X135602471Y-150580591D01*
X135610500Y-150529902D01*
X135610500Y-150270097D01*
X136269500Y-150270097D01*
X136269500Y-150529902D01*
X136310140Y-150786493D01*
X136390422Y-151033576D01*
X136508368Y-151265054D01*
X136541242Y-151310301D01*
X136661069Y-151475229D01*
X136844771Y-151658931D01*
X137054949Y-151811634D01*
X137192188Y-151881561D01*
X137286423Y-151929577D01*
X137286425Y-151929577D01*
X137286428Y-151929579D01*
X137533507Y-152009860D01*
X137665706Y-152030797D01*
X137790098Y-152050500D01*
X137790103Y-152050500D01*
X138049902Y-152050500D01*
X138163298Y-152032539D01*
X138306493Y-152009860D01*
X138553572Y-151929579D01*
X138785051Y-151811634D01*
X138995229Y-151658931D01*
X139178931Y-151475229D01*
X139331634Y-151265051D01*
X139449579Y-151033572D01*
X139529860Y-150786493D01*
X139562471Y-150580591D01*
X139570500Y-150529902D01*
X139570500Y-150270097D01*
X140229500Y-150270097D01*
X140229500Y-150529902D01*
X140270140Y-150786493D01*
X140350422Y-151033576D01*
X140468368Y-151265054D01*
X140501242Y-151310301D01*
X140621069Y-151475229D01*
X140804771Y-151658931D01*
X141014949Y-151811634D01*
X141152188Y-151881561D01*
X141246423Y-151929577D01*
X141246425Y-151929577D01*
X141246428Y-151929579D01*
X141493507Y-152009860D01*
X141625706Y-152030797D01*
X141750098Y-152050500D01*
X141750103Y-152050500D01*
X142009902Y-152050500D01*
X142123298Y-152032539D01*
X142266493Y-152009860D01*
X142513572Y-151929579D01*
X142745051Y-151811634D01*
X142955229Y-151658931D01*
X143138931Y-151475229D01*
X143291634Y-151265051D01*
X143409579Y-151033572D01*
X143489860Y-150786493D01*
X143522471Y-150580591D01*
X143530500Y-150529902D01*
X143530500Y-150270097D01*
X143503638Y-150100499D01*
X143489860Y-150013507D01*
X143409579Y-149766428D01*
X143409577Y-149766425D01*
X143409577Y-149766423D01*
X143306514Y-149564153D01*
X143291634Y-149534949D01*
X143138931Y-149324771D01*
X143071060Y-149256900D01*
X146349500Y-149256900D01*
X146349500Y-151543091D01*
X146360123Y-151631562D01*
X146415639Y-151772342D01*
X146415640Y-151772344D01*
X146507077Y-151892922D01*
X146555417Y-151929579D01*
X146627658Y-151984361D01*
X146768436Y-152039876D01*
X146856901Y-152050500D01*
X149143098Y-152050499D01*
X149231564Y-152039876D01*
X149372342Y-151984361D01*
X149492922Y-151892922D01*
X149584361Y-151772342D01*
X149639876Y-151631564D01*
X149650500Y-151543099D01*
X149650499Y-150270097D01*
X150309500Y-150270097D01*
X150309500Y-150529902D01*
X150350140Y-150786493D01*
X150430422Y-151033576D01*
X150548368Y-151265054D01*
X150581242Y-151310301D01*
X150701069Y-151475229D01*
X150884771Y-151658931D01*
X151094949Y-151811634D01*
X151232188Y-151881561D01*
X151326423Y-151929577D01*
X151326425Y-151929577D01*
X151326428Y-151929579D01*
X151573507Y-152009860D01*
X151705706Y-152030797D01*
X151830098Y-152050500D01*
X151830103Y-152050500D01*
X152089902Y-152050500D01*
X152203298Y-152032539D01*
X152346493Y-152009860D01*
X152593572Y-151929579D01*
X152825051Y-151811634D01*
X153035229Y-151658931D01*
X153218931Y-151475229D01*
X153371634Y-151265051D01*
X153489579Y-151033572D01*
X153569860Y-150786493D01*
X153602471Y-150580591D01*
X153610500Y-150529902D01*
X153610500Y-150270097D01*
X154269500Y-150270097D01*
X154269500Y-150529902D01*
X154310140Y-150786493D01*
X154390422Y-151033576D01*
X154508368Y-151265054D01*
X154541242Y-151310301D01*
X154661069Y-151475229D01*
X154844771Y-151658931D01*
X155054949Y-151811634D01*
X155192188Y-151881561D01*
X155286423Y-151929577D01*
X155286425Y-151929577D01*
X155286428Y-151929579D01*
X155533507Y-152009860D01*
X155665706Y-152030797D01*
X155790098Y-152050500D01*
X155790103Y-152050500D01*
X156049902Y-152050500D01*
X156163298Y-152032539D01*
X156306493Y-152009860D01*
X156553572Y-151929579D01*
X156785051Y-151811634D01*
X156995229Y-151658931D01*
X157178931Y-151475229D01*
X157331634Y-151265051D01*
X157449579Y-151033572D01*
X157529860Y-150786493D01*
X157562471Y-150580591D01*
X157570500Y-150529902D01*
X157570500Y-150270097D01*
X158229500Y-150270097D01*
X158229500Y-150529902D01*
X158270140Y-150786493D01*
X158350422Y-151033576D01*
X158468368Y-151265054D01*
X158501242Y-151310301D01*
X158621069Y-151475229D01*
X158804771Y-151658931D01*
X159014949Y-151811634D01*
X159152188Y-151881561D01*
X159246423Y-151929577D01*
X159246425Y-151929577D01*
X159246428Y-151929579D01*
X159493507Y-152009860D01*
X159625706Y-152030797D01*
X159750098Y-152050500D01*
X159750103Y-152050500D01*
X160009902Y-152050500D01*
X160123298Y-152032539D01*
X160266493Y-152009860D01*
X160513572Y-151929579D01*
X160745051Y-151811634D01*
X160955229Y-151658931D01*
X161138931Y-151475229D01*
X161291634Y-151265051D01*
X161409579Y-151033572D01*
X161489860Y-150786493D01*
X161522471Y-150580591D01*
X161530500Y-150529902D01*
X161530500Y-150270097D01*
X161503638Y-150100499D01*
X161489860Y-150013507D01*
X161409579Y-149766428D01*
X161409577Y-149766425D01*
X161409577Y-149766423D01*
X161338542Y-149627011D01*
X161291634Y-149534949D01*
X161138931Y-149324771D01*
X160955229Y-149141069D01*
X160745051Y-148988366D01*
X160672764Y-148951534D01*
X160513576Y-148870422D01*
X160266493Y-148790140D01*
X160009902Y-148749500D01*
X160009897Y-148749500D01*
X159750103Y-148749500D01*
X159750098Y-148749500D01*
X159493506Y-148790140D01*
X159246423Y-148870422D01*
X159014945Y-148988368D01*
X158804774Y-149141066D01*
X158804768Y-149141071D01*
X158621071Y-149324768D01*
X158621066Y-149324774D01*
X158468368Y-149534945D01*
X158350422Y-149766423D01*
X158270140Y-150013506D01*
X158229500Y-150270097D01*
X157570500Y-150270097D01*
X157543638Y-150100499D01*
X157529860Y-150013507D01*
X157449579Y-149766428D01*
X157449577Y-149766425D01*
X157449577Y-149766423D01*
X157378542Y-149627011D01*
X157331634Y-149534949D01*
X157178931Y-149324771D01*
X156995229Y-149141069D01*
X156785051Y-148988366D01*
X156712764Y-148951534D01*
X156553576Y-148870422D01*
X156306493Y-148790140D01*
X156049902Y-148749500D01*
X156049897Y-148749500D01*
X155790103Y-148749500D01*
X155790098Y-148749500D01*
X155533506Y-148790140D01*
X155286423Y-148870422D01*
X155054945Y-148988368D01*
X154844774Y-149141066D01*
X154844768Y-149141071D01*
X154661071Y-149324768D01*
X154661066Y-149324774D01*
X154508368Y-149534945D01*
X154390422Y-149766423D01*
X154310140Y-150013506D01*
X154269500Y-150270097D01*
X153610500Y-150270097D01*
X153583638Y-150100499D01*
X153569860Y-150013507D01*
X153489579Y-149766428D01*
X153489577Y-149766425D01*
X153489577Y-149766423D01*
X153418542Y-149627011D01*
X153371634Y-149534949D01*
X153218931Y-149324771D01*
X153035229Y-149141069D01*
X152825051Y-148988366D01*
X152752764Y-148951534D01*
X152593576Y-148870422D01*
X152346493Y-148790140D01*
X152089902Y-148749500D01*
X152089897Y-148749500D01*
X151830103Y-148749500D01*
X151830098Y-148749500D01*
X151573506Y-148790140D01*
X151326423Y-148870422D01*
X151094945Y-148988368D01*
X150884774Y-149141066D01*
X150884768Y-149141071D01*
X150701071Y-149324768D01*
X150701066Y-149324774D01*
X150548368Y-149534945D01*
X150430422Y-149766423D01*
X150350140Y-150013506D01*
X150309500Y-150270097D01*
X149650499Y-150270097D01*
X149650499Y-149256902D01*
X149639876Y-149168436D01*
X149584361Y-149027658D01*
X149584359Y-149027655D01*
X149492922Y-148907077D01*
X149372344Y-148815640D01*
X149372342Y-148815639D01*
X149231564Y-148760124D01*
X149231561Y-148760123D01*
X149143099Y-148749500D01*
X146856908Y-148749500D01*
X146768437Y-148760123D01*
X146627657Y-148815639D01*
X146627655Y-148815640D01*
X146507077Y-148907077D01*
X146415640Y-149027655D01*
X146415639Y-149027658D01*
X146370916Y-149141071D01*
X146360124Y-149168437D01*
X146360123Y-149168438D01*
X146349500Y-149256900D01*
X143071060Y-149256900D01*
X142955229Y-149141069D01*
X142745051Y-148988366D01*
X142672764Y-148951534D01*
X142513576Y-148870422D01*
X142266493Y-148790140D01*
X142009902Y-148749500D01*
X142009897Y-148749500D01*
X141750103Y-148749500D01*
X141750098Y-148749500D01*
X141493506Y-148790140D01*
X141246423Y-148870422D01*
X141014945Y-148988368D01*
X140804774Y-149141066D01*
X140804768Y-149141071D01*
X140621071Y-149324768D01*
X140621066Y-149324774D01*
X140468368Y-149534945D01*
X140350422Y-149766423D01*
X140270140Y-150013506D01*
X140229500Y-150270097D01*
X139570500Y-150270097D01*
X139543638Y-150100499D01*
X139529860Y-150013507D01*
X139449579Y-149766428D01*
X139449577Y-149766425D01*
X139449577Y-149766423D01*
X139378542Y-149627011D01*
X139331634Y-149534949D01*
X139178931Y-149324771D01*
X138995229Y-149141069D01*
X138785051Y-148988366D01*
X138712764Y-148951534D01*
X138553576Y-148870422D01*
X138306493Y-148790140D01*
X138049902Y-148749500D01*
X138049897Y-148749500D01*
X137790103Y-148749500D01*
X137790098Y-148749500D01*
X137533506Y-148790140D01*
X137286423Y-148870422D01*
X137054945Y-148988368D01*
X136844774Y-149141066D01*
X136844768Y-149141071D01*
X136661071Y-149324768D01*
X136661066Y-149324774D01*
X136508368Y-149534945D01*
X136390422Y-149766423D01*
X136310140Y-150013506D01*
X136269500Y-150270097D01*
X135610500Y-150270097D01*
X135583638Y-150100499D01*
X135569860Y-150013507D01*
X135489579Y-149766428D01*
X135489577Y-149766425D01*
X135489577Y-149766423D01*
X135418542Y-149627011D01*
X135371634Y-149534949D01*
X135218931Y-149324771D01*
X135035229Y-149141069D01*
X134825051Y-148988366D01*
X134752764Y-148951534D01*
X134593576Y-148870422D01*
X134346493Y-148790140D01*
X134089902Y-148749500D01*
X134089897Y-148749500D01*
X133830103Y-148749500D01*
X133830098Y-148749500D01*
X133573506Y-148790140D01*
X133326423Y-148870422D01*
X133094945Y-148988368D01*
X132884774Y-149141066D01*
X132884768Y-149141071D01*
X132701071Y-149324768D01*
X132701066Y-149324774D01*
X132548368Y-149534945D01*
X132430422Y-149766423D01*
X132350140Y-150013506D01*
X132309500Y-150270097D01*
X131650499Y-150270097D01*
X131650499Y-149256902D01*
X131639876Y-149168436D01*
X131584361Y-149027658D01*
X131584359Y-149027655D01*
X131492922Y-148907077D01*
X131372344Y-148815640D01*
X131372342Y-148815639D01*
X131231564Y-148760124D01*
X131231561Y-148760123D01*
X131143099Y-148749500D01*
X128856908Y-148749500D01*
X128768437Y-148760123D01*
X128627657Y-148815639D01*
X128627655Y-148815640D01*
X128507077Y-148907077D01*
X128415640Y-149027655D01*
X128415639Y-149027658D01*
X128370916Y-149141071D01*
X128360124Y-149168437D01*
X128360123Y-149168438D01*
X128349500Y-149256900D01*
X124751060Y-149256900D01*
X124635229Y-149141069D01*
X124425051Y-148988366D01*
X124352764Y-148951534D01*
X124193576Y-148870422D01*
X123946493Y-148790140D01*
X123689902Y-148749500D01*
X123689897Y-148749500D01*
X123430103Y-148749500D01*
X123430098Y-148749500D01*
X123173506Y-148790140D01*
X122926423Y-148870422D01*
X122694945Y-148988368D01*
X122484774Y-149141066D01*
X122484768Y-149141071D01*
X122301071Y-149324768D01*
X122301066Y-149324774D01*
X122148368Y-149534945D01*
X122030422Y-149766423D01*
X121950140Y-150013506D01*
X121909500Y-150270097D01*
X121250499Y-150270097D01*
X121250499Y-149256902D01*
X121239876Y-149168436D01*
X121184361Y-149027658D01*
X121184359Y-149027655D01*
X121092922Y-148907077D01*
X120972344Y-148815640D01*
X120972342Y-148815639D01*
X120831564Y-148760124D01*
X120831561Y-148760123D01*
X120743099Y-148749500D01*
X118456908Y-148749500D01*
X118368437Y-148760123D01*
X118227657Y-148815639D01*
X118227655Y-148815640D01*
X118107077Y-148907077D01*
X118015640Y-149027655D01*
X118015639Y-149027658D01*
X117970916Y-149141071D01*
X117960124Y-149168437D01*
X117960123Y-149168438D01*
X117949500Y-149256900D01*
X113206135Y-149256900D01*
X112580819Y-148631584D01*
X112547334Y-148570261D01*
X112544500Y-148543903D01*
X112544500Y-145289054D01*
X160750498Y-145289054D01*
X160791422Y-145441783D01*
X160817304Y-145486611D01*
X160817306Y-145486614D01*
X160870479Y-145578714D01*
X160870481Y-145578717D01*
X160989349Y-145697585D01*
X160989355Y-145697590D01*
X165322870Y-150031106D01*
X165356355Y-150092429D01*
X165358305Y-150133569D01*
X165352946Y-150178195D01*
X165349500Y-150206898D01*
X165349500Y-151793102D01*
X165355126Y-151839954D01*
X165360122Y-151881561D01*
X165360122Y-151881563D01*
X165360123Y-151881564D01*
X165375283Y-151920006D01*
X165415639Y-152022343D01*
X165507077Y-152142922D01*
X165627656Y-152234360D01*
X165627657Y-152234360D01*
X165627658Y-152234361D01*
X165768436Y-152289877D01*
X165856898Y-152300500D01*
X165856903Y-152300500D01*
X167143097Y-152300500D01*
X167143102Y-152300500D01*
X167231564Y-152289877D01*
X167372342Y-152234361D01*
X167492922Y-152142922D01*
X167584361Y-152022342D01*
X167639877Y-151881564D01*
X167650500Y-151793102D01*
X167650500Y-151502669D01*
X167670185Y-151435630D01*
X167722989Y-151389875D01*
X167792147Y-151379931D01*
X167855703Y-151408956D01*
X167892431Y-151464351D01*
X167933787Y-151591636D01*
X167933788Y-151591639D01*
X168016006Y-151752997D01*
X168122441Y-151899494D01*
X168122445Y-151899499D01*
X168250500Y-152027554D01*
X168250505Y-152027558D01*
X168378287Y-152120396D01*
X168397006Y-152133996D01*
X168502484Y-152187740D01*
X168558360Y-152216211D01*
X168558363Y-152216212D01*
X168644476Y-152244191D01*
X168730591Y-152272171D01*
X168813429Y-152285291D01*
X168909449Y-152300500D01*
X168909454Y-152300500D01*
X169090551Y-152300500D01*
X169177259Y-152286765D01*
X169269409Y-152272171D01*
X169296265Y-152263444D01*
X169306872Y-152259999D01*
X169306872Y-152259998D01*
X169441639Y-152216211D01*
X169602994Y-152133996D01*
X169749501Y-152027553D01*
X169877553Y-151899501D01*
X169983996Y-151752994D01*
X170027198Y-151668204D01*
X170037647Y-151657140D01*
X170043970Y-151643297D01*
X170061150Y-151632255D01*
X170075173Y-151617409D01*
X170090852Y-151613167D01*
X170102748Y-151605523D01*
X170137683Y-151600500D01*
X170264747Y-151600500D01*
X170264913Y-151600510D01*
X170273010Y-151600509D01*
X170273014Y-151600510D01*
X170356232Y-151600500D01*
X170431057Y-151600500D01*
X170431059Y-151600499D01*
X170431121Y-151600491D01*
X170431129Y-151600491D01*
X170485444Y-151585929D01*
X170508411Y-151579773D01*
X170508417Y-151579770D01*
X170583784Y-151559577D01*
X170583790Y-151559573D01*
X170583840Y-151559551D01*
X170583851Y-151559549D01*
X170648574Y-151522171D01*
X170720716Y-151480520D01*
X170720719Y-151480516D01*
X170720746Y-151480501D01*
X170720770Y-151480476D01*
X170720773Y-151480475D01*
X170771191Y-151430044D01*
X170832520Y-151368716D01*
X170832521Y-151368713D01*
X170838772Y-151362463D01*
X170838875Y-151362342D01*
X174972741Y-147227494D01*
X174972742Y-147227495D01*
X174972748Y-147227486D01*
X175031026Y-147169209D01*
X175031526Y-147168719D01*
X175031528Y-147168717D01*
X175031560Y-147168661D01*
X175031563Y-147168659D01*
X175069186Y-147103473D01*
X175069194Y-147103466D01*
X175069192Y-147103465D01*
X175082268Y-147080815D01*
X175110577Y-147031784D01*
X175110578Y-147031777D01*
X175110595Y-147031749D01*
X175110602Y-147031719D01*
X175110604Y-147031718D01*
X175131381Y-146954140D01*
X175151500Y-146879057D01*
X175151500Y-146879052D01*
X175151508Y-146878991D01*
X175151510Y-146878986D01*
X175151500Y-146795767D01*
X175151500Y-139381995D01*
X182699500Y-139381995D01*
X182699500Y-139618004D01*
X182699501Y-139618020D01*
X182730306Y-139852010D01*
X182791394Y-140079993D01*
X182881714Y-140298045D01*
X182881719Y-140298056D01*
X182952677Y-140420957D01*
X182999727Y-140502450D01*
X182999729Y-140502453D01*
X182999730Y-140502454D01*
X183143406Y-140689697D01*
X183143412Y-140689704D01*
X183310295Y-140856587D01*
X183310301Y-140856592D01*
X183497550Y-141000273D01*
X183628918Y-141076118D01*
X183701943Y-141118280D01*
X183701948Y-141118282D01*
X183701951Y-141118284D01*
X183920007Y-141208606D01*
X184147986Y-141269693D01*
X184381989Y-141300500D01*
X184381996Y-141300500D01*
X184618004Y-141300500D01*
X184618011Y-141300500D01*
X184852014Y-141269693D01*
X185079993Y-141208606D01*
X185298049Y-141118284D01*
X185502450Y-141000273D01*
X185689699Y-140856592D01*
X185856592Y-140689699D01*
X186000273Y-140502450D01*
X186118284Y-140298049D01*
X186208606Y-140079993D01*
X186269693Y-139852014D01*
X186300500Y-139618011D01*
X186300500Y-139381989D01*
X186269693Y-139147986D01*
X186208606Y-138920007D01*
X186118284Y-138701951D01*
X186118282Y-138701948D01*
X186118280Y-138701943D01*
X186048942Y-138581847D01*
X186000273Y-138497550D01*
X185941001Y-138420306D01*
X185856593Y-138310302D01*
X185856587Y-138310295D01*
X185689704Y-138143412D01*
X185689697Y-138143406D01*
X185502454Y-137999730D01*
X185502453Y-137999729D01*
X185502450Y-137999727D01*
X185365996Y-137920945D01*
X185298056Y-137881719D01*
X185298045Y-137881714D01*
X185079993Y-137791394D01*
X184852010Y-137730306D01*
X184618020Y-137699501D01*
X184618017Y-137699500D01*
X184618011Y-137699500D01*
X184381989Y-137699500D01*
X184381983Y-137699500D01*
X184381979Y-137699501D01*
X184147989Y-137730306D01*
X183920006Y-137791394D01*
X183701954Y-137881714D01*
X183701943Y-137881719D01*
X183497545Y-137999730D01*
X183310302Y-138143406D01*
X183310295Y-138143412D01*
X183143412Y-138310295D01*
X183143406Y-138310302D01*
X182999730Y-138497545D01*
X182881719Y-138701943D01*
X182881714Y-138701954D01*
X182791394Y-138920006D01*
X182730306Y-139147989D01*
X182699501Y-139381979D01*
X182699500Y-139381995D01*
X175151500Y-139381995D01*
X175151500Y-137920943D01*
X175110577Y-137768216D01*
X175110573Y-137768209D01*
X175031524Y-137631290D01*
X175031518Y-137631282D01*
X174919717Y-137519481D01*
X174919709Y-137519475D01*
X174782790Y-137440426D01*
X174782786Y-137440424D01*
X174782784Y-137440423D01*
X174630057Y-137399500D01*
X174471943Y-137399500D01*
X174319216Y-137440423D01*
X174319209Y-137440426D01*
X174182290Y-137519475D01*
X174182282Y-137519481D01*
X174070481Y-137631282D01*
X174070475Y-137631290D01*
X173991426Y-137768209D01*
X173991423Y-137768216D01*
X173950500Y-137920943D01*
X173950500Y-146499951D01*
X173930815Y-146566990D01*
X173914192Y-146587622D01*
X170196398Y-150306301D01*
X170135079Y-150339793D01*
X170065386Y-150334817D01*
X170009448Y-150292952D01*
X169998221Y-150274924D01*
X169983995Y-150247004D01*
X169877558Y-150100505D01*
X169877554Y-150100500D01*
X169749499Y-149972445D01*
X169749494Y-149972441D01*
X169602997Y-149866006D01*
X169602996Y-149866005D01*
X169602994Y-149866004D01*
X169551300Y-149839664D01*
X169441639Y-149783788D01*
X169441636Y-149783787D01*
X169269410Y-149727829D01*
X169090551Y-149699500D01*
X169090546Y-149699500D01*
X168909454Y-149699500D01*
X168909449Y-149699500D01*
X168730589Y-149727829D01*
X168558363Y-149783787D01*
X168558360Y-149783788D01*
X168397002Y-149866006D01*
X168250505Y-149972441D01*
X168250500Y-149972445D01*
X168122445Y-150100500D01*
X168122441Y-150100505D01*
X168016006Y-150247002D01*
X167933788Y-150408360D01*
X167933787Y-150408363D01*
X167892431Y-150535648D01*
X167852994Y-150593323D01*
X167788635Y-150620522D01*
X167719789Y-150608608D01*
X167668313Y-150561364D01*
X167650500Y-150497330D01*
X167650500Y-150206903D01*
X167650500Y-150206902D01*
X167650500Y-150206898D01*
X167639877Y-150118436D01*
X167584361Y-149977658D01*
X167584360Y-149977657D01*
X167584360Y-149977656D01*
X167492922Y-149857077D01*
X167372343Y-149765639D01*
X167238819Y-149712984D01*
X167231564Y-149710123D01*
X167231563Y-149710122D01*
X167231561Y-149710122D01*
X167185926Y-149704642D01*
X167143102Y-149699500D01*
X167143097Y-149699500D01*
X166741098Y-149699500D01*
X166674059Y-149679815D01*
X166653417Y-149663181D01*
X161838590Y-144848355D01*
X161838588Y-144848352D01*
X161719717Y-144729481D01*
X161719716Y-144729480D01*
X161632904Y-144679360D01*
X161632904Y-144679359D01*
X161632900Y-144679358D01*
X161582785Y-144650423D01*
X161430057Y-144609499D01*
X161271943Y-144609499D01*
X161164587Y-144638265D01*
X161119210Y-144650424D01*
X161119209Y-144650425D01*
X161069096Y-144679359D01*
X161069095Y-144679360D01*
X161025689Y-144704420D01*
X160982285Y-144729479D01*
X160982282Y-144729481D01*
X160870481Y-144841282D01*
X160870479Y-144841285D01*
X160820361Y-144928094D01*
X160820359Y-144928096D01*
X160791425Y-144978209D01*
X160791424Y-144978210D01*
X160791423Y-144978215D01*
X160750499Y-145130943D01*
X160750499Y-145130945D01*
X160750499Y-145289054D01*
X160750498Y-145289054D01*
X112544500Y-145289054D01*
X112544500Y-137889205D01*
X128909500Y-137889205D01*
X128909500Y-138110794D01*
X128909501Y-138110810D01*
X128938424Y-138330504D01*
X128995780Y-138544559D01*
X129080581Y-138749286D01*
X129080585Y-138749296D01*
X129191384Y-138941206D01*
X129326286Y-139117014D01*
X129326292Y-139117021D01*
X129482978Y-139273707D01*
X129482985Y-139273713D01*
X129658793Y-139408615D01*
X129850703Y-139519414D01*
X129850704Y-139519414D01*
X129850707Y-139519416D01*
X130055441Y-139604220D01*
X130269492Y-139661575D01*
X130489199Y-139690500D01*
X130489206Y-139690500D01*
X130710794Y-139690500D01*
X130710801Y-139690500D01*
X130930508Y-139661575D01*
X131144559Y-139604220D01*
X131349293Y-139519416D01*
X131541207Y-139408615D01*
X131717016Y-139273712D01*
X131873712Y-139117016D01*
X132008615Y-138941207D01*
X132119416Y-138749293D01*
X132185439Y-138589899D01*
X132229280Y-138535496D01*
X132295574Y-138513431D01*
X132363273Y-138530710D01*
X132410884Y-138581847D01*
X132414561Y-138589900D01*
X132480578Y-138749281D01*
X132480585Y-138749296D01*
X132591384Y-138941206D01*
X132726286Y-139117014D01*
X132726292Y-139117021D01*
X132882978Y-139273707D01*
X132882985Y-139273713D01*
X133058793Y-139408615D01*
X133250703Y-139519414D01*
X133250704Y-139519414D01*
X133250707Y-139519416D01*
X133455441Y-139604220D01*
X133669492Y-139661575D01*
X133889199Y-139690500D01*
X133889206Y-139690500D01*
X134110794Y-139690500D01*
X134110801Y-139690500D01*
X134330508Y-139661575D01*
X134544559Y-139604220D01*
X134749293Y-139519416D01*
X134941207Y-139408615D01*
X135117016Y-139273712D01*
X135273712Y-139117016D01*
X135408615Y-138941207D01*
X135519416Y-138749293D01*
X135604220Y-138544559D01*
X135661575Y-138330508D01*
X135690500Y-138110801D01*
X135690500Y-137889199D01*
X135661575Y-137669492D01*
X135604220Y-137455441D01*
X135519416Y-137250707D01*
X135469945Y-137165021D01*
X135408615Y-137058793D01*
X135273713Y-136882985D01*
X135273707Y-136882978D01*
X135117021Y-136726292D01*
X135117014Y-136726286D01*
X134941206Y-136591384D01*
X134749296Y-136480585D01*
X134749286Y-136480581D01*
X134544559Y-136395780D01*
X134330504Y-136338424D01*
X134110810Y-136309501D01*
X134110807Y-136309500D01*
X134110801Y-136309500D01*
X133889199Y-136309500D01*
X133889193Y-136309500D01*
X133889189Y-136309501D01*
X133669495Y-136338424D01*
X133455440Y-136395780D01*
X133250713Y-136480581D01*
X133250703Y-136480585D01*
X133058793Y-136591384D01*
X132882985Y-136726286D01*
X132882978Y-136726292D01*
X132726292Y-136882978D01*
X132726286Y-136882985D01*
X132591384Y-137058793D01*
X132480585Y-137250703D01*
X132480581Y-137250713D01*
X132414561Y-137410100D01*
X132370720Y-137464503D01*
X132304426Y-137486568D01*
X132236727Y-137469289D01*
X132189116Y-137418152D01*
X132185439Y-137410100D01*
X132181048Y-137399500D01*
X132119416Y-137250707D01*
X132069945Y-137165021D01*
X132008615Y-137058793D01*
X131873713Y-136882985D01*
X131873707Y-136882978D01*
X131717021Y-136726292D01*
X131717014Y-136726286D01*
X131541206Y-136591384D01*
X131349296Y-136480585D01*
X131349286Y-136480581D01*
X131144559Y-136395780D01*
X130930504Y-136338424D01*
X130710810Y-136309501D01*
X130710807Y-136309500D01*
X130710801Y-136309500D01*
X130489199Y-136309500D01*
X130489193Y-136309500D01*
X130489189Y-136309501D01*
X130269495Y-136338424D01*
X130055440Y-136395780D01*
X129850713Y-136480581D01*
X129850703Y-136480585D01*
X129658793Y-136591384D01*
X129482985Y-136726286D01*
X129482978Y-136726292D01*
X129326292Y-136882978D01*
X129326286Y-136882985D01*
X129191384Y-137058793D01*
X129080585Y-137250703D01*
X129080581Y-137250713D01*
X128995780Y-137455440D01*
X128938424Y-137669495D01*
X128909501Y-137889189D01*
X128909500Y-137889205D01*
X112544500Y-137889205D01*
X112544500Y-130020945D01*
X112544500Y-130020943D01*
X112503577Y-129868216D01*
X112503573Y-129868209D01*
X112424524Y-129731290D01*
X112424518Y-129731282D01*
X112312717Y-129619481D01*
X112312709Y-129619475D01*
X112175790Y-129540426D01*
X112175786Y-129540424D01*
X112175784Y-129540423D01*
X112023057Y-129499500D01*
X111864943Y-129499500D01*
X111712216Y-129540423D01*
X111712209Y-129540426D01*
X111575290Y-129619475D01*
X111575282Y-129619481D01*
X111463481Y-129731282D01*
X111463475Y-129731290D01*
X111384426Y-129868209D01*
X111384423Y-129868216D01*
X111343500Y-130020943D01*
X111343500Y-148757330D01*
X111343499Y-148757348D01*
X111343499Y-148923054D01*
X111343498Y-148923054D01*
X111384423Y-149075785D01*
X111413358Y-149125900D01*
X111413359Y-149125904D01*
X111413360Y-149125904D01*
X111463479Y-149212714D01*
X111463481Y-149212717D01*
X111582349Y-149331585D01*
X111582355Y-149331590D01*
X111738584Y-149487819D01*
X111772069Y-149549142D01*
X111767085Y-149618834D01*
X111725213Y-149674767D01*
X111659749Y-149699184D01*
X111650903Y-149699500D01*
X110956898Y-149699500D01*
X110917853Y-149704188D01*
X110868438Y-149710122D01*
X110727656Y-149765639D01*
X110607077Y-149857077D01*
X110515639Y-149977656D01*
X110460122Y-150118438D01*
X110454188Y-150167853D01*
X110449500Y-150206898D01*
X108593906Y-150206898D01*
X110202202Y-148598033D01*
X110261520Y-148538716D01*
X110261527Y-148538703D01*
X110261575Y-148538639D01*
X110261584Y-148538631D01*
X110290090Y-148489235D01*
X110299014Y-148473773D01*
X110299025Y-148473754D01*
X110311467Y-148452202D01*
X110340577Y-148401784D01*
X110340578Y-148401779D01*
X110340582Y-148401773D01*
X110340610Y-148401705D01*
X110340613Y-148401691D01*
X110340617Y-148401686D01*
X110360584Y-148327113D01*
X110360584Y-148327112D01*
X110360589Y-148327113D01*
X110360589Y-148327091D01*
X110381500Y-148249057D01*
X110381500Y-148249003D01*
X110381514Y-148248951D01*
X110381500Y-148169894D01*
X110381500Y-123370943D01*
X118599500Y-123370943D01*
X118599500Y-123529056D01*
X118640423Y-123681783D01*
X118640426Y-123681790D01*
X118719473Y-123818706D01*
X118719477Y-123818712D01*
X118719480Y-123818716D01*
X118719482Y-123818718D01*
X118723872Y-123824438D01*
X118749069Y-123889606D01*
X118749500Y-123899930D01*
X118749500Y-130450069D01*
X118729815Y-130517108D01*
X118723875Y-130525557D01*
X118719475Y-130531290D01*
X118640426Y-130668209D01*
X118640423Y-130668216D01*
X118599500Y-130820943D01*
X118599500Y-130979056D01*
X118640423Y-131131783D01*
X118640426Y-131131790D01*
X118719475Y-131268709D01*
X118719479Y-131268714D01*
X118719480Y-131268716D01*
X118831284Y-131380520D01*
X118831286Y-131380521D01*
X118831290Y-131380524D01*
X118968209Y-131459573D01*
X118968216Y-131459577D01*
X119120943Y-131500500D01*
X119120945Y-131500500D01*
X119279055Y-131500500D01*
X119279057Y-131500500D01*
X119431784Y-131459577D01*
X119568716Y-131380520D01*
X119680520Y-131268716D01*
X119759577Y-131131784D01*
X119800500Y-130979057D01*
X119800500Y-130820943D01*
X119759577Y-130668216D01*
X119734049Y-130624000D01*
X119680524Y-130531290D01*
X119680521Y-130531287D01*
X119680520Y-130531284D01*
X119680517Y-130531281D01*
X119676125Y-130525557D01*
X119650930Y-130460388D01*
X119650500Y-130450069D01*
X119650500Y-127969205D01*
X128909500Y-127969205D01*
X128909500Y-128190794D01*
X128909501Y-128190810D01*
X128938424Y-128410504D01*
X128995780Y-128624559D01*
X129080581Y-128829286D01*
X129080585Y-128829296D01*
X129191384Y-129021206D01*
X129326286Y-129197014D01*
X129326292Y-129197021D01*
X129482978Y-129353707D01*
X129482985Y-129353713D01*
X129658793Y-129488615D01*
X129850703Y-129599414D01*
X129850704Y-129599414D01*
X129850707Y-129599416D01*
X130055441Y-129684220D01*
X130269492Y-129741575D01*
X130489199Y-129770500D01*
X130489206Y-129770500D01*
X130710794Y-129770500D01*
X130710801Y-129770500D01*
X130930508Y-129741575D01*
X131144559Y-129684220D01*
X131349293Y-129599416D01*
X131541207Y-129488615D01*
X131717016Y-129353712D01*
X131873712Y-129197016D01*
X132008615Y-129021207D01*
X132119416Y-128829293D01*
X132185439Y-128669899D01*
X132229280Y-128615496D01*
X132295574Y-128593431D01*
X132363273Y-128610710D01*
X132410884Y-128661847D01*
X132414561Y-128669900D01*
X132480578Y-128829281D01*
X132480585Y-128829296D01*
X132591384Y-129021206D01*
X132726286Y-129197014D01*
X132726292Y-129197021D01*
X132882978Y-129353707D01*
X132882985Y-129353713D01*
X133058793Y-129488615D01*
X133250703Y-129599414D01*
X133250704Y-129599414D01*
X133250707Y-129599416D01*
X133455441Y-129684220D01*
X133669492Y-129741575D01*
X133889199Y-129770500D01*
X133889206Y-129770500D01*
X134110794Y-129770500D01*
X134110801Y-129770500D01*
X134330508Y-129741575D01*
X134544559Y-129684220D01*
X134749293Y-129599416D01*
X134941207Y-129488615D01*
X135117016Y-129353712D01*
X135273712Y-129197016D01*
X135408615Y-129021207D01*
X135519416Y-128829293D01*
X135604220Y-128624559D01*
X135661575Y-128410508D01*
X135690500Y-128190801D01*
X135690500Y-127969199D01*
X135661575Y-127749492D01*
X135604220Y-127535441D01*
X135519416Y-127330707D01*
X135515689Y-127324252D01*
X135408615Y-127138793D01*
X135273713Y-126962985D01*
X135273707Y-126962978D01*
X135117021Y-126806292D01*
X135117014Y-126806286D01*
X134941206Y-126671384D01*
X134749296Y-126560585D01*
X134749286Y-126560581D01*
X134544559Y-126475780D01*
X134330504Y-126418424D01*
X134110810Y-126389501D01*
X134110807Y-126389500D01*
X134110801Y-126389500D01*
X133889199Y-126389500D01*
X133889193Y-126389500D01*
X133889189Y-126389501D01*
X133669495Y-126418424D01*
X133455440Y-126475780D01*
X133250713Y-126560581D01*
X133250703Y-126560585D01*
X133058793Y-126671384D01*
X132882985Y-126806286D01*
X132882978Y-126806292D01*
X132726292Y-126962978D01*
X132726286Y-126962985D01*
X132591384Y-127138793D01*
X132480585Y-127330703D01*
X132480581Y-127330713D01*
X132414561Y-127490100D01*
X132370720Y-127544503D01*
X132304426Y-127566568D01*
X132236727Y-127549289D01*
X132189116Y-127498152D01*
X132185439Y-127490100D01*
X132132171Y-127361500D01*
X132119416Y-127330707D01*
X132115689Y-127324252D01*
X132008615Y-127138793D01*
X131873713Y-126962985D01*
X131873707Y-126962978D01*
X131717021Y-126806292D01*
X131717014Y-126806286D01*
X131541206Y-126671384D01*
X131349296Y-126560585D01*
X131349286Y-126560581D01*
X131144559Y-126475780D01*
X130930504Y-126418424D01*
X130710810Y-126389501D01*
X130710807Y-126389500D01*
X130710801Y-126389500D01*
X130489199Y-126389500D01*
X130489193Y-126389500D01*
X130489189Y-126389501D01*
X130269495Y-126418424D01*
X130055440Y-126475780D01*
X129850713Y-126560581D01*
X129850703Y-126560585D01*
X129658793Y-126671384D01*
X129482985Y-126806286D01*
X129482978Y-126806292D01*
X129326292Y-126962978D01*
X129326286Y-126962985D01*
X129191384Y-127138793D01*
X129080585Y-127330703D01*
X129080581Y-127330713D01*
X128995780Y-127535440D01*
X128938424Y-127749495D01*
X128909501Y-127969189D01*
X128909500Y-127969205D01*
X119650500Y-127969205D01*
X119650500Y-123899930D01*
X119670185Y-123832891D01*
X119676128Y-123824438D01*
X119680512Y-123818723D01*
X119680520Y-123818716D01*
X119759577Y-123681784D01*
X119800500Y-123529057D01*
X119800500Y-123370943D01*
X119759577Y-123218216D01*
X119721636Y-123152499D01*
X119680524Y-123081290D01*
X119680518Y-123081282D01*
X119568717Y-122969481D01*
X119568709Y-122969475D01*
X119431790Y-122890426D01*
X119431786Y-122890424D01*
X119431784Y-122890423D01*
X119279057Y-122849500D01*
X119120943Y-122849500D01*
X118968216Y-122890423D01*
X118968209Y-122890426D01*
X118831290Y-122969475D01*
X118831282Y-122969481D01*
X118719481Y-123081282D01*
X118719475Y-123081290D01*
X118640426Y-123218209D01*
X118640423Y-123218216D01*
X118599500Y-123370943D01*
X110381500Y-123370943D01*
X110381500Y-120100096D01*
X110401185Y-120033057D01*
X110417814Y-120012420D01*
X112339506Y-118090727D01*
X112339511Y-118090724D01*
X112349714Y-118080520D01*
X112349716Y-118080520D01*
X112461520Y-117968716D01*
X112496030Y-117908943D01*
X135524500Y-117908943D01*
X135524500Y-118067057D01*
X135565370Y-118219584D01*
X135565423Y-118219783D01*
X135565426Y-118219790D01*
X135644475Y-118356709D01*
X135644479Y-118356714D01*
X135644480Y-118356716D01*
X135756284Y-118468520D01*
X135756286Y-118468521D01*
X135756290Y-118468524D01*
X135893209Y-118547573D01*
X135893216Y-118547577D01*
X136045943Y-118588500D01*
X136072390Y-118588500D01*
X136139429Y-118608185D01*
X136160071Y-118624819D01*
X142388181Y-124852928D01*
X142421666Y-124914251D01*
X142424500Y-124940609D01*
X142424500Y-127524902D01*
X142404815Y-127591941D01*
X142388181Y-127612583D01*
X142369481Y-127631282D01*
X142369475Y-127631290D01*
X142290426Y-127768209D01*
X142290423Y-127768216D01*
X142249500Y-127920943D01*
X142249500Y-128079057D01*
X142279711Y-128191804D01*
X142290423Y-128231783D01*
X142290426Y-128231790D01*
X142369475Y-128368709D01*
X142369479Y-128368714D01*
X142369480Y-128368716D01*
X142481284Y-128480520D01*
X142481286Y-128480521D01*
X142481290Y-128480524D01*
X142584212Y-128539945D01*
X142618216Y-128559577D01*
X142770943Y-128600500D01*
X142770945Y-128600500D01*
X142929055Y-128600500D01*
X142929057Y-128600500D01*
X143081784Y-128559577D01*
X143218716Y-128480520D01*
X143330520Y-128368716D01*
X143409577Y-128231784D01*
X143450500Y-128079057D01*
X143450500Y-127920943D01*
X143409577Y-127768216D01*
X143395262Y-127743422D01*
X143330524Y-127631290D01*
X143330518Y-127631282D01*
X143311819Y-127612583D01*
X143278334Y-127551260D01*
X143275500Y-127524902D01*
X143275500Y-125209610D01*
X143295185Y-125142571D01*
X143347989Y-125096816D01*
X143417147Y-125086872D01*
X143480703Y-125115897D01*
X143487181Y-125121929D01*
X147324737Y-128959485D01*
X147421763Y-129015503D01*
X147529982Y-129044500D01*
X147642018Y-129044500D01*
X148694902Y-129044500D01*
X148761941Y-129064185D01*
X148782583Y-129080819D01*
X148801284Y-129099520D01*
X148801286Y-129099521D01*
X148801290Y-129099524D01*
X148884764Y-129147717D01*
X148938216Y-129178577D01*
X149090943Y-129219500D01*
X149090945Y-129219500D01*
X149249055Y-129219500D01*
X149249057Y-129219500D01*
X149401784Y-129178577D01*
X149538716Y-129099520D01*
X149650520Y-128987716D01*
X149729577Y-128850784D01*
X149770500Y-128698057D01*
X149770500Y-128539943D01*
X149769066Y-128534591D01*
X149770729Y-128464744D01*
X149809891Y-128406882D01*
X149874119Y-128379377D01*
X149888841Y-128378500D01*
X159288209Y-128378500D01*
X159347962Y-128378508D01*
X159347992Y-128378500D01*
X159348018Y-128378500D01*
X159399171Y-128364793D01*
X159455732Y-128349645D01*
X159456197Y-128349525D01*
X159456233Y-128349503D01*
X159456237Y-128349503D01*
X159506395Y-128320544D01*
X159552762Y-128293781D01*
X159554493Y-128292802D01*
X159560282Y-128289586D01*
X159628445Y-128274237D01*
X159694085Y-128298176D01*
X159736363Y-128353803D01*
X159744500Y-128397982D01*
X159744500Y-128581902D01*
X159724815Y-128648941D01*
X159708181Y-128669583D01*
X159689481Y-128688282D01*
X159689475Y-128688290D01*
X159610426Y-128825209D01*
X159610423Y-128825216D01*
X159569500Y-128977943D01*
X159569500Y-129136057D01*
X159591859Y-129219500D01*
X159610423Y-129288783D01*
X159610426Y-129288790D01*
X159689475Y-129425709D01*
X159689479Y-129425714D01*
X159689480Y-129425716D01*
X159801284Y-129537520D01*
X159801286Y-129537521D01*
X159801290Y-129537524D01*
X159908492Y-129599416D01*
X159938216Y-129616577D01*
X160090943Y-129657500D01*
X160090945Y-129657500D01*
X160249055Y-129657500D01*
X160249057Y-129657500D01*
X160401784Y-129616577D01*
X160538716Y-129537520D01*
X160650520Y-129425716D01*
X160729577Y-129288784D01*
X160770500Y-129136057D01*
X160770500Y-128977943D01*
X160729577Y-128825216D01*
X160729573Y-128825209D01*
X160650524Y-128688290D01*
X160650518Y-128688282D01*
X160631819Y-128669583D01*
X160598334Y-128608260D01*
X160595500Y-128581902D01*
X160595500Y-128312610D01*
X160615185Y-128245571D01*
X160631819Y-128224929D01*
X163354929Y-125501819D01*
X163416252Y-125468334D01*
X163442610Y-125465500D01*
X163469055Y-125465500D01*
X163469057Y-125465500D01*
X163621784Y-125424577D01*
X163758716Y-125345520D01*
X163870520Y-125233716D01*
X163870520Y-125233715D01*
X163874063Y-125230173D01*
X163935386Y-125196688D01*
X164005078Y-125201672D01*
X164049425Y-125230173D01*
X165885181Y-127065929D01*
X165918666Y-127127252D01*
X165921500Y-127153610D01*
X165921500Y-128303902D01*
X165901815Y-128370941D01*
X165885181Y-128391583D01*
X165866481Y-128410282D01*
X165866475Y-128410290D01*
X165787426Y-128547209D01*
X165787423Y-128547216D01*
X165746500Y-128699943D01*
X165746500Y-128858057D01*
X165778624Y-128977943D01*
X165787423Y-129010783D01*
X165787426Y-129010790D01*
X165866475Y-129147709D01*
X165866479Y-129147714D01*
X165866480Y-129147716D01*
X165978284Y-129259520D01*
X165978286Y-129259521D01*
X165978290Y-129259524D01*
X166115209Y-129338573D01*
X166115216Y-129338577D01*
X166267943Y-129379500D01*
X166267945Y-129379500D01*
X166426055Y-129379500D01*
X166426057Y-129379500D01*
X166578784Y-129338577D01*
X166715716Y-129259520D01*
X166827520Y-129147716D01*
X166906577Y-129010784D01*
X166947500Y-128858057D01*
X166947500Y-128699943D01*
X166906577Y-128547216D01*
X166868073Y-128480524D01*
X166827524Y-128410290D01*
X166827518Y-128410282D01*
X166808819Y-128391583D01*
X166775334Y-128330260D01*
X166772500Y-128303902D01*
X166772500Y-126869984D01*
X166772500Y-126869982D01*
X166743503Y-126761763D01*
X166687485Y-126664737D01*
X166608263Y-126585515D01*
X163885263Y-123862515D01*
X163788237Y-123806497D01*
X163680018Y-123777500D01*
X163680017Y-123777500D01*
X163046791Y-123777500D01*
X162987038Y-123777492D01*
X162987008Y-123777500D01*
X162986982Y-123777500D01*
X162986979Y-123777500D01*
X162935841Y-123791202D01*
X162935828Y-123791206D01*
X162902071Y-123800247D01*
X162878809Y-123806477D01*
X162878778Y-123806489D01*
X162878765Y-123806496D01*
X162878763Y-123806497D01*
X162828604Y-123835455D01*
X162781782Y-123862481D01*
X162781763Y-123862499D01*
X162781737Y-123862515D01*
X162781255Y-123862996D01*
X162781251Y-123862999D01*
X162740566Y-123903684D01*
X162740556Y-123903695D01*
X160016366Y-126627157D01*
X159955038Y-126660634D01*
X159885347Y-126655640D01*
X159829419Y-126613761D01*
X159808923Y-126571560D01*
X159797577Y-126529216D01*
X159766726Y-126475780D01*
X159718524Y-126392290D01*
X159718518Y-126392282D01*
X159606717Y-126280481D01*
X159606709Y-126280475D01*
X159469790Y-126201426D01*
X159469786Y-126201424D01*
X159469784Y-126201423D01*
X159317057Y-126160500D01*
X159245610Y-126160500D01*
X159178571Y-126140815D01*
X159132816Y-126088011D01*
X159122872Y-126018853D01*
X159151897Y-125955297D01*
X159157929Y-125948819D01*
X159606929Y-125499819D01*
X159668252Y-125466334D01*
X159694610Y-125463500D01*
X159721055Y-125463500D01*
X159721057Y-125463500D01*
X159873784Y-125422577D01*
X160010716Y-125343520D01*
X160122520Y-125231716D01*
X160201577Y-125094784D01*
X160242500Y-124942057D01*
X160242500Y-124783943D01*
X160201577Y-124631216D01*
X160201573Y-124631209D01*
X160122524Y-124494290D01*
X160122518Y-124494282D01*
X160010717Y-124382481D01*
X160010709Y-124382475D01*
X159873790Y-124303426D01*
X159873786Y-124303424D01*
X159873784Y-124303423D01*
X159721057Y-124262500D01*
X159562943Y-124262500D01*
X159410216Y-124303423D01*
X159410209Y-124303426D01*
X159273290Y-124382475D01*
X159273282Y-124382481D01*
X159161481Y-124494282D01*
X159161475Y-124494290D01*
X159082426Y-124631209D01*
X159082423Y-124631216D01*
X159041500Y-124783943D01*
X159041500Y-124810390D01*
X159021815Y-124877429D01*
X159005181Y-124898071D01*
X158251071Y-125652181D01*
X158189748Y-125685666D01*
X158163390Y-125688500D01*
X154875537Y-125688500D01*
X154808498Y-125668815D01*
X154762743Y-125616011D01*
X154753926Y-125557184D01*
X154752500Y-125557184D01*
X154752500Y-111889060D01*
X154752501Y-111889047D01*
X154752501Y-111720944D01*
X154742333Y-111682997D01*
X154711577Y-111568216D01*
X154711573Y-111568209D01*
X154632524Y-111431290D01*
X154632518Y-111431282D01*
X148839590Y-105638355D01*
X148839588Y-105638352D01*
X148720717Y-105519481D01*
X148720716Y-105519480D01*
X148633904Y-105469360D01*
X148633904Y-105469359D01*
X148633900Y-105469358D01*
X148583785Y-105440423D01*
X148431057Y-105399499D01*
X148274499Y-105399499D01*
X148207460Y-105379814D01*
X148161705Y-105327010D01*
X148150499Y-105275499D01*
X148150499Y-105105143D01*
X148150499Y-105105136D01*
X148150497Y-105105117D01*
X148147586Y-105080012D01*
X148147585Y-105080010D01*
X148147585Y-105080009D01*
X148102206Y-104977235D01*
X148022765Y-104897794D01*
X148022763Y-104897793D01*
X147919992Y-104852415D01*
X147894865Y-104849500D01*
X146105143Y-104849500D01*
X146105117Y-104849502D01*
X146080012Y-104852413D01*
X146080008Y-104852415D01*
X145977235Y-104897793D01*
X145897794Y-104977234D01*
X145852415Y-105080006D01*
X145852415Y-105080008D01*
X145849500Y-105105131D01*
X145849500Y-105842871D01*
X145829815Y-105909910D01*
X145777011Y-105955665D01*
X145707853Y-105965609D01*
X145644297Y-105936584D01*
X145606523Y-105877806D01*
X145603027Y-105862269D01*
X145596107Y-105818585D01*
X145582171Y-105730591D01*
X145526211Y-105558361D01*
X145526211Y-105558360D01*
X145466118Y-105440423D01*
X145443996Y-105397006D01*
X145373881Y-105300500D01*
X145337558Y-105250505D01*
X145337554Y-105250500D01*
X145209499Y-105122445D01*
X145209494Y-105122441D01*
X145062997Y-105016006D01*
X145062996Y-105016005D01*
X145062994Y-105016004D01*
X144986906Y-104977235D01*
X144901639Y-104933788D01*
X144901636Y-104933787D01*
X144729410Y-104877829D01*
X144550551Y-104849500D01*
X144550546Y-104849500D01*
X144369454Y-104849500D01*
X144369449Y-104849500D01*
X144190589Y-104877829D01*
X144018363Y-104933787D01*
X144018360Y-104933788D01*
X143857002Y-105016006D01*
X143710505Y-105122441D01*
X143710500Y-105122445D01*
X143582445Y-105250500D01*
X143582441Y-105250505D01*
X143476006Y-105397002D01*
X143393788Y-105558360D01*
X143393787Y-105558363D01*
X143337829Y-105730589D01*
X143309500Y-105909448D01*
X143309500Y-106090551D01*
X143337829Y-106269410D01*
X143393787Y-106441636D01*
X143393788Y-106441639D01*
X143476006Y-106602997D01*
X143582441Y-106749494D01*
X143582445Y-106749499D01*
X143710500Y-106877554D01*
X143710505Y-106877558D01*
X143838287Y-106970396D01*
X143857006Y-106983996D01*
X143933092Y-107022764D01*
X143988684Y-107051090D01*
X144039480Y-107099065D01*
X144056275Y-107166886D01*
X144033737Y-107233021D01*
X143979022Y-107276472D01*
X143970708Y-107279506D01*
X143941781Y-107288905D01*
X143752439Y-107385380D01*
X143698282Y-107424727D01*
X143698282Y-107424728D01*
X144330591Y-108057037D01*
X144267007Y-108074075D01*
X144152993Y-108139901D01*
X144059901Y-108232993D01*
X143994075Y-108347007D01*
X143977037Y-108410591D01*
X143344728Y-107778282D01*
X143344727Y-107778282D01*
X143305380Y-107832439D01*
X143208904Y-108021782D01*
X143143242Y-108223869D01*
X143143242Y-108223872D01*
X143110000Y-108433753D01*
X143110000Y-108646246D01*
X143143242Y-108856127D01*
X143143242Y-108856130D01*
X143208904Y-109058217D01*
X143305375Y-109247550D01*
X143344728Y-109301716D01*
X143977037Y-108669408D01*
X143994075Y-108732993D01*
X144059901Y-108847007D01*
X144152993Y-108940099D01*
X144267007Y-109005925D01*
X144330590Y-109022962D01*
X143698282Y-109655269D01*
X143698282Y-109655270D01*
X143752449Y-109694624D01*
X143941780Y-109791094D01*
X143970705Y-109800492D01*
X144028381Y-109839929D01*
X144055580Y-109904287D01*
X144043667Y-109973134D01*
X143996424Y-110024610D01*
X143988685Y-110028908D01*
X143857004Y-110096004D01*
X143710505Y-110202441D01*
X143710500Y-110202445D01*
X143582445Y-110330500D01*
X143582441Y-110330505D01*
X143476006Y-110477002D01*
X143393788Y-110638360D01*
X143393787Y-110638363D01*
X143337829Y-110810589D01*
X143309500Y-110989448D01*
X143309500Y-111170551D01*
X143337829Y-111349410D01*
X143375905Y-111466597D01*
X143377900Y-111536438D01*
X143345655Y-111592596D01*
X142536295Y-112401955D01*
X142536296Y-112401956D01*
X142474514Y-112463738D01*
X142474513Y-112463740D01*
X142418498Y-112560760D01*
X142418497Y-112560763D01*
X142389500Y-112668982D01*
X142389500Y-123351390D01*
X142369815Y-123418429D01*
X142317011Y-123464184D01*
X142247853Y-123474128D01*
X142184297Y-123445103D01*
X142177819Y-123439071D01*
X136761819Y-118023071D01*
X136728334Y-117961748D01*
X136725500Y-117935390D01*
X136725500Y-117908945D01*
X136725500Y-117908943D01*
X136684577Y-117756216D01*
X136662102Y-117717288D01*
X136605524Y-117619290D01*
X136605518Y-117619282D01*
X136493717Y-117507481D01*
X136493709Y-117507475D01*
X136356790Y-117428426D01*
X136356786Y-117428424D01*
X136356784Y-117428423D01*
X136204057Y-117387500D01*
X136045943Y-117387500D01*
X135893216Y-117428423D01*
X135893209Y-117428426D01*
X135756290Y-117507475D01*
X135756282Y-117507481D01*
X135644481Y-117619282D01*
X135644475Y-117619290D01*
X135565426Y-117756209D01*
X135565423Y-117756216D01*
X135524500Y-117908943D01*
X112496030Y-117908943D01*
X112522275Y-117863485D01*
X112522276Y-117863484D01*
X112536519Y-117838815D01*
X112540574Y-117831790D01*
X112540575Y-117831789D01*
X112540575Y-117831787D01*
X112540577Y-117831785D01*
X112581501Y-117679057D01*
X112581501Y-117520943D01*
X112540577Y-117368215D01*
X112490899Y-117282171D01*
X112461520Y-117231284D01*
X112349716Y-117119480D01*
X112262904Y-117069360D01*
X112262904Y-117069359D01*
X112262900Y-117069358D01*
X112212785Y-117040423D01*
X112060057Y-116999499D01*
X111901943Y-116999499D01*
X111800974Y-117026554D01*
X111749210Y-117040424D01*
X111749209Y-117040425D01*
X111699096Y-117069359D01*
X111699095Y-117069360D01*
X111656848Y-117093751D01*
X111612285Y-117119479D01*
X111612282Y-117119481D01*
X109300481Y-119431282D01*
X109300477Y-119431287D01*
X109281887Y-119463487D01*
X109231320Y-119511703D01*
X109162713Y-119524925D01*
X109097848Y-119498957D01*
X109057320Y-119442043D01*
X109050500Y-119401487D01*
X109050500Y-102374500D01*
X109070185Y-102307461D01*
X109122989Y-102261706D01*
X109174500Y-102250500D01*
X139625500Y-102250500D01*
X139692539Y-102270185D01*
X139738294Y-102322989D01*
X139749500Y-102374500D01*
X139749500Y-115750069D01*
X139729815Y-115817108D01*
X139723875Y-115825557D01*
X139719475Y-115831290D01*
X139640426Y-115968209D01*
X139640423Y-115968216D01*
X139599500Y-116120943D01*
X139599500Y-116279057D01*
X139602445Y-116290046D01*
X139640423Y-116431783D01*
X139640426Y-116431790D01*
X139719475Y-116568709D01*
X139719479Y-116568714D01*
X139719480Y-116568716D01*
X139831284Y-116680520D01*
X139831286Y-116680521D01*
X139831290Y-116680524D01*
X139968209Y-116759573D01*
X139968216Y-116759577D01*
X140120943Y-116800500D01*
X140120945Y-116800500D01*
X140279055Y-116800500D01*
X140279057Y-116800500D01*
X140431784Y-116759577D01*
X140568716Y-116680520D01*
X140680520Y-116568716D01*
X140759577Y-116431784D01*
X140800500Y-116279057D01*
X140800500Y-116120943D01*
X140759577Y-115968216D01*
X140728520Y-115914423D01*
X140680524Y-115831290D01*
X140680521Y-115831287D01*
X140680520Y-115831284D01*
X140680517Y-115831281D01*
X140676125Y-115825557D01*
X140650930Y-115760388D01*
X140650500Y-115750069D01*
X140650500Y-112940918D01*
X140670185Y-112873879D01*
X140722989Y-112828124D01*
X140792147Y-112818180D01*
X140836498Y-112833530D01*
X140968216Y-112909577D01*
X141120943Y-112950500D01*
X141120945Y-112950500D01*
X141279055Y-112950500D01*
X141279057Y-112950500D01*
X141431784Y-112909577D01*
X141568716Y-112830520D01*
X141680520Y-112718716D01*
X141759577Y-112581784D01*
X141800500Y-112429057D01*
X141800500Y-112270943D01*
X141759577Y-112118216D01*
X141757384Y-112114417D01*
X141680524Y-111981290D01*
X141680521Y-111981287D01*
X141680520Y-111981284D01*
X141680517Y-111981281D01*
X141676125Y-111975557D01*
X141650930Y-111910388D01*
X141650500Y-111900069D01*
X141650500Y-100940693D01*
X141650500Y-100940691D01*
X141619799Y-100826114D01*
X141560489Y-100723387D01*
X141476613Y-100639511D01*
X141373886Y-100580201D01*
X141259309Y-100549500D01*
X107659309Y-100549500D01*
X107540691Y-100549500D01*
X107426114Y-100580201D01*
X107426112Y-100580201D01*
X107426112Y-100580202D01*
X107323387Y-100639511D01*
X107323384Y-100639513D01*
X107239513Y-100723384D01*
X107239511Y-100723387D01*
X107180201Y-100826114D01*
X107149500Y-100940691D01*
X107149500Y-100940693D01*
X107149500Y-115129482D01*
X107147790Y-115135305D01*
X107148939Y-115141266D01*
X107138059Y-115168444D01*
X107129815Y-115196521D01*
X107125229Y-115200494D01*
X107122973Y-115206131D01*
X107099124Y-115223114D01*
X107077011Y-115242276D01*
X107071004Y-115243139D01*
X107066060Y-115246661D01*
X107036824Y-115248054D01*
X107007853Y-115252220D01*
X107000779Y-115249772D01*
X106996269Y-115249987D01*
X106963501Y-115236870D01*
X106955841Y-115232448D01*
X106934904Y-115220360D01*
X106934903Y-115220359D01*
X106934902Y-115220359D01*
X106884785Y-115191423D01*
X106884782Y-115191422D01*
X106783903Y-115164392D01*
X106732057Y-115150500D01*
X106573943Y-115150500D01*
X106421215Y-115191423D01*
X106421214Y-115191423D01*
X106421212Y-115191424D01*
X106421209Y-115191425D01*
X106371096Y-115220359D01*
X106371095Y-115220360D01*
X106350158Y-115232448D01*
X106284285Y-115270479D01*
X106284282Y-115270481D01*
X105722481Y-115832282D01*
X105722480Y-115832284D01*
X105675058Y-115914423D01*
X105672361Y-115919094D01*
X105672359Y-115919096D01*
X105643425Y-115969209D01*
X105643424Y-115969210D01*
X105643423Y-115969215D01*
X105602499Y-116121943D01*
X105602499Y-116121945D01*
X105602499Y-116290046D01*
X105602500Y-116290059D01*
X105602500Y-122631056D01*
X105643423Y-122783783D01*
X105643426Y-122783790D01*
X105722475Y-122920709D01*
X105722479Y-122920714D01*
X105722480Y-122920716D01*
X105834284Y-123032520D01*
X105834286Y-123032521D01*
X105834290Y-123032524D01*
X105971209Y-123111573D01*
X105971216Y-123111577D01*
X106123943Y-123152500D01*
X106123945Y-123152500D01*
X106282055Y-123152500D01*
X106282057Y-123152500D01*
X106434784Y-123111577D01*
X106571716Y-123032520D01*
X106683520Y-122920716D01*
X106762577Y-122783784D01*
X106803500Y-122631057D01*
X106803500Y-119733191D01*
X106823185Y-119666152D01*
X106875989Y-119620397D01*
X106945147Y-119610453D01*
X107008703Y-119639478D01*
X107034787Y-119675653D01*
X107036359Y-119674746D01*
X107119475Y-119818709D01*
X107119479Y-119818714D01*
X107119480Y-119818716D01*
X107231284Y-119930520D01*
X107231286Y-119930521D01*
X107231290Y-119930524D01*
X107368209Y-120009573D01*
X107368216Y-120009577D01*
X107520943Y-120050500D01*
X107520945Y-120050500D01*
X107679055Y-120050500D01*
X107679057Y-120050500D01*
X107831784Y-120009577D01*
X107963501Y-119933530D01*
X108031400Y-119917058D01*
X108097427Y-119939911D01*
X108140618Y-119994832D01*
X108149500Y-120040918D01*
X108149500Y-123762035D01*
X108129815Y-123829074D01*
X108113181Y-123849716D01*
X107239513Y-124723383D01*
X107239509Y-124723389D01*
X107180201Y-124826112D01*
X107180200Y-124826117D01*
X107149500Y-124940691D01*
X107149500Y-131500068D01*
X107129815Y-131567107D01*
X107123875Y-131575556D01*
X107119475Y-131581289D01*
X107040426Y-131718208D01*
X107040423Y-131718215D01*
X106999500Y-131870942D01*
X106999500Y-132029055D01*
X107040423Y-132181782D01*
X107040426Y-132181789D01*
X107119475Y-132318708D01*
X107119479Y-132318713D01*
X107119480Y-132318715D01*
X107231284Y-132430519D01*
X107231286Y-132430520D01*
X107231290Y-132430523D01*
X107368209Y-132509572D01*
X107368216Y-132509576D01*
X107520943Y-132550499D01*
X107520945Y-132550499D01*
X107679055Y-132550499D01*
X107679057Y-132550499D01*
X107831784Y-132509576D01*
X107968716Y-132430519D01*
X108080520Y-132318715D01*
X108159577Y-132181783D01*
X108200500Y-132029056D01*
X108200500Y-131870942D01*
X108159577Y-131718215D01*
X108159573Y-131718208D01*
X108080524Y-131581289D01*
X108080521Y-131581286D01*
X108080520Y-131581283D01*
X108080517Y-131581280D01*
X108076125Y-131575556D01*
X108050930Y-131510387D01*
X108050500Y-131500068D01*
X108050500Y-125237965D01*
X108070185Y-125170926D01*
X108086819Y-125150284D01*
X108966237Y-124270866D01*
X108967916Y-124272545D01*
X109014551Y-124238493D01*
X109084297Y-124234338D01*
X109145218Y-124268549D01*
X109177971Y-124330266D01*
X109180500Y-124355182D01*
X109180500Y-147869975D01*
X109160815Y-147937014D01*
X109144197Y-147957641D01*
X107427786Y-149674657D01*
X107366468Y-149708153D01*
X107296776Y-149703180D01*
X107249340Y-149671493D01*
X107239742Y-149661185D01*
X107226520Y-149638284D01*
X107114716Y-149526480D01*
X107114713Y-149526478D01*
X104118819Y-146530584D01*
X104085334Y-146469261D01*
X104082500Y-146442903D01*
X104082500Y-137287759D01*
X104102185Y-137220720D01*
X104154989Y-137174965D01*
X104224147Y-137165021D01*
X104238588Y-137167983D01*
X104319019Y-137189534D01*
X104359942Y-137200500D01*
X104359943Y-137200500D01*
X104359944Y-137200500D01*
X107132055Y-137200500D01*
X107132057Y-137200500D01*
X107284784Y-137159577D01*
X107421716Y-137080520D01*
X107533520Y-136968716D01*
X107612577Y-136831784D01*
X107653500Y-136679057D01*
X107653500Y-136520943D01*
X107612577Y-136368216D01*
X107578678Y-136309500D01*
X107533524Y-136231290D01*
X107533518Y-136231282D01*
X107421717Y-136119481D01*
X107421709Y-136119475D01*
X107284790Y-136040426D01*
X107284786Y-136040424D01*
X107284784Y-136040423D01*
X107132057Y-135999500D01*
X107132056Y-135999500D01*
X104706335Y-135999500D01*
X104690849Y-135995350D01*
X104677105Y-135996006D01*
X104644337Y-135982888D01*
X104638061Y-135979265D01*
X104620906Y-135969361D01*
X104620904Y-135969359D01*
X104620900Y-135969358D01*
X104570785Y-135940423D01*
X104418057Y-135899499D01*
X104259943Y-135899499D01*
X104238592Y-135905219D01*
X104168743Y-135903557D01*
X104110881Y-135864394D01*
X104083377Y-135800166D01*
X104082500Y-135785445D01*
X104082500Y-135233304D01*
X104102185Y-135166265D01*
X104118858Y-135145583D01*
X104868584Y-134396596D01*
X104868716Y-134396520D01*
X104925371Y-134339864D01*
X104980338Y-134284952D01*
X104980339Y-134284949D01*
X104980343Y-134284946D01*
X104980469Y-134284783D01*
X104980515Y-134284722D01*
X104980516Y-134284719D01*
X104980520Y-134284716D01*
X105020514Y-134215442D01*
X105059462Y-134148060D01*
X105059464Y-134148049D01*
X105059569Y-134147796D01*
X105059577Y-134147784D01*
X105080146Y-134071018D01*
X105100461Y-133995353D01*
X105100461Y-133995202D01*
X105100500Y-133995057D01*
X105100500Y-133916295D01*
X105100539Y-133837238D01*
X105100538Y-133837235D01*
X105100542Y-133829508D01*
X105100500Y-133828851D01*
X105100500Y-129528060D01*
X105100501Y-129528047D01*
X105100501Y-129359944D01*
X105100501Y-129359943D01*
X105059577Y-129207216D01*
X105049116Y-129189097D01*
X104980524Y-129070290D01*
X104980518Y-129070282D01*
X103851590Y-127941355D01*
X103851588Y-127941352D01*
X103732717Y-127822481D01*
X103732716Y-127822480D01*
X103638727Y-127768216D01*
X103638726Y-127768215D01*
X103595783Y-127743422D01*
X103539881Y-127728443D01*
X103443057Y-127702499D01*
X103284943Y-127702499D01*
X103284938Y-127702499D01*
X103257591Y-127709827D01*
X103187741Y-127708163D01*
X103129879Y-127669000D01*
X103102377Y-127604771D01*
X103101500Y-127590052D01*
X103101500Y-123677096D01*
X103121185Y-123610057D01*
X103137814Y-123589420D01*
X104858506Y-121868727D01*
X104858511Y-121868724D01*
X104868714Y-121858520D01*
X104868716Y-121858520D01*
X104980520Y-121746716D01*
X105056576Y-121614982D01*
X105059577Y-121609785D01*
X105100501Y-121457057D01*
X105100501Y-121298943D01*
X105059577Y-121146215D01*
X105018901Y-121075763D01*
X105018901Y-121075761D01*
X104980524Y-121009290D01*
X104980521Y-121009286D01*
X104980520Y-121009284D01*
X104868716Y-120897480D01*
X104868715Y-120897479D01*
X104864385Y-120893149D01*
X104864374Y-120893139D01*
X102190819Y-118219584D01*
X102157334Y-118158261D01*
X102154500Y-118131903D01*
X102154500Y-116394945D01*
X102154500Y-116394943D01*
X102113577Y-116242216D01*
X102045100Y-116123609D01*
X102034524Y-116105290D01*
X102034518Y-116105282D01*
X101922717Y-115993481D01*
X101922709Y-115993475D01*
X101785790Y-115914426D01*
X101785786Y-115914424D01*
X101785784Y-115914423D01*
X101633057Y-115873500D01*
X101474943Y-115873500D01*
X101322216Y-115914423D01*
X101322209Y-115914426D01*
X101185290Y-115993475D01*
X101185282Y-115993481D01*
X101073481Y-116105282D01*
X101073475Y-116105290D01*
X100994426Y-116242209D01*
X100994423Y-116242216D01*
X100953500Y-116394943D01*
X100953500Y-118345330D01*
X100953499Y-118345348D01*
X100953499Y-118511054D01*
X100953498Y-118511054D01*
X100300500Y-118511054D01*
X100300500Y-103381995D01*
X101699500Y-103381995D01*
X101699500Y-103618004D01*
X101699501Y-103618020D01*
X101730306Y-103852010D01*
X101791394Y-104079993D01*
X101881714Y-104298045D01*
X101881719Y-104298056D01*
X101952677Y-104420957D01*
X101999727Y-104502450D01*
X101999729Y-104502453D01*
X101999730Y-104502454D01*
X102143406Y-104689697D01*
X102143412Y-104689704D01*
X102310295Y-104856587D01*
X102310302Y-104856593D01*
X102410904Y-104933787D01*
X102497550Y-105000273D01*
X102628918Y-105076118D01*
X102701943Y-105118280D01*
X102701948Y-105118282D01*
X102701951Y-105118284D01*
X102920007Y-105208606D01*
X103147986Y-105269693D01*
X103381989Y-105300500D01*
X103381996Y-105300500D01*
X103618004Y-105300500D01*
X103618011Y-105300500D01*
X103852014Y-105269693D01*
X104079993Y-105208606D01*
X104298049Y-105118284D01*
X104502450Y-105000273D01*
X104689699Y-104856592D01*
X104856592Y-104689699D01*
X105000273Y-104502450D01*
X105118284Y-104298049D01*
X105208606Y-104079993D01*
X105269693Y-103852014D01*
X105300500Y-103618011D01*
X105300500Y-103381989D01*
X105269693Y-103147986D01*
X105208606Y-102920007D01*
X105118284Y-102701951D01*
X105118282Y-102701948D01*
X105118280Y-102701943D01*
X105076118Y-102628918D01*
X105000273Y-102497550D01*
X104856592Y-102310301D01*
X104856587Y-102310295D01*
X104689704Y-102143412D01*
X104689697Y-102143406D01*
X104502454Y-101999730D01*
X104502453Y-101999729D01*
X104502450Y-101999727D01*
X104420957Y-101952677D01*
X104298056Y-101881719D01*
X104298045Y-101881714D01*
X104079993Y-101791394D01*
X103955873Y-101758136D01*
X103852014Y-101730307D01*
X103852013Y-101730306D01*
X103852010Y-101730306D01*
X103618020Y-101699501D01*
X103618017Y-101699500D01*
X103618011Y-101699500D01*
X103381989Y-101699500D01*
X103381983Y-101699500D01*
X103381979Y-101699501D01*
X103147989Y-101730306D01*
X102920006Y-101791394D01*
X102701954Y-101881714D01*
X102701943Y-101881719D01*
X102497545Y-101999730D01*
X102310302Y-102143406D01*
X102310295Y-102143412D01*
X102143412Y-102310295D01*
X102143406Y-102310302D01*
X101999730Y-102497545D01*
X101881719Y-102701943D01*
X101881714Y-102701954D01*
X101791394Y-102920006D01*
X101730306Y-103147989D01*
X101699501Y-103381979D01*
X101699500Y-103381995D01*
X100300500Y-103381995D01*
X100300500Y-102004427D01*
X100300816Y-101995581D01*
X100308959Y-101881719D01*
X100317165Y-101766973D01*
X100319681Y-101749476D01*
X100367457Y-101529852D01*
X100372434Y-101512901D01*
X100450986Y-101302295D01*
X100458325Y-101286226D01*
X100566043Y-101088955D01*
X100575599Y-101074086D01*
X100710293Y-100894156D01*
X100721867Y-100880799D01*
X100880799Y-100721867D01*
X100894156Y-100710293D01*
X101074086Y-100575599D01*
X101088955Y-100566043D01*
X101286226Y-100458325D01*
X101302295Y-100450986D01*
X101512901Y-100372434D01*
X101529852Y-100367457D01*
X101749476Y-100319681D01*
X101766973Y-100317165D01*
X101995582Y-100300816D01*
X102004428Y-100300500D01*
X102047594Y-100300500D01*
X172376000Y-100300500D01*
X172443039Y-100320185D01*
G37*
%TD.AperFunction*%
%TD*%
M02*
