%TF.GenerationSoftware,KiCad,Pcbnew,9.0.9*%
%TF.CreationDate,2026-10-01T15:12:37+00:00*%
%TF.ProjectId,AP1_Base,4150315f-4261-4736-952e-6b696361645f,rev?*%
%TF.SameCoordinates,Original*%
%TF.FileFunction,Copper,L4,Bot*%
%TF.FilePolarity,Positive*%
%FSLAX46Y46*%
G04 Gerber Fmt 4.6, Leading zero omitted, Abs format (unit mm)*
G04 Created by KiCad (PCBNEW 9.0.9) date 2026-10-01 15:12:37*
%MOMM*%
%LPD*%
G01*
G04 APERTURE LIST*
G04 Aperture macros list*
%AMRoundRect*
0 Rectangle with rounded corners*
0 $1 Rounding radius*
0 $2 $3 $4 $5 $6 $7 $8 $9 X,Y pos of 4 corners*
0 Add a 4 corners polygon primitive as box body*
4,1,4,$2,$3,$4,$5,$6,$7,$8,$9,$2,$3,0*
0 Add four circle primitives for the rounded corners*
1,1,$1+$1,$2,$3*
1,1,$1+$1,$4,$5*
1,1,$1+$1,$6,$7*
1,1,$1+$1,$8,$9*
0 Add four rect primitives between the rounded corners*
20,1,$1+$1,$2,$3,$4,$5,0*
20,1,$1+$1,$4,$5,$6,$7,0*
20,1,$1+$1,$6,$7,$8,$9,0*
20,1,$1+$1,$8,$9,$2,$3,0*%
G04 Aperture macros list end*
%TA.AperFunction,ComponentPad*%
%ADD10RoundRect,0.250000X-1.050000X-1.050000X1.050000X-1.050000X1.050000X1.050000X-1.050000X1.050000X0*%
%TD*%
%TA.AperFunction,ComponentPad*%
%ADD11C,2.600000*%
%TD*%
%TA.AperFunction,ComponentPad*%
%ADD12RoundRect,0.250001X-0.949999X-0.949999X0.949999X-0.949999X0.949999X0.949999X-0.949999X0.949999X0*%
%TD*%
%TA.AperFunction,ComponentPad*%
%ADD13C,2.400000*%
%TD*%
%TA.AperFunction,ComponentPad*%
%ADD14R,1.700000X1.700000*%
%TD*%
%TA.AperFunction,ComponentPad*%
%ADD15C,1.700000*%
%TD*%
%TA.AperFunction,ComponentPad*%
%ADD16C,2.780000*%
%TD*%
%TA.AperFunction,ViaPad*%
%ADD17C,0.600000*%
%TD*%
%TA.AperFunction,ViaPad*%
%ADD18C,0.800000*%
%TD*%
%TA.AperFunction,Conductor*%
%ADD19C,0.300000*%
%TD*%
%TA.AperFunction,Conductor*%
%ADD20C,0.250000*%
%TD*%
%TA.AperFunction,Conductor*%
%ADD21C,0.600000*%
%TD*%
G04 APERTURE END LIST*
D10*
%TO.P,J1,1*%
%TO.N,/VIN_RAW*%
X132000000Y-149800000D03*
D11*
%TO.P,J1,2*%
%TO.N,/GNDIN*%
X137080000Y-149800000D03*
%TD*%
D12*
%TO.P,J5,1*%
%TO.N,/LEDA1*%
X103000000Y-149800000D03*
D13*
%TO.P,J5,2*%
%TO.N,/LEDK1*%
X106500000Y-149800000D03*
%TO.P,J5,3*%
%TO.N,/LEDA2*%
X110000000Y-149800000D03*
%TO.P,J5,4*%
%TO.N,/LEDK2*%
X113500000Y-149800000D03*
%TD*%
D10*
%TO.P,J3,1*%
%TO.N,/VIN*%
X120000000Y-149800000D03*
D11*
%TO.P,J3,2*%
X125080000Y-149800000D03*
%TD*%
D10*
%TO.P,J4,1*%
%TO.N,/CH1*%
X144500000Y-149800000D03*
D11*
%TO.P,J4,2*%
%TO.N,/CH2*%
X149580000Y-149800000D03*
%TO.P,J4,3*%
%TO.N,/CH3*%
X154660000Y-149800000D03*
%TO.P,J4,4*%
%TO.N,/CH4*%
X159740000Y-149800000D03*
%TD*%
D12*
%TO.P,J6,1*%
%TO.N,/V12*%
X167000000Y-149800000D03*
D13*
%TO.P,J6,2*%
%TO.N,/AUXD*%
X170500000Y-149800000D03*
%TD*%
D14*
%TO.P,J7,1*%
%TO.N,/V12*%
X147000000Y-106000000D03*
D15*
%TO.P,J7,2*%
X144460000Y-106000000D03*
%TO.P,J7,3*%
%TO.N,/GND*%
X147000000Y-108540000D03*
%TO.P,J7,4*%
X144460000Y-108540000D03*
%TO.P,J7,5*%
%TO.N,/PWM1*%
X147000000Y-111080000D03*
%TO.P,J7,6*%
%TO.N,/PWM2*%
X144460000Y-111080000D03*
%TO.P,J7,7*%
%TO.N,/PWM3*%
X147000000Y-113620000D03*
%TO.P,J7,8*%
%TO.N,/PWM4*%
X144460000Y-113620000D03*
%TO.P,J7,9*%
%TO.N,/CC1*%
X147000000Y-116160000D03*
%TO.P,J7,10*%
%TO.N,/CC2*%
X144460000Y-116160000D03*
%TO.P,J7,11*%
%TO.N,/SDA*%
X147000000Y-118700000D03*
%TO.P,J7,12*%
%TO.N,/SCL*%
X144460000Y-118700000D03*
%TO.P,J7,13*%
%TO.N,/ALERT*%
X147000000Y-121240000D03*
%TO.P,J7,14*%
%TO.N,/AUX*%
X144460000Y-121240000D03*
%TO.P,J7,15*%
%TO.N,/3V3*%
X147000000Y-123780000D03*
%TO.P,J7,16*%
%TO.N,/GND*%
X144460000Y-123780000D03*
%TD*%
D16*
%TO.P,F1,1*%
%TO.N,/VIN_RAW*%
X130600000Y-138000000D03*
X134000000Y-138000000D03*
%TO.P,F1,2*%
%TO.N,/VF*%
X130600000Y-128080000D03*
X134000000Y-128080000D03*
%TD*%
D17*
%TO.N,/ISN*%
X119200000Y-129870000D03*
X119200000Y-123450000D03*
%TO.N,/GND*%
X113120016Y-124714910D03*
D18*
X155000000Y-132900000D03*
X155000000Y-134000000D03*
D17*
X127000000Y-107000000D03*
X104422311Y-135791708D03*
X172000000Y-117000000D03*
X172000000Y-112000000D03*
D18*
X145600000Y-132900000D03*
X138400000Y-132700000D03*
D17*
X167000000Y-117000000D03*
X165550500Y-129198191D03*
X162000000Y-102000000D03*
X132000000Y-132000000D03*
X152958118Y-126613500D03*
X137000000Y-107000000D03*
D18*
X141200000Y-133600000D03*
D17*
X102000000Y-107000000D03*
X182000000Y-137000000D03*
D18*
X138400000Y-133600000D03*
D17*
X112000000Y-147000000D03*
X135970088Y-123885500D03*
D18*
X167800000Y-132900000D03*
X152600000Y-132900000D03*
X148000000Y-134000000D03*
D17*
X100750500Y-113775500D03*
D18*
X160800000Y-132900000D03*
D17*
X182000000Y-132000000D03*
X104422311Y-123732500D03*
X160455094Y-129419277D03*
X132000000Y-112000000D03*
D18*
X153800000Y-132900000D03*
D17*
X127000000Y-117000000D03*
D18*
X159600000Y-134000000D03*
X162000000Y-134000000D03*
X152600000Y-134000000D03*
D17*
X163115693Y-135802278D03*
X137000000Y-112000000D03*
D18*
X162000000Y-132900000D03*
D17*
X123207697Y-121210536D03*
X116100500Y-121325704D03*
X100750500Y-127368308D03*
X153260564Y-129465721D03*
D18*
X139400000Y-132700000D03*
D17*
X111921435Y-112613158D03*
X182000000Y-142000000D03*
X157000000Y-107000000D03*
X149724930Y-111609943D03*
X162000000Y-112000000D03*
X122000000Y-117000000D03*
D18*
X141200000Y-132700000D03*
D17*
X172000000Y-122000000D03*
X100750500Y-110400013D03*
X177000000Y-147000000D03*
D18*
X166600000Y-132900000D03*
D17*
X136482691Y-126096500D03*
D18*
X146800000Y-132900000D03*
X169000000Y-134000000D03*
X127400000Y-141000000D03*
D17*
X112000000Y-142000000D03*
X117000000Y-107000000D03*
X165079223Y-121625500D03*
X172000000Y-102000000D03*
X149115693Y-135802278D03*
X138200000Y-134700000D03*
X152000000Y-102000000D03*
D18*
X160800000Y-134000000D03*
D17*
X167000000Y-147000000D03*
D18*
X169000000Y-132900000D03*
X166600000Y-134000000D03*
D17*
X167000000Y-102000000D03*
D18*
X139400000Y-133600000D03*
D17*
X149128504Y-129097030D03*
X115350500Y-133825704D03*
X162000000Y-107000000D03*
D18*
X153800000Y-134000000D03*
D17*
X107000000Y-127000000D03*
X157000000Y-102000000D03*
X147000000Y-102000000D03*
X172000000Y-127000000D03*
X167000000Y-107000000D03*
D18*
X145600000Y-134000000D03*
X126900000Y-136600000D03*
X167800000Y-134000000D03*
D17*
X109521348Y-121186131D03*
X170150000Y-132168909D03*
X122000000Y-107000000D03*
D18*
X126900000Y-133800000D03*
X148000000Y-132900000D03*
D17*
X167000000Y-112000000D03*
D18*
X140400000Y-132700000D03*
D17*
X177000000Y-132000000D03*
X172000000Y-107000000D03*
D18*
X146800000Y-134000000D03*
X159600000Y-132900000D03*
D17*
X157000000Y-132000000D03*
D18*
X140400000Y-133600000D03*
D17*
X182000000Y-147000000D03*
X132000000Y-107000000D03*
X170055500Y-138037105D03*
X157000000Y-137000000D03*
X123055500Y-112650013D03*
%TO.N,/SCL*%
X149623000Y-110239000D03*
%TO.N,/3V3*%
X155330000Y-113129000D03*
%TO.N,/V12*%
X170141000Y-128890000D03*
X163896000Y-125676000D03*
%TO.N,/VCC*%
X106740000Y-115632000D03*
X104097000Y-134561000D03*
X107491000Y-121939000D03*
%TO.N,/LEDA1*%
X104500000Y-121346000D03*
X103415000Y-115818000D03*
%TO.N,/LEDK1*%
X111981000Y-117600000D03*
%TO.N,/LEDA2*%
X105940000Y-134935000D03*
X108549000Y-136562000D03*
X104137000Y-128598000D03*
%TO.N,/LEDK2*%
X111928000Y-130100000D03*
%TO.N,/CC1*%
X107600000Y-119450000D03*
X141200000Y-112350000D03*
%TO.N,/CC2*%
X140200000Y-116200000D03*
X108600000Y-129000000D03*
%TO.N,/SWC2*%
X105907000Y-131450000D03*
X110390000Y-125174000D03*
%TO.N,/PWM1*%
X147821000Y-126298000D03*
%TO.N,/PWM2*%
X152034000Y-127325000D03*
%TO.N,/PWM3*%
X159642000Y-124863000D03*
%TO.N,/PWM4*%
X159225000Y-126761000D03*
%TO.N,/GO3*%
X159279000Y-129096000D03*
X163048000Y-124865000D03*
%TO.N,/AUX*%
X162497000Y-124222000D03*
%TO.N,/AUXD*%
X174551000Y-138000000D03*
%TD*%
D19*
%TO.N,/ISN*%
X119200000Y-129870000D02*
X119200000Y-123450000D01*
D20*
%TO.N,/SCL*%
X145809000Y-117351000D02*
X145809000Y-113144000D01*
X145809000Y-113144000D02*
X146697000Y-112257000D01*
X147606000Y-112257000D02*
X149623000Y-110239000D01*
X144460000Y-118700000D02*
X145809000Y-117351000D01*
X146697000Y-112257000D02*
X147606000Y-112257000D01*
%TO.N,/3V3*%
X147000000Y-123780000D02*
X155330000Y-115450000D01*
X155330000Y-115450000D02*
X155330000Y-113129000D01*
D21*
%TO.N,/V12*%
X166927000Y-125676000D02*
X170141000Y-128890000D01*
X147000000Y-106000000D02*
X150099000Y-106000000D01*
X163896000Y-119797000D02*
X163896000Y-125676000D01*
X163896000Y-125676000D02*
X166927000Y-125676000D01*
X150099000Y-106000000D02*
X163896000Y-119797000D01*
%TO.N,/VCC*%
X103300000Y-127154000D02*
X107200000Y-123254000D01*
X104097000Y-134561000D02*
X103300000Y-133764000D01*
X107200000Y-121939000D02*
X106740000Y-121479000D01*
X107200000Y-121939000D02*
X107491000Y-121939000D01*
X106740000Y-121479000D02*
X106740000Y-115632000D01*
X103300000Y-133764000D02*
X103300000Y-127154000D01*
X107200000Y-123254000D02*
X107200000Y-121939000D01*
%TO.N,/LEDA1*%
X103000000Y-125557000D02*
X102998000Y-125558000D01*
X102998000Y-125558000D02*
X102998000Y-126162000D01*
X102668000Y-135118000D02*
X103000000Y-135118000D01*
X102998000Y-126162000D02*
X102198000Y-126963000D01*
X104500000Y-121346000D02*
X103000000Y-122846000D01*
X104500000Y-121346000D02*
X104500000Y-116903000D01*
X102198000Y-134649000D02*
X102668000Y-135118000D01*
X103000000Y-122846000D02*
X103000000Y-125557000D01*
X104500000Y-116903000D02*
X103415000Y-115818000D01*
X102198000Y-126963000D02*
X102198000Y-134649000D01*
X103000000Y-135118000D02*
X103000000Y-149800000D01*
%TO.N,/LEDK1*%
X107543000Y-132922000D02*
X111981000Y-128484000D01*
X111981000Y-128484000D02*
X111981000Y-117600000D01*
X107543000Y-148757000D02*
X107543000Y-132922000D01*
X106500000Y-149800000D02*
X107543000Y-148757000D01*
%TO.N,/LEDA2*%
X110000000Y-149800000D02*
X108549000Y-148349000D01*
X104137000Y-133132000D02*
X104137000Y-128598000D01*
X108549000Y-148349000D02*
X108549000Y-136562000D01*
X105940000Y-134935000D02*
X104137000Y-133132000D01*
%TO.N,/LEDK2*%
X113500000Y-131672000D02*
X111928000Y-130100000D01*
X113500000Y-149800000D02*
X113500000Y-131672000D01*
D19*
%TO.N,/CC1*%
X141200000Y-101000000D02*
X107600000Y-101000000D01*
X141200000Y-112350000D02*
X141200000Y-101000000D01*
X107600000Y-101000000D02*
X107600000Y-119450000D01*
%TO.N,/CC2*%
X140200000Y-116200000D02*
X140200000Y-101800000D01*
X140200000Y-101800000D02*
X108600000Y-101800000D01*
X108600000Y-101800000D02*
X108600000Y-129000000D01*
D21*
%TO.N,/SWC2*%
X107284000Y-131450000D02*
X110390000Y-128344000D01*
X105907000Y-131450000D02*
X107284000Y-131450000D01*
X110390000Y-128344000D02*
X110390000Y-125174000D01*
D20*
%TO.N,/PWM1*%
X147000000Y-111080000D02*
X145637000Y-112443000D01*
X147675000Y-126152000D02*
X147821000Y-126298000D01*
X144294000Y-125925000D02*
X144294000Y-125929000D01*
X144517000Y-126152000D02*
X147675000Y-126152000D01*
X142782000Y-113606000D02*
X142782000Y-124413000D01*
X142782000Y-124413000D02*
X144294000Y-125925000D01*
X144294000Y-125929000D02*
X144517000Y-126152000D01*
X145637000Y-112443000D02*
X143945000Y-112443000D01*
X143945000Y-112443000D02*
X142782000Y-113606000D01*
%TO.N,/PWM2*%
X144460000Y-111080000D02*
X142329000Y-113211000D01*
X142329000Y-124602000D02*
X145052000Y-127325000D01*
X142329000Y-113211000D02*
X142329000Y-124602000D01*
X145052000Y-127325000D02*
X152034000Y-127325000D01*
%TO.N,/PWM3*%
X147000000Y-113620000D02*
X148131000Y-112489000D01*
X159642000Y-116467000D02*
X159642000Y-124863000D01*
X155663000Y-112489000D02*
X159642000Y-116467000D01*
X148131000Y-112489000D02*
X155663000Y-112489000D01*
%TO.N,/PWM4*%
X143236000Y-114844000D02*
X144460000Y-113620000D01*
X144709000Y-125700000D02*
X143236000Y-124227000D01*
X159225000Y-126761000D02*
X158136000Y-125672000D01*
X143236000Y-124227000D02*
X143236000Y-114844000D01*
X147533000Y-125700000D02*
X144709000Y-125700000D01*
X147562000Y-125672000D02*
X147533000Y-125700000D01*
X158136000Y-125672000D02*
X147562000Y-125672000D01*
%TO.N,/GO3*%
X159279000Y-129096000D02*
X159279000Y-128634000D01*
X159279000Y-128634000D02*
X163048000Y-124865000D01*
%TO.N,/AUX*%
X161177000Y-125543000D02*
X162497000Y-124222000D01*
X145730000Y-124206000D02*
X146681000Y-125157000D01*
X146681000Y-125157000D02*
X158538000Y-125157000D01*
X158538000Y-125157000D02*
X158924000Y-125543000D01*
X144460000Y-121240000D02*
X145730000Y-122510000D01*
X158924000Y-125543000D02*
X161177000Y-125543000D01*
X145730000Y-122510000D02*
X145730000Y-124206000D01*
D21*
%TO.N,/AUXD*%
X174551000Y-145749000D02*
X174551000Y-138000000D01*
X170500000Y-149800000D02*
X174551000Y-145749000D01*
%TD*%
%TA.AperFunction,Conductor*%
%TO.N,/GND*%
G36*
X145284272Y-124250718D02*
G01*
X145316365Y-124306304D01*
X145333496Y-124370235D01*
X145333498Y-124370240D01*
X145389512Y-124467259D01*
X145389517Y-124467265D01*
X145985071Y-125062819D01*
X146018556Y-125124142D01*
X146013572Y-125193834D01*
X145971700Y-125249767D01*
X145906236Y-125274184D01*
X145897390Y-125274500D01*
X145012000Y-125274500D01*
X144944961Y-125254815D01*
X144899206Y-125202011D01*
X144889262Y-125132853D01*
X144918287Y-125069297D01*
X144973684Y-125032568D01*
X144978219Y-125031094D01*
X145167554Y-124934622D01*
X145221716Y-124895270D01*
X145221717Y-124895270D01*
X144589409Y-124262962D01*
X144652993Y-124245925D01*
X144767007Y-124180099D01*
X144860099Y-124087007D01*
X144925925Y-123972993D01*
X144942962Y-123909408D01*
X145284272Y-124250718D01*
G37*
%TD.AperFunction*%
%TA.AperFunction,Conductor*%
G36*
X149865942Y-106620185D02*
G01*
X149886584Y-106636819D01*
X155101584Y-111851819D01*
X155135069Y-111913142D01*
X155130085Y-111982834D01*
X155088213Y-112038767D01*
X155022749Y-112063184D01*
X155013903Y-112063500D01*
X148700260Y-112063500D01*
X148633221Y-112043815D01*
X148587466Y-111991011D01*
X148577522Y-111921853D01*
X148606547Y-111858297D01*
X148612557Y-111851841D01*
X149588073Y-110875841D01*
X149649388Y-110842340D01*
X149675776Y-110839500D01*
X149702055Y-110839500D01*
X149702057Y-110839500D01*
X149854784Y-110798577D01*
X149991716Y-110719520D01*
X150103520Y-110607716D01*
X150182577Y-110470784D01*
X150223500Y-110318057D01*
X150223500Y-110159943D01*
X150182577Y-110007216D01*
X150128247Y-109913113D01*
X150103524Y-109870290D01*
X150103518Y-109870282D01*
X149991717Y-109758481D01*
X149991709Y-109758475D01*
X149854790Y-109679426D01*
X149854786Y-109679424D01*
X149854784Y-109679423D01*
X149702057Y-109638500D01*
X149543943Y-109638500D01*
X149391216Y-109679423D01*
X149391209Y-109679426D01*
X149254290Y-109758475D01*
X149254282Y-109758481D01*
X149142481Y-109870282D01*
X149142475Y-109870290D01*
X149063426Y-110007209D01*
X149063423Y-110007216D01*
X149022500Y-110159943D01*
X149022500Y-110186554D01*
X149002815Y-110253593D01*
X148986203Y-110274214D01*
X148339120Y-110921617D01*
X148277805Y-110955117D01*
X148208112Y-110950149D01*
X148152168Y-110908292D01*
X148128944Y-110853354D01*
X148122171Y-110810590D01*
X148066212Y-110638363D01*
X148066211Y-110638360D01*
X148037740Y-110582484D01*
X147983996Y-110477006D01*
X147970396Y-110458287D01*
X147877558Y-110330505D01*
X147877554Y-110330500D01*
X147749499Y-110202445D01*
X147749494Y-110202441D01*
X147602995Y-110096004D01*
X147471314Y-110028908D01*
X147420519Y-109980934D01*
X147403724Y-109913113D01*
X147426262Y-109846978D01*
X147480977Y-109803527D01*
X147489295Y-109800492D01*
X147518217Y-109791095D01*
X147707554Y-109694622D01*
X147761716Y-109655270D01*
X147761717Y-109655270D01*
X147129408Y-109022962D01*
X147192993Y-109005925D01*
X147307007Y-108940099D01*
X147400099Y-108847007D01*
X147465925Y-108732993D01*
X147482962Y-108669408D01*
X148115270Y-109301717D01*
X148115270Y-109301716D01*
X148154622Y-109247554D01*
X148251095Y-109058217D01*
X148316757Y-108856130D01*
X148316757Y-108856127D01*
X148350000Y-108646246D01*
X148350000Y-108433753D01*
X148316757Y-108223872D01*
X148316757Y-108223869D01*
X148251095Y-108021782D01*
X148154624Y-107832449D01*
X148115270Y-107778282D01*
X148115269Y-107778282D01*
X147482962Y-108410590D01*
X147465925Y-108347007D01*
X147400099Y-108232993D01*
X147307007Y-108139901D01*
X147192993Y-108074075D01*
X147129409Y-108057037D01*
X147761716Y-107424728D01*
X147707550Y-107385375D01*
X147706786Y-107384986D01*
X147706546Y-107384759D01*
X147703396Y-107382829D01*
X147703801Y-107382167D01*
X147655988Y-107337013D01*
X147639191Y-107269192D01*
X147661726Y-107203057D01*
X147716440Y-107159604D01*
X147763076Y-107150499D01*
X147894864Y-107150499D01*
X147894879Y-107150497D01*
X147894882Y-107150497D01*
X147919987Y-107147586D01*
X147919988Y-107147585D01*
X147919991Y-107147585D01*
X148022765Y-107102206D01*
X148102206Y-107022765D01*
X148147585Y-106919991D01*
X148150500Y-106894865D01*
X148150500Y-106724500D01*
X148170185Y-106657461D01*
X148222989Y-106611706D01*
X148274500Y-106600500D01*
X149798903Y-106600500D01*
X149865942Y-106620185D01*
G37*
%TD.AperFunction*%
%TA.AperFunction,Conductor*%
G36*
X146534075Y-108732993D02*
G01*
X146599901Y-108847007D01*
X146692993Y-108940099D01*
X146807007Y-109005925D01*
X146870590Y-109022962D01*
X146238282Y-109655269D01*
X146238282Y-109655270D01*
X146292449Y-109694624D01*
X146481780Y-109791094D01*
X146510705Y-109800492D01*
X146568381Y-109839929D01*
X146595580Y-109904287D01*
X146583667Y-109973134D01*
X146536424Y-110024610D01*
X146528685Y-110028908D01*
X146397004Y-110096004D01*
X146250505Y-110202441D01*
X146250500Y-110202445D01*
X146122445Y-110330500D01*
X146122441Y-110330505D01*
X146016006Y-110477002D01*
X145933788Y-110638360D01*
X145933787Y-110638363D01*
X145877829Y-110810589D01*
X145852473Y-110970678D01*
X145822544Y-111033813D01*
X145763232Y-111070744D01*
X145693369Y-111069746D01*
X145635137Y-111031136D01*
X145607527Y-110970678D01*
X145593740Y-110883639D01*
X145582171Y-110810591D01*
X145526211Y-110638361D01*
X145526211Y-110638360D01*
X145497740Y-110582484D01*
X145443996Y-110477006D01*
X145430396Y-110458287D01*
X145337558Y-110330505D01*
X145337554Y-110330500D01*
X145209499Y-110202445D01*
X145209494Y-110202441D01*
X145062995Y-110096004D01*
X144931314Y-110028908D01*
X144880519Y-109980934D01*
X144863724Y-109913113D01*
X144886262Y-109846978D01*
X144940977Y-109803527D01*
X144949295Y-109800492D01*
X144978217Y-109791095D01*
X145167554Y-109694622D01*
X145221716Y-109655270D01*
X145221717Y-109655270D01*
X144589408Y-109022962D01*
X144652993Y-109005925D01*
X144767007Y-108940099D01*
X144860099Y-108847007D01*
X144925925Y-108732993D01*
X144942962Y-108669409D01*
X145575270Y-109301717D01*
X145575270Y-109301716D01*
X145614622Y-109247554D01*
X145619514Y-109237954D01*
X145667488Y-109187157D01*
X145735308Y-109170361D01*
X145801444Y-109192897D01*
X145840486Y-109237954D01*
X145845375Y-109247550D01*
X145884728Y-109301716D01*
X146517037Y-108669408D01*
X146534075Y-108732993D01*
G37*
%TD.AperFunction*%
%TA.AperFunction,Conductor*%
G36*
X145762130Y-106038661D02*
G01*
X145820363Y-106077271D01*
X145848477Y-106141234D01*
X145849500Y-106157127D01*
X145849500Y-106894856D01*
X145849502Y-106894882D01*
X145852413Y-106919987D01*
X145852415Y-106919991D01*
X145897793Y-107022764D01*
X145897794Y-107022765D01*
X145977235Y-107102206D01*
X146080009Y-107147585D01*
X146105135Y-107150500D01*
X146236923Y-107150499D01*
X146303960Y-107170183D01*
X146349715Y-107222987D01*
X146359659Y-107292145D01*
X146330635Y-107355701D01*
X146296387Y-107382507D01*
X146296590Y-107382838D01*
X146293715Y-107384599D01*
X146293239Y-107384972D01*
X146292451Y-107385373D01*
X146292440Y-107385380D01*
X146238282Y-107424727D01*
X146238282Y-107424728D01*
X146870591Y-108057037D01*
X146807007Y-108074075D01*
X146692993Y-108139901D01*
X146599901Y-108232993D01*
X146534075Y-108347007D01*
X146517037Y-108410591D01*
X145884728Y-107778282D01*
X145884727Y-107778282D01*
X145845380Y-107832440D01*
X145840483Y-107842051D01*
X145792506Y-107892845D01*
X145724684Y-107909638D01*
X145658550Y-107887098D01*
X145619516Y-107842048D01*
X145614626Y-107832452D01*
X145575270Y-107778282D01*
X145575269Y-107778282D01*
X144942962Y-108410590D01*
X144925925Y-108347007D01*
X144860099Y-108232993D01*
X144767007Y-108139901D01*
X144652993Y-108074075D01*
X144589409Y-108057037D01*
X145221716Y-107424728D01*
X145167550Y-107385375D01*
X144978217Y-107288904D01*
X144949292Y-107279506D01*
X144891616Y-107240068D01*
X144864418Y-107175710D01*
X144876333Y-107106863D01*
X144923577Y-107055388D01*
X144931315Y-107051090D01*
X145062994Y-106983996D01*
X145209501Y-106877553D01*
X145337553Y-106749501D01*
X145443996Y-106602994D01*
X145526211Y-106441639D01*
X145582171Y-106269409D01*
X145603027Y-106137729D01*
X145632956Y-106074595D01*
X145692267Y-106037663D01*
X145762130Y-106038661D01*
G37*
%TD.AperFunction*%
%TA.AperFunction,Conductor*%
G36*
X172443039Y-100320185D02*
G01*
X172488794Y-100372989D01*
X172500000Y-100424500D01*
X172500000Y-130500000D01*
X187575500Y-130500000D01*
X187642539Y-130519685D01*
X187688294Y-130572489D01*
X187699500Y-130624000D01*
X187699500Y-153995572D01*
X187699184Y-154004418D01*
X187699184Y-154004419D01*
X187682833Y-154233019D01*
X187680315Y-154250530D01*
X187632544Y-154470133D01*
X187627560Y-154487109D01*
X187549016Y-154697691D01*
X187541666Y-154713783D01*
X187433961Y-154911032D01*
X187424396Y-154925917D01*
X187289708Y-155105838D01*
X187278123Y-155119207D01*
X187119208Y-155278122D01*
X187105838Y-155289708D01*
X186925917Y-155424396D01*
X186911032Y-155433961D01*
X186713783Y-155541666D01*
X186697691Y-155549016D01*
X186487109Y-155627560D01*
X186470136Y-155632543D01*
X186470133Y-155632544D01*
X186250530Y-155680315D01*
X186233019Y-155682833D01*
X186025320Y-155697688D01*
X186004417Y-155699184D01*
X185995572Y-155699500D01*
X102004428Y-155699500D01*
X101995582Y-155699184D01*
X101766982Y-155682834D01*
X101749470Y-155680316D01*
X101529862Y-155632543D01*
X101512887Y-155627559D01*
X101302311Y-155549019D01*
X101286217Y-155541669D01*
X101088963Y-155433959D01*
X101074080Y-155424394D01*
X100894163Y-155289710D01*
X100880792Y-155278124D01*
X100721875Y-155119207D01*
X100710289Y-155105836D01*
X100575605Y-154925919D01*
X100566040Y-154911036D01*
X100458330Y-154713782D01*
X100450983Y-154697694D01*
X100372437Y-154487103D01*
X100367458Y-154470144D01*
X100319683Y-154250529D01*
X100317165Y-154233017D01*
X100308959Y-154118284D01*
X100300816Y-154004418D01*
X100300500Y-153995572D01*
X100300500Y-152381995D01*
X182699500Y-152381995D01*
X182699500Y-152618004D01*
X182699501Y-152618020D01*
X182730306Y-152852010D01*
X182791394Y-153079993D01*
X182881714Y-153298045D01*
X182881719Y-153298056D01*
X182952677Y-153420957D01*
X182999727Y-153502450D01*
X182999729Y-153502453D01*
X182999730Y-153502454D01*
X183143406Y-153689697D01*
X183143412Y-153689704D01*
X183310295Y-153856587D01*
X183310301Y-153856592D01*
X183497550Y-154000273D01*
X183628918Y-154076118D01*
X183701943Y-154118280D01*
X183701948Y-154118282D01*
X183701951Y-154118284D01*
X183920007Y-154208606D01*
X184147986Y-154269693D01*
X184381989Y-154300500D01*
X184381996Y-154300500D01*
X184618004Y-154300500D01*
X184618011Y-154300500D01*
X184852014Y-154269693D01*
X185079993Y-154208606D01*
X185298049Y-154118284D01*
X185502450Y-154000273D01*
X185689699Y-153856592D01*
X185856592Y-153689699D01*
X186000273Y-153502450D01*
X186118284Y-153298049D01*
X186208606Y-153079993D01*
X186269693Y-152852014D01*
X186300500Y-152618011D01*
X186300500Y-152381989D01*
X186269693Y-152147986D01*
X186208606Y-151920007D01*
X186118284Y-151701951D01*
X186118282Y-151701948D01*
X186118280Y-151701943D01*
X186076118Y-151628918D01*
X186000273Y-151497550D01*
X185856592Y-151310301D01*
X185856587Y-151310295D01*
X185689704Y-151143412D01*
X185689697Y-151143406D01*
X185502454Y-150999730D01*
X185502453Y-150999729D01*
X185502450Y-150999727D01*
X185420957Y-150952677D01*
X185298056Y-150881719D01*
X185298045Y-150881714D01*
X185079993Y-150791394D01*
X184852010Y-150730306D01*
X184618020Y-150699501D01*
X184618017Y-150699500D01*
X184618011Y-150699500D01*
X184381989Y-150699500D01*
X184381983Y-150699500D01*
X184381979Y-150699501D01*
X184147989Y-150730306D01*
X183920006Y-150791394D01*
X183701954Y-150881714D01*
X183701943Y-150881719D01*
X183497545Y-150999730D01*
X183310302Y-151143406D01*
X183310295Y-151143412D01*
X183143412Y-151310295D01*
X183143406Y-151310302D01*
X182999730Y-151497545D01*
X182881719Y-151701943D01*
X182881714Y-151701954D01*
X182791394Y-151920006D01*
X182730306Y-152147989D01*
X182699501Y-152381979D01*
X182699500Y-152381995D01*
X100300500Y-152381995D01*
X100300500Y-148806900D01*
X101499500Y-148806900D01*
X101499500Y-150793091D01*
X101510123Y-150881562D01*
X101565639Y-151022342D01*
X101565640Y-151022344D01*
X101657077Y-151142922D01*
X101719908Y-151190568D01*
X101777658Y-151234361D01*
X101918436Y-151289876D01*
X102006901Y-151300500D01*
X103993098Y-151300499D01*
X104081564Y-151289876D01*
X104222342Y-151234361D01*
X104342922Y-151142922D01*
X104434361Y-151022342D01*
X104489876Y-150881564D01*
X104500500Y-150793099D01*
X104500499Y-148806902D01*
X104489876Y-148718436D01*
X104434361Y-148577658D01*
X104434359Y-148577655D01*
X104342922Y-148457077D01*
X104222344Y-148365640D01*
X104222342Y-148365639D01*
X104081564Y-148310124D01*
X104081561Y-148310123D01*
X103993099Y-148299500D01*
X103724500Y-148299500D01*
X103657461Y-148279815D01*
X103611706Y-148227011D01*
X103600500Y-148175500D01*
X103600500Y-135182517D01*
X103602210Y-135176690D01*
X103601062Y-135170730D01*
X103611938Y-135143560D01*
X103620185Y-135115478D01*
X103624773Y-135111502D01*
X103627030Y-135105865D01*
X103650873Y-135088886D01*
X103672989Y-135069723D01*
X103678998Y-135068858D01*
X103683944Y-135065337D01*
X103713179Y-135063944D01*
X103742147Y-135059779D01*
X103749220Y-135062227D01*
X103753734Y-135062012D01*
X103786500Y-135075130D01*
X103815096Y-135091640D01*
X103815097Y-135091641D01*
X103865213Y-135120576D01*
X103865215Y-135120577D01*
X104017942Y-135161500D01*
X104017943Y-135161500D01*
X104017944Y-135161500D01*
X104176055Y-135161500D01*
X104176057Y-135161500D01*
X104328785Y-135120577D01*
X104378904Y-135091639D01*
X104465716Y-135041520D01*
X104577520Y-134929716D01*
X104630695Y-134837613D01*
X104656577Y-134792785D01*
X104665347Y-134760050D01*
X104669598Y-134750710D01*
X104685999Y-134731727D01*
X104699055Y-134710309D01*
X104708449Y-134705745D01*
X104715279Y-134697841D01*
X104739338Y-134690739D01*
X104761901Y-134679779D01*
X104772272Y-134681018D01*
X104782290Y-134678062D01*
X104806368Y-134685095D01*
X104831277Y-134688073D01*
X104842447Y-134695633D01*
X104849357Y-134697652D01*
X104854965Y-134704106D01*
X104870146Y-134714381D01*
X105455139Y-135299374D01*
X105455149Y-135299385D01*
X105459479Y-135303715D01*
X105459480Y-135303716D01*
X105571284Y-135415520D01*
X105658095Y-135465639D01*
X105658097Y-135465641D01*
X105696151Y-135487611D01*
X105708215Y-135494577D01*
X105860943Y-135535500D01*
X105860945Y-135535500D01*
X106019055Y-135535500D01*
X106019057Y-135535500D01*
X106171785Y-135494577D01*
X106221904Y-135465639D01*
X106308716Y-135415520D01*
X106420520Y-135303716D01*
X106482468Y-135196418D01*
X106499577Y-135166785D01*
X106540500Y-135014057D01*
X106540500Y-134855943D01*
X106499577Y-134703215D01*
X106463112Y-134640057D01*
X106420520Y-134566284D01*
X106308716Y-134454480D01*
X106308715Y-134454479D01*
X106304385Y-134450149D01*
X106304374Y-134450139D01*
X104773819Y-132919584D01*
X104740334Y-132858261D01*
X104737500Y-132831903D01*
X104737500Y-128518945D01*
X104737500Y-128518943D01*
X104696577Y-128366216D01*
X104673302Y-128325902D01*
X104617524Y-128229290D01*
X104617518Y-128229282D01*
X104505717Y-128117481D01*
X104505709Y-128117475D01*
X104368790Y-128038426D01*
X104368786Y-128038424D01*
X104368784Y-128038423D01*
X104216057Y-127997500D01*
X104057943Y-127997500D01*
X104057941Y-127997500D01*
X104056592Y-127997862D01*
X104055409Y-127997833D01*
X104049887Y-127998561D01*
X104049773Y-127997699D01*
X103986742Y-127996199D01*
X103928880Y-127957035D01*
X103901377Y-127892807D01*
X103900500Y-127878087D01*
X103900500Y-127454096D01*
X103920185Y-127387057D01*
X103936814Y-127366420D01*
X107558506Y-123744727D01*
X107558511Y-123744724D01*
X107568714Y-123734520D01*
X107568716Y-123734520D01*
X107680520Y-123622716D01*
X107745995Y-123509309D01*
X107759577Y-123485785D01*
X107800501Y-123333057D01*
X107800501Y-123174943D01*
X107800501Y-123167348D01*
X107800500Y-123167330D01*
X107800500Y-122525299D01*
X107820185Y-122458260D01*
X107838978Y-122435511D01*
X107849688Y-122425309D01*
X107859716Y-122419520D01*
X107938883Y-122340352D01*
X107939978Y-122339310D01*
X107969762Y-122323974D01*
X107999142Y-122307932D01*
X108000703Y-122308043D01*
X108002097Y-122307326D01*
X108035434Y-122310527D01*
X108068834Y-122312916D01*
X108070088Y-122313855D01*
X108071647Y-122314005D01*
X108097953Y-122334714D01*
X108124767Y-122354788D01*
X108125314Y-122356255D01*
X108126546Y-122357225D01*
X108137486Y-122388890D01*
X108149184Y-122420252D01*
X108149283Y-122423033D01*
X108149363Y-122423264D01*
X108149300Y-122423520D01*
X108149500Y-122429098D01*
X108149500Y-128550069D01*
X108129815Y-128617108D01*
X108123875Y-128625557D01*
X108119475Y-128631290D01*
X108040426Y-128768209D01*
X108040423Y-128768216D01*
X107999500Y-128920943D01*
X107999500Y-129079057D01*
X108031109Y-129197021D01*
X108040423Y-129231783D01*
X108040426Y-129231790D01*
X108119475Y-129368709D01*
X108119481Y-129368717D01*
X108230083Y-129479319D01*
X108263568Y-129540642D01*
X108258584Y-129610334D01*
X108230083Y-129654681D01*
X107071584Y-130813181D01*
X107010261Y-130846666D01*
X106983903Y-130849500D01*
X105827943Y-130849500D01*
X105675216Y-130890423D01*
X105675209Y-130890426D01*
X105538290Y-130969475D01*
X105538282Y-130969481D01*
X105426481Y-131081282D01*
X105426475Y-131081290D01*
X105347426Y-131218209D01*
X105347423Y-131218216D01*
X105306500Y-131370943D01*
X105306500Y-131529057D01*
X105323619Y-131592944D01*
X105347423Y-131681783D01*
X105347426Y-131681790D01*
X105426475Y-131818709D01*
X105426478Y-131818713D01*
X105426480Y-131818716D01*
X105538284Y-131930520D01*
X105538286Y-131930521D01*
X105538290Y-131930524D01*
X105564644Y-131945739D01*
X105675216Y-132009577D01*
X105827943Y-132050500D01*
X107197333Y-132050500D01*
X107204939Y-132050500D01*
X107204943Y-132050501D01*
X107265903Y-132050501D01*
X107305273Y-132062061D01*
X107332940Y-132070186D01*
X107332942Y-132070187D01*
X107378696Y-132122991D01*
X107388639Y-132192150D01*
X107373175Y-132226010D01*
X107359614Y-132255704D01*
X107353582Y-132262182D01*
X107062481Y-132553282D01*
X107062479Y-132553285D01*
X107012361Y-132640094D01*
X107012359Y-132640096D01*
X106983425Y-132690209D01*
X106983424Y-132690210D01*
X106983423Y-132690215D01*
X106942499Y-132842943D01*
X106942499Y-132842945D01*
X106942499Y-133011046D01*
X106942500Y-133011059D01*
X106942500Y-148205695D01*
X106922815Y-148272734D01*
X106870011Y-148318489D01*
X106800853Y-148328433D01*
X106799102Y-148328168D01*
X106618097Y-148299500D01*
X106618092Y-148299500D01*
X106381908Y-148299500D01*
X106381903Y-148299500D01*
X106148631Y-148336446D01*
X105924003Y-148409433D01*
X105713566Y-148516657D01*
X105604550Y-148595862D01*
X105522490Y-148655483D01*
X105522488Y-148655485D01*
X105522487Y-148655485D01*
X105355485Y-148822487D01*
X105355485Y-148822488D01*
X105355483Y-148822490D01*
X105295862Y-148904550D01*
X105216657Y-149013566D01*
X105109433Y-149224003D01*
X105036446Y-149448631D01*
X104999500Y-149681902D01*
X104999500Y-149918097D01*
X105036446Y-150151368D01*
X105109433Y-150375996D01*
X105216657Y-150586433D01*
X105355483Y-150777510D01*
X105522490Y-150944517D01*
X105713567Y-151083343D01*
X105790107Y-151122342D01*
X105924003Y-151190566D01*
X105924005Y-151190566D01*
X105924008Y-151190568D01*
X106044412Y-151229689D01*
X106148631Y-151263553D01*
X106381903Y-151300500D01*
X106381908Y-151300500D01*
X106618097Y-151300500D01*
X106851368Y-151263553D01*
X106941211Y-151234361D01*
X107075992Y-151190568D01*
X107286433Y-151083343D01*
X107477510Y-150944517D01*
X107644517Y-150777510D01*
X107783343Y-150586433D01*
X107890568Y-150375992D01*
X107963553Y-150151368D01*
X107999254Y-149925961D01*
X108000500Y-149918097D01*
X108000500Y-149681902D01*
X107980347Y-149554666D01*
X107963553Y-149448632D01*
X107922547Y-149322432D01*
X107920553Y-149252595D01*
X107952796Y-149196438D01*
X108023520Y-149125716D01*
X108088269Y-149013567D01*
X108106641Y-148981746D01*
X108108780Y-148982981D01*
X108144786Y-148938282D01*
X108211076Y-148916204D01*
X108278779Y-148933469D01*
X108303208Y-148952443D01*
X108547200Y-149196435D01*
X108580685Y-149257758D01*
X108577450Y-149322433D01*
X108536447Y-149448628D01*
X108499500Y-149681902D01*
X108499500Y-149918097D01*
X108536446Y-150151368D01*
X108609433Y-150375996D01*
X108716657Y-150586433D01*
X108855483Y-150777510D01*
X109022490Y-150944517D01*
X109213567Y-151083343D01*
X109290107Y-151122342D01*
X109424003Y-151190566D01*
X109424005Y-151190566D01*
X109424008Y-151190568D01*
X109544412Y-151229689D01*
X109648631Y-151263553D01*
X109881903Y-151300500D01*
X109881908Y-151300500D01*
X110118097Y-151300500D01*
X110351368Y-151263553D01*
X110441211Y-151234361D01*
X110575992Y-151190568D01*
X110786433Y-151083343D01*
X110977510Y-150944517D01*
X111144517Y-150777510D01*
X111283343Y-150586433D01*
X111390568Y-150375992D01*
X111463553Y-150151368D01*
X111499254Y-149925961D01*
X111500500Y-149918097D01*
X111500500Y-149681902D01*
X111463553Y-149448631D01*
X111401534Y-149257758D01*
X111390568Y-149224008D01*
X111390566Y-149224005D01*
X111390566Y-149224003D01*
X111283342Y-149013566D01*
X111265337Y-148988784D01*
X111144517Y-148822490D01*
X110977510Y-148655483D01*
X110786433Y-148516657D01*
X110786429Y-148516655D01*
X110575996Y-148409433D01*
X110351368Y-148336446D01*
X110118097Y-148299500D01*
X110118092Y-148299500D01*
X109881908Y-148299500D01*
X109881903Y-148299500D01*
X109648628Y-148336447D01*
X109522433Y-148377450D01*
X109452592Y-148379445D01*
X109396435Y-148347200D01*
X109185819Y-148136584D01*
X109152334Y-148075261D01*
X109149500Y-148048903D01*
X109149500Y-136482945D01*
X109149500Y-136482943D01*
X109108577Y-136330216D01*
X109096617Y-136309500D01*
X109029524Y-136193290D01*
X109029518Y-136193282D01*
X108917717Y-136081481D01*
X108917709Y-136081475D01*
X108780790Y-136002426D01*
X108780786Y-136002424D01*
X108780784Y-136002423D01*
X108628057Y-135961500D01*
X108469943Y-135961500D01*
X108317212Y-136002424D01*
X108314946Y-136003363D01*
X108312881Y-136003584D01*
X108309365Y-136004527D01*
X108309218Y-136003978D01*
X108245476Y-136010827D01*
X108182999Y-135979549D01*
X108147350Y-135919458D01*
X108143500Y-135888799D01*
X108143500Y-133222097D01*
X108163185Y-133155058D01*
X108179819Y-133134416D01*
X109632452Y-131681783D01*
X111134990Y-130179244D01*
X111136749Y-130178283D01*
X111137767Y-130176552D01*
X111167290Y-130161607D01*
X111196311Y-130145761D01*
X111198312Y-130145904D01*
X111200105Y-130144997D01*
X111233015Y-130148385D01*
X111266003Y-130150745D01*
X111267610Y-130151948D01*
X111269608Y-130152154D01*
X111295462Y-130172798D01*
X111321936Y-130192617D01*
X111323133Y-130194893D01*
X111324207Y-130195751D01*
X111329102Y-130206242D01*
X111340147Y-130227241D01*
X111341418Y-130231006D01*
X111368423Y-130331785D01*
X111379240Y-130350520D01*
X111385394Y-130361180D01*
X111385395Y-130361181D01*
X111447475Y-130468709D01*
X111447481Y-130468717D01*
X111566349Y-130587585D01*
X111566355Y-130587590D01*
X112863181Y-131884416D01*
X112896666Y-131945739D01*
X112899500Y-131972097D01*
X112899500Y-148345931D01*
X112879815Y-148412970D01*
X112831796Y-148456415D01*
X112713568Y-148516655D01*
X112579896Y-148613774D01*
X112522490Y-148655483D01*
X112522488Y-148655485D01*
X112522487Y-148655485D01*
X112355485Y-148822487D01*
X112355485Y-148822488D01*
X112355483Y-148822490D01*
X112295862Y-148904550D01*
X112216657Y-149013566D01*
X112109433Y-149224003D01*
X112036446Y-149448631D01*
X111999500Y-149681902D01*
X111999500Y-149918097D01*
X112036446Y-150151368D01*
X112109433Y-150375996D01*
X112216657Y-150586433D01*
X112355483Y-150777510D01*
X112522490Y-150944517D01*
X112713567Y-151083343D01*
X112790107Y-151122342D01*
X112924003Y-151190566D01*
X112924005Y-151190566D01*
X112924008Y-151190568D01*
X113044412Y-151229689D01*
X113148631Y-151263553D01*
X113381903Y-151300500D01*
X113381908Y-151300500D01*
X113618097Y-151300500D01*
X113851368Y-151263553D01*
X113941211Y-151234361D01*
X114075992Y-151190568D01*
X114286433Y-151083343D01*
X114477510Y-150944517D01*
X114644517Y-150777510D01*
X114783343Y-150586433D01*
X114890568Y-150375992D01*
X114963553Y-150151368D01*
X114999254Y-149925961D01*
X115000500Y-149918097D01*
X115000500Y-149681902D01*
X114963553Y-149448631D01*
X114901534Y-149257758D01*
X114890568Y-149224008D01*
X114890566Y-149224005D01*
X114890566Y-149224003D01*
X114783342Y-149013566D01*
X114765337Y-148988784D01*
X114644517Y-148822490D01*
X114528925Y-148706898D01*
X118399500Y-148706898D01*
X118399500Y-150893102D01*
X118405126Y-150939954D01*
X118410122Y-150981561D01*
X118465639Y-151122343D01*
X118557077Y-151242922D01*
X118677656Y-151334360D01*
X118677657Y-151334360D01*
X118677658Y-151334361D01*
X118818436Y-151389877D01*
X118906898Y-151400500D01*
X118906903Y-151400500D01*
X121093097Y-151400500D01*
X121093102Y-151400500D01*
X121181564Y-151389877D01*
X121322342Y-151334361D01*
X121442922Y-151242922D01*
X121534361Y-151122342D01*
X121589877Y-150981564D01*
X121600500Y-150893102D01*
X121600500Y-149674038D01*
X123479500Y-149674038D01*
X123479500Y-149925961D01*
X123518910Y-150174785D01*
X123596760Y-150414383D01*
X123711132Y-150638848D01*
X123859201Y-150842649D01*
X123859205Y-150842654D01*
X124037345Y-151020794D01*
X124037350Y-151020798D01*
X124177116Y-151122343D01*
X124241155Y-151168870D01*
X124384184Y-151241747D01*
X124465616Y-151283239D01*
X124465618Y-151283239D01*
X124465621Y-151283241D01*
X124705215Y-151361090D01*
X124954038Y-151400500D01*
X124954039Y-151400500D01*
X125205961Y-151400500D01*
X125205962Y-151400500D01*
X125454785Y-151361090D01*
X125694379Y-151283241D01*
X125918845Y-151168870D01*
X126122656Y-151020793D01*
X126300793Y-150842656D01*
X126448870Y-150638845D01*
X126563241Y-150414379D01*
X126641090Y-150174785D01*
X126680500Y-149925962D01*
X126680500Y-149674038D01*
X126641090Y-149425215D01*
X126563241Y-149185621D01*
X126563239Y-149185618D01*
X126563239Y-149185616D01*
X126475575Y-149013567D01*
X126448870Y-148961155D01*
X126387060Y-148876080D01*
X126314404Y-148776077D01*
X126314403Y-148776076D01*
X126300796Y-148757347D01*
X126250347Y-148706898D01*
X130399500Y-148706898D01*
X130399500Y-150893102D01*
X130405126Y-150939954D01*
X130410122Y-150981561D01*
X130465639Y-151122343D01*
X130557077Y-151242922D01*
X130677656Y-151334360D01*
X130677657Y-151334360D01*
X130677658Y-151334361D01*
X130818436Y-151389877D01*
X130906898Y-151400500D01*
X130906903Y-151400500D01*
X133093097Y-151400500D01*
X133093102Y-151400500D01*
X133181564Y-151389877D01*
X133322342Y-151334361D01*
X133442922Y-151242922D01*
X133534361Y-151122342D01*
X133589877Y-150981564D01*
X133600500Y-150893102D01*
X133600500Y-149674038D01*
X135479500Y-149674038D01*
X135479500Y-149925961D01*
X135518910Y-150174785D01*
X135596760Y-150414383D01*
X135711132Y-150638848D01*
X135859201Y-150842649D01*
X135859205Y-150842654D01*
X136037345Y-151020794D01*
X136037350Y-151020798D01*
X136177116Y-151122343D01*
X136241155Y-151168870D01*
X136384184Y-151241747D01*
X136465616Y-151283239D01*
X136465618Y-151283239D01*
X136465621Y-151283241D01*
X136705215Y-151361090D01*
X136954038Y-151400500D01*
X136954039Y-151400500D01*
X137205961Y-151400500D01*
X137205962Y-151400500D01*
X137454785Y-151361090D01*
X137694379Y-151283241D01*
X137918845Y-151168870D01*
X138122656Y-151020793D01*
X138300793Y-150842656D01*
X138448870Y-150638845D01*
X138563241Y-150414379D01*
X138641090Y-150174785D01*
X138680500Y-149925962D01*
X138680500Y-149674038D01*
X138641090Y-149425215D01*
X138563241Y-149185621D01*
X138563239Y-149185618D01*
X138563239Y-149185616D01*
X138475575Y-149013567D01*
X138448870Y-148961155D01*
X138387060Y-148876080D01*
X138314404Y-148776077D01*
X138314403Y-148776076D01*
X138300796Y-148757347D01*
X138250347Y-148706898D01*
X142899500Y-148706898D01*
X142899500Y-150893102D01*
X142905126Y-150939954D01*
X142910122Y-150981561D01*
X142965639Y-151122343D01*
X143057077Y-151242922D01*
X143177656Y-151334360D01*
X143177657Y-151334360D01*
X143177658Y-151334361D01*
X143318436Y-151389877D01*
X143406898Y-151400500D01*
X143406903Y-151400500D01*
X145593097Y-151400500D01*
X145593102Y-151400500D01*
X145681564Y-151389877D01*
X145822342Y-151334361D01*
X145942922Y-151242922D01*
X146034361Y-151122342D01*
X146089877Y-150981564D01*
X146100500Y-150893102D01*
X146100500Y-149674038D01*
X147979500Y-149674038D01*
X147979500Y-149925961D01*
X148018910Y-150174785D01*
X148096760Y-150414383D01*
X148211132Y-150638848D01*
X148359201Y-150842649D01*
X148359205Y-150842654D01*
X148537345Y-151020794D01*
X148537350Y-151020798D01*
X148677116Y-151122343D01*
X148741155Y-151168870D01*
X148884184Y-151241747D01*
X148965616Y-151283239D01*
X148965618Y-151283239D01*
X148965621Y-151283241D01*
X149205215Y-151361090D01*
X149454038Y-151400500D01*
X149454039Y-151400500D01*
X149705961Y-151400500D01*
X149705962Y-151400500D01*
X149954785Y-151361090D01*
X150194379Y-151283241D01*
X150418845Y-151168870D01*
X150622656Y-151020793D01*
X150800793Y-150842656D01*
X150948870Y-150638845D01*
X151063241Y-150414379D01*
X151141090Y-150174785D01*
X151180500Y-149925962D01*
X151180500Y-149674038D01*
X153059500Y-149674038D01*
X153059500Y-149925961D01*
X153098910Y-150174785D01*
X153176760Y-150414383D01*
X153291132Y-150638848D01*
X153439201Y-150842649D01*
X153439205Y-150842654D01*
X153617345Y-151020794D01*
X153617350Y-151020798D01*
X153757116Y-151122343D01*
X153821155Y-151168870D01*
X153964184Y-151241747D01*
X154045616Y-151283239D01*
X154045618Y-151283239D01*
X154045621Y-151283241D01*
X154285215Y-151361090D01*
X154534038Y-151400500D01*
X154534039Y-151400500D01*
X154785961Y-151400500D01*
X154785962Y-151400500D01*
X155034785Y-151361090D01*
X155274379Y-151283241D01*
X155498845Y-151168870D01*
X155702656Y-151020793D01*
X155880793Y-150842656D01*
X156028870Y-150638845D01*
X156143241Y-150414379D01*
X156221090Y-150174785D01*
X156260500Y-149925962D01*
X156260500Y-149674038D01*
X158139500Y-149674038D01*
X158139500Y-149925961D01*
X158178910Y-150174785D01*
X158256760Y-150414383D01*
X158371132Y-150638848D01*
X158519201Y-150842649D01*
X158519205Y-150842654D01*
X158697345Y-151020794D01*
X158697350Y-151020798D01*
X158837116Y-151122343D01*
X158901155Y-151168870D01*
X159044184Y-151241747D01*
X159125616Y-151283239D01*
X159125618Y-151283239D01*
X159125621Y-151283241D01*
X159365215Y-151361090D01*
X159614038Y-151400500D01*
X159614039Y-151400500D01*
X159865961Y-151400500D01*
X159865962Y-151400500D01*
X160114785Y-151361090D01*
X160354379Y-151283241D01*
X160578845Y-151168870D01*
X160782656Y-151020793D01*
X160960793Y-150842656D01*
X161108870Y-150638845D01*
X161223241Y-150414379D01*
X161301090Y-150174785D01*
X161340500Y-149925962D01*
X161340500Y-149674038D01*
X161301090Y-149425215D01*
X161223241Y-149185621D01*
X161223239Y-149185618D01*
X161223239Y-149185616D01*
X161135575Y-149013567D01*
X161108870Y-148961155D01*
X161047060Y-148876080D01*
X160996798Y-148806900D01*
X165499500Y-148806900D01*
X165499500Y-150793091D01*
X165510123Y-150881562D01*
X165565639Y-151022342D01*
X165565640Y-151022344D01*
X165657077Y-151142922D01*
X165719908Y-151190568D01*
X165777658Y-151234361D01*
X165918436Y-151289876D01*
X166006901Y-151300500D01*
X167993098Y-151300499D01*
X168081564Y-151289876D01*
X168222342Y-151234361D01*
X168342922Y-151142922D01*
X168434361Y-151022342D01*
X168489876Y-150881564D01*
X168500500Y-150793099D01*
X168500499Y-149681902D01*
X168999500Y-149681902D01*
X168999500Y-149918097D01*
X169036446Y-150151368D01*
X169109433Y-150375996D01*
X169216657Y-150586433D01*
X169355483Y-150777510D01*
X169522490Y-150944517D01*
X169713567Y-151083343D01*
X169790107Y-151122342D01*
X169924003Y-151190566D01*
X169924005Y-151190566D01*
X169924008Y-151190568D01*
X170044412Y-151229689D01*
X170148631Y-151263553D01*
X170381903Y-151300500D01*
X170381908Y-151300500D01*
X170618097Y-151300500D01*
X170851368Y-151263553D01*
X170941211Y-151234361D01*
X171075992Y-151190568D01*
X171286433Y-151083343D01*
X171477510Y-150944517D01*
X171644517Y-150777510D01*
X171783343Y-150586433D01*
X171890568Y-150375992D01*
X171963553Y-150151368D01*
X171999254Y-149925961D01*
X172000500Y-149918097D01*
X172000500Y-149681902D01*
X171975868Y-149526390D01*
X171963553Y-149448632D01*
X171922547Y-149322433D01*
X171920553Y-149252593D01*
X171952796Y-149196437D01*
X174919713Y-146229521D01*
X174919716Y-146229520D01*
X175031520Y-146117716D01*
X175081639Y-146030904D01*
X175110577Y-145980785D01*
X175151500Y-145828057D01*
X175151500Y-145669943D01*
X175151500Y-139381995D01*
X182699500Y-139381995D01*
X182699500Y-139618004D01*
X182699501Y-139618020D01*
X182730306Y-139852010D01*
X182791394Y-140079993D01*
X182881714Y-140298045D01*
X182881719Y-140298056D01*
X182952677Y-140420957D01*
X182999727Y-140502450D01*
X182999729Y-140502453D01*
X182999730Y-140502454D01*
X183143406Y-140689697D01*
X183143412Y-140689704D01*
X183310295Y-140856587D01*
X183310301Y-140856592D01*
X183497550Y-141000273D01*
X183628918Y-141076118D01*
X183701943Y-141118280D01*
X183701948Y-141118282D01*
X183701951Y-141118284D01*
X183920007Y-141208606D01*
X184147986Y-141269693D01*
X184381989Y-141300500D01*
X184381996Y-141300500D01*
X184618004Y-141300500D01*
X184618011Y-141300500D01*
X184852014Y-141269693D01*
X185079993Y-141208606D01*
X185298049Y-141118284D01*
X185502450Y-141000273D01*
X185689699Y-140856592D01*
X185856592Y-140689699D01*
X186000273Y-140502450D01*
X186118284Y-140298049D01*
X186208606Y-140079993D01*
X186269693Y-139852014D01*
X186300500Y-139618011D01*
X186300500Y-139381989D01*
X186269693Y-139147986D01*
X186208606Y-138920007D01*
X186118284Y-138701951D01*
X186118282Y-138701948D01*
X186118280Y-138701943D01*
X186048942Y-138581847D01*
X186000273Y-138497550D01*
X185941001Y-138420306D01*
X185856593Y-138310302D01*
X185856587Y-138310295D01*
X185689704Y-138143412D01*
X185689697Y-138143406D01*
X185502454Y-137999730D01*
X185502453Y-137999729D01*
X185502450Y-137999727D01*
X185365996Y-137920945D01*
X185298056Y-137881719D01*
X185298045Y-137881714D01*
X185079993Y-137791394D01*
X184852010Y-137730306D01*
X184618020Y-137699501D01*
X184618017Y-137699500D01*
X184618011Y-137699500D01*
X184381989Y-137699500D01*
X184381983Y-137699500D01*
X184381979Y-137699501D01*
X184147989Y-137730306D01*
X183920006Y-137791394D01*
X183701954Y-137881714D01*
X183701943Y-137881719D01*
X183497545Y-137999730D01*
X183310302Y-138143406D01*
X183310295Y-138143412D01*
X183143412Y-138310295D01*
X183143406Y-138310302D01*
X182999730Y-138497545D01*
X182881719Y-138701943D01*
X182881714Y-138701954D01*
X182791394Y-138920006D01*
X182730306Y-139147989D01*
X182699501Y-139381979D01*
X182699500Y-139381995D01*
X175151500Y-139381995D01*
X175151500Y-137920943D01*
X175110577Y-137768216D01*
X175110573Y-137768209D01*
X175031524Y-137631290D01*
X175031518Y-137631282D01*
X174919717Y-137519481D01*
X174919709Y-137519475D01*
X174782790Y-137440426D01*
X174782786Y-137440424D01*
X174782784Y-137440423D01*
X174630057Y-137399500D01*
X174471943Y-137399500D01*
X174319216Y-137440423D01*
X174319209Y-137440426D01*
X174182290Y-137519475D01*
X174182282Y-137519481D01*
X174070481Y-137631282D01*
X174070475Y-137631290D01*
X173991426Y-137768209D01*
X173991423Y-137768216D01*
X173950500Y-137920943D01*
X173950500Y-145448902D01*
X173930815Y-145515941D01*
X173914181Y-145536583D01*
X171103563Y-148347200D01*
X171042240Y-148380685D01*
X170977564Y-148377450D01*
X170851370Y-148336447D01*
X170618097Y-148299500D01*
X170618092Y-148299500D01*
X170381908Y-148299500D01*
X170381903Y-148299500D01*
X170148631Y-148336446D01*
X169924003Y-148409433D01*
X169713566Y-148516657D01*
X169604550Y-148595862D01*
X169522490Y-148655483D01*
X169522488Y-148655485D01*
X169522487Y-148655485D01*
X169355485Y-148822487D01*
X169355485Y-148822488D01*
X169355483Y-148822490D01*
X169295862Y-148904550D01*
X169216657Y-149013566D01*
X169109433Y-149224003D01*
X169036446Y-149448631D01*
X168999500Y-149681902D01*
X168500499Y-149681902D01*
X168500499Y-148806902D01*
X168489876Y-148718436D01*
X168434361Y-148577658D01*
X168434359Y-148577655D01*
X168342922Y-148457077D01*
X168222344Y-148365640D01*
X168222342Y-148365639D01*
X168081564Y-148310124D01*
X168081561Y-148310123D01*
X167993099Y-148299500D01*
X166006908Y-148299500D01*
X165918437Y-148310123D01*
X165777657Y-148365639D01*
X165777655Y-148365640D01*
X165657077Y-148457077D01*
X165565640Y-148577655D01*
X165565029Y-148579205D01*
X165534949Y-148655485D01*
X165510124Y-148718437D01*
X165510123Y-148718438D01*
X165499500Y-148806900D01*
X160996798Y-148806900D01*
X160960798Y-148757350D01*
X160960794Y-148757345D01*
X160782654Y-148579205D01*
X160782649Y-148579201D01*
X160578848Y-148431132D01*
X160578847Y-148431131D01*
X160578845Y-148431130D01*
X160479841Y-148380685D01*
X160354383Y-148316760D01*
X160114785Y-148238910D01*
X159933032Y-148210123D01*
X159865962Y-148199500D01*
X159614038Y-148199500D01*
X159574925Y-148205695D01*
X159365214Y-148238910D01*
X159125616Y-148316760D01*
X158901151Y-148431132D01*
X158697350Y-148579201D01*
X158697345Y-148579205D01*
X158519205Y-148757345D01*
X158519201Y-148757350D01*
X158371132Y-148961151D01*
X158256760Y-149185616D01*
X158178910Y-149425214D01*
X158139500Y-149674038D01*
X156260500Y-149674038D01*
X156221090Y-149425215D01*
X156143241Y-149185621D01*
X156143239Y-149185618D01*
X156143239Y-149185616D01*
X156055575Y-149013567D01*
X156028870Y-148961155D01*
X155967060Y-148876080D01*
X155880798Y-148757350D01*
X155880794Y-148757345D01*
X155702654Y-148579205D01*
X155702649Y-148579201D01*
X155498848Y-148431132D01*
X155498847Y-148431131D01*
X155498845Y-148431130D01*
X155399841Y-148380685D01*
X155274383Y-148316760D01*
X155034785Y-148238910D01*
X154853032Y-148210123D01*
X154785962Y-148199500D01*
X154534038Y-148199500D01*
X154494925Y-148205695D01*
X154285214Y-148238910D01*
X154045616Y-148316760D01*
X153821151Y-148431132D01*
X153617350Y-148579201D01*
X153617345Y-148579205D01*
X153439205Y-148757345D01*
X153439201Y-148757350D01*
X153291132Y-148961151D01*
X153176760Y-149185616D01*
X153098910Y-149425214D01*
X153059500Y-149674038D01*
X151180500Y-149674038D01*
X151141090Y-149425215D01*
X151063241Y-149185621D01*
X151063239Y-149185618D01*
X151063239Y-149185616D01*
X150975575Y-149013567D01*
X150948870Y-148961155D01*
X150887060Y-148876080D01*
X150800798Y-148757350D01*
X150800794Y-148757345D01*
X150622654Y-148579205D01*
X150622649Y-148579201D01*
X150418848Y-148431132D01*
X150418847Y-148431131D01*
X150418845Y-148431130D01*
X150319841Y-148380685D01*
X150194383Y-148316760D01*
X149954785Y-148238910D01*
X149773032Y-148210123D01*
X149705962Y-148199500D01*
X149454038Y-148199500D01*
X149414925Y-148205695D01*
X149205214Y-148238910D01*
X148965616Y-148316760D01*
X148741151Y-148431132D01*
X148537350Y-148579201D01*
X148537345Y-148579205D01*
X148359205Y-148757345D01*
X148359201Y-148757350D01*
X148211132Y-148961151D01*
X148096760Y-149185616D01*
X148018910Y-149425214D01*
X147979500Y-149674038D01*
X146100500Y-149674038D01*
X146100500Y-148706898D01*
X146089877Y-148618436D01*
X146034361Y-148477658D01*
X146034360Y-148477657D01*
X146034360Y-148477656D01*
X145942922Y-148357077D01*
X145822343Y-148265639D01*
X145681561Y-148210122D01*
X145635926Y-148204642D01*
X145593102Y-148199500D01*
X143406898Y-148199500D01*
X143367853Y-148204188D01*
X143318438Y-148210122D01*
X143177656Y-148265639D01*
X143057077Y-148357077D01*
X142965639Y-148477656D01*
X142910122Y-148618438D01*
X142905674Y-148655483D01*
X142899500Y-148706898D01*
X138250347Y-148706898D01*
X138122654Y-148579205D01*
X138122649Y-148579201D01*
X137918848Y-148431132D01*
X137918847Y-148431131D01*
X137918845Y-148431130D01*
X137819841Y-148380685D01*
X137694383Y-148316760D01*
X137454785Y-148238910D01*
X137273032Y-148210123D01*
X137205962Y-148199500D01*
X136954038Y-148199500D01*
X136914925Y-148205695D01*
X136705214Y-148238910D01*
X136465616Y-148316760D01*
X136241151Y-148431132D01*
X136037350Y-148579201D01*
X136037345Y-148579205D01*
X135859205Y-148757345D01*
X135859201Y-148757350D01*
X135711132Y-148961151D01*
X135596760Y-149185616D01*
X135518910Y-149425214D01*
X135479500Y-149674038D01*
X133600500Y-149674038D01*
X133600500Y-148706898D01*
X133589877Y-148618436D01*
X133534361Y-148477658D01*
X133534360Y-148477657D01*
X133534360Y-148477656D01*
X133442922Y-148357077D01*
X133322343Y-148265639D01*
X133181561Y-148210122D01*
X133135926Y-148204642D01*
X133093102Y-148199500D01*
X130906898Y-148199500D01*
X130867853Y-148204188D01*
X130818438Y-148210122D01*
X130677656Y-148265639D01*
X130557077Y-148357077D01*
X130465639Y-148477656D01*
X130410122Y-148618438D01*
X130405674Y-148655483D01*
X130399500Y-148706898D01*
X126250347Y-148706898D01*
X126122654Y-148579205D01*
X126122649Y-148579201D01*
X125918848Y-148431132D01*
X125918847Y-148431131D01*
X125918845Y-148431130D01*
X125819841Y-148380685D01*
X125694383Y-148316760D01*
X125454785Y-148238910D01*
X125273032Y-148210123D01*
X125205962Y-148199500D01*
X124954038Y-148199500D01*
X124914925Y-148205695D01*
X124705214Y-148238910D01*
X124465616Y-148316760D01*
X124241151Y-148431132D01*
X124037350Y-148579201D01*
X124037345Y-148579205D01*
X123859205Y-148757345D01*
X123859201Y-148757350D01*
X123711132Y-148961151D01*
X123596760Y-149185616D01*
X123518910Y-149425214D01*
X123479500Y-149674038D01*
X121600500Y-149674038D01*
X121600500Y-148706898D01*
X121589877Y-148618436D01*
X121534361Y-148477658D01*
X121534360Y-148477657D01*
X121534360Y-148477656D01*
X121442922Y-148357077D01*
X121322343Y-148265639D01*
X121181561Y-148210122D01*
X121135926Y-148204642D01*
X121093102Y-148199500D01*
X118906898Y-148199500D01*
X118867853Y-148204188D01*
X118818438Y-148210122D01*
X118677656Y-148265639D01*
X118557077Y-148357077D01*
X118465639Y-148477656D01*
X118410122Y-148618438D01*
X118405674Y-148655483D01*
X118399500Y-148706898D01*
X114528925Y-148706898D01*
X114477510Y-148655483D01*
X114372517Y-148579201D01*
X114286431Y-148516655D01*
X114168204Y-148456415D01*
X114117409Y-148408441D01*
X114100500Y-148345931D01*
X114100500Y-137889205D01*
X128909500Y-137889205D01*
X128909500Y-138110794D01*
X128909501Y-138110810D01*
X128938424Y-138330504D01*
X128995780Y-138544559D01*
X129080581Y-138749286D01*
X129080585Y-138749296D01*
X129191384Y-138941206D01*
X129326286Y-139117014D01*
X129326292Y-139117021D01*
X129482978Y-139273707D01*
X129482985Y-139273713D01*
X129658793Y-139408615D01*
X129850703Y-139519414D01*
X129850704Y-139519414D01*
X129850707Y-139519416D01*
X130055441Y-139604220D01*
X130269492Y-139661575D01*
X130489199Y-139690500D01*
X130489206Y-139690500D01*
X130710794Y-139690500D01*
X130710801Y-139690500D01*
X130930508Y-139661575D01*
X131144559Y-139604220D01*
X131349293Y-139519416D01*
X131541207Y-139408615D01*
X131717016Y-139273712D01*
X131873712Y-139117016D01*
X132008615Y-138941207D01*
X132119416Y-138749293D01*
X132185439Y-138589899D01*
X132229280Y-138535496D01*
X132295574Y-138513431D01*
X132363273Y-138530710D01*
X132410884Y-138581847D01*
X132414561Y-138589900D01*
X132480578Y-138749281D01*
X132480585Y-138749296D01*
X132591384Y-138941206D01*
X132726286Y-139117014D01*
X132726292Y-139117021D01*
X132882978Y-139273707D01*
X132882985Y-139273713D01*
X133058793Y-139408615D01*
X133250703Y-139519414D01*
X133250704Y-139519414D01*
X133250707Y-139519416D01*
X133455441Y-139604220D01*
X133669492Y-139661575D01*
X133889199Y-139690500D01*
X133889206Y-139690500D01*
X134110794Y-139690500D01*
X134110801Y-139690500D01*
X134330508Y-139661575D01*
X134544559Y-139604220D01*
X134749293Y-139519416D01*
X134941207Y-139408615D01*
X135117016Y-139273712D01*
X135273712Y-139117016D01*
X135408615Y-138941207D01*
X135519416Y-138749293D01*
X135604220Y-138544559D01*
X135661575Y-138330508D01*
X135690500Y-138110801D01*
X135690500Y-137889199D01*
X135661575Y-137669492D01*
X135604220Y-137455441D01*
X135519416Y-137250707D01*
X135408615Y-137058793D01*
X135273712Y-136882984D01*
X135273707Y-136882978D01*
X135117021Y-136726292D01*
X135117014Y-136726286D01*
X134941206Y-136591384D01*
X134749296Y-136480585D01*
X134749286Y-136480581D01*
X134544559Y-136395780D01*
X134330504Y-136338424D01*
X134110810Y-136309501D01*
X134110807Y-136309500D01*
X134110801Y-136309500D01*
X133889199Y-136309500D01*
X133889193Y-136309500D01*
X133889189Y-136309501D01*
X133669495Y-136338424D01*
X133455440Y-136395780D01*
X133250713Y-136480581D01*
X133250703Y-136480585D01*
X133058793Y-136591384D01*
X132882985Y-136726286D01*
X132882978Y-136726292D01*
X132726292Y-136882978D01*
X132726286Y-136882985D01*
X132591384Y-137058793D01*
X132480585Y-137250703D01*
X132480581Y-137250713D01*
X132414561Y-137410100D01*
X132370720Y-137464503D01*
X132304426Y-137486568D01*
X132236727Y-137469289D01*
X132189116Y-137418152D01*
X132185439Y-137410100D01*
X132119418Y-137250713D01*
X132119414Y-137250703D01*
X132008615Y-137058793D01*
X131873713Y-136882985D01*
X131873707Y-136882978D01*
X131717021Y-136726292D01*
X131717014Y-136726286D01*
X131541206Y-136591384D01*
X131349296Y-136480585D01*
X131349286Y-136480581D01*
X131144559Y-136395780D01*
X130930504Y-136338424D01*
X130710810Y-136309501D01*
X130710807Y-136309500D01*
X130710801Y-136309500D01*
X130489199Y-136309500D01*
X130489193Y-136309500D01*
X130489189Y-136309501D01*
X130269495Y-136338424D01*
X130055440Y-136395780D01*
X129850713Y-136480581D01*
X129850703Y-136480585D01*
X129658793Y-136591384D01*
X129482985Y-136726286D01*
X129482978Y-136726292D01*
X129326292Y-136882978D01*
X129326286Y-136882985D01*
X129191384Y-137058793D01*
X129080585Y-137250703D01*
X129080581Y-137250713D01*
X128995780Y-137455440D01*
X128938424Y-137669495D01*
X128909501Y-137889189D01*
X128909500Y-137889205D01*
X114100500Y-137889205D01*
X114100500Y-131761060D01*
X114100501Y-131761047D01*
X114100501Y-131592944D01*
X114059576Y-131440214D01*
X114059573Y-131440209D01*
X113980524Y-131303290D01*
X113980518Y-131303282D01*
X113249725Y-130572489D01*
X112415589Y-129738354D01*
X112415588Y-129738352D01*
X112296717Y-129619481D01*
X112296716Y-129619480D01*
X112261960Y-129599414D01*
X112202570Y-129565125D01*
X112202568Y-129565124D01*
X112192960Y-129559577D01*
X112159785Y-129540423D01*
X112057845Y-129513107D01*
X112052985Y-129511361D01*
X112028773Y-129493684D01*
X112003173Y-129478080D01*
X112000849Y-129473297D01*
X111996555Y-129470162D01*
X111985741Y-129442194D01*
X111972644Y-129415233D01*
X111973275Y-129409954D01*
X111971357Y-129404994D01*
X111977380Y-129375618D01*
X111980939Y-129345857D01*
X111984588Y-129340464D01*
X111985392Y-129336548D01*
X111991414Y-129330380D01*
X112007246Y-129306989D01*
X112117221Y-129197014D01*
X112461520Y-128852716D01*
X112540577Y-128715785D01*
X112581501Y-128563057D01*
X112581501Y-128404942D01*
X112581501Y-128397347D01*
X112581500Y-128397329D01*
X112581500Y-123370943D01*
X118599500Y-123370943D01*
X118599500Y-123529057D01*
X118635236Y-123662423D01*
X118640423Y-123681783D01*
X118640426Y-123681790D01*
X118719473Y-123818706D01*
X118719477Y-123818712D01*
X118719480Y-123818716D01*
X118719482Y-123818718D01*
X118723872Y-123824438D01*
X118749069Y-123889606D01*
X118749500Y-123899930D01*
X118749500Y-129420069D01*
X118729815Y-129487108D01*
X118723875Y-129495557D01*
X118719475Y-129501290D01*
X118640426Y-129638209D01*
X118640423Y-129638216D01*
X118599500Y-129790943D01*
X118599500Y-129949057D01*
X118606242Y-129974216D01*
X118640423Y-130101783D01*
X118640426Y-130101790D01*
X118719475Y-130238709D01*
X118719479Y-130238714D01*
X118719480Y-130238716D01*
X118831284Y-130350520D01*
X118831286Y-130350521D01*
X118831290Y-130350524D01*
X118968209Y-130429573D01*
X118968216Y-130429577D01*
X119120943Y-130470500D01*
X119120945Y-130470500D01*
X119279055Y-130470500D01*
X119279057Y-130470500D01*
X119431784Y-130429577D01*
X119568716Y-130350520D01*
X119680520Y-130238716D01*
X119759577Y-130101784D01*
X119800500Y-129949057D01*
X119800500Y-129790943D01*
X119759577Y-129638216D01*
X119759573Y-129638209D01*
X119680524Y-129501290D01*
X119680521Y-129501287D01*
X119680520Y-129501284D01*
X119680517Y-129501281D01*
X119676125Y-129495557D01*
X119650930Y-129430388D01*
X119650500Y-129420069D01*
X119650500Y-127969205D01*
X128909500Y-127969205D01*
X128909500Y-128190794D01*
X128909501Y-128190810D01*
X128938424Y-128410504D01*
X128995780Y-128624559D01*
X129080581Y-128829286D01*
X129080585Y-128829296D01*
X129191384Y-129021206D01*
X129326286Y-129197014D01*
X129326292Y-129197021D01*
X129482978Y-129353707D01*
X129482985Y-129353713D01*
X129658793Y-129488615D01*
X129850703Y-129599414D01*
X129850704Y-129599414D01*
X129850707Y-129599416D01*
X130055441Y-129684220D01*
X130269492Y-129741575D01*
X130489199Y-129770500D01*
X130489206Y-129770500D01*
X130710794Y-129770500D01*
X130710801Y-129770500D01*
X130930508Y-129741575D01*
X131144559Y-129684220D01*
X131349293Y-129599416D01*
X131541207Y-129488615D01*
X131717016Y-129353712D01*
X131873712Y-129197016D01*
X132008615Y-129021207D01*
X132119416Y-128829293D01*
X132185439Y-128669899D01*
X132229280Y-128615496D01*
X132295574Y-128593431D01*
X132363273Y-128610710D01*
X132410884Y-128661847D01*
X132414561Y-128669900D01*
X132480578Y-128829281D01*
X132480585Y-128829296D01*
X132591384Y-129021206D01*
X132726286Y-129197014D01*
X132726292Y-129197021D01*
X132882978Y-129353707D01*
X132882985Y-129353713D01*
X133058793Y-129488615D01*
X133250703Y-129599414D01*
X133250704Y-129599414D01*
X133250707Y-129599416D01*
X133455441Y-129684220D01*
X133669492Y-129741575D01*
X133889199Y-129770500D01*
X133889206Y-129770500D01*
X134110794Y-129770500D01*
X134110801Y-129770500D01*
X134330508Y-129741575D01*
X134544559Y-129684220D01*
X134749293Y-129599416D01*
X134941207Y-129488615D01*
X135117016Y-129353712D01*
X135273712Y-129197016D01*
X135408615Y-129021207D01*
X135519416Y-128829293D01*
X135604220Y-128624559D01*
X135661575Y-128410508D01*
X135690500Y-128190801D01*
X135690500Y-127969199D01*
X135661575Y-127749492D01*
X135604220Y-127535441D01*
X135519416Y-127330707D01*
X135513567Y-127320577D01*
X135408615Y-127138793D01*
X135273713Y-126962985D01*
X135273707Y-126962978D01*
X135117021Y-126806292D01*
X135117014Y-126806286D01*
X134941206Y-126671384D01*
X134749296Y-126560585D01*
X134749286Y-126560581D01*
X134544559Y-126475780D01*
X134330504Y-126418424D01*
X134110810Y-126389501D01*
X134110807Y-126389500D01*
X134110801Y-126389500D01*
X133889199Y-126389500D01*
X133889193Y-126389500D01*
X133889189Y-126389501D01*
X133669495Y-126418424D01*
X133455440Y-126475780D01*
X133250713Y-126560581D01*
X133250703Y-126560585D01*
X133058793Y-126671384D01*
X132882985Y-126806286D01*
X132882978Y-126806292D01*
X132726292Y-126962978D01*
X132726286Y-126962985D01*
X132591384Y-127138793D01*
X132480585Y-127330703D01*
X132480581Y-127330713D01*
X132414561Y-127490100D01*
X132370720Y-127544503D01*
X132304426Y-127566568D01*
X132236727Y-127549289D01*
X132189116Y-127498152D01*
X132185439Y-127490100D01*
X132119416Y-127330707D01*
X132113567Y-127320577D01*
X132008615Y-127138793D01*
X131873713Y-126962985D01*
X131873707Y-126962978D01*
X131717021Y-126806292D01*
X131717014Y-126806286D01*
X131541206Y-126671384D01*
X131349296Y-126560585D01*
X131349286Y-126560581D01*
X131144559Y-126475780D01*
X130930504Y-126418424D01*
X130710810Y-126389501D01*
X130710807Y-126389500D01*
X130710801Y-126389500D01*
X130489199Y-126389500D01*
X130489193Y-126389500D01*
X130489189Y-126389501D01*
X130269495Y-126418424D01*
X130055440Y-126475780D01*
X129850713Y-126560581D01*
X129850703Y-126560585D01*
X129658793Y-126671384D01*
X129482985Y-126806286D01*
X129482978Y-126806292D01*
X129326292Y-126962978D01*
X129326286Y-126962985D01*
X129191384Y-127138793D01*
X129080585Y-127330703D01*
X129080581Y-127330713D01*
X128995780Y-127535440D01*
X128938424Y-127749495D01*
X128909501Y-127969189D01*
X128909500Y-127969205D01*
X119650500Y-127969205D01*
X119650500Y-123899930D01*
X119670185Y-123832891D01*
X119676128Y-123824438D01*
X119680512Y-123818723D01*
X119680520Y-123818716D01*
X119759577Y-123681784D01*
X119800500Y-123529057D01*
X119800500Y-123370943D01*
X119759577Y-123218216D01*
X119688286Y-123094735D01*
X119680524Y-123081290D01*
X119680518Y-123081282D01*
X119568717Y-122969481D01*
X119568709Y-122969475D01*
X119431790Y-122890426D01*
X119431786Y-122890424D01*
X119431784Y-122890423D01*
X119279057Y-122849500D01*
X119120943Y-122849500D01*
X118968216Y-122890423D01*
X118968209Y-122890426D01*
X118831290Y-122969475D01*
X118831282Y-122969481D01*
X118719481Y-123081282D01*
X118719475Y-123081290D01*
X118640426Y-123218209D01*
X118640423Y-123218216D01*
X118599500Y-123370943D01*
X112581500Y-123370943D01*
X112581500Y-117520945D01*
X112581500Y-117520943D01*
X112540577Y-117368216D01*
X112515530Y-117324833D01*
X112461524Y-117231290D01*
X112461518Y-117231282D01*
X112349717Y-117119481D01*
X112349709Y-117119475D01*
X112212790Y-117040426D01*
X112212786Y-117040424D01*
X112212784Y-117040423D01*
X112060057Y-116999500D01*
X111901943Y-116999500D01*
X111749216Y-117040423D01*
X111749209Y-117040426D01*
X111612290Y-117119475D01*
X111612282Y-117119481D01*
X111500481Y-117231282D01*
X111500475Y-117231290D01*
X111421426Y-117368209D01*
X111421423Y-117368216D01*
X111380500Y-117520943D01*
X111380500Y-128183902D01*
X111371855Y-128213342D01*
X111365332Y-128243329D01*
X111361577Y-128248344D01*
X111360815Y-128250941D01*
X111344181Y-128271583D01*
X111202181Y-128413583D01*
X111140858Y-128447068D01*
X111071166Y-128442084D01*
X111015233Y-128400212D01*
X110990816Y-128334748D01*
X110990500Y-128325902D01*
X110990500Y-125094945D01*
X110990500Y-125094943D01*
X110949577Y-124942216D01*
X110891369Y-124841396D01*
X110870524Y-124805290D01*
X110870518Y-124805282D01*
X110758717Y-124693481D01*
X110758709Y-124693475D01*
X110621790Y-124614426D01*
X110621786Y-124614424D01*
X110621784Y-124614423D01*
X110469057Y-124573500D01*
X110310943Y-124573500D01*
X110158216Y-124614423D01*
X110158209Y-124614426D01*
X110021290Y-124693475D01*
X110021282Y-124693481D01*
X109909481Y-124805282D01*
X109909475Y-124805290D01*
X109830426Y-124942209D01*
X109830423Y-124942216D01*
X109789500Y-125094943D01*
X109789500Y-128043902D01*
X109769815Y-128110941D01*
X109753181Y-128131583D01*
X109262181Y-128622583D01*
X109200858Y-128656068D01*
X109131166Y-128651084D01*
X109075233Y-128609212D01*
X109050816Y-128543748D01*
X109050500Y-128534902D01*
X109050500Y-102374500D01*
X109070185Y-102307461D01*
X109122989Y-102261706D01*
X109174500Y-102250500D01*
X139625500Y-102250500D01*
X139692539Y-102270185D01*
X139738294Y-102322989D01*
X139749500Y-102374500D01*
X139749500Y-115750069D01*
X139729815Y-115817108D01*
X139723875Y-115825557D01*
X139719475Y-115831290D01*
X139640426Y-115968209D01*
X139640423Y-115968216D01*
X139599500Y-116120943D01*
X139599500Y-116279057D01*
X139606610Y-116305590D01*
X139640423Y-116431783D01*
X139640426Y-116431790D01*
X139719475Y-116568709D01*
X139719479Y-116568714D01*
X139719480Y-116568716D01*
X139831284Y-116680520D01*
X139831286Y-116680521D01*
X139831290Y-116680524D01*
X139968209Y-116759573D01*
X139968216Y-116759577D01*
X140120943Y-116800500D01*
X140120945Y-116800500D01*
X140279055Y-116800500D01*
X140279057Y-116800500D01*
X140431784Y-116759577D01*
X140568716Y-116680520D01*
X140680520Y-116568716D01*
X140759577Y-116431784D01*
X140800500Y-116279057D01*
X140800500Y-116120943D01*
X140759577Y-115968216D01*
X140714761Y-115890591D01*
X140680524Y-115831290D01*
X140680521Y-115831287D01*
X140680520Y-115831284D01*
X140680517Y-115831281D01*
X140676125Y-115825557D01*
X140650930Y-115760388D01*
X140650500Y-115750069D01*
X140650500Y-113154982D01*
X141903500Y-113154982D01*
X141903500Y-124545982D01*
X141903500Y-124658018D01*
X141930960Y-124760498D01*
X141932497Y-124766236D01*
X141932498Y-124766239D01*
X141942721Y-124783945D01*
X141988515Y-124863263D01*
X144790737Y-127665485D01*
X144887763Y-127721503D01*
X144995982Y-127750500D01*
X145108019Y-127750500D01*
X151558902Y-127750500D01*
X151625941Y-127770185D01*
X151646583Y-127786819D01*
X151665284Y-127805520D01*
X151665286Y-127805521D01*
X151665290Y-127805524D01*
X151790975Y-127878087D01*
X151802216Y-127884577D01*
X151954943Y-127925500D01*
X151954945Y-127925500D01*
X152113055Y-127925500D01*
X152113057Y-127925500D01*
X152265784Y-127884577D01*
X152402716Y-127805520D01*
X152514520Y-127693716D01*
X152593577Y-127556784D01*
X152634500Y-127404057D01*
X152634500Y-127245943D01*
X152593577Y-127093216D01*
X152518389Y-126962985D01*
X152514524Y-126956290D01*
X152514518Y-126956282D01*
X152402717Y-126844481D01*
X152402709Y-126844475D01*
X152265790Y-126765426D01*
X152265786Y-126765424D01*
X152265784Y-126765423D01*
X152113057Y-126724500D01*
X151954943Y-126724500D01*
X151802216Y-126765423D01*
X151802209Y-126765426D01*
X151665290Y-126844475D01*
X151665282Y-126844481D01*
X151646583Y-126863181D01*
X151585260Y-126896666D01*
X151558902Y-126899500D01*
X148368098Y-126899500D01*
X148301059Y-126879815D01*
X148255304Y-126827011D01*
X148245360Y-126757853D01*
X148274385Y-126694297D01*
X148280417Y-126687819D01*
X148286293Y-126681943D01*
X148301520Y-126666716D01*
X148380577Y-126529784D01*
X148421500Y-126377057D01*
X148421500Y-126221500D01*
X148441185Y-126154461D01*
X148493989Y-126108706D01*
X148545500Y-126097500D01*
X157908390Y-126097500D01*
X157975429Y-126117185D01*
X157996071Y-126133819D01*
X158588181Y-126725929D01*
X158621666Y-126787252D01*
X158624500Y-126813610D01*
X158624500Y-126840057D01*
X158657439Y-126962985D01*
X158665423Y-126992783D01*
X158665426Y-126992790D01*
X158744475Y-127129709D01*
X158744479Y-127129714D01*
X158744480Y-127129716D01*
X158856284Y-127241520D01*
X158856286Y-127241521D01*
X158856290Y-127241524D01*
X158863948Y-127245945D01*
X158993216Y-127320577D01*
X159145943Y-127361500D01*
X159145945Y-127361500D01*
X159304055Y-127361500D01*
X159304057Y-127361500D01*
X159456784Y-127320577D01*
X159593716Y-127241520D01*
X159705520Y-127129716D01*
X159784577Y-126992784D01*
X159825500Y-126840057D01*
X159825500Y-126681943D01*
X159784577Y-126529216D01*
X159753726Y-126475780D01*
X159705524Y-126392290D01*
X159705518Y-126392282D01*
X159593717Y-126280481D01*
X159593712Y-126280477D01*
X159454124Y-126199887D01*
X159405909Y-126149321D01*
X159392685Y-126080714D01*
X159418653Y-126015849D01*
X159475567Y-125975320D01*
X159516124Y-125968500D01*
X161043389Y-125968500D01*
X161110428Y-125988185D01*
X161156183Y-126040989D01*
X161166127Y-126110147D01*
X161137102Y-126173703D01*
X161131070Y-126180181D01*
X159017737Y-128293515D01*
X158938517Y-128372734D01*
X158938513Y-128372740D01*
X158882498Y-128469760D01*
X158882497Y-128469763D01*
X158853500Y-128577982D01*
X158853500Y-128620902D01*
X158833815Y-128687941D01*
X158817181Y-128708583D01*
X158798481Y-128727282D01*
X158798475Y-128727290D01*
X158719426Y-128864209D01*
X158719423Y-128864216D01*
X158678500Y-129016943D01*
X158678500Y-129175057D01*
X158700917Y-129258716D01*
X158719423Y-129327783D01*
X158719426Y-129327790D01*
X158798475Y-129464709D01*
X158798479Y-129464714D01*
X158798480Y-129464716D01*
X158910284Y-129576520D01*
X158910286Y-129576521D01*
X158910290Y-129576524D01*
X159045664Y-129654681D01*
X159047216Y-129655577D01*
X159199943Y-129696500D01*
X159199945Y-129696500D01*
X159358055Y-129696500D01*
X159358057Y-129696500D01*
X159510784Y-129655577D01*
X159647716Y-129576520D01*
X159759520Y-129464716D01*
X159838577Y-129327784D01*
X159879500Y-129175057D01*
X159879500Y-129016943D01*
X159838577Y-128864216D01*
X159817320Y-128827397D01*
X159800848Y-128759500D01*
X159823700Y-128693473D01*
X159837021Y-128677725D01*
X163012929Y-125501819D01*
X163034307Y-125490145D01*
X163053295Y-125474882D01*
X163067372Y-125472090D01*
X163074252Y-125468334D01*
X163087504Y-125466195D01*
X163094043Y-125465500D01*
X163127057Y-125465500D01*
X163148764Y-125459683D01*
X163158394Y-125458660D01*
X163183619Y-125463242D01*
X163209254Y-125463852D01*
X163217427Y-125469384D01*
X163227138Y-125471148D01*
X163245884Y-125488643D01*
X163267117Y-125503014D01*
X163271001Y-125512085D01*
X163278218Y-125518820D01*
X163284529Y-125543672D01*
X163294623Y-125567241D01*
X163295500Y-125581965D01*
X163295500Y-125755057D01*
X163315064Y-125828069D01*
X163336423Y-125907783D01*
X163336426Y-125907790D01*
X163415475Y-126044709D01*
X163415479Y-126044714D01*
X163415480Y-126044716D01*
X163527284Y-126156520D01*
X163527286Y-126156521D01*
X163527290Y-126156524D01*
X163664209Y-126235573D01*
X163664216Y-126235577D01*
X163816943Y-126276500D01*
X163975057Y-126276500D01*
X166626903Y-126276500D01*
X166693942Y-126296185D01*
X166714584Y-126312819D01*
X169656139Y-129254374D01*
X169656149Y-129254385D01*
X169660479Y-129258715D01*
X169660480Y-129258716D01*
X169772284Y-129370520D01*
X169772286Y-129370521D01*
X169772290Y-129370524D01*
X169858106Y-129420069D01*
X169909216Y-129449577D01*
X170021019Y-129479534D01*
X170061942Y-129490500D01*
X170061943Y-129490500D01*
X170061944Y-129490500D01*
X170220055Y-129490500D01*
X170220057Y-129490500D01*
X170372784Y-129449577D01*
X170509716Y-129370520D01*
X170621520Y-129258716D01*
X170700577Y-129121784D01*
X170741500Y-128969057D01*
X170741500Y-128810943D01*
X170738095Y-128798237D01*
X170721288Y-128735511D01*
X170700577Y-128658216D01*
X170696459Y-128651084D01*
X170621524Y-128521290D01*
X170621521Y-128521286D01*
X170621520Y-128521284D01*
X170509716Y-128409480D01*
X170509715Y-128409479D01*
X170505385Y-128405149D01*
X170505374Y-128405139D01*
X167414590Y-125314355D01*
X167414588Y-125314352D01*
X167295717Y-125195481D01*
X167295712Y-125195477D01*
X167175828Y-125126263D01*
X167175827Y-125126262D01*
X167160650Y-125117500D01*
X167158785Y-125116423D01*
X167006057Y-125075499D01*
X166847943Y-125075499D01*
X166840347Y-125075499D01*
X166840331Y-125075500D01*
X164620500Y-125075500D01*
X164553461Y-125055815D01*
X164507706Y-125003011D01*
X164496500Y-124951500D01*
X164496500Y-119886060D01*
X164496501Y-119886047D01*
X164496501Y-119717944D01*
X164491489Y-119699238D01*
X164455577Y-119565216D01*
X164455573Y-119565209D01*
X164376524Y-119428290D01*
X164376518Y-119428282D01*
X150586590Y-105638355D01*
X150586588Y-105638352D01*
X150467717Y-105519481D01*
X150467716Y-105519480D01*
X150380904Y-105469360D01*
X150380904Y-105469359D01*
X150380900Y-105469358D01*
X150330785Y-105440423D01*
X150178057Y-105399499D01*
X150019943Y-105399499D01*
X150012347Y-105399499D01*
X150012331Y-105399500D01*
X148274499Y-105399500D01*
X148207460Y-105379815D01*
X148161705Y-105327011D01*
X148150499Y-105275500D01*
X148150499Y-105105143D01*
X148150499Y-105105136D01*
X148150497Y-105105117D01*
X148147586Y-105080012D01*
X148147585Y-105080010D01*
X148147585Y-105080009D01*
X148102206Y-104977235D01*
X148022765Y-104897794D01*
X148022763Y-104897793D01*
X147919992Y-104852415D01*
X147894865Y-104849500D01*
X146105143Y-104849500D01*
X146105117Y-104849502D01*
X146080012Y-104852413D01*
X146080008Y-104852415D01*
X145977235Y-104897793D01*
X145897794Y-104977234D01*
X145852415Y-105080006D01*
X145852415Y-105080008D01*
X145849500Y-105105131D01*
X145849500Y-105842871D01*
X145829815Y-105909910D01*
X145777011Y-105955665D01*
X145707853Y-105965609D01*
X145644297Y-105936584D01*
X145606523Y-105877806D01*
X145603027Y-105862269D01*
X145596107Y-105818585D01*
X145582171Y-105730591D01*
X145526211Y-105558361D01*
X145526211Y-105558360D01*
X145466118Y-105440423D01*
X145443996Y-105397006D01*
X145373881Y-105300500D01*
X145337558Y-105250505D01*
X145337554Y-105250500D01*
X145209499Y-105122445D01*
X145209494Y-105122441D01*
X145062997Y-105016006D01*
X145062996Y-105016005D01*
X145062994Y-105016004D01*
X144986906Y-104977235D01*
X144901639Y-104933788D01*
X144901636Y-104933787D01*
X144729410Y-104877829D01*
X144550551Y-104849500D01*
X144550546Y-104849500D01*
X144369454Y-104849500D01*
X144369449Y-104849500D01*
X144190589Y-104877829D01*
X144018363Y-104933787D01*
X144018360Y-104933788D01*
X143857002Y-105016006D01*
X143710505Y-105122441D01*
X143710500Y-105122445D01*
X143582445Y-105250500D01*
X143582441Y-105250505D01*
X143476006Y-105397002D01*
X143393788Y-105558360D01*
X143393787Y-105558363D01*
X143337829Y-105730589D01*
X143309500Y-105909448D01*
X143309500Y-106090551D01*
X143337829Y-106269410D01*
X143393787Y-106441636D01*
X143393788Y-106441639D01*
X143449664Y-106551300D01*
X143474733Y-106600500D01*
X143476006Y-106602997D01*
X143582441Y-106749494D01*
X143582445Y-106749499D01*
X143710500Y-106877554D01*
X143710505Y-106877558D01*
X143838287Y-106970396D01*
X143857006Y-106983996D01*
X143933092Y-107022764D01*
X143988684Y-107051090D01*
X144039480Y-107099065D01*
X144056275Y-107166886D01*
X144033737Y-107233021D01*
X143979022Y-107276472D01*
X143970708Y-107279506D01*
X143941781Y-107288905D01*
X143752439Y-107385380D01*
X143698282Y-107424727D01*
X143698282Y-107424728D01*
X144330591Y-108057037D01*
X144267007Y-108074075D01*
X144152993Y-108139901D01*
X144059901Y-108232993D01*
X143994075Y-108347007D01*
X143977037Y-108410591D01*
X143344728Y-107778282D01*
X143344727Y-107778282D01*
X143305380Y-107832439D01*
X143208904Y-108021782D01*
X143143242Y-108223869D01*
X143143242Y-108223872D01*
X143110000Y-108433753D01*
X143110000Y-108646246D01*
X143143242Y-108856127D01*
X143143242Y-108856130D01*
X143208904Y-109058217D01*
X143305375Y-109247550D01*
X143344728Y-109301716D01*
X143977037Y-108669408D01*
X143994075Y-108732993D01*
X144059901Y-108847007D01*
X144152993Y-108940099D01*
X144267007Y-109005925D01*
X144330590Y-109022962D01*
X143698282Y-109655269D01*
X143698282Y-109655270D01*
X143752449Y-109694624D01*
X143941780Y-109791094D01*
X143970705Y-109800492D01*
X144028381Y-109839929D01*
X144055580Y-109904287D01*
X144043667Y-109973134D01*
X143996424Y-110024610D01*
X143988685Y-110028908D01*
X143857004Y-110096004D01*
X143710505Y-110202441D01*
X143710500Y-110202445D01*
X143582445Y-110330500D01*
X143582441Y-110330505D01*
X143476006Y-110477002D01*
X143393788Y-110638360D01*
X143393787Y-110638363D01*
X143337829Y-110810589D01*
X143309500Y-110989448D01*
X143309500Y-111170551D01*
X143337828Y-111349409D01*
X143375905Y-111466596D01*
X143377900Y-111536437D01*
X143345655Y-111592595D01*
X142067737Y-112870515D01*
X141988517Y-112949734D01*
X141988513Y-112949740D01*
X141932498Y-113046760D01*
X141932497Y-113046763D01*
X141903500Y-113154982D01*
X140650500Y-113154982D01*
X140650500Y-112940918D01*
X140670185Y-112873879D01*
X140722989Y-112828124D01*
X140792147Y-112818180D01*
X140836498Y-112833530D01*
X140968216Y-112909577D01*
X141120943Y-112950500D01*
X141120945Y-112950500D01*
X141279055Y-112950500D01*
X141279057Y-112950500D01*
X141431784Y-112909577D01*
X141568716Y-112830520D01*
X141680520Y-112718716D01*
X141759577Y-112581784D01*
X141800500Y-112429057D01*
X141800500Y-112270943D01*
X141759577Y-112118216D01*
X141759573Y-112118209D01*
X141680524Y-111981290D01*
X141680521Y-111981287D01*
X141680520Y-111981284D01*
X141680517Y-111981281D01*
X141676125Y-111975557D01*
X141650930Y-111910388D01*
X141650500Y-111900069D01*
X141650500Y-100940693D01*
X141650500Y-100940691D01*
X141619799Y-100826114D01*
X141560489Y-100723387D01*
X141476613Y-100639511D01*
X141373886Y-100580201D01*
X141259309Y-100549500D01*
X107659309Y-100549500D01*
X107540691Y-100549500D01*
X107426114Y-100580201D01*
X107426112Y-100580201D01*
X107426112Y-100580202D01*
X107323387Y-100639511D01*
X107323384Y-100639513D01*
X107239513Y-100723384D01*
X107239511Y-100723387D01*
X107180201Y-100826114D01*
X107149500Y-100940691D01*
X107149500Y-100940693D01*
X107149500Y-114960456D01*
X107129815Y-115027495D01*
X107077011Y-115073250D01*
X107007853Y-115083194D01*
X106978051Y-115075019D01*
X106971786Y-115072424D01*
X106971784Y-115072423D01*
X106819057Y-115031500D01*
X106660943Y-115031500D01*
X106508216Y-115072423D01*
X106508209Y-115072426D01*
X106371290Y-115151475D01*
X106371282Y-115151481D01*
X106259481Y-115263282D01*
X106259475Y-115263290D01*
X106180426Y-115400209D01*
X106180423Y-115400216D01*
X106139500Y-115552943D01*
X106139500Y-121392330D01*
X106139499Y-121392348D01*
X106139499Y-121558054D01*
X106139498Y-121558054D01*
X106157865Y-121626598D01*
X106172612Y-121681636D01*
X106180424Y-121710788D01*
X106182690Y-121714711D01*
X106182698Y-121714725D01*
X106259477Y-121847712D01*
X106259481Y-121847717D01*
X106378349Y-121966585D01*
X106378355Y-121966590D01*
X106563181Y-122151416D01*
X106596666Y-122212739D01*
X106599500Y-122239097D01*
X106599500Y-122953903D01*
X106579815Y-123020942D01*
X106563181Y-123041584D01*
X103810181Y-125794584D01*
X103790744Y-125805196D01*
X103774011Y-125819697D01*
X103760679Y-125821613D01*
X103748858Y-125828069D01*
X103726771Y-125826489D01*
X103704853Y-125829641D01*
X103692601Y-125824045D01*
X103679166Y-125823085D01*
X103661439Y-125809814D01*
X103641297Y-125800616D01*
X103634014Y-125789284D01*
X103623233Y-125781213D01*
X103615495Y-125760467D01*
X103603523Y-125741838D01*
X103600371Y-125719919D01*
X103598816Y-125715749D01*
X103598500Y-125706903D01*
X103598500Y-125659373D01*
X103599561Y-125643185D01*
X103600498Y-125636060D01*
X103600500Y-125636057D01*
X103600500Y-125578723D01*
X103600723Y-125571294D01*
X103602640Y-125539350D01*
X103604158Y-125514064D01*
X103603017Y-125508486D01*
X103600500Y-125483629D01*
X103600500Y-123146096D01*
X103620185Y-123079057D01*
X103636814Y-123058420D01*
X104858506Y-121836727D01*
X104858511Y-121836724D01*
X104868714Y-121826520D01*
X104868716Y-121826520D01*
X104980520Y-121714716D01*
X105059577Y-121577784D01*
X105100500Y-121425057D01*
X105100500Y-116992060D01*
X105100501Y-116992047D01*
X105100501Y-116823944D01*
X105100501Y-116823943D01*
X105059577Y-116671216D01*
X105019407Y-116601639D01*
X104980524Y-116534290D01*
X104980518Y-116534282D01*
X103902590Y-115456355D01*
X103902588Y-115456352D01*
X103783717Y-115337481D01*
X103783716Y-115337480D01*
X103688395Y-115282447D01*
X103688394Y-115282446D01*
X103646783Y-115258422D01*
X103590881Y-115243443D01*
X103494057Y-115217499D01*
X103335943Y-115217499D01*
X103256010Y-115238917D01*
X103183216Y-115258422D01*
X103141603Y-115282448D01*
X103141602Y-115282447D01*
X103046287Y-115337477D01*
X103046282Y-115337481D01*
X102934479Y-115449284D01*
X102920361Y-115473739D01*
X102901725Y-115506018D01*
X102855423Y-115586215D01*
X102814499Y-115738943D01*
X102814499Y-115738945D01*
X102814499Y-115897054D01*
X102814498Y-115897054D01*
X102855424Y-116049789D01*
X102855425Y-116049790D01*
X102874310Y-116082499D01*
X102874311Y-116082500D01*
X102934477Y-116186712D01*
X102934481Y-116186717D01*
X103053349Y-116305585D01*
X103053355Y-116305590D01*
X103863181Y-117115416D01*
X103896666Y-117176739D01*
X103899500Y-117203097D01*
X103899500Y-121045902D01*
X103879815Y-121112941D01*
X103863181Y-121133583D01*
X103244167Y-121752597D01*
X102631286Y-122365478D01*
X102631284Y-122365480D01*
X102519480Y-122477284D01*
X102507187Y-122498577D01*
X102440423Y-122614215D01*
X102399499Y-122766943D01*
X102399499Y-122766945D01*
X102399499Y-122935046D01*
X102399500Y-122935059D01*
X102399500Y-125455622D01*
X102399462Y-125458696D01*
X102399108Y-125472938D01*
X102397500Y-125478943D01*
X102397500Y-125537817D01*
X102397462Y-125539350D01*
X102397402Y-125539536D01*
X102397276Y-125543705D01*
X102393842Y-125600937D01*
X102394982Y-125606510D01*
X102397500Y-125631369D01*
X102397500Y-125862166D01*
X102377815Y-125929205D01*
X102361236Y-125949793D01*
X101773282Y-126538481D01*
X101773281Y-126538480D01*
X101773231Y-126538530D01*
X101773229Y-126538534D01*
X101772751Y-126539011D01*
X101772195Y-126539567D01*
X101717480Y-126594284D01*
X101717384Y-126594449D01*
X101717250Y-126594584D01*
X101717209Y-126594654D01*
X101717208Y-126594656D01*
X101678042Y-126662591D01*
X101678005Y-126662656D01*
X101638421Y-126731219D01*
X101638332Y-126731432D01*
X101638312Y-126731482D01*
X101638280Y-126731558D01*
X101617885Y-126807857D01*
X101617886Y-126807858D01*
X101617863Y-126807945D01*
X101597500Y-126883943D01*
X101597500Y-126884130D01*
X101597450Y-126884318D01*
X101597450Y-126884349D01*
X101597450Y-126884350D01*
X101597495Y-126956282D01*
X101597500Y-126964173D01*
X101597500Y-134570267D01*
X101597416Y-134570582D01*
X101597500Y-134649639D01*
X101597500Y-134728069D01*
X101597544Y-134728402D01*
X101597582Y-134728688D01*
X101597583Y-134728695D01*
X101597584Y-134728697D01*
X101614829Y-134792785D01*
X101618114Y-134804992D01*
X101618131Y-134805122D01*
X101618147Y-134805118D01*
X101638422Y-134880781D01*
X101638629Y-134881282D01*
X101638629Y-134881285D01*
X101638664Y-134881370D01*
X101677892Y-134949148D01*
X101677958Y-134949262D01*
X101717479Y-135017716D01*
X101717866Y-135018220D01*
X101772913Y-135073149D01*
X101834432Y-135134668D01*
X101835501Y-135135605D01*
X102003968Y-135303713D01*
X102243344Y-135542580D01*
X102299284Y-135598520D01*
X102299566Y-135598683D01*
X102299796Y-135598912D01*
X102337386Y-135620561D01*
X102385654Y-135671074D01*
X102399500Y-135728013D01*
X102399500Y-148175500D01*
X102379815Y-148242539D01*
X102327011Y-148288294D01*
X102275500Y-148299500D01*
X102006908Y-148299500D01*
X101918437Y-148310123D01*
X101777657Y-148365639D01*
X101777655Y-148365640D01*
X101657077Y-148457077D01*
X101565640Y-148577655D01*
X101565029Y-148579205D01*
X101534949Y-148655485D01*
X101510124Y-148718437D01*
X101510123Y-148718438D01*
X101499500Y-148806900D01*
X100300500Y-148806900D01*
X100300500Y-103381995D01*
X101699500Y-103381995D01*
X101699500Y-103618004D01*
X101699501Y-103618020D01*
X101730306Y-103852010D01*
X101791394Y-104079993D01*
X101881714Y-104298045D01*
X101881719Y-104298056D01*
X101952677Y-104420957D01*
X101999727Y-104502450D01*
X101999729Y-104502453D01*
X101999730Y-104502454D01*
X102143406Y-104689697D01*
X102143412Y-104689704D01*
X102310295Y-104856587D01*
X102310302Y-104856593D01*
X102410904Y-104933787D01*
X102497550Y-105000273D01*
X102628918Y-105076118D01*
X102701943Y-105118280D01*
X102701948Y-105118282D01*
X102701951Y-105118284D01*
X102920007Y-105208606D01*
X103147986Y-105269693D01*
X103381989Y-105300500D01*
X103381996Y-105300500D01*
X103618004Y-105300500D01*
X103618011Y-105300500D01*
X103852014Y-105269693D01*
X104079993Y-105208606D01*
X104298049Y-105118284D01*
X104502450Y-105000273D01*
X104689699Y-104856592D01*
X104856592Y-104689699D01*
X105000273Y-104502450D01*
X105118284Y-104298049D01*
X105208606Y-104079993D01*
X105269693Y-103852014D01*
X105300500Y-103618011D01*
X105300500Y-103381989D01*
X105269693Y-103147986D01*
X105208606Y-102920007D01*
X105118284Y-102701951D01*
X105118282Y-102701948D01*
X105118280Y-102701943D01*
X105076118Y-102628918D01*
X105000273Y-102497550D01*
X104856592Y-102310301D01*
X104856587Y-102310295D01*
X104689704Y-102143412D01*
X104689697Y-102143406D01*
X104502454Y-101999730D01*
X104502453Y-101999729D01*
X104502450Y-101999727D01*
X104420957Y-101952677D01*
X104298056Y-101881719D01*
X104298045Y-101881714D01*
X104079993Y-101791394D01*
X103955873Y-101758136D01*
X103852014Y-101730307D01*
X103852013Y-101730306D01*
X103852010Y-101730306D01*
X103618020Y-101699501D01*
X103618017Y-101699500D01*
X103618011Y-101699500D01*
X103381989Y-101699500D01*
X103381983Y-101699500D01*
X103381979Y-101699501D01*
X103147989Y-101730306D01*
X102920006Y-101791394D01*
X102701954Y-101881714D01*
X102701943Y-101881719D01*
X102497545Y-101999730D01*
X102310302Y-102143406D01*
X102310295Y-102143412D01*
X102143412Y-102310295D01*
X102143406Y-102310302D01*
X101999730Y-102497545D01*
X101881719Y-102701943D01*
X101881714Y-102701954D01*
X101791394Y-102920006D01*
X101730306Y-103147989D01*
X101699501Y-103381979D01*
X101699500Y-103381995D01*
X100300500Y-103381995D01*
X100300500Y-102004427D01*
X100300816Y-101995581D01*
X100308959Y-101881719D01*
X100317165Y-101766973D01*
X100319681Y-101749476D01*
X100367457Y-101529852D01*
X100372434Y-101512901D01*
X100450986Y-101302295D01*
X100458325Y-101286226D01*
X100566043Y-101088955D01*
X100575599Y-101074086D01*
X100710293Y-100894156D01*
X100721867Y-100880799D01*
X100880799Y-100721867D01*
X100894156Y-100710293D01*
X101074086Y-100575599D01*
X101088955Y-100566043D01*
X101286226Y-100458325D01*
X101302295Y-100450986D01*
X101512901Y-100372434D01*
X101529852Y-100367457D01*
X101749476Y-100319681D01*
X101766973Y-100317165D01*
X101995582Y-100300816D01*
X102004428Y-100300500D01*
X102047594Y-100300500D01*
X172376000Y-100300500D01*
X172443039Y-100320185D01*
G37*
%TD.AperFunction*%
%TD*%
M02*
