%TF.GenerationSoftware,KiCad,Pcbnew,9.0.9*%
%TF.CreationDate,2026-10-01T08:36:53+00:00*%
%TF.ProjectId,AP1_Base,4150315f-4261-4736-952e-6b696361645f,rev?*%
%TF.SameCoordinates,Original*%
%TF.FileFunction,Copper,L4,Bot*%
%TF.FilePolarity,Positive*%
%FSLAX46Y46*%
G04 Gerber Fmt 4.6, Leading zero omitted, Abs format (unit mm)*
G04 Created by KiCad (PCBNEW 9.0.9) date 2026-10-01 08:36:53*
%MOMM*%
%LPD*%
G01*
G04 APERTURE LIST*
G04 Aperture macros list*
%AMRoundRect*
0 Rectangle with rounded corners*
0 $1 Rounding radius*
0 $2 $3 $4 $5 $6 $7 $8 $9 X,Y pos of 4 corners*
0 Add a 4 corners polygon primitive as box body*
4,1,4,$2,$3,$4,$5,$6,$7,$8,$9,$2,$3,0*
0 Add four circle primitives for the rounded corners*
1,1,$1+$1,$2,$3*
1,1,$1+$1,$4,$5*
1,1,$1+$1,$6,$7*
1,1,$1+$1,$8,$9*
0 Add four rect primitives between the rounded corners*
20,1,$1+$1,$2,$3,$4,$5,0*
20,1,$1+$1,$4,$5,$6,$7,0*
20,1,$1+$1,$6,$7,$8,$9,0*
20,1,$1+$1,$8,$9,$2,$3,0*%
G04 Aperture macros list end*
%TA.AperFunction,ComponentPad*%
%ADD10RoundRect,0.250000X-1.050000X-1.050000X1.050000X-1.050000X1.050000X1.050000X-1.050000X1.050000X0*%
%TD*%
%TA.AperFunction,ComponentPad*%
%ADD11C,2.600000*%
%TD*%
%TA.AperFunction,ComponentPad*%
%ADD12RoundRect,0.250001X-0.949999X-0.949999X0.949999X-0.949999X0.949999X0.949999X-0.949999X0.949999X0*%
%TD*%
%TA.AperFunction,ComponentPad*%
%ADD13C,2.400000*%
%TD*%
%TA.AperFunction,ComponentPad*%
%ADD14C,2.780000*%
%TD*%
%TA.AperFunction,ComponentPad*%
%ADD15R,1.700000X1.700000*%
%TD*%
%TA.AperFunction,ComponentPad*%
%ADD16C,1.700000*%
%TD*%
%TA.AperFunction,ViaPad*%
%ADD17C,0.600000*%
%TD*%
%TA.AperFunction,ViaPad*%
%ADD18C,0.800000*%
%TD*%
%TA.AperFunction,Conductor*%
%ADD19C,0.300000*%
%TD*%
%TA.AperFunction,Conductor*%
%ADD20C,0.250000*%
%TD*%
%TA.AperFunction,Conductor*%
%ADD21C,0.600000*%
%TD*%
G04 APERTURE END LIST*
D10*
%TO.P,J4,1*%
%TO.N,/CH1*%
X144500000Y-149800000D03*
D11*
%TO.P,J4,2*%
%TO.N,/CH2*%
X149580000Y-149800000D03*
%TO.P,J4,3*%
%TO.N,/CH3*%
X154660000Y-149800000D03*
%TO.P,J4,4*%
%TO.N,/CH4*%
X159740000Y-149800000D03*
%TD*%
D12*
%TO.P,J5,1*%
%TO.N,/LEDA1*%
X103000000Y-149800000D03*
D13*
%TO.P,J5,2*%
%TO.N,/LEDK1*%
X106500000Y-149800000D03*
%TO.P,J5,3*%
%TO.N,/LEDA2*%
X110000000Y-149800000D03*
%TO.P,J5,4*%
%TO.N,/LEDK2*%
X113500000Y-149800000D03*
%TD*%
D10*
%TO.P,J1,1*%
%TO.N,/VIN_RAW*%
X132000000Y-149800000D03*
D11*
%TO.P,J1,2*%
%TO.N,/GNDIN*%
X137080000Y-149800000D03*
%TD*%
D12*
%TO.P,J6,1*%
%TO.N,/V12*%
X167000000Y-149800000D03*
D13*
%TO.P,J6,2*%
%TO.N,/AUXD*%
X170500000Y-149800000D03*
%TD*%
D10*
%TO.P,J3,1*%
%TO.N,/VIN*%
X120000000Y-149800000D03*
D11*
%TO.P,J3,2*%
X125080000Y-149800000D03*
%TD*%
D14*
%TO.P,F1,1*%
%TO.N,/VIN_RAW*%
X130600000Y-138000000D03*
X134000000Y-138000000D03*
%TO.P,F1,2*%
%TO.N,/VF*%
X130600000Y-128080000D03*
X134000000Y-128080000D03*
%TD*%
D15*
%TO.P,J7,1*%
%TO.N,/V12*%
X147000000Y-106000000D03*
D16*
%TO.P,J7,2*%
X144460000Y-106000000D03*
%TO.P,J7,3*%
%TO.N,/GND*%
X147000000Y-108540000D03*
%TO.P,J7,4*%
X144460000Y-108540000D03*
%TO.P,J7,5*%
%TO.N,/PWM1*%
X147000000Y-111080000D03*
%TO.P,J7,6*%
%TO.N,/PWM2*%
X144460000Y-111080000D03*
%TO.P,J7,7*%
%TO.N,/PWM3*%
X147000000Y-113620000D03*
%TO.P,J7,8*%
%TO.N,/PWM4*%
X144460000Y-113620000D03*
%TO.P,J7,9*%
%TO.N,/CC1*%
X147000000Y-116160000D03*
%TO.P,J7,10*%
%TO.N,/CC2*%
X144460000Y-116160000D03*
%TO.P,J7,11*%
%TO.N,/SDA*%
X147000000Y-118700000D03*
%TO.P,J7,12*%
%TO.N,/SCL*%
X144460000Y-118700000D03*
%TO.P,J7,13*%
%TO.N,/ALERT*%
X147000000Y-121240000D03*
%TO.P,J7,14*%
%TO.N,/AUX*%
X144460000Y-121240000D03*
%TO.P,J7,15*%
%TO.N,/3V3*%
X147000000Y-123780000D03*
%TO.P,J7,16*%
%TO.N,/GND*%
X144460000Y-123780000D03*
%TD*%
D17*
%TO.N,/ISN*%
X119200000Y-129870000D03*
X119200000Y-123450000D03*
D18*
%TO.N,/GND*%
X146800000Y-132900000D03*
D17*
X182000000Y-142000000D03*
D18*
X126900000Y-133800000D03*
X145600000Y-132900000D03*
X167800000Y-134000000D03*
D17*
X167000000Y-122000000D03*
X172000000Y-122000000D03*
D18*
X140400000Y-132700000D03*
D17*
X170055500Y-138037105D03*
D18*
X160800000Y-134000000D03*
D17*
X157000000Y-112000000D03*
X172000000Y-112000000D03*
X182000000Y-147000000D03*
D18*
X169000000Y-132900000D03*
D17*
X122000000Y-117000000D03*
X137000000Y-112000000D03*
X167000000Y-102000000D03*
X152458118Y-125355500D03*
X132000000Y-107000000D03*
D18*
X148000000Y-132900000D03*
D17*
X111350500Y-124714910D03*
X157000000Y-102000000D03*
D18*
X148000000Y-134000000D03*
D17*
X123207697Y-121210536D03*
X103984181Y-127852500D03*
D18*
X146800000Y-134000000D03*
D17*
X122000000Y-107000000D03*
X177000000Y-132000000D03*
X162000000Y-112000000D03*
X172000000Y-107000000D03*
X162403561Y-129071536D03*
X172000000Y-102000000D03*
X132000000Y-132000000D03*
D18*
X159600000Y-134000000D03*
X155000000Y-132900000D03*
X139400000Y-133600000D03*
X127400000Y-141000000D03*
X126900000Y-136600000D03*
D17*
X149115693Y-135802278D03*
D18*
X141200000Y-132700000D03*
X162000000Y-132900000D03*
D17*
X152343164Y-123185500D03*
X127000000Y-117000000D03*
D18*
X159600000Y-132900000D03*
D17*
X149128504Y-129097386D03*
X182000000Y-132000000D03*
D18*
X169000000Y-134000000D03*
X166600000Y-134000000D03*
D17*
X163150000Y-132052278D03*
D18*
X153800000Y-134000000D03*
D17*
X137000000Y-107000000D03*
X123055500Y-112650013D03*
D18*
X167800000Y-132900000D03*
D17*
X127000000Y-107000000D03*
D18*
X138400000Y-133600000D03*
D17*
X100750500Y-110400013D03*
X104422311Y-136500013D03*
D18*
X139400000Y-132700000D03*
X160800000Y-132900000D03*
X152600000Y-134000000D03*
D17*
X177000000Y-147000000D03*
X100750500Y-127368308D03*
D18*
X145600000Y-134000000D03*
D17*
X167000000Y-147000000D03*
X157000000Y-137000000D03*
X132000000Y-112000000D03*
D18*
X162000000Y-134000000D03*
D17*
X117000000Y-107000000D03*
X100750500Y-113863158D03*
D18*
X141200000Y-133600000D03*
D17*
X170150000Y-132106661D03*
D18*
X140400000Y-133600000D03*
X153800000Y-132900000D03*
D17*
X167000000Y-112000000D03*
X157000000Y-107000000D03*
X162000000Y-102000000D03*
X138200000Y-134700000D03*
X113800500Y-105193682D03*
X136475759Y-126088500D03*
X152000000Y-102000000D03*
X167000000Y-117000000D03*
X182000000Y-137000000D03*
D18*
X166600000Y-132900000D03*
D17*
X162000000Y-107000000D03*
X152000000Y-107000000D03*
X156323645Y-128817259D03*
X167000000Y-107000000D03*
X172000000Y-127000000D03*
X147000000Y-102000000D03*
X172000000Y-117000000D03*
X102000000Y-107000000D03*
D18*
X152600000Y-132900000D03*
D17*
X104422311Y-123852500D03*
D18*
X155000000Y-134000000D03*
X138400000Y-132700000D03*
D17*
%TO.N,/SCL*%
X151862000Y-110239000D03*
%TO.N,/3V3*%
X152032000Y-116202000D03*
%TO.N,/V12*%
X153622000Y-126135000D03*
X170139000Y-128890000D03*
X164362000Y-126300000D03*
%TO.N,/VCC*%
X107112000Y-128289000D03*
X106740000Y-115632000D03*
X104500000Y-133916000D03*
%TO.N,/LEDA1*%
X104500000Y-121378000D03*
X103415000Y-115818000D03*
%TO.N,/LEDK1*%
X111981000Y-117600000D03*
%TO.N,/LEDA2*%
X102901000Y-128274000D03*
X106972000Y-134510000D03*
%TO.N,/LEDK2*%
X111929000Y-128722000D03*
%TO.N,/CC1*%
X141200000Y-112350000D03*
X107600000Y-119450000D03*
%TO.N,/CC2*%
X108600000Y-129000000D03*
X140200000Y-116200000D03*
%TO.N,/SWC2*%
X113615000Y-130958000D03*
X105885000Y-131450000D03*
%TO.N,/PWM1*%
X149038000Y-124941000D03*
X150585000Y-113299000D03*
%TO.N,/PWM2*%
X152032000Y-127325000D03*
%TO.N,/PWM3*%
X148554000Y-121464000D03*
%TO.N,/PWM4*%
X159824000Y-126761000D03*
%TO.N,/AUX*%
X153986000Y-128802000D03*
%TO.N,/AUXD*%
X174551000Y-138000000D03*
%TD*%
D19*
%TO.N,/ISN*%
X119200000Y-129870000D02*
X119200000Y-123450000D01*
D20*
%TO.N,/SCL*%
X146590000Y-112350000D02*
X149752000Y-112350000D01*
X145823000Y-117337000D02*
X145823000Y-113117000D01*
X149752000Y-112350000D02*
X151862000Y-110239000D01*
X145823000Y-113117000D02*
X146590000Y-112350000D01*
X144460000Y-118700000D02*
X145823000Y-117337000D01*
%TO.N,/3V3*%
X152032000Y-118872000D02*
X147125000Y-123780000D01*
X147125000Y-123780000D02*
X147000000Y-123780000D01*
X152032000Y-116202000D02*
X152032000Y-118872000D01*
D21*
%TO.N,/V12*%
X148812000Y-106000000D02*
X147000000Y-106000000D01*
X153622000Y-126135000D02*
X153622000Y-110810000D01*
X163047000Y-127616000D02*
X164362000Y-126300000D01*
X164362000Y-126300000D02*
X166952000Y-128890000D01*
X166952000Y-128890000D02*
X170139000Y-128890000D01*
X153622000Y-110810000D02*
X148812000Y-106000000D01*
X153622000Y-126135000D02*
X155103000Y-127616000D01*
X155103000Y-127616000D02*
X163047000Y-127616000D01*
%TO.N,/VCC*%
X104500000Y-130902000D02*
X107112000Y-128289000D01*
X107112000Y-128289000D02*
X106740000Y-127917000D01*
X104500000Y-133916000D02*
X104500000Y-130902000D01*
X106740000Y-127917000D02*
X106740000Y-115632000D01*
%TO.N,/LEDA1*%
X104500000Y-116903000D02*
X103415000Y-115818000D01*
X102086000Y-148886000D02*
X102086000Y-123792000D01*
X103000000Y-149800000D02*
X102086000Y-148886000D01*
X102086000Y-123792000D02*
X104500000Y-121378000D01*
X104500000Y-121378000D02*
X104500000Y-116903000D01*
%TO.N,/LEDK1*%
X115230000Y-120849000D02*
X111981000Y-117600000D01*
X108218000Y-151518000D02*
X114218000Y-151518000D01*
X114218000Y-151518000D02*
X115230000Y-150507000D01*
X115230000Y-150507000D02*
X115230000Y-120849000D01*
X106500000Y-149800000D02*
X108218000Y-151518000D01*
%TO.N,/LEDA2*%
X106972000Y-146772000D02*
X110000000Y-149800000D01*
X106972000Y-134510000D02*
X106972000Y-134745000D01*
X102901000Y-133473000D02*
X102901000Y-128274000D01*
X104173000Y-134745000D02*
X102901000Y-133473000D01*
X106972000Y-134745000D02*
X106972000Y-146772000D01*
X106972000Y-134745000D02*
X104173000Y-134745000D01*
%TO.N,/LEDK2*%
X114417000Y-130564000D02*
X114417000Y-148883000D01*
X114417000Y-148883000D02*
X113500000Y-149800000D01*
X112575000Y-128722000D02*
X114417000Y-130564000D01*
X111929000Y-128722000D02*
X112575000Y-128722000D01*
D19*
%TO.N,/CC1*%
X141200000Y-112350000D02*
X141200000Y-101000000D01*
X141200000Y-101000000D02*
X107600000Y-101000000D01*
X107600000Y-101000000D02*
X107600000Y-119450000D01*
%TO.N,/CC2*%
X108600000Y-101800000D02*
X108600000Y-129000000D01*
X140200000Y-116200000D02*
X140200000Y-101800000D01*
X140200000Y-101800000D02*
X108600000Y-101800000D01*
D21*
%TO.N,/SWC2*%
X113123000Y-131450000D02*
X113615000Y-130958000D01*
X105885000Y-131450000D02*
X113123000Y-131450000D01*
D20*
%TO.N,/PWM1*%
X150585000Y-113299000D02*
X152693000Y-115407000D01*
X152693000Y-115407000D02*
X152693000Y-121286000D01*
X152693000Y-121286000D02*
X149038000Y-124941000D01*
%TO.N,/PWM2*%
X145690000Y-127325000D02*
X152032000Y-127325000D01*
X142356000Y-123991000D02*
X145690000Y-127325000D01*
X142356000Y-113184000D02*
X142356000Y-123991000D01*
X144460000Y-111080000D02*
X142356000Y-113184000D01*
%TO.N,/PWM3*%
X148554000Y-115174000D02*
X148554000Y-121464000D01*
X147000000Y-113620000D02*
X148554000Y-115174000D01*
%TO.N,/PWM4*%
X159824000Y-126761000D02*
X159824000Y-116125000D01*
X159824000Y-116125000D02*
X148523000Y-104823000D01*
X145975000Y-104823000D02*
X145730000Y-105068000D01*
X148523000Y-104823000D02*
X145975000Y-104823000D01*
X145730000Y-105068000D02*
X145730000Y-112350000D01*
X145730000Y-112350000D02*
X144460000Y-113620000D01*
%TO.N,/AUX*%
X151364000Y-125765000D02*
X144768000Y-125765000D01*
X142807000Y-122893000D02*
X144460000Y-121240000D01*
X142807000Y-123804000D02*
X142807000Y-122893000D01*
X153986000Y-128387000D02*
X151364000Y-125765000D01*
X153986000Y-128802000D02*
X153986000Y-128387000D01*
X144768000Y-125765000D02*
X142807000Y-123804000D01*
D21*
%TO.N,/AUXD*%
X170500000Y-149800000D02*
X174551000Y-145749000D01*
X174551000Y-145749000D02*
X174551000Y-138000000D01*
%TD*%
%TA.AperFunction,Conductor*%
%TO.N,/GND*%
G36*
X152186822Y-119421480D02*
G01*
X152242760Y-119463345D01*
X152267183Y-119528807D01*
X152267500Y-119537666D01*
X152267500Y-121058390D01*
X152247815Y-121125429D01*
X152231181Y-121146071D01*
X149073071Y-124304181D01*
X149011748Y-124337666D01*
X148985390Y-124340500D01*
X148958943Y-124340500D01*
X148806216Y-124381423D01*
X148806209Y-124381426D01*
X148669290Y-124460475D01*
X148669282Y-124460481D01*
X148557481Y-124572282D01*
X148557475Y-124572290D01*
X148478426Y-124709209D01*
X148478423Y-124709216D01*
X148437500Y-124861943D01*
X148437500Y-125020057D01*
X148446200Y-125052527D01*
X148480527Y-125180635D01*
X148477891Y-125181341D01*
X148483928Y-125237524D01*
X148452650Y-125300001D01*
X148392559Y-125335650D01*
X148361900Y-125339500D01*
X144995610Y-125339500D01*
X144966169Y-125330855D01*
X144936183Y-125324332D01*
X144931167Y-125320577D01*
X144928571Y-125319815D01*
X144907929Y-125303181D01*
X144862888Y-125258140D01*
X144829403Y-125196817D01*
X144834387Y-125127125D01*
X144876259Y-125071192D01*
X144912253Y-125052527D01*
X144978219Y-125031094D01*
X145167554Y-124934622D01*
X145221716Y-124895270D01*
X145221717Y-124895270D01*
X144589409Y-124262962D01*
X144652993Y-124245925D01*
X144767007Y-124180099D01*
X144860099Y-124087007D01*
X144925925Y-123972993D01*
X144942962Y-123909409D01*
X145575270Y-124541717D01*
X145575270Y-124541716D01*
X145614622Y-124487554D01*
X145711095Y-124298217D01*
X145720492Y-124269295D01*
X145759928Y-124211618D01*
X145824286Y-124184419D01*
X145893133Y-124196331D01*
X145944610Y-124243574D01*
X145948908Y-124251314D01*
X146016004Y-124382995D01*
X146122441Y-124529494D01*
X146122445Y-124529499D01*
X146250500Y-124657554D01*
X146250505Y-124657558D01*
X146321607Y-124709216D01*
X146397006Y-124763996D01*
X146502484Y-124817740D01*
X146558360Y-124846211D01*
X146558363Y-124846212D01*
X146644476Y-124874191D01*
X146730591Y-124902171D01*
X146813429Y-124915291D01*
X146909449Y-124930500D01*
X146909454Y-124930500D01*
X147090551Y-124930500D01*
X147177259Y-124916765D01*
X147269409Y-124902171D01*
X147441639Y-124846211D01*
X147602994Y-124763996D01*
X147749501Y-124657553D01*
X147877553Y-124529501D01*
X147983996Y-124382994D01*
X148066211Y-124221639D01*
X148122171Y-124049409D01*
X148136765Y-123957259D01*
X148150500Y-123870551D01*
X148150500Y-123689448D01*
X148122171Y-123510591D01*
X148114712Y-123487637D01*
X148112716Y-123417799D01*
X148144951Y-123361648D01*
X152055810Y-119449993D01*
X152117130Y-119416502D01*
X152186822Y-119421480D01*
G37*
%TD.AperFunction*%
%TA.AperFunction,Conductor*%
G36*
X145766630Y-121250253D02*
G01*
X145824863Y-121288863D01*
X145852473Y-121349321D01*
X145877829Y-121509410D01*
X145933787Y-121681636D01*
X145933788Y-121681639D01*
X146016006Y-121842997D01*
X146122441Y-121989494D01*
X146122445Y-121989499D01*
X146250500Y-122117554D01*
X146250505Y-122117558D01*
X146378287Y-122210396D01*
X146397006Y-122223996D01*
X146502484Y-122277740D01*
X146558360Y-122306211D01*
X146558363Y-122306212D01*
X146590803Y-122316752D01*
X146730591Y-122362171D01*
X146803639Y-122373740D01*
X146890678Y-122387527D01*
X146953813Y-122417456D01*
X146990744Y-122476768D01*
X146989746Y-122546631D01*
X146951136Y-122604863D01*
X146890678Y-122632473D01*
X146730589Y-122657829D01*
X146558363Y-122713787D01*
X146558360Y-122713788D01*
X146397002Y-122796006D01*
X146250505Y-122902441D01*
X146250500Y-122902445D01*
X146122445Y-123030500D01*
X146122441Y-123030505D01*
X146016004Y-123177004D01*
X145948908Y-123308685D01*
X145900933Y-123359480D01*
X145833112Y-123376275D01*
X145766977Y-123353737D01*
X145723527Y-123299021D01*
X145720492Y-123290705D01*
X145711094Y-123261780D01*
X145614624Y-123072449D01*
X145575270Y-123018282D01*
X145575269Y-123018282D01*
X144942962Y-123650590D01*
X144925925Y-123587007D01*
X144860099Y-123472993D01*
X144767007Y-123379901D01*
X144652993Y-123314075D01*
X144589407Y-123297036D01*
X145221716Y-122664728D01*
X145167550Y-122625375D01*
X144978217Y-122528904D01*
X144949292Y-122519506D01*
X144891616Y-122480068D01*
X144864418Y-122415710D01*
X144876333Y-122346863D01*
X144923577Y-122295388D01*
X144931315Y-122291090D01*
X145062994Y-122223996D01*
X145209501Y-122117553D01*
X145337553Y-121989501D01*
X145443996Y-121842994D01*
X145526211Y-121681639D01*
X145582171Y-121509409D01*
X145596422Y-121419425D01*
X145607527Y-121349321D01*
X145637456Y-121286186D01*
X145696768Y-121249255D01*
X145766630Y-121250253D01*
G37*
%TD.AperFunction*%
%TA.AperFunction,Conductor*%
G36*
X148578942Y-106620185D02*
G01*
X148599584Y-106636819D01*
X151523537Y-109560772D01*
X151557022Y-109622095D01*
X151552038Y-109691787D01*
X151510166Y-109747720D01*
X151497856Y-109755840D01*
X151493287Y-109758477D01*
X151493282Y-109758481D01*
X151381481Y-109870282D01*
X151381475Y-109870290D01*
X151302426Y-110007209D01*
X151302423Y-110007216D01*
X151261500Y-110159943D01*
X151261500Y-110186548D01*
X151241815Y-110253587D01*
X151225202Y-110274208D01*
X150163433Y-111336481D01*
X149612015Y-111888160D01*
X149550700Y-111921660D01*
X149524313Y-111924500D01*
X148051896Y-111924500D01*
X147984857Y-111904815D01*
X147939102Y-111852011D01*
X147929158Y-111782853D01*
X147951578Y-111727615D01*
X147968369Y-111704502D01*
X147983996Y-111682994D01*
X148066211Y-111521639D01*
X148122171Y-111349409D01*
X148136765Y-111257259D01*
X148150500Y-111170551D01*
X148150500Y-110989448D01*
X148132505Y-110875840D01*
X148122171Y-110810591D01*
X148066211Y-110638361D01*
X148066211Y-110638360D01*
X148016961Y-110541703D01*
X147983996Y-110477006D01*
X147970396Y-110458287D01*
X147877558Y-110330505D01*
X147877554Y-110330500D01*
X147749499Y-110202445D01*
X147749494Y-110202441D01*
X147602995Y-110096004D01*
X147471314Y-110028908D01*
X147420519Y-109980934D01*
X147403724Y-109913113D01*
X147426262Y-109846978D01*
X147480977Y-109803527D01*
X147489295Y-109800492D01*
X147518217Y-109791095D01*
X147707554Y-109694622D01*
X147761716Y-109655270D01*
X147761717Y-109655270D01*
X147129409Y-109022962D01*
X147192993Y-109005925D01*
X147307007Y-108940099D01*
X147400099Y-108847007D01*
X147465925Y-108732993D01*
X147482962Y-108669408D01*
X148115270Y-109301717D01*
X148115270Y-109301716D01*
X148154622Y-109247554D01*
X148251095Y-109058217D01*
X148316757Y-108856130D01*
X148316757Y-108856127D01*
X148350000Y-108646246D01*
X148350000Y-108433753D01*
X148316757Y-108223872D01*
X148316757Y-108223869D01*
X148251095Y-108021782D01*
X148154624Y-107832449D01*
X148115270Y-107778282D01*
X148115269Y-107778282D01*
X147482962Y-108410590D01*
X147465925Y-108347007D01*
X147400099Y-108232993D01*
X147307007Y-108139901D01*
X147192993Y-108074075D01*
X147129407Y-108057036D01*
X147761716Y-107424728D01*
X147707550Y-107385375D01*
X147706786Y-107384986D01*
X147706546Y-107384759D01*
X147703396Y-107382829D01*
X147703801Y-107382167D01*
X147655988Y-107337013D01*
X147639191Y-107269192D01*
X147661726Y-107203057D01*
X147716440Y-107159604D01*
X147763077Y-107150499D01*
X147894856Y-107150499D01*
X147894864Y-107150499D01*
X147894879Y-107150497D01*
X147894882Y-107150497D01*
X147919987Y-107147586D01*
X147919988Y-107147585D01*
X147919991Y-107147585D01*
X148022765Y-107102206D01*
X148102206Y-107022765D01*
X148147585Y-106919991D01*
X148150500Y-106894865D01*
X148150500Y-106724500D01*
X148153050Y-106715814D01*
X148151762Y-106706853D01*
X148162740Y-106682812D01*
X148170185Y-106657461D01*
X148177025Y-106651533D01*
X148180787Y-106643297D01*
X148203021Y-106629007D01*
X148222989Y-106611706D01*
X148233503Y-106609418D01*
X148239565Y-106605523D01*
X148274500Y-106600500D01*
X148511903Y-106600500D01*
X148578942Y-106620185D01*
G37*
%TD.AperFunction*%
%TA.AperFunction,Conductor*%
G36*
X172443039Y-100320185D02*
G01*
X172488794Y-100372989D01*
X172500000Y-100424500D01*
X172500000Y-130500000D01*
X187575500Y-130500000D01*
X187642539Y-130519685D01*
X187688294Y-130572489D01*
X187699500Y-130624000D01*
X187699500Y-153995572D01*
X187699184Y-154004418D01*
X187699184Y-154004419D01*
X187682833Y-154233019D01*
X187680315Y-154250530D01*
X187632544Y-154470133D01*
X187627560Y-154487109D01*
X187549016Y-154697691D01*
X187541666Y-154713783D01*
X187433961Y-154911032D01*
X187424396Y-154925917D01*
X187289708Y-155105838D01*
X187278123Y-155119207D01*
X187119208Y-155278122D01*
X187105838Y-155289708D01*
X186925917Y-155424396D01*
X186911032Y-155433961D01*
X186713783Y-155541666D01*
X186697691Y-155549016D01*
X186487109Y-155627560D01*
X186470136Y-155632543D01*
X186470133Y-155632544D01*
X186250530Y-155680315D01*
X186233019Y-155682833D01*
X186025320Y-155697688D01*
X186004417Y-155699184D01*
X185995572Y-155699500D01*
X102004428Y-155699500D01*
X101995582Y-155699184D01*
X101766982Y-155682834D01*
X101749470Y-155680316D01*
X101529862Y-155632543D01*
X101512887Y-155627559D01*
X101302311Y-155549019D01*
X101286217Y-155541669D01*
X101088963Y-155433959D01*
X101074080Y-155424394D01*
X100894163Y-155289710D01*
X100880792Y-155278124D01*
X100721875Y-155119207D01*
X100710289Y-155105836D01*
X100575605Y-154925919D01*
X100566040Y-154911036D01*
X100458330Y-154713782D01*
X100450983Y-154697694D01*
X100372437Y-154487103D01*
X100367458Y-154470144D01*
X100319683Y-154250529D01*
X100317165Y-154233017D01*
X100308959Y-154118284D01*
X100300816Y-154004418D01*
X100300500Y-153995572D01*
X100300500Y-152381995D01*
X182699500Y-152381995D01*
X182699500Y-152618004D01*
X182699501Y-152618020D01*
X182730306Y-152852010D01*
X182791394Y-153079993D01*
X182881714Y-153298045D01*
X182881719Y-153298056D01*
X182952677Y-153420957D01*
X182999727Y-153502450D01*
X182999729Y-153502453D01*
X182999730Y-153502454D01*
X183143406Y-153689697D01*
X183143412Y-153689704D01*
X183310295Y-153856587D01*
X183310301Y-153856592D01*
X183497550Y-154000273D01*
X183628918Y-154076118D01*
X183701943Y-154118280D01*
X183701948Y-154118282D01*
X183701951Y-154118284D01*
X183920007Y-154208606D01*
X184147986Y-154269693D01*
X184381989Y-154300500D01*
X184381996Y-154300500D01*
X184618004Y-154300500D01*
X184618011Y-154300500D01*
X184852014Y-154269693D01*
X185079993Y-154208606D01*
X185298049Y-154118284D01*
X185502450Y-154000273D01*
X185689699Y-153856592D01*
X185856592Y-153689699D01*
X186000273Y-153502450D01*
X186118284Y-153298049D01*
X186208606Y-153079993D01*
X186269693Y-152852014D01*
X186300500Y-152618011D01*
X186300500Y-152381989D01*
X186269693Y-152147986D01*
X186208606Y-151920007D01*
X186118284Y-151701951D01*
X186118282Y-151701948D01*
X186118280Y-151701943D01*
X186076118Y-151628918D01*
X186000273Y-151497550D01*
X185856592Y-151310301D01*
X185856587Y-151310295D01*
X185689704Y-151143412D01*
X185689697Y-151143406D01*
X185502454Y-150999730D01*
X185502453Y-150999729D01*
X185502450Y-150999727D01*
X185420957Y-150952677D01*
X185298056Y-150881719D01*
X185298045Y-150881714D01*
X185079993Y-150791394D01*
X185021993Y-150775853D01*
X184852014Y-150730307D01*
X184852013Y-150730306D01*
X184852010Y-150730306D01*
X184618020Y-150699501D01*
X184618017Y-150699500D01*
X184618011Y-150699500D01*
X184381989Y-150699500D01*
X184381983Y-150699500D01*
X184381979Y-150699501D01*
X184147989Y-150730306D01*
X183920006Y-150791394D01*
X183701954Y-150881714D01*
X183701943Y-150881719D01*
X183497545Y-150999730D01*
X183310302Y-151143406D01*
X183310295Y-151143412D01*
X183143412Y-151310295D01*
X183143406Y-151310302D01*
X182999730Y-151497545D01*
X182881719Y-151701943D01*
X182881714Y-151701954D01*
X182791394Y-151920006D01*
X182730306Y-152147989D01*
X182699501Y-152381979D01*
X182699500Y-152381995D01*
X100300500Y-152381995D01*
X100300500Y-123712943D01*
X101485499Y-123712943D01*
X101485499Y-123871057D01*
X101485499Y-123871059D01*
X101485500Y-123881053D01*
X101485500Y-148799330D01*
X101485499Y-148799348D01*
X101485499Y-148965056D01*
X101495275Y-149001541D01*
X101499500Y-149033634D01*
X101499500Y-150793091D01*
X101510123Y-150881562D01*
X101565639Y-151022342D01*
X101565640Y-151022344D01*
X101657077Y-151142922D01*
X101759449Y-151220553D01*
X101777658Y-151234361D01*
X101918436Y-151289876D01*
X102006901Y-151300500D01*
X103993098Y-151300499D01*
X104081564Y-151289876D01*
X104222342Y-151234361D01*
X104342922Y-151142922D01*
X104434361Y-151022342D01*
X104489876Y-150881564D01*
X104500500Y-150793099D01*
X104500499Y-148806902D01*
X104489876Y-148718436D01*
X104434361Y-148577658D01*
X104434359Y-148577655D01*
X104342922Y-148457077D01*
X104222344Y-148365640D01*
X104222342Y-148365639D01*
X104081564Y-148310124D01*
X104081561Y-148310123D01*
X103993099Y-148299500D01*
X102810500Y-148299500D01*
X102743461Y-148279815D01*
X102697706Y-148227011D01*
X102686500Y-148175500D01*
X102686500Y-134407097D01*
X102706185Y-134340058D01*
X102758989Y-134294303D01*
X102828147Y-134284359D01*
X102891703Y-134313384D01*
X102898178Y-134319413D01*
X103804284Y-135225520D01*
X103804286Y-135225521D01*
X103804290Y-135225524D01*
X103941209Y-135304573D01*
X103941216Y-135304577D01*
X104093943Y-135345501D01*
X104093945Y-135345501D01*
X104259654Y-135345501D01*
X104259670Y-135345500D01*
X106247500Y-135345500D01*
X106314539Y-135365185D01*
X106360294Y-135417989D01*
X106371500Y-135469500D01*
X106371500Y-146685330D01*
X106371499Y-146685348D01*
X106371499Y-146851054D01*
X106371498Y-146851054D01*
X106412423Y-147003785D01*
X106441358Y-147053900D01*
X106441359Y-147053904D01*
X106441360Y-147053904D01*
X106491479Y-147140714D01*
X106491481Y-147140717D01*
X106610349Y-147259585D01*
X106610355Y-147259590D01*
X108547200Y-149196435D01*
X108580685Y-149257758D01*
X108577450Y-149322433D01*
X108536447Y-149448628D01*
X108499500Y-149681902D01*
X108499500Y-149918097D01*
X108536446Y-150151368D01*
X108609433Y-150375996D01*
X108676335Y-150507297D01*
X108716657Y-150586433D01*
X108798805Y-150699500D01*
X108814146Y-150720614D01*
X108818377Y-150732474D01*
X108826622Y-150741989D01*
X108829895Y-150764754D01*
X108837626Y-150786421D01*
X108834774Y-150798685D01*
X108836566Y-150811147D01*
X108827010Y-150832069D01*
X108821801Y-150854474D01*
X108812771Y-150863248D01*
X108807541Y-150874703D01*
X108788188Y-150887140D01*
X108771695Y-150903169D01*
X108757949Y-150906573D01*
X108748763Y-150912477D01*
X108713828Y-150917500D01*
X108518097Y-150917500D01*
X108451058Y-150897815D01*
X108430416Y-150881181D01*
X107952798Y-150403563D01*
X107919313Y-150342240D01*
X107922547Y-150277566D01*
X107963553Y-150151368D01*
X107999254Y-149925961D01*
X108000500Y-149918097D01*
X108000500Y-149681902D01*
X107963553Y-149448631D01*
X107899856Y-149252593D01*
X107890568Y-149224008D01*
X107890566Y-149224005D01*
X107890566Y-149224003D01*
X107834002Y-149112991D01*
X107783343Y-149013567D01*
X107644517Y-148822490D01*
X107477510Y-148655483D01*
X107286433Y-148516657D01*
X107075996Y-148409433D01*
X106851368Y-148336446D01*
X106618097Y-148299500D01*
X106618092Y-148299500D01*
X106381908Y-148299500D01*
X106381903Y-148299500D01*
X106148631Y-148336446D01*
X105924003Y-148409433D01*
X105713566Y-148516657D01*
X105604550Y-148595862D01*
X105522490Y-148655483D01*
X105522488Y-148655485D01*
X105522487Y-148655485D01*
X105355485Y-148822487D01*
X105355485Y-148822488D01*
X105355483Y-148822490D01*
X105295862Y-148904550D01*
X105216657Y-149013566D01*
X105109433Y-149224003D01*
X105036446Y-149448631D01*
X104999500Y-149681902D01*
X104999500Y-149918097D01*
X105036446Y-150151368D01*
X105109433Y-150375996D01*
X105176335Y-150507297D01*
X105216657Y-150586433D01*
X105355483Y-150777510D01*
X105522490Y-150944517D01*
X105713567Y-151083343D01*
X105790107Y-151122342D01*
X105924003Y-151190566D01*
X105924005Y-151190566D01*
X105924008Y-151190568D01*
X106016292Y-151220553D01*
X106148631Y-151263553D01*
X106381903Y-151300500D01*
X106381908Y-151300500D01*
X106618097Y-151300500D01*
X106727062Y-151283241D01*
X106851368Y-151263553D01*
X106977566Y-151222547D01*
X107047404Y-151220553D01*
X107103563Y-151252798D01*
X107733139Y-151882374D01*
X107733149Y-151882385D01*
X107737479Y-151886715D01*
X107737480Y-151886716D01*
X107849284Y-151998520D01*
X107917432Y-152037864D01*
X107936095Y-152048639D01*
X107936097Y-152048641D01*
X107974151Y-152070611D01*
X107986215Y-152077577D01*
X108138943Y-152118501D01*
X108138946Y-152118501D01*
X108304653Y-152118501D01*
X108304669Y-152118500D01*
X114216703Y-152118500D01*
X114296761Y-152118540D01*
X114296911Y-152118500D01*
X114297057Y-152118500D01*
X114297058Y-152118500D01*
X114329967Y-152109681D01*
X114372368Y-152098320D01*
X114372432Y-152098321D01*
X114372428Y-152098305D01*
X114446103Y-152078602D01*
X114446104Y-152078601D01*
X114449508Y-152077691D01*
X114449637Y-152077616D01*
X114449784Y-152077577D01*
X114518568Y-152037864D01*
X114586478Y-151998702D01*
X114586483Y-151998696D01*
X114586711Y-151998522D01*
X114586716Y-151998520D01*
X114643082Y-151942152D01*
X114643138Y-151942121D01*
X114643126Y-151942109D01*
X114702920Y-151882374D01*
X115598584Y-150987595D01*
X115598716Y-150987520D01*
X115654700Y-150931535D01*
X115710337Y-150875954D01*
X115710341Y-150875945D01*
X115710510Y-150875727D01*
X115710512Y-150875722D01*
X115710520Y-150875716D01*
X115750191Y-150807002D01*
X115789462Y-150739061D01*
X115789501Y-150738915D01*
X115789577Y-150738784D01*
X115810011Y-150662522D01*
X115830461Y-150586354D01*
X115830461Y-150586202D01*
X115830500Y-150586057D01*
X115830500Y-150507297D01*
X115830539Y-150428240D01*
X115830538Y-150428237D01*
X115830542Y-150420510D01*
X115830500Y-150419853D01*
X115830500Y-148706898D01*
X118399500Y-148706898D01*
X118399500Y-150893102D01*
X118400709Y-150903169D01*
X118410122Y-150981561D01*
X118465639Y-151122343D01*
X118557077Y-151242922D01*
X118677656Y-151334360D01*
X118677657Y-151334360D01*
X118677658Y-151334361D01*
X118818436Y-151389877D01*
X118906898Y-151400500D01*
X118906903Y-151400500D01*
X121093097Y-151400500D01*
X121093102Y-151400500D01*
X121181564Y-151389877D01*
X121322342Y-151334361D01*
X121442922Y-151242922D01*
X121534361Y-151122342D01*
X121589877Y-150981564D01*
X121600500Y-150893102D01*
X121600500Y-149674038D01*
X123479500Y-149674038D01*
X123479500Y-149925961D01*
X123518910Y-150174785D01*
X123596760Y-150414383D01*
X123711132Y-150638848D01*
X123859201Y-150842649D01*
X123859205Y-150842654D01*
X124037345Y-151020794D01*
X124037350Y-151020798D01*
X124177116Y-151122343D01*
X124241155Y-151168870D01*
X124384184Y-151241747D01*
X124465616Y-151283239D01*
X124465618Y-151283239D01*
X124465621Y-151283241D01*
X124705215Y-151361090D01*
X124954038Y-151400500D01*
X124954039Y-151400500D01*
X125205961Y-151400500D01*
X125205962Y-151400500D01*
X125454785Y-151361090D01*
X125694379Y-151283241D01*
X125918845Y-151168870D01*
X126122656Y-151020793D01*
X126300793Y-150842656D01*
X126448870Y-150638845D01*
X126563241Y-150414379D01*
X126641090Y-150174785D01*
X126680500Y-149925962D01*
X126680500Y-149674038D01*
X126641090Y-149425215D01*
X126563241Y-149185621D01*
X126563239Y-149185618D01*
X126563239Y-149185616D01*
X126521747Y-149104184D01*
X126448870Y-148961155D01*
X126387060Y-148876080D01*
X126314404Y-148776077D01*
X126314403Y-148776076D01*
X126300796Y-148757347D01*
X126250347Y-148706898D01*
X130399500Y-148706898D01*
X130399500Y-150893102D01*
X130400709Y-150903169D01*
X130410122Y-150981561D01*
X130465639Y-151122343D01*
X130557077Y-151242922D01*
X130677656Y-151334360D01*
X130677657Y-151334360D01*
X130677658Y-151334361D01*
X130818436Y-151389877D01*
X130906898Y-151400500D01*
X130906903Y-151400500D01*
X133093097Y-151400500D01*
X133093102Y-151400500D01*
X133181564Y-151389877D01*
X133322342Y-151334361D01*
X133442922Y-151242922D01*
X133534361Y-151122342D01*
X133589877Y-150981564D01*
X133600500Y-150893102D01*
X133600500Y-149674038D01*
X135479500Y-149674038D01*
X135479500Y-149925961D01*
X135518910Y-150174785D01*
X135596760Y-150414383D01*
X135711132Y-150638848D01*
X135859201Y-150842649D01*
X135859205Y-150842654D01*
X136037345Y-151020794D01*
X136037350Y-151020798D01*
X136177116Y-151122343D01*
X136241155Y-151168870D01*
X136384184Y-151241747D01*
X136465616Y-151283239D01*
X136465618Y-151283239D01*
X136465621Y-151283241D01*
X136705215Y-151361090D01*
X136954038Y-151400500D01*
X136954039Y-151400500D01*
X137205961Y-151400500D01*
X137205962Y-151400500D01*
X137454785Y-151361090D01*
X137694379Y-151283241D01*
X137918845Y-151168870D01*
X138122656Y-151020793D01*
X138300793Y-150842656D01*
X138448870Y-150638845D01*
X138563241Y-150414379D01*
X138641090Y-150174785D01*
X138680500Y-149925962D01*
X138680500Y-149674038D01*
X138641090Y-149425215D01*
X138563241Y-149185621D01*
X138563239Y-149185618D01*
X138563239Y-149185616D01*
X138521747Y-149104184D01*
X138448870Y-148961155D01*
X138387060Y-148876080D01*
X138314404Y-148776077D01*
X138314403Y-148776076D01*
X138300796Y-148757347D01*
X138250347Y-148706898D01*
X142899500Y-148706898D01*
X142899500Y-150893102D01*
X142900709Y-150903169D01*
X142910122Y-150981561D01*
X142965639Y-151122343D01*
X143057077Y-151242922D01*
X143177656Y-151334360D01*
X143177657Y-151334360D01*
X143177658Y-151334361D01*
X143318436Y-151389877D01*
X143406898Y-151400500D01*
X143406903Y-151400500D01*
X145593097Y-151400500D01*
X145593102Y-151400500D01*
X145681564Y-151389877D01*
X145822342Y-151334361D01*
X145942922Y-151242922D01*
X146034361Y-151122342D01*
X146089877Y-150981564D01*
X146100500Y-150893102D01*
X146100500Y-149674038D01*
X147979500Y-149674038D01*
X147979500Y-149925961D01*
X148018910Y-150174785D01*
X148096760Y-150414383D01*
X148211132Y-150638848D01*
X148359201Y-150842649D01*
X148359205Y-150842654D01*
X148537345Y-151020794D01*
X148537350Y-151020798D01*
X148677116Y-151122343D01*
X148741155Y-151168870D01*
X148884184Y-151241747D01*
X148965616Y-151283239D01*
X148965618Y-151283239D01*
X148965621Y-151283241D01*
X149205215Y-151361090D01*
X149454038Y-151400500D01*
X149454039Y-151400500D01*
X149705961Y-151400500D01*
X149705962Y-151400500D01*
X149954785Y-151361090D01*
X150194379Y-151283241D01*
X150418845Y-151168870D01*
X150622656Y-151020793D01*
X150800793Y-150842656D01*
X150948870Y-150638845D01*
X151063241Y-150414379D01*
X151141090Y-150174785D01*
X151180500Y-149925962D01*
X151180500Y-149674038D01*
X153059500Y-149674038D01*
X153059500Y-149925961D01*
X153098910Y-150174785D01*
X153176760Y-150414383D01*
X153291132Y-150638848D01*
X153439201Y-150842649D01*
X153439205Y-150842654D01*
X153617345Y-151020794D01*
X153617350Y-151020798D01*
X153757116Y-151122343D01*
X153821155Y-151168870D01*
X153964184Y-151241747D01*
X154045616Y-151283239D01*
X154045618Y-151283239D01*
X154045621Y-151283241D01*
X154285215Y-151361090D01*
X154534038Y-151400500D01*
X154534039Y-151400500D01*
X154785961Y-151400500D01*
X154785962Y-151400500D01*
X155034785Y-151361090D01*
X155274379Y-151283241D01*
X155498845Y-151168870D01*
X155702656Y-151020793D01*
X155880793Y-150842656D01*
X156028870Y-150638845D01*
X156143241Y-150414379D01*
X156221090Y-150174785D01*
X156260500Y-149925962D01*
X156260500Y-149674038D01*
X158139500Y-149674038D01*
X158139500Y-149925961D01*
X158178910Y-150174785D01*
X158256760Y-150414383D01*
X158371132Y-150638848D01*
X158519201Y-150842649D01*
X158519205Y-150842654D01*
X158697345Y-151020794D01*
X158697350Y-151020798D01*
X158837116Y-151122343D01*
X158901155Y-151168870D01*
X159044184Y-151241747D01*
X159125616Y-151283239D01*
X159125618Y-151283239D01*
X159125621Y-151283241D01*
X159365215Y-151361090D01*
X159614038Y-151400500D01*
X159614039Y-151400500D01*
X159865961Y-151400500D01*
X159865962Y-151400500D01*
X160114785Y-151361090D01*
X160354379Y-151283241D01*
X160578845Y-151168870D01*
X160782656Y-151020793D01*
X160960793Y-150842656D01*
X161108870Y-150638845D01*
X161223241Y-150414379D01*
X161301090Y-150174785D01*
X161340500Y-149925962D01*
X161340500Y-149674038D01*
X161301090Y-149425215D01*
X161223241Y-149185621D01*
X161223239Y-149185618D01*
X161223239Y-149185616D01*
X161181747Y-149104184D01*
X161108870Y-148961155D01*
X161047060Y-148876080D01*
X160996798Y-148806900D01*
X165499500Y-148806900D01*
X165499500Y-150793091D01*
X165510123Y-150881562D01*
X165565639Y-151022342D01*
X165565640Y-151022344D01*
X165657077Y-151142922D01*
X165759449Y-151220553D01*
X165777658Y-151234361D01*
X165918436Y-151289876D01*
X166006901Y-151300500D01*
X167993098Y-151300499D01*
X168081564Y-151289876D01*
X168222342Y-151234361D01*
X168342922Y-151142922D01*
X168434361Y-151022342D01*
X168489876Y-150881564D01*
X168500500Y-150793099D01*
X168500499Y-149681902D01*
X168999500Y-149681902D01*
X168999500Y-149918097D01*
X169036446Y-150151368D01*
X169109433Y-150375996D01*
X169176335Y-150507297D01*
X169216657Y-150586433D01*
X169355483Y-150777510D01*
X169522490Y-150944517D01*
X169713567Y-151083343D01*
X169790107Y-151122342D01*
X169924003Y-151190566D01*
X169924005Y-151190566D01*
X169924008Y-151190568D01*
X170016292Y-151220553D01*
X170148631Y-151263553D01*
X170381903Y-151300500D01*
X170381908Y-151300500D01*
X170618097Y-151300500D01*
X170851368Y-151263553D01*
X170941211Y-151234361D01*
X171075992Y-151190568D01*
X171286433Y-151083343D01*
X171477510Y-150944517D01*
X171644517Y-150777510D01*
X171783343Y-150586433D01*
X171890568Y-150375992D01*
X171963553Y-150151368D01*
X171999254Y-149925961D01*
X172000500Y-149918097D01*
X172000500Y-149681902D01*
X171963553Y-149448635D01*
X171963553Y-149448632D01*
X171922547Y-149322433D01*
X171920553Y-149252593D01*
X171952796Y-149196437D01*
X174919713Y-146229521D01*
X174919716Y-146229520D01*
X175031520Y-146117716D01*
X175081639Y-146030904D01*
X175110577Y-145980785D01*
X175151500Y-145828057D01*
X175151500Y-145669943D01*
X175151500Y-139381995D01*
X182699500Y-139381995D01*
X182699500Y-139618004D01*
X182699501Y-139618020D01*
X182730306Y-139852010D01*
X182791394Y-140079993D01*
X182881714Y-140298045D01*
X182881719Y-140298056D01*
X182952677Y-140420957D01*
X182999727Y-140502450D01*
X182999729Y-140502453D01*
X182999730Y-140502454D01*
X183143406Y-140689697D01*
X183143412Y-140689704D01*
X183310295Y-140856587D01*
X183310301Y-140856592D01*
X183497550Y-141000273D01*
X183628918Y-141076118D01*
X183701943Y-141118280D01*
X183701948Y-141118282D01*
X183701951Y-141118284D01*
X183920007Y-141208606D01*
X184147986Y-141269693D01*
X184381989Y-141300500D01*
X184381996Y-141300500D01*
X184618004Y-141300500D01*
X184618011Y-141300500D01*
X184852014Y-141269693D01*
X185079993Y-141208606D01*
X185298049Y-141118284D01*
X185502450Y-141000273D01*
X185689699Y-140856592D01*
X185856592Y-140689699D01*
X186000273Y-140502450D01*
X186118284Y-140298049D01*
X186208606Y-140079993D01*
X186269693Y-139852014D01*
X186300500Y-139618011D01*
X186300500Y-139381989D01*
X186269693Y-139147986D01*
X186208606Y-138920007D01*
X186118284Y-138701951D01*
X186118282Y-138701948D01*
X186118280Y-138701943D01*
X186048942Y-138581847D01*
X186000273Y-138497550D01*
X185941001Y-138420306D01*
X185856593Y-138310302D01*
X185856587Y-138310295D01*
X185689704Y-138143412D01*
X185689697Y-138143406D01*
X185502454Y-137999730D01*
X185502453Y-137999729D01*
X185502450Y-137999727D01*
X185365996Y-137920945D01*
X185298056Y-137881719D01*
X185298045Y-137881714D01*
X185079993Y-137791394D01*
X184852010Y-137730306D01*
X184618020Y-137699501D01*
X184618017Y-137699500D01*
X184618011Y-137699500D01*
X184381989Y-137699500D01*
X184381983Y-137699500D01*
X184381979Y-137699501D01*
X184147989Y-137730306D01*
X183920006Y-137791394D01*
X183701954Y-137881714D01*
X183701943Y-137881719D01*
X183497545Y-137999730D01*
X183310302Y-138143406D01*
X183310295Y-138143412D01*
X183143412Y-138310295D01*
X183143406Y-138310302D01*
X182999730Y-138497545D01*
X182881719Y-138701943D01*
X182881714Y-138701954D01*
X182791394Y-138920006D01*
X182730306Y-139147989D01*
X182699501Y-139381979D01*
X182699500Y-139381995D01*
X175151500Y-139381995D01*
X175151500Y-137920943D01*
X175110577Y-137768216D01*
X175110573Y-137768209D01*
X175031524Y-137631290D01*
X175031518Y-137631282D01*
X174919717Y-137519481D01*
X174919709Y-137519475D01*
X174782790Y-137440426D01*
X174782786Y-137440424D01*
X174782784Y-137440423D01*
X174630057Y-137399500D01*
X174471943Y-137399500D01*
X174319216Y-137440423D01*
X174319209Y-137440426D01*
X174182290Y-137519475D01*
X174182282Y-137519481D01*
X174070481Y-137631282D01*
X174070475Y-137631290D01*
X173991426Y-137768209D01*
X173991423Y-137768216D01*
X173950500Y-137920943D01*
X173950500Y-145448902D01*
X173930815Y-145515941D01*
X173914181Y-145536583D01*
X171103563Y-148347200D01*
X171042240Y-148380685D01*
X170977564Y-148377450D01*
X170851370Y-148336447D01*
X170618097Y-148299500D01*
X170618092Y-148299500D01*
X170381908Y-148299500D01*
X170381903Y-148299500D01*
X170148631Y-148336446D01*
X169924003Y-148409433D01*
X169713566Y-148516657D01*
X169604550Y-148595862D01*
X169522490Y-148655483D01*
X169522488Y-148655485D01*
X169522487Y-148655485D01*
X169355485Y-148822487D01*
X169355485Y-148822488D01*
X169355483Y-148822490D01*
X169295862Y-148904550D01*
X169216657Y-149013566D01*
X169109433Y-149224003D01*
X169036446Y-149448631D01*
X168999500Y-149681902D01*
X168500499Y-149681902D01*
X168500499Y-148806902D01*
X168489876Y-148718436D01*
X168434361Y-148577658D01*
X168434359Y-148577655D01*
X168342922Y-148457077D01*
X168222344Y-148365640D01*
X168222342Y-148365639D01*
X168081564Y-148310124D01*
X168081561Y-148310123D01*
X167993099Y-148299500D01*
X166006908Y-148299500D01*
X165918437Y-148310123D01*
X165777657Y-148365639D01*
X165777655Y-148365640D01*
X165657077Y-148457077D01*
X165565640Y-148577655D01*
X165565029Y-148579205D01*
X165534949Y-148655485D01*
X165510124Y-148718437D01*
X165510123Y-148718438D01*
X165499500Y-148806900D01*
X160996798Y-148806900D01*
X160960798Y-148757350D01*
X160960794Y-148757345D01*
X160782654Y-148579205D01*
X160782649Y-148579201D01*
X160578848Y-148431132D01*
X160578847Y-148431131D01*
X160578845Y-148431130D01*
X160479841Y-148380685D01*
X160354383Y-148316760D01*
X160114785Y-148238910D01*
X159933032Y-148210123D01*
X159865962Y-148199500D01*
X159614038Y-148199500D01*
X159546974Y-148210122D01*
X159365214Y-148238910D01*
X159125616Y-148316760D01*
X158901151Y-148431132D01*
X158697350Y-148579201D01*
X158697345Y-148579205D01*
X158519205Y-148757345D01*
X158519201Y-148757350D01*
X158371132Y-148961151D01*
X158256760Y-149185616D01*
X158178910Y-149425214D01*
X158139500Y-149674038D01*
X156260500Y-149674038D01*
X156221090Y-149425215D01*
X156143241Y-149185621D01*
X156143239Y-149185618D01*
X156143239Y-149185616D01*
X156101747Y-149104184D01*
X156028870Y-148961155D01*
X155967060Y-148876080D01*
X155880798Y-148757350D01*
X155880794Y-148757345D01*
X155702654Y-148579205D01*
X155702649Y-148579201D01*
X155498848Y-148431132D01*
X155498847Y-148431131D01*
X155498845Y-148431130D01*
X155399841Y-148380685D01*
X155274383Y-148316760D01*
X155034785Y-148238910D01*
X154853032Y-148210123D01*
X154785962Y-148199500D01*
X154534038Y-148199500D01*
X154466974Y-148210122D01*
X154285214Y-148238910D01*
X154045616Y-148316760D01*
X153821151Y-148431132D01*
X153617350Y-148579201D01*
X153617345Y-148579205D01*
X153439205Y-148757345D01*
X153439201Y-148757350D01*
X153291132Y-148961151D01*
X153176760Y-149185616D01*
X153098910Y-149425214D01*
X153059500Y-149674038D01*
X151180500Y-149674038D01*
X151141090Y-149425215D01*
X151063241Y-149185621D01*
X151063239Y-149185618D01*
X151063239Y-149185616D01*
X151021747Y-149104184D01*
X150948870Y-148961155D01*
X150887060Y-148876080D01*
X150800798Y-148757350D01*
X150800794Y-148757345D01*
X150622654Y-148579205D01*
X150622649Y-148579201D01*
X150418848Y-148431132D01*
X150418847Y-148431131D01*
X150418845Y-148431130D01*
X150319841Y-148380685D01*
X150194383Y-148316760D01*
X149954785Y-148238910D01*
X149773032Y-148210123D01*
X149705962Y-148199500D01*
X149454038Y-148199500D01*
X149386974Y-148210122D01*
X149205214Y-148238910D01*
X148965616Y-148316760D01*
X148741151Y-148431132D01*
X148537350Y-148579201D01*
X148537345Y-148579205D01*
X148359205Y-148757345D01*
X148359201Y-148757350D01*
X148211132Y-148961151D01*
X148096760Y-149185616D01*
X148018910Y-149425214D01*
X147979500Y-149674038D01*
X146100500Y-149674038D01*
X146100500Y-148706898D01*
X146089877Y-148618436D01*
X146034361Y-148477658D01*
X146034360Y-148477657D01*
X146034360Y-148477656D01*
X145942922Y-148357077D01*
X145822343Y-148265639D01*
X145681561Y-148210122D01*
X145635926Y-148204642D01*
X145593102Y-148199500D01*
X143406898Y-148199500D01*
X143367853Y-148204188D01*
X143318438Y-148210122D01*
X143177656Y-148265639D01*
X143057077Y-148357077D01*
X142965639Y-148477656D01*
X142910122Y-148618438D01*
X142905674Y-148655483D01*
X142899500Y-148706898D01*
X138250347Y-148706898D01*
X138122654Y-148579205D01*
X138122649Y-148579201D01*
X137918848Y-148431132D01*
X137918847Y-148431131D01*
X137918845Y-148431130D01*
X137819841Y-148380685D01*
X137694383Y-148316760D01*
X137454785Y-148238910D01*
X137273032Y-148210123D01*
X137205962Y-148199500D01*
X136954038Y-148199500D01*
X136886974Y-148210122D01*
X136705214Y-148238910D01*
X136465616Y-148316760D01*
X136241151Y-148431132D01*
X136037350Y-148579201D01*
X136037345Y-148579205D01*
X135859205Y-148757345D01*
X135859201Y-148757350D01*
X135711132Y-148961151D01*
X135596760Y-149185616D01*
X135518910Y-149425214D01*
X135479500Y-149674038D01*
X133600500Y-149674038D01*
X133600500Y-148706898D01*
X133589877Y-148618436D01*
X133534361Y-148477658D01*
X133534360Y-148477657D01*
X133534360Y-148477656D01*
X133442922Y-148357077D01*
X133322343Y-148265639D01*
X133181561Y-148210122D01*
X133135926Y-148204642D01*
X133093102Y-148199500D01*
X130906898Y-148199500D01*
X130867853Y-148204188D01*
X130818438Y-148210122D01*
X130677656Y-148265639D01*
X130557077Y-148357077D01*
X130465639Y-148477656D01*
X130410122Y-148618438D01*
X130405674Y-148655483D01*
X130399500Y-148706898D01*
X126250347Y-148706898D01*
X126122654Y-148579205D01*
X126122649Y-148579201D01*
X125918848Y-148431132D01*
X125918847Y-148431131D01*
X125918845Y-148431130D01*
X125819841Y-148380685D01*
X125694383Y-148316760D01*
X125454785Y-148238910D01*
X125273032Y-148210123D01*
X125205962Y-148199500D01*
X124954038Y-148199500D01*
X124886974Y-148210122D01*
X124705214Y-148238910D01*
X124465616Y-148316760D01*
X124241151Y-148431132D01*
X124037350Y-148579201D01*
X124037345Y-148579205D01*
X123859205Y-148757345D01*
X123859201Y-148757350D01*
X123711132Y-148961151D01*
X123596760Y-149185616D01*
X123518910Y-149425214D01*
X123479500Y-149674038D01*
X121600500Y-149674038D01*
X121600500Y-148706898D01*
X121589877Y-148618436D01*
X121534361Y-148477658D01*
X121534360Y-148477657D01*
X121534360Y-148477656D01*
X121442922Y-148357077D01*
X121322343Y-148265639D01*
X121181561Y-148210122D01*
X121135926Y-148204642D01*
X121093102Y-148199500D01*
X118906898Y-148199500D01*
X118867853Y-148204188D01*
X118818438Y-148210122D01*
X118677656Y-148265639D01*
X118557077Y-148357077D01*
X118465639Y-148477656D01*
X118410122Y-148618438D01*
X118405674Y-148655483D01*
X118399500Y-148706898D01*
X115830500Y-148706898D01*
X115830500Y-137889205D01*
X128909500Y-137889205D01*
X128909500Y-138110794D01*
X128909501Y-138110810D01*
X128938424Y-138330504D01*
X128995780Y-138544559D01*
X129080581Y-138749286D01*
X129080585Y-138749296D01*
X129191384Y-138941206D01*
X129326286Y-139117014D01*
X129326292Y-139117021D01*
X129482978Y-139273707D01*
X129482985Y-139273713D01*
X129658793Y-139408615D01*
X129850703Y-139519414D01*
X129850704Y-139519414D01*
X129850707Y-139519416D01*
X130055441Y-139604220D01*
X130269492Y-139661575D01*
X130489199Y-139690500D01*
X130489206Y-139690500D01*
X130710794Y-139690500D01*
X130710801Y-139690500D01*
X130930508Y-139661575D01*
X131144559Y-139604220D01*
X131349293Y-139519416D01*
X131541207Y-139408615D01*
X131717016Y-139273712D01*
X131873712Y-139117016D01*
X132008615Y-138941207D01*
X132119416Y-138749293D01*
X132185439Y-138589899D01*
X132229280Y-138535496D01*
X132295574Y-138513431D01*
X132363273Y-138530710D01*
X132410884Y-138581847D01*
X132414561Y-138589900D01*
X132480578Y-138749281D01*
X132480585Y-138749296D01*
X132591384Y-138941206D01*
X132726286Y-139117014D01*
X132726292Y-139117021D01*
X132882978Y-139273707D01*
X132882985Y-139273713D01*
X133058793Y-139408615D01*
X133250703Y-139519414D01*
X133250704Y-139519414D01*
X133250707Y-139519416D01*
X133455441Y-139604220D01*
X133669492Y-139661575D01*
X133889199Y-139690500D01*
X133889206Y-139690500D01*
X134110794Y-139690500D01*
X134110801Y-139690500D01*
X134330508Y-139661575D01*
X134544559Y-139604220D01*
X134749293Y-139519416D01*
X134941207Y-139408615D01*
X135117016Y-139273712D01*
X135273712Y-139117016D01*
X135408615Y-138941207D01*
X135519416Y-138749293D01*
X135604220Y-138544559D01*
X135661575Y-138330508D01*
X135690500Y-138110801D01*
X135690500Y-137889199D01*
X135661575Y-137669492D01*
X135604220Y-137455441D01*
X135519416Y-137250707D01*
X135408615Y-137058793D01*
X135273712Y-136882984D01*
X135273707Y-136882978D01*
X135117021Y-136726292D01*
X135117014Y-136726286D01*
X134941206Y-136591384D01*
X134749296Y-136480585D01*
X134749286Y-136480581D01*
X134544559Y-136395780D01*
X134330504Y-136338424D01*
X134110810Y-136309501D01*
X134110807Y-136309500D01*
X134110801Y-136309500D01*
X133889199Y-136309500D01*
X133889193Y-136309500D01*
X133889189Y-136309501D01*
X133669495Y-136338424D01*
X133455440Y-136395780D01*
X133250713Y-136480581D01*
X133250703Y-136480585D01*
X133058793Y-136591384D01*
X132882985Y-136726286D01*
X132882978Y-136726292D01*
X132726292Y-136882978D01*
X132726286Y-136882985D01*
X132591384Y-137058793D01*
X132480585Y-137250703D01*
X132480581Y-137250713D01*
X132414561Y-137410100D01*
X132370720Y-137464503D01*
X132304426Y-137486568D01*
X132236727Y-137469289D01*
X132189116Y-137418152D01*
X132185439Y-137410100D01*
X132119418Y-137250713D01*
X132119414Y-137250703D01*
X132008615Y-137058793D01*
X131873713Y-136882985D01*
X131873707Y-136882978D01*
X131717021Y-136726292D01*
X131717014Y-136726286D01*
X131541206Y-136591384D01*
X131349296Y-136480585D01*
X131349286Y-136480581D01*
X131144559Y-136395780D01*
X130930504Y-136338424D01*
X130710810Y-136309501D01*
X130710807Y-136309500D01*
X130710801Y-136309500D01*
X130489199Y-136309500D01*
X130489193Y-136309500D01*
X130489189Y-136309501D01*
X130269495Y-136338424D01*
X130055440Y-136395780D01*
X129850713Y-136480581D01*
X129850703Y-136480585D01*
X129658793Y-136591384D01*
X129482985Y-136726286D01*
X129482978Y-136726292D01*
X129326292Y-136882978D01*
X129326286Y-136882985D01*
X129191384Y-137058793D01*
X129080585Y-137250703D01*
X129080581Y-137250713D01*
X128995780Y-137455440D01*
X128938424Y-137669495D01*
X128909501Y-137889189D01*
X128909500Y-137889205D01*
X115830500Y-137889205D01*
X115830500Y-123370943D01*
X118599500Y-123370943D01*
X118599500Y-123529056D01*
X118640423Y-123681783D01*
X118640426Y-123681790D01*
X118719473Y-123818706D01*
X118719477Y-123818712D01*
X118719480Y-123818716D01*
X118719482Y-123818718D01*
X118723872Y-123824438D01*
X118749069Y-123889606D01*
X118749500Y-123899930D01*
X118749500Y-129420069D01*
X118729815Y-129487108D01*
X118723875Y-129495557D01*
X118719475Y-129501290D01*
X118640426Y-129638209D01*
X118640423Y-129638216D01*
X118599500Y-129790943D01*
X118599500Y-129949056D01*
X118640423Y-130101783D01*
X118640426Y-130101790D01*
X118719475Y-130238709D01*
X118719479Y-130238714D01*
X118719480Y-130238716D01*
X118831284Y-130350520D01*
X118831286Y-130350521D01*
X118831290Y-130350524D01*
X118914255Y-130398423D01*
X118968216Y-130429577D01*
X119120943Y-130470500D01*
X119120945Y-130470500D01*
X119279055Y-130470500D01*
X119279057Y-130470500D01*
X119431784Y-130429577D01*
X119568716Y-130350520D01*
X119680520Y-130238716D01*
X119759577Y-130101784D01*
X119800500Y-129949057D01*
X119800500Y-129790943D01*
X119759577Y-129638216D01*
X119714173Y-129559573D01*
X119680524Y-129501290D01*
X119680521Y-129501287D01*
X119680520Y-129501284D01*
X119680517Y-129501281D01*
X119676125Y-129495557D01*
X119650930Y-129430388D01*
X119650500Y-129420069D01*
X119650500Y-127969205D01*
X128909500Y-127969205D01*
X128909500Y-128190794D01*
X128909501Y-128190810D01*
X128938289Y-128409481D01*
X128938425Y-128410508D01*
X128986467Y-128589802D01*
X128995780Y-128624559D01*
X129080581Y-128829286D01*
X129080585Y-128829296D01*
X129191384Y-129021206D01*
X129326286Y-129197014D01*
X129326292Y-129197021D01*
X129482978Y-129353707D01*
X129482985Y-129353713D01*
X129658793Y-129488615D01*
X129850703Y-129599414D01*
X129850704Y-129599414D01*
X129850707Y-129599416D01*
X130055441Y-129684220D01*
X130269492Y-129741575D01*
X130489199Y-129770500D01*
X130489206Y-129770500D01*
X130710794Y-129770500D01*
X130710801Y-129770500D01*
X130930508Y-129741575D01*
X131144559Y-129684220D01*
X131349293Y-129599416D01*
X131541207Y-129488615D01*
X131717016Y-129353712D01*
X131873712Y-129197016D01*
X132008615Y-129021207D01*
X132119416Y-128829293D01*
X132185439Y-128669899D01*
X132229280Y-128615496D01*
X132295574Y-128593431D01*
X132363273Y-128610710D01*
X132410884Y-128661847D01*
X132414561Y-128669900D01*
X132480578Y-128829281D01*
X132480585Y-128829296D01*
X132591384Y-129021206D01*
X132726286Y-129197014D01*
X132726292Y-129197021D01*
X132882978Y-129353707D01*
X132882985Y-129353713D01*
X133058793Y-129488615D01*
X133250703Y-129599414D01*
X133250704Y-129599414D01*
X133250707Y-129599416D01*
X133455441Y-129684220D01*
X133669492Y-129741575D01*
X133889199Y-129770500D01*
X133889206Y-129770500D01*
X134110794Y-129770500D01*
X134110801Y-129770500D01*
X134330508Y-129741575D01*
X134544559Y-129684220D01*
X134749293Y-129599416D01*
X134941207Y-129488615D01*
X135117016Y-129353712D01*
X135273712Y-129197016D01*
X135408615Y-129021207D01*
X135519416Y-128829293D01*
X135604220Y-128624559D01*
X135661575Y-128410508D01*
X135690500Y-128190801D01*
X135690500Y-127969199D01*
X135661575Y-127749492D01*
X135604220Y-127535441D01*
X135519416Y-127330707D01*
X135408615Y-127138793D01*
X135298904Y-126995815D01*
X135273713Y-126962985D01*
X135273707Y-126962978D01*
X135117021Y-126806292D01*
X135117014Y-126806286D01*
X134941206Y-126671384D01*
X134749296Y-126560585D01*
X134749286Y-126560581D01*
X134544559Y-126475780D01*
X134330504Y-126418424D01*
X134110810Y-126389501D01*
X134110807Y-126389500D01*
X134110801Y-126389500D01*
X133889199Y-126389500D01*
X133889193Y-126389500D01*
X133889189Y-126389501D01*
X133669495Y-126418424D01*
X133455440Y-126475780D01*
X133250713Y-126560581D01*
X133250703Y-126560585D01*
X133058793Y-126671384D01*
X132882985Y-126806286D01*
X132882978Y-126806292D01*
X132726292Y-126962978D01*
X132726286Y-126962985D01*
X132591384Y-127138793D01*
X132480585Y-127330703D01*
X132480581Y-127330713D01*
X132414561Y-127490100D01*
X132370720Y-127544503D01*
X132304426Y-127566568D01*
X132236727Y-127549289D01*
X132189116Y-127498152D01*
X132185439Y-127490100D01*
X132119418Y-127330713D01*
X132119414Y-127330703D01*
X132008615Y-127138793D01*
X131873713Y-126962985D01*
X131873707Y-126962978D01*
X131717021Y-126806292D01*
X131717014Y-126806286D01*
X131541206Y-126671384D01*
X131349296Y-126560585D01*
X131349286Y-126560581D01*
X131144559Y-126475780D01*
X130930504Y-126418424D01*
X130710810Y-126389501D01*
X130710807Y-126389500D01*
X130710801Y-126389500D01*
X130489199Y-126389500D01*
X130489193Y-126389500D01*
X130489189Y-126389501D01*
X130269495Y-126418424D01*
X130055440Y-126475780D01*
X129850713Y-126560581D01*
X129850703Y-126560585D01*
X129658793Y-126671384D01*
X129482985Y-126806286D01*
X129482978Y-126806292D01*
X129326292Y-126962978D01*
X129326286Y-126962985D01*
X129191384Y-127138793D01*
X129080585Y-127330703D01*
X129080581Y-127330713D01*
X128995780Y-127535440D01*
X128938424Y-127749495D01*
X128909501Y-127969189D01*
X128909500Y-127969205D01*
X119650500Y-127969205D01*
X119650500Y-123899930D01*
X119670185Y-123832891D01*
X119676128Y-123824438D01*
X119680512Y-123818723D01*
X119680520Y-123818716D01*
X119759577Y-123681784D01*
X119800500Y-123529057D01*
X119800500Y-123370943D01*
X119759577Y-123218216D01*
X119735785Y-123177006D01*
X119680524Y-123081290D01*
X119680518Y-123081282D01*
X119568717Y-122969481D01*
X119568709Y-122969475D01*
X119431790Y-122890426D01*
X119431786Y-122890424D01*
X119431784Y-122890423D01*
X119279057Y-122849500D01*
X119120943Y-122849500D01*
X118968216Y-122890423D01*
X118968209Y-122890426D01*
X118831290Y-122969475D01*
X118831282Y-122969481D01*
X118719481Y-123081282D01*
X118719475Y-123081290D01*
X118640426Y-123218209D01*
X118640423Y-123218216D01*
X118599500Y-123370943D01*
X115830500Y-123370943D01*
X115830500Y-120938059D01*
X115830501Y-120938046D01*
X115830501Y-120769945D01*
X115830501Y-120769943D01*
X115789577Y-120617215D01*
X115739573Y-120530606D01*
X115710520Y-120480284D01*
X115598716Y-120368480D01*
X115598715Y-120368479D01*
X115594385Y-120364149D01*
X115594374Y-120364139D01*
X112468590Y-117238355D01*
X112468588Y-117238352D01*
X112349717Y-117119481D01*
X112349716Y-117119480D01*
X112262904Y-117069360D01*
X112262904Y-117069359D01*
X112262900Y-117069358D01*
X112212785Y-117040423D01*
X112060057Y-116999499D01*
X111901943Y-116999499D01*
X111794587Y-117028265D01*
X111749210Y-117040424D01*
X111749209Y-117040425D01*
X111699096Y-117069359D01*
X111699095Y-117069360D01*
X111655689Y-117094420D01*
X111612285Y-117119479D01*
X111612282Y-117119481D01*
X111500479Y-117231284D01*
X111490967Y-117247761D01*
X111471101Y-117282171D01*
X111421423Y-117368215D01*
X111380499Y-117520943D01*
X111380499Y-117520945D01*
X111380499Y-117679054D01*
X111380498Y-117679054D01*
X111421422Y-117831783D01*
X111447304Y-117876611D01*
X111447306Y-117876614D01*
X111500479Y-117968714D01*
X111500481Y-117968717D01*
X111619349Y-118087585D01*
X111619355Y-118087590D01*
X114593181Y-121061416D01*
X114626666Y-121122739D01*
X114629500Y-121149097D01*
X114629500Y-129627903D01*
X114609815Y-129694942D01*
X114557011Y-129740697D01*
X114487853Y-129750641D01*
X114424297Y-129721616D01*
X114417819Y-129715584D01*
X113062590Y-128360355D01*
X113062588Y-128360352D01*
X112943717Y-128241481D01*
X112943709Y-128241475D01*
X112855938Y-128190801D01*
X112855937Y-128190801D01*
X112806785Y-128162423D01*
X112654057Y-128121499D01*
X112495943Y-128121499D01*
X112488347Y-128121499D01*
X112488331Y-128121500D01*
X111849943Y-128121500D01*
X111697216Y-128162423D01*
X111697209Y-128162426D01*
X111560290Y-128241475D01*
X111560282Y-128241481D01*
X111448481Y-128353282D01*
X111448475Y-128353290D01*
X111369426Y-128490209D01*
X111369423Y-128490216D01*
X111328500Y-128642943D01*
X111328500Y-128801057D01*
X111360624Y-128920943D01*
X111369423Y-128953783D01*
X111369426Y-128953790D01*
X111448475Y-129090709D01*
X111448479Y-129090714D01*
X111448480Y-129090716D01*
X111560284Y-129202520D01*
X111560286Y-129202521D01*
X111560290Y-129202524D01*
X111657607Y-129258709D01*
X111697216Y-129281577D01*
X111849943Y-129322500D01*
X112274903Y-129322500D01*
X112341942Y-129342185D01*
X112362584Y-129358819D01*
X113280974Y-130277209D01*
X113314459Y-130338532D01*
X113309475Y-130408224D01*
X113267603Y-130464157D01*
X113255299Y-130472273D01*
X113246293Y-130477473D01*
X113246282Y-130477481D01*
X113151275Y-130572489D01*
X113134480Y-130589284D01*
X113134478Y-130589286D01*
X113019954Y-130703811D01*
X112910584Y-130813181D01*
X112849261Y-130846666D01*
X112822903Y-130849500D01*
X105805943Y-130849500D01*
X105700445Y-130877768D01*
X105630595Y-130876105D01*
X105572733Y-130836942D01*
X105545229Y-130772714D01*
X105556816Y-130703811D01*
X105580651Y-130670332D01*
X107535137Y-128715098D01*
X107592520Y-128657716D01*
X107592522Y-128657711D01*
X107592534Y-128657700D01*
X107592578Y-128657643D01*
X107592587Y-128657626D01*
X107592590Y-128657624D01*
X107625115Y-128601264D01*
X107631730Y-128589802D01*
X107631741Y-128589782D01*
X107647090Y-128563196D01*
X107671577Y-128520784D01*
X107671577Y-128520782D01*
X107671604Y-128520737D01*
X107671618Y-128520686D01*
X107671619Y-128520683D01*
X107671620Y-128520681D01*
X107692813Y-128441532D01*
X107692818Y-128441513D01*
X107700319Y-128413517D01*
X107712500Y-128368057D01*
X107712500Y-128368053D01*
X107712501Y-128368050D01*
X107712514Y-128367948D01*
X107712516Y-128367942D01*
X107712500Y-128285716D01*
X107712500Y-128209943D01*
X107712486Y-128209890D01*
X107712486Y-128209838D01*
X107712485Y-128209828D01*
X107703300Y-128175576D01*
X107692173Y-128134082D01*
X107692173Y-128134058D01*
X107692167Y-128134060D01*
X107671577Y-128057216D01*
X107671575Y-128057213D01*
X107671532Y-128057109D01*
X107671532Y-128057108D01*
X107630637Y-127986306D01*
X107592520Y-127920284D01*
X107592515Y-127920279D01*
X107592467Y-127920216D01*
X107592451Y-127920196D01*
X107592449Y-127920192D01*
X107537836Y-127865600D01*
X107480716Y-127808480D01*
X107480713Y-127808478D01*
X107376819Y-127704584D01*
X107343334Y-127643261D01*
X107340500Y-127616903D01*
X107340500Y-120163750D01*
X107360185Y-120096711D01*
X107412989Y-120050956D01*
X107482147Y-120041012D01*
X107496582Y-120043972D01*
X107520943Y-120050500D01*
X107520946Y-120050500D01*
X107679055Y-120050500D01*
X107679057Y-120050500D01*
X107831784Y-120009577D01*
X107963501Y-119933530D01*
X108031400Y-119917058D01*
X108097427Y-119939911D01*
X108140618Y-119994832D01*
X108149500Y-120040918D01*
X108149500Y-128550069D01*
X108129815Y-128617108D01*
X108123875Y-128625557D01*
X108119475Y-128631290D01*
X108040426Y-128768209D01*
X108040423Y-128768216D01*
X107999500Y-128920943D01*
X107999500Y-129079057D01*
X108031109Y-129197021D01*
X108040423Y-129231783D01*
X108040426Y-129231790D01*
X108119475Y-129368709D01*
X108119479Y-129368714D01*
X108119480Y-129368716D01*
X108231284Y-129480520D01*
X108231286Y-129480521D01*
X108231290Y-129480524D01*
X108368209Y-129559573D01*
X108368216Y-129559577D01*
X108520943Y-129600500D01*
X108520945Y-129600500D01*
X108679055Y-129600500D01*
X108679057Y-129600500D01*
X108831784Y-129559577D01*
X108968716Y-129480520D01*
X109080520Y-129368716D01*
X109159577Y-129231784D01*
X109200500Y-129079057D01*
X109200500Y-128920943D01*
X109159577Y-128768216D01*
X109102815Y-128669900D01*
X109080524Y-128631290D01*
X109080521Y-128631287D01*
X109080520Y-128631284D01*
X109080517Y-128631281D01*
X109076125Y-128625557D01*
X109050930Y-128560388D01*
X109050500Y-128550069D01*
X109050500Y-102374500D01*
X109070185Y-102307461D01*
X109122989Y-102261706D01*
X109174500Y-102250500D01*
X139625500Y-102250500D01*
X139692539Y-102270185D01*
X139738294Y-102322989D01*
X139749500Y-102374500D01*
X139749500Y-115750069D01*
X139729815Y-115817108D01*
X139723875Y-115825557D01*
X139719475Y-115831290D01*
X139640426Y-115968209D01*
X139640423Y-115968216D01*
X139599500Y-116120943D01*
X139599500Y-116279057D01*
X139629080Y-116389449D01*
X139640423Y-116431783D01*
X139640426Y-116431790D01*
X139719475Y-116568709D01*
X139719479Y-116568714D01*
X139719480Y-116568716D01*
X139831284Y-116680520D01*
X139831286Y-116680521D01*
X139831290Y-116680524D01*
X139968209Y-116759573D01*
X139968216Y-116759577D01*
X140120943Y-116800500D01*
X140120945Y-116800500D01*
X140279055Y-116800500D01*
X140279057Y-116800500D01*
X140431784Y-116759577D01*
X140568716Y-116680520D01*
X140680520Y-116568716D01*
X140759577Y-116431784D01*
X140800500Y-116279057D01*
X140800500Y-116120943D01*
X140759577Y-115968216D01*
X140759573Y-115968209D01*
X140680524Y-115831290D01*
X140680521Y-115831287D01*
X140680520Y-115831284D01*
X140680517Y-115831281D01*
X140676125Y-115825557D01*
X140650930Y-115760388D01*
X140650500Y-115750069D01*
X140650500Y-113127982D01*
X141930500Y-113127982D01*
X141930500Y-123934982D01*
X141930500Y-124047018D01*
X141959497Y-124155237D01*
X142015515Y-124252263D01*
X145428737Y-127665485D01*
X145525763Y-127721503D01*
X145633982Y-127750500D01*
X145746018Y-127750500D01*
X151556902Y-127750500D01*
X151623941Y-127770185D01*
X151644583Y-127786819D01*
X151663284Y-127805520D01*
X151663286Y-127805521D01*
X151663290Y-127805524D01*
X151767348Y-127865601D01*
X151800216Y-127884577D01*
X151952943Y-127925500D01*
X151952945Y-127925500D01*
X152111055Y-127925500D01*
X152111057Y-127925500D01*
X152263784Y-127884577D01*
X152400716Y-127805520D01*
X152512520Y-127693716D01*
X152512520Y-127693715D01*
X152514063Y-127692173D01*
X152575386Y-127658688D01*
X152645078Y-127663672D01*
X152689425Y-127692173D01*
X153410769Y-128413517D01*
X153444254Y-128474840D01*
X153439270Y-128544532D01*
X153430476Y-128563196D01*
X153426425Y-128570212D01*
X153426422Y-128570219D01*
X153401871Y-128661847D01*
X153385500Y-128722943D01*
X153385500Y-128881057D01*
X153409080Y-128969057D01*
X153426423Y-129033783D01*
X153426426Y-129033790D01*
X153505475Y-129170709D01*
X153505479Y-129170714D01*
X153505480Y-129170716D01*
X153617284Y-129282520D01*
X153617286Y-129282521D01*
X153617290Y-129282524D01*
X153740593Y-129353712D01*
X153754216Y-129361577D01*
X153906943Y-129402500D01*
X153906945Y-129402500D01*
X154065055Y-129402500D01*
X154065057Y-129402500D01*
X154217784Y-129361577D01*
X154354716Y-129282520D01*
X154466520Y-129170716D01*
X154545577Y-129033784D01*
X154586500Y-128881057D01*
X154586500Y-128722943D01*
X154545577Y-128570216D01*
X154533945Y-128550069D01*
X154466524Y-128433290D01*
X154466518Y-128433282D01*
X154447819Y-128414583D01*
X154446528Y-128412220D01*
X154444220Y-128410831D01*
X154429872Y-128381716D01*
X154414334Y-128353260D01*
X154414526Y-128350574D01*
X154413335Y-128348158D01*
X154412523Y-128338755D01*
X154411500Y-128330989D01*
X154411500Y-128330982D01*
X154382503Y-128222763D01*
X154326485Y-128125737D01*
X154247263Y-128046515D01*
X151625263Y-125424515D01*
X151528237Y-125368497D01*
X151420018Y-125339500D01*
X151420017Y-125339500D01*
X149714100Y-125339500D01*
X149647061Y-125319815D01*
X149601306Y-125267011D01*
X149591362Y-125197853D01*
X149592949Y-125189074D01*
X149595849Y-125175775D01*
X149597577Y-125172784D01*
X149638500Y-125020057D01*
X149638500Y-124980245D01*
X149641349Y-124967184D01*
X149651956Y-124947783D01*
X149658185Y-124926571D01*
X149674819Y-124905929D01*
X152809819Y-121770929D01*
X152871142Y-121737444D01*
X152940834Y-121742428D01*
X152996767Y-121784300D01*
X153021184Y-121849764D01*
X153021500Y-121858610D01*
X153021500Y-126048330D01*
X153021499Y-126048348D01*
X153021499Y-126214054D01*
X153021498Y-126214054D01*
X153033656Y-126259427D01*
X153062423Y-126366785D01*
X153062424Y-126366787D01*
X153062423Y-126366787D01*
X153075538Y-126389501D01*
X153075539Y-126389503D01*
X153141475Y-126503709D01*
X153141481Y-126503717D01*
X153260349Y-126622585D01*
X153260355Y-126622590D01*
X154618139Y-127980374D01*
X154618149Y-127980385D01*
X154622479Y-127984715D01*
X154622480Y-127984716D01*
X154734284Y-128096520D01*
X154799307Y-128134060D01*
X154821095Y-128146639D01*
X154821097Y-128146641D01*
X154871213Y-128175576D01*
X154871215Y-128175577D01*
X155023942Y-128216500D01*
X155023943Y-128216500D01*
X162968055Y-128216500D01*
X162968171Y-128216531D01*
X163048525Y-128216500D01*
X163126057Y-128216500D01*
X163126058Y-128216499D01*
X163126281Y-128216470D01*
X163126286Y-128216470D01*
X163203172Y-128195836D01*
X163203173Y-128195841D01*
X163203210Y-128195825D01*
X163278784Y-128175577D01*
X163278786Y-128175575D01*
X163278788Y-128175575D01*
X163278990Y-128175491D01*
X163278990Y-128175490D01*
X163278997Y-128175489D01*
X163346505Y-128136478D01*
X163346530Y-128136464D01*
X163365109Y-128125737D01*
X163415716Y-128096520D01*
X163415721Y-128096514D01*
X163415733Y-128096506D01*
X163415890Y-128096383D01*
X163415898Y-128096379D01*
X163470020Y-128042216D01*
X163527520Y-127984716D01*
X163527521Y-127984713D01*
X163533052Y-127979183D01*
X163533391Y-127978795D01*
X164274482Y-127237140D01*
X164335790Y-127203635D01*
X164405483Y-127208593D01*
X164449875Y-127237110D01*
X166467139Y-129254374D01*
X166467149Y-129254385D01*
X166471479Y-129258715D01*
X166471480Y-129258716D01*
X166583284Y-129370520D01*
X166668121Y-129419500D01*
X166720215Y-129449577D01*
X166872943Y-129490500D01*
X166872945Y-129490500D01*
X170218055Y-129490500D01*
X170218057Y-129490500D01*
X170370784Y-129449577D01*
X170507716Y-129370520D01*
X170619520Y-129258716D01*
X170698577Y-129121784D01*
X170739500Y-128969057D01*
X170739500Y-128810943D01*
X170698577Y-128658216D01*
X170689759Y-128642943D01*
X170619524Y-128521290D01*
X170619518Y-128521282D01*
X170507717Y-128409481D01*
X170507709Y-128409475D01*
X170370790Y-128330426D01*
X170370786Y-128330424D01*
X170370784Y-128330423D01*
X170218057Y-128289500D01*
X170218056Y-128289500D01*
X167252097Y-128289500D01*
X167185058Y-128269815D01*
X167164416Y-128253181D01*
X164849557Y-125938322D01*
X164848222Y-125936986D01*
X164848215Y-125936973D01*
X164847929Y-125936647D01*
X164788429Y-125877192D01*
X164788432Y-125877188D01*
X164788395Y-125877159D01*
X164730713Y-125819477D01*
X164730547Y-125819349D01*
X164720293Y-125813434D01*
X164663115Y-125780451D01*
X164638577Y-125766284D01*
X164638575Y-125766282D01*
X164593885Y-125740481D01*
X164593785Y-125740423D01*
X164593779Y-125740421D01*
X164593574Y-125740335D01*
X164518660Y-125720293D01*
X164518618Y-125720267D01*
X164518615Y-125720281D01*
X164441057Y-125699499D01*
X164441056Y-125699499D01*
X164440937Y-125699499D01*
X164440829Y-125699470D01*
X164364407Y-125699499D01*
X164282943Y-125699499D01*
X164282913Y-125699499D01*
X164282747Y-125699520D01*
X164207434Y-125719731D01*
X164207391Y-125719742D01*
X164130213Y-125740422D01*
X164130151Y-125740448D01*
X164130085Y-125740476D01*
X164130013Y-125740505D01*
X164130003Y-125740511D01*
X164061913Y-125779857D01*
X163993284Y-125819479D01*
X163993109Y-125819612D01*
X163937922Y-125874841D01*
X163876057Y-125936706D01*
X163875721Y-125937088D01*
X162834456Y-126979148D01*
X162773145Y-127012656D01*
X162746741Y-127015500D01*
X160539090Y-127015500D01*
X160472051Y-126995815D01*
X160426296Y-126943011D01*
X160416352Y-126873853D01*
X160419315Y-126859407D01*
X160424500Y-126840057D01*
X160424500Y-126681943D01*
X160383577Y-126529216D01*
X160352726Y-126475780D01*
X160304524Y-126392290D01*
X160304518Y-126392282D01*
X160285819Y-126373583D01*
X160252334Y-126312260D01*
X160249500Y-126285902D01*
X160249500Y-116136223D01*
X160249503Y-116069001D01*
X160249500Y-116068989D01*
X160249500Y-116068982D01*
X160237998Y-116026056D01*
X160237997Y-116026055D01*
X160237995Y-116026045D01*
X160220511Y-115960781D01*
X160220508Y-115960776D01*
X160220504Y-115960765D01*
X160190394Y-115908613D01*
X160190392Y-115908609D01*
X160164949Y-115864537D01*
X160164521Y-115863782D01*
X160164489Y-115863740D01*
X160119292Y-115818544D01*
X160119287Y-115818539D01*
X148869609Y-104567865D01*
X148869609Y-104567866D01*
X148863490Y-104561746D01*
X148863485Y-104561737D01*
X148818181Y-104516433D01*
X148784278Y-104482527D01*
X148784277Y-104482526D01*
X148784275Y-104482524D01*
X148784264Y-104482516D01*
X148784263Y-104482515D01*
X148731633Y-104452129D01*
X148731630Y-104452126D01*
X148731630Y-104452127D01*
X148731629Y-104452127D01*
X148687254Y-104426504D01*
X148687252Y-104426503D01*
X148687243Y-104426498D01*
X148687240Y-104426497D01*
X148639462Y-104413695D01*
X148639457Y-104413694D01*
X148579037Y-104397502D01*
X148579025Y-104397501D01*
X148579018Y-104397500D01*
X148534222Y-104397500D01*
X148533559Y-104397499D01*
X148533482Y-104397499D01*
X148479347Y-104397497D01*
X148467000Y-104397497D01*
X148466999Y-104397497D01*
X148458760Y-104397497D01*
X148458716Y-104397500D01*
X145918981Y-104397500D01*
X145810763Y-104426496D01*
X145713740Y-104482513D01*
X145713738Y-104482514D01*
X145641584Y-104554668D01*
X145641583Y-104554667D01*
X145451295Y-104744955D01*
X145451296Y-104744956D01*
X145389514Y-104806738D01*
X145389513Y-104806740D01*
X145333498Y-104903760D01*
X145333497Y-104903761D01*
X145310940Y-104987947D01*
X145274574Y-105047607D01*
X145211727Y-105078136D01*
X145142352Y-105069841D01*
X145118280Y-105056171D01*
X145062997Y-105016006D01*
X145062996Y-105016005D01*
X145062994Y-105016004D01*
X145007929Y-104987947D01*
X144901639Y-104933788D01*
X144901636Y-104933787D01*
X144729410Y-104877829D01*
X144550551Y-104849500D01*
X144550546Y-104849500D01*
X144369454Y-104849500D01*
X144369449Y-104849500D01*
X144190589Y-104877829D01*
X144018363Y-104933787D01*
X144018360Y-104933788D01*
X143857002Y-105016006D01*
X143710505Y-105122441D01*
X143710500Y-105122445D01*
X143582445Y-105250500D01*
X143582441Y-105250505D01*
X143476006Y-105397002D01*
X143393788Y-105558360D01*
X143393787Y-105558363D01*
X143337829Y-105730589D01*
X143309500Y-105909448D01*
X143309500Y-106090551D01*
X143337829Y-106269410D01*
X143393787Y-106441636D01*
X143393788Y-106441639D01*
X143449664Y-106551300D01*
X143474733Y-106600500D01*
X143476006Y-106602997D01*
X143582441Y-106749494D01*
X143582445Y-106749499D01*
X143710500Y-106877554D01*
X143710505Y-106877558D01*
X143838287Y-106970396D01*
X143857006Y-106983996D01*
X143933094Y-107022765D01*
X143988684Y-107051090D01*
X144039480Y-107099065D01*
X144056275Y-107166886D01*
X144033737Y-107233021D01*
X143979022Y-107276472D01*
X143970708Y-107279506D01*
X143941781Y-107288905D01*
X143752439Y-107385380D01*
X143698282Y-107424727D01*
X143698282Y-107424728D01*
X144330591Y-108057037D01*
X144267007Y-108074075D01*
X144152993Y-108139901D01*
X144059901Y-108232993D01*
X143994075Y-108347007D01*
X143977037Y-108410591D01*
X143344728Y-107778282D01*
X143344727Y-107778282D01*
X143305380Y-107832439D01*
X143208904Y-108021782D01*
X143143242Y-108223869D01*
X143143242Y-108223872D01*
X143110000Y-108433753D01*
X143110000Y-108646246D01*
X143143242Y-108856127D01*
X143143242Y-108856130D01*
X143208904Y-109058217D01*
X143305375Y-109247550D01*
X143344728Y-109301716D01*
X143977037Y-108669408D01*
X143994075Y-108732993D01*
X144059901Y-108847007D01*
X144152993Y-108940099D01*
X144267007Y-109005925D01*
X144330589Y-109022962D01*
X143698282Y-109655269D01*
X143698282Y-109655270D01*
X143752449Y-109694624D01*
X143941780Y-109791094D01*
X143970705Y-109800492D01*
X144028381Y-109839929D01*
X144055580Y-109904287D01*
X144043667Y-109973134D01*
X143996424Y-110024610D01*
X143988685Y-110028908D01*
X143857004Y-110096004D01*
X143710505Y-110202441D01*
X143710500Y-110202445D01*
X143582445Y-110330500D01*
X143582441Y-110330505D01*
X143476006Y-110477002D01*
X143393788Y-110638360D01*
X143393787Y-110638363D01*
X143337829Y-110810589D01*
X143309500Y-110989448D01*
X143309500Y-111170551D01*
X143337829Y-111349410D01*
X143375905Y-111466597D01*
X143377900Y-111536438D01*
X143345655Y-111592596D01*
X142077295Y-112860955D01*
X142077296Y-112860956D01*
X142015514Y-112922738D01*
X142015513Y-112922740D01*
X141959498Y-113019760D01*
X141959497Y-113019763D01*
X141930500Y-113127982D01*
X140650500Y-113127982D01*
X140650500Y-112940918D01*
X140670185Y-112873879D01*
X140722989Y-112828124D01*
X140792147Y-112818180D01*
X140836498Y-112833530D01*
X140968216Y-112909577D01*
X141120943Y-112950500D01*
X141120945Y-112950500D01*
X141279055Y-112950500D01*
X141279057Y-112950500D01*
X141431784Y-112909577D01*
X141568716Y-112830520D01*
X141680520Y-112718716D01*
X141759577Y-112581784D01*
X141800500Y-112429057D01*
X141800500Y-112270943D01*
X141759577Y-112118216D01*
X141759573Y-112118209D01*
X141680524Y-111981290D01*
X141680521Y-111981287D01*
X141680520Y-111981284D01*
X141680517Y-111981281D01*
X141676125Y-111975557D01*
X141650930Y-111910388D01*
X141650500Y-111900069D01*
X141650500Y-100940693D01*
X141650500Y-100940691D01*
X141619799Y-100826114D01*
X141560489Y-100723387D01*
X141476613Y-100639511D01*
X141373886Y-100580201D01*
X141259309Y-100549500D01*
X107659309Y-100549500D01*
X107540691Y-100549500D01*
X107426114Y-100580201D01*
X107426112Y-100580201D01*
X107426112Y-100580202D01*
X107323387Y-100639511D01*
X107323384Y-100639513D01*
X107239513Y-100723384D01*
X107239511Y-100723387D01*
X107180201Y-100826114D01*
X107149500Y-100940691D01*
X107149500Y-100940693D01*
X107149500Y-114960456D01*
X107129815Y-115027495D01*
X107077011Y-115073250D01*
X107007853Y-115083194D01*
X106978051Y-115075019D01*
X106971786Y-115072424D01*
X106971784Y-115072423D01*
X106819057Y-115031500D01*
X106660943Y-115031500D01*
X106508216Y-115072423D01*
X106508209Y-115072426D01*
X106371290Y-115151475D01*
X106371282Y-115151481D01*
X106259481Y-115263282D01*
X106259475Y-115263290D01*
X106180426Y-115400209D01*
X106180423Y-115400216D01*
X106139500Y-115552943D01*
X106139500Y-127830330D01*
X106139499Y-127830348D01*
X106139499Y-127996054D01*
X106139498Y-127996054D01*
X106139499Y-127996057D01*
X106180423Y-128148785D01*
X106204681Y-128190801D01*
X106204683Y-128190805D01*
X106214380Y-128207602D01*
X106230850Y-128275502D01*
X106207996Y-128341528D01*
X106194689Y-128357262D01*
X104076878Y-130475885D01*
X104076861Y-130475902D01*
X104019475Y-130533287D01*
X104019415Y-130533364D01*
X103980268Y-130601199D01*
X103980258Y-130601217D01*
X103940422Y-130670216D01*
X103940380Y-130670317D01*
X103940379Y-130670322D01*
X103919404Y-130748657D01*
X103899500Y-130822943D01*
X103899500Y-130822998D01*
X103899484Y-130823058D01*
X103899484Y-130823083D01*
X103899483Y-130823087D01*
X103899500Y-130904664D01*
X103899500Y-133322902D01*
X103893261Y-133344147D01*
X103891682Y-133366236D01*
X103883609Y-133377019D01*
X103879815Y-133389941D01*
X103863081Y-133404440D01*
X103849810Y-133422169D01*
X103837189Y-133426876D01*
X103827011Y-133435696D01*
X103805093Y-133438847D01*
X103784346Y-133446586D01*
X103771185Y-133443723D01*
X103757853Y-133445640D01*
X103737709Y-133436440D01*
X103716073Y-133431734D01*
X103698347Y-133418465D01*
X103694297Y-133416615D01*
X103687819Y-133410583D01*
X103537819Y-133260583D01*
X103504334Y-133199260D01*
X103501500Y-133172902D01*
X103501500Y-128194945D01*
X103501500Y-128194943D01*
X103460577Y-128042216D01*
X103460573Y-128042209D01*
X103381524Y-127905290D01*
X103381518Y-127905282D01*
X103269717Y-127793481D01*
X103269709Y-127793475D01*
X103132790Y-127714426D01*
X103132786Y-127714424D01*
X103132784Y-127714423D01*
X102980057Y-127673500D01*
X102821943Y-127673500D01*
X102813816Y-127673500D01*
X102813816Y-127670872D01*
X102757631Y-127662101D01*
X102705383Y-127615712D01*
X102686500Y-127549936D01*
X102686500Y-124092097D01*
X102706185Y-124025058D01*
X102722819Y-124004416D01*
X103824794Y-122902441D01*
X104980520Y-121746716D01*
X105059577Y-121609784D01*
X105100501Y-121457057D01*
X105100501Y-121298942D01*
X105100501Y-121291347D01*
X105100500Y-121291329D01*
X105100500Y-116992060D01*
X105100501Y-116992047D01*
X105100501Y-116823944D01*
X105084169Y-116762994D01*
X105059577Y-116671216D01*
X105047755Y-116650740D01*
X104980524Y-116534290D01*
X104980518Y-116534282D01*
X103902590Y-115456355D01*
X103902588Y-115456352D01*
X103783717Y-115337481D01*
X103783716Y-115337480D01*
X103688395Y-115282447D01*
X103688394Y-115282446D01*
X103646783Y-115258422D01*
X103588144Y-115242710D01*
X103494057Y-115217499D01*
X103335943Y-115217499D01*
X103256010Y-115238917D01*
X103183216Y-115258422D01*
X103141603Y-115282448D01*
X103141602Y-115282447D01*
X103046287Y-115337477D01*
X103046282Y-115337481D01*
X102934481Y-115449282D01*
X102934479Y-115449285D01*
X102896838Y-115514483D01*
X102896837Y-115514485D01*
X102855423Y-115586214D01*
X102855423Y-115586215D01*
X102814499Y-115738943D01*
X102814499Y-115738945D01*
X102814499Y-115897054D01*
X102814498Y-115897054D01*
X102855424Y-116049789D01*
X102855425Y-116049790D01*
X102874310Y-116082499D01*
X102874311Y-116082500D01*
X102934477Y-116186712D01*
X102934481Y-116186717D01*
X103053349Y-116305585D01*
X103053355Y-116305590D01*
X103863181Y-117115416D01*
X103896666Y-117176739D01*
X103899500Y-117203097D01*
X103899500Y-121077902D01*
X103879815Y-121144941D01*
X103863181Y-121165583D01*
X101605481Y-123423282D01*
X101605479Y-123423284D01*
X101589153Y-123451562D01*
X101582253Y-123463515D01*
X101526423Y-123560215D01*
X101485499Y-123712943D01*
X100300500Y-123712943D01*
X100300500Y-103381995D01*
X101699500Y-103381995D01*
X101699500Y-103618004D01*
X101699501Y-103618020D01*
X101730306Y-103852010D01*
X101791394Y-104079993D01*
X101881714Y-104298045D01*
X101881719Y-104298056D01*
X101948484Y-104413694D01*
X101999727Y-104502450D01*
X101999729Y-104502453D01*
X101999730Y-104502454D01*
X102143406Y-104689697D01*
X102143412Y-104689704D01*
X102310295Y-104856587D01*
X102310302Y-104856593D01*
X102410904Y-104933787D01*
X102497550Y-105000273D01*
X102618045Y-105069841D01*
X102701943Y-105118280D01*
X102701948Y-105118282D01*
X102701951Y-105118284D01*
X102920007Y-105208606D01*
X103147986Y-105269693D01*
X103381989Y-105300500D01*
X103381996Y-105300500D01*
X103618004Y-105300500D01*
X103618011Y-105300500D01*
X103852014Y-105269693D01*
X104079993Y-105208606D01*
X104298049Y-105118284D01*
X104502450Y-105000273D01*
X104689699Y-104856592D01*
X104856592Y-104689699D01*
X105000273Y-104502450D01*
X105118284Y-104298049D01*
X105208606Y-104079993D01*
X105269693Y-103852014D01*
X105300500Y-103618011D01*
X105300500Y-103381989D01*
X105269693Y-103147986D01*
X105208606Y-102920007D01*
X105118284Y-102701951D01*
X105118282Y-102701948D01*
X105118280Y-102701943D01*
X105076118Y-102628918D01*
X105000273Y-102497550D01*
X104856592Y-102310301D01*
X104856587Y-102310295D01*
X104689704Y-102143412D01*
X104689697Y-102143406D01*
X104502454Y-101999730D01*
X104502453Y-101999729D01*
X104502450Y-101999727D01*
X104420957Y-101952677D01*
X104298056Y-101881719D01*
X104298045Y-101881714D01*
X104079993Y-101791394D01*
X103955873Y-101758136D01*
X103852014Y-101730307D01*
X103852013Y-101730306D01*
X103852010Y-101730306D01*
X103618020Y-101699501D01*
X103618017Y-101699500D01*
X103618011Y-101699500D01*
X103381989Y-101699500D01*
X103381983Y-101699500D01*
X103381979Y-101699501D01*
X103147989Y-101730306D01*
X102920006Y-101791394D01*
X102701954Y-101881714D01*
X102701943Y-101881719D01*
X102497545Y-101999730D01*
X102310302Y-102143406D01*
X102310295Y-102143412D01*
X102143412Y-102310295D01*
X102143406Y-102310302D01*
X101999730Y-102497545D01*
X101881719Y-102701943D01*
X101881714Y-102701954D01*
X101791394Y-102920006D01*
X101730306Y-103147989D01*
X101699501Y-103381979D01*
X101699500Y-103381995D01*
X100300500Y-103381995D01*
X100300500Y-102004427D01*
X100300816Y-101995581D01*
X100308959Y-101881719D01*
X100317165Y-101766973D01*
X100319681Y-101749476D01*
X100367457Y-101529852D01*
X100372434Y-101512901D01*
X100450986Y-101302295D01*
X100458325Y-101286226D01*
X100566043Y-101088955D01*
X100575599Y-101074086D01*
X100710293Y-100894156D01*
X100721867Y-100880799D01*
X100880799Y-100721867D01*
X100894156Y-100710293D01*
X101074086Y-100575599D01*
X101088955Y-100566043D01*
X101286226Y-100458325D01*
X101302295Y-100450986D01*
X101512901Y-100372434D01*
X101529852Y-100367457D01*
X101749476Y-100319681D01*
X101766973Y-100317165D01*
X101995582Y-100300816D01*
X102004428Y-100300500D01*
X102047594Y-100300500D01*
X172376000Y-100300500D01*
X172443039Y-100320185D01*
G37*
%TD.AperFunction*%
%TD*%
M02*
