%TF.GenerationSoftware,KiCad,Pcbnew,9.0.9*%
%TF.CreationDate,2026-10-01T15:12:37+00:00*%
%TF.ProjectId,AP1_Base,4150315f-4261-4736-952e-6b696361645f,rev?*%
%TF.SameCoordinates,Original*%
%TF.FileFunction,Copper,L3,Inr*%
%TF.FilePolarity,Positive*%
%FSLAX46Y46*%
G04 Gerber Fmt 4.6, Leading zero omitted, Abs format (unit mm)*
G04 Created by KiCad (PCBNEW 9.0.9) date 2026-10-01 15:12:37*
%MOMM*%
%LPD*%
G01*
G04 APERTURE LIST*
G04 Aperture macros list*
%AMRoundRect*
0 Rectangle with rounded corners*
0 $1 Rounding radius*
0 $2 $3 $4 $5 $6 $7 $8 $9 X,Y pos of 4 corners*
0 Add a 4 corners polygon primitive as box body*
4,1,4,$2,$3,$4,$5,$6,$7,$8,$9,$2,$3,0*
0 Add four circle primitives for the rounded corners*
1,1,$1+$1,$2,$3*
1,1,$1+$1,$4,$5*
1,1,$1+$1,$6,$7*
1,1,$1+$1,$8,$9*
0 Add four rect primitives between the rounded corners*
20,1,$1+$1,$2,$3,$4,$5,0*
20,1,$1+$1,$4,$5,$6,$7,0*
20,1,$1+$1,$6,$7,$8,$9,0*
20,1,$1+$1,$8,$9,$2,$3,0*%
G04 Aperture macros list end*
%TA.AperFunction,ComponentPad*%
%ADD10RoundRect,0.250000X-1.050000X-1.050000X1.050000X-1.050000X1.050000X1.050000X-1.050000X1.050000X0*%
%TD*%
%TA.AperFunction,ComponentPad*%
%ADD11C,2.600000*%
%TD*%
%TA.AperFunction,ComponentPad*%
%ADD12RoundRect,0.250001X-0.949999X-0.949999X0.949999X-0.949999X0.949999X0.949999X-0.949999X0.949999X0*%
%TD*%
%TA.AperFunction,ComponentPad*%
%ADD13C,2.400000*%
%TD*%
%TA.AperFunction,ComponentPad*%
%ADD14R,1.700000X1.700000*%
%TD*%
%TA.AperFunction,ComponentPad*%
%ADD15C,1.700000*%
%TD*%
%TA.AperFunction,ComponentPad*%
%ADD16C,2.780000*%
%TD*%
%TA.AperFunction,ViaPad*%
%ADD17C,0.600000*%
%TD*%
%TA.AperFunction,ViaPad*%
%ADD18C,0.800000*%
%TD*%
G04 APERTURE END LIST*
D10*
%TO.N,/VIN_RAW*%
%TO.C,J1*%
X132000000Y-149800000D03*
D11*
%TO.N,/GNDIN*%
X137080000Y-149800000D03*
%TD*%
D12*
%TO.N,/LEDA1*%
%TO.C,J5*%
X103000000Y-149800000D03*
D13*
%TO.N,/LEDK1*%
X106500000Y-149800000D03*
%TO.N,/LEDA2*%
X110000000Y-149800000D03*
%TO.N,/LEDK2*%
X113500000Y-149800000D03*
%TD*%
D10*
%TO.N,/VIN*%
%TO.C,J3*%
X120000000Y-149800000D03*
D11*
X125080000Y-149800000D03*
%TD*%
D10*
%TO.N,/CH1*%
%TO.C,J4*%
X144500000Y-149800000D03*
D11*
%TO.N,/CH2*%
X149580000Y-149800000D03*
%TO.N,/CH3*%
X154660000Y-149800000D03*
%TO.N,/CH4*%
X159740000Y-149800000D03*
%TD*%
D12*
%TO.N,/V12*%
%TO.C,J6*%
X167000000Y-149800000D03*
D13*
%TO.N,/AUXD*%
X170500000Y-149800000D03*
%TD*%
D14*
%TO.N,/V12*%
%TO.C,J7*%
X147000000Y-106000000D03*
D15*
X144460000Y-106000000D03*
%TO.N,/GND*%
X147000000Y-108540000D03*
X144460000Y-108540000D03*
%TO.N,/PWM1*%
X147000000Y-111080000D03*
%TO.N,/PWM2*%
X144460000Y-111080000D03*
%TO.N,/PWM3*%
X147000000Y-113620000D03*
%TO.N,/PWM4*%
X144460000Y-113620000D03*
%TO.N,/CC1*%
X147000000Y-116160000D03*
%TO.N,/CC2*%
X144460000Y-116160000D03*
%TO.N,/SDA*%
X147000000Y-118700000D03*
%TO.N,/SCL*%
X144460000Y-118700000D03*
%TO.N,/ALERT*%
X147000000Y-121240000D03*
%TO.N,/AUX*%
X144460000Y-121240000D03*
%TO.N,/3V3*%
X147000000Y-123780000D03*
%TO.N,/GND*%
X144460000Y-123780000D03*
%TD*%
D16*
%TO.N,/VIN_RAW*%
%TO.C,F1*%
X130600000Y-138000000D03*
X134000000Y-138000000D03*
%TO.N,/VF*%
X130600000Y-128080000D03*
X134000000Y-128080000D03*
%TD*%
D17*
%TO.N,/ISN*%
X119200000Y-129870000D03*
X119200000Y-123450000D03*
%TO.N,/GND*%
X113120016Y-124714910D03*
D18*
X155000000Y-132900000D03*
X155000000Y-134000000D03*
D17*
X127000000Y-107000000D03*
X104422311Y-135791708D03*
X172000000Y-117000000D03*
X172000000Y-112000000D03*
D18*
X145600000Y-132900000D03*
X138400000Y-132700000D03*
D17*
X167000000Y-117000000D03*
X165550500Y-129198191D03*
X162000000Y-102000000D03*
X132000000Y-132000000D03*
X152958118Y-126613500D03*
X137000000Y-107000000D03*
D18*
X141200000Y-133600000D03*
D17*
X102000000Y-107000000D03*
X182000000Y-137000000D03*
D18*
X138400000Y-133600000D03*
D17*
X112000000Y-147000000D03*
X135970088Y-123885500D03*
D18*
X167800000Y-132900000D03*
X152600000Y-132900000D03*
X148000000Y-134000000D03*
D17*
X100750500Y-113775500D03*
D18*
X160800000Y-132900000D03*
D17*
X182000000Y-132000000D03*
X104422311Y-123732500D03*
X160455094Y-129419277D03*
X132000000Y-112000000D03*
D18*
X153800000Y-132900000D03*
D17*
X127000000Y-117000000D03*
D18*
X159600000Y-134000000D03*
X162000000Y-134000000D03*
X152600000Y-134000000D03*
D17*
X163115693Y-135802278D03*
X137000000Y-112000000D03*
D18*
X162000000Y-132900000D03*
D17*
X123207697Y-121210536D03*
X116100500Y-121325704D03*
X100750500Y-127368308D03*
X153260564Y-129465721D03*
D18*
X139400000Y-132700000D03*
D17*
X111921435Y-112613158D03*
X182000000Y-142000000D03*
X157000000Y-107000000D03*
X149724930Y-111609943D03*
X162000000Y-112000000D03*
X122000000Y-117000000D03*
D18*
X141200000Y-132700000D03*
D17*
X172000000Y-122000000D03*
X100750500Y-110400013D03*
X177000000Y-147000000D03*
D18*
X166600000Y-132900000D03*
D17*
X136482691Y-126096500D03*
D18*
X146800000Y-132900000D03*
X169000000Y-134000000D03*
X127400000Y-141000000D03*
D17*
X112000000Y-142000000D03*
X117000000Y-107000000D03*
X165079223Y-121625500D03*
X172000000Y-102000000D03*
X149115693Y-135802278D03*
X138200000Y-134700000D03*
X152000000Y-102000000D03*
D18*
X160800000Y-134000000D03*
D17*
X167000000Y-147000000D03*
D18*
X169000000Y-132900000D03*
X166600000Y-134000000D03*
D17*
X167000000Y-102000000D03*
D18*
X139400000Y-133600000D03*
D17*
X149128504Y-129097030D03*
X115350500Y-133825704D03*
X162000000Y-107000000D03*
D18*
X153800000Y-134000000D03*
D17*
X107000000Y-127000000D03*
X157000000Y-102000000D03*
X147000000Y-102000000D03*
X172000000Y-127000000D03*
X167000000Y-107000000D03*
D18*
X145600000Y-134000000D03*
X126900000Y-136600000D03*
X167800000Y-134000000D03*
D17*
X109521348Y-121186131D03*
X170150000Y-132168909D03*
X122000000Y-107000000D03*
D18*
X126900000Y-133800000D03*
X148000000Y-132900000D03*
D17*
X167000000Y-112000000D03*
D18*
X140400000Y-132700000D03*
D17*
X177000000Y-132000000D03*
X172000000Y-107000000D03*
D18*
X146800000Y-134000000D03*
X159600000Y-132900000D03*
D17*
X157000000Y-132000000D03*
D18*
X140400000Y-133600000D03*
D17*
X182000000Y-147000000D03*
X132000000Y-107000000D03*
X170055500Y-138037105D03*
X157000000Y-137000000D03*
X123055500Y-112650013D03*
%TO.N,/SCL*%
X149623000Y-110239000D03*
%TO.N,/3V3*%
X155330000Y-113129000D03*
%TO.N,/V12*%
X170141000Y-128890000D03*
X163896000Y-125676000D03*
%TO.N,/VCC*%
X106740000Y-115632000D03*
X104097000Y-134561000D03*
X107491000Y-121939000D03*
%TO.N,/LEDA1*%
X104500000Y-121346000D03*
X103415000Y-115818000D03*
%TO.N,/LEDK1*%
X111981000Y-117600000D03*
%TO.N,/LEDA2*%
X105940000Y-134935000D03*
X108549000Y-136562000D03*
X104137000Y-128598000D03*
%TO.N,/LEDK2*%
X111928000Y-130100000D03*
%TO.N,/CC1*%
X107600000Y-119450000D03*
X141200000Y-112350000D03*
%TO.N,/CC2*%
X140200000Y-116200000D03*
X108600000Y-129000000D03*
%TO.N,/SWC2*%
X105907000Y-131450000D03*
X110390000Y-125174000D03*
%TO.N,/PWM1*%
X147821000Y-126298000D03*
%TO.N,/PWM2*%
X152034000Y-127325000D03*
%TO.N,/PWM3*%
X159642000Y-124863000D03*
%TO.N,/PWM4*%
X159225000Y-126761000D03*
%TO.N,/GO3*%
X159279000Y-129096000D03*
X163048000Y-124865000D03*
%TO.N,/AUX*%
X162497000Y-124222000D03*
%TO.N,/AUXD*%
X174551000Y-138000000D03*
%TD*%
%TA.AperFunction,Conductor*%
%TO.N,/GND*%
G36*
X145766630Y-121250253D02*
G01*
X145824863Y-121288863D01*
X145852473Y-121349321D01*
X145877829Y-121509410D01*
X145933787Y-121681636D01*
X145933788Y-121681639D01*
X146016006Y-121842997D01*
X146122441Y-121989494D01*
X146122445Y-121989499D01*
X146250500Y-122117554D01*
X146250505Y-122117558D01*
X146378287Y-122210396D01*
X146397006Y-122223996D01*
X146502484Y-122277740D01*
X146558360Y-122306211D01*
X146558363Y-122306212D01*
X146644476Y-122334191D01*
X146730591Y-122362171D01*
X146803639Y-122373740D01*
X146890678Y-122387527D01*
X146953813Y-122417456D01*
X146990744Y-122476768D01*
X146989746Y-122546631D01*
X146951136Y-122604863D01*
X146890678Y-122632473D01*
X146730589Y-122657829D01*
X146558363Y-122713787D01*
X146558360Y-122713788D01*
X146397002Y-122796006D01*
X146250505Y-122902441D01*
X146250500Y-122902445D01*
X146122445Y-123030500D01*
X146122441Y-123030505D01*
X146016004Y-123177004D01*
X145948908Y-123308685D01*
X145900933Y-123359480D01*
X145833112Y-123376275D01*
X145766977Y-123353737D01*
X145723527Y-123299021D01*
X145720492Y-123290705D01*
X145711094Y-123261780D01*
X145614624Y-123072449D01*
X145575270Y-123018282D01*
X145575269Y-123018282D01*
X144942962Y-123650590D01*
X144925925Y-123587007D01*
X144860099Y-123472993D01*
X144767007Y-123379901D01*
X144652993Y-123314075D01*
X144589409Y-123297037D01*
X145221716Y-122664728D01*
X145167550Y-122625375D01*
X144978217Y-122528904D01*
X144949292Y-122519506D01*
X144891616Y-122480068D01*
X144864418Y-122415710D01*
X144876333Y-122346863D01*
X144923577Y-122295388D01*
X144931315Y-122291090D01*
X145062994Y-122223996D01*
X145209501Y-122117553D01*
X145337553Y-121989501D01*
X145443996Y-121842994D01*
X145526211Y-121681639D01*
X145582171Y-121509409D01*
X145596422Y-121419425D01*
X145607527Y-121349321D01*
X145637456Y-121286186D01*
X145696768Y-121249255D01*
X145766630Y-121250253D01*
G37*
%TD.AperFunction*%
%TA.AperFunction,Conductor*%
G36*
X146534075Y-108732993D02*
G01*
X146599901Y-108847007D01*
X146692993Y-108940099D01*
X146807007Y-109005925D01*
X146870590Y-109022962D01*
X146238282Y-109655269D01*
X146238282Y-109655270D01*
X146292449Y-109694624D01*
X146481780Y-109791094D01*
X146510705Y-109800492D01*
X146568381Y-109839929D01*
X146595580Y-109904287D01*
X146583667Y-109973134D01*
X146536424Y-110024610D01*
X146528685Y-110028908D01*
X146397004Y-110096004D01*
X146250505Y-110202441D01*
X146250500Y-110202445D01*
X146122445Y-110330500D01*
X146122441Y-110330505D01*
X146016006Y-110477002D01*
X145933788Y-110638360D01*
X145933787Y-110638363D01*
X145877829Y-110810589D01*
X145852473Y-110970678D01*
X145822544Y-111033813D01*
X145763232Y-111070744D01*
X145693369Y-111069746D01*
X145635137Y-111031136D01*
X145607527Y-110970678D01*
X145593740Y-110883639D01*
X145582171Y-110810591D01*
X145526211Y-110638361D01*
X145526211Y-110638360D01*
X145497740Y-110582484D01*
X145443996Y-110477006D01*
X145430396Y-110458287D01*
X145337558Y-110330505D01*
X145337554Y-110330500D01*
X145209499Y-110202445D01*
X145209494Y-110202441D01*
X145062995Y-110096004D01*
X144931314Y-110028908D01*
X144880519Y-109980934D01*
X144863724Y-109913113D01*
X144886262Y-109846978D01*
X144940977Y-109803527D01*
X144949295Y-109800492D01*
X144978217Y-109791095D01*
X145167554Y-109694622D01*
X145221716Y-109655270D01*
X145221717Y-109655270D01*
X144589408Y-109022962D01*
X144652993Y-109005925D01*
X144767007Y-108940099D01*
X144860099Y-108847007D01*
X144925925Y-108732993D01*
X144942962Y-108669409D01*
X145575270Y-109301717D01*
X145575270Y-109301716D01*
X145614622Y-109247554D01*
X145619514Y-109237954D01*
X145667488Y-109187157D01*
X145735308Y-109170361D01*
X145801444Y-109192897D01*
X145840486Y-109237954D01*
X145845375Y-109247550D01*
X145884728Y-109301716D01*
X146517037Y-108669408D01*
X146534075Y-108732993D01*
G37*
%TD.AperFunction*%
%TA.AperFunction,Conductor*%
G36*
X145762130Y-106038661D02*
G01*
X145820363Y-106077271D01*
X145848477Y-106141234D01*
X145849500Y-106157127D01*
X145849500Y-106894856D01*
X145849502Y-106894882D01*
X145852413Y-106919987D01*
X145852415Y-106919991D01*
X145897793Y-107022764D01*
X145897794Y-107022765D01*
X145977235Y-107102206D01*
X146080009Y-107147585D01*
X146105135Y-107150500D01*
X146236923Y-107150499D01*
X146303960Y-107170183D01*
X146349715Y-107222987D01*
X146359659Y-107292145D01*
X146330635Y-107355701D01*
X146296387Y-107382507D01*
X146296590Y-107382838D01*
X146293715Y-107384599D01*
X146293239Y-107384972D01*
X146292451Y-107385373D01*
X146292440Y-107385380D01*
X146238282Y-107424727D01*
X146238282Y-107424728D01*
X146870591Y-108057037D01*
X146807007Y-108074075D01*
X146692993Y-108139901D01*
X146599901Y-108232993D01*
X146534075Y-108347007D01*
X146517037Y-108410591D01*
X145884728Y-107778282D01*
X145884727Y-107778282D01*
X145845380Y-107832440D01*
X145840483Y-107842051D01*
X145792506Y-107892845D01*
X145724684Y-107909638D01*
X145658550Y-107887098D01*
X145619516Y-107842048D01*
X145614626Y-107832452D01*
X145575270Y-107778282D01*
X145575269Y-107778282D01*
X144942962Y-108410590D01*
X144925925Y-108347007D01*
X144860099Y-108232993D01*
X144767007Y-108139901D01*
X144652993Y-108074075D01*
X144589409Y-108057037D01*
X145221716Y-107424728D01*
X145167550Y-107385375D01*
X144978217Y-107288904D01*
X144949292Y-107279506D01*
X144891616Y-107240068D01*
X144864418Y-107175710D01*
X144876333Y-107106863D01*
X144923577Y-107055388D01*
X144931315Y-107051090D01*
X145062994Y-106983996D01*
X145209501Y-106877553D01*
X145337553Y-106749501D01*
X145443996Y-106602994D01*
X145526211Y-106441639D01*
X145582171Y-106269409D01*
X145603027Y-106137729D01*
X145632956Y-106074595D01*
X145692267Y-106037663D01*
X145762130Y-106038661D01*
G37*
%TD.AperFunction*%
%TA.AperFunction,Conductor*%
G36*
X172443039Y-100320185D02*
G01*
X172488794Y-100372989D01*
X172500000Y-100424500D01*
X172500000Y-130500000D01*
X187575500Y-130500000D01*
X187642539Y-130519685D01*
X187688294Y-130572489D01*
X187699500Y-130624000D01*
X187699500Y-153995572D01*
X187699184Y-154004418D01*
X187699184Y-154004419D01*
X187682833Y-154233019D01*
X187680315Y-154250530D01*
X187632544Y-154470133D01*
X187627560Y-154487109D01*
X187549016Y-154697691D01*
X187541666Y-154713783D01*
X187433961Y-154911032D01*
X187424396Y-154925917D01*
X187289708Y-155105838D01*
X187278123Y-155119207D01*
X187119208Y-155278122D01*
X187105838Y-155289708D01*
X186925917Y-155424396D01*
X186911032Y-155433961D01*
X186713783Y-155541666D01*
X186697691Y-155549016D01*
X186487109Y-155627560D01*
X186470136Y-155632543D01*
X186470133Y-155632544D01*
X186250530Y-155680315D01*
X186233019Y-155682833D01*
X186025320Y-155697688D01*
X186004417Y-155699184D01*
X185995572Y-155699500D01*
X102004428Y-155699500D01*
X101995582Y-155699184D01*
X101766982Y-155682834D01*
X101749470Y-155680316D01*
X101529862Y-155632543D01*
X101512887Y-155627559D01*
X101302311Y-155549019D01*
X101286217Y-155541669D01*
X101088963Y-155433959D01*
X101074080Y-155424394D01*
X100894163Y-155289710D01*
X100880792Y-155278124D01*
X100721875Y-155119207D01*
X100710289Y-155105836D01*
X100575605Y-154925919D01*
X100566040Y-154911036D01*
X100458330Y-154713782D01*
X100450983Y-154697694D01*
X100372437Y-154487103D01*
X100367458Y-154470144D01*
X100319683Y-154250529D01*
X100317165Y-154233017D01*
X100308959Y-154118284D01*
X100300816Y-154004418D01*
X100300500Y-153995572D01*
X100300500Y-152381995D01*
X182699500Y-152381995D01*
X182699500Y-152618004D01*
X182699501Y-152618020D01*
X182730306Y-152852010D01*
X182791394Y-153079993D01*
X182881714Y-153298045D01*
X182881719Y-153298056D01*
X182952677Y-153420957D01*
X182999727Y-153502450D01*
X182999729Y-153502453D01*
X182999730Y-153502454D01*
X183143406Y-153689697D01*
X183143412Y-153689704D01*
X183310295Y-153856587D01*
X183310301Y-153856592D01*
X183497550Y-154000273D01*
X183628918Y-154076118D01*
X183701943Y-154118280D01*
X183701948Y-154118282D01*
X183701951Y-154118284D01*
X183920007Y-154208606D01*
X184147986Y-154269693D01*
X184381989Y-154300500D01*
X184381996Y-154300500D01*
X184618004Y-154300500D01*
X184618011Y-154300500D01*
X184852014Y-154269693D01*
X185079993Y-154208606D01*
X185298049Y-154118284D01*
X185502450Y-154000273D01*
X185689699Y-153856592D01*
X185856592Y-153689699D01*
X186000273Y-153502450D01*
X186118284Y-153298049D01*
X186208606Y-153079993D01*
X186269693Y-152852014D01*
X186300500Y-152618011D01*
X186300500Y-152381989D01*
X186269693Y-152147986D01*
X186208606Y-151920007D01*
X186118284Y-151701951D01*
X186118282Y-151701948D01*
X186118280Y-151701943D01*
X186076118Y-151628918D01*
X186000273Y-151497550D01*
X185856592Y-151310301D01*
X185856587Y-151310295D01*
X185689704Y-151143412D01*
X185689697Y-151143406D01*
X185502454Y-150999730D01*
X185502453Y-150999729D01*
X185502450Y-150999727D01*
X185420957Y-150952677D01*
X185298056Y-150881719D01*
X185298045Y-150881714D01*
X185079993Y-150791394D01*
X184852010Y-150730306D01*
X184618020Y-150699501D01*
X184618017Y-150699500D01*
X184618011Y-150699500D01*
X184381989Y-150699500D01*
X184381983Y-150699500D01*
X184381979Y-150699501D01*
X184147989Y-150730306D01*
X183920006Y-150791394D01*
X183701954Y-150881714D01*
X183701943Y-150881719D01*
X183497545Y-150999730D01*
X183310302Y-151143406D01*
X183310295Y-151143412D01*
X183143412Y-151310295D01*
X183143406Y-151310302D01*
X182999730Y-151497545D01*
X182881719Y-151701943D01*
X182881714Y-151701954D01*
X182791394Y-151920006D01*
X182730306Y-152147989D01*
X182699501Y-152381979D01*
X182699500Y-152381995D01*
X100300500Y-152381995D01*
X100300500Y-148806900D01*
X101499500Y-148806900D01*
X101499500Y-150793091D01*
X101510123Y-150881562D01*
X101565639Y-151022342D01*
X101565640Y-151022344D01*
X101657077Y-151142922D01*
X101719908Y-151190568D01*
X101777658Y-151234361D01*
X101918436Y-151289876D01*
X102006901Y-151300500D01*
X103993098Y-151300499D01*
X104081564Y-151289876D01*
X104222342Y-151234361D01*
X104342922Y-151142922D01*
X104434361Y-151022342D01*
X104489876Y-150881564D01*
X104500500Y-150793099D01*
X104500499Y-149681902D01*
X104999500Y-149681902D01*
X104999500Y-149918097D01*
X105036446Y-150151368D01*
X105109433Y-150375996D01*
X105216657Y-150586433D01*
X105355483Y-150777510D01*
X105522490Y-150944517D01*
X105713567Y-151083343D01*
X105790107Y-151122342D01*
X105924003Y-151190566D01*
X105924005Y-151190566D01*
X105924008Y-151190568D01*
X106044412Y-151229689D01*
X106148631Y-151263553D01*
X106381903Y-151300500D01*
X106381908Y-151300500D01*
X106618097Y-151300500D01*
X106851368Y-151263553D01*
X106941211Y-151234361D01*
X107075992Y-151190568D01*
X107286433Y-151083343D01*
X107477510Y-150944517D01*
X107644517Y-150777510D01*
X107783343Y-150586433D01*
X107890568Y-150375992D01*
X107963553Y-150151368D01*
X107999254Y-149925961D01*
X108000500Y-149918097D01*
X108000500Y-149681902D01*
X108499500Y-149681902D01*
X108499500Y-149918097D01*
X108536446Y-150151368D01*
X108609433Y-150375996D01*
X108716657Y-150586433D01*
X108855483Y-150777510D01*
X109022490Y-150944517D01*
X109213567Y-151083343D01*
X109290107Y-151122342D01*
X109424003Y-151190566D01*
X109424005Y-151190566D01*
X109424008Y-151190568D01*
X109544412Y-151229689D01*
X109648631Y-151263553D01*
X109881903Y-151300500D01*
X109881908Y-151300500D01*
X110118097Y-151300500D01*
X110351368Y-151263553D01*
X110441211Y-151234361D01*
X110575992Y-151190568D01*
X110786433Y-151083343D01*
X110977510Y-150944517D01*
X111144517Y-150777510D01*
X111283343Y-150586433D01*
X111390568Y-150375992D01*
X111463553Y-150151368D01*
X111499254Y-149925961D01*
X111500500Y-149918097D01*
X111500500Y-149681902D01*
X111999500Y-149681902D01*
X111999500Y-149918097D01*
X112036446Y-150151368D01*
X112109433Y-150375996D01*
X112216657Y-150586433D01*
X112355483Y-150777510D01*
X112522490Y-150944517D01*
X112713567Y-151083343D01*
X112790107Y-151122342D01*
X112924003Y-151190566D01*
X112924005Y-151190566D01*
X112924008Y-151190568D01*
X113044412Y-151229689D01*
X113148631Y-151263553D01*
X113381903Y-151300500D01*
X113381908Y-151300500D01*
X113618097Y-151300500D01*
X113851368Y-151263553D01*
X113941211Y-151234361D01*
X114075992Y-151190568D01*
X114286433Y-151083343D01*
X114477510Y-150944517D01*
X114644517Y-150777510D01*
X114783343Y-150586433D01*
X114890568Y-150375992D01*
X114963553Y-150151368D01*
X114999254Y-149925961D01*
X115000500Y-149918097D01*
X115000500Y-149681902D01*
X114963553Y-149448631D01*
X114890566Y-149224003D01*
X114783342Y-149013566D01*
X114745260Y-148961151D01*
X114644517Y-148822490D01*
X114528925Y-148706898D01*
X118399500Y-148706898D01*
X118399500Y-150893102D01*
X118405126Y-150939954D01*
X118410122Y-150981561D01*
X118465639Y-151122343D01*
X118557077Y-151242922D01*
X118677656Y-151334360D01*
X118677657Y-151334360D01*
X118677658Y-151334361D01*
X118818436Y-151389877D01*
X118906898Y-151400500D01*
X118906903Y-151400500D01*
X121093097Y-151400500D01*
X121093102Y-151400500D01*
X121181564Y-151389877D01*
X121322342Y-151334361D01*
X121442922Y-151242922D01*
X121534361Y-151122342D01*
X121589877Y-150981564D01*
X121600500Y-150893102D01*
X121600500Y-149674038D01*
X123479500Y-149674038D01*
X123479500Y-149925961D01*
X123518910Y-150174785D01*
X123596760Y-150414383D01*
X123711132Y-150638848D01*
X123859201Y-150842649D01*
X123859205Y-150842654D01*
X124037345Y-151020794D01*
X124037350Y-151020798D01*
X124177116Y-151122343D01*
X124241155Y-151168870D01*
X124384184Y-151241747D01*
X124465616Y-151283239D01*
X124465618Y-151283239D01*
X124465621Y-151283241D01*
X124705215Y-151361090D01*
X124954038Y-151400500D01*
X124954039Y-151400500D01*
X125205961Y-151400500D01*
X125205962Y-151400500D01*
X125454785Y-151361090D01*
X125694379Y-151283241D01*
X125918845Y-151168870D01*
X126122656Y-151020793D01*
X126300793Y-150842656D01*
X126448870Y-150638845D01*
X126563241Y-150414379D01*
X126641090Y-150174785D01*
X126680500Y-149925962D01*
X126680500Y-149674038D01*
X126641090Y-149425215D01*
X126563241Y-149185621D01*
X126563239Y-149185618D01*
X126563239Y-149185616D01*
X126475575Y-149013567D01*
X126448870Y-148961155D01*
X126387060Y-148876080D01*
X126314404Y-148776077D01*
X126314403Y-148776076D01*
X126300796Y-148757347D01*
X126250347Y-148706898D01*
X130399500Y-148706898D01*
X130399500Y-150893102D01*
X130405126Y-150939954D01*
X130410122Y-150981561D01*
X130465639Y-151122343D01*
X130557077Y-151242922D01*
X130677656Y-151334360D01*
X130677657Y-151334360D01*
X130677658Y-151334361D01*
X130818436Y-151389877D01*
X130906898Y-151400500D01*
X130906903Y-151400500D01*
X133093097Y-151400500D01*
X133093102Y-151400500D01*
X133181564Y-151389877D01*
X133322342Y-151334361D01*
X133442922Y-151242922D01*
X133534361Y-151122342D01*
X133589877Y-150981564D01*
X133600500Y-150893102D01*
X133600500Y-149674038D01*
X135479500Y-149674038D01*
X135479500Y-149925961D01*
X135518910Y-150174785D01*
X135596760Y-150414383D01*
X135711132Y-150638848D01*
X135859201Y-150842649D01*
X135859205Y-150842654D01*
X136037345Y-151020794D01*
X136037350Y-151020798D01*
X136177116Y-151122343D01*
X136241155Y-151168870D01*
X136384184Y-151241747D01*
X136465616Y-151283239D01*
X136465618Y-151283239D01*
X136465621Y-151283241D01*
X136705215Y-151361090D01*
X136954038Y-151400500D01*
X136954039Y-151400500D01*
X137205961Y-151400500D01*
X137205962Y-151400500D01*
X137454785Y-151361090D01*
X137694379Y-151283241D01*
X137918845Y-151168870D01*
X138122656Y-151020793D01*
X138300793Y-150842656D01*
X138448870Y-150638845D01*
X138563241Y-150414379D01*
X138641090Y-150174785D01*
X138680500Y-149925962D01*
X138680500Y-149674038D01*
X138641090Y-149425215D01*
X138563241Y-149185621D01*
X138563239Y-149185618D01*
X138563239Y-149185616D01*
X138475575Y-149013567D01*
X138448870Y-148961155D01*
X138387060Y-148876080D01*
X138314404Y-148776077D01*
X138314403Y-148776076D01*
X138300796Y-148757347D01*
X138250347Y-148706898D01*
X142899500Y-148706898D01*
X142899500Y-150893102D01*
X142905126Y-150939954D01*
X142910122Y-150981561D01*
X142965639Y-151122343D01*
X143057077Y-151242922D01*
X143177656Y-151334360D01*
X143177657Y-151334360D01*
X143177658Y-151334361D01*
X143318436Y-151389877D01*
X143406898Y-151400500D01*
X143406903Y-151400500D01*
X145593097Y-151400500D01*
X145593102Y-151400500D01*
X145681564Y-151389877D01*
X145822342Y-151334361D01*
X145942922Y-151242922D01*
X146034361Y-151122342D01*
X146089877Y-150981564D01*
X146100500Y-150893102D01*
X146100500Y-149674038D01*
X147979500Y-149674038D01*
X147979500Y-149925961D01*
X148018910Y-150174785D01*
X148096760Y-150414383D01*
X148211132Y-150638848D01*
X148359201Y-150842649D01*
X148359205Y-150842654D01*
X148537345Y-151020794D01*
X148537350Y-151020798D01*
X148677116Y-151122343D01*
X148741155Y-151168870D01*
X148884184Y-151241747D01*
X148965616Y-151283239D01*
X148965618Y-151283239D01*
X148965621Y-151283241D01*
X149205215Y-151361090D01*
X149454038Y-151400500D01*
X149454039Y-151400500D01*
X149705961Y-151400500D01*
X149705962Y-151400500D01*
X149954785Y-151361090D01*
X150194379Y-151283241D01*
X150418845Y-151168870D01*
X150622656Y-151020793D01*
X150800793Y-150842656D01*
X150948870Y-150638845D01*
X151063241Y-150414379D01*
X151141090Y-150174785D01*
X151180500Y-149925962D01*
X151180500Y-149674038D01*
X153059500Y-149674038D01*
X153059500Y-149925961D01*
X153098910Y-150174785D01*
X153176760Y-150414383D01*
X153291132Y-150638848D01*
X153439201Y-150842649D01*
X153439205Y-150842654D01*
X153617345Y-151020794D01*
X153617350Y-151020798D01*
X153757116Y-151122343D01*
X153821155Y-151168870D01*
X153964184Y-151241747D01*
X154045616Y-151283239D01*
X154045618Y-151283239D01*
X154045621Y-151283241D01*
X154285215Y-151361090D01*
X154534038Y-151400500D01*
X154534039Y-151400500D01*
X154785961Y-151400500D01*
X154785962Y-151400500D01*
X155034785Y-151361090D01*
X155274379Y-151283241D01*
X155498845Y-151168870D01*
X155702656Y-151020793D01*
X155880793Y-150842656D01*
X156028870Y-150638845D01*
X156143241Y-150414379D01*
X156221090Y-150174785D01*
X156260500Y-149925962D01*
X156260500Y-149674038D01*
X158139500Y-149674038D01*
X158139500Y-149925961D01*
X158178910Y-150174785D01*
X158256760Y-150414383D01*
X158371132Y-150638848D01*
X158519201Y-150842649D01*
X158519205Y-150842654D01*
X158697345Y-151020794D01*
X158697350Y-151020798D01*
X158837116Y-151122343D01*
X158901155Y-151168870D01*
X159044184Y-151241747D01*
X159125616Y-151283239D01*
X159125618Y-151283239D01*
X159125621Y-151283241D01*
X159365215Y-151361090D01*
X159614038Y-151400500D01*
X159614039Y-151400500D01*
X159865961Y-151400500D01*
X159865962Y-151400500D01*
X160114785Y-151361090D01*
X160354379Y-151283241D01*
X160578845Y-151168870D01*
X160782656Y-151020793D01*
X160960793Y-150842656D01*
X161108870Y-150638845D01*
X161223241Y-150414379D01*
X161301090Y-150174785D01*
X161340500Y-149925962D01*
X161340500Y-149674038D01*
X161301090Y-149425215D01*
X161223241Y-149185621D01*
X161223239Y-149185618D01*
X161223239Y-149185616D01*
X161135575Y-149013567D01*
X161108870Y-148961155D01*
X161047060Y-148876080D01*
X160996798Y-148806900D01*
X165499500Y-148806900D01*
X165499500Y-150793091D01*
X165510123Y-150881562D01*
X165565639Y-151022342D01*
X165565640Y-151022344D01*
X165657077Y-151142922D01*
X165719908Y-151190568D01*
X165777658Y-151234361D01*
X165918436Y-151289876D01*
X166006901Y-151300500D01*
X167993098Y-151300499D01*
X168081564Y-151289876D01*
X168222342Y-151234361D01*
X168342922Y-151142922D01*
X168434361Y-151022342D01*
X168489876Y-150881564D01*
X168500500Y-150793099D01*
X168500499Y-149681902D01*
X168999500Y-149681902D01*
X168999500Y-149918097D01*
X169036446Y-150151368D01*
X169109433Y-150375996D01*
X169216657Y-150586433D01*
X169355483Y-150777510D01*
X169522490Y-150944517D01*
X169713567Y-151083343D01*
X169790107Y-151122342D01*
X169924003Y-151190566D01*
X169924005Y-151190566D01*
X169924008Y-151190568D01*
X170044412Y-151229689D01*
X170148631Y-151263553D01*
X170381903Y-151300500D01*
X170381908Y-151300500D01*
X170618097Y-151300500D01*
X170851368Y-151263553D01*
X170941211Y-151234361D01*
X171075992Y-151190568D01*
X171286433Y-151083343D01*
X171477510Y-150944517D01*
X171644517Y-150777510D01*
X171783343Y-150586433D01*
X171890568Y-150375992D01*
X171963553Y-150151368D01*
X171999254Y-149925961D01*
X172000500Y-149918097D01*
X172000500Y-149681902D01*
X171963553Y-149448631D01*
X171890566Y-149224003D01*
X171783342Y-149013566D01*
X171745260Y-148961151D01*
X171644517Y-148822490D01*
X171477510Y-148655483D01*
X171286433Y-148516657D01*
X171075996Y-148409433D01*
X170851368Y-148336446D01*
X170618097Y-148299500D01*
X170618092Y-148299500D01*
X170381908Y-148299500D01*
X170381903Y-148299500D01*
X170148631Y-148336446D01*
X169924003Y-148409433D01*
X169713566Y-148516657D01*
X169604550Y-148595862D01*
X169522490Y-148655483D01*
X169522488Y-148655485D01*
X169522487Y-148655485D01*
X169355485Y-148822487D01*
X169355485Y-148822488D01*
X169355483Y-148822490D01*
X169295862Y-148904550D01*
X169216657Y-149013566D01*
X169109433Y-149224003D01*
X169036446Y-149448631D01*
X168999500Y-149681902D01*
X168500499Y-149681902D01*
X168500499Y-148806902D01*
X168489876Y-148718436D01*
X168434361Y-148577658D01*
X168434359Y-148577655D01*
X168342922Y-148457077D01*
X168222344Y-148365640D01*
X168222342Y-148365639D01*
X168081564Y-148310124D01*
X168081561Y-148310123D01*
X167993099Y-148299500D01*
X166006908Y-148299500D01*
X165918437Y-148310123D01*
X165777657Y-148365639D01*
X165777655Y-148365640D01*
X165657077Y-148457077D01*
X165565640Y-148577655D01*
X165565029Y-148579205D01*
X165534949Y-148655485D01*
X165510124Y-148718437D01*
X165510123Y-148718438D01*
X165499500Y-148806900D01*
X160996798Y-148806900D01*
X160960798Y-148757350D01*
X160960794Y-148757345D01*
X160782654Y-148579205D01*
X160782649Y-148579201D01*
X160578848Y-148431132D01*
X160578847Y-148431131D01*
X160578845Y-148431130D01*
X160508747Y-148395413D01*
X160354383Y-148316760D01*
X160114785Y-148238910D01*
X159933032Y-148210123D01*
X159865962Y-148199500D01*
X159614038Y-148199500D01*
X159546974Y-148210122D01*
X159365214Y-148238910D01*
X159125616Y-148316760D01*
X158901151Y-148431132D01*
X158697350Y-148579201D01*
X158697345Y-148579205D01*
X158519205Y-148757345D01*
X158519201Y-148757350D01*
X158371132Y-148961151D01*
X158256760Y-149185616D01*
X158178910Y-149425214D01*
X158139500Y-149674038D01*
X156260500Y-149674038D01*
X156221090Y-149425215D01*
X156143241Y-149185621D01*
X156143239Y-149185618D01*
X156143239Y-149185616D01*
X156055575Y-149013567D01*
X156028870Y-148961155D01*
X155967060Y-148876080D01*
X155880798Y-148757350D01*
X155880794Y-148757345D01*
X155702654Y-148579205D01*
X155702649Y-148579201D01*
X155498848Y-148431132D01*
X155498847Y-148431131D01*
X155498845Y-148431130D01*
X155428747Y-148395413D01*
X155274383Y-148316760D01*
X155034785Y-148238910D01*
X154853032Y-148210123D01*
X154785962Y-148199500D01*
X154534038Y-148199500D01*
X154466974Y-148210122D01*
X154285214Y-148238910D01*
X154045616Y-148316760D01*
X153821151Y-148431132D01*
X153617350Y-148579201D01*
X153617345Y-148579205D01*
X153439205Y-148757345D01*
X153439201Y-148757350D01*
X153291132Y-148961151D01*
X153176760Y-149185616D01*
X153098910Y-149425214D01*
X153059500Y-149674038D01*
X151180500Y-149674038D01*
X151141090Y-149425215D01*
X151063241Y-149185621D01*
X151063239Y-149185618D01*
X151063239Y-149185616D01*
X150975575Y-149013567D01*
X150948870Y-148961155D01*
X150887060Y-148876080D01*
X150800798Y-148757350D01*
X150800794Y-148757345D01*
X150622654Y-148579205D01*
X150622649Y-148579201D01*
X150418848Y-148431132D01*
X150418847Y-148431131D01*
X150418845Y-148431130D01*
X150348747Y-148395413D01*
X150194383Y-148316760D01*
X149954785Y-148238910D01*
X149773032Y-148210123D01*
X149705962Y-148199500D01*
X149454038Y-148199500D01*
X149386974Y-148210122D01*
X149205214Y-148238910D01*
X148965616Y-148316760D01*
X148741151Y-148431132D01*
X148537350Y-148579201D01*
X148537345Y-148579205D01*
X148359205Y-148757345D01*
X148359201Y-148757350D01*
X148211132Y-148961151D01*
X148096760Y-149185616D01*
X148018910Y-149425214D01*
X147979500Y-149674038D01*
X146100500Y-149674038D01*
X146100500Y-148706898D01*
X146089877Y-148618436D01*
X146034361Y-148477658D01*
X146034360Y-148477657D01*
X146034360Y-148477656D01*
X145942922Y-148357077D01*
X145822343Y-148265639D01*
X145681561Y-148210122D01*
X145635926Y-148204642D01*
X145593102Y-148199500D01*
X143406898Y-148199500D01*
X143367853Y-148204188D01*
X143318438Y-148210122D01*
X143177656Y-148265639D01*
X143057077Y-148357077D01*
X142965639Y-148477656D01*
X142910122Y-148618438D01*
X142905674Y-148655483D01*
X142899500Y-148706898D01*
X138250347Y-148706898D01*
X138122654Y-148579205D01*
X138122649Y-148579201D01*
X137918848Y-148431132D01*
X137918847Y-148431131D01*
X137918845Y-148431130D01*
X137848747Y-148395413D01*
X137694383Y-148316760D01*
X137454785Y-148238910D01*
X137273032Y-148210123D01*
X137205962Y-148199500D01*
X136954038Y-148199500D01*
X136886974Y-148210122D01*
X136705214Y-148238910D01*
X136465616Y-148316760D01*
X136241151Y-148431132D01*
X136037350Y-148579201D01*
X136037345Y-148579205D01*
X135859205Y-148757345D01*
X135859201Y-148757350D01*
X135711132Y-148961151D01*
X135596760Y-149185616D01*
X135518910Y-149425214D01*
X135479500Y-149674038D01*
X133600500Y-149674038D01*
X133600500Y-148706898D01*
X133589877Y-148618436D01*
X133534361Y-148477658D01*
X133534360Y-148477657D01*
X133534360Y-148477656D01*
X133442922Y-148357077D01*
X133322343Y-148265639D01*
X133181561Y-148210122D01*
X133135926Y-148204642D01*
X133093102Y-148199500D01*
X130906898Y-148199500D01*
X130867853Y-148204188D01*
X130818438Y-148210122D01*
X130677656Y-148265639D01*
X130557077Y-148357077D01*
X130465639Y-148477656D01*
X130410122Y-148618438D01*
X130405674Y-148655483D01*
X130399500Y-148706898D01*
X126250347Y-148706898D01*
X126122654Y-148579205D01*
X126122649Y-148579201D01*
X125918848Y-148431132D01*
X125918847Y-148431131D01*
X125918845Y-148431130D01*
X125848747Y-148395413D01*
X125694383Y-148316760D01*
X125454785Y-148238910D01*
X125273032Y-148210123D01*
X125205962Y-148199500D01*
X124954038Y-148199500D01*
X124886974Y-148210122D01*
X124705214Y-148238910D01*
X124465616Y-148316760D01*
X124241151Y-148431132D01*
X124037350Y-148579201D01*
X124037345Y-148579205D01*
X123859205Y-148757345D01*
X123859201Y-148757350D01*
X123711132Y-148961151D01*
X123596760Y-149185616D01*
X123518910Y-149425214D01*
X123479500Y-149674038D01*
X121600500Y-149674038D01*
X121600500Y-148706898D01*
X121589877Y-148618436D01*
X121534361Y-148477658D01*
X121534360Y-148477657D01*
X121534360Y-148477656D01*
X121442922Y-148357077D01*
X121322343Y-148265639D01*
X121181561Y-148210122D01*
X121135926Y-148204642D01*
X121093102Y-148199500D01*
X118906898Y-148199500D01*
X118867853Y-148204188D01*
X118818438Y-148210122D01*
X118677656Y-148265639D01*
X118557077Y-148357077D01*
X118465639Y-148477656D01*
X118410122Y-148618438D01*
X118405674Y-148655483D01*
X118399500Y-148706898D01*
X114528925Y-148706898D01*
X114477510Y-148655483D01*
X114286433Y-148516657D01*
X114075996Y-148409433D01*
X113851368Y-148336446D01*
X113618097Y-148299500D01*
X113618092Y-148299500D01*
X113381908Y-148299500D01*
X113381903Y-148299500D01*
X113148631Y-148336446D01*
X112924003Y-148409433D01*
X112713566Y-148516657D01*
X112604550Y-148595862D01*
X112522490Y-148655483D01*
X112522488Y-148655485D01*
X112522487Y-148655485D01*
X112355485Y-148822487D01*
X112355485Y-148822488D01*
X112355483Y-148822490D01*
X112295862Y-148904550D01*
X112216657Y-149013566D01*
X112109433Y-149224003D01*
X112036446Y-149448631D01*
X111999500Y-149681902D01*
X111500500Y-149681902D01*
X111463553Y-149448631D01*
X111390566Y-149224003D01*
X111283342Y-149013566D01*
X111245260Y-148961151D01*
X111144517Y-148822490D01*
X110977510Y-148655483D01*
X110786433Y-148516657D01*
X110575996Y-148409433D01*
X110351368Y-148336446D01*
X110118097Y-148299500D01*
X110118092Y-148299500D01*
X109881908Y-148299500D01*
X109881903Y-148299500D01*
X109648631Y-148336446D01*
X109424003Y-148409433D01*
X109213566Y-148516657D01*
X109104550Y-148595862D01*
X109022490Y-148655483D01*
X109022488Y-148655485D01*
X109022487Y-148655485D01*
X108855485Y-148822487D01*
X108855485Y-148822488D01*
X108855483Y-148822490D01*
X108795862Y-148904550D01*
X108716657Y-149013566D01*
X108609433Y-149224003D01*
X108536446Y-149448631D01*
X108499500Y-149681902D01*
X108000500Y-149681902D01*
X107963553Y-149448631D01*
X107890566Y-149224003D01*
X107783342Y-149013566D01*
X107745260Y-148961151D01*
X107644517Y-148822490D01*
X107477510Y-148655483D01*
X107286433Y-148516657D01*
X107075996Y-148409433D01*
X106851368Y-148336446D01*
X106618097Y-148299500D01*
X106618092Y-148299500D01*
X106381908Y-148299500D01*
X106381903Y-148299500D01*
X106148631Y-148336446D01*
X105924003Y-148409433D01*
X105713566Y-148516657D01*
X105604550Y-148595862D01*
X105522490Y-148655483D01*
X105522488Y-148655485D01*
X105522487Y-148655485D01*
X105355485Y-148822487D01*
X105355485Y-148822488D01*
X105355483Y-148822490D01*
X105295862Y-148904550D01*
X105216657Y-149013566D01*
X105109433Y-149224003D01*
X105036446Y-149448631D01*
X104999500Y-149681902D01*
X104500499Y-149681902D01*
X104500499Y-148806902D01*
X104489876Y-148718436D01*
X104434361Y-148577658D01*
X104434359Y-148577655D01*
X104342922Y-148457077D01*
X104222344Y-148365640D01*
X104222342Y-148365639D01*
X104081564Y-148310124D01*
X104081561Y-148310123D01*
X103993099Y-148299500D01*
X102006908Y-148299500D01*
X101918437Y-148310123D01*
X101777657Y-148365639D01*
X101777655Y-148365640D01*
X101657077Y-148457077D01*
X101565640Y-148577655D01*
X101565029Y-148579205D01*
X101534949Y-148655485D01*
X101510124Y-148718437D01*
X101510123Y-148718438D01*
X101499500Y-148806900D01*
X100300500Y-148806900D01*
X100300500Y-137889205D01*
X128909500Y-137889205D01*
X128909500Y-138110794D01*
X128909501Y-138110810D01*
X128938424Y-138330504D01*
X128995780Y-138544559D01*
X129080581Y-138749286D01*
X129080585Y-138749296D01*
X129191384Y-138941206D01*
X129326286Y-139117014D01*
X129326292Y-139117021D01*
X129482978Y-139273707D01*
X129482985Y-139273713D01*
X129658793Y-139408615D01*
X129850703Y-139519414D01*
X129850704Y-139519414D01*
X129850707Y-139519416D01*
X130055441Y-139604220D01*
X130269492Y-139661575D01*
X130489199Y-139690500D01*
X130489206Y-139690500D01*
X130710794Y-139690500D01*
X130710801Y-139690500D01*
X130930508Y-139661575D01*
X131144559Y-139604220D01*
X131349293Y-139519416D01*
X131541207Y-139408615D01*
X131717016Y-139273712D01*
X131873712Y-139117016D01*
X132008615Y-138941207D01*
X132119416Y-138749293D01*
X132185439Y-138589899D01*
X132229280Y-138535496D01*
X132295574Y-138513431D01*
X132363273Y-138530710D01*
X132410884Y-138581847D01*
X132414561Y-138589900D01*
X132480578Y-138749281D01*
X132480585Y-138749296D01*
X132591384Y-138941206D01*
X132726286Y-139117014D01*
X132726292Y-139117021D01*
X132882978Y-139273707D01*
X132882985Y-139273713D01*
X133058793Y-139408615D01*
X133250703Y-139519414D01*
X133250704Y-139519414D01*
X133250707Y-139519416D01*
X133455441Y-139604220D01*
X133669492Y-139661575D01*
X133889199Y-139690500D01*
X133889206Y-139690500D01*
X134110794Y-139690500D01*
X134110801Y-139690500D01*
X134330508Y-139661575D01*
X134544559Y-139604220D01*
X134749293Y-139519416D01*
X134941207Y-139408615D01*
X134975899Y-139381995D01*
X182699500Y-139381995D01*
X182699500Y-139618004D01*
X182699501Y-139618020D01*
X182730306Y-139852010D01*
X182791394Y-140079993D01*
X182881714Y-140298045D01*
X182881719Y-140298056D01*
X182952677Y-140420957D01*
X182999727Y-140502450D01*
X182999729Y-140502453D01*
X182999730Y-140502454D01*
X183143406Y-140689697D01*
X183143412Y-140689704D01*
X183310295Y-140856587D01*
X183310301Y-140856592D01*
X183497550Y-141000273D01*
X183628918Y-141076118D01*
X183701943Y-141118280D01*
X183701948Y-141118282D01*
X183701951Y-141118284D01*
X183920007Y-141208606D01*
X184147986Y-141269693D01*
X184381989Y-141300500D01*
X184381996Y-141300500D01*
X184618004Y-141300500D01*
X184618011Y-141300500D01*
X184852014Y-141269693D01*
X185079993Y-141208606D01*
X185298049Y-141118284D01*
X185502450Y-141000273D01*
X185689699Y-140856592D01*
X185856592Y-140689699D01*
X186000273Y-140502450D01*
X186118284Y-140298049D01*
X186208606Y-140079993D01*
X186269693Y-139852014D01*
X186300500Y-139618011D01*
X186300500Y-139381989D01*
X186269693Y-139147986D01*
X186208606Y-138920007D01*
X186118284Y-138701951D01*
X186118282Y-138701948D01*
X186118280Y-138701943D01*
X186059711Y-138600500D01*
X186000273Y-138497550D01*
X185901410Y-138368709D01*
X185856593Y-138310302D01*
X185856587Y-138310295D01*
X185689704Y-138143412D01*
X185689697Y-138143406D01*
X185502454Y-137999730D01*
X185502453Y-137999729D01*
X185502450Y-137999727D01*
X185365996Y-137920945D01*
X185298056Y-137881719D01*
X185298045Y-137881714D01*
X185079993Y-137791394D01*
X184852010Y-137730306D01*
X184618020Y-137699501D01*
X184618017Y-137699500D01*
X184618011Y-137699500D01*
X184381989Y-137699500D01*
X184381983Y-137699500D01*
X184381979Y-137699501D01*
X184147989Y-137730306D01*
X183920006Y-137791394D01*
X183701954Y-137881714D01*
X183701943Y-137881719D01*
X183497545Y-137999730D01*
X183310302Y-138143406D01*
X183310295Y-138143412D01*
X183143412Y-138310295D01*
X183143406Y-138310302D01*
X182999730Y-138497545D01*
X182881719Y-138701943D01*
X182881714Y-138701954D01*
X182791394Y-138920006D01*
X182730306Y-139147989D01*
X182699501Y-139381979D01*
X182699500Y-139381995D01*
X134975899Y-139381995D01*
X135117016Y-139273712D01*
X135273712Y-139117016D01*
X135408615Y-138941207D01*
X135519416Y-138749293D01*
X135604220Y-138544559D01*
X135661575Y-138330508D01*
X135690500Y-138110801D01*
X135690500Y-137920943D01*
X173950500Y-137920943D01*
X173950500Y-138079056D01*
X173991423Y-138231783D01*
X173991426Y-138231790D01*
X174070475Y-138368709D01*
X174070479Y-138368714D01*
X174070480Y-138368716D01*
X174182284Y-138480520D01*
X174182286Y-138480521D01*
X174182290Y-138480524D01*
X174269216Y-138530710D01*
X174319216Y-138559577D01*
X174471943Y-138600500D01*
X174471945Y-138600500D01*
X174630055Y-138600500D01*
X174630057Y-138600500D01*
X174782784Y-138559577D01*
X174919716Y-138480520D01*
X175031520Y-138368716D01*
X175110577Y-138231784D01*
X175151500Y-138079057D01*
X175151500Y-137920943D01*
X175110577Y-137768216D01*
X175110573Y-137768209D01*
X175031524Y-137631290D01*
X175031518Y-137631282D01*
X174919717Y-137519481D01*
X174919709Y-137519475D01*
X174782790Y-137440426D01*
X174782786Y-137440424D01*
X174782784Y-137440423D01*
X174630057Y-137399500D01*
X174471943Y-137399500D01*
X174319216Y-137440423D01*
X174319209Y-137440426D01*
X174182290Y-137519475D01*
X174182282Y-137519481D01*
X174070481Y-137631282D01*
X174070475Y-137631290D01*
X173991426Y-137768209D01*
X173991423Y-137768216D01*
X173950500Y-137920943D01*
X135690500Y-137920943D01*
X135690500Y-137889199D01*
X135661575Y-137669492D01*
X135604220Y-137455441D01*
X135519416Y-137250707D01*
X135468489Y-137162499D01*
X135408615Y-137058793D01*
X135273713Y-136882985D01*
X135273707Y-136882978D01*
X135117021Y-136726292D01*
X135117014Y-136726286D01*
X134941206Y-136591384D01*
X134749296Y-136480585D01*
X134749286Y-136480581D01*
X134544559Y-136395780D01*
X134330504Y-136338424D01*
X134110810Y-136309501D01*
X134110807Y-136309500D01*
X134110801Y-136309500D01*
X133889199Y-136309500D01*
X133889193Y-136309500D01*
X133889189Y-136309501D01*
X133669495Y-136338424D01*
X133455440Y-136395780D01*
X133250713Y-136480581D01*
X133250703Y-136480585D01*
X133058793Y-136591384D01*
X132882985Y-136726286D01*
X132882978Y-136726292D01*
X132726292Y-136882978D01*
X132726286Y-136882985D01*
X132591384Y-137058793D01*
X132480585Y-137250703D01*
X132480581Y-137250713D01*
X132414561Y-137410100D01*
X132370720Y-137464503D01*
X132304426Y-137486568D01*
X132236727Y-137469289D01*
X132189116Y-137418152D01*
X132185439Y-137410100D01*
X132119418Y-137250713D01*
X132119414Y-137250703D01*
X132008615Y-137058793D01*
X131873713Y-136882985D01*
X131873707Y-136882978D01*
X131717021Y-136726292D01*
X131717014Y-136726286D01*
X131541206Y-136591384D01*
X131349296Y-136480585D01*
X131349286Y-136480581D01*
X131144559Y-136395780D01*
X130930504Y-136338424D01*
X130710810Y-136309501D01*
X130710807Y-136309500D01*
X130710801Y-136309500D01*
X130489199Y-136309500D01*
X130489193Y-136309500D01*
X130489189Y-136309501D01*
X130269495Y-136338424D01*
X130055440Y-136395780D01*
X129850713Y-136480581D01*
X129850703Y-136480585D01*
X129658793Y-136591384D01*
X129482985Y-136726286D01*
X129482978Y-136726292D01*
X129326292Y-136882978D01*
X129326286Y-136882985D01*
X129191384Y-137058793D01*
X129080585Y-137250703D01*
X129080581Y-137250713D01*
X128995780Y-137455440D01*
X128938424Y-137669495D01*
X128909501Y-137889189D01*
X128909500Y-137889205D01*
X100300500Y-137889205D01*
X100300500Y-136482943D01*
X107948500Y-136482943D01*
X107948500Y-136641056D01*
X107989423Y-136793783D01*
X107989426Y-136793790D01*
X108068475Y-136930709D01*
X108068479Y-136930714D01*
X108068480Y-136930716D01*
X108180284Y-137042520D01*
X108180286Y-137042521D01*
X108180290Y-137042524D01*
X108317209Y-137121573D01*
X108317216Y-137121577D01*
X108469943Y-137162500D01*
X108469945Y-137162500D01*
X108628055Y-137162500D01*
X108628057Y-137162500D01*
X108780784Y-137121577D01*
X108917716Y-137042520D01*
X109029520Y-136930716D01*
X109108577Y-136793784D01*
X109149500Y-136641057D01*
X109149500Y-136482943D01*
X109108577Y-136330216D01*
X109096617Y-136309500D01*
X109029524Y-136193290D01*
X109029518Y-136193282D01*
X108917717Y-136081481D01*
X108917709Y-136081475D01*
X108780790Y-136002426D01*
X108780786Y-136002424D01*
X108780784Y-136002423D01*
X108628057Y-135961500D01*
X108469943Y-135961500D01*
X108317216Y-136002423D01*
X108317209Y-136002426D01*
X108180290Y-136081475D01*
X108180282Y-136081481D01*
X108068481Y-136193282D01*
X108068475Y-136193290D01*
X107989426Y-136330209D01*
X107989423Y-136330216D01*
X107948500Y-136482943D01*
X100300500Y-136482943D01*
X100300500Y-134481943D01*
X103496500Y-134481943D01*
X103496500Y-134640057D01*
X103513424Y-134703216D01*
X103537423Y-134792783D01*
X103537426Y-134792790D01*
X103616475Y-134929709D01*
X103616479Y-134929714D01*
X103616480Y-134929716D01*
X103728284Y-135041520D01*
X103728286Y-135041521D01*
X103728290Y-135041524D01*
X103865209Y-135120573D01*
X103865216Y-135120577D01*
X104017943Y-135161500D01*
X104017945Y-135161500D01*
X104176055Y-135161500D01*
X104176057Y-135161500D01*
X104328784Y-135120577D01*
X104465716Y-135041520D01*
X104577520Y-134929716D01*
X104584000Y-134918491D01*
X104620112Y-134855943D01*
X105339500Y-134855943D01*
X105339500Y-135014056D01*
X105380423Y-135166783D01*
X105380426Y-135166790D01*
X105459475Y-135303709D01*
X105459479Y-135303714D01*
X105459480Y-135303716D01*
X105571284Y-135415520D01*
X105571286Y-135415521D01*
X105571290Y-135415524D01*
X105708209Y-135494573D01*
X105708216Y-135494577D01*
X105860943Y-135535500D01*
X105860945Y-135535500D01*
X106019055Y-135535500D01*
X106019057Y-135535500D01*
X106171784Y-135494577D01*
X106308716Y-135415520D01*
X106420520Y-135303716D01*
X106499577Y-135166784D01*
X106540500Y-135014057D01*
X106540500Y-134855943D01*
X106499577Y-134703216D01*
X106499573Y-134703209D01*
X106420524Y-134566290D01*
X106420518Y-134566282D01*
X106308717Y-134454481D01*
X106308709Y-134454475D01*
X106171790Y-134375426D01*
X106171786Y-134375424D01*
X106171784Y-134375423D01*
X106019057Y-134334500D01*
X105860943Y-134334500D01*
X105708216Y-134375423D01*
X105708209Y-134375426D01*
X105571290Y-134454475D01*
X105571282Y-134454481D01*
X105459481Y-134566282D01*
X105459475Y-134566290D01*
X105380426Y-134703209D01*
X105380423Y-134703216D01*
X105339500Y-134855943D01*
X104620112Y-134855943D01*
X104656574Y-134792790D01*
X104656574Y-134792788D01*
X104656577Y-134792784D01*
X104697500Y-134640057D01*
X104697500Y-134481943D01*
X104656577Y-134329216D01*
X104656573Y-134329209D01*
X104577524Y-134192290D01*
X104577518Y-134192282D01*
X104465717Y-134080481D01*
X104465709Y-134080475D01*
X104328790Y-134001426D01*
X104328786Y-134001424D01*
X104328784Y-134001423D01*
X104176057Y-133960500D01*
X104017943Y-133960500D01*
X103865216Y-134001423D01*
X103865209Y-134001426D01*
X103728290Y-134080475D01*
X103728282Y-134080481D01*
X103616481Y-134192282D01*
X103616475Y-134192290D01*
X103537426Y-134329209D01*
X103537423Y-134329216D01*
X103496500Y-134481943D01*
X100300500Y-134481943D01*
X100300500Y-131370943D01*
X105306500Y-131370943D01*
X105306500Y-131529056D01*
X105347423Y-131681783D01*
X105347426Y-131681790D01*
X105426475Y-131818709D01*
X105426479Y-131818714D01*
X105426480Y-131818716D01*
X105538284Y-131930520D01*
X105538286Y-131930521D01*
X105538290Y-131930524D01*
X105675209Y-132009573D01*
X105675216Y-132009577D01*
X105827943Y-132050500D01*
X105827945Y-132050500D01*
X105986055Y-132050500D01*
X105986057Y-132050500D01*
X106138784Y-132009577D01*
X106275716Y-131930520D01*
X106387520Y-131818716D01*
X106466577Y-131681784D01*
X106507500Y-131529057D01*
X106507500Y-131370943D01*
X106466577Y-131218216D01*
X106466573Y-131218209D01*
X106387524Y-131081290D01*
X106387518Y-131081282D01*
X106275717Y-130969481D01*
X106275709Y-130969475D01*
X106138790Y-130890426D01*
X106138786Y-130890424D01*
X106138784Y-130890423D01*
X105986057Y-130849500D01*
X105827943Y-130849500D01*
X105675216Y-130890423D01*
X105675209Y-130890426D01*
X105538290Y-130969475D01*
X105538282Y-130969481D01*
X105426481Y-131081282D01*
X105426475Y-131081290D01*
X105347426Y-131218209D01*
X105347423Y-131218216D01*
X105306500Y-131370943D01*
X100300500Y-131370943D01*
X100300500Y-130020943D01*
X111327500Y-130020943D01*
X111327500Y-130179056D01*
X111368423Y-130331783D01*
X111368426Y-130331790D01*
X111447475Y-130468709D01*
X111447479Y-130468714D01*
X111447480Y-130468716D01*
X111559284Y-130580520D01*
X111559286Y-130580521D01*
X111559290Y-130580524D01*
X111634594Y-130624000D01*
X111696216Y-130659577D01*
X111848943Y-130700500D01*
X111848945Y-130700500D01*
X112007055Y-130700500D01*
X112007057Y-130700500D01*
X112159784Y-130659577D01*
X112296716Y-130580520D01*
X112408520Y-130468716D01*
X112487577Y-130331784D01*
X112528500Y-130179057D01*
X112528500Y-130020943D01*
X112487577Y-129868216D01*
X112442964Y-129790943D01*
X118599500Y-129790943D01*
X118599500Y-129949057D01*
X118618763Y-130020945D01*
X118640423Y-130101783D01*
X118640426Y-130101790D01*
X118719475Y-130238709D01*
X118719479Y-130238714D01*
X118719480Y-130238716D01*
X118831284Y-130350520D01*
X118831286Y-130350521D01*
X118831290Y-130350524D01*
X118968209Y-130429573D01*
X118968216Y-130429577D01*
X119120943Y-130470500D01*
X119120945Y-130470500D01*
X119279055Y-130470500D01*
X119279057Y-130470500D01*
X119431784Y-130429577D01*
X119568716Y-130350520D01*
X119680520Y-130238716D01*
X119759577Y-130101784D01*
X119800500Y-129949057D01*
X119800500Y-129790943D01*
X119759577Y-129638216D01*
X119759573Y-129638209D01*
X119680524Y-129501290D01*
X119680518Y-129501282D01*
X119568717Y-129389481D01*
X119568709Y-129389475D01*
X119431790Y-129310426D01*
X119431786Y-129310424D01*
X119431784Y-129310423D01*
X119279057Y-129269500D01*
X119120943Y-129269500D01*
X118968216Y-129310423D01*
X118968209Y-129310426D01*
X118831290Y-129389475D01*
X118831282Y-129389481D01*
X118719481Y-129501282D01*
X118719475Y-129501290D01*
X118640426Y-129638209D01*
X118640423Y-129638216D01*
X118599500Y-129790943D01*
X112442964Y-129790943D01*
X112408520Y-129731284D01*
X112296716Y-129619480D01*
X112296714Y-129619479D01*
X112296709Y-129619475D01*
X112159790Y-129540426D01*
X112159786Y-129540424D01*
X112159784Y-129540423D01*
X112007057Y-129499500D01*
X111848943Y-129499500D01*
X111696216Y-129540423D01*
X111696209Y-129540426D01*
X111559290Y-129619475D01*
X111559282Y-129619481D01*
X111447481Y-129731282D01*
X111447475Y-129731290D01*
X111368426Y-129868209D01*
X111368423Y-129868216D01*
X111327500Y-130020943D01*
X100300500Y-130020943D01*
X100300500Y-128518943D01*
X103536500Y-128518943D01*
X103536500Y-128677057D01*
X103577293Y-128829296D01*
X103577423Y-128829783D01*
X103577426Y-128829790D01*
X103656475Y-128966709D01*
X103656479Y-128966714D01*
X103656480Y-128966716D01*
X103768284Y-129078520D01*
X103768286Y-129078521D01*
X103768290Y-129078524D01*
X103905209Y-129157573D01*
X103905216Y-129157577D01*
X104057943Y-129198500D01*
X104057945Y-129198500D01*
X104216055Y-129198500D01*
X104216057Y-129198500D01*
X104368784Y-129157577D01*
X104505716Y-129078520D01*
X104617520Y-128966716D01*
X104643947Y-128920943D01*
X107999500Y-128920943D01*
X107999500Y-129079057D01*
X108031505Y-129198499D01*
X108040423Y-129231783D01*
X108040426Y-129231790D01*
X108119475Y-129368709D01*
X108119479Y-129368714D01*
X108119480Y-129368716D01*
X108231284Y-129480520D01*
X108231286Y-129480521D01*
X108231290Y-129480524D01*
X108335040Y-129540423D01*
X108368216Y-129559577D01*
X108520943Y-129600500D01*
X108520945Y-129600500D01*
X108679055Y-129600500D01*
X108679057Y-129600500D01*
X108831784Y-129559577D01*
X108968716Y-129480520D01*
X109080520Y-129368716D01*
X109159577Y-129231784D01*
X109200500Y-129079057D01*
X109200500Y-128920943D01*
X109159577Y-128768216D01*
X109106947Y-128677057D01*
X109080524Y-128631290D01*
X109080518Y-128631282D01*
X108968717Y-128519481D01*
X108968709Y-128519475D01*
X108831790Y-128440426D01*
X108831786Y-128440424D01*
X108831784Y-128440423D01*
X108679057Y-128399500D01*
X108520943Y-128399500D01*
X108368216Y-128440423D01*
X108368209Y-128440426D01*
X108231290Y-128519475D01*
X108231282Y-128519481D01*
X108119481Y-128631282D01*
X108119475Y-128631290D01*
X108040426Y-128768209D01*
X108040423Y-128768216D01*
X107999500Y-128920943D01*
X104643947Y-128920943D01*
X104696577Y-128829784D01*
X104737500Y-128677057D01*
X104737500Y-128518943D01*
X104696577Y-128366216D01*
X104675912Y-128330423D01*
X104617524Y-128229290D01*
X104617518Y-128229282D01*
X104505717Y-128117481D01*
X104505712Y-128117477D01*
X104427857Y-128072528D01*
X104427856Y-128072528D01*
X104368784Y-128038423D01*
X104216057Y-127997500D01*
X104057943Y-127997500D01*
X103905216Y-128038423D01*
X103905209Y-128038426D01*
X103768290Y-128117475D01*
X103768282Y-128117481D01*
X103656481Y-128229282D01*
X103656475Y-128229290D01*
X103577426Y-128366209D01*
X103577423Y-128366216D01*
X103536500Y-128518943D01*
X100300500Y-128518943D01*
X100300500Y-127969205D01*
X128909500Y-127969205D01*
X128909500Y-128190794D01*
X128909501Y-128190810D01*
X128938424Y-128410504D01*
X128995780Y-128624559D01*
X129080581Y-128829286D01*
X129080585Y-128829296D01*
X129191384Y-129021206D01*
X129326286Y-129197014D01*
X129326292Y-129197021D01*
X129482978Y-129353707D01*
X129482985Y-129353713D01*
X129658793Y-129488615D01*
X129850703Y-129599414D01*
X129850704Y-129599414D01*
X129850707Y-129599416D01*
X130055441Y-129684220D01*
X130269492Y-129741575D01*
X130489199Y-129770500D01*
X130489206Y-129770500D01*
X130710794Y-129770500D01*
X130710801Y-129770500D01*
X130930508Y-129741575D01*
X131144559Y-129684220D01*
X131349293Y-129599416D01*
X131541207Y-129488615D01*
X131717016Y-129353712D01*
X131873712Y-129197016D01*
X132008615Y-129021207D01*
X132119416Y-128829293D01*
X132185439Y-128669899D01*
X132229280Y-128615496D01*
X132295574Y-128593431D01*
X132363273Y-128610710D01*
X132410884Y-128661847D01*
X132414561Y-128669900D01*
X132480578Y-128829281D01*
X132480585Y-128829296D01*
X132591384Y-129021206D01*
X132726286Y-129197014D01*
X132726292Y-129197021D01*
X132882978Y-129353707D01*
X132882985Y-129353713D01*
X133058793Y-129488615D01*
X133250703Y-129599414D01*
X133250704Y-129599414D01*
X133250707Y-129599416D01*
X133455441Y-129684220D01*
X133669492Y-129741575D01*
X133889199Y-129770500D01*
X133889206Y-129770500D01*
X134110794Y-129770500D01*
X134110801Y-129770500D01*
X134330508Y-129741575D01*
X134544559Y-129684220D01*
X134749293Y-129599416D01*
X134941207Y-129488615D01*
X135117016Y-129353712D01*
X135273712Y-129197016D01*
X135408615Y-129021207D01*
X135411077Y-129016943D01*
X158678500Y-129016943D01*
X158678500Y-129175057D01*
X158700917Y-129258716D01*
X158719423Y-129327783D01*
X158719426Y-129327790D01*
X158798475Y-129464709D01*
X158798479Y-129464714D01*
X158798480Y-129464716D01*
X158910284Y-129576520D01*
X158910286Y-129576521D01*
X158910290Y-129576524D01*
X159047209Y-129655573D01*
X159047216Y-129655577D01*
X159199943Y-129696500D01*
X159199945Y-129696500D01*
X159358055Y-129696500D01*
X159358057Y-129696500D01*
X159510784Y-129655577D01*
X159647716Y-129576520D01*
X159759520Y-129464716D01*
X159838577Y-129327784D01*
X159879500Y-129175057D01*
X159879500Y-129016943D01*
X159838577Y-128864216D01*
X159807820Y-128810943D01*
X169540500Y-128810943D01*
X169540500Y-128969057D01*
X169569975Y-129079057D01*
X169581423Y-129121783D01*
X169581426Y-129121790D01*
X169660475Y-129258709D01*
X169660479Y-129258714D01*
X169660480Y-129258716D01*
X169772284Y-129370520D01*
X169772286Y-129370521D01*
X169772290Y-129370524D01*
X169909209Y-129449573D01*
X169909216Y-129449577D01*
X170061943Y-129490500D01*
X170061945Y-129490500D01*
X170220055Y-129490500D01*
X170220057Y-129490500D01*
X170372784Y-129449577D01*
X170509716Y-129370520D01*
X170621520Y-129258716D01*
X170700577Y-129121784D01*
X170741500Y-128969057D01*
X170741500Y-128810943D01*
X170700577Y-128658216D01*
X170700573Y-128658209D01*
X170621524Y-128521290D01*
X170621518Y-128521282D01*
X170509717Y-128409481D01*
X170509709Y-128409475D01*
X170372790Y-128330426D01*
X170372786Y-128330424D01*
X170372784Y-128330423D01*
X170220057Y-128289500D01*
X170061943Y-128289500D01*
X169909216Y-128330423D01*
X169909209Y-128330426D01*
X169772290Y-128409475D01*
X169772282Y-128409481D01*
X169660481Y-128521282D01*
X169660475Y-128521290D01*
X169581426Y-128658209D01*
X169581423Y-128658216D01*
X169540500Y-128810943D01*
X159807820Y-128810943D01*
X159759520Y-128727284D01*
X159647716Y-128615480D01*
X159647714Y-128615479D01*
X159647709Y-128615475D01*
X159510790Y-128536426D01*
X159510786Y-128536424D01*
X159510784Y-128536423D01*
X159358057Y-128495500D01*
X159199943Y-128495500D01*
X159047216Y-128536423D01*
X159047209Y-128536426D01*
X158910290Y-128615475D01*
X158910282Y-128615481D01*
X158798481Y-128727282D01*
X158798475Y-128727290D01*
X158719426Y-128864209D01*
X158719423Y-128864216D01*
X158678500Y-129016943D01*
X135411077Y-129016943D01*
X135440075Y-128966716D01*
X135451565Y-128946816D01*
X135451566Y-128946814D01*
X135519129Y-128829790D01*
X135519416Y-128829293D01*
X135604220Y-128624559D01*
X135661575Y-128410508D01*
X135690500Y-128190801D01*
X135690500Y-127969199D01*
X135661575Y-127749492D01*
X135604220Y-127535441D01*
X135519416Y-127330707D01*
X135470478Y-127245943D01*
X151433500Y-127245943D01*
X151433500Y-127404057D01*
X151471133Y-127544503D01*
X151474423Y-127556783D01*
X151474426Y-127556790D01*
X151553475Y-127693709D01*
X151553479Y-127693714D01*
X151553480Y-127693716D01*
X151665284Y-127805520D01*
X151665286Y-127805521D01*
X151665290Y-127805524D01*
X151802209Y-127884573D01*
X151802216Y-127884577D01*
X151954943Y-127925500D01*
X151954945Y-127925500D01*
X152113055Y-127925500D01*
X152113057Y-127925500D01*
X152265784Y-127884577D01*
X152402716Y-127805520D01*
X152514520Y-127693716D01*
X152593577Y-127556784D01*
X152634500Y-127404057D01*
X152634500Y-127245943D01*
X152593577Y-127093216D01*
X152518389Y-126962985D01*
X152514524Y-126956290D01*
X152514518Y-126956282D01*
X152402717Y-126844481D01*
X152402716Y-126844480D01*
X152265784Y-126765423D01*
X152113057Y-126724500D01*
X151954943Y-126724500D01*
X151802216Y-126765423D01*
X151802209Y-126765426D01*
X151665290Y-126844475D01*
X151665282Y-126844481D01*
X151553481Y-126956282D01*
X151553475Y-126956290D01*
X151474426Y-127093209D01*
X151474423Y-127093216D01*
X151433500Y-127245943D01*
X135470478Y-127245943D01*
X135408618Y-127138797D01*
X135408617Y-127138795D01*
X135273713Y-126962985D01*
X135273707Y-126962978D01*
X135117021Y-126806292D01*
X135117014Y-126806286D01*
X134941206Y-126671384D01*
X134749296Y-126560585D01*
X134749286Y-126560581D01*
X134544559Y-126475780D01*
X134330504Y-126418424D01*
X134110810Y-126389501D01*
X134110807Y-126389500D01*
X134110801Y-126389500D01*
X133889199Y-126389500D01*
X133889193Y-126389500D01*
X133889189Y-126389501D01*
X133669495Y-126418424D01*
X133455440Y-126475780D01*
X133250713Y-126560581D01*
X133250703Y-126560585D01*
X133058793Y-126671384D01*
X132882985Y-126806286D01*
X132882978Y-126806292D01*
X132726292Y-126962978D01*
X132726286Y-126962985D01*
X132591384Y-127138793D01*
X132480585Y-127330703D01*
X132480581Y-127330713D01*
X132414561Y-127490100D01*
X132370720Y-127544503D01*
X132304426Y-127566568D01*
X132236727Y-127549289D01*
X132189116Y-127498152D01*
X132185439Y-127490100D01*
X132119416Y-127330707D01*
X132113567Y-127320577D01*
X132008615Y-127138793D01*
X131873713Y-126962985D01*
X131873707Y-126962978D01*
X131717021Y-126806292D01*
X131717014Y-126806286D01*
X131541206Y-126671384D01*
X131349296Y-126560585D01*
X131349286Y-126560581D01*
X131144559Y-126475780D01*
X130930504Y-126418424D01*
X130710810Y-126389501D01*
X130710807Y-126389500D01*
X130710801Y-126389500D01*
X130489199Y-126389500D01*
X130489193Y-126389500D01*
X130489189Y-126389501D01*
X130269495Y-126418424D01*
X130055440Y-126475780D01*
X129850713Y-126560581D01*
X129850703Y-126560585D01*
X129658793Y-126671384D01*
X129482985Y-126806286D01*
X129482978Y-126806292D01*
X129326292Y-126962978D01*
X129326286Y-126962985D01*
X129191384Y-127138793D01*
X129080585Y-127330703D01*
X129080581Y-127330713D01*
X128995780Y-127535440D01*
X128938424Y-127749495D01*
X128909501Y-127969189D01*
X128909500Y-127969205D01*
X100300500Y-127969205D01*
X100300500Y-126218943D01*
X147220500Y-126218943D01*
X147220500Y-126377057D01*
X147231585Y-126418424D01*
X147261423Y-126529783D01*
X147261426Y-126529790D01*
X147340475Y-126666709D01*
X147340479Y-126666714D01*
X147340480Y-126666716D01*
X147452284Y-126778520D01*
X147452286Y-126778521D01*
X147452290Y-126778524D01*
X147558868Y-126840056D01*
X147589216Y-126857577D01*
X147741943Y-126898500D01*
X147741945Y-126898500D01*
X147900055Y-126898500D01*
X147900057Y-126898500D01*
X148052784Y-126857577D01*
X148189716Y-126778520D01*
X148286293Y-126681943D01*
X158624500Y-126681943D01*
X158624500Y-126840057D01*
X158657439Y-126962985D01*
X158665423Y-126992783D01*
X158665426Y-126992790D01*
X158744475Y-127129709D01*
X158744479Y-127129714D01*
X158744480Y-127129716D01*
X158856284Y-127241520D01*
X158856286Y-127241521D01*
X158856290Y-127241524D01*
X158993209Y-127320573D01*
X158993216Y-127320577D01*
X159145943Y-127361500D01*
X159145945Y-127361500D01*
X159304055Y-127361500D01*
X159304057Y-127361500D01*
X159456784Y-127320577D01*
X159593716Y-127241520D01*
X159705520Y-127129716D01*
X159784577Y-126992784D01*
X159825500Y-126840057D01*
X159825500Y-126681943D01*
X159784577Y-126529216D01*
X159753726Y-126475780D01*
X159705524Y-126392290D01*
X159705518Y-126392282D01*
X159593717Y-126280481D01*
X159593709Y-126280475D01*
X159456790Y-126201426D01*
X159456786Y-126201424D01*
X159456784Y-126201423D01*
X159304057Y-126160500D01*
X159145943Y-126160500D01*
X158993216Y-126201423D01*
X158993209Y-126201426D01*
X158856290Y-126280475D01*
X158856282Y-126280481D01*
X158744481Y-126392282D01*
X158744475Y-126392290D01*
X158665426Y-126529209D01*
X158665423Y-126529216D01*
X158624500Y-126681943D01*
X148286293Y-126681943D01*
X148301520Y-126666716D01*
X148380577Y-126529784D01*
X148421500Y-126377057D01*
X148421500Y-126218943D01*
X148380577Y-126066216D01*
X148368160Y-126044709D01*
X148301524Y-125929290D01*
X148301518Y-125929282D01*
X148189717Y-125817481D01*
X148189709Y-125817475D01*
X148052790Y-125738426D01*
X148052786Y-125738424D01*
X148052784Y-125738423D01*
X147900057Y-125697500D01*
X147741943Y-125697500D01*
X147589216Y-125738423D01*
X147589209Y-125738426D01*
X147452290Y-125817475D01*
X147452282Y-125817481D01*
X147340481Y-125929282D01*
X147340475Y-125929290D01*
X147261426Y-126066209D01*
X147261423Y-126066216D01*
X147220500Y-126218943D01*
X100300500Y-126218943D01*
X100300500Y-125094943D01*
X109789500Y-125094943D01*
X109789500Y-125253057D01*
X109819685Y-125365707D01*
X109830423Y-125405783D01*
X109830426Y-125405790D01*
X109909475Y-125542709D01*
X109909479Y-125542714D01*
X109909480Y-125542716D01*
X110021284Y-125654520D01*
X110021286Y-125654521D01*
X110021290Y-125654524D01*
X110095728Y-125697500D01*
X110158216Y-125733577D01*
X110310943Y-125774500D01*
X110310945Y-125774500D01*
X110469055Y-125774500D01*
X110469057Y-125774500D01*
X110621784Y-125733577D01*
X110758716Y-125654520D01*
X110870520Y-125542716D01*
X110949577Y-125405784D01*
X110990500Y-125253057D01*
X110990500Y-125094943D01*
X110949577Y-124942216D01*
X110930982Y-124910008D01*
X110870522Y-124805287D01*
X110870518Y-124805282D01*
X110758717Y-124693481D01*
X110758709Y-124693475D01*
X110621790Y-124614426D01*
X110621786Y-124614424D01*
X110621784Y-124614423D01*
X110469057Y-124573500D01*
X110310943Y-124573500D01*
X110158216Y-124614423D01*
X110158209Y-124614426D01*
X110021290Y-124693475D01*
X110021282Y-124693481D01*
X109909481Y-124805282D01*
X109909475Y-124805290D01*
X109830426Y-124942209D01*
X109830423Y-124942216D01*
X109789500Y-125094943D01*
X100300500Y-125094943D01*
X100300500Y-123370943D01*
X118599500Y-123370943D01*
X118599500Y-123529057D01*
X118635236Y-123662423D01*
X118640423Y-123681783D01*
X118640426Y-123681790D01*
X118719475Y-123818709D01*
X118719479Y-123818714D01*
X118719480Y-123818716D01*
X118831284Y-123930520D01*
X118831286Y-123930521D01*
X118831290Y-123930524D01*
X118904850Y-123972993D01*
X118968216Y-124009577D01*
X119120943Y-124050500D01*
X119120945Y-124050500D01*
X119279055Y-124050500D01*
X119279057Y-124050500D01*
X119431784Y-124009577D01*
X119568716Y-123930520D01*
X119680520Y-123818716D01*
X119759577Y-123681784D01*
X119800500Y-123529057D01*
X119800500Y-123370943D01*
X119759577Y-123218216D01*
X119735785Y-123177006D01*
X119680524Y-123081290D01*
X119680518Y-123081282D01*
X119568717Y-122969481D01*
X119568709Y-122969475D01*
X119431790Y-122890426D01*
X119431786Y-122890424D01*
X119431784Y-122890423D01*
X119279057Y-122849500D01*
X119120943Y-122849500D01*
X118968216Y-122890423D01*
X118968209Y-122890426D01*
X118831290Y-122969475D01*
X118831282Y-122969481D01*
X118719481Y-123081282D01*
X118719475Y-123081290D01*
X118640426Y-123218209D01*
X118640423Y-123218216D01*
X118599500Y-123370943D01*
X100300500Y-123370943D01*
X100300500Y-121266943D01*
X103899500Y-121266943D01*
X103899500Y-121425057D01*
X103938414Y-121570284D01*
X103940423Y-121577783D01*
X103940426Y-121577790D01*
X104019475Y-121714709D01*
X104019479Y-121714714D01*
X104019480Y-121714716D01*
X104131284Y-121826520D01*
X104131286Y-121826521D01*
X104131290Y-121826524D01*
X104189178Y-121859945D01*
X104268216Y-121905577D01*
X104420943Y-121946500D01*
X104420945Y-121946500D01*
X104579055Y-121946500D01*
X104579057Y-121946500D01*
X104731784Y-121905577D01*
X104810825Y-121859943D01*
X106890500Y-121859943D01*
X106890500Y-122018056D01*
X106931423Y-122170783D01*
X106931426Y-122170790D01*
X107010475Y-122307709D01*
X107010479Y-122307714D01*
X107010480Y-122307716D01*
X107122284Y-122419520D01*
X107122286Y-122419521D01*
X107122290Y-122419524D01*
X107221441Y-122476768D01*
X107259216Y-122498577D01*
X107411943Y-122539500D01*
X107411945Y-122539500D01*
X107570055Y-122539500D01*
X107570057Y-122539500D01*
X107722784Y-122498577D01*
X107859716Y-122419520D01*
X107971520Y-122307716D01*
X108050577Y-122170784D01*
X108091500Y-122018057D01*
X108091500Y-121859943D01*
X108050577Y-121707216D01*
X107975854Y-121577790D01*
X107971524Y-121570290D01*
X107971518Y-121570282D01*
X107859717Y-121458481D01*
X107859709Y-121458475D01*
X107722790Y-121379426D01*
X107722786Y-121379424D01*
X107722784Y-121379423D01*
X107570057Y-121338500D01*
X107411943Y-121338500D01*
X107259216Y-121379423D01*
X107259209Y-121379426D01*
X107122290Y-121458475D01*
X107122282Y-121458481D01*
X107010481Y-121570282D01*
X107010475Y-121570290D01*
X106931426Y-121707209D01*
X106931423Y-121707216D01*
X106890500Y-121859943D01*
X104810825Y-121859943D01*
X104868716Y-121826520D01*
X104980520Y-121714716D01*
X105059577Y-121577784D01*
X105100500Y-121425057D01*
X105100500Y-121266943D01*
X105059577Y-121114216D01*
X105059573Y-121114209D01*
X104980524Y-120977290D01*
X104980518Y-120977282D01*
X104868717Y-120865481D01*
X104868709Y-120865475D01*
X104731790Y-120786426D01*
X104731786Y-120786424D01*
X104731784Y-120786423D01*
X104579057Y-120745500D01*
X104420943Y-120745500D01*
X104268216Y-120786423D01*
X104268209Y-120786426D01*
X104131290Y-120865475D01*
X104131282Y-120865481D01*
X104019481Y-120977282D01*
X104019475Y-120977290D01*
X103940426Y-121114209D01*
X103940423Y-121114216D01*
X103899500Y-121266943D01*
X100300500Y-121266943D01*
X100300500Y-119370943D01*
X106999500Y-119370943D01*
X106999500Y-119529057D01*
X107012495Y-119577553D01*
X107040423Y-119681783D01*
X107040426Y-119681790D01*
X107119475Y-119818709D01*
X107119479Y-119818714D01*
X107119480Y-119818716D01*
X107231284Y-119930520D01*
X107231286Y-119930521D01*
X107231290Y-119930524D01*
X107357226Y-120003232D01*
X107368216Y-120009577D01*
X107520943Y-120050500D01*
X107520945Y-120050500D01*
X107679055Y-120050500D01*
X107679057Y-120050500D01*
X107831784Y-120009577D01*
X107968716Y-119930520D01*
X108080520Y-119818716D01*
X108159577Y-119681784D01*
X108200500Y-119529057D01*
X108200500Y-119370943D01*
X108159577Y-119218216D01*
X108115364Y-119141636D01*
X108080524Y-119081290D01*
X108080518Y-119081282D01*
X107968717Y-118969481D01*
X107968709Y-118969475D01*
X107831790Y-118890426D01*
X107831786Y-118890424D01*
X107831784Y-118890423D01*
X107679057Y-118849500D01*
X107520943Y-118849500D01*
X107368216Y-118890423D01*
X107368209Y-118890426D01*
X107231290Y-118969475D01*
X107231282Y-118969481D01*
X107119481Y-119081282D01*
X107119475Y-119081290D01*
X107040426Y-119218209D01*
X107040423Y-119218216D01*
X106999500Y-119370943D01*
X100300500Y-119370943D01*
X100300500Y-117520943D01*
X111380500Y-117520943D01*
X111380500Y-117679057D01*
X111390401Y-117716006D01*
X111421423Y-117831783D01*
X111421426Y-117831790D01*
X111500475Y-117968709D01*
X111500479Y-117968714D01*
X111500480Y-117968716D01*
X111612284Y-118080520D01*
X111612286Y-118080521D01*
X111612290Y-118080524D01*
X111749209Y-118159573D01*
X111749216Y-118159577D01*
X111901943Y-118200500D01*
X111901945Y-118200500D01*
X112060055Y-118200500D01*
X112060057Y-118200500D01*
X112212784Y-118159577D01*
X112349716Y-118080520D01*
X112461520Y-117968716D01*
X112540577Y-117831784D01*
X112581500Y-117679057D01*
X112581500Y-117520943D01*
X112540577Y-117368216D01*
X112505539Y-117307527D01*
X112461524Y-117231290D01*
X112461518Y-117231282D01*
X112349717Y-117119481D01*
X112349709Y-117119475D01*
X112212790Y-117040426D01*
X112212786Y-117040424D01*
X112212784Y-117040423D01*
X112060057Y-116999500D01*
X111901943Y-116999500D01*
X111749216Y-117040423D01*
X111749209Y-117040426D01*
X111612290Y-117119475D01*
X111612282Y-117119481D01*
X111500481Y-117231282D01*
X111500475Y-117231290D01*
X111421426Y-117368209D01*
X111421423Y-117368216D01*
X111380500Y-117520943D01*
X100300500Y-117520943D01*
X100300500Y-115738943D01*
X102814500Y-115738943D01*
X102814500Y-115897057D01*
X102848819Y-116025135D01*
X102855423Y-116049783D01*
X102855426Y-116049790D01*
X102934475Y-116186709D01*
X102934479Y-116186714D01*
X102934480Y-116186716D01*
X103046284Y-116298520D01*
X103046286Y-116298521D01*
X103046290Y-116298524D01*
X103183209Y-116377573D01*
X103183216Y-116377577D01*
X103335943Y-116418500D01*
X103335945Y-116418500D01*
X103494055Y-116418500D01*
X103494057Y-116418500D01*
X103646784Y-116377577D01*
X103783716Y-116298520D01*
X103895520Y-116186716D01*
X103974577Y-116049784D01*
X104015500Y-115897057D01*
X104015500Y-115738943D01*
X103974577Y-115586216D01*
X103957713Y-115557006D01*
X103955367Y-115552943D01*
X106139500Y-115552943D01*
X106139500Y-115711057D01*
X106171717Y-115831290D01*
X106180423Y-115863783D01*
X106180426Y-115863790D01*
X106259475Y-116000709D01*
X106259479Y-116000714D01*
X106259480Y-116000716D01*
X106371284Y-116112520D01*
X106371286Y-116112521D01*
X106371290Y-116112524D01*
X106499784Y-116186709D01*
X106508216Y-116191577D01*
X106660943Y-116232500D01*
X106660945Y-116232500D01*
X106819055Y-116232500D01*
X106819057Y-116232500D01*
X106971784Y-116191577D01*
X107094127Y-116120943D01*
X139599500Y-116120943D01*
X139599500Y-116279057D01*
X139636864Y-116418499D01*
X139640423Y-116431783D01*
X139640426Y-116431790D01*
X139719475Y-116568709D01*
X139719479Y-116568714D01*
X139719480Y-116568716D01*
X139831284Y-116680520D01*
X139831286Y-116680521D01*
X139831290Y-116680524D01*
X139968209Y-116759573D01*
X139968216Y-116759577D01*
X140120943Y-116800500D01*
X140120945Y-116800500D01*
X140279055Y-116800500D01*
X140279057Y-116800500D01*
X140431784Y-116759577D01*
X140568716Y-116680520D01*
X140680520Y-116568716D01*
X140759577Y-116431784D01*
X140800500Y-116279057D01*
X140800500Y-116120943D01*
X140759577Y-115968216D01*
X140714761Y-115890591D01*
X140680524Y-115831290D01*
X140680518Y-115831282D01*
X140568717Y-115719481D01*
X140568709Y-115719475D01*
X140431790Y-115640426D01*
X140431786Y-115640424D01*
X140431784Y-115640423D01*
X140279057Y-115599500D01*
X140120943Y-115599500D01*
X139968216Y-115640423D01*
X139968209Y-115640426D01*
X139831290Y-115719475D01*
X139831282Y-115719481D01*
X139719481Y-115831282D01*
X139719475Y-115831290D01*
X139640426Y-115968209D01*
X139640423Y-115968216D01*
X139599500Y-116120943D01*
X107094127Y-116120943D01*
X107108716Y-116112520D01*
X107220520Y-116000716D01*
X107299577Y-115863784D01*
X107340500Y-115711057D01*
X107340500Y-115552943D01*
X107299577Y-115400216D01*
X107299573Y-115400209D01*
X107220524Y-115263290D01*
X107220518Y-115263282D01*
X107108717Y-115151481D01*
X107108709Y-115151475D01*
X106971790Y-115072426D01*
X106971786Y-115072424D01*
X106971784Y-115072423D01*
X106819057Y-115031500D01*
X106660943Y-115031500D01*
X106508216Y-115072423D01*
X106508209Y-115072426D01*
X106371290Y-115151475D01*
X106371282Y-115151481D01*
X106259481Y-115263282D01*
X106259475Y-115263290D01*
X106180426Y-115400209D01*
X106180423Y-115400216D01*
X106139500Y-115552943D01*
X103955367Y-115552943D01*
X103895524Y-115449290D01*
X103895518Y-115449282D01*
X103783717Y-115337481D01*
X103783709Y-115337475D01*
X103646790Y-115258426D01*
X103646786Y-115258424D01*
X103646784Y-115258423D01*
X103494057Y-115217500D01*
X103335943Y-115217500D01*
X103183216Y-115258423D01*
X103183209Y-115258426D01*
X103046290Y-115337475D01*
X103046282Y-115337481D01*
X102934481Y-115449282D01*
X102934475Y-115449290D01*
X102855426Y-115586209D01*
X102855423Y-115586216D01*
X102814500Y-115738943D01*
X100300500Y-115738943D01*
X100300500Y-112270943D01*
X140599500Y-112270943D01*
X140599500Y-112429057D01*
X140632922Y-112553787D01*
X140640423Y-112581783D01*
X140640426Y-112581790D01*
X140719475Y-112718709D01*
X140719479Y-112718714D01*
X140719480Y-112718716D01*
X140831284Y-112830520D01*
X140831286Y-112830521D01*
X140831290Y-112830524D01*
X140946794Y-112897209D01*
X140968216Y-112909577D01*
X141120943Y-112950500D01*
X141120945Y-112950500D01*
X141279055Y-112950500D01*
X141279057Y-112950500D01*
X141431784Y-112909577D01*
X141568716Y-112830520D01*
X141680520Y-112718716D01*
X141759577Y-112581784D01*
X141800500Y-112429057D01*
X141800500Y-112270943D01*
X141759577Y-112118216D01*
X141759573Y-112118209D01*
X141680524Y-111981290D01*
X141680518Y-111981282D01*
X141568717Y-111869481D01*
X141568709Y-111869475D01*
X141431790Y-111790426D01*
X141431786Y-111790424D01*
X141431784Y-111790423D01*
X141279057Y-111749500D01*
X141120943Y-111749500D01*
X140968216Y-111790423D01*
X140968209Y-111790426D01*
X140831290Y-111869475D01*
X140831282Y-111869481D01*
X140719481Y-111981282D01*
X140719475Y-111981290D01*
X140640426Y-112118209D01*
X140640423Y-112118216D01*
X140599500Y-112270943D01*
X100300500Y-112270943D01*
X100300500Y-108433753D01*
X143110000Y-108433753D01*
X143110000Y-108646246D01*
X143143242Y-108856127D01*
X143143242Y-108856130D01*
X143208904Y-109058217D01*
X143305375Y-109247550D01*
X143344728Y-109301716D01*
X143977037Y-108669408D01*
X143994075Y-108732993D01*
X144059901Y-108847007D01*
X144152993Y-108940099D01*
X144267007Y-109005925D01*
X144330590Y-109022962D01*
X143698282Y-109655269D01*
X143698282Y-109655270D01*
X143752449Y-109694624D01*
X143941780Y-109791094D01*
X143970705Y-109800492D01*
X144028381Y-109839929D01*
X144055580Y-109904287D01*
X144043667Y-109973134D01*
X143996424Y-110024610D01*
X143988685Y-110028908D01*
X143857004Y-110096004D01*
X143710505Y-110202441D01*
X143710500Y-110202445D01*
X143582445Y-110330500D01*
X143582441Y-110330505D01*
X143476006Y-110477002D01*
X143393788Y-110638360D01*
X143393787Y-110638363D01*
X143337829Y-110810589D01*
X143309500Y-110989448D01*
X143309500Y-111170551D01*
X143337829Y-111349410D01*
X143393787Y-111521636D01*
X143393788Y-111521639D01*
X143476006Y-111682997D01*
X143582441Y-111829494D01*
X143582445Y-111829499D01*
X143710500Y-111957554D01*
X143710505Y-111957558D01*
X143743170Y-111981290D01*
X143857006Y-112063996D01*
X143962484Y-112117740D01*
X144018360Y-112146211D01*
X144018363Y-112146212D01*
X144104476Y-112174191D01*
X144190591Y-112202171D01*
X144263639Y-112213740D01*
X144350678Y-112227527D01*
X144413813Y-112257456D01*
X144450744Y-112316768D01*
X144449746Y-112386631D01*
X144411136Y-112444863D01*
X144350678Y-112472473D01*
X144190589Y-112497829D01*
X144018363Y-112553787D01*
X144018360Y-112553788D01*
X143857002Y-112636006D01*
X143710505Y-112742441D01*
X143710500Y-112742445D01*
X143582445Y-112870500D01*
X143582441Y-112870505D01*
X143476006Y-113017002D01*
X143393788Y-113178360D01*
X143393787Y-113178363D01*
X143337829Y-113350589D01*
X143309500Y-113529448D01*
X143309500Y-113710551D01*
X143337829Y-113889410D01*
X143393787Y-114061636D01*
X143393788Y-114061639D01*
X143476006Y-114222997D01*
X143582441Y-114369494D01*
X143582445Y-114369499D01*
X143710500Y-114497554D01*
X143710505Y-114497558D01*
X143838287Y-114590396D01*
X143857006Y-114603996D01*
X143962484Y-114657740D01*
X144018360Y-114686211D01*
X144018363Y-114686212D01*
X144104476Y-114714191D01*
X144190591Y-114742171D01*
X144263639Y-114753740D01*
X144350678Y-114767527D01*
X144413813Y-114797456D01*
X144450744Y-114856768D01*
X144449746Y-114926631D01*
X144411136Y-114984863D01*
X144350678Y-115012473D01*
X144190589Y-115037829D01*
X144018363Y-115093787D01*
X144018360Y-115093788D01*
X143857002Y-115176006D01*
X143710505Y-115282441D01*
X143710500Y-115282445D01*
X143582445Y-115410500D01*
X143582441Y-115410505D01*
X143476006Y-115557002D01*
X143393788Y-115718360D01*
X143393787Y-115718363D01*
X143337829Y-115890589D01*
X143309500Y-116069448D01*
X143309500Y-116250551D01*
X143337829Y-116429410D01*
X143393787Y-116601636D01*
X143393788Y-116601639D01*
X143433980Y-116680518D01*
X143474262Y-116759576D01*
X143476006Y-116762997D01*
X143582441Y-116909494D01*
X143582445Y-116909499D01*
X143710500Y-117037554D01*
X143710505Y-117037558D01*
X143823262Y-117119480D01*
X143857006Y-117143996D01*
X143962484Y-117197740D01*
X144018360Y-117226211D01*
X144018363Y-117226212D01*
X144104476Y-117254191D01*
X144190591Y-117282171D01*
X144263639Y-117293740D01*
X144350678Y-117307527D01*
X144413813Y-117337456D01*
X144450744Y-117396768D01*
X144449746Y-117466631D01*
X144411136Y-117524863D01*
X144350678Y-117552473D01*
X144190589Y-117577829D01*
X144018363Y-117633787D01*
X144018360Y-117633788D01*
X143857002Y-117716006D01*
X143710505Y-117822441D01*
X143710500Y-117822445D01*
X143582445Y-117950500D01*
X143582441Y-117950505D01*
X143476006Y-118097002D01*
X143393788Y-118258360D01*
X143393787Y-118258363D01*
X143337829Y-118430589D01*
X143309500Y-118609448D01*
X143309500Y-118790551D01*
X143337829Y-118969410D01*
X143393787Y-119141636D01*
X143393788Y-119141639D01*
X143476006Y-119302997D01*
X143582441Y-119449494D01*
X143582445Y-119449499D01*
X143710500Y-119577554D01*
X143710505Y-119577558D01*
X143838287Y-119670396D01*
X143857006Y-119683996D01*
X143962484Y-119737740D01*
X144018360Y-119766211D01*
X144018363Y-119766212D01*
X144104476Y-119794191D01*
X144190591Y-119822171D01*
X144263639Y-119833740D01*
X144350678Y-119847527D01*
X144413813Y-119877456D01*
X144450744Y-119936768D01*
X144449746Y-120006631D01*
X144411136Y-120064863D01*
X144350678Y-120092473D01*
X144190589Y-120117829D01*
X144018363Y-120173787D01*
X144018360Y-120173788D01*
X143857002Y-120256006D01*
X143710505Y-120362441D01*
X143710500Y-120362445D01*
X143582445Y-120490500D01*
X143582441Y-120490505D01*
X143476006Y-120637002D01*
X143393788Y-120798360D01*
X143393787Y-120798363D01*
X143337829Y-120970589D01*
X143309500Y-121149448D01*
X143309500Y-121330551D01*
X143337829Y-121509410D01*
X143393787Y-121681636D01*
X143393788Y-121681639D01*
X143476006Y-121842997D01*
X143582441Y-121989494D01*
X143582445Y-121989499D01*
X143710500Y-122117554D01*
X143710505Y-122117558D01*
X143838287Y-122210396D01*
X143857006Y-122223996D01*
X143958780Y-122275853D01*
X143988684Y-122291090D01*
X144039480Y-122339065D01*
X144056275Y-122406886D01*
X144033737Y-122473021D01*
X143979022Y-122516472D01*
X143970708Y-122519506D01*
X143941781Y-122528905D01*
X143752439Y-122625380D01*
X143698282Y-122664727D01*
X143698282Y-122664728D01*
X144330591Y-123297037D01*
X144267007Y-123314075D01*
X144152993Y-123379901D01*
X144059901Y-123472993D01*
X143994075Y-123587007D01*
X143977037Y-123650591D01*
X143344728Y-123018282D01*
X143344727Y-123018282D01*
X143305380Y-123072439D01*
X143208904Y-123261782D01*
X143143242Y-123463869D01*
X143143242Y-123463872D01*
X143110000Y-123673753D01*
X143110000Y-123886246D01*
X143143242Y-124096127D01*
X143143242Y-124096130D01*
X143208904Y-124298217D01*
X143305375Y-124487550D01*
X143344728Y-124541716D01*
X143977037Y-123909408D01*
X143994075Y-123972993D01*
X144059901Y-124087007D01*
X144152993Y-124180099D01*
X144267007Y-124245925D01*
X144330590Y-124262962D01*
X143698282Y-124895269D01*
X143698282Y-124895270D01*
X143752449Y-124934624D01*
X143941782Y-125031095D01*
X144143870Y-125096757D01*
X144353754Y-125130000D01*
X144566246Y-125130000D01*
X144776127Y-125096757D01*
X144776130Y-125096757D01*
X144978217Y-125031095D01*
X145167554Y-124934622D01*
X145221716Y-124895270D01*
X145221717Y-124895270D01*
X144589408Y-124262962D01*
X144652993Y-124245925D01*
X144767007Y-124180099D01*
X144860099Y-124087007D01*
X144925925Y-123972993D01*
X144942962Y-123909409D01*
X145575270Y-124541717D01*
X145575270Y-124541716D01*
X145614622Y-124487554D01*
X145711095Y-124298217D01*
X145720492Y-124269295D01*
X145759928Y-124211618D01*
X145824286Y-124184419D01*
X145893133Y-124196331D01*
X145944610Y-124243574D01*
X145948908Y-124251314D01*
X146016004Y-124382995D01*
X146122441Y-124529494D01*
X146122445Y-124529499D01*
X146250500Y-124657554D01*
X146250505Y-124657558D01*
X146378287Y-124750396D01*
X146397006Y-124763996D01*
X146478034Y-124805282D01*
X146558360Y-124846211D01*
X146558363Y-124846212D01*
X146644476Y-124874191D01*
X146730591Y-124902171D01*
X146813429Y-124915291D01*
X146909449Y-124930500D01*
X146909454Y-124930500D01*
X147090551Y-124930500D01*
X147177259Y-124916765D01*
X147269409Y-124902171D01*
X147441639Y-124846211D01*
X147563846Y-124783943D01*
X159041500Y-124783943D01*
X159041500Y-124942057D01*
X159067271Y-125038233D01*
X159082423Y-125094783D01*
X159082426Y-125094790D01*
X159161475Y-125231709D01*
X159161479Y-125231714D01*
X159161480Y-125231716D01*
X159273284Y-125343520D01*
X159273286Y-125343521D01*
X159273290Y-125343524D01*
X159381129Y-125405784D01*
X159410216Y-125422577D01*
X159562943Y-125463500D01*
X159562945Y-125463500D01*
X159721055Y-125463500D01*
X159721057Y-125463500D01*
X159873784Y-125422577D01*
X160010716Y-125343520D01*
X160122520Y-125231716D01*
X160201577Y-125094784D01*
X160242500Y-124942057D01*
X160242500Y-124783943D01*
X160201577Y-124631216D01*
X160178195Y-124590716D01*
X160122524Y-124494290D01*
X160122518Y-124494282D01*
X160010717Y-124382481D01*
X160010709Y-124382475D01*
X159873790Y-124303426D01*
X159873786Y-124303424D01*
X159873784Y-124303423D01*
X159721057Y-124262500D01*
X159562943Y-124262500D01*
X159410216Y-124303423D01*
X159410209Y-124303426D01*
X159273290Y-124382475D01*
X159273282Y-124382481D01*
X159161481Y-124494282D01*
X159161475Y-124494290D01*
X159082426Y-124631209D01*
X159082423Y-124631216D01*
X159041500Y-124783943D01*
X147563846Y-124783943D01*
X147602994Y-124763996D01*
X147659502Y-124722940D01*
X147724803Y-124675498D01*
X147749494Y-124657558D01*
X147749492Y-124657558D01*
X147749501Y-124657553D01*
X147877553Y-124529501D01*
X147983996Y-124382994D01*
X148066211Y-124221639D01*
X148079708Y-124180099D01*
X148091781Y-124142943D01*
X161896500Y-124142943D01*
X161896500Y-124301057D01*
X161918854Y-124384481D01*
X161937423Y-124453783D01*
X161937426Y-124453790D01*
X162016475Y-124590709D01*
X162016479Y-124590714D01*
X162016480Y-124590716D01*
X162128284Y-124702520D01*
X162128286Y-124702521D01*
X162128290Y-124702524D01*
X162265209Y-124781573D01*
X162265216Y-124781577D01*
X162355594Y-124805793D01*
X162415254Y-124842158D01*
X162445783Y-124905005D01*
X162447500Y-124925568D01*
X162447500Y-124944057D01*
X162487931Y-125094945D01*
X162488423Y-125096783D01*
X162488426Y-125096790D01*
X162567475Y-125233709D01*
X162567479Y-125233714D01*
X162567480Y-125233716D01*
X162679284Y-125345520D01*
X162679286Y-125345521D01*
X162679290Y-125345524D01*
X162812745Y-125422573D01*
X162816216Y-125424577D01*
X162968943Y-125465500D01*
X162968945Y-125465500D01*
X163127053Y-125465500D01*
X163127057Y-125465500D01*
X163140342Y-125461940D01*
X163210187Y-125463600D01*
X163268051Y-125502761D01*
X163295557Y-125566988D01*
X163295428Y-125588816D01*
X163295500Y-125588816D01*
X163295500Y-125596943D01*
X163295500Y-125755057D01*
X163312227Y-125817481D01*
X163336423Y-125907783D01*
X163336426Y-125907790D01*
X163415475Y-126044709D01*
X163415479Y-126044714D01*
X163415480Y-126044716D01*
X163527284Y-126156520D01*
X163527286Y-126156521D01*
X163527290Y-126156524D01*
X163605059Y-126201423D01*
X163664216Y-126235577D01*
X163816943Y-126276500D01*
X163816945Y-126276500D01*
X163975055Y-126276500D01*
X163975057Y-126276500D01*
X164127784Y-126235577D01*
X164264716Y-126156520D01*
X164376520Y-126044716D01*
X164455577Y-125907784D01*
X164496500Y-125755057D01*
X164496500Y-125596943D01*
X164455577Y-125444216D01*
X164433392Y-125405790D01*
X164376524Y-125307290D01*
X164376518Y-125307282D01*
X164264717Y-125195481D01*
X164264709Y-125195475D01*
X164127790Y-125116426D01*
X164127786Y-125116424D01*
X164127784Y-125116423D01*
X163975057Y-125075500D01*
X163816943Y-125075500D01*
X163816941Y-125075500D01*
X163803656Y-125079060D01*
X163733806Y-125077396D01*
X163675944Y-125038233D01*
X163648441Y-124974004D01*
X163648572Y-124952184D01*
X163648500Y-124952184D01*
X163648500Y-124785945D01*
X163648500Y-124785943D01*
X163607577Y-124633216D01*
X163596727Y-124614423D01*
X163528524Y-124496290D01*
X163528518Y-124496282D01*
X163416717Y-124384481D01*
X163416709Y-124384475D01*
X163279790Y-124305426D01*
X163279786Y-124305424D01*
X163279785Y-124305423D01*
X163279784Y-124305423D01*
X163189405Y-124281206D01*
X163129745Y-124244840D01*
X163099217Y-124181993D01*
X163097500Y-124161431D01*
X163097500Y-124142945D01*
X163097500Y-124142943D01*
X163056577Y-123990216D01*
X163022111Y-123930518D01*
X162977524Y-123853290D01*
X162977518Y-123853282D01*
X162865717Y-123741481D01*
X162865709Y-123741475D01*
X162728790Y-123662426D01*
X162728786Y-123662424D01*
X162728784Y-123662423D01*
X162576057Y-123621500D01*
X162417943Y-123621500D01*
X162265216Y-123662423D01*
X162265209Y-123662426D01*
X162128290Y-123741475D01*
X162128282Y-123741481D01*
X162016481Y-123853282D01*
X162016475Y-123853290D01*
X161937426Y-123990209D01*
X161937423Y-123990216D01*
X161896500Y-124142943D01*
X148091781Y-124142943D01*
X148106871Y-124096499D01*
X148106871Y-124096498D01*
X148122171Y-124049409D01*
X148150500Y-123870551D01*
X148150500Y-123689448D01*
X148134019Y-123585397D01*
X148122171Y-123510591D01*
X148076798Y-123370945D01*
X148066212Y-123338363D01*
X148066211Y-123338360D01*
X148027191Y-123261780D01*
X147983996Y-123177006D01*
X147914455Y-123081290D01*
X147877558Y-123030505D01*
X147877554Y-123030500D01*
X147749499Y-122902445D01*
X147749494Y-122902441D01*
X147602997Y-122796006D01*
X147602996Y-122796005D01*
X147602994Y-122796004D01*
X147551300Y-122769664D01*
X147441639Y-122713788D01*
X147441636Y-122713787D01*
X147269410Y-122657829D01*
X147109321Y-122632473D01*
X147046186Y-122602544D01*
X147009255Y-122543232D01*
X147010253Y-122473370D01*
X147048863Y-122415137D01*
X147109321Y-122387527D01*
X147179425Y-122376422D01*
X147269409Y-122362171D01*
X147441639Y-122306211D01*
X147602994Y-122223996D01*
X147749501Y-122117553D01*
X147877553Y-121989501D01*
X147983996Y-121842994D01*
X148066211Y-121681639D01*
X148122171Y-121509409D01*
X148136765Y-121417259D01*
X148150500Y-121330551D01*
X148150500Y-121149448D01*
X148134019Y-121045397D01*
X148122171Y-120970591D01*
X148066211Y-120798361D01*
X148066211Y-120798360D01*
X148037740Y-120742484D01*
X147983996Y-120637006D01*
X147970396Y-120618287D01*
X147877558Y-120490505D01*
X147877554Y-120490500D01*
X147749499Y-120362445D01*
X147749494Y-120362441D01*
X147602997Y-120256006D01*
X147602996Y-120256005D01*
X147602994Y-120256004D01*
X147551300Y-120229664D01*
X147441639Y-120173788D01*
X147441636Y-120173787D01*
X147269410Y-120117829D01*
X147109321Y-120092473D01*
X147046186Y-120062544D01*
X147009255Y-120003232D01*
X147010253Y-119933370D01*
X147048863Y-119875137D01*
X147109321Y-119847527D01*
X147179425Y-119836422D01*
X147269409Y-119822171D01*
X147441639Y-119766211D01*
X147602994Y-119683996D01*
X147749501Y-119577553D01*
X147877553Y-119449501D01*
X147983996Y-119302994D01*
X148066211Y-119141639D01*
X148122171Y-118969409D01*
X148141163Y-118849500D01*
X148150500Y-118790551D01*
X148150500Y-118609448D01*
X148134019Y-118505397D01*
X148122171Y-118430591D01*
X148066211Y-118258361D01*
X148066211Y-118258360D01*
X148036729Y-118200499D01*
X147983996Y-118097006D01*
X147970396Y-118078287D01*
X147877558Y-117950505D01*
X147877554Y-117950500D01*
X147749499Y-117822445D01*
X147749494Y-117822441D01*
X147602997Y-117716006D01*
X147602996Y-117716005D01*
X147602994Y-117716004D01*
X147530478Y-117679055D01*
X147441639Y-117633788D01*
X147441636Y-117633787D01*
X147269410Y-117577829D01*
X147109321Y-117552473D01*
X147046186Y-117522544D01*
X147009255Y-117463232D01*
X147010253Y-117393370D01*
X147048863Y-117335137D01*
X147109321Y-117307527D01*
X147179425Y-117296422D01*
X147269409Y-117282171D01*
X147441639Y-117226211D01*
X147602994Y-117143996D01*
X147749501Y-117037553D01*
X147877553Y-116909501D01*
X147983996Y-116762994D01*
X148066211Y-116601639D01*
X148122171Y-116429409D01*
X148142902Y-116298518D01*
X148150500Y-116250551D01*
X148150500Y-116069448D01*
X148134019Y-115965397D01*
X148122171Y-115890591D01*
X148072899Y-115738945D01*
X148066212Y-115718363D01*
X148066211Y-115718360D01*
X148026499Y-115640423D01*
X147983996Y-115557006D01*
X147970396Y-115538287D01*
X147877558Y-115410505D01*
X147877554Y-115410500D01*
X147749499Y-115282445D01*
X147749494Y-115282441D01*
X147602997Y-115176006D01*
X147602996Y-115176005D01*
X147602994Y-115176004D01*
X147551300Y-115149664D01*
X147441639Y-115093788D01*
X147441636Y-115093787D01*
X147269410Y-115037829D01*
X147109321Y-115012473D01*
X147046186Y-114982544D01*
X147009255Y-114923232D01*
X147010253Y-114853370D01*
X147048863Y-114795137D01*
X147109321Y-114767527D01*
X147179425Y-114756422D01*
X147269409Y-114742171D01*
X147441639Y-114686211D01*
X147602994Y-114603996D01*
X147749501Y-114497553D01*
X147877553Y-114369501D01*
X147983996Y-114222994D01*
X148066211Y-114061639D01*
X148122171Y-113889409D01*
X148136765Y-113797259D01*
X148150500Y-113710551D01*
X148150500Y-113529448D01*
X148123785Y-113360783D01*
X148122171Y-113350591D01*
X148075860Y-113208057D01*
X148066212Y-113178363D01*
X148066209Y-113178355D01*
X148025322Y-113098112D01*
X148025321Y-113098111D01*
X148000778Y-113049943D01*
X154729500Y-113049943D01*
X154729500Y-113208057D01*
X154767692Y-113350589D01*
X154770423Y-113360783D01*
X154770426Y-113360790D01*
X154849475Y-113497709D01*
X154849479Y-113497714D01*
X154849480Y-113497716D01*
X154961284Y-113609520D01*
X154961286Y-113609521D01*
X154961290Y-113609524D01*
X155059433Y-113666186D01*
X155098216Y-113688577D01*
X155250943Y-113729500D01*
X155250945Y-113729500D01*
X155409055Y-113729500D01*
X155409057Y-113729500D01*
X155561784Y-113688577D01*
X155698716Y-113609520D01*
X155810520Y-113497716D01*
X155889577Y-113360784D01*
X155930500Y-113208057D01*
X155930500Y-113049943D01*
X155889577Y-112897216D01*
X155851073Y-112830524D01*
X155810524Y-112760290D01*
X155810518Y-112760282D01*
X155698717Y-112648481D01*
X155698709Y-112648475D01*
X155561790Y-112569426D01*
X155561786Y-112569424D01*
X155561784Y-112569423D01*
X155409057Y-112528500D01*
X155250943Y-112528500D01*
X155098216Y-112569423D01*
X155098209Y-112569426D01*
X154961290Y-112648475D01*
X154961282Y-112648481D01*
X154849481Y-112760282D01*
X154849475Y-112760290D01*
X154770426Y-112897209D01*
X154770423Y-112897216D01*
X154729500Y-113049943D01*
X148000778Y-113049943D01*
X147983996Y-113017006D01*
X147896959Y-112897209D01*
X147877558Y-112870505D01*
X147877554Y-112870500D01*
X147749499Y-112742445D01*
X147749494Y-112742441D01*
X147602997Y-112636006D01*
X147602996Y-112636005D01*
X147602994Y-112636004D01*
X147551300Y-112609664D01*
X147441639Y-112553788D01*
X147441636Y-112553787D01*
X147269410Y-112497829D01*
X147109321Y-112472473D01*
X147046186Y-112442544D01*
X147009255Y-112383232D01*
X147010253Y-112313370D01*
X147048863Y-112255137D01*
X147109321Y-112227527D01*
X147179425Y-112216422D01*
X147269409Y-112202171D01*
X147441639Y-112146211D01*
X147602994Y-112063996D01*
X147749501Y-111957553D01*
X147877553Y-111829501D01*
X147983996Y-111682994D01*
X148066211Y-111521639D01*
X148122171Y-111349409D01*
X148136765Y-111257259D01*
X148150500Y-111170551D01*
X148150500Y-110989448D01*
X148134019Y-110885397D01*
X148122171Y-110810591D01*
X148066211Y-110638361D01*
X148066211Y-110638360D01*
X148037740Y-110582484D01*
X147983996Y-110477006D01*
X147970396Y-110458287D01*
X147877558Y-110330505D01*
X147877554Y-110330500D01*
X147749499Y-110202445D01*
X147749494Y-110202441D01*
X147691000Y-110159943D01*
X149022500Y-110159943D01*
X149022500Y-110318057D01*
X149025836Y-110330505D01*
X149063423Y-110470783D01*
X149063426Y-110470790D01*
X149142475Y-110607709D01*
X149142479Y-110607714D01*
X149142480Y-110607716D01*
X149254284Y-110719520D01*
X149254286Y-110719521D01*
X149254290Y-110719524D01*
X149391209Y-110798573D01*
X149391216Y-110798577D01*
X149543943Y-110839500D01*
X149543945Y-110839500D01*
X149702055Y-110839500D01*
X149702057Y-110839500D01*
X149854784Y-110798577D01*
X149991716Y-110719520D01*
X150103520Y-110607716D01*
X150182577Y-110470784D01*
X150223500Y-110318057D01*
X150223500Y-110159943D01*
X150182577Y-110007216D01*
X150128247Y-109913113D01*
X150103524Y-109870290D01*
X150103518Y-109870282D01*
X149991717Y-109758481D01*
X149991709Y-109758475D01*
X149854790Y-109679426D01*
X149854786Y-109679424D01*
X149854784Y-109679423D01*
X149702057Y-109638500D01*
X149543943Y-109638500D01*
X149391216Y-109679423D01*
X149391209Y-109679426D01*
X149254290Y-109758475D01*
X149254282Y-109758481D01*
X149142481Y-109870282D01*
X149142475Y-109870290D01*
X149063426Y-110007209D01*
X149063423Y-110007216D01*
X149022500Y-110159943D01*
X147691000Y-110159943D01*
X147602995Y-110096004D01*
X147471314Y-110028908D01*
X147420519Y-109980934D01*
X147403724Y-109913113D01*
X147426262Y-109846978D01*
X147480977Y-109803527D01*
X147489295Y-109800492D01*
X147518217Y-109791095D01*
X147707554Y-109694622D01*
X147761716Y-109655270D01*
X147761717Y-109655270D01*
X147129408Y-109022962D01*
X147192993Y-109005925D01*
X147307007Y-108940099D01*
X147400099Y-108847007D01*
X147465925Y-108732993D01*
X147482962Y-108669408D01*
X148115270Y-109301717D01*
X148115270Y-109301716D01*
X148154622Y-109247554D01*
X148251095Y-109058217D01*
X148316757Y-108856130D01*
X148316757Y-108856127D01*
X148350000Y-108646246D01*
X148350000Y-108433753D01*
X148316757Y-108223872D01*
X148316757Y-108223869D01*
X148251095Y-108021782D01*
X148154624Y-107832449D01*
X148115270Y-107778282D01*
X148115269Y-107778282D01*
X147482962Y-108410590D01*
X147465925Y-108347007D01*
X147400099Y-108232993D01*
X147307007Y-108139901D01*
X147192993Y-108074075D01*
X147129409Y-108057037D01*
X147761716Y-107424728D01*
X147707550Y-107385375D01*
X147706786Y-107384986D01*
X147706546Y-107384759D01*
X147703396Y-107382829D01*
X147703801Y-107382167D01*
X147655988Y-107337013D01*
X147639191Y-107269192D01*
X147661726Y-107203057D01*
X147716440Y-107159604D01*
X147763076Y-107150499D01*
X147894864Y-107150499D01*
X147894879Y-107150497D01*
X147894882Y-107150497D01*
X147919987Y-107147586D01*
X147919988Y-107147585D01*
X147919991Y-107147585D01*
X148022765Y-107102206D01*
X148102206Y-107022765D01*
X148147585Y-106919991D01*
X148150500Y-106894865D01*
X148150499Y-105105136D01*
X148150497Y-105105117D01*
X148147586Y-105080012D01*
X148147585Y-105080010D01*
X148147585Y-105080009D01*
X148102206Y-104977235D01*
X148022765Y-104897794D01*
X148022763Y-104897793D01*
X147919992Y-104852415D01*
X147894865Y-104849500D01*
X146105143Y-104849500D01*
X146105117Y-104849502D01*
X146080012Y-104852413D01*
X146080008Y-104852415D01*
X145977235Y-104897793D01*
X145897794Y-104977234D01*
X145852415Y-105080006D01*
X145852415Y-105080008D01*
X145849500Y-105105131D01*
X145849500Y-105842871D01*
X145829815Y-105909910D01*
X145777011Y-105955665D01*
X145707853Y-105965609D01*
X145644297Y-105936584D01*
X145606523Y-105877806D01*
X145603027Y-105862269D01*
X145596107Y-105818585D01*
X145582171Y-105730591D01*
X145526211Y-105558361D01*
X145526211Y-105558360D01*
X145497740Y-105502484D01*
X145443996Y-105397006D01*
X145373881Y-105300500D01*
X145337558Y-105250505D01*
X145337554Y-105250500D01*
X145209499Y-105122445D01*
X145209494Y-105122441D01*
X145062997Y-105016006D01*
X145062996Y-105016005D01*
X145062994Y-105016004D01*
X144986906Y-104977235D01*
X144901639Y-104933788D01*
X144901636Y-104933787D01*
X144729410Y-104877829D01*
X144550551Y-104849500D01*
X144550546Y-104849500D01*
X144369454Y-104849500D01*
X144369449Y-104849500D01*
X144190589Y-104877829D01*
X144018363Y-104933787D01*
X144018360Y-104933788D01*
X143857002Y-105016006D01*
X143710505Y-105122441D01*
X143710500Y-105122445D01*
X143582445Y-105250500D01*
X143582441Y-105250505D01*
X143476006Y-105397002D01*
X143393788Y-105558360D01*
X143393787Y-105558363D01*
X143337829Y-105730589D01*
X143309500Y-105909448D01*
X143309500Y-106090551D01*
X143337829Y-106269410D01*
X143393787Y-106441636D01*
X143393788Y-106441639D01*
X143476006Y-106602997D01*
X143582441Y-106749494D01*
X143582445Y-106749499D01*
X143710500Y-106877554D01*
X143710505Y-106877558D01*
X143838287Y-106970396D01*
X143857006Y-106983996D01*
X143933092Y-107022764D01*
X143988684Y-107051090D01*
X144039480Y-107099065D01*
X144056275Y-107166886D01*
X144033737Y-107233021D01*
X143979022Y-107276472D01*
X143970708Y-107279506D01*
X143941781Y-107288905D01*
X143752439Y-107385380D01*
X143698282Y-107424727D01*
X143698282Y-107424728D01*
X144330591Y-108057037D01*
X144267007Y-108074075D01*
X144152993Y-108139901D01*
X144059901Y-108232993D01*
X143994075Y-108347007D01*
X143977037Y-108410591D01*
X143344728Y-107778282D01*
X143344727Y-107778282D01*
X143305380Y-107832439D01*
X143208904Y-108021782D01*
X143143242Y-108223869D01*
X143143242Y-108223872D01*
X143110000Y-108433753D01*
X100300500Y-108433753D01*
X100300500Y-103381995D01*
X101699500Y-103381995D01*
X101699500Y-103618004D01*
X101699501Y-103618020D01*
X101730306Y-103852010D01*
X101791394Y-104079993D01*
X101881714Y-104298045D01*
X101881719Y-104298056D01*
X101952677Y-104420957D01*
X101999727Y-104502450D01*
X101999729Y-104502453D01*
X101999730Y-104502454D01*
X102143406Y-104689697D01*
X102143412Y-104689704D01*
X102310295Y-104856587D01*
X102310302Y-104856593D01*
X102410904Y-104933787D01*
X102497550Y-105000273D01*
X102628918Y-105076118D01*
X102701943Y-105118280D01*
X102701948Y-105118282D01*
X102701951Y-105118284D01*
X102920007Y-105208606D01*
X103147986Y-105269693D01*
X103381989Y-105300500D01*
X103381996Y-105300500D01*
X103618004Y-105300500D01*
X103618011Y-105300500D01*
X103852014Y-105269693D01*
X104079993Y-105208606D01*
X104298049Y-105118284D01*
X104502450Y-105000273D01*
X104689699Y-104856592D01*
X104856592Y-104689699D01*
X105000273Y-104502450D01*
X105118284Y-104298049D01*
X105208606Y-104079993D01*
X105269693Y-103852014D01*
X105300500Y-103618011D01*
X105300500Y-103381989D01*
X105269693Y-103147986D01*
X105208606Y-102920007D01*
X105118284Y-102701951D01*
X105118282Y-102701948D01*
X105118280Y-102701943D01*
X105076118Y-102628918D01*
X105000273Y-102497550D01*
X104856592Y-102310301D01*
X104856587Y-102310295D01*
X104689704Y-102143412D01*
X104689697Y-102143406D01*
X104502454Y-101999730D01*
X104502453Y-101999729D01*
X104502450Y-101999727D01*
X104420957Y-101952677D01*
X104298056Y-101881719D01*
X104298045Y-101881714D01*
X104079993Y-101791394D01*
X103955873Y-101758136D01*
X103852014Y-101730307D01*
X103852013Y-101730306D01*
X103852010Y-101730306D01*
X103618020Y-101699501D01*
X103618017Y-101699500D01*
X103618011Y-101699500D01*
X103381989Y-101699500D01*
X103381983Y-101699500D01*
X103381979Y-101699501D01*
X103147989Y-101730306D01*
X102920006Y-101791394D01*
X102701954Y-101881714D01*
X102701943Y-101881719D01*
X102497545Y-101999730D01*
X102310302Y-102143406D01*
X102310295Y-102143412D01*
X102143412Y-102310295D01*
X102143406Y-102310302D01*
X101999730Y-102497545D01*
X101881719Y-102701943D01*
X101881714Y-102701954D01*
X101791394Y-102920006D01*
X101730306Y-103147989D01*
X101699501Y-103381979D01*
X101699500Y-103381995D01*
X100300500Y-103381995D01*
X100300500Y-102004427D01*
X100300816Y-101995581D01*
X100308959Y-101881719D01*
X100317165Y-101766973D01*
X100319681Y-101749476D01*
X100367457Y-101529852D01*
X100372434Y-101512901D01*
X100450986Y-101302295D01*
X100458325Y-101286226D01*
X100566043Y-101088955D01*
X100575599Y-101074086D01*
X100710293Y-100894156D01*
X100721867Y-100880799D01*
X100880799Y-100721867D01*
X100894156Y-100710293D01*
X101074086Y-100575599D01*
X101088955Y-100566043D01*
X101286226Y-100458325D01*
X101302295Y-100450986D01*
X101512901Y-100372434D01*
X101529852Y-100367457D01*
X101749476Y-100319681D01*
X101766973Y-100317165D01*
X101995582Y-100300816D01*
X102004428Y-100300500D01*
X102047594Y-100300500D01*
X172376000Y-100300500D01*
X172443039Y-100320185D01*
G37*
%TD.AperFunction*%
%TD*%
M02*
