M48
; DRILL file {KiCad 9.0.9} date 2026-10-06T22:32:16+0000
; FORMAT={-:-/ absolute / metric / decimal}
; #@! TF.CreationDate,2026-10-06T22:32:16+00:00
; #@! TF.GenerationSoftware,Kicad,Pcbnew,9.0.9
; #@! TF.FileFunction,Plated,1,4,PTH
FMAT,2
METRIC
; #@! TA.AperFunction,Plated,PTH,ViaDrill
T1C0.300
; #@! TA.AperFunction,Plated,PTH,ViaDrill
T2C0.400
; #@! TA.AperFunction,Plated,PTH,ComponentDrill
T3C1.000
; #@! TA.AperFunction,Plated,PTH,ComponentDrill
T4C1.700
; #@! TA.AperFunction,Plated,PTH,ComponentDrill
T5C1.780
%
G90
G05
T1
X100.751Y-110.4
X100.751Y-113.875
X100.751Y-127.368
X101.554Y-116.474
X102.0Y-107.0
X103.364Y-128.303
X104.339Y-136.5
X104.393Y-127.762
X104.422Y-123.852
X104.5Y-121.378
X104.5Y-133.916
X106.203Y-122.552
X106.653Y-115.751
X106.746Y-150.007
X107.0Y-142.0
X107.0Y-147.0
X107.053Y-136.6
X107.219Y-134.686
X107.6Y-119.45
X107.6Y-131.95
X111.919Y-112.613
X111.944Y-130.1
X111.981Y-117.6
X113.8Y-105.194
X115.35Y-121.326
X115.611Y-124.692
X117.0Y-107.0
X119.2Y-123.45
X119.2Y-130.9
X122.0Y-107.0
X122.0Y-117.0
X123.055Y-112.65
X123.208Y-121.218
X126.759Y-125.41
X127.0Y-107.0
X127.0Y-117.0
X132.0Y-107.0
X132.0Y-112.0
X132.0Y-117.0
X132.0Y-132.0
X136.125Y-117.988
X137.0Y-107.0
X137.0Y-112.0
X140.2Y-116.2
X141.2Y-112.35
X141.806Y-129.375
X142.85Y-128.0
X147.0Y-102.0
X148.379Y-109.815
X149.17Y-128.619
X149.253Y-125.509
X152.0Y-102.0
X152.591Y-108.032
X152.602Y-111.695
X153.261Y-129.466
X153.286Y-112.791
X154.152Y-125.47
X156.991Y-122.605
X157.0Y-102.0
X157.922Y-121.085
X157.96Y-118.525
X159.238Y-126.761
X159.642Y-124.863
X160.17Y-129.057
X161.351Y-145.21
X161.37Y-129.335
X162.0Y-102.0
X162.0Y-107.0
X162.0Y-112.0
X162.285Y-150.907
X162.579Y-122.125
X163.058Y-126.49
X163.39Y-124.865
X166.347Y-128.779
X167.0Y-102.0
X167.0Y-107.0
X167.0Y-112.0
X167.0Y-117.0
X167.0Y-147.0
X172.0Y-102.0
X172.0Y-107.0
X172.0Y-112.0
X172.0Y-117.0
X172.0Y-122.0
X172.0Y-127.0
X172.0Y-132.0
X172.0Y-147.0
X174.551Y-138.0
X177.0Y-132.0
X177.0Y-147.0
X182.0Y-132.0
X182.0Y-137.0
X182.0Y-142.0
X182.0Y-147.0
T2
X126.9Y-133.8
X126.9Y-136.6
X127.4Y-141.0
X138.4Y-132.7
X138.4Y-133.6
X139.4Y-132.7
X139.4Y-133.6
X140.4Y-132.7
X140.4Y-133.6
X141.2Y-132.7
X141.2Y-133.6
X145.6Y-132.9
X145.6Y-134.0
X146.8Y-132.9
X146.8Y-134.0
X148.0Y-132.9
X148.0Y-134.0
X152.6Y-132.9
X152.6Y-134.0
X153.8Y-132.9
X153.8Y-134.0
X155.0Y-132.9
X155.0Y-134.0
X159.6Y-132.9
X159.6Y-134.0
X160.8Y-132.9
X160.8Y-134.0
X162.0Y-132.9
X162.0Y-134.0
X166.6Y-132.9
X166.6Y-134.0
X167.8Y-132.9
X167.8Y-134.0
X169.0Y-132.9
X169.0Y-134.0
T3
X103.0Y-151.0
X105.5Y-151.0
X111.6Y-151.0
X114.1Y-151.0
X144.46Y-106.0
X144.46Y-108.54
X144.46Y-111.08
X144.46Y-113.62
X144.46Y-116.16
X144.46Y-118.7
X144.46Y-121.24
X144.46Y-123.78
X147.0Y-106.0
X147.0Y-108.54
X147.0Y-111.08
X147.0Y-113.62
X147.0Y-116.16
X147.0Y-118.7
X147.0Y-121.24
X147.0Y-123.78
X166.5Y-151.0
X169.0Y-151.0
T4
X119.6Y-150.4
X123.56Y-150.4
X130.0Y-150.4
X133.96Y-150.4
X137.92Y-150.4
X141.88Y-150.4
X148.0Y-150.4
X151.96Y-150.4
X155.92Y-150.4
X159.88Y-150.4
T5
X130.6Y-128.08
X130.6Y-138.0
X134.0Y-128.08
X134.0Y-138.0
M30
