<svg xmlns="http://www.w3.org/2000/svg" width="122mm" height="87mm" viewBox="0 0 122 87">
<rect x="0" y="0" width="122" height="87" fill="#fff" stroke="#000" stroke-width="0.3"/>
<path d="M26.00 4.00 L26.00 6.00" fill="none" stroke="#000" stroke-width="1.6" stroke-linecap="round" stroke-linejoin="round"/>
<path d="M26.00 9.30 L26.00 10.90" fill="none" stroke="#000" stroke-width="1.6" stroke-linecap="round" stroke-linejoin="round"/>
<path d="M19.50 14.00 L26.00 14.20" fill="none" stroke="#000" stroke-width="1.6" stroke-linecap="round" stroke-linejoin="round"/>
<path d="M19.50 14.00 L18.00 16.50 L18.00 18.40" fill="none" stroke="#000" stroke-width="1.6" stroke-linecap="round" stroke-linejoin="round"/>
<path d="M18.00 25.20 L19.85 27.00" fill="none" stroke="#000" stroke-width="1.6" stroke-linecap="round" stroke-linejoin="round"/>
<path d="M19.85 27.00 L16.00 27.00 L16.00 30.85" fill="none" stroke="#000" stroke-width="1.6" stroke-linecap="round" stroke-linejoin="round"/>
<path d="M24.15 27.00 L28.00 27.00 L28.00 30.85" fill="none" stroke="#000" stroke-width="1.6" stroke-linecap="round" stroke-linejoin="round"/>
<path d="M28.00 35.15 L28.00 39.00 L24.15 39.00" fill="none" stroke="#000" stroke-width="1.6" stroke-linecap="round" stroke-linejoin="round"/>
<path d="M16.00 35.15 L16.00 39.00 L19.85 39.00" fill="none" stroke="#000" stroke-width="1.6" stroke-linecap="round" stroke-linejoin="round"/>
<path d="M20.10 34.55 L19.85 39.00" fill="none" stroke="#000" stroke-width="1.6" stroke-linecap="round" stroke-linejoin="round"/>
<path d="M23.90 31.45 L24.15 27.00" fill="none" stroke="#000" stroke-width="1.6" stroke-linecap="round" stroke-linejoin="round"/>
<path d="M28.00 27.00 L31.50 27.00 L31.50 72.00 L29.15 76.00" fill="none" stroke="#000" stroke-width="1.6" stroke-linecap="round" stroke-linejoin="round"/>
<path d="M16.00 39.00 L16.00 58.30" fill="none" stroke="#000" stroke-width="1.6" stroke-linecap="round" stroke-linejoin="round"/>
<path d="M16.00 61.60 L16.00 65.50" fill="none" stroke="#000" stroke-width="1.6" stroke-linecap="round" stroke-linejoin="round"/>
<path d="M16.00 70.58 L19.15 76.00" fill="none" stroke="#000" stroke-width="1.6" stroke-linecap="round" stroke-linejoin="round"/>
<path d="M24.15 39.00 L24.15 83.00" fill="none" stroke="#000" stroke-width="1.6" stroke-linecap="round" stroke-linejoin="round"/>
<path d="M46.00 4.00 L46.00 6.00" fill="none" stroke="#000" stroke-width="1.6" stroke-linecap="round" stroke-linejoin="round"/>
<path d="M46.00 9.30 L46.00 10.90" fill="none" stroke="#000" stroke-width="1.6" stroke-linecap="round" stroke-linejoin="round"/>
<path d="M39.50 14.00 L46.00 14.20" fill="none" stroke="#000" stroke-width="1.6" stroke-linecap="round" stroke-linejoin="round"/>
<path d="M39.50 14.00 L38.00 16.50 L38.00 18.40" fill="none" stroke="#000" stroke-width="1.6" stroke-linecap="round" stroke-linejoin="round"/>
<path d="M38.00 25.20 L39.85 27.00" fill="none" stroke="#000" stroke-width="1.6" stroke-linecap="round" stroke-linejoin="round"/>
<path d="M39.85 27.00 L36.00 27.00 L36.00 30.85" fill="none" stroke="#000" stroke-width="1.6" stroke-linecap="round" stroke-linejoin="round"/>
<path d="M44.15 27.00 L48.00 27.00 L48.00 30.85" fill="none" stroke="#000" stroke-width="1.6" stroke-linecap="round" stroke-linejoin="round"/>
<path d="M48.00 35.15 L48.00 39.00 L44.15 39.00" fill="none" stroke="#000" stroke-width="1.6" stroke-linecap="round" stroke-linejoin="round"/>
<path d="M36.00 35.15 L36.00 39.00 L39.85 39.00" fill="none" stroke="#000" stroke-width="1.6" stroke-linecap="round" stroke-linejoin="round"/>
<path d="M40.10 34.55 L39.85 39.00" fill="none" stroke="#000" stroke-width="1.6" stroke-linecap="round" stroke-linejoin="round"/>
<path d="M43.90 31.45 L44.15 27.00" fill="none" stroke="#000" stroke-width="1.6" stroke-linecap="round" stroke-linejoin="round"/>
<path d="M48.00 27.00 L51.50 27.00 L51.50 72.00 L49.15 76.00" fill="none" stroke="#000" stroke-width="1.6" stroke-linecap="round" stroke-linejoin="round"/>
<path d="M36.00 39.00 L36.00 58.30" fill="none" stroke="#000" stroke-width="1.6" stroke-linecap="round" stroke-linejoin="round"/>
<path d="M36.00 61.60 L36.00 65.50" fill="none" stroke="#000" stroke-width="1.6" stroke-linecap="round" stroke-linejoin="round"/>
<path d="M36.00 70.58 L39.15 76.00" fill="none" stroke="#000" stroke-width="1.6" stroke-linecap="round" stroke-linejoin="round"/>
<path d="M44.15 39.00 L44.15 83.00" fill="none" stroke="#000" stroke-width="1.6" stroke-linecap="round" stroke-linejoin="round"/>
<path d="M66.00 4.00 L66.00 6.00" fill="none" stroke="#000" stroke-width="1.6" stroke-linecap="round" stroke-linejoin="round"/>
<path d="M66.00 9.30 L66.00 10.90" fill="none" stroke="#000" stroke-width="1.6" stroke-linecap="round" stroke-linejoin="round"/>
<path d="M59.50 14.00 L66.00 14.20" fill="none" stroke="#000" stroke-width="1.6" stroke-linecap="round" stroke-linejoin="round"/>
<path d="M59.50 14.00 L58.00 16.50 L58.00 18.40" fill="none" stroke="#000" stroke-width="1.6" stroke-linecap="round" stroke-linejoin="round"/>
<path d="M58.00 25.20 L59.85 27.00" fill="none" stroke="#000" stroke-width="1.6" stroke-linecap="round" stroke-linejoin="round"/>
<path d="M59.85 27.00 L56.00 27.00 L56.00 30.85" fill="none" stroke="#000" stroke-width="1.6" stroke-linecap="round" stroke-linejoin="round"/>
<path d="M64.15 27.00 L68.00 27.00 L68.00 30.85" fill="none" stroke="#000" stroke-width="1.6" stroke-linecap="round" stroke-linejoin="round"/>
<path d="M68.00 35.15 L68.00 39.00 L64.15 39.00" fill="none" stroke="#000" stroke-width="1.6" stroke-linecap="round" stroke-linejoin="round"/>
<path d="M56.00 35.15 L56.00 39.00 L59.85 39.00" fill="none" stroke="#000" stroke-width="1.6" stroke-linecap="round" stroke-linejoin="round"/>
<path d="M60.10 34.55 L59.85 39.00" fill="none" stroke="#000" stroke-width="1.6" stroke-linecap="round" stroke-linejoin="round"/>
<path d="M63.90 31.45 L64.15 27.00" fill="none" stroke="#000" stroke-width="1.6" stroke-linecap="round" stroke-linejoin="round"/>
<path d="M68.00 27.00 L71.50 27.00 L71.50 72.00 L69.15 76.00" fill="none" stroke="#000" stroke-width="1.6" stroke-linecap="round" stroke-linejoin="round"/>
<path d="M56.00 39.00 L56.00 58.30" fill="none" stroke="#000" stroke-width="1.6" stroke-linecap="round" stroke-linejoin="round"/>
<path d="M56.00 61.60 L56.00 65.50" fill="none" stroke="#000" stroke-width="1.6" stroke-linecap="round" stroke-linejoin="round"/>
<path d="M56.00 70.58 L59.15 76.00" fill="none" stroke="#000" stroke-width="1.6" stroke-linecap="round" stroke-linejoin="round"/>
<path d="M64.15 39.00 L64.15 83.00" fill="none" stroke="#000" stroke-width="1.6" stroke-linecap="round" stroke-linejoin="round"/>
<path d="M86.00 4.00 L86.00 6.00" fill="none" stroke="#000" stroke-width="1.6" stroke-linecap="round" stroke-linejoin="round"/>
<path d="M86.00 9.30 L86.00 10.90" fill="none" stroke="#000" stroke-width="1.6" stroke-linecap="round" stroke-linejoin="round"/>
<path d="M79.50 14.00 L86.00 14.20" fill="none" stroke="#000" stroke-width="1.6" stroke-linecap="round" stroke-linejoin="round"/>
<path d="M79.50 14.00 L78.00 16.50 L78.00 18.40" fill="none" stroke="#000" stroke-width="1.6" stroke-linecap="round" stroke-linejoin="round"/>
<path d="M78.00 25.20 L79.85 27.00" fill="none" stroke="#000" stroke-width="1.6" stroke-linecap="round" stroke-linejoin="round"/>
<path d="M79.85 27.00 L76.00 27.00 L76.00 30.85" fill="none" stroke="#000" stroke-width="1.6" stroke-linecap="round" stroke-linejoin="round"/>
<path d="M84.15 27.00 L88.00 27.00 L88.00 30.85" fill="none" stroke="#000" stroke-width="1.6" stroke-linecap="round" stroke-linejoin="round"/>
<path d="M88.00 35.15 L88.00 39.00 L84.15 39.00" fill="none" stroke="#000" stroke-width="1.6" stroke-linecap="round" stroke-linejoin="round"/>
<path d="M76.00 35.15 L76.00 39.00 L79.85 39.00" fill="none" stroke="#000" stroke-width="1.6" stroke-linecap="round" stroke-linejoin="round"/>
<path d="M80.10 34.55 L79.85 39.00" fill="none" stroke="#000" stroke-width="1.6" stroke-linecap="round" stroke-linejoin="round"/>
<path d="M83.90 31.45 L84.15 27.00" fill="none" stroke="#000" stroke-width="1.6" stroke-linecap="round" stroke-linejoin="round"/>
<path d="M88.00 27.00 L91.50 27.00 L91.50 72.00 L89.15 76.00" fill="none" stroke="#000" stroke-width="1.6" stroke-linecap="round" stroke-linejoin="round"/>
<path d="M76.00 39.00 L76.00 58.30" fill="none" stroke="#000" stroke-width="1.6" stroke-linecap="round" stroke-linejoin="round"/>
<path d="M76.00 61.60 L76.00 65.50" fill="none" stroke="#000" stroke-width="1.6" stroke-linecap="round" stroke-linejoin="round"/>
<path d="M76.00 70.58 L79.15 76.00" fill="none" stroke="#000" stroke-width="1.6" stroke-linecap="round" stroke-linejoin="round"/>
<path d="M84.15 39.00 L84.15 83.00" fill="none" stroke="#000" stroke-width="1.6" stroke-linecap="round" stroke-linejoin="round"/>
<path d="M106.00 4.00 L106.00 6.00" fill="none" stroke="#000" stroke-width="1.6" stroke-linecap="round" stroke-linejoin="round"/>
<path d="M106.00 9.30 L106.00 10.90" fill="none" stroke="#000" stroke-width="1.6" stroke-linecap="round" stroke-linejoin="round"/>
<path d="M99.50 14.00 L106.00 14.20" fill="none" stroke="#000" stroke-width="1.6" stroke-linecap="round" stroke-linejoin="round"/>
<path d="M99.50 14.00 L98.00 16.50 L98.00 18.40" fill="none" stroke="#000" stroke-width="1.6" stroke-linecap="round" stroke-linejoin="round"/>
<path d="M98.00 25.20 L99.85 27.00" fill="none" stroke="#000" stroke-width="1.6" stroke-linecap="round" stroke-linejoin="round"/>
<path d="M99.85 27.00 L96.00 27.00 L96.00 30.85" fill="none" stroke="#000" stroke-width="1.6" stroke-linecap="round" stroke-linejoin="round"/>
<path d="M104.15 27.00 L108.00 27.00 L108.00 30.85" fill="none" stroke="#000" stroke-width="1.6" stroke-linecap="round" stroke-linejoin="round"/>
<path d="M108.00 35.15 L108.00 39.00 L104.15 39.00" fill="none" stroke="#000" stroke-width="1.6" stroke-linecap="round" stroke-linejoin="round"/>
<path d="M96.00 35.15 L96.00 39.00 L99.85 39.00" fill="none" stroke="#000" stroke-width="1.6" stroke-linecap="round" stroke-linejoin="round"/>
<path d="M100.10 34.55 L99.85 39.00" fill="none" stroke="#000" stroke-width="1.6" stroke-linecap="round" stroke-linejoin="round"/>
<path d="M103.90 31.45 L104.15 27.00" fill="none" stroke="#000" stroke-width="1.6" stroke-linecap="round" stroke-linejoin="round"/>
<path d="M108.00 27.00 L111.50 27.00 L111.50 72.00 L109.15 76.00" fill="none" stroke="#000" stroke-width="1.6" stroke-linecap="round" stroke-linejoin="round"/>
<path d="M96.00 39.00 L96.00 58.30" fill="none" stroke="#000" stroke-width="1.6" stroke-linecap="round" stroke-linejoin="round"/>
<path d="M96.00 61.60 L96.00 65.50" fill="none" stroke="#000" stroke-width="1.6" stroke-linecap="round" stroke-linejoin="round"/>
<path d="M96.00 70.58 L99.15 76.00" fill="none" stroke="#000" stroke-width="1.6" stroke-linecap="round" stroke-linejoin="round"/>
<path d="M104.15 39.00 L104.15 83.00" fill="none" stroke="#000" stroke-width="1.6" stroke-linecap="round" stroke-linejoin="round"/>
<path d="M4.50 12.00 L4.50 4.00 L106.00 4.00" fill="none" stroke="#000" stroke-width="1.6" stroke-linecap="round" stroke-linejoin="round"/>
<path d="M4.50 17.00 L4.50 83.00 L104.15 83.00" fill="none" stroke="#000" stroke-width="1.6" stroke-linecap="round" stroke-linejoin="round"/>
<path d="M9.00 4.00 L9.00 30.00" fill="none" stroke="#000" stroke-width="1.6" stroke-linecap="round" stroke-linejoin="round"/>
<path d="M9.00 37.50 L4.50 37.50" fill="none" stroke="#000" stroke-width="1.6" stroke-linecap="round" stroke-linejoin="round"/>
<circle cx="19.5" cy="4" r="1.5" fill="#000"/>
<circle cx="19.5" cy="14" r="1.5" fill="#000"/>
<rect x="25.00" y="5.20" width="2.0" height="1.6" rx="0.8" fill="#000"/>
<rect x="25.00" y="8.50" width="2.0" height="1.6" rx="0.8" fill="#000"/>
<rect x="25.00" y="10.10" width="2.0" height="1.6" rx="0.8" fill="#000"/>
<rect x="25.00" y="13.40" width="2.0" height="1.6" rx="0.8" fill="#000"/>
<rect x="16.30" y="17.40" width="3.4" height="2.0" rx="1.0" fill="#000"/>
<rect x="16.30" y="24.20" width="3.4" height="2.0" rx="1.0" fill="#000"/>
<rect x="18.65" y="26.05" width="2.4" height="1.9" rx="0.95" fill="#000"/>
<rect x="22.95" y="26.05" width="2.4" height="1.9" rx="0.95" fill="#000"/>
<rect x="15.05" y="29.65" width="1.9" height="2.4" rx="0.95" fill="#000"/>
<rect x="15.05" y="33.95" width="1.9" height="2.4" rx="0.95" fill="#000"/>
<rect x="18.65" y="38.05" width="2.4" height="1.9" rx="0.95" fill="#000"/>
<rect x="22.95" y="38.05" width="2.4" height="1.9" rx="0.95" fill="#000"/>
<rect x="27.05" y="29.65" width="1.9" height="2.4" rx="0.95" fill="#000"/>
<rect x="27.05" y="33.95" width="1.9" height="2.4" rx="0.95" fill="#000"/>
<circle cx="20.1" cy="34.55" r="1.5" fill="#000"/>
<circle cx="23.9" cy="31.45" r="1.5" fill="#000"/>
<circle cx="16.0" cy="45" r="1.5" fill="#000"/>
<circle cx="31.5" cy="45" r="1.5" fill="#000"/>
<circle cx="16.0" cy="52" r="1.5" fill="#000"/>
<circle cx="31.5" cy="52" r="1.5" fill="#000"/>
<rect x="15.00" y="57.50" width="2.0" height="1.6" rx="0.8" fill="#000"/>
<rect x="15.00" y="60.80" width="2.0" height="1.6" rx="0.8" fill="#000"/>
<circle cx="16.0" cy="65.5" r="1.5" fill="#000"/>
<circle cx="16.0" cy="70.58" r="1.5" fill="#000"/>
<circle cx="19.15" cy="76" r="1.5" fill="#000"/>
<circle cx="29.15" cy="76" r="1.5" fill="#000"/>
<circle cx="39.5" cy="4" r="1.5" fill="#000"/>
<circle cx="39.5" cy="14" r="1.5" fill="#000"/>
<rect x="45.00" y="5.20" width="2.0" height="1.6" rx="0.8" fill="#000"/>
<rect x="45.00" y="8.50" width="2.0" height="1.6" rx="0.8" fill="#000"/>
<rect x="45.00" y="10.10" width="2.0" height="1.6" rx="0.8" fill="#000"/>
<rect x="45.00" y="13.40" width="2.0" height="1.6" rx="0.8" fill="#000"/>
<rect x="36.30" y="17.40" width="3.4" height="2.0" rx="1.0" fill="#000"/>
<rect x="36.30" y="24.20" width="3.4" height="2.0" rx="1.0" fill="#000"/>
<rect x="38.65" y="26.05" width="2.4" height="1.9" rx="0.95" fill="#000"/>
<rect x="42.95" y="26.05" width="2.4" height="1.9" rx="0.95" fill="#000"/>
<rect x="35.05" y="29.65" width="1.9" height="2.4" rx="0.95" fill="#000"/>
<rect x="35.05" y="33.95" width="1.9" height="2.4" rx="0.95" fill="#000"/>
<rect x="38.65" y="38.05" width="2.4" height="1.9" rx="0.95" fill="#000"/>
<rect x="42.95" y="38.05" width="2.4" height="1.9" rx="0.95" fill="#000"/>
<rect x="47.05" y="29.65" width="1.9" height="2.4" rx="0.95" fill="#000"/>
<rect x="47.05" y="33.95" width="1.9" height="2.4" rx="0.95" fill="#000"/>
<circle cx="40.1" cy="34.55" r="1.5" fill="#000"/>
<circle cx="43.9" cy="31.45" r="1.5" fill="#000"/>
<circle cx="36.0" cy="45" r="1.5" fill="#000"/>
<circle cx="51.5" cy="45" r="1.5" fill="#000"/>
<circle cx="36.0" cy="52" r="1.5" fill="#000"/>
<circle cx="51.5" cy="52" r="1.5" fill="#000"/>
<rect x="35.00" y="57.50" width="2.0" height="1.6" rx="0.8" fill="#000"/>
<rect x="35.00" y="60.80" width="2.0" height="1.6" rx="0.8" fill="#000"/>
<circle cx="36.0" cy="65.5" r="1.5" fill="#000"/>
<circle cx="36.0" cy="70.58" r="1.5" fill="#000"/>
<circle cx="39.15" cy="76" r="1.5" fill="#000"/>
<circle cx="49.15" cy="76" r="1.5" fill="#000"/>
<circle cx="59.5" cy="4" r="1.5" fill="#000"/>
<circle cx="59.5" cy="14" r="1.5" fill="#000"/>
<rect x="65.00" y="5.20" width="2.0" height="1.6" rx="0.8" fill="#000"/>
<rect x="65.00" y="8.50" width="2.0" height="1.6" rx="0.8" fill="#000"/>
<rect x="65.00" y="10.10" width="2.0" height="1.6" rx="0.8" fill="#000"/>
<rect x="65.00" y="13.40" width="2.0" height="1.6" rx="0.8" fill="#000"/>
<rect x="56.30" y="17.40" width="3.4" height="2.0" rx="1.0" fill="#000"/>
<rect x="56.30" y="24.20" width="3.4" height="2.0" rx="1.0" fill="#000"/>
<rect x="58.65" y="26.05" width="2.4" height="1.9" rx="0.95" fill="#000"/>
<rect x="62.95" y="26.05" width="2.4" height="1.9" rx="0.95" fill="#000"/>
<rect x="55.05" y="29.65" width="1.9" height="2.4" rx="0.95" fill="#000"/>
<rect x="55.05" y="33.95" width="1.9" height="2.4" rx="0.95" fill="#000"/>
<rect x="58.65" y="38.05" width="2.4" height="1.9" rx="0.95" fill="#000"/>
<rect x="62.95" y="38.05" width="2.4" height="1.9" rx="0.95" fill="#000"/>
<rect x="67.05" y="29.65" width="1.9" height="2.4" rx="0.95" fill="#000"/>
<rect x="67.05" y="33.95" width="1.9" height="2.4" rx="0.95" fill="#000"/>
<circle cx="60.1" cy="34.55" r="1.5" fill="#000"/>
<circle cx="63.9" cy="31.45" r="1.5" fill="#000"/>
<circle cx="56.0" cy="45" r="1.5" fill="#000"/>
<circle cx="71.5" cy="45" r="1.5" fill="#000"/>
<circle cx="56.0" cy="52" r="1.5" fill="#000"/>
<circle cx="71.5" cy="52" r="1.5" fill="#000"/>
<rect x="55.00" y="57.50" width="2.0" height="1.6" rx="0.8" fill="#000"/>
<rect x="55.00" y="60.80" width="2.0" height="1.6" rx="0.8" fill="#000"/>
<circle cx="56.0" cy="65.5" r="1.5" fill="#000"/>
<circle cx="56.0" cy="70.58" r="1.5" fill="#000"/>
<circle cx="59.15" cy="76" r="1.5" fill="#000"/>
<circle cx="69.15" cy="76" r="1.5" fill="#000"/>
<circle cx="79.5" cy="4" r="1.5" fill="#000"/>
<circle cx="79.5" cy="14" r="1.5" fill="#000"/>
<rect x="85.00" y="5.20" width="2.0" height="1.6" rx="0.8" fill="#000"/>
<rect x="85.00" y="8.50" width="2.0" height="1.6" rx="0.8" fill="#000"/>
<rect x="85.00" y="10.10" width="2.0" height="1.6" rx="0.8" fill="#000"/>
<rect x="85.00" y="13.40" width="2.0" height="1.6" rx="0.8" fill="#000"/>
<rect x="76.30" y="17.40" width="3.4" height="2.0" rx="1.0" fill="#000"/>
<rect x="76.30" y="24.20" width="3.4" height="2.0" rx="1.0" fill="#000"/>
<rect x="78.65" y="26.05" width="2.4" height="1.9" rx="0.95" fill="#000"/>
<rect x="82.95" y="26.05" width="2.4" height="1.9" rx="0.95" fill="#000"/>
<rect x="75.05" y="29.65" width="1.9" height="2.4" rx="0.95" fill="#000"/>
<rect x="75.05" y="33.95" width="1.9" height="2.4" rx="0.95" fill="#000"/>
<rect x="78.65" y="38.05" width="2.4" height="1.9" rx="0.95" fill="#000"/>
<rect x="82.95" y="38.05" width="2.4" height="1.9" rx="0.95" fill="#000"/>
<rect x="87.05" y="29.65" width="1.9" height="2.4" rx="0.95" fill="#000"/>
<rect x="87.05" y="33.95" width="1.9" height="2.4" rx="0.95" fill="#000"/>
<circle cx="80.1" cy="34.55" r="1.5" fill="#000"/>
<circle cx="83.9" cy="31.45" r="1.5" fill="#000"/>
<circle cx="76.0" cy="45" r="1.5" fill="#000"/>
<circle cx="91.5" cy="45" r="1.5" fill="#000"/>
<circle cx="76.0" cy="52" r="1.5" fill="#000"/>
<circle cx="91.5" cy="52" r="1.5" fill="#000"/>
<rect x="75.00" y="57.50" width="2.0" height="1.6" rx="0.8" fill="#000"/>
<rect x="75.00" y="60.80" width="2.0" height="1.6" rx="0.8" fill="#000"/>
<circle cx="76.0" cy="65.5" r="1.5" fill="#000"/>
<circle cx="76.0" cy="70.58" r="1.5" fill="#000"/>
<circle cx="79.15" cy="76" r="1.5" fill="#000"/>
<circle cx="89.15" cy="76" r="1.5" fill="#000"/>
<circle cx="99.5" cy="4" r="1.5" fill="#000"/>
<circle cx="99.5" cy="14" r="1.5" fill="#000"/>
<rect x="105.00" y="5.20" width="2.0" height="1.6" rx="0.8" fill="#000"/>
<rect x="105.00" y="8.50" width="2.0" height="1.6" rx="0.8" fill="#000"/>
<rect x="105.00" y="10.10" width="2.0" height="1.6" rx="0.8" fill="#000"/>
<rect x="105.00" y="13.40" width="2.0" height="1.6" rx="0.8" fill="#000"/>
<rect x="96.30" y="17.40" width="3.4" height="2.0" rx="1.0" fill="#000"/>
<rect x="96.30" y="24.20" width="3.4" height="2.0" rx="1.0" fill="#000"/>
<rect x="98.65" y="26.05" width="2.4" height="1.9" rx="0.95" fill="#000"/>
<rect x="102.95" y="26.05" width="2.4" height="1.9" rx="0.95" fill="#000"/>
<rect x="95.05" y="29.65" width="1.9" height="2.4" rx="0.95" fill="#000"/>
<rect x="95.05" y="33.95" width="1.9" height="2.4" rx="0.95" fill="#000"/>
<rect x="98.65" y="38.05" width="2.4" height="1.9" rx="0.95" fill="#000"/>
<rect x="102.95" y="38.05" width="2.4" height="1.9" rx="0.95" fill="#000"/>
<rect x="107.05" y="29.65" width="1.9" height="2.4" rx="0.95" fill="#000"/>
<rect x="107.05" y="33.95" width="1.9" height="2.4" rx="0.95" fill="#000"/>
<circle cx="100.1" cy="34.55" r="1.5" fill="#000"/>
<circle cx="103.9" cy="31.45" r="1.5" fill="#000"/>
<circle cx="96.0" cy="45" r="1.5" fill="#000"/>
<circle cx="111.5" cy="45" r="1.5" fill="#000"/>
<circle cx="96.0" cy="52" r="1.5" fill="#000"/>
<circle cx="111.5" cy="52" r="1.5" fill="#000"/>
<rect x="95.00" y="57.50" width="2.0" height="1.6" rx="0.8" fill="#000"/>
<rect x="95.00" y="60.80" width="2.0" height="1.6" rx="0.8" fill="#000"/>
<circle cx="96.0" cy="65.5" r="1.5" fill="#000"/>
<circle cx="96.0" cy="70.58" r="1.5" fill="#000"/>
<circle cx="99.15" cy="76" r="1.5" fill="#000"/>
<circle cx="109.15" cy="76" r="1.5" fill="#000"/>
<circle cx="4.5" cy="12" r="1.5" fill="#000"/>
<circle cx="4.5" cy="17" r="1.5" fill="#000"/>
<circle cx="9" cy="30" r="1.5" fill="#000"/>
<circle cx="9" cy="37.5" r="1.5" fill="#000"/>
<circle cx="10.0" cy="62" r="2.4" fill="none" stroke="#000" stroke-width="1.2"/>
<circle cx="117.5" cy="12" r="2.4" fill="none" stroke="#000" stroke-width="1.2"/>
<circle cx="117.5" cy="62" r="2.4" fill="none" stroke="#000" stroke-width="1.2"/>
<circle cx="19.5" cy="4" r="0.4" fill="#fff"/>
<circle cx="19.5" cy="14" r="0.4" fill="#fff"/>
<circle cx="20.1" cy="34.55" r="0.4" fill="#fff"/>
<circle cx="23.9" cy="31.45" r="0.4" fill="#fff"/>
<circle cx="16.0" cy="45" r="0.4" fill="#fff"/>
<circle cx="31.5" cy="45" r="0.4" fill="#fff"/>
<circle cx="16.0" cy="52" r="0.4" fill="#fff"/>
<circle cx="31.5" cy="52" r="0.4" fill="#fff"/>
<circle cx="16.0" cy="65.5" r="0.4" fill="#fff"/>
<circle cx="16.0" cy="70.58" r="0.4" fill="#fff"/>
<circle cx="19.15" cy="76" r="0.4" fill="#fff"/>
<circle cx="29.15" cy="76" r="0.4" fill="#fff"/>
<circle cx="39.5" cy="4" r="0.4" fill="#fff"/>
<circle cx="39.5" cy="14" r="0.4" fill="#fff"/>
<circle cx="40.1" cy="34.55" r="0.4" fill="#fff"/>
<circle cx="43.9" cy="31.45" r="0.4" fill="#fff"/>
<circle cx="36.0" cy="45" r="0.4" fill="#fff"/>
<circle cx="51.5" cy="45" r="0.4" fill="#fff"/>
<circle cx="36.0" cy="52" r="0.4" fill="#fff"/>
<circle cx="51.5" cy="52" r="0.4" fill="#fff"/>
<circle cx="36.0" cy="65.5" r="0.4" fill="#fff"/>
<circle cx="36.0" cy="70.58" r="0.4" fill="#fff"/>
<circle cx="39.15" cy="76" r="0.4" fill="#fff"/>
<circle cx="49.15" cy="76" r="0.4" fill="#fff"/>
<circle cx="59.5" cy="4" r="0.4" fill="#fff"/>
<circle cx="59.5" cy="14" r="0.4" fill="#fff"/>
<circle cx="60.1" cy="34.55" r="0.4" fill="#fff"/>
<circle cx="63.9" cy="31.45" r="0.4" fill="#fff"/>
<circle cx="56.0" cy="45" r="0.4" fill="#fff"/>
<circle cx="71.5" cy="45" r="0.4" fill="#fff"/>
<circle cx="56.0" cy="52" r="0.4" fill="#fff"/>
<circle cx="71.5" cy="52" r="0.4" fill="#fff"/>
<circle cx="56.0" cy="65.5" r="0.4" fill="#fff"/>
<circle cx="56.0" cy="70.58" r="0.4" fill="#fff"/>
<circle cx="59.15" cy="76" r="0.4" fill="#fff"/>
<circle cx="69.15" cy="76" r="0.4" fill="#fff"/>
<circle cx="79.5" cy="4" r="0.4" fill="#fff"/>
<circle cx="79.5" cy="14" r="0.4" fill="#fff"/>
<circle cx="80.1" cy="34.55" r="0.4" fill="#fff"/>
<circle cx="83.9" cy="31.45" r="0.4" fill="#fff"/>
<circle cx="76.0" cy="45" r="0.4" fill="#fff"/>
<circle cx="91.5" cy="45" r="0.4" fill="#fff"/>
<circle cx="76.0" cy="52" r="0.4" fill="#fff"/>
<circle cx="91.5" cy="52" r="0.4" fill="#fff"/>
<circle cx="76.0" cy="65.5" r="0.4" fill="#fff"/>
<circle cx="76.0" cy="70.58" r="0.4" fill="#fff"/>
<circle cx="79.15" cy="76" r="0.4" fill="#fff"/>
<circle cx="89.15" cy="76" r="0.4" fill="#fff"/>
<circle cx="99.5" cy="4" r="0.4" fill="#fff"/>
<circle cx="99.5" cy="14" r="0.4" fill="#fff"/>
<circle cx="100.1" cy="34.55" r="0.4" fill="#fff"/>
<circle cx="103.9" cy="31.45" r="0.4" fill="#fff"/>
<circle cx="96.0" cy="45" r="0.4" fill="#fff"/>
<circle cx="111.5" cy="45" r="0.4" fill="#fff"/>
<circle cx="96.0" cy="52" r="0.4" fill="#fff"/>
<circle cx="111.5" cy="52" r="0.4" fill="#fff"/>
<circle cx="96.0" cy="65.5" r="0.4" fill="#fff"/>
<circle cx="96.0" cy="70.58" r="0.4" fill="#fff"/>
<circle cx="99.15" cy="76" r="0.4" fill="#fff"/>
<circle cx="109.15" cy="76" r="0.4" fill="#fff"/>
<circle cx="4.5" cy="12" r="0.4" fill="#fff"/>
<circle cx="4.5" cy="17" r="0.4" fill="#fff"/>
<circle cx="9" cy="30" r="0.4" fill="#fff"/>
<circle cx="9" cy="37.5" r="0.4" fill="#fff"/>
<circle cx="10.0" cy="62" r="0.4" fill="#000"/>
<circle cx="117.5" cy="12" r="0.4" fill="#000"/>
<circle cx="117.5" cy="62" r="0.4" fill="#000"/>
<g transform="translate(119.5 70) rotate(-90) scale(-1 1)"><text x="-50" y="0" font-family="Arial,Helvetica,sans-serif" font-weight="700" font-size="2.8" fill="#000">V4 SMD 127V</text></g>
</svg>