%TF.GenerationSoftware,KiCad,Pcbnew,9.0.9*%
%TF.CreationDate,2026-10-06T22:23:50+00:00*%
%TF.ProjectId,AP1_DMX,4150315f-444d-4582-9e6b-696361645f70,rev?*%
%TF.SameCoordinates,Original*%
%TF.FileFunction,Soldermask,Top*%
%TF.FilePolarity,Negative*%
%FSLAX46Y46*%
G04 Gerber Fmt 4.6, Leading zero omitted, Abs format (unit mm)*
G04 Created by KiCad (PCBNEW 9.0.9) date 2026-10-06 22:23:50*
%MOMM*%
%LPD*%
G01*
G04 APERTURE LIST*
G04 Aperture macros list*
%AMRoundRect*
0 Rectangle with rounded corners*
0 $1 Rounding radius*
0 $2 $3 $4 $5 $6 $7 $8 $9 X,Y pos of 4 corners*
0 Add a 4 corners polygon primitive as box body*
4,1,4,$2,$3,$4,$5,$6,$7,$8,$9,$2,$3,0*
0 Add four circle primitives for the rounded corners*
1,1,$1+$1,$2,$3*
1,1,$1+$1,$4,$5*
1,1,$1+$1,$6,$7*
1,1,$1+$1,$8,$9*
0 Add four rect primitives between the rounded corners*
20,1,$1+$1,$2,$3,$4,$5,0*
20,1,$1+$1,$4,$5,$6,$7,0*
20,1,$1+$1,$6,$7,$8,$9,0*
20,1,$1+$1,$8,$9,$2,$3,0*%
%AMFreePoly0*
4,1,23,0.500000,-0.750000,0.000000,-0.750000,0.000000,-0.745722,-0.065263,-0.745722,-0.191342,-0.711940,-0.304381,-0.646677,-0.396677,-0.554381,-0.461940,-0.441342,-0.495722,-0.315263,-0.495722,-0.250000,-0.500000,-0.250000,-0.500000,0.250000,-0.495722,0.250000,-0.495722,0.315263,-0.461940,0.441342,-0.396677,0.554381,-0.304381,0.646677,-0.191342,0.711940,-0.065263,0.745722,0.000000,0.745722,
0.000000,0.750000,0.500000,0.750000,0.500000,-0.750000,0.500000,-0.750000,$1*%
%AMFreePoly1*
4,1,23,0.000000,0.745722,0.065263,0.745722,0.191342,0.711940,0.304381,0.646677,0.396677,0.554381,0.461940,0.441342,0.495722,0.315263,0.495722,0.250000,0.500000,0.250000,0.500000,-0.250000,0.495722,-0.250000,0.495722,-0.315263,0.461940,-0.441342,0.396677,-0.554381,0.304381,-0.646677,0.191342,-0.711940,0.065263,-0.745722,0.000000,-0.745722,0.000000,-0.750000,-0.500000,-0.750000,
-0.500000,0.750000,0.000000,0.750000,0.000000,0.745722,0.000000,0.745722,$1*%
G04 Aperture macros list end*
%ADD10RoundRect,0.250000X-0.375000X-0.625000X0.375000X-0.625000X0.375000X0.625000X-0.375000X0.625000X0*%
%ADD11C,1.500000*%
%ADD12RoundRect,0.225000X-0.225000X-0.250000X0.225000X-0.250000X0.225000X0.250000X-0.225000X0.250000X0*%
%ADD13RoundRect,0.150000X-0.512500X-0.150000X0.512500X-0.150000X0.512500X0.150000X-0.512500X0.150000X0*%
%ADD14RoundRect,0.250000X0.325000X0.650000X-0.325000X0.650000X-0.325000X-0.650000X0.325000X-0.650000X0*%
%ADD15RoundRect,0.218750X-0.218750X-0.256250X0.218750X-0.256250X0.218750X0.256250X-0.218750X0.256250X0*%
%ADD16C,3.200000*%
%ADD17RoundRect,0.250000X0.650000X-1.000000X0.650000X1.000000X-0.650000X1.000000X-0.650000X-1.000000X0*%
%ADD18RoundRect,0.250000X-0.300000X-1.600000X0.300000X-1.600000X0.300000X1.600000X-0.300000X1.600000X0*%
%ADD19RoundRect,0.250000X0.650000X-0.325000X0.650000X0.325000X-0.650000X0.325000X-0.650000X-0.325000X0*%
%ADD20RoundRect,0.250000X-1.000000X-0.650000X1.000000X-0.650000X1.000000X0.650000X-1.000000X0.650000X0*%
%ADD21RoundRect,0.150000X-0.825000X-0.150000X0.825000X-0.150000X0.825000X0.150000X-0.825000X0.150000X0*%
%ADD22RoundRect,0.225000X0.250000X-0.225000X0.250000X0.225000X-0.250000X0.225000X-0.250000X-0.225000X0*%
%ADD23RoundRect,0.250001X-1.099999X-1.099999X1.099999X-1.099999X1.099999X1.099999X-1.099999X1.099999X0*%
%ADD24C,2.700000*%
%ADD25RoundRect,0.200000X0.275000X-0.200000X0.275000X0.200000X-0.275000X0.200000X-0.275000X-0.200000X0*%
%ADD26RoundRect,0.250000X-0.600000X-0.725000X0.600000X-0.725000X0.600000X0.725000X-0.600000X0.725000X0*%
%ADD27O,1.700000X1.950000*%
%ADD28RoundRect,0.200000X-0.200000X-0.275000X0.200000X-0.275000X0.200000X0.275000X-0.200000X0.275000X0*%
%ADD29RoundRect,0.250000X-1.000000X-0.900000X1.000000X-0.900000X1.000000X0.900000X-1.000000X0.900000X0*%
%ADD30FreePoly0,0.000000*%
%ADD31FreePoly1,0.000000*%
%ADD32RoundRect,0.250000X-0.312500X-0.625000X0.312500X-0.625000X0.312500X0.625000X-0.312500X0.625000X0*%
%ADD33R,1.700000X1.700000*%
%ADD34C,1.700000*%
%ADD35RoundRect,0.150000X-0.587500X-0.150000X0.587500X-0.150000X0.587500X0.150000X-0.587500X0.150000X0*%
G04 APERTURE END LIST*
%TO.C,JP1*%
G36*
X153850000Y-143450000D02*
G01*
X154150000Y-143450000D01*
X154150000Y-144950000D01*
X153850000Y-144950000D01*
X153850000Y-143450000D01*
G37*
%TD*%
D10*
%TO.C,F1*%
X113600000Y-143200000D03*
X116400000Y-143200000D03*
%TD*%
D11*
%TO.C,TP2*%
X120000000Y-106000000D03*
%TD*%
D12*
%TO.C,C6*%
X156225000Y-116400000D03*
X157775000Y-116400000D03*
%TD*%
D13*
%TO.C,U2*%
X109862500Y-108050000D03*
X109862500Y-109000000D03*
X109862500Y-109950000D03*
X112137500Y-109950000D03*
X112137500Y-109000000D03*
X112137500Y-108050000D03*
%TD*%
D14*
%TO.C,C5*%
X106075000Y-110400000D03*
X103125000Y-110400000D03*
%TD*%
D15*
%TO.C,D5*%
X175212500Y-146000000D03*
X176787500Y-146000000D03*
%TD*%
D16*
%TO.C,H1*%
X103500000Y-103500000D03*
%TD*%
D17*
%TO.C,D3*%
X115200000Y-107000000D03*
X115200000Y-103000000D03*
%TD*%
D11*
%TO.C,TP4*%
X164000000Y-120000000D03*
%TD*%
D18*
%TO.C,L1*%
X109500000Y-104000000D03*
X112500000Y-104000000D03*
%TD*%
D12*
%TO.C,C7*%
X161225000Y-131400000D03*
X162775000Y-131400000D03*
%TD*%
D19*
%TO.C,C1*%
X135000000Y-144275000D03*
X135000000Y-141325000D03*
%TD*%
D20*
%TO.C,D1*%
X119500000Y-143200000D03*
X123500000Y-143200000D03*
%TD*%
D21*
%TO.C,U1*%
X154525000Y-110095000D03*
X154525000Y-111365000D03*
X154525000Y-112635000D03*
X154525000Y-113905000D03*
X159475000Y-113905000D03*
X159475000Y-112635000D03*
X159475000Y-111365000D03*
X159475000Y-110095000D03*
%TD*%
D22*
%TO.C,C3*%
X107800000Y-108575000D03*
X107800000Y-107025000D03*
%TD*%
D23*
%TO.C,J1*%
X103000000Y-150400000D03*
D24*
X106960000Y-150400000D03*
%TD*%
D16*
%TO.C,H3*%
X184500000Y-152500000D03*
%TD*%
D19*
%TO.C,C4*%
X115200000Y-112475000D03*
X115200000Y-109525000D03*
%TD*%
D25*
%TO.C,R1*%
X156000000Y-133825000D03*
X156000000Y-132175000D03*
%TD*%
D11*
%TO.C,TP1*%
X141000000Y-141000000D03*
%TD*%
D19*
%TO.C,C2*%
X138000000Y-144275000D03*
X138000000Y-141325000D03*
%TD*%
D26*
%TO.C,J2*%
X160000000Y-151000000D03*
D27*
X162500000Y-151000000D03*
X165000000Y-151000000D03*
%TD*%
D28*
%TO.C,RB2*%
X108775000Y-112400000D03*
X110425000Y-112400000D03*
%TD*%
D16*
%TO.C,H2*%
X184500000Y-139500000D03*
%TD*%
D28*
%TO.C,RB1*%
X104175000Y-112500000D03*
X105825000Y-112500000D03*
%TD*%
D29*
%TO.C,D2*%
X126850000Y-143200000D03*
X131150000Y-143200000D03*
%TD*%
D30*
%TO.C,JP1*%
X153350000Y-144200000D03*
D31*
X154650000Y-144200000D03*
%TD*%
D21*
%TO.C,U3*%
X159525000Y-134095000D03*
X159525000Y-135365000D03*
X159525000Y-136635000D03*
X159525000Y-137905000D03*
X164475000Y-137905000D03*
X164475000Y-136635000D03*
X164475000Y-135365000D03*
X164475000Y-134095000D03*
%TD*%
D11*
%TO.C,TP3*%
X160000000Y-120000000D03*
%TD*%
D28*
%TO.C,R3*%
X175175000Y-143000000D03*
X176825000Y-143000000D03*
%TD*%
D32*
%TO.C,R2*%
X152537500Y-141000000D03*
X155462500Y-141000000D03*
%TD*%
D33*
%TO.C,J7*%
X147000000Y-106000000D03*
D34*
X144460000Y-106000000D03*
X147000000Y-108540000D03*
X144460000Y-108540000D03*
X147000000Y-111080000D03*
X144460000Y-111080000D03*
X147000000Y-113620000D03*
X144460000Y-113620000D03*
X147000000Y-116160000D03*
X144460000Y-116160000D03*
X147000000Y-118700000D03*
X144460000Y-118700000D03*
X147000000Y-121240000D03*
X144460000Y-121240000D03*
X147000000Y-123780000D03*
X144460000Y-123780000D03*
%TD*%
D35*
%TO.C,D4*%
X169062500Y-139550000D03*
X169062500Y-141450000D03*
X170937500Y-140500000D03*
%TD*%
M02*
