M48
; DRILL file {KiCad 9.0.9} date 2026-10-05T06:53:50+0000
; FORMAT={-:-/ absolute / metric / decimal}
; #@! TF.CreationDate,2026-10-05T06:53:50+00:00
; #@! TF.GenerationSoftware,Kicad,Pcbnew,9.0.9
; #@! TF.FileFunction,Plated,1,2,PTH
FMAT,2
METRIC
; #@! TA.AperFunction,Plated,PTH,ViaDrill
T1C0.300
; #@! TA.AperFunction,Plated,PTH,ComponentDrill
T2C1.000
; #@! TA.AperFunction,Plated,PTH,ComponentDrill
T3C1.300
%
G90
G05
T1
X100.751Y-110.4
X100.751Y-134.277
X100.751Y-144.856
X100.751Y-149.407
X102.0Y-107.0
X102.0Y-112.0
X102.0Y-117.0
X102.0Y-122.0
X102.0Y-127.0
X102.0Y-132.0
X102.0Y-137.0
X102.0Y-142.0
X102.0Y-147.0
X107.0Y-102.0
X107.0Y-117.0
X107.0Y-122.0
X107.0Y-127.0
X107.0Y-132.0
X107.0Y-137.0
X107.0Y-142.0
X109.165Y-144.235
X109.661Y-151.9
X112.0Y-112.0
X112.0Y-117.0
X112.0Y-122.0
X112.0Y-127.0
X112.0Y-132.0
X112.0Y-137.0
X112.0Y-142.0
X112.0Y-147.0
X113.101Y-145.232
X113.8Y-105.194
X115.325Y-111.374
X116.4Y-144.586
X117.0Y-107.0
X117.0Y-112.0
X117.0Y-117.0
X117.0Y-122.0
X117.0Y-127.0
X117.0Y-132.0
X117.0Y-137.0
X117.0Y-147.0
X117.474Y-145.104
X119.5Y-144.614
X122.0Y-107.0
X122.0Y-112.0
X122.0Y-117.0
X122.0Y-122.0
X122.0Y-127.0
X122.0Y-132.0
X122.0Y-137.0
X122.0Y-147.0
X123.5Y-144.682
X126.85Y-144.859
X127.0Y-107.0
X127.0Y-112.0
X127.0Y-117.0
X127.0Y-122.0
X127.0Y-127.0
X127.0Y-132.0
X127.0Y-137.0
X127.0Y-147.0
X128.795Y-141.65
X128.85Y-142.95
X132.0Y-107.0
X132.0Y-112.0
X132.0Y-117.0
X132.0Y-122.0
X132.0Y-127.0
X132.0Y-132.0
X132.0Y-137.0
X132.0Y-147.0
X133.536Y-142.565
X137.0Y-107.0
X137.0Y-112.0
X137.0Y-117.0
X137.0Y-122.0
X137.0Y-127.0
X137.0Y-132.0
X137.0Y-137.0
X137.0Y-147.0
X142.0Y-132.0
X142.0Y-137.0
X142.0Y-147.0
X147.0Y-102.0
X147.0Y-132.0
X147.0Y-137.0
X147.0Y-142.0
X147.0Y-147.0
X148.825Y-111.045
X148.825Y-113.585
X152.0Y-102.0
X152.0Y-107.0
X152.0Y-127.0
X152.0Y-137.0
X152.0Y-147.0
X154.446Y-139.979
X155.874Y-144.857
X156.593Y-135.989
X156.796Y-134.951
X157.0Y-102.0
X157.0Y-107.0
X157.0Y-112.0
X157.0Y-122.0
X157.0Y-127.0
X157.0Y-147.0
X157.958Y-112.706
X157.979Y-113.905
X158.091Y-118.266
X158.252Y-137.261
X160.991Y-110.252
X162.0Y-102.0
X162.0Y-107.0
X162.0Y-112.0
X162.0Y-117.0
X162.0Y-137.0
X162.0Y-147.0
X162.954Y-138.089
X165.748Y-136.009
X167.0Y-102.0
X167.0Y-107.0
X167.0Y-112.0
X167.0Y-117.0
X167.0Y-122.0
X167.0Y-127.0
X167.0Y-132.0
X167.0Y-147.0
X168.225Y-142.287
X170.321Y-139.55
X172.0Y-102.0
X172.0Y-107.0
X172.0Y-112.0
X172.0Y-117.0
X172.0Y-122.0
X172.0Y-127.0
X172.0Y-132.0
X172.0Y-137.0
X172.0Y-147.0
X174.411Y-142.236
X177.0Y-132.0
X177.0Y-137.0
X182.0Y-132.0
X182.0Y-137.0
X182.0Y-142.0
X182.0Y-147.0
T2
X144.46Y-106.0
X144.46Y-108.54
X144.46Y-111.08
X144.46Y-113.62
X144.46Y-116.16
X144.46Y-118.7
X144.46Y-121.24
X144.46Y-123.78
X147.0Y-106.0
X147.0Y-108.54
X147.0Y-111.08
X147.0Y-113.62
X147.0Y-116.16
X147.0Y-118.7
X147.0Y-121.24
X147.0Y-123.78
T3
X103.6Y-149.8
X108.68Y-149.8
X160.0Y-149.8
X165.08Y-149.8
X170.16Y-149.8
M30
