M48
; DRILL file {KiCad 9.0.9} date 2026-10-06T22:23:51+0000
; FORMAT={-:-/ absolute / metric / decimal}
; #@! TF.CreationDate,2026-10-06T22:23:51+00:00
; #@! TF.GenerationSoftware,Kicad,Pcbnew,9.0.9
; #@! TF.FileFunction,Plated,1,2,PTH
FMAT,2
METRIC
; #@! TA.AperFunction,Plated,PTH,ViaDrill
T1C0.300
; #@! TA.AperFunction,Plated,PTH,ComponentDrill
T2C0.950
; #@! TA.AperFunction,Plated,PTH,ComponentDrill
T3C1.000
; #@! TA.AperFunction,Plated,PTH,ComponentDrill
T4C1.700
%
G90
G05
T1
X100.751Y-110.4
X100.751Y-134.277
X100.751Y-137.882
X102.0Y-107.0
X102.0Y-112.0
X102.0Y-117.0
X102.0Y-122.0
X102.0Y-127.0
X102.0Y-132.0
X102.0Y-142.0
X102.0Y-147.0
X104.162Y-109.363
X107.0Y-102.0
X107.0Y-117.0
X107.0Y-122.0
X107.0Y-127.0
X107.0Y-132.0
X107.0Y-142.0
X109.165Y-144.235
X112.0Y-132.0
X112.0Y-142.0
X112.0Y-147.0
X112.0Y-152.0
X112.938Y-112.467
X113.821Y-104.379
X117.0Y-107.0
X117.0Y-112.0
X117.0Y-117.0
X117.0Y-122.0
X117.0Y-127.0
X117.0Y-147.0
X117.0Y-152.0
X122.0Y-107.0
X122.0Y-112.0
X122.0Y-117.0
X122.0Y-122.0
X122.0Y-127.0
X122.0Y-132.0
X122.0Y-147.0
X122.0Y-152.0
X125.271Y-141.621
X127.0Y-107.0
X127.0Y-112.0
X127.0Y-117.0
X127.0Y-122.0
X127.0Y-127.0
X127.0Y-132.0
X127.0Y-147.0
X127.0Y-152.0
X128.795Y-141.65
X128.85Y-142.95
X132.0Y-107.0
X132.0Y-112.0
X132.0Y-117.0
X132.0Y-122.0
X132.0Y-127.0
X132.0Y-132.0
X132.0Y-147.0
X132.0Y-152.0
X133.536Y-142.565
X137.0Y-107.0
X137.0Y-112.0
X137.0Y-117.0
X137.0Y-122.0
X137.0Y-127.0
X137.0Y-132.0
X137.0Y-147.0
X137.0Y-152.0
X142.0Y-127.0
X142.0Y-132.0
X142.0Y-147.0
X142.0Y-152.0
X145.838Y-122.465
X147.0Y-102.0
X147.0Y-132.0
X147.0Y-142.0
X147.0Y-147.0
X147.0Y-152.0
X148.825Y-111.045
X148.825Y-113.585
X149.702Y-131.425
X152.0Y-102.0
X152.0Y-107.0
X152.0Y-122.0
X152.0Y-147.0
X152.0Y-152.0
X153.542Y-139.996
X154.26Y-137.261
X157.0Y-102.0
X157.0Y-107.0
X157.0Y-112.0
X157.0Y-122.0
X157.0Y-152.0
X157.958Y-112.706
X157.979Y-113.905
X158.232Y-135.991
X158.282Y-143.357
X158.352Y-118.352
X160.991Y-110.252
X162.0Y-102.0
X162.0Y-107.0
X162.0Y-112.0
X162.0Y-117.0
X162.0Y-122.0
X162.0Y-127.0
X162.0Y-137.0
X162.0Y-147.0
X162.954Y-138.089
X163.748Y-130.958
X165.748Y-136.009
X166.535Y-137.279
X167.0Y-102.0
X167.0Y-107.0
X167.0Y-112.0
X167.0Y-117.0
X167.0Y-122.0
X167.0Y-127.0
X167.0Y-132.0
X167.0Y-147.0
X168.225Y-142.287
X172.0Y-102.0
X172.0Y-107.0
X172.0Y-112.0
X172.0Y-117.0
X172.0Y-122.0
X172.0Y-127.0
X172.0Y-132.0
X172.0Y-137.0
X172.0Y-147.0
X174.26Y-145.747
X174.411Y-142.236
X177.0Y-132.0
X177.0Y-137.0
X182.0Y-132.0
X182.0Y-137.0
X182.0Y-142.0
X182.0Y-147.0
T2
X160.0Y-151.0
X162.5Y-151.0
X165.0Y-151.0
T3
X144.46Y-106.0
X144.46Y-108.54
X144.46Y-111.08
X144.46Y-113.62
X144.46Y-116.16
X144.46Y-118.7
X144.46Y-121.24
X144.46Y-123.78
X147.0Y-106.0
X147.0Y-108.54
X147.0Y-111.08
X147.0Y-113.62
X147.0Y-116.16
X147.0Y-118.7
X147.0Y-121.24
X147.0Y-123.78
T4
X103.0Y-150.4
X106.96Y-150.4
M30
