%TF.GenerationSoftware,KiCad,Pcbnew,9.0.9*%
%TF.CreationDate,2026-10-06T22:23:50+00:00*%
%TF.ProjectId,AP1_DMX,4150315f-444d-4582-9e6b-696361645f70,rev?*%
%TF.SameCoordinates,Original*%
%TF.FileFunction,Copper,L2,Bot*%
%TF.FilePolarity,Positive*%
%FSLAX46Y46*%
G04 Gerber Fmt 4.6, Leading zero omitted, Abs format (unit mm)*
G04 Created by KiCad (PCBNEW 9.0.9) date 2026-10-06 22:23:50*
%MOMM*%
%LPD*%
G01*
G04 APERTURE LIST*
G04 Aperture macros list*
%AMRoundRect*
0 Rectangle with rounded corners*
0 $1 Rounding radius*
0 $2 $3 $4 $5 $6 $7 $8 $9 X,Y pos of 4 corners*
0 Add a 4 corners polygon primitive as box body*
4,1,4,$2,$3,$4,$5,$6,$7,$8,$9,$2,$3,0*
0 Add four circle primitives for the rounded corners*
1,1,$1+$1,$2,$3*
1,1,$1+$1,$4,$5*
1,1,$1+$1,$6,$7*
1,1,$1+$1,$8,$9*
0 Add four rect primitives between the rounded corners*
20,1,$1+$1,$2,$3,$4,$5,0*
20,1,$1+$1,$4,$5,$6,$7,0*
20,1,$1+$1,$6,$7,$8,$9,0*
20,1,$1+$1,$8,$9,$2,$3,0*%
G04 Aperture macros list end*
%TA.AperFunction,ComponentPad*%
%ADD10RoundRect,0.250001X-1.099999X-1.099999X1.099999X-1.099999X1.099999X1.099999X-1.099999X1.099999X0*%
%TD*%
%TA.AperFunction,ComponentPad*%
%ADD11C,2.700000*%
%TD*%
%TA.AperFunction,ComponentPad*%
%ADD12RoundRect,0.250000X-0.600000X-0.725000X0.600000X-0.725000X0.600000X0.725000X-0.600000X0.725000X0*%
%TD*%
%TA.AperFunction,ComponentPad*%
%ADD13O,1.700000X1.950000*%
%TD*%
%TA.AperFunction,ComponentPad*%
%ADD14R,1.700000X1.700000*%
%TD*%
%TA.AperFunction,ComponentPad*%
%ADD15C,1.700000*%
%TD*%
%TA.AperFunction,ViaPad*%
%ADD16C,0.600000*%
%TD*%
%TA.AperFunction,Conductor*%
%ADD17C,0.600000*%
%TD*%
%TA.AperFunction,Conductor*%
%ADD18C,0.250000*%
%TD*%
G04 APERTURE END LIST*
D10*
%TO.P,J1,1*%
%TO.N,/VIN_RAW*%
X103000000Y-150400000D03*
D11*
%TO.P,J1,2*%
%TO.N,/GND*%
X106960000Y-150400000D03*
%TD*%
D12*
%TO.P,J2,1*%
%TO.N,/GND*%
X160000000Y-151000000D03*
D13*
%TO.P,J2,2*%
%TO.N,/DMXB*%
X162500000Y-151000000D03*
%TO.P,J2,3*%
%TO.N,/DMXA*%
X165000000Y-151000000D03*
%TD*%
D14*
%TO.P,J7,1*%
%TO.N,/V12*%
X147000000Y-106000000D03*
D15*
%TO.P,J7,2*%
X144460000Y-106000000D03*
%TO.P,J7,3*%
%TO.N,/GND*%
X147000000Y-108540000D03*
%TO.P,J7,4*%
X144460000Y-108540000D03*
%TO.P,J7,5*%
%TO.N,/PWM1*%
X147000000Y-111080000D03*
%TO.P,J7,6*%
%TO.N,/PWM2*%
X144460000Y-111080000D03*
%TO.P,J7,7*%
%TO.N,/PWM3*%
X147000000Y-113620000D03*
%TO.P,J7,8*%
%TO.N,unconnected-(J7-Pin_8-Pad8)*%
X144460000Y-113620000D03*
%TO.P,J7,9*%
%TO.N,unconnected-(J7-Pin_9-Pad9)*%
X147000000Y-116160000D03*
%TO.P,J7,10*%
%TO.N,unconnected-(J7-Pin_10-Pad10)*%
X144460000Y-116160000D03*
%TO.P,J7,11*%
%TO.N,/SDA*%
X147000000Y-118700000D03*
%TO.P,J7,12*%
%TO.N,/SCL*%
X144460000Y-118700000D03*
%TO.P,J7,13*%
%TO.N,unconnected-(J7-Pin_13-Pad13)*%
X147000000Y-121240000D03*
%TO.P,J7,14*%
%TO.N,/AUX*%
X144460000Y-121240000D03*
%TO.P,J7,15*%
%TO.N,/3V3*%
X147000000Y-123780000D03*
%TO.P,J7,16*%
%TO.N,/GND*%
X144460000Y-123780000D03*
%TD*%
D16*
%TO.N,/VIN_RAW*%
X109165000Y-144235000D03*
%TO.N,/GND*%
X102000000Y-132000000D03*
X100750500Y-110400013D03*
X162000000Y-127000000D03*
X177000000Y-132000000D03*
X127000000Y-152000000D03*
X152000000Y-107000000D03*
X117000000Y-127000000D03*
X102000000Y-147000000D03*
X162000000Y-107000000D03*
X122000000Y-127000000D03*
X172000000Y-127000000D03*
X172000000Y-102000000D03*
X107000000Y-132000000D03*
X104162000Y-109363000D03*
X177000000Y-137000000D03*
X167000000Y-112000000D03*
X145838482Y-122464930D03*
X132000000Y-127000000D03*
X102000000Y-142000000D03*
X137000000Y-127000000D03*
X122000000Y-112000000D03*
X137000000Y-112000000D03*
X127000000Y-127000000D03*
X137000000Y-107000000D03*
X127000000Y-122000000D03*
X127000000Y-147000000D03*
X152000000Y-102000000D03*
X147000000Y-152000000D03*
X152000000Y-152000000D03*
X122000000Y-122000000D03*
X117000000Y-117000000D03*
X167000000Y-127000000D03*
X162000000Y-117000000D03*
X172000000Y-117000000D03*
X132000000Y-107000000D03*
X127000000Y-117000000D03*
X182000000Y-142000000D03*
X148825310Y-111045001D03*
X162000000Y-122000000D03*
X172000000Y-137000000D03*
X107000000Y-102000000D03*
X182000000Y-137000000D03*
X100750500Y-134277127D03*
X137000000Y-147000000D03*
X137000000Y-152000000D03*
X172000000Y-147000000D03*
X112000000Y-147000000D03*
X100750500Y-137881943D03*
X132000000Y-132000000D03*
X128795032Y-141650013D03*
X142000000Y-147000000D03*
X117000000Y-147000000D03*
X127000000Y-112000000D03*
X117000000Y-107000000D03*
X137000000Y-117000000D03*
X133536395Y-142564568D03*
X142000000Y-152000000D03*
X132000000Y-122000000D03*
X147000000Y-142000000D03*
X148825312Y-113585001D03*
X162000000Y-102000000D03*
X112000000Y-142000000D03*
X152000000Y-122000000D03*
X117000000Y-122000000D03*
X167000000Y-147000000D03*
X102000000Y-127000000D03*
X132000000Y-112000000D03*
X162000000Y-137000000D03*
X117000000Y-112000000D03*
X182000000Y-132000000D03*
X157000000Y-122000000D03*
X152000000Y-147000000D03*
X132000000Y-117000000D03*
X122000000Y-117000000D03*
X172000000Y-107000000D03*
X127000000Y-132000000D03*
X167000000Y-132000000D03*
X163748000Y-130958000D03*
X102000000Y-122000000D03*
X128850500Y-142950013D03*
X172000000Y-122000000D03*
X122000000Y-152000000D03*
X142000000Y-127000000D03*
X102000000Y-117000000D03*
X147000000Y-102000000D03*
X117000000Y-152000000D03*
X102000000Y-112000000D03*
X132000000Y-147000000D03*
X182000000Y-147000000D03*
X167000000Y-122000000D03*
X102000000Y-107000000D03*
X107000000Y-142000000D03*
X127000000Y-107000000D03*
X113821000Y-104379000D03*
X142000000Y-132000000D03*
X157000000Y-107000000D03*
X167000000Y-107000000D03*
X157000000Y-152000000D03*
X107000000Y-122000000D03*
X157000000Y-112000000D03*
X147000000Y-132000000D03*
X122000000Y-147000000D03*
X112000000Y-152000000D03*
X112000000Y-132000000D03*
X122000000Y-132000000D03*
X174260000Y-145747000D03*
X172000000Y-112000000D03*
X122000000Y-107000000D03*
X167000000Y-117000000D03*
X137000000Y-122000000D03*
X158282125Y-143356943D03*
X162000000Y-147000000D03*
X157000000Y-102000000D03*
X107000000Y-127000000D03*
X162954000Y-138089000D03*
X172000000Y-132000000D03*
X162000000Y-112000000D03*
X167000000Y-102000000D03*
X147000000Y-147000000D03*
X107000000Y-117000000D03*
X137000000Y-132000000D03*
X132000000Y-152000000D03*
%TO.N,/VIN*%
X112938000Y-112467000D03*
X125271000Y-141621000D03*
%TO.N,/SDA*%
X157979000Y-113905000D03*
%TO.N,/SCL*%
X157958000Y-112706000D03*
%TO.N,/3V3*%
X158352000Y-118352000D03*
X160991000Y-110252000D03*
%TO.N,/PWM1*%
X154260000Y-137261000D03*
%TO.N,/PWM2*%
X149702000Y-131425000D03*
%TO.N,/PWM3*%
X158232000Y-135991000D03*
%TO.N,/AUX*%
X174411000Y-142236000D03*
%TO.N,/DMXA*%
X166535000Y-137279000D03*
X153542000Y-139996000D03*
%TO.N,/DMXB*%
X168225000Y-142287000D03*
X165748000Y-136009000D03*
%TD*%
D17*
%TO.N,/VIN_RAW*%
X103000000Y-150400000D02*
X109165000Y-144235000D01*
D18*
%TO.N,/GND*%
X143283000Y-119187000D02*
X144066000Y-119970000D01*
X148177000Y-114193000D02*
X147387000Y-114983000D01*
X106960000Y-150400000D02*
X109792000Y-147568000D01*
X145637000Y-115844000D02*
X145637000Y-116680000D01*
X145678000Y-120757000D02*
X145678000Y-122562000D01*
X161306000Y-152306000D02*
X167701000Y-152306000D01*
X148177000Y-109717000D02*
X148177000Y-114193000D01*
X147000000Y-108540000D02*
X148177000Y-109717000D01*
X145637000Y-116680000D02*
X144839000Y-117478000D01*
X162954000Y-131753000D02*
X163748000Y-130958000D01*
X144839000Y-117478000D02*
X143955000Y-117478000D01*
X145678000Y-122562000D02*
X144460000Y-123780000D01*
X146497000Y-114983000D02*
X145637000Y-115844000D01*
X144066000Y-119970000D02*
X144891000Y-119970000D01*
X109792000Y-147568000D02*
X109792000Y-114993000D01*
X109146000Y-104379000D02*
X104162000Y-109363000D01*
X144891000Y-119970000D02*
X145678000Y-120757000D01*
X160000000Y-151000000D02*
X161306000Y-152306000D01*
X162954000Y-138089000D02*
X162954000Y-131753000D01*
X113821000Y-104379000D02*
X109146000Y-104379000D01*
X143283000Y-118149000D02*
X143283000Y-119187000D01*
X109792000Y-114993000D02*
X104162000Y-109363000D01*
X143955000Y-117478000D02*
X143283000Y-118149000D01*
X147387000Y-114983000D02*
X146497000Y-114983000D01*
X167701000Y-152306000D02*
X174260000Y-145747000D01*
D17*
%TO.N,/VIN*%
X125271000Y-141621000D02*
X112938000Y-129288000D01*
X112938000Y-129288000D02*
X112938000Y-112467000D01*
D18*
%TO.N,/SDA*%
X147000000Y-118700000D02*
X153184000Y-118700000D01*
X153184000Y-118700000D02*
X157979000Y-113905000D01*
%TO.N,/SCL*%
X153154000Y-117511000D02*
X157958000Y-112706000D01*
X145649000Y-117511000D02*
X153154000Y-117511000D01*
X144460000Y-118700000D02*
X145649000Y-117511000D01*
%TO.N,/3V3*%
X160991000Y-115714000D02*
X160991000Y-110252000D01*
X152924000Y-123780000D02*
X158352000Y-118352000D01*
X158352000Y-118352000D02*
X160991000Y-115714000D01*
X147000000Y-123780000D02*
X152924000Y-123780000D01*
%TO.N,/PWM1*%
X147000000Y-111080000D02*
X145795000Y-109875000D01*
X144000000Y-109875000D02*
X141864000Y-112011000D01*
X145795000Y-109875000D02*
X144000000Y-109875000D01*
X141864000Y-112011000D02*
X141864000Y-124864000D01*
X141864000Y-124864000D02*
X154260000Y-137261000D01*
%TO.N,/PWM2*%
X142316000Y-113224000D02*
X142316000Y-124677000D01*
X147240000Y-128962000D02*
X149702000Y-131425000D01*
X144460000Y-111080000D02*
X142316000Y-113224000D01*
X142316000Y-124677000D02*
X146601000Y-128962000D01*
X146601000Y-128962000D02*
X147240000Y-128962000D01*
%TO.N,/PWM3*%
X150700000Y-128459000D02*
X146736000Y-128459000D01*
X146736000Y-128459000D02*
X142767000Y-124490000D01*
X143974000Y-114890000D02*
X145730000Y-114890000D01*
X145730000Y-114890000D02*
X147000000Y-113620000D01*
X142767000Y-116096000D02*
X143974000Y-114890000D01*
X142767000Y-124490000D02*
X142767000Y-116096000D01*
X158232000Y-135991000D02*
X150700000Y-128459000D01*
%TO.N,/AUX*%
X161135000Y-127396000D02*
X146387000Y-127396000D01*
X174411000Y-140673000D02*
X161135000Y-127396000D01*
X143242000Y-122458000D02*
X144460000Y-121240000D01*
X143242000Y-124251000D02*
X143242000Y-122458000D01*
X174411000Y-142236000D02*
X174411000Y-140673000D01*
X146387000Y-127396000D02*
X143242000Y-124251000D01*
%TO.N,/DMXA*%
X166535000Y-137279000D02*
X168857000Y-139601000D01*
X163823000Y-150278000D02*
X163823000Y-151000000D01*
X168857000Y-148320000D02*
X166177000Y-151000000D01*
X165000000Y-151000000D02*
X163823000Y-151000000D01*
X153542000Y-139996000D02*
X163823000Y-150278000D01*
X168857000Y-139601000D02*
X168857000Y-148320000D01*
X165000000Y-151000000D02*
X166177000Y-151000000D01*
%TO.N,/DMXB*%
X168225000Y-142287000D02*
X165748000Y-139810000D01*
X165748000Y-139810000D02*
X165748000Y-136009000D01*
%TD*%
%TA.AperFunction,Conductor*%
%TO.N,/GND*%
G36*
X145766630Y-121250253D02*
G01*
X145824863Y-121288863D01*
X145852473Y-121349321D01*
X145877829Y-121509410D01*
X145933787Y-121681636D01*
X145933788Y-121681639D01*
X146016006Y-121842997D01*
X146122441Y-121989494D01*
X146122445Y-121989499D01*
X146250500Y-122117554D01*
X146250505Y-122117558D01*
X146378287Y-122210396D01*
X146397006Y-122223996D01*
X146502484Y-122277740D01*
X146558360Y-122306211D01*
X146558363Y-122306212D01*
X146644476Y-122334191D01*
X146730591Y-122362171D01*
X146803639Y-122373740D01*
X146890678Y-122387527D01*
X146953813Y-122417456D01*
X146990744Y-122476768D01*
X146989746Y-122546631D01*
X146951136Y-122604863D01*
X146890678Y-122632473D01*
X146730589Y-122657829D01*
X146558363Y-122713787D01*
X146558360Y-122713788D01*
X146397002Y-122796006D01*
X146250505Y-122902441D01*
X146250500Y-122902445D01*
X146122445Y-123030500D01*
X146122441Y-123030505D01*
X146016004Y-123177004D01*
X145948908Y-123308685D01*
X145900933Y-123359480D01*
X145833112Y-123376275D01*
X145766977Y-123353737D01*
X145723527Y-123299021D01*
X145720492Y-123290705D01*
X145711094Y-123261780D01*
X145614624Y-123072449D01*
X145575270Y-123018282D01*
X145575269Y-123018282D01*
X144942962Y-123650590D01*
X144925925Y-123587007D01*
X144860099Y-123472993D01*
X144767007Y-123379901D01*
X144652993Y-123314075D01*
X144589407Y-123297036D01*
X145221716Y-122664728D01*
X145167550Y-122625375D01*
X144978217Y-122528904D01*
X144949292Y-122519506D01*
X144891616Y-122480068D01*
X144864418Y-122415710D01*
X144876333Y-122346863D01*
X144923577Y-122295388D01*
X144931315Y-122291090D01*
X145062994Y-122223996D01*
X145209501Y-122117553D01*
X145337553Y-121989501D01*
X145443996Y-121842994D01*
X145526211Y-121681639D01*
X145582171Y-121509409D01*
X145596422Y-121419425D01*
X145607527Y-121349321D01*
X145637456Y-121286186D01*
X145696768Y-121249255D01*
X145766630Y-121250253D01*
G37*
%TD.AperFunction*%
%TA.AperFunction,Conductor*%
G36*
X145766630Y-118710253D02*
G01*
X145824863Y-118748863D01*
X145852473Y-118809321D01*
X145877829Y-118969410D01*
X145933787Y-119141636D01*
X145933788Y-119141639D01*
X146016006Y-119302997D01*
X146122441Y-119449494D01*
X146122445Y-119449499D01*
X146250500Y-119577554D01*
X146250505Y-119577558D01*
X146378287Y-119670396D01*
X146397006Y-119683996D01*
X146502484Y-119737740D01*
X146558360Y-119766211D01*
X146558363Y-119766212D01*
X146644476Y-119794191D01*
X146730591Y-119822171D01*
X146803639Y-119833740D01*
X146890678Y-119847527D01*
X146953813Y-119877456D01*
X146990744Y-119936768D01*
X146989746Y-120006631D01*
X146951136Y-120064863D01*
X146890678Y-120092473D01*
X146730589Y-120117829D01*
X146558363Y-120173787D01*
X146558360Y-120173788D01*
X146397002Y-120256006D01*
X146250505Y-120362441D01*
X146250500Y-120362445D01*
X146122445Y-120490500D01*
X146122441Y-120490505D01*
X146016006Y-120637002D01*
X145933788Y-120798360D01*
X145933787Y-120798363D01*
X145877829Y-120970589D01*
X145852473Y-121130678D01*
X145822544Y-121193813D01*
X145763232Y-121230744D01*
X145693369Y-121229746D01*
X145635137Y-121191136D01*
X145607527Y-121130678D01*
X145593740Y-121043639D01*
X145582171Y-120970591D01*
X145526211Y-120798361D01*
X145526211Y-120798360D01*
X145493015Y-120733210D01*
X145443996Y-120637006D01*
X145430396Y-120618287D01*
X145337558Y-120490505D01*
X145337554Y-120490500D01*
X145209499Y-120362445D01*
X145209494Y-120362441D01*
X145062997Y-120256006D01*
X145062996Y-120256005D01*
X145062994Y-120256004D01*
X145011300Y-120229664D01*
X144901639Y-120173788D01*
X144901636Y-120173787D01*
X144729410Y-120117829D01*
X144569321Y-120092473D01*
X144506186Y-120062544D01*
X144469255Y-120003232D01*
X144470253Y-119933370D01*
X144508863Y-119875137D01*
X144569321Y-119847527D01*
X144639425Y-119836422D01*
X144729409Y-119822171D01*
X144901639Y-119766211D01*
X145062994Y-119683996D01*
X145209501Y-119577553D01*
X145337553Y-119449501D01*
X145443996Y-119302994D01*
X145526211Y-119141639D01*
X145582171Y-118969409D01*
X145596422Y-118879425D01*
X145607527Y-118809321D01*
X145637456Y-118746186D01*
X145696768Y-118709255D01*
X145766630Y-118710253D01*
G37*
%TD.AperFunction*%
%TA.AperFunction,Conductor*%
G36*
X143397703Y-119169371D02*
G01*
X143426985Y-119206789D01*
X143476006Y-119302997D01*
X143582441Y-119449494D01*
X143582445Y-119449499D01*
X143710500Y-119577554D01*
X143710505Y-119577558D01*
X143838287Y-119670396D01*
X143857006Y-119683996D01*
X143962484Y-119737740D01*
X144018360Y-119766211D01*
X144018363Y-119766212D01*
X144104476Y-119794191D01*
X144190591Y-119822171D01*
X144263639Y-119833740D01*
X144350678Y-119847527D01*
X144413813Y-119877456D01*
X144450744Y-119936768D01*
X144449746Y-120006631D01*
X144411136Y-120064863D01*
X144350678Y-120092473D01*
X144190589Y-120117829D01*
X144018363Y-120173787D01*
X144018360Y-120173788D01*
X143857002Y-120256006D01*
X143710505Y-120362441D01*
X143710500Y-120362445D01*
X143582445Y-120490500D01*
X143582441Y-120490505D01*
X143476003Y-120637006D01*
X143476002Y-120637007D01*
X143426984Y-120733210D01*
X143379010Y-120784006D01*
X143311189Y-120800801D01*
X143245054Y-120778263D01*
X143201603Y-120723548D01*
X143192500Y-120676915D01*
X143192500Y-119263084D01*
X143212185Y-119196045D01*
X143264989Y-119150290D01*
X143334147Y-119140346D01*
X143397703Y-119169371D01*
G37*
%TD.AperFunction*%
%TA.AperFunction,Conductor*%
G36*
X143397703Y-116629371D02*
G01*
X143426985Y-116666789D01*
X143476006Y-116762997D01*
X143582441Y-116909494D01*
X143582445Y-116909499D01*
X143710500Y-117037554D01*
X143710505Y-117037558D01*
X143836611Y-117129178D01*
X143857006Y-117143996D01*
X143962484Y-117197740D01*
X144018360Y-117226211D01*
X144018363Y-117226212D01*
X144084686Y-117247761D01*
X144190591Y-117282171D01*
X144263639Y-117293740D01*
X144350678Y-117307527D01*
X144413813Y-117337456D01*
X144450744Y-117396768D01*
X144449746Y-117466631D01*
X144411136Y-117524863D01*
X144350678Y-117552473D01*
X144190589Y-117577829D01*
X144018363Y-117633787D01*
X144018360Y-117633788D01*
X143857002Y-117716006D01*
X143710505Y-117822441D01*
X143710500Y-117822445D01*
X143582445Y-117950500D01*
X143582441Y-117950505D01*
X143476003Y-118097006D01*
X143476002Y-118097007D01*
X143426984Y-118193210D01*
X143379010Y-118244006D01*
X143311189Y-118260801D01*
X143245054Y-118238263D01*
X143201603Y-118183548D01*
X143192500Y-118136915D01*
X143192500Y-116723084D01*
X143212185Y-116656045D01*
X143264989Y-116610290D01*
X143334147Y-116600346D01*
X143397703Y-116629371D01*
G37*
%TD.AperFunction*%
%TA.AperFunction,Conductor*%
G36*
X145206710Y-117129178D02*
G01*
X145255405Y-117179283D01*
X145269282Y-117247761D01*
X145243934Y-117312870D01*
X145233418Y-117324833D01*
X144972595Y-117585655D01*
X144911272Y-117619140D01*
X144846596Y-117615905D01*
X144729409Y-117577829D01*
X144569321Y-117552473D01*
X144506186Y-117522544D01*
X144469255Y-117463232D01*
X144470253Y-117393370D01*
X144508863Y-117335137D01*
X144569321Y-117307527D01*
X144639425Y-117296422D01*
X144729409Y-117282171D01*
X144901639Y-117226211D01*
X145062994Y-117143996D01*
X145072850Y-117136834D01*
X145138655Y-117113354D01*
X145206710Y-117129178D01*
G37*
%TD.AperFunction*%
%TA.AperFunction,Conductor*%
G36*
X145747071Y-116169973D02*
G01*
X145766630Y-116170253D01*
X145780040Y-116179144D01*
X145795543Y-116183457D01*
X145808561Y-116198054D01*
X145824863Y-116208863D01*
X145831855Y-116224173D01*
X145842047Y-116235602D01*
X145852473Y-116269321D01*
X145877829Y-116429410D01*
X145933787Y-116601636D01*
X145933788Y-116601639D01*
X146016006Y-116762997D01*
X146107272Y-116888615D01*
X146130752Y-116954421D01*
X146114926Y-117022475D01*
X146064821Y-117071170D01*
X146006954Y-117085500D01*
X145592982Y-117085500D01*
X145484763Y-117114497D01*
X145467117Y-117124685D01*
X145399216Y-117141155D01*
X145333190Y-117118302D01*
X145290000Y-117063380D01*
X145283360Y-116993826D01*
X145315378Y-116931724D01*
X145317397Y-116929656D01*
X145337553Y-116909501D01*
X145443996Y-116762994D01*
X145526211Y-116601639D01*
X145582171Y-116429409D01*
X145596422Y-116339425D01*
X145607527Y-116269321D01*
X145614418Y-116254782D01*
X145616481Y-116238824D01*
X145629077Y-116223860D01*
X145637456Y-116206186D01*
X145651116Y-116197679D01*
X145661478Y-116185372D01*
X145680162Y-116179594D01*
X145696768Y-116169255D01*
X145712857Y-116169484D01*
X145728229Y-116164732D01*
X145747071Y-116169973D01*
G37*
%TD.AperFunction*%
%TA.AperFunction,Conductor*%
G36*
X146071234Y-115268014D02*
G01*
X146114425Y-115322934D01*
X146121068Y-115392487D01*
X146099627Y-115441906D01*
X146016005Y-115557003D01*
X145933788Y-115718360D01*
X145933787Y-115718363D01*
X145877829Y-115890589D01*
X145852473Y-116050678D01*
X145822544Y-116113813D01*
X145763232Y-116150744D01*
X145693369Y-116149746D01*
X145635137Y-116111136D01*
X145607527Y-116050678D01*
X145587678Y-115925361D01*
X145582171Y-115890591D01*
X145554191Y-115804476D01*
X145526212Y-115718363D01*
X145526211Y-115718360D01*
X145495487Y-115658062D01*
X145443996Y-115557006D01*
X145429973Y-115537705D01*
X145411578Y-115512385D01*
X145388098Y-115446578D01*
X145403924Y-115378525D01*
X145454030Y-115329830D01*
X145511896Y-115315500D01*
X145786016Y-115315500D01*
X145786018Y-115315500D01*
X145894237Y-115286503D01*
X145937309Y-115261635D01*
X146005206Y-115245162D01*
X146071234Y-115268014D01*
G37*
%TD.AperFunction*%
%TA.AperFunction,Conductor*%
G36*
X146613399Y-114704093D02*
G01*
X146668294Y-114721929D01*
X146730590Y-114742171D01*
X146890678Y-114767527D01*
X146953813Y-114797456D01*
X146990744Y-114856768D01*
X146989746Y-114926631D01*
X146951136Y-114984863D01*
X146890678Y-115012473D01*
X146730589Y-115037829D01*
X146558363Y-115093787D01*
X146558360Y-115093788D01*
X146397003Y-115176005D01*
X146387142Y-115183170D01*
X146321336Y-115206649D01*
X146253282Y-115190823D01*
X146204588Y-115140717D01*
X146190713Y-115072239D01*
X146216063Y-115007130D01*
X146226577Y-114995170D01*
X146298515Y-114923232D01*
X146487402Y-114734343D01*
X146548725Y-114700859D01*
X146613399Y-114704093D01*
G37*
%TD.AperFunction*%
%TA.AperFunction,Conductor*%
G36*
X145762130Y-106038661D02*
G01*
X145820363Y-106077271D01*
X145848477Y-106141234D01*
X145849500Y-106157127D01*
X145849500Y-106894856D01*
X145849502Y-106894882D01*
X145852413Y-106919987D01*
X145852415Y-106919991D01*
X145897793Y-107022764D01*
X145897794Y-107022765D01*
X145977235Y-107102206D01*
X146080009Y-107147585D01*
X146105135Y-107150500D01*
X146236923Y-107150499D01*
X146303960Y-107170183D01*
X146349715Y-107222987D01*
X146359659Y-107292145D01*
X146330635Y-107355701D01*
X146296387Y-107382507D01*
X146296590Y-107382838D01*
X146293715Y-107384599D01*
X146293239Y-107384972D01*
X146292451Y-107385373D01*
X146292440Y-107385380D01*
X146238282Y-107424727D01*
X146238282Y-107424728D01*
X146870591Y-108057037D01*
X146807007Y-108074075D01*
X146692993Y-108139901D01*
X146599901Y-108232993D01*
X146534075Y-108347007D01*
X146517037Y-108410591D01*
X145884728Y-107778282D01*
X145884727Y-107778282D01*
X145845380Y-107832440D01*
X145840483Y-107842051D01*
X145792506Y-107892845D01*
X145724684Y-107909638D01*
X145658550Y-107887098D01*
X145619516Y-107842048D01*
X145614626Y-107832452D01*
X145575270Y-107778282D01*
X145575269Y-107778282D01*
X144942962Y-108410590D01*
X144925925Y-108347007D01*
X144860099Y-108232993D01*
X144767007Y-108139901D01*
X144652993Y-108074075D01*
X144589409Y-108057037D01*
X145221716Y-107424728D01*
X145167550Y-107385375D01*
X144978217Y-107288904D01*
X144949292Y-107279506D01*
X144891616Y-107240068D01*
X144864418Y-107175710D01*
X144876333Y-107106863D01*
X144923577Y-107055388D01*
X144931315Y-107051090D01*
X145062994Y-106983996D01*
X145209501Y-106877553D01*
X145337553Y-106749501D01*
X145443996Y-106602994D01*
X145526211Y-106441639D01*
X145582171Y-106269409D01*
X145603027Y-106137729D01*
X145632956Y-106074595D01*
X145692267Y-106037663D01*
X145762130Y-106038661D01*
G37*
%TD.AperFunction*%
%TA.AperFunction,Conductor*%
G36*
X172443039Y-100320185D02*
G01*
X172488794Y-100372989D01*
X172500000Y-100424500D01*
X172500000Y-130500000D01*
X187575500Y-130500000D01*
X187642539Y-130519685D01*
X187688294Y-130572489D01*
X187699500Y-130624000D01*
X187699500Y-153995572D01*
X187699184Y-154004418D01*
X187699184Y-154004419D01*
X187682833Y-154233019D01*
X187680315Y-154250530D01*
X187632544Y-154470133D01*
X187627560Y-154487109D01*
X187549016Y-154697691D01*
X187541666Y-154713783D01*
X187433961Y-154911032D01*
X187424396Y-154925917D01*
X187289708Y-155105838D01*
X187278123Y-155119207D01*
X187119208Y-155278122D01*
X187105838Y-155289708D01*
X186925917Y-155424396D01*
X186911032Y-155433961D01*
X186713783Y-155541666D01*
X186697691Y-155549016D01*
X186487109Y-155627560D01*
X186470136Y-155632543D01*
X186470133Y-155632544D01*
X186250530Y-155680315D01*
X186233019Y-155682833D01*
X186025320Y-155697688D01*
X186004417Y-155699184D01*
X185995572Y-155699500D01*
X102004428Y-155699500D01*
X101995582Y-155699184D01*
X101766982Y-155682834D01*
X101749470Y-155680316D01*
X101529862Y-155632543D01*
X101512887Y-155627559D01*
X101302311Y-155549019D01*
X101286217Y-155541669D01*
X101088963Y-155433959D01*
X101074080Y-155424394D01*
X100894163Y-155289710D01*
X100880792Y-155278124D01*
X100721875Y-155119207D01*
X100710289Y-155105836D01*
X100575605Y-154925919D01*
X100566040Y-154911036D01*
X100458330Y-154713782D01*
X100450983Y-154697694D01*
X100372437Y-154487103D01*
X100367458Y-154470144D01*
X100319683Y-154250529D01*
X100317165Y-154233017D01*
X100308959Y-154118284D01*
X100300816Y-154004418D01*
X100300500Y-153995572D01*
X100300500Y-149256900D01*
X101349500Y-149256900D01*
X101349500Y-151543091D01*
X101360123Y-151631562D01*
X101415639Y-151772342D01*
X101415640Y-151772344D01*
X101507077Y-151892922D01*
X101571166Y-151941522D01*
X101627658Y-151984361D01*
X101768436Y-152039876D01*
X101856901Y-152050500D01*
X104143098Y-152050499D01*
X104231564Y-152039876D01*
X104372342Y-151984361D01*
X104492922Y-151892922D01*
X104584361Y-151772342D01*
X104639876Y-151631564D01*
X104650500Y-151543099D01*
X104650499Y-150278751D01*
X105110000Y-150278751D01*
X105110000Y-150521248D01*
X105110001Y-150521264D01*
X105141653Y-150761687D01*
X105204421Y-150995939D01*
X105297220Y-151219978D01*
X105297227Y-151219992D01*
X105418481Y-151430010D01*
X105487061Y-151519384D01*
X106205884Y-150800560D01*
X106206740Y-150802626D01*
X106299762Y-150941844D01*
X106418156Y-151060238D01*
X106557374Y-151153260D01*
X106559437Y-151154114D01*
X105840614Y-151872936D01*
X105840614Y-151872937D01*
X105929989Y-151941517D01*
X105929996Y-151941522D01*
X106140007Y-152062772D01*
X106140021Y-152062779D01*
X106364060Y-152155578D01*
X106598312Y-152218346D01*
X106838735Y-152249998D01*
X106838752Y-152250000D01*
X107081248Y-152250000D01*
X107081264Y-152249998D01*
X107321687Y-152218346D01*
X107555939Y-152155578D01*
X107779978Y-152062779D01*
X107779992Y-152062772D01*
X107990016Y-151941515D01*
X108079384Y-151872939D01*
X108079384Y-151872936D01*
X107360562Y-151154114D01*
X107362626Y-151153260D01*
X107501844Y-151060238D01*
X107620238Y-150941844D01*
X107713260Y-150802626D01*
X107714114Y-150800562D01*
X108432936Y-151519384D01*
X108432939Y-151519384D01*
X108501515Y-151430016D01*
X108622772Y-151219992D01*
X108622779Y-151219978D01*
X108651274Y-151151186D01*
X108715578Y-150995939D01*
X108778346Y-150761687D01*
X108809998Y-150521264D01*
X108810000Y-150521248D01*
X108810000Y-150278751D01*
X108809999Y-150278739D01*
X108804642Y-150238051D01*
X108804642Y-150238049D01*
X108778346Y-150038312D01*
X108715578Y-149804060D01*
X108622779Y-149580021D01*
X108622772Y-149580007D01*
X108501522Y-149369996D01*
X108501517Y-149369989D01*
X108432937Y-149280614D01*
X108432936Y-149280614D01*
X107714114Y-149999436D01*
X107713260Y-149997374D01*
X107620238Y-149858156D01*
X107501844Y-149739762D01*
X107362626Y-149646740D01*
X107360560Y-149645884D01*
X108079384Y-148927061D01*
X107990010Y-148858481D01*
X107779992Y-148737227D01*
X107779978Y-148737220D01*
X107555939Y-148644421D01*
X107321687Y-148581653D01*
X107081264Y-148550001D01*
X107081248Y-148550000D01*
X106838752Y-148550000D01*
X106838735Y-148550001D01*
X106598312Y-148581653D01*
X106364060Y-148644421D01*
X106140021Y-148737220D01*
X106140006Y-148737227D01*
X105929990Y-148858480D01*
X105840614Y-148927060D01*
X105840614Y-148927061D01*
X106559438Y-149645885D01*
X106557374Y-149646740D01*
X106418156Y-149739762D01*
X106299762Y-149858156D01*
X106206740Y-149997374D01*
X106205885Y-149999438D01*
X105487061Y-149280614D01*
X105487060Y-149280614D01*
X105418480Y-149369990D01*
X105297227Y-149580006D01*
X105297220Y-149580021D01*
X105204421Y-149804060D01*
X105141653Y-150038312D01*
X105110001Y-150278735D01*
X105110000Y-150278751D01*
X104650499Y-150278751D01*
X104650499Y-149650096D01*
X104670184Y-149583058D01*
X104686813Y-149562421D01*
X109645520Y-144603716D01*
X109724577Y-144466784D01*
X109765501Y-144314057D01*
X109765501Y-144155942D01*
X109724577Y-144003215D01*
X109645520Y-143866284D01*
X109533716Y-143754480D01*
X109396785Y-143675423D01*
X109244058Y-143634499D01*
X109085943Y-143634499D01*
X109009579Y-143654961D01*
X108933214Y-143675423D01*
X108933209Y-143675426D01*
X108796290Y-143754475D01*
X108796282Y-143754481D01*
X103837582Y-148713181D01*
X103776259Y-148746666D01*
X103749901Y-148749500D01*
X101856908Y-148749500D01*
X101768437Y-148760123D01*
X101627657Y-148815639D01*
X101627655Y-148815640D01*
X101507077Y-148907077D01*
X101415640Y-149027655D01*
X101360124Y-149168437D01*
X101360123Y-149168438D01*
X101349500Y-149256900D01*
X100300500Y-149256900D01*
X100300500Y-129367054D01*
X112337498Y-129367054D01*
X112378423Y-129519785D01*
X112407358Y-129569900D01*
X112407359Y-129569904D01*
X112407360Y-129569904D01*
X112457479Y-129656714D01*
X112457481Y-129656717D01*
X112576349Y-129775585D01*
X112576355Y-129775590D01*
X124786139Y-141985374D01*
X124786149Y-141985385D01*
X124790479Y-141989715D01*
X124790480Y-141989716D01*
X124902284Y-142101520D01*
X124989095Y-142151639D01*
X124989097Y-142151641D01*
X125027151Y-142173611D01*
X125039215Y-142180577D01*
X125191943Y-142221501D01*
X125191946Y-142221501D01*
X125350054Y-142221501D01*
X125350057Y-142221501D01*
X125502785Y-142180577D01*
X125552904Y-142151639D01*
X125639716Y-142101520D01*
X125751520Y-141989716D01*
X125817456Y-141875511D01*
X125830577Y-141852785D01*
X125871501Y-141700057D01*
X125871501Y-141541943D01*
X125830577Y-141389215D01*
X125779357Y-141300500D01*
X125751520Y-141252284D01*
X125639716Y-141140480D01*
X125639715Y-141140479D01*
X125635385Y-141136149D01*
X125635374Y-141136139D01*
X124416178Y-139916943D01*
X152941500Y-139916943D01*
X152941500Y-140075056D01*
X152982423Y-140227783D01*
X152982426Y-140227790D01*
X153061475Y-140364709D01*
X153061479Y-140364714D01*
X153061480Y-140364716D01*
X153173284Y-140476520D01*
X153173286Y-140476521D01*
X153173290Y-140476524D01*
X153229233Y-140508822D01*
X153310216Y-140555577D01*
X153462943Y-140596500D01*
X153489356Y-140596500D01*
X153556395Y-140616185D01*
X153577041Y-140632823D01*
X162460443Y-149517088D01*
X162493925Y-149578413D01*
X162488938Y-149648104D01*
X162447064Y-149704036D01*
X162392157Y-149727238D01*
X162230589Y-149752829D01*
X162058363Y-149808787D01*
X162058360Y-149808788D01*
X161897002Y-149891006D01*
X161750505Y-149997441D01*
X161750500Y-149997445D01*
X161622445Y-150125500D01*
X161565374Y-150204052D01*
X161510044Y-150246717D01*
X161440430Y-150252696D01*
X161378635Y-150220090D01*
X161344278Y-150159251D01*
X161341698Y-150143765D01*
X161339506Y-150122303D01*
X161284358Y-149955880D01*
X161284356Y-149955875D01*
X161192315Y-149806654D01*
X161068345Y-149682684D01*
X160919124Y-149590643D01*
X160919119Y-149590641D01*
X160752697Y-149535494D01*
X160752690Y-149535493D01*
X160649986Y-149525000D01*
X160250000Y-149525000D01*
X160250000Y-150595854D01*
X160183343Y-150557370D01*
X160062535Y-150525000D01*
X159937465Y-150525000D01*
X159816657Y-150557370D01*
X159750000Y-150595854D01*
X159750000Y-149525000D01*
X159350028Y-149525000D01*
X159350012Y-149525001D01*
X159247302Y-149535494D01*
X159080880Y-149590641D01*
X159080875Y-149590643D01*
X158931654Y-149682684D01*
X158807684Y-149806654D01*
X158715643Y-149955875D01*
X158715641Y-149955880D01*
X158660494Y-150122302D01*
X158660493Y-150122309D01*
X158650000Y-150225013D01*
X158650000Y-150750000D01*
X159595854Y-150750000D01*
X159557370Y-150816657D01*
X159525000Y-150937465D01*
X159525000Y-151062535D01*
X159557370Y-151183343D01*
X159595854Y-151250000D01*
X158650001Y-151250000D01*
X158650001Y-151774986D01*
X158660494Y-151877697D01*
X158715641Y-152044119D01*
X158715643Y-152044124D01*
X158807684Y-152193345D01*
X158931654Y-152317315D01*
X159080875Y-152409356D01*
X159080880Y-152409358D01*
X159247302Y-152464505D01*
X159247309Y-152464506D01*
X159350019Y-152474999D01*
X159749999Y-152474999D01*
X159750000Y-152474998D01*
X159750000Y-151404145D01*
X159816657Y-151442630D01*
X159937465Y-151475000D01*
X160062535Y-151475000D01*
X160183343Y-151442630D01*
X160250000Y-151404145D01*
X160250000Y-152474999D01*
X160649972Y-152474999D01*
X160649986Y-152474998D01*
X160752697Y-152464505D01*
X160919119Y-152409358D01*
X160919124Y-152409356D01*
X160963483Y-152381995D01*
X182699500Y-152381995D01*
X182699500Y-152618004D01*
X182699501Y-152618020D01*
X182730306Y-152852010D01*
X182791394Y-153079993D01*
X182881714Y-153298045D01*
X182881719Y-153298056D01*
X182952677Y-153420957D01*
X182999727Y-153502450D01*
X182999729Y-153502453D01*
X182999730Y-153502454D01*
X183143406Y-153689697D01*
X183143412Y-153689704D01*
X183310295Y-153856587D01*
X183310301Y-153856592D01*
X183497550Y-154000273D01*
X183628918Y-154076118D01*
X183701943Y-154118280D01*
X183701948Y-154118282D01*
X183701951Y-154118284D01*
X183920007Y-154208606D01*
X184147986Y-154269693D01*
X184381989Y-154300500D01*
X184381996Y-154300500D01*
X184618004Y-154300500D01*
X184618011Y-154300500D01*
X184852014Y-154269693D01*
X185079993Y-154208606D01*
X185298049Y-154118284D01*
X185502450Y-154000273D01*
X185689699Y-153856592D01*
X185856592Y-153689699D01*
X186000273Y-153502450D01*
X186118284Y-153298049D01*
X186208606Y-153079993D01*
X186269693Y-152852014D01*
X186300500Y-152618011D01*
X186300500Y-152381989D01*
X186269693Y-152147986D01*
X186208606Y-151920007D01*
X186118284Y-151701951D01*
X186118282Y-151701948D01*
X186118280Y-151701943D01*
X186076118Y-151628918D01*
X186000273Y-151497550D01*
X185922736Y-151396502D01*
X185856593Y-151310302D01*
X185856587Y-151310295D01*
X185689704Y-151143412D01*
X185689697Y-151143406D01*
X185502454Y-150999730D01*
X185502453Y-150999729D01*
X185502450Y-150999727D01*
X185394609Y-150937465D01*
X185298056Y-150881719D01*
X185298045Y-150881714D01*
X185079993Y-150791394D01*
X184852010Y-150730306D01*
X184618020Y-150699501D01*
X184618017Y-150699500D01*
X184618011Y-150699500D01*
X184381989Y-150699500D01*
X184381983Y-150699500D01*
X184381979Y-150699501D01*
X184147989Y-150730306D01*
X183920006Y-150791394D01*
X183701954Y-150881714D01*
X183701943Y-150881719D01*
X183497545Y-150999730D01*
X183310302Y-151143406D01*
X183310295Y-151143412D01*
X183143412Y-151310295D01*
X183143406Y-151310302D01*
X182999730Y-151497545D01*
X182881719Y-151701943D01*
X182881714Y-151701954D01*
X182791394Y-151920006D01*
X182730306Y-152147989D01*
X182699501Y-152381979D01*
X182699500Y-152381995D01*
X160963483Y-152381995D01*
X161068345Y-152317315D01*
X161192315Y-152193345D01*
X161284356Y-152044124D01*
X161284358Y-152044119D01*
X161339505Y-151877697D01*
X161339506Y-151877689D01*
X161341699Y-151856231D01*
X161368095Y-151791539D01*
X161425276Y-151751388D01*
X161495087Y-151748524D01*
X161555363Y-151783858D01*
X161565376Y-151795949D01*
X161622443Y-151874497D01*
X161750500Y-152002554D01*
X161750505Y-152002558D01*
X161833393Y-152062779D01*
X161897006Y-152108996D01*
X161973528Y-152147986D01*
X162058360Y-152191211D01*
X162058363Y-152191212D01*
X162141875Y-152218346D01*
X162230591Y-152247171D01*
X162313429Y-152260291D01*
X162409449Y-152275500D01*
X162409454Y-152275500D01*
X162590551Y-152275500D01*
X162677259Y-152261765D01*
X162769409Y-152247171D01*
X162941639Y-152191211D01*
X163102994Y-152108996D01*
X163249501Y-152002553D01*
X163377553Y-151874501D01*
X163483996Y-151727994D01*
X163566211Y-151566639D01*
X163566213Y-151566633D01*
X163588114Y-151499228D01*
X163606431Y-151472438D01*
X163623604Y-151444920D01*
X163626032Y-151443771D01*
X163627550Y-151441552D01*
X163657452Y-151428914D01*
X163686768Y-151415053D01*
X163689864Y-151415216D01*
X163691909Y-151414353D01*
X163722059Y-151414583D01*
X163730192Y-151415642D01*
X163766982Y-151425500D01*
X163805883Y-151425500D01*
X163813853Y-151426538D01*
X163838765Y-151437517D01*
X163864878Y-151445185D01*
X163870262Y-151451398D01*
X163877789Y-151454716D01*
X163892810Y-151477420D01*
X163910633Y-151497989D01*
X163915770Y-151511183D01*
X163933786Y-151566633D01*
X163933788Y-151566639D01*
X163966869Y-151631562D01*
X164002734Y-151701951D01*
X164016006Y-151727997D01*
X164122441Y-151874494D01*
X164122445Y-151874499D01*
X164250500Y-152002554D01*
X164250505Y-152002558D01*
X164333393Y-152062779D01*
X164397006Y-152108996D01*
X164473528Y-152147986D01*
X164558360Y-152191211D01*
X164558363Y-152191212D01*
X164641875Y-152218346D01*
X164730591Y-152247171D01*
X164813429Y-152260291D01*
X164909449Y-152275500D01*
X164909454Y-152275500D01*
X165090551Y-152275500D01*
X165217095Y-152255457D01*
X165231189Y-152253224D01*
X165269409Y-152247171D01*
X165441639Y-152191211D01*
X165602994Y-152108996D01*
X165749501Y-152002553D01*
X165877553Y-151874501D01*
X165983996Y-151727994D01*
X166066211Y-151566639D01*
X166066213Y-151566633D01*
X166084230Y-151511183D01*
X166123667Y-151453507D01*
X166188025Y-151426308D01*
X166202161Y-151425500D01*
X166233016Y-151425500D01*
X166233018Y-151425500D01*
X166341237Y-151396503D01*
X166438263Y-151340485D01*
X169108053Y-148670692D01*
X169108058Y-148670689D01*
X169118261Y-148660485D01*
X169118263Y-148660485D01*
X169197485Y-148581263D01*
X169253503Y-148484237D01*
X169282500Y-148376018D01*
X169282500Y-139544982D01*
X169253503Y-139436763D01*
X169197485Y-139339737D01*
X169118263Y-139260515D01*
X167171819Y-137314071D01*
X167138334Y-137252748D01*
X167135500Y-137226390D01*
X167135500Y-137199945D01*
X167135500Y-137199943D01*
X167094577Y-137047216D01*
X167084181Y-137029209D01*
X167015524Y-136910290D01*
X167015518Y-136910282D01*
X166903717Y-136798481D01*
X166903709Y-136798475D01*
X166766790Y-136719426D01*
X166766786Y-136719424D01*
X166766784Y-136719423D01*
X166614057Y-136678500D01*
X166455943Y-136678500D01*
X166329593Y-136712355D01*
X166304598Y-136711759D01*
X166279853Y-136715318D01*
X166270272Y-136710942D01*
X166259743Y-136710692D01*
X166239039Y-136696679D01*
X166216297Y-136686293D01*
X166210602Y-136677431D01*
X166201881Y-136671529D01*
X166192040Y-136648548D01*
X166178523Y-136627515D01*
X166176243Y-136611657D01*
X166174377Y-136607300D01*
X166173500Y-136592580D01*
X166173500Y-136484098D01*
X166193185Y-136417059D01*
X166209819Y-136396417D01*
X166228520Y-136377716D01*
X166307577Y-136240784D01*
X166348500Y-136088057D01*
X166348500Y-135929943D01*
X166307577Y-135777216D01*
X166297181Y-135759209D01*
X166228524Y-135640290D01*
X166228518Y-135640282D01*
X166116717Y-135528481D01*
X166116709Y-135528475D01*
X165979790Y-135449426D01*
X165979786Y-135449424D01*
X165979784Y-135449423D01*
X165827057Y-135408500D01*
X165668943Y-135408500D01*
X165516216Y-135449423D01*
X165516209Y-135449426D01*
X165379290Y-135528475D01*
X165379282Y-135528481D01*
X165267481Y-135640282D01*
X165267475Y-135640290D01*
X165188426Y-135777209D01*
X165188423Y-135777216D01*
X165147500Y-135929943D01*
X165147500Y-136088056D01*
X165188423Y-136240783D01*
X165188426Y-136240790D01*
X165267475Y-136377709D01*
X165267481Y-136377717D01*
X165286181Y-136396417D01*
X165319666Y-136457740D01*
X165322500Y-136484098D01*
X165322500Y-139753982D01*
X165322500Y-139866018D01*
X165351497Y-139974237D01*
X165407515Y-140071263D01*
X165407517Y-140071265D01*
X167588181Y-142251929D01*
X167621666Y-142313252D01*
X167624500Y-142339610D01*
X167624500Y-142366057D01*
X167651758Y-142467783D01*
X167665423Y-142518783D01*
X167665426Y-142518790D01*
X167744475Y-142655709D01*
X167744479Y-142655714D01*
X167744480Y-142655716D01*
X167856284Y-142767520D01*
X167856286Y-142767521D01*
X167856290Y-142767524D01*
X167975760Y-142836499D01*
X167993216Y-142846577D01*
X168145943Y-142887500D01*
X168145945Y-142887500D01*
X168307500Y-142887500D01*
X168374539Y-142907185D01*
X168420294Y-142959989D01*
X168431500Y-143011500D01*
X168431500Y-148092389D01*
X168411815Y-148159428D01*
X168395181Y-148180070D01*
X166212438Y-150362812D01*
X166151115Y-150396297D01*
X166081423Y-150391313D01*
X166025490Y-150349441D01*
X166014272Y-150331426D01*
X166006556Y-150316282D01*
X165983996Y-150272006D01*
X165934625Y-150204052D01*
X165877558Y-150125505D01*
X165877554Y-150125500D01*
X165749499Y-149997445D01*
X165749494Y-149997441D01*
X165602997Y-149891006D01*
X165602996Y-149891005D01*
X165602994Y-149891004D01*
X165538527Y-149858156D01*
X165441639Y-149808788D01*
X165441636Y-149808787D01*
X165269410Y-149752829D01*
X165090551Y-149724500D01*
X165090546Y-149724500D01*
X164909454Y-149724500D01*
X164909449Y-149724500D01*
X164730589Y-149752829D01*
X164558363Y-149808787D01*
X164558360Y-149808788D01*
X164397006Y-149891003D01*
X164274608Y-149979930D01*
X164208801Y-150003409D01*
X164140747Y-149987583D01*
X164114037Y-149967288D01*
X154178814Y-140031098D01*
X154145333Y-139969773D01*
X154142500Y-139943421D01*
X154142500Y-139916945D01*
X154142500Y-139916943D01*
X154101577Y-139764216D01*
X154101573Y-139764209D01*
X154022524Y-139627290D01*
X154022518Y-139627282D01*
X153910717Y-139515481D01*
X153910709Y-139515475D01*
X153773790Y-139436426D01*
X153773786Y-139436424D01*
X153773784Y-139436423D01*
X153621057Y-139395500D01*
X153462943Y-139395500D01*
X153310216Y-139436423D01*
X153310209Y-139436426D01*
X153173290Y-139515475D01*
X153173282Y-139515481D01*
X153061481Y-139627282D01*
X153061475Y-139627290D01*
X152982426Y-139764209D01*
X152982423Y-139764216D01*
X152941500Y-139916943D01*
X124416178Y-139916943D01*
X113574819Y-129075584D01*
X113541334Y-129014261D01*
X113538500Y-128987903D01*
X113538500Y-124920026D01*
X141438498Y-124920026D01*
X141438502Y-124920057D01*
X141438712Y-124920815D01*
X141452557Y-124972483D01*
X141452557Y-124972490D01*
X141452559Y-124972490D01*
X141467258Y-125027357D01*
X141467525Y-125028355D01*
X141468542Y-125030047D01*
X141497658Y-125080477D01*
X141497660Y-125080481D01*
X141523505Y-125125250D01*
X141523519Y-125125268D01*
X141573053Y-125174801D01*
X141573056Y-125174807D01*
X141573058Y-125174806D01*
X153579228Y-137181945D01*
X153623185Y-137225905D01*
X153656667Y-137287230D01*
X153659500Y-137313583D01*
X153659500Y-137340056D01*
X153700423Y-137492783D01*
X153700426Y-137492790D01*
X153779475Y-137629709D01*
X153779479Y-137629714D01*
X153779480Y-137629716D01*
X153891284Y-137741520D01*
X153891286Y-137741521D01*
X153891290Y-137741524D01*
X153977669Y-137791394D01*
X154028216Y-137820577D01*
X154180943Y-137861500D01*
X154180945Y-137861500D01*
X154339055Y-137861500D01*
X154339057Y-137861500D01*
X154491784Y-137820577D01*
X154628716Y-137741520D01*
X154740520Y-137629716D01*
X154819577Y-137492784D01*
X154860500Y-137340057D01*
X154860500Y-137181943D01*
X154819577Y-137029216D01*
X154750916Y-136910290D01*
X154740524Y-136892290D01*
X154740518Y-136892282D01*
X154628717Y-136780481D01*
X154628709Y-136780475D01*
X154491790Y-136701426D01*
X154491786Y-136701424D01*
X154491784Y-136701423D01*
X154339057Y-136660500D01*
X154339056Y-136660500D01*
X154312638Y-136660500D01*
X154245599Y-136640815D01*
X154224953Y-136624178D01*
X149811129Y-132209998D01*
X149777647Y-132148673D01*
X149782634Y-132078982D01*
X149824508Y-132023050D01*
X149866716Y-132002547D01*
X149933784Y-131984577D01*
X150070716Y-131905520D01*
X150182520Y-131793716D01*
X150261577Y-131656784D01*
X150302500Y-131504057D01*
X150302500Y-131345943D01*
X150261577Y-131193216D01*
X150261573Y-131193209D01*
X150182524Y-131056290D01*
X150182518Y-131056282D01*
X150070717Y-130944481D01*
X150070709Y-130944475D01*
X149933790Y-130865426D01*
X149933786Y-130865424D01*
X149933784Y-130865423D01*
X149781057Y-130824500D01*
X149781056Y-130824500D01*
X149754747Y-130824500D01*
X149687708Y-130804815D01*
X149667048Y-130788163D01*
X147975734Y-129096163D01*
X147942261Y-129034834D01*
X147947260Y-128965143D01*
X147989143Y-128909218D01*
X148054612Y-128884814D01*
X148063433Y-128884500D01*
X150472390Y-128884500D01*
X150539429Y-128904185D01*
X150560071Y-128920819D01*
X157595181Y-135955929D01*
X157628666Y-136017252D01*
X157631500Y-136043610D01*
X157631500Y-136070056D01*
X157672423Y-136222783D01*
X157672426Y-136222790D01*
X157751475Y-136359709D01*
X157751479Y-136359714D01*
X157751480Y-136359716D01*
X157863284Y-136471520D01*
X157863286Y-136471521D01*
X157863290Y-136471524D01*
X158000209Y-136550573D01*
X158000216Y-136550577D01*
X158152943Y-136591500D01*
X158152945Y-136591500D01*
X158311055Y-136591500D01*
X158311057Y-136591500D01*
X158463784Y-136550577D01*
X158600716Y-136471520D01*
X158712520Y-136359716D01*
X158791577Y-136222784D01*
X158832500Y-136070057D01*
X158832500Y-135911943D01*
X158791577Y-135759216D01*
X158722916Y-135640290D01*
X158712524Y-135622290D01*
X158712518Y-135622282D01*
X158600717Y-135510481D01*
X158600709Y-135510475D01*
X158463790Y-135431426D01*
X158463786Y-135431424D01*
X158463784Y-135431423D01*
X158311057Y-135390500D01*
X158311056Y-135390500D01*
X158284610Y-135390500D01*
X158217571Y-135370815D01*
X158196929Y-135354181D01*
X150961265Y-128118517D01*
X150961263Y-128118515D01*
X150864237Y-128062497D01*
X150858358Y-128060062D01*
X150803953Y-128016222D01*
X150781887Y-127949928D01*
X150799165Y-127882229D01*
X150850301Y-127834617D01*
X150905808Y-127821500D01*
X160907378Y-127821500D01*
X160974417Y-127841185D01*
X160995063Y-127857822D01*
X165042454Y-131905518D01*
X173809290Y-140673015D01*
X173949185Y-140812920D01*
X173982667Y-140874244D01*
X173985500Y-140900598D01*
X173985500Y-141760902D01*
X173965815Y-141827941D01*
X173949181Y-141848583D01*
X173930481Y-141867282D01*
X173930475Y-141867290D01*
X173851426Y-142004209D01*
X173851423Y-142004216D01*
X173810500Y-142156943D01*
X173810500Y-142315057D01*
X173824166Y-142366057D01*
X173851423Y-142467783D01*
X173851426Y-142467790D01*
X173930475Y-142604709D01*
X173930479Y-142604714D01*
X173930480Y-142604716D01*
X174042284Y-142716520D01*
X174042286Y-142716521D01*
X174042290Y-142716524D01*
X174130616Y-142767518D01*
X174179216Y-142795577D01*
X174331943Y-142836500D01*
X174331945Y-142836500D01*
X174490055Y-142836500D01*
X174490057Y-142836500D01*
X174642784Y-142795577D01*
X174779716Y-142716520D01*
X174891520Y-142604716D01*
X174970577Y-142467784D01*
X175011500Y-142315057D01*
X175011500Y-142156943D01*
X174970577Y-142004216D01*
X174970573Y-142004209D01*
X174891524Y-141867290D01*
X174891518Y-141867282D01*
X174872819Y-141848583D01*
X174839334Y-141787260D01*
X174836500Y-141760902D01*
X174836500Y-140673015D01*
X174836502Y-140616997D01*
X174836500Y-140616989D01*
X174836500Y-140616982D01*
X174820047Y-140555577D01*
X174807728Y-140509598D01*
X174807527Y-140508822D01*
X174807503Y-140508762D01*
X174776018Y-140454229D01*
X174776016Y-140454226D01*
X174768433Y-140441092D01*
X174751494Y-140411749D01*
X174751492Y-140411747D01*
X174751491Y-140411745D01*
X174751484Y-140411736D01*
X174711670Y-140371922D01*
X174711667Y-140371918D01*
X174711667Y-140371919D01*
X173721818Y-139381995D01*
X182699500Y-139381995D01*
X182699500Y-139618004D01*
X182699501Y-139618020D01*
X182730306Y-139852010D01*
X182791394Y-140079993D01*
X182881714Y-140298045D01*
X182881719Y-140298056D01*
X182947353Y-140411736D01*
X182999727Y-140502450D01*
X182999729Y-140502453D01*
X182999730Y-140502454D01*
X183143406Y-140689697D01*
X183143412Y-140689704D01*
X183310295Y-140856587D01*
X183310302Y-140856593D01*
X183367651Y-140900598D01*
X183497550Y-141000273D01*
X183628918Y-141076118D01*
X183701943Y-141118280D01*
X183701948Y-141118282D01*
X183701951Y-141118284D01*
X183920007Y-141208606D01*
X184147986Y-141269693D01*
X184381989Y-141300500D01*
X184381996Y-141300500D01*
X184618004Y-141300500D01*
X184618011Y-141300500D01*
X184852014Y-141269693D01*
X185079993Y-141208606D01*
X185298049Y-141118284D01*
X185502450Y-141000273D01*
X185689699Y-140856592D01*
X185856592Y-140689699D01*
X186000273Y-140502450D01*
X186118284Y-140298049D01*
X186208606Y-140079993D01*
X186269693Y-139852014D01*
X186300500Y-139618011D01*
X186300500Y-139381989D01*
X186269693Y-139147986D01*
X186208606Y-138920007D01*
X186118284Y-138701951D01*
X186118282Y-138701948D01*
X186118280Y-138701943D01*
X186076118Y-138628918D01*
X186000273Y-138497550D01*
X185856592Y-138310301D01*
X185856587Y-138310295D01*
X185689704Y-138143412D01*
X185689697Y-138143406D01*
X185502454Y-137999730D01*
X185502453Y-137999729D01*
X185502450Y-137999727D01*
X185407338Y-137944814D01*
X185298056Y-137881719D01*
X185298045Y-137881714D01*
X185079993Y-137791394D01*
X184852010Y-137730306D01*
X184618020Y-137699501D01*
X184618017Y-137699500D01*
X184618011Y-137699500D01*
X184381989Y-137699500D01*
X184381983Y-137699500D01*
X184381979Y-137699501D01*
X184147989Y-137730306D01*
X183920006Y-137791394D01*
X183701954Y-137881714D01*
X183701943Y-137881719D01*
X183497545Y-137999730D01*
X183310302Y-138143406D01*
X183310295Y-138143412D01*
X183143412Y-138310295D01*
X183143406Y-138310302D01*
X182999730Y-138497545D01*
X182881719Y-138701943D01*
X182881714Y-138701954D01*
X182791394Y-138920006D01*
X182730306Y-139147989D01*
X182699501Y-139381979D01*
X182699500Y-139381995D01*
X173721818Y-139381995D01*
X161475489Y-127134744D01*
X161475485Y-127134737D01*
X161436102Y-127095354D01*
X161436100Y-127095351D01*
X161396281Y-127055529D01*
X161396263Y-127055515D01*
X161349324Y-127028415D01*
X161349319Y-127028412D01*
X161299251Y-126999502D01*
X161299245Y-126999499D01*
X161249027Y-126986043D01*
X161249027Y-126986042D01*
X161249024Y-126986042D01*
X161229596Y-126980835D01*
X161191034Y-126970502D01*
X161191025Y-126970501D01*
X161191018Y-126970500D01*
X161135016Y-126970500D01*
X161134216Y-126970499D01*
X161134145Y-126970499D01*
X161085752Y-126970498D01*
X161078998Y-126970498D01*
X161078997Y-126970498D01*
X161070374Y-126970498D01*
X161070346Y-126970500D01*
X146614610Y-126970500D01*
X146547571Y-126950815D01*
X146526929Y-126934181D01*
X144853831Y-125261083D01*
X144820346Y-125199760D01*
X144825330Y-125130068D01*
X144867202Y-125074135D01*
X144903195Y-125055471D01*
X144978215Y-125031096D01*
X145167554Y-124934622D01*
X145221716Y-124895270D01*
X145221717Y-124895270D01*
X144589409Y-124262962D01*
X144652993Y-124245925D01*
X144767007Y-124180099D01*
X144860099Y-124087007D01*
X144925925Y-123972993D01*
X144942962Y-123909409D01*
X145575270Y-124541717D01*
X145575270Y-124541716D01*
X145614622Y-124487554D01*
X145711095Y-124298217D01*
X145720492Y-124269295D01*
X145759928Y-124211618D01*
X145824286Y-124184419D01*
X145893133Y-124196331D01*
X145944610Y-124243574D01*
X145948908Y-124251314D01*
X146016004Y-124382995D01*
X146122441Y-124529494D01*
X146122445Y-124529499D01*
X146250500Y-124657554D01*
X146250505Y-124657558D01*
X146378287Y-124750396D01*
X146397006Y-124763996D01*
X146502484Y-124817740D01*
X146558360Y-124846211D01*
X146558363Y-124846212D01*
X146644476Y-124874191D01*
X146730591Y-124902171D01*
X146813429Y-124915291D01*
X146909449Y-124930500D01*
X146909454Y-124930500D01*
X147090551Y-124930500D01*
X147177259Y-124916765D01*
X147269409Y-124902171D01*
X147441639Y-124846211D01*
X147602994Y-124763996D01*
X147749501Y-124657553D01*
X147877553Y-124529501D01*
X147983996Y-124382994D01*
X148039937Y-124273203D01*
X148087910Y-124222409D01*
X148150421Y-124205500D01*
X152980016Y-124205500D01*
X152980018Y-124205500D01*
X153088237Y-124176503D01*
X153185263Y-124120485D01*
X158316928Y-118988818D01*
X158378251Y-118955334D01*
X158404609Y-118952500D01*
X158431055Y-118952500D01*
X158431057Y-118952500D01*
X158583784Y-118911577D01*
X158720716Y-118832520D01*
X158832520Y-118720716D01*
X158911577Y-118583784D01*
X158952500Y-118431057D01*
X158952500Y-118404737D01*
X158972185Y-118337698D01*
X158988831Y-118317042D01*
X161252225Y-116054506D01*
X161252263Y-116054485D01*
X161294452Y-116012295D01*
X161331214Y-115975548D01*
X161331458Y-115975307D01*
X161331460Y-115975304D01*
X161331465Y-115975297D01*
X161331466Y-115975295D01*
X161331483Y-115975264D01*
X161331485Y-115975263D01*
X161360280Y-115925387D01*
X161360281Y-115925387D01*
X161360287Y-115925374D01*
X161387472Y-115878312D01*
X161387473Y-115878305D01*
X161387490Y-115878277D01*
X161387499Y-115878243D01*
X161387503Y-115878237D01*
X161401467Y-115826119D01*
X161416490Y-115770099D01*
X161416490Y-115770090D01*
X161416500Y-115770016D01*
X161416500Y-115716748D01*
X161416511Y-115658062D01*
X161416500Y-115658020D01*
X161416500Y-110727098D01*
X161436185Y-110660059D01*
X161452819Y-110639417D01*
X161453881Y-110638355D01*
X161471520Y-110620716D01*
X161550577Y-110483784D01*
X161591500Y-110331057D01*
X161591500Y-110172943D01*
X161550577Y-110020216D01*
X161488742Y-109913113D01*
X161471524Y-109883290D01*
X161471518Y-109883282D01*
X161359717Y-109771481D01*
X161359709Y-109771475D01*
X161222790Y-109692426D01*
X161222786Y-109692424D01*
X161222784Y-109692423D01*
X161070057Y-109651500D01*
X160911943Y-109651500D01*
X160759216Y-109692423D01*
X160759209Y-109692426D01*
X160622290Y-109771475D01*
X160622282Y-109771481D01*
X160510481Y-109883282D01*
X160510475Y-109883290D01*
X160431426Y-110020209D01*
X160431423Y-110020216D01*
X160390500Y-110172943D01*
X160390500Y-110331057D01*
X160430623Y-110480796D01*
X160431423Y-110483783D01*
X160431426Y-110483790D01*
X160510475Y-110620709D01*
X160510481Y-110620717D01*
X160529181Y-110639417D01*
X160562666Y-110700740D01*
X160565500Y-110727098D01*
X160565500Y-115486328D01*
X160545815Y-115553367D01*
X160529165Y-115574026D01*
X159474347Y-116628444D01*
X158486513Y-117615905D01*
X158387182Y-117715198D01*
X158325852Y-117748671D01*
X158299517Y-117751500D01*
X158272943Y-117751500D01*
X158120216Y-117792423D01*
X158120209Y-117792426D01*
X157983290Y-117871475D01*
X157983282Y-117871481D01*
X157871481Y-117983282D01*
X157871475Y-117983290D01*
X157792426Y-118120209D01*
X157792423Y-118120216D01*
X157751500Y-118272943D01*
X157751500Y-118299390D01*
X157731815Y-118366429D01*
X157715181Y-118387071D01*
X152784071Y-123318181D01*
X152722748Y-123351666D01*
X152696390Y-123354500D01*
X148150421Y-123354500D01*
X148083382Y-123334815D01*
X148039937Y-123286796D01*
X147983996Y-123177006D01*
X147983994Y-123177003D01*
X147983993Y-123177001D01*
X147877558Y-123030505D01*
X147877554Y-123030500D01*
X147749499Y-122902445D01*
X147749494Y-122902441D01*
X147602997Y-122796006D01*
X147602996Y-122796005D01*
X147602994Y-122796004D01*
X147551300Y-122769664D01*
X147441639Y-122713788D01*
X147441636Y-122713787D01*
X147269410Y-122657829D01*
X147109321Y-122632473D01*
X147046186Y-122602544D01*
X147009255Y-122543232D01*
X147010253Y-122473370D01*
X147048863Y-122415137D01*
X147109321Y-122387527D01*
X147179425Y-122376422D01*
X147269409Y-122362171D01*
X147441639Y-122306211D01*
X147602994Y-122223996D01*
X147749501Y-122117553D01*
X147877553Y-121989501D01*
X147983996Y-121842994D01*
X148066211Y-121681639D01*
X148122171Y-121509409D01*
X148136765Y-121417259D01*
X148150500Y-121330551D01*
X148150500Y-121149448D01*
X148134019Y-121045397D01*
X148122171Y-120970591D01*
X148066211Y-120798361D01*
X148066211Y-120798360D01*
X148033015Y-120733210D01*
X147983996Y-120637006D01*
X147970396Y-120618287D01*
X147877558Y-120490505D01*
X147877554Y-120490500D01*
X147749499Y-120362445D01*
X147749494Y-120362441D01*
X147602997Y-120256006D01*
X147602996Y-120256005D01*
X147602994Y-120256004D01*
X147551300Y-120229664D01*
X147441639Y-120173788D01*
X147441636Y-120173787D01*
X147269410Y-120117829D01*
X147109321Y-120092473D01*
X147046186Y-120062544D01*
X147009255Y-120003232D01*
X147010253Y-119933370D01*
X147048863Y-119875137D01*
X147109321Y-119847527D01*
X147179425Y-119836422D01*
X147269409Y-119822171D01*
X147441639Y-119766211D01*
X147602994Y-119683996D01*
X147749501Y-119577553D01*
X147877553Y-119449501D01*
X147983996Y-119302994D01*
X148039937Y-119193203D01*
X148087910Y-119142409D01*
X148150421Y-119125500D01*
X153240016Y-119125500D01*
X153240018Y-119125500D01*
X153348237Y-119096503D01*
X153445263Y-119040485D01*
X157943929Y-114541819D01*
X158005252Y-114508334D01*
X158031610Y-114505500D01*
X158058055Y-114505500D01*
X158058057Y-114505500D01*
X158210784Y-114464577D01*
X158347716Y-114385520D01*
X158459520Y-114273716D01*
X158538577Y-114136784D01*
X158579500Y-113984057D01*
X158579500Y-113825943D01*
X158538577Y-113673216D01*
X158513773Y-113630253D01*
X158459524Y-113536290D01*
X158459518Y-113536282D01*
X158347715Y-113424479D01*
X158317135Y-113406824D01*
X158268920Y-113356257D01*
X158255698Y-113287649D01*
X158281666Y-113222785D01*
X158317139Y-113192048D01*
X158326716Y-113186520D01*
X158438520Y-113074716D01*
X158517577Y-112937784D01*
X158558500Y-112785057D01*
X158558500Y-112626943D01*
X158517577Y-112474216D01*
X158514551Y-112468975D01*
X158438524Y-112337290D01*
X158438518Y-112337282D01*
X158326717Y-112225481D01*
X158326709Y-112225475D01*
X158189790Y-112146426D01*
X158189786Y-112146424D01*
X158189784Y-112146423D01*
X158037057Y-112105500D01*
X157878943Y-112105500D01*
X157726216Y-112146423D01*
X157726209Y-112146426D01*
X157589290Y-112225475D01*
X157589282Y-112225481D01*
X157477481Y-112337282D01*
X157477475Y-112337290D01*
X157398426Y-112474209D01*
X157398423Y-112474216D01*
X157357500Y-112626943D01*
X157357500Y-112653459D01*
X157337815Y-112720498D01*
X157321190Y-112741131D01*
X153014046Y-117049172D01*
X152952727Y-117082663D01*
X152926356Y-117085500D01*
X147993046Y-117085500D01*
X147926007Y-117065815D01*
X147880252Y-117013011D01*
X147870308Y-116943853D01*
X147892728Y-116888615D01*
X147927860Y-116840258D01*
X147983996Y-116762994D01*
X148066211Y-116601639D01*
X148122171Y-116429409D01*
X148136765Y-116337259D01*
X148150500Y-116250551D01*
X148150500Y-116069448D01*
X148127678Y-115925361D01*
X148122171Y-115890591D01*
X148094191Y-115804476D01*
X148066212Y-115718363D01*
X148066211Y-115718360D01*
X148035487Y-115658062D01*
X147983996Y-115557006D01*
X147903766Y-115446578D01*
X147877558Y-115410505D01*
X147877554Y-115410500D01*
X147749499Y-115282445D01*
X147749494Y-115282441D01*
X147602997Y-115176006D01*
X147602996Y-115176005D01*
X147602994Y-115176004D01*
X147533740Y-115140717D01*
X147441639Y-115093788D01*
X147441636Y-115093787D01*
X147269410Y-115037829D01*
X147109321Y-115012473D01*
X147046186Y-114982544D01*
X147009255Y-114923232D01*
X147010253Y-114853370D01*
X147048863Y-114795137D01*
X147109321Y-114767527D01*
X147179425Y-114756422D01*
X147269409Y-114742171D01*
X147441639Y-114686211D01*
X147602994Y-114603996D01*
X147749501Y-114497553D01*
X147877553Y-114369501D01*
X147983996Y-114222994D01*
X148066211Y-114061639D01*
X148122171Y-113889409D01*
X148136765Y-113797259D01*
X148150500Y-113710551D01*
X148150500Y-113529448D01*
X148130036Y-113400248D01*
X148122171Y-113350591D01*
X148080645Y-113222785D01*
X148066212Y-113178363D01*
X148066211Y-113178360D01*
X148013401Y-113074717D01*
X147983996Y-113017006D01*
X147926438Y-112937784D01*
X147877558Y-112870505D01*
X147877554Y-112870500D01*
X147749499Y-112742445D01*
X147749494Y-112742441D01*
X147602997Y-112636006D01*
X147602996Y-112636005D01*
X147602994Y-112636004D01*
X147533728Y-112600711D01*
X147441639Y-112553788D01*
X147441636Y-112553787D01*
X147269410Y-112497829D01*
X147109321Y-112472473D01*
X147046186Y-112442544D01*
X147009255Y-112383232D01*
X147010253Y-112313370D01*
X147048863Y-112255137D01*
X147109321Y-112227527D01*
X147179425Y-112216422D01*
X147269409Y-112202171D01*
X147441639Y-112146211D01*
X147602994Y-112063996D01*
X147749501Y-111957553D01*
X147877553Y-111829501D01*
X147983996Y-111682994D01*
X148066211Y-111521639D01*
X148122171Y-111349409D01*
X148136765Y-111257259D01*
X148150500Y-111170551D01*
X148150500Y-110989448D01*
X148134019Y-110885397D01*
X148122171Y-110810591D01*
X148066211Y-110638361D01*
X148066211Y-110638360D01*
X148030055Y-110567402D01*
X147983996Y-110477006D01*
X147936858Y-110412126D01*
X147877558Y-110330505D01*
X147877554Y-110330500D01*
X147749499Y-110202445D01*
X147749494Y-110202441D01*
X147602995Y-110096004D01*
X147471314Y-110028908D01*
X147420519Y-109980934D01*
X147403724Y-109913113D01*
X147426262Y-109846978D01*
X147480977Y-109803527D01*
X147489295Y-109800492D01*
X147518217Y-109791095D01*
X147707554Y-109694622D01*
X147761716Y-109655270D01*
X147761717Y-109655270D01*
X147129408Y-109022962D01*
X147192993Y-109005925D01*
X147307007Y-108940099D01*
X147400099Y-108847007D01*
X147465925Y-108732993D01*
X147482962Y-108669408D01*
X148115270Y-109301717D01*
X148115270Y-109301716D01*
X148154622Y-109247554D01*
X148251095Y-109058217D01*
X148316757Y-108856130D01*
X148316757Y-108856127D01*
X148350000Y-108646246D01*
X148350000Y-108433753D01*
X148316757Y-108223872D01*
X148316757Y-108223869D01*
X148251095Y-108021782D01*
X148154624Y-107832449D01*
X148115270Y-107778282D01*
X148115269Y-107778282D01*
X147482962Y-108410590D01*
X147465925Y-108347007D01*
X147400099Y-108232993D01*
X147307007Y-108139901D01*
X147192993Y-108074075D01*
X147129409Y-108057037D01*
X147761716Y-107424728D01*
X147707550Y-107385375D01*
X147706786Y-107384986D01*
X147706546Y-107384759D01*
X147703396Y-107382829D01*
X147703801Y-107382167D01*
X147655988Y-107337013D01*
X147639191Y-107269192D01*
X147661726Y-107203057D01*
X147716440Y-107159604D01*
X147763076Y-107150499D01*
X147894864Y-107150499D01*
X147894879Y-107150497D01*
X147894882Y-107150497D01*
X147919987Y-107147586D01*
X147919988Y-107147585D01*
X147919991Y-107147585D01*
X148022765Y-107102206D01*
X148102206Y-107022765D01*
X148147585Y-106919991D01*
X148150500Y-106894865D01*
X148150499Y-105105136D01*
X148150497Y-105105117D01*
X148147586Y-105080012D01*
X148147585Y-105080010D01*
X148147585Y-105080009D01*
X148102206Y-104977235D01*
X148022765Y-104897794D01*
X148022763Y-104897793D01*
X147919992Y-104852415D01*
X147894865Y-104849500D01*
X146105143Y-104849500D01*
X146105117Y-104849502D01*
X146080012Y-104852413D01*
X146080008Y-104852415D01*
X145977235Y-104897793D01*
X145897794Y-104977234D01*
X145852415Y-105080006D01*
X145852415Y-105080008D01*
X145849500Y-105105131D01*
X145849500Y-105842871D01*
X145829815Y-105909910D01*
X145777011Y-105955665D01*
X145707853Y-105965609D01*
X145644297Y-105936584D01*
X145606523Y-105877806D01*
X145603027Y-105862269D01*
X145596107Y-105818585D01*
X145582171Y-105730591D01*
X145526211Y-105558361D01*
X145526211Y-105558360D01*
X145497740Y-105502484D01*
X145443996Y-105397006D01*
X145373881Y-105300500D01*
X145337558Y-105250505D01*
X145337554Y-105250500D01*
X145209499Y-105122445D01*
X145209494Y-105122441D01*
X145062997Y-105016006D01*
X145062996Y-105016005D01*
X145062994Y-105016004D01*
X144986906Y-104977235D01*
X144901639Y-104933788D01*
X144901636Y-104933787D01*
X144729410Y-104877829D01*
X144550551Y-104849500D01*
X144550546Y-104849500D01*
X144369454Y-104849500D01*
X144369449Y-104849500D01*
X144190589Y-104877829D01*
X144018363Y-104933787D01*
X144018360Y-104933788D01*
X143857002Y-105016006D01*
X143710505Y-105122441D01*
X143710500Y-105122445D01*
X143582445Y-105250500D01*
X143582441Y-105250505D01*
X143476006Y-105397002D01*
X143393788Y-105558360D01*
X143393787Y-105558363D01*
X143337829Y-105730589D01*
X143309500Y-105909448D01*
X143309500Y-106090551D01*
X143337829Y-106269410D01*
X143393787Y-106441636D01*
X143393788Y-106441639D01*
X143476006Y-106602997D01*
X143582441Y-106749494D01*
X143582445Y-106749499D01*
X143710500Y-106877554D01*
X143710505Y-106877558D01*
X143838287Y-106970396D01*
X143857006Y-106983996D01*
X143933092Y-107022764D01*
X143988684Y-107051090D01*
X144039480Y-107099065D01*
X144056275Y-107166886D01*
X144033737Y-107233021D01*
X143979022Y-107276472D01*
X143970708Y-107279506D01*
X143941781Y-107288905D01*
X143752439Y-107385380D01*
X143698282Y-107424727D01*
X143698282Y-107424728D01*
X144330591Y-108057037D01*
X144267007Y-108074075D01*
X144152993Y-108139901D01*
X144059901Y-108232993D01*
X143994075Y-108347007D01*
X143977037Y-108410591D01*
X143344728Y-107778282D01*
X143344727Y-107778282D01*
X143305380Y-107832439D01*
X143208904Y-108021782D01*
X143143242Y-108223869D01*
X143143242Y-108223872D01*
X143110000Y-108433753D01*
X143110000Y-108646246D01*
X143143242Y-108856127D01*
X143143242Y-108856130D01*
X143208904Y-109058217D01*
X143305375Y-109247550D01*
X143344728Y-109301716D01*
X143977037Y-108669408D01*
X143994075Y-108732993D01*
X144059901Y-108847007D01*
X144152993Y-108940099D01*
X144267007Y-109005925D01*
X144330590Y-109022962D01*
X143912932Y-109440620D01*
X143857346Y-109472713D01*
X143835766Y-109478495D01*
X143835759Y-109478498D01*
X143738740Y-109534512D01*
X143738734Y-109534517D01*
X141523517Y-111749734D01*
X141523513Y-111749740D01*
X141467498Y-111846760D01*
X141467497Y-111846763D01*
X141438500Y-111954982D01*
X141438500Y-124863986D01*
X141438498Y-124920026D01*
X113538500Y-124920026D01*
X113538500Y-112387945D01*
X113538500Y-112387943D01*
X113497577Y-112235216D01*
X113456515Y-112164094D01*
X113418524Y-112098290D01*
X113418518Y-112098282D01*
X113306717Y-111986481D01*
X113306709Y-111986475D01*
X113169790Y-111907426D01*
X113169786Y-111907424D01*
X113169784Y-111907423D01*
X113017057Y-111866500D01*
X112858943Y-111866500D01*
X112706216Y-111907423D01*
X112706209Y-111907426D01*
X112569290Y-111986475D01*
X112569282Y-111986481D01*
X112457481Y-112098282D01*
X112457475Y-112098290D01*
X112378426Y-112235209D01*
X112378423Y-112235216D01*
X112337500Y-112387943D01*
X112337500Y-129201330D01*
X112337499Y-129201348D01*
X112337499Y-129367054D01*
X112337498Y-129367054D01*
X100300500Y-129367054D01*
X100300500Y-103381995D01*
X101699500Y-103381995D01*
X101699500Y-103618004D01*
X101699501Y-103618020D01*
X101730306Y-103852010D01*
X101791394Y-104079993D01*
X101881714Y-104298045D01*
X101881719Y-104298056D01*
X101952677Y-104420957D01*
X101999727Y-104502450D01*
X101999729Y-104502453D01*
X101999730Y-104502454D01*
X102143406Y-104689697D01*
X102143412Y-104689704D01*
X102310295Y-104856587D01*
X102310302Y-104856593D01*
X102410904Y-104933787D01*
X102497550Y-105000273D01*
X102628918Y-105076118D01*
X102701943Y-105118280D01*
X102701948Y-105118282D01*
X102701951Y-105118284D01*
X102920007Y-105208606D01*
X103147986Y-105269693D01*
X103381989Y-105300500D01*
X103381996Y-105300500D01*
X103618004Y-105300500D01*
X103618011Y-105300500D01*
X103852014Y-105269693D01*
X104079993Y-105208606D01*
X104298049Y-105118284D01*
X104502450Y-105000273D01*
X104689699Y-104856592D01*
X104856592Y-104689699D01*
X105000273Y-104502450D01*
X105118284Y-104298049D01*
X105208606Y-104079993D01*
X105269693Y-103852014D01*
X105300500Y-103618011D01*
X105300500Y-103381989D01*
X105269693Y-103147986D01*
X105208606Y-102920007D01*
X105118284Y-102701951D01*
X105118282Y-102701948D01*
X105118280Y-102701943D01*
X105076118Y-102628918D01*
X105000273Y-102497550D01*
X104856592Y-102310301D01*
X104856587Y-102310295D01*
X104689704Y-102143412D01*
X104689697Y-102143406D01*
X104502454Y-101999730D01*
X104502453Y-101999729D01*
X104502450Y-101999727D01*
X104420957Y-101952677D01*
X104298056Y-101881719D01*
X104298045Y-101881714D01*
X104079993Y-101791394D01*
X103955873Y-101758136D01*
X103852014Y-101730307D01*
X103852013Y-101730306D01*
X103852010Y-101730306D01*
X103618020Y-101699501D01*
X103618017Y-101699500D01*
X103618011Y-101699500D01*
X103381989Y-101699500D01*
X103381983Y-101699500D01*
X103381979Y-101699501D01*
X103147989Y-101730306D01*
X102920006Y-101791394D01*
X102701954Y-101881714D01*
X102701943Y-101881719D01*
X102497545Y-101999730D01*
X102310302Y-102143406D01*
X102310295Y-102143412D01*
X102143412Y-102310295D01*
X102143406Y-102310302D01*
X101999730Y-102497545D01*
X101881719Y-102701943D01*
X101881714Y-102701954D01*
X101791394Y-102920006D01*
X101730306Y-103147989D01*
X101699501Y-103381979D01*
X101699500Y-103381995D01*
X100300500Y-103381995D01*
X100300500Y-102004427D01*
X100300816Y-101995581D01*
X100308959Y-101881719D01*
X100317165Y-101766973D01*
X100319681Y-101749476D01*
X100367457Y-101529852D01*
X100372434Y-101512901D01*
X100450986Y-101302295D01*
X100458325Y-101286226D01*
X100566043Y-101088955D01*
X100575599Y-101074086D01*
X100710293Y-100894156D01*
X100721867Y-100880799D01*
X100880799Y-100721867D01*
X100894156Y-100710293D01*
X101074086Y-100575599D01*
X101088955Y-100566043D01*
X101286226Y-100458325D01*
X101302295Y-100450986D01*
X101512901Y-100372434D01*
X101529852Y-100367457D01*
X101749476Y-100319681D01*
X101766973Y-100317165D01*
X101995582Y-100300816D01*
X102004428Y-100300500D01*
X102047594Y-100300500D01*
X172376000Y-100300500D01*
X172443039Y-100320185D01*
G37*
%TD.AperFunction*%
%TD*%
M02*
