%TF.GenerationSoftware,KiCad,Pcbnew,9.0.9*%
%TF.CreationDate,2026-09-26T07:00:46+00:00*%
%TF.ProjectId,FuenteOS,4675656e-7465-44f5-932e-6b696361645f,rev?*%
%TF.SameCoordinates,Original*%
%TF.FileFunction,Copper,L2,Bot*%
%TF.FilePolarity,Positive*%
%FSLAX46Y46*%
G04 Gerber Fmt 4.6, Leading zero omitted, Abs format (unit mm)*
G04 Created by KiCad (PCBNEW 9.0.9) date 2026-09-26 07:00:46*
%MOMM*%
%LPD*%
G01*
G04 APERTURE LIST*
%ADD10C,0.223999*%
%TA.AperFunction,NonConductor*%
%ADD11C,0.223999*%
%TD*%
%TA.AperFunction,ComponentPad*%
%ADD12R,2.400000X2.400000*%
%TD*%
%TA.AperFunction,ComponentPad*%
%ADD13C,2.400000*%
%TD*%
%TA.AperFunction,ComponentPad*%
%ADD14R,3.000000X3.000000*%
%TD*%
%TA.AperFunction,ComponentPad*%
%ADD15C,3.000000*%
%TD*%
%TA.AperFunction,ComponentPad*%
%ADD16C,2.600000*%
%TD*%
%TA.AperFunction,Conductor*%
%ADD17C,1.200000*%
%TD*%
G04 APERTURE END LIST*
D10*
D11*
X135866667Y-131902685D02*
X136333333Y-131902685D01*
X136333333Y-132636018D02*
X136333333Y-131236018D01*
X136333333Y-131236018D02*
X135666667Y-131236018D01*
X135133333Y-131236018D02*
X135133333Y-132369352D01*
X135133333Y-132369352D02*
X135066667Y-132502685D01*
X135066667Y-132502685D02*
X135000000Y-132569352D01*
X135000000Y-132569352D02*
X134866667Y-132636018D01*
X134866667Y-132636018D02*
X134600000Y-132636018D01*
X134600000Y-132636018D02*
X134466667Y-132569352D01*
X134466667Y-132569352D02*
X134400000Y-132502685D01*
X134400000Y-132502685D02*
X134333333Y-132369352D01*
X134333333Y-132369352D02*
X134333333Y-131236018D01*
X133666666Y-131902685D02*
X133200000Y-131902685D01*
X133000000Y-132636018D02*
X133666666Y-132636018D01*
X133666666Y-132636018D02*
X133666666Y-131236018D01*
X133666666Y-131236018D02*
X133000000Y-131236018D01*
X132399999Y-132636018D02*
X132399999Y-131236018D01*
X132399999Y-131236018D02*
X131599999Y-132636018D01*
X131599999Y-132636018D02*
X131599999Y-131236018D01*
X131133332Y-131236018D02*
X130333332Y-131236018D01*
X130733332Y-132636018D02*
X130733332Y-131236018D01*
X129866665Y-131902685D02*
X129399999Y-131902685D01*
X129199999Y-132636018D02*
X129866665Y-132636018D01*
X129866665Y-132636018D02*
X129866665Y-131236018D01*
X129866665Y-131236018D02*
X129199999Y-131236018D01*
X127266665Y-131236018D02*
X126999998Y-131236018D01*
X126999998Y-131236018D02*
X126866665Y-131302685D01*
X126866665Y-131302685D02*
X126733331Y-131436018D01*
X126733331Y-131436018D02*
X126666665Y-131702685D01*
X126666665Y-131702685D02*
X126666665Y-132169352D01*
X126666665Y-132169352D02*
X126733331Y-132436018D01*
X126733331Y-132436018D02*
X126866665Y-132569352D01*
X126866665Y-132569352D02*
X126999998Y-132636018D01*
X126999998Y-132636018D02*
X127266665Y-132636018D01*
X127266665Y-132636018D02*
X127399998Y-132569352D01*
X127399998Y-132569352D02*
X127533331Y-132436018D01*
X127533331Y-132436018D02*
X127599998Y-132169352D01*
X127599998Y-132169352D02*
X127599998Y-131702685D01*
X127599998Y-131702685D02*
X127533331Y-131436018D01*
X127533331Y-131436018D02*
X127399998Y-131302685D01*
X127399998Y-131302685D02*
X127266665Y-131236018D01*
X126133331Y-132569352D02*
X125933331Y-132636018D01*
X125933331Y-132636018D02*
X125599998Y-132636018D01*
X125599998Y-132636018D02*
X125466664Y-132569352D01*
X125466664Y-132569352D02*
X125399998Y-132502685D01*
X125399998Y-132502685D02*
X125333331Y-132369352D01*
X125333331Y-132369352D02*
X125333331Y-132236018D01*
X125333331Y-132236018D02*
X125399998Y-132102685D01*
X125399998Y-132102685D02*
X125466664Y-132036018D01*
X125466664Y-132036018D02*
X125599998Y-131969352D01*
X125599998Y-131969352D02*
X125866664Y-131902685D01*
X125866664Y-131902685D02*
X125999998Y-131836018D01*
X125999998Y-131836018D02*
X126066664Y-131769352D01*
X126066664Y-131769352D02*
X126133331Y-131636018D01*
X126133331Y-131636018D02*
X126133331Y-131502685D01*
X126133331Y-131502685D02*
X126066664Y-131369352D01*
X126066664Y-131369352D02*
X125999998Y-131302685D01*
X125999998Y-131302685D02*
X125866664Y-131236018D01*
X125866664Y-131236018D02*
X125533331Y-131236018D01*
X125533331Y-131236018D02*
X125333331Y-131302685D01*
X122933331Y-132636018D02*
X123733331Y-132636018D01*
X123333331Y-132636018D02*
X123333331Y-131236018D01*
X123333331Y-131236018D02*
X123466664Y-131436018D01*
X123466664Y-131436018D02*
X123599998Y-131569352D01*
X123599998Y-131569352D02*
X123733331Y-131636018D01*
X122399998Y-131369352D02*
X122333331Y-131302685D01*
X122333331Y-131302685D02*
X122199998Y-131236018D01*
X122199998Y-131236018D02*
X121866665Y-131236018D01*
X121866665Y-131236018D02*
X121733331Y-131302685D01*
X121733331Y-131302685D02*
X121666665Y-131369352D01*
X121666665Y-131369352D02*
X121599998Y-131502685D01*
X121599998Y-131502685D02*
X121599998Y-131636018D01*
X121599998Y-131636018D02*
X121666665Y-131836018D01*
X121666665Y-131836018D02*
X122466665Y-132636018D01*
X122466665Y-132636018D02*
X121599998Y-132636018D01*
X121133332Y-131236018D02*
X120199998Y-131236018D01*
X120199998Y-131236018D02*
X120799998Y-132636018D01*
X119866665Y-131236018D02*
X119399999Y-132636018D01*
X119399999Y-132636018D02*
X118933332Y-131236018D01*
X117533332Y-131702685D02*
X117199998Y-132636018D01*
X117199998Y-132636018D02*
X116866665Y-131702685D01*
X115599998Y-132636018D02*
X116399998Y-132636018D01*
X115999998Y-132636018D02*
X115999998Y-131236018D01*
X115999998Y-131236018D02*
X116133331Y-131436018D01*
X116133331Y-131436018D02*
X116266665Y-131569352D01*
X116266665Y-131569352D02*
X116399998Y-131636018D01*
D12*
%TO.P,D4,1*%
%TO.N,/N*%
X106000000Y-128000000D03*
D13*
%TO.P,D4,2*%
%TO.N,/OS-*%
X116160000Y-128000000D03*
%TD*%
D14*
%TO.P,J1,1*%
%TO.N,/L*%
X106000000Y-111000000D03*
D15*
%TO.P,J1,2*%
%TO.N,/N*%
X106000000Y-116080000D03*
%TD*%
D13*
%TO.P,RV1,1*%
%TO.N,/N*%
X116000000Y-119000000D03*
%TO.P,RV1,2*%
%TO.N,/A*%
X121000000Y-120300000D03*
%TD*%
D12*
%TO.P,D3,1*%
%TO.N,/AC1*%
X145240000Y-128000000D03*
D13*
%TO.P,D3,2*%
%TO.N,/OS-*%
X135080000Y-128000000D03*
%TD*%
D12*
%TO.P,D2,1*%
%TO.N,/OS+*%
X116160000Y-136000000D03*
D13*
%TO.P,D2,2*%
%TO.N,/N*%
X106000000Y-136000000D03*
%TD*%
%TO.P,R2,1*%
%TO.N,/A*%
X130000000Y-120000000D03*
%TO.P,R2,2*%
%TO.N,/AC1*%
X145240000Y-120000000D03*
%TD*%
D12*
%TO.P,D1,1*%
%TO.N,/OS+*%
X135079999Y-136000000D03*
D13*
%TO.P,D1,2*%
%TO.N,/AC1*%
X145239999Y-136000000D03*
%TD*%
D16*
%TO.P,R1,1*%
%TO.N,/L*%
X115000000Y-106000000D03*
%TO.P,R1,2*%
%TO.N,/A*%
X130240000Y-106000000D03*
%TD*%
%TO.P,C1,1*%
%TO.N,/A*%
X130240000Y-114000000D03*
%TO.P,C1,2*%
%TO.N,/AC1*%
X145240000Y-114000000D03*
%TD*%
D14*
%TO.P,J2,1*%
%TO.N,/OS+*%
X121000000Y-144000000D03*
D15*
%TO.P,J2,2*%
%TO.N,/OS-*%
X126080000Y-144000000D03*
%TD*%
D17*
%TO.N,/A*%
X121000000Y-120300000D02*
X130000000Y-120000000D01*
X130240000Y-114000000D02*
X130000000Y-120000000D01*
X130240000Y-106000000D02*
X130240000Y-114000000D01*
%TO.N,/AC1*%
X145240000Y-114000000D02*
X145240000Y-136000000D01*
%TO.N,/L*%
X106000000Y-111000000D02*
X111000000Y-106000000D01*
X111000000Y-106000000D02*
X115000000Y-106000000D01*
%TO.N,/N*%
X106000000Y-119000000D02*
X116000000Y-119000000D01*
X106000000Y-116080000D02*
X106000000Y-136000000D01*
%TO.N,/OS+*%
X121000000Y-136000000D02*
X121000000Y-144000000D01*
X116160000Y-136000000D02*
X135079999Y-136000000D01*
%TO.N,/OS-*%
X126080000Y-141000000D02*
X126080000Y-144000000D01*
X140160000Y-141000000D02*
X126080000Y-141000000D01*
X116160000Y-128000000D02*
X140160000Y-128000000D01*
X140160000Y-128000000D02*
X140160000Y-141000000D01*
%TD*%
M02*
