%TF.GenerationSoftware,KiCad,Pcbnew,9.0.9*%
%TF.CreationDate,2026-10-01T01:36:43+00:00*%
%TF.ProjectId,Base12V,42617365-3132-4562-9e6b-696361645f70,rev?*%
%TF.SameCoordinates,Original*%
%TF.FileFunction,Soldermask,Bot*%
%TF.FilePolarity,Negative*%
%FSLAX46Y46*%
G04 Gerber Fmt 4.6, Leading zero omitted, Abs format (unit mm)*
G04 Created by KiCad (PCBNEW 9.0.9) date 2026-10-01 01:36:43*
%MOMM*%
%LPD*%
G01*
G04 APERTURE LIST*
%ADD10R,1.800000X3.000000*%
%ADD11O,1.800000X3.000000*%
%ADD12C,2.400000*%
%ADD13R,3.000000X3.000000*%
%ADD14C,3.000000*%
%ADD15R,2.400000X2.400000*%
%ADD16R,1.700000X2.400000*%
%ADD17O,1.700000X2.400000*%
G04 APERTURE END LIST*
D10*
%TO.C,Q2*%
X114800000Y-143450000D03*
D11*
X117340000Y-143450000D03*
X119880000Y-143450000D03*
%TD*%
D12*
%TO.C,R4*%
X104000000Y-146950000D03*
X109080000Y-146950000D03*
%TD*%
D13*
%TO.C,J2*%
X102500000Y-154500000D03*
D14*
X107580000Y-154500000D03*
X112660000Y-154500000D03*
X117740000Y-154500000D03*
%TD*%
D12*
%TO.C,R1*%
X104000000Y-138530000D03*
X104000000Y-133450000D03*
%TD*%
D15*
%TO.C,C1*%
X136000000Y-144500000D03*
D12*
X139810000Y-144500000D03*
%TD*%
%TO.C,F1*%
X130759999Y-154500000D03*
X135839999Y-154500000D03*
%TD*%
D10*
%TO.C,Q1*%
X104000000Y-143450000D03*
D11*
X106540000Y-143450000D03*
X109080000Y-143450000D03*
%TD*%
D12*
%TO.C,R7*%
X125220000Y-108750000D03*
X130300000Y-108750000D03*
%TD*%
%TO.C,R2*%
X114800000Y-138530000D03*
X114800000Y-133450000D03*
%TD*%
D16*
%TO.C,J3*%
X112520000Y-105000000D03*
D17*
X115060000Y-105000000D03*
X117600000Y-105000000D03*
X120140000Y-105000000D03*
X122680000Y-105000000D03*
X125220000Y-105000000D03*
%TD*%
D12*
%TO.C,R3*%
X125600000Y-138530000D03*
X125600000Y-133450000D03*
%TD*%
D13*
%TO.C,J4*%
X135380000Y-105500000D03*
D14*
X140460000Y-105500000D03*
%TD*%
D12*
%TO.C,R6*%
X125600000Y-146950000D03*
X130680000Y-146950000D03*
%TD*%
D16*
%TO.C,A1*%
X107440000Y-127740000D03*
D17*
X109980000Y-127740000D03*
X112520000Y-127740000D03*
X115060000Y-127740000D03*
X117600000Y-127740000D03*
X120140000Y-127740000D03*
X122680000Y-127740000D03*
X125220000Y-127740000D03*
X127760000Y-127740000D03*
X130300000Y-127740000D03*
X132840000Y-127740000D03*
X135380000Y-127740000D03*
X137920000Y-127740000D03*
X140460000Y-127740000D03*
X143000000Y-127740000D03*
X143000000Y-112500000D03*
X140460000Y-112500000D03*
X137920000Y-112500000D03*
X135380000Y-112500000D03*
X132840000Y-112500000D03*
X130300000Y-112500000D03*
X127760000Y-112500000D03*
X125220000Y-112500000D03*
X122680000Y-112500000D03*
X120140000Y-112500000D03*
X117600000Y-112500000D03*
X115060000Y-112500000D03*
X112520000Y-112500000D03*
X109980000Y-112500000D03*
X107440000Y-112500000D03*
%TD*%
D15*
%TO.C,D1*%
X145000000Y-146000000D03*
D12*
X145000000Y-140920000D03*
%TD*%
D10*
%TO.C,Q3*%
X125600000Y-143450000D03*
D11*
X128140000Y-143450000D03*
X130680000Y-143450000D03*
%TD*%
D13*
%TO.C,J1*%
X140920000Y-154500000D03*
D14*
X146000000Y-154500000D03*
%TD*%
D12*
%TO.C,R5*%
X114800000Y-146950000D03*
X119880000Y-146950000D03*
%TD*%
M02*
