%TF.GenerationSoftware,KiCad,Pcbnew,9.0.9*%
%TF.CreationDate,2026-10-01T01:41:44+00:00*%
%TF.ProjectId,Base12V,42617365-3132-4562-9e6b-696361645f70,rev?*%
%TF.SameCoordinates,Original*%
%TF.FileFunction,Legend,Top*%
%TF.FilePolarity,Positive*%
%FSLAX46Y46*%
G04 Gerber Fmt 4.6, Leading zero omitted, Abs format (unit mm)*
G04 Created by KiCad (PCBNEW 9.0.9) date 2026-10-01 01:41:44*
%MOMM*%
%LPD*%
G01*
G04 APERTURE LIST*
%ADD10C,0.180000*%
%ADD11C,0.150000*%
%ADD12C,0.120000*%
%ADD13C,3.200000*%
G04 APERTURE END LIST*
D10*
X106433333Y-156255973D02*
X107042857Y-156255973D01*
X106738095Y-156560735D02*
X106738095Y-155951211D01*
X107842856Y-156560735D02*
X107385713Y-156560735D01*
X107614285Y-156560735D02*
X107614285Y-155760735D01*
X107614285Y-155760735D02*
X107538094Y-155875020D01*
X107538094Y-155875020D02*
X107461904Y-155951211D01*
X107461904Y-155951211D02*
X107385713Y-155989306D01*
X108147618Y-155836925D02*
X108185714Y-155798830D01*
X108185714Y-155798830D02*
X108261904Y-155760735D01*
X108261904Y-155760735D02*
X108452380Y-155760735D01*
X108452380Y-155760735D02*
X108528571Y-155798830D01*
X108528571Y-155798830D02*
X108566666Y-155836925D01*
X108566666Y-155836925D02*
X108604761Y-155913116D01*
X108604761Y-155913116D02*
X108604761Y-155989306D01*
X108604761Y-155989306D02*
X108566666Y-156103592D01*
X108566666Y-156103592D02*
X108109523Y-156560735D01*
X108109523Y-156560735D02*
X108604761Y-156560735D01*
X109314286Y-109960735D02*
X109314286Y-109160735D01*
X109314286Y-109541687D02*
X109771429Y-109541687D01*
X109771429Y-109960735D02*
X109771429Y-109160735D01*
X110609524Y-109884544D02*
X110571428Y-109922640D01*
X110571428Y-109922640D02*
X110457143Y-109960735D01*
X110457143Y-109960735D02*
X110380952Y-109960735D01*
X110380952Y-109960735D02*
X110266666Y-109922640D01*
X110266666Y-109922640D02*
X110190476Y-109846449D01*
X110190476Y-109846449D02*
X110152381Y-109770259D01*
X110152381Y-109770259D02*
X110114285Y-109617878D01*
X110114285Y-109617878D02*
X110114285Y-109503592D01*
X110114285Y-109503592D02*
X110152381Y-109351211D01*
X110152381Y-109351211D02*
X110190476Y-109275020D01*
X110190476Y-109275020D02*
X110266666Y-109198830D01*
X110266666Y-109198830D02*
X110380952Y-109160735D01*
X110380952Y-109160735D02*
X110457143Y-109160735D01*
X110457143Y-109160735D02*
X110571428Y-109198830D01*
X110571428Y-109198830D02*
X110609524Y-109236925D01*
X110952381Y-109655973D02*
X111561905Y-109655973D01*
X112095238Y-109160735D02*
X112171428Y-109160735D01*
X112171428Y-109160735D02*
X112247619Y-109198830D01*
X112247619Y-109198830D02*
X112285714Y-109236925D01*
X112285714Y-109236925D02*
X112323809Y-109313116D01*
X112323809Y-109313116D02*
X112361904Y-109465497D01*
X112361904Y-109465497D02*
X112361904Y-109655973D01*
X112361904Y-109655973D02*
X112323809Y-109808354D01*
X112323809Y-109808354D02*
X112285714Y-109884544D01*
X112285714Y-109884544D02*
X112247619Y-109922640D01*
X112247619Y-109922640D02*
X112171428Y-109960735D01*
X112171428Y-109960735D02*
X112095238Y-109960735D01*
X112095238Y-109960735D02*
X112019047Y-109922640D01*
X112019047Y-109922640D02*
X111980952Y-109884544D01*
X111980952Y-109884544D02*
X111942857Y-109808354D01*
X111942857Y-109808354D02*
X111904761Y-109655973D01*
X111904761Y-109655973D02*
X111904761Y-109465497D01*
X111904761Y-109465497D02*
X111942857Y-109313116D01*
X111942857Y-109313116D02*
X111980952Y-109236925D01*
X111980952Y-109236925D02*
X112019047Y-109198830D01*
X112019047Y-109198830D02*
X112095238Y-109160735D01*
X113085714Y-109160735D02*
X112704762Y-109160735D01*
X112704762Y-109160735D02*
X112666666Y-109541687D01*
X112666666Y-109541687D02*
X112704762Y-109503592D01*
X112704762Y-109503592D02*
X112780952Y-109465497D01*
X112780952Y-109465497D02*
X112971428Y-109465497D01*
X112971428Y-109465497D02*
X113047619Y-109503592D01*
X113047619Y-109503592D02*
X113085714Y-109541687D01*
X113085714Y-109541687D02*
X113123809Y-109617878D01*
X113123809Y-109617878D02*
X113123809Y-109808354D01*
X113123809Y-109808354D02*
X113085714Y-109884544D01*
X113085714Y-109884544D02*
X113047619Y-109922640D01*
X113047619Y-109922640D02*
X112971428Y-109960735D01*
X112971428Y-109960735D02*
X112780952Y-109960735D01*
X112780952Y-109960735D02*
X112704762Y-109922640D01*
X112704762Y-109922640D02*
X112666666Y-109884544D01*
X112027619Y-156484544D02*
X111989523Y-156522640D01*
X111989523Y-156522640D02*
X111875238Y-156560735D01*
X111875238Y-156560735D02*
X111799047Y-156560735D01*
X111799047Y-156560735D02*
X111684761Y-156522640D01*
X111684761Y-156522640D02*
X111608571Y-156446449D01*
X111608571Y-156446449D02*
X111570476Y-156370259D01*
X111570476Y-156370259D02*
X111532380Y-156217878D01*
X111532380Y-156217878D02*
X111532380Y-156103592D01*
X111532380Y-156103592D02*
X111570476Y-155951211D01*
X111570476Y-155951211D02*
X111608571Y-155875020D01*
X111608571Y-155875020D02*
X111684761Y-155798830D01*
X111684761Y-155798830D02*
X111799047Y-155760735D01*
X111799047Y-155760735D02*
X111875238Y-155760735D01*
X111875238Y-155760735D02*
X111989523Y-155798830D01*
X111989523Y-155798830D02*
X112027619Y-155836925D01*
X112370476Y-156560735D02*
X112370476Y-155760735D01*
X112370476Y-156141687D02*
X112827619Y-156141687D01*
X112827619Y-156560735D02*
X112827619Y-155760735D01*
X113627618Y-156560735D02*
X113170475Y-156560735D01*
X113399047Y-156560735D02*
X113399047Y-155760735D01*
X113399047Y-155760735D02*
X113322856Y-155875020D01*
X113322856Y-155875020D02*
X113246666Y-155951211D01*
X113246666Y-155951211D02*
X113170475Y-155989306D01*
X116929524Y-107241687D02*
X117196190Y-107241687D01*
X117310476Y-107660735D02*
X116929524Y-107660735D01*
X116929524Y-107660735D02*
X116929524Y-106860735D01*
X116929524Y-106860735D02*
X117310476Y-106860735D01*
X117653334Y-107660735D02*
X117653334Y-106860735D01*
X117653334Y-106860735D02*
X118110477Y-107660735D01*
X118110477Y-107660735D02*
X118110477Y-106860735D01*
X117107619Y-156484544D02*
X117069523Y-156522640D01*
X117069523Y-156522640D02*
X116955238Y-156560735D01*
X116955238Y-156560735D02*
X116879047Y-156560735D01*
X116879047Y-156560735D02*
X116764761Y-156522640D01*
X116764761Y-156522640D02*
X116688571Y-156446449D01*
X116688571Y-156446449D02*
X116650476Y-156370259D01*
X116650476Y-156370259D02*
X116612380Y-156217878D01*
X116612380Y-156217878D02*
X116612380Y-156103592D01*
X116612380Y-156103592D02*
X116650476Y-155951211D01*
X116650476Y-155951211D02*
X116688571Y-155875020D01*
X116688571Y-155875020D02*
X116764761Y-155798830D01*
X116764761Y-155798830D02*
X116879047Y-155760735D01*
X116879047Y-155760735D02*
X116955238Y-155760735D01*
X116955238Y-155760735D02*
X117069523Y-155798830D01*
X117069523Y-155798830D02*
X117107619Y-155836925D01*
X117450476Y-156560735D02*
X117450476Y-155760735D01*
X117450476Y-156141687D02*
X117907619Y-156141687D01*
X117907619Y-156560735D02*
X117907619Y-155760735D01*
X118250475Y-155836925D02*
X118288571Y-155798830D01*
X118288571Y-155798830D02*
X118364761Y-155760735D01*
X118364761Y-155760735D02*
X118555237Y-155760735D01*
X118555237Y-155760735D02*
X118631428Y-155798830D01*
X118631428Y-155798830D02*
X118669523Y-155836925D01*
X118669523Y-155836925D02*
X118707618Y-155913116D01*
X118707618Y-155913116D02*
X118707618Y-155989306D01*
X118707618Y-155989306D02*
X118669523Y-156103592D01*
X118669523Y-156103592D02*
X118212380Y-156560735D01*
X118212380Y-156560735D02*
X118707618Y-156560735D01*
X122187619Y-156484544D02*
X122149523Y-156522640D01*
X122149523Y-156522640D02*
X122035238Y-156560735D01*
X122035238Y-156560735D02*
X121959047Y-156560735D01*
X121959047Y-156560735D02*
X121844761Y-156522640D01*
X121844761Y-156522640D02*
X121768571Y-156446449D01*
X121768571Y-156446449D02*
X121730476Y-156370259D01*
X121730476Y-156370259D02*
X121692380Y-156217878D01*
X121692380Y-156217878D02*
X121692380Y-156103592D01*
X121692380Y-156103592D02*
X121730476Y-155951211D01*
X121730476Y-155951211D02*
X121768571Y-155875020D01*
X121768571Y-155875020D02*
X121844761Y-155798830D01*
X121844761Y-155798830D02*
X121959047Y-155760735D01*
X121959047Y-155760735D02*
X122035238Y-155760735D01*
X122035238Y-155760735D02*
X122149523Y-155798830D01*
X122149523Y-155798830D02*
X122187619Y-155836925D01*
X122530476Y-156560735D02*
X122530476Y-155760735D01*
X122530476Y-156141687D02*
X122987619Y-156141687D01*
X122987619Y-156560735D02*
X122987619Y-155760735D01*
X123292380Y-155760735D02*
X123787618Y-155760735D01*
X123787618Y-155760735D02*
X123520952Y-156065497D01*
X123520952Y-156065497D02*
X123635237Y-156065497D01*
X123635237Y-156065497D02*
X123711428Y-156103592D01*
X123711428Y-156103592D02*
X123749523Y-156141687D01*
X123749523Y-156141687D02*
X123787618Y-156217878D01*
X123787618Y-156217878D02*
X123787618Y-156408354D01*
X123787618Y-156408354D02*
X123749523Y-156484544D01*
X123749523Y-156484544D02*
X123711428Y-156522640D01*
X123711428Y-156522640D02*
X123635237Y-156560735D01*
X123635237Y-156560735D02*
X123406666Y-156560735D01*
X123406666Y-156560735D02*
X123330475Y-156522640D01*
X123330475Y-156522640D02*
X123292380Y-156484544D01*
X128677142Y-107622640D02*
X128791428Y-107660735D01*
X128791428Y-107660735D02*
X128981904Y-107660735D01*
X128981904Y-107660735D02*
X129058095Y-107622640D01*
X129058095Y-107622640D02*
X129096190Y-107584544D01*
X129096190Y-107584544D02*
X129134285Y-107508354D01*
X129134285Y-107508354D02*
X129134285Y-107432163D01*
X129134285Y-107432163D02*
X129096190Y-107355973D01*
X129096190Y-107355973D02*
X129058095Y-107317878D01*
X129058095Y-107317878D02*
X128981904Y-107279782D01*
X128981904Y-107279782D02*
X128829523Y-107241687D01*
X128829523Y-107241687D02*
X128753333Y-107203592D01*
X128753333Y-107203592D02*
X128715238Y-107165497D01*
X128715238Y-107165497D02*
X128677142Y-107089306D01*
X128677142Y-107089306D02*
X128677142Y-107013116D01*
X128677142Y-107013116D02*
X128715238Y-106936925D01*
X128715238Y-106936925D02*
X128753333Y-106898830D01*
X128753333Y-106898830D02*
X128829523Y-106860735D01*
X128829523Y-106860735D02*
X129020000Y-106860735D01*
X129020000Y-106860735D02*
X129134285Y-106898830D01*
X129362857Y-106860735D02*
X129820000Y-106860735D01*
X129591428Y-107660735D02*
X129591428Y-106860735D01*
X130048571Y-107432163D02*
X130429524Y-107432163D01*
X129972381Y-107660735D02*
X130239048Y-106860735D01*
X130239048Y-106860735D02*
X130505714Y-107660735D01*
X130658095Y-106860735D02*
X131115238Y-106860735D01*
X130886666Y-107660735D02*
X130886666Y-106860735D01*
X131381905Y-107241687D02*
X131648571Y-107241687D01*
X131762857Y-107660735D02*
X131381905Y-107660735D01*
X131381905Y-107660735D02*
X131381905Y-106860735D01*
X131381905Y-106860735D02*
X131762857Y-106860735D01*
X141395238Y-114160735D02*
X141395238Y-113360735D01*
X141395238Y-113360735D02*
X141661904Y-113932163D01*
X141661904Y-113932163D02*
X141928571Y-113360735D01*
X141928571Y-113360735D02*
X141928571Y-114160735D01*
X142461905Y-113360735D02*
X142614286Y-113360735D01*
X142614286Y-113360735D02*
X142690476Y-113398830D01*
X142690476Y-113398830D02*
X142766667Y-113475020D01*
X142766667Y-113475020D02*
X142804762Y-113627401D01*
X142804762Y-113627401D02*
X142804762Y-113894068D01*
X142804762Y-113894068D02*
X142766667Y-114046449D01*
X142766667Y-114046449D02*
X142690476Y-114122640D01*
X142690476Y-114122640D02*
X142614286Y-114160735D01*
X142614286Y-114160735D02*
X142461905Y-114160735D01*
X142461905Y-114160735D02*
X142385714Y-114122640D01*
X142385714Y-114122640D02*
X142309524Y-114046449D01*
X142309524Y-114046449D02*
X142271428Y-113894068D01*
X142271428Y-113894068D02*
X142271428Y-113627401D01*
X142271428Y-113627401D02*
X142309524Y-113475020D01*
X142309524Y-113475020D02*
X142385714Y-113398830D01*
X142385714Y-113398830D02*
X142461905Y-113360735D01*
X143147619Y-114160735D02*
X143147619Y-113360735D01*
X143147619Y-113360735D02*
X143338095Y-113360735D01*
X143338095Y-113360735D02*
X143452381Y-113398830D01*
X143452381Y-113398830D02*
X143528571Y-113475020D01*
X143528571Y-113475020D02*
X143566666Y-113551211D01*
X143566666Y-113551211D02*
X143604762Y-113703592D01*
X143604762Y-113703592D02*
X143604762Y-113817878D01*
X143604762Y-113817878D02*
X143566666Y-113970259D01*
X143566666Y-113970259D02*
X143528571Y-114046449D01*
X143528571Y-114046449D02*
X143452381Y-114122640D01*
X143452381Y-114122640D02*
X143338095Y-114160735D01*
X143338095Y-114160735D02*
X143147619Y-114160735D01*
X144100000Y-113360735D02*
X144252381Y-113360735D01*
X144252381Y-113360735D02*
X144328571Y-113398830D01*
X144328571Y-113398830D02*
X144404762Y-113475020D01*
X144404762Y-113475020D02*
X144442857Y-113627401D01*
X144442857Y-113627401D02*
X144442857Y-113894068D01*
X144442857Y-113894068D02*
X144404762Y-114046449D01*
X144404762Y-114046449D02*
X144328571Y-114122640D01*
X144328571Y-114122640D02*
X144252381Y-114160735D01*
X144252381Y-114160735D02*
X144100000Y-114160735D01*
X144100000Y-114160735D02*
X144023809Y-114122640D01*
X144023809Y-114122640D02*
X143947619Y-114046449D01*
X143947619Y-114046449D02*
X143909523Y-113894068D01*
X143909523Y-113894068D02*
X143909523Y-113627401D01*
X143909523Y-113627401D02*
X143947619Y-113475020D01*
X143947619Y-113475020D02*
X144023809Y-113398830D01*
X144023809Y-113398830D02*
X144100000Y-113360735D01*
X144510476Y-156455973D02*
X145120000Y-156455973D01*
X144815238Y-156760735D02*
X144815238Y-156151211D01*
X145919999Y-156760735D02*
X145462856Y-156760735D01*
X145691428Y-156760735D02*
X145691428Y-155960735D01*
X145691428Y-155960735D02*
X145615237Y-156075020D01*
X145615237Y-156075020D02*
X145539047Y-156151211D01*
X145539047Y-156151211D02*
X145462856Y-156189306D01*
X146224761Y-156036925D02*
X146262857Y-155998830D01*
X146262857Y-155998830D02*
X146339047Y-155960735D01*
X146339047Y-155960735D02*
X146529523Y-155960735D01*
X146529523Y-155960735D02*
X146605714Y-155998830D01*
X146605714Y-155998830D02*
X146643809Y-156036925D01*
X146643809Y-156036925D02*
X146681904Y-156113116D01*
X146681904Y-156113116D02*
X146681904Y-156189306D01*
X146681904Y-156189306D02*
X146643809Y-156303592D01*
X146643809Y-156303592D02*
X146186666Y-156760735D01*
X146186666Y-156760735D02*
X146681904Y-156760735D01*
X146910476Y-155960735D02*
X147177143Y-156760735D01*
X147177143Y-156760735D02*
X147443809Y-155960735D01*
X150390476Y-155998830D02*
X150314286Y-155960735D01*
X150314286Y-155960735D02*
X150200000Y-155960735D01*
X150200000Y-155960735D02*
X150085714Y-155998830D01*
X150085714Y-155998830D02*
X150009524Y-156075020D01*
X150009524Y-156075020D02*
X149971429Y-156151211D01*
X149971429Y-156151211D02*
X149933333Y-156303592D01*
X149933333Y-156303592D02*
X149933333Y-156417878D01*
X149933333Y-156417878D02*
X149971429Y-156570259D01*
X149971429Y-156570259D02*
X150009524Y-156646449D01*
X150009524Y-156646449D02*
X150085714Y-156722640D01*
X150085714Y-156722640D02*
X150200000Y-156760735D01*
X150200000Y-156760735D02*
X150276191Y-156760735D01*
X150276191Y-156760735D02*
X150390476Y-156722640D01*
X150390476Y-156722640D02*
X150428572Y-156684544D01*
X150428572Y-156684544D02*
X150428572Y-156417878D01*
X150428572Y-156417878D02*
X150276191Y-156417878D01*
X150771429Y-156760735D02*
X150771429Y-155960735D01*
X150771429Y-155960735D02*
X151228572Y-156760735D01*
X151228572Y-156760735D02*
X151228572Y-155960735D01*
X151609524Y-156760735D02*
X151609524Y-155960735D01*
X151609524Y-155960735D02*
X151800000Y-155960735D01*
X151800000Y-155960735D02*
X151914286Y-155998830D01*
X151914286Y-155998830D02*
X151990476Y-156075020D01*
X151990476Y-156075020D02*
X152028571Y-156151211D01*
X152028571Y-156151211D02*
X152066667Y-156303592D01*
X152066667Y-156303592D02*
X152066667Y-156417878D01*
X152066667Y-156417878D02*
X152028571Y-156570259D01*
X152028571Y-156570259D02*
X151990476Y-156646449D01*
X151990476Y-156646449D02*
X151914286Y-156722640D01*
X151914286Y-156722640D02*
X151800000Y-156760735D01*
X151800000Y-156760735D02*
X151609524Y-156760735D01*
X120214284Y-128953259D02*
X119738094Y-128953259D01*
X119738094Y-128953259D02*
X119738094Y-127953259D01*
X120547618Y-128429449D02*
X120880951Y-128429449D01*
X121023808Y-128953259D02*
X120547618Y-128953259D01*
X120547618Y-128953259D02*
X120547618Y-127953259D01*
X120547618Y-127953259D02*
X121023808Y-127953259D01*
X121309523Y-127953259D02*
X121880951Y-127953259D01*
X121595237Y-128953259D02*
X121595237Y-127953259D01*
X122785713Y-128953259D02*
X122452380Y-128477068D01*
X122214285Y-128953259D02*
X122214285Y-127953259D01*
X122214285Y-127953259D02*
X122595237Y-127953259D01*
X122595237Y-127953259D02*
X122690475Y-128000878D01*
X122690475Y-128000878D02*
X122738094Y-128048497D01*
X122738094Y-128048497D02*
X122785713Y-128143735D01*
X122785713Y-128143735D02*
X122785713Y-128286592D01*
X122785713Y-128286592D02*
X122738094Y-128381830D01*
X122738094Y-128381830D02*
X122690475Y-128429449D01*
X122690475Y-128429449D02*
X122595237Y-128477068D01*
X122595237Y-128477068D02*
X122214285Y-128477068D01*
X123214285Y-128429449D02*
X123547618Y-128429449D01*
X123690475Y-128953259D02*
X123214285Y-128953259D01*
X123214285Y-128953259D02*
X123214285Y-127953259D01*
X123214285Y-127953259D02*
X123690475Y-127953259D01*
X124690475Y-128953259D02*
X124357142Y-128477068D01*
X124119047Y-128953259D02*
X124119047Y-127953259D01*
X124119047Y-127953259D02*
X124499999Y-127953259D01*
X124499999Y-127953259D02*
X124595237Y-128000878D01*
X124595237Y-128000878D02*
X124642856Y-128048497D01*
X124642856Y-128048497D02*
X124690475Y-128143735D01*
X124690475Y-128143735D02*
X124690475Y-128286592D01*
X124690475Y-128286592D02*
X124642856Y-128381830D01*
X124642856Y-128381830D02*
X124595237Y-128429449D01*
X124595237Y-128429449D02*
X124499999Y-128477068D01*
X124499999Y-128477068D02*
X124119047Y-128477068D01*
X125309523Y-127953259D02*
X125499999Y-127953259D01*
X125499999Y-127953259D02*
X125595237Y-128000878D01*
X125595237Y-128000878D02*
X125690475Y-128096116D01*
X125690475Y-128096116D02*
X125738094Y-128286592D01*
X125738094Y-128286592D02*
X125738094Y-128619925D01*
X125738094Y-128619925D02*
X125690475Y-128810401D01*
X125690475Y-128810401D02*
X125595237Y-128905640D01*
X125595237Y-128905640D02*
X125499999Y-128953259D01*
X125499999Y-128953259D02*
X125309523Y-128953259D01*
X125309523Y-128953259D02*
X125214285Y-128905640D01*
X125214285Y-128905640D02*
X125119047Y-128810401D01*
X125119047Y-128810401D02*
X125071428Y-128619925D01*
X125071428Y-128619925D02*
X125071428Y-128286592D01*
X125071428Y-128286592D02*
X125119047Y-128096116D01*
X125119047Y-128096116D02*
X125214285Y-128000878D01*
X125214285Y-128000878D02*
X125309523Y-127953259D01*
X126642856Y-128953259D02*
X126166666Y-128953259D01*
X126166666Y-128953259D02*
X126166666Y-127953259D01*
X126928571Y-128667544D02*
X127404761Y-128667544D01*
X126833333Y-128953259D02*
X127166666Y-127953259D01*
X127166666Y-127953259D02*
X127499999Y-128953259D01*
X128166666Y-128429449D02*
X128309523Y-128477068D01*
X128309523Y-128477068D02*
X128357142Y-128524687D01*
X128357142Y-128524687D02*
X128404761Y-128619925D01*
X128404761Y-128619925D02*
X128404761Y-128762782D01*
X128404761Y-128762782D02*
X128357142Y-128858020D01*
X128357142Y-128858020D02*
X128309523Y-128905640D01*
X128309523Y-128905640D02*
X128214285Y-128953259D01*
X128214285Y-128953259D02*
X127833333Y-128953259D01*
X127833333Y-128953259D02*
X127833333Y-127953259D01*
X127833333Y-127953259D02*
X128166666Y-127953259D01*
X128166666Y-127953259D02*
X128261904Y-128000878D01*
X128261904Y-128000878D02*
X128309523Y-128048497D01*
X128309523Y-128048497D02*
X128357142Y-128143735D01*
X128357142Y-128143735D02*
X128357142Y-128238973D01*
X128357142Y-128238973D02*
X128309523Y-128334211D01*
X128309523Y-128334211D02*
X128261904Y-128381830D01*
X128261904Y-128381830D02*
X128166666Y-128429449D01*
X128166666Y-128429449D02*
X127833333Y-128429449D01*
X129928571Y-128429449D02*
X130071428Y-128477068D01*
X130071428Y-128477068D02*
X130119047Y-128524687D01*
X130119047Y-128524687D02*
X130166666Y-128619925D01*
X130166666Y-128619925D02*
X130166666Y-128762782D01*
X130166666Y-128762782D02*
X130119047Y-128858020D01*
X130119047Y-128858020D02*
X130071428Y-128905640D01*
X130071428Y-128905640D02*
X129976190Y-128953259D01*
X129976190Y-128953259D02*
X129595238Y-128953259D01*
X129595238Y-128953259D02*
X129595238Y-127953259D01*
X129595238Y-127953259D02*
X129928571Y-127953259D01*
X129928571Y-127953259D02*
X130023809Y-128000878D01*
X130023809Y-128000878D02*
X130071428Y-128048497D01*
X130071428Y-128048497D02*
X130119047Y-128143735D01*
X130119047Y-128143735D02*
X130119047Y-128238973D01*
X130119047Y-128238973D02*
X130071428Y-128334211D01*
X130071428Y-128334211D02*
X130023809Y-128381830D01*
X130023809Y-128381830D02*
X129928571Y-128429449D01*
X129928571Y-128429449D02*
X129595238Y-128429449D01*
X130547619Y-128667544D02*
X131023809Y-128667544D01*
X130452381Y-128953259D02*
X130785714Y-127953259D01*
X130785714Y-127953259D02*
X131119047Y-128953259D01*
X131404762Y-128905640D02*
X131547619Y-128953259D01*
X131547619Y-128953259D02*
X131785714Y-128953259D01*
X131785714Y-128953259D02*
X131880952Y-128905640D01*
X131880952Y-128905640D02*
X131928571Y-128858020D01*
X131928571Y-128858020D02*
X131976190Y-128762782D01*
X131976190Y-128762782D02*
X131976190Y-128667544D01*
X131976190Y-128667544D02*
X131928571Y-128572306D01*
X131928571Y-128572306D02*
X131880952Y-128524687D01*
X131880952Y-128524687D02*
X131785714Y-128477068D01*
X131785714Y-128477068D02*
X131595238Y-128429449D01*
X131595238Y-128429449D02*
X131500000Y-128381830D01*
X131500000Y-128381830D02*
X131452381Y-128334211D01*
X131452381Y-128334211D02*
X131404762Y-128238973D01*
X131404762Y-128238973D02*
X131404762Y-128143735D01*
X131404762Y-128143735D02*
X131452381Y-128048497D01*
X131452381Y-128048497D02*
X131500000Y-128000878D01*
X131500000Y-128000878D02*
X131595238Y-127953259D01*
X131595238Y-127953259D02*
X131833333Y-127953259D01*
X131833333Y-127953259D02*
X131976190Y-128000878D01*
X132404762Y-128429449D02*
X132738095Y-128429449D01*
X132880952Y-128953259D02*
X132404762Y-128953259D01*
X132404762Y-128953259D02*
X132404762Y-127953259D01*
X132404762Y-127953259D02*
X132880952Y-127953259D01*
X134595238Y-128953259D02*
X134023810Y-128953259D01*
X134309524Y-128953259D02*
X134309524Y-127953259D01*
X134309524Y-127953259D02*
X134214286Y-128096116D01*
X134214286Y-128096116D02*
X134119048Y-128191354D01*
X134119048Y-128191354D02*
X134023810Y-128238973D01*
X134976191Y-128048497D02*
X135023810Y-128000878D01*
X135023810Y-128000878D02*
X135119048Y-127953259D01*
X135119048Y-127953259D02*
X135357143Y-127953259D01*
X135357143Y-127953259D02*
X135452381Y-128000878D01*
X135452381Y-128000878D02*
X135500000Y-128048497D01*
X135500000Y-128048497D02*
X135547619Y-128143735D01*
X135547619Y-128143735D02*
X135547619Y-128238973D01*
X135547619Y-128238973D02*
X135500000Y-128381830D01*
X135500000Y-128381830D02*
X134928572Y-128953259D01*
X134928572Y-128953259D02*
X135547619Y-128953259D01*
X135833334Y-127953259D02*
X136166667Y-128953259D01*
X136166667Y-128953259D02*
X136500000Y-127953259D01*
X137500001Y-128286592D02*
X137738096Y-128953259D01*
X137738096Y-128953259D02*
X137976191Y-128286592D01*
X138880953Y-128953259D02*
X138309525Y-128953259D01*
X138595239Y-128953259D02*
X138595239Y-127953259D01*
X138595239Y-127953259D02*
X138500001Y-128096116D01*
X138500001Y-128096116D02*
X138404763Y-128191354D01*
X138404763Y-128191354D02*
X138309525Y-128238973D01*
X139309525Y-128858020D02*
X139357144Y-128905640D01*
X139357144Y-128905640D02*
X139309525Y-128953259D01*
X139309525Y-128953259D02*
X139261906Y-128905640D01*
X139261906Y-128905640D02*
X139309525Y-128858020D01*
X139309525Y-128858020D02*
X139309525Y-128953259D01*
X140309524Y-128953259D02*
X139738096Y-128953259D01*
X140023810Y-128953259D02*
X140023810Y-127953259D01*
X140023810Y-127953259D02*
X139928572Y-128096116D01*
X139928572Y-128096116D02*
X139833334Y-128191354D01*
X139833334Y-128191354D02*
X139738096Y-128238973D01*
D11*
X133044761Y-144900057D02*
X132949523Y-144852438D01*
X132949523Y-144852438D02*
X132854285Y-144757200D01*
X132854285Y-144757200D02*
X132711428Y-144614342D01*
X132711428Y-144614342D02*
X132616190Y-144566723D01*
X132616190Y-144566723D02*
X132520952Y-144566723D01*
X132568571Y-144804819D02*
X132473333Y-144757200D01*
X132473333Y-144757200D02*
X132378095Y-144661961D01*
X132378095Y-144661961D02*
X132330476Y-144471485D01*
X132330476Y-144471485D02*
X132330476Y-144138152D01*
X132330476Y-144138152D02*
X132378095Y-143947676D01*
X132378095Y-143947676D02*
X132473333Y-143852438D01*
X132473333Y-143852438D02*
X132568571Y-143804819D01*
X132568571Y-143804819D02*
X132759047Y-143804819D01*
X132759047Y-143804819D02*
X132854285Y-143852438D01*
X132854285Y-143852438D02*
X132949523Y-143947676D01*
X132949523Y-143947676D02*
X132997142Y-144138152D01*
X132997142Y-144138152D02*
X132997142Y-144471485D01*
X132997142Y-144471485D02*
X132949523Y-144661961D01*
X132949523Y-144661961D02*
X132854285Y-144757200D01*
X132854285Y-144757200D02*
X132759047Y-144804819D01*
X132759047Y-144804819D02*
X132568571Y-144804819D01*
X133330476Y-143804819D02*
X133949523Y-143804819D01*
X133949523Y-143804819D02*
X133616190Y-144185771D01*
X133616190Y-144185771D02*
X133759047Y-144185771D01*
X133759047Y-144185771D02*
X133854285Y-144233390D01*
X133854285Y-144233390D02*
X133901904Y-144281009D01*
X133901904Y-144281009D02*
X133949523Y-144376247D01*
X133949523Y-144376247D02*
X133949523Y-144614342D01*
X133949523Y-144614342D02*
X133901904Y-144709580D01*
X133901904Y-144709580D02*
X133854285Y-144757200D01*
X133854285Y-144757200D02*
X133759047Y-144804819D01*
X133759047Y-144804819D02*
X133473333Y-144804819D01*
X133473333Y-144804819D02*
X133378095Y-144757200D01*
X133378095Y-144757200D02*
X133330476Y-144709580D01*
X131959047Y-151650390D02*
X131882857Y-151612295D01*
X131882857Y-151612295D02*
X131768571Y-151612295D01*
X131768571Y-151612295D02*
X131654285Y-151650390D01*
X131654285Y-151650390D02*
X131578095Y-151726580D01*
X131578095Y-151726580D02*
X131540000Y-151802771D01*
X131540000Y-151802771D02*
X131501904Y-151955152D01*
X131501904Y-151955152D02*
X131501904Y-152069438D01*
X131501904Y-152069438D02*
X131540000Y-152221819D01*
X131540000Y-152221819D02*
X131578095Y-152298009D01*
X131578095Y-152298009D02*
X131654285Y-152374200D01*
X131654285Y-152374200D02*
X131768571Y-152412295D01*
X131768571Y-152412295D02*
X131844762Y-152412295D01*
X131844762Y-152412295D02*
X131959047Y-152374200D01*
X131959047Y-152374200D02*
X131997143Y-152336104D01*
X131997143Y-152336104D02*
X131997143Y-152069438D01*
X131997143Y-152069438D02*
X131844762Y-152069438D01*
X132949524Y-152412295D02*
X132949524Y-151612295D01*
X132949524Y-151612295D02*
X133140000Y-151612295D01*
X133140000Y-151612295D02*
X133254286Y-151650390D01*
X133254286Y-151650390D02*
X133330476Y-151726580D01*
X133330476Y-151726580D02*
X133368571Y-151802771D01*
X133368571Y-151802771D02*
X133406667Y-151955152D01*
X133406667Y-151955152D02*
X133406667Y-152069438D01*
X133406667Y-152069438D02*
X133368571Y-152221819D01*
X133368571Y-152221819D02*
X133330476Y-152298009D01*
X133330476Y-152298009D02*
X133254286Y-152374200D01*
X133254286Y-152374200D02*
X133140000Y-152412295D01*
X133140000Y-152412295D02*
X132949524Y-152412295D01*
X134320952Y-152374200D02*
X134435238Y-152412295D01*
X134435238Y-152412295D02*
X134625714Y-152412295D01*
X134625714Y-152412295D02*
X134701905Y-152374200D01*
X134701905Y-152374200D02*
X134740000Y-152336104D01*
X134740000Y-152336104D02*
X134778095Y-152259914D01*
X134778095Y-152259914D02*
X134778095Y-152183723D01*
X134778095Y-152183723D02*
X134740000Y-152107533D01*
X134740000Y-152107533D02*
X134701905Y-152069438D01*
X134701905Y-152069438D02*
X134625714Y-152031342D01*
X134625714Y-152031342D02*
X134473333Y-151993247D01*
X134473333Y-151993247D02*
X134397143Y-151955152D01*
X134397143Y-151955152D02*
X134359048Y-151917057D01*
X134359048Y-151917057D02*
X134320952Y-151840866D01*
X134320952Y-151840866D02*
X134320952Y-151764676D01*
X134320952Y-151764676D02*
X134359048Y-151688485D01*
X134359048Y-151688485D02*
X134397143Y-151650390D01*
X134397143Y-151650390D02*
X134473333Y-151612295D01*
X134473333Y-151612295D02*
X134663810Y-151612295D01*
X134663810Y-151612295D02*
X134778095Y-151650390D01*
X107529104Y-125834285D02*
X107529104Y-125358095D01*
X107814819Y-125929523D02*
X106814819Y-125596190D01*
X106814819Y-125596190D02*
X107814819Y-125262857D01*
X107814819Y-124405714D02*
X107814819Y-124977142D01*
X107814819Y-124691428D02*
X106814819Y-124691428D01*
X106814819Y-124691428D02*
X106957676Y-124786666D01*
X106957676Y-124786666D02*
X107052914Y-124881904D01*
X107052914Y-124881904D02*
X107100533Y-124977142D01*
X147454819Y-126381904D02*
X148264342Y-126381904D01*
X148264342Y-126381904D02*
X148359580Y-126334285D01*
X148359580Y-126334285D02*
X148407200Y-126286666D01*
X148407200Y-126286666D02*
X148454819Y-126191428D01*
X148454819Y-126191428D02*
X148454819Y-126000952D01*
X148454819Y-126000952D02*
X148407200Y-125905714D01*
X148407200Y-125905714D02*
X148359580Y-125858095D01*
X148359580Y-125858095D02*
X148264342Y-125810476D01*
X148264342Y-125810476D02*
X147454819Y-125810476D01*
X148407200Y-125381904D02*
X148454819Y-125239047D01*
X148454819Y-125239047D02*
X148454819Y-125000952D01*
X148454819Y-125000952D02*
X148407200Y-124905714D01*
X148407200Y-124905714D02*
X148359580Y-124858095D01*
X148359580Y-124858095D02*
X148264342Y-124810476D01*
X148264342Y-124810476D02*
X148169104Y-124810476D01*
X148169104Y-124810476D02*
X148073866Y-124858095D01*
X148073866Y-124858095D02*
X148026247Y-124905714D01*
X148026247Y-124905714D02*
X147978628Y-125000952D01*
X147978628Y-125000952D02*
X147931009Y-125191428D01*
X147931009Y-125191428D02*
X147883390Y-125286666D01*
X147883390Y-125286666D02*
X147835771Y-125334285D01*
X147835771Y-125334285D02*
X147740533Y-125381904D01*
X147740533Y-125381904D02*
X147645295Y-125381904D01*
X147645295Y-125381904D02*
X147550057Y-125334285D01*
X147550057Y-125334285D02*
X147502438Y-125286666D01*
X147502438Y-125286666D02*
X147454819Y-125191428D01*
X147454819Y-125191428D02*
X147454819Y-124953333D01*
X147454819Y-124953333D02*
X147502438Y-124810476D01*
X147931009Y-124048571D02*
X147978628Y-123905714D01*
X147978628Y-123905714D02*
X148026247Y-123858095D01*
X148026247Y-123858095D02*
X148121485Y-123810476D01*
X148121485Y-123810476D02*
X148264342Y-123810476D01*
X148264342Y-123810476D02*
X148359580Y-123858095D01*
X148359580Y-123858095D02*
X148407200Y-123905714D01*
X148407200Y-123905714D02*
X148454819Y-124000952D01*
X148454819Y-124000952D02*
X148454819Y-124381904D01*
X148454819Y-124381904D02*
X147454819Y-124381904D01*
X147454819Y-124381904D02*
X147454819Y-124048571D01*
X147454819Y-124048571D02*
X147502438Y-123953333D01*
X147502438Y-123953333D02*
X147550057Y-123905714D01*
X147550057Y-123905714D02*
X147645295Y-123858095D01*
X147645295Y-123858095D02*
X147740533Y-123858095D01*
X147740533Y-123858095D02*
X147835771Y-123905714D01*
X147835771Y-123905714D02*
X147883390Y-123953333D01*
X147883390Y-123953333D02*
X147931009Y-124048571D01*
X147931009Y-124048571D02*
X147931009Y-124381904D01*
X132973333Y-150034819D02*
X132640000Y-149558628D01*
X132401905Y-150034819D02*
X132401905Y-149034819D01*
X132401905Y-149034819D02*
X132782857Y-149034819D01*
X132782857Y-149034819D02*
X132878095Y-149082438D01*
X132878095Y-149082438D02*
X132925714Y-149130057D01*
X132925714Y-149130057D02*
X132973333Y-149225295D01*
X132973333Y-149225295D02*
X132973333Y-149368152D01*
X132973333Y-149368152D02*
X132925714Y-149463390D01*
X132925714Y-149463390D02*
X132878095Y-149511009D01*
X132878095Y-149511009D02*
X132782857Y-149558628D01*
X132782857Y-149558628D02*
X132401905Y-149558628D01*
X133830476Y-149034819D02*
X133640000Y-149034819D01*
X133640000Y-149034819D02*
X133544762Y-149082438D01*
X133544762Y-149082438D02*
X133497143Y-149130057D01*
X133497143Y-149130057D02*
X133401905Y-149272914D01*
X133401905Y-149272914D02*
X133354286Y-149463390D01*
X133354286Y-149463390D02*
X133354286Y-149844342D01*
X133354286Y-149844342D02*
X133401905Y-149939580D01*
X133401905Y-149939580D02*
X133449524Y-149987200D01*
X133449524Y-149987200D02*
X133544762Y-150034819D01*
X133544762Y-150034819D02*
X133735238Y-150034819D01*
X133735238Y-150034819D02*
X133830476Y-149987200D01*
X133830476Y-149987200D02*
X133878095Y-149939580D01*
X133878095Y-149939580D02*
X133925714Y-149844342D01*
X133925714Y-149844342D02*
X133925714Y-149606247D01*
X133925714Y-149606247D02*
X133878095Y-149511009D01*
X133878095Y-149511009D02*
X133830476Y-149463390D01*
X133830476Y-149463390D02*
X133735238Y-149415771D01*
X133735238Y-149415771D02*
X133544762Y-149415771D01*
X133544762Y-149415771D02*
X133449524Y-149463390D01*
X133449524Y-149463390D02*
X133401905Y-149511009D01*
X133401905Y-149511009D02*
X133354286Y-149606247D01*
X107084819Y-141156666D02*
X106608628Y-141489999D01*
X107084819Y-141728094D02*
X106084819Y-141728094D01*
X106084819Y-141728094D02*
X106084819Y-141347142D01*
X106084819Y-141347142D02*
X106132438Y-141251904D01*
X106132438Y-141251904D02*
X106180057Y-141204285D01*
X106180057Y-141204285D02*
X106275295Y-141156666D01*
X106275295Y-141156666D02*
X106418152Y-141156666D01*
X106418152Y-141156666D02*
X106513390Y-141204285D01*
X106513390Y-141204285D02*
X106561009Y-141251904D01*
X106561009Y-141251904D02*
X106608628Y-141347142D01*
X106608628Y-141347142D02*
X106608628Y-141728094D01*
X107084819Y-140204285D02*
X107084819Y-140775713D01*
X107084819Y-140489999D02*
X106084819Y-140489999D01*
X106084819Y-140489999D02*
X106227676Y-140585237D01*
X106227676Y-140585237D02*
X106322914Y-140680475D01*
X106322914Y-140680475D02*
X106370533Y-140775713D01*
X111444761Y-144900057D02*
X111349523Y-144852438D01*
X111349523Y-144852438D02*
X111254285Y-144757200D01*
X111254285Y-144757200D02*
X111111428Y-144614342D01*
X111111428Y-144614342D02*
X111016190Y-144566723D01*
X111016190Y-144566723D02*
X110920952Y-144566723D01*
X110968571Y-144804819D02*
X110873333Y-144757200D01*
X110873333Y-144757200D02*
X110778095Y-144661961D01*
X110778095Y-144661961D02*
X110730476Y-144471485D01*
X110730476Y-144471485D02*
X110730476Y-144138152D01*
X110730476Y-144138152D02*
X110778095Y-143947676D01*
X110778095Y-143947676D02*
X110873333Y-143852438D01*
X110873333Y-143852438D02*
X110968571Y-143804819D01*
X110968571Y-143804819D02*
X111159047Y-143804819D01*
X111159047Y-143804819D02*
X111254285Y-143852438D01*
X111254285Y-143852438D02*
X111349523Y-143947676D01*
X111349523Y-143947676D02*
X111397142Y-144138152D01*
X111397142Y-144138152D02*
X111397142Y-144471485D01*
X111397142Y-144471485D02*
X111349523Y-144661961D01*
X111349523Y-144661961D02*
X111254285Y-144757200D01*
X111254285Y-144757200D02*
X111159047Y-144804819D01*
X111159047Y-144804819D02*
X110968571Y-144804819D01*
X112349523Y-144804819D02*
X111778095Y-144804819D01*
X112063809Y-144804819D02*
X112063809Y-143804819D01*
X112063809Y-143804819D02*
X111968571Y-143947676D01*
X111968571Y-143947676D02*
X111873333Y-144042914D01*
X111873333Y-144042914D02*
X111778095Y-144090533D01*
X110359047Y-151650390D02*
X110282857Y-151612295D01*
X110282857Y-151612295D02*
X110168571Y-151612295D01*
X110168571Y-151612295D02*
X110054285Y-151650390D01*
X110054285Y-151650390D02*
X109978095Y-151726580D01*
X109978095Y-151726580D02*
X109940000Y-151802771D01*
X109940000Y-151802771D02*
X109901904Y-151955152D01*
X109901904Y-151955152D02*
X109901904Y-152069438D01*
X109901904Y-152069438D02*
X109940000Y-152221819D01*
X109940000Y-152221819D02*
X109978095Y-152298009D01*
X109978095Y-152298009D02*
X110054285Y-152374200D01*
X110054285Y-152374200D02*
X110168571Y-152412295D01*
X110168571Y-152412295D02*
X110244762Y-152412295D01*
X110244762Y-152412295D02*
X110359047Y-152374200D01*
X110359047Y-152374200D02*
X110397143Y-152336104D01*
X110397143Y-152336104D02*
X110397143Y-152069438D01*
X110397143Y-152069438D02*
X110244762Y-152069438D01*
X111349524Y-152412295D02*
X111349524Y-151612295D01*
X111349524Y-151612295D02*
X111540000Y-151612295D01*
X111540000Y-151612295D02*
X111654286Y-151650390D01*
X111654286Y-151650390D02*
X111730476Y-151726580D01*
X111730476Y-151726580D02*
X111768571Y-151802771D01*
X111768571Y-151802771D02*
X111806667Y-151955152D01*
X111806667Y-151955152D02*
X111806667Y-152069438D01*
X111806667Y-152069438D02*
X111768571Y-152221819D01*
X111768571Y-152221819D02*
X111730476Y-152298009D01*
X111730476Y-152298009D02*
X111654286Y-152374200D01*
X111654286Y-152374200D02*
X111540000Y-152412295D01*
X111540000Y-152412295D02*
X111349524Y-152412295D01*
X112720952Y-152374200D02*
X112835238Y-152412295D01*
X112835238Y-152412295D02*
X113025714Y-152412295D01*
X113025714Y-152412295D02*
X113101905Y-152374200D01*
X113101905Y-152374200D02*
X113140000Y-152336104D01*
X113140000Y-152336104D02*
X113178095Y-152259914D01*
X113178095Y-152259914D02*
X113178095Y-152183723D01*
X113178095Y-152183723D02*
X113140000Y-152107533D01*
X113140000Y-152107533D02*
X113101905Y-152069438D01*
X113101905Y-152069438D02*
X113025714Y-152031342D01*
X113025714Y-152031342D02*
X112873333Y-151993247D01*
X112873333Y-151993247D02*
X112797143Y-151955152D01*
X112797143Y-151955152D02*
X112759048Y-151917057D01*
X112759048Y-151917057D02*
X112720952Y-151840866D01*
X112720952Y-151840866D02*
X112720952Y-151764676D01*
X112720952Y-151764676D02*
X112759048Y-151688485D01*
X112759048Y-151688485D02*
X112797143Y-151650390D01*
X112797143Y-151650390D02*
X112873333Y-151612295D01*
X112873333Y-151612295D02*
X113063810Y-151612295D01*
X113063810Y-151612295D02*
X113178095Y-151650390D01*
X122173333Y-150034819D02*
X121840000Y-149558628D01*
X121601905Y-150034819D02*
X121601905Y-149034819D01*
X121601905Y-149034819D02*
X121982857Y-149034819D01*
X121982857Y-149034819D02*
X122078095Y-149082438D01*
X122078095Y-149082438D02*
X122125714Y-149130057D01*
X122125714Y-149130057D02*
X122173333Y-149225295D01*
X122173333Y-149225295D02*
X122173333Y-149368152D01*
X122173333Y-149368152D02*
X122125714Y-149463390D01*
X122125714Y-149463390D02*
X122078095Y-149511009D01*
X122078095Y-149511009D02*
X121982857Y-149558628D01*
X121982857Y-149558628D02*
X121601905Y-149558628D01*
X123078095Y-149034819D02*
X122601905Y-149034819D01*
X122601905Y-149034819D02*
X122554286Y-149511009D01*
X122554286Y-149511009D02*
X122601905Y-149463390D01*
X122601905Y-149463390D02*
X122697143Y-149415771D01*
X122697143Y-149415771D02*
X122935238Y-149415771D01*
X122935238Y-149415771D02*
X123030476Y-149463390D01*
X123030476Y-149463390D02*
X123078095Y-149511009D01*
X123078095Y-149511009D02*
X123125714Y-149606247D01*
X123125714Y-149606247D02*
X123125714Y-149844342D01*
X123125714Y-149844342D02*
X123078095Y-149939580D01*
X123078095Y-149939580D02*
X123030476Y-149987200D01*
X123030476Y-149987200D02*
X122935238Y-150034819D01*
X122935238Y-150034819D02*
X122697143Y-150034819D01*
X122697143Y-150034819D02*
X122601905Y-149987200D01*
X122601905Y-149987200D02*
X122554286Y-149939580D01*
X148126666Y-152634819D02*
X148126666Y-153349104D01*
X148126666Y-153349104D02*
X148079047Y-153491961D01*
X148079047Y-153491961D02*
X147983809Y-153587200D01*
X147983809Y-153587200D02*
X147840952Y-153634819D01*
X147840952Y-153634819D02*
X147745714Y-153634819D01*
X149126666Y-153634819D02*
X148555238Y-153634819D01*
X148840952Y-153634819D02*
X148840952Y-152634819D01*
X148840952Y-152634819D02*
X148745714Y-152777676D01*
X148745714Y-152777676D02*
X148650476Y-152872914D01*
X148650476Y-152872914D02*
X148555238Y-152920533D01*
X132593333Y-111834819D02*
X132260000Y-111358628D01*
X132021905Y-111834819D02*
X132021905Y-110834819D01*
X132021905Y-110834819D02*
X132402857Y-110834819D01*
X132402857Y-110834819D02*
X132498095Y-110882438D01*
X132498095Y-110882438D02*
X132545714Y-110930057D01*
X132545714Y-110930057D02*
X132593333Y-111025295D01*
X132593333Y-111025295D02*
X132593333Y-111168152D01*
X132593333Y-111168152D02*
X132545714Y-111263390D01*
X132545714Y-111263390D02*
X132498095Y-111311009D01*
X132498095Y-111311009D02*
X132402857Y-111358628D01*
X132402857Y-111358628D02*
X132021905Y-111358628D01*
X132926667Y-110834819D02*
X133593333Y-110834819D01*
X133593333Y-110834819D02*
X133164762Y-111834819D01*
X114786666Y-152634819D02*
X114786666Y-153349104D01*
X114786666Y-153349104D02*
X114739047Y-153491961D01*
X114739047Y-153491961D02*
X114643809Y-153587200D01*
X114643809Y-153587200D02*
X114500952Y-153634819D01*
X114500952Y-153634819D02*
X114405714Y-153634819D01*
X115215238Y-152730057D02*
X115262857Y-152682438D01*
X115262857Y-152682438D02*
X115358095Y-152634819D01*
X115358095Y-152634819D02*
X115596190Y-152634819D01*
X115596190Y-152634819D02*
X115691428Y-152682438D01*
X115691428Y-152682438D02*
X115739047Y-152730057D01*
X115739047Y-152730057D02*
X115786666Y-152825295D01*
X115786666Y-152825295D02*
X115786666Y-152920533D01*
X115786666Y-152920533D02*
X115739047Y-153063390D01*
X115739047Y-153063390D02*
X115167619Y-153634819D01*
X115167619Y-153634819D02*
X115786666Y-153634819D01*
X136834819Y-110833333D02*
X137549104Y-110833333D01*
X137549104Y-110833333D02*
X137691961Y-110880952D01*
X137691961Y-110880952D02*
X137787200Y-110976190D01*
X137787200Y-110976190D02*
X137834819Y-111119047D01*
X137834819Y-111119047D02*
X137834819Y-111214285D01*
X137168152Y-109928571D02*
X137834819Y-109928571D01*
X136787200Y-110166666D02*
X137501485Y-110404761D01*
X137501485Y-110404761D02*
X137501485Y-109785714D01*
X137926666Y-155681009D02*
X137593333Y-155681009D01*
X137593333Y-156204819D02*
X137593333Y-155204819D01*
X137593333Y-155204819D02*
X138069523Y-155204819D01*
X138974285Y-156204819D02*
X138402857Y-156204819D01*
X138688571Y-156204819D02*
X138688571Y-155204819D01*
X138688571Y-155204819D02*
X138593333Y-155347676D01*
X138593333Y-155347676D02*
X138498095Y-155442914D01*
X138498095Y-155442914D02*
X138402857Y-155490533D01*
X114204819Y-110333333D02*
X114919104Y-110333333D01*
X114919104Y-110333333D02*
X115061961Y-110380952D01*
X115061961Y-110380952D02*
X115157200Y-110476190D01*
X115157200Y-110476190D02*
X115204819Y-110619047D01*
X115204819Y-110619047D02*
X115204819Y-110714285D01*
X114204819Y-109952380D02*
X114204819Y-109333333D01*
X114204819Y-109333333D02*
X114585771Y-109666666D01*
X114585771Y-109666666D02*
X114585771Y-109523809D01*
X114585771Y-109523809D02*
X114633390Y-109428571D01*
X114633390Y-109428571D02*
X114681009Y-109380952D01*
X114681009Y-109380952D02*
X114776247Y-109333333D01*
X114776247Y-109333333D02*
X115014342Y-109333333D01*
X115014342Y-109333333D02*
X115109580Y-109380952D01*
X115109580Y-109380952D02*
X115157200Y-109428571D01*
X115157200Y-109428571D02*
X115204819Y-109523809D01*
X115204819Y-109523809D02*
X115204819Y-109809523D01*
X115204819Y-109809523D02*
X115157200Y-109904761D01*
X115157200Y-109904761D02*
X115109580Y-109952380D01*
X147704184Y-149198094D02*
X146704184Y-149198094D01*
X146704184Y-149198094D02*
X146704184Y-148959999D01*
X146704184Y-148959999D02*
X146751803Y-148817142D01*
X146751803Y-148817142D02*
X146847041Y-148721904D01*
X146847041Y-148721904D02*
X146942279Y-148674285D01*
X146942279Y-148674285D02*
X147132755Y-148626666D01*
X147132755Y-148626666D02*
X147275612Y-148626666D01*
X147275612Y-148626666D02*
X147466088Y-148674285D01*
X147466088Y-148674285D02*
X147561326Y-148721904D01*
X147561326Y-148721904D02*
X147656565Y-148817142D01*
X147656565Y-148817142D02*
X147704184Y-148959999D01*
X147704184Y-148959999D02*
X147704184Y-149198094D01*
X147704184Y-147674285D02*
X147704184Y-148245713D01*
X147704184Y-147959999D02*
X146704184Y-147959999D01*
X146704184Y-147959999D02*
X146847041Y-148055237D01*
X146847041Y-148055237D02*
X146942279Y-148150475D01*
X146942279Y-148150475D02*
X146989898Y-148245713D01*
X151554819Y-149461904D02*
X150554819Y-149461904D01*
X151554819Y-148890476D02*
X150983390Y-149319047D01*
X150554819Y-148890476D02*
X151126247Y-149461904D01*
X128684819Y-141156666D02*
X128208628Y-141489999D01*
X128684819Y-141728094D02*
X127684819Y-141728094D01*
X127684819Y-141728094D02*
X127684819Y-141347142D01*
X127684819Y-141347142D02*
X127732438Y-141251904D01*
X127732438Y-141251904D02*
X127780057Y-141204285D01*
X127780057Y-141204285D02*
X127875295Y-141156666D01*
X127875295Y-141156666D02*
X128018152Y-141156666D01*
X128018152Y-141156666D02*
X128113390Y-141204285D01*
X128113390Y-141204285D02*
X128161009Y-141251904D01*
X128161009Y-141251904D02*
X128208628Y-141347142D01*
X128208628Y-141347142D02*
X128208628Y-141728094D01*
X127684819Y-140823332D02*
X127684819Y-140204285D01*
X127684819Y-140204285D02*
X128065771Y-140537618D01*
X128065771Y-140537618D02*
X128065771Y-140394761D01*
X128065771Y-140394761D02*
X128113390Y-140299523D01*
X128113390Y-140299523D02*
X128161009Y-140251904D01*
X128161009Y-140251904D02*
X128256247Y-140204285D01*
X128256247Y-140204285D02*
X128494342Y-140204285D01*
X128494342Y-140204285D02*
X128589580Y-140251904D01*
X128589580Y-140251904D02*
X128637200Y-140299523D01*
X128637200Y-140299523D02*
X128684819Y-140394761D01*
X128684819Y-140394761D02*
X128684819Y-140680475D01*
X128684819Y-140680475D02*
X128637200Y-140775713D01*
X128637200Y-140775713D02*
X128589580Y-140823332D01*
X117884819Y-141156666D02*
X117408628Y-141489999D01*
X117884819Y-141728094D02*
X116884819Y-141728094D01*
X116884819Y-141728094D02*
X116884819Y-141347142D01*
X116884819Y-141347142D02*
X116932438Y-141251904D01*
X116932438Y-141251904D02*
X116980057Y-141204285D01*
X116980057Y-141204285D02*
X117075295Y-141156666D01*
X117075295Y-141156666D02*
X117218152Y-141156666D01*
X117218152Y-141156666D02*
X117313390Y-141204285D01*
X117313390Y-141204285D02*
X117361009Y-141251904D01*
X117361009Y-141251904D02*
X117408628Y-141347142D01*
X117408628Y-141347142D02*
X117408628Y-141728094D01*
X116980057Y-140775713D02*
X116932438Y-140728094D01*
X116932438Y-140728094D02*
X116884819Y-140632856D01*
X116884819Y-140632856D02*
X116884819Y-140394761D01*
X116884819Y-140394761D02*
X116932438Y-140299523D01*
X116932438Y-140299523D02*
X116980057Y-140251904D01*
X116980057Y-140251904D02*
X117075295Y-140204285D01*
X117075295Y-140204285D02*
X117170533Y-140204285D01*
X117170533Y-140204285D02*
X117313390Y-140251904D01*
X117313390Y-140251904D02*
X117884819Y-140823332D01*
X117884819Y-140823332D02*
X117884819Y-140204285D01*
X111373333Y-150034819D02*
X111040000Y-149558628D01*
X110801905Y-150034819D02*
X110801905Y-149034819D01*
X110801905Y-149034819D02*
X111182857Y-149034819D01*
X111182857Y-149034819D02*
X111278095Y-149082438D01*
X111278095Y-149082438D02*
X111325714Y-149130057D01*
X111325714Y-149130057D02*
X111373333Y-149225295D01*
X111373333Y-149225295D02*
X111373333Y-149368152D01*
X111373333Y-149368152D02*
X111325714Y-149463390D01*
X111325714Y-149463390D02*
X111278095Y-149511009D01*
X111278095Y-149511009D02*
X111182857Y-149558628D01*
X111182857Y-149558628D02*
X110801905Y-149558628D01*
X112230476Y-149368152D02*
X112230476Y-150034819D01*
X111992381Y-148987200D02*
X111754286Y-149701485D01*
X111754286Y-149701485D02*
X112373333Y-149701485D01*
X142583333Y-144609580D02*
X142535714Y-144657200D01*
X142535714Y-144657200D02*
X142392857Y-144704819D01*
X142392857Y-144704819D02*
X142297619Y-144704819D01*
X142297619Y-144704819D02*
X142154762Y-144657200D01*
X142154762Y-144657200D02*
X142059524Y-144561961D01*
X142059524Y-144561961D02*
X142011905Y-144466723D01*
X142011905Y-144466723D02*
X141964286Y-144276247D01*
X141964286Y-144276247D02*
X141964286Y-144133390D01*
X141964286Y-144133390D02*
X142011905Y-143942914D01*
X142011905Y-143942914D02*
X142059524Y-143847676D01*
X142059524Y-143847676D02*
X142154762Y-143752438D01*
X142154762Y-143752438D02*
X142297619Y-143704819D01*
X142297619Y-143704819D02*
X142392857Y-143704819D01*
X142392857Y-143704819D02*
X142535714Y-143752438D01*
X142535714Y-143752438D02*
X142583333Y-143800057D01*
X143535714Y-144704819D02*
X142964286Y-144704819D01*
X143250000Y-144704819D02*
X143250000Y-143704819D01*
X143250000Y-143704819D02*
X143154762Y-143847676D01*
X143154762Y-143847676D02*
X143059524Y-143942914D01*
X143059524Y-143942914D02*
X142964286Y-143990533D01*
X122244761Y-144900057D02*
X122149523Y-144852438D01*
X122149523Y-144852438D02*
X122054285Y-144757200D01*
X122054285Y-144757200D02*
X121911428Y-144614342D01*
X121911428Y-144614342D02*
X121816190Y-144566723D01*
X121816190Y-144566723D02*
X121720952Y-144566723D01*
X121768571Y-144804819D02*
X121673333Y-144757200D01*
X121673333Y-144757200D02*
X121578095Y-144661961D01*
X121578095Y-144661961D02*
X121530476Y-144471485D01*
X121530476Y-144471485D02*
X121530476Y-144138152D01*
X121530476Y-144138152D02*
X121578095Y-143947676D01*
X121578095Y-143947676D02*
X121673333Y-143852438D01*
X121673333Y-143852438D02*
X121768571Y-143804819D01*
X121768571Y-143804819D02*
X121959047Y-143804819D01*
X121959047Y-143804819D02*
X122054285Y-143852438D01*
X122054285Y-143852438D02*
X122149523Y-143947676D01*
X122149523Y-143947676D02*
X122197142Y-144138152D01*
X122197142Y-144138152D02*
X122197142Y-144471485D01*
X122197142Y-144471485D02*
X122149523Y-144661961D01*
X122149523Y-144661961D02*
X122054285Y-144757200D01*
X122054285Y-144757200D02*
X121959047Y-144804819D01*
X121959047Y-144804819D02*
X121768571Y-144804819D01*
X122578095Y-143900057D02*
X122625714Y-143852438D01*
X122625714Y-143852438D02*
X122720952Y-143804819D01*
X122720952Y-143804819D02*
X122959047Y-143804819D01*
X122959047Y-143804819D02*
X123054285Y-143852438D01*
X123054285Y-143852438D02*
X123101904Y-143900057D01*
X123101904Y-143900057D02*
X123149523Y-143995295D01*
X123149523Y-143995295D02*
X123149523Y-144090533D01*
X123149523Y-144090533D02*
X123101904Y-144233390D01*
X123101904Y-144233390D02*
X122530476Y-144804819D01*
X122530476Y-144804819D02*
X123149523Y-144804819D01*
X121159047Y-151650390D02*
X121082857Y-151612295D01*
X121082857Y-151612295D02*
X120968571Y-151612295D01*
X120968571Y-151612295D02*
X120854285Y-151650390D01*
X120854285Y-151650390D02*
X120778095Y-151726580D01*
X120778095Y-151726580D02*
X120740000Y-151802771D01*
X120740000Y-151802771D02*
X120701904Y-151955152D01*
X120701904Y-151955152D02*
X120701904Y-152069438D01*
X120701904Y-152069438D02*
X120740000Y-152221819D01*
X120740000Y-152221819D02*
X120778095Y-152298009D01*
X120778095Y-152298009D02*
X120854285Y-152374200D01*
X120854285Y-152374200D02*
X120968571Y-152412295D01*
X120968571Y-152412295D02*
X121044762Y-152412295D01*
X121044762Y-152412295D02*
X121159047Y-152374200D01*
X121159047Y-152374200D02*
X121197143Y-152336104D01*
X121197143Y-152336104D02*
X121197143Y-152069438D01*
X121197143Y-152069438D02*
X121044762Y-152069438D01*
X122149524Y-152412295D02*
X122149524Y-151612295D01*
X122149524Y-151612295D02*
X122340000Y-151612295D01*
X122340000Y-151612295D02*
X122454286Y-151650390D01*
X122454286Y-151650390D02*
X122530476Y-151726580D01*
X122530476Y-151726580D02*
X122568571Y-151802771D01*
X122568571Y-151802771D02*
X122606667Y-151955152D01*
X122606667Y-151955152D02*
X122606667Y-152069438D01*
X122606667Y-152069438D02*
X122568571Y-152221819D01*
X122568571Y-152221819D02*
X122530476Y-152298009D01*
X122530476Y-152298009D02*
X122454286Y-152374200D01*
X122454286Y-152374200D02*
X122340000Y-152412295D01*
X122340000Y-152412295D02*
X122149524Y-152412295D01*
X123520952Y-152374200D02*
X123635238Y-152412295D01*
X123635238Y-152412295D02*
X123825714Y-152412295D01*
X123825714Y-152412295D02*
X123901905Y-152374200D01*
X123901905Y-152374200D02*
X123940000Y-152336104D01*
X123940000Y-152336104D02*
X123978095Y-152259914D01*
X123978095Y-152259914D02*
X123978095Y-152183723D01*
X123978095Y-152183723D02*
X123940000Y-152107533D01*
X123940000Y-152107533D02*
X123901905Y-152069438D01*
X123901905Y-152069438D02*
X123825714Y-152031342D01*
X123825714Y-152031342D02*
X123673333Y-151993247D01*
X123673333Y-151993247D02*
X123597143Y-151955152D01*
X123597143Y-151955152D02*
X123559048Y-151917057D01*
X123559048Y-151917057D02*
X123520952Y-151840866D01*
X123520952Y-151840866D02*
X123520952Y-151764676D01*
X123520952Y-151764676D02*
X123559048Y-151688485D01*
X123559048Y-151688485D02*
X123597143Y-151650390D01*
X123597143Y-151650390D02*
X123673333Y-151612295D01*
X123673333Y-151612295D02*
X123863810Y-151612295D01*
X123863810Y-151612295D02*
X123978095Y-151650390D01*
D12*
%TO.C,Q3*%
X128030000Y-145190000D02*
X138250000Y-145190000D01*
X128030000Y-146570000D02*
X138250000Y-146570000D01*
X128030000Y-149810000D02*
X128030000Y-145190000D01*
X131290000Y-145190000D02*
X131290000Y-146570000D01*
X134990000Y-145190000D02*
X134990000Y-146570000D01*
X138250000Y-145190000D02*
X138250000Y-149810000D01*
X138250000Y-149810000D02*
X128030000Y-149810000D01*
%TO.C,A1*%
X108500000Y-116100000D02*
X108500000Y-134140000D01*
X108500000Y-134140000D02*
X111170000Y-134140000D01*
X111170000Y-118770000D02*
X111170000Y-116100000D01*
X111170000Y-118770000D02*
X149270000Y-118770000D01*
X111170000Y-131470000D02*
X111170000Y-134140000D01*
X113710000Y-131470000D02*
X111170000Y-131470000D01*
X113710000Y-131470000D02*
X113710000Y-134140000D01*
X113710000Y-131470000D02*
X149270000Y-131470000D01*
X113710000Y-134140000D02*
X151940000Y-134140000D01*
X144060000Y-121180000D02*
X154480000Y-121180000D01*
X144060000Y-129060000D02*
X144060000Y-121180000D01*
X149270000Y-118770000D02*
X149270000Y-116100000D01*
X149270000Y-131470000D02*
X149270000Y-134140000D01*
X151940000Y-116100000D02*
X108500000Y-116100000D01*
X151940000Y-116100000D02*
X151940000Y-121180000D01*
X151940000Y-134140000D02*
X151940000Y-129060000D01*
X154480000Y-121180000D02*
X154480000Y-129060000D01*
X154480000Y-129060000D02*
X144060000Y-129060000D01*
%TO.C,R6*%
X131970000Y-151950000D02*
X134580000Y-151950000D01*
X131970000Y-151950000D02*
G75*
G02*
X129230000Y-151950000I-1370000J0D01*
G01*
X129230000Y-151950000D02*
G75*
G02*
X131970000Y-151950000I1370000J0D01*
G01*
%TO.C,R1*%
X109000000Y-142160000D02*
X109000000Y-139550000D01*
X110370000Y-143530000D02*
G75*
G02*
X107630000Y-143530000I-1370000J0D01*
G01*
X107630000Y-143530000D02*
G75*
G02*
X110370000Y-143530000I1370000J0D01*
G01*
%TO.C,Q1*%
X106430000Y-145190000D02*
X116650000Y-145190000D01*
X106430000Y-146570000D02*
X116650000Y-146570000D01*
X106430000Y-149810000D02*
X106430000Y-145190000D01*
X109690000Y-145190000D02*
X109690000Y-146570000D01*
X113390000Y-145190000D02*
X113390000Y-146570000D01*
X116650000Y-145190000D02*
X116650000Y-149810000D01*
X116650000Y-149810000D02*
X106430000Y-149810000D01*
%TO.C,R5*%
X121170000Y-151950000D02*
X123780000Y-151950000D01*
X121170000Y-151950000D02*
G75*
G02*
X118430000Y-151950000I-1370000J0D01*
G01*
X118430000Y-151950000D02*
G75*
G02*
X121170000Y-151950000I1370000J0D01*
G01*
%TO.C,J1*%
X143260000Y-154180000D02*
X153660000Y-154180000D01*
X143260000Y-157200000D02*
X153660000Y-157200000D01*
X143260000Y-162100000D02*
X153660000Y-162100000D01*
X143260000Y-163600000D02*
X153660000Y-163600000D01*
X143260000Y-164220000D02*
X143260000Y-154180000D01*
X145620000Y-164220000D02*
X143260000Y-164220000D01*
X153660000Y-154180000D02*
X153660000Y-164220000D01*
X153660000Y-164220000D02*
X146220000Y-164220000D01*
X146360000Y-164830000D02*
X145480000Y-164830000D01*
X145920000Y-164220000D01*
X146360000Y-164830000D01*
G36*
X146360000Y-164830000D02*
G01*
X145480000Y-164830000D01*
X145920000Y-164220000D01*
X146360000Y-164830000D01*
G37*
%TO.C,R7*%
X131590000Y-113750000D02*
X134200000Y-113750000D01*
X131590000Y-113750000D02*
G75*
G02*
X128850000Y-113750000I-1370000J0D01*
G01*
X128850000Y-113750000D02*
G75*
G02*
X131590000Y-113750000I1370000J0D01*
G01*
%TO.C,J2*%
X104840000Y-154180000D02*
X125400000Y-154180000D01*
X104840000Y-157200000D02*
X125400000Y-157200000D01*
X104840000Y-162100000D02*
X125400000Y-162100000D01*
X104840000Y-163600000D02*
X125400000Y-163600000D01*
X104840000Y-164220000D02*
X104840000Y-154180000D01*
X107200000Y-164220000D02*
X104840000Y-164220000D01*
X125400000Y-154180000D02*
X125400000Y-164220000D01*
X125400000Y-164220000D02*
X107800000Y-164220000D01*
X107940000Y-164830000D02*
X107060000Y-164830000D01*
X107500000Y-164220000D01*
X107940000Y-164830000D01*
G36*
X107940000Y-164830000D02*
G01*
X107060000Y-164830000D01*
X107500000Y-164220000D01*
X107940000Y-164830000D01*
G37*
%TO.C,J4*%
X138380000Y-112500000D02*
X147460000Y-112500000D01*
X147460000Y-108500000D01*
X138380000Y-108500000D01*
X138380000Y-112500000D01*
%TO.C,F1*%
X134390000Y-156880000D02*
X142130000Y-156880000D01*
X134390000Y-162120000D02*
X134390000Y-156880000D01*
X142130000Y-156880000D02*
X142130000Y-162120000D01*
X142130000Y-162120000D02*
X134390000Y-162120000D01*
%TO.C,J3*%
X116190000Y-108670000D02*
X117520000Y-108670000D01*
X116190000Y-110000000D02*
X116190000Y-108670000D01*
X118790000Y-108670000D02*
X131550000Y-108670000D01*
X118790000Y-111330000D02*
X118790000Y-108670000D01*
X118790000Y-111330000D02*
X131550000Y-111330000D01*
X131550000Y-111330000D02*
X131550000Y-108670000D01*
%TO.C,D1*%
X150000000Y-147670635D02*
X150000000Y-149600000D01*
X151750635Y-145920000D02*
G75*
G02*
X148249365Y-145920000I-1750635J0D01*
G01*
X148249365Y-145920000D02*
G75*
G02*
X151750635Y-145920000I1750635J0D01*
G01*
%TO.C,R3*%
X130600000Y-142160000D02*
X130600000Y-139550000D01*
X131970000Y-143530000D02*
G75*
G02*
X129230000Y-143530000I-1370000J0D01*
G01*
X129230000Y-143530000D02*
G75*
G02*
X131970000Y-143530000I1370000J0D01*
G01*
%TO.C,R2*%
X119800000Y-142160000D02*
X119800000Y-139550000D01*
X121170000Y-143530000D02*
G75*
G02*
X118430000Y-143530000I-1370000J0D01*
G01*
X118430000Y-143530000D02*
G75*
G02*
X121170000Y-143530000I1370000J0D01*
G01*
%TO.C,R4*%
X110370000Y-151950000D02*
X112980000Y-151950000D01*
X110370000Y-151950000D02*
G75*
G02*
X107630000Y-151950000I-1370000J0D01*
G01*
X107630000Y-151950000D02*
G75*
G02*
X110370000Y-151950000I1370000J0D01*
G01*
%TO.C,C1*%
X138340302Y-147185000D02*
X139140302Y-147185000D01*
X138740302Y-146785000D02*
X138740302Y-147585000D01*
X142750000Y-145420000D02*
X142750000Y-153580000D01*
X142790000Y-145420000D02*
X142790000Y-153580000D01*
X142830000Y-145421000D02*
X142830000Y-153579000D01*
X142870000Y-145422000D02*
X142870000Y-153578000D01*
X142910000Y-145423000D02*
X142910000Y-153577000D01*
X142950000Y-145425000D02*
X142950000Y-153575000D01*
X142990000Y-145427000D02*
X142990000Y-153573000D01*
X143030000Y-145430000D02*
X143030000Y-153570000D01*
X143070000Y-145432000D02*
X143070000Y-153568000D01*
X143110000Y-145436000D02*
X143110000Y-153564000D01*
X143150000Y-145439000D02*
X143150000Y-153561000D01*
X143190000Y-145444000D02*
X143190000Y-153556000D01*
X143230000Y-145448000D02*
X143230000Y-153552000D01*
X143270000Y-145453000D02*
X143270000Y-153547000D01*
X143310000Y-145458000D02*
X143310000Y-153542000D01*
X143350000Y-145464000D02*
X143350000Y-153536000D01*
X143390000Y-145470000D02*
X143390000Y-153530000D01*
X143430000Y-145477000D02*
X143430000Y-153523000D01*
X143470000Y-145483000D02*
X143470000Y-148460000D01*
X143470000Y-150540000D02*
X143470000Y-153517000D01*
X143510000Y-145491000D02*
X143510000Y-148460000D01*
X143510000Y-150540000D02*
X143510000Y-153509000D01*
X143550000Y-145498000D02*
X143550000Y-148460000D01*
X143550000Y-150540000D02*
X143550000Y-153502000D01*
X143590000Y-145507000D02*
X143590000Y-148460000D01*
X143590000Y-150540000D02*
X143590000Y-153493000D01*
X143630000Y-145515000D02*
X143630000Y-148460000D01*
X143630000Y-150540000D02*
X143630000Y-153485000D01*
X143670000Y-145524000D02*
X143670000Y-148460000D01*
X143670000Y-150540000D02*
X143670000Y-153476000D01*
X143710000Y-145533000D02*
X143710000Y-148460000D01*
X143710000Y-150540000D02*
X143710000Y-153467000D01*
X143750000Y-145543000D02*
X143750000Y-148460000D01*
X143750000Y-150540000D02*
X143750000Y-153457000D01*
X143790000Y-145553000D02*
X143790000Y-148460000D01*
X143790000Y-150540000D02*
X143790000Y-153447000D01*
X143830000Y-145564000D02*
X143830000Y-148460000D01*
X143830000Y-150540000D02*
X143830000Y-153436000D01*
X143870000Y-145575000D02*
X143870000Y-148460000D01*
X143870000Y-150540000D02*
X143870000Y-153425000D01*
X143910000Y-145587000D02*
X143910000Y-148460000D01*
X143910000Y-150540000D02*
X143910000Y-153413000D01*
X143950000Y-145599000D02*
X143950000Y-148460000D01*
X143950000Y-150540000D02*
X143950000Y-153401000D01*
X143990000Y-145611000D02*
X143990000Y-148460000D01*
X143990000Y-150540000D02*
X143990000Y-153389000D01*
X144030000Y-145624000D02*
X144030000Y-148460000D01*
X144030000Y-150540000D02*
X144030000Y-153376000D01*
X144070000Y-145637000D02*
X144070000Y-148460000D01*
X144070000Y-150540000D02*
X144070000Y-153363000D01*
X144110000Y-145651000D02*
X144110000Y-148460000D01*
X144110000Y-150540000D02*
X144110000Y-153349000D01*
X144150000Y-145665000D02*
X144150000Y-148460000D01*
X144150000Y-150540000D02*
X144150000Y-153335000D01*
X144190000Y-145680000D02*
X144190000Y-148460000D01*
X144190000Y-150540000D02*
X144190000Y-153320000D01*
X144230000Y-145695000D02*
X144230000Y-148460000D01*
X144230000Y-150540000D02*
X144230000Y-153305000D01*
X144270000Y-145711000D02*
X144270000Y-148460000D01*
X144270000Y-150540000D02*
X144270000Y-153289000D01*
X144310000Y-145727000D02*
X144310000Y-148460000D01*
X144310000Y-150540000D02*
X144310000Y-153273000D01*
X144350000Y-145743000D02*
X144350000Y-148460000D01*
X144350000Y-150540000D02*
X144350000Y-153257000D01*
X144390000Y-145760000D02*
X144390000Y-148460000D01*
X144390000Y-150540000D02*
X144390000Y-153240000D01*
X144430000Y-145778000D02*
X144430000Y-148460000D01*
X144430000Y-150540000D02*
X144430000Y-153222000D01*
X144470000Y-145796000D02*
X144470000Y-148460000D01*
X144470000Y-150540000D02*
X144470000Y-153204000D01*
X144510000Y-145815000D02*
X144510000Y-148460000D01*
X144510000Y-150540000D02*
X144510000Y-153185000D01*
X144550000Y-145834000D02*
X144550000Y-148460000D01*
X144550000Y-150540000D02*
X144550000Y-153166000D01*
X144590000Y-145854000D02*
X144590000Y-148460000D01*
X144590000Y-150540000D02*
X144590000Y-153146000D01*
X144630000Y-145874000D02*
X144630000Y-148460000D01*
X144630000Y-150540000D02*
X144630000Y-153126000D01*
X144670000Y-145895000D02*
X144670000Y-148460000D01*
X144670000Y-150540000D02*
X144670000Y-153105000D01*
X144710000Y-145916000D02*
X144710000Y-148460000D01*
X144710000Y-150540000D02*
X144710000Y-153084000D01*
X144750000Y-145938000D02*
X144750000Y-148460000D01*
X144750000Y-150540000D02*
X144750000Y-153062000D01*
X144790000Y-145961000D02*
X144790000Y-148460000D01*
X144790000Y-150540000D02*
X144790000Y-153039000D01*
X144830000Y-145984000D02*
X144830000Y-148460000D01*
X144830000Y-150540000D02*
X144830000Y-153016000D01*
X144870000Y-146007000D02*
X144870000Y-148460000D01*
X144870000Y-150540000D02*
X144870000Y-152993000D01*
X144910000Y-146032000D02*
X144910000Y-148460000D01*
X144910000Y-150540000D02*
X144910000Y-152968000D01*
X144950000Y-146057000D02*
X144950000Y-148460000D01*
X144950000Y-150540000D02*
X144950000Y-152943000D01*
X144990000Y-146082000D02*
X144990000Y-148460000D01*
X144990000Y-150540000D02*
X144990000Y-152918000D01*
X145030000Y-146108000D02*
X145030000Y-148460000D01*
X145030000Y-150540000D02*
X145030000Y-152892000D01*
X145070000Y-146135000D02*
X145070000Y-148460000D01*
X145070000Y-150540000D02*
X145070000Y-152865000D01*
X145110000Y-146163000D02*
X145110000Y-148460000D01*
X145110000Y-150540000D02*
X145110000Y-152837000D01*
X145150000Y-146191000D02*
X145150000Y-148460000D01*
X145150000Y-150540000D02*
X145150000Y-152809000D01*
X145190000Y-146220000D02*
X145190000Y-148460000D01*
X145190000Y-150540000D02*
X145190000Y-152780000D01*
X145230000Y-146250000D02*
X145230000Y-148460000D01*
X145230000Y-150540000D02*
X145230000Y-152750000D01*
X145270000Y-146281000D02*
X145270000Y-148460000D01*
X145270000Y-150540000D02*
X145270000Y-152719000D01*
X145310000Y-146312000D02*
X145310000Y-148460000D01*
X145310000Y-150540000D02*
X145310000Y-152688000D01*
X145350000Y-146344000D02*
X145350000Y-148460000D01*
X145350000Y-150540000D02*
X145350000Y-152656000D01*
X145390000Y-146377000D02*
X145390000Y-148460000D01*
X145390000Y-150540000D02*
X145390000Y-152623000D01*
X145430000Y-146411000D02*
X145430000Y-148460000D01*
X145430000Y-150540000D02*
X145430000Y-152589000D01*
X145470000Y-146445000D02*
X145470000Y-148460000D01*
X145470000Y-150540000D02*
X145470000Y-152555000D01*
X145510000Y-146481000D02*
X145510000Y-148460000D01*
X145510000Y-150540000D02*
X145510000Y-152519000D01*
X145550000Y-146518000D02*
X145550000Y-152482000D01*
X145590000Y-146555000D02*
X145590000Y-152445000D01*
X145630000Y-146594000D02*
X145630000Y-152406000D01*
X145670000Y-146633000D02*
X145670000Y-152367000D01*
X145710000Y-146674000D02*
X145710000Y-152326000D01*
X145750000Y-146716000D02*
X145750000Y-152284000D01*
X145790000Y-146759000D02*
X145790000Y-152241000D01*
X145830000Y-146804000D02*
X145830000Y-152196000D01*
X145870000Y-146849000D02*
X145870000Y-152151000D01*
X145910000Y-146896000D02*
X145910000Y-152104000D01*
X145950000Y-146945000D02*
X145950000Y-152055000D01*
X145990000Y-146995000D02*
X145990000Y-152005000D01*
X146030000Y-147047000D02*
X146030000Y-151953000D01*
X146070000Y-147100000D02*
X146070000Y-151900000D01*
X146110000Y-147156000D02*
X146110000Y-151844000D01*
X146150000Y-147213000D02*
X146150000Y-151787000D01*
X146190000Y-147273000D02*
X146190000Y-151727000D01*
X146230000Y-147335000D02*
X146230000Y-151665000D01*
X146270000Y-147399000D02*
X146270000Y-151601000D01*
X146310000Y-147466000D02*
X146310000Y-151534000D01*
X146350000Y-147536000D02*
X146350000Y-151464000D01*
X146390000Y-147610000D02*
X146390000Y-151390000D01*
X146430000Y-147687000D02*
X146430000Y-151313000D01*
X146470000Y-147769000D02*
X146470000Y-151231000D01*
X146510000Y-147856000D02*
X146510000Y-151144000D01*
X146550000Y-147948000D02*
X146550000Y-151052000D01*
X146590000Y-148047000D02*
X146590000Y-150953000D01*
X146630000Y-148154000D02*
X146630000Y-150846000D01*
X146670000Y-148272000D02*
X146670000Y-150728000D01*
X146710000Y-148403000D02*
X146710000Y-150597000D01*
X146750000Y-148553000D02*
X146750000Y-150447000D01*
X146790000Y-148732000D02*
X146790000Y-150268000D01*
X146830000Y-148967000D02*
X146830000Y-150033000D01*
X146870000Y-149500000D02*
G75*
G02*
X138630000Y-149500000I-4120000J0D01*
G01*
X138630000Y-149500000D02*
G75*
G02*
X146870000Y-149500000I4120000J0D01*
G01*
%TO.C,Q2*%
X117230000Y-145190000D02*
X127450000Y-145190000D01*
X117230000Y-146570000D02*
X127450000Y-146570000D01*
X117230000Y-149810000D02*
X117230000Y-145190000D01*
X120490000Y-145190000D02*
X120490000Y-146570000D01*
X124190000Y-145190000D02*
X124190000Y-146570000D01*
X127450000Y-145190000D02*
X127450000Y-149810000D01*
X127450000Y-149810000D02*
X117230000Y-149810000D01*
%TD*%
%LPC*%
D13*
%TO.C,H4*%
X156500000Y-168500000D03*
%TD*%
%TO.C,H3*%
X103500000Y-168500000D03*
%TD*%
%TO.C,H2*%
X156500000Y-103500000D03*
%TD*%
%TO.C,H1*%
X103500000Y-103500000D03*
%TD*%
%LPD*%
M02*
