M48
; DRILL file {KiCad 9.0.9} date 2026-10-01T02:51:15+0000
; FORMAT={-:-/ absolute / metric / decimal}
; #@! TF.CreationDate,2026-10-01T02:51:15+00:00
; #@! TF.GenerationSoftware,Kicad,Pcbnew,9.0.9
; #@! TF.FileFunction,Plated,1,2,PTH
FMAT,2
METRIC
; #@! TA.AperFunction,Plated,PTH,ComponentDrill
T1C0.800
; #@! TA.AperFunction,Plated,PTH,ComponentDrill
T2C1.000
; #@! TA.AperFunction,Plated,PTH,ComponentDrill
T3C1.100
; #@! TA.AperFunction,Plated,PTH,ComponentDrill
T4C1.300
%
G90
G05
T1
X132.42Y-148.5
X134.96Y-148.5
X134.96Y-152.3
X136.5Y-144.0
X137.0Y-161.92
X137.0Y-167.0
X137.5Y-148.5
X137.5Y-152.3
X141.58Y-144.0
X144.0Y-150.0
X144.0Y-155.08
X144.0Y-163.5
X149.08Y-163.5
X154.8Y-150.0
X154.8Y-155.08
X154.8Y-163.5
X159.88Y-163.5
X165.6Y-150.0
X165.6Y-155.08
X165.6Y-163.5
X170.68Y-163.5
X176.4Y-150.0
X176.4Y-155.08
X176.4Y-163.5
X181.48Y-163.5
X185.0Y-150.0
X187.54Y-150.0
T2
X110.92Y-122.0
X115.92Y-123.3
X116.0Y-115.0
X121.08Y-115.01
X152.9Y-144.0
X155.44Y-144.0
X157.98Y-144.0
X160.52Y-144.0
X163.06Y-144.0
X165.6Y-144.0
X168.14Y-144.0
X170.68Y-144.0
T3
X144.0Y-160.0
X146.54Y-160.0
X149.08Y-160.0
X154.8Y-160.0
X157.34Y-160.0
X159.88Y-160.0
X165.6Y-160.0
X168.14Y-160.0
X170.68Y-160.0
X176.4Y-160.0
X178.94Y-160.0
X181.48Y-160.0
T4
X105.6Y-154.92
X105.6Y-160.0
X110.92Y-107.0
X116.0Y-107.0
X116.8Y-166.0
X116.85Y-153.95
X128.0Y-122.0
X128.0Y-129.8
X129.05Y-153.95
X129.05Y-165.95
X131.0Y-160.0
X144.0Y-174.5
X149.08Y-174.5
X154.16Y-174.5
X159.24Y-174.5
X164.32Y-174.5
X170.5Y-114.6
X170.5Y-137.2
M30
