#VRML V2.0 utf8
Transform { translation 3.0000 -7.0000 4.6457 children [ Shape { appearance Appearance { material Material { diffuseColor 0.05 0.25 0.60 } } geometry Box { size 7.0866 17.0079 0.6299 } } ] }
Transform { translation 3.0000 -7.0079 5.1575 children [ Shape { appearance Appearance { material Material { diffuseColor 0.10 0.10 0.10 } } geometry Box { size 2.7559 2.7559 0.3937 } } ] }
Transform { translation 3.0000 -14.4803 5.7480 children [ Shape { appearance Appearance { material Material { diffuseColor 0.75 0.75 0.78 } } geometry Box { size 3.0315 3.6220 1.5748 } } ] }
Transform { translation 3.0000 -2.5591 5.2362 children [ Shape { appearance Appearance { material Material { diffuseColor 0.85 0.85 0.85 } } geometry Box { size 2.3622 1.9685 0.5512 } } ] }
