%TF.GenerationSoftware,KiCad,Pcbnew,9.0.9*%
%TF.CreationDate,2026-10-10T00:10:34+00:00*%
%TF.ProjectId,AP_DO8,41505f44-4f38-42e6-9b69-6361645f7063,rev?*%
%TF.SameCoordinates,Original*%
%TF.FileFunction,Paste,Top*%
%TF.FilePolarity,Positive*%
%FSLAX46Y46*%
G04 Gerber Fmt 4.6, Leading zero omitted, Abs format (unit mm)*
G04 Created by KiCad (PCBNEW 9.0.9) date 2026-10-10 00:10:34*
%MOMM*%
%LPD*%
G01*
G04 APERTURE LIST*
G04 Aperture macros list*
%AMRoundRect*
0 Rectangle with rounded corners*
0 $1 Rounding radius*
0 $2 $3 $4 $5 $6 $7 $8 $9 X,Y pos of 4 corners*
0 Add a 4 corners polygon primitive as box body*
4,1,4,$2,$3,$4,$5,$6,$7,$8,$9,$2,$3,0*
0 Add four circle primitives for the rounded corners*
1,1,$1+$1,$2,$3*
1,1,$1+$1,$4,$5*
1,1,$1+$1,$6,$7*
1,1,$1+$1,$8,$9*
0 Add four rect primitives between the rounded corners*
20,1,$1+$1,$2,$3,$4,$5,0*
20,1,$1+$1,$4,$5,$6,$7,0*
20,1,$1+$1,$6,$7,$8,$9,0*
20,1,$1+$1,$8,$9,$2,$3,0*%
%AMFreePoly0*
4,1,9,3.862500,-0.866500,0.737500,-0.866500,0.737500,-0.450000,-0.737500,-0.450000,-0.737500,0.450000,0.737500,0.450000,0.737500,0.866500,3.862500,0.866500,3.862500,-0.866500,3.862500,-0.866500,$1*%
G04 Aperture macros list end*
%ADD10RoundRect,0.200000X0.275000X-0.200000X0.275000X0.200000X-0.275000X0.200000X-0.275000X-0.200000X0*%
%ADD11RoundRect,0.200000X-0.200000X-0.275000X0.200000X-0.275000X0.200000X0.275000X-0.200000X0.275000X0*%
%ADD12RoundRect,0.375000X0.375000X-0.625000X0.375000X0.625000X-0.375000X0.625000X-0.375000X-0.625000X0*%
%ADD13RoundRect,0.500000X1.400000X-0.500000X1.400000X0.500000X-1.400000X0.500000X-1.400000X-0.500000X0*%
%ADD14RoundRect,0.150000X0.150000X-0.825000X0.150000X0.825000X-0.150000X0.825000X-0.150000X-0.825000X0*%
%ADD15RoundRect,0.225000X0.250000X-0.225000X0.250000X0.225000X-0.250000X0.225000X-0.250000X-0.225000X0*%
%ADD16RoundRect,0.250000X0.650000X-1.000000X0.650000X1.000000X-0.650000X1.000000X-0.650000X-1.000000X0*%
%ADD17RoundRect,0.250000X0.900000X-1.000000X0.900000X1.000000X-0.900000X1.000000X-0.900000X-1.000000X0*%
%ADD18RoundRect,0.218750X0.256250X-0.218750X0.256250X0.218750X-0.256250X0.218750X-0.256250X-0.218750X0*%
%ADD19RoundRect,0.225000X-0.225000X-0.250000X0.225000X-0.250000X0.225000X0.250000X-0.225000X0.250000X0*%
%ADD20RoundRect,0.250000X0.650000X-0.325000X0.650000X0.325000X-0.650000X0.325000X-0.650000X-0.325000X0*%
%ADD21RoundRect,0.100000X-0.637500X-0.100000X0.637500X-0.100000X0.637500X0.100000X-0.637500X0.100000X0*%
%ADD22RoundRect,0.150000X0.150000X0.625000X-0.150000X0.625000X-0.150000X-0.625000X0.150000X-0.625000X0*%
%ADD23RoundRect,0.250000X0.350000X0.650000X-0.350000X0.650000X-0.350000X-0.650000X0.350000X-0.650000X0*%
%ADD24RoundRect,0.225000X-0.425000X-0.225000X0.425000X-0.225000X0.425000X0.225000X-0.425000X0.225000X0*%
%ADD25FreePoly0,0.000000*%
G04 APERTURE END LIST*
D10*
%TO.C,RL6*%
X159900000Y-137025000D03*
X159900000Y-135375000D03*
%TD*%
D11*
%TO.C,RA2*%
X116175000Y-113500000D03*
X117825000Y-113500000D03*
%TD*%
D12*
%TO.C,Q7*%
X164050000Y-132950000D03*
X166350000Y-132950000D03*
D13*
X166350000Y-126650000D03*
D12*
X168650000Y-132950000D03*
%TD*%
D10*
%TO.C,RD6*%
X157750000Y-123825000D03*
X157750000Y-122175000D03*
%TD*%
%TO.C,RL8*%
X177100000Y-137025000D03*
X177100000Y-135375000D03*
%TD*%
%TO.C,RD3*%
X131950000Y-123825000D03*
X131950000Y-122175000D03*
%TD*%
%TO.C,RL4*%
X142700000Y-137025000D03*
X142700000Y-135375000D03*
%TD*%
D14*
%TO.C,U4*%
X124190000Y-119475000D03*
X125460000Y-119475000D03*
X126730000Y-119475000D03*
X128000000Y-119475000D03*
X129270000Y-119475000D03*
X130540000Y-119475000D03*
X131810000Y-119475000D03*
X131810000Y-114525000D03*
X130540000Y-114525000D03*
X129270000Y-114525000D03*
X128000000Y-114525000D03*
X126730000Y-114525000D03*
X125460000Y-114525000D03*
X124190000Y-114525000D03*
%TD*%
D15*
%TO.C,C4*%
X174800000Y-113775000D03*
X174800000Y-112225000D03*
%TD*%
D12*
%TO.C,Q3*%
X129650000Y-132950000D03*
X131950000Y-132950000D03*
D13*
X131950000Y-126650000D03*
D12*
X134250000Y-132950000D03*
%TD*%
D16*
%TO.C,D15*%
X147400000Y-140300000D03*
X147400000Y-136300000D03*
%TD*%
D12*
%TO.C,Q4*%
X138250000Y-132950000D03*
X140550000Y-132950000D03*
D13*
X140550000Y-126650000D03*
D12*
X142850000Y-132950000D03*
%TD*%
D17*
%TO.C,D2*%
X105500000Y-119150000D03*
X105500000Y-114850000D03*
%TD*%
D16*
%TO.C,D18*%
X173200000Y-140300000D03*
X173200000Y-136300000D03*
%TD*%
D18*
%TO.C,DL2*%
X125500000Y-140787500D03*
X125500000Y-139212500D03*
%TD*%
D12*
%TO.C,Q2*%
X121050000Y-132950000D03*
X123350000Y-132950000D03*
D13*
X123350000Y-126650000D03*
D12*
X125650000Y-132950000D03*
%TD*%
D19*
%TO.C,C3*%
X169225000Y-117800000D03*
X170775000Y-117800000D03*
%TD*%
D18*
%TO.C,DL6*%
X159900000Y-140787500D03*
X159900000Y-139212500D03*
%TD*%
D12*
%TO.C,Q1*%
X112450000Y-132950000D03*
X114750000Y-132950000D03*
D13*
X114750000Y-126650000D03*
D12*
X117050000Y-132950000D03*
%TD*%
D19*
%TO.C,C1*%
X141225000Y-116600000D03*
X142775000Y-116600000D03*
%TD*%
D16*
%TO.C,D12*%
X121600000Y-140300000D03*
X121600000Y-136300000D03*
%TD*%
D18*
%TO.C,DL3*%
X134100000Y-140787500D03*
X134100000Y-139212500D03*
%TD*%
%TO.C,DL1*%
X116900000Y-140787500D03*
X116900000Y-139212500D03*
%TD*%
D10*
%TO.C,RD1*%
X114750000Y-123825000D03*
X114750000Y-122175000D03*
%TD*%
D16*
%TO.C,D17*%
X164600000Y-140300000D03*
X164600000Y-136300000D03*
%TD*%
D10*
%TO.C,RL2*%
X125500000Y-137025000D03*
X125500000Y-135375000D03*
%TD*%
%TO.C,RD8*%
X174950000Y-123825000D03*
X174950000Y-122175000D03*
%TD*%
%TO.C,RL3*%
X134100000Y-137025000D03*
X134100000Y-135375000D03*
%TD*%
%TO.C,RL7*%
X168500000Y-137025000D03*
X168500000Y-135375000D03*
%TD*%
%TO.C,RL5*%
X151300000Y-137025000D03*
X151300000Y-135375000D03*
%TD*%
D12*
%TO.C,Q6*%
X155450000Y-132950000D03*
X157750000Y-132950000D03*
D13*
X157750000Y-126650000D03*
D12*
X160050000Y-132950000D03*
%TD*%
D18*
%TO.C,DL4*%
X142700000Y-140787500D03*
X142700000Y-139212500D03*
%TD*%
D14*
%TO.C,U5*%
X152190000Y-119475000D03*
X153460000Y-119475000D03*
X154730000Y-119475000D03*
X156000000Y-119475000D03*
X157270000Y-119475000D03*
X158540000Y-119475000D03*
X159810000Y-119475000D03*
X159810000Y-114525000D03*
X158540000Y-114525000D03*
X157270000Y-114525000D03*
X156000000Y-114525000D03*
X154730000Y-114525000D03*
X153460000Y-114525000D03*
X152190000Y-114525000D03*
%TD*%
D16*
%TO.C,D13*%
X130200000Y-140300000D03*
X130200000Y-136300000D03*
%TD*%
D20*
%TO.C,C7*%
X101900000Y-124475000D03*
X101900000Y-121525000D03*
%TD*%
D21*
%TO.C,U1*%
X139137500Y-109725000D03*
X139137500Y-110375000D03*
X139137500Y-111025000D03*
X139137500Y-111675000D03*
X139137500Y-112325000D03*
X139137500Y-112975000D03*
X139137500Y-113625000D03*
X139137500Y-114275000D03*
X144862500Y-114275000D03*
X144862500Y-113625000D03*
X144862500Y-112975000D03*
X144862500Y-112325000D03*
X144862500Y-111675000D03*
X144862500Y-111025000D03*
X144862500Y-110375000D03*
X144862500Y-109725000D03*
%TD*%
D22*
%TO.C,J1*%
X115500000Y-105600000D03*
X114500000Y-105600000D03*
X113500000Y-105600000D03*
X112500000Y-105600000D03*
D23*
X116800000Y-101725000D03*
X111200000Y-101725000D03*
%TD*%
D10*
%TO.C,RL1*%
X116900000Y-137025000D03*
X116900000Y-135375000D03*
%TD*%
%TO.C,RD2*%
X123350000Y-123825000D03*
X123350000Y-122175000D03*
%TD*%
D11*
%TO.C,RA1*%
X116175000Y-110000000D03*
X117825000Y-110000000D03*
%TD*%
D15*
%TO.C,C6*%
X162000000Y-117775000D03*
X162000000Y-116225000D03*
%TD*%
D16*
%TO.C,D14*%
X138800000Y-140300000D03*
X138800000Y-136300000D03*
%TD*%
D15*
%TO.C,C5*%
X122000000Y-117775000D03*
X122000000Y-116225000D03*
%TD*%
D10*
%TO.C,RD7*%
X166350000Y-123825000D03*
X166350000Y-122175000D03*
%TD*%
D24*
%TO.C,U3*%
X168050000Y-111500000D03*
D25*
X168137500Y-113000000D03*
D24*
X168050000Y-114500000D03*
%TD*%
D20*
%TO.C,C2*%
X101900000Y-118475000D03*
X101900000Y-115525000D03*
%TD*%
D18*
%TO.C,DL8*%
X177100000Y-140787500D03*
X177100000Y-139212500D03*
%TD*%
D12*
%TO.C,Q8*%
X172650000Y-132950000D03*
X174950000Y-132950000D03*
D13*
X174950000Y-126650000D03*
D12*
X177250000Y-132950000D03*
%TD*%
%TO.C,Q5*%
X146850000Y-132950000D03*
X149150000Y-132950000D03*
D13*
X149150000Y-126650000D03*
D12*
X151450000Y-132950000D03*
%TD*%
D22*
%TO.C,J2*%
X159500000Y-105600000D03*
X158500000Y-105600000D03*
X157500000Y-105600000D03*
X156500000Y-105600000D03*
D23*
X160800000Y-101725000D03*
X155200000Y-101725000D03*
%TD*%
D16*
%TO.C,D11*%
X113000000Y-140300000D03*
X113000000Y-136300000D03*
%TD*%
D10*
%TO.C,RD4*%
X140550000Y-123825000D03*
X140550000Y-122175000D03*
%TD*%
D16*
%TO.C,D16*%
X156000000Y-140300000D03*
X156000000Y-136300000D03*
%TD*%
D18*
%TO.C,DL5*%
X151300000Y-140787500D03*
X151300000Y-139212500D03*
%TD*%
D10*
%TO.C,RD5*%
X149150000Y-123825000D03*
X149150000Y-122175000D03*
%TD*%
D18*
%TO.C,DL7*%
X168500000Y-140787500D03*
X168500000Y-139212500D03*
%TD*%
M02*
