%TF.GenerationSoftware,KiCad,Pcbnew,9.0.9*%
%TF.CreationDate,2026-10-06T22:21:03+00:00*%
%TF.ProjectId,AP_Output,41505f4f-7574-4707-9574-2e6b69636164,rev?*%
%TF.SameCoordinates,Original*%
%TF.FileFunction,Copper,L2,Bot*%
%TF.FilePolarity,Positive*%
%FSLAX46Y46*%
G04 Gerber Fmt 4.6, Leading zero omitted, Abs format (unit mm)*
G04 Created by KiCad (PCBNEW 9.0.9) date 2026-10-06 22:21:03*
%MOMM*%
%LPD*%
G01*
G04 APERTURE LIST*
G04 Aperture macros list*
%AMRoundRect*
0 Rectangle with rounded corners*
0 $1 Rounding radius*
0 $2 $3 $4 $5 $6 $7 $8 $9 X,Y pos of 4 corners*
0 Add a 4 corners polygon primitive as box body*
4,1,4,$2,$3,$4,$5,$6,$7,$8,$9,$2,$3,0*
0 Add four circle primitives for the rounded corners*
1,1,$1+$1,$2,$3*
1,1,$1+$1,$4,$5*
1,1,$1+$1,$6,$7*
1,1,$1+$1,$8,$9*
0 Add four rect primitives between the rounded corners*
20,1,$1+$1,$2,$3,$4,$5,0*
20,1,$1+$1,$4,$5,$6,$7,0*
20,1,$1+$1,$6,$7,$8,$9,0*
20,1,$1+$1,$8,$9,$2,$3,0*%
G04 Aperture macros list end*
%TA.AperFunction,ComponentPad*%
%ADD10RoundRect,0.250000X-0.600000X-0.750000X0.600000X-0.750000X0.600000X0.750000X-0.600000X0.750000X0*%
%TD*%
%TA.AperFunction,ComponentPad*%
%ADD11O,1.700000X2.000000*%
%TD*%
%TA.AperFunction,ComponentPad*%
%ADD12RoundRect,0.250001X-1.099999X-1.099999X1.099999X-1.099999X1.099999X1.099999X-1.099999X1.099999X0*%
%TD*%
%TA.AperFunction,ComponentPad*%
%ADD13C,2.700000*%
%TD*%
%TA.AperFunction,ComponentPad*%
%ADD14R,1.700000X1.700000*%
%TD*%
%TA.AperFunction,ComponentPad*%
%ADD15C,1.700000*%
%TD*%
%TA.AperFunction,ViaPad*%
%ADD16C,0.600000*%
%TD*%
%TA.AperFunction,Conductor*%
%ADD17C,0.250000*%
%TD*%
%TA.AperFunction,Conductor*%
%ADD18C,0.600000*%
%TD*%
G04 APERTURE END LIST*
D10*
%TO.P,J10,1*%
%TO.N,/V24*%
X155500000Y-151000000D03*
D11*
%TO.P,J10,2*%
%TO.N,/Q6*%
X158000000Y-151000000D03*
%TD*%
D10*
%TO.P,J6,1*%
%TO.N,/V24*%
X121100000Y-151000000D03*
D11*
%TO.P,J6,2*%
%TO.N,/Q2*%
X123600000Y-151000000D03*
%TD*%
D10*
%TO.P,J11,1*%
%TO.N,/V24*%
X164100000Y-151000000D03*
D11*
%TO.P,J11,2*%
%TO.N,/Q7*%
X166600000Y-151000000D03*
%TD*%
D10*
%TO.P,J8,1*%
%TO.N,/V24*%
X138300000Y-151000000D03*
D11*
%TO.P,J8,2*%
%TO.N,/Q4*%
X140800000Y-151000000D03*
%TD*%
D10*
%TO.P,J5,1*%
%TO.N,/V24*%
X112500000Y-151000000D03*
D11*
%TO.P,J5,2*%
%TO.N,/Q1*%
X115000000Y-151000000D03*
%TD*%
D12*
%TO.P,J4,1*%
%TO.N,/VIN_RAW*%
X103000000Y-150400000D03*
D13*
%TO.P,J4,2*%
%TO.N,/GND*%
X106960000Y-150400000D03*
%TD*%
D10*
%TO.P,J9,1*%
%TO.N,/V24*%
X146900000Y-151000000D03*
D11*
%TO.P,J9,2*%
%TO.N,/Q5*%
X149400000Y-151000000D03*
%TD*%
D14*
%TO.P,J3,1*%
%TO.N,/GND*%
X130000000Y-103500000D03*
D15*
%TO.P,J3,2*%
%TO.N,/3V3*%
X132540000Y-103500000D03*
%TO.P,J3,3*%
%TO.N,/SDA*%
X135080000Y-103500000D03*
%TO.P,J3,4*%
%TO.N,/SCL*%
X137620000Y-103500000D03*
%TD*%
D10*
%TO.P,J7,1*%
%TO.N,/V24*%
X129700000Y-151000000D03*
D11*
%TO.P,J7,2*%
%TO.N,/Q3*%
X132200000Y-151000000D03*
%TD*%
D16*
%TO.N,/GND*%
X122000000Y-147000000D03*
X112000000Y-132000000D03*
X157945840Y-114335500D03*
X114568000Y-121242000D03*
X162000000Y-122000000D03*
X117000000Y-122000000D03*
X158849582Y-115282256D03*
X167000000Y-132000000D03*
X127000000Y-102000000D03*
X152000000Y-102000000D03*
X162000000Y-117000000D03*
X117000000Y-117000000D03*
X147000000Y-117000000D03*
X106874097Y-126500013D03*
X106471103Y-129743677D03*
X107000000Y-137000000D03*
X167000000Y-122000000D03*
X112936395Y-101000500D03*
X102000000Y-147000000D03*
X114928116Y-119175001D03*
X152000000Y-142000000D03*
X102000000Y-122000000D03*
X162000000Y-132000000D03*
X117000000Y-147000000D03*
X140367500Y-137725500D03*
X102000000Y-137000000D03*
X102000000Y-132000000D03*
X162000000Y-107000000D03*
X107000000Y-112000000D03*
X107000000Y-147000000D03*
X117000000Y-142000000D03*
X157000000Y-117000000D03*
X122000000Y-112000000D03*
X122000000Y-102000000D03*
X158880000Y-101725000D03*
X127000000Y-142000000D03*
X152000000Y-132000000D03*
X157000000Y-147000000D03*
X102000000Y-112000000D03*
X137000000Y-147000000D03*
X152000000Y-117000000D03*
X147000000Y-102000000D03*
X107000000Y-107000000D03*
X137000000Y-132000000D03*
X156936395Y-101000500D03*
X167000000Y-127000000D03*
X162000000Y-147000000D03*
X102000000Y-117000000D03*
X167000000Y-142000000D03*
X107000000Y-142000000D03*
X115220000Y-101725000D03*
X100750500Y-102250500D03*
X127000000Y-147000000D03*
X112000000Y-122000000D03*
X107000000Y-117000000D03*
X152000000Y-147000000D03*
X122000000Y-122000000D03*
X142000000Y-147000000D03*
X102000000Y-142000000D03*
X167000000Y-107000000D03*
X107000000Y-122000000D03*
X167000000Y-112000000D03*
X108968000Y-136957000D03*
X162000000Y-112000000D03*
X117000000Y-132000000D03*
X102000000Y-127000000D03*
X112087797Y-136260631D03*
X102000000Y-107000000D03*
X167000000Y-117000000D03*
X147000000Y-147000000D03*
X162738000Y-128000000D03*
X142000000Y-102000000D03*
X137000000Y-142000000D03*
%TO.N,/3V3*%
X127955000Y-113210000D03*
X112350000Y-104304000D03*
X122462000Y-120237000D03*
X112350000Y-113238000D03*
%TO.N,/SDA*%
X135080000Y-114251000D03*
%TO.N,/SCL*%
X129391000Y-115131000D03*
%TO.N,/IN1*%
X130610000Y-116201000D03*
X125615000Y-115798000D03*
%TO.N,/IN2*%
X137110000Y-117469000D03*
X119875000Y-116325000D03*
%TO.N,/IN3*%
X125616000Y-116851000D03*
X132324000Y-118739000D03*
%TO.N,/IN4*%
X125232000Y-117625000D03*
X129182000Y-119434000D03*
%TO.N,/IN6*%
X131658000Y-121538000D03*
X131658000Y-117758000D03*
%TO.N,/IN7*%
X135401000Y-116977000D03*
X135401000Y-122438000D03*
%TO.N,/VIN_RAW*%
X105000000Y-140547000D03*
%TO.N,/VF*%
X105000000Y-135402000D03*
X106427000Y-127500000D03*
%TO.N,/V24*%
X164912000Y-124912000D03*
X131686000Y-137161000D03*
X162108000Y-136874000D03*
X112313000Y-137381000D03*
%TO.N,/Q1*%
X143001000Y-116024000D03*
X113750000Y-141355000D03*
%TO.N,/Q2*%
X143006000Y-117294000D03*
X122350000Y-141395000D03*
%TO.N,/Q3*%
X143011000Y-118564000D03*
X131626000Y-141303000D03*
%TO.N,/Q4*%
X143167000Y-119979000D03*
X142360000Y-141415000D03*
%TO.N,/Q5*%
X143173000Y-141337000D03*
X143173000Y-121235000D03*
%TO.N,/Q6*%
X156657000Y-141350000D03*
X156657000Y-122084000D03*
%TO.N,/Q7*%
X157827000Y-141242000D03*
X145960000Y-123175000D03*
%TO.N,/LA1*%
X112992000Y-139571000D03*
X114747000Y-134775000D03*
%TO.N,/LA5*%
X147153000Y-134775000D03*
X147153000Y-138048000D03*
%TD*%
D17*
%TO.N,/GND*%
X158880000Y-101725000D02*
X162738000Y-105583000D01*
X115220000Y-120590000D02*
X115220000Y-101725000D01*
X108968000Y-126842000D02*
X108968000Y-136957000D01*
X162738000Y-105583000D02*
X162738000Y-128000000D01*
X114568000Y-121242000D02*
X115220000Y-120590000D01*
X108968000Y-148392000D02*
X106960000Y-150400000D01*
X108968000Y-136957000D02*
X108968000Y-148392000D01*
X114568000Y-121242000D02*
X108968000Y-126842000D01*
%TO.N,/3V3*%
X112350000Y-113238000D02*
X112350000Y-104304000D01*
X127265000Y-113210000D02*
X127955000Y-113210000D01*
X132540000Y-108626000D02*
X127955000Y-113210000D01*
X132540000Y-103500000D02*
X132540000Y-108626000D01*
X122462000Y-120237000D02*
X122462000Y-118013000D01*
X122462000Y-118013000D02*
X127265000Y-113210000D01*
%TO.N,/SDA*%
X135080000Y-103500000D02*
X135080000Y-114251000D01*
%TO.N,/SCL*%
X136432000Y-102312000D02*
X134576000Y-102312000D01*
X133810000Y-103078000D02*
X133810000Y-110712000D01*
X134576000Y-102312000D02*
X133810000Y-103078000D01*
X133810000Y-110712000D02*
X129391000Y-115131000D01*
X137620000Y-103500000D02*
X136432000Y-102312000D01*
%TO.N,/IN1*%
X125615000Y-115798000D02*
X130208000Y-115798000D01*
X130208000Y-115798000D02*
X130610000Y-116201000D01*
%TO.N,/IN2*%
X131918000Y-122214000D02*
X133080000Y-121052000D01*
X123498000Y-122214000D02*
X131918000Y-122214000D01*
X133080000Y-121052000D02*
X133080000Y-118411000D01*
X119875000Y-118591000D02*
X123498000Y-122214000D01*
X135141000Y-116350000D02*
X135990000Y-116350000D01*
X135990000Y-116350000D02*
X137110000Y-117469000D01*
X119875000Y-116325000D02*
X119875000Y-118591000D01*
X133080000Y-118411000D02*
X135141000Y-116350000D01*
%TO.N,/IN3*%
X131653000Y-116851000D02*
X132324000Y-117522000D01*
X132324000Y-117522000D02*
X132324000Y-118739000D01*
X125616000Y-116851000D02*
X131653000Y-116851000D01*
%TO.N,/IN4*%
X127373000Y-117625000D02*
X129182000Y-119434000D01*
X125232000Y-117625000D02*
X127373000Y-117625000D01*
%TO.N,/IN6*%
X131658000Y-117758000D02*
X131658000Y-121538000D01*
%TO.N,/IN7*%
X135401000Y-122438000D02*
X135401000Y-116977000D01*
D18*
%TO.N,/VIN_RAW*%
X103000000Y-150400000D02*
X105000000Y-148400000D01*
X105000000Y-148400000D02*
X105000000Y-140547000D01*
%TO.N,/VF*%
X105000000Y-135402000D02*
X105000000Y-128927000D01*
X105000000Y-128927000D02*
X106427000Y-127500000D01*
%TO.N,/V24*%
X112313000Y-137381000D02*
X112140000Y-137555000D01*
X129700000Y-139147000D02*
X129700000Y-151000000D01*
X164100000Y-138865000D02*
X164100000Y-151000000D01*
X164912000Y-134070000D02*
X162108000Y-136874000D01*
X112140000Y-137555000D02*
X112140000Y-150640000D01*
X162108000Y-136874000D02*
X164100000Y-138865000D01*
X131686000Y-137161000D02*
X129700000Y-139147000D01*
X164912000Y-124912000D02*
X164912000Y-134070000D01*
X112140000Y-150640000D02*
X112500000Y-151000000D01*
%TO.N,/Q1*%
X128054000Y-130971000D02*
X124134000Y-130971000D01*
X124134000Y-130971000D02*
X113750000Y-141355000D01*
X113750000Y-141355000D02*
X115000000Y-142605000D01*
X143001000Y-116024000D02*
X128054000Y-130971000D01*
X115000000Y-142605000D02*
X115000000Y-151000000D01*
%TO.N,/Q2*%
X122350000Y-141395000D02*
X123600000Y-142645000D01*
X123600000Y-142645000D02*
X123600000Y-151000000D01*
X143006000Y-117294000D02*
X140606000Y-119694000D01*
X140606000Y-123139000D02*
X122350000Y-141395000D01*
X140606000Y-119694000D02*
X140606000Y-123139000D01*
%TO.N,/Q3*%
X132200000Y-141877000D02*
X132200000Y-151000000D01*
X131626000Y-141303000D02*
X132200000Y-141877000D01*
X141408000Y-120168000D02*
X141408000Y-131521000D01*
X141408000Y-131521000D02*
X131626000Y-141303000D01*
X143011000Y-118564000D02*
X141408000Y-120168000D01*
%TO.N,/Q4*%
X142360000Y-141415000D02*
X140800000Y-142975000D01*
X142360000Y-120786000D02*
X142360000Y-141415000D01*
X140800000Y-142975000D02*
X140800000Y-151000000D01*
X143167000Y-119979000D02*
X142360000Y-120786000D01*
%TO.N,/Q5*%
X149400000Y-147564000D02*
X149400000Y-151000000D01*
X143173000Y-121235000D02*
X143173000Y-141337000D01*
X143173000Y-141337000D02*
X149400000Y-147564000D01*
%TO.N,/Q6*%
X158632000Y-148866000D02*
X158000000Y-149498000D01*
X156657000Y-140420000D02*
X158161000Y-140420000D01*
X156657000Y-140420000D02*
X156657000Y-122084000D01*
X158632000Y-140890000D02*
X158632000Y-148866000D01*
X158161000Y-140420000D02*
X158632000Y-140890000D01*
X158000000Y-151000000D02*
X158000000Y-149498000D01*
X156657000Y-141350000D02*
X156657000Y-140420000D01*
%TO.N,/Q7*%
X157827000Y-141356000D02*
X157827000Y-141242000D01*
X145960000Y-131834000D02*
X156280000Y-142154000D01*
X145960000Y-123175000D02*
X145960000Y-131834000D01*
X157029000Y-142154000D02*
X157827000Y-141356000D01*
X156280000Y-142154000D02*
X157029000Y-142154000D01*
D17*
%TO.N,/LA1*%
X112992000Y-139571000D02*
X112992000Y-136530000D01*
X112992000Y-136530000D02*
X114747000Y-134775000D01*
%TO.N,/LA5*%
X147153000Y-134775000D02*
X147153000Y-138048000D01*
%TD*%
%TA.AperFunction,Conductor*%
%TO.N,/GND*%
G36*
X170004418Y-100300816D02*
G01*
X170233020Y-100317165D01*
X170250529Y-100319683D01*
X170470144Y-100367458D01*
X170487103Y-100372437D01*
X170697694Y-100450983D01*
X170713777Y-100458327D01*
X170911034Y-100566039D01*
X170911036Y-100566040D01*
X170925919Y-100575605D01*
X171105836Y-100710289D01*
X171119207Y-100721875D01*
X171278124Y-100880792D01*
X171289710Y-100894163D01*
X171424394Y-101074080D01*
X171433959Y-101088963D01*
X171541669Y-101286217D01*
X171549019Y-101302311D01*
X171627559Y-101512887D01*
X171632543Y-101529862D01*
X171680316Y-101749470D01*
X171682834Y-101766982D01*
X171699184Y-101995581D01*
X171699500Y-102004427D01*
X171699500Y-153995572D01*
X171699184Y-154004419D01*
X171682833Y-154233019D01*
X171680315Y-154250529D01*
X171680315Y-154250530D01*
X171632544Y-154470133D01*
X171627560Y-154487109D01*
X171549016Y-154697691D01*
X171541666Y-154713783D01*
X171433961Y-154911032D01*
X171424396Y-154925917D01*
X171289708Y-155105838D01*
X171278123Y-155119207D01*
X171119208Y-155278122D01*
X171105838Y-155289708D01*
X170925917Y-155424396D01*
X170911032Y-155433961D01*
X170713783Y-155541666D01*
X170697691Y-155549016D01*
X170487109Y-155627560D01*
X170470136Y-155632543D01*
X170470133Y-155632544D01*
X170250530Y-155680315D01*
X170233019Y-155682833D01*
X170025320Y-155697688D01*
X170004417Y-155699184D01*
X169995572Y-155699500D01*
X102004428Y-155699500D01*
X101995582Y-155699184D01*
X101766982Y-155682834D01*
X101749470Y-155680316D01*
X101529862Y-155632543D01*
X101512887Y-155627559D01*
X101302311Y-155549019D01*
X101286217Y-155541669D01*
X101088963Y-155433959D01*
X101074080Y-155424394D01*
X100894163Y-155289710D01*
X100880792Y-155278124D01*
X100721875Y-155119207D01*
X100710289Y-155105836D01*
X100575605Y-154925919D01*
X100566040Y-154911036D01*
X100458330Y-154713782D01*
X100450983Y-154697694D01*
X100372437Y-154487103D01*
X100367458Y-154470144D01*
X100319683Y-154250529D01*
X100317165Y-154233017D01*
X100300816Y-154004418D01*
X100300500Y-153995572D01*
X100300500Y-149256900D01*
X101349500Y-149256900D01*
X101349500Y-151543091D01*
X101360123Y-151631562D01*
X101415639Y-151772342D01*
X101415640Y-151772344D01*
X101507077Y-151892922D01*
X101571166Y-151941522D01*
X101627658Y-151984361D01*
X101768436Y-152039876D01*
X101856901Y-152050500D01*
X104143098Y-152050499D01*
X104231564Y-152039876D01*
X104372342Y-151984361D01*
X104492922Y-151892922D01*
X104584361Y-151772342D01*
X104639876Y-151631564D01*
X104650500Y-151543099D01*
X104650499Y-150278751D01*
X105110000Y-150278751D01*
X105110000Y-150521248D01*
X105110001Y-150521264D01*
X105141653Y-150761687D01*
X105204421Y-150995939D01*
X105297220Y-151219978D01*
X105297227Y-151219992D01*
X105418481Y-151430010D01*
X105487061Y-151519384D01*
X106205884Y-150800560D01*
X106206740Y-150802626D01*
X106299762Y-150941844D01*
X106418156Y-151060238D01*
X106557374Y-151153260D01*
X106559437Y-151154114D01*
X105840614Y-151872936D01*
X105840614Y-151872937D01*
X105929989Y-151941517D01*
X105929996Y-151941522D01*
X106140007Y-152062772D01*
X106140021Y-152062779D01*
X106364060Y-152155578D01*
X106598312Y-152218346D01*
X106838735Y-152249998D01*
X106838752Y-152250000D01*
X107081248Y-152250000D01*
X107081264Y-152249998D01*
X107321687Y-152218346D01*
X107555939Y-152155578D01*
X107779978Y-152062779D01*
X107779992Y-152062772D01*
X107990016Y-151941515D01*
X108079384Y-151872939D01*
X108079384Y-151872936D01*
X107360562Y-151154114D01*
X107362626Y-151153260D01*
X107501844Y-151060238D01*
X107620238Y-150941844D01*
X107713260Y-150802626D01*
X107714114Y-150800562D01*
X108432936Y-151519384D01*
X108432939Y-151519384D01*
X108501515Y-151430016D01*
X108622772Y-151219992D01*
X108622779Y-151219978D01*
X108715578Y-150995939D01*
X108778346Y-150761687D01*
X108809998Y-150521264D01*
X108810000Y-150521248D01*
X108810000Y-150278751D01*
X108809999Y-150278737D01*
X108802184Y-150219378D01*
X108802184Y-150219377D01*
X108800541Y-150206898D01*
X111349500Y-150206898D01*
X111349500Y-151793102D01*
X111355126Y-151839954D01*
X111360122Y-151881561D01*
X111360122Y-151881563D01*
X111360123Y-151881564D01*
X111377722Y-151926192D01*
X111415639Y-152022343D01*
X111507077Y-152142922D01*
X111627656Y-152234360D01*
X111627657Y-152234360D01*
X111627658Y-152234361D01*
X111768436Y-152289877D01*
X111856898Y-152300500D01*
X111856903Y-152300500D01*
X113143097Y-152300500D01*
X113143102Y-152300500D01*
X113231564Y-152289877D01*
X113372342Y-152234361D01*
X113492922Y-152142922D01*
X113584361Y-152022342D01*
X113639877Y-151881564D01*
X113650500Y-151793102D01*
X113650500Y-151502669D01*
X113670185Y-151435630D01*
X113722989Y-151389875D01*
X113792147Y-151379931D01*
X113855703Y-151408956D01*
X113892431Y-151464351D01*
X113933787Y-151591636D01*
X113933788Y-151591639D01*
X114016006Y-151752997D01*
X114122441Y-151899494D01*
X114122445Y-151899499D01*
X114250500Y-152027554D01*
X114250505Y-152027558D01*
X114378287Y-152120396D01*
X114397006Y-152133996D01*
X114502484Y-152187740D01*
X114558360Y-152216211D01*
X114558363Y-152216212D01*
X114644476Y-152244191D01*
X114730591Y-152272171D01*
X114813429Y-152285291D01*
X114909449Y-152300500D01*
X114909454Y-152300500D01*
X115090551Y-152300500D01*
X115177259Y-152286765D01*
X115269409Y-152272171D01*
X115441639Y-152216211D01*
X115602994Y-152133996D01*
X115749501Y-152027553D01*
X115877553Y-151899501D01*
X115983996Y-151752994D01*
X116066211Y-151591639D01*
X116122171Y-151419409D01*
X116149003Y-151250000D01*
X116150500Y-151240551D01*
X116150500Y-150759448D01*
X116126608Y-150608608D01*
X116122171Y-150580591D01*
X116066211Y-150408361D01*
X116066211Y-150408360D01*
X116019294Y-150316282D01*
X115983996Y-150247006D01*
X115963923Y-150219378D01*
X115877558Y-150100505D01*
X115877554Y-150100500D01*
X115749499Y-149972445D01*
X115749494Y-149972441D01*
X115651615Y-149901328D01*
X115608949Y-149845998D01*
X115600500Y-149801010D01*
X115600500Y-142694059D01*
X115600501Y-142694046D01*
X115600501Y-142525945D01*
X115600501Y-142525943D01*
X115559577Y-142373215D01*
X115530639Y-142323095D01*
X115480520Y-142236284D01*
X115368716Y-142124480D01*
X115368715Y-142124479D01*
X115364385Y-142120149D01*
X115364374Y-142120139D01*
X114686916Y-141442681D01*
X114653431Y-141381358D01*
X114658415Y-141311666D01*
X114686916Y-141267319D01*
X119505707Y-136448529D01*
X124346417Y-131607819D01*
X124407740Y-131574334D01*
X124434098Y-131571500D01*
X127967331Y-131571500D01*
X127967347Y-131571501D01*
X127974943Y-131571501D01*
X128133054Y-131571501D01*
X128133057Y-131571501D01*
X128285785Y-131530577D01*
X128335904Y-131501639D01*
X128422716Y-131451520D01*
X128534520Y-131339716D01*
X128534520Y-131339714D01*
X128544728Y-131329507D01*
X128544729Y-131329504D01*
X139793821Y-120080413D01*
X139855142Y-120046930D01*
X139924834Y-120051914D01*
X139980767Y-120093786D01*
X140005184Y-120159250D01*
X140005500Y-120168096D01*
X140005500Y-122838902D01*
X139985815Y-122905941D01*
X139969181Y-122926583D01*
X121869481Y-141026282D01*
X121869479Y-141026285D01*
X121839400Y-141078385D01*
X121839399Y-141078386D01*
X121790424Y-141163211D01*
X121790423Y-141163212D01*
X121774150Y-141223945D01*
X121749499Y-141315943D01*
X121749499Y-141315945D01*
X121749499Y-141474054D01*
X121749498Y-141474054D01*
X121749499Y-141474057D01*
X121790423Y-141626785D01*
X121801970Y-141646784D01*
X121816365Y-141671717D01*
X121869479Y-141763714D01*
X121869481Y-141763717D01*
X121988349Y-141882585D01*
X121988355Y-141882590D01*
X122963181Y-142857416D01*
X122996666Y-142918739D01*
X122999500Y-142945097D01*
X122999500Y-149801010D01*
X122979815Y-149868049D01*
X122948385Y-149901328D01*
X122850505Y-149972441D01*
X122850500Y-149972445D01*
X122722445Y-150100500D01*
X122722441Y-150100505D01*
X122616006Y-150247002D01*
X122533788Y-150408360D01*
X122533787Y-150408363D01*
X122492431Y-150535648D01*
X122452994Y-150593323D01*
X122388635Y-150620522D01*
X122319789Y-150608608D01*
X122268313Y-150561364D01*
X122250500Y-150497330D01*
X122250500Y-150206903D01*
X122250500Y-150206898D01*
X122239877Y-150118436D01*
X122184361Y-149977658D01*
X122184360Y-149977657D01*
X122184360Y-149977656D01*
X122092922Y-149857077D01*
X121972343Y-149765639D01*
X121831561Y-149710122D01*
X121785926Y-149704642D01*
X121743102Y-149699500D01*
X120456898Y-149699500D01*
X120417853Y-149704188D01*
X120368438Y-149710122D01*
X120227656Y-149765639D01*
X120107077Y-149857077D01*
X120015639Y-149977656D01*
X119960122Y-150118438D01*
X119956085Y-150152064D01*
X119949500Y-150206898D01*
X119949500Y-151793102D01*
X119955126Y-151839954D01*
X119960122Y-151881561D01*
X119960122Y-151881563D01*
X119960123Y-151881564D01*
X119977722Y-151926192D01*
X120015639Y-152022343D01*
X120107077Y-152142922D01*
X120227656Y-152234360D01*
X120227657Y-152234360D01*
X120227658Y-152234361D01*
X120368436Y-152289877D01*
X120456898Y-152300500D01*
X120456903Y-152300500D01*
X121743097Y-152300500D01*
X121743102Y-152300500D01*
X121831564Y-152289877D01*
X121972342Y-152234361D01*
X122092922Y-152142922D01*
X122184361Y-152022342D01*
X122239877Y-151881564D01*
X122250500Y-151793102D01*
X122250500Y-151502669D01*
X122270185Y-151435630D01*
X122322989Y-151389875D01*
X122392147Y-151379931D01*
X122455703Y-151408956D01*
X122492431Y-151464351D01*
X122533787Y-151591636D01*
X122533788Y-151591639D01*
X122616006Y-151752997D01*
X122722441Y-151899494D01*
X122722445Y-151899499D01*
X122850500Y-152027554D01*
X122850505Y-152027558D01*
X122978287Y-152120396D01*
X122997006Y-152133996D01*
X123102484Y-152187740D01*
X123158360Y-152216211D01*
X123158363Y-152216212D01*
X123244476Y-152244191D01*
X123330591Y-152272171D01*
X123413429Y-152285291D01*
X123509449Y-152300500D01*
X123509454Y-152300500D01*
X123690551Y-152300500D01*
X123777259Y-152286765D01*
X123869409Y-152272171D01*
X124041639Y-152216211D01*
X124202994Y-152133996D01*
X124349501Y-152027553D01*
X124477553Y-151899501D01*
X124583996Y-151752994D01*
X124666211Y-151591639D01*
X124722171Y-151419409D01*
X124749003Y-151250000D01*
X124750500Y-151240551D01*
X124750500Y-150759448D01*
X124726608Y-150608608D01*
X124722171Y-150580591D01*
X124666211Y-150408361D01*
X124666211Y-150408360D01*
X124619294Y-150316282D01*
X124583996Y-150247006D01*
X124563923Y-150219378D01*
X124477558Y-150100505D01*
X124477554Y-150100500D01*
X124349499Y-149972445D01*
X124349494Y-149972441D01*
X124251615Y-149901328D01*
X124208949Y-149845998D01*
X124200500Y-149801010D01*
X124200500Y-142734059D01*
X124200501Y-142734046D01*
X124200501Y-142565945D01*
X124200501Y-142565943D01*
X124159577Y-142413215D01*
X124127421Y-142357520D01*
X124127421Y-142357519D01*
X124080522Y-142276287D01*
X124080521Y-142276286D01*
X124080520Y-142276284D01*
X123968716Y-142164480D01*
X123968715Y-142164479D01*
X123964385Y-142160149D01*
X123964374Y-142160139D01*
X123286916Y-141482681D01*
X123253431Y-141421358D01*
X123258415Y-141351666D01*
X123286916Y-141307319D01*
X140595819Y-123998416D01*
X140657142Y-123964931D01*
X140726834Y-123969915D01*
X140782767Y-124011787D01*
X140807184Y-124077251D01*
X140807500Y-124086097D01*
X140807500Y-131220902D01*
X140787815Y-131287941D01*
X140771181Y-131308583D01*
X131145481Y-140934282D01*
X131145479Y-140934284D01*
X131125772Y-140968419D01*
X131110310Y-140995201D01*
X131066423Y-141071215D01*
X131025499Y-141223943D01*
X131025499Y-141223945D01*
X131025499Y-141382054D01*
X131025498Y-141382054D01*
X131059323Y-141508290D01*
X131066423Y-141534785D01*
X131092305Y-141579613D01*
X131145479Y-141671714D01*
X131145481Y-141671717D01*
X131257285Y-141783521D01*
X131563181Y-142089416D01*
X131596666Y-142150739D01*
X131599500Y-142177097D01*
X131599500Y-149801010D01*
X131579815Y-149868049D01*
X131548385Y-149901328D01*
X131450505Y-149972441D01*
X131450500Y-149972445D01*
X131322445Y-150100500D01*
X131322441Y-150100505D01*
X131216006Y-150247002D01*
X131133788Y-150408360D01*
X131133787Y-150408363D01*
X131092431Y-150535648D01*
X131052994Y-150593323D01*
X130988635Y-150620522D01*
X130919789Y-150608608D01*
X130868313Y-150561364D01*
X130850500Y-150497330D01*
X130850500Y-150206903D01*
X130850500Y-150206898D01*
X130839877Y-150118436D01*
X130784361Y-149977658D01*
X130784360Y-149977657D01*
X130784360Y-149977656D01*
X130692922Y-149857077D01*
X130572343Y-149765639D01*
X130499336Y-149736849D01*
X130431564Y-149710123D01*
X130431562Y-149710122D01*
X130431558Y-149710121D01*
X130409714Y-149707498D01*
X130345500Y-149679960D01*
X130306368Y-149622077D01*
X130300500Y-149584383D01*
X130300500Y-139447096D01*
X130320185Y-139380057D01*
X130336814Y-139359420D01*
X132044506Y-137651727D01*
X132044511Y-137651724D01*
X132054714Y-137641520D01*
X132054716Y-137641520D01*
X132166520Y-137529716D01*
X132222025Y-137433577D01*
X132245577Y-137392785D01*
X132286500Y-137240057D01*
X132286500Y-137081943D01*
X132245577Y-136929215D01*
X132211669Y-136870485D01*
X132166520Y-136792284D01*
X132054716Y-136680480D01*
X131967904Y-136630360D01*
X131967904Y-136630359D01*
X131967902Y-136630359D01*
X131917785Y-136601423D01*
X131917782Y-136601422D01*
X131853230Y-136584125D01*
X131765057Y-136560500D01*
X131606943Y-136560500D01*
X131454215Y-136601423D01*
X131454214Y-136601423D01*
X131454212Y-136601424D01*
X131454209Y-136601425D01*
X131404096Y-136630359D01*
X131404095Y-136630360D01*
X131360689Y-136655420D01*
X131317285Y-136680479D01*
X131317282Y-136680481D01*
X129219481Y-138778282D01*
X129219479Y-138778285D01*
X129215101Y-138785868D01*
X129176913Y-138852014D01*
X129169361Y-138865094D01*
X129169359Y-138865096D01*
X129140425Y-138915209D01*
X129140424Y-138915210D01*
X129140423Y-138915215D01*
X129099499Y-139067943D01*
X129099499Y-139067945D01*
X129099499Y-139236046D01*
X129099500Y-139236059D01*
X129099500Y-149584383D01*
X129079815Y-149651422D01*
X129027011Y-149697177D01*
X128990286Y-149707498D01*
X128968441Y-149710121D01*
X128827656Y-149765639D01*
X128707077Y-149857077D01*
X128615639Y-149977656D01*
X128560122Y-150118438D01*
X128556085Y-150152064D01*
X128549500Y-150206898D01*
X128549500Y-151793102D01*
X128555126Y-151839954D01*
X128560122Y-151881561D01*
X128560122Y-151881563D01*
X128560123Y-151881564D01*
X128577722Y-151926192D01*
X128615639Y-152022343D01*
X128707077Y-152142922D01*
X128827656Y-152234360D01*
X128827657Y-152234360D01*
X128827658Y-152234361D01*
X128968436Y-152289877D01*
X129056898Y-152300500D01*
X129056903Y-152300500D01*
X130343097Y-152300500D01*
X130343102Y-152300500D01*
X130431564Y-152289877D01*
X130572342Y-152234361D01*
X130692922Y-152142922D01*
X130784361Y-152022342D01*
X130839877Y-151881564D01*
X130850500Y-151793102D01*
X130850500Y-151502669D01*
X130870185Y-151435630D01*
X130922989Y-151389875D01*
X130992147Y-151379931D01*
X131055703Y-151408956D01*
X131092431Y-151464351D01*
X131133787Y-151591636D01*
X131133788Y-151591639D01*
X131216006Y-151752997D01*
X131322441Y-151899494D01*
X131322445Y-151899499D01*
X131450500Y-152027554D01*
X131450505Y-152027558D01*
X131578287Y-152120396D01*
X131597006Y-152133996D01*
X131702484Y-152187740D01*
X131758360Y-152216211D01*
X131758363Y-152216212D01*
X131844476Y-152244191D01*
X131930591Y-152272171D01*
X132013429Y-152285291D01*
X132109449Y-152300500D01*
X132109454Y-152300500D01*
X132290551Y-152300500D01*
X132377259Y-152286765D01*
X132469409Y-152272171D01*
X132641639Y-152216211D01*
X132802994Y-152133996D01*
X132949501Y-152027553D01*
X133077553Y-151899501D01*
X133183996Y-151752994D01*
X133266211Y-151591639D01*
X133322171Y-151419409D01*
X133349003Y-151250000D01*
X133350500Y-151240551D01*
X133350500Y-150759448D01*
X133326608Y-150608608D01*
X133322171Y-150580591D01*
X133266211Y-150408361D01*
X133266211Y-150408360D01*
X133219294Y-150316282D01*
X133183996Y-150247006D01*
X133163923Y-150219378D01*
X133077558Y-150100505D01*
X133077554Y-150100500D01*
X132949499Y-149972445D01*
X132949494Y-149972441D01*
X132851615Y-149901328D01*
X132808949Y-149845998D01*
X132800500Y-149801010D01*
X132800500Y-141966060D01*
X132800501Y-141966047D01*
X132800501Y-141797944D01*
X132800501Y-141797943D01*
X132759577Y-141645216D01*
X132721702Y-141579614D01*
X132680524Y-141508290D01*
X132680518Y-141508282D01*
X132562916Y-141390680D01*
X132529431Y-141329357D01*
X132534415Y-141259665D01*
X132562916Y-141215318D01*
X137112592Y-136665642D01*
X141547821Y-132230413D01*
X141609142Y-132196930D01*
X141678834Y-132201914D01*
X141734767Y-132243786D01*
X141759184Y-132309250D01*
X141759500Y-132318096D01*
X141759500Y-141114902D01*
X141739815Y-141181941D01*
X141723181Y-141202583D01*
X140319481Y-142606282D01*
X140319480Y-142606284D01*
X140274578Y-142684057D01*
X140240423Y-142743215D01*
X140199499Y-142895943D01*
X140199499Y-142895945D01*
X140199499Y-143064046D01*
X140199500Y-143064059D01*
X140199500Y-149801010D01*
X140179815Y-149868049D01*
X140148385Y-149901328D01*
X140050505Y-149972441D01*
X140050500Y-149972445D01*
X139922445Y-150100500D01*
X139922441Y-150100505D01*
X139816006Y-150247002D01*
X139733788Y-150408360D01*
X139733787Y-150408363D01*
X139692431Y-150535648D01*
X139652994Y-150593323D01*
X139588635Y-150620522D01*
X139519789Y-150608608D01*
X139468313Y-150561364D01*
X139450500Y-150497330D01*
X139450500Y-150206903D01*
X139450500Y-150206898D01*
X139439877Y-150118436D01*
X139384361Y-149977658D01*
X139384360Y-149977657D01*
X139384360Y-149977656D01*
X139292922Y-149857077D01*
X139172343Y-149765639D01*
X139031561Y-149710122D01*
X138985926Y-149704642D01*
X138943102Y-149699500D01*
X137656898Y-149699500D01*
X137617853Y-149704188D01*
X137568438Y-149710122D01*
X137427656Y-149765639D01*
X137307077Y-149857077D01*
X137215639Y-149977656D01*
X137160122Y-150118438D01*
X137156085Y-150152064D01*
X137149500Y-150206898D01*
X137149500Y-151793102D01*
X137155126Y-151839954D01*
X137160122Y-151881561D01*
X137160122Y-151881563D01*
X137160123Y-151881564D01*
X137177722Y-151926192D01*
X137215639Y-152022343D01*
X137307077Y-152142922D01*
X137427656Y-152234360D01*
X137427657Y-152234360D01*
X137427658Y-152234361D01*
X137568436Y-152289877D01*
X137656898Y-152300500D01*
X137656903Y-152300500D01*
X138943097Y-152300500D01*
X138943102Y-152300500D01*
X139031564Y-152289877D01*
X139172342Y-152234361D01*
X139292922Y-152142922D01*
X139384361Y-152022342D01*
X139439877Y-151881564D01*
X139450500Y-151793102D01*
X139450500Y-151502669D01*
X139470185Y-151435630D01*
X139522989Y-151389875D01*
X139592147Y-151379931D01*
X139655703Y-151408956D01*
X139692431Y-151464351D01*
X139733787Y-151591636D01*
X139733788Y-151591639D01*
X139816006Y-151752997D01*
X139922441Y-151899494D01*
X139922445Y-151899499D01*
X140050500Y-152027554D01*
X140050505Y-152027558D01*
X140178287Y-152120396D01*
X140197006Y-152133996D01*
X140302484Y-152187740D01*
X140358360Y-152216211D01*
X140358363Y-152216212D01*
X140444476Y-152244191D01*
X140530591Y-152272171D01*
X140613429Y-152285291D01*
X140709449Y-152300500D01*
X140709454Y-152300500D01*
X140890551Y-152300500D01*
X140977259Y-152286765D01*
X141069409Y-152272171D01*
X141241639Y-152216211D01*
X141402994Y-152133996D01*
X141549501Y-152027553D01*
X141677553Y-151899501D01*
X141783996Y-151752994D01*
X141866211Y-151591639D01*
X141922171Y-151419409D01*
X141949003Y-151250000D01*
X141950500Y-151240551D01*
X141950500Y-150759448D01*
X141926608Y-150608608D01*
X141922171Y-150580591D01*
X141866211Y-150408361D01*
X141866211Y-150408360D01*
X141819294Y-150316282D01*
X141783996Y-150247006D01*
X141763923Y-150219378D01*
X141677558Y-150100505D01*
X141677554Y-150100500D01*
X141549499Y-149972445D01*
X141549494Y-149972441D01*
X141451615Y-149901328D01*
X141408949Y-149845998D01*
X141400500Y-149801010D01*
X141400500Y-143275096D01*
X141420185Y-143208057D01*
X141436814Y-143187420D01*
X142717820Y-141906413D01*
X142779141Y-141872930D01*
X142848833Y-141877914D01*
X142893180Y-141906415D01*
X148763181Y-147776416D01*
X148796666Y-147837739D01*
X148799500Y-147864097D01*
X148799500Y-149801010D01*
X148779815Y-149868049D01*
X148748385Y-149901328D01*
X148650505Y-149972441D01*
X148650500Y-149972445D01*
X148522445Y-150100500D01*
X148522441Y-150100505D01*
X148416006Y-150247002D01*
X148333788Y-150408360D01*
X148333787Y-150408363D01*
X148292431Y-150535648D01*
X148252994Y-150593323D01*
X148188635Y-150620522D01*
X148119789Y-150608608D01*
X148068313Y-150561364D01*
X148050500Y-150497330D01*
X148050500Y-150206903D01*
X148050500Y-150206898D01*
X148039877Y-150118436D01*
X147984361Y-149977658D01*
X147984360Y-149977657D01*
X147984360Y-149977656D01*
X147892922Y-149857077D01*
X147772343Y-149765639D01*
X147631561Y-149710122D01*
X147585926Y-149704642D01*
X147543102Y-149699500D01*
X146256898Y-149699500D01*
X146217853Y-149704188D01*
X146168438Y-149710122D01*
X146027656Y-149765639D01*
X145907077Y-149857077D01*
X145815639Y-149977656D01*
X145760122Y-150118438D01*
X145756085Y-150152064D01*
X145749500Y-150206898D01*
X145749500Y-151793102D01*
X145755126Y-151839954D01*
X145760122Y-151881561D01*
X145760122Y-151881563D01*
X145760123Y-151881564D01*
X145777722Y-151926192D01*
X145815639Y-152022343D01*
X145907077Y-152142922D01*
X146027656Y-152234360D01*
X146027657Y-152234360D01*
X146027658Y-152234361D01*
X146168436Y-152289877D01*
X146256898Y-152300500D01*
X146256903Y-152300500D01*
X147543097Y-152300500D01*
X147543102Y-152300500D01*
X147631564Y-152289877D01*
X147772342Y-152234361D01*
X147892922Y-152142922D01*
X147984361Y-152022342D01*
X148039877Y-151881564D01*
X148050500Y-151793102D01*
X148050500Y-151502669D01*
X148070185Y-151435630D01*
X148122989Y-151389875D01*
X148192147Y-151379931D01*
X148255703Y-151408956D01*
X148292431Y-151464351D01*
X148333787Y-151591636D01*
X148333788Y-151591639D01*
X148416006Y-151752997D01*
X148522441Y-151899494D01*
X148522445Y-151899499D01*
X148650500Y-152027554D01*
X148650505Y-152027558D01*
X148778287Y-152120396D01*
X148797006Y-152133996D01*
X148902484Y-152187740D01*
X148958360Y-152216211D01*
X148958363Y-152216212D01*
X149044476Y-152244191D01*
X149130591Y-152272171D01*
X149213429Y-152285291D01*
X149309449Y-152300500D01*
X149309454Y-152300500D01*
X149490551Y-152300500D01*
X149577259Y-152286765D01*
X149669409Y-152272171D01*
X149841639Y-152216211D01*
X150002994Y-152133996D01*
X150149501Y-152027553D01*
X150277553Y-151899501D01*
X150383996Y-151752994D01*
X150466211Y-151591639D01*
X150522171Y-151419409D01*
X150549003Y-151250000D01*
X150550500Y-151240551D01*
X150550500Y-150759448D01*
X150526608Y-150608608D01*
X150522171Y-150580591D01*
X150466211Y-150408361D01*
X150466211Y-150408360D01*
X150419294Y-150316282D01*
X150383996Y-150247006D01*
X150363923Y-150219378D01*
X150277558Y-150100505D01*
X150277554Y-150100500D01*
X150149499Y-149972445D01*
X150149494Y-149972441D01*
X150051615Y-149901328D01*
X150008949Y-149845998D01*
X150000500Y-149801010D01*
X150000500Y-147653059D01*
X150000501Y-147653046D01*
X150000501Y-147484945D01*
X150000501Y-147484943D01*
X149959577Y-147332215D01*
X149930639Y-147282095D01*
X149880520Y-147195284D01*
X149768716Y-147083480D01*
X149768715Y-147083479D01*
X149764385Y-147079149D01*
X149764374Y-147079139D01*
X143809819Y-141124584D01*
X143776334Y-141063261D01*
X143773500Y-141036903D01*
X143773500Y-131913054D01*
X145359498Y-131913054D01*
X145400423Y-132065785D01*
X145429358Y-132115900D01*
X145429359Y-132115904D01*
X145429360Y-132115904D01*
X145479479Y-132202714D01*
X145479481Y-132202717D01*
X145598349Y-132321585D01*
X145598355Y-132321590D01*
X147239584Y-133962819D01*
X147273069Y-134024142D01*
X147268085Y-134093834D01*
X147226213Y-134149767D01*
X147160749Y-134174184D01*
X147151903Y-134174500D01*
X147073943Y-134174500D01*
X146921216Y-134215423D01*
X146921209Y-134215426D01*
X146784290Y-134294475D01*
X146784282Y-134294481D01*
X146672481Y-134406282D01*
X146672475Y-134406290D01*
X146593426Y-134543209D01*
X146593423Y-134543216D01*
X146552500Y-134695943D01*
X146552500Y-134854056D01*
X146593423Y-135006783D01*
X146593426Y-135006790D01*
X146672475Y-135143709D01*
X146672481Y-135143717D01*
X146691181Y-135162417D01*
X146724666Y-135223740D01*
X146727500Y-135250098D01*
X146727500Y-137572902D01*
X146707815Y-137639941D01*
X146691181Y-137660583D01*
X146672481Y-137679282D01*
X146672475Y-137679290D01*
X146593426Y-137816209D01*
X146593423Y-137816216D01*
X146552500Y-137968943D01*
X146552500Y-138127056D01*
X146593423Y-138279783D01*
X146593426Y-138279790D01*
X146672475Y-138416709D01*
X146672479Y-138416714D01*
X146672480Y-138416716D01*
X146784284Y-138528520D01*
X146784286Y-138528521D01*
X146784290Y-138528524D01*
X146851230Y-138567171D01*
X146921216Y-138607577D01*
X147073943Y-138648500D01*
X147073945Y-138648500D01*
X147232055Y-138648500D01*
X147232057Y-138648500D01*
X147384784Y-138607577D01*
X147521716Y-138528520D01*
X147633520Y-138416716D01*
X147712577Y-138279784D01*
X147753500Y-138127057D01*
X147753500Y-137968943D01*
X147712577Y-137816216D01*
X147712573Y-137816209D01*
X147633524Y-137679290D01*
X147633518Y-137679282D01*
X147614819Y-137660583D01*
X147581334Y-137599260D01*
X147578500Y-137572902D01*
X147578500Y-135250098D01*
X147598185Y-135183059D01*
X147614819Y-135162417D01*
X147633520Y-135143716D01*
X147712577Y-135006784D01*
X147753500Y-134854057D01*
X147753500Y-134776097D01*
X147773185Y-134709058D01*
X147825989Y-134663303D01*
X147895147Y-134653359D01*
X147958703Y-134682384D01*
X147965181Y-134688416D01*
X155795139Y-142518374D01*
X155795149Y-142518385D01*
X155799479Y-142522715D01*
X155799480Y-142522716D01*
X155911284Y-142634520D01*
X155911286Y-142634521D01*
X155911290Y-142634524D01*
X155997084Y-142684057D01*
X155997085Y-142684057D01*
X156048215Y-142713577D01*
X156200943Y-142754501D01*
X156200946Y-142754501D01*
X156366653Y-142754501D01*
X156366669Y-142754500D01*
X156942331Y-142754500D01*
X156942347Y-142754501D01*
X156949943Y-142754501D01*
X157108054Y-142754501D01*
X157108057Y-142754501D01*
X157260785Y-142713577D01*
X157311915Y-142684057D01*
X157311916Y-142684057D01*
X157397709Y-142634524D01*
X157397708Y-142634524D01*
X157397716Y-142634520D01*
X157509520Y-142522716D01*
X157509520Y-142522714D01*
X157519724Y-142512511D01*
X157519727Y-142512506D01*
X157819820Y-142212414D01*
X157881142Y-142178930D01*
X157950834Y-142183914D01*
X158006767Y-142225786D01*
X158031184Y-142291250D01*
X158031500Y-142300096D01*
X158031500Y-148565902D01*
X158011815Y-148632941D01*
X157995181Y-148653583D01*
X157519481Y-149129282D01*
X157519481Y-149129283D01*
X157519480Y-149129284D01*
X157496876Y-149168436D01*
X157440423Y-149266215D01*
X157399499Y-149418943D01*
X157399499Y-149418945D01*
X157399499Y-149587046D01*
X157399500Y-149587059D01*
X157399500Y-149801010D01*
X157379815Y-149868049D01*
X157348385Y-149901328D01*
X157250505Y-149972441D01*
X157250500Y-149972445D01*
X157122445Y-150100500D01*
X157122441Y-150100505D01*
X157016006Y-150247002D01*
X156933788Y-150408360D01*
X156933787Y-150408363D01*
X156892431Y-150535648D01*
X156852994Y-150593323D01*
X156788635Y-150620522D01*
X156719789Y-150608608D01*
X156668313Y-150561364D01*
X156650500Y-150497330D01*
X156650500Y-150206903D01*
X156650500Y-150206898D01*
X156639877Y-150118436D01*
X156584361Y-149977658D01*
X156584360Y-149977657D01*
X156584360Y-149977656D01*
X156492922Y-149857077D01*
X156372343Y-149765639D01*
X156231561Y-149710122D01*
X156185926Y-149704642D01*
X156143102Y-149699500D01*
X154856898Y-149699500D01*
X154817853Y-149704188D01*
X154768438Y-149710122D01*
X154627656Y-149765639D01*
X154507077Y-149857077D01*
X154415639Y-149977656D01*
X154360122Y-150118438D01*
X154356085Y-150152064D01*
X154349500Y-150206898D01*
X154349500Y-151793102D01*
X154355126Y-151839954D01*
X154360122Y-151881561D01*
X154360122Y-151881563D01*
X154360123Y-151881564D01*
X154377722Y-151926192D01*
X154415639Y-152022343D01*
X154507077Y-152142922D01*
X154627656Y-152234360D01*
X154627657Y-152234360D01*
X154627658Y-152234361D01*
X154768436Y-152289877D01*
X154856898Y-152300500D01*
X154856903Y-152300500D01*
X156143097Y-152300500D01*
X156143102Y-152300500D01*
X156231564Y-152289877D01*
X156372342Y-152234361D01*
X156492922Y-152142922D01*
X156584361Y-152022342D01*
X156639877Y-151881564D01*
X156650500Y-151793102D01*
X156650500Y-151502669D01*
X156670185Y-151435630D01*
X156722989Y-151389875D01*
X156792147Y-151379931D01*
X156855703Y-151408956D01*
X156892431Y-151464351D01*
X156933787Y-151591636D01*
X156933788Y-151591639D01*
X157016006Y-151752997D01*
X157122441Y-151899494D01*
X157122445Y-151899499D01*
X157250500Y-152027554D01*
X157250505Y-152027558D01*
X157378287Y-152120396D01*
X157397006Y-152133996D01*
X157502484Y-152187740D01*
X157558360Y-152216211D01*
X157558363Y-152216212D01*
X157644476Y-152244191D01*
X157730591Y-152272171D01*
X157813429Y-152285291D01*
X157909449Y-152300500D01*
X157909454Y-152300500D01*
X158090551Y-152300500D01*
X158177259Y-152286765D01*
X158269409Y-152272171D01*
X158441639Y-152216211D01*
X158602994Y-152133996D01*
X158749501Y-152027553D01*
X158877553Y-151899501D01*
X158983996Y-151752994D01*
X159066211Y-151591639D01*
X159122171Y-151419409D01*
X159149003Y-151250000D01*
X159150500Y-151240551D01*
X159150500Y-150759448D01*
X159126608Y-150608608D01*
X159122171Y-150580591D01*
X159066211Y-150408361D01*
X159066211Y-150408360D01*
X159019294Y-150316282D01*
X158983996Y-150247006D01*
X158963923Y-150219378D01*
X158877558Y-150100505D01*
X158877554Y-150100500D01*
X158749499Y-149972445D01*
X158749494Y-149972441D01*
X158651615Y-149901328D01*
X158648274Y-149896996D01*
X158643297Y-149894723D01*
X158627164Y-149869620D01*
X158608949Y-149845998D01*
X158607696Y-149839326D01*
X158605523Y-149835945D01*
X158600500Y-149801010D01*
X158600500Y-149798096D01*
X158620185Y-149731057D01*
X158636815Y-149710419D01*
X158990506Y-149356727D01*
X158990511Y-149356724D01*
X159000714Y-149346520D01*
X159000716Y-149346520D01*
X159112520Y-149234716D01*
X159173391Y-149129284D01*
X159173393Y-149129282D01*
X159191574Y-149097790D01*
X159191575Y-149097789D01*
X159191575Y-149097787D01*
X159191577Y-149097785D01*
X159232501Y-148945057D01*
X159232501Y-148786943D01*
X159232501Y-148779348D01*
X159232500Y-148779330D01*
X159232500Y-140968733D01*
X159232584Y-140968419D01*
X159232500Y-140889362D01*
X159232500Y-140810943D01*
X159232416Y-140810314D01*
X159232416Y-140810305D01*
X159211945Y-140734233D01*
X159211910Y-140734102D01*
X159191581Y-140658228D01*
X159191578Y-140658222D01*
X159191577Y-140658216D01*
X159191573Y-140658209D01*
X159191332Y-140657630D01*
X159191330Y-140657621D01*
X159152141Y-140589910D01*
X159112520Y-140521284D01*
X159112519Y-140521283D01*
X159112135Y-140520782D01*
X159112127Y-140520774D01*
X159056992Y-140465756D01*
X159000716Y-140409480D01*
X158995565Y-140404329D01*
X158994493Y-140403390D01*
X158931913Y-140340943D01*
X158585753Y-139995517D01*
X158529716Y-139939480D01*
X158529433Y-139939316D01*
X158529205Y-139939089D01*
X158513536Y-139930064D01*
X158461039Y-139899829D01*
X158461036Y-139899827D01*
X158460931Y-139899766D01*
X158460927Y-139899765D01*
X158460346Y-139899429D01*
X158460106Y-139899290D01*
X158392784Y-139860423D01*
X158392487Y-139860343D01*
X158392214Y-139860186D01*
X158392189Y-139860176D01*
X158315857Y-139839809D01*
X158315856Y-139839809D01*
X158315729Y-139839775D01*
X158315728Y-139839775D01*
X158315597Y-139839740D01*
X158315475Y-139839707D01*
X158240057Y-139819500D01*
X158239734Y-139819500D01*
X158239419Y-139819416D01*
X158239417Y-139819416D01*
X158239414Y-139819415D01*
X158160362Y-139819500D01*
X157381500Y-139819500D01*
X157314461Y-139799815D01*
X157268706Y-139747011D01*
X157257500Y-139695500D01*
X157257500Y-136795080D01*
X161507480Y-136795080D01*
X161507499Y-136870485D01*
X161507499Y-136953063D01*
X161507515Y-136953192D01*
X161507518Y-136953206D01*
X161507519Y-136953208D01*
X161527987Y-137029518D01*
X161548423Y-137105785D01*
X161548461Y-137105851D01*
X161548481Y-137105925D01*
X161548507Y-137105971D01*
X161548508Y-137105972D01*
X161588229Y-137174733D01*
X161588231Y-137174735D01*
X161588251Y-137174769D01*
X161627480Y-137242716D01*
X161627534Y-137242770D01*
X161627573Y-137242837D01*
X161627636Y-137242900D01*
X161627637Y-137242901D01*
X161683356Y-137298592D01*
X161744917Y-137360153D01*
X161745166Y-137360371D01*
X163237558Y-138852014D01*
X163463159Y-139077501D01*
X163496660Y-139138815D01*
X163499500Y-139165204D01*
X163499500Y-149584383D01*
X163479815Y-149651422D01*
X163427011Y-149697177D01*
X163390286Y-149707498D01*
X163368441Y-149710121D01*
X163227656Y-149765639D01*
X163107077Y-149857077D01*
X163015639Y-149977656D01*
X162960122Y-150118438D01*
X162956085Y-150152064D01*
X162949500Y-150206898D01*
X162949500Y-151793102D01*
X162955126Y-151839954D01*
X162960122Y-151881561D01*
X162960122Y-151881563D01*
X162960123Y-151881564D01*
X162977722Y-151926192D01*
X163015639Y-152022343D01*
X163107077Y-152142922D01*
X163227656Y-152234360D01*
X163227657Y-152234360D01*
X163227658Y-152234361D01*
X163368436Y-152289877D01*
X163456898Y-152300500D01*
X163456903Y-152300500D01*
X164743097Y-152300500D01*
X164743102Y-152300500D01*
X164831564Y-152289877D01*
X164972342Y-152234361D01*
X165092922Y-152142922D01*
X165184361Y-152022342D01*
X165239877Y-151881564D01*
X165250500Y-151793102D01*
X165250500Y-151502669D01*
X165270185Y-151435630D01*
X165322989Y-151389875D01*
X165392147Y-151379931D01*
X165455703Y-151408956D01*
X165492431Y-151464351D01*
X165533787Y-151591636D01*
X165533788Y-151591639D01*
X165616006Y-151752997D01*
X165722441Y-151899494D01*
X165722445Y-151899499D01*
X165850500Y-152027554D01*
X165850505Y-152027558D01*
X165978287Y-152120396D01*
X165997006Y-152133996D01*
X166102484Y-152187740D01*
X166158360Y-152216211D01*
X166158363Y-152216212D01*
X166244476Y-152244191D01*
X166330591Y-152272171D01*
X166413429Y-152285291D01*
X166509449Y-152300500D01*
X166509454Y-152300500D01*
X166690551Y-152300500D01*
X166777259Y-152286765D01*
X166869409Y-152272171D01*
X167041639Y-152216211D01*
X167202994Y-152133996D01*
X167349501Y-152027553D01*
X167477553Y-151899501D01*
X167583996Y-151752994D01*
X167666211Y-151591639D01*
X167722171Y-151419409D01*
X167749003Y-151250000D01*
X167750500Y-151240551D01*
X167750500Y-150759448D01*
X167726608Y-150608608D01*
X167722171Y-150580591D01*
X167666211Y-150408361D01*
X167666211Y-150408360D01*
X167619294Y-150316282D01*
X167583996Y-150247006D01*
X167563923Y-150219378D01*
X167477558Y-150100505D01*
X167477554Y-150100500D01*
X167349499Y-149972445D01*
X167349494Y-149972441D01*
X167202997Y-149866006D01*
X167202996Y-149866005D01*
X167202994Y-149866004D01*
X167144000Y-149835945D01*
X167041639Y-149783788D01*
X167041636Y-149783787D01*
X166869410Y-149727829D01*
X166690551Y-149699500D01*
X166690546Y-149699500D01*
X166509454Y-149699500D01*
X166509449Y-149699500D01*
X166330589Y-149727829D01*
X166158363Y-149783787D01*
X166158360Y-149783788D01*
X165997002Y-149866006D01*
X165850505Y-149972441D01*
X165850500Y-149972445D01*
X165722445Y-150100500D01*
X165722441Y-150100505D01*
X165616006Y-150247002D01*
X165533788Y-150408360D01*
X165533787Y-150408363D01*
X165492431Y-150535648D01*
X165452994Y-150593323D01*
X165388635Y-150620522D01*
X165319789Y-150608608D01*
X165268313Y-150561364D01*
X165250500Y-150497330D01*
X165250500Y-150206903D01*
X165250500Y-150206898D01*
X165239877Y-150118436D01*
X165184361Y-149977658D01*
X165184360Y-149977657D01*
X165184360Y-149977656D01*
X165092922Y-149857077D01*
X164972343Y-149765639D01*
X164899336Y-149736849D01*
X164831564Y-149710123D01*
X164831562Y-149710122D01*
X164831558Y-149710121D01*
X164809714Y-149707498D01*
X164745500Y-149679960D01*
X164706368Y-149622077D01*
X164700500Y-149584383D01*
X164700500Y-138943980D01*
X164700520Y-138943906D01*
X164700500Y-138864849D01*
X164700500Y-138785943D01*
X164700500Y-138785939D01*
X164700481Y-138785795D01*
X164680371Y-138710823D01*
X164659577Y-138633216D01*
X164659572Y-138633208D01*
X164659516Y-138633071D01*
X164644788Y-138607577D01*
X164621446Y-138567171D01*
X164580520Y-138496284D01*
X164580517Y-138496281D01*
X164580432Y-138496169D01*
X164580426Y-138496163D01*
X164526634Y-138442398D01*
X164468716Y-138384480D01*
X164466231Y-138381995D01*
X166699500Y-138381995D01*
X166699500Y-138618004D01*
X166699501Y-138618020D01*
X166721608Y-138785943D01*
X166730307Y-138852014D01*
X166754949Y-138943980D01*
X166791394Y-139079993D01*
X166881714Y-139298045D01*
X166881719Y-139298056D01*
X166929063Y-139380057D01*
X166999727Y-139502450D01*
X166999729Y-139502453D01*
X166999730Y-139502454D01*
X167143406Y-139689697D01*
X167143412Y-139689704D01*
X167310295Y-139856587D01*
X167310302Y-139856593D01*
X167366650Y-139899830D01*
X167497550Y-140000273D01*
X167612215Y-140066475D01*
X167701943Y-140118280D01*
X167701948Y-140118282D01*
X167701951Y-140118284D01*
X167920007Y-140208606D01*
X168147986Y-140269693D01*
X168381989Y-140300500D01*
X168381996Y-140300500D01*
X168618004Y-140300500D01*
X168618011Y-140300500D01*
X168852014Y-140269693D01*
X169079993Y-140208606D01*
X169298049Y-140118284D01*
X169502450Y-140000273D01*
X169689699Y-139856592D01*
X169856592Y-139689699D01*
X170000273Y-139502450D01*
X170118284Y-139298049D01*
X170208606Y-139079993D01*
X170269693Y-138852014D01*
X170300500Y-138618011D01*
X170300500Y-138381989D01*
X170269693Y-138147986D01*
X170208606Y-137920007D01*
X170118284Y-137701951D01*
X170118282Y-137701948D01*
X170118280Y-137701943D01*
X170058995Y-137599260D01*
X170000273Y-137497550D01*
X169925755Y-137400436D01*
X169856593Y-137310302D01*
X169856587Y-137310295D01*
X169689704Y-137143412D01*
X169689697Y-137143406D01*
X169502454Y-136999730D01*
X169502453Y-136999729D01*
X169502450Y-136999727D01*
X169380320Y-136929215D01*
X169298056Y-136881719D01*
X169298045Y-136881714D01*
X169079993Y-136791394D01*
X168852010Y-136730306D01*
X168618020Y-136699501D01*
X168618017Y-136699500D01*
X168618011Y-136699500D01*
X168381989Y-136699500D01*
X168381983Y-136699500D01*
X168381979Y-136699501D01*
X168147989Y-136730306D01*
X167920006Y-136791394D01*
X167701954Y-136881714D01*
X167701943Y-136881719D01*
X167497545Y-136999730D01*
X167310302Y-137143406D01*
X167310295Y-137143412D01*
X167143412Y-137310295D01*
X167143406Y-137310302D01*
X166999730Y-137497545D01*
X166881719Y-137701943D01*
X166881714Y-137701954D01*
X166791394Y-137920006D01*
X166730306Y-138147989D01*
X166699501Y-138381979D01*
X166699500Y-138381995D01*
X164466231Y-138381995D01*
X164463153Y-138378917D01*
X164462892Y-138378687D01*
X163045066Y-136961573D01*
X163011565Y-136900259D01*
X163016532Y-136830566D01*
X163045042Y-136786191D01*
X165270506Y-134560728D01*
X165270511Y-134560724D01*
X165280714Y-134550520D01*
X165280716Y-134550520D01*
X165392520Y-134438716D01*
X165411241Y-134406290D01*
X165458461Y-134324503D01*
X165458462Y-134324501D01*
X165463783Y-134315282D01*
X165471577Y-134301785D01*
X165512501Y-134149057D01*
X165512501Y-133990943D01*
X165512501Y-133983348D01*
X165512500Y-133983330D01*
X165512500Y-124832945D01*
X165512500Y-124832943D01*
X165471577Y-124680216D01*
X165471573Y-124680209D01*
X165392524Y-124543290D01*
X165392518Y-124543282D01*
X165280717Y-124431481D01*
X165280709Y-124431475D01*
X165143790Y-124352426D01*
X165143786Y-124352424D01*
X165143784Y-124352423D01*
X164991057Y-124311500D01*
X164832943Y-124311500D01*
X164680216Y-124352423D01*
X164680209Y-124352426D01*
X164543290Y-124431475D01*
X164543282Y-124431481D01*
X164431481Y-124543282D01*
X164431475Y-124543290D01*
X164352426Y-124680209D01*
X164352423Y-124680216D01*
X164311500Y-124832943D01*
X164311500Y-133769902D01*
X164291815Y-133836941D01*
X164275181Y-133857583D01*
X161744808Y-136387955D01*
X161744808Y-136387956D01*
X161739286Y-136393478D01*
X161739284Y-136393480D01*
X161739229Y-136393534D01*
X161739163Y-136393573D01*
X161686159Y-136446602D01*
X161684233Y-136448529D01*
X161684234Y-136448529D01*
X161627462Y-136505301D01*
X161627403Y-136505379D01*
X161588493Y-136572812D01*
X161588478Y-136572837D01*
X161580870Y-136586015D01*
X161580869Y-136586017D01*
X161548401Y-136642252D01*
X161548374Y-136642317D01*
X161528402Y-136716927D01*
X161528395Y-136716954D01*
X161507497Y-136794949D01*
X161507480Y-136795080D01*
X157257500Y-136795080D01*
X157257500Y-122004945D01*
X157257500Y-122004943D01*
X157216577Y-121852216D01*
X157179285Y-121787623D01*
X157137524Y-121715290D01*
X157137518Y-121715282D01*
X157025717Y-121603481D01*
X157025709Y-121603475D01*
X156888790Y-121524426D01*
X156888786Y-121524424D01*
X156888784Y-121524423D01*
X156736057Y-121483500D01*
X156577943Y-121483500D01*
X156425216Y-121524423D01*
X156425209Y-121524426D01*
X156288290Y-121603475D01*
X156288282Y-121603481D01*
X156176481Y-121715282D01*
X156176475Y-121715290D01*
X156097426Y-121852209D01*
X156097423Y-121852216D01*
X156056500Y-122004943D01*
X156056500Y-140781903D01*
X156036815Y-140848942D01*
X155984011Y-140894697D01*
X155914853Y-140904641D01*
X155851297Y-140875616D01*
X155844819Y-140869584D01*
X146596819Y-131621584D01*
X146563334Y-131560261D01*
X146560500Y-131533903D01*
X146560500Y-123095945D01*
X146560500Y-123095943D01*
X146519577Y-122943216D01*
X146507297Y-122921946D01*
X146440524Y-122806290D01*
X146440518Y-122806282D01*
X146328717Y-122694481D01*
X146328709Y-122694475D01*
X146191790Y-122615426D01*
X146191786Y-122615424D01*
X146191784Y-122615423D01*
X146039057Y-122574500D01*
X145880943Y-122574500D01*
X145728216Y-122615423D01*
X145728209Y-122615426D01*
X145591290Y-122694475D01*
X145591282Y-122694481D01*
X145479481Y-122806282D01*
X145479475Y-122806290D01*
X145400426Y-122943209D01*
X145400423Y-122943216D01*
X145359500Y-123095943D01*
X145359500Y-131747330D01*
X145359499Y-131747348D01*
X145359499Y-131913054D01*
X145359498Y-131913054D01*
X143773500Y-131913054D01*
X143773500Y-121155945D01*
X143773500Y-121155943D01*
X143732577Y-121003216D01*
X143732573Y-121003209D01*
X143653524Y-120866290D01*
X143653518Y-120866282D01*
X143541715Y-120754479D01*
X143522958Y-120743650D01*
X143490861Y-120725119D01*
X143473608Y-120707025D01*
X143453595Y-120692043D01*
X143449914Y-120682176D01*
X143442647Y-120674554D01*
X143437914Y-120650002D01*
X143429178Y-120626579D01*
X143431416Y-120616289D01*
X143429423Y-120605948D01*
X143438715Y-120582734D01*
X143444030Y-120558306D01*
X143453627Y-120545485D01*
X143455390Y-120541083D01*
X143465173Y-120530060D01*
X143525506Y-120469728D01*
X143525511Y-120469724D01*
X143535714Y-120459520D01*
X143535716Y-120459520D01*
X143647520Y-120347716D01*
X143726577Y-120210784D01*
X143767500Y-120058057D01*
X143767500Y-119899943D01*
X143726577Y-119747216D01*
X143679562Y-119665783D01*
X143647524Y-119610290D01*
X143647518Y-119610282D01*
X143535717Y-119498481D01*
X143535709Y-119498475D01*
X143398790Y-119419426D01*
X143398785Y-119419423D01*
X143295619Y-119391780D01*
X143235959Y-119355414D01*
X143205430Y-119292567D01*
X143213725Y-119223192D01*
X143240003Y-119184353D01*
X143359001Y-119065282D01*
X143435492Y-118988744D01*
X143435494Y-118988746D01*
X143435511Y-118988723D01*
X143491520Y-118932716D01*
X143491524Y-118932708D01*
X143491626Y-118932574D01*
X143491635Y-118932566D01*
X143531080Y-118864192D01*
X143531109Y-118864165D01*
X143531100Y-118864160D01*
X143548801Y-118833500D01*
X143570577Y-118795784D01*
X143570577Y-118795780D01*
X143570580Y-118795777D01*
X143570644Y-118795624D01*
X143570646Y-118795613D01*
X143570649Y-118795610D01*
X143591196Y-118718830D01*
X143611500Y-118643057D01*
X143611500Y-118643047D01*
X143611522Y-118642878D01*
X143611525Y-118642870D01*
X143611500Y-118562199D01*
X143611500Y-118484943D01*
X143611478Y-118484860D01*
X143611478Y-118484774D01*
X143611476Y-118484760D01*
X143611476Y-118484755D01*
X143590487Y-118406521D01*
X143570577Y-118332216D01*
X143570530Y-118332134D01*
X143570505Y-118332041D01*
X143555864Y-118306701D01*
X143530516Y-118262827D01*
X143530497Y-118262794D01*
X143491523Y-118195288D01*
X143491498Y-118195256D01*
X143491404Y-118195133D01*
X143480837Y-118184573D01*
X143434736Y-118138500D01*
X143379716Y-118083480D01*
X143379640Y-118083436D01*
X143379575Y-118083371D01*
X143379572Y-118083369D01*
X143379567Y-118083366D01*
X143379566Y-118083365D01*
X143353411Y-118068275D01*
X143320657Y-118049378D01*
X143272426Y-117998826D01*
X143259182Y-117930223D01*
X143285130Y-117865350D01*
X143294924Y-117854311D01*
X143486520Y-117662716D01*
X143565577Y-117525784D01*
X143606501Y-117373057D01*
X143606501Y-117214942D01*
X143565577Y-117062215D01*
X143486520Y-116925284D01*
X143374716Y-116813480D01*
X143351538Y-116800098D01*
X143315620Y-116779360D01*
X143298368Y-116761267D01*
X143278354Y-116746284D01*
X143274673Y-116736415D01*
X143267405Y-116728793D01*
X143262674Y-116704244D01*
X143253937Y-116680820D01*
X143256176Y-116670527D01*
X143254183Y-116660186D01*
X143263474Y-116636976D01*
X143268789Y-116612547D01*
X143278388Y-116599724D01*
X143280151Y-116595321D01*
X143289932Y-116584301D01*
X143359506Y-116514728D01*
X143359511Y-116514724D01*
X143369714Y-116504520D01*
X143369716Y-116504520D01*
X143481520Y-116392716D01*
X143546563Y-116280057D01*
X143560577Y-116255785D01*
X143601500Y-116103057D01*
X143601500Y-115944943D01*
X143560577Y-115792215D01*
X143525523Y-115731500D01*
X143481520Y-115655284D01*
X143369716Y-115543480D01*
X143279664Y-115491489D01*
X143232786Y-115464423D01*
X143156421Y-115443961D01*
X143080057Y-115423500D01*
X142921943Y-115423500D01*
X142769213Y-115464423D01*
X142722336Y-115491489D01*
X142722335Y-115491489D01*
X142632287Y-115543477D01*
X142632282Y-115543481D01*
X142520478Y-115655286D01*
X136078129Y-122097634D01*
X136016806Y-122131119D01*
X135947114Y-122126135D01*
X135895923Y-122090208D01*
X135888664Y-122081659D01*
X135881520Y-122069284D01*
X135859248Y-122047012D01*
X135855975Y-122043157D01*
X135843753Y-122015667D01*
X135829334Y-121989260D01*
X135828479Y-121981311D01*
X135827591Y-121979313D01*
X135827987Y-121976738D01*
X135826500Y-121962902D01*
X135826500Y-117452098D01*
X135846185Y-117385059D01*
X135862819Y-117364417D01*
X135870070Y-117357166D01*
X135881520Y-117345716D01*
X135960577Y-117208784D01*
X135965616Y-117189976D01*
X136001979Y-117130316D01*
X136064826Y-117099785D01*
X136134202Y-117108079D01*
X136173032Y-117134347D01*
X136457085Y-117418147D01*
X136473142Y-117434189D01*
X136506654Y-117495497D01*
X136509500Y-117521909D01*
X136509500Y-117548057D01*
X136542849Y-117672515D01*
X136550423Y-117700783D01*
X136550426Y-117700790D01*
X136629475Y-117837709D01*
X136629479Y-117837714D01*
X136629480Y-117837716D01*
X136741284Y-117949520D01*
X136741286Y-117949521D01*
X136741290Y-117949524D01*
X136878209Y-118028573D01*
X136878216Y-118028577D01*
X137030943Y-118069500D01*
X137030945Y-118069500D01*
X137189055Y-118069500D01*
X137189057Y-118069500D01*
X137341784Y-118028577D01*
X137478716Y-117949520D01*
X137590520Y-117837716D01*
X137669577Y-117700784D01*
X137710500Y-117548057D01*
X137710500Y-117389943D01*
X137669577Y-117237216D01*
X137656717Y-117214942D01*
X137590524Y-117100290D01*
X137590518Y-117100282D01*
X137478717Y-116988481D01*
X137478709Y-116988475D01*
X137341790Y-116909426D01*
X137341786Y-116909424D01*
X137341784Y-116909423D01*
X137189057Y-116868500D01*
X137189056Y-116868500D01*
X137162310Y-116868500D01*
X137095271Y-116848815D01*
X137074668Y-116832220D01*
X136291422Y-116049674D01*
X136251263Y-116009515D01*
X136251186Y-116009470D01*
X136251125Y-116009409D01*
X136251116Y-116009402D01*
X136251111Y-116009399D01*
X136203386Y-115981873D01*
X136154237Y-115953497D01*
X136154232Y-115953494D01*
X136154137Y-115953454D01*
X136154068Y-115953426D01*
X136100350Y-115939058D01*
X136100302Y-115939029D01*
X136100299Y-115939044D01*
X136046011Y-115924498D01*
X136045832Y-115924474D01*
X135989836Y-115924499D01*
X135989810Y-115924500D01*
X135197018Y-115924500D01*
X135084981Y-115924500D01*
X134976763Y-115953497D01*
X134976761Y-115953498D01*
X134976760Y-115953498D01*
X134879740Y-116009513D01*
X134879734Y-116009517D01*
X132961181Y-117928071D01*
X132899858Y-117961556D01*
X132830166Y-117956572D01*
X132774233Y-117914700D01*
X132749816Y-117849236D01*
X132749500Y-117840390D01*
X132749500Y-117465983D01*
X132749500Y-117465982D01*
X132736513Y-117417515D01*
X132720503Y-117357763D01*
X132705917Y-117332500D01*
X132664485Y-117260737D01*
X132585263Y-117181515D01*
X132585260Y-117181513D01*
X131914263Y-116510515D01*
X131817237Y-116454497D01*
X131709018Y-116425500D01*
X131709017Y-116425500D01*
X131332747Y-116425500D01*
X131265708Y-116405815D01*
X131219953Y-116353011D01*
X131209808Y-116285316D01*
X131210500Y-116280057D01*
X131210500Y-116121945D01*
X131210500Y-116121943D01*
X131169577Y-115969216D01*
X131155563Y-115944943D01*
X131090524Y-115832290D01*
X131090518Y-115832282D01*
X130978717Y-115720481D01*
X130978709Y-115720475D01*
X130841790Y-115641426D01*
X130841786Y-115641424D01*
X130841784Y-115641423D01*
X130689057Y-115600500D01*
X130689056Y-115600500D01*
X130663445Y-115600500D01*
X130633935Y-115591834D01*
X130603885Y-115585259D01*
X130598964Y-115581566D01*
X130596406Y-115580815D01*
X130575659Y-115564076D01*
X130554481Y-115542845D01*
X130553689Y-115541941D01*
X130508966Y-115497218D01*
X130469688Y-115457841D01*
X130469612Y-115457783D01*
X130469611Y-115457781D01*
X130469610Y-115457781D01*
X130469268Y-115457518D01*
X130420989Y-115429644D01*
X130420987Y-115429643D01*
X130372729Y-115401701D01*
X130372473Y-115401632D01*
X130372241Y-115401498D01*
X130318477Y-115387092D01*
X130318482Y-115387072D01*
X130318329Y-115387052D01*
X130264541Y-115372568D01*
X130264206Y-115372523D01*
X130264030Y-115372500D01*
X130264018Y-115372500D01*
X130208125Y-115372500D01*
X130152510Y-115372431D01*
X130152251Y-115372500D01*
X130109573Y-115372500D01*
X130042534Y-115352815D01*
X129996779Y-115300011D01*
X129986835Y-115230853D01*
X129989794Y-115216421D01*
X129991500Y-115210057D01*
X129991500Y-115183610D01*
X130011185Y-115116571D01*
X130027819Y-115095929D01*
X131964805Y-113158943D01*
X134150485Y-110973263D01*
X134206503Y-110876237D01*
X134235500Y-110768018D01*
X134235500Y-110655981D01*
X134235500Y-104551895D01*
X134237194Y-104546123D01*
X134236051Y-104540217D01*
X134246925Y-104512984D01*
X134255185Y-104484856D01*
X134259730Y-104480917D01*
X134261962Y-104475329D01*
X134285835Y-104458297D01*
X134307989Y-104439101D01*
X134313942Y-104438244D01*
X134318840Y-104434751D01*
X134348123Y-104433330D01*
X134377147Y-104429157D01*
X134384162Y-104431581D01*
X134388628Y-104431365D01*
X134403758Y-104438354D01*
X134421405Y-104444453D01*
X134427079Y-104447722D01*
X134477006Y-104483996D01*
X134589645Y-104541389D01*
X134592405Y-104542979D01*
X134614410Y-104566017D01*
X134637591Y-104587910D01*
X134638487Y-104591224D01*
X134640665Y-104593504D01*
X134644598Y-104613817D01*
X134654500Y-104650421D01*
X134654500Y-113775902D01*
X134634815Y-113842941D01*
X134618181Y-113863583D01*
X134599481Y-113882282D01*
X134599475Y-113882290D01*
X134520426Y-114019209D01*
X134520423Y-114019216D01*
X134479500Y-114171943D01*
X134479500Y-114330056D01*
X134520423Y-114482783D01*
X134520426Y-114482790D01*
X134599475Y-114619709D01*
X134599479Y-114619714D01*
X134599480Y-114619716D01*
X134711284Y-114731520D01*
X134711286Y-114731521D01*
X134711290Y-114731524D01*
X134848209Y-114810573D01*
X134848216Y-114810577D01*
X135000943Y-114851500D01*
X135000945Y-114851500D01*
X135159055Y-114851500D01*
X135159057Y-114851500D01*
X135311784Y-114810577D01*
X135448716Y-114731520D01*
X135560520Y-114619716D01*
X135639577Y-114482784D01*
X135680500Y-114330057D01*
X135680500Y-114171943D01*
X135639577Y-114019216D01*
X135639573Y-114019209D01*
X135560524Y-113882290D01*
X135560518Y-113882282D01*
X135541819Y-113863583D01*
X135508334Y-113802260D01*
X135505500Y-113775902D01*
X135505500Y-104650421D01*
X135525185Y-104583382D01*
X135573203Y-104539937D01*
X135682994Y-104483996D01*
X135829501Y-104377553D01*
X135957553Y-104249501D01*
X136063996Y-104102994D01*
X136146211Y-103941639D01*
X136202171Y-103769409D01*
X136226149Y-103618020D01*
X136227527Y-103609321D01*
X136257456Y-103546186D01*
X136316768Y-103509255D01*
X136386630Y-103510253D01*
X136444863Y-103548863D01*
X136472473Y-103609321D01*
X136497829Y-103769410D01*
X136553787Y-103941636D01*
X136553788Y-103941639D01*
X136609664Y-104051300D01*
X136628513Y-104088293D01*
X136636006Y-104102997D01*
X136742441Y-104249494D01*
X136742445Y-104249499D01*
X136870500Y-104377554D01*
X136870505Y-104377558D01*
X136962579Y-104444453D01*
X137017006Y-104483996D01*
X137118643Y-104535783D01*
X137178360Y-104566211D01*
X137178363Y-104566212D01*
X137245145Y-104587910D01*
X137350591Y-104622171D01*
X137433429Y-104635291D01*
X137529449Y-104650500D01*
X137529454Y-104650500D01*
X137710551Y-104650500D01*
X137797259Y-104636765D01*
X137889409Y-104622171D01*
X138061639Y-104566211D01*
X138222994Y-104483996D01*
X138369501Y-104377553D01*
X138497553Y-104249501D01*
X138603996Y-104102994D01*
X138686211Y-103941639D01*
X138742171Y-103769409D01*
X138766149Y-103618020D01*
X138770500Y-103590551D01*
X138770500Y-103409451D01*
X138768580Y-103397330D01*
X138768580Y-103397328D01*
X138766151Y-103381995D01*
X166699500Y-103381995D01*
X166699500Y-103618004D01*
X166699501Y-103618020D01*
X166726550Y-103823481D01*
X166730307Y-103852014D01*
X166769960Y-104000000D01*
X166791394Y-104079993D01*
X166881714Y-104298045D01*
X166881719Y-104298056D01*
X166952677Y-104420957D01*
X166999727Y-104502450D01*
X166999729Y-104502453D01*
X166999730Y-104502454D01*
X167143406Y-104689697D01*
X167143412Y-104689704D01*
X167310295Y-104856587D01*
X167310301Y-104856592D01*
X167497550Y-105000273D01*
X167628918Y-105076118D01*
X167701943Y-105118280D01*
X167701948Y-105118282D01*
X167701951Y-105118284D01*
X167920007Y-105208606D01*
X168147986Y-105269693D01*
X168381989Y-105300500D01*
X168381996Y-105300500D01*
X168618004Y-105300500D01*
X168618011Y-105300500D01*
X168852014Y-105269693D01*
X169079993Y-105208606D01*
X169298049Y-105118284D01*
X169502450Y-105000273D01*
X169689699Y-104856592D01*
X169856592Y-104689699D01*
X170000273Y-104502450D01*
X170118284Y-104298049D01*
X170208606Y-104079993D01*
X170269693Y-103852014D01*
X170300500Y-103618011D01*
X170300500Y-103381989D01*
X170269693Y-103147986D01*
X170208606Y-102920007D01*
X170118284Y-102701951D01*
X170118282Y-102701948D01*
X170118280Y-102701943D01*
X170072379Y-102622441D01*
X170000273Y-102497550D01*
X169941001Y-102420306D01*
X169856593Y-102310302D01*
X169856587Y-102310295D01*
X169689704Y-102143412D01*
X169689697Y-102143406D01*
X169502454Y-101999730D01*
X169502453Y-101999729D01*
X169502450Y-101999727D01*
X169420957Y-101952677D01*
X169298056Y-101881719D01*
X169298045Y-101881714D01*
X169079993Y-101791394D01*
X168923531Y-101749470D01*
X168852014Y-101730307D01*
X168852013Y-101730306D01*
X168852010Y-101730306D01*
X168618020Y-101699501D01*
X168618017Y-101699500D01*
X168618011Y-101699500D01*
X168381989Y-101699500D01*
X168381983Y-101699500D01*
X168381979Y-101699501D01*
X168147989Y-101730306D01*
X167920006Y-101791394D01*
X167701954Y-101881714D01*
X167701943Y-101881719D01*
X167497545Y-101999730D01*
X167310302Y-102143406D01*
X167310295Y-102143412D01*
X167143412Y-102310295D01*
X167143406Y-102310302D01*
X166999730Y-102497545D01*
X166881719Y-102701943D01*
X166881714Y-102701954D01*
X166791394Y-102920006D01*
X166730306Y-103147989D01*
X166699501Y-103381979D01*
X166699500Y-103381995D01*
X138766151Y-103381995D01*
X138745245Y-103250000D01*
X138742171Y-103230591D01*
X138686211Y-103058361D01*
X138686211Y-103058360D01*
X138615937Y-102920442D01*
X138603996Y-102897006D01*
X138565378Y-102843853D01*
X138497558Y-102750505D01*
X138497554Y-102750500D01*
X138369499Y-102622445D01*
X138369494Y-102622441D01*
X138222997Y-102516006D01*
X138222996Y-102516005D01*
X138222994Y-102516004D01*
X138171300Y-102489664D01*
X138061639Y-102433788D01*
X138061636Y-102433787D01*
X137889410Y-102377829D01*
X137710551Y-102349500D01*
X137710546Y-102349500D01*
X137529454Y-102349500D01*
X137529449Y-102349500D01*
X137350589Y-102377829D01*
X137233402Y-102415905D01*
X137163560Y-102417900D01*
X137107403Y-102385655D01*
X136693265Y-101971517D01*
X136693263Y-101971515D01*
X136596237Y-101915497D01*
X136488018Y-101886500D01*
X134632019Y-101886500D01*
X134519982Y-101886500D01*
X134411763Y-101915497D01*
X134411760Y-101915498D01*
X134314740Y-101971513D01*
X134314734Y-101971517D01*
X133564334Y-102721918D01*
X133503011Y-102755403D01*
X133433319Y-102750419D01*
X133388972Y-102721918D01*
X133289499Y-102622445D01*
X133289494Y-102622441D01*
X133142997Y-102516006D01*
X133142996Y-102516005D01*
X133142994Y-102516004D01*
X133091300Y-102489664D01*
X132981639Y-102433788D01*
X132981636Y-102433787D01*
X132809410Y-102377829D01*
X132630551Y-102349500D01*
X132630546Y-102349500D01*
X132449454Y-102349500D01*
X132449449Y-102349500D01*
X132270589Y-102377829D01*
X132098363Y-102433787D01*
X132098360Y-102433788D01*
X131937002Y-102516006D01*
X131790505Y-102622441D01*
X131790500Y-102622445D01*
X131662445Y-102750500D01*
X131662441Y-102750505D01*
X131574318Y-102871797D01*
X131518988Y-102914463D01*
X131449375Y-102920442D01*
X131387580Y-102887836D01*
X131353223Y-102826998D01*
X131350000Y-102798912D01*
X131350000Y-102602172D01*
X131349999Y-102602155D01*
X131343598Y-102542627D01*
X131343596Y-102542620D01*
X131293354Y-102407913D01*
X131293350Y-102407906D01*
X131207190Y-102292812D01*
X131207187Y-102292809D01*
X131092093Y-102206649D01*
X131092086Y-102206645D01*
X130957379Y-102156403D01*
X130957372Y-102156401D01*
X130897844Y-102150000D01*
X130250000Y-102150000D01*
X130250000Y-103066988D01*
X130192993Y-103034075D01*
X130065826Y-103000000D01*
X129934174Y-103000000D01*
X129807007Y-103034075D01*
X129750000Y-103066988D01*
X129750000Y-102150000D01*
X129102155Y-102150000D01*
X129042627Y-102156401D01*
X129042620Y-102156403D01*
X128907913Y-102206645D01*
X128907906Y-102206649D01*
X128792812Y-102292809D01*
X128792809Y-102292812D01*
X128706649Y-102407906D01*
X128706645Y-102407913D01*
X128656403Y-102542620D01*
X128656401Y-102542627D01*
X128650000Y-102602155D01*
X128650000Y-103250000D01*
X129566988Y-103250000D01*
X129534075Y-103307007D01*
X129500000Y-103434174D01*
X129500000Y-103565826D01*
X129534075Y-103692993D01*
X129566988Y-103750000D01*
X128650000Y-103750000D01*
X128650000Y-104397844D01*
X128656401Y-104457372D01*
X128656403Y-104457379D01*
X128706645Y-104592086D01*
X128706649Y-104592093D01*
X128792809Y-104707187D01*
X128792812Y-104707190D01*
X128907906Y-104793350D01*
X128907913Y-104793354D01*
X129042620Y-104843596D01*
X129042627Y-104843598D01*
X129102155Y-104849999D01*
X129102172Y-104850000D01*
X129750000Y-104850000D01*
X129750000Y-103933012D01*
X129807007Y-103965925D01*
X129934174Y-104000000D01*
X130065826Y-104000000D01*
X130192993Y-103965925D01*
X130250000Y-103933012D01*
X130250000Y-104850000D01*
X130897828Y-104850000D01*
X130897844Y-104849999D01*
X130957372Y-104843598D01*
X130957379Y-104843596D01*
X131092086Y-104793354D01*
X131092093Y-104793350D01*
X131207187Y-104707190D01*
X131207190Y-104707187D01*
X131293350Y-104592093D01*
X131293354Y-104592086D01*
X131343596Y-104457379D01*
X131343598Y-104457372D01*
X131349999Y-104397844D01*
X131350000Y-104397827D01*
X131350000Y-104201087D01*
X131369685Y-104134048D01*
X131422489Y-104088293D01*
X131491647Y-104078349D01*
X131555203Y-104107374D01*
X131574318Y-104128202D01*
X131662441Y-104249495D01*
X131790500Y-104377554D01*
X131790505Y-104377558D01*
X131937001Y-104483993D01*
X131937003Y-104483994D01*
X131937006Y-104483996D01*
X132046796Y-104539937D01*
X132097591Y-104587910D01*
X132114500Y-104650421D01*
X132114500Y-108398354D01*
X132094815Y-108465393D01*
X132078172Y-108486045D01*
X127990135Y-112573191D01*
X127928808Y-112606669D01*
X127902463Y-112609500D01*
X127875943Y-112609500D01*
X127723216Y-112650423D01*
X127723209Y-112650426D01*
X127586290Y-112729475D01*
X127586282Y-112729481D01*
X127567583Y-112748181D01*
X127506260Y-112781666D01*
X127479902Y-112784500D01*
X127208982Y-112784500D01*
X127100763Y-112813497D01*
X127100760Y-112813498D01*
X127003740Y-112869513D01*
X127003734Y-112869517D01*
X122121517Y-117751734D01*
X122121513Y-117751740D01*
X122065498Y-117848760D01*
X122065497Y-117848763D01*
X122036500Y-117956982D01*
X122036500Y-119761902D01*
X122029311Y-119786382D01*
X122026064Y-119811694D01*
X122018724Y-119822437D01*
X122016815Y-119828941D01*
X122007435Y-119841672D01*
X122003979Y-119845784D01*
X121981480Y-119868284D01*
X121973587Y-119881954D01*
X121966575Y-119890300D01*
X121946175Y-119903852D01*
X121928451Y-119920750D01*
X121917591Y-119922842D01*
X121908378Y-119928963D01*
X121883891Y-119929334D01*
X121859843Y-119933968D01*
X121849574Y-119929856D01*
X121838516Y-119930024D01*
X121817716Y-119917098D01*
X121794981Y-119907995D01*
X121783959Y-119898211D01*
X120336819Y-118451071D01*
X120303334Y-118389748D01*
X120300500Y-118363390D01*
X120300500Y-116800098D01*
X120320185Y-116733059D01*
X120336819Y-116712417D01*
X120344992Y-116704244D01*
X120355520Y-116693716D01*
X120434577Y-116556784D01*
X120475500Y-116404057D01*
X120475500Y-116245943D01*
X120434577Y-116093216D01*
X120409438Y-116049674D01*
X120355524Y-115956290D01*
X120355518Y-115956282D01*
X120243717Y-115844481D01*
X120243709Y-115844475D01*
X120106790Y-115765426D01*
X120106786Y-115765424D01*
X120106784Y-115765423D01*
X119954057Y-115724500D01*
X119795943Y-115724500D01*
X119643216Y-115765423D01*
X119643209Y-115765426D01*
X119506290Y-115844475D01*
X119506282Y-115844481D01*
X119394481Y-115956282D01*
X119394475Y-115956290D01*
X119315426Y-116093209D01*
X119315423Y-116093216D01*
X119274500Y-116245943D01*
X119274500Y-116404057D01*
X119303026Y-116510515D01*
X119315423Y-116556783D01*
X119315426Y-116556790D01*
X119394475Y-116693709D01*
X119394481Y-116693717D01*
X119413181Y-116712417D01*
X119446666Y-116773740D01*
X119449500Y-116800098D01*
X119449500Y-118534982D01*
X119449500Y-118647018D01*
X119478497Y-118755237D01*
X119534515Y-118852263D01*
X123236737Y-122554485D01*
X123333763Y-122610503D01*
X123441982Y-122639500D01*
X123441984Y-122639500D01*
X131974016Y-122639500D01*
X131974018Y-122639500D01*
X132082237Y-122610503D01*
X132179263Y-122554485D01*
X133420485Y-121313263D01*
X133476503Y-121216237D01*
X133505500Y-121108019D01*
X133505500Y-120995982D01*
X133505500Y-118638609D01*
X133525185Y-118571570D01*
X133541814Y-118550933D01*
X134746076Y-117346670D01*
X134754019Y-117342333D01*
X134759445Y-117335086D01*
X134784204Y-117325851D01*
X134807397Y-117313187D01*
X134816426Y-117313832D01*
X134824909Y-117310669D01*
X134850729Y-117316285D01*
X134877089Y-117318171D01*
X134886142Y-117323989D01*
X134893182Y-117325521D01*
X134921436Y-117346672D01*
X134939181Y-117364417D01*
X134972666Y-117425740D01*
X134975500Y-117452098D01*
X134975500Y-121962902D01*
X134955815Y-122029941D01*
X134939181Y-122050583D01*
X134920481Y-122069282D01*
X134920475Y-122069290D01*
X134841426Y-122206209D01*
X134841423Y-122206216D01*
X134800500Y-122358943D01*
X134800500Y-122517057D01*
X134833309Y-122639500D01*
X134841423Y-122669783D01*
X134841426Y-122669790D01*
X134920475Y-122806709D01*
X134920481Y-122806717D01*
X135032284Y-122918520D01*
X135034950Y-122920059D01*
X135036750Y-122921946D01*
X135038735Y-122923470D01*
X135038497Y-122923779D01*
X135083167Y-122970625D01*
X135096392Y-123039232D01*
X135070426Y-123104097D01*
X135060634Y-123115129D01*
X127841584Y-130334181D01*
X127780261Y-130367666D01*
X127753903Y-130370500D01*
X124220670Y-130370500D01*
X124220654Y-130370499D01*
X124213058Y-130370499D01*
X124054943Y-130370499D01*
X123978579Y-130390961D01*
X123902214Y-130411423D01*
X123902209Y-130411426D01*
X123765290Y-130490475D01*
X123765282Y-130490481D01*
X113269481Y-140986282D01*
X113269479Y-140986285D01*
X113264331Y-140995202D01*
X113226697Y-141060387D01*
X113216305Y-141078387D01*
X113195223Y-141114902D01*
X113190423Y-141123215D01*
X113149499Y-141275943D01*
X113149499Y-141275945D01*
X113149499Y-141434054D01*
X113149498Y-141434054D01*
X113190423Y-141586785D01*
X113213418Y-141626613D01*
X113239457Y-141671714D01*
X113269479Y-141723714D01*
X113269481Y-141723717D01*
X113388349Y-141842585D01*
X113388355Y-141842590D01*
X114363181Y-142817416D01*
X114396666Y-142878739D01*
X114399500Y-142905097D01*
X114399500Y-149801010D01*
X114379815Y-149868049D01*
X114348385Y-149901328D01*
X114250505Y-149972441D01*
X114250500Y-149972445D01*
X114122445Y-150100500D01*
X114122441Y-150100505D01*
X114016006Y-150247002D01*
X113933788Y-150408360D01*
X113933787Y-150408363D01*
X113892431Y-150535648D01*
X113852994Y-150593323D01*
X113788635Y-150620522D01*
X113719789Y-150608608D01*
X113668313Y-150561364D01*
X113650500Y-150497330D01*
X113650500Y-150206903D01*
X113650500Y-150206898D01*
X113639877Y-150118436D01*
X113584361Y-149977658D01*
X113584360Y-149977657D01*
X113584360Y-149977656D01*
X113492922Y-149857077D01*
X113372343Y-149765639D01*
X113231561Y-149710122D01*
X113185926Y-149704642D01*
X113143102Y-149699500D01*
X113143097Y-149699500D01*
X112864500Y-149699500D01*
X112797461Y-149679815D01*
X112751706Y-149627011D01*
X112740500Y-149575500D01*
X112740500Y-140286893D01*
X112760185Y-140219854D01*
X112812989Y-140174099D01*
X112882147Y-140164155D01*
X112896582Y-140167116D01*
X112912943Y-140171500D01*
X112912945Y-140171500D01*
X113071055Y-140171500D01*
X113071057Y-140171500D01*
X113223784Y-140130577D01*
X113360716Y-140051520D01*
X113472520Y-139939716D01*
X113551577Y-139802784D01*
X113592500Y-139650057D01*
X113592500Y-139491943D01*
X113551577Y-139339216D01*
X113551573Y-139339209D01*
X113472524Y-139202290D01*
X113472518Y-139202282D01*
X113453819Y-139183583D01*
X113420334Y-139122260D01*
X113417500Y-139095902D01*
X113417500Y-136757610D01*
X113437185Y-136690571D01*
X113453819Y-136669929D01*
X114711929Y-135411819D01*
X114773252Y-135378334D01*
X114799610Y-135375500D01*
X114826055Y-135375500D01*
X114826057Y-135375500D01*
X114978784Y-135334577D01*
X115115716Y-135255520D01*
X115227520Y-135143716D01*
X115306577Y-135006784D01*
X115347500Y-134854057D01*
X115347500Y-134695943D01*
X115306577Y-134543216D01*
X115246245Y-134438717D01*
X115227524Y-134406290D01*
X115227518Y-134406282D01*
X115115717Y-134294481D01*
X115115709Y-134294475D01*
X114978790Y-134215426D01*
X114978786Y-134215424D01*
X114978784Y-134215423D01*
X114826057Y-134174500D01*
X114667943Y-134174500D01*
X114515216Y-134215423D01*
X114515209Y-134215426D01*
X114378290Y-134294475D01*
X114378282Y-134294481D01*
X114266481Y-134406282D01*
X114266475Y-134406290D01*
X114187426Y-134543209D01*
X114187423Y-134543216D01*
X114146500Y-134695943D01*
X114146500Y-134722390D01*
X114126815Y-134789429D01*
X114110181Y-134810071D01*
X112651517Y-136268734D01*
X112651513Y-136268740D01*
X112595498Y-136365760D01*
X112595497Y-136365763D01*
X112566500Y-136473982D01*
X112566500Y-136665642D01*
X112559603Y-136689129D01*
X112556908Y-136713462D01*
X112549933Y-136722059D01*
X112546815Y-136732681D01*
X112528315Y-136748710D01*
X112512893Y-136767724D01*
X112502376Y-136771186D01*
X112494011Y-136778436D01*
X112469783Y-136781919D01*
X112446529Y-136789577D01*
X112429871Y-136787658D01*
X112424853Y-136788380D01*
X112411449Y-136785691D01*
X112410922Y-136785554D01*
X112392057Y-136780500D01*
X112391382Y-136780500D01*
X112390678Y-136780318D01*
X112390334Y-136780273D01*
X112312311Y-136780498D01*
X112311962Y-136780500D01*
X112233943Y-136780500D01*
X112233094Y-136780727D01*
X112232212Y-136780730D01*
X112232204Y-136780731D01*
X112232201Y-136780732D01*
X112179481Y-136795022D01*
X112157013Y-136801111D01*
X112156755Y-136801181D01*
X112081216Y-136821423D01*
X112080339Y-136821786D01*
X112080337Y-136821786D01*
X112079628Y-136822079D01*
X112012187Y-136861275D01*
X112011880Y-136861453D01*
X111944279Y-136900482D01*
X111943692Y-136900932D01*
X111943574Y-136901024D01*
X111942920Y-136901525D01*
X111887872Y-136956887D01*
X111887873Y-136956888D01*
X111887623Y-136957138D01*
X111887622Y-136957141D01*
X111887527Y-136957235D01*
X111887353Y-136957410D01*
X111832480Y-137012284D01*
X111832041Y-137013041D01*
X111825816Y-137019304D01*
X111825809Y-137019312D01*
X111714831Y-137130932D01*
X111714830Y-137130933D01*
X111659481Y-137186281D01*
X111658905Y-137187032D01*
X111658903Y-137187033D01*
X111658439Y-137187637D01*
X111619606Y-137255345D01*
X111619430Y-137255650D01*
X111580423Y-137323213D01*
X111580045Y-137324126D01*
X111579767Y-137324795D01*
X111559763Y-137400308D01*
X111559764Y-137400309D01*
X111559676Y-137400641D01*
X111539500Y-137475943D01*
X111539500Y-137476820D01*
X111539274Y-137477674D01*
X111539274Y-137477676D01*
X111539273Y-137477680D01*
X111539499Y-137555679D01*
X111539500Y-137556037D01*
X111539500Y-149773294D01*
X111519815Y-149840333D01*
X111511931Y-149850115D01*
X111512203Y-149850321D01*
X111507080Y-149857076D01*
X111507078Y-149857078D01*
X111478531Y-149894723D01*
X111415638Y-149977658D01*
X111360122Y-150118438D01*
X111356085Y-150152064D01*
X111349500Y-150206898D01*
X108800541Y-150206898D01*
X108778346Y-150038312D01*
X108715578Y-149804060D01*
X108622779Y-149580021D01*
X108622772Y-149580007D01*
X108501522Y-149369996D01*
X108501517Y-149369989D01*
X108432937Y-149280614D01*
X108432936Y-149280614D01*
X107714114Y-149999436D01*
X107713260Y-149997374D01*
X107620238Y-149858156D01*
X107501844Y-149739762D01*
X107362626Y-149646740D01*
X107360560Y-149645884D01*
X108079384Y-148927061D01*
X107990010Y-148858481D01*
X107779992Y-148737227D01*
X107779978Y-148737220D01*
X107555939Y-148644421D01*
X107321687Y-148581653D01*
X107081264Y-148550001D01*
X107081248Y-148550000D01*
X106838752Y-148550000D01*
X106838735Y-148550001D01*
X106598312Y-148581653D01*
X106364060Y-148644421D01*
X106140021Y-148737220D01*
X106140006Y-148737227D01*
X105929990Y-148858480D01*
X105840614Y-148927060D01*
X105840614Y-148927061D01*
X106559438Y-149645885D01*
X106557374Y-149646740D01*
X106418156Y-149739762D01*
X106299762Y-149858156D01*
X106206740Y-149997374D01*
X106205885Y-149999438D01*
X105487061Y-149280614D01*
X105487060Y-149280614D01*
X105418480Y-149369990D01*
X105297227Y-149580006D01*
X105297220Y-149580021D01*
X105204421Y-149804060D01*
X105141653Y-150038312D01*
X105110001Y-150278735D01*
X105110000Y-150278751D01*
X104650499Y-150278751D01*
X104650499Y-149650095D01*
X104670184Y-149583057D01*
X104686813Y-149562420D01*
X105358506Y-148890728D01*
X105358511Y-148890724D01*
X105368714Y-148880520D01*
X105368716Y-148880520D01*
X105480520Y-148768716D01*
X105530639Y-148681904D01*
X105559577Y-148631785D01*
X105600500Y-148479057D01*
X105600500Y-148320943D01*
X105600500Y-140467943D01*
X105559577Y-140315216D01*
X105533295Y-140269693D01*
X105480524Y-140178290D01*
X105480518Y-140178282D01*
X105368717Y-140066481D01*
X105368709Y-140066475D01*
X105231790Y-139987426D01*
X105231786Y-139987424D01*
X105231784Y-139987423D01*
X105079057Y-139946500D01*
X104920943Y-139946500D01*
X104768216Y-139987423D01*
X104768209Y-139987426D01*
X104631290Y-140066475D01*
X104631282Y-140066481D01*
X104519481Y-140178282D01*
X104519475Y-140178290D01*
X104440426Y-140315209D01*
X104440423Y-140315216D01*
X104399500Y-140467943D01*
X104399500Y-148099902D01*
X104379815Y-148166941D01*
X104363181Y-148187583D01*
X103837583Y-148713181D01*
X103776260Y-148746666D01*
X103749902Y-148749500D01*
X101856908Y-148749500D01*
X101768437Y-148760123D01*
X101627657Y-148815639D01*
X101627655Y-148815640D01*
X101507077Y-148907077D01*
X101415640Y-149027655D01*
X101415639Y-149027658D01*
X101360124Y-149168436D01*
X101360124Y-149168437D01*
X101349500Y-149256900D01*
X100300500Y-149256900D01*
X100300500Y-128847943D01*
X104399499Y-128847943D01*
X104399499Y-129006057D01*
X104399499Y-129006059D01*
X104399500Y-129016053D01*
X104399500Y-135481056D01*
X104440423Y-135633783D01*
X104440426Y-135633790D01*
X104519475Y-135770709D01*
X104519479Y-135770714D01*
X104519480Y-135770716D01*
X104631284Y-135882520D01*
X104631286Y-135882521D01*
X104631290Y-135882524D01*
X104768209Y-135961573D01*
X104768216Y-135961577D01*
X104920943Y-136002500D01*
X104920945Y-136002500D01*
X105079055Y-136002500D01*
X105079057Y-136002500D01*
X105231784Y-135961577D01*
X105368716Y-135882520D01*
X105480520Y-135770716D01*
X105559577Y-135633784D01*
X105600500Y-135481057D01*
X105600500Y-129227097D01*
X105620185Y-129160058D01*
X105636819Y-129139416D01*
X106217953Y-128558282D01*
X106907520Y-127868716D01*
X106986577Y-127731784D01*
X107027501Y-127579057D01*
X107027501Y-127420942D01*
X106986577Y-127268215D01*
X106907520Y-127131284D01*
X106795716Y-127019480D01*
X106658785Y-126940423D01*
X106506058Y-126899499D01*
X106347943Y-126899499D01*
X106271579Y-126919961D01*
X106195214Y-126940423D01*
X106195209Y-126940426D01*
X106058290Y-127019475D01*
X106058282Y-127019481D01*
X104519481Y-128558282D01*
X104519479Y-128558285D01*
X104469361Y-128645094D01*
X104469359Y-128645096D01*
X104440425Y-128695209D01*
X104440424Y-128695210D01*
X104440423Y-128695215D01*
X104399499Y-128847943D01*
X100300500Y-128847943D01*
X100300500Y-103381995D01*
X101699500Y-103381995D01*
X101699500Y-103618004D01*
X101699501Y-103618020D01*
X101726550Y-103823481D01*
X101730307Y-103852014D01*
X101769960Y-104000000D01*
X101791394Y-104079993D01*
X101881714Y-104298045D01*
X101881719Y-104298056D01*
X101952677Y-104420957D01*
X101999727Y-104502450D01*
X101999729Y-104502453D01*
X101999730Y-104502454D01*
X102143406Y-104689697D01*
X102143412Y-104689704D01*
X102310295Y-104856587D01*
X102310301Y-104856592D01*
X102497550Y-105000273D01*
X102628918Y-105076118D01*
X102701943Y-105118280D01*
X102701948Y-105118282D01*
X102701951Y-105118284D01*
X102920007Y-105208606D01*
X103147986Y-105269693D01*
X103381989Y-105300500D01*
X103381996Y-105300500D01*
X103618004Y-105300500D01*
X103618011Y-105300500D01*
X103852014Y-105269693D01*
X104079993Y-105208606D01*
X104298049Y-105118284D01*
X104502450Y-105000273D01*
X104689699Y-104856592D01*
X104856592Y-104689699D01*
X105000273Y-104502450D01*
X105118284Y-104298049D01*
X105148566Y-104224943D01*
X111749500Y-104224943D01*
X111749500Y-104383057D01*
X111781493Y-104502454D01*
X111790423Y-104535783D01*
X111790426Y-104535790D01*
X111869475Y-104672709D01*
X111869481Y-104672717D01*
X111888181Y-104691417D01*
X111921666Y-104752740D01*
X111924500Y-104779098D01*
X111924500Y-112762902D01*
X111904815Y-112829941D01*
X111888181Y-112850583D01*
X111869481Y-112869282D01*
X111869475Y-112869290D01*
X111790426Y-113006209D01*
X111790423Y-113006216D01*
X111749500Y-113158943D01*
X111749500Y-113317057D01*
X111782921Y-113441784D01*
X111790423Y-113469783D01*
X111790426Y-113469790D01*
X111869475Y-113606709D01*
X111869479Y-113606714D01*
X111869480Y-113606716D01*
X111981284Y-113718520D01*
X111981286Y-113718521D01*
X111981290Y-113718524D01*
X112069711Y-113769573D01*
X112118216Y-113797577D01*
X112270943Y-113838500D01*
X112270945Y-113838500D01*
X112429055Y-113838500D01*
X112429057Y-113838500D01*
X112581784Y-113797577D01*
X112718716Y-113718520D01*
X112830520Y-113606716D01*
X112909577Y-113469784D01*
X112950500Y-113317057D01*
X112950500Y-113158943D01*
X112909577Y-113006216D01*
X112830655Y-112869517D01*
X112830524Y-112869290D01*
X112830518Y-112869282D01*
X112811819Y-112850583D01*
X112778334Y-112789260D01*
X112775500Y-112762902D01*
X112775500Y-104779098D01*
X112795185Y-104712059D01*
X112811819Y-104691417D01*
X112813539Y-104689697D01*
X112830520Y-104672716D01*
X112909577Y-104535784D01*
X112950500Y-104383057D01*
X112950500Y-104224943D01*
X112909577Y-104072216D01*
X112909573Y-104072209D01*
X112830524Y-103935290D01*
X112830518Y-103935282D01*
X112718717Y-103823481D01*
X112718716Y-103823480D01*
X112625063Y-103769410D01*
X112581786Y-103744424D01*
X112581785Y-103744423D01*
X112581784Y-103744423D01*
X112429057Y-103703500D01*
X112270943Y-103703500D01*
X112118216Y-103744423D01*
X112118209Y-103744426D01*
X111981290Y-103823475D01*
X111981282Y-103823481D01*
X111869481Y-103935282D01*
X111869475Y-103935290D01*
X111790426Y-104072209D01*
X111790423Y-104072216D01*
X111749500Y-104224943D01*
X105148566Y-104224943D01*
X105208606Y-104079993D01*
X105269693Y-103852014D01*
X105300500Y-103618011D01*
X105300500Y-103381989D01*
X105269693Y-103147986D01*
X105208606Y-102920007D01*
X105118284Y-102701951D01*
X105000273Y-102497550D01*
X104941001Y-102420306D01*
X104856593Y-102310302D01*
X104856587Y-102310295D01*
X104689704Y-102143412D01*
X104689697Y-102143406D01*
X104502454Y-101999730D01*
X104502453Y-101999729D01*
X104502450Y-101999727D01*
X104420957Y-101952677D01*
X104298056Y-101881719D01*
X104298045Y-101881714D01*
X104079993Y-101791394D01*
X103923531Y-101749470D01*
X103852014Y-101730307D01*
X103852013Y-101730306D01*
X103852010Y-101730306D01*
X103618020Y-101699501D01*
X103618017Y-101699500D01*
X103618011Y-101699500D01*
X103381989Y-101699500D01*
X103381983Y-101699500D01*
X103381979Y-101699501D01*
X103147989Y-101730306D01*
X102920006Y-101791394D01*
X102701954Y-101881714D01*
X102701943Y-101881719D01*
X102497545Y-101999730D01*
X102310302Y-102143406D01*
X102310295Y-102143412D01*
X102143412Y-102310295D01*
X102143406Y-102310302D01*
X101999730Y-102497545D01*
X101881719Y-102701943D01*
X101881714Y-102701954D01*
X101791394Y-102920006D01*
X101730306Y-103147989D01*
X101699501Y-103381979D01*
X101699500Y-103381995D01*
X100300500Y-103381995D01*
X100300500Y-102004427D01*
X100300816Y-101995581D01*
X100303329Y-101960438D01*
X100317165Y-101766973D01*
X100319683Y-101749470D01*
X100367457Y-101529852D01*
X100372434Y-101512901D01*
X100450986Y-101302295D01*
X100458325Y-101286226D01*
X100566043Y-101088955D01*
X100575599Y-101074086D01*
X100710293Y-100894156D01*
X100721867Y-100880799D01*
X100880799Y-100721867D01*
X100894156Y-100710293D01*
X101074086Y-100575599D01*
X101088955Y-100566043D01*
X101286226Y-100458325D01*
X101302295Y-100450986D01*
X101512901Y-100372434D01*
X101529852Y-100367457D01*
X101749476Y-100319681D01*
X101766973Y-100317165D01*
X101995582Y-100300816D01*
X102004428Y-100300500D01*
X102047594Y-100300500D01*
X169952405Y-100300500D01*
X169995572Y-100300500D01*
X170004418Y-100300816D01*
G37*
%TD.AperFunction*%
%TD*%
M02*
