M48
; DRILL file {KiCad 9.0.9} date 2026-10-05T22:50:22+0000
; FORMAT={-:-/ absolute / metric / decimal}
; #@! TF.CreationDate,2026-10-05T22:50:22+00:00
; #@! TF.GenerationSoftware,Kicad,Pcbnew,9.0.9
; #@! TF.FileFunction,Plated,1,2,PTH
FMAT,2
METRIC
; #@! TA.AperFunction,Plated,PTH,ViaDrill
T1C0.300
; #@! TA.AperFunction,Plated,PTH,ComponentDrill
T2C1.000
; #@! TA.AperFunction,Plated,PTH,ComponentDrill
T3C1.300
%
G90
G05
T1
X100.751Y-102.251
X102.0Y-107.0
X102.0Y-112.0
X102.0Y-122.0
X102.0Y-127.0
X102.0Y-132.0
X102.0Y-137.0
X102.0Y-142.0
X102.0Y-147.0
X102.0Y-152.0
X103.6Y-140.547
X105.0Y-135.402
X106.427Y-127.5
X106.471Y-129.744
X106.874Y-126.5
X107.0Y-107.0
X107.0Y-112.0
X107.0Y-122.0
X107.0Y-137.0
X107.0Y-142.0
X107.0Y-147.0
X107.0Y-152.0
X108.822Y-132.944
X108.822Y-139.832
X111.131Y-136.874
X111.431Y-117.256
X112.0Y-122.0
X112.0Y-142.0
X112.0Y-147.0
X112.0Y-152.0
X112.098Y-128.019
X112.125Y-125.395
X112.35Y-104.304
X112.35Y-112.583
X112.936Y-101.001
X114.568Y-121.242
X114.928Y-119.175
X115.22Y-101.725
X116.0Y-141.352
X117.0Y-117.0
X117.0Y-122.0
X117.0Y-132.0
X117.0Y-152.0
X120.434Y-113.022
X121.08Y-141.356
X122.0Y-102.0
X122.0Y-122.0
X122.0Y-132.0
X122.0Y-152.0
X122.384Y-117.625
X122.462Y-120.237
X122.609Y-113.09
X123.442Y-119.01
X126.16Y-141.46
X127.0Y-102.0
X127.0Y-112.0
X127.0Y-122.0
X127.0Y-152.0
X127.955Y-113.21
X128.116Y-114.251
X131.249Y-118.342
X131.249Y-127.148
X132.0Y-112.0
X132.0Y-132.0
X132.0Y-152.0
X132.027Y-117.625
X132.814Y-122.531
X133.0Y-141.372
X133.336Y-117.514
X137.0Y-107.0
X137.0Y-112.0
X137.0Y-142.0
X137.0Y-147.0
X137.0Y-152.0
X137.366Y-121.076
X137.685Y-120.044
X138.08Y-141.384
X142.0Y-107.0
X142.0Y-112.0
X142.0Y-142.0
X142.0Y-147.0
X142.0Y-152.0
X142.59Y-125.69
X142.59Y-127.857
X142.861Y-118.564
X142.864Y-119.834
X142.899Y-117.294
X143.001Y-116.024
X143.16Y-141.379
X143.169Y-121.294
X145.162Y-125.683
X145.977Y-123.175
X147.0Y-107.0
X147.0Y-112.0
X147.0Y-117.0
X147.0Y-122.0
X147.0Y-142.0
X147.0Y-147.0
X147.0Y-152.0
X147.552Y-124.445
X150.0Y-141.329
X150.988Y-136.874
X151.164Y-133.422
X152.0Y-102.0
X152.0Y-107.0
X152.0Y-112.0
X152.0Y-117.0
X152.0Y-122.0
X152.0Y-152.0
X156.936Y-101.001
X157.0Y-112.0
X157.0Y-117.0
X157.0Y-122.0
X157.0Y-132.0
X157.0Y-137.0
X157.0Y-142.0
X157.0Y-147.0
X157.0Y-152.0
X158.851Y-115.282
X158.88Y-101.725
X162.0Y-107.0
X162.0Y-112.0
X162.0Y-117.0
X162.0Y-122.0
X162.0Y-132.0
X162.0Y-137.0
X162.0Y-142.0
X162.0Y-147.0
X162.0Y-152.0
X162.738Y-128.0
X167.0Y-107.0
X167.0Y-112.0
X167.0Y-117.0
X167.0Y-122.0
X167.0Y-127.0
X167.0Y-132.0
X167.0Y-142.0
X167.0Y-147.0
X167.0Y-152.0
T2
X130.0Y-103.5
X132.54Y-103.5
X135.08Y-103.5
X137.62Y-103.5
T3
X103.6Y-149.8
X108.68Y-149.8
X116.0Y-149.8
X121.08Y-149.8
X126.16Y-149.8
X133.0Y-149.8
X138.08Y-149.8
X143.16Y-149.8
X150.0Y-149.8
X155.08Y-149.8
X160.16Y-149.8
M30
