%TF.GenerationSoftware,KiCad,Pcbnew,9.0.9*%
%TF.CreationDate,2026-10-06T22:21:03+00:00*%
%TF.ProjectId,AP_Output,41505f4f-7574-4707-9574-2e6b69636164,rev?*%
%TF.SameCoordinates,Original*%
%TF.FileFunction,Soldermask,Top*%
%TF.FilePolarity,Negative*%
%FSLAX46Y46*%
G04 Gerber Fmt 4.6, Leading zero omitted, Abs format (unit mm)*
G04 Created by KiCad (PCBNEW 9.0.9) date 2026-10-06 22:21:03*
%MOMM*%
%LPD*%
G01*
G04 APERTURE LIST*
G04 Aperture macros list*
%AMRoundRect*
0 Rectangle with rounded corners*
0 $1 Rounding radius*
0 $2 $3 $4 $5 $6 $7 $8 $9 X,Y pos of 4 corners*
0 Add a 4 corners polygon primitive as box body*
4,1,4,$2,$3,$4,$5,$6,$7,$8,$9,$2,$3,0*
0 Add four circle primitives for the rounded corners*
1,1,$1+$1,$2,$3*
1,1,$1+$1,$4,$5*
1,1,$1+$1,$6,$7*
1,1,$1+$1,$8,$9*
0 Add four rect primitives between the rounded corners*
20,1,$1+$1,$2,$3,$4,$5,0*
20,1,$1+$1,$4,$5,$6,$7,0*
20,1,$1+$1,$6,$7,$8,$9,0*
20,1,$1+$1,$8,$9,$2,$3,0*%
%AMFreePoly0*
4,1,23,0.500000,-0.750000,0.000000,-0.750000,0.000000,-0.745722,-0.065263,-0.745722,-0.191342,-0.711940,-0.304381,-0.646677,-0.396677,-0.554381,-0.461940,-0.441342,-0.495722,-0.315263,-0.495722,-0.250000,-0.500000,-0.250000,-0.500000,0.250000,-0.495722,0.250000,-0.495722,0.315263,-0.461940,0.441342,-0.396677,0.554381,-0.304381,0.646677,-0.191342,0.711940,-0.065263,0.745722,0.000000,0.745722,
0.000000,0.750000,0.500000,0.750000,0.500000,-0.750000,0.500000,-0.750000,$1*%
%AMFreePoly1*
4,1,23,0.000000,0.745722,0.065263,0.745722,0.191342,0.711940,0.304381,0.646677,0.396677,0.554381,0.461940,0.441342,0.495722,0.315263,0.495722,0.250000,0.500000,0.250000,0.500000,-0.250000,0.495722,-0.250000,0.495722,-0.315263,0.461940,-0.441342,0.396677,-0.554381,0.304381,-0.646677,0.191342,-0.711940,0.065263,-0.745722,0.000000,-0.745722,0.000000,-0.750000,-0.500000,-0.750000,
-0.500000,0.750000,0.000000,0.750000,0.000000,0.745722,0.000000,0.745722,$1*%
G04 Aperture macros list end*
%ADD10RoundRect,0.250000X-0.600000X-0.750000X0.600000X-0.750000X0.600000X0.750000X-0.600000X0.750000X0*%
%ADD11O,1.700000X2.000000*%
%ADD12RoundRect,0.250000X0.625000X-0.375000X0.625000X0.375000X-0.625000X0.375000X-0.625000X-0.375000X0*%
%ADD13RoundRect,0.200000X-0.200000X-0.275000X0.200000X-0.275000X0.200000X0.275000X-0.200000X0.275000X0*%
%ADD14RoundRect,0.200000X0.275000X-0.200000X0.275000X0.200000X-0.275000X0.200000X-0.275000X-0.200000X0*%
%ADD15RoundRect,0.225000X-0.225000X-0.250000X0.225000X-0.250000X0.225000X0.250000X-0.225000X0.250000X0*%
%ADD16C,3.200000*%
%ADD17C,1.500000*%
%ADD18FreePoly0,0.000000*%
%ADD19FreePoly1,0.000000*%
%ADD20RoundRect,0.250000X0.650000X-1.000000X0.650000X1.000000X-0.650000X1.000000X-0.650000X-1.000000X0*%
%ADD21RoundRect,0.218750X-0.218750X-0.256250X0.218750X-0.256250X0.218750X0.256250X-0.218750X0.256250X0*%
%ADD22RoundRect,0.150000X0.150000X0.625000X-0.150000X0.625000X-0.150000X-0.625000X0.150000X-0.625000X0*%
%ADD23RoundRect,0.250000X0.350000X0.650000X-0.350000X0.650000X-0.350000X-0.650000X0.350000X-0.650000X0*%
%ADD24RoundRect,0.250000X0.900000X-1.000000X0.900000X1.000000X-0.900000X1.000000X-0.900000X-1.000000X0*%
%ADD25RoundRect,0.218750X0.256250X-0.218750X0.256250X0.218750X-0.256250X0.218750X-0.256250X-0.218750X0*%
%ADD26RoundRect,0.100000X-0.637500X-0.100000X0.637500X-0.100000X0.637500X0.100000X-0.637500X0.100000X0*%
%ADD27RoundRect,0.250001X-1.099999X-1.099999X1.099999X-1.099999X1.099999X1.099999X-1.099999X1.099999X0*%
%ADD28C,2.700000*%
%ADD29RoundRect,0.150000X-0.825000X-0.150000X0.825000X-0.150000X0.825000X0.150000X-0.825000X0.150000X0*%
%ADD30RoundRect,0.250000X0.650000X-0.325000X0.650000X0.325000X-0.650000X0.325000X-0.650000X-0.325000X0*%
%ADD31R,1.700000X1.700000*%
%ADD32C,1.700000*%
G04 APERTURE END LIST*
%TO.C,JP2*%
G36*
X112850000Y-113750000D02*
G01*
X113150000Y-113750000D01*
X113150000Y-115250000D01*
X112850000Y-115250000D01*
X112850000Y-113750000D01*
G37*
%TO.C,JP1*%
G36*
X112850000Y-110250000D02*
G01*
X113150000Y-110250000D01*
X113150000Y-111750000D01*
X112850000Y-111750000D01*
X112850000Y-110250000D01*
G37*
%TD*%
D10*
%TO.C,J10*%
X155500000Y-151000000D03*
D11*
X158000000Y-151000000D03*
%TD*%
D12*
%TO.C,F1*%
X105000000Y-139400000D03*
X105000000Y-136600000D03*
%TD*%
D13*
%TO.C,R8*%
X159175000Y-114000000D03*
X160825000Y-114000000D03*
%TD*%
D14*
%TO.C,RL4*%
X139550000Y-136425000D03*
X139550000Y-134775000D03*
%TD*%
D15*
%TO.C,C1*%
X123225000Y-121000000D03*
X124775000Y-121000000D03*
%TD*%
D13*
%TO.C,RA1*%
X112175000Y-118000000D03*
X113825000Y-118000000D03*
%TD*%
D16*
%TO.C,H2*%
X168500000Y-103500000D03*
%TD*%
D17*
%TO.C,TP2*%
X164000000Y-128000000D03*
%TD*%
D18*
%TO.C,JP2*%
X112350000Y-114500000D03*
D19*
X113650000Y-114500000D03*
%TD*%
D20*
%TO.C,D1*%
X105000000Y-131500000D03*
X105000000Y-127500000D03*
%TD*%
D21*
%TO.C,D10*%
X159212500Y-117000000D03*
X160787500Y-117000000D03*
%TD*%
D10*
%TO.C,J6*%
X121100000Y-151000000D03*
D11*
X123600000Y-151000000D03*
%TD*%
D14*
%TO.C,RL6*%
X156750000Y-136425000D03*
X156750000Y-134775000D03*
%TD*%
D22*
%TO.C,J2*%
X159500000Y-105600000D03*
X158500000Y-105600000D03*
X157500000Y-105600000D03*
X156500000Y-105600000D03*
D23*
X160800000Y-101725000D03*
X155200000Y-101725000D03*
%TD*%
D24*
%TO.C,D2*%
X110000000Y-131150000D03*
X110000000Y-126850000D03*
%TD*%
D25*
%TO.C,DL2*%
X122350000Y-140387500D03*
X122350000Y-138812500D03*
%TD*%
D26*
%TO.C,U1*%
X121137500Y-113725000D03*
X121137500Y-114375000D03*
X121137500Y-115025000D03*
X121137500Y-115675000D03*
X121137500Y-116325000D03*
X121137500Y-116975000D03*
X121137500Y-117625000D03*
X121137500Y-118275000D03*
X126862500Y-118275000D03*
X126862500Y-117625000D03*
X126862500Y-116975000D03*
X126862500Y-116325000D03*
X126862500Y-115675000D03*
X126862500Y-115025000D03*
X126862500Y-114375000D03*
X126862500Y-113725000D03*
%TD*%
D10*
%TO.C,J11*%
X164100000Y-151000000D03*
D11*
X166600000Y-151000000D03*
%TD*%
D14*
%TO.C,RL5*%
X148150000Y-136425000D03*
X148150000Y-134775000D03*
%TD*%
D17*
%TO.C,TP1*%
X164000000Y-124000000D03*
%TD*%
D18*
%TO.C,JP1*%
X112350000Y-111000000D03*
D19*
X113650000Y-111000000D03*
%TD*%
D25*
%TO.C,DL7*%
X163100000Y-140387500D03*
X163100000Y-138812500D03*
%TD*%
%TO.C,DL3*%
X130950000Y-140387500D03*
X130950000Y-138812500D03*
%TD*%
D14*
%TO.C,RL2*%
X122350000Y-136425000D03*
X122350000Y-134775000D03*
%TD*%
D10*
%TO.C,J8*%
X138300000Y-151000000D03*
D11*
X140800000Y-151000000D03*
%TD*%
D10*
%TO.C,J5*%
X112500000Y-151000000D03*
D11*
X115000000Y-151000000D03*
%TD*%
D14*
%TO.C,RL1*%
X113750000Y-136425000D03*
X113750000Y-134775000D03*
%TD*%
D22*
%TO.C,J1*%
X115500000Y-105600000D03*
X114500000Y-105600000D03*
X113500000Y-105600000D03*
X112500000Y-105600000D03*
D23*
X116800000Y-101725000D03*
X111200000Y-101725000D03*
%TD*%
D25*
%TO.C,DL1*%
X113750000Y-140387500D03*
X113750000Y-138812500D03*
%TD*%
D14*
%TO.C,RL7*%
X163100000Y-136425000D03*
X163100000Y-134775000D03*
%TD*%
D13*
%TO.C,RA2*%
X112175000Y-120500000D03*
X113825000Y-120500000D03*
%TD*%
D25*
%TO.C,DL5*%
X148150000Y-140387500D03*
X148150000Y-138812500D03*
%TD*%
D27*
%TO.C,J4*%
X103000000Y-150400000D03*
D28*
X106960000Y-150400000D03*
%TD*%
D10*
%TO.C,J9*%
X146900000Y-151000000D03*
D11*
X149400000Y-151000000D03*
%TD*%
D16*
%TO.C,H1*%
X103500000Y-103500000D03*
%TD*%
D14*
%TO.C,RL3*%
X130950000Y-136425000D03*
X130950000Y-134775000D03*
%TD*%
D29*
%TO.C,U2*%
X139525000Y-115555000D03*
X139525000Y-116825000D03*
X139525000Y-118095000D03*
X139525000Y-119365000D03*
X139525000Y-120635000D03*
X139525000Y-121905000D03*
X139525000Y-123175000D03*
X139525000Y-124445000D03*
X144475000Y-124445000D03*
X144475000Y-123175000D03*
X144475000Y-121905000D03*
X144475000Y-120635000D03*
X144475000Y-119365000D03*
X144475000Y-118095000D03*
X144475000Y-116825000D03*
X144475000Y-115555000D03*
%TD*%
D30*
%TO.C,C2*%
X110000000Y-138875000D03*
X110000000Y-135925000D03*
%TD*%
D25*
%TO.C,DL6*%
X156750000Y-140387500D03*
X156750000Y-138812500D03*
%TD*%
D31*
%TO.C,J3*%
X130000000Y-103500000D03*
D32*
X132540000Y-103500000D03*
X135080000Y-103500000D03*
X137620000Y-103500000D03*
%TD*%
D16*
%TO.C,H3*%
X168500000Y-138500000D03*
%TD*%
D25*
%TO.C,DL4*%
X139550000Y-140387500D03*
X139550000Y-138812500D03*
%TD*%
D10*
%TO.C,J7*%
X129700000Y-151000000D03*
D11*
X132200000Y-151000000D03*
%TD*%
M02*
