M48
; DRILL file {KiCad 9.0.9} date 2026-10-06T22:21:03+0000
; FORMAT={-:-/ absolute / metric / decimal}
; #@! TF.CreationDate,2026-10-06T22:21:03+00:00
; #@! TF.GenerationSoftware,Kicad,Pcbnew,9.0.9
; #@! TF.FileFunction,Plated,1,2,PTH
FMAT,2
METRIC
; #@! TA.AperFunction,Plated,PTH,ViaDrill
T1C0.300
; #@! TA.AperFunction,Plated,PTH,ComponentDrill
T2C1.000
; #@! TA.AperFunction,Plated,PTH,ComponentDrill
T3C1.700
%
G90
G05
T1
X100.751Y-102.251
X102.0Y-107.0
X102.0Y-112.0
X102.0Y-117.0
X102.0Y-122.0
X102.0Y-127.0
X102.0Y-132.0
X102.0Y-137.0
X102.0Y-142.0
X102.0Y-147.0
X105.0Y-135.402
X105.0Y-140.547
X106.427Y-127.5
X106.471Y-129.744
X106.874Y-126.5
X107.0Y-107.0
X107.0Y-112.0
X107.0Y-117.0
X107.0Y-122.0
X107.0Y-137.0
X107.0Y-142.0
X107.0Y-147.0
X108.968Y-136.957
X112.0Y-122.0
X112.0Y-132.0
X112.088Y-136.261
X112.313Y-137.381
X112.35Y-104.304
X112.35Y-113.238
X112.936Y-101.001
X112.992Y-139.571
X113.75Y-141.355
X114.568Y-121.242
X114.747Y-134.775
X114.928Y-119.175
X115.22Y-101.725
X117.0Y-117.0
X117.0Y-122.0
X117.0Y-132.0
X117.0Y-142.0
X117.0Y-147.0
X119.875Y-116.325
X122.0Y-102.0
X122.0Y-112.0
X122.0Y-122.0
X122.0Y-147.0
X122.35Y-141.395
X122.462Y-120.237
X125.232Y-117.625
X125.615Y-115.798
X125.616Y-116.851
X127.0Y-102.0
X127.0Y-142.0
X127.0Y-147.0
X127.955Y-113.21
X129.182Y-119.434
X129.391Y-115.131
X130.61Y-116.201
X131.626Y-141.303
X131.658Y-117.758
X131.658Y-121.538
X131.686Y-137.161
X132.324Y-118.739
X135.08Y-114.251
X135.401Y-116.977
X135.401Y-122.438
X137.0Y-132.0
X137.0Y-142.0
X137.0Y-147.0
X137.11Y-117.469
X140.368Y-137.725
X142.0Y-102.0
X142.0Y-147.0
X142.36Y-141.415
X143.001Y-116.024
X143.006Y-117.294
X143.011Y-118.564
X143.167Y-119.979
X143.173Y-121.235
X143.173Y-141.337
X145.96Y-123.175
X147.0Y-102.0
X147.0Y-117.0
X147.0Y-147.0
X147.153Y-134.775
X147.153Y-138.048
X152.0Y-102.0
X152.0Y-117.0
X152.0Y-132.0
X152.0Y-142.0
X152.0Y-147.0
X156.657Y-122.084
X156.657Y-141.35
X156.936Y-101.001
X157.0Y-117.0
X157.0Y-147.0
X157.827Y-141.242
X157.946Y-114.335
X158.85Y-115.282
X158.88Y-101.725
X162.0Y-107.0
X162.0Y-112.0
X162.0Y-117.0
X162.0Y-122.0
X162.0Y-132.0
X162.0Y-147.0
X162.108Y-136.874
X162.738Y-128.0
X164.912Y-124.912
X167.0Y-107.0
X167.0Y-112.0
X167.0Y-117.0
X167.0Y-122.0
X167.0Y-127.0
X167.0Y-132.0
X167.0Y-142.0
T2
X112.5Y-151.0
X115.0Y-151.0
X121.1Y-151.0
X123.6Y-151.0
X129.7Y-151.0
X130.0Y-103.5
X132.2Y-151.0
X132.54Y-103.5
X135.08Y-103.5
X137.62Y-103.5
X138.3Y-151.0
X140.8Y-151.0
X146.9Y-151.0
X149.4Y-151.0
X155.5Y-151.0
X158.0Y-151.0
X164.1Y-151.0
X166.6Y-151.0
T3
X103.0Y-150.4
X106.96Y-150.4
M30
