%TF.GenerationSoftware,KiCad,Pcbnew,9.0.9*%
%TF.CreationDate,2026-10-10T07:59:19+00:00*%
%TF.ProjectId,AP_AO4,41505f41-4f34-42e6-9b69-6361645f7063,rev?*%
%TF.SameCoordinates,Original*%
%TF.FileFunction,Copper,L2,Bot*%
%TF.FilePolarity,Positive*%
%FSLAX46Y46*%
G04 Gerber Fmt 4.6, Leading zero omitted, Abs format (unit mm)*
G04 Created by KiCad (PCBNEW 9.0.9) date 2026-10-10 07:59:19*
%MOMM*%
%LPD*%
G01*
G04 APERTURE LIST*
G04 Aperture macros list*
%AMRoundRect*
0 Rectangle with rounded corners*
0 $1 Rounding radius*
0 $2 $3 $4 $5 $6 $7 $8 $9 X,Y pos of 4 corners*
0 Add a 4 corners polygon primitive as box body*
4,1,4,$2,$3,$4,$5,$6,$7,$8,$9,$2,$3,0*
0 Add four circle primitives for the rounded corners*
1,1,$1+$1,$2,$3*
1,1,$1+$1,$4,$5*
1,1,$1+$1,$6,$7*
1,1,$1+$1,$8,$9*
0 Add four rect primitives between the rounded corners*
20,1,$1+$1,$2,$3,$4,$5,0*
20,1,$1+$1,$4,$5,$6,$7,0*
20,1,$1+$1,$6,$7,$8,$9,0*
20,1,$1+$1,$8,$9,$2,$3,0*%
G04 Aperture macros list end*
%TA.AperFunction,ComponentPad*%
%ADD10RoundRect,0.250001X-1.099999X-1.099999X1.099999X-1.099999X1.099999X1.099999X-1.099999X1.099999X0*%
%TD*%
%TA.AperFunction,ComponentPad*%
%ADD11C,2.700000*%
%TD*%
%TA.AperFunction,ComponentPad*%
%ADD12RoundRect,0.250000X-0.600000X-0.725000X0.600000X-0.725000X0.600000X0.725000X-0.600000X0.725000X0*%
%TD*%
%TA.AperFunction,ComponentPad*%
%ADD13O,1.700000X1.950000*%
%TD*%
%TA.AperFunction,ViaPad*%
%ADD14C,0.600000*%
%TD*%
%TA.AperFunction,Conductor*%
%ADD15C,0.250000*%
%TD*%
%TA.AperFunction,Conductor*%
%ADD16C,0.800000*%
%TD*%
%TA.AperFunction,Conductor*%
%ADD17C,0.500000*%
%TD*%
G04 APERTURE END LIST*
D10*
%TO.P,J3,1*%
%TO.N,/VIN_RAW*%
X103000000Y-150400000D03*
D11*
%TO.P,J3,2*%
%TO.N,/GND*%
X106960000Y-150400000D03*
%TD*%
D12*
%TO.P,J6,1*%
%TO.N,/V24*%
X150000000Y-151000000D03*
D13*
%TO.P,J6,2*%
%TO.N,/BOB3*%
X152500000Y-151000000D03*
%TO.P,J6,3*%
%TO.N,/AO3*%
X155000000Y-151000000D03*
%TO.P,J6,4*%
%TO.N,/GND*%
X157500000Y-151000000D03*
%TD*%
D12*
%TO.P,J4,1*%
%TO.N,/V24*%
X116000000Y-151000000D03*
D13*
%TO.P,J4,2*%
%TO.N,/BOB1*%
X118500000Y-151000000D03*
%TO.P,J4,3*%
%TO.N,/AO1*%
X121000000Y-151000000D03*
%TO.P,J4,4*%
%TO.N,/GND*%
X123500000Y-151000000D03*
%TD*%
D12*
%TO.P,J7,1*%
%TO.N,/V24*%
X167000000Y-151000000D03*
D13*
%TO.P,J7,2*%
%TO.N,/BOB4*%
X169500000Y-151000000D03*
%TO.P,J7,3*%
%TO.N,/AO4*%
X172000000Y-151000000D03*
%TO.P,J7,4*%
%TO.N,/GND*%
X174500000Y-151000000D03*
%TD*%
D12*
%TO.P,J5,1*%
%TO.N,/V24*%
X133000000Y-151000000D03*
D13*
%TO.P,J5,2*%
%TO.N,/BOB2*%
X135500000Y-151000000D03*
%TO.P,J5,3*%
%TO.N,/AO2*%
X138000000Y-151000000D03*
%TO.P,J5,4*%
%TO.N,/GND*%
X140500000Y-151000000D03*
%TD*%
D14*
%TO.N,/GND*%
X100750500Y-102250500D03*
X127000000Y-147000000D03*
X127000000Y-152000000D03*
X157426000Y-142847000D03*
X167000000Y-112000000D03*
X100750500Y-134684995D03*
X122000000Y-147000000D03*
X102000000Y-112000000D03*
X100750500Y-125000013D03*
X165331387Y-138789267D03*
X177000000Y-147000000D03*
X138150500Y-137250500D03*
X182000000Y-137000000D03*
X107000000Y-142000000D03*
X157000000Y-147000000D03*
X100750500Y-114175000D03*
X177000000Y-132000000D03*
X112000000Y-117000000D03*
X102000000Y-127000000D03*
X177000000Y-107000000D03*
X140150000Y-143000000D03*
X156936395Y-101000500D03*
X105500000Y-123582000D03*
X166548674Y-114596530D03*
X177000000Y-112000000D03*
X104877000Y-115950000D03*
X174870000Y-142835000D03*
X127492000Y-130100000D03*
X102000000Y-132000000D03*
X123916000Y-115152000D03*
X115350000Y-101725000D03*
X112000000Y-147000000D03*
X182000000Y-112000000D03*
X112936395Y-101000500D03*
X102000000Y-147000000D03*
X182000000Y-107000000D03*
X172000000Y-102000000D03*
X124363799Y-127348210D03*
X177000000Y-142000000D03*
X112000000Y-122000000D03*
X107000000Y-107000000D03*
X127000000Y-142000000D03*
X112000000Y-127000000D03*
X112000000Y-112000000D03*
X122000000Y-102000000D03*
X168619143Y-116437047D03*
X182000000Y-102000000D03*
X112000000Y-137000000D03*
X172000000Y-112000000D03*
X102000000Y-107000000D03*
X119116000Y-121407000D03*
X124274469Y-116238500D03*
X182000000Y-142000000D03*
X177000000Y-122000000D03*
X177000000Y-102000000D03*
X107000000Y-147000000D03*
X112000000Y-152000000D03*
X127000000Y-102000000D03*
X177000000Y-127000000D03*
X124587000Y-143137000D03*
X142000000Y-147000000D03*
X100750500Y-119341510D03*
X112000000Y-132000000D03*
X182000000Y-147000000D03*
X167000000Y-102000000D03*
%TO.N,/3V3*%
X129285000Y-109291000D03*
X129839000Y-106073000D03*
%TO.N,/SDA*%
X113500000Y-104306000D03*
X131770000Y-102879000D03*
%TO.N,/SCL*%
X112500000Y-104313000D03*
X133077000Y-105380000D03*
%TO.N,/AD0*%
X161153000Y-105097000D03*
X131775000Y-108593000D03*
%TO.N,/PW2*%
X135675000Y-108595000D03*
X114928000Y-122747000D03*
%TO.N,/PW4*%
X127126000Y-122727000D03*
X136975000Y-112761000D03*
%TO.N,/PC1*%
X157834000Y-129559000D03*
X142088000Y-111436000D03*
X167460000Y-124954000D03*
%TO.N,/PC2*%
X170196000Y-124978000D03*
X138275000Y-111119000D03*
X160440000Y-129565000D03*
%TO.N,/PC3*%
X139189000Y-108621000D03*
X172540000Y-120002000D03*
X167453000Y-131118000D03*
%TO.N,/PC4*%
X141391000Y-110962000D03*
X166817000Y-119797000D03*
X167266000Y-129413000D03*
%TO.N,/VIN_RAW*%
X105000000Y-145641000D03*
%TO.N,/VF*%
X103381000Y-141600000D03*
X103471000Y-133916000D03*
%TO.N,/V24*%
X160624000Y-141424000D03*
X181152000Y-113210000D03*
X107573000Y-119826000D03*
X145000000Y-125121000D03*
X132728000Y-119130000D03*
X123633000Y-139188000D03*
X143974000Y-138226000D03*
X163508000Y-136874000D03*
X129509000Y-137165000D03*
X107048000Y-128102000D03*
X174741000Y-139151000D03*
X121729000Y-128331000D03*
X180431000Y-136460000D03*
X121767000Y-118921000D03*
X106595000Y-137027000D03*
X139178000Y-114690000D03*
%TO.N,/V5*%
X133987000Y-107588000D03*
X141074000Y-109363000D03*
%TO.N,/OA1*%
X139158000Y-122651000D03*
X123374000Y-122183000D03*
%TO.N,/NI1*%
X123565000Y-113726000D03*
X120344000Y-116862000D03*
%TO.N,/N21*%
X114992000Y-115232000D03*
X134052000Y-112113000D03*
X143730000Y-121979000D03*
X120356000Y-115122000D03*
%TO.N,/N22*%
X119592000Y-132779000D03*
X120332000Y-124639000D03*
%TO.N,/NI2*%
X124652000Y-125742000D03*
X115262000Y-126505000D03*
X132479000Y-132261000D03*
X115725000Y-131450000D03*
%TO.N,/OA3*%
X149652000Y-119127000D03*
X130325000Y-117250000D03*
%TO.N,/NI3*%
X147540000Y-117038000D03*
X143708000Y-116044000D03*
X131321000Y-117003000D03*
%TO.N,/N23*%
X146270000Y-117022000D03*
X133865000Y-114760000D03*
X127989000Y-116987000D03*
X143002000Y-115096000D03*
%TO.N,/N24*%
X131872000Y-124676000D03*
X125474000Y-124746000D03*
X140028000Y-117664000D03*
%TO.N,/NI4*%
X130400000Y-126742000D03*
X135563000Y-125040000D03*
X140600000Y-120003000D03*
%TO.N,/OA4*%
X135904000Y-119557000D03*
X128993000Y-126588000D03*
%TO.N,/GK3*%
X151759000Y-139926000D03*
X173810000Y-120022000D03*
%TO.N,/GK4*%
X171449000Y-120460000D03*
X168827000Y-140023000D03*
%TO.N,/AO1*%
X120851000Y-120312000D03*
X118374000Y-143081000D03*
%TO.N,/AI1*%
X118733000Y-119792000D03*
X117136000Y-144239000D03*
%TO.N,/BOB1*%
X127092000Y-140101000D03*
%TO.N,/AO2*%
X121884000Y-126250000D03*
X138016000Y-145994000D03*
%TO.N,/AI2*%
X132615000Y-144240000D03*
X122627000Y-128780000D03*
X119429000Y-131050000D03*
X120802000Y-129677000D03*
%TO.N,/BOB2*%
X139590000Y-136002000D03*
X144646000Y-141541000D03*
%TO.N,/AO3*%
X142597000Y-144222000D03*
X135258000Y-117159000D03*
%TO.N,/AI3*%
X149947000Y-124961000D03*
X149628000Y-145747000D03*
%TO.N,/BOB3*%
X153000000Y-136358000D03*
%TO.N,/AO4*%
X138788000Y-126500000D03*
X171930000Y-145994000D03*
%TO.N,/AI4*%
X139590000Y-134370000D03*
X131812000Y-131050000D03*
X164322000Y-139121000D03*
X166628000Y-145747000D03*
X135560000Y-127302000D03*
%TO.N,/BOB4*%
X178038000Y-140103000D03*
%TD*%
D15*
%TO.N,/GND*%
X105500000Y-123582000D02*
X105500000Y-115950000D01*
X140500000Y-143350000D02*
X140500000Y-151000000D01*
X104877000Y-115950000D02*
X105500000Y-115950000D01*
X105500000Y-110394000D02*
X114169000Y-101725000D01*
X119116000Y-121407000D02*
X119116000Y-120473000D01*
X157426000Y-149624000D02*
X157500000Y-149698000D01*
X174870000Y-142835000D02*
X174500000Y-143205000D01*
X140150000Y-143000000D02*
X140500000Y-143350000D01*
X140150000Y-143000000D02*
X127492000Y-130342000D01*
X123500000Y-144225000D02*
X123500000Y-151000000D01*
X127492000Y-130342000D02*
X127492000Y-130100000D01*
X114169000Y-101725000D02*
X115350000Y-101725000D01*
X174500000Y-143205000D02*
X174500000Y-151000000D01*
X119116000Y-120473000D02*
X123916000Y-115673000D01*
X124587000Y-143137000D02*
X123500000Y-144225000D01*
X157426000Y-142847000D02*
X157426000Y-149624000D01*
X105500000Y-115950000D02*
X105500000Y-110394000D01*
X157500000Y-151000000D02*
X157500000Y-149698000D01*
X123916000Y-115673000D02*
X123916000Y-115152000D01*
%TO.N,/3V3*%
X129285000Y-106628000D02*
X129285000Y-109291000D01*
X129839000Y-106073000D02*
X129285000Y-106628000D01*
%TO.N,/SDA*%
X114928000Y-102879000D02*
X113500000Y-104306000D01*
X131770000Y-102879000D02*
X114928000Y-102879000D01*
%TO.N,/SCL*%
X112500000Y-104313000D02*
X113566000Y-105380000D01*
X113566000Y-105380000D02*
X133077000Y-105380000D01*
%TO.N,/AD0*%
X160999000Y-104943000D02*
X161153000Y-105097000D01*
X131775000Y-108593000D02*
X135424000Y-104943000D01*
X135424000Y-104943000D02*
X160999000Y-104943000D01*
%TO.N,/PW2*%
X135675000Y-108595000D02*
X134738000Y-109532000D01*
X120090000Y-117489000D02*
X114928000Y-122651000D01*
X129544000Y-109918000D02*
X128264000Y-109918000D01*
X129931000Y-109532000D02*
X129544000Y-109918000D01*
X114928000Y-122651000D02*
X114928000Y-122747000D01*
X128264000Y-109918000D02*
X120694000Y-117489000D01*
X134738000Y-109532000D02*
X129931000Y-109532000D01*
X120694000Y-117489000D02*
X120090000Y-117489000D01*
%TO.N,/PW4*%
X127126000Y-122727000D02*
X130913000Y-122727000D01*
X136975000Y-116664000D02*
X136975000Y-112761000D01*
X130913000Y-122727000D02*
X136975000Y-116664000D01*
%TO.N,/PC1*%
X142088000Y-111436000D02*
X143531000Y-111436000D01*
X165394000Y-128936000D02*
X158457000Y-128936000D01*
X167902000Y-125395000D02*
X167902000Y-129701000D01*
X143531000Y-111436000D02*
X158457000Y-126362000D01*
X167460000Y-124954000D02*
X167902000Y-125395000D01*
X158457000Y-126362000D02*
X158457000Y-128936000D01*
X166498000Y-130039000D02*
X165394000Y-128936000D01*
X167902000Y-129701000D02*
X167564000Y-130039000D01*
X158457000Y-128936000D02*
X157834000Y-129559000D01*
X167564000Y-130039000D02*
X166498000Y-130039000D01*
%TO.N,/PC2*%
X167847000Y-130626000D02*
X167712000Y-130491000D01*
X170196000Y-124978000D02*
X168608000Y-126566000D01*
X161366000Y-130491000D02*
X160440000Y-129565000D01*
X168608000Y-129968000D02*
X167950000Y-130626000D01*
X168608000Y-126566000D02*
X168608000Y-129968000D01*
X156485000Y-130208000D02*
X159798000Y-130208000D01*
X159798000Y-130208000D02*
X160440000Y-129565000D01*
X138275000Y-111119000D02*
X138275000Y-111998000D01*
X167712000Y-130491000D02*
X161366000Y-130491000D01*
X167950000Y-130626000D02*
X167847000Y-130626000D01*
X138275000Y-111998000D02*
X156485000Y-130208000D01*
%TO.N,/PC3*%
X170823000Y-120810000D02*
X170823000Y-128392000D01*
X171156000Y-119833000D02*
X170822000Y-120166000D01*
X140606000Y-110038000D02*
X139189000Y-108621000D01*
X168097000Y-131118000D02*
X167453000Y-131118000D01*
X170822000Y-120166000D02*
X160694000Y-110038000D01*
X170822000Y-120810000D02*
X170823000Y-120810000D01*
X170822000Y-120166000D02*
X170822000Y-120810000D01*
X172540000Y-120002000D02*
X172370000Y-119833000D01*
X160694000Y-110038000D02*
X140606000Y-110038000D01*
X172370000Y-119833000D02*
X171156000Y-119833000D01*
X170823000Y-128392000D02*
X168097000Y-131118000D01*
%TO.N,/PC4*%
X166817000Y-119797000D02*
X166817000Y-128964000D01*
X166817000Y-119797000D02*
X157795000Y-110775000D01*
X166817000Y-128964000D02*
X167266000Y-129413000D01*
X141578000Y-110775000D02*
X141391000Y-110962000D01*
X157795000Y-110775000D02*
X141578000Y-110775000D01*
D16*
%TO.N,/VIN_RAW*%
X103000000Y-147641000D02*
X103000000Y-150400000D01*
X105000000Y-145641000D02*
X103000000Y-147641000D01*
%TO.N,/VF*%
X103381000Y-141600000D02*
X103381000Y-134005000D01*
X103381000Y-134005000D02*
X103471000Y-133916000D01*
%TO.N,/V24*%
X167000000Y-151000000D02*
X160624000Y-144624000D01*
X146340000Y-140591000D02*
X143974000Y-138226000D01*
X181152000Y-135738000D02*
X180431000Y-136460000D01*
X163508000Y-138541000D02*
X163508000Y-136874000D01*
X129509000Y-147509000D02*
X129509000Y-137165000D01*
X174741000Y-139151000D02*
X167000000Y-146892000D01*
X160624000Y-144624000D02*
X160624000Y-141424000D01*
X139178000Y-114690000D02*
X141556000Y-117068000D01*
X146340000Y-147340000D02*
X146340000Y-140591000D01*
X123633000Y-139188000D02*
X123633000Y-137165000D01*
X141556000Y-120678000D02*
X141501000Y-120732000D01*
X181152000Y-113210000D02*
X181152000Y-135738000D01*
X133000000Y-151000000D02*
X129509000Y-147509000D01*
X123633000Y-131162000D02*
X121675000Y-129203000D01*
X144154000Y-125121000D02*
X145000000Y-125121000D01*
X123633000Y-137165000D02*
X123633000Y-131162000D01*
X141501000Y-122468000D02*
X144154000Y-125121000D01*
X121675000Y-128385000D02*
X121729000Y-128331000D01*
X107573000Y-127577000D02*
X107048000Y-128102000D01*
X160624000Y-141424000D02*
X163508000Y-138541000D01*
X120918000Y-125454000D02*
X120918000Y-127520000D01*
X121803000Y-119130000D02*
X121803000Y-118957000D01*
X129509000Y-137165000D02*
X123633000Y-137165000D01*
X107048000Y-136574000D02*
X106595000Y-137027000D01*
X180431000Y-136460000D02*
X177740000Y-139151000D01*
X120918000Y-127520000D02*
X121729000Y-128331000D01*
X116000000Y-151000000D02*
X116000000Y-146821000D01*
X121803000Y-124570000D02*
X120918000Y-125454000D01*
X121803000Y-118957000D02*
X121767000Y-118921000D01*
X116195000Y-146627000D02*
X106595000Y-137027000D01*
X177740000Y-139151000D02*
X174741000Y-139151000D01*
X141556000Y-117068000D02*
X141556000Y-120678000D01*
X121675000Y-129203000D02*
X121675000Y-128385000D01*
X167000000Y-146892000D02*
X167000000Y-151000000D01*
X150000000Y-151000000D02*
X146340000Y-147340000D01*
X107573000Y-119826000D02*
X107573000Y-127577000D01*
X143974000Y-138226000D02*
X143974000Y-126146000D01*
X141501000Y-120732000D02*
X141501000Y-122468000D01*
X132728000Y-119130000D02*
X121803000Y-119130000D01*
X116195000Y-146627000D02*
X123633000Y-139188000D01*
X143974000Y-126146000D02*
X145000000Y-125121000D01*
X107048000Y-128102000D02*
X107048000Y-136574000D01*
X116000000Y-146821000D02*
X116195000Y-146627000D01*
X121803000Y-119130000D02*
X121803000Y-124570000D01*
D15*
%TO.N,/V5*%
X139299000Y-107588000D02*
X141074000Y-109363000D01*
X133987000Y-107588000D02*
X139299000Y-107588000D01*
%TO.N,/OA1*%
X123374000Y-123533000D02*
X123374000Y-122183000D01*
X127560000Y-127719000D02*
X123374000Y-123533000D01*
X139158000Y-122651000D02*
X134089000Y-127719000D01*
X134089000Y-127719000D02*
X127560000Y-127719000D01*
%TO.N,/NI1*%
X120430000Y-116862000D02*
X123565000Y-113726000D01*
X120344000Y-116862000D02*
X120430000Y-116862000D01*
%TO.N,/N21*%
X134052000Y-112113000D02*
X137699000Y-112113000D01*
X120245000Y-115232000D02*
X120356000Y-115122000D01*
X137699000Y-112113000D02*
X143730000Y-118144000D01*
X114992000Y-115232000D02*
X120245000Y-115232000D01*
X143730000Y-118144000D02*
X143730000Y-121979000D01*
%TO.N,/N22*%
X118760000Y-131947000D02*
X119592000Y-132779000D01*
X120332000Y-124639000D02*
X118760000Y-126210000D01*
X118760000Y-126210000D02*
X118760000Y-131947000D01*
%TO.N,/NI2*%
X124944000Y-125742000D02*
X124652000Y-125742000D01*
X115262000Y-126505000D02*
X115262000Y-130987000D01*
X115262000Y-130987000D02*
X115725000Y-131450000D01*
X131463000Y-132261000D02*
X124944000Y-125742000D01*
X132479000Y-132261000D02*
X131463000Y-132261000D01*
%TO.N,/OA3*%
X134559000Y-109983000D02*
X139280000Y-109983000D01*
X149652000Y-118258000D02*
X149652000Y-119127000D01*
X143457000Y-112063000D02*
X149652000Y-118258000D01*
X139280000Y-109983000D02*
X141360000Y-112063000D01*
X141360000Y-112063000D02*
X143457000Y-112063000D01*
X130325000Y-117250000D02*
X130325000Y-114218000D01*
X130325000Y-114218000D02*
X134559000Y-109983000D01*
%TO.N,/NI3*%
X146853000Y-117725000D02*
X145389000Y-117725000D01*
X138527000Y-110435000D02*
X134802000Y-110435000D01*
X141119000Y-114164000D02*
X141119000Y-113027000D01*
X147540000Y-117038000D02*
X146853000Y-117725000D01*
X143708000Y-116044000D02*
X142998000Y-116044000D01*
X134802000Y-110435000D02*
X131321000Y-113916000D01*
X142998000Y-116044000D02*
X141119000Y-114164000D01*
X141119000Y-113027000D02*
X138527000Y-110435000D01*
X145389000Y-117725000D02*
X143708000Y-116044000D01*
X131321000Y-113916000D02*
X131321000Y-117003000D01*
%TO.N,/N23*%
X128894000Y-117892000D02*
X127989000Y-116987000D01*
X133865000Y-114760000D02*
X133865000Y-115424000D01*
X146270000Y-117022000D02*
X144344000Y-115096000D01*
X144344000Y-115096000D02*
X143002000Y-115096000D01*
X133865000Y-115424000D02*
X131397000Y-117892000D01*
X131397000Y-117892000D02*
X128894000Y-117892000D01*
%TO.N,/N24*%
X129662000Y-126821000D02*
X129268000Y-127214000D01*
X132944000Y-122517000D02*
X134767000Y-120694000D01*
X132944000Y-123603000D02*
X132944000Y-122517000D01*
X131872000Y-124676000D02*
X131516000Y-124676000D01*
X131872000Y-124676000D02*
X132944000Y-123603000D01*
X136999000Y-120694000D02*
X140028000Y-117664000D01*
X134767000Y-120694000D02*
X136999000Y-120694000D01*
X131516000Y-124676000D02*
X129662000Y-126529000D01*
X129268000Y-127214000D02*
X127942000Y-127214000D01*
X129662000Y-126529000D02*
X129662000Y-126821000D01*
X127942000Y-127214000D02*
X125474000Y-124746000D01*
%TO.N,/NI4*%
X131689000Y-125453000D02*
X135150000Y-125453000D01*
X135150000Y-125453000D02*
X140600000Y-120003000D01*
X130400000Y-126742000D02*
X131689000Y-125453000D01*
%TO.N,/OA4*%
X128993000Y-125829000D02*
X128993000Y-126588000D01*
X135904000Y-119557000D02*
X135265000Y-119557000D01*
X135265000Y-119557000D02*
X128993000Y-125829000D01*
%TO.N,/GK3*%
X173810000Y-135927000D02*
X169078000Y-140658000D01*
X152742000Y-135675000D02*
X151759000Y-136658000D01*
X169078000Y-140658000D02*
X168576000Y-140658000D01*
X163592000Y-135675000D02*
X152742000Y-135675000D01*
X151759000Y-136658000D02*
X151759000Y-139926000D01*
X173810000Y-120022000D02*
X173810000Y-135927000D01*
X168576000Y-140658000D02*
X163592000Y-135675000D01*
%TO.N,/GK4*%
X171381000Y-120528000D02*
X171381000Y-137469000D01*
X171381000Y-137469000D02*
X168827000Y-140023000D01*
X171449000Y-120460000D02*
X171381000Y-120528000D01*
%TO.N,/AO1*%
X118292000Y-123155000D02*
X118292000Y-132892000D01*
X120851000Y-120596000D02*
X118292000Y-123155000D01*
X118479000Y-133079000D02*
X118479000Y-142976000D01*
X120851000Y-120312000D02*
X120851000Y-120596000D01*
X118479000Y-142976000D02*
X118374000Y-143081000D01*
X118292000Y-132892000D02*
X118479000Y-133079000D01*
%TO.N,/AI1*%
X117136000Y-121389000D02*
X118733000Y-119792000D01*
X117136000Y-144239000D02*
X117136000Y-121389000D01*
D17*
%TO.N,/BOB1*%
X126547000Y-140101000D02*
X127092000Y-140101000D01*
X118500000Y-151000000D02*
X118500000Y-148148000D01*
X118500000Y-148148000D02*
X126547000Y-140101000D01*
D15*
%TO.N,/AO2*%
X121884000Y-126250000D02*
X121937000Y-126250000D01*
X138016000Y-145994000D02*
X138000000Y-146010000D01*
X121937000Y-126250000D02*
X138016000Y-142329000D01*
X138016000Y-142329000D02*
X138016000Y-145994000D01*
X138000000Y-146010000D02*
X138000000Y-151000000D01*
%TO.N,/AI2*%
X119429000Y-131050000D02*
X120802000Y-129677000D01*
X132615000Y-138768000D02*
X122627000Y-128780000D01*
X132615000Y-144240000D02*
X132615000Y-138768000D01*
D17*
%TO.N,/BOB2*%
X141065000Y-152471000D02*
X144646000Y-148889000D01*
X139590000Y-136002000D02*
X141650000Y-138061000D01*
X144646000Y-148889000D02*
X144646000Y-141541000D01*
X135500000Y-151000000D02*
X136971000Y-152471000D01*
X143062000Y-139474000D02*
X144646000Y-141058000D01*
X141650000Y-138064000D02*
X143060000Y-139474000D01*
X136971000Y-152471000D02*
X141065000Y-152471000D01*
X141650000Y-138061000D02*
X141650000Y-138064000D01*
X144646000Y-141058000D02*
X144646000Y-141541000D01*
X143060000Y-139474000D02*
X143062000Y-139474000D01*
D15*
%TO.N,/AO3*%
X122746000Y-124722000D02*
X124393000Y-126368000D01*
X135258000Y-117742000D02*
X131896000Y-121105000D01*
X124744000Y-126368000D02*
X142597000Y-144222000D01*
X131896000Y-121105000D02*
X123553000Y-121105000D01*
X122746000Y-121911000D02*
X122746000Y-124722000D01*
X123553000Y-121105000D02*
X122746000Y-121911000D01*
X124393000Y-126368000D02*
X124744000Y-126368000D01*
X135258000Y-117159000D02*
X135258000Y-117742000D01*
%TO.N,/AI3*%
X149628000Y-125280000D02*
X149947000Y-124961000D01*
X149628000Y-145747000D02*
X149628000Y-125280000D01*
D17*
%TO.N,/BOB3*%
X153000000Y-149073000D02*
X153000000Y-136358000D01*
X152500000Y-151000000D02*
X152500000Y-149573000D01*
X152500000Y-149573000D02*
X153000000Y-149073000D01*
D15*
%TO.N,/AO4*%
X168276000Y-151951000D02*
X167826000Y-152400000D01*
X171930000Y-149628000D02*
X171930000Y-145994000D01*
X149131000Y-152400000D02*
X145552000Y-148821000D01*
X145552000Y-141025000D02*
X141590000Y-137063000D01*
X172000000Y-149698000D02*
X171930000Y-149628000D01*
X141590000Y-137063000D02*
X141590000Y-129302000D01*
X145552000Y-148821000D02*
X145552000Y-141025000D01*
X168276000Y-150431000D02*
X168276000Y-151951000D01*
X141590000Y-129302000D02*
X138788000Y-126500000D01*
X167826000Y-152400000D02*
X149131000Y-152400000D01*
X171930000Y-149628000D02*
X169079000Y-149628000D01*
X172000000Y-151000000D02*
X172000000Y-149698000D01*
X169079000Y-149628000D02*
X168276000Y-150431000D01*
%TO.N,/AI4*%
X135560000Y-127302000D02*
X135239000Y-127623000D01*
X166628000Y-141427000D02*
X164322000Y-139121000D01*
X166628000Y-145747000D02*
X166628000Y-141427000D01*
X132843000Y-130019000D02*
X131812000Y-131050000D01*
X135239000Y-130019000D02*
X139590000Y-134370000D01*
X135239000Y-130019000D02*
X132843000Y-130019000D01*
X135239000Y-127623000D02*
X135239000Y-130019000D01*
D17*
%TO.N,/BOB4*%
X170939000Y-152439000D02*
X175057000Y-152439000D01*
X178038000Y-149458000D02*
X178038000Y-140103000D01*
X169500000Y-151000000D02*
X170939000Y-152439000D01*
X175057000Y-152439000D02*
X178038000Y-149458000D01*
%TD*%
%TA.AperFunction,Conductor*%
%TO.N,/GND*%
G36*
X163063024Y-136120185D02*
G01*
X163108779Y-136172989D01*
X163118723Y-136242147D01*
X163089698Y-136305703D01*
X163064874Y-136327603D01*
X163061459Y-136329884D01*
X163061454Y-136329888D01*
X162963888Y-136427454D01*
X162963885Y-136427458D01*
X162887228Y-136542182D01*
X162887221Y-136542195D01*
X162834421Y-136669667D01*
X162834418Y-136669677D01*
X162807500Y-136805004D01*
X162807500Y-138199397D01*
X162787815Y-138266436D01*
X162771166Y-138287093D01*
X160181678Y-140875682D01*
X160177503Y-140879855D01*
X160177458Y-140879886D01*
X160133007Y-140924335D01*
X160129892Y-140927450D01*
X160128984Y-140928358D01*
X160079923Y-140977402D01*
X160079918Y-140977408D01*
X160041153Y-141035424D01*
X160041144Y-141035436D01*
X160041143Y-141035440D01*
X160040966Y-141035703D01*
X160040609Y-141036238D01*
X160003283Y-141092081D01*
X160003259Y-141092136D01*
X160003225Y-141092189D01*
X160003041Y-141092632D01*
X160003041Y-141092633D01*
X159977063Y-141155347D01*
X159977057Y-141155361D01*
X159950455Y-141219555D01*
X159950454Y-141219557D01*
X159950451Y-141219566D01*
X159950424Y-141219651D01*
X159937289Y-141285680D01*
X159937286Y-141285694D01*
X159923511Y-141354891D01*
X159923500Y-141354996D01*
X159923500Y-141421524D01*
X159923487Y-141498849D01*
X159923500Y-141499112D01*
X159923500Y-144555006D01*
X159923500Y-144692994D01*
X159923500Y-144692996D01*
X159923499Y-144692996D01*
X159950418Y-144828322D01*
X159950421Y-144828332D01*
X160003222Y-144955807D01*
X160079887Y-145070545D01*
X160079888Y-145070546D01*
X165813181Y-150803838D01*
X165846666Y-150865161D01*
X165849500Y-150891519D01*
X165849500Y-151768102D01*
X165857619Y-151835717D01*
X165846068Y-151904624D01*
X165799096Y-151956348D01*
X165734504Y-151974500D01*
X158784648Y-151974500D01*
X158717609Y-151954815D01*
X158671854Y-151902011D01*
X158661910Y-151832853D01*
X158674163Y-151794205D01*
X158751095Y-151643217D01*
X158816757Y-151441130D01*
X158816757Y-151441127D01*
X158847030Y-151250000D01*
X157904146Y-151250000D01*
X157942630Y-151183343D01*
X157975000Y-151062535D01*
X157975000Y-150937465D01*
X157942630Y-150816657D01*
X157904146Y-150750000D01*
X158847030Y-150750000D01*
X158816757Y-150558872D01*
X158816757Y-150558869D01*
X158751095Y-150356782D01*
X158654620Y-150167442D01*
X158529727Y-149995540D01*
X158529723Y-149995535D01*
X158379464Y-149845276D01*
X158379459Y-149845272D01*
X158207557Y-149720379D01*
X158018215Y-149623903D01*
X157816124Y-149558241D01*
X157750000Y-149547768D01*
X157750000Y-150595854D01*
X157683343Y-150557370D01*
X157562535Y-150525000D01*
X157437465Y-150525000D01*
X157316657Y-150557370D01*
X157250000Y-150595854D01*
X157250000Y-149547768D01*
X157249999Y-149547768D01*
X157183875Y-149558241D01*
X156981784Y-149623903D01*
X156792442Y-149720379D01*
X156620540Y-149845272D01*
X156620535Y-149845276D01*
X156470276Y-149995535D01*
X156470272Y-149995540D01*
X156345379Y-150167442D01*
X156248533Y-150357511D01*
X156200558Y-150408307D01*
X156132737Y-150425102D01*
X156066602Y-150402564D01*
X156027563Y-150357511D01*
X156027192Y-150356782D01*
X155983996Y-150272006D01*
X155920477Y-150184579D01*
X155877558Y-150125505D01*
X155877554Y-150125500D01*
X155749499Y-149997445D01*
X155749494Y-149997441D01*
X155602997Y-149891006D01*
X155602996Y-149891005D01*
X155602994Y-149891004D01*
X155535712Y-149856722D01*
X155441639Y-149808788D01*
X155441636Y-149808787D01*
X155269410Y-149752829D01*
X155090551Y-149724500D01*
X155090546Y-149724500D01*
X154909454Y-149724500D01*
X154909449Y-149724500D01*
X154730589Y-149752829D01*
X154558363Y-149808787D01*
X154558360Y-149808788D01*
X154397002Y-149891006D01*
X154250505Y-149997441D01*
X154250500Y-149997445D01*
X154122445Y-150125500D01*
X154122441Y-150125505D01*
X154016006Y-150272002D01*
X153933788Y-150433360D01*
X153933787Y-150433363D01*
X153877829Y-150605589D01*
X153872473Y-150639406D01*
X153842543Y-150702540D01*
X153783232Y-150739471D01*
X153713369Y-150738473D01*
X153655137Y-150699863D01*
X153627527Y-150639406D01*
X153624438Y-150619905D01*
X153622171Y-150605591D01*
X153566211Y-150433361D01*
X153566211Y-150433360D01*
X153527192Y-150356782D01*
X153483996Y-150272006D01*
X153420477Y-150184579D01*
X153377558Y-150125505D01*
X153377554Y-150125500D01*
X153249499Y-149997445D01*
X153249494Y-149997441D01*
X153137932Y-149916387D01*
X153095266Y-149861058D01*
X153089287Y-149791444D01*
X153121892Y-149729649D01*
X153123062Y-149728462D01*
X153440510Y-149411015D01*
X153512984Y-149285485D01*
X153518126Y-149266294D01*
X153523695Y-149245514D01*
X153536971Y-149195964D01*
X153550500Y-149145475D01*
X153550500Y-136636362D01*
X153558167Y-136597822D01*
X153557473Y-136597636D01*
X153560018Y-136588139D01*
X153600500Y-136437057D01*
X153600500Y-136278943D01*
X153594511Y-136256591D01*
X153596174Y-136186743D01*
X153635337Y-136128881D01*
X153699565Y-136101377D01*
X153714286Y-136100500D01*
X162995985Y-136100500D01*
X163063024Y-136120185D01*
G37*
%TD.AperFunction*%
%TA.AperFunction,Conductor*%
G36*
X140686898Y-120606553D02*
G01*
X140694147Y-120605511D01*
X140713593Y-120614392D01*
X140743539Y-120623185D01*
X140750540Y-120631264D01*
X140757703Y-120634536D01*
X140770129Y-120653871D01*
X140789294Y-120675989D01*
X140791827Y-120687635D01*
X140795477Y-120693314D01*
X140800182Y-120726040D01*
X140800500Y-120727500D01*
X140800500Y-120728843D01*
X140799897Y-120794565D01*
X140800500Y-120797748D01*
X140800500Y-122399006D01*
X140800500Y-122536994D01*
X140800500Y-122536996D01*
X140800499Y-122536996D01*
X140827418Y-122672322D01*
X140827421Y-122672332D01*
X140880222Y-122799807D01*
X140956887Y-122914545D01*
X140956888Y-122914546D01*
X143498162Y-125455819D01*
X143502500Y-125463764D01*
X143509748Y-125469190D01*
X143518982Y-125493949D01*
X143531647Y-125517142D01*
X143531001Y-125526171D01*
X143534165Y-125534654D01*
X143528548Y-125560474D01*
X143526663Y-125586834D01*
X143520844Y-125595887D01*
X143519313Y-125602927D01*
X143498162Y-125631181D01*
X143479844Y-125649499D01*
X143430089Y-125699205D01*
X143429898Y-125699438D01*
X143391868Y-125756353D01*
X143391837Y-125756400D01*
X143353383Y-125813892D01*
X143353233Y-125814169D01*
X143353225Y-125814189D01*
X143326874Y-125877805D01*
X143300520Y-125941343D01*
X143300486Y-125941511D01*
X143300420Y-125941672D01*
X143300400Y-125941768D01*
X143300399Y-125941773D01*
X143287773Y-126005248D01*
X143286922Y-126009525D01*
X143273534Y-126076665D01*
X143273533Y-126076836D01*
X143273500Y-126077007D01*
X143273500Y-126146688D01*
X143273467Y-126214652D01*
X143273500Y-126214818D01*
X143273500Y-137845390D01*
X143253815Y-137912429D01*
X143201011Y-137958184D01*
X143131853Y-137968128D01*
X143068297Y-137939103D01*
X143061819Y-137933071D01*
X142051819Y-136923071D01*
X142018334Y-136861748D01*
X142015500Y-136835390D01*
X142015500Y-129245981D01*
X142009948Y-129225263D01*
X142009947Y-129225260D01*
X141986503Y-129137763D01*
X141951133Y-129076500D01*
X141930485Y-129040737D01*
X141851263Y-128961515D01*
X139424819Y-126535071D01*
X139391334Y-126473748D01*
X139388500Y-126447390D01*
X139388500Y-126420945D01*
X139388500Y-126420943D01*
X139347577Y-126268216D01*
X139319330Y-126219290D01*
X139268524Y-126131290D01*
X139268518Y-126131282D01*
X139156717Y-126019481D01*
X139156709Y-126019475D01*
X139019790Y-125940426D01*
X139019786Y-125940424D01*
X139019784Y-125940423D01*
X138867057Y-125899500D01*
X138708943Y-125899500D01*
X138556216Y-125940423D01*
X138556209Y-125940426D01*
X138419290Y-126019475D01*
X138419282Y-126019481D01*
X138307481Y-126131282D01*
X138307475Y-126131290D01*
X138228426Y-126268209D01*
X138228423Y-126268216D01*
X138187500Y-126420943D01*
X138187500Y-126579057D01*
X138228358Y-126731539D01*
X138228423Y-126731783D01*
X138228426Y-126731790D01*
X138307475Y-126868709D01*
X138307479Y-126868714D01*
X138307480Y-126868716D01*
X138419284Y-126980520D01*
X138419286Y-126980521D01*
X138419290Y-126980524D01*
X138556209Y-127059573D01*
X138556216Y-127059577D01*
X138708943Y-127100500D01*
X138735390Y-127100500D01*
X138802429Y-127120185D01*
X138823071Y-127136819D01*
X141128181Y-129441929D01*
X141161666Y-129503252D01*
X141164500Y-129529610D01*
X141164500Y-136498138D01*
X141144815Y-136565177D01*
X141092011Y-136610932D01*
X141022853Y-136620876D01*
X140959297Y-136591851D01*
X140952840Y-136585841D01*
X140296338Y-135929659D01*
X140176045Y-135809425D01*
X140154294Y-135776876D01*
X140153641Y-135777254D01*
X140070524Y-135633290D01*
X140070518Y-135633282D01*
X139958717Y-135521481D01*
X139958709Y-135521475D01*
X139821790Y-135442426D01*
X139821786Y-135442424D01*
X139821784Y-135442423D01*
X139669057Y-135401500D01*
X139510943Y-135401500D01*
X139358216Y-135442423D01*
X139358209Y-135442426D01*
X139221290Y-135521475D01*
X139221282Y-135521481D01*
X139109481Y-135633282D01*
X139109475Y-135633290D01*
X139030426Y-135770209D01*
X139030423Y-135770216D01*
X138989500Y-135922943D01*
X138989500Y-136081057D01*
X139029133Y-136228967D01*
X139030423Y-136233783D01*
X139030426Y-136233790D01*
X139109475Y-136370709D01*
X139109479Y-136370714D01*
X139109480Y-136370716D01*
X139221284Y-136482520D01*
X139221286Y-136482521D01*
X139221290Y-136482524D01*
X139365254Y-136565641D01*
X139364912Y-136566232D01*
X139397708Y-136588138D01*
X139950711Y-137140872D01*
X141193935Y-138383493D01*
X141204645Y-138395702D01*
X141209489Y-138402014D01*
X142721981Y-139914507D01*
X142724125Y-139916152D01*
X142736328Y-139926853D01*
X144042619Y-141233144D01*
X144076104Y-141294467D01*
X144074713Y-141352918D01*
X144070460Y-141368790D01*
X144045500Y-141461943D01*
X144045500Y-141620057D01*
X144058613Y-141668995D01*
X144088527Y-141780636D01*
X144087832Y-141780822D01*
X144095500Y-141819362D01*
X144095500Y-148609668D01*
X144075815Y-148676707D01*
X144059193Y-148697337D01*
X142041010Y-150716083D01*
X141979692Y-150749577D01*
X141910000Y-150744602D01*
X141854060Y-150702738D01*
X141830844Y-150647811D01*
X141816758Y-150558873D01*
X141816757Y-150558869D01*
X141751095Y-150356782D01*
X141654620Y-150167442D01*
X141529727Y-149995540D01*
X141529723Y-149995535D01*
X141379464Y-149845276D01*
X141379459Y-149845272D01*
X141207557Y-149720379D01*
X141018215Y-149623903D01*
X140816124Y-149558241D01*
X140750000Y-149547768D01*
X140750000Y-150595854D01*
X140683343Y-150557370D01*
X140562535Y-150525000D01*
X140437465Y-150525000D01*
X140316657Y-150557370D01*
X140250000Y-150595854D01*
X140250000Y-149547768D01*
X140249999Y-149547768D01*
X140183875Y-149558241D01*
X139981784Y-149623903D01*
X139792442Y-149720379D01*
X139620540Y-149845272D01*
X139620535Y-149845276D01*
X139470276Y-149995535D01*
X139470272Y-149995540D01*
X139345379Y-150167442D01*
X139248533Y-150357511D01*
X139200558Y-150408307D01*
X139132737Y-150425102D01*
X139066602Y-150402564D01*
X139027563Y-150357511D01*
X139027192Y-150356782D01*
X138983996Y-150272006D01*
X138920477Y-150184579D01*
X138877558Y-150125505D01*
X138877554Y-150125500D01*
X138749499Y-149997445D01*
X138749494Y-149997441D01*
X138602993Y-149891003D01*
X138602992Y-149891002D01*
X138493205Y-149835062D01*
X138442409Y-149787088D01*
X138425500Y-149724578D01*
X138425500Y-146485098D01*
X138445185Y-146418059D01*
X138461819Y-146397417D01*
X138477819Y-146381417D01*
X138496520Y-146362716D01*
X138575577Y-146225784D01*
X138616500Y-146073057D01*
X138616500Y-145914943D01*
X138575577Y-145762216D01*
X138545429Y-145709998D01*
X138496524Y-145625290D01*
X138496518Y-145625282D01*
X138477819Y-145606583D01*
X138444334Y-145545260D01*
X138441500Y-145518902D01*
X138441500Y-142272984D01*
X138441500Y-142272982D01*
X138412503Y-142164763D01*
X138356485Y-142067737D01*
X138277263Y-141988515D01*
X122517074Y-126228326D01*
X122484980Y-126172738D01*
X122484500Y-126170946D01*
X122484500Y-126170943D01*
X122443577Y-126018216D01*
X122436090Y-126005248D01*
X122364524Y-125881290D01*
X122364518Y-125881282D01*
X122252717Y-125769481D01*
X122252709Y-125769475D01*
X122115790Y-125690426D01*
X122115786Y-125690424D01*
X122115784Y-125690423D01*
X121973869Y-125652397D01*
X121914210Y-125616033D01*
X121883681Y-125553186D01*
X121891976Y-125483810D01*
X121918329Y-125444895D01*
X122249375Y-125114224D01*
X122249542Y-125114114D01*
X122298172Y-125065483D01*
X122298218Y-125065436D01*
X122305326Y-125058338D01*
X122366668Y-125024887D01*
X122436357Y-125029910D01*
X122480639Y-125058387D01*
X122490449Y-125068197D01*
X122490664Y-125068385D01*
X123087402Y-125664760D01*
X124091683Y-126668432D01*
X124091704Y-126668453D01*
X124092307Y-126669055D01*
X124131737Y-126708485D01*
X124131793Y-126708517D01*
X124131840Y-126708564D01*
X124134718Y-126710224D01*
X124134721Y-126710227D01*
X124157537Y-126723390D01*
X124179925Y-126736306D01*
X124179953Y-126736336D01*
X124179959Y-126736326D01*
X124228763Y-126764503D01*
X124228827Y-126764520D01*
X124228884Y-126764553D01*
X124283017Y-126779040D01*
X124336982Y-126793500D01*
X124336992Y-126793500D01*
X124337100Y-126793514D01*
X124337111Y-126793517D01*
X124393112Y-126793500D01*
X124393130Y-126793500D01*
X124516380Y-126793500D01*
X124583419Y-126813185D01*
X124604063Y-126829820D01*
X141960185Y-144186914D01*
X141993667Y-144248236D01*
X141996500Y-144274591D01*
X141996500Y-144301056D01*
X142037423Y-144453783D01*
X142037426Y-144453790D01*
X142116475Y-144590709D01*
X142116479Y-144590714D01*
X142116480Y-144590716D01*
X142228284Y-144702520D01*
X142228286Y-144702521D01*
X142228290Y-144702524D01*
X142365209Y-144781573D01*
X142365216Y-144781577D01*
X142517943Y-144822500D01*
X142517945Y-144822500D01*
X142676055Y-144822500D01*
X142676057Y-144822500D01*
X142828784Y-144781577D01*
X142965716Y-144702520D01*
X143077520Y-144590716D01*
X143156577Y-144453784D01*
X143197500Y-144301057D01*
X143197500Y-144142943D01*
X143156577Y-143990216D01*
X143087916Y-143871290D01*
X143077524Y-143853290D01*
X143077518Y-143853282D01*
X142965717Y-143741481D01*
X142965709Y-143741475D01*
X142828790Y-143662426D01*
X142828786Y-143662424D01*
X142828784Y-143662423D01*
X142676057Y-143621500D01*
X142676056Y-143621500D01*
X142649630Y-143621500D01*
X142582591Y-143601815D01*
X142561946Y-143585179D01*
X141479160Y-142502332D01*
X131875543Y-132898178D01*
X131864931Y-132878741D01*
X131850434Y-132862011D01*
X131848517Y-132848679D01*
X131842061Y-132836855D01*
X131843641Y-132814768D01*
X131840490Y-132792853D01*
X131846085Y-132780600D01*
X131847047Y-132767163D01*
X131860317Y-132749437D01*
X131869515Y-132729297D01*
X131880847Y-132722014D01*
X131888920Y-132711231D01*
X131909665Y-132703493D01*
X131928293Y-132691523D01*
X131950215Y-132688370D01*
X131954385Y-132686816D01*
X131963228Y-132686500D01*
X132003902Y-132686500D01*
X132070941Y-132706185D01*
X132091583Y-132722819D01*
X132110284Y-132741520D01*
X132110286Y-132741521D01*
X132110290Y-132741524D01*
X132154699Y-132767163D01*
X132247216Y-132820577D01*
X132399943Y-132861500D01*
X132399945Y-132861500D01*
X132558055Y-132861500D01*
X132558057Y-132861500D01*
X132710784Y-132820577D01*
X132847716Y-132741520D01*
X132959520Y-132629716D01*
X133038577Y-132492784D01*
X133079500Y-132340057D01*
X133079500Y-132181943D01*
X133038577Y-132029216D01*
X132981598Y-131930524D01*
X132959524Y-131892290D01*
X132959518Y-131892282D01*
X132847717Y-131780481D01*
X132847709Y-131780475D01*
X132710790Y-131701426D01*
X132710786Y-131701424D01*
X132710784Y-131701423D01*
X132558057Y-131660500D01*
X132399943Y-131660500D01*
X132399938Y-131660500D01*
X132369919Y-131668544D01*
X132300069Y-131666880D01*
X132242208Y-131627717D01*
X132214705Y-131563488D01*
X132226292Y-131494586D01*
X132250145Y-131461090D01*
X132292520Y-131418716D01*
X132371577Y-131281784D01*
X132412500Y-131129057D01*
X132412500Y-131102609D01*
X132432185Y-131035571D01*
X132448819Y-131014929D01*
X132982929Y-130480819D01*
X133044252Y-130447334D01*
X133070610Y-130444500D01*
X135011390Y-130444500D01*
X135078429Y-130464185D01*
X135099071Y-130480819D01*
X138953181Y-134334928D01*
X138986666Y-134396251D01*
X138989500Y-134422609D01*
X138989500Y-134449056D01*
X139030423Y-134601783D01*
X139030426Y-134601790D01*
X139109475Y-134738709D01*
X139109479Y-134738714D01*
X139109480Y-134738716D01*
X139221284Y-134850520D01*
X139221286Y-134850521D01*
X139221290Y-134850524D01*
X139358209Y-134929573D01*
X139358216Y-134929577D01*
X139510943Y-134970500D01*
X139510945Y-134970500D01*
X139669055Y-134970500D01*
X139669057Y-134970500D01*
X139821784Y-134929577D01*
X139958716Y-134850520D01*
X140070520Y-134738716D01*
X140149577Y-134601784D01*
X140190500Y-134449057D01*
X140190500Y-134290943D01*
X140149577Y-134138216D01*
X140141416Y-134124080D01*
X140070524Y-134001290D01*
X140070518Y-134001282D01*
X139958717Y-133889481D01*
X139958709Y-133889475D01*
X139821790Y-133810426D01*
X139821786Y-133810424D01*
X139821784Y-133810423D01*
X139669057Y-133769500D01*
X139669056Y-133769500D01*
X139642609Y-133769500D01*
X139575570Y-133749815D01*
X139554928Y-133733181D01*
X135700819Y-129879071D01*
X135667334Y-129817748D01*
X135664500Y-129791390D01*
X135664500Y-127990830D01*
X135684185Y-127923791D01*
X135736989Y-127878036D01*
X135756399Y-127871058D01*
X135791784Y-127861577D01*
X135791788Y-127861574D01*
X135791790Y-127861574D01*
X135928709Y-127782524D01*
X135928708Y-127782524D01*
X135928716Y-127782520D01*
X136040520Y-127670716D01*
X136119577Y-127533784D01*
X136160500Y-127381057D01*
X136160500Y-127222943D01*
X136119577Y-127070216D01*
X136067794Y-126980524D01*
X136040524Y-126933290D01*
X136040518Y-126933282D01*
X135928717Y-126821481D01*
X135928712Y-126821477D01*
X135853010Y-126777771D01*
X135804795Y-126727204D01*
X135791571Y-126658597D01*
X135817539Y-126593733D01*
X135827337Y-126582694D01*
X135874970Y-126535071D01*
X138335026Y-124075500D01*
X139122872Y-123287810D01*
X139184199Y-123254331D01*
X139210545Y-123251500D01*
X139237055Y-123251500D01*
X139237057Y-123251500D01*
X139389784Y-123210577D01*
X139526716Y-123131520D01*
X139638520Y-123019716D01*
X139717577Y-122882784D01*
X139758500Y-122730057D01*
X139758500Y-122571943D01*
X139717577Y-122419216D01*
X139682397Y-122358282D01*
X139638524Y-122282290D01*
X139638518Y-122282282D01*
X139526717Y-122170481D01*
X139526709Y-122170475D01*
X139389790Y-122091426D01*
X139389786Y-122091424D01*
X139389785Y-122091423D01*
X139389784Y-122091423D01*
X139379198Y-122088586D01*
X139319541Y-122052222D01*
X139289013Y-121989375D01*
X139297308Y-121919999D01*
X139323612Y-121881135D01*
X140564929Y-120639819D01*
X140591856Y-120625115D01*
X140617675Y-120608523D01*
X140623875Y-120607631D01*
X140626252Y-120606334D01*
X140652610Y-120603500D01*
X140676500Y-120603500D01*
X140686898Y-120606553D01*
G37*
%TD.AperFunction*%
%TA.AperFunction,Conductor*%
G36*
X177389145Y-139871185D02*
G01*
X177434900Y-139923989D01*
X177444844Y-139993147D01*
X177441881Y-140007592D01*
X177437500Y-140023941D01*
X177437500Y-140023943D01*
X177437500Y-140182057D01*
X177460506Y-140267916D01*
X177480527Y-140342636D01*
X177479832Y-140342822D01*
X177487500Y-140381362D01*
X177487500Y-149178613D01*
X177467815Y-149245652D01*
X177451181Y-149266294D01*
X176035581Y-150681893D01*
X175974258Y-150715378D01*
X175904566Y-150710394D01*
X175848633Y-150668522D01*
X175825426Y-150613609D01*
X175816755Y-150558865D01*
X175751095Y-150356782D01*
X175654620Y-150167442D01*
X175529727Y-149995540D01*
X175529723Y-149995535D01*
X175379464Y-149845276D01*
X175379459Y-149845272D01*
X175207557Y-149720379D01*
X175018215Y-149623903D01*
X174816124Y-149558241D01*
X174750000Y-149547768D01*
X174750000Y-150595854D01*
X174683343Y-150557370D01*
X174562535Y-150525000D01*
X174437465Y-150525000D01*
X174316657Y-150557370D01*
X174250000Y-150595854D01*
X174250000Y-149547768D01*
X174249999Y-149547768D01*
X174183875Y-149558241D01*
X173981784Y-149623903D01*
X173792442Y-149720379D01*
X173620540Y-149845272D01*
X173620535Y-149845276D01*
X173470276Y-149995535D01*
X173470272Y-149995540D01*
X173345379Y-150167442D01*
X173248533Y-150357511D01*
X173200558Y-150408307D01*
X173132737Y-150425102D01*
X173066602Y-150402564D01*
X173027563Y-150357511D01*
X173027192Y-150356782D01*
X172983996Y-150272006D01*
X172920477Y-150184579D01*
X172877558Y-150125505D01*
X172877554Y-150125500D01*
X172749499Y-149997445D01*
X172749494Y-149997441D01*
X172602993Y-149891003D01*
X172602992Y-149891002D01*
X172493205Y-149835062D01*
X172442409Y-149787088D01*
X172425500Y-149724578D01*
X172425500Y-149641984D01*
X172425500Y-149641982D01*
X172396503Y-149533763D01*
X172372112Y-149491516D01*
X172355500Y-149429517D01*
X172355500Y-146469098D01*
X172375185Y-146402059D01*
X172391819Y-146381417D01*
X172410520Y-146362716D01*
X172489577Y-146225784D01*
X172530500Y-146073057D01*
X172530500Y-145914943D01*
X172489577Y-145762216D01*
X172459429Y-145709998D01*
X172410524Y-145625290D01*
X172410518Y-145625282D01*
X172298717Y-145513481D01*
X172298709Y-145513475D01*
X172161790Y-145434426D01*
X172161786Y-145434424D01*
X172161784Y-145434423D01*
X172009057Y-145393500D01*
X171850943Y-145393500D01*
X171698216Y-145434423D01*
X171698209Y-145434426D01*
X171561290Y-145513475D01*
X171561282Y-145513481D01*
X171449481Y-145625282D01*
X171449475Y-145625290D01*
X171370426Y-145762209D01*
X171370423Y-145762216D01*
X171329500Y-145914943D01*
X171329500Y-146073057D01*
X171340931Y-146115716D01*
X171370423Y-146225783D01*
X171370426Y-146225790D01*
X171449475Y-146362709D01*
X171449481Y-146362717D01*
X171468181Y-146381417D01*
X171501666Y-146442740D01*
X171504500Y-146469098D01*
X171504500Y-149078500D01*
X171484815Y-149145539D01*
X171432011Y-149191294D01*
X171380500Y-149202500D01*
X169022981Y-149202500D01*
X168931489Y-149227015D01*
X168931488Y-149227014D01*
X168914762Y-149231496D01*
X168914759Y-149231498D01*
X168817740Y-149287512D01*
X168817734Y-149287517D01*
X168192781Y-149912469D01*
X168131458Y-149945954D01*
X168061766Y-149940970D01*
X168006297Y-149899714D01*
X167992923Y-149882078D01*
X167872341Y-149790638D01*
X167779009Y-149753832D01*
X167723866Y-149710926D01*
X167700673Y-149645018D01*
X167700500Y-149638478D01*
X167700500Y-147233519D01*
X167720185Y-147166480D01*
X167736819Y-147145838D01*
X174994838Y-139887819D01*
X175056161Y-139854334D01*
X175082519Y-139851500D01*
X177322106Y-139851500D01*
X177389145Y-139871185D01*
G37*
%TD.AperFunction*%
%TA.AperFunction,Conductor*%
G36*
X133750542Y-109977185D02*
G01*
X133796297Y-110029989D01*
X133806241Y-110099147D01*
X133777216Y-110162703D01*
X133771195Y-110169171D01*
X130026771Y-113914480D01*
X130026761Y-113914489D01*
X129984511Y-113956739D01*
X129984494Y-113956760D01*
X129958775Y-114001318D01*
X129958771Y-114001325D01*
X129928494Y-114053769D01*
X129928481Y-114053798D01*
X129924104Y-114070140D01*
X129918184Y-114092248D01*
X129914004Y-114107854D01*
X129914003Y-114107853D01*
X129913775Y-114108705D01*
X129899500Y-114161982D01*
X129899500Y-114162005D01*
X129899493Y-114162032D01*
X129899493Y-114162246D01*
X129899493Y-114162247D01*
X129899500Y-114218049D01*
X129899500Y-116774902D01*
X129879815Y-116841941D01*
X129863181Y-116862583D01*
X129844481Y-116881282D01*
X129844475Y-116881290D01*
X129765426Y-117018209D01*
X129765423Y-117018216D01*
X129724500Y-117170943D01*
X129724500Y-117337184D01*
X129722444Y-117337184D01*
X129713375Y-117395347D01*
X129666996Y-117447604D01*
X129601200Y-117466500D01*
X129121609Y-117466500D01*
X129054570Y-117446815D01*
X129033928Y-117430181D01*
X128625819Y-117022071D01*
X128592334Y-116960748D01*
X128589500Y-116934390D01*
X128589500Y-116907945D01*
X128589500Y-116907943D01*
X128548577Y-116755216D01*
X128541438Y-116742850D01*
X128469524Y-116618290D01*
X128469518Y-116618282D01*
X128357717Y-116506481D01*
X128357709Y-116506475D01*
X128220790Y-116427426D01*
X128220786Y-116427424D01*
X128220784Y-116427423D01*
X128068057Y-116386500D01*
X127909943Y-116386500D01*
X127757216Y-116427423D01*
X127757209Y-116427426D01*
X127620290Y-116506475D01*
X127620282Y-116506481D01*
X127508481Y-116618282D01*
X127508475Y-116618290D01*
X127429426Y-116755209D01*
X127429423Y-116755216D01*
X127388500Y-116907943D01*
X127388500Y-117066057D01*
X127428995Y-117217184D01*
X127429423Y-117218783D01*
X127429426Y-117218790D01*
X127508475Y-117355709D01*
X127508479Y-117355714D01*
X127508480Y-117355716D01*
X127620284Y-117467520D01*
X127620286Y-117467521D01*
X127620290Y-117467524D01*
X127708616Y-117518518D01*
X127757216Y-117546577D01*
X127909943Y-117587500D01*
X127936390Y-117587500D01*
X128003429Y-117607185D01*
X128024071Y-117623819D01*
X128296036Y-117895783D01*
X128553513Y-118153260D01*
X128553515Y-118153263D01*
X128618073Y-118217821D01*
X128623435Y-118227641D01*
X128651556Y-118279141D01*
X128646572Y-118348833D01*
X128614945Y-118391083D01*
X128604700Y-118404768D01*
X128574803Y-118415918D01*
X128539237Y-118429184D01*
X128530390Y-118429500D01*
X122317520Y-118429500D01*
X122250481Y-118409815D01*
X122229839Y-118393181D01*
X122213545Y-118376887D01*
X122098807Y-118300222D01*
X121971332Y-118247421D01*
X121971322Y-118247418D01*
X121835996Y-118220500D01*
X121835994Y-118220500D01*
X121698006Y-118220500D01*
X121698004Y-118220500D01*
X121562677Y-118247418D01*
X121562667Y-118247421D01*
X121435192Y-118300222D01*
X121320454Y-118376887D01*
X121222887Y-118474454D01*
X121146222Y-118589192D01*
X121093421Y-118716667D01*
X121093418Y-118716677D01*
X121066500Y-118852003D01*
X121066500Y-118852006D01*
X121066500Y-118989994D01*
X121066500Y-118989996D01*
X121066499Y-118989996D01*
X121093418Y-119125322D01*
X121095188Y-119131155D01*
X121094436Y-119131382D01*
X121102500Y-119171913D01*
X121102500Y-119596106D01*
X121082815Y-119663145D01*
X121030011Y-119708900D01*
X120960853Y-119718844D01*
X120946408Y-119715881D01*
X120930058Y-119711500D01*
X120930057Y-119711500D01*
X120771943Y-119711500D01*
X120619216Y-119752423D01*
X120619209Y-119752426D01*
X120482290Y-119831475D01*
X120482282Y-119831481D01*
X120370481Y-119943282D01*
X120370475Y-119943290D01*
X120291426Y-120080209D01*
X120291423Y-120080216D01*
X120250500Y-120232943D01*
X120250500Y-120391058D01*
X120275016Y-120482555D01*
X120273353Y-120552404D01*
X120242922Y-120602328D01*
X118030737Y-122814515D01*
X117951517Y-122893734D01*
X117951513Y-122893740D01*
X117895498Y-122990760D01*
X117895497Y-122990763D01*
X117866500Y-123098982D01*
X117866500Y-132835982D01*
X117866500Y-132948018D01*
X117895497Y-133056237D01*
X117951515Y-133153263D01*
X117951517Y-133153265D01*
X118017181Y-133218929D01*
X118050666Y-133280252D01*
X118053500Y-133306610D01*
X118053500Y-142502332D01*
X118033815Y-142569371D01*
X118010746Y-142594448D01*
X118011031Y-142594733D01*
X117893481Y-142712282D01*
X117893475Y-142712290D01*
X117814426Y-142849209D01*
X117814423Y-142849214D01*
X117813874Y-142851265D01*
X117805273Y-142883360D01*
X117768910Y-142943019D01*
X117706063Y-142973548D01*
X117636687Y-142965253D01*
X117582809Y-142920768D01*
X117561535Y-142854216D01*
X117561500Y-142851265D01*
X117561500Y-121616610D01*
X117581185Y-121549571D01*
X117597819Y-121528929D01*
X118697929Y-120428819D01*
X118759252Y-120395334D01*
X118785610Y-120392500D01*
X118812055Y-120392500D01*
X118812057Y-120392500D01*
X118964784Y-120351577D01*
X119101716Y-120272520D01*
X119213520Y-120160716D01*
X119292577Y-120023784D01*
X119333500Y-119871057D01*
X119333500Y-119712943D01*
X119292577Y-119560216D01*
X119292573Y-119560209D01*
X119213524Y-119423290D01*
X119213518Y-119423282D01*
X119101715Y-119311479D01*
X119094299Y-119307198D01*
X119046083Y-119256631D01*
X119032859Y-119188024D01*
X119058827Y-119123159D01*
X119068608Y-119112138D01*
X120229929Y-117950819D01*
X120291252Y-117917334D01*
X120317610Y-117914500D01*
X120637995Y-117914500D01*
X120638010Y-117914504D01*
X120694028Y-117914500D01*
X120750018Y-117914500D01*
X120750029Y-117914500D01*
X120750083Y-117914492D01*
X120750794Y-117914296D01*
X120802322Y-117900485D01*
X120802324Y-117900483D01*
X120802332Y-117900482D01*
X120858237Y-117885503D01*
X120858242Y-117885499D01*
X120858252Y-117885497D01*
X120858259Y-117885492D01*
X120858263Y-117885492D01*
X120902830Y-117859756D01*
X120942073Y-117837099D01*
X120952137Y-117831290D01*
X120952140Y-117831288D01*
X120952162Y-117831274D01*
X120955263Y-117829485D01*
X120955264Y-117829482D01*
X120955270Y-117829480D01*
X120955280Y-117829469D01*
X120955286Y-117829467D01*
X120993153Y-117791594D01*
X121034485Y-117750263D01*
X121034485Y-117750262D01*
X121040852Y-117743896D01*
X121040893Y-117743847D01*
X128190514Y-110593284D01*
X128403945Y-110379825D01*
X128465266Y-110346336D01*
X128491632Y-110343500D01*
X129543836Y-110343500D01*
X129599468Y-110343572D01*
X129599738Y-110343500D01*
X129600018Y-110343500D01*
X129653894Y-110329063D01*
X129707724Y-110314715D01*
X129707731Y-110314710D01*
X129707775Y-110314693D01*
X129707883Y-110314648D01*
X129708224Y-110314506D01*
X129708237Y-110314503D01*
X129756626Y-110286565D01*
X129804823Y-110258822D01*
X129805008Y-110258636D01*
X129805231Y-110258508D01*
X129805259Y-110258486D01*
X129805263Y-110258485D01*
X129844601Y-110219145D01*
X129844749Y-110219064D01*
X129844716Y-110219031D01*
X130070626Y-109993705D01*
X130131993Y-109960300D01*
X130158194Y-109957500D01*
X133683503Y-109957500D01*
X133750542Y-109977185D01*
G37*
%TD.AperFunction*%
%TA.AperFunction,Conductor*%
G36*
X186004418Y-100300816D02*
G01*
X186233020Y-100317165D01*
X186250529Y-100319683D01*
X186470144Y-100367458D01*
X186487103Y-100372437D01*
X186697694Y-100450983D01*
X186713777Y-100458327D01*
X186911034Y-100566039D01*
X186911036Y-100566040D01*
X186925919Y-100575605D01*
X187105836Y-100710289D01*
X187119206Y-100721874D01*
X187278124Y-100880792D01*
X187289710Y-100894163D01*
X187424394Y-101074080D01*
X187433959Y-101088963D01*
X187541669Y-101286217D01*
X187549019Y-101302311D01*
X187627559Y-101512887D01*
X187632543Y-101529862D01*
X187680316Y-101749470D01*
X187682834Y-101766982D01*
X187699184Y-101995581D01*
X187699500Y-102004427D01*
X187699500Y-153995572D01*
X187699184Y-154004419D01*
X187682833Y-154233019D01*
X187680315Y-154250529D01*
X187680315Y-154250530D01*
X187632544Y-154470133D01*
X187627560Y-154487109D01*
X187549016Y-154697691D01*
X187541666Y-154713783D01*
X187433961Y-154911032D01*
X187424396Y-154925917D01*
X187289708Y-155105838D01*
X187278123Y-155119207D01*
X187119208Y-155278122D01*
X187105838Y-155289708D01*
X186925917Y-155424396D01*
X186911032Y-155433961D01*
X186713783Y-155541666D01*
X186697691Y-155549016D01*
X186487109Y-155627560D01*
X186470136Y-155632543D01*
X186470133Y-155632544D01*
X186250530Y-155680315D01*
X186233019Y-155682833D01*
X186025320Y-155697688D01*
X186004417Y-155699184D01*
X185995572Y-155699500D01*
X102004428Y-155699500D01*
X101995582Y-155699184D01*
X101766982Y-155682834D01*
X101749470Y-155680316D01*
X101529862Y-155632543D01*
X101512887Y-155627559D01*
X101302311Y-155549019D01*
X101286217Y-155541669D01*
X101088963Y-155433959D01*
X101074080Y-155424394D01*
X100894163Y-155289710D01*
X100880792Y-155278124D01*
X100721875Y-155119207D01*
X100710289Y-155105836D01*
X100575605Y-154925919D01*
X100566040Y-154911036D01*
X100458330Y-154713782D01*
X100450983Y-154697694D01*
X100372437Y-154487103D01*
X100367458Y-154470144D01*
X100319683Y-154250529D01*
X100317165Y-154233017D01*
X100308959Y-154118284D01*
X100300816Y-154004418D01*
X100300500Y-153995572D01*
X100300500Y-149256900D01*
X101349500Y-149256900D01*
X101349500Y-151543091D01*
X101360123Y-151631562D01*
X101415639Y-151772342D01*
X101415640Y-151772344D01*
X101507077Y-151892922D01*
X101614654Y-151974500D01*
X101627658Y-151984361D01*
X101768436Y-152039876D01*
X101856901Y-152050500D01*
X104143098Y-152050499D01*
X104231564Y-152039876D01*
X104372342Y-151984361D01*
X104492922Y-151892922D01*
X104584361Y-151772342D01*
X104639876Y-151631564D01*
X104650500Y-151543099D01*
X104650499Y-150278751D01*
X105110000Y-150278751D01*
X105110000Y-150521248D01*
X105110001Y-150521264D01*
X105141653Y-150761687D01*
X105204421Y-150995939D01*
X105297220Y-151219978D01*
X105297227Y-151219992D01*
X105418481Y-151430010D01*
X105487061Y-151519384D01*
X106205884Y-150800560D01*
X106206740Y-150802626D01*
X106299762Y-150941844D01*
X106418156Y-151060238D01*
X106557374Y-151153260D01*
X106559437Y-151154114D01*
X105840614Y-151872936D01*
X105840614Y-151872937D01*
X105929989Y-151941517D01*
X105929996Y-151941522D01*
X106140007Y-152062772D01*
X106140021Y-152062779D01*
X106364060Y-152155578D01*
X106598312Y-152218346D01*
X106838735Y-152249998D01*
X106838752Y-152250000D01*
X107081248Y-152250000D01*
X107081264Y-152249998D01*
X107321687Y-152218346D01*
X107555939Y-152155578D01*
X107779978Y-152062779D01*
X107779992Y-152062772D01*
X107990016Y-151941515D01*
X108079384Y-151872939D01*
X108079384Y-151872936D01*
X107360562Y-151154114D01*
X107362626Y-151153260D01*
X107501844Y-151060238D01*
X107620238Y-150941844D01*
X107713260Y-150802626D01*
X107714114Y-150800562D01*
X108432936Y-151519384D01*
X108432939Y-151519384D01*
X108501515Y-151430016D01*
X108622772Y-151219992D01*
X108622779Y-151219978D01*
X108715578Y-150995939D01*
X108778346Y-150761687D01*
X108809998Y-150521264D01*
X108810000Y-150521248D01*
X108810000Y-150278751D01*
X108809998Y-150278735D01*
X108778346Y-150038312D01*
X108715578Y-149804060D01*
X108622779Y-149580021D01*
X108622772Y-149580007D01*
X108501522Y-149369996D01*
X108501517Y-149369989D01*
X108432937Y-149280614D01*
X108432936Y-149280614D01*
X107714114Y-149999436D01*
X107713260Y-149997374D01*
X107620238Y-149858156D01*
X107501844Y-149739762D01*
X107362626Y-149646740D01*
X107360560Y-149645884D01*
X108079384Y-148927061D01*
X107990010Y-148858481D01*
X107779992Y-148737227D01*
X107779978Y-148737220D01*
X107555939Y-148644421D01*
X107321687Y-148581653D01*
X107081264Y-148550001D01*
X107081248Y-148550000D01*
X106838752Y-148550000D01*
X106838735Y-148550001D01*
X106598312Y-148581653D01*
X106364060Y-148644421D01*
X106140021Y-148737220D01*
X106140006Y-148737227D01*
X105929990Y-148858480D01*
X105840614Y-148927060D01*
X105840614Y-148927061D01*
X106559438Y-149645885D01*
X106557374Y-149646740D01*
X106418156Y-149739762D01*
X106299762Y-149858156D01*
X106206740Y-149997374D01*
X106205885Y-149999438D01*
X105487061Y-149280614D01*
X105487060Y-149280614D01*
X105418480Y-149369990D01*
X105297227Y-149580006D01*
X105297220Y-149580021D01*
X105204421Y-149804060D01*
X105141653Y-150038312D01*
X105110001Y-150278735D01*
X105110000Y-150278751D01*
X104650499Y-150278751D01*
X104650499Y-149256902D01*
X104639876Y-149168436D01*
X104584361Y-149027658D01*
X104508076Y-148927061D01*
X104492922Y-148907077D01*
X104372344Y-148815640D01*
X104372342Y-148815639D01*
X104231564Y-148760124D01*
X104231561Y-148760123D01*
X104143099Y-148749500D01*
X103824500Y-148749500D01*
X103757461Y-148729815D01*
X103711706Y-148677011D01*
X103700500Y-148625500D01*
X103700500Y-147982519D01*
X103720185Y-147915480D01*
X103736819Y-147894838D01*
X105544112Y-146087545D01*
X105544114Y-146087543D01*
X105620775Y-145972811D01*
X105673580Y-145845328D01*
X105700499Y-145709994D01*
X105700499Y-145572006D01*
X105673580Y-145436672D01*
X105620775Y-145309189D01*
X105544114Y-145194457D01*
X105544112Y-145194454D01*
X105446545Y-145096887D01*
X105407118Y-145070543D01*
X105331811Y-145020225D01*
X105331808Y-145020223D01*
X105331807Y-145020223D01*
X105204331Y-144967421D01*
X105204329Y-144967420D01*
X105204328Y-144967420D01*
X105204323Y-144967419D01*
X105204319Y-144967418D01*
X105068998Y-144940501D01*
X105068994Y-144940501D01*
X104931006Y-144940501D01*
X104931001Y-144940501D01*
X104795680Y-144967418D01*
X104795668Y-144967421D01*
X104668192Y-145020223D01*
X104553454Y-145096887D01*
X102455890Y-147194451D01*
X102455884Y-147194458D01*
X102420246Y-147247796D01*
X102420246Y-147247797D01*
X102415325Y-147255162D01*
X102379225Y-147309188D01*
X102379221Y-147309195D01*
X102326421Y-147436667D01*
X102326418Y-147436677D01*
X102299500Y-147572004D01*
X102299500Y-148625500D01*
X102279815Y-148692539D01*
X102227011Y-148738294D01*
X102175500Y-148749500D01*
X101856908Y-148749500D01*
X101768437Y-148760123D01*
X101627657Y-148815639D01*
X101627655Y-148815640D01*
X101507077Y-148907077D01*
X101415640Y-149027655D01*
X101415639Y-149027658D01*
X101369154Y-149145539D01*
X101360124Y-149168437D01*
X101360123Y-149168438D01*
X101349500Y-149256900D01*
X100300500Y-149256900D01*
X100300500Y-134071592D01*
X102680117Y-134071592D01*
X102680500Y-134079851D01*
X102680500Y-141668993D01*
X102680500Y-141668995D01*
X102680499Y-141668995D01*
X102707418Y-141804322D01*
X102707421Y-141804332D01*
X102760221Y-141931804D01*
X102760228Y-141931817D01*
X102836885Y-142046541D01*
X102836888Y-142046545D01*
X102934454Y-142144111D01*
X102934458Y-142144114D01*
X103049182Y-142220771D01*
X103049195Y-142220778D01*
X103175228Y-142272982D01*
X103176672Y-142273580D01*
X103176676Y-142273580D01*
X103176677Y-142273581D01*
X103312004Y-142300500D01*
X103312007Y-142300500D01*
X103449995Y-142300500D01*
X103541041Y-142282389D01*
X103585328Y-142273580D01*
X103712811Y-142220775D01*
X103827542Y-142144114D01*
X103925114Y-142046542D01*
X104001775Y-141931811D01*
X104054580Y-141804328D01*
X104081500Y-141668993D01*
X104081500Y-137095996D01*
X105894499Y-137095996D01*
X105921418Y-137231322D01*
X105921421Y-137231332D01*
X105974222Y-137358807D01*
X106050887Y-137473545D01*
X106050888Y-137473546D01*
X115263181Y-146685838D01*
X115277884Y-146712765D01*
X115294477Y-146738584D01*
X115295368Y-146744784D01*
X115296666Y-146747161D01*
X115299500Y-146773519D01*
X115299500Y-146820170D01*
X115299315Y-146892102D01*
X115299500Y-146895950D01*
X115299500Y-149638478D01*
X115279815Y-149705517D01*
X115227011Y-149751272D01*
X115220991Y-149753832D01*
X115127658Y-149790638D01*
X115007077Y-149882077D01*
X114915639Y-150002656D01*
X114860122Y-150143438D01*
X114857240Y-150167442D01*
X114849500Y-150231898D01*
X114849500Y-151768102D01*
X114852635Y-151794205D01*
X114860122Y-151856561D01*
X114860122Y-151856563D01*
X114860123Y-151856564D01*
X114872717Y-151888500D01*
X114915639Y-151997343D01*
X115007077Y-152117922D01*
X115127656Y-152209360D01*
X115127657Y-152209360D01*
X115127658Y-152209361D01*
X115268436Y-152264877D01*
X115356898Y-152275500D01*
X115356903Y-152275500D01*
X116643097Y-152275500D01*
X116643102Y-152275500D01*
X116731564Y-152264877D01*
X116872342Y-152209361D01*
X116992922Y-152117922D01*
X117084361Y-151997342D01*
X117139877Y-151856564D01*
X117150500Y-151768102D01*
X117150500Y-151477669D01*
X117170185Y-151410630D01*
X117222989Y-151364875D01*
X117292147Y-151354931D01*
X117355703Y-151383956D01*
X117392431Y-151439351D01*
X117433787Y-151566636D01*
X117433788Y-151566639D01*
X117489664Y-151676300D01*
X117502734Y-151701951D01*
X117516006Y-151727997D01*
X117622441Y-151874494D01*
X117622445Y-151874499D01*
X117750500Y-152002554D01*
X117750505Y-152002558D01*
X117833393Y-152062779D01*
X117897006Y-152108996D01*
X117973528Y-152147986D01*
X118058360Y-152191211D01*
X118058363Y-152191212D01*
X118124314Y-152212640D01*
X118230591Y-152247171D01*
X118313429Y-152260291D01*
X118409449Y-152275500D01*
X118409454Y-152275500D01*
X118590551Y-152275500D01*
X118677259Y-152261765D01*
X118769409Y-152247171D01*
X118941639Y-152191211D01*
X119102994Y-152108996D01*
X119249501Y-152002553D01*
X119377553Y-151874501D01*
X119483996Y-151727994D01*
X119566211Y-151566639D01*
X119622171Y-151394409D01*
X119627527Y-151360594D01*
X119657456Y-151297459D01*
X119716768Y-151260528D01*
X119786630Y-151261526D01*
X119844863Y-151300136D01*
X119872473Y-151360594D01*
X119877829Y-151394410D01*
X119933787Y-151566636D01*
X119933788Y-151566639D01*
X119989664Y-151676300D01*
X120002734Y-151701951D01*
X120016006Y-151727997D01*
X120122441Y-151874494D01*
X120122445Y-151874499D01*
X120250500Y-152002554D01*
X120250505Y-152002558D01*
X120333393Y-152062779D01*
X120397006Y-152108996D01*
X120473528Y-152147986D01*
X120558360Y-152191211D01*
X120558363Y-152191212D01*
X120624314Y-152212640D01*
X120730591Y-152247171D01*
X120813429Y-152260291D01*
X120909449Y-152275500D01*
X120909454Y-152275500D01*
X121090551Y-152275500D01*
X121177259Y-152261765D01*
X121269409Y-152247171D01*
X121441639Y-152191211D01*
X121602994Y-152108996D01*
X121749501Y-152002553D01*
X121877553Y-151874501D01*
X121983996Y-151727994D01*
X122027563Y-151642488D01*
X122075537Y-151591692D01*
X122143358Y-151574897D01*
X122209493Y-151597434D01*
X122248533Y-151642488D01*
X122345379Y-151832557D01*
X122470272Y-152004459D01*
X122470276Y-152004464D01*
X122620535Y-152154723D01*
X122620540Y-152154727D01*
X122792442Y-152279620D01*
X122981782Y-152376095D01*
X123183871Y-152441757D01*
X123250000Y-152452231D01*
X123250000Y-151404145D01*
X123316657Y-151442630D01*
X123437465Y-151475000D01*
X123562535Y-151475000D01*
X123683343Y-151442630D01*
X123750000Y-151404145D01*
X123750000Y-152452230D01*
X123816126Y-152441757D01*
X123816129Y-152441757D01*
X124018217Y-152376095D01*
X124207557Y-152279620D01*
X124379459Y-152154727D01*
X124379464Y-152154723D01*
X124529723Y-152004464D01*
X124529727Y-152004459D01*
X124654620Y-151832557D01*
X124751095Y-151643217D01*
X124816757Y-151441130D01*
X124816757Y-151441127D01*
X124847030Y-151250000D01*
X123904146Y-151250000D01*
X123942630Y-151183343D01*
X123975000Y-151062535D01*
X123975000Y-150937465D01*
X123942630Y-150816657D01*
X123904146Y-150750000D01*
X124847030Y-150750000D01*
X124816757Y-150558872D01*
X124816757Y-150558869D01*
X124751095Y-150356782D01*
X124654620Y-150167442D01*
X124529727Y-149995540D01*
X124529723Y-149995535D01*
X124379464Y-149845276D01*
X124379459Y-149845272D01*
X124207557Y-149720379D01*
X124018215Y-149623903D01*
X123816124Y-149558241D01*
X123750000Y-149547768D01*
X123750000Y-150595854D01*
X123683343Y-150557370D01*
X123562535Y-150525000D01*
X123437465Y-150525000D01*
X123316657Y-150557370D01*
X123250000Y-150595854D01*
X123250000Y-149547768D01*
X123249999Y-149547768D01*
X123183875Y-149558241D01*
X122981784Y-149623903D01*
X122792442Y-149720379D01*
X122620540Y-149845272D01*
X122620535Y-149845276D01*
X122470276Y-149995535D01*
X122470272Y-149995540D01*
X122345379Y-150167442D01*
X122248533Y-150357511D01*
X122200558Y-150408307D01*
X122132737Y-150425102D01*
X122066602Y-150402564D01*
X122027563Y-150357511D01*
X122027192Y-150356782D01*
X121983996Y-150272006D01*
X121920477Y-150184579D01*
X121877558Y-150125505D01*
X121877554Y-150125500D01*
X121749499Y-149997445D01*
X121749494Y-149997441D01*
X121602997Y-149891006D01*
X121602996Y-149891005D01*
X121602994Y-149891004D01*
X121535712Y-149856722D01*
X121441639Y-149808788D01*
X121441636Y-149808787D01*
X121269410Y-149752829D01*
X121090551Y-149724500D01*
X121090546Y-149724500D01*
X120909454Y-149724500D01*
X120909449Y-149724500D01*
X120730589Y-149752829D01*
X120558363Y-149808787D01*
X120558360Y-149808788D01*
X120397002Y-149891006D01*
X120250505Y-149997441D01*
X120250500Y-149997445D01*
X120122445Y-150125500D01*
X120122441Y-150125505D01*
X120016006Y-150272002D01*
X119933788Y-150433360D01*
X119933787Y-150433363D01*
X119877829Y-150605589D01*
X119872473Y-150639406D01*
X119842543Y-150702540D01*
X119783232Y-150739471D01*
X119713369Y-150738473D01*
X119655137Y-150699863D01*
X119627527Y-150639406D01*
X119624438Y-150619905D01*
X119622171Y-150605591D01*
X119566211Y-150433361D01*
X119566211Y-150433360D01*
X119527192Y-150356782D01*
X119483996Y-150272006D01*
X119420477Y-150184579D01*
X119377558Y-150125505D01*
X119377554Y-150125500D01*
X119249499Y-149997445D01*
X119249494Y-149997441D01*
X119101615Y-149890001D01*
X119058949Y-149834671D01*
X119050500Y-149789683D01*
X119050500Y-148427386D01*
X119070185Y-148360347D01*
X119086819Y-148339705D01*
X122871518Y-144555006D01*
X126735247Y-140691276D01*
X126796568Y-140657793D01*
X126855020Y-140659184D01*
X126860213Y-140660575D01*
X126860216Y-140660577D01*
X127012943Y-140701500D01*
X127012945Y-140701500D01*
X127171055Y-140701500D01*
X127171057Y-140701500D01*
X127323784Y-140660577D01*
X127460716Y-140581520D01*
X127572520Y-140469716D01*
X127651577Y-140332784D01*
X127692500Y-140180057D01*
X127692500Y-140021943D01*
X127651577Y-139869216D01*
X127638718Y-139846943D01*
X127572524Y-139732290D01*
X127572518Y-139732282D01*
X127460717Y-139620481D01*
X127460709Y-139620475D01*
X127323790Y-139541426D01*
X127323786Y-139541424D01*
X127323784Y-139541423D01*
X127171057Y-139500500D01*
X127012943Y-139500500D01*
X126860216Y-139541423D01*
X126860214Y-139541423D01*
X126852365Y-139543527D01*
X126852179Y-139542834D01*
X126813637Y-139550500D01*
X126474525Y-139550500D01*
X126418504Y-139565510D01*
X126418504Y-139565511D01*
X126334515Y-139588016D01*
X126334514Y-139588016D01*
X126334512Y-139588017D01*
X126208989Y-139660487D01*
X126208984Y-139660491D01*
X118059491Y-147809983D01*
X118059489Y-147809985D01*
X118041695Y-147840807D01*
X118016692Y-147884114D01*
X118010501Y-147894838D01*
X117987017Y-147935512D01*
X117987016Y-147935513D01*
X117974421Y-147982519D01*
X117949500Y-148075525D01*
X117949500Y-148075527D01*
X117949500Y-149789683D01*
X117929815Y-149856722D01*
X117898385Y-149890001D01*
X117750505Y-149997441D01*
X117750500Y-149997445D01*
X117622445Y-150125500D01*
X117622441Y-150125505D01*
X117516006Y-150272002D01*
X117433788Y-150433360D01*
X117433787Y-150433363D01*
X117392431Y-150560648D01*
X117352994Y-150618323D01*
X117288635Y-150645522D01*
X117219789Y-150633608D01*
X117168313Y-150586364D01*
X117150500Y-150522330D01*
X117150500Y-150231903D01*
X117150500Y-150231898D01*
X117139877Y-150143436D01*
X117084361Y-150002658D01*
X117084360Y-150002657D01*
X117084360Y-150002656D01*
X116992922Y-149882077D01*
X116872341Y-149790638D01*
X116779009Y-149753832D01*
X116723866Y-149710926D01*
X116700673Y-149645018D01*
X116700500Y-149638478D01*
X116700500Y-147163760D01*
X116708845Y-147135340D01*
X116714627Y-147106279D01*
X116719201Y-147100071D01*
X116720185Y-147096721D01*
X116735272Y-147077653D01*
X116736114Y-147076780D01*
X116737964Y-147074940D01*
X116738132Y-147074688D01*
X116741756Y-147070934D01*
X116742024Y-147070781D01*
X116743459Y-147069204D01*
X116743789Y-147068875D01*
X116743915Y-147068733D01*
X124132510Y-139679145D01*
X124176004Y-139635652D01*
X124177066Y-139634619D01*
X124177137Y-139634512D01*
X124177144Y-139634506D01*
X124215740Y-139576734D01*
X124219238Y-139571499D01*
X124219238Y-139571497D01*
X124253775Y-139519811D01*
X124253778Y-139519801D01*
X124253785Y-139519792D01*
X124253791Y-139519777D01*
X124253797Y-139519769D01*
X124280091Y-139456277D01*
X124306332Y-139392925D01*
X124306582Y-139392337D01*
X124306591Y-139392288D01*
X124306594Y-139392283D01*
X124319995Y-139324886D01*
X124319995Y-139324885D01*
X124319996Y-139324885D01*
X124319996Y-139324880D01*
X124333500Y-139256993D01*
X124333500Y-139256966D01*
X124333504Y-139256946D01*
X124333500Y-139193500D01*
X124333500Y-137989500D01*
X124353185Y-137922461D01*
X124405989Y-137876706D01*
X124457500Y-137865500D01*
X128684500Y-137865500D01*
X128751539Y-137885185D01*
X128797294Y-137937989D01*
X128808500Y-137989500D01*
X128808500Y-147440006D01*
X128808500Y-147577994D01*
X128808500Y-147577996D01*
X128808499Y-147577996D01*
X128835418Y-147713322D01*
X128835421Y-147713332D01*
X128888222Y-147840807D01*
X128964887Y-147955545D01*
X128964888Y-147955546D01*
X131813181Y-150803838D01*
X131846666Y-150865161D01*
X131849500Y-150891519D01*
X131849500Y-151768102D01*
X131852635Y-151794205D01*
X131860122Y-151856561D01*
X131860122Y-151856563D01*
X131860123Y-151856564D01*
X131872717Y-151888500D01*
X131915639Y-151997343D01*
X132007077Y-152117922D01*
X132127656Y-152209360D01*
X132127657Y-152209360D01*
X132127658Y-152209361D01*
X132268436Y-152264877D01*
X132356898Y-152275500D01*
X132356903Y-152275500D01*
X133643097Y-152275500D01*
X133643102Y-152275500D01*
X133731564Y-152264877D01*
X133872342Y-152209361D01*
X133992922Y-152117922D01*
X134084361Y-151997342D01*
X134139877Y-151856564D01*
X134150500Y-151768102D01*
X134150500Y-151477669D01*
X134170185Y-151410630D01*
X134222989Y-151364875D01*
X134292147Y-151354931D01*
X134355703Y-151383956D01*
X134392431Y-151439351D01*
X134433787Y-151566636D01*
X134433788Y-151566639D01*
X134489664Y-151676300D01*
X134502734Y-151701951D01*
X134516006Y-151727997D01*
X134622441Y-151874494D01*
X134622445Y-151874499D01*
X134750500Y-152002554D01*
X134750505Y-152002558D01*
X134833393Y-152062779D01*
X134897006Y-152108996D01*
X134973528Y-152147986D01*
X135058360Y-152191211D01*
X135058363Y-152191212D01*
X135124314Y-152212640D01*
X135230591Y-152247171D01*
X135313429Y-152260291D01*
X135409449Y-152275500D01*
X135409454Y-152275500D01*
X135590551Y-152275500D01*
X135769409Y-152247171D01*
X135847518Y-152221792D01*
X135917359Y-152219797D01*
X135973517Y-152252042D01*
X136632985Y-152911510D01*
X136632987Y-152911511D01*
X136632991Y-152911514D01*
X136758436Y-152983939D01*
X136758437Y-152983939D01*
X136758513Y-152983983D01*
X136758517Y-152983985D01*
X136802897Y-152995876D01*
X136898525Y-153021500D01*
X140992566Y-153021500D01*
X140992603Y-153021510D01*
X141061626Y-153021500D01*
X141137475Y-153021500D01*
X141137482Y-153021497D01*
X141137488Y-153021497D01*
X141137518Y-153021489D01*
X141137551Y-153021489D01*
X141202008Y-153004207D01*
X141277181Y-152984065D01*
X141277463Y-152983992D01*
X141277476Y-152983986D01*
X141277485Y-152983984D01*
X141277492Y-152983979D01*
X141277546Y-152983956D01*
X141277556Y-152983954D01*
X141277566Y-152983947D01*
X141277578Y-152983943D01*
X141277759Y-152983836D01*
X141340922Y-152947358D01*
X141402800Y-152911632D01*
X141403041Y-152911496D01*
X141403071Y-152911465D01*
X141403076Y-152911463D01*
X141435020Y-152879510D01*
X141456757Y-152857766D01*
X141456756Y-152857766D01*
X141456771Y-152857752D01*
X141505509Y-152809015D01*
X141505510Y-152809012D01*
X141511721Y-152802802D01*
X141511822Y-152802685D01*
X145036441Y-149277082D01*
X145086273Y-149227250D01*
X145086528Y-149226999D01*
X145086553Y-149226956D01*
X145086557Y-149226953D01*
X145104445Y-149195960D01*
X145155001Y-149147741D01*
X145223606Y-149134508D01*
X145288475Y-149160466D01*
X145299519Y-149170267D01*
X148786174Y-152656921D01*
X148786184Y-152656932D01*
X148790514Y-152661262D01*
X148790515Y-152661263D01*
X148869737Y-152740485D01*
X148869739Y-152740486D01*
X148869743Y-152740489D01*
X148933008Y-152777015D01*
X148933010Y-152777016D01*
X148966757Y-152796500D01*
X148966758Y-152796501D01*
X148966760Y-152796501D01*
X148966763Y-152796503D01*
X149074981Y-152825500D01*
X149074982Y-152825500D01*
X167825527Y-152825500D01*
X167881545Y-152825562D01*
X167881777Y-152825500D01*
X167882018Y-152825500D01*
X167935916Y-152811057D01*
X167936060Y-152811060D01*
X167936050Y-152811021D01*
X167936051Y-152811021D01*
X167989796Y-152796685D01*
X167989807Y-152796678D01*
X167989856Y-152796659D01*
X167990220Y-152796507D01*
X167990237Y-152796503D01*
X168038821Y-152768452D01*
X168086884Y-152740775D01*
X168087039Y-152740619D01*
X168087229Y-152740510D01*
X168087260Y-152740486D01*
X168087263Y-152740485D01*
X168126809Y-152700937D01*
X168126936Y-152700868D01*
X168126908Y-152700839D01*
X168170924Y-152656921D01*
X168537054Y-152291605D01*
X168537263Y-152291485D01*
X168576619Y-152252128D01*
X168616194Y-152212642D01*
X168616198Y-152212634D01*
X168616366Y-152212416D01*
X168616478Y-152212269D01*
X168616485Y-152212263D01*
X168644368Y-152163966D01*
X168672320Y-152115678D01*
X168672320Y-152115674D01*
X168672646Y-152115113D01*
X168723268Y-152066954D01*
X168791889Y-152053808D01*
X168852849Y-152076915D01*
X168892192Y-152105499D01*
X168897006Y-152108996D01*
X168973528Y-152147986D01*
X169058360Y-152191211D01*
X169058363Y-152191212D01*
X169124314Y-152212640D01*
X169230591Y-152247171D01*
X169313429Y-152260291D01*
X169409449Y-152275500D01*
X169409454Y-152275500D01*
X169590551Y-152275500D01*
X169769409Y-152247171D01*
X169847518Y-152221792D01*
X169917359Y-152219797D01*
X169973517Y-152252042D01*
X170600985Y-152879510D01*
X170726515Y-152951984D01*
X170866525Y-152989500D01*
X170866528Y-152989500D01*
X175129472Y-152989500D01*
X175129474Y-152989500D01*
X175129475Y-152989500D01*
X175269485Y-152951984D01*
X175395015Y-152879510D01*
X175892530Y-152381995D01*
X182699500Y-152381995D01*
X182699500Y-152618004D01*
X182699501Y-152618020D01*
X182726824Y-152825562D01*
X182730307Y-152852014D01*
X182731848Y-152857766D01*
X182791394Y-153079993D01*
X182881714Y-153298045D01*
X182881719Y-153298056D01*
X182952677Y-153420957D01*
X182999727Y-153502450D01*
X182999729Y-153502453D01*
X182999730Y-153502454D01*
X183143406Y-153689697D01*
X183143412Y-153689704D01*
X183310295Y-153856587D01*
X183310301Y-153856592D01*
X183497550Y-154000273D01*
X183628918Y-154076118D01*
X183701943Y-154118280D01*
X183701948Y-154118282D01*
X183701951Y-154118284D01*
X183920007Y-154208606D01*
X184147986Y-154269693D01*
X184381989Y-154300500D01*
X184381996Y-154300500D01*
X184618004Y-154300500D01*
X184618011Y-154300500D01*
X184852014Y-154269693D01*
X185079993Y-154208606D01*
X185298049Y-154118284D01*
X185502450Y-154000273D01*
X185689699Y-153856592D01*
X185856592Y-153689699D01*
X186000273Y-153502450D01*
X186118284Y-153298049D01*
X186208606Y-153079993D01*
X186269693Y-152852014D01*
X186300500Y-152618011D01*
X186300500Y-152381989D01*
X186269693Y-152147986D01*
X186208606Y-151920007D01*
X186118284Y-151701951D01*
X186118282Y-151701948D01*
X186118280Y-151701943D01*
X186044929Y-151574897D01*
X186000273Y-151497550D01*
X185871849Y-151330184D01*
X185856593Y-151310302D01*
X185856587Y-151310295D01*
X185689704Y-151143412D01*
X185689697Y-151143406D01*
X185502454Y-150999730D01*
X185502453Y-150999729D01*
X185502450Y-150999727D01*
X185394609Y-150937465D01*
X185298056Y-150881719D01*
X185298045Y-150881714D01*
X185079993Y-150791394D01*
X184852010Y-150730306D01*
X184618020Y-150699501D01*
X184618017Y-150699500D01*
X184618011Y-150699500D01*
X184381989Y-150699500D01*
X184381983Y-150699500D01*
X184381979Y-150699501D01*
X184147989Y-150730306D01*
X183920006Y-150791394D01*
X183701954Y-150881714D01*
X183701943Y-150881719D01*
X183497545Y-150999730D01*
X183310302Y-151143406D01*
X183310295Y-151143412D01*
X183143412Y-151310295D01*
X183143406Y-151310302D01*
X182999730Y-151497545D01*
X182881719Y-151701943D01*
X182881714Y-151701954D01*
X182791394Y-151920006D01*
X182730306Y-152147989D01*
X182699501Y-152381979D01*
X182699500Y-152381995D01*
X175892530Y-152381995D01*
X178478510Y-149796014D01*
X178550984Y-149670485D01*
X178588500Y-149530474D01*
X178588500Y-149385526D01*
X178588500Y-140381362D01*
X178596167Y-140342822D01*
X178595473Y-140342636D01*
X178600861Y-140322528D01*
X178638500Y-140182057D01*
X178638500Y-140023943D01*
X178597577Y-139871216D01*
X178532108Y-139757819D01*
X178518524Y-139734290D01*
X178518518Y-139734282D01*
X178420627Y-139636391D01*
X178416288Y-139628445D01*
X178409041Y-139623020D01*
X178399806Y-139598260D01*
X178387142Y-139575068D01*
X178387787Y-139566038D01*
X178384624Y-139557556D01*
X178390240Y-139531735D01*
X178392126Y-139505376D01*
X178397944Y-139496322D01*
X178399476Y-139489283D01*
X178420627Y-139461029D01*
X178499661Y-139381995D01*
X182699500Y-139381995D01*
X182699500Y-139618004D01*
X182699501Y-139618020D01*
X182718678Y-139763687D01*
X182730307Y-139852014D01*
X182775840Y-140021945D01*
X182791394Y-140079993D01*
X182881714Y-140298045D01*
X182881719Y-140298056D01*
X182944342Y-140406520D01*
X182999727Y-140502450D01*
X182999729Y-140502453D01*
X182999730Y-140502454D01*
X183143406Y-140689697D01*
X183143412Y-140689704D01*
X183310295Y-140856587D01*
X183310302Y-140856593D01*
X183340614Y-140879852D01*
X183497550Y-141000273D01*
X183614488Y-141067787D01*
X183701943Y-141118280D01*
X183701948Y-141118282D01*
X183701951Y-141118284D01*
X183920007Y-141208606D01*
X184147986Y-141269693D01*
X184381989Y-141300500D01*
X184381996Y-141300500D01*
X184618004Y-141300500D01*
X184618011Y-141300500D01*
X184852014Y-141269693D01*
X185079993Y-141208606D01*
X185298049Y-141118284D01*
X185502450Y-141000273D01*
X185689699Y-140856592D01*
X185856592Y-140689699D01*
X186000273Y-140502450D01*
X186118284Y-140298049D01*
X186208606Y-140079993D01*
X186269693Y-139852014D01*
X186300500Y-139618011D01*
X186300500Y-139381989D01*
X186269693Y-139147986D01*
X186208606Y-138920007D01*
X186118284Y-138701951D01*
X186118282Y-138701948D01*
X186118280Y-138701943D01*
X186061593Y-138603760D01*
X186000273Y-138497550D01*
X185856592Y-138310301D01*
X185856587Y-138310295D01*
X185689704Y-138143412D01*
X185689697Y-138143406D01*
X185502454Y-137999730D01*
X185502453Y-137999729D01*
X185502450Y-137999727D01*
X185420957Y-137952677D01*
X185298056Y-137881719D01*
X185298045Y-137881714D01*
X185079993Y-137791394D01*
X184852010Y-137730306D01*
X184618020Y-137699501D01*
X184618017Y-137699500D01*
X184618011Y-137699500D01*
X184381989Y-137699500D01*
X184381983Y-137699500D01*
X184381979Y-137699501D01*
X184147989Y-137730306D01*
X183920006Y-137791394D01*
X183701954Y-137881714D01*
X183701943Y-137881719D01*
X183497545Y-137999730D01*
X183310302Y-138143406D01*
X183310295Y-138143412D01*
X183143412Y-138310295D01*
X183143406Y-138310302D01*
X182999730Y-138497545D01*
X182881719Y-138701943D01*
X182881714Y-138701954D01*
X182791394Y-138920006D01*
X182730306Y-139147989D01*
X182699501Y-139381979D01*
X182699500Y-139381995D01*
X178499661Y-139381995D01*
X178591407Y-139290249D01*
X179682259Y-138199397D01*
X180873208Y-137008447D01*
X180873977Y-137007751D01*
X180877915Y-137003806D01*
X180877920Y-137003804D01*
X180926236Y-136955420D01*
X180926248Y-136955432D01*
X180926295Y-136955360D01*
X180975114Y-136906543D01*
X180975116Y-136906539D01*
X180979061Y-136902595D01*
X180979763Y-136901817D01*
X181648156Y-136232500D01*
X181696114Y-136184542D01*
X181696248Y-136184340D01*
X181696423Y-136184166D01*
X181734530Y-136127047D01*
X181772775Y-136069811D01*
X181772869Y-136069582D01*
X181773004Y-136069381D01*
X181799072Y-136006324D01*
X181825580Y-135942328D01*
X181825581Y-135942321D01*
X181825589Y-135942297D01*
X181825705Y-135941913D01*
X181825719Y-135941866D01*
X181825721Y-135941862D01*
X181839000Y-135874856D01*
X181852500Y-135806993D01*
X181852500Y-135806746D01*
X181852547Y-135806509D01*
X181852500Y-135738952D01*
X181852500Y-113141007D01*
X181852500Y-113141004D01*
X181825581Y-113005677D01*
X181825580Y-113005676D01*
X181825580Y-113005672D01*
X181811211Y-112970982D01*
X181772778Y-112878195D01*
X181772771Y-112878182D01*
X181696114Y-112763458D01*
X181696111Y-112763454D01*
X181598545Y-112665888D01*
X181598541Y-112665885D01*
X181483817Y-112589228D01*
X181483804Y-112589221D01*
X181356332Y-112536421D01*
X181356322Y-112536418D01*
X181220995Y-112509500D01*
X181220993Y-112509500D01*
X181083007Y-112509500D01*
X181083005Y-112509500D01*
X180947677Y-112536418D01*
X180947667Y-112536421D01*
X180820195Y-112589221D01*
X180820182Y-112589228D01*
X180705458Y-112665885D01*
X180705454Y-112665888D01*
X180607888Y-112763454D01*
X180607885Y-112763458D01*
X180531228Y-112878182D01*
X180531221Y-112878195D01*
X180478421Y-113005667D01*
X180478418Y-113005677D01*
X180451500Y-113141004D01*
X180451500Y-135396814D01*
X180431815Y-135463853D01*
X180415242Y-135484434D01*
X179935615Y-135964726D01*
X179935554Y-135964787D01*
X177486162Y-138414181D01*
X177424839Y-138447666D01*
X177398481Y-138450500D01*
X174672003Y-138450500D01*
X174563590Y-138472065D01*
X174563589Y-138472065D01*
X174536671Y-138477420D01*
X174409190Y-138530224D01*
X174294454Y-138606887D01*
X174294453Y-138606888D01*
X167374519Y-145526823D01*
X167355500Y-145537208D01*
X167339231Y-145551530D01*
X167325438Y-145553623D01*
X167313196Y-145560308D01*
X167291578Y-145558762D01*
X167270152Y-145562014D01*
X167257418Y-145556319D01*
X167243504Y-145555324D01*
X167226155Y-145542336D01*
X167206371Y-145533488D01*
X167193207Y-145517671D01*
X167187571Y-145513452D01*
X167183051Y-145506996D01*
X167181171Y-145504120D01*
X167108520Y-145378284D01*
X167080739Y-145350503D01*
X167073713Y-145339756D01*
X167067172Y-145318108D01*
X167056334Y-145298260D01*
X167053659Y-145273388D01*
X167053504Y-145272873D01*
X167053576Y-145272617D01*
X167053500Y-145271902D01*
X167053500Y-141370981D01*
X167053304Y-141370254D01*
X167051814Y-141364691D01*
X167024503Y-141262763D01*
X167011078Y-141239511D01*
X166968485Y-141165737D01*
X166889263Y-141086515D01*
X164958819Y-139156071D01*
X164925334Y-139094748D01*
X164922500Y-139068390D01*
X164922500Y-139041945D01*
X164922500Y-139041943D01*
X164881577Y-138889216D01*
X164856923Y-138846513D01*
X164802524Y-138752290D01*
X164802518Y-138752282D01*
X164690717Y-138640481D01*
X164690709Y-138640475D01*
X164553790Y-138561426D01*
X164553786Y-138561424D01*
X164553784Y-138561423D01*
X164401057Y-138520500D01*
X164332500Y-138520500D01*
X164265461Y-138500815D01*
X164219706Y-138448011D01*
X164208500Y-138396500D01*
X164208500Y-137192382D01*
X164228185Y-137125343D01*
X164280989Y-137079588D01*
X164350147Y-137069644D01*
X164413703Y-137098669D01*
X164420163Y-137104684D01*
X168274863Y-140958611D01*
X168314737Y-140998485D01*
X168314755Y-140998495D01*
X168314771Y-140998511D01*
X168349344Y-141018467D01*
X168360679Y-141025010D01*
X168360678Y-141025011D01*
X168360688Y-141025014D01*
X168378717Y-141035424D01*
X168411762Y-141054503D01*
X168411795Y-141054516D01*
X168411800Y-141054517D01*
X168411803Y-141054519D01*
X168461343Y-141067787D01*
X168461354Y-141067794D01*
X168461355Y-141067791D01*
X168519982Y-141083500D01*
X168519992Y-141083500D01*
X168520018Y-141083503D01*
X168520024Y-141083505D01*
X168520028Y-141083504D01*
X168520029Y-141083505D01*
X168562462Y-141083500D01*
X168570950Y-141083500D01*
X169077955Y-141083500D01*
X169133973Y-141083506D01*
X169133995Y-141083500D01*
X169134018Y-141083500D01*
X169189511Y-141068630D01*
X169241605Y-141054677D01*
X169242161Y-141054534D01*
X169242190Y-141054521D01*
X169242195Y-141054520D01*
X169242202Y-141054516D01*
X169242226Y-141054505D01*
X169242237Y-141054503D01*
X169242250Y-141054495D01*
X169242350Y-141054452D01*
X169243258Y-141053913D01*
X169294434Y-141024366D01*
X169338252Y-140999074D01*
X169339149Y-140998572D01*
X169339217Y-140998517D01*
X169339227Y-140998512D01*
X169339234Y-140998503D01*
X169339248Y-140998493D01*
X169339263Y-140998485D01*
X169339281Y-140998466D01*
X169339472Y-140998315D01*
X169340604Y-140997144D01*
X169341862Y-140995885D01*
X169381794Y-140955952D01*
X169381806Y-140955946D01*
X169381804Y-140955944D01*
X172979700Y-137358807D01*
X174071242Y-136267496D01*
X174071263Y-136267485D01*
X174112610Y-136226137D01*
X174149445Y-136189310D01*
X174150379Y-136188402D01*
X174150449Y-136188306D01*
X174150457Y-136188299D01*
X174150461Y-136188289D01*
X174150473Y-136188273D01*
X174150485Y-136188263D01*
X174150497Y-136188241D01*
X174150686Y-136187986D01*
X174151576Y-136186372D01*
X174179568Y-136137888D01*
X174205377Y-136093198D01*
X174206455Y-136091413D01*
X174206501Y-136091239D01*
X174206503Y-136091237D01*
X174220178Y-136040201D01*
X174220179Y-136040199D01*
X174220180Y-136040199D01*
X174220180Y-136040191D01*
X174235495Y-135983063D01*
X174235495Y-135983059D01*
X174235496Y-135983056D01*
X174235500Y-135983026D01*
X174235500Y-135929659D01*
X174235506Y-135871026D01*
X174235500Y-135871003D01*
X174235500Y-120497098D01*
X174255185Y-120430059D01*
X174271819Y-120409417D01*
X174290520Y-120390716D01*
X174369577Y-120253784D01*
X174410500Y-120101057D01*
X174410500Y-119942943D01*
X174369577Y-119790216D01*
X174359676Y-119773067D01*
X174290524Y-119653290D01*
X174290518Y-119653282D01*
X174178717Y-119541481D01*
X174178709Y-119541475D01*
X174041790Y-119462426D01*
X174041786Y-119462424D01*
X174041784Y-119462423D01*
X173889057Y-119421500D01*
X173730943Y-119421500D01*
X173578216Y-119462423D01*
X173578209Y-119462426D01*
X173441290Y-119541475D01*
X173441282Y-119541481D01*
X173329481Y-119653282D01*
X173329477Y-119653287D01*
X173288160Y-119724851D01*
X173237593Y-119773067D01*
X173168986Y-119786289D01*
X173104121Y-119760321D01*
X173073386Y-119724850D01*
X173020524Y-119633290D01*
X173020518Y-119633282D01*
X172908717Y-119521481D01*
X172908709Y-119521475D01*
X172771790Y-119442426D01*
X172771786Y-119442424D01*
X172771784Y-119442423D01*
X172619057Y-119401500D01*
X172460943Y-119401500D01*
X172460938Y-119401500D01*
X172454898Y-119403119D01*
X172423180Y-119407341D01*
X172370118Y-119407497D01*
X172369745Y-119407499D01*
X172369398Y-119407500D01*
X171156638Y-119407500D01*
X171100620Y-119407416D01*
X171100619Y-119407416D01*
X171100617Y-119407416D01*
X171099989Y-119407498D01*
X171046547Y-119421817D01*
X171046371Y-119421864D01*
X170992353Y-119436252D01*
X170992102Y-119436355D01*
X170992053Y-119436376D01*
X170991845Y-119436462D01*
X170991771Y-119436492D01*
X170979767Y-119443423D01*
X170943414Y-119464411D01*
X170895248Y-119492124D01*
X170895019Y-119492352D01*
X170894737Y-119492515D01*
X170894727Y-119492524D01*
X170887775Y-119496539D01*
X170866534Y-119501692D01*
X170834085Y-119514236D01*
X170823658Y-119512096D01*
X170819875Y-119513015D01*
X170807846Y-119508852D01*
X170765641Y-119500193D01*
X170736094Y-119478346D01*
X160955265Y-109697517D01*
X160955263Y-109697515D01*
X160858237Y-109641497D01*
X160750018Y-109612500D01*
X160750017Y-109612500D01*
X141790430Y-109612500D01*
X141723391Y-109592815D01*
X141677636Y-109540011D01*
X141667692Y-109470853D01*
X141670655Y-109456409D01*
X141674499Y-109442061D01*
X141674500Y-109442055D01*
X141674500Y-109283945D01*
X141674500Y-109283943D01*
X141633577Y-109131216D01*
X141619266Y-109106428D01*
X141554524Y-108994290D01*
X141554518Y-108994282D01*
X141442717Y-108882481D01*
X141442709Y-108882475D01*
X141305790Y-108803426D01*
X141305786Y-108803424D01*
X141305784Y-108803423D01*
X141153057Y-108762500D01*
X141153056Y-108762500D01*
X141126610Y-108762500D01*
X141059571Y-108742815D01*
X141038929Y-108726181D01*
X139560265Y-107247517D01*
X139560263Y-107247515D01*
X139463237Y-107191497D01*
X139355018Y-107162500D01*
X139355017Y-107162500D01*
X134462098Y-107162500D01*
X134395059Y-107142815D01*
X134374417Y-107126181D01*
X134355717Y-107107481D01*
X134355709Y-107107475D01*
X134218790Y-107028426D01*
X134218784Y-107028423D01*
X134206961Y-107025255D01*
X134147302Y-106988888D01*
X134116775Y-106926040D01*
X134125072Y-106856665D01*
X134151362Y-106817816D01*
X135563961Y-105404831D01*
X135625279Y-105371337D01*
X135651654Y-105368500D01*
X160544761Y-105368500D01*
X160611800Y-105388185D01*
X160652148Y-105430500D01*
X160672480Y-105465716D01*
X160784284Y-105577520D01*
X160784286Y-105577521D01*
X160784290Y-105577524D01*
X160894537Y-105641174D01*
X160921216Y-105656577D01*
X161073943Y-105697500D01*
X161073945Y-105697500D01*
X161232055Y-105697500D01*
X161232057Y-105697500D01*
X161384784Y-105656577D01*
X161521716Y-105577520D01*
X161633520Y-105465716D01*
X161712577Y-105328784D01*
X161753500Y-105176057D01*
X161753500Y-105017943D01*
X161712577Y-104865216D01*
X161686716Y-104820423D01*
X161633524Y-104728290D01*
X161633518Y-104728282D01*
X161521717Y-104616481D01*
X161521709Y-104616475D01*
X161384790Y-104537426D01*
X161384786Y-104537424D01*
X161384784Y-104537423D01*
X161232057Y-104496500D01*
X161073943Y-104496500D01*
X161011337Y-104513275D01*
X160979244Y-104517500D01*
X135479986Y-104517500D01*
X135479960Y-104517493D01*
X135427676Y-104517500D01*
X135367955Y-104517500D01*
X135367925Y-104517507D01*
X135367923Y-104517508D01*
X135331676Y-104527225D01*
X135316220Y-104531369D01*
X135316213Y-104531370D01*
X135316206Y-104531373D01*
X135292258Y-104537790D01*
X135259756Y-104546499D01*
X135259719Y-104546514D01*
X135213168Y-104573398D01*
X135213157Y-104573404D01*
X135162730Y-104602519D01*
X135162698Y-104602543D01*
X135162690Y-104602550D01*
X135162690Y-104602551D01*
X135122562Y-104642689D01*
X135083515Y-104681737D01*
X135083503Y-104681756D01*
X135078104Y-104687157D01*
X135078104Y-104687158D01*
X131809991Y-107956169D01*
X131748673Y-107989663D01*
X131722298Y-107992500D01*
X131695943Y-107992500D01*
X131543216Y-108033423D01*
X131543209Y-108033426D01*
X131406290Y-108112475D01*
X131406282Y-108112481D01*
X131294481Y-108224282D01*
X131294475Y-108224290D01*
X131215426Y-108361209D01*
X131215423Y-108361216D01*
X131174500Y-108513943D01*
X131174500Y-108672057D01*
X131209700Y-108803423D01*
X131215423Y-108824783D01*
X131215424Y-108824786D01*
X131270684Y-108920500D01*
X131287157Y-108988401D01*
X131264304Y-109054428D01*
X131209383Y-109097618D01*
X131163297Y-109106500D01*
X129943468Y-109106500D01*
X129935263Y-109104090D01*
X129926808Y-109105376D01*
X129902239Y-109094393D01*
X129876429Y-109086815D01*
X129869165Y-109079609D01*
X129863021Y-109076863D01*
X129847028Y-109057650D01*
X129839695Y-109050376D01*
X129837804Y-109047486D01*
X129765520Y-108922284D01*
X129737747Y-108894511D01*
X129730727Y-108883778D01*
X129724177Y-108862118D01*
X129713334Y-108842260D01*
X129710664Y-108817428D01*
X129710504Y-108816899D01*
X129710578Y-108816636D01*
X129710500Y-108815902D01*
X129710500Y-106855319D01*
X129730185Y-106788280D01*
X129746738Y-106767719D01*
X129804457Y-106709897D01*
X129865750Y-106676357D01*
X129892216Y-106673500D01*
X129918055Y-106673500D01*
X129918057Y-106673500D01*
X130070784Y-106632577D01*
X130207716Y-106553520D01*
X130319520Y-106441716D01*
X130398577Y-106304784D01*
X130439500Y-106152057D01*
X130439500Y-105993943D01*
X130430832Y-105961593D01*
X130432494Y-105891745D01*
X130471655Y-105833882D01*
X130535884Y-105806377D01*
X130550606Y-105805500D01*
X132601902Y-105805500D01*
X132668941Y-105825185D01*
X132689583Y-105841819D01*
X132708284Y-105860520D01*
X132708286Y-105860521D01*
X132708290Y-105860524D01*
X132796602Y-105911510D01*
X132845216Y-105939577D01*
X132997943Y-105980500D01*
X132997945Y-105980500D01*
X133156055Y-105980500D01*
X133156057Y-105980500D01*
X133308784Y-105939577D01*
X133445716Y-105860520D01*
X133557520Y-105748716D01*
X133636577Y-105611784D01*
X133677500Y-105459057D01*
X133677500Y-105300943D01*
X133636577Y-105148216D01*
X133636573Y-105148209D01*
X133557524Y-105011290D01*
X133557518Y-105011282D01*
X133445717Y-104899481D01*
X133445709Y-104899475D01*
X133308790Y-104820426D01*
X133308786Y-104820424D01*
X133308784Y-104820423D01*
X133156057Y-104779500D01*
X132997943Y-104779500D01*
X132845216Y-104820423D01*
X132845209Y-104820426D01*
X132708290Y-104899475D01*
X132708282Y-104899481D01*
X132689583Y-104918181D01*
X132628260Y-104951666D01*
X132601902Y-104954500D01*
X114000098Y-104954500D01*
X113933059Y-104934815D01*
X113887304Y-104882011D01*
X113877360Y-104812853D01*
X113906385Y-104749297D01*
X113912417Y-104742819D01*
X113926954Y-104728282D01*
X113980520Y-104674716D01*
X114059577Y-104537784D01*
X114100500Y-104385057D01*
X114100500Y-104358845D01*
X114120185Y-104291806D01*
X114136850Y-104271133D01*
X115067848Y-103340788D01*
X115129182Y-103307325D01*
X115155498Y-103304500D01*
X131294902Y-103304500D01*
X131361941Y-103324185D01*
X131382583Y-103340819D01*
X131401284Y-103359520D01*
X131401286Y-103359521D01*
X131401290Y-103359524D01*
X131440212Y-103381995D01*
X131538216Y-103438577D01*
X131690943Y-103479500D01*
X131690945Y-103479500D01*
X131849055Y-103479500D01*
X131849057Y-103479500D01*
X132001784Y-103438577D01*
X132138716Y-103359520D01*
X132250520Y-103247716D01*
X132329577Y-103110784D01*
X132370500Y-102958057D01*
X132370500Y-102799943D01*
X132329577Y-102647216D01*
X132329573Y-102647209D01*
X132250524Y-102510290D01*
X132250518Y-102510282D01*
X132138717Y-102398481D01*
X132138709Y-102398475D01*
X132001790Y-102319426D01*
X132001786Y-102319424D01*
X132001784Y-102319423D01*
X131849057Y-102278500D01*
X131690943Y-102278500D01*
X131538216Y-102319423D01*
X131538209Y-102319426D01*
X131401290Y-102398475D01*
X131401282Y-102398481D01*
X131382583Y-102417181D01*
X131321260Y-102450666D01*
X131294902Y-102453500D01*
X114928149Y-102453500D01*
X114872131Y-102453480D01*
X114872056Y-102453500D01*
X114871979Y-102453500D01*
X114819161Y-102467652D01*
X114819122Y-102467663D01*
X114763896Y-102482440D01*
X114763774Y-102482490D01*
X114715672Y-102510262D01*
X114715636Y-102510283D01*
X114666848Y-102538428D01*
X114666742Y-102538508D01*
X114626881Y-102578369D01*
X114626853Y-102578398D01*
X113535276Y-103669212D01*
X113473941Y-103702675D01*
X113447625Y-103705500D01*
X113420943Y-103705500D01*
X113268216Y-103746423D01*
X113268209Y-103746426D01*
X113131290Y-103825475D01*
X113131286Y-103825478D01*
X113084179Y-103872584D01*
X113022855Y-103906068D01*
X112953163Y-103901082D01*
X112908818Y-103872582D01*
X112868717Y-103832481D01*
X112868709Y-103832475D01*
X112731790Y-103753426D01*
X112731786Y-103753424D01*
X112731784Y-103753423D01*
X112579057Y-103712500D01*
X112420943Y-103712500D01*
X112268216Y-103753423D01*
X112268209Y-103753426D01*
X112131290Y-103832475D01*
X112131282Y-103832481D01*
X112019481Y-103944282D01*
X112019475Y-103944290D01*
X111940426Y-104081209D01*
X111940423Y-104081216D01*
X111899500Y-104233943D01*
X111899500Y-104392057D01*
X111938548Y-104537784D01*
X111940423Y-104544783D01*
X111940426Y-104544790D01*
X112019475Y-104681709D01*
X112019479Y-104681714D01*
X112019480Y-104681716D01*
X112131284Y-104793520D01*
X112131286Y-104793521D01*
X112131290Y-104793524D01*
X112268209Y-104872573D01*
X112268216Y-104872577D01*
X112420943Y-104913500D01*
X112447075Y-104913500D01*
X112514114Y-104933185D01*
X112534796Y-104949859D01*
X113225464Y-105641174D01*
X113225515Y-105641263D01*
X113265124Y-105680872D01*
X113304577Y-105720362D01*
X113304579Y-105720363D01*
X113304580Y-105720364D01*
X113304651Y-105720418D01*
X113304732Y-105720480D01*
X113304737Y-105720485D01*
X113353265Y-105748502D01*
X113401577Y-105776426D01*
X113401675Y-105776452D01*
X113401763Y-105776503D01*
X113455197Y-105790820D01*
X113455250Y-105790852D01*
X113455255Y-105790836D01*
X113509782Y-105805474D01*
X113509978Y-105805500D01*
X113565801Y-105805500D01*
X113621819Y-105805526D01*
X113621821Y-105805525D01*
X113629678Y-105805529D01*
X113630134Y-105805500D01*
X129127394Y-105805500D01*
X129144337Y-105810475D01*
X129161996Y-105810426D01*
X129177164Y-105820114D01*
X129194433Y-105825185D01*
X129205995Y-105838529D01*
X129220880Y-105848036D01*
X129228403Y-105864388D01*
X129240188Y-105877989D01*
X129242737Y-105895545D01*
X129250082Y-105911510D01*
X129248644Y-105936221D01*
X129250181Y-105946804D01*
X129249127Y-105954281D01*
X129238500Y-105993943D01*
X129238500Y-106029691D01*
X129237287Y-106038299D01*
X129226305Y-106062523D01*
X129218815Y-106088034D01*
X129209492Y-106099613D01*
X129208440Y-106101935D01*
X129206736Y-106103036D01*
X129202260Y-106108597D01*
X128984241Y-106327010D01*
X128944510Y-106366741D01*
X128944290Y-106367025D01*
X128925043Y-106400430D01*
X128916539Y-106415191D01*
X128901229Y-106441709D01*
X128888492Y-106463771D01*
X128888392Y-106464013D01*
X128888351Y-106464110D01*
X128874003Y-106517852D01*
X128873975Y-106517958D01*
X128859500Y-106571980D01*
X128859467Y-106572234D01*
X128859450Y-106572361D01*
X128859500Y-106627829D01*
X128859500Y-108815902D01*
X128839815Y-108882941D01*
X128823181Y-108903583D01*
X128804481Y-108922282D01*
X128804475Y-108922290D01*
X128725426Y-109059209D01*
X128725423Y-109059216D01*
X128684500Y-109211943D01*
X128684500Y-109368500D01*
X128681949Y-109377185D01*
X128683238Y-109386147D01*
X128672259Y-109410187D01*
X128664815Y-109435539D01*
X128657974Y-109441466D01*
X128654213Y-109449703D01*
X128631978Y-109463992D01*
X128612011Y-109481294D01*
X128601496Y-109483581D01*
X128595435Y-109487477D01*
X128560500Y-109492500D01*
X128328112Y-109492500D01*
X128328035Y-109492495D01*
X128255979Y-109492499D01*
X128255969Y-109492500D01*
X128207963Y-109492500D01*
X128151259Y-109507697D01*
X128151101Y-109507740D01*
X128150871Y-109507802D01*
X128099763Y-109521497D01*
X128099749Y-109521504D01*
X128099737Y-109521508D01*
X128098651Y-109522134D01*
X128098651Y-109522135D01*
X128049635Y-109550437D01*
X128049538Y-109550493D01*
X128049404Y-109550571D01*
X128002737Y-109577515D01*
X128002728Y-109577523D01*
X128002714Y-109577532D01*
X128001999Y-109578246D01*
X128001997Y-109578248D01*
X127967750Y-109612500D01*
X127957318Y-109622933D01*
X127923515Y-109656737D01*
X127923508Y-109656745D01*
X127919669Y-109660586D01*
X127919666Y-109660587D01*
X124222177Y-113358567D01*
X124160856Y-113392056D01*
X124091164Y-113387077D01*
X124046809Y-113358573D01*
X123933717Y-113245481D01*
X123933709Y-113245475D01*
X123796790Y-113166426D01*
X123796786Y-113166424D01*
X123796784Y-113166423D01*
X123644057Y-113125500D01*
X123485943Y-113125500D01*
X123333216Y-113166423D01*
X123333209Y-113166426D01*
X123196290Y-113245475D01*
X123196282Y-113245481D01*
X123084481Y-113357282D01*
X123084475Y-113357290D01*
X123005426Y-113494209D01*
X123005423Y-113494216D01*
X122964500Y-113646943D01*
X122964500Y-113673497D01*
X122944815Y-113740536D01*
X122928195Y-113761164D01*
X120464977Y-116225167D01*
X120403659Y-116258662D01*
X120377282Y-116261500D01*
X120264943Y-116261500D01*
X120112216Y-116302423D01*
X120112209Y-116302426D01*
X119975290Y-116381475D01*
X119975282Y-116381481D01*
X119863481Y-116493282D01*
X119863475Y-116493290D01*
X119784426Y-116630209D01*
X119784423Y-116630216D01*
X119743500Y-116782943D01*
X119743500Y-116941057D01*
X119780714Y-117079943D01*
X119786527Y-117101635D01*
X119783369Y-117102480D01*
X119789183Y-117156799D01*
X119757879Y-117219263D01*
X119754845Y-117222405D01*
X114847587Y-122129663D01*
X114792001Y-122161756D01*
X114696220Y-122187421D01*
X114696209Y-122187426D01*
X114559290Y-122266475D01*
X114559282Y-122266481D01*
X114447481Y-122378282D01*
X114447475Y-122378290D01*
X114368426Y-122515209D01*
X114368423Y-122515216D01*
X114327500Y-122667943D01*
X114327500Y-122826057D01*
X114351211Y-122914545D01*
X114368423Y-122978783D01*
X114368426Y-122978790D01*
X114447475Y-123115709D01*
X114447479Y-123115714D01*
X114447480Y-123115716D01*
X114559284Y-123227520D01*
X114559286Y-123227521D01*
X114559290Y-123227524D01*
X114663710Y-123287810D01*
X114696216Y-123306577D01*
X114848943Y-123347500D01*
X114848945Y-123347500D01*
X115007055Y-123347500D01*
X115007057Y-123347500D01*
X115159784Y-123306577D01*
X115296716Y-123227520D01*
X115408520Y-123115716D01*
X115487577Y-122978784D01*
X115528500Y-122826057D01*
X115528500Y-122703609D01*
X115548185Y-122636570D01*
X115564819Y-122615928D01*
X116092159Y-122088588D01*
X116498820Y-121681927D01*
X116560142Y-121648443D01*
X116629834Y-121653427D01*
X116685767Y-121695299D01*
X116710184Y-121760763D01*
X116710500Y-121769609D01*
X116710500Y-143763902D01*
X116690815Y-143830941D01*
X116674181Y-143851583D01*
X116655481Y-143870282D01*
X116655475Y-143870290D01*
X116576426Y-144007209D01*
X116576423Y-144007216D01*
X116535500Y-144159943D01*
X116535500Y-144318057D01*
X116571870Y-144453790D01*
X116576423Y-144470783D01*
X116576426Y-144470790D01*
X116655475Y-144607709D01*
X116655479Y-144607714D01*
X116655480Y-144607716D01*
X116767284Y-144719520D01*
X116767285Y-144719521D01*
X116767287Y-144719522D01*
X116845663Y-144764772D01*
X116893878Y-144815338D01*
X116907102Y-144883945D01*
X116881134Y-144948810D01*
X116871350Y-144959834D01*
X116282647Y-145548616D01*
X116221326Y-145582105D01*
X116151634Y-145577126D01*
X116107279Y-145548622D01*
X107658899Y-137100242D01*
X107625414Y-137038919D01*
X107630398Y-136969227D01*
X107643476Y-136943673D01*
X107668775Y-136905811D01*
X107721580Y-136778328D01*
X107738118Y-136695189D01*
X107748500Y-136642996D01*
X107748500Y-128443519D01*
X107768185Y-128376480D01*
X107784819Y-128355838D01*
X108117114Y-128023543D01*
X108120157Y-128018989D01*
X108193775Y-127908811D01*
X108246580Y-127781328D01*
X108247835Y-127775018D01*
X108269222Y-127667497D01*
X108273500Y-127645994D01*
X108273500Y-126425943D01*
X114661500Y-126425943D01*
X114661500Y-126584057D01*
X114702301Y-126736326D01*
X114702423Y-126736783D01*
X114702426Y-126736790D01*
X114781475Y-126873709D01*
X114781481Y-126873717D01*
X114800181Y-126892417D01*
X114833666Y-126953740D01*
X114836500Y-126980098D01*
X114836500Y-130930982D01*
X114836500Y-131043018D01*
X114865497Y-131151237D01*
X114921515Y-131248263D01*
X114921517Y-131248265D01*
X115088181Y-131414929D01*
X115121666Y-131476252D01*
X115124500Y-131502610D01*
X115124500Y-131529057D01*
X115164296Y-131677576D01*
X115165423Y-131681783D01*
X115165426Y-131681790D01*
X115244475Y-131818709D01*
X115244479Y-131818714D01*
X115244480Y-131818716D01*
X115356284Y-131930520D01*
X115356286Y-131930521D01*
X115356290Y-131930524D01*
X115493209Y-132009573D01*
X115493216Y-132009577D01*
X115645943Y-132050500D01*
X115645945Y-132050500D01*
X115804055Y-132050500D01*
X115804057Y-132050500D01*
X115956784Y-132009577D01*
X116093716Y-131930520D01*
X116205520Y-131818716D01*
X116284577Y-131681784D01*
X116325500Y-131529057D01*
X116325500Y-131370943D01*
X116284577Y-131218216D01*
X116245907Y-131151237D01*
X116205524Y-131081290D01*
X116205518Y-131081282D01*
X116093717Y-130969481D01*
X116093709Y-130969475D01*
X115956790Y-130890426D01*
X115956786Y-130890424D01*
X115956784Y-130890423D01*
X115804057Y-130849500D01*
X115804056Y-130849500D01*
X115795997Y-130848439D01*
X115796439Y-130845077D01*
X115744461Y-130829815D01*
X115698706Y-130777011D01*
X115687500Y-130725500D01*
X115687500Y-126980098D01*
X115707185Y-126913059D01*
X115723819Y-126892417D01*
X115729417Y-126886819D01*
X115742520Y-126873716D01*
X115821577Y-126736784D01*
X115862500Y-126584057D01*
X115862500Y-126425943D01*
X115821577Y-126273216D01*
X115818686Y-126268209D01*
X115742524Y-126136290D01*
X115742518Y-126136282D01*
X115630717Y-126024481D01*
X115630709Y-126024475D01*
X115493790Y-125945426D01*
X115493786Y-125945424D01*
X115493784Y-125945423D01*
X115341057Y-125904500D01*
X115182943Y-125904500D01*
X115030216Y-125945423D01*
X115030209Y-125945426D01*
X114893290Y-126024475D01*
X114893282Y-126024481D01*
X114781481Y-126136282D01*
X114781475Y-126136290D01*
X114702426Y-126273209D01*
X114702423Y-126273216D01*
X114661500Y-126425943D01*
X108273500Y-126425943D01*
X108273500Y-119757004D01*
X108246581Y-119621677D01*
X108246580Y-119621676D01*
X108246580Y-119621672D01*
X108235990Y-119596106D01*
X108193778Y-119494195D01*
X108193771Y-119494182D01*
X108117114Y-119379458D01*
X108117111Y-119379454D01*
X108019545Y-119281888D01*
X108019541Y-119281885D01*
X107904817Y-119205228D01*
X107904804Y-119205221D01*
X107777332Y-119152421D01*
X107777322Y-119152418D01*
X107641995Y-119125500D01*
X107641993Y-119125500D01*
X107504007Y-119125500D01*
X107504005Y-119125500D01*
X107368677Y-119152418D01*
X107368667Y-119152421D01*
X107241195Y-119205221D01*
X107241182Y-119205228D01*
X107126458Y-119281885D01*
X107126454Y-119281888D01*
X107028888Y-119379454D01*
X107028885Y-119379458D01*
X106952228Y-119494182D01*
X106952221Y-119494195D01*
X106899421Y-119621667D01*
X106899418Y-119621677D01*
X106872500Y-119757004D01*
X106872500Y-127235480D01*
X106852815Y-127302519D01*
X106836181Y-127323161D01*
X106503888Y-127655453D01*
X106503887Y-127655454D01*
X106427222Y-127770192D01*
X106374421Y-127897667D01*
X106374418Y-127897679D01*
X106349384Y-128023537D01*
X106349383Y-128023543D01*
X106347500Y-128033007D01*
X106347500Y-136232481D01*
X106338855Y-136261921D01*
X106332332Y-136291908D01*
X106328577Y-136296923D01*
X106327815Y-136299520D01*
X106311181Y-136320162D01*
X106148457Y-136482886D01*
X106089161Y-136542182D01*
X106050886Y-136580457D01*
X105974222Y-136695192D01*
X105921421Y-136822667D01*
X105921418Y-136822677D01*
X105894500Y-136958003D01*
X105894500Y-136958006D01*
X105894500Y-137095994D01*
X105894500Y-137095996D01*
X105894499Y-137095996D01*
X104081500Y-137095996D01*
X104081500Y-134296287D01*
X104091205Y-134248198D01*
X104143428Y-134124088D01*
X104152485Y-134079851D01*
X104171102Y-133988911D01*
X104171103Y-133988904D01*
X104171874Y-133850921D01*
X104145711Y-133715438D01*
X104093619Y-133587662D01*
X104074274Y-133558357D01*
X104017603Y-133472507D01*
X104005027Y-133459790D01*
X103920576Y-133374389D01*
X103903286Y-133362696D01*
X103806273Y-133297088D01*
X103679089Y-133243572D01*
X103679080Y-133243569D01*
X103543911Y-133215897D01*
X103543904Y-133215896D01*
X103406695Y-133215130D01*
X103405921Y-133215126D01*
X103405920Y-133215126D01*
X103270441Y-133241288D01*
X103270439Y-133241288D01*
X103270438Y-133241289D01*
X103225710Y-133259524D01*
X103142657Y-133293383D01*
X103027505Y-133369398D01*
X103027504Y-133369399D01*
X102947453Y-133448559D01*
X102936097Y-133459790D01*
X102934458Y-133460886D01*
X102887249Y-133508093D01*
X102886980Y-133508360D01*
X102839315Y-133555496D01*
X102838483Y-133556511D01*
X102838038Y-133557051D01*
X102836953Y-133558357D01*
X102799893Y-133613820D01*
X102799510Y-133614389D01*
X102762085Y-133669730D01*
X102760956Y-133671815D01*
X102760954Y-133671816D01*
X102760270Y-133673080D01*
X102734747Y-133734695D01*
X102734483Y-133735329D01*
X102708566Y-133796926D01*
X102707948Y-133798919D01*
X102707900Y-133799080D01*
X102707443Y-133800553D01*
X102694407Y-133866084D01*
X102694271Y-133866755D01*
X102680894Y-133932105D01*
X102680670Y-133934250D01*
X102680650Y-133934454D01*
X102680500Y-133935893D01*
X102680500Y-134002808D01*
X102680498Y-134003501D01*
X102680117Y-134071592D01*
X100300500Y-134071592D01*
X100300500Y-115152943D01*
X114391500Y-115152943D01*
X114391500Y-115311057D01*
X114402951Y-115353790D01*
X114432423Y-115463783D01*
X114432426Y-115463790D01*
X114511475Y-115600709D01*
X114511479Y-115600714D01*
X114511480Y-115600716D01*
X114623284Y-115712520D01*
X114623286Y-115712521D01*
X114623290Y-115712524D01*
X114760209Y-115791573D01*
X114760216Y-115791577D01*
X114912943Y-115832500D01*
X114912945Y-115832500D01*
X115071055Y-115832500D01*
X115071057Y-115832500D01*
X115223784Y-115791577D01*
X115360716Y-115712520D01*
X115379417Y-115693819D01*
X115440740Y-115660334D01*
X115467098Y-115657500D01*
X120049288Y-115657500D01*
X120111287Y-115674112D01*
X120124216Y-115681577D01*
X120276943Y-115722500D01*
X120276945Y-115722500D01*
X120435055Y-115722500D01*
X120435057Y-115722500D01*
X120587784Y-115681577D01*
X120724716Y-115602520D01*
X120836520Y-115490716D01*
X120915577Y-115353784D01*
X120956500Y-115201057D01*
X120956500Y-115042943D01*
X120915577Y-114890216D01*
X120900566Y-114864216D01*
X120836524Y-114753290D01*
X120836518Y-114753282D01*
X120724717Y-114641481D01*
X120724709Y-114641475D01*
X120587790Y-114562426D01*
X120587786Y-114562424D01*
X120587784Y-114562423D01*
X120435057Y-114521500D01*
X120276943Y-114521500D01*
X120124216Y-114562423D01*
X120124209Y-114562426D01*
X119987290Y-114641475D01*
X119987282Y-114641481D01*
X119875482Y-114753281D01*
X119871871Y-114757988D01*
X119815442Y-114799190D01*
X119773496Y-114806500D01*
X115467098Y-114806500D01*
X115400059Y-114786815D01*
X115379417Y-114770181D01*
X115360717Y-114751481D01*
X115360709Y-114751475D01*
X115223790Y-114672426D01*
X115223786Y-114672424D01*
X115223784Y-114672423D01*
X115071057Y-114631500D01*
X114912943Y-114631500D01*
X114760216Y-114672423D01*
X114760209Y-114672426D01*
X114623290Y-114751475D01*
X114623282Y-114751481D01*
X114511481Y-114863282D01*
X114511475Y-114863290D01*
X114432426Y-115000209D01*
X114432423Y-115000216D01*
X114391500Y-115152943D01*
X100300500Y-115152943D01*
X100300500Y-103381995D01*
X101699500Y-103381995D01*
X101699500Y-103618004D01*
X101699501Y-103618020D01*
X101730306Y-103852010D01*
X101791394Y-104079993D01*
X101881714Y-104298045D01*
X101881719Y-104298056D01*
X101952677Y-104420957D01*
X101999727Y-104502450D01*
X101999729Y-104502453D01*
X101999730Y-104502454D01*
X102143406Y-104689697D01*
X102143412Y-104689704D01*
X102310295Y-104856587D01*
X102310301Y-104856592D01*
X102497550Y-105000273D01*
X102628918Y-105076118D01*
X102701943Y-105118280D01*
X102701948Y-105118282D01*
X102701951Y-105118284D01*
X102920007Y-105208606D01*
X103147986Y-105269693D01*
X103381989Y-105300500D01*
X103381996Y-105300500D01*
X103618004Y-105300500D01*
X103618011Y-105300500D01*
X103852014Y-105269693D01*
X104079993Y-105208606D01*
X104298049Y-105118284D01*
X104502450Y-105000273D01*
X104689699Y-104856592D01*
X104856592Y-104689699D01*
X105000273Y-104502450D01*
X105118284Y-104298049D01*
X105208606Y-104079993D01*
X105269693Y-103852014D01*
X105300500Y-103618011D01*
X105300500Y-103381989D01*
X105269693Y-103147986D01*
X105208606Y-102920007D01*
X105118284Y-102701951D01*
X105118282Y-102701948D01*
X105118280Y-102701943D01*
X105076118Y-102628918D01*
X105000273Y-102497550D01*
X104856592Y-102310301D01*
X104856587Y-102310295D01*
X104689704Y-102143412D01*
X104689697Y-102143406D01*
X104502454Y-101999730D01*
X104502453Y-101999729D01*
X104502450Y-101999727D01*
X104420957Y-101952677D01*
X104298056Y-101881719D01*
X104298045Y-101881714D01*
X104079993Y-101791394D01*
X103923531Y-101749470D01*
X103852014Y-101730307D01*
X103852013Y-101730306D01*
X103852010Y-101730306D01*
X103618020Y-101699501D01*
X103618017Y-101699500D01*
X103618011Y-101699500D01*
X103381989Y-101699500D01*
X103381983Y-101699500D01*
X103381979Y-101699501D01*
X103147989Y-101730306D01*
X102920006Y-101791394D01*
X102701954Y-101881714D01*
X102701943Y-101881719D01*
X102497545Y-101999730D01*
X102310302Y-102143406D01*
X102310295Y-102143412D01*
X102143412Y-102310295D01*
X102143406Y-102310302D01*
X101999730Y-102497545D01*
X101881719Y-102701943D01*
X101881714Y-102701954D01*
X101791394Y-102920006D01*
X101730306Y-103147989D01*
X101699501Y-103381979D01*
X101699500Y-103381995D01*
X100300500Y-103381995D01*
X100300500Y-102004427D01*
X100300816Y-101995581D01*
X100308959Y-101881719D01*
X100317165Y-101766973D01*
X100319683Y-101749470D01*
X100367457Y-101529852D01*
X100372434Y-101512901D01*
X100450986Y-101302295D01*
X100458325Y-101286226D01*
X100566043Y-101088955D01*
X100575599Y-101074086D01*
X100710293Y-100894156D01*
X100721867Y-100880799D01*
X100880799Y-100721867D01*
X100894156Y-100710293D01*
X101074086Y-100575599D01*
X101088955Y-100566043D01*
X101286226Y-100458325D01*
X101302295Y-100450986D01*
X101512901Y-100372434D01*
X101529852Y-100367457D01*
X101749476Y-100319681D01*
X101766973Y-100317165D01*
X101995582Y-100300816D01*
X102004428Y-100300500D01*
X102047594Y-100300500D01*
X185952405Y-100300500D01*
X185995572Y-100300500D01*
X186004418Y-100300816D01*
G37*
%TD.AperFunction*%
%TD*%
M02*
