%TF.GenerationSoftware,KiCad,Pcbnew,9.0.9*%
%TF.CreationDate,2026-10-10T07:59:19+00:00*%
%TF.ProjectId,AP_AO4,41505f41-4f34-42e6-9b69-6361645f7063,rev?*%
%TF.SameCoordinates,Original*%
%TF.FileFunction,Legend,Bot*%
%TF.FilePolarity,Positive*%
%FSLAX46Y46*%
G04 Gerber Fmt 4.6, Leading zero omitted, Abs format (unit mm)*
G04 Created by KiCad (PCBNEW 9.0.9) date 2026-10-10 07:59:19*
%MOMM*%
%LPD*%
G01*
G04 APERTURE LIST*
G04 Aperture macros list*
%AMRoundRect*
0 Rectangle with rounded corners*
0 $1 Rounding radius*
0 $2 $3 $4 $5 $6 $7 $8 $9 X,Y pos of 4 corners*
0 Add a 4 corners polygon primitive as box body*
4,1,4,$2,$3,$4,$5,$6,$7,$8,$9,$2,$3,0*
0 Add four circle primitives for the rounded corners*
1,1,$1+$1,$2,$3*
1,1,$1+$1,$4,$5*
1,1,$1+$1,$6,$7*
1,1,$1+$1,$8,$9*
0 Add four rect primitives between the rounded corners*
20,1,$1+$1,$2,$3,$4,$5,0*
20,1,$1+$1,$4,$5,$6,$7,0*
20,1,$1+$1,$6,$7,$8,$9,0*
20,1,$1+$1,$8,$9,$2,$3,0*%
G04 Aperture macros list end*
%ADD10C,0.120000*%
%ADD11C,0.150000*%
%ADD12C,3.200000*%
%ADD13RoundRect,0.250001X-1.099999X-1.099999X1.099999X-1.099999X1.099999X1.099999X-1.099999X1.099999X0*%
%ADD14C,2.700000*%
%ADD15RoundRect,0.250000X-0.600000X-0.725000X0.600000X-0.725000X0.600000X0.725000X-0.600000X0.725000X0*%
%ADD16O,1.700000X1.950000*%
G04 APERTURE END LIST*
D10*
X161866669Y-153163855D02*
X162323812Y-153163855D01*
X162095240Y-153163855D02*
X162095240Y-152363855D01*
X162095240Y-152363855D02*
X162171431Y-152478140D01*
X162171431Y-152478140D02*
X162247621Y-152554331D01*
X162247621Y-152554331D02*
X162323812Y-152592426D01*
X160914287Y-152859093D02*
X160304764Y-152859093D01*
X160609525Y-153163855D02*
X160609525Y-152554331D01*
X159961907Y-152440045D02*
X159923811Y-152401950D01*
X159923811Y-152401950D02*
X159847621Y-152363855D01*
X159847621Y-152363855D02*
X159657145Y-152363855D01*
X159657145Y-152363855D02*
X159580954Y-152401950D01*
X159580954Y-152401950D02*
X159542859Y-152440045D01*
X159542859Y-152440045D02*
X159504764Y-152516236D01*
X159504764Y-152516236D02*
X159504764Y-152592426D01*
X159504764Y-152592426D02*
X159542859Y-152706712D01*
X159542859Y-152706712D02*
X160000002Y-153163855D01*
X160000002Y-153163855D02*
X159504764Y-153163855D01*
X158819049Y-152630521D02*
X158819049Y-153163855D01*
X159009525Y-152325760D02*
X159200002Y-152897188D01*
X159200002Y-152897188D02*
X158704763Y-152897188D01*
X157219049Y-152440045D02*
X157180953Y-152401950D01*
X157180953Y-152401950D02*
X157104763Y-152363855D01*
X157104763Y-152363855D02*
X156914287Y-152363855D01*
X156914287Y-152363855D02*
X156838096Y-152401950D01*
X156838096Y-152401950D02*
X156800001Y-152440045D01*
X156800001Y-152440045D02*
X156761906Y-152516236D01*
X156761906Y-152516236D02*
X156761906Y-152592426D01*
X156761906Y-152592426D02*
X156800001Y-152706712D01*
X156800001Y-152706712D02*
X157257144Y-153163855D01*
X157257144Y-153163855D02*
X156761906Y-153163855D01*
X155542858Y-152744807D02*
X155428572Y-152782902D01*
X155428572Y-152782902D02*
X155390477Y-152820998D01*
X155390477Y-152820998D02*
X155352381Y-152897188D01*
X155352381Y-152897188D02*
X155352381Y-153011474D01*
X155352381Y-153011474D02*
X155390477Y-153087664D01*
X155390477Y-153087664D02*
X155428572Y-153125760D01*
X155428572Y-153125760D02*
X155504762Y-153163855D01*
X155504762Y-153163855D02*
X155809524Y-153163855D01*
X155809524Y-153163855D02*
X155809524Y-152363855D01*
X155809524Y-152363855D02*
X155542858Y-152363855D01*
X155542858Y-152363855D02*
X155466667Y-152401950D01*
X155466667Y-152401950D02*
X155428572Y-152440045D01*
X155428572Y-152440045D02*
X155390477Y-152516236D01*
X155390477Y-152516236D02*
X155390477Y-152592426D01*
X155390477Y-152592426D02*
X155428572Y-152668617D01*
X155428572Y-152668617D02*
X155466667Y-152706712D01*
X155466667Y-152706712D02*
X155542858Y-152744807D01*
X155542858Y-152744807D02*
X155809524Y-152744807D01*
X154857143Y-152363855D02*
X154704762Y-152363855D01*
X154704762Y-152363855D02*
X154628572Y-152401950D01*
X154628572Y-152401950D02*
X154552381Y-152478140D01*
X154552381Y-152478140D02*
X154514286Y-152630521D01*
X154514286Y-152630521D02*
X154514286Y-152897188D01*
X154514286Y-152897188D02*
X154552381Y-153049569D01*
X154552381Y-153049569D02*
X154628572Y-153125760D01*
X154628572Y-153125760D02*
X154704762Y-153163855D01*
X154704762Y-153163855D02*
X154857143Y-153163855D01*
X154857143Y-153163855D02*
X154933334Y-153125760D01*
X154933334Y-153125760D02*
X155009524Y-153049569D01*
X155009524Y-153049569D02*
X155047620Y-152897188D01*
X155047620Y-152897188D02*
X155047620Y-152630521D01*
X155047620Y-152630521D02*
X155009524Y-152478140D01*
X155009524Y-152478140D02*
X154933334Y-152401950D01*
X154933334Y-152401950D02*
X154857143Y-152363855D01*
X153904763Y-152744807D02*
X153790477Y-152782902D01*
X153790477Y-152782902D02*
X153752382Y-152820998D01*
X153752382Y-152820998D02*
X153714286Y-152897188D01*
X153714286Y-152897188D02*
X153714286Y-153011474D01*
X153714286Y-153011474D02*
X153752382Y-153087664D01*
X153752382Y-153087664D02*
X153790477Y-153125760D01*
X153790477Y-153125760D02*
X153866667Y-153163855D01*
X153866667Y-153163855D02*
X154171429Y-153163855D01*
X154171429Y-153163855D02*
X154171429Y-152363855D01*
X154171429Y-152363855D02*
X153904763Y-152363855D01*
X153904763Y-152363855D02*
X153828572Y-152401950D01*
X153828572Y-152401950D02*
X153790477Y-152440045D01*
X153790477Y-152440045D02*
X153752382Y-152516236D01*
X153752382Y-152516236D02*
X153752382Y-152592426D01*
X153752382Y-152592426D02*
X153790477Y-152668617D01*
X153790477Y-152668617D02*
X153828572Y-152706712D01*
X153828572Y-152706712D02*
X153904763Y-152744807D01*
X153904763Y-152744807D02*
X154171429Y-152744807D01*
X153371429Y-153163855D02*
X153371429Y-152363855D01*
X152990477Y-153163855D02*
X152990477Y-152363855D01*
X152990477Y-152363855D02*
X152533334Y-153163855D01*
X152533334Y-153163855D02*
X152533334Y-152363855D01*
X152190478Y-152935283D02*
X151809525Y-152935283D01*
X152266668Y-153163855D02*
X152000001Y-152363855D01*
X152000001Y-152363855D02*
X151733335Y-153163855D01*
X150323811Y-152363855D02*
X149828573Y-152363855D01*
X149828573Y-152363855D02*
X150095239Y-152668617D01*
X150095239Y-152668617D02*
X149980954Y-152668617D01*
X149980954Y-152668617D02*
X149904763Y-152706712D01*
X149904763Y-152706712D02*
X149866668Y-152744807D01*
X149866668Y-152744807D02*
X149828573Y-152820998D01*
X149828573Y-152820998D02*
X149828573Y-153011474D01*
X149828573Y-153011474D02*
X149866668Y-153087664D01*
X149866668Y-153087664D02*
X149904763Y-153125760D01*
X149904763Y-153125760D02*
X149980954Y-153163855D01*
X149980954Y-153163855D02*
X150209525Y-153163855D01*
X150209525Y-153163855D02*
X150285716Y-153125760D01*
X150285716Y-153125760D02*
X150323811Y-153087664D01*
X148723810Y-152363855D02*
X148647620Y-152363855D01*
X148647620Y-152363855D02*
X148571429Y-152401950D01*
X148571429Y-152401950D02*
X148533334Y-152440045D01*
X148533334Y-152440045D02*
X148495239Y-152516236D01*
X148495239Y-152516236D02*
X148457144Y-152668617D01*
X148457144Y-152668617D02*
X148457144Y-152859093D01*
X148457144Y-152859093D02*
X148495239Y-153011474D01*
X148495239Y-153011474D02*
X148533334Y-153087664D01*
X148533334Y-153087664D02*
X148571429Y-153125760D01*
X148571429Y-153125760D02*
X148647620Y-153163855D01*
X148647620Y-153163855D02*
X148723810Y-153163855D01*
X148723810Y-153163855D02*
X148800001Y-153125760D01*
X148800001Y-153125760D02*
X148838096Y-153087664D01*
X148838096Y-153087664D02*
X148876191Y-153011474D01*
X148876191Y-153011474D02*
X148914287Y-152859093D01*
X148914287Y-152859093D02*
X148914287Y-152668617D01*
X148914287Y-152668617D02*
X148876191Y-152516236D01*
X148876191Y-152516236D02*
X148838096Y-152440045D01*
X148838096Y-152440045D02*
X148800001Y-152401950D01*
X148800001Y-152401950D02*
X148723810Y-152363855D01*
X148114286Y-152859093D02*
X147504763Y-152859093D01*
X146704763Y-153163855D02*
X147161906Y-153163855D01*
X146933334Y-153163855D02*
X146933334Y-152363855D01*
X146933334Y-152363855D02*
X147009525Y-152478140D01*
X147009525Y-152478140D02*
X147085715Y-152554331D01*
X147085715Y-152554331D02*
X147161906Y-152592426D01*
X146209524Y-152363855D02*
X146133334Y-152363855D01*
X146133334Y-152363855D02*
X146057143Y-152401950D01*
X146057143Y-152401950D02*
X146019048Y-152440045D01*
X146019048Y-152440045D02*
X145980953Y-152516236D01*
X145980953Y-152516236D02*
X145942858Y-152668617D01*
X145942858Y-152668617D02*
X145942858Y-152859093D01*
X145942858Y-152859093D02*
X145980953Y-153011474D01*
X145980953Y-153011474D02*
X146019048Y-153087664D01*
X146019048Y-153087664D02*
X146057143Y-153125760D01*
X146057143Y-153125760D02*
X146133334Y-153163855D01*
X146133334Y-153163855D02*
X146209524Y-153163855D01*
X146209524Y-153163855D02*
X146285715Y-153125760D01*
X146285715Y-153125760D02*
X146323810Y-153087664D01*
X146323810Y-153087664D02*
X146361905Y-153011474D01*
X146361905Y-153011474D02*
X146400001Y-152859093D01*
X146400001Y-152859093D02*
X146400001Y-152668617D01*
X146400001Y-152668617D02*
X146361905Y-152516236D01*
X146361905Y-152516236D02*
X146323810Y-152440045D01*
X146323810Y-152440045D02*
X146285715Y-152401950D01*
X146285715Y-152401950D02*
X146209524Y-152363855D01*
X145714286Y-152363855D02*
X145447619Y-153163855D01*
X145447619Y-153163855D02*
X145180953Y-152363855D01*
X143352381Y-152630521D02*
X143352381Y-153163855D01*
X143542857Y-152325760D02*
X143733334Y-152897188D01*
X143733334Y-152897188D02*
X143238095Y-152897188D01*
X142171428Y-152363855D02*
X142095238Y-152363855D01*
X142095238Y-152363855D02*
X142019047Y-152401950D01*
X142019047Y-152401950D02*
X141980952Y-152440045D01*
X141980952Y-152440045D02*
X141942857Y-152516236D01*
X141942857Y-152516236D02*
X141904762Y-152668617D01*
X141904762Y-152668617D02*
X141904762Y-152859093D01*
X141904762Y-152859093D02*
X141942857Y-153011474D01*
X141942857Y-153011474D02*
X141980952Y-153087664D01*
X141980952Y-153087664D02*
X142019047Y-153125760D01*
X142019047Y-153125760D02*
X142095238Y-153163855D01*
X142095238Y-153163855D02*
X142171428Y-153163855D01*
X142171428Y-153163855D02*
X142247619Y-153125760D01*
X142247619Y-153125760D02*
X142285714Y-153087664D01*
X142285714Y-153087664D02*
X142323809Y-153011474D01*
X142323809Y-153011474D02*
X142361905Y-152859093D01*
X142361905Y-152859093D02*
X142361905Y-152668617D01*
X142361905Y-152668617D02*
X142323809Y-152516236D01*
X142323809Y-152516236D02*
X142285714Y-152440045D01*
X142285714Y-152440045D02*
X142247619Y-152401950D01*
X142247619Y-152401950D02*
X142171428Y-152363855D01*
X141676190Y-152363855D02*
X141409523Y-153163855D01*
X141409523Y-153163855D02*
X141142857Y-152363855D01*
X140876190Y-153087664D02*
X140838095Y-153125760D01*
X140838095Y-153125760D02*
X140876190Y-153163855D01*
X140876190Y-153163855D02*
X140914286Y-153125760D01*
X140914286Y-153125760D02*
X140876190Y-153087664D01*
X140876190Y-153087664D02*
X140876190Y-153163855D01*
X139428571Y-153163855D02*
X139695238Y-152782902D01*
X139885714Y-153163855D02*
X139885714Y-152363855D01*
X139885714Y-152363855D02*
X139580952Y-152363855D01*
X139580952Y-152363855D02*
X139504762Y-152401950D01*
X139504762Y-152401950D02*
X139466667Y-152440045D01*
X139466667Y-152440045D02*
X139428571Y-152516236D01*
X139428571Y-152516236D02*
X139428571Y-152630521D01*
X139428571Y-152630521D02*
X139466667Y-152706712D01*
X139466667Y-152706712D02*
X139504762Y-152744807D01*
X139504762Y-152744807D02*
X139580952Y-152782902D01*
X139580952Y-152782902D02*
X139885714Y-152782902D01*
X138780952Y-153125760D02*
X138857143Y-153163855D01*
X138857143Y-153163855D02*
X139009524Y-153163855D01*
X139009524Y-153163855D02*
X139085714Y-153125760D01*
X139085714Y-153125760D02*
X139123810Y-153049569D01*
X139123810Y-153049569D02*
X139123810Y-152744807D01*
X139123810Y-152744807D02*
X139085714Y-152668617D01*
X139085714Y-152668617D02*
X139009524Y-152630521D01*
X139009524Y-152630521D02*
X138857143Y-152630521D01*
X138857143Y-152630521D02*
X138780952Y-152668617D01*
X138780952Y-152668617D02*
X138742857Y-152744807D01*
X138742857Y-152744807D02*
X138742857Y-152820998D01*
X138742857Y-152820998D02*
X139123810Y-152897188D01*
X138057143Y-153163855D02*
X138057143Y-152363855D01*
X138057143Y-153125760D02*
X138133334Y-153163855D01*
X138133334Y-153163855D02*
X138285715Y-153163855D01*
X138285715Y-153163855D02*
X138361905Y-153125760D01*
X138361905Y-153125760D02*
X138400000Y-153087664D01*
X138400000Y-153087664D02*
X138438096Y-153011474D01*
X138438096Y-153011474D02*
X138438096Y-152782902D01*
X138438096Y-152782902D02*
X138400000Y-152706712D01*
X138400000Y-152706712D02*
X138361905Y-152668617D01*
X138361905Y-152668617D02*
X138285715Y-152630521D01*
X138285715Y-152630521D02*
X138133334Y-152630521D01*
X138133334Y-152630521D02*
X138057143Y-152668617D01*
X137676190Y-153087664D02*
X137638095Y-153125760D01*
X137638095Y-153125760D02*
X137676190Y-153163855D01*
X137676190Y-153163855D02*
X137714286Y-153125760D01*
X137714286Y-153125760D02*
X137676190Y-153087664D01*
X137676190Y-153087664D02*
X137676190Y-153163855D01*
X137676190Y-152668617D02*
X137638095Y-152706712D01*
X137638095Y-152706712D02*
X137676190Y-152744807D01*
X137676190Y-152744807D02*
X137714286Y-152706712D01*
X137714286Y-152706712D02*
X137676190Y-152668617D01*
X137676190Y-152668617D02*
X137676190Y-152744807D01*
X136723810Y-153125760D02*
X136647619Y-153163855D01*
X136647619Y-153163855D02*
X136495238Y-153163855D01*
X136495238Y-153163855D02*
X136419048Y-153125760D01*
X136419048Y-153125760D02*
X136380952Y-153049569D01*
X136380952Y-153049569D02*
X136380952Y-153011474D01*
X136380952Y-153011474D02*
X136419048Y-152935283D01*
X136419048Y-152935283D02*
X136495238Y-152897188D01*
X136495238Y-152897188D02*
X136609524Y-152897188D01*
X136609524Y-152897188D02*
X136685714Y-152859093D01*
X136685714Y-152859093D02*
X136723810Y-152782902D01*
X136723810Y-152782902D02*
X136723810Y-152744807D01*
X136723810Y-152744807D02*
X136685714Y-152668617D01*
X136685714Y-152668617D02*
X136609524Y-152630521D01*
X136609524Y-152630521D02*
X136495238Y-152630521D01*
X136495238Y-152630521D02*
X136419048Y-152668617D01*
X135923810Y-153163855D02*
X136000000Y-153125760D01*
X136000000Y-153125760D02*
X136038095Y-153087664D01*
X136038095Y-153087664D02*
X136076191Y-153011474D01*
X136076191Y-153011474D02*
X136076191Y-152782902D01*
X136076191Y-152782902D02*
X136038095Y-152706712D01*
X136038095Y-152706712D02*
X136000000Y-152668617D01*
X136000000Y-152668617D02*
X135923810Y-152630521D01*
X135923810Y-152630521D02*
X135809524Y-152630521D01*
X135809524Y-152630521D02*
X135733333Y-152668617D01*
X135733333Y-152668617D02*
X135695238Y-152706712D01*
X135695238Y-152706712D02*
X135657143Y-152782902D01*
X135657143Y-152782902D02*
X135657143Y-153011474D01*
X135657143Y-153011474D02*
X135695238Y-153087664D01*
X135695238Y-153087664D02*
X135733333Y-153125760D01*
X135733333Y-153125760D02*
X135809524Y-153163855D01*
X135809524Y-153163855D02*
X135923810Y-153163855D01*
X135200000Y-153163855D02*
X135276190Y-153125760D01*
X135276190Y-153125760D02*
X135314285Y-153049569D01*
X135314285Y-153049569D02*
X135314285Y-152363855D01*
X134780952Y-153163855D02*
X134857142Y-153125760D01*
X134857142Y-153125760D02*
X134895237Y-153087664D01*
X134895237Y-153087664D02*
X134933333Y-153011474D01*
X134933333Y-153011474D02*
X134933333Y-152782902D01*
X134933333Y-152782902D02*
X134895237Y-152706712D01*
X134895237Y-152706712D02*
X134857142Y-152668617D01*
X134857142Y-152668617D02*
X134780952Y-152630521D01*
X134780952Y-152630521D02*
X134666666Y-152630521D01*
X134666666Y-152630521D02*
X134590475Y-152668617D01*
X134590475Y-152668617D02*
X134552380Y-152706712D01*
X134552380Y-152706712D02*
X134514285Y-152782902D01*
X134514285Y-152782902D02*
X134514285Y-153011474D01*
X134514285Y-153011474D02*
X134552380Y-153087664D01*
X134552380Y-153087664D02*
X134590475Y-153125760D01*
X134590475Y-153125760D02*
X134666666Y-153163855D01*
X134666666Y-153163855D02*
X134780952Y-153163855D01*
X133561903Y-152630521D02*
X133561903Y-153430521D01*
X133561903Y-152668617D02*
X133485713Y-152630521D01*
X133485713Y-152630521D02*
X133333332Y-152630521D01*
X133333332Y-152630521D02*
X133257141Y-152668617D01*
X133257141Y-152668617D02*
X133219046Y-152706712D01*
X133219046Y-152706712D02*
X133180951Y-152782902D01*
X133180951Y-152782902D02*
X133180951Y-153011474D01*
X133180951Y-153011474D02*
X133219046Y-153087664D01*
X133219046Y-153087664D02*
X133257141Y-153125760D01*
X133257141Y-153125760D02*
X133333332Y-153163855D01*
X133333332Y-153163855D02*
X133485713Y-153163855D01*
X133485713Y-153163855D02*
X133561903Y-153125760D01*
X132723808Y-153163855D02*
X132799998Y-153125760D01*
X132799998Y-153125760D02*
X132838093Y-153087664D01*
X132838093Y-153087664D02*
X132876189Y-153011474D01*
X132876189Y-153011474D02*
X132876189Y-152782902D01*
X132876189Y-152782902D02*
X132838093Y-152706712D01*
X132838093Y-152706712D02*
X132799998Y-152668617D01*
X132799998Y-152668617D02*
X132723808Y-152630521D01*
X132723808Y-152630521D02*
X132609522Y-152630521D01*
X132609522Y-152630521D02*
X132533331Y-152668617D01*
X132533331Y-152668617D02*
X132495236Y-152706712D01*
X132495236Y-152706712D02*
X132457141Y-152782902D01*
X132457141Y-152782902D02*
X132457141Y-153011474D01*
X132457141Y-153011474D02*
X132495236Y-153087664D01*
X132495236Y-153087664D02*
X132533331Y-153125760D01*
X132533331Y-153125760D02*
X132609522Y-153163855D01*
X132609522Y-153163855D02*
X132723808Y-153163855D01*
X132114283Y-153163855D02*
X132114283Y-152630521D01*
X132114283Y-152782902D02*
X132076188Y-152706712D01*
X132076188Y-152706712D02*
X132038093Y-152668617D01*
X132038093Y-152668617D02*
X131961902Y-152630521D01*
X131961902Y-152630521D02*
X131885712Y-152630521D01*
X130666664Y-153125760D02*
X130742855Y-153163855D01*
X130742855Y-153163855D02*
X130895236Y-153163855D01*
X130895236Y-153163855D02*
X130971426Y-153125760D01*
X130971426Y-153125760D02*
X131009521Y-153087664D01*
X131009521Y-153087664D02*
X131047617Y-153011474D01*
X131047617Y-153011474D02*
X131047617Y-152782902D01*
X131047617Y-152782902D02*
X131009521Y-152706712D01*
X131009521Y-152706712D02*
X130971426Y-152668617D01*
X130971426Y-152668617D02*
X130895236Y-152630521D01*
X130895236Y-152630521D02*
X130742855Y-152630521D01*
X130742855Y-152630521D02*
X130666664Y-152668617D01*
X130209522Y-153163855D02*
X130285712Y-153125760D01*
X130285712Y-153125760D02*
X130323807Y-153087664D01*
X130323807Y-153087664D02*
X130361903Y-153011474D01*
X130361903Y-153011474D02*
X130361903Y-152782902D01*
X130361903Y-152782902D02*
X130323807Y-152706712D01*
X130323807Y-152706712D02*
X130285712Y-152668617D01*
X130285712Y-152668617D02*
X130209522Y-152630521D01*
X130209522Y-152630521D02*
X130095236Y-152630521D01*
X130095236Y-152630521D02*
X130019045Y-152668617D01*
X130019045Y-152668617D02*
X129980950Y-152706712D01*
X129980950Y-152706712D02*
X129942855Y-152782902D01*
X129942855Y-152782902D02*
X129942855Y-153011474D01*
X129942855Y-153011474D02*
X129980950Y-153087664D01*
X129980950Y-153087664D02*
X130019045Y-153125760D01*
X130019045Y-153125760D02*
X130095236Y-153163855D01*
X130095236Y-153163855D02*
X130209522Y-153163855D01*
X129599997Y-152630521D02*
X129599997Y-153163855D01*
X129599997Y-152706712D02*
X129561902Y-152668617D01*
X129561902Y-152668617D02*
X129485712Y-152630521D01*
X129485712Y-152630521D02*
X129371426Y-152630521D01*
X129371426Y-152630521D02*
X129295235Y-152668617D01*
X129295235Y-152668617D02*
X129257140Y-152744807D01*
X129257140Y-152744807D02*
X129257140Y-153163855D01*
X128990473Y-152630521D02*
X128685711Y-152630521D01*
X128876187Y-152363855D02*
X128876187Y-153049569D01*
X128876187Y-153049569D02*
X128838092Y-153125760D01*
X128838092Y-153125760D02*
X128761902Y-153163855D01*
X128761902Y-153163855D02*
X128685711Y-153163855D01*
X128076187Y-153163855D02*
X128076187Y-152744807D01*
X128076187Y-152744807D02*
X128114282Y-152668617D01*
X128114282Y-152668617D02*
X128190473Y-152630521D01*
X128190473Y-152630521D02*
X128342854Y-152630521D01*
X128342854Y-152630521D02*
X128419044Y-152668617D01*
X128076187Y-153125760D02*
X128152378Y-153163855D01*
X128152378Y-153163855D02*
X128342854Y-153163855D01*
X128342854Y-153163855D02*
X128419044Y-153125760D01*
X128419044Y-153125760D02*
X128457140Y-153049569D01*
X128457140Y-153049569D02*
X128457140Y-152973379D01*
X128457140Y-152973379D02*
X128419044Y-152897188D01*
X128419044Y-152897188D02*
X128342854Y-152859093D01*
X128342854Y-152859093D02*
X128152378Y-152859093D01*
X128152378Y-152859093D02*
X128076187Y-152820998D01*
X127352377Y-153125760D02*
X127428568Y-153163855D01*
X127428568Y-153163855D02*
X127580949Y-153163855D01*
X127580949Y-153163855D02*
X127657139Y-153125760D01*
X127657139Y-153125760D02*
X127695234Y-153087664D01*
X127695234Y-153087664D02*
X127733330Y-153011474D01*
X127733330Y-153011474D02*
X127733330Y-152782902D01*
X127733330Y-152782902D02*
X127695234Y-152706712D01*
X127695234Y-152706712D02*
X127657139Y-152668617D01*
X127657139Y-152668617D02*
X127580949Y-152630521D01*
X127580949Y-152630521D02*
X127428568Y-152630521D01*
X127428568Y-152630521D02*
X127352377Y-152668617D01*
X127123806Y-152630521D02*
X126819044Y-152630521D01*
X127009520Y-152363855D02*
X127009520Y-153049569D01*
X127009520Y-153049569D02*
X126971425Y-153125760D01*
X126971425Y-153125760D02*
X126895235Y-153163855D01*
X126895235Y-153163855D02*
X126819044Y-153163855D01*
X126438092Y-153163855D02*
X126514282Y-153125760D01*
X126514282Y-153125760D02*
X126552377Y-153087664D01*
X126552377Y-153087664D02*
X126590473Y-153011474D01*
X126590473Y-153011474D02*
X126590473Y-152782902D01*
X126590473Y-152782902D02*
X126552377Y-152706712D01*
X126552377Y-152706712D02*
X126514282Y-152668617D01*
X126514282Y-152668617D02*
X126438092Y-152630521D01*
X126438092Y-152630521D02*
X126323806Y-152630521D01*
X126323806Y-152630521D02*
X126247615Y-152668617D01*
X126247615Y-152668617D02*
X126209520Y-152706712D01*
X126209520Y-152706712D02*
X126171425Y-152782902D01*
X126171425Y-152782902D02*
X126171425Y-153011474D01*
X126171425Y-153011474D02*
X126209520Y-153087664D01*
X126209520Y-153087664D02*
X126247615Y-153125760D01*
X126247615Y-153125760D02*
X126323806Y-153163855D01*
X126323806Y-153163855D02*
X126438092Y-153163855D01*
X125828567Y-153163855D02*
X125828567Y-152630521D01*
X125828567Y-152782902D02*
X125790472Y-152706712D01*
X125790472Y-152706712D02*
X125752377Y-152668617D01*
X125752377Y-152668617D02*
X125676186Y-152630521D01*
X125676186Y-152630521D02*
X125599996Y-152630521D01*
X178800000Y-112963855D02*
X178800000Y-112163855D01*
X178800000Y-112163855D02*
X178609524Y-112163855D01*
X178609524Y-112163855D02*
X178495238Y-112201950D01*
X178495238Y-112201950D02*
X178419048Y-112278140D01*
X178419048Y-112278140D02*
X178380953Y-112354331D01*
X178380953Y-112354331D02*
X178342857Y-112506712D01*
X178342857Y-112506712D02*
X178342857Y-112620998D01*
X178342857Y-112620998D02*
X178380953Y-112773379D01*
X178380953Y-112773379D02*
X178419048Y-112849569D01*
X178419048Y-112849569D02*
X178495238Y-112925760D01*
X178495238Y-112925760D02*
X178609524Y-112963855D01*
X178609524Y-112963855D02*
X178800000Y-112963855D01*
X178000000Y-112963855D02*
X178000000Y-112430521D01*
X178000000Y-112163855D02*
X178038096Y-112201950D01*
X178038096Y-112201950D02*
X178000000Y-112240045D01*
X178000000Y-112240045D02*
X177961905Y-112201950D01*
X177961905Y-112201950D02*
X178000000Y-112163855D01*
X178000000Y-112163855D02*
X178000000Y-112240045D01*
X177619048Y-112963855D02*
X177619048Y-112430521D01*
X177619048Y-112582902D02*
X177580953Y-112506712D01*
X177580953Y-112506712D02*
X177542858Y-112468617D01*
X177542858Y-112468617D02*
X177466667Y-112430521D01*
X177466667Y-112430521D02*
X177390477Y-112430521D01*
X176819048Y-112925760D02*
X176895239Y-112963855D01*
X176895239Y-112963855D02*
X177047620Y-112963855D01*
X177047620Y-112963855D02*
X177123810Y-112925760D01*
X177123810Y-112925760D02*
X177161906Y-112849569D01*
X177161906Y-112849569D02*
X177161906Y-112544807D01*
X177161906Y-112544807D02*
X177123810Y-112468617D01*
X177123810Y-112468617D02*
X177047620Y-112430521D01*
X177047620Y-112430521D02*
X176895239Y-112430521D01*
X176895239Y-112430521D02*
X176819048Y-112468617D01*
X176819048Y-112468617D02*
X176780953Y-112544807D01*
X176780953Y-112544807D02*
X176780953Y-112620998D01*
X176780953Y-112620998D02*
X177161906Y-112697188D01*
X176095239Y-112925760D02*
X176171430Y-112963855D01*
X176171430Y-112963855D02*
X176323811Y-112963855D01*
X176323811Y-112963855D02*
X176400001Y-112925760D01*
X176400001Y-112925760D02*
X176438096Y-112887664D01*
X176438096Y-112887664D02*
X176476192Y-112811474D01*
X176476192Y-112811474D02*
X176476192Y-112582902D01*
X176476192Y-112582902D02*
X176438096Y-112506712D01*
X176438096Y-112506712D02*
X176400001Y-112468617D01*
X176400001Y-112468617D02*
X176323811Y-112430521D01*
X176323811Y-112430521D02*
X176171430Y-112430521D01*
X176171430Y-112430521D02*
X176095239Y-112468617D01*
X175409525Y-112925760D02*
X175485716Y-112963855D01*
X175485716Y-112963855D02*
X175638097Y-112963855D01*
X175638097Y-112963855D02*
X175714287Y-112925760D01*
X175714287Y-112925760D02*
X175752382Y-112887664D01*
X175752382Y-112887664D02*
X175790478Y-112811474D01*
X175790478Y-112811474D02*
X175790478Y-112582902D01*
X175790478Y-112582902D02*
X175752382Y-112506712D01*
X175752382Y-112506712D02*
X175714287Y-112468617D01*
X175714287Y-112468617D02*
X175638097Y-112430521D01*
X175638097Y-112430521D02*
X175485716Y-112430521D01*
X175485716Y-112430521D02*
X175409525Y-112468617D01*
X175066668Y-112963855D02*
X175066668Y-112430521D01*
X175066668Y-112163855D02*
X175104764Y-112201950D01*
X175104764Y-112201950D02*
X175066668Y-112240045D01*
X175066668Y-112240045D02*
X175028573Y-112201950D01*
X175028573Y-112201950D02*
X175066668Y-112163855D01*
X175066668Y-112163855D02*
X175066668Y-112240045D01*
X174571431Y-112963855D02*
X174647621Y-112925760D01*
X174647621Y-112925760D02*
X174685716Y-112887664D01*
X174685716Y-112887664D02*
X174723812Y-112811474D01*
X174723812Y-112811474D02*
X174723812Y-112582902D01*
X174723812Y-112582902D02*
X174685716Y-112506712D01*
X174685716Y-112506712D02*
X174647621Y-112468617D01*
X174647621Y-112468617D02*
X174571431Y-112430521D01*
X174571431Y-112430521D02*
X174457145Y-112430521D01*
X174457145Y-112430521D02*
X174380954Y-112468617D01*
X174380954Y-112468617D02*
X174342859Y-112506712D01*
X174342859Y-112506712D02*
X174304764Y-112582902D01*
X174304764Y-112582902D02*
X174304764Y-112811474D01*
X174304764Y-112811474D02*
X174342859Y-112887664D01*
X174342859Y-112887664D02*
X174380954Y-112925760D01*
X174380954Y-112925760D02*
X174457145Y-112963855D01*
X174457145Y-112963855D02*
X174571431Y-112963855D01*
X174419050Y-112125760D02*
X174533335Y-112240045D01*
X173961906Y-112430521D02*
X173961906Y-112963855D01*
X173961906Y-112506712D02*
X173923811Y-112468617D01*
X173923811Y-112468617D02*
X173847621Y-112430521D01*
X173847621Y-112430521D02*
X173733335Y-112430521D01*
X173733335Y-112430521D02*
X173657144Y-112468617D01*
X173657144Y-112468617D02*
X173619049Y-112544807D01*
X173619049Y-112544807D02*
X173619049Y-112963855D01*
X173238096Y-112887664D02*
X173200001Y-112925760D01*
X173200001Y-112925760D02*
X173238096Y-112963855D01*
X173238096Y-112963855D02*
X173276192Y-112925760D01*
X173276192Y-112925760D02*
X173238096Y-112887664D01*
X173238096Y-112887664D02*
X173238096Y-112963855D01*
X173238096Y-112468617D02*
X173200001Y-112506712D01*
X173200001Y-112506712D02*
X173238096Y-112544807D01*
X173238096Y-112544807D02*
X173276192Y-112506712D01*
X173276192Y-112506712D02*
X173238096Y-112468617D01*
X173238096Y-112468617D02*
X173238096Y-112544807D01*
X172019049Y-112163855D02*
X172019049Y-112735283D01*
X172019049Y-112735283D02*
X172057144Y-112849569D01*
X172057144Y-112849569D02*
X172133335Y-112925760D01*
X172133335Y-112925760D02*
X172247620Y-112963855D01*
X172247620Y-112963855D02*
X172323811Y-112963855D01*
X171638096Y-112963855D02*
X171638096Y-112163855D01*
X171638096Y-112163855D02*
X171333334Y-112163855D01*
X171333334Y-112163855D02*
X171257144Y-112201950D01*
X171257144Y-112201950D02*
X171219049Y-112240045D01*
X171219049Y-112240045D02*
X171180953Y-112316236D01*
X171180953Y-112316236D02*
X171180953Y-112430521D01*
X171180953Y-112430521D02*
X171219049Y-112506712D01*
X171219049Y-112506712D02*
X171257144Y-112544807D01*
X171257144Y-112544807D02*
X171333334Y-112582902D01*
X171333334Y-112582902D02*
X171638096Y-112582902D01*
X170419049Y-112963855D02*
X170876192Y-112963855D01*
X170647620Y-112963855D02*
X170647620Y-112163855D01*
X170647620Y-112163855D02*
X170723811Y-112278140D01*
X170723811Y-112278140D02*
X170800001Y-112354331D01*
X170800001Y-112354331D02*
X170876192Y-112392426D01*
X169466667Y-112659093D02*
X168857144Y-112659093D01*
X169161905Y-112963855D02*
X169161905Y-112354331D01*
X168057144Y-112963855D02*
X168514287Y-112963855D01*
X168285715Y-112963855D02*
X168285715Y-112163855D01*
X168285715Y-112163855D02*
X168361906Y-112278140D01*
X168361906Y-112278140D02*
X168438096Y-112354331D01*
X168438096Y-112354331D02*
X168514287Y-112392426D01*
X166266667Y-112163855D02*
X166266667Y-112735283D01*
X166266667Y-112735283D02*
X166304762Y-112849569D01*
X166304762Y-112849569D02*
X166380953Y-112925760D01*
X166380953Y-112925760D02*
X166495238Y-112963855D01*
X166495238Y-112963855D02*
X166571429Y-112963855D01*
X165885714Y-112963855D02*
X165885714Y-112163855D01*
X165885714Y-112163855D02*
X165580952Y-112163855D01*
X165580952Y-112163855D02*
X165504762Y-112201950D01*
X165504762Y-112201950D02*
X165466667Y-112240045D01*
X165466667Y-112240045D02*
X165428571Y-112316236D01*
X165428571Y-112316236D02*
X165428571Y-112430521D01*
X165428571Y-112430521D02*
X165466667Y-112506712D01*
X165466667Y-112506712D02*
X165504762Y-112544807D01*
X165504762Y-112544807D02*
X165580952Y-112582902D01*
X165580952Y-112582902D02*
X165885714Y-112582902D01*
X165123810Y-112240045D02*
X165085714Y-112201950D01*
X165085714Y-112201950D02*
X165009524Y-112163855D01*
X165009524Y-112163855D02*
X164819048Y-112163855D01*
X164819048Y-112163855D02*
X164742857Y-112201950D01*
X164742857Y-112201950D02*
X164704762Y-112240045D01*
X164704762Y-112240045D02*
X164666667Y-112316236D01*
X164666667Y-112316236D02*
X164666667Y-112392426D01*
X164666667Y-112392426D02*
X164704762Y-112506712D01*
X164704762Y-112506712D02*
X165161905Y-112963855D01*
X165161905Y-112963855D02*
X164666667Y-112963855D01*
X163714285Y-112659093D02*
X163104762Y-112659093D01*
X163409523Y-112963855D02*
X163409523Y-112354331D01*
X162761905Y-112240045D02*
X162723809Y-112201950D01*
X162723809Y-112201950D02*
X162647619Y-112163855D01*
X162647619Y-112163855D02*
X162457143Y-112163855D01*
X162457143Y-112163855D02*
X162380952Y-112201950D01*
X162380952Y-112201950D02*
X162342857Y-112240045D01*
X162342857Y-112240045D02*
X162304762Y-112316236D01*
X162304762Y-112316236D02*
X162304762Y-112392426D01*
X162304762Y-112392426D02*
X162342857Y-112506712D01*
X162342857Y-112506712D02*
X162800000Y-112963855D01*
X162800000Y-112963855D02*
X162304762Y-112963855D01*
X160514285Y-113268617D02*
X160552380Y-113230521D01*
X160552380Y-113230521D02*
X160628571Y-113116236D01*
X160628571Y-113116236D02*
X160666666Y-113040045D01*
X160666666Y-113040045D02*
X160704761Y-112925760D01*
X160704761Y-112925760D02*
X160742856Y-112735283D01*
X160742856Y-112735283D02*
X160742856Y-112582902D01*
X160742856Y-112582902D02*
X160704761Y-112392426D01*
X160704761Y-112392426D02*
X160666666Y-112278140D01*
X160666666Y-112278140D02*
X160628571Y-112201950D01*
X160628571Y-112201950D02*
X160552380Y-112087664D01*
X160552380Y-112087664D02*
X160514285Y-112049569D01*
X160057142Y-112163855D02*
X159980952Y-112163855D01*
X159980952Y-112163855D02*
X159904761Y-112201950D01*
X159904761Y-112201950D02*
X159866666Y-112240045D01*
X159866666Y-112240045D02*
X159828571Y-112316236D01*
X159828571Y-112316236D02*
X159790476Y-112468617D01*
X159790476Y-112468617D02*
X159790476Y-112659093D01*
X159790476Y-112659093D02*
X159828571Y-112811474D01*
X159828571Y-112811474D02*
X159866666Y-112887664D01*
X159866666Y-112887664D02*
X159904761Y-112925760D01*
X159904761Y-112925760D02*
X159980952Y-112963855D01*
X159980952Y-112963855D02*
X160057142Y-112963855D01*
X160057142Y-112963855D02*
X160133333Y-112925760D01*
X160133333Y-112925760D02*
X160171428Y-112887664D01*
X160171428Y-112887664D02*
X160209523Y-112811474D01*
X160209523Y-112811474D02*
X160247619Y-112659093D01*
X160247619Y-112659093D02*
X160247619Y-112468617D01*
X160247619Y-112468617D02*
X160209523Y-112316236D01*
X160209523Y-112316236D02*
X160171428Y-112240045D01*
X160171428Y-112240045D02*
X160133333Y-112201950D01*
X160133333Y-112201950D02*
X160057142Y-112163855D01*
X159523809Y-112963855D02*
X159104761Y-112430521D01*
X159523809Y-112430521D02*
X159104761Y-112963855D01*
X158457142Y-112430521D02*
X158457142Y-112963855D01*
X158647618Y-112125760D02*
X158838095Y-112697188D01*
X158838095Y-112697188D02*
X158342856Y-112697188D01*
X157695237Y-112430521D02*
X157695237Y-112963855D01*
X157885713Y-112125760D02*
X158076190Y-112697188D01*
X158076190Y-112697188D02*
X157580951Y-112697188D01*
X157276189Y-112659093D02*
X156666666Y-112659093D01*
X156133332Y-112163855D02*
X156057142Y-112163855D01*
X156057142Y-112163855D02*
X155980951Y-112201950D01*
X155980951Y-112201950D02*
X155942856Y-112240045D01*
X155942856Y-112240045D02*
X155904761Y-112316236D01*
X155904761Y-112316236D02*
X155866666Y-112468617D01*
X155866666Y-112468617D02*
X155866666Y-112659093D01*
X155866666Y-112659093D02*
X155904761Y-112811474D01*
X155904761Y-112811474D02*
X155942856Y-112887664D01*
X155942856Y-112887664D02*
X155980951Y-112925760D01*
X155980951Y-112925760D02*
X156057142Y-112963855D01*
X156057142Y-112963855D02*
X156133332Y-112963855D01*
X156133332Y-112963855D02*
X156209523Y-112925760D01*
X156209523Y-112925760D02*
X156247618Y-112887664D01*
X156247618Y-112887664D02*
X156285713Y-112811474D01*
X156285713Y-112811474D02*
X156323809Y-112659093D01*
X156323809Y-112659093D02*
X156323809Y-112468617D01*
X156323809Y-112468617D02*
X156285713Y-112316236D01*
X156285713Y-112316236D02*
X156247618Y-112240045D01*
X156247618Y-112240045D02*
X156209523Y-112201950D01*
X156209523Y-112201950D02*
X156133332Y-112163855D01*
X155599999Y-112963855D02*
X155180951Y-112430521D01*
X155599999Y-112430521D02*
X155180951Y-112963855D01*
X154533332Y-112430521D02*
X154533332Y-112963855D01*
X154723808Y-112125760D02*
X154914285Y-112697188D01*
X154914285Y-112697188D02*
X154419046Y-112697188D01*
X154190475Y-112163855D02*
X153657141Y-112163855D01*
X153657141Y-112163855D02*
X153999999Y-112963855D01*
X153428570Y-113268617D02*
X153390475Y-113230521D01*
X153390475Y-113230521D02*
X153314284Y-113116236D01*
X153314284Y-113116236D02*
X153276189Y-113040045D01*
X153276189Y-113040045D02*
X153238094Y-112925760D01*
X153238094Y-112925760D02*
X153199998Y-112735283D01*
X153199998Y-112735283D02*
X153199998Y-112582902D01*
X153199998Y-112582902D02*
X153238094Y-112392426D01*
X153238094Y-112392426D02*
X153276189Y-112278140D01*
X153276189Y-112278140D02*
X153314284Y-112201950D01*
X153314284Y-112201950D02*
X153390475Y-112087664D01*
X153390475Y-112087664D02*
X153428570Y-112049569D01*
D11*
X167500002Y-154969104D02*
X167023812Y-154969104D01*
X167595240Y-155254819D02*
X167261907Y-154254819D01*
X167261907Y-154254819D02*
X166928574Y-155254819D01*
X166595240Y-155254819D02*
X166595240Y-154254819D01*
X166595240Y-154254819D02*
X166214288Y-154254819D01*
X166214288Y-154254819D02*
X166119050Y-154302438D01*
X166119050Y-154302438D02*
X166071431Y-154350057D01*
X166071431Y-154350057D02*
X166023812Y-154445295D01*
X166023812Y-154445295D02*
X166023812Y-154588152D01*
X166023812Y-154588152D02*
X166071431Y-154683390D01*
X166071431Y-154683390D02*
X166119050Y-154731009D01*
X166119050Y-154731009D02*
X166214288Y-154778628D01*
X166214288Y-154778628D02*
X166595240Y-154778628D01*
X164833335Y-154731009D02*
X164500002Y-154731009D01*
X164357145Y-155254819D02*
X164833335Y-155254819D01*
X164833335Y-155254819D02*
X164833335Y-154254819D01*
X164833335Y-154254819D02*
X164357145Y-154254819D01*
X163452383Y-155254819D02*
X163928573Y-155254819D01*
X163928573Y-155254819D02*
X163928573Y-154254819D01*
X163119049Y-154731009D02*
X162785716Y-154731009D01*
X162642859Y-155254819D02*
X163119049Y-155254819D01*
X163119049Y-155254819D02*
X163119049Y-154254819D01*
X163119049Y-154254819D02*
X162642859Y-154254819D01*
X161642859Y-155159580D02*
X161690478Y-155207200D01*
X161690478Y-155207200D02*
X161833335Y-155254819D01*
X161833335Y-155254819D02*
X161928573Y-155254819D01*
X161928573Y-155254819D02*
X162071430Y-155207200D01*
X162071430Y-155207200D02*
X162166668Y-155111961D01*
X162166668Y-155111961D02*
X162214287Y-155016723D01*
X162214287Y-155016723D02*
X162261906Y-154826247D01*
X162261906Y-154826247D02*
X162261906Y-154683390D01*
X162261906Y-154683390D02*
X162214287Y-154492914D01*
X162214287Y-154492914D02*
X162166668Y-154397676D01*
X162166668Y-154397676D02*
X162071430Y-154302438D01*
X162071430Y-154302438D02*
X161928573Y-154254819D01*
X161928573Y-154254819D02*
X161833335Y-154254819D01*
X161833335Y-154254819D02*
X161690478Y-154302438D01*
X161690478Y-154302438D02*
X161642859Y-154350057D01*
X161357144Y-154254819D02*
X160785716Y-154254819D01*
X161071430Y-155254819D02*
X161071430Y-154254819D01*
X159880954Y-155254819D02*
X160214287Y-154778628D01*
X160452382Y-155254819D02*
X160452382Y-154254819D01*
X160452382Y-154254819D02*
X160071430Y-154254819D01*
X160071430Y-154254819D02*
X159976192Y-154302438D01*
X159976192Y-154302438D02*
X159928573Y-154350057D01*
X159928573Y-154350057D02*
X159880954Y-154445295D01*
X159880954Y-154445295D02*
X159880954Y-154588152D01*
X159880954Y-154588152D02*
X159928573Y-154683390D01*
X159928573Y-154683390D02*
X159976192Y-154731009D01*
X159976192Y-154731009D02*
X160071430Y-154778628D01*
X160071430Y-154778628D02*
X160452382Y-154778628D01*
X159452382Y-155254819D02*
X159452382Y-154254819D01*
X158404764Y-155159580D02*
X158452383Y-155207200D01*
X158452383Y-155207200D02*
X158595240Y-155254819D01*
X158595240Y-155254819D02*
X158690478Y-155254819D01*
X158690478Y-155254819D02*
X158833335Y-155207200D01*
X158833335Y-155207200D02*
X158928573Y-155111961D01*
X158928573Y-155111961D02*
X158976192Y-155016723D01*
X158976192Y-155016723D02*
X159023811Y-154826247D01*
X159023811Y-154826247D02*
X159023811Y-154683390D01*
X159023811Y-154683390D02*
X158976192Y-154492914D01*
X158976192Y-154492914D02*
X158928573Y-154397676D01*
X158928573Y-154397676D02*
X158833335Y-154302438D01*
X158833335Y-154302438D02*
X158690478Y-154254819D01*
X158690478Y-154254819D02*
X158595240Y-154254819D01*
X158595240Y-154254819D02*
X158452383Y-154302438D01*
X158452383Y-154302438D02*
X158404764Y-154350057D01*
X156500001Y-154969104D02*
X156023811Y-154969104D01*
X156595239Y-155254819D02*
X156261906Y-154254819D01*
X156261906Y-154254819D02*
X155928573Y-155254819D01*
X155595239Y-155254819D02*
X155595239Y-154254819D01*
X155595239Y-154254819D02*
X155214287Y-154254819D01*
X155214287Y-154254819D02*
X155119049Y-154302438D01*
X155119049Y-154302438D02*
X155071430Y-154350057D01*
X155071430Y-154350057D02*
X155023811Y-154445295D01*
X155023811Y-154445295D02*
X155023811Y-154588152D01*
X155023811Y-154588152D02*
X155071430Y-154683390D01*
X155071430Y-154683390D02*
X155119049Y-154731009D01*
X155119049Y-154731009D02*
X155214287Y-154778628D01*
X155214287Y-154778628D02*
X155595239Y-154778628D01*
X153357144Y-155254819D02*
X153833334Y-155254819D01*
X153833334Y-155254819D02*
X153833334Y-154254819D01*
X153023810Y-155254819D02*
X153023810Y-154254819D01*
X152023811Y-154302438D02*
X152119049Y-154254819D01*
X152119049Y-154254819D02*
X152261906Y-154254819D01*
X152261906Y-154254819D02*
X152404763Y-154302438D01*
X152404763Y-154302438D02*
X152500001Y-154397676D01*
X152500001Y-154397676D02*
X152547620Y-154492914D01*
X152547620Y-154492914D02*
X152595239Y-154683390D01*
X152595239Y-154683390D02*
X152595239Y-154826247D01*
X152595239Y-154826247D02*
X152547620Y-155016723D01*
X152547620Y-155016723D02*
X152500001Y-155111961D01*
X152500001Y-155111961D02*
X152404763Y-155207200D01*
X152404763Y-155207200D02*
X152261906Y-155254819D01*
X152261906Y-155254819D02*
X152166668Y-155254819D01*
X152166668Y-155254819D02*
X152023811Y-155207200D01*
X152023811Y-155207200D02*
X151976192Y-155159580D01*
X151976192Y-155159580D02*
X151976192Y-154826247D01*
X151976192Y-154826247D02*
X152166668Y-154826247D01*
X151547620Y-155254819D02*
X151547620Y-154254819D01*
X151547620Y-154731009D02*
X150976192Y-154731009D01*
X150976192Y-155254819D02*
X150976192Y-154254819D01*
X150642858Y-154254819D02*
X150071430Y-154254819D01*
X150357144Y-155254819D02*
X150357144Y-154254819D01*
X149023810Y-154969104D02*
X148547620Y-154969104D01*
X149119048Y-155254819D02*
X148785715Y-154254819D01*
X148785715Y-154254819D02*
X148452382Y-155254819D01*
X147928572Y-154254819D02*
X147738096Y-154254819D01*
X147738096Y-154254819D02*
X147642858Y-154302438D01*
X147642858Y-154302438D02*
X147547620Y-154397676D01*
X147547620Y-154397676D02*
X147500001Y-154588152D01*
X147500001Y-154588152D02*
X147500001Y-154921485D01*
X147500001Y-154921485D02*
X147547620Y-155111961D01*
X147547620Y-155111961D02*
X147642858Y-155207200D01*
X147642858Y-155207200D02*
X147738096Y-155254819D01*
X147738096Y-155254819D02*
X147928572Y-155254819D01*
X147928572Y-155254819D02*
X148023810Y-155207200D01*
X148023810Y-155207200D02*
X148119048Y-155111961D01*
X148119048Y-155111961D02*
X148166667Y-154921485D01*
X148166667Y-154921485D02*
X148166667Y-154588152D01*
X148166667Y-154588152D02*
X148119048Y-154397676D01*
X148119048Y-154397676D02*
X148023810Y-154302438D01*
X148023810Y-154302438D02*
X147928572Y-154254819D01*
X146642858Y-154588152D02*
X146642858Y-155254819D01*
X146880953Y-154207200D02*
X147119048Y-154921485D01*
X147119048Y-154921485D02*
X146500001Y-154921485D01*
X144166667Y-154588152D02*
X144166667Y-155254819D01*
X144404762Y-154207200D02*
X144642857Y-154921485D01*
X144642857Y-154921485D02*
X144023810Y-154921485D01*
X142452381Y-155207200D02*
X142547619Y-155254819D01*
X142547619Y-155254819D02*
X142738095Y-155254819D01*
X142738095Y-155254819D02*
X142833333Y-155207200D01*
X142833333Y-155207200D02*
X142880952Y-155159580D01*
X142880952Y-155159580D02*
X142928571Y-155064342D01*
X142928571Y-155064342D02*
X142928571Y-154778628D01*
X142928571Y-154778628D02*
X142880952Y-154683390D01*
X142880952Y-154683390D02*
X142833333Y-154635771D01*
X142833333Y-154635771D02*
X142738095Y-154588152D01*
X142738095Y-154588152D02*
X142547619Y-154588152D01*
X142547619Y-154588152D02*
X142452381Y-154635771D01*
X142023809Y-155254819D02*
X142023809Y-154588152D01*
X142023809Y-154254819D02*
X142071428Y-154302438D01*
X142071428Y-154302438D02*
X142023809Y-154350057D01*
X142023809Y-154350057D02*
X141976190Y-154302438D01*
X141976190Y-154302438D02*
X142023809Y-154254819D01*
X142023809Y-154254819D02*
X142023809Y-154350057D01*
X141547619Y-155254819D02*
X141547619Y-154588152D01*
X141547619Y-154778628D02*
X141500000Y-154683390D01*
X141500000Y-154683390D02*
X141452381Y-154635771D01*
X141452381Y-154635771D02*
X141357143Y-154588152D01*
X141357143Y-154588152D02*
X141261905Y-154588152D01*
X140500000Y-155207200D02*
X140595238Y-155254819D01*
X140595238Y-155254819D02*
X140785714Y-155254819D01*
X140785714Y-155254819D02*
X140880952Y-155207200D01*
X140880952Y-155207200D02*
X140928571Y-155159580D01*
X140928571Y-155159580D02*
X140976190Y-155064342D01*
X140976190Y-155064342D02*
X140976190Y-154778628D01*
X140976190Y-154778628D02*
X140928571Y-154683390D01*
X140928571Y-154683390D02*
X140880952Y-154635771D01*
X140880952Y-154635771D02*
X140785714Y-154588152D01*
X140785714Y-154588152D02*
X140595238Y-154588152D01*
X140595238Y-154588152D02*
X140500000Y-154635771D01*
X139642857Y-154588152D02*
X139642857Y-155254819D01*
X140071428Y-154588152D02*
X140071428Y-155111961D01*
X140071428Y-155111961D02*
X140023809Y-155207200D01*
X140023809Y-155207200D02*
X139928571Y-155254819D01*
X139928571Y-155254819D02*
X139785714Y-155254819D01*
X139785714Y-155254819D02*
X139690476Y-155207200D01*
X139690476Y-155207200D02*
X139642857Y-155159580D01*
X139166666Y-155254819D02*
X139166666Y-154588152D01*
X139166666Y-154254819D02*
X139214285Y-154302438D01*
X139214285Y-154302438D02*
X139166666Y-154350057D01*
X139166666Y-154350057D02*
X139119047Y-154302438D01*
X139119047Y-154302438D02*
X139166666Y-154254819D01*
X139166666Y-154254819D02*
X139166666Y-154350057D01*
X138833333Y-154588152D02*
X138452381Y-154588152D01*
X138690476Y-154254819D02*
X138690476Y-155111961D01*
X138690476Y-155111961D02*
X138642857Y-155207200D01*
X138642857Y-155207200D02*
X138547619Y-155254819D01*
X138547619Y-155254819D02*
X138452381Y-155254819D01*
X137976190Y-155254819D02*
X138071428Y-155207200D01*
X138071428Y-155207200D02*
X138119047Y-155159580D01*
X138119047Y-155159580D02*
X138166666Y-155064342D01*
X138166666Y-155064342D02*
X138166666Y-154778628D01*
X138166666Y-154778628D02*
X138119047Y-154683390D01*
X138119047Y-154683390D02*
X138071428Y-154635771D01*
X138071428Y-154635771D02*
X137976190Y-154588152D01*
X137976190Y-154588152D02*
X137833333Y-154588152D01*
X137833333Y-154588152D02*
X137738095Y-154635771D01*
X137738095Y-154635771D02*
X137690476Y-154683390D01*
X137690476Y-154683390D02*
X137642857Y-154778628D01*
X137642857Y-154778628D02*
X137642857Y-155064342D01*
X137642857Y-155064342D02*
X137690476Y-155159580D01*
X137690476Y-155159580D02*
X137738095Y-155207200D01*
X137738095Y-155207200D02*
X137833333Y-155254819D01*
X137833333Y-155254819D02*
X137976190Y-155254819D01*
X137261904Y-155207200D02*
X137166666Y-155254819D01*
X137166666Y-155254819D02*
X136976190Y-155254819D01*
X136976190Y-155254819D02*
X136880952Y-155207200D01*
X136880952Y-155207200D02*
X136833333Y-155111961D01*
X136833333Y-155111961D02*
X136833333Y-155064342D01*
X136833333Y-155064342D02*
X136880952Y-154969104D01*
X136880952Y-154969104D02*
X136976190Y-154921485D01*
X136976190Y-154921485D02*
X137119047Y-154921485D01*
X137119047Y-154921485D02*
X137214285Y-154873866D01*
X137214285Y-154873866D02*
X137261904Y-154778628D01*
X137261904Y-154778628D02*
X137261904Y-154731009D01*
X137261904Y-154731009D02*
X137214285Y-154635771D01*
X137214285Y-154635771D02*
X137119047Y-154588152D01*
X137119047Y-154588152D02*
X136976190Y-154588152D01*
X136976190Y-154588152D02*
X136880952Y-154635771D01*
X135452380Y-154254819D02*
X135357142Y-154254819D01*
X135357142Y-154254819D02*
X135261904Y-154302438D01*
X135261904Y-154302438D02*
X135214285Y-154350057D01*
X135214285Y-154350057D02*
X135166666Y-154445295D01*
X135166666Y-154445295D02*
X135119047Y-154635771D01*
X135119047Y-154635771D02*
X135119047Y-154873866D01*
X135119047Y-154873866D02*
X135166666Y-155064342D01*
X135166666Y-155064342D02*
X135214285Y-155159580D01*
X135214285Y-155159580D02*
X135261904Y-155207200D01*
X135261904Y-155207200D02*
X135357142Y-155254819D01*
X135357142Y-155254819D02*
X135452380Y-155254819D01*
X135452380Y-155254819D02*
X135547618Y-155207200D01*
X135547618Y-155207200D02*
X135595237Y-155159580D01*
X135595237Y-155159580D02*
X135642856Y-155064342D01*
X135642856Y-155064342D02*
X135690475Y-154873866D01*
X135690475Y-154873866D02*
X135690475Y-154635771D01*
X135690475Y-154635771D02*
X135642856Y-154445295D01*
X135642856Y-154445295D02*
X135595237Y-154350057D01*
X135595237Y-154350057D02*
X135547618Y-154302438D01*
X135547618Y-154302438D02*
X135452380Y-154254819D01*
X134690475Y-154873866D02*
X133928571Y-154873866D01*
X132928571Y-155254819D02*
X133499999Y-155254819D01*
X133214285Y-155254819D02*
X133214285Y-154254819D01*
X133214285Y-154254819D02*
X133309523Y-154397676D01*
X133309523Y-154397676D02*
X133404761Y-154492914D01*
X133404761Y-154492914D02*
X133499999Y-154540533D01*
X132309523Y-154254819D02*
X132214285Y-154254819D01*
X132214285Y-154254819D02*
X132119047Y-154302438D01*
X132119047Y-154302438D02*
X132071428Y-154350057D01*
X132071428Y-154350057D02*
X132023809Y-154445295D01*
X132023809Y-154445295D02*
X131976190Y-154635771D01*
X131976190Y-154635771D02*
X131976190Y-154873866D01*
X131976190Y-154873866D02*
X132023809Y-155064342D01*
X132023809Y-155064342D02*
X132071428Y-155159580D01*
X132071428Y-155159580D02*
X132119047Y-155207200D01*
X132119047Y-155207200D02*
X132214285Y-155254819D01*
X132214285Y-155254819D02*
X132309523Y-155254819D01*
X132309523Y-155254819D02*
X132404761Y-155207200D01*
X132404761Y-155207200D02*
X132452380Y-155159580D01*
X132452380Y-155159580D02*
X132499999Y-155064342D01*
X132499999Y-155064342D02*
X132547618Y-154873866D01*
X132547618Y-154873866D02*
X132547618Y-154635771D01*
X132547618Y-154635771D02*
X132499999Y-154445295D01*
X132499999Y-154445295D02*
X132452380Y-154350057D01*
X132452380Y-154350057D02*
X132404761Y-154302438D01*
X132404761Y-154302438D02*
X132309523Y-154254819D01*
X130928570Y-154254819D02*
X130595237Y-155254819D01*
X130595237Y-155254819D02*
X130261904Y-154254819D01*
X129166665Y-154873866D02*
X128404761Y-154873866D01*
X128785713Y-155254819D02*
X128785713Y-154492914D01*
X126738094Y-155207200D02*
X126833332Y-155254819D01*
X126833332Y-155254819D02*
X127023808Y-155254819D01*
X127023808Y-155254819D02*
X127119046Y-155207200D01*
X127119046Y-155207200D02*
X127166665Y-155159580D01*
X127166665Y-155159580D02*
X127214284Y-155064342D01*
X127214284Y-155064342D02*
X127214284Y-154778628D01*
X127214284Y-154778628D02*
X127166665Y-154683390D01*
X127166665Y-154683390D02*
X127119046Y-154635771D01*
X127119046Y-154635771D02*
X127023808Y-154588152D01*
X127023808Y-154588152D02*
X126833332Y-154588152D01*
X126833332Y-154588152D02*
X126738094Y-154635771D01*
X126166665Y-155254819D02*
X126261903Y-155207200D01*
X126261903Y-155207200D02*
X126309522Y-155159580D01*
X126309522Y-155159580D02*
X126357141Y-155064342D01*
X126357141Y-155064342D02*
X126357141Y-154778628D01*
X126357141Y-154778628D02*
X126309522Y-154683390D01*
X126309522Y-154683390D02*
X126261903Y-154635771D01*
X126261903Y-154635771D02*
X126166665Y-154588152D01*
X126166665Y-154588152D02*
X126023808Y-154588152D01*
X126023808Y-154588152D02*
X125928570Y-154635771D01*
X125928570Y-154635771D02*
X125880951Y-154683390D01*
X125880951Y-154683390D02*
X125833332Y-154778628D01*
X125833332Y-154778628D02*
X125833332Y-155064342D01*
X125833332Y-155064342D02*
X125880951Y-155159580D01*
X125880951Y-155159580D02*
X125928570Y-155207200D01*
X125928570Y-155207200D02*
X126023808Y-155254819D01*
X126023808Y-155254819D02*
X126166665Y-155254819D01*
X125404760Y-154588152D02*
X125404760Y-155254819D01*
X125404760Y-154683390D02*
X125357141Y-154635771D01*
X125357141Y-154635771D02*
X125261903Y-154588152D01*
X125261903Y-154588152D02*
X125119046Y-154588152D01*
X125119046Y-154588152D02*
X125023808Y-154635771D01*
X125023808Y-154635771D02*
X124976189Y-154731009D01*
X124976189Y-154731009D02*
X124976189Y-155254819D01*
X124642855Y-154588152D02*
X124261903Y-154588152D01*
X124499998Y-154254819D02*
X124499998Y-155111961D01*
X124499998Y-155111961D02*
X124452379Y-155207200D01*
X124452379Y-155207200D02*
X124357141Y-155254819D01*
X124357141Y-155254819D02*
X124261903Y-155254819D01*
X123499998Y-155254819D02*
X123499998Y-154731009D01*
X123499998Y-154731009D02*
X123547617Y-154635771D01*
X123547617Y-154635771D02*
X123642855Y-154588152D01*
X123642855Y-154588152D02*
X123833331Y-154588152D01*
X123833331Y-154588152D02*
X123928569Y-154635771D01*
X123499998Y-155207200D02*
X123595236Y-155254819D01*
X123595236Y-155254819D02*
X123833331Y-155254819D01*
X123833331Y-155254819D02*
X123928569Y-155207200D01*
X123928569Y-155207200D02*
X123976188Y-155111961D01*
X123976188Y-155111961D02*
X123976188Y-155016723D01*
X123976188Y-155016723D02*
X123928569Y-154921485D01*
X123928569Y-154921485D02*
X123833331Y-154873866D01*
X123833331Y-154873866D02*
X123595236Y-154873866D01*
X123595236Y-154873866D02*
X123499998Y-154826247D01*
X122595236Y-155207200D02*
X122690474Y-155254819D01*
X122690474Y-155254819D02*
X122880950Y-155254819D01*
X122880950Y-155254819D02*
X122976188Y-155207200D01*
X122976188Y-155207200D02*
X123023807Y-155159580D01*
X123023807Y-155159580D02*
X123071426Y-155064342D01*
X123071426Y-155064342D02*
X123071426Y-154778628D01*
X123071426Y-154778628D02*
X123023807Y-154683390D01*
X123023807Y-154683390D02*
X122976188Y-154635771D01*
X122976188Y-154635771D02*
X122880950Y-154588152D01*
X122880950Y-154588152D02*
X122690474Y-154588152D01*
X122690474Y-154588152D02*
X122595236Y-154635771D01*
X122309521Y-154588152D02*
X121928569Y-154588152D01*
X122166664Y-154254819D02*
X122166664Y-155111961D01*
X122166664Y-155111961D02*
X122119045Y-155207200D01*
X122119045Y-155207200D02*
X122023807Y-155254819D01*
X122023807Y-155254819D02*
X121928569Y-155254819D01*
X121452378Y-155254819D02*
X121547616Y-155207200D01*
X121547616Y-155207200D02*
X121595235Y-155159580D01*
X121595235Y-155159580D02*
X121642854Y-155064342D01*
X121642854Y-155064342D02*
X121642854Y-154778628D01*
X121642854Y-154778628D02*
X121595235Y-154683390D01*
X121595235Y-154683390D02*
X121547616Y-154635771D01*
X121547616Y-154635771D02*
X121452378Y-154588152D01*
X121452378Y-154588152D02*
X121309521Y-154588152D01*
X121309521Y-154588152D02*
X121214283Y-154635771D01*
X121214283Y-154635771D02*
X121166664Y-154683390D01*
X121166664Y-154683390D02*
X121119045Y-154778628D01*
X121119045Y-154778628D02*
X121119045Y-155064342D01*
X121119045Y-155064342D02*
X121166664Y-155159580D01*
X121166664Y-155159580D02*
X121214283Y-155207200D01*
X121214283Y-155207200D02*
X121309521Y-155254819D01*
X121309521Y-155254819D02*
X121452378Y-155254819D01*
X120690473Y-155254819D02*
X120690473Y-154588152D01*
X120690473Y-154778628D02*
X120642854Y-154683390D01*
X120642854Y-154683390D02*
X120595235Y-154635771D01*
X120595235Y-154635771D02*
X120499997Y-154588152D01*
X120499997Y-154588152D02*
X120404759Y-154588152D01*
%LPC*%
D12*
%TO.C,H2*%
X184500000Y-139500000D03*
%TD*%
D13*
%TO.C,J3*%
X103000000Y-150400000D03*
D14*
X106960000Y-150400000D03*
%TD*%
D12*
%TO.C,H1*%
X103500000Y-103500000D03*
%TD*%
D15*
%TO.C,J6*%
X150000000Y-151000000D03*
D16*
X152500000Y-151000000D03*
X155000000Y-151000000D03*
X157500000Y-151000000D03*
%TD*%
D12*
%TO.C,H3*%
X184500000Y-152500000D03*
%TD*%
D15*
%TO.C,J4*%
X116000000Y-151000000D03*
D16*
X118500000Y-151000000D03*
X121000000Y-151000000D03*
X123500000Y-151000000D03*
%TD*%
D15*
%TO.C,J7*%
X167000000Y-151000000D03*
D16*
X169500000Y-151000000D03*
X172000000Y-151000000D03*
X174500000Y-151000000D03*
%TD*%
D15*
%TO.C,J5*%
X133000000Y-151000000D03*
D16*
X135500000Y-151000000D03*
X138000000Y-151000000D03*
X140500000Y-151000000D03*
%TD*%
%LPD*%
M02*
