%TF.GenerationSoftware,KiCad,Pcbnew,9.0.9*%
%TF.CreationDate,2026-10-10T07:59:19+00:00*%
%TF.ProjectId,AP_AO4,41505f41-4f34-42e6-9b69-6361645f7063,rev?*%
%TF.SameCoordinates,Original*%
%TF.FileFunction,Soldermask,Top*%
%TF.FilePolarity,Negative*%
%FSLAX46Y46*%
G04 Gerber Fmt 4.6, Leading zero omitted, Abs format (unit mm)*
G04 Created by KiCad (PCBNEW 9.0.9) date 2026-10-10 07:59:19*
%MOMM*%
%LPD*%
G01*
G04 APERTURE LIST*
G04 Aperture macros list*
%AMRoundRect*
0 Rectangle with rounded corners*
0 $1 Rounding radius*
0 $2 $3 $4 $5 $6 $7 $8 $9 X,Y pos of 4 corners*
0 Add a 4 corners polygon primitive as box body*
4,1,4,$2,$3,$4,$5,$6,$7,$8,$9,$2,$3,0*
0 Add four circle primitives for the rounded corners*
1,1,$1+$1,$2,$3*
1,1,$1+$1,$4,$5*
1,1,$1+$1,$6,$7*
1,1,$1+$1,$8,$9*
0 Add four rect primitives between the rounded corners*
20,1,$1+$1,$2,$3,$4,$5,0*
20,1,$1+$1,$4,$5,$6,$7,0*
20,1,$1+$1,$6,$7,$8,$9,0*
20,1,$1+$1,$8,$9,$2,$3,0*%
%AMFreePoly0*
4,1,23,0.500000,-0.750000,0.000000,-0.750000,0.000000,-0.745722,-0.065263,-0.745722,-0.191342,-0.711940,-0.304381,-0.646677,-0.396677,-0.554381,-0.461940,-0.441342,-0.495722,-0.315263,-0.495722,-0.250000,-0.500000,-0.250000,-0.500000,0.250000,-0.495722,0.250000,-0.495722,0.315263,-0.461940,0.441342,-0.396677,0.554381,-0.304381,0.646677,-0.191342,0.711940,-0.065263,0.745722,0.000000,0.745722,
0.000000,0.750000,0.500000,0.750000,0.500000,-0.750000,0.500000,-0.750000,$1*%
%AMFreePoly1*
4,1,23,0.000000,0.745722,0.065263,0.745722,0.191342,0.711940,0.304381,0.646677,0.396677,0.554381,0.461940,0.441342,0.495722,0.315263,0.495722,0.250000,0.500000,0.250000,0.500000,-0.250000,0.495722,-0.250000,0.495722,-0.315263,0.461940,-0.441342,0.396677,-0.554381,0.304381,-0.646677,0.191342,-0.711940,0.065263,-0.745722,0.000000,-0.745722,0.000000,-0.750000,-0.500000,-0.750000,
-0.500000,0.750000,0.000000,0.750000,0.000000,0.745722,0.000000,0.745722,$1*%
%AMFreePoly2*
4,1,9,3.862500,-0.866500,0.737500,-0.866500,0.737500,-0.450000,-0.737500,-0.450000,-0.737500,0.450000,0.737500,0.450000,0.737500,0.866500,3.862500,0.866500,3.862500,-0.866500,3.862500,-0.866500,$1*%
G04 Aperture macros list end*
%ADD10RoundRect,0.200000X-0.200000X-0.275000X0.200000X-0.275000X0.200000X0.275000X-0.200000X0.275000X0*%
%ADD11RoundRect,0.218750X0.256250X-0.218750X0.256250X0.218750X-0.256250X0.218750X-0.256250X-0.218750X0*%
%ADD12RoundRect,0.225000X-0.225000X-0.250000X0.225000X-0.250000X0.225000X0.250000X-0.225000X0.250000X0*%
%ADD13RoundRect,0.150000X-0.587500X-0.150000X0.587500X-0.150000X0.587500X0.150000X-0.587500X0.150000X0*%
%ADD14RoundRect,0.200000X0.275000X-0.200000X0.275000X0.200000X-0.275000X0.200000X-0.275000X-0.200000X0*%
%ADD15RoundRect,0.150000X0.150000X-0.825000X0.150000X0.825000X-0.150000X0.825000X-0.150000X-0.825000X0*%
%ADD16C,3.200000*%
%ADD17RoundRect,0.250001X-1.099999X-1.099999X1.099999X-1.099999X1.099999X1.099999X-1.099999X1.099999X0*%
%ADD18C,2.700000*%
%ADD19RoundRect,0.375000X0.375000X-0.625000X0.375000X0.625000X-0.375000X0.625000X-0.375000X-0.625000X0*%
%ADD20RoundRect,0.500000X1.400000X-0.500000X1.400000X0.500000X-1.400000X0.500000X-1.400000X-0.500000X0*%
%ADD21C,1.500000*%
%ADD22RoundRect,0.250000X0.650000X-1.000000X0.650000X1.000000X-0.650000X1.000000X-0.650000X-1.000000X0*%
%ADD23RoundRect,0.250000X0.625000X-0.375000X0.625000X0.375000X-0.625000X0.375000X-0.625000X-0.375000X0*%
%ADD24RoundRect,0.250000X-0.600000X-0.725000X0.600000X-0.725000X0.600000X0.725000X-0.600000X0.725000X0*%
%ADD25O,1.700000X1.950000*%
%ADD26RoundRect,0.225000X0.250000X-0.225000X0.250000X0.225000X-0.250000X0.225000X-0.250000X-0.225000X0*%
%ADD27FreePoly0,0.000000*%
%ADD28FreePoly1,0.000000*%
%ADD29RoundRect,0.250000X0.650000X-0.325000X0.650000X0.325000X-0.650000X0.325000X-0.650000X-0.325000X0*%
%ADD30RoundRect,0.150000X0.150000X0.625000X-0.150000X0.625000X-0.150000X-0.625000X0.150000X-0.625000X0*%
%ADD31RoundRect,0.250000X0.350000X0.650000X-0.350000X0.650000X-0.350000X-0.650000X0.350000X-0.650000X0*%
%ADD32RoundRect,0.225000X-0.225000X-0.375000X0.225000X-0.375000X0.225000X0.375000X-0.225000X0.375000X0*%
%ADD33RoundRect,0.100000X0.100000X-0.637500X0.100000X0.637500X-0.100000X0.637500X-0.100000X-0.637500X0*%
%ADD34RoundRect,0.250000X0.900000X-1.000000X0.900000X1.000000X-0.900000X1.000000X-0.900000X-1.000000X0*%
%ADD35RoundRect,0.225000X-0.425000X-0.225000X0.425000X-0.225000X0.425000X0.225000X-0.425000X0.225000X0*%
%ADD36FreePoly2,0.000000*%
%ADD37RoundRect,0.250000X0.475000X-0.250000X0.475000X0.250000X-0.475000X0.250000X-0.475000X-0.250000X0*%
G04 APERTURE END LIST*
%TO.C,JP2*%
G36*
X165850000Y-108750000D02*
G01*
X166150000Y-108750000D01*
X166150000Y-110250000D01*
X165850000Y-110250000D01*
X165850000Y-108750000D01*
G37*
%TO.C,JP1*%
G36*
X165850000Y-105250000D02*
G01*
X166150000Y-105250000D01*
X166150000Y-106750000D01*
X165850000Y-106750000D01*
X165850000Y-105250000D01*
G37*
%TD*%
D10*
%TO.C,RFB4*%
X132975000Y-123500000D03*
X134625000Y-123500000D03*
%TD*%
%TO.C,RR4*%
X132975000Y-125500000D03*
X134625000Y-125500000D03*
%TD*%
%TO.C,RR2*%
X120975000Y-125500000D03*
X122625000Y-125500000D03*
%TD*%
D11*
%TO.C,DL4*%
X179400000Y-140787500D03*
X179400000Y-139212500D03*
%TD*%
D12*
%TO.C,CFB1*%
X114225000Y-116000000D03*
X115775000Y-116000000D03*
%TD*%
D10*
%TO.C,RB2*%
X117575000Y-127500000D03*
X119225000Y-127500000D03*
%TD*%
D13*
%TO.C,QB1*%
X117462500Y-119650000D03*
X117462500Y-121550000D03*
X119337500Y-120600000D03*
%TD*%
D10*
%TO.C,RFB2*%
X120975000Y-123500000D03*
X122625000Y-123500000D03*
%TD*%
%TO.C,RS4*%
X167375000Y-145000000D03*
X169025000Y-145000000D03*
%TD*%
D14*
%TO.C,RL3*%
X162400000Y-137025000D03*
X162400000Y-135375000D03*
%TD*%
D12*
%TO.C,CR1*%
X114225000Y-118000000D03*
X115775000Y-118000000D03*
%TD*%
%TO.C,CFA2*%
X117625000Y-123500000D03*
X119175000Y-123500000D03*
%TD*%
D13*
%TO.C,QB4*%
X129462500Y-129150000D03*
X129462500Y-131050000D03*
X131337500Y-130100000D03*
%TD*%
D10*
%TO.C,RFA3*%
X126175000Y-114000000D03*
X127825000Y-114000000D03*
%TD*%
D15*
%TO.C,U3*%
X166190000Y-123475000D03*
X167460000Y-123475000D03*
X168730000Y-123475000D03*
X170000000Y-123475000D03*
X171270000Y-123475000D03*
X172540000Y-123475000D03*
X173810000Y-123475000D03*
X173810000Y-118525000D03*
X172540000Y-118525000D03*
X171270000Y-118525000D03*
X170000000Y-118525000D03*
X168730000Y-118525000D03*
X167460000Y-118525000D03*
X166190000Y-118525000D03*
%TD*%
D16*
%TO.C,H2*%
X184500000Y-139500000D03*
%TD*%
D10*
%TO.C,RS1*%
X116375000Y-145000000D03*
X118025000Y-145000000D03*
%TD*%
D17*
%TO.C,J3*%
X103000000Y-150400000D03*
D18*
X106960000Y-150400000D03*
%TD*%
D10*
%TO.C,RA2*%
X170175000Y-109500000D03*
X171825000Y-109500000D03*
%TD*%
D19*
%TO.C,Q2*%
X133700000Y-141150000D03*
X136000000Y-141150000D03*
D20*
X136000000Y-134850000D03*
D19*
X138300000Y-141150000D03*
%TD*%
D21*
%TO.C,TP2*%
X180000000Y-118000000D03*
%TD*%
D12*
%TO.C,CFA3*%
X129625000Y-114000000D03*
X131175000Y-114000000D03*
%TD*%
%TO.C,CB4*%
X170625000Y-145000000D03*
X172175000Y-145000000D03*
%TD*%
%TO.C,C7*%
X144225000Y-115000000D03*
X145775000Y-115000000D03*
%TD*%
D14*
%TO.C,RP4*%
X166400000Y-130325000D03*
X166400000Y-128675000D03*
%TD*%
D16*
%TO.C,H1*%
X103500000Y-103500000D03*
%TD*%
D14*
%TO.C,RL4*%
X179400000Y-137025000D03*
X179400000Y-135375000D03*
%TD*%
D22*
%TO.C,D13*%
X159200000Y-140000000D03*
X159200000Y-136000000D03*
%TD*%
D23*
%TO.C,F1*%
X105000000Y-144400000D03*
X105000000Y-141600000D03*
%TD*%
D19*
%TO.C,Q1*%
X116700000Y-141150000D03*
X119000000Y-141150000D03*
D20*
X119000000Y-134850000D03*
D19*
X121300000Y-141150000D03*
%TD*%
D24*
%TO.C,J6*%
X150000000Y-151000000D03*
D25*
X152500000Y-151000000D03*
X155000000Y-151000000D03*
X157500000Y-151000000D03*
%TD*%
D10*
%TO.C,RU2*%
X120975000Y-127500000D03*
X122625000Y-127500000D03*
%TD*%
D26*
%TO.C,C5*%
X109600000Y-120275000D03*
X109600000Y-118725000D03*
%TD*%
D27*
%TO.C,JP2*%
X165350000Y-109500000D03*
D28*
X166650000Y-109500000D03*
%TD*%
D15*
%TO.C,U2*%
X141190000Y-123475000D03*
X142460000Y-123475000D03*
X143730000Y-123475000D03*
X145000000Y-123475000D03*
X146270000Y-123475000D03*
X147540000Y-123475000D03*
X148810000Y-123475000D03*
X148810000Y-118525000D03*
X147540000Y-118525000D03*
X146270000Y-118525000D03*
X145000000Y-118525000D03*
X143730000Y-118525000D03*
X142460000Y-118525000D03*
X141190000Y-118525000D03*
%TD*%
D10*
%TO.C,RB4*%
X129575000Y-127500000D03*
X131225000Y-127500000D03*
%TD*%
D21*
%TO.C,TP3*%
X180000000Y-122000000D03*
%TD*%
D10*
%TO.C,RG1*%
X117575000Y-116000000D03*
X119225000Y-116000000D03*
%TD*%
D16*
%TO.C,H3*%
X184500000Y-152500000D03*
%TD*%
D10*
%TO.C,RG3*%
X129575000Y-116000000D03*
X131225000Y-116000000D03*
%TD*%
%TO.C,RG2*%
X117575000Y-125500000D03*
X119225000Y-125500000D03*
%TD*%
D29*
%TO.C,C4*%
X105400000Y-120975000D03*
X105400000Y-118025000D03*
%TD*%
D11*
%TO.C,DL2*%
X145400000Y-140787500D03*
X145400000Y-139212500D03*
%TD*%
D10*
%TO.C,RG4*%
X129575000Y-125500000D03*
X131225000Y-125500000D03*
%TD*%
%TO.C,RU3*%
X132975000Y-118000000D03*
X134625000Y-118000000D03*
%TD*%
D12*
%TO.C,CR2*%
X114225000Y-127500000D03*
X115775000Y-127500000D03*
%TD*%
D10*
%TO.C,RS3*%
X150375000Y-145000000D03*
X152025000Y-145000000D03*
%TD*%
D30*
%TO.C,J1*%
X115500000Y-105600000D03*
X114500000Y-105600000D03*
X113500000Y-105600000D03*
X112500000Y-105600000D03*
D31*
X116800000Y-101725000D03*
X111200000Y-101725000D03*
%TD*%
D26*
%TO.C,C6*%
X105000000Y-114775000D03*
X105000000Y-113225000D03*
%TD*%
D12*
%TO.C,CFB3*%
X126225000Y-116000000D03*
X127775000Y-116000000D03*
%TD*%
D32*
%TO.C,DZ1*%
X123150000Y-145000000D03*
X126450000Y-145000000D03*
%TD*%
D11*
%TO.C,DL3*%
X162400000Y-140787500D03*
X162400000Y-139212500D03*
%TD*%
D30*
%TO.C,J2*%
X159500000Y-105600000D03*
X158500000Y-105600000D03*
X157500000Y-105600000D03*
X156500000Y-105600000D03*
D31*
X160800000Y-101725000D03*
X155200000Y-101725000D03*
%TD*%
D12*
%TO.C,CFB4*%
X126225000Y-125500000D03*
X127775000Y-125500000D03*
%TD*%
D10*
%TO.C,RFB1*%
X120975000Y-114000000D03*
X122625000Y-114000000D03*
%TD*%
D33*
%TO.C,U1*%
X131775000Y-109862500D03*
X132425000Y-109862500D03*
X133075000Y-109862500D03*
X133725000Y-109862500D03*
X134375000Y-109862500D03*
X135025000Y-109862500D03*
X135675000Y-109862500D03*
X136325000Y-109862500D03*
X136975000Y-109862500D03*
X137625000Y-109862500D03*
X138275000Y-109862500D03*
X138925000Y-109862500D03*
X139575000Y-109862500D03*
X140225000Y-109862500D03*
X140225000Y-104137500D03*
X139575000Y-104137500D03*
X138925000Y-104137500D03*
X138275000Y-104137500D03*
X137625000Y-104137500D03*
X136975000Y-104137500D03*
X136325000Y-104137500D03*
X135675000Y-104137500D03*
X135025000Y-104137500D03*
X134375000Y-104137500D03*
X133725000Y-104137500D03*
X133075000Y-104137500D03*
X132425000Y-104137500D03*
X131775000Y-104137500D03*
%TD*%
D12*
%TO.C,CFB2*%
X114225000Y-125500000D03*
X115775000Y-125500000D03*
%TD*%
D10*
%TO.C,RR1*%
X120975000Y-116000000D03*
X122625000Y-116000000D03*
%TD*%
D12*
%TO.C,C8*%
X169225000Y-115000000D03*
X170775000Y-115000000D03*
%TD*%
D22*
%TO.C,D1*%
X105000000Y-138000000D03*
X105000000Y-134000000D03*
%TD*%
D32*
%TO.C,DZ3*%
X157150000Y-145000000D03*
X160450000Y-145000000D03*
%TD*%
D22*
%TO.C,D14*%
X176200000Y-140000000D03*
X176200000Y-136000000D03*
%TD*%
D11*
%TO.C,DL1*%
X128400000Y-140787500D03*
X128400000Y-139212500D03*
%TD*%
D12*
%TO.C,CR3*%
X126225000Y-118000000D03*
X127775000Y-118000000D03*
%TD*%
D13*
%TO.C,QB3*%
X129462500Y-119650000D03*
X129462500Y-121550000D03*
X131337500Y-120600000D03*
%TD*%
D12*
%TO.C,CFA1*%
X117625000Y-114000000D03*
X119175000Y-114000000D03*
%TD*%
%TO.C,CB2*%
X136625000Y-145000000D03*
X138175000Y-145000000D03*
%TD*%
%TO.C,CB3*%
X153625000Y-145000000D03*
X155175000Y-145000000D03*
%TD*%
D24*
%TO.C,J4*%
X116000000Y-151000000D03*
D25*
X118500000Y-151000000D03*
X121000000Y-151000000D03*
X123500000Y-151000000D03*
%TD*%
D22*
%TO.C,D11*%
X125200000Y-140000000D03*
X125200000Y-136000000D03*
%TD*%
D32*
%TO.C,DZ2*%
X140150000Y-145000000D03*
X143450000Y-145000000D03*
%TD*%
D22*
%TO.C,D12*%
X142200000Y-140000000D03*
X142200000Y-136000000D03*
%TD*%
D24*
%TO.C,J7*%
X167000000Y-151000000D03*
D25*
X169500000Y-151000000D03*
X172000000Y-151000000D03*
X174500000Y-151000000D03*
%TD*%
D26*
%TO.C,C1*%
X128500000Y-106775000D03*
X128500000Y-105225000D03*
%TD*%
D12*
%TO.C,CFA4*%
X129625000Y-123500000D03*
X131175000Y-123500000D03*
%TD*%
D10*
%TO.C,RFB3*%
X132975000Y-114000000D03*
X134625000Y-114000000D03*
%TD*%
D24*
%TO.C,J5*%
X133000000Y-151000000D03*
D25*
X135500000Y-151000000D03*
X138000000Y-151000000D03*
X140500000Y-151000000D03*
%TD*%
D12*
%TO.C,CB1*%
X119625000Y-145000000D03*
X121175000Y-145000000D03*
%TD*%
D19*
%TO.C,Q4*%
X167700000Y-141150000D03*
X170000000Y-141150000D03*
D20*
X170000000Y-134850000D03*
D19*
X172300000Y-141150000D03*
%TD*%
D10*
%TO.C,RU1*%
X120975000Y-118000000D03*
X122625000Y-118000000D03*
%TD*%
D19*
%TO.C,Q3*%
X150700000Y-141150000D03*
X153000000Y-141150000D03*
D20*
X153000000Y-134850000D03*
D19*
X155300000Y-141150000D03*
%TD*%
D14*
%TO.C,RL2*%
X145400000Y-137025000D03*
X145400000Y-135375000D03*
%TD*%
D34*
%TO.C,D2*%
X105500000Y-129650000D03*
X105500000Y-125350000D03*
%TD*%
D14*
%TO.C,RP1*%
X158600000Y-130325000D03*
X158600000Y-128675000D03*
%TD*%
D10*
%TO.C,RR3*%
X132975000Y-116000000D03*
X134625000Y-116000000D03*
%TD*%
D14*
%TO.C,RP3*%
X163800000Y-130325000D03*
X163800000Y-128675000D03*
%TD*%
D10*
%TO.C,RFA4*%
X126175000Y-123500000D03*
X127825000Y-123500000D03*
%TD*%
%TO.C,RFA1*%
X114175000Y-114000000D03*
X115825000Y-114000000D03*
%TD*%
%TO.C,RA1*%
X170175000Y-106000000D03*
X171825000Y-106000000D03*
%TD*%
%TO.C,RB3*%
X129575000Y-118000000D03*
X131225000Y-118000000D03*
%TD*%
%TO.C,RS2*%
X133375000Y-145000000D03*
X135025000Y-145000000D03*
%TD*%
D35*
%TO.C,U4*%
X107050000Y-113000000D03*
D36*
X107137500Y-114500000D03*
D35*
X107050000Y-116000000D03*
%TD*%
D14*
%TO.C,RL1*%
X128400000Y-137025000D03*
X128400000Y-135375000D03*
%TD*%
D37*
%TO.C,C2*%
X125500000Y-106950000D03*
X125500000Y-105050000D03*
%TD*%
D29*
%TO.C,C3*%
X102200000Y-120975000D03*
X102200000Y-118025000D03*
%TD*%
D27*
%TO.C,JP1*%
X165350000Y-106000000D03*
D28*
X166650000Y-106000000D03*
%TD*%
D12*
%TO.C,CR4*%
X126225000Y-127500000D03*
X127775000Y-127500000D03*
%TD*%
D21*
%TO.C,TP1*%
X180000000Y-114000000D03*
%TD*%
D10*
%TO.C,RB1*%
X117575000Y-118000000D03*
X119225000Y-118000000D03*
%TD*%
%TO.C,RFA2*%
X114175000Y-123500000D03*
X115825000Y-123500000D03*
%TD*%
D14*
%TO.C,RP2*%
X161200000Y-130325000D03*
X161200000Y-128675000D03*
%TD*%
D13*
%TO.C,QB2*%
X117462500Y-129150000D03*
X117462500Y-131050000D03*
X119337500Y-130100000D03*
%TD*%
D10*
%TO.C,RU4*%
X132975000Y-127500000D03*
X134625000Y-127500000D03*
%TD*%
D32*
%TO.C,DZ4*%
X174150000Y-145000000D03*
X177450000Y-145000000D03*
%TD*%
M02*
