%TF.GenerationSoftware,KiCad,Pcbnew,9.0.9*%
%TF.CreationDate,2026-10-01T02:51:28+00:00*%
%TF.ProjectId,AP01_Cabezal,41503031-5f43-4616-9265-7a616c2e6b69,rev?*%
%TF.SameCoordinates,Original*%
%TF.FileFunction,Legend,Top*%
%TF.FilePolarity,Positive*%
%FSLAX46Y46*%
G04 Gerber Fmt 4.6, Leading zero omitted, Abs format (unit mm)*
G04 Created by KiCad (PCBNEW 9.0.9) date 2026-10-01 02:51:28*
%MOMM*%
%LPD*%
G01*
G04 APERTURE LIST*
%ADD10C,0.175000*%
%ADD11C,0.180000*%
%ADD12C,0.150000*%
%ADD13C,0.120000*%
%ADD14C,3.200000*%
G04 APERTURE END LIST*
D10*
X149866669Y-102348066D02*
X149966669Y-102381400D01*
X149966669Y-102381400D02*
X150000002Y-102414733D01*
X150000002Y-102414733D02*
X150033335Y-102481400D01*
X150033335Y-102481400D02*
X150033335Y-102581400D01*
X150033335Y-102581400D02*
X150000002Y-102648066D01*
X150000002Y-102648066D02*
X149966669Y-102681400D01*
X149966669Y-102681400D02*
X149900002Y-102714733D01*
X149900002Y-102714733D02*
X149633335Y-102714733D01*
X149633335Y-102714733D02*
X149633335Y-102014733D01*
X149633335Y-102014733D02*
X149866669Y-102014733D01*
X149866669Y-102014733D02*
X149933335Y-102048066D01*
X149933335Y-102048066D02*
X149966669Y-102081400D01*
X149966669Y-102081400D02*
X150000002Y-102148066D01*
X150000002Y-102148066D02*
X150000002Y-102214733D01*
X150000002Y-102214733D02*
X149966669Y-102281400D01*
X149966669Y-102281400D02*
X149933335Y-102314733D01*
X149933335Y-102314733D02*
X149866669Y-102348066D01*
X149866669Y-102348066D02*
X149633335Y-102348066D01*
X150666669Y-102714733D02*
X150333335Y-102714733D01*
X150333335Y-102714733D02*
X150333335Y-102014733D01*
X150900002Y-102348066D02*
X151133336Y-102348066D01*
X151233336Y-102714733D02*
X150900002Y-102714733D01*
X150900002Y-102714733D02*
X150900002Y-102014733D01*
X150900002Y-102014733D02*
X151233336Y-102014733D01*
X151533335Y-102648066D02*
X151566669Y-102681400D01*
X151566669Y-102681400D02*
X151533335Y-102714733D01*
X151533335Y-102714733D02*
X151500002Y-102681400D01*
X151500002Y-102681400D02*
X151533335Y-102648066D01*
X151533335Y-102648066D02*
X151533335Y-102714733D01*
X151533335Y-102281400D02*
X151566669Y-102314733D01*
X151566669Y-102314733D02*
X151533335Y-102348066D01*
X151533335Y-102348066D02*
X151500002Y-102314733D01*
X151500002Y-102314733D02*
X151533335Y-102281400D01*
X151533335Y-102281400D02*
X151533335Y-102348066D01*
X152766668Y-102714733D02*
X152366668Y-102714733D01*
X152566668Y-102714733D02*
X152566668Y-102014733D01*
X152566668Y-102014733D02*
X152500001Y-102114733D01*
X152500001Y-102114733D02*
X152433335Y-102181400D01*
X152433335Y-102181400D02*
X152366668Y-102214733D01*
X153566668Y-102681400D02*
X153666668Y-102714733D01*
X153666668Y-102714733D02*
X153833335Y-102714733D01*
X153833335Y-102714733D02*
X153900001Y-102681400D01*
X153900001Y-102681400D02*
X153933335Y-102648066D01*
X153933335Y-102648066D02*
X153966668Y-102581400D01*
X153966668Y-102581400D02*
X153966668Y-102514733D01*
X153966668Y-102514733D02*
X153933335Y-102448066D01*
X153933335Y-102448066D02*
X153900001Y-102414733D01*
X153900001Y-102414733D02*
X153833335Y-102381400D01*
X153833335Y-102381400D02*
X153700001Y-102348066D01*
X153700001Y-102348066D02*
X153633335Y-102314733D01*
X153633335Y-102314733D02*
X153600001Y-102281400D01*
X153600001Y-102281400D02*
X153566668Y-102214733D01*
X153566668Y-102214733D02*
X153566668Y-102148066D01*
X153566668Y-102148066D02*
X153600001Y-102081400D01*
X153600001Y-102081400D02*
X153633335Y-102048066D01*
X153633335Y-102048066D02*
X153700001Y-102014733D01*
X153700001Y-102014733D02*
X153866668Y-102014733D01*
X153866668Y-102014733D02*
X153966668Y-102048066D01*
X154166668Y-102014733D02*
X154566668Y-102014733D01*
X154366668Y-102714733D02*
X154366668Y-102014733D01*
X154766668Y-102514733D02*
X155100001Y-102514733D01*
X154700001Y-102714733D02*
X154933335Y-102014733D01*
X154933335Y-102014733D02*
X155166668Y-102714733D01*
X155300001Y-102014733D02*
X155700001Y-102014733D01*
X155500001Y-102714733D02*
X155500001Y-102014733D01*
X155933334Y-102348066D02*
X156166668Y-102348066D01*
X156266668Y-102714733D02*
X155933334Y-102714733D01*
X155933334Y-102714733D02*
X155933334Y-102014733D01*
X155933334Y-102014733D02*
X156266668Y-102014733D01*
X157066667Y-102081400D02*
X157100000Y-102048066D01*
X157100000Y-102048066D02*
X157166667Y-102014733D01*
X157166667Y-102014733D02*
X157333334Y-102014733D01*
X157333334Y-102014733D02*
X157400000Y-102048066D01*
X157400000Y-102048066D02*
X157433334Y-102081400D01*
X157433334Y-102081400D02*
X157466667Y-102148066D01*
X157466667Y-102148066D02*
X157466667Y-102214733D01*
X157466667Y-102214733D02*
X157433334Y-102314733D01*
X157433334Y-102314733D02*
X157033334Y-102714733D01*
X157033334Y-102714733D02*
X157466667Y-102714733D01*
X158700000Y-102714733D02*
X158466667Y-102381400D01*
X158300000Y-102714733D02*
X158300000Y-102014733D01*
X158300000Y-102014733D02*
X158566667Y-102014733D01*
X158566667Y-102014733D02*
X158633334Y-102048066D01*
X158633334Y-102048066D02*
X158666667Y-102081400D01*
X158666667Y-102081400D02*
X158700000Y-102148066D01*
X158700000Y-102148066D02*
X158700000Y-102248066D01*
X158700000Y-102248066D02*
X158666667Y-102314733D01*
X158666667Y-102314733D02*
X158633334Y-102348066D01*
X158633334Y-102348066D02*
X158566667Y-102381400D01*
X158566667Y-102381400D02*
X158300000Y-102381400D01*
X158933334Y-102014733D02*
X159400000Y-102714733D01*
X159400000Y-102014733D02*
X158933334Y-102714733D01*
X159666667Y-102714733D02*
X159666667Y-102014733D01*
X159666667Y-102014733D02*
X159833334Y-102014733D01*
X159833334Y-102014733D02*
X159933334Y-102048066D01*
X159933334Y-102048066D02*
X160000001Y-102114733D01*
X160000001Y-102114733D02*
X160033334Y-102181400D01*
X160033334Y-102181400D02*
X160066667Y-102314733D01*
X160066667Y-102314733D02*
X160066667Y-102414733D01*
X160066667Y-102414733D02*
X160033334Y-102548066D01*
X160033334Y-102548066D02*
X160000001Y-102614733D01*
X160000001Y-102614733D02*
X159933334Y-102681400D01*
X159933334Y-102681400D02*
X159833334Y-102714733D01*
X159833334Y-102714733D02*
X159666667Y-102714733D01*
X160833334Y-102014733D02*
X161266667Y-102014733D01*
X161266667Y-102014733D02*
X161033334Y-102281400D01*
X161033334Y-102281400D02*
X161133334Y-102281400D01*
X161133334Y-102281400D02*
X161200000Y-102314733D01*
X161200000Y-102314733D02*
X161233334Y-102348066D01*
X161233334Y-102348066D02*
X161266667Y-102414733D01*
X161266667Y-102414733D02*
X161266667Y-102581400D01*
X161266667Y-102581400D02*
X161233334Y-102648066D01*
X161233334Y-102648066D02*
X161200000Y-102681400D01*
X161200000Y-102681400D02*
X161133334Y-102714733D01*
X161133334Y-102714733D02*
X160933334Y-102714733D01*
X160933334Y-102714733D02*
X160866667Y-102681400D01*
X160866667Y-102681400D02*
X160833334Y-102648066D01*
X162000000Y-102014733D02*
X162400000Y-102014733D01*
X162200000Y-102714733D02*
X162200000Y-102014733D01*
X162566667Y-102014733D02*
X163033333Y-102714733D01*
X163033333Y-102014733D02*
X162566667Y-102714733D01*
X163300000Y-102714733D02*
X163300000Y-102014733D01*
X163300000Y-102014733D02*
X163466667Y-102014733D01*
X163466667Y-102014733D02*
X163566667Y-102048066D01*
X163566667Y-102048066D02*
X163633334Y-102114733D01*
X163633334Y-102114733D02*
X163666667Y-102181400D01*
X163666667Y-102181400D02*
X163700000Y-102314733D01*
X163700000Y-102314733D02*
X163700000Y-102414733D01*
X163700000Y-102414733D02*
X163666667Y-102548066D01*
X163666667Y-102548066D02*
X163633334Y-102614733D01*
X163633334Y-102614733D02*
X163566667Y-102681400D01*
X163566667Y-102681400D02*
X163466667Y-102714733D01*
X163466667Y-102714733D02*
X163300000Y-102714733D01*
X164833333Y-102248066D02*
X164833333Y-102714733D01*
X164666667Y-101981400D02*
X164500000Y-102481400D01*
X164500000Y-102481400D02*
X164933333Y-102481400D01*
X166100000Y-102048066D02*
X166033333Y-102014733D01*
X166033333Y-102014733D02*
X165933333Y-102014733D01*
X165933333Y-102014733D02*
X165833333Y-102048066D01*
X165833333Y-102048066D02*
X165766667Y-102114733D01*
X165766667Y-102114733D02*
X165733333Y-102181400D01*
X165733333Y-102181400D02*
X165700000Y-102314733D01*
X165700000Y-102314733D02*
X165700000Y-102414733D01*
X165700000Y-102414733D02*
X165733333Y-102548066D01*
X165733333Y-102548066D02*
X165766667Y-102614733D01*
X165766667Y-102614733D02*
X165833333Y-102681400D01*
X165833333Y-102681400D02*
X165933333Y-102714733D01*
X165933333Y-102714733D02*
X166000000Y-102714733D01*
X166000000Y-102714733D02*
X166100000Y-102681400D01*
X166100000Y-102681400D02*
X166133333Y-102648066D01*
X166133333Y-102648066D02*
X166133333Y-102414733D01*
X166133333Y-102414733D02*
X166000000Y-102414733D01*
X166433333Y-102714733D02*
X166433333Y-102014733D01*
X166433333Y-102014733D02*
X166833333Y-102714733D01*
X166833333Y-102714733D02*
X166833333Y-102014733D01*
X167166666Y-102714733D02*
X167166666Y-102014733D01*
X167166666Y-102014733D02*
X167333333Y-102014733D01*
X167333333Y-102014733D02*
X167433333Y-102048066D01*
X167433333Y-102048066D02*
X167500000Y-102114733D01*
X167500000Y-102114733D02*
X167533333Y-102181400D01*
X167533333Y-102181400D02*
X167566666Y-102314733D01*
X167566666Y-102314733D02*
X167566666Y-102414733D01*
X167566666Y-102414733D02*
X167533333Y-102548066D01*
X167533333Y-102548066D02*
X167500000Y-102614733D01*
X167500000Y-102614733D02*
X167433333Y-102681400D01*
X167433333Y-102681400D02*
X167333333Y-102714733D01*
X167333333Y-102714733D02*
X167166666Y-102714733D01*
X168733333Y-102014733D02*
X168399999Y-102014733D01*
X168399999Y-102014733D02*
X168366666Y-102348066D01*
X168366666Y-102348066D02*
X168399999Y-102314733D01*
X168399999Y-102314733D02*
X168466666Y-102281400D01*
X168466666Y-102281400D02*
X168633333Y-102281400D01*
X168633333Y-102281400D02*
X168699999Y-102314733D01*
X168699999Y-102314733D02*
X168733333Y-102348066D01*
X168733333Y-102348066D02*
X168766666Y-102414733D01*
X168766666Y-102414733D02*
X168766666Y-102581400D01*
X168766666Y-102581400D02*
X168733333Y-102648066D01*
X168733333Y-102648066D02*
X168699999Y-102681400D01*
X168699999Y-102681400D02*
X168633333Y-102714733D01*
X168633333Y-102714733D02*
X168466666Y-102714733D01*
X168466666Y-102714733D02*
X168399999Y-102681400D01*
X168399999Y-102681400D02*
X168366666Y-102648066D01*
X169499999Y-102014733D02*
X169733333Y-102714733D01*
X169733333Y-102714733D02*
X169966666Y-102014733D01*
X170599999Y-102648066D02*
X170566666Y-102681400D01*
X170566666Y-102681400D02*
X170466666Y-102714733D01*
X170466666Y-102714733D02*
X170399999Y-102714733D01*
X170399999Y-102714733D02*
X170299999Y-102681400D01*
X170299999Y-102681400D02*
X170233333Y-102614733D01*
X170233333Y-102614733D02*
X170199999Y-102548066D01*
X170199999Y-102548066D02*
X170166666Y-102414733D01*
X170166666Y-102414733D02*
X170166666Y-102314733D01*
X170166666Y-102314733D02*
X170199999Y-102181400D01*
X170199999Y-102181400D02*
X170233333Y-102114733D01*
X170233333Y-102114733D02*
X170299999Y-102048066D01*
X170299999Y-102048066D02*
X170399999Y-102014733D01*
X170399999Y-102014733D02*
X170466666Y-102014733D01*
X170466666Y-102014733D02*
X170566666Y-102048066D01*
X170566666Y-102048066D02*
X170599999Y-102081400D01*
X171299999Y-102648066D02*
X171266666Y-102681400D01*
X171266666Y-102681400D02*
X171166666Y-102714733D01*
X171166666Y-102714733D02*
X171099999Y-102714733D01*
X171099999Y-102714733D02*
X170999999Y-102681400D01*
X170999999Y-102681400D02*
X170933333Y-102614733D01*
X170933333Y-102614733D02*
X170899999Y-102548066D01*
X170899999Y-102548066D02*
X170866666Y-102414733D01*
X170866666Y-102414733D02*
X170866666Y-102314733D01*
X170866666Y-102314733D02*
X170899999Y-102181400D01*
X170899999Y-102181400D02*
X170933333Y-102114733D01*
X170933333Y-102114733D02*
X170999999Y-102048066D01*
X170999999Y-102048066D02*
X171099999Y-102014733D01*
X171099999Y-102014733D02*
X171166666Y-102014733D01*
X171166666Y-102014733D02*
X171266666Y-102048066D01*
X171266666Y-102048066D02*
X171299999Y-102081400D01*
X172433332Y-102014733D02*
X172299999Y-102014733D01*
X172299999Y-102014733D02*
X172233332Y-102048066D01*
X172233332Y-102048066D02*
X172199999Y-102081400D01*
X172199999Y-102081400D02*
X172133332Y-102181400D01*
X172133332Y-102181400D02*
X172099999Y-102314733D01*
X172099999Y-102314733D02*
X172099999Y-102581400D01*
X172099999Y-102581400D02*
X172133332Y-102648066D01*
X172133332Y-102648066D02*
X172166666Y-102681400D01*
X172166666Y-102681400D02*
X172233332Y-102714733D01*
X172233332Y-102714733D02*
X172366666Y-102714733D01*
X172366666Y-102714733D02*
X172433332Y-102681400D01*
X172433332Y-102681400D02*
X172466666Y-102648066D01*
X172466666Y-102648066D02*
X172499999Y-102581400D01*
X172499999Y-102581400D02*
X172499999Y-102414733D01*
X172499999Y-102414733D02*
X172466666Y-102348066D01*
X172466666Y-102348066D02*
X172433332Y-102314733D01*
X172433332Y-102314733D02*
X172366666Y-102281400D01*
X172366666Y-102281400D02*
X172233332Y-102281400D01*
X172233332Y-102281400D02*
X172166666Y-102314733D01*
X172166666Y-102314733D02*
X172133332Y-102348066D01*
X172133332Y-102348066D02*
X172099999Y-102414733D01*
X173333332Y-102348066D02*
X173566666Y-102348066D01*
X173666666Y-102714733D02*
X173333332Y-102714733D01*
X173333332Y-102714733D02*
X173333332Y-102014733D01*
X173333332Y-102014733D02*
X173666666Y-102014733D01*
X173966665Y-102714733D02*
X173966665Y-102014733D01*
X173966665Y-102014733D02*
X174366665Y-102714733D01*
X174366665Y-102714733D02*
X174366665Y-102014733D01*
X170983333Y-141514733D02*
X170750000Y-141181400D01*
X170583333Y-141514733D02*
X170583333Y-140814733D01*
X170583333Y-140814733D02*
X170850000Y-140814733D01*
X170850000Y-140814733D02*
X170916667Y-140848066D01*
X170916667Y-140848066D02*
X170950000Y-140881400D01*
X170950000Y-140881400D02*
X170983333Y-140948066D01*
X170983333Y-140948066D02*
X170983333Y-141048066D01*
X170983333Y-141048066D02*
X170950000Y-141114733D01*
X170950000Y-141114733D02*
X170916667Y-141148066D01*
X170916667Y-141148066D02*
X170850000Y-141181400D01*
X170850000Y-141181400D02*
X170583333Y-141181400D01*
X171283333Y-141148066D02*
X171516667Y-141148066D01*
X171616667Y-141514733D02*
X171283333Y-141514733D01*
X171283333Y-141514733D02*
X171283333Y-140814733D01*
X171283333Y-140814733D02*
X171616667Y-140814733D01*
X172250000Y-141514733D02*
X171916666Y-141514733D01*
X171916666Y-141514733D02*
X171916666Y-140814733D01*
X172616667Y-140814733D02*
X172750000Y-140814733D01*
X172750000Y-140814733D02*
X172816667Y-140848066D01*
X172816667Y-140848066D02*
X172883333Y-140914733D01*
X172883333Y-140914733D02*
X172916667Y-141048066D01*
X172916667Y-141048066D02*
X172916667Y-141281400D01*
X172916667Y-141281400D02*
X172883333Y-141414733D01*
X172883333Y-141414733D02*
X172816667Y-141481400D01*
X172816667Y-141481400D02*
X172750000Y-141514733D01*
X172750000Y-141514733D02*
X172616667Y-141514733D01*
X172616667Y-141514733D02*
X172550000Y-141481400D01*
X172550000Y-141481400D02*
X172483333Y-141414733D01*
X172483333Y-141414733D02*
X172450000Y-141281400D01*
X172450000Y-141281400D02*
X172450000Y-141048066D01*
X172450000Y-141048066D02*
X172483333Y-140914733D01*
X172483333Y-140914733D02*
X172550000Y-140848066D01*
X172550000Y-140848066D02*
X172616667Y-140814733D01*
X173416666Y-140814733D02*
X173416666Y-141314733D01*
X173416666Y-141314733D02*
X173383333Y-141414733D01*
X173383333Y-141414733D02*
X173316666Y-141481400D01*
X173316666Y-141481400D02*
X173216666Y-141514733D01*
X173216666Y-141514733D02*
X173150000Y-141514733D01*
X175700000Y-127314733D02*
X175700000Y-126614733D01*
X175700000Y-126614733D02*
X175866667Y-126614733D01*
X175866667Y-126614733D02*
X175966667Y-126648066D01*
X175966667Y-126648066D02*
X176033334Y-126714733D01*
X176033334Y-126714733D02*
X176066667Y-126781400D01*
X176066667Y-126781400D02*
X176100000Y-126914733D01*
X176100000Y-126914733D02*
X176100000Y-127014733D01*
X176100000Y-127014733D02*
X176066667Y-127148066D01*
X176066667Y-127148066D02*
X176033334Y-127214733D01*
X176033334Y-127214733D02*
X175966667Y-127281400D01*
X175966667Y-127281400D02*
X175866667Y-127314733D01*
X175866667Y-127314733D02*
X175700000Y-127314733D01*
X176300000Y-126614733D02*
X176700000Y-126614733D01*
X176500000Y-127314733D02*
X176500000Y-126614733D01*
X177333333Y-127314733D02*
X177100000Y-126981400D01*
X176933333Y-127314733D02*
X176933333Y-126614733D01*
X176933333Y-126614733D02*
X177200000Y-126614733D01*
X177200000Y-126614733D02*
X177266667Y-126648066D01*
X177266667Y-126648066D02*
X177300000Y-126681400D01*
X177300000Y-126681400D02*
X177333333Y-126748066D01*
X177333333Y-126748066D02*
X177333333Y-126848066D01*
X177333333Y-126848066D02*
X177300000Y-126914733D01*
X177300000Y-126914733D02*
X177266667Y-126948066D01*
X177266667Y-126948066D02*
X177200000Y-126981400D01*
X177200000Y-126981400D02*
X176933333Y-126981400D01*
X175966667Y-129188065D02*
X175900000Y-129154732D01*
X175900000Y-129154732D02*
X175800000Y-129154732D01*
X175800000Y-129154732D02*
X175700000Y-129188065D01*
X175700000Y-129188065D02*
X175633334Y-129254732D01*
X175633334Y-129254732D02*
X175600000Y-129321399D01*
X175600000Y-129321399D02*
X175566667Y-129454732D01*
X175566667Y-129454732D02*
X175566667Y-129554732D01*
X175566667Y-129554732D02*
X175600000Y-129688065D01*
X175600000Y-129688065D02*
X175633334Y-129754732D01*
X175633334Y-129754732D02*
X175700000Y-129821399D01*
X175700000Y-129821399D02*
X175800000Y-129854732D01*
X175800000Y-129854732D02*
X175866667Y-129854732D01*
X175866667Y-129854732D02*
X175966667Y-129821399D01*
X175966667Y-129821399D02*
X176000000Y-129788065D01*
X176000000Y-129788065D02*
X176000000Y-129554732D01*
X176000000Y-129554732D02*
X175866667Y-129554732D01*
X176300000Y-129854732D02*
X176300000Y-129154732D01*
X176300000Y-129154732D02*
X176700000Y-129854732D01*
X176700000Y-129854732D02*
X176700000Y-129154732D01*
X177033333Y-129854732D02*
X177033333Y-129154732D01*
X177033333Y-129154732D02*
X177200000Y-129154732D01*
X177200000Y-129154732D02*
X177300000Y-129188065D01*
X177300000Y-129188065D02*
X177366667Y-129254732D01*
X177366667Y-129254732D02*
X177400000Y-129321399D01*
X177400000Y-129321399D02*
X177433333Y-129454732D01*
X177433333Y-129454732D02*
X177433333Y-129554732D01*
X177433333Y-129554732D02*
X177400000Y-129688065D01*
X177400000Y-129688065D02*
X177366667Y-129754732D01*
X177366667Y-129754732D02*
X177300000Y-129821399D01*
X177300000Y-129821399D02*
X177200000Y-129854732D01*
X177200000Y-129854732D02*
X177033333Y-129854732D01*
X175666666Y-144281400D02*
X175766666Y-144314733D01*
X175766666Y-144314733D02*
X175933333Y-144314733D01*
X175933333Y-144314733D02*
X175999999Y-144281400D01*
X175999999Y-144281400D02*
X176033333Y-144248066D01*
X176033333Y-144248066D02*
X176066666Y-144181400D01*
X176066666Y-144181400D02*
X176066666Y-144114733D01*
X176066666Y-144114733D02*
X176033333Y-144048066D01*
X176033333Y-144048066D02*
X175999999Y-144014733D01*
X175999999Y-144014733D02*
X175933333Y-143981400D01*
X175933333Y-143981400D02*
X175799999Y-143948066D01*
X175799999Y-143948066D02*
X175733333Y-143914733D01*
X175733333Y-143914733D02*
X175699999Y-143881400D01*
X175699999Y-143881400D02*
X175666666Y-143814733D01*
X175666666Y-143814733D02*
X175666666Y-143748066D01*
X175666666Y-143748066D02*
X175699999Y-143681400D01*
X175699999Y-143681400D02*
X175733333Y-143648066D01*
X175733333Y-143648066D02*
X175799999Y-143614733D01*
X175799999Y-143614733D02*
X175966666Y-143614733D01*
X175966666Y-143614733D02*
X176066666Y-143648066D01*
X176766666Y-144248066D02*
X176733333Y-144281400D01*
X176733333Y-144281400D02*
X176633333Y-144314733D01*
X176633333Y-144314733D02*
X176566666Y-144314733D01*
X176566666Y-144314733D02*
X176466666Y-144281400D01*
X176466666Y-144281400D02*
X176400000Y-144214733D01*
X176400000Y-144214733D02*
X176366666Y-144148066D01*
X176366666Y-144148066D02*
X176333333Y-144014733D01*
X176333333Y-144014733D02*
X176333333Y-143914733D01*
X176333333Y-143914733D02*
X176366666Y-143781400D01*
X176366666Y-143781400D02*
X176400000Y-143714733D01*
X176400000Y-143714733D02*
X176466666Y-143648066D01*
X176466666Y-143648066D02*
X176566666Y-143614733D01*
X176566666Y-143614733D02*
X176633333Y-143614733D01*
X176633333Y-143614733D02*
X176733333Y-143648066D01*
X176733333Y-143648066D02*
X176766666Y-143681400D01*
X177400000Y-144314733D02*
X177066666Y-144314733D01*
X177066666Y-144314733D02*
X177066666Y-143614733D01*
X175650000Y-146821400D02*
X175750000Y-146854733D01*
X175750000Y-146854733D02*
X175916667Y-146854733D01*
X175916667Y-146854733D02*
X175983333Y-146821400D01*
X175983333Y-146821400D02*
X176016667Y-146788066D01*
X176016667Y-146788066D02*
X176050000Y-146721400D01*
X176050000Y-146721400D02*
X176050000Y-146654733D01*
X176050000Y-146654733D02*
X176016667Y-146588066D01*
X176016667Y-146588066D02*
X175983333Y-146554733D01*
X175983333Y-146554733D02*
X175916667Y-146521400D01*
X175916667Y-146521400D02*
X175783333Y-146488066D01*
X175783333Y-146488066D02*
X175716667Y-146454733D01*
X175716667Y-146454733D02*
X175683333Y-146421400D01*
X175683333Y-146421400D02*
X175650000Y-146354733D01*
X175650000Y-146354733D02*
X175650000Y-146288066D01*
X175650000Y-146288066D02*
X175683333Y-146221400D01*
X175683333Y-146221400D02*
X175716667Y-146188066D01*
X175716667Y-146188066D02*
X175783333Y-146154733D01*
X175783333Y-146154733D02*
X175950000Y-146154733D01*
X175950000Y-146154733D02*
X176050000Y-146188066D01*
X176350000Y-146854733D02*
X176350000Y-146154733D01*
X176350000Y-146154733D02*
X176516667Y-146154733D01*
X176516667Y-146154733D02*
X176616667Y-146188066D01*
X176616667Y-146188066D02*
X176683334Y-146254733D01*
X176683334Y-146254733D02*
X176716667Y-146321400D01*
X176716667Y-146321400D02*
X176750000Y-146454733D01*
X176750000Y-146454733D02*
X176750000Y-146554733D01*
X176750000Y-146554733D02*
X176716667Y-146688066D01*
X176716667Y-146688066D02*
X176683334Y-146754733D01*
X176683334Y-146754733D02*
X176616667Y-146821400D01*
X176616667Y-146821400D02*
X176516667Y-146854733D01*
X176516667Y-146854733D02*
X176350000Y-146854733D01*
X177016667Y-146654733D02*
X177350000Y-146654733D01*
X176950000Y-146854733D02*
X177183334Y-146154733D01*
X177183334Y-146154733D02*
X177416667Y-146854733D01*
X176366667Y-148694732D02*
X176033333Y-148694732D01*
X176033333Y-148694732D02*
X176000000Y-149028065D01*
X176000000Y-149028065D02*
X176033333Y-148994732D01*
X176033333Y-148994732D02*
X176100000Y-148961399D01*
X176100000Y-148961399D02*
X176266667Y-148961399D01*
X176266667Y-148961399D02*
X176333333Y-148994732D01*
X176333333Y-148994732D02*
X176366667Y-149028065D01*
X176366667Y-149028065D02*
X176400000Y-149094732D01*
X176400000Y-149094732D02*
X176400000Y-149261399D01*
X176400000Y-149261399D02*
X176366667Y-149328065D01*
X176366667Y-149328065D02*
X176333333Y-149361399D01*
X176333333Y-149361399D02*
X176266667Y-149394732D01*
X176266667Y-149394732D02*
X176100000Y-149394732D01*
X176100000Y-149394732D02*
X176033333Y-149361399D01*
X176033333Y-149361399D02*
X176000000Y-149328065D01*
X176600000Y-148694732D02*
X176833334Y-149394732D01*
X176833334Y-149394732D02*
X177066667Y-148694732D01*
X175966667Y-151268066D02*
X175900000Y-151234733D01*
X175900000Y-151234733D02*
X175800000Y-151234733D01*
X175800000Y-151234733D02*
X175700000Y-151268066D01*
X175700000Y-151268066D02*
X175633334Y-151334733D01*
X175633334Y-151334733D02*
X175600000Y-151401400D01*
X175600000Y-151401400D02*
X175566667Y-151534733D01*
X175566667Y-151534733D02*
X175566667Y-151634733D01*
X175566667Y-151634733D02*
X175600000Y-151768066D01*
X175600000Y-151768066D02*
X175633334Y-151834733D01*
X175633334Y-151834733D02*
X175700000Y-151901400D01*
X175700000Y-151901400D02*
X175800000Y-151934733D01*
X175800000Y-151934733D02*
X175866667Y-151934733D01*
X175866667Y-151934733D02*
X175966667Y-151901400D01*
X175966667Y-151901400D02*
X176000000Y-151868066D01*
X176000000Y-151868066D02*
X176000000Y-151634733D01*
X176000000Y-151634733D02*
X175866667Y-151634733D01*
X176300000Y-151934733D02*
X176300000Y-151234733D01*
X176300000Y-151234733D02*
X176700000Y-151934733D01*
X176700000Y-151934733D02*
X176700000Y-151234733D01*
X177033333Y-151934733D02*
X177033333Y-151234733D01*
X177033333Y-151234733D02*
X177200000Y-151234733D01*
X177200000Y-151234733D02*
X177300000Y-151268066D01*
X177300000Y-151268066D02*
X177366667Y-151334733D01*
X177366667Y-151334733D02*
X177400000Y-151401400D01*
X177400000Y-151401400D02*
X177433333Y-151534733D01*
X177433333Y-151534733D02*
X177433333Y-151634733D01*
X177433333Y-151634733D02*
X177400000Y-151768066D01*
X177400000Y-151768066D02*
X177366667Y-151834733D01*
X177366667Y-151834733D02*
X177300000Y-151901400D01*
X177300000Y-151901400D02*
X177200000Y-151934733D01*
X177200000Y-151934733D02*
X177033333Y-151934733D01*
X176150000Y-159314733D02*
X176150000Y-158614733D01*
X176883333Y-159314733D02*
X176650000Y-158981400D01*
X176483333Y-159314733D02*
X176483333Y-158614733D01*
X176483333Y-158614733D02*
X176750000Y-158614733D01*
X176750000Y-158614733D02*
X176816667Y-158648066D01*
X176816667Y-158648066D02*
X176850000Y-158681400D01*
X176850000Y-158681400D02*
X176883333Y-158748066D01*
X176883333Y-158748066D02*
X176883333Y-158848066D01*
X176883333Y-158848066D02*
X176850000Y-158914733D01*
X176850000Y-158914733D02*
X176816667Y-158948066D01*
X176816667Y-158948066D02*
X176750000Y-158981400D01*
X176750000Y-158981400D02*
X176483333Y-158981400D01*
X175966667Y-161188066D02*
X175900000Y-161154733D01*
X175900000Y-161154733D02*
X175800000Y-161154733D01*
X175800000Y-161154733D02*
X175700000Y-161188066D01*
X175700000Y-161188066D02*
X175633334Y-161254733D01*
X175633334Y-161254733D02*
X175600000Y-161321400D01*
X175600000Y-161321400D02*
X175566667Y-161454733D01*
X175566667Y-161454733D02*
X175566667Y-161554733D01*
X175566667Y-161554733D02*
X175600000Y-161688066D01*
X175600000Y-161688066D02*
X175633334Y-161754733D01*
X175633334Y-161754733D02*
X175700000Y-161821400D01*
X175700000Y-161821400D02*
X175800000Y-161854733D01*
X175800000Y-161854733D02*
X175866667Y-161854733D01*
X175866667Y-161854733D02*
X175966667Y-161821400D01*
X175966667Y-161821400D02*
X176000000Y-161788066D01*
X176000000Y-161788066D02*
X176000000Y-161554733D01*
X176000000Y-161554733D02*
X175866667Y-161554733D01*
X176300000Y-161854733D02*
X176300000Y-161154733D01*
X176300000Y-161154733D02*
X176700000Y-161854733D01*
X176700000Y-161854733D02*
X176700000Y-161154733D01*
X177033333Y-161854733D02*
X177033333Y-161154733D01*
X177033333Y-161154733D02*
X177200000Y-161154733D01*
X177200000Y-161154733D02*
X177300000Y-161188066D01*
X177300000Y-161188066D02*
X177366667Y-161254733D01*
X177366667Y-161254733D02*
X177400000Y-161321400D01*
X177400000Y-161321400D02*
X177433333Y-161454733D01*
X177433333Y-161454733D02*
X177433333Y-161554733D01*
X177433333Y-161554733D02*
X177400000Y-161688066D01*
X177400000Y-161688066D02*
X177366667Y-161754733D01*
X177366667Y-161754733D02*
X177300000Y-161821400D01*
X177300000Y-161821400D02*
X177200000Y-161854733D01*
X177200000Y-161854733D02*
X177033333Y-161854733D01*
X176366667Y-163694732D02*
X176033333Y-163694732D01*
X176033333Y-163694732D02*
X176000000Y-164028065D01*
X176000000Y-164028065D02*
X176033333Y-163994732D01*
X176033333Y-163994732D02*
X176100000Y-163961399D01*
X176100000Y-163961399D02*
X176266667Y-163961399D01*
X176266667Y-163961399D02*
X176333333Y-163994732D01*
X176333333Y-163994732D02*
X176366667Y-164028065D01*
X176366667Y-164028065D02*
X176400000Y-164094732D01*
X176400000Y-164094732D02*
X176400000Y-164261399D01*
X176400000Y-164261399D02*
X176366667Y-164328065D01*
X176366667Y-164328065D02*
X176333333Y-164361399D01*
X176333333Y-164361399D02*
X176266667Y-164394732D01*
X176266667Y-164394732D02*
X176100000Y-164394732D01*
X176100000Y-164394732D02*
X176033333Y-164361399D01*
X176033333Y-164361399D02*
X176000000Y-164328065D01*
X176600000Y-163694732D02*
X176833334Y-164394732D01*
X176833334Y-164394732D02*
X177066667Y-163694732D01*
X175966667Y-169988066D02*
X175900000Y-169954733D01*
X175900000Y-169954733D02*
X175800000Y-169954733D01*
X175800000Y-169954733D02*
X175700000Y-169988066D01*
X175700000Y-169988066D02*
X175633334Y-170054733D01*
X175633334Y-170054733D02*
X175600000Y-170121400D01*
X175600000Y-170121400D02*
X175566667Y-170254733D01*
X175566667Y-170254733D02*
X175566667Y-170354733D01*
X175566667Y-170354733D02*
X175600000Y-170488066D01*
X175600000Y-170488066D02*
X175633334Y-170554733D01*
X175633334Y-170554733D02*
X175700000Y-170621400D01*
X175700000Y-170621400D02*
X175800000Y-170654733D01*
X175800000Y-170654733D02*
X175866667Y-170654733D01*
X175866667Y-170654733D02*
X175966667Y-170621400D01*
X175966667Y-170621400D02*
X176000000Y-170588066D01*
X176000000Y-170588066D02*
X176000000Y-170354733D01*
X176000000Y-170354733D02*
X175866667Y-170354733D01*
X176300000Y-170654733D02*
X176300000Y-169954733D01*
X176300000Y-169954733D02*
X176700000Y-170654733D01*
X176700000Y-170654733D02*
X176700000Y-169954733D01*
X177033333Y-170654733D02*
X177033333Y-169954733D01*
X177033333Y-169954733D02*
X177200000Y-169954733D01*
X177200000Y-169954733D02*
X177300000Y-169988066D01*
X177300000Y-169988066D02*
X177366667Y-170054733D01*
X177366667Y-170054733D02*
X177400000Y-170121400D01*
X177400000Y-170121400D02*
X177433333Y-170254733D01*
X177433333Y-170254733D02*
X177433333Y-170354733D01*
X177433333Y-170354733D02*
X177400000Y-170488066D01*
X177400000Y-170488066D02*
X177366667Y-170554733D01*
X177366667Y-170554733D02*
X177300000Y-170621400D01*
X177300000Y-170621400D02*
X177200000Y-170654733D01*
X177200000Y-170654733D02*
X177033333Y-170654733D01*
X176016667Y-174314733D02*
X175683333Y-174314733D01*
X175683333Y-174314733D02*
X175683333Y-173614733D01*
X176250000Y-173614733D02*
X176250000Y-174181400D01*
X176250000Y-174181400D02*
X176283334Y-174248066D01*
X176283334Y-174248066D02*
X176316667Y-174281400D01*
X176316667Y-174281400D02*
X176383334Y-174314733D01*
X176383334Y-174314733D02*
X176516667Y-174314733D01*
X176516667Y-174314733D02*
X176583334Y-174281400D01*
X176583334Y-174281400D02*
X176616667Y-174248066D01*
X176616667Y-174248066D02*
X176650000Y-174181400D01*
X176650000Y-174181400D02*
X176650000Y-173614733D01*
X176916667Y-173614733D02*
X177383333Y-173614733D01*
X177383333Y-173614733D02*
X176916667Y-174314733D01*
X176916667Y-174314733D02*
X177383333Y-174314733D01*
X175966667Y-176188066D02*
X175900000Y-176154733D01*
X175900000Y-176154733D02*
X175800000Y-176154733D01*
X175800000Y-176154733D02*
X175700000Y-176188066D01*
X175700000Y-176188066D02*
X175633334Y-176254733D01*
X175633334Y-176254733D02*
X175600000Y-176321400D01*
X175600000Y-176321400D02*
X175566667Y-176454733D01*
X175566667Y-176454733D02*
X175566667Y-176554733D01*
X175566667Y-176554733D02*
X175600000Y-176688066D01*
X175600000Y-176688066D02*
X175633334Y-176754733D01*
X175633334Y-176754733D02*
X175700000Y-176821400D01*
X175700000Y-176821400D02*
X175800000Y-176854733D01*
X175800000Y-176854733D02*
X175866667Y-176854733D01*
X175866667Y-176854733D02*
X175966667Y-176821400D01*
X175966667Y-176821400D02*
X176000000Y-176788066D01*
X176000000Y-176788066D02*
X176000000Y-176554733D01*
X176000000Y-176554733D02*
X175866667Y-176554733D01*
X176300000Y-176854733D02*
X176300000Y-176154733D01*
X176300000Y-176154733D02*
X176700000Y-176854733D01*
X176700000Y-176854733D02*
X176700000Y-176154733D01*
X177033333Y-176854733D02*
X177033333Y-176154733D01*
X177033333Y-176154733D02*
X177200000Y-176154733D01*
X177200000Y-176154733D02*
X177300000Y-176188066D01*
X177300000Y-176188066D02*
X177366667Y-176254733D01*
X177366667Y-176254733D02*
X177400000Y-176321400D01*
X177400000Y-176321400D02*
X177433333Y-176454733D01*
X177433333Y-176454733D02*
X177433333Y-176554733D01*
X177433333Y-176554733D02*
X177400000Y-176688066D01*
X177400000Y-176688066D02*
X177366667Y-176754733D01*
X177366667Y-176754733D02*
X177300000Y-176821400D01*
X177300000Y-176821400D02*
X177200000Y-176854733D01*
X177200000Y-176854733D02*
X177033333Y-176854733D01*
X175683333Y-168114733D02*
X175683333Y-167414733D01*
X175683333Y-167414733D02*
X175916667Y-167914733D01*
X175916667Y-167914733D02*
X176150000Y-167414733D01*
X176150000Y-167414733D02*
X176150000Y-168114733D01*
X176616667Y-167414733D02*
X176750000Y-167414733D01*
X176750000Y-167414733D02*
X176816667Y-167448066D01*
X176816667Y-167448066D02*
X176883333Y-167514733D01*
X176883333Y-167514733D02*
X176916667Y-167648066D01*
X176916667Y-167648066D02*
X176916667Y-167881400D01*
X176916667Y-167881400D02*
X176883333Y-168014733D01*
X176883333Y-168014733D02*
X176816667Y-168081400D01*
X176816667Y-168081400D02*
X176750000Y-168114733D01*
X176750000Y-168114733D02*
X176616667Y-168114733D01*
X176616667Y-168114733D02*
X176550000Y-168081400D01*
X176550000Y-168081400D02*
X176483333Y-168014733D01*
X176483333Y-168014733D02*
X176450000Y-167881400D01*
X176450000Y-167881400D02*
X176450000Y-167648066D01*
X176450000Y-167648066D02*
X176483333Y-167514733D01*
X176483333Y-167514733D02*
X176550000Y-167448066D01*
X176550000Y-167448066D02*
X176616667Y-167414733D01*
X177216666Y-168114733D02*
X177216666Y-167414733D01*
X177216666Y-167414733D02*
X177383333Y-167414733D01*
X177383333Y-167414733D02*
X177483333Y-167448066D01*
X177483333Y-167448066D02*
X177550000Y-167514733D01*
X177550000Y-167514733D02*
X177583333Y-167581400D01*
X177583333Y-167581400D02*
X177616666Y-167714733D01*
X177616666Y-167714733D02*
X177616666Y-167814733D01*
X177616666Y-167814733D02*
X177583333Y-167948066D01*
X177583333Y-167948066D02*
X177550000Y-168014733D01*
X177550000Y-168014733D02*
X177483333Y-168081400D01*
X177483333Y-168081400D02*
X177383333Y-168114733D01*
X177383333Y-168114733D02*
X177216666Y-168114733D01*
X178050000Y-167414733D02*
X178183333Y-167414733D01*
X178183333Y-167414733D02*
X178250000Y-167448066D01*
X178250000Y-167448066D02*
X178316666Y-167514733D01*
X178316666Y-167514733D02*
X178350000Y-167648066D01*
X178350000Y-167648066D02*
X178350000Y-167881400D01*
X178350000Y-167881400D02*
X178316666Y-168014733D01*
X178316666Y-168014733D02*
X178250000Y-168081400D01*
X178250000Y-168081400D02*
X178183333Y-168114733D01*
X178183333Y-168114733D02*
X178050000Y-168114733D01*
X178050000Y-168114733D02*
X177983333Y-168081400D01*
X177983333Y-168081400D02*
X177916666Y-168014733D01*
X177916666Y-168014733D02*
X177883333Y-167881400D01*
X177883333Y-167881400D02*
X177883333Y-167648066D01*
X177883333Y-167648066D02*
X177916666Y-167514733D01*
X177916666Y-167514733D02*
X177983333Y-167448066D01*
X177983333Y-167448066D02*
X178050000Y-167414733D01*
D11*
X119676190Y-157132163D02*
X120057143Y-157132163D01*
X119600000Y-157360735D02*
X119866667Y-156560735D01*
X119866667Y-156560735D02*
X120133333Y-157360735D01*
X121009524Y-157360735D02*
X121009524Y-156560735D01*
X121009524Y-156560735D02*
X121314286Y-156560735D01*
X121314286Y-156560735D02*
X121390476Y-156598830D01*
X121390476Y-156598830D02*
X121428571Y-156636925D01*
X121428571Y-156636925D02*
X121466667Y-156713116D01*
X121466667Y-156713116D02*
X121466667Y-156827401D01*
X121466667Y-156827401D02*
X121428571Y-156903592D01*
X121428571Y-156903592D02*
X121390476Y-156941687D01*
X121390476Y-156941687D02*
X121314286Y-156979782D01*
X121314286Y-156979782D02*
X121009524Y-156979782D01*
X121961905Y-156560735D02*
X122114286Y-156560735D01*
X122114286Y-156560735D02*
X122190476Y-156598830D01*
X122190476Y-156598830D02*
X122266667Y-156675020D01*
X122266667Y-156675020D02*
X122304762Y-156827401D01*
X122304762Y-156827401D02*
X122304762Y-157094068D01*
X122304762Y-157094068D02*
X122266667Y-157246449D01*
X122266667Y-157246449D02*
X122190476Y-157322640D01*
X122190476Y-157322640D02*
X122114286Y-157360735D01*
X122114286Y-157360735D02*
X121961905Y-157360735D01*
X121961905Y-157360735D02*
X121885714Y-157322640D01*
X121885714Y-157322640D02*
X121809524Y-157246449D01*
X121809524Y-157246449D02*
X121771428Y-157094068D01*
X121771428Y-157094068D02*
X121771428Y-156827401D01*
X121771428Y-156827401D02*
X121809524Y-156675020D01*
X121809524Y-156675020D02*
X121885714Y-156598830D01*
X121885714Y-156598830D02*
X121961905Y-156560735D01*
X122533333Y-156560735D02*
X122990476Y-156560735D01*
X122761904Y-157360735D02*
X122761904Y-156560735D01*
X123257143Y-156941687D02*
X123523809Y-156941687D01*
X123638095Y-157360735D02*
X123257143Y-157360735D01*
X123257143Y-157360735D02*
X123257143Y-156560735D01*
X123257143Y-156560735D02*
X123638095Y-156560735D01*
X123980953Y-157360735D02*
X123980953Y-156560735D01*
X123980953Y-156560735D02*
X124438096Y-157360735D01*
X124438096Y-157360735D02*
X124438096Y-156560735D01*
X125276191Y-157284544D02*
X125238095Y-157322640D01*
X125238095Y-157322640D02*
X125123810Y-157360735D01*
X125123810Y-157360735D02*
X125047619Y-157360735D01*
X125047619Y-157360735D02*
X124933333Y-157322640D01*
X124933333Y-157322640D02*
X124857143Y-157246449D01*
X124857143Y-157246449D02*
X124819048Y-157170259D01*
X124819048Y-157170259D02*
X124780952Y-157017878D01*
X124780952Y-157017878D02*
X124780952Y-156903592D01*
X124780952Y-156903592D02*
X124819048Y-156751211D01*
X124819048Y-156751211D02*
X124857143Y-156675020D01*
X124857143Y-156675020D02*
X124933333Y-156598830D01*
X124933333Y-156598830D02*
X125047619Y-156560735D01*
X125047619Y-156560735D02*
X125123810Y-156560735D01*
X125123810Y-156560735D02*
X125238095Y-156598830D01*
X125238095Y-156598830D02*
X125276191Y-156636925D01*
X125619048Y-157360735D02*
X125619048Y-156560735D01*
X125961904Y-157132163D02*
X126342857Y-157132163D01*
X125885714Y-157360735D02*
X126152381Y-156560735D01*
X126152381Y-156560735D02*
X126419047Y-157360735D01*
X126685714Y-157284544D02*
X126723809Y-157322640D01*
X126723809Y-157322640D02*
X126685714Y-157360735D01*
X126685714Y-157360735D02*
X126647618Y-157322640D01*
X126647618Y-157322640D02*
X126685714Y-157284544D01*
X126685714Y-157284544D02*
X126685714Y-157360735D01*
X126685714Y-156865497D02*
X126723809Y-156903592D01*
X126723809Y-156903592D02*
X126685714Y-156941687D01*
X126685714Y-156941687D02*
X126647618Y-156903592D01*
X126647618Y-156903592D02*
X126685714Y-156865497D01*
X126685714Y-156865497D02*
X126685714Y-156941687D01*
X128095237Y-157360735D02*
X127638094Y-157360735D01*
X127866666Y-157360735D02*
X127866666Y-156560735D01*
X127866666Y-156560735D02*
X127790475Y-156675020D01*
X127790475Y-156675020D02*
X127714285Y-156751211D01*
X127714285Y-156751211D02*
X127638094Y-156789306D01*
X129009523Y-157132163D02*
X129390476Y-157132163D01*
X128933333Y-157360735D02*
X129200000Y-156560735D01*
X129200000Y-156560735D02*
X129466666Y-157360735D01*
X129733333Y-156560735D02*
X129733333Y-157208354D01*
X129733333Y-157208354D02*
X129771428Y-157284544D01*
X129771428Y-157284544D02*
X129809523Y-157322640D01*
X129809523Y-157322640D02*
X129885714Y-157360735D01*
X129885714Y-157360735D02*
X130038095Y-157360735D01*
X130038095Y-157360735D02*
X130114285Y-157322640D01*
X130114285Y-157322640D02*
X130152380Y-157284544D01*
X130152380Y-157284544D02*
X130190476Y-157208354D01*
X130190476Y-157208354D02*
X130190476Y-156560735D01*
X130495237Y-156560735D02*
X131028571Y-157360735D01*
X131028571Y-156560735D02*
X130495237Y-157360735D01*
X131942857Y-157284544D02*
X131980952Y-157322640D01*
X131980952Y-157322640D02*
X131942857Y-157360735D01*
X131942857Y-157360735D02*
X131904761Y-157322640D01*
X131904761Y-157322640D02*
X131942857Y-157284544D01*
X131942857Y-157284544D02*
X131942857Y-157360735D01*
X132323809Y-157284544D02*
X132361904Y-157322640D01*
X132361904Y-157322640D02*
X132323809Y-157360735D01*
X132323809Y-157360735D02*
X132285713Y-157322640D01*
X132285713Y-157322640D02*
X132323809Y-157284544D01*
X132323809Y-157284544D02*
X132323809Y-157360735D01*
X132704761Y-157284544D02*
X132742856Y-157322640D01*
X132742856Y-157322640D02*
X132704761Y-157360735D01*
X132704761Y-157360735D02*
X132666665Y-157322640D01*
X132666665Y-157322640D02*
X132704761Y-157284544D01*
X132704761Y-157284544D02*
X132704761Y-157360735D01*
X133809522Y-156903592D02*
X133733332Y-156865497D01*
X133733332Y-156865497D02*
X133695237Y-156827401D01*
X133695237Y-156827401D02*
X133657141Y-156751211D01*
X133657141Y-156751211D02*
X133657141Y-156713116D01*
X133657141Y-156713116D02*
X133695237Y-156636925D01*
X133695237Y-156636925D02*
X133733332Y-156598830D01*
X133733332Y-156598830D02*
X133809522Y-156560735D01*
X133809522Y-156560735D02*
X133961903Y-156560735D01*
X133961903Y-156560735D02*
X134038094Y-156598830D01*
X134038094Y-156598830D02*
X134076189Y-156636925D01*
X134076189Y-156636925D02*
X134114284Y-156713116D01*
X134114284Y-156713116D02*
X134114284Y-156751211D01*
X134114284Y-156751211D02*
X134076189Y-156827401D01*
X134076189Y-156827401D02*
X134038094Y-156865497D01*
X134038094Y-156865497D02*
X133961903Y-156903592D01*
X133961903Y-156903592D02*
X133809522Y-156903592D01*
X133809522Y-156903592D02*
X133733332Y-156941687D01*
X133733332Y-156941687D02*
X133695237Y-156979782D01*
X133695237Y-156979782D02*
X133657141Y-157055973D01*
X133657141Y-157055973D02*
X133657141Y-157208354D01*
X133657141Y-157208354D02*
X133695237Y-157284544D01*
X133695237Y-157284544D02*
X133733332Y-157322640D01*
X133733332Y-157322640D02*
X133809522Y-157360735D01*
X133809522Y-157360735D02*
X133961903Y-157360735D01*
X133961903Y-157360735D02*
X134038094Y-157322640D01*
X134038094Y-157322640D02*
X134076189Y-157284544D01*
X134076189Y-157284544D02*
X134114284Y-157208354D01*
X134114284Y-157208354D02*
X134114284Y-157055973D01*
X134114284Y-157055973D02*
X134076189Y-156979782D01*
X134076189Y-156979782D02*
X134038094Y-156941687D01*
X134038094Y-156941687D02*
X133961903Y-156903592D01*
X135066666Y-157055973D02*
X135676190Y-157055973D01*
X135371428Y-157360735D02*
X135371428Y-156751211D01*
X136476189Y-157360735D02*
X136019046Y-157360735D01*
X136247618Y-157360735D02*
X136247618Y-156560735D01*
X136247618Y-156560735D02*
X136171427Y-156675020D01*
X136171427Y-156675020D02*
X136095237Y-156751211D01*
X136095237Y-156751211D02*
X136019046Y-156789306D01*
X136780951Y-156636925D02*
X136819047Y-156598830D01*
X136819047Y-156598830D02*
X136895237Y-156560735D01*
X136895237Y-156560735D02*
X137085713Y-156560735D01*
X137085713Y-156560735D02*
X137161904Y-156598830D01*
X137161904Y-156598830D02*
X137199999Y-156636925D01*
X137199999Y-156636925D02*
X137238094Y-156713116D01*
X137238094Y-156713116D02*
X137238094Y-156789306D01*
X137238094Y-156789306D02*
X137199999Y-156903592D01*
X137199999Y-156903592D02*
X136742856Y-157360735D01*
X136742856Y-157360735D02*
X137238094Y-157360735D01*
X137466666Y-156560735D02*
X137733333Y-157360735D01*
X137733333Y-157360735D02*
X137999999Y-156560735D01*
X104476189Y-164453259D02*
X103999999Y-164453259D01*
X103999999Y-164453259D02*
X103999999Y-163453259D01*
X104809523Y-163929449D02*
X105142856Y-163929449D01*
X105285713Y-164453259D02*
X104809523Y-164453259D01*
X104809523Y-164453259D02*
X104809523Y-163453259D01*
X104809523Y-163453259D02*
X105285713Y-163453259D01*
X105571428Y-163453259D02*
X106142856Y-163453259D01*
X105857142Y-164453259D02*
X105857142Y-163453259D01*
X107047618Y-164453259D02*
X106714285Y-163977068D01*
X106476190Y-164453259D02*
X106476190Y-163453259D01*
X106476190Y-163453259D02*
X106857142Y-163453259D01*
X106857142Y-163453259D02*
X106952380Y-163500878D01*
X106952380Y-163500878D02*
X106999999Y-163548497D01*
X106999999Y-163548497D02*
X107047618Y-163643735D01*
X107047618Y-163643735D02*
X107047618Y-163786592D01*
X107047618Y-163786592D02*
X106999999Y-163881830D01*
X106999999Y-163881830D02*
X106952380Y-163929449D01*
X106952380Y-163929449D02*
X106857142Y-163977068D01*
X106857142Y-163977068D02*
X106476190Y-163977068D01*
X107476190Y-163929449D02*
X107809523Y-163929449D01*
X107952380Y-164453259D02*
X107476190Y-164453259D01*
X107476190Y-164453259D02*
X107476190Y-163453259D01*
X107476190Y-163453259D02*
X107952380Y-163453259D01*
X108952380Y-164453259D02*
X108619047Y-163977068D01*
X108380952Y-164453259D02*
X108380952Y-163453259D01*
X108380952Y-163453259D02*
X108761904Y-163453259D01*
X108761904Y-163453259D02*
X108857142Y-163500878D01*
X108857142Y-163500878D02*
X108904761Y-163548497D01*
X108904761Y-163548497D02*
X108952380Y-163643735D01*
X108952380Y-163643735D02*
X108952380Y-163786592D01*
X108952380Y-163786592D02*
X108904761Y-163881830D01*
X108904761Y-163881830D02*
X108857142Y-163929449D01*
X108857142Y-163929449D02*
X108761904Y-163977068D01*
X108761904Y-163977068D02*
X108380952Y-163977068D01*
X109571428Y-163453259D02*
X109761904Y-163453259D01*
X109761904Y-163453259D02*
X109857142Y-163500878D01*
X109857142Y-163500878D02*
X109952380Y-163596116D01*
X109952380Y-163596116D02*
X109999999Y-163786592D01*
X109999999Y-163786592D02*
X109999999Y-164119925D01*
X109999999Y-164119925D02*
X109952380Y-164310401D01*
X109952380Y-164310401D02*
X109857142Y-164405640D01*
X109857142Y-164405640D02*
X109761904Y-164453259D01*
X109761904Y-164453259D02*
X109571428Y-164453259D01*
X109571428Y-164453259D02*
X109476190Y-164405640D01*
X109476190Y-164405640D02*
X109380952Y-164310401D01*
X109380952Y-164310401D02*
X109333333Y-164119925D01*
X109333333Y-164119925D02*
X109333333Y-163786592D01*
X109333333Y-163786592D02*
X109380952Y-163596116D01*
X109380952Y-163596116D02*
X109476190Y-163500878D01*
X109476190Y-163500878D02*
X109571428Y-163453259D01*
X110904761Y-164453259D02*
X110428571Y-164453259D01*
X110428571Y-164453259D02*
X110428571Y-163453259D01*
X111190476Y-164167544D02*
X111666666Y-164167544D01*
X111095238Y-164453259D02*
X111428571Y-163453259D01*
X111428571Y-163453259D02*
X111761904Y-164453259D01*
X112428571Y-163929449D02*
X112571428Y-163977068D01*
X112571428Y-163977068D02*
X112619047Y-164024687D01*
X112619047Y-164024687D02*
X112666666Y-164119925D01*
X112666666Y-164119925D02*
X112666666Y-164262782D01*
X112666666Y-164262782D02*
X112619047Y-164358020D01*
X112619047Y-164358020D02*
X112571428Y-164405640D01*
X112571428Y-164405640D02*
X112476190Y-164453259D01*
X112476190Y-164453259D02*
X112095238Y-164453259D01*
X112095238Y-164453259D02*
X112095238Y-163453259D01*
X112095238Y-163453259D02*
X112428571Y-163453259D01*
X112428571Y-163453259D02*
X112523809Y-163500878D01*
X112523809Y-163500878D02*
X112571428Y-163548497D01*
X112571428Y-163548497D02*
X112619047Y-163643735D01*
X112619047Y-163643735D02*
X112619047Y-163738973D01*
X112619047Y-163738973D02*
X112571428Y-163834211D01*
X112571428Y-163834211D02*
X112523809Y-163881830D01*
X112523809Y-163881830D02*
X112428571Y-163929449D01*
X112428571Y-163929449D02*
X112095238Y-163929449D01*
X113809524Y-164167544D02*
X114285714Y-164167544D01*
X113714286Y-164453259D02*
X114047619Y-163453259D01*
X114047619Y-163453259D02*
X114380952Y-164453259D01*
X114714286Y-164453259D02*
X114714286Y-163453259D01*
X114714286Y-163453259D02*
X115095238Y-163453259D01*
X115095238Y-163453259D02*
X115190476Y-163500878D01*
X115190476Y-163500878D02*
X115238095Y-163548497D01*
X115238095Y-163548497D02*
X115285714Y-163643735D01*
X115285714Y-163643735D02*
X115285714Y-163786592D01*
X115285714Y-163786592D02*
X115238095Y-163881830D01*
X115238095Y-163881830D02*
X115190476Y-163929449D01*
X115190476Y-163929449D02*
X115095238Y-163977068D01*
X115095238Y-163977068D02*
X114714286Y-163977068D01*
X115714286Y-164072306D02*
X116476191Y-164072306D01*
X117142857Y-163453259D02*
X117238095Y-163453259D01*
X117238095Y-163453259D02*
X117333333Y-163500878D01*
X117333333Y-163500878D02*
X117380952Y-163548497D01*
X117380952Y-163548497D02*
X117428571Y-163643735D01*
X117428571Y-163643735D02*
X117476190Y-163834211D01*
X117476190Y-163834211D02*
X117476190Y-164072306D01*
X117476190Y-164072306D02*
X117428571Y-164262782D01*
X117428571Y-164262782D02*
X117380952Y-164358020D01*
X117380952Y-164358020D02*
X117333333Y-164405640D01*
X117333333Y-164405640D02*
X117238095Y-164453259D01*
X117238095Y-164453259D02*
X117142857Y-164453259D01*
X117142857Y-164453259D02*
X117047619Y-164405640D01*
X117047619Y-164405640D02*
X117000000Y-164358020D01*
X117000000Y-164358020D02*
X116952381Y-164262782D01*
X116952381Y-164262782D02*
X116904762Y-164072306D01*
X116904762Y-164072306D02*
X116904762Y-163834211D01*
X116904762Y-163834211D02*
X116952381Y-163643735D01*
X116952381Y-163643735D02*
X117000000Y-163548497D01*
X117000000Y-163548497D02*
X117047619Y-163500878D01*
X117047619Y-163500878D02*
X117142857Y-163453259D01*
X117904762Y-164358020D02*
X117952381Y-164405640D01*
X117952381Y-164405640D02*
X117904762Y-164453259D01*
X117904762Y-164453259D02*
X117857143Y-164405640D01*
X117857143Y-164405640D02*
X117904762Y-164358020D01*
X117904762Y-164358020D02*
X117904762Y-164453259D01*
X118904761Y-164453259D02*
X118333333Y-164453259D01*
X118619047Y-164453259D02*
X118619047Y-163453259D01*
X118619047Y-163453259D02*
X118523809Y-163596116D01*
X118523809Y-163596116D02*
X118428571Y-163691354D01*
X118428571Y-163691354D02*
X118333333Y-163738973D01*
X120666666Y-164358020D02*
X120619047Y-164405640D01*
X120619047Y-164405640D02*
X120476190Y-164453259D01*
X120476190Y-164453259D02*
X120380952Y-164453259D01*
X120380952Y-164453259D02*
X120238095Y-164405640D01*
X120238095Y-164405640D02*
X120142857Y-164310401D01*
X120142857Y-164310401D02*
X120095238Y-164215163D01*
X120095238Y-164215163D02*
X120047619Y-164024687D01*
X120047619Y-164024687D02*
X120047619Y-163881830D01*
X120047619Y-163881830D02*
X120095238Y-163691354D01*
X120095238Y-163691354D02*
X120142857Y-163596116D01*
X120142857Y-163596116D02*
X120238095Y-163500878D01*
X120238095Y-163500878D02*
X120380952Y-163453259D01*
X120380952Y-163453259D02*
X120476190Y-163453259D01*
X120476190Y-163453259D02*
X120619047Y-163500878D01*
X120619047Y-163500878D02*
X120666666Y-163548497D01*
X121047619Y-164167544D02*
X121523809Y-164167544D01*
X120952381Y-164453259D02*
X121285714Y-163453259D01*
X121285714Y-163453259D02*
X121619047Y-164453259D01*
X122285714Y-163929449D02*
X122428571Y-163977068D01*
X122428571Y-163977068D02*
X122476190Y-164024687D01*
X122476190Y-164024687D02*
X122523809Y-164119925D01*
X122523809Y-164119925D02*
X122523809Y-164262782D01*
X122523809Y-164262782D02*
X122476190Y-164358020D01*
X122476190Y-164358020D02*
X122428571Y-164405640D01*
X122428571Y-164405640D02*
X122333333Y-164453259D01*
X122333333Y-164453259D02*
X121952381Y-164453259D01*
X121952381Y-164453259D02*
X121952381Y-163453259D01*
X121952381Y-163453259D02*
X122285714Y-163453259D01*
X122285714Y-163453259D02*
X122380952Y-163500878D01*
X122380952Y-163500878D02*
X122428571Y-163548497D01*
X122428571Y-163548497D02*
X122476190Y-163643735D01*
X122476190Y-163643735D02*
X122476190Y-163738973D01*
X122476190Y-163738973D02*
X122428571Y-163834211D01*
X122428571Y-163834211D02*
X122380952Y-163881830D01*
X122380952Y-163881830D02*
X122285714Y-163929449D01*
X122285714Y-163929449D02*
X121952381Y-163929449D01*
X122952381Y-163929449D02*
X123285714Y-163929449D01*
X123428571Y-164453259D02*
X122952381Y-164453259D01*
X122952381Y-164453259D02*
X122952381Y-163453259D01*
X122952381Y-163453259D02*
X123428571Y-163453259D01*
X123761905Y-163453259D02*
X124428571Y-163453259D01*
X124428571Y-163453259D02*
X123761905Y-164453259D01*
X123761905Y-164453259D02*
X124428571Y-164453259D01*
X124761905Y-164167544D02*
X125238095Y-164167544D01*
X124666667Y-164453259D02*
X125000000Y-163453259D01*
X125000000Y-163453259D02*
X125333333Y-164453259D01*
X126142857Y-164453259D02*
X125666667Y-164453259D01*
X125666667Y-164453259D02*
X125666667Y-163453259D01*
D12*
X171666666Y-106684819D02*
X171666666Y-107399104D01*
X171666666Y-107399104D02*
X171619047Y-107541961D01*
X171619047Y-107541961D02*
X171523809Y-107637200D01*
X171523809Y-107637200D02*
X171380952Y-107684819D01*
X171380952Y-107684819D02*
X171285714Y-107684819D01*
X172047619Y-106684819D02*
X172666666Y-106684819D01*
X172666666Y-106684819D02*
X172333333Y-107065771D01*
X172333333Y-107065771D02*
X172476190Y-107065771D01*
X172476190Y-107065771D02*
X172571428Y-107113390D01*
X172571428Y-107113390D02*
X172619047Y-107161009D01*
X172619047Y-107161009D02*
X172666666Y-107256247D01*
X172666666Y-107256247D02*
X172666666Y-107494342D01*
X172666666Y-107494342D02*
X172619047Y-107589580D01*
X172619047Y-107589580D02*
X172571428Y-107637200D01*
X172571428Y-107637200D02*
X172476190Y-107684819D01*
X172476190Y-107684819D02*
X172190476Y-107684819D01*
X172190476Y-107684819D02*
X172095238Y-107637200D01*
X172095238Y-107637200D02*
X172047619Y-107589580D01*
X164833333Y-141084819D02*
X164500000Y-140608628D01*
X164261905Y-141084819D02*
X164261905Y-140084819D01*
X164261905Y-140084819D02*
X164642857Y-140084819D01*
X164642857Y-140084819D02*
X164738095Y-140132438D01*
X164738095Y-140132438D02*
X164785714Y-140180057D01*
X164785714Y-140180057D02*
X164833333Y-140275295D01*
X164833333Y-140275295D02*
X164833333Y-140418152D01*
X164833333Y-140418152D02*
X164785714Y-140513390D01*
X164785714Y-140513390D02*
X164738095Y-140561009D01*
X164738095Y-140561009D02*
X164642857Y-140608628D01*
X164642857Y-140608628D02*
X164261905Y-140608628D01*
X165738095Y-140084819D02*
X165261905Y-140084819D01*
X165261905Y-140084819D02*
X165214286Y-140561009D01*
X165214286Y-140561009D02*
X165261905Y-140513390D01*
X165261905Y-140513390D02*
X165357143Y-140465771D01*
X165357143Y-140465771D02*
X165595238Y-140465771D01*
X165595238Y-140465771D02*
X165690476Y-140513390D01*
X165690476Y-140513390D02*
X165738095Y-140561009D01*
X165738095Y-140561009D02*
X165785714Y-140656247D01*
X165785714Y-140656247D02*
X165785714Y-140894342D01*
X165785714Y-140894342D02*
X165738095Y-140989580D01*
X165738095Y-140989580D02*
X165690476Y-141037200D01*
X165690476Y-141037200D02*
X165595238Y-141084819D01*
X165595238Y-141084819D02*
X165357143Y-141084819D01*
X165357143Y-141084819D02*
X165261905Y-141037200D01*
X165261905Y-141037200D02*
X165214286Y-140989580D01*
X171666666Y-156074819D02*
X171666666Y-156789104D01*
X171666666Y-156789104D02*
X171619047Y-156931961D01*
X171619047Y-156931961D02*
X171523809Y-157027200D01*
X171523809Y-157027200D02*
X171380952Y-157074819D01*
X171380952Y-157074819D02*
X171285714Y-157074819D01*
X172047619Y-156074819D02*
X172714285Y-156074819D01*
X172714285Y-156074819D02*
X172285714Y-157074819D01*
X139514819Y-150333333D02*
X140229104Y-150333333D01*
X140229104Y-150333333D02*
X140371961Y-150380952D01*
X140371961Y-150380952D02*
X140467200Y-150476190D01*
X140467200Y-150476190D02*
X140514819Y-150619047D01*
X140514819Y-150619047D02*
X140514819Y-150714285D01*
X140514819Y-149333333D02*
X140514819Y-149904761D01*
X140514819Y-149619047D02*
X139514819Y-149619047D01*
X139514819Y-149619047D02*
X139657676Y-149714285D01*
X139657676Y-149714285D02*
X139752914Y-149809523D01*
X139752914Y-149809523D02*
X139800533Y-149904761D01*
X176531905Y-158914819D02*
X176531905Y-157914819D01*
X176531905Y-157914819D02*
X176770000Y-157914819D01*
X176770000Y-157914819D02*
X176912857Y-157962438D01*
X176912857Y-157962438D02*
X177008095Y-158057676D01*
X177008095Y-158057676D02*
X177055714Y-158152914D01*
X177055714Y-158152914D02*
X177103333Y-158343390D01*
X177103333Y-158343390D02*
X177103333Y-158486247D01*
X177103333Y-158486247D02*
X177055714Y-158676723D01*
X177055714Y-158676723D02*
X177008095Y-158771961D01*
X177008095Y-158771961D02*
X176912857Y-158867200D01*
X176912857Y-158867200D02*
X176770000Y-158914819D01*
X176770000Y-158914819D02*
X176531905Y-158914819D01*
X178055714Y-158914819D02*
X177484286Y-158914819D01*
X177770000Y-158914819D02*
X177770000Y-157914819D01*
X177770000Y-157914819D02*
X177674762Y-158057676D01*
X177674762Y-158057676D02*
X177579524Y-158152914D01*
X177579524Y-158152914D02*
X177484286Y-158200533D01*
X134623809Y-125528628D02*
X134623809Y-126004819D01*
X134290476Y-125004819D02*
X134623809Y-125528628D01*
X134623809Y-125528628D02*
X134957142Y-125004819D01*
X135814285Y-126004819D02*
X135242857Y-126004819D01*
X135528571Y-126004819D02*
X135528571Y-125004819D01*
X135528571Y-125004819D02*
X135433333Y-125147676D01*
X135433333Y-125147676D02*
X135338095Y-125242914D01*
X135338095Y-125242914D02*
X135242857Y-125290533D01*
X164833333Y-113584819D02*
X164500000Y-113108628D01*
X164261905Y-113584819D02*
X164261905Y-112584819D01*
X164261905Y-112584819D02*
X164642857Y-112584819D01*
X164642857Y-112584819D02*
X164738095Y-112632438D01*
X164738095Y-112632438D02*
X164785714Y-112680057D01*
X164785714Y-112680057D02*
X164833333Y-112775295D01*
X164833333Y-112775295D02*
X164833333Y-112918152D01*
X164833333Y-112918152D02*
X164785714Y-113013390D01*
X164785714Y-113013390D02*
X164738095Y-113061009D01*
X164738095Y-113061009D02*
X164642857Y-113108628D01*
X164642857Y-113108628D02*
X164261905Y-113108628D01*
X165166667Y-112584819D02*
X165833333Y-112584819D01*
X165833333Y-112584819D02*
X165404762Y-113584819D01*
X111663333Y-124109580D02*
X111615714Y-124157200D01*
X111615714Y-124157200D02*
X111472857Y-124204819D01*
X111472857Y-124204819D02*
X111377619Y-124204819D01*
X111377619Y-124204819D02*
X111234762Y-124157200D01*
X111234762Y-124157200D02*
X111139524Y-124061961D01*
X111139524Y-124061961D02*
X111091905Y-123966723D01*
X111091905Y-123966723D02*
X111044286Y-123776247D01*
X111044286Y-123776247D02*
X111044286Y-123633390D01*
X111044286Y-123633390D02*
X111091905Y-123442914D01*
X111091905Y-123442914D02*
X111139524Y-123347676D01*
X111139524Y-123347676D02*
X111234762Y-123252438D01*
X111234762Y-123252438D02*
X111377619Y-123204819D01*
X111377619Y-123204819D02*
X111472857Y-123204819D01*
X111472857Y-123204819D02*
X111615714Y-123252438D01*
X111615714Y-123252438D02*
X111663333Y-123300057D01*
X112044286Y-123300057D02*
X112091905Y-123252438D01*
X112091905Y-123252438D02*
X112187143Y-123204819D01*
X112187143Y-123204819D02*
X112425238Y-123204819D01*
X112425238Y-123204819D02*
X112520476Y-123252438D01*
X112520476Y-123252438D02*
X112568095Y-123300057D01*
X112568095Y-123300057D02*
X112615714Y-123395295D01*
X112615714Y-123395295D02*
X112615714Y-123490533D01*
X112615714Y-123490533D02*
X112568095Y-123633390D01*
X112568095Y-123633390D02*
X111996667Y-124204819D01*
X111996667Y-124204819D02*
X112615714Y-124204819D01*
X164833333Y-157084819D02*
X164500000Y-156608628D01*
X164261905Y-157084819D02*
X164261905Y-156084819D01*
X164261905Y-156084819D02*
X164642857Y-156084819D01*
X164642857Y-156084819D02*
X164738095Y-156132438D01*
X164738095Y-156132438D02*
X164785714Y-156180057D01*
X164785714Y-156180057D02*
X164833333Y-156275295D01*
X164833333Y-156275295D02*
X164833333Y-156418152D01*
X164833333Y-156418152D02*
X164785714Y-156513390D01*
X164785714Y-156513390D02*
X164738095Y-156561009D01*
X164738095Y-156561009D02*
X164642857Y-156608628D01*
X164642857Y-156608628D02*
X164261905Y-156608628D01*
X165404762Y-156513390D02*
X165309524Y-156465771D01*
X165309524Y-156465771D02*
X165261905Y-156418152D01*
X165261905Y-156418152D02*
X165214286Y-156322914D01*
X165214286Y-156322914D02*
X165214286Y-156275295D01*
X165214286Y-156275295D02*
X165261905Y-156180057D01*
X165261905Y-156180057D02*
X165309524Y-156132438D01*
X165309524Y-156132438D02*
X165404762Y-156084819D01*
X165404762Y-156084819D02*
X165595238Y-156084819D01*
X165595238Y-156084819D02*
X165690476Y-156132438D01*
X165690476Y-156132438D02*
X165738095Y-156180057D01*
X165738095Y-156180057D02*
X165785714Y-156275295D01*
X165785714Y-156275295D02*
X165785714Y-156322914D01*
X165785714Y-156322914D02*
X165738095Y-156418152D01*
X165738095Y-156418152D02*
X165690476Y-156465771D01*
X165690476Y-156465771D02*
X165595238Y-156513390D01*
X165595238Y-156513390D02*
X165404762Y-156513390D01*
X165404762Y-156513390D02*
X165309524Y-156561009D01*
X165309524Y-156561009D02*
X165261905Y-156608628D01*
X165261905Y-156608628D02*
X165214286Y-156703866D01*
X165214286Y-156703866D02*
X165214286Y-156894342D01*
X165214286Y-156894342D02*
X165261905Y-156989580D01*
X165261905Y-156989580D02*
X165309524Y-157037200D01*
X165309524Y-157037200D02*
X165404762Y-157084819D01*
X165404762Y-157084819D02*
X165595238Y-157084819D01*
X165595238Y-157084819D02*
X165690476Y-157037200D01*
X165690476Y-157037200D02*
X165738095Y-156989580D01*
X165738095Y-156989580D02*
X165785714Y-156894342D01*
X165785714Y-156894342D02*
X165785714Y-156703866D01*
X165785714Y-156703866D02*
X165738095Y-156608628D01*
X165738095Y-156608628D02*
X165690476Y-156561009D01*
X165690476Y-156561009D02*
X165595238Y-156513390D01*
X109778095Y-107354819D02*
X109778095Y-108164342D01*
X109778095Y-108164342D02*
X109825714Y-108259580D01*
X109825714Y-108259580D02*
X109873333Y-108307200D01*
X109873333Y-108307200D02*
X109968571Y-108354819D01*
X109968571Y-108354819D02*
X110159047Y-108354819D01*
X110159047Y-108354819D02*
X110254285Y-108307200D01*
X110254285Y-108307200D02*
X110301904Y-108259580D01*
X110301904Y-108259580D02*
X110349523Y-108164342D01*
X110349523Y-108164342D02*
X110349523Y-107354819D01*
X110778095Y-107450057D02*
X110825714Y-107402438D01*
X110825714Y-107402438D02*
X110920952Y-107354819D01*
X110920952Y-107354819D02*
X111159047Y-107354819D01*
X111159047Y-107354819D02*
X111254285Y-107402438D01*
X111254285Y-107402438D02*
X111301904Y-107450057D01*
X111301904Y-107450057D02*
X111349523Y-107545295D01*
X111349523Y-107545295D02*
X111349523Y-107640533D01*
X111349523Y-107640533D02*
X111301904Y-107783390D01*
X111301904Y-107783390D02*
X110730476Y-108354819D01*
X110730476Y-108354819D02*
X111349523Y-108354819D01*
X107968572Y-115962295D02*
X107968572Y-115162295D01*
X108349524Y-115962295D02*
X108349524Y-115162295D01*
X108349524Y-115162295D02*
X108806667Y-115962295D01*
X108806667Y-115962295D02*
X108806667Y-115162295D01*
X110216190Y-115200390D02*
X110140000Y-115162295D01*
X110140000Y-115162295D02*
X110025714Y-115162295D01*
X110025714Y-115162295D02*
X109911428Y-115200390D01*
X109911428Y-115200390D02*
X109835238Y-115276580D01*
X109835238Y-115276580D02*
X109797143Y-115352771D01*
X109797143Y-115352771D02*
X109759047Y-115505152D01*
X109759047Y-115505152D02*
X109759047Y-115619438D01*
X109759047Y-115619438D02*
X109797143Y-115771819D01*
X109797143Y-115771819D02*
X109835238Y-115848009D01*
X109835238Y-115848009D02*
X109911428Y-115924200D01*
X109911428Y-115924200D02*
X110025714Y-115962295D01*
X110025714Y-115962295D02*
X110101905Y-115962295D01*
X110101905Y-115962295D02*
X110216190Y-115924200D01*
X110216190Y-115924200D02*
X110254286Y-115886104D01*
X110254286Y-115886104D02*
X110254286Y-115619438D01*
X110254286Y-115619438D02*
X110101905Y-115619438D01*
X111359048Y-115162295D02*
X111511429Y-115162295D01*
X111511429Y-115162295D02*
X111587619Y-115200390D01*
X111587619Y-115200390D02*
X111663810Y-115276580D01*
X111663810Y-115276580D02*
X111701905Y-115428961D01*
X111701905Y-115428961D02*
X111701905Y-115695628D01*
X111701905Y-115695628D02*
X111663810Y-115848009D01*
X111663810Y-115848009D02*
X111587619Y-115924200D01*
X111587619Y-115924200D02*
X111511429Y-115962295D01*
X111511429Y-115962295D02*
X111359048Y-115962295D01*
X111359048Y-115962295D02*
X111282857Y-115924200D01*
X111282857Y-115924200D02*
X111206667Y-115848009D01*
X111206667Y-115848009D02*
X111168571Y-115695628D01*
X111168571Y-115695628D02*
X111168571Y-115428961D01*
X111168571Y-115428961D02*
X111206667Y-115276580D01*
X111206667Y-115276580D02*
X111282857Y-115200390D01*
X111282857Y-115200390D02*
X111359048Y-115162295D01*
X112044762Y-115162295D02*
X112044762Y-115809914D01*
X112044762Y-115809914D02*
X112082857Y-115886104D01*
X112082857Y-115886104D02*
X112120952Y-115924200D01*
X112120952Y-115924200D02*
X112197143Y-115962295D01*
X112197143Y-115962295D02*
X112349524Y-115962295D01*
X112349524Y-115962295D02*
X112425714Y-115924200D01*
X112425714Y-115924200D02*
X112463809Y-115886104D01*
X112463809Y-115886104D02*
X112501905Y-115809914D01*
X112501905Y-115809914D02*
X112501905Y-115162295D01*
X112768571Y-115162295D02*
X113225714Y-115162295D01*
X112997142Y-115962295D02*
X112997142Y-115162295D01*
X171666666Y-164874819D02*
X171666666Y-165589104D01*
X171666666Y-165589104D02*
X171619047Y-165731961D01*
X171619047Y-165731961D02*
X171523809Y-165827200D01*
X171523809Y-165827200D02*
X171380952Y-165874819D01*
X171380952Y-165874819D02*
X171285714Y-165874819D01*
X172571428Y-165208152D02*
X172571428Y-165874819D01*
X172333333Y-164827200D02*
X172095238Y-165541485D01*
X172095238Y-165541485D02*
X172714285Y-165541485D01*
X164317142Y-124859580D02*
X164269523Y-124907200D01*
X164269523Y-124907200D02*
X164126666Y-124954819D01*
X164126666Y-124954819D02*
X164031428Y-124954819D01*
X164031428Y-124954819D02*
X163888571Y-124907200D01*
X163888571Y-124907200D02*
X163793333Y-124811961D01*
X163793333Y-124811961D02*
X163745714Y-124716723D01*
X163745714Y-124716723D02*
X163698095Y-124526247D01*
X163698095Y-124526247D02*
X163698095Y-124383390D01*
X163698095Y-124383390D02*
X163745714Y-124192914D01*
X163745714Y-124192914D02*
X163793333Y-124097676D01*
X163793333Y-124097676D02*
X163888571Y-124002438D01*
X163888571Y-124002438D02*
X164031428Y-123954819D01*
X164031428Y-123954819D02*
X164126666Y-123954819D01*
X164126666Y-123954819D02*
X164269523Y-124002438D01*
X164269523Y-124002438D02*
X164317142Y-124050057D01*
X165269523Y-124954819D02*
X164698095Y-124954819D01*
X164983809Y-124954819D02*
X164983809Y-123954819D01*
X164983809Y-123954819D02*
X164888571Y-124097676D01*
X164888571Y-124097676D02*
X164793333Y-124192914D01*
X164793333Y-124192914D02*
X164698095Y-124240533D01*
X165888571Y-123954819D02*
X165983809Y-123954819D01*
X165983809Y-123954819D02*
X166079047Y-124002438D01*
X166079047Y-124002438D02*
X166126666Y-124050057D01*
X166126666Y-124050057D02*
X166174285Y-124145295D01*
X166174285Y-124145295D02*
X166221904Y-124335771D01*
X166221904Y-124335771D02*
X166221904Y-124573866D01*
X166221904Y-124573866D02*
X166174285Y-124764342D01*
X166174285Y-124764342D02*
X166126666Y-124859580D01*
X166126666Y-124859580D02*
X166079047Y-124907200D01*
X166079047Y-124907200D02*
X165983809Y-124954819D01*
X165983809Y-124954819D02*
X165888571Y-124954819D01*
X165888571Y-124954819D02*
X165793333Y-124907200D01*
X165793333Y-124907200D02*
X165745714Y-124859580D01*
X165745714Y-124859580D02*
X165698095Y-124764342D01*
X165698095Y-124764342D02*
X165650476Y-124573866D01*
X165650476Y-124573866D02*
X165650476Y-124335771D01*
X165650476Y-124335771D02*
X165698095Y-124145295D01*
X165698095Y-124145295D02*
X165745714Y-124050057D01*
X165745714Y-124050057D02*
X165793333Y-124002438D01*
X165793333Y-124002438D02*
X165888571Y-123954819D01*
X164833333Y-165884819D02*
X164500000Y-165408628D01*
X164261905Y-165884819D02*
X164261905Y-164884819D01*
X164261905Y-164884819D02*
X164642857Y-164884819D01*
X164642857Y-164884819D02*
X164738095Y-164932438D01*
X164738095Y-164932438D02*
X164785714Y-164980057D01*
X164785714Y-164980057D02*
X164833333Y-165075295D01*
X164833333Y-165075295D02*
X164833333Y-165218152D01*
X164833333Y-165218152D02*
X164785714Y-165313390D01*
X164785714Y-165313390D02*
X164738095Y-165361009D01*
X164738095Y-165361009D02*
X164642857Y-165408628D01*
X164642857Y-165408628D02*
X164261905Y-165408628D01*
X165309524Y-165884819D02*
X165500000Y-165884819D01*
X165500000Y-165884819D02*
X165595238Y-165837200D01*
X165595238Y-165837200D02*
X165642857Y-165789580D01*
X165642857Y-165789580D02*
X165738095Y-165646723D01*
X165738095Y-165646723D02*
X165785714Y-165456247D01*
X165785714Y-165456247D02*
X165785714Y-165075295D01*
X165785714Y-165075295D02*
X165738095Y-164980057D01*
X165738095Y-164980057D02*
X165690476Y-164932438D01*
X165690476Y-164932438D02*
X165595238Y-164884819D01*
X165595238Y-164884819D02*
X165404762Y-164884819D01*
X165404762Y-164884819D02*
X165309524Y-164932438D01*
X165309524Y-164932438D02*
X165261905Y-164980057D01*
X165261905Y-164980057D02*
X165214286Y-165075295D01*
X165214286Y-165075295D02*
X165214286Y-165313390D01*
X165214286Y-165313390D02*
X165261905Y-165408628D01*
X165261905Y-165408628D02*
X165309524Y-165456247D01*
X165309524Y-165456247D02*
X165404762Y-165503866D01*
X165404762Y-165503866D02*
X165595238Y-165503866D01*
X165595238Y-165503866D02*
X165690476Y-165456247D01*
X165690476Y-165456247D02*
X165738095Y-165408628D01*
X165738095Y-165408628D02*
X165785714Y-165313390D01*
X163563333Y-129534819D02*
X163230000Y-129058628D01*
X162991905Y-129534819D02*
X162991905Y-128534819D01*
X162991905Y-128534819D02*
X163372857Y-128534819D01*
X163372857Y-128534819D02*
X163468095Y-128582438D01*
X163468095Y-128582438D02*
X163515714Y-128630057D01*
X163515714Y-128630057D02*
X163563333Y-128725295D01*
X163563333Y-128725295D02*
X163563333Y-128868152D01*
X163563333Y-128868152D02*
X163515714Y-128963390D01*
X163515714Y-128963390D02*
X163468095Y-129011009D01*
X163468095Y-129011009D02*
X163372857Y-129058628D01*
X163372857Y-129058628D02*
X162991905Y-129058628D01*
X164515714Y-129534819D02*
X163944286Y-129534819D01*
X164230000Y-129534819D02*
X164230000Y-128534819D01*
X164230000Y-128534819D02*
X164134762Y-128677676D01*
X164134762Y-128677676D02*
X164039524Y-128772914D01*
X164039524Y-128772914D02*
X163944286Y-128820533D01*
X164357142Y-172084819D02*
X164023809Y-171608628D01*
X163785714Y-172084819D02*
X163785714Y-171084819D01*
X163785714Y-171084819D02*
X164166666Y-171084819D01*
X164166666Y-171084819D02*
X164261904Y-171132438D01*
X164261904Y-171132438D02*
X164309523Y-171180057D01*
X164309523Y-171180057D02*
X164357142Y-171275295D01*
X164357142Y-171275295D02*
X164357142Y-171418152D01*
X164357142Y-171418152D02*
X164309523Y-171513390D01*
X164309523Y-171513390D02*
X164261904Y-171561009D01*
X164261904Y-171561009D02*
X164166666Y-171608628D01*
X164166666Y-171608628D02*
X163785714Y-171608628D01*
X165309523Y-172084819D02*
X164738095Y-172084819D01*
X165023809Y-172084819D02*
X165023809Y-171084819D01*
X165023809Y-171084819D02*
X164928571Y-171227676D01*
X164928571Y-171227676D02*
X164833333Y-171322914D01*
X164833333Y-171322914D02*
X164738095Y-171370533D01*
X165928571Y-171084819D02*
X166023809Y-171084819D01*
X166023809Y-171084819D02*
X166119047Y-171132438D01*
X166119047Y-171132438D02*
X166166666Y-171180057D01*
X166166666Y-171180057D02*
X166214285Y-171275295D01*
X166214285Y-171275295D02*
X166261904Y-171465771D01*
X166261904Y-171465771D02*
X166261904Y-171703866D01*
X166261904Y-171703866D02*
X166214285Y-171894342D01*
X166214285Y-171894342D02*
X166166666Y-171989580D01*
X166166666Y-171989580D02*
X166119047Y-172037200D01*
X166119047Y-172037200D02*
X166023809Y-172084819D01*
X166023809Y-172084819D02*
X165928571Y-172084819D01*
X165928571Y-172084819D02*
X165833333Y-172037200D01*
X165833333Y-172037200D02*
X165785714Y-171989580D01*
X165785714Y-171989580D02*
X165738095Y-171894342D01*
X165738095Y-171894342D02*
X165690476Y-171703866D01*
X165690476Y-171703866D02*
X165690476Y-171465771D01*
X165690476Y-171465771D02*
X165738095Y-171275295D01*
X165738095Y-171275295D02*
X165785714Y-171180057D01*
X165785714Y-171180057D02*
X165833333Y-171132438D01*
X165833333Y-171132438D02*
X165928571Y-171084819D01*
X178373333Y-110624818D02*
X178040000Y-110148627D01*
X177801905Y-110624818D02*
X177801905Y-109624818D01*
X177801905Y-109624818D02*
X178182857Y-109624818D01*
X178182857Y-109624818D02*
X178278095Y-109672437D01*
X178278095Y-109672437D02*
X178325714Y-109720056D01*
X178325714Y-109720056D02*
X178373333Y-109815294D01*
X178373333Y-109815294D02*
X178373333Y-109958151D01*
X178373333Y-109958151D02*
X178325714Y-110053389D01*
X178325714Y-110053389D02*
X178278095Y-110101008D01*
X178278095Y-110101008D02*
X178182857Y-110148627D01*
X178182857Y-110148627D02*
X177801905Y-110148627D01*
X178706667Y-109624818D02*
X179325714Y-109624818D01*
X179325714Y-109624818D02*
X178992381Y-110005770D01*
X178992381Y-110005770D02*
X179135238Y-110005770D01*
X179135238Y-110005770D02*
X179230476Y-110053389D01*
X179230476Y-110053389D02*
X179278095Y-110101008D01*
X179278095Y-110101008D02*
X179325714Y-110196246D01*
X179325714Y-110196246D02*
X179325714Y-110434341D01*
X179325714Y-110434341D02*
X179278095Y-110529579D01*
X179278095Y-110529579D02*
X179230476Y-110577199D01*
X179230476Y-110577199D02*
X179135238Y-110624818D01*
X179135238Y-110624818D02*
X178849524Y-110624818D01*
X178849524Y-110624818D02*
X178754286Y-110577199D01*
X178754286Y-110577199D02*
X178706667Y-110529579D01*
X164833333Y-109584819D02*
X164500000Y-109108628D01*
X164261905Y-109584819D02*
X164261905Y-108584819D01*
X164261905Y-108584819D02*
X164642857Y-108584819D01*
X164642857Y-108584819D02*
X164738095Y-108632438D01*
X164738095Y-108632438D02*
X164785714Y-108680057D01*
X164785714Y-108680057D02*
X164833333Y-108775295D01*
X164833333Y-108775295D02*
X164833333Y-108918152D01*
X164833333Y-108918152D02*
X164785714Y-109013390D01*
X164785714Y-109013390D02*
X164738095Y-109061009D01*
X164738095Y-109061009D02*
X164642857Y-109108628D01*
X164642857Y-109108628D02*
X164261905Y-109108628D01*
X165214286Y-108680057D02*
X165261905Y-108632438D01*
X165261905Y-108632438D02*
X165357143Y-108584819D01*
X165357143Y-108584819D02*
X165595238Y-108584819D01*
X165595238Y-108584819D02*
X165690476Y-108632438D01*
X165690476Y-108632438D02*
X165738095Y-108680057D01*
X165738095Y-108680057D02*
X165785714Y-108775295D01*
X165785714Y-108775295D02*
X165785714Y-108870533D01*
X165785714Y-108870533D02*
X165738095Y-109013390D01*
X165738095Y-109013390D02*
X165166667Y-109584819D01*
X165166667Y-109584819D02*
X165785714Y-109584819D01*
X164833333Y-153584819D02*
X164500000Y-153108628D01*
X164261905Y-153584819D02*
X164261905Y-152584819D01*
X164261905Y-152584819D02*
X164642857Y-152584819D01*
X164642857Y-152584819D02*
X164738095Y-152632438D01*
X164738095Y-152632438D02*
X164785714Y-152680057D01*
X164785714Y-152680057D02*
X164833333Y-152775295D01*
X164833333Y-152775295D02*
X164833333Y-152918152D01*
X164833333Y-152918152D02*
X164785714Y-153013390D01*
X164785714Y-153013390D02*
X164738095Y-153061009D01*
X164738095Y-153061009D02*
X164642857Y-153108628D01*
X164642857Y-153108628D02*
X164261905Y-153108628D01*
X165690476Y-152918152D02*
X165690476Y-153584819D01*
X165452381Y-152537200D02*
X165214286Y-153251485D01*
X165214286Y-153251485D02*
X165833333Y-153251485D01*
X164833333Y-144484819D02*
X164500000Y-144008628D01*
X164261905Y-144484819D02*
X164261905Y-143484819D01*
X164261905Y-143484819D02*
X164642857Y-143484819D01*
X164642857Y-143484819D02*
X164738095Y-143532438D01*
X164738095Y-143532438D02*
X164785714Y-143580057D01*
X164785714Y-143580057D02*
X164833333Y-143675295D01*
X164833333Y-143675295D02*
X164833333Y-143818152D01*
X164833333Y-143818152D02*
X164785714Y-143913390D01*
X164785714Y-143913390D02*
X164738095Y-143961009D01*
X164738095Y-143961009D02*
X164642857Y-144008628D01*
X164642857Y-144008628D02*
X164261905Y-144008628D01*
X165690476Y-143484819D02*
X165500000Y-143484819D01*
X165500000Y-143484819D02*
X165404762Y-143532438D01*
X165404762Y-143532438D02*
X165357143Y-143580057D01*
X165357143Y-143580057D02*
X165261905Y-143722914D01*
X165261905Y-143722914D02*
X165214286Y-143913390D01*
X165214286Y-143913390D02*
X165214286Y-144294342D01*
X165214286Y-144294342D02*
X165261905Y-144389580D01*
X165261905Y-144389580D02*
X165309524Y-144437200D01*
X165309524Y-144437200D02*
X165404762Y-144484819D01*
X165404762Y-144484819D02*
X165595238Y-144484819D01*
X165595238Y-144484819D02*
X165690476Y-144437200D01*
X165690476Y-144437200D02*
X165738095Y-144389580D01*
X165738095Y-144389580D02*
X165785714Y-144294342D01*
X165785714Y-144294342D02*
X165785714Y-144056247D01*
X165785714Y-144056247D02*
X165738095Y-143961009D01*
X165738095Y-143961009D02*
X165690476Y-143913390D01*
X165690476Y-143913390D02*
X165595238Y-143865771D01*
X165595238Y-143865771D02*
X165404762Y-143865771D01*
X165404762Y-143865771D02*
X165309524Y-143913390D01*
X165309524Y-143913390D02*
X165261905Y-143961009D01*
X165261905Y-143961009D02*
X165214286Y-144056247D01*
X171666666Y-141074819D02*
X171666666Y-141789104D01*
X171666666Y-141789104D02*
X171619047Y-141931961D01*
X171619047Y-141931961D02*
X171523809Y-142027200D01*
X171523809Y-142027200D02*
X171380952Y-142074819D01*
X171380952Y-142074819D02*
X171285714Y-142074819D01*
X172571428Y-141074819D02*
X172380952Y-141074819D01*
X172380952Y-141074819D02*
X172285714Y-141122438D01*
X172285714Y-141122438D02*
X172238095Y-141170057D01*
X172238095Y-141170057D02*
X172142857Y-141312914D01*
X172142857Y-141312914D02*
X172095238Y-141503390D01*
X172095238Y-141503390D02*
X172095238Y-141884342D01*
X172095238Y-141884342D02*
X172142857Y-141979580D01*
X172142857Y-141979580D02*
X172190476Y-142027200D01*
X172190476Y-142027200D02*
X172285714Y-142074819D01*
X172285714Y-142074819D02*
X172476190Y-142074819D01*
X172476190Y-142074819D02*
X172571428Y-142027200D01*
X172571428Y-142027200D02*
X172619047Y-141979580D01*
X172619047Y-141979580D02*
X172666666Y-141884342D01*
X172666666Y-141884342D02*
X172666666Y-141646247D01*
X172666666Y-141646247D02*
X172619047Y-141551009D01*
X172619047Y-141551009D02*
X172571428Y-141503390D01*
X172571428Y-141503390D02*
X172476190Y-141455771D01*
X172476190Y-141455771D02*
X172285714Y-141455771D01*
X172285714Y-141455771D02*
X172190476Y-141503390D01*
X172190476Y-141503390D02*
X172142857Y-141551009D01*
X172142857Y-141551009D02*
X172095238Y-141646247D01*
X171666666Y-124074819D02*
X171666666Y-124789104D01*
X171666666Y-124789104D02*
X171619047Y-124931961D01*
X171619047Y-124931961D02*
X171523809Y-125027200D01*
X171523809Y-125027200D02*
X171380952Y-125074819D01*
X171380952Y-125074819D02*
X171285714Y-125074819D01*
X172095238Y-124170057D02*
X172142857Y-124122438D01*
X172142857Y-124122438D02*
X172238095Y-124074819D01*
X172238095Y-124074819D02*
X172476190Y-124074819D01*
X172476190Y-124074819D02*
X172571428Y-124122438D01*
X172571428Y-124122438D02*
X172619047Y-124170057D01*
X172619047Y-124170057D02*
X172666666Y-124265295D01*
X172666666Y-124265295D02*
X172666666Y-124360533D01*
X172666666Y-124360533D02*
X172619047Y-124503390D01*
X172619047Y-124503390D02*
X172047619Y-125074819D01*
X172047619Y-125074819D02*
X172666666Y-125074819D01*
X159784819Y-138571904D02*
X160594342Y-138571904D01*
X160594342Y-138571904D02*
X160689580Y-138524285D01*
X160689580Y-138524285D02*
X160737200Y-138476666D01*
X160737200Y-138476666D02*
X160784819Y-138381428D01*
X160784819Y-138381428D02*
X160784819Y-138190952D01*
X160784819Y-138190952D02*
X160737200Y-138095714D01*
X160737200Y-138095714D02*
X160689580Y-138048095D01*
X160689580Y-138048095D02*
X160594342Y-138000476D01*
X160594342Y-138000476D02*
X159784819Y-138000476D01*
X160784819Y-137000476D02*
X160784819Y-137571904D01*
X160784819Y-137286190D02*
X159784819Y-137286190D01*
X159784819Y-137286190D02*
X159927676Y-137381428D01*
X159927676Y-137381428D02*
X160022914Y-137476666D01*
X160022914Y-137476666D02*
X160070533Y-137571904D01*
X109083333Y-113809580D02*
X109035714Y-113857200D01*
X109035714Y-113857200D02*
X108892857Y-113904819D01*
X108892857Y-113904819D02*
X108797619Y-113904819D01*
X108797619Y-113904819D02*
X108654762Y-113857200D01*
X108654762Y-113857200D02*
X108559524Y-113761961D01*
X108559524Y-113761961D02*
X108511905Y-113666723D01*
X108511905Y-113666723D02*
X108464286Y-113476247D01*
X108464286Y-113476247D02*
X108464286Y-113333390D01*
X108464286Y-113333390D02*
X108511905Y-113142914D01*
X108511905Y-113142914D02*
X108559524Y-113047676D01*
X108559524Y-113047676D02*
X108654762Y-112952438D01*
X108654762Y-112952438D02*
X108797619Y-112904819D01*
X108797619Y-112904819D02*
X108892857Y-112904819D01*
X108892857Y-112904819D02*
X109035714Y-112952438D01*
X109035714Y-112952438D02*
X109083333Y-113000057D01*
X110035714Y-113904819D02*
X109464286Y-113904819D01*
X109750000Y-113904819D02*
X109750000Y-112904819D01*
X109750000Y-112904819D02*
X109654762Y-113047676D01*
X109654762Y-113047676D02*
X109559524Y-113142914D01*
X109559524Y-113142914D02*
X109464286Y-113190533D01*
X141303333Y-126309580D02*
X141255714Y-126357200D01*
X141255714Y-126357200D02*
X141112857Y-126404819D01*
X141112857Y-126404819D02*
X141017619Y-126404819D01*
X141017619Y-126404819D02*
X140874762Y-126357200D01*
X140874762Y-126357200D02*
X140779524Y-126261961D01*
X140779524Y-126261961D02*
X140731905Y-126166723D01*
X140731905Y-126166723D02*
X140684286Y-125976247D01*
X140684286Y-125976247D02*
X140684286Y-125833390D01*
X140684286Y-125833390D02*
X140731905Y-125642914D01*
X140731905Y-125642914D02*
X140779524Y-125547676D01*
X140779524Y-125547676D02*
X140874762Y-125452438D01*
X140874762Y-125452438D02*
X141017619Y-125404819D01*
X141017619Y-125404819D02*
X141112857Y-125404819D01*
X141112857Y-125404819D02*
X141255714Y-125452438D01*
X141255714Y-125452438D02*
X141303333Y-125500057D01*
X141874762Y-125833390D02*
X141779524Y-125785771D01*
X141779524Y-125785771D02*
X141731905Y-125738152D01*
X141731905Y-125738152D02*
X141684286Y-125642914D01*
X141684286Y-125642914D02*
X141684286Y-125595295D01*
X141684286Y-125595295D02*
X141731905Y-125500057D01*
X141731905Y-125500057D02*
X141779524Y-125452438D01*
X141779524Y-125452438D02*
X141874762Y-125404819D01*
X141874762Y-125404819D02*
X142065238Y-125404819D01*
X142065238Y-125404819D02*
X142160476Y-125452438D01*
X142160476Y-125452438D02*
X142208095Y-125500057D01*
X142208095Y-125500057D02*
X142255714Y-125595295D01*
X142255714Y-125595295D02*
X142255714Y-125642914D01*
X142255714Y-125642914D02*
X142208095Y-125738152D01*
X142208095Y-125738152D02*
X142160476Y-125785771D01*
X142160476Y-125785771D02*
X142065238Y-125833390D01*
X142065238Y-125833390D02*
X141874762Y-125833390D01*
X141874762Y-125833390D02*
X141779524Y-125881009D01*
X141779524Y-125881009D02*
X141731905Y-125928628D01*
X141731905Y-125928628D02*
X141684286Y-126023866D01*
X141684286Y-126023866D02*
X141684286Y-126214342D01*
X141684286Y-126214342D02*
X141731905Y-126309580D01*
X141731905Y-126309580D02*
X141779524Y-126357200D01*
X141779524Y-126357200D02*
X141874762Y-126404819D01*
X141874762Y-126404819D02*
X142065238Y-126404819D01*
X142065238Y-126404819D02*
X142160476Y-126357200D01*
X142160476Y-126357200D02*
X142208095Y-126309580D01*
X142208095Y-126309580D02*
X142255714Y-126214342D01*
X142255714Y-126214342D02*
X142255714Y-126023866D01*
X142255714Y-126023866D02*
X142208095Y-125928628D01*
X142208095Y-125928628D02*
X142160476Y-125881009D01*
X142160476Y-125881009D02*
X142065238Y-125833390D01*
X171666666Y-171074819D02*
X171666666Y-171789104D01*
X171666666Y-171789104D02*
X171619047Y-171931961D01*
X171619047Y-171931961D02*
X171523809Y-172027200D01*
X171523809Y-172027200D02*
X171380952Y-172074819D01*
X171380952Y-172074819D02*
X171285714Y-172074819D01*
X172285714Y-171503390D02*
X172190476Y-171455771D01*
X172190476Y-171455771D02*
X172142857Y-171408152D01*
X172142857Y-171408152D02*
X172095238Y-171312914D01*
X172095238Y-171312914D02*
X172095238Y-171265295D01*
X172095238Y-171265295D02*
X172142857Y-171170057D01*
X172142857Y-171170057D02*
X172190476Y-171122438D01*
X172190476Y-171122438D02*
X172285714Y-171074819D01*
X172285714Y-171074819D02*
X172476190Y-171074819D01*
X172476190Y-171074819D02*
X172571428Y-171122438D01*
X172571428Y-171122438D02*
X172619047Y-171170057D01*
X172619047Y-171170057D02*
X172666666Y-171265295D01*
X172666666Y-171265295D02*
X172666666Y-171312914D01*
X172666666Y-171312914D02*
X172619047Y-171408152D01*
X172619047Y-171408152D02*
X172571428Y-171455771D01*
X172571428Y-171455771D02*
X172476190Y-171503390D01*
X172476190Y-171503390D02*
X172285714Y-171503390D01*
X172285714Y-171503390D02*
X172190476Y-171551009D01*
X172190476Y-171551009D02*
X172142857Y-171598628D01*
X172142857Y-171598628D02*
X172095238Y-171693866D01*
X172095238Y-171693866D02*
X172095238Y-171884342D01*
X172095238Y-171884342D02*
X172142857Y-171979580D01*
X172142857Y-171979580D02*
X172190476Y-172027200D01*
X172190476Y-172027200D02*
X172285714Y-172074819D01*
X172285714Y-172074819D02*
X172476190Y-172074819D01*
X172476190Y-172074819D02*
X172571428Y-172027200D01*
X172571428Y-172027200D02*
X172619047Y-171979580D01*
X172619047Y-171979580D02*
X172666666Y-171884342D01*
X172666666Y-171884342D02*
X172666666Y-171693866D01*
X172666666Y-171693866D02*
X172619047Y-171598628D01*
X172619047Y-171598628D02*
X172571428Y-171551009D01*
X172571428Y-171551009D02*
X172476190Y-171503390D01*
D13*
%TO.C,J3*%
X170670000Y-111270000D02*
X170670000Y-124030000D01*
X170670000Y-111270000D02*
X173330000Y-111270000D01*
X170670000Y-124030000D02*
X173330000Y-124030000D01*
X172000000Y-108670000D02*
X173330000Y-108670000D01*
X173330000Y-108670000D02*
X173330000Y-110000000D01*
X173330000Y-111270000D02*
X173330000Y-124030000D01*
%TO.C,R5*%
X163830000Y-143000000D02*
X166440000Y-143000000D01*
X163830000Y-143000000D02*
G75*
G02*
X161090000Y-143000000I-1370000J0D01*
G01*
X161090000Y-143000000D02*
G75*
G02*
X163830000Y-143000000I1370000J0D01*
G01*
%TO.C,J7*%
X170620000Y-157620000D02*
X172000000Y-157620000D01*
X170620000Y-159000000D02*
X170620000Y-157620000D01*
X170620000Y-160270000D02*
X170620000Y-165460000D01*
X170620000Y-160270000D02*
X173380000Y-160270000D01*
X170620000Y-165460000D02*
X173380000Y-165460000D01*
X173380000Y-160270000D02*
X173380000Y-165460000D01*
%TO.C,J1*%
X118520000Y-148620000D02*
X118520000Y-151380000D01*
X136410000Y-148620000D02*
X118520000Y-148620000D01*
X136410000Y-148620000D02*
X136410000Y-151380000D01*
X136410000Y-151380000D02*
X118520000Y-151380000D01*
X137680000Y-148620000D02*
X139060000Y-148620000D01*
X139060000Y-148620000D02*
X139060000Y-150000000D01*
%TO.C,D1*%
X178830000Y-154420000D02*
X178830000Y-154264000D01*
X178830000Y-156736000D02*
X178830000Y-156580000D01*
X175598563Y-154420000D02*
G75*
G02*
X178830000Y-154264484I1671437J-1080000D01*
G01*
X176229039Y-154420000D02*
G75*
G02*
X178310961Y-154420000I1040961J-1080000D01*
G01*
X178310961Y-156580000D02*
G75*
G02*
X176229039Y-156580000I-1040961J1080000D01*
G01*
X178830000Y-156735516D02*
G75*
G02*
X175598563Y-156580000I-1560000J1235516D01*
G01*
%TO.C,Y1*%
X132850000Y-126640000D02*
X137350000Y-126640000D01*
X137350000Y-129360000D02*
X132850000Y-129360000D01*
X132850000Y-129360000D02*
G75*
G02*
X132850000Y-126640000I0J1360000D01*
G01*
X137350000Y-126640000D02*
G75*
G02*
X137350000Y-129360000I0J-1360000D01*
G01*
%TO.C,R7*%
X163830000Y-115500000D02*
X166440000Y-115500000D01*
X163830000Y-115500000D02*
G75*
G02*
X161090000Y-115500000I-1370000J0D01*
G01*
X161090000Y-115500000D02*
G75*
G02*
X163830000Y-115500000I1370000J0D01*
G01*
%TO.C,C2*%
X109230000Y-120283000D02*
X109230000Y-119717000D01*
X109270000Y-120517000D02*
X109270000Y-119483000D01*
X109310000Y-120677000D02*
X109310000Y-119323000D01*
X109350000Y-120805000D02*
X109350000Y-119195000D01*
X109390000Y-120914000D02*
X109390000Y-119086000D01*
X109430000Y-121011000D02*
X109430000Y-118989000D01*
X109470000Y-121098000D02*
X109470000Y-118902000D01*
X109510000Y-121177000D02*
X109510000Y-118823000D01*
X109550000Y-118960000D02*
X109550000Y-118749000D01*
X109550000Y-121251000D02*
X109550000Y-121040000D01*
X109590000Y-118960000D02*
X109590000Y-118681000D01*
X109590000Y-121319000D02*
X109590000Y-121040000D01*
X109630000Y-118960000D02*
X109630000Y-118617000D01*
X109630000Y-121383000D02*
X109630000Y-121040000D01*
X109670000Y-118960000D02*
X109670000Y-118557000D01*
X109670000Y-121443000D02*
X109670000Y-121040000D01*
X109710000Y-118960000D02*
X109710000Y-118501000D01*
X109710000Y-121499000D02*
X109710000Y-121040000D01*
X109750000Y-118960000D02*
X109750000Y-118447000D01*
X109750000Y-121553000D02*
X109750000Y-121040000D01*
X109790000Y-118960000D02*
X109790000Y-118396000D01*
X109790000Y-121604000D02*
X109790000Y-121040000D01*
X109830000Y-118960000D02*
X109830000Y-118348000D01*
X109830000Y-121652000D02*
X109830000Y-121040000D01*
X109870000Y-118960000D02*
X109870000Y-118301000D01*
X109870000Y-121699000D02*
X109870000Y-121040000D01*
X109910000Y-118960000D02*
X109910000Y-118257000D01*
X109910000Y-121743000D02*
X109910000Y-121040000D01*
X109950000Y-118960000D02*
X109950000Y-118215000D01*
X109950000Y-121785000D02*
X109950000Y-121040000D01*
X109990000Y-118960000D02*
X109990000Y-118175000D01*
X109990000Y-121825000D02*
X109990000Y-121040000D01*
X110030000Y-118960000D02*
X110030000Y-118136000D01*
X110030000Y-121864000D02*
X110030000Y-121040000D01*
X110070000Y-118960000D02*
X110070000Y-118099000D01*
X110070000Y-121901000D02*
X110070000Y-121040000D01*
X110110000Y-118960000D02*
X110110000Y-118064000D01*
X110110000Y-121936000D02*
X110110000Y-121040000D01*
X110150000Y-118960000D02*
X110150000Y-118030000D01*
X110150000Y-121970000D02*
X110150000Y-121040000D01*
X110190000Y-118960000D02*
X110190000Y-117997000D01*
X110190000Y-122003000D02*
X110190000Y-121040000D01*
X110230000Y-118960000D02*
X110230000Y-117965000D01*
X110230000Y-122035000D02*
X110230000Y-121040000D01*
X110270000Y-118960000D02*
X110270000Y-117935000D01*
X110270000Y-122065000D02*
X110270000Y-121040000D01*
X110310000Y-118960000D02*
X110310000Y-117906000D01*
X110310000Y-122094000D02*
X110310000Y-121040000D01*
X110350000Y-118960000D02*
X110350000Y-117878000D01*
X110350000Y-122122000D02*
X110350000Y-121040000D01*
X110390000Y-118960000D02*
X110390000Y-117851000D01*
X110390000Y-122149000D02*
X110390000Y-121040000D01*
X110430000Y-118960000D02*
X110430000Y-117825000D01*
X110430000Y-122175000D02*
X110430000Y-121040000D01*
X110470000Y-118960000D02*
X110470000Y-117801000D01*
X110470000Y-122199000D02*
X110470000Y-121040000D01*
X110510000Y-118960000D02*
X110510000Y-117777000D01*
X110510000Y-122223000D02*
X110510000Y-121040000D01*
X110550000Y-118960000D02*
X110550000Y-117754000D01*
X110550000Y-122246000D02*
X110550000Y-121040000D01*
X110590000Y-118960000D02*
X110590000Y-117732000D01*
X110590000Y-122268000D02*
X110590000Y-121040000D01*
X110630000Y-118960000D02*
X110630000Y-117711000D01*
X110630000Y-122289000D02*
X110630000Y-121040000D01*
X110670000Y-118960000D02*
X110670000Y-117691000D01*
X110670000Y-122309000D02*
X110670000Y-121040000D01*
X110710000Y-118960000D02*
X110710000Y-117671000D01*
X110710000Y-122329000D02*
X110710000Y-121040000D01*
X110750000Y-118960000D02*
X110750000Y-117653000D01*
X110750000Y-122347000D02*
X110750000Y-121040000D01*
X110790000Y-118960000D02*
X110790000Y-117635000D01*
X110790000Y-122365000D02*
X110790000Y-121040000D01*
X110830000Y-118960000D02*
X110830000Y-117618000D01*
X110830000Y-122382000D02*
X110830000Y-121040000D01*
X110870000Y-118960000D02*
X110870000Y-117602000D01*
X110870000Y-122398000D02*
X110870000Y-121040000D01*
X110910000Y-118960000D02*
X110910000Y-117587000D01*
X110910000Y-122413000D02*
X110910000Y-121040000D01*
X110950000Y-118960000D02*
X110950000Y-117572000D01*
X110950000Y-122428000D02*
X110950000Y-121040000D01*
X110990000Y-118960000D02*
X110990000Y-117558000D01*
X110990000Y-122442000D02*
X110990000Y-121040000D01*
X111030000Y-118960000D02*
X111030000Y-117545000D01*
X111030000Y-122455000D02*
X111030000Y-121040000D01*
X111070000Y-118960000D02*
X111070000Y-117533000D01*
X111070000Y-122467000D02*
X111070000Y-121040000D01*
X111110000Y-118960000D02*
X111110000Y-117521000D01*
X111110000Y-122479000D02*
X111110000Y-121040000D01*
X111150000Y-118960000D02*
X111150000Y-117510000D01*
X111150000Y-122490000D02*
X111150000Y-121040000D01*
X111190000Y-118960000D02*
X111190000Y-117499000D01*
X111190000Y-122501000D02*
X111190000Y-121040000D01*
X111230000Y-118960000D02*
X111230000Y-117490000D01*
X111230000Y-122510000D02*
X111230000Y-121040000D01*
X111270000Y-118960000D02*
X111270000Y-117481000D01*
X111270000Y-122519000D02*
X111270000Y-121040000D01*
X111310000Y-118960000D02*
X111310000Y-117472000D01*
X111310000Y-122528000D02*
X111310000Y-121040000D01*
X111350000Y-118960000D02*
X111350000Y-117464000D01*
X111350000Y-122536000D02*
X111350000Y-121040000D01*
X111390000Y-118960000D02*
X111390000Y-117457000D01*
X111390000Y-122543000D02*
X111390000Y-121040000D01*
X111430000Y-118960000D02*
X111430000Y-117451000D01*
X111430000Y-122549000D02*
X111430000Y-121040000D01*
X111470000Y-118960000D02*
X111470000Y-117445000D01*
X111470000Y-122555000D02*
X111470000Y-121040000D01*
X111510000Y-118960000D02*
X111510000Y-117440000D01*
X111510000Y-122560000D02*
X111510000Y-121040000D01*
X111550000Y-118960000D02*
X111550000Y-117435000D01*
X111550000Y-122565000D02*
X111550000Y-121040000D01*
X111590000Y-118960000D02*
X111590000Y-117431000D01*
X111590000Y-122569000D02*
X111590000Y-121040000D01*
X111630000Y-122572000D02*
X111630000Y-117428000D01*
X111670000Y-122575000D02*
X111670000Y-117425000D01*
X111710000Y-122577000D02*
X111710000Y-117423000D01*
X111750000Y-122579000D02*
X111750000Y-117421000D01*
X111790000Y-122580000D02*
X111790000Y-117420000D01*
X111830000Y-122580000D02*
X111830000Y-117420000D01*
X114384775Y-121725000D02*
X114384775Y-121225000D01*
X114634775Y-121475000D02*
X114134775Y-121475000D01*
X114450000Y-120000000D02*
G75*
G02*
X109210000Y-120000000I-2620000J0D01*
G01*
X109210000Y-120000000D02*
G75*
G02*
X114450000Y-120000000I2620000J0D01*
G01*
%TO.C,R8*%
X163830000Y-159000000D02*
X166440000Y-159000000D01*
X163830000Y-159000000D02*
G75*
G02*
X161090000Y-159000000I-1370000J0D01*
G01*
X161090000Y-159000000D02*
G75*
G02*
X163830000Y-159000000I1370000J0D01*
G01*
%TO.C,U2*%
X105430000Y-108740000D02*
X115650000Y-108740000D01*
X105430000Y-110120000D02*
X115650000Y-110120000D01*
X105430000Y-113360000D02*
X105430000Y-108740000D01*
X108690000Y-108740000D02*
X108690000Y-110120000D01*
X112390000Y-108740000D02*
X112390000Y-110120000D01*
X115650000Y-108740000D02*
X115650000Y-113360000D01*
X115650000Y-113360000D02*
X105430000Y-113360000D01*
%TO.C,J4*%
X170620000Y-166420000D02*
X172000000Y-166420000D01*
X170620000Y-167800000D02*
X170620000Y-166420000D01*
X170620000Y-169070000D02*
X170620000Y-171720000D01*
X170620000Y-169070000D02*
X173380000Y-169070000D01*
X170620000Y-171720000D02*
X173380000Y-171720000D01*
X173380000Y-169070000D02*
X173380000Y-171720000D01*
%TO.C,C10*%
X162340000Y-125630000D02*
X167580000Y-125630000D01*
X162340000Y-125967000D02*
X162340000Y-125630000D01*
X162340000Y-128370000D02*
X162340000Y-128033000D01*
X167580000Y-125630000D02*
X167580000Y-125967000D01*
X167580000Y-128033000D02*
X167580000Y-128370000D01*
X167580000Y-128370000D02*
X162340000Y-128370000D01*
%TO.C,R9*%
X163830000Y-167800000D02*
X166440000Y-167800000D01*
X163830000Y-167800000D02*
G75*
G02*
X161090000Y-167800000I-1370000J0D01*
G01*
X161090000Y-167800000D02*
G75*
G02*
X163830000Y-167800000I1370000J0D01*
G01*
%TO.C,R1*%
X163380000Y-131000000D02*
X164000000Y-131000000D01*
X163380000Y-131000000D02*
G75*
G02*
X161540000Y-131000000I-920000J0D01*
G01*
X161540000Y-131000000D02*
G75*
G02*
X163380000Y-131000000I920000J0D01*
G01*
%TO.C,R10*%
X163830000Y-174000000D02*
X166440000Y-174000000D01*
X163830000Y-174000000D02*
G75*
G02*
X161090000Y-174000000I-1370000J0D01*
G01*
X161090000Y-174000000D02*
G75*
G02*
X163830000Y-174000000I1370000J0D01*
G01*
%TO.C,R3*%
X177370000Y-112539999D02*
X179980000Y-112539999D01*
X177370000Y-112539999D02*
G75*
G02*
X174630000Y-112539999I-1370000J0D01*
G01*
X174630000Y-112539999D02*
G75*
G02*
X177370000Y-112539999I1370000J0D01*
G01*
%TO.C,R2*%
X163830000Y-111500000D02*
X166440000Y-111500000D01*
X163830000Y-111500000D02*
G75*
G02*
X161090000Y-111500000I-1370000J0D01*
G01*
X161090000Y-111500000D02*
G75*
G02*
X163830000Y-111500000I1370000J0D01*
G01*
%TO.C,R4*%
X163830000Y-155500000D02*
X166440000Y-155500000D01*
X163830000Y-155500000D02*
G75*
G02*
X161090000Y-155500000I-1370000J0D01*
G01*
X161090000Y-155500000D02*
G75*
G02*
X163830000Y-155500000I1370000J0D01*
G01*
%TO.C,R6*%
X163830000Y-146400000D02*
X166440000Y-146400000D01*
X163830000Y-146400000D02*
G75*
G02*
X161090000Y-146400000I-1370000J0D01*
G01*
X161090000Y-146400000D02*
G75*
G02*
X163830000Y-146400000I1370000J0D01*
G01*
%TO.C,J6*%
X170620000Y-142620000D02*
X172000000Y-142620000D01*
X170620000Y-144000000D02*
X170620000Y-142620000D01*
X170620000Y-145270000D02*
X170620000Y-153000000D01*
X170620000Y-145270000D02*
X173380000Y-145270000D01*
X170620000Y-153000000D02*
X173380000Y-153000000D01*
X173380000Y-145270000D02*
X173380000Y-153000000D01*
%TO.C,J2*%
X170620000Y-125620000D02*
X172000000Y-125620000D01*
X170620000Y-127000000D02*
X170620000Y-125620000D01*
X170620000Y-128270000D02*
X170620000Y-130920000D01*
X170620000Y-128270000D02*
X173380000Y-128270000D01*
X170620000Y-130920000D02*
X173380000Y-130920000D01*
X173380000Y-128270000D02*
X173380000Y-130920000D01*
%TO.C,U1*%
X123650000Y-135160000D02*
X123650000Y-140460000D01*
X123650000Y-140460000D02*
X159330000Y-140460000D01*
X159330000Y-135160000D02*
X123650000Y-135160000D01*
X159330000Y-136810000D02*
X159330000Y-135160000D01*
X159330000Y-140460000D02*
X159330000Y-138810000D01*
X159330000Y-138810000D02*
G75*
G02*
X159330000Y-136810000I0J1000000D01*
G01*
%TO.C,C1*%
X108485000Y-114580000D02*
X110015000Y-114580000D01*
X110015000Y-116420000D02*
X108485000Y-116420000D01*
%TO.C,C8*%
X140705000Y-127080000D02*
X142235000Y-127080000D01*
X142235000Y-128920000D02*
X140705000Y-128920000D01*
%TO.C,J8*%
X170620000Y-172620000D02*
X172000000Y-172620000D01*
X170620000Y-174000000D02*
X170620000Y-172620000D01*
X170620000Y-175270000D02*
X170620000Y-177920000D01*
X170620000Y-175270000D02*
X173380000Y-175270000D01*
X170620000Y-177920000D02*
X173380000Y-177920000D01*
X173380000Y-175270000D02*
X173380000Y-177920000D01*
%TD*%
%LPC*%
D14*
%TO.C,H3*%
X103500000Y-176500000D03*
%TD*%
%TO.C,H1*%
X103500000Y-103500000D03*
%TD*%
%TO.C,H4*%
X186500000Y-176500000D03*
%TD*%
%TO.C,H2*%
X186500000Y-103500000D03*
%TD*%
%LPD*%
M02*
