M48
; DRILL file {KiCad 9.0.9} date 2026-10-01T02:51:28+0000
; FORMAT={-:-/ absolute / metric / decimal}
; #@! TF.CreationDate,2026-10-01T02:51:28+00:00
; #@! TF.GenerationSoftware,Kicad,Pcbnew,9.0.9
; #@! TF.FileFunction,Plated,1,2,PTH
FMAT,2
METRIC
; #@! TA.AperFunction,Plated,PTH,ComponentDrill
T1C0.800
; #@! TA.AperFunction,Plated,PTH,ComponentDrill
T2C1.000
; #@! TA.AperFunction,Plated,PTH,ComponentDrill
T3C1.100
%
G90
G05
T1
X108.0Y-115.5
X110.54Y-115.5
X110.54Y-120.0
X113.08Y-120.0
X124.98Y-134.0
X124.98Y-141.62
X127.52Y-134.0
X127.52Y-141.62
X130.06Y-134.0
X130.06Y-141.62
X132.6Y-128.0
X132.6Y-134.0
X132.6Y-141.62
X135.14Y-128.0
X135.14Y-134.0
X135.14Y-141.62
X137.68Y-128.0
X137.68Y-134.0
X137.68Y-141.62
X140.22Y-128.0
X140.22Y-134.0
X140.22Y-141.62
X142.76Y-128.0
X142.76Y-134.0
X142.76Y-141.62
X145.3Y-134.0
X145.3Y-141.62
X147.84Y-134.0
X147.84Y-141.62
X150.38Y-134.0
X150.38Y-141.62
X152.92Y-134.0
X152.92Y-141.62
X155.46Y-134.0
X155.46Y-141.62
X158.0Y-134.0
X158.0Y-141.62
X162.46Y-111.5
X162.46Y-115.5
X162.46Y-127.0
X162.46Y-131.0
X162.46Y-143.0
X162.46Y-146.4
X162.46Y-155.5
X162.46Y-159.0
X162.46Y-167.8
X162.46Y-174.0
X165.0Y-131.0
X167.54Y-111.5
X167.54Y-115.5
X167.54Y-127.0
X167.54Y-143.0
X167.54Y-146.4
X167.54Y-155.5
X167.54Y-159.0
X167.54Y-167.8
X167.54Y-174.0
X176.0Y-112.54
X176.0Y-155.5
X178.54Y-155.5
X181.08Y-112.54
T2
X119.9Y-150.0
X122.44Y-150.0
X124.98Y-150.0
X127.52Y-150.0
X130.06Y-150.0
X132.6Y-150.0
X135.14Y-150.0
X137.68Y-150.0
X172.0Y-110.0
X172.0Y-112.54
X172.0Y-115.08
X172.0Y-117.62
X172.0Y-120.16
X172.0Y-122.7
X172.0Y-127.0
X172.0Y-129.54
X172.0Y-144.0
X172.0Y-146.54
X172.0Y-149.08
X172.0Y-151.62
X172.0Y-159.0
X172.0Y-161.54
X172.0Y-164.08
X172.0Y-167.8
X172.0Y-170.34
X172.0Y-174.0
X172.0Y-176.54
T3
X108.0Y-112.0
X110.54Y-112.0
X113.08Y-112.0
M30
