%TF.GenerationSoftware,KiCad,Pcbnew,9.0.9*%
%TF.CreationDate,2026-10-01T02:51:28+00:00*%
%TF.ProjectId,AP01_Cabezal,41503031-5f43-4616-9265-7a616c2e6b69,rev?*%
%TF.SameCoordinates,Original*%
%TF.FileFunction,Soldermask,Bot*%
%TF.FilePolarity,Negative*%
%FSLAX46Y46*%
G04 Gerber Fmt 4.6, Leading zero omitted, Abs format (unit mm)*
G04 Created by KiCad (PCBNEW 9.0.9) date 2026-10-01 02:51:28*
%MOMM*%
%LPD*%
G01*
G04 APERTURE LIST*
%ADD10R,2.400000X1.700000*%
%ADD11O,2.400000X1.700000*%
%ADD12C,2.400000*%
%ADD13R,1.700000X2.400000*%
%ADD14O,1.700000X2.400000*%
%ADD15C,3.200000*%
%ADD16R,1.600000X2.600000*%
%ADD17O,1.600000X2.600000*%
%ADD18C,1.800000*%
%ADD19R,1.800000X3.000000*%
%ADD20O,1.800000X3.000000*%
%ADD21C,1.700000*%
G04 APERTURE END LIST*
D10*
%TO.C,J3*%
X172000000Y-110000000D03*
D11*
X172000000Y-112540000D03*
X172000000Y-115080000D03*
X172000000Y-117620000D03*
X172000000Y-120160000D03*
X172000000Y-122700000D03*
%TD*%
D12*
%TO.C,R5*%
X162460000Y-143000000D03*
X167540000Y-143000000D03*
%TD*%
D10*
%TO.C,J7*%
X172000000Y-159000000D03*
D11*
X172000000Y-161540000D03*
X172000000Y-164080000D03*
%TD*%
D13*
%TO.C,J1*%
X137680000Y-150000000D03*
D14*
X135140000Y-150000000D03*
X132600000Y-150000000D03*
X130060000Y-150000000D03*
X127520000Y-150000000D03*
X124980000Y-150000000D03*
X122440000Y-150000000D03*
X119900000Y-150000000D03*
%TD*%
D15*
%TO.C,H3*%
X103500000Y-176500000D03*
%TD*%
D16*
%TO.C,D1*%
X178540000Y-155500000D03*
D17*
X176000000Y-155500000D03*
%TD*%
D18*
%TO.C,Y1*%
X132600000Y-128000000D03*
X135140000Y-128000000D03*
X137680000Y-128000000D03*
%TD*%
D12*
%TO.C,R7*%
X162460000Y-115500000D03*
X167540000Y-115500000D03*
%TD*%
D16*
%TO.C,C2*%
X113080000Y-120000000D03*
D17*
X110540000Y-120000000D03*
%TD*%
D12*
%TO.C,R8*%
X162460000Y-159000000D03*
X167540000Y-159000000D03*
%TD*%
D19*
%TO.C,U2*%
X108000000Y-112000000D03*
D20*
X110540000Y-112000000D03*
X113080000Y-112000000D03*
%TD*%
D10*
%TO.C,J4*%
X172000000Y-167800000D03*
D11*
X172000000Y-170340000D03*
%TD*%
D15*
%TO.C,H1*%
X103500000Y-103500000D03*
%TD*%
D12*
%TO.C,C10*%
X162460000Y-127000000D03*
X167540000Y-127000000D03*
%TD*%
%TO.C,R9*%
X162460000Y-167800000D03*
X167540000Y-167800000D03*
%TD*%
D15*
%TO.C,H4*%
X186500000Y-176500000D03*
%TD*%
D21*
%TO.C,R1*%
X162460000Y-131000000D03*
X165000000Y-131000000D03*
%TD*%
D12*
%TO.C,R10*%
X162460000Y-174000000D03*
X167540000Y-174000000D03*
%TD*%
%TO.C,R3*%
X176000000Y-112539999D03*
X181080000Y-112539999D03*
%TD*%
%TO.C,R2*%
X162460000Y-111500000D03*
X167540000Y-111500000D03*
%TD*%
D15*
%TO.C,H2*%
X186500000Y-103500000D03*
%TD*%
D12*
%TO.C,R4*%
X162460000Y-155500000D03*
X167540000Y-155500000D03*
%TD*%
%TO.C,R6*%
X162460000Y-146400000D03*
X167540000Y-146400000D03*
%TD*%
D10*
%TO.C,J6*%
X172000000Y-144000000D03*
D11*
X172000000Y-146540000D03*
X172000000Y-149080000D03*
X172000000Y-151620000D03*
%TD*%
D10*
%TO.C,J2*%
X172000000Y-127000000D03*
D11*
X172000000Y-129540000D03*
%TD*%
D16*
%TO.C,U1*%
X158000000Y-134000000D03*
D17*
X155460000Y-134000000D03*
X152920000Y-134000000D03*
X150380000Y-134000000D03*
X147840000Y-134000000D03*
X145300000Y-134000000D03*
X142760000Y-134000000D03*
X140220000Y-134000000D03*
X137680000Y-134000000D03*
X135140000Y-134000000D03*
X132600000Y-134000000D03*
X130060000Y-134000000D03*
X127520000Y-134000000D03*
X124980000Y-134000000D03*
X124980000Y-141620000D03*
X127520000Y-141620000D03*
X130060000Y-141620000D03*
X132600000Y-141620000D03*
X135140000Y-141620000D03*
X137680000Y-141620000D03*
X140220000Y-141620000D03*
X142760000Y-141620000D03*
X145300000Y-141620000D03*
X147840000Y-141620000D03*
X150380000Y-141620000D03*
X152920000Y-141620000D03*
X155460000Y-141620000D03*
X158000000Y-141620000D03*
%TD*%
D21*
%TO.C,C1*%
X108000000Y-115500000D03*
X110540000Y-115500000D03*
%TD*%
%TO.C,C8*%
X140220000Y-128000000D03*
X142760000Y-128000000D03*
%TD*%
D10*
%TO.C,J8*%
X172000000Y-174000000D03*
D11*
X172000000Y-176540000D03*
%TD*%
M02*
