M48
; DRILL file {KiCad 9.0.9} date 2026-10-06T22:29:22+0000
; FORMAT={-:-/ absolute / metric / decimal}
; #@! TF.CreationDate,2026-10-06T22:29:22+00:00
; #@! TF.GenerationSoftware,Kicad,Pcbnew,9.0.9
; #@! TF.FileFunction,Plated,1,2,PTH
FMAT,2
METRIC
; #@! TA.AperFunction,Plated,PTH,ViaDrill
T1C0.300
; #@! TA.AperFunction,Plated,PTH,ComponentDrill
T2C0.950
; #@! TA.AperFunction,Plated,PTH,ComponentDrill
T3C1.700
%
G90
G05
T1
X100.751Y-102.251
X102.0Y-107.0
X102.0Y-112.0
X102.0Y-117.0
X102.0Y-122.0
X102.0Y-127.0
X102.0Y-132.0
X102.0Y-137.0
X102.0Y-142.0
X102.0Y-147.0
X102.0Y-152.0
X107.0Y-107.0
X107.0Y-112.0
X107.0Y-117.0
X107.0Y-122.0
X107.0Y-127.0
X107.0Y-132.0
X107.0Y-147.0
X111.671Y-105.6
X112.0Y-112.0
X112.0Y-117.0
X112.0Y-122.0
X112.0Y-127.0
X112.0Y-132.0
X112.0Y-147.0
X112.936Y-101.001
X115.784Y-135.425
X115.784Y-140.419
X117.0Y-107.0
X117.0Y-112.0
X117.0Y-117.0
X117.0Y-122.0
X117.0Y-127.0
X117.0Y-132.0
X117.0Y-137.0
X117.0Y-142.0
X117.0Y-147.0
X118.344Y-108.656
X118.536Y-101.001
X122.0Y-107.0
X122.0Y-117.0
X122.0Y-122.0
X122.0Y-127.0
X122.0Y-132.0
X122.0Y-147.0
X122.875Y-137.377
X126.321Y-109.562
X126.34Y-113.21
X127.0Y-107.0
X127.0Y-117.0
X127.0Y-122.0
X127.0Y-127.0
X127.0Y-132.0
X127.0Y-147.0
X130.512Y-115.182
X130.512Y-137.775
X131.444Y-121.0
X132.0Y-107.0
X132.0Y-112.0
X132.0Y-117.0
X132.0Y-127.0
X132.0Y-132.0
X132.0Y-137.0
X132.0Y-142.0
X132.0Y-147.0
X134.45Y-117.825
X134.921Y-113.263
X137.0Y-107.0
X137.0Y-127.0
X137.0Y-132.0
X137.0Y-147.0
X139.205Y-112.719
X139.208Y-115.181
X139.751Y-114.55
X141.774Y-119.126
X142.0Y-107.0
X142.0Y-117.0
X142.0Y-127.0
X142.0Y-132.0
X142.0Y-147.0
X142.016Y-136.175
X143.1Y-109.9
X143.756Y-140.419
X147.0Y-107.0
X147.0Y-117.0
X147.0Y-147.0
X147.535Y-127.189
X148.585Y-128.087
X152.0Y-117.0
X152.0Y-137.0
X152.0Y-142.0
X152.0Y-147.0
X153.404Y-126.2
X154.875Y-137.543
X156.255Y-136.922
X156.936Y-101.001
X157.0Y-112.0
X157.0Y-117.0
X157.0Y-132.0
X159.99Y-141.175
X162.0Y-107.0
X162.0Y-112.0
X162.0Y-117.0
X162.0Y-132.0
X162.0Y-142.0
X162.0Y-147.0
X162.0Y-152.0
X167.0Y-107.0
X167.0Y-112.0
X167.0Y-117.0
X167.0Y-122.0
X167.0Y-127.0
X167.0Y-132.0
X167.0Y-142.0
X167.0Y-147.0
X167.0Y-152.0
T2
X106.0Y-151.0
X108.5Y-151.0
X111.0Y-151.0
X122.0Y-151.0
X124.5Y-151.0
X127.0Y-151.0
X138.0Y-151.0
X140.5Y-151.0
X143.0Y-151.0
X154.0Y-151.0
X156.5Y-151.0
X159.0Y-151.0
T3
X160.6Y-123.0
X160.6Y-126.96
M30
