M48
; DRILL file {KiCad 9.0.9} date 2026-10-06T22:19:20+0000
; FORMAT={-:-/ absolute / metric / decimal}
; #@! TF.CreationDate,2026-10-06T22:19:20+00:00
; #@! TF.GenerationSoftware,Kicad,Pcbnew,9.0.9
; #@! TF.FileFunction,Plated,1,2,PTH
FMAT,2
METRIC
; #@! TA.AperFunction,Plated,PTH,ViaDrill
T1C0.300
; #@! TA.AperFunction,Plated,PTH,ComponentDrill
T2C1.000
%
G90
G05
T1
X100.751Y-102.251
X102.0Y-107.0
X102.0Y-112.0
X102.0Y-117.0
X102.0Y-122.0
X102.0Y-127.0
X102.0Y-132.0
X102.0Y-137.0
X102.0Y-142.0
X102.0Y-147.0
X103.5Y-138.53
X103.796Y-123.625
X106.909Y-135.622
X107.0Y-107.0
X107.0Y-112.0
X107.0Y-142.0
X107.0Y-147.0
X107.933Y-124.75
X111.285Y-123.415
X111.671Y-105.6
X111.805Y-125.233
X112.0Y-112.0
X112.0Y-117.0
X112.936Y-101.001
X115.904Y-104.289
X117.0Y-107.0
X117.0Y-112.0
X117.0Y-117.0
X117.0Y-122.0
X117.0Y-127.0
X117.0Y-132.0
X117.0Y-142.0
X117.0Y-147.0
X117.0Y-152.0
X118.226Y-123.625
X118.321Y-134.355
X118.489Y-108.64
X119.217Y-124.872
X119.53Y-125.809
X120.765Y-122.499
X121.225Y-110.52
X121.325Y-134.2
X121.693Y-135.622
X122.0Y-142.0
X122.0Y-147.0
X127.0Y-117.0
X127.0Y-152.0
X129.332Y-135.668
X130.0Y-112.316
X132.0Y-127.0
X132.0Y-132.0
X132.0Y-142.0
X132.0Y-147.0
X132.907Y-125.265
X133.732Y-116.823
X133.802Y-122.003
X134.551Y-126.062
X136.693Y-135.622
X137.0Y-117.0
X137.933Y-124.75
X141.3Y-122.003
X141.3Y-125.809
X142.0Y-117.0
X142.0Y-142.0
X142.0Y-147.0
X142.0Y-152.0
X144.193Y-135.622
X144.252Y-116.168
X145.351Y-110.025
X146.5Y-138.536
X146.604Y-112.625
X147.0Y-127.0
X147.0Y-132.0
X148.305Y-104.082
X149.7Y-138.554
X150.088Y-108.01
X150.727Y-122.798
X151.326Y-134.2
X151.565Y-137.686
X152.0Y-147.0
X152.0Y-152.0
X152.933Y-124.75
X153.254Y-123.625
X153.675Y-119.744
X154.113Y-122.624
X154.288Y-137.077
X156.044Y-125.809
X156.193Y-136.456
X156.32Y-111.325
X156.32Y-122.003
X156.721Y-124.872
X156.936Y-101.001
X157.0Y-147.0
X157.306Y-136.1
X158.5Y-107.5
X158.582Y-122.672
X158.88Y-101.725
X159.065Y-137.686
X161.725Y-116.168
X162.0Y-107.0
X162.0Y-122.0
X162.0Y-127.0
X162.0Y-132.0
X162.0Y-137.0
X162.0Y-142.0
X162.0Y-147.0
X162.0Y-152.0
X167.0Y-107.0
X167.0Y-112.0
X167.0Y-117.0
X167.0Y-122.0
X167.0Y-127.0
X167.0Y-132.0
X167.0Y-142.0
X167.0Y-147.0
T2
X103.5Y-151.0
X106.0Y-151.0
X112.1Y-151.0
X114.6Y-151.0
X120.7Y-151.0
X123.2Y-151.0
X129.3Y-151.0
X130.0Y-103.5
X131.8Y-151.0
X132.54Y-103.5
X135.08Y-103.5
X137.62Y-103.5
X137.9Y-151.0
X140.4Y-151.0
X146.5Y-151.0
X149.0Y-151.0
X155.1Y-151.0
X157.6Y-151.0
X163.7Y-151.0
X166.2Y-151.0
M30
