M48
; DRILL file {KiCad 9.0.9} date 2026-10-05T22:49:22+0000
; FORMAT={-:-/ absolute / metric / decimal}
; #@! TF.CreationDate,2026-10-05T22:49:22+00:00
; #@! TF.GenerationSoftware,Kicad,Pcbnew,9.0.9
; #@! TF.FileFunction,Plated,1,2,PTH
FMAT,2
METRIC
; #@! TA.AperFunction,Plated,PTH,ViaDrill
T1C0.300
; #@! TA.AperFunction,Plated,PTH,ComponentDrill
T2C1.000
; #@! TA.AperFunction,Plated,PTH,ComponentDrill
T3C1.300
%
G90
G05
T1
X100.751Y-102.251
X102.0Y-107.0
X102.0Y-112.0
X102.0Y-117.0
X102.0Y-122.0
X102.0Y-127.0
X102.0Y-132.0
X102.0Y-137.0
X102.0Y-142.0
X102.0Y-147.0
X102.0Y-152.0
X103.796Y-123.625
X107.0Y-107.0
X107.0Y-112.0
X107.0Y-142.0
X107.0Y-147.0
X107.0Y-152.0
X107.933Y-124.75
X110.008Y-123.625
X111.671Y-105.6
X111.805Y-125.233
X112.0Y-112.0
X112.0Y-117.0
X112.0Y-142.0
X112.0Y-147.0
X112.0Y-152.0
X112.936Y-101.001
X116.39Y-123.625
X116.936Y-105.387
X117.0Y-127.0
X117.0Y-132.0
X117.0Y-137.0
X117.0Y-142.0
X117.0Y-152.0
X118.002Y-103.251
X118.623Y-107.117
X119.217Y-124.872
X119.53Y-125.809
X121.225Y-110.562
X121.384Y-102.664
X122.0Y-117.0
X122.0Y-142.0
X122.0Y-147.0
X122.0Y-152.0
X122.933Y-124.729
X123.188Y-122.084
X125.116Y-136.874
X127.0Y-117.0
X127.0Y-147.0
X127.0Y-152.0
X128.332Y-109.0
X129.332Y-135.668
X129.479Y-117.224
X131.596Y-122.624
X132.0Y-127.0
X132.0Y-132.0
X132.0Y-142.0
X132.0Y-147.0
X132.0Y-152.0
X132.99Y-125.25
X133.802Y-122.003
X134.551Y-126.062
X134.7Y-138.541
X136.082Y-122.672
X136.326Y-134.2
X136.693Y-135.622
X137.0Y-117.0
X137.0Y-142.0
X137.0Y-147.0
X137.0Y-152.0
X137.933Y-124.75
X142.0Y-117.0
X142.0Y-142.0
X142.0Y-152.0
X142.2Y-138.533
X143.939Y-119.227
X144.193Y-135.622
X144.252Y-116.168
X144.409Y-110.025
X146.372Y-112.625
X146.424Y-108.01
X146.88Y-104.082
X146.922Y-118.494
X146.922Y-122.427
X147.0Y-127.0
X147.0Y-132.0
X147.0Y-152.0
X147.552Y-125.186
X147.881Y-113.906
X149.244Y-138.556
X149.552Y-125.809
X149.8Y-121.04
X151.082Y-122.672
X151.326Y-134.2
X151.539Y-137.686
X152.0Y-147.0
X152.0Y-152.0
X152.294Y-111.325
X152.933Y-124.75
X153.328Y-111.851
X153.482Y-122.427
X153.884Y-118.994
X154.292Y-138.588
X155.08Y-136.419
X156.936Y-101.001
X157.0Y-112.0
X157.0Y-142.0
X157.0Y-147.0
X157.0Y-152.0
X157.014Y-125.809
X157.3Y-121.067
X158.716Y-107.716
X158.716Y-124.105
X158.88Y-101.725
X159.065Y-137.686
X161.725Y-116.168
X162.0Y-107.0
X162.0Y-122.0
X162.0Y-127.0
X162.0Y-132.0
X162.0Y-137.0
X162.0Y-142.0
X162.0Y-147.0
X162.0Y-152.0
X167.0Y-107.0
X167.0Y-112.0
X167.0Y-117.0
X167.0Y-122.0
X167.0Y-127.0
X167.0Y-132.0
X167.0Y-142.0
X167.0Y-147.0
X167.0Y-152.0
T2
X130.0Y-103.5
X132.54Y-103.5
X135.08Y-103.5
X137.62Y-103.5
T3
X104.0Y-149.8
X109.08Y-149.8
X114.16Y-149.8
X121.0Y-149.8
X126.08Y-149.8
X131.16Y-149.8
X138.0Y-149.8
X143.08Y-149.8
X150.0Y-149.8
X155.08Y-149.8
M30
