%TF.GenerationSoftware,KiCad,Pcbnew,9.0.9*%
%TF.CreationDate,2026-10-06T22:27:55+00:00*%
%TF.ProjectId,AP1_Pixel,4150315f-5069-4786-956c-2e6b69636164,rev?*%
%TF.SameCoordinates,Original*%
%TF.FileFunction,Legend,Bot*%
%TF.FilePolarity,Positive*%
%FSLAX46Y46*%
G04 Gerber Fmt 4.6, Leading zero omitted, Abs format (unit mm)*
G04 Created by KiCad (PCBNEW 9.0.9) date 2026-10-06 22:27:55*
%MOMM*%
%LPD*%
G01*
G04 APERTURE LIST*
G04 Aperture macros list*
%AMRoundRect*
0 Rectangle with rounded corners*
0 $1 Rounding radius*
0 $2 $3 $4 $5 $6 $7 $8 $9 X,Y pos of 4 corners*
0 Add a 4 corners polygon primitive as box body*
4,1,4,$2,$3,$4,$5,$6,$7,$8,$9,$2,$3,0*
0 Add four circle primitives for the rounded corners*
1,1,$1+$1,$2,$3*
1,1,$1+$1,$4,$5*
1,1,$1+$1,$6,$7*
1,1,$1+$1,$8,$9*
0 Add four rect primitives between the rounded corners*
20,1,$1+$1,$2,$3,$4,$5,0*
20,1,$1+$1,$4,$5,$6,$7,0*
20,1,$1+$1,$6,$7,$8,$9,0*
20,1,$1+$1,$8,$9,$2,$3,0*%
G04 Aperture macros list end*
%ADD10C,0.120000*%
%ADD11C,0.150000*%
%ADD12C,2.780000*%
%ADD13RoundRect,0.250001X-1.099999X-1.099999X1.099999X-1.099999X1.099999X1.099999X-1.099999X1.099999X0*%
%ADD14C,2.700000*%
%ADD15C,3.200000*%
%ADD16R,1.700000X1.700000*%
%ADD17C,1.700000*%
G04 APERTURE END LIST*
D10*
X142628573Y-101563855D02*
X142171430Y-101563855D01*
X142400002Y-102363855D02*
X142400002Y-101563855D01*
X141904763Y-102363855D02*
X141904763Y-101830521D01*
X141904763Y-101563855D02*
X141942859Y-101601950D01*
X141942859Y-101601950D02*
X141904763Y-101640045D01*
X141904763Y-101640045D02*
X141866668Y-101601950D01*
X141866668Y-101601950D02*
X141904763Y-101563855D01*
X141904763Y-101563855D02*
X141904763Y-101640045D01*
X141523811Y-102363855D02*
X141523811Y-101830521D01*
X141523811Y-101982902D02*
X141485716Y-101906712D01*
X141485716Y-101906712D02*
X141447621Y-101868617D01*
X141447621Y-101868617D02*
X141371430Y-101830521D01*
X141371430Y-101830521D02*
X141295240Y-101830521D01*
X140685716Y-102363855D02*
X140685716Y-101944807D01*
X140685716Y-101944807D02*
X140723811Y-101868617D01*
X140723811Y-101868617D02*
X140800002Y-101830521D01*
X140800002Y-101830521D02*
X140952383Y-101830521D01*
X140952383Y-101830521D02*
X141028573Y-101868617D01*
X140685716Y-102325760D02*
X140761907Y-102363855D01*
X140761907Y-102363855D02*
X140952383Y-102363855D01*
X140952383Y-102363855D02*
X141028573Y-102325760D01*
X141028573Y-102325760D02*
X141066669Y-102249569D01*
X141066669Y-102249569D02*
X141066669Y-102173379D01*
X141066669Y-102173379D02*
X141028573Y-102097188D01*
X141028573Y-102097188D02*
X140952383Y-102059093D01*
X140952383Y-102059093D02*
X140761907Y-102059093D01*
X140761907Y-102059093D02*
X140685716Y-102020998D01*
X140342859Y-102325760D02*
X140266668Y-102363855D01*
X140266668Y-102363855D02*
X140114287Y-102363855D01*
X140114287Y-102363855D02*
X140038097Y-102325760D01*
X140038097Y-102325760D02*
X140000001Y-102249569D01*
X140000001Y-102249569D02*
X140000001Y-102211474D01*
X140000001Y-102211474D02*
X140038097Y-102135283D01*
X140038097Y-102135283D02*
X140114287Y-102097188D01*
X140114287Y-102097188D02*
X140228573Y-102097188D01*
X140228573Y-102097188D02*
X140304763Y-102059093D01*
X140304763Y-102059093D02*
X140342859Y-101982902D01*
X140342859Y-101982902D02*
X140342859Y-101944807D01*
X140342859Y-101944807D02*
X140304763Y-101868617D01*
X140304763Y-101868617D02*
X140228573Y-101830521D01*
X140228573Y-101830521D02*
X140114287Y-101830521D01*
X140114287Y-101830521D02*
X140038097Y-101868617D01*
X138933335Y-102363855D02*
X139009525Y-102325760D01*
X139009525Y-102325760D02*
X139047620Y-102249569D01*
X139047620Y-102249569D02*
X139047620Y-101563855D01*
X138285715Y-102363855D02*
X138285715Y-101944807D01*
X138285715Y-101944807D02*
X138323810Y-101868617D01*
X138323810Y-101868617D02*
X138400001Y-101830521D01*
X138400001Y-101830521D02*
X138552382Y-101830521D01*
X138552382Y-101830521D02*
X138628572Y-101868617D01*
X138285715Y-102325760D02*
X138361906Y-102363855D01*
X138361906Y-102363855D02*
X138552382Y-102363855D01*
X138552382Y-102363855D02*
X138628572Y-102325760D01*
X138628572Y-102325760D02*
X138666668Y-102249569D01*
X138666668Y-102249569D02*
X138666668Y-102173379D01*
X138666668Y-102173379D02*
X138628572Y-102097188D01*
X138628572Y-102097188D02*
X138552382Y-102059093D01*
X138552382Y-102059093D02*
X138361906Y-102059093D01*
X138361906Y-102059093D02*
X138285715Y-102020998D01*
X137904762Y-102363855D02*
X137904762Y-101830521D01*
X137904762Y-101982902D02*
X137866667Y-101906712D01*
X137866667Y-101906712D02*
X137828572Y-101868617D01*
X137828572Y-101868617D02*
X137752381Y-101830521D01*
X137752381Y-101830521D02*
X137676191Y-101830521D01*
X137066667Y-101830521D02*
X137066667Y-102478140D01*
X137066667Y-102478140D02*
X137104762Y-102554331D01*
X137104762Y-102554331D02*
X137142858Y-102592426D01*
X137142858Y-102592426D02*
X137219048Y-102630521D01*
X137219048Y-102630521D02*
X137333334Y-102630521D01*
X137333334Y-102630521D02*
X137409524Y-102592426D01*
X137066667Y-102325760D02*
X137142858Y-102363855D01*
X137142858Y-102363855D02*
X137295239Y-102363855D01*
X137295239Y-102363855D02*
X137371429Y-102325760D01*
X137371429Y-102325760D02*
X137409524Y-102287664D01*
X137409524Y-102287664D02*
X137447620Y-102211474D01*
X137447620Y-102211474D02*
X137447620Y-101982902D01*
X137447620Y-101982902D02*
X137409524Y-101906712D01*
X137409524Y-101906712D02*
X137371429Y-101868617D01*
X137371429Y-101868617D02*
X137295239Y-101830521D01*
X137295239Y-101830521D02*
X137142858Y-101830521D01*
X137142858Y-101830521D02*
X137066667Y-101868617D01*
X136342857Y-102363855D02*
X136342857Y-101944807D01*
X136342857Y-101944807D02*
X136380952Y-101868617D01*
X136380952Y-101868617D02*
X136457143Y-101830521D01*
X136457143Y-101830521D02*
X136609524Y-101830521D01*
X136609524Y-101830521D02*
X136685714Y-101868617D01*
X136342857Y-102325760D02*
X136419048Y-102363855D01*
X136419048Y-102363855D02*
X136609524Y-102363855D01*
X136609524Y-102363855D02*
X136685714Y-102325760D01*
X136685714Y-102325760D02*
X136723810Y-102249569D01*
X136723810Y-102249569D02*
X136723810Y-102173379D01*
X136723810Y-102173379D02*
X136685714Y-102097188D01*
X136685714Y-102097188D02*
X136609524Y-102059093D01*
X136609524Y-102059093D02*
X136419048Y-102059093D01*
X136419048Y-102059093D02*
X136342857Y-102020998D01*
X136000000Y-102325760D02*
X135923809Y-102363855D01*
X135923809Y-102363855D02*
X135771428Y-102363855D01*
X135771428Y-102363855D02*
X135695238Y-102325760D01*
X135695238Y-102325760D02*
X135657142Y-102249569D01*
X135657142Y-102249569D02*
X135657142Y-102211474D01*
X135657142Y-102211474D02*
X135695238Y-102135283D01*
X135695238Y-102135283D02*
X135771428Y-102097188D01*
X135771428Y-102097188D02*
X135885714Y-102097188D01*
X135885714Y-102097188D02*
X135961904Y-102059093D01*
X135961904Y-102059093D02*
X136000000Y-101982902D01*
X136000000Y-101982902D02*
X136000000Y-101944807D01*
X136000000Y-101944807D02*
X135961904Y-101868617D01*
X135961904Y-101868617D02*
X135885714Y-101830521D01*
X135885714Y-101830521D02*
X135771428Y-101830521D01*
X135771428Y-101830521D02*
X135695238Y-101868617D01*
X135314285Y-102287664D02*
X135276190Y-102325760D01*
X135276190Y-102325760D02*
X135314285Y-102363855D01*
X135314285Y-102363855D02*
X135352381Y-102325760D01*
X135352381Y-102325760D02*
X135314285Y-102287664D01*
X135314285Y-102287664D02*
X135314285Y-102363855D01*
X135314285Y-101868617D02*
X135276190Y-101906712D01*
X135276190Y-101906712D02*
X135314285Y-101944807D01*
X135314285Y-101944807D02*
X135352381Y-101906712D01*
X135352381Y-101906712D02*
X135314285Y-101868617D01*
X135314285Y-101868617D02*
X135314285Y-101944807D01*
X134323809Y-102363855D02*
X134323809Y-101830521D01*
X134323809Y-101563855D02*
X134361905Y-101601950D01*
X134361905Y-101601950D02*
X134323809Y-101640045D01*
X134323809Y-101640045D02*
X134285714Y-101601950D01*
X134285714Y-101601950D02*
X134323809Y-101563855D01*
X134323809Y-101563855D02*
X134323809Y-101640045D01*
X133942857Y-101830521D02*
X133942857Y-102363855D01*
X133942857Y-101906712D02*
X133904762Y-101868617D01*
X133904762Y-101868617D02*
X133828572Y-101830521D01*
X133828572Y-101830521D02*
X133714286Y-101830521D01*
X133714286Y-101830521D02*
X133638095Y-101868617D01*
X133638095Y-101868617D02*
X133600000Y-101944807D01*
X133600000Y-101944807D02*
X133600000Y-102363855D01*
X133295238Y-101830521D02*
X133104762Y-102363855D01*
X132914285Y-101830521D02*
X133104762Y-102363855D01*
X133104762Y-102363855D02*
X133180952Y-102554331D01*
X133180952Y-102554331D02*
X133219047Y-102592426D01*
X133219047Y-102592426D02*
X133295238Y-102630521D01*
X132304761Y-102325760D02*
X132380952Y-102363855D01*
X132380952Y-102363855D02*
X132533333Y-102363855D01*
X132533333Y-102363855D02*
X132609523Y-102325760D01*
X132609523Y-102325760D02*
X132647619Y-102249569D01*
X132647619Y-102249569D02*
X132647619Y-101944807D01*
X132647619Y-101944807D02*
X132609523Y-101868617D01*
X132609523Y-101868617D02*
X132533333Y-101830521D01*
X132533333Y-101830521D02*
X132380952Y-101830521D01*
X132380952Y-101830521D02*
X132304761Y-101868617D01*
X132304761Y-101868617D02*
X132266666Y-101944807D01*
X132266666Y-101944807D02*
X132266666Y-102020998D01*
X132266666Y-102020998D02*
X132647619Y-102097188D01*
X131580952Y-102325760D02*
X131657143Y-102363855D01*
X131657143Y-102363855D02*
X131809524Y-102363855D01*
X131809524Y-102363855D02*
X131885714Y-102325760D01*
X131885714Y-102325760D02*
X131923809Y-102287664D01*
X131923809Y-102287664D02*
X131961905Y-102211474D01*
X131961905Y-102211474D02*
X131961905Y-101982902D01*
X131961905Y-101982902D02*
X131923809Y-101906712D01*
X131923809Y-101906712D02*
X131885714Y-101868617D01*
X131885714Y-101868617D02*
X131809524Y-101830521D01*
X131809524Y-101830521D02*
X131657143Y-101830521D01*
X131657143Y-101830521D02*
X131580952Y-101868617D01*
X131352381Y-101830521D02*
X131047619Y-101830521D01*
X131238095Y-101563855D02*
X131238095Y-102249569D01*
X131238095Y-102249569D02*
X131200000Y-102325760D01*
X131200000Y-102325760D02*
X131123810Y-102363855D01*
X131123810Y-102363855D02*
X131047619Y-102363855D01*
X130438095Y-102363855D02*
X130438095Y-101944807D01*
X130438095Y-101944807D02*
X130476190Y-101868617D01*
X130476190Y-101868617D02*
X130552381Y-101830521D01*
X130552381Y-101830521D02*
X130704762Y-101830521D01*
X130704762Y-101830521D02*
X130780952Y-101868617D01*
X130438095Y-102325760D02*
X130514286Y-102363855D01*
X130514286Y-102363855D02*
X130704762Y-102363855D01*
X130704762Y-102363855D02*
X130780952Y-102325760D01*
X130780952Y-102325760D02*
X130819048Y-102249569D01*
X130819048Y-102249569D02*
X130819048Y-102173379D01*
X130819048Y-102173379D02*
X130780952Y-102097188D01*
X130780952Y-102097188D02*
X130704762Y-102059093D01*
X130704762Y-102059093D02*
X130514286Y-102059093D01*
X130514286Y-102059093D02*
X130438095Y-102020998D01*
X130057142Y-102363855D02*
X130057142Y-101830521D01*
X130057142Y-101982902D02*
X130019047Y-101906712D01*
X130019047Y-101906712D02*
X129980952Y-101868617D01*
X129980952Y-101868617D02*
X129904761Y-101830521D01*
X129904761Y-101830521D02*
X129828571Y-101830521D01*
X128952380Y-102059093D02*
X128342857Y-102059093D01*
X128647618Y-102363855D02*
X128647618Y-101754331D01*
X128076190Y-101563855D02*
X127809523Y-102363855D01*
X127809523Y-102363855D02*
X127542857Y-101563855D01*
X126323809Y-102363855D02*
X126323809Y-101563855D01*
X126323809Y-102325760D02*
X126400000Y-102363855D01*
X126400000Y-102363855D02*
X126552381Y-102363855D01*
X126552381Y-102363855D02*
X126628571Y-102325760D01*
X126628571Y-102325760D02*
X126666666Y-102287664D01*
X126666666Y-102287664D02*
X126704762Y-102211474D01*
X126704762Y-102211474D02*
X126704762Y-101982902D01*
X126704762Y-101982902D02*
X126666666Y-101906712D01*
X126666666Y-101906712D02*
X126628571Y-101868617D01*
X126628571Y-101868617D02*
X126552381Y-101830521D01*
X126552381Y-101830521D02*
X126400000Y-101830521D01*
X126400000Y-101830521D02*
X126323809Y-101868617D01*
X125638094Y-102325760D02*
X125714285Y-102363855D01*
X125714285Y-102363855D02*
X125866666Y-102363855D01*
X125866666Y-102363855D02*
X125942856Y-102325760D01*
X125942856Y-102325760D02*
X125980952Y-102249569D01*
X125980952Y-102249569D02*
X125980952Y-101944807D01*
X125980952Y-101944807D02*
X125942856Y-101868617D01*
X125942856Y-101868617D02*
X125866666Y-101830521D01*
X125866666Y-101830521D02*
X125714285Y-101830521D01*
X125714285Y-101830521D02*
X125638094Y-101868617D01*
X125638094Y-101868617D02*
X125599999Y-101944807D01*
X125599999Y-101944807D02*
X125599999Y-102020998D01*
X125599999Y-102020998D02*
X125980952Y-102097188D01*
X125295238Y-102325760D02*
X125219047Y-102363855D01*
X125219047Y-102363855D02*
X125066666Y-102363855D01*
X125066666Y-102363855D02*
X124990476Y-102325760D01*
X124990476Y-102325760D02*
X124952380Y-102249569D01*
X124952380Y-102249569D02*
X124952380Y-102211474D01*
X124952380Y-102211474D02*
X124990476Y-102135283D01*
X124990476Y-102135283D02*
X125066666Y-102097188D01*
X125066666Y-102097188D02*
X125180952Y-102097188D01*
X125180952Y-102097188D02*
X125257142Y-102059093D01*
X125257142Y-102059093D02*
X125295238Y-101982902D01*
X125295238Y-101982902D02*
X125295238Y-101944807D01*
X125295238Y-101944807D02*
X125257142Y-101868617D01*
X125257142Y-101868617D02*
X125180952Y-101830521D01*
X125180952Y-101830521D02*
X125066666Y-101830521D01*
X125066666Y-101830521D02*
X124990476Y-101868617D01*
X124266666Y-102363855D02*
X124266666Y-101563855D01*
X124266666Y-102325760D02*
X124342857Y-102363855D01*
X124342857Y-102363855D02*
X124495238Y-102363855D01*
X124495238Y-102363855D02*
X124571428Y-102325760D01*
X124571428Y-102325760D02*
X124609523Y-102287664D01*
X124609523Y-102287664D02*
X124647619Y-102211474D01*
X124647619Y-102211474D02*
X124647619Y-101982902D01*
X124647619Y-101982902D02*
X124609523Y-101906712D01*
X124609523Y-101906712D02*
X124571428Y-101868617D01*
X124571428Y-101868617D02*
X124495238Y-101830521D01*
X124495238Y-101830521D02*
X124342857Y-101830521D01*
X124342857Y-101830521D02*
X124266666Y-101868617D01*
X123580951Y-102325760D02*
X123657142Y-102363855D01*
X123657142Y-102363855D02*
X123809523Y-102363855D01*
X123809523Y-102363855D02*
X123885713Y-102325760D01*
X123885713Y-102325760D02*
X123923809Y-102249569D01*
X123923809Y-102249569D02*
X123923809Y-101944807D01*
X123923809Y-101944807D02*
X123885713Y-101868617D01*
X123885713Y-101868617D02*
X123809523Y-101830521D01*
X123809523Y-101830521D02*
X123657142Y-101830521D01*
X123657142Y-101830521D02*
X123580951Y-101868617D01*
X123580951Y-101868617D02*
X123542856Y-101944807D01*
X123542856Y-101944807D02*
X123542856Y-102020998D01*
X123542856Y-102020998D02*
X123923809Y-102097188D01*
X122476190Y-102363855D02*
X122552380Y-102325760D01*
X122552380Y-102325760D02*
X122590475Y-102249569D01*
X122590475Y-102249569D02*
X122590475Y-101563855D01*
X121828570Y-102363855D02*
X121828570Y-101944807D01*
X121828570Y-101944807D02*
X121866665Y-101868617D01*
X121866665Y-101868617D02*
X121942856Y-101830521D01*
X121942856Y-101830521D02*
X122095237Y-101830521D01*
X122095237Y-101830521D02*
X122171427Y-101868617D01*
X121828570Y-102325760D02*
X121904761Y-102363855D01*
X121904761Y-102363855D02*
X122095237Y-102363855D01*
X122095237Y-102363855D02*
X122171427Y-102325760D01*
X122171427Y-102325760D02*
X122209523Y-102249569D01*
X122209523Y-102249569D02*
X122209523Y-102173379D01*
X122209523Y-102173379D02*
X122171427Y-102097188D01*
X122171427Y-102097188D02*
X122095237Y-102059093D01*
X122095237Y-102059093D02*
X121904761Y-102059093D01*
X121904761Y-102059093D02*
X121828570Y-102020998D01*
X120952379Y-101830521D02*
X120647617Y-101830521D01*
X120838093Y-102363855D02*
X120838093Y-101678140D01*
X120838093Y-101678140D02*
X120799998Y-101601950D01*
X120799998Y-101601950D02*
X120723808Y-101563855D01*
X120723808Y-101563855D02*
X120647617Y-101563855D01*
X120038093Y-101830521D02*
X120038093Y-102363855D01*
X120380950Y-101830521D02*
X120380950Y-102249569D01*
X120380950Y-102249569D02*
X120342855Y-102325760D01*
X120342855Y-102325760D02*
X120266665Y-102363855D01*
X120266665Y-102363855D02*
X120152379Y-102363855D01*
X120152379Y-102363855D02*
X120076188Y-102325760D01*
X120076188Y-102325760D02*
X120038093Y-102287664D01*
X119352378Y-102325760D02*
X119428569Y-102363855D01*
X119428569Y-102363855D02*
X119580950Y-102363855D01*
X119580950Y-102363855D02*
X119657140Y-102325760D01*
X119657140Y-102325760D02*
X119695236Y-102249569D01*
X119695236Y-102249569D02*
X119695236Y-101944807D01*
X119695236Y-101944807D02*
X119657140Y-101868617D01*
X119657140Y-101868617D02*
X119580950Y-101830521D01*
X119580950Y-101830521D02*
X119428569Y-101830521D01*
X119428569Y-101830521D02*
X119352378Y-101868617D01*
X119352378Y-101868617D02*
X119314283Y-101944807D01*
X119314283Y-101944807D02*
X119314283Y-102020998D01*
X119314283Y-102020998D02*
X119695236Y-102097188D01*
X118971426Y-101830521D02*
X118971426Y-102363855D01*
X118971426Y-101906712D02*
X118933331Y-101868617D01*
X118933331Y-101868617D02*
X118857141Y-101830521D01*
X118857141Y-101830521D02*
X118742855Y-101830521D01*
X118742855Y-101830521D02*
X118666664Y-101868617D01*
X118666664Y-101868617D02*
X118628569Y-101944807D01*
X118628569Y-101944807D02*
X118628569Y-102363855D01*
X118361902Y-101830521D02*
X118057140Y-101830521D01*
X118247616Y-101563855D02*
X118247616Y-102249569D01*
X118247616Y-102249569D02*
X118209521Y-102325760D01*
X118209521Y-102325760D02*
X118133331Y-102363855D01*
X118133331Y-102363855D02*
X118057140Y-102363855D01*
X117485711Y-102325760D02*
X117561902Y-102363855D01*
X117561902Y-102363855D02*
X117714283Y-102363855D01*
X117714283Y-102363855D02*
X117790473Y-102325760D01*
X117790473Y-102325760D02*
X117828569Y-102249569D01*
X117828569Y-102249569D02*
X117828569Y-101944807D01*
X117828569Y-101944807D02*
X117790473Y-101868617D01*
X117790473Y-101868617D02*
X117714283Y-101830521D01*
X117714283Y-101830521D02*
X117561902Y-101830521D01*
X117561902Y-101830521D02*
X117485711Y-101868617D01*
X117485711Y-101868617D02*
X117447616Y-101944807D01*
X117447616Y-101944807D02*
X117447616Y-102020998D01*
X117447616Y-102020998D02*
X117828569Y-102097188D01*
D11*
X154452382Y-155254819D02*
X154928572Y-155254819D01*
X154928572Y-155254819D02*
X154928572Y-154254819D01*
X153738096Y-155207200D02*
X153833334Y-155254819D01*
X153833334Y-155254819D02*
X154023810Y-155254819D01*
X154023810Y-155254819D02*
X154119048Y-155207200D01*
X154119048Y-155207200D02*
X154166667Y-155111961D01*
X154166667Y-155111961D02*
X154166667Y-154731009D01*
X154166667Y-154731009D02*
X154119048Y-154635771D01*
X154119048Y-154635771D02*
X154023810Y-154588152D01*
X154023810Y-154588152D02*
X153833334Y-154588152D01*
X153833334Y-154588152D02*
X153738096Y-154635771D01*
X153738096Y-154635771D02*
X153690477Y-154731009D01*
X153690477Y-154731009D02*
X153690477Y-154826247D01*
X153690477Y-154826247D02*
X154166667Y-154921485D01*
X153404762Y-154588152D02*
X153023810Y-154588152D01*
X153261905Y-154254819D02*
X153261905Y-155111961D01*
X153261905Y-155111961D02*
X153214286Y-155207200D01*
X153214286Y-155207200D02*
X153119048Y-155254819D01*
X153119048Y-155254819D02*
X153023810Y-155254819D01*
X152690476Y-155254819D02*
X152690476Y-154588152D01*
X152690476Y-154778628D02*
X152642857Y-154683390D01*
X152642857Y-154683390D02*
X152595238Y-154635771D01*
X152595238Y-154635771D02*
X152500000Y-154588152D01*
X152500000Y-154588152D02*
X152404762Y-154588152D01*
X151690476Y-155207200D02*
X151785714Y-155254819D01*
X151785714Y-155254819D02*
X151976190Y-155254819D01*
X151976190Y-155254819D02*
X152071428Y-155207200D01*
X152071428Y-155207200D02*
X152119047Y-155111961D01*
X152119047Y-155111961D02*
X152119047Y-154731009D01*
X152119047Y-154731009D02*
X152071428Y-154635771D01*
X152071428Y-154635771D02*
X151976190Y-154588152D01*
X151976190Y-154588152D02*
X151785714Y-154588152D01*
X151785714Y-154588152D02*
X151690476Y-154635771D01*
X151690476Y-154635771D02*
X151642857Y-154731009D01*
X151642857Y-154731009D02*
X151642857Y-154826247D01*
X151642857Y-154826247D02*
X152119047Y-154921485D01*
X151214285Y-155254819D02*
X151214285Y-154588152D01*
X151214285Y-154778628D02*
X151166666Y-154683390D01*
X151166666Y-154683390D02*
X151119047Y-154635771D01*
X151119047Y-154635771D02*
X151023809Y-154588152D01*
X151023809Y-154588152D02*
X150928571Y-154588152D01*
X150452380Y-155254819D02*
X150547618Y-155207200D01*
X150547618Y-155207200D02*
X150595237Y-155159580D01*
X150595237Y-155159580D02*
X150642856Y-155064342D01*
X150642856Y-155064342D02*
X150642856Y-154778628D01*
X150642856Y-154778628D02*
X150595237Y-154683390D01*
X150595237Y-154683390D02*
X150547618Y-154635771D01*
X150547618Y-154635771D02*
X150452380Y-154588152D01*
X150452380Y-154588152D02*
X150309523Y-154588152D01*
X150309523Y-154588152D02*
X150214285Y-154635771D01*
X150214285Y-154635771D02*
X150166666Y-154683390D01*
X150166666Y-154683390D02*
X150119047Y-154778628D01*
X150119047Y-154778628D02*
X150119047Y-155064342D01*
X150119047Y-155064342D02*
X150166666Y-155159580D01*
X150166666Y-155159580D02*
X150214285Y-155207200D01*
X150214285Y-155207200D02*
X150309523Y-155254819D01*
X150309523Y-155254819D02*
X150452380Y-155254819D01*
X149214285Y-155254819D02*
X149690475Y-155254819D01*
X149690475Y-155254819D02*
X149690475Y-154254819D01*
X148452380Y-155254819D02*
X148452380Y-154731009D01*
X148452380Y-154731009D02*
X148499999Y-154635771D01*
X148499999Y-154635771D02*
X148595237Y-154588152D01*
X148595237Y-154588152D02*
X148785713Y-154588152D01*
X148785713Y-154588152D02*
X148880951Y-154635771D01*
X148452380Y-155207200D02*
X148547618Y-155254819D01*
X148547618Y-155254819D02*
X148785713Y-155254819D01*
X148785713Y-155254819D02*
X148880951Y-155207200D01*
X148880951Y-155207200D02*
X148928570Y-155111961D01*
X148928570Y-155111961D02*
X148928570Y-155016723D01*
X148928570Y-155016723D02*
X148880951Y-154921485D01*
X148880951Y-154921485D02*
X148785713Y-154873866D01*
X148785713Y-154873866D02*
X148547618Y-154873866D01*
X148547618Y-154873866D02*
X148452380Y-154826247D01*
X147976189Y-155254819D02*
X147976189Y-154254819D01*
X147976189Y-154635771D02*
X147880951Y-154588152D01*
X147880951Y-154588152D02*
X147690475Y-154588152D01*
X147690475Y-154588152D02*
X147595237Y-154635771D01*
X147595237Y-154635771D02*
X147547618Y-154683390D01*
X147547618Y-154683390D02*
X147499999Y-154778628D01*
X147499999Y-154778628D02*
X147499999Y-155064342D01*
X147499999Y-155064342D02*
X147547618Y-155159580D01*
X147547618Y-155159580D02*
X147595237Y-155207200D01*
X147595237Y-155207200D02*
X147690475Y-155254819D01*
X147690475Y-155254819D02*
X147880951Y-155254819D01*
X147880951Y-155254819D02*
X147976189Y-155207200D01*
X146357141Y-154969104D02*
X145880951Y-154969104D01*
X146452379Y-155254819D02*
X146119046Y-154254819D01*
X146119046Y-154254819D02*
X145785713Y-155254819D01*
X145452379Y-155254819D02*
X145452379Y-154254819D01*
X145452379Y-154254819D02*
X145071427Y-154254819D01*
X145071427Y-154254819D02*
X144976189Y-154302438D01*
X144976189Y-154302438D02*
X144928570Y-154350057D01*
X144928570Y-154350057D02*
X144880951Y-154445295D01*
X144880951Y-154445295D02*
X144880951Y-154588152D01*
X144880951Y-154588152D02*
X144928570Y-154683390D01*
X144928570Y-154683390D02*
X144976189Y-154731009D01*
X144976189Y-154731009D02*
X145071427Y-154778628D01*
X145071427Y-154778628D02*
X145452379Y-154778628D01*
X144452379Y-154873866D02*
X143690475Y-154873866D01*
X142690475Y-155254819D02*
X143261903Y-155254819D01*
X142976189Y-155254819D02*
X142976189Y-154254819D01*
X142976189Y-154254819D02*
X143071427Y-154397676D01*
X143071427Y-154397676D02*
X143166665Y-154492914D01*
X143166665Y-154492914D02*
X143261903Y-154540533D01*
X141499998Y-155254819D02*
X141499998Y-154254819D01*
X141499998Y-154254819D02*
X141119046Y-154254819D01*
X141119046Y-154254819D02*
X141023808Y-154302438D01*
X141023808Y-154302438D02*
X140976189Y-154350057D01*
X140976189Y-154350057D02*
X140928570Y-154445295D01*
X140928570Y-154445295D02*
X140928570Y-154588152D01*
X140928570Y-154588152D02*
X140976189Y-154683390D01*
X140976189Y-154683390D02*
X141023808Y-154731009D01*
X141023808Y-154731009D02*
X141119046Y-154778628D01*
X141119046Y-154778628D02*
X141499998Y-154778628D01*
X140499998Y-155254819D02*
X140499998Y-154254819D01*
X140119046Y-154254819D02*
X139452380Y-155254819D01*
X139452380Y-154254819D02*
X140119046Y-155254819D01*
X137071427Y-154254819D02*
X137547617Y-154254819D01*
X137547617Y-154254819D02*
X137595236Y-154731009D01*
X137595236Y-154731009D02*
X137547617Y-154683390D01*
X137547617Y-154683390D02*
X137452379Y-154635771D01*
X137452379Y-154635771D02*
X137214284Y-154635771D01*
X137214284Y-154635771D02*
X137119046Y-154683390D01*
X137119046Y-154683390D02*
X137071427Y-154731009D01*
X137071427Y-154731009D02*
X137023808Y-154826247D01*
X137023808Y-154826247D02*
X137023808Y-155064342D01*
X137023808Y-155064342D02*
X137071427Y-155159580D01*
X137071427Y-155159580D02*
X137119046Y-155207200D01*
X137119046Y-155207200D02*
X137214284Y-155254819D01*
X137214284Y-155254819D02*
X137452379Y-155254819D01*
X137452379Y-155254819D02*
X137547617Y-155207200D01*
X137547617Y-155207200D02*
X137595236Y-155159580D01*
X136595236Y-154873866D02*
X135833332Y-154873866D01*
X135404760Y-154350057D02*
X135357141Y-154302438D01*
X135357141Y-154302438D02*
X135261903Y-154254819D01*
X135261903Y-154254819D02*
X135023808Y-154254819D01*
X135023808Y-154254819D02*
X134928570Y-154302438D01*
X134928570Y-154302438D02*
X134880951Y-154350057D01*
X134880951Y-154350057D02*
X134833332Y-154445295D01*
X134833332Y-154445295D02*
X134833332Y-154540533D01*
X134833332Y-154540533D02*
X134880951Y-154683390D01*
X134880951Y-154683390D02*
X135452379Y-155254819D01*
X135452379Y-155254819D02*
X134833332Y-155254819D01*
X133976189Y-154588152D02*
X133976189Y-155254819D01*
X134214284Y-154207200D02*
X134452379Y-154921485D01*
X134452379Y-154921485D02*
X133833332Y-154921485D01*
X133595236Y-154254819D02*
X133261903Y-155254819D01*
X133261903Y-155254819D02*
X132928570Y-154254819D01*
%LPC*%
D12*
%TO.C,F1*%
X103500000Y-128000000D03*
X103500000Y-131400000D03*
X113420000Y-128000000D03*
X113420000Y-131400000D03*
%TD*%
D13*
%TO.C,J1*%
X102600000Y-150400000D03*
D14*
X106560000Y-150400000D03*
X110520000Y-150400000D03*
X114480000Y-150400000D03*
%TD*%
D15*
%TO.C,H2*%
X184500000Y-139500000D03*
%TD*%
D13*
%TO.C,J5*%
X166500000Y-150400000D03*
D14*
X170460000Y-150400000D03*
X174420000Y-150400000D03*
%TD*%
D13*
%TO.C,J4*%
X151000000Y-150400000D03*
D14*
X154960000Y-150400000D03*
X158920000Y-150400000D03*
%TD*%
D15*
%TO.C,H1*%
X103500000Y-103500000D03*
%TD*%
D13*
%TO.C,J3*%
X135500000Y-150400000D03*
D14*
X139460000Y-150400000D03*
X143420000Y-150400000D03*
%TD*%
D13*
%TO.C,J2*%
X120000000Y-150400000D03*
D14*
X123960000Y-150400000D03*
X127920000Y-150400000D03*
%TD*%
D16*
%TO.C,J7*%
X147000000Y-106000000D03*
D17*
X144460000Y-106000000D03*
X147000000Y-108540000D03*
X144460000Y-108540000D03*
X147000000Y-111080000D03*
X144460000Y-111080000D03*
X147000000Y-113620000D03*
X144460000Y-113620000D03*
X147000000Y-116160000D03*
X144460000Y-116160000D03*
X147000000Y-118700000D03*
X144460000Y-118700000D03*
X147000000Y-121240000D03*
X144460000Y-121240000D03*
X147000000Y-123780000D03*
X144460000Y-123780000D03*
%TD*%
D15*
%TO.C,H3*%
X184500000Y-152500000D03*
%TD*%
%LPD*%
M02*
