M48
; DRILL file {KiCad 9.0.9} date 2026-10-06T22:27:55+0000
; FORMAT={-:-/ absolute / metric / decimal}
; #@! TF.CreationDate,2026-10-06T22:27:55+00:00
; #@! TF.GenerationSoftware,Kicad,Pcbnew,9.0.9
; #@! TF.FileFunction,Plated,1,2,PTH
FMAT,2
METRIC
; #@! TA.AperFunction,Plated,PTH,ViaDrill
T1C0.300
; #@! TA.AperFunction,Plated,PTH,ComponentDrill
T2C1.000
; #@! TA.AperFunction,Plated,PTH,ComponentDrill
T3C1.700
; #@! TA.AperFunction,Plated,PTH,ComponentDrill
T4C1.780
%
G90
G05
T1
X100.751Y-110.4
X102.0Y-107.0
X102.0Y-112.0
X104.996Y-110.787
X107.0Y-102.0
X107.0Y-117.0
X107.0Y-127.0
X107.0Y-132.0
X107.537Y-109.959
X109.27Y-134.877
X110.567Y-104.0
X112.0Y-117.0
X112.0Y-142.0
X113.351Y-110.75
X113.8Y-105.194
X116.537Y-123.7
X117.0Y-107.0
X117.0Y-117.0
X117.0Y-142.0
X117.582Y-124.885
X117.728Y-122.838
X118.766Y-124.856
X119.1Y-130.182
X119.295Y-121.444
X120.363Y-124.863
X121.693Y-124.938
X122.0Y-102.0
X122.0Y-107.0
X122.0Y-142.0
X122.3Y-127.595
X122.972Y-126.249
X127.0Y-102.0
X127.0Y-107.0
X127.0Y-142.0
X132.0Y-102.0
X132.0Y-107.0
X132.0Y-112.0
X132.0Y-147.0
X132.0Y-152.0
X137.0Y-102.0
X137.0Y-107.0
X137.0Y-112.0
X137.0Y-132.0
X139.595Y-110.252
X140.546Y-142.821
X142.0Y-102.0
X142.0Y-107.0
X142.0Y-112.0
X142.0Y-142.0
X142.0Y-147.0
X147.0Y-102.0
X147.0Y-127.0
X147.0Y-132.0
X147.0Y-142.0
X147.0Y-147.0
X148.41Y-130.958
X148.475Y-124.596
X148.607Y-111.815
X148.646Y-110.545
X150.903Y-120.359
X152.0Y-102.0
X152.0Y-107.0
X152.0Y-132.0
X152.024Y-125.27
X153.155Y-151.735
X153.39Y-117.891
X154.797Y-125.896
X154.818Y-116.856
X154.974Y-140.748
X155.361Y-121.91
X155.973Y-114.807
X156.454Y-122.73
X156.649Y-151.86
X157.0Y-102.0
X157.0Y-147.0
X157.183Y-125.896
X157.349Y-112.601
X158.634Y-114.246
X158.929Y-119.296
X160.766Y-112.779
X161.712Y-123.063
X162.0Y-102.0
X162.0Y-107.0
X162.0Y-132.0
X162.0Y-142.0
X162.0Y-147.0
X163.36Y-124.864
X163.36Y-128.135
X163.531Y-122.0
X163.531Y-123.8
X167.0Y-102.0
X167.0Y-107.0
X167.0Y-112.0
X167.0Y-117.0
X167.0Y-122.0
X167.0Y-127.0
X167.0Y-132.0
X172.0Y-102.0
X172.0Y-107.0
X172.0Y-112.0
X172.0Y-117.0
X172.0Y-122.0
X172.0Y-127.0
X172.0Y-132.0
X172.0Y-142.0
X172.0Y-147.0
X172.149Y-151.86
X177.0Y-132.0
X177.0Y-137.0
X177.0Y-142.0
X177.0Y-147.0
X182.0Y-132.0
X182.0Y-137.0
X182.0Y-142.0
X182.0Y-147.0
T2
X144.46Y-106.0
X144.46Y-108.54
X144.46Y-111.08
X144.46Y-113.62
X144.46Y-116.16
X144.46Y-118.7
X144.46Y-121.24
X144.46Y-123.78
X147.0Y-106.0
X147.0Y-108.54
X147.0Y-111.08
X147.0Y-113.62
X147.0Y-116.16
X147.0Y-118.7
X147.0Y-121.24
X147.0Y-123.78
T3
X102.6Y-150.4
X106.56Y-150.4
X110.52Y-150.4
X114.48Y-150.4
X120.0Y-150.4
X123.96Y-150.4
X127.92Y-150.4
X135.5Y-150.4
X139.46Y-150.4
X143.42Y-150.4
X151.0Y-150.4
X154.96Y-150.4
X158.92Y-150.4
X166.5Y-150.4
X170.46Y-150.4
X174.42Y-150.4
T4
X103.5Y-128.0
X103.5Y-131.4
X113.42Y-128.0
X113.42Y-131.4
M30
