%TF.GenerationSoftware,KiCad,Pcbnew,9.0.9*%
%TF.CreationDate,2026-10-05T05:30:09+00:00*%
%TF.ProjectId,AP1_Pixel,4150315f-5069-4786-956c-2e6b69636164,rev?*%
%TF.SameCoordinates,Original*%
%TF.FileFunction,Copper,L2,Bot*%
%TF.FilePolarity,Positive*%
%FSLAX46Y46*%
G04 Gerber Fmt 4.6, Leading zero omitted, Abs format (unit mm)*
G04 Created by KiCad (PCBNEW 9.0.9) date 2026-10-05 05:30:09*
%MOMM*%
%LPD*%
G01*
G04 APERTURE LIST*
G04 Aperture macros list*
%AMRoundRect*
0 Rectangle with rounded corners*
0 $1 Rounding radius*
0 $2 $3 $4 $5 $6 $7 $8 $9 X,Y pos of 4 corners*
0 Add a 4 corners polygon primitive as box body*
4,1,4,$2,$3,$4,$5,$6,$7,$8,$9,$2,$3,0*
0 Add four circle primitives for the rounded corners*
1,1,$1+$1,$2,$3*
1,1,$1+$1,$4,$5*
1,1,$1+$1,$6,$7*
1,1,$1+$1,$8,$9*
0 Add four rect primitives between the rounded corners*
20,1,$1+$1,$2,$3,$4,$5,0*
20,1,$1+$1,$4,$5,$6,$7,0*
20,1,$1+$1,$6,$7,$8,$9,0*
20,1,$1+$1,$8,$9,$2,$3,0*%
G04 Aperture macros list end*
%TA.AperFunction,ComponentPad*%
%ADD10R,1.700000X1.700000*%
%TD*%
%TA.AperFunction,ComponentPad*%
%ADD11C,1.700000*%
%TD*%
%TA.AperFunction,ComponentPad*%
%ADD12RoundRect,0.250000X-1.050000X-1.050000X1.050000X-1.050000X1.050000X1.050000X-1.050000X1.050000X0*%
%TD*%
%TA.AperFunction,ComponentPad*%
%ADD13C,2.600000*%
%TD*%
%TA.AperFunction,ComponentPad*%
%ADD14C,2.780000*%
%TD*%
%TA.AperFunction,ViaPad*%
%ADD15C,0.600000*%
%TD*%
%TA.AperFunction,Conductor*%
%ADD16C,0.250000*%
%TD*%
%TA.AperFunction,Conductor*%
%ADD17C,0.600000*%
%TD*%
G04 APERTURE END LIST*
D10*
%TO.P,J7,1*%
%TO.N,/VIN*%
X147000000Y-106000000D03*
D11*
%TO.P,J7,2*%
X144460000Y-106000000D03*
%TO.P,J7,3*%
%TO.N,/GND*%
X147000000Y-108540000D03*
%TO.P,J7,4*%
X144460000Y-108540000D03*
%TO.P,J7,5*%
%TO.N,/PWM1*%
X147000000Y-111080000D03*
%TO.P,J7,6*%
%TO.N,/PWM2*%
X144460000Y-111080000D03*
%TO.P,J7,7*%
%TO.N,/PWM3*%
X147000000Y-113620000D03*
%TO.P,J7,8*%
%TO.N,/PWM4*%
X144460000Y-113620000D03*
%TO.P,J7,9*%
%TO.N,unconnected-(J7-Pin_9-Pad9)*%
X147000000Y-116160000D03*
%TO.P,J7,10*%
%TO.N,unconnected-(J7-Pin_10-Pad10)*%
X144460000Y-116160000D03*
%TO.P,J7,11*%
%TO.N,/SDA*%
X147000000Y-118700000D03*
%TO.P,J7,12*%
%TO.N,/SCL*%
X144460000Y-118700000D03*
%TO.P,J7,13*%
%TO.N,/ALERT*%
X147000000Y-121240000D03*
%TO.P,J7,14*%
%TO.N,unconnected-(J7-Pin_14-Pad14)*%
X144460000Y-121240000D03*
%TO.P,J7,15*%
%TO.N,/3V3*%
X147000000Y-123780000D03*
%TO.P,J7,16*%
%TO.N,/GND*%
X144460000Y-123780000D03*
%TD*%
D12*
%TO.P,J5,1*%
%TO.N,/VO4*%
X163950000Y-149800000D03*
D13*
%TO.P,J5,2*%
%TO.N,/DAT4*%
X169030000Y-149800000D03*
%TO.P,J5,3*%
%TO.N,/GND*%
X174110000Y-149800000D03*
%TD*%
D12*
%TO.P,J1,1*%
%TO.N,/VIN_RAW*%
X103600000Y-149800000D03*
D13*
%TO.P,J1,2*%
%TO.N,/GNDIN*%
X108680000Y-149800000D03*
%TD*%
D12*
%TO.P,J2,1*%
%TO.N,/VO1*%
X114900000Y-149800000D03*
D13*
%TO.P,J2,2*%
%TO.N,/DAT1*%
X119980000Y-149800000D03*
%TO.P,J2,3*%
%TO.N,/GND*%
X125060000Y-149800000D03*
%TD*%
D12*
%TO.P,J4,1*%
%TO.N,/VO3*%
X147600000Y-149800000D03*
D13*
%TO.P,J4,2*%
%TO.N,/DAT3*%
X152680000Y-149800000D03*
%TO.P,J4,3*%
%TO.N,/GND*%
X157760000Y-149800000D03*
%TD*%
D12*
%TO.P,J3,1*%
%TO.N,/VO2*%
X131250000Y-149800000D03*
D13*
%TO.P,J3,2*%
%TO.N,/DAT2*%
X136330000Y-149800000D03*
%TO.P,J3,3*%
%TO.N,/GND*%
X141410000Y-149800000D03*
%TD*%
D14*
%TO.P,F1,1*%
%TO.N,/VIN_RAW*%
X103500000Y-128000000D03*
X103500000Y-131400000D03*
%TO.P,F1,2*%
%TO.N,/VF*%
X113420000Y-128000000D03*
X113420000Y-131400000D03*
%TD*%
D15*
%TO.N,/ISN*%
X118443000Y-123224000D03*
X122300000Y-127595000D03*
%TO.N,/ISP*%
X119292000Y-129730000D03*
X117210000Y-122226000D03*
%TO.N,/GND*%
X107000000Y-127000000D03*
X167000000Y-102000000D03*
X157000000Y-147000000D03*
X182000000Y-132000000D03*
X132000000Y-112000000D03*
X152000000Y-102000000D03*
X172000000Y-112000000D03*
X112000000Y-117000000D03*
X132000000Y-107000000D03*
X177000000Y-147000000D03*
X182000000Y-137000000D03*
X139573000Y-110252000D03*
X167000000Y-112000000D03*
X116350900Y-111000013D03*
X122000000Y-122000000D03*
X147000000Y-102000000D03*
X102000000Y-112000000D03*
X172000000Y-107000000D03*
X138428000Y-142789000D03*
X167000000Y-107000000D03*
X137000000Y-107000000D03*
X109270375Y-134876677D03*
X155266000Y-133606000D03*
X162000000Y-107000000D03*
X147000000Y-127000000D03*
X172000000Y-117000000D03*
X132000000Y-102000000D03*
X154974000Y-140748000D03*
X182000000Y-142000000D03*
X142000000Y-142000000D03*
X112000000Y-147000000D03*
X148410000Y-130958000D03*
X172000000Y-102000000D03*
X117000000Y-107000000D03*
X142000000Y-107000000D03*
X137000000Y-102000000D03*
X162000000Y-142000000D03*
X112000000Y-142000000D03*
X149016210Y-108454500D03*
X162000000Y-132000000D03*
X113694000Y-110856000D03*
X172000000Y-132000000D03*
X122000000Y-142000000D03*
X107536950Y-109959449D03*
X122000000Y-102000000D03*
X172000000Y-127000000D03*
X152026145Y-113085001D03*
X177000000Y-132000000D03*
X149486145Y-110545001D03*
X167000000Y-132000000D03*
X137000000Y-112000000D03*
X162000000Y-117000000D03*
X107000000Y-132000000D03*
X117000000Y-117000000D03*
X136755500Y-131300500D03*
X107000000Y-102000000D03*
X172000000Y-147000000D03*
X122000000Y-107000000D03*
X142000000Y-147000000D03*
X177000000Y-142000000D03*
X172000000Y-122000000D03*
X167000000Y-122000000D03*
X104162000Y-109363000D03*
X157000000Y-102000000D03*
X155578143Y-117960536D03*
X149755500Y-150374038D03*
X162000000Y-102000000D03*
X127000000Y-117000000D03*
X122000000Y-117000000D03*
X177000000Y-137000000D03*
X113068000Y-122200000D03*
X167000000Y-142000000D03*
X142000000Y-112000000D03*
X172000000Y-142000000D03*
X127000000Y-107000000D03*
X150756145Y-111815001D03*
X102000000Y-107000000D03*
X165943850Y-151874038D03*
X122000000Y-132000000D03*
X153844389Y-114866943D03*
X142000000Y-102000000D03*
X182000000Y-147000000D03*
X167000000Y-117000000D03*
X148818177Y-123640001D03*
X107508000Y-135813000D03*
X127000000Y-147000000D03*
X152000000Y-132000000D03*
X127000000Y-102000000D03*
X117000000Y-142000000D03*
X167000000Y-127000000D03*
X107000000Y-117000000D03*
%TO.N,/ALERT*%
X141451000Y-122457000D03*
X114061000Y-123176000D03*
%TO.N,/SDA*%
X158430000Y-114246000D03*
X122716000Y-124823000D03*
X154578000Y-116634000D03*
%TO.N,/SCL*%
X115984000Y-124884000D03*
X160999000Y-112060000D03*
%TO.N,/3V3*%
X121283000Y-124200000D03*
X141430000Y-126030000D03*
%TO.N,/V5*%
X158973000Y-117748000D03*
X107322000Y-105054000D03*
X103257000Y-112404000D03*
%TO.N,/PWM1*%
X155288000Y-120689000D03*
%TO.N,/PWM2*%
X155622000Y-124652000D03*
%TO.N,/DB2*%
X161712000Y-123063000D03*
X155061000Y-125896000D03*
%TO.N,/PWM3*%
X157183000Y-125896000D03*
%TO.N,/PWM4*%
X149134000Y-116116000D03*
X156398000Y-122646000D03*
%TO.N,/DAT1*%
X163531000Y-122000000D03*
%TO.N,/DAT2*%
X163538000Y-123800000D03*
%TO.N,/DAT3*%
X163362000Y-124863000D03*
%TO.N,/DAT4*%
X163360000Y-128135000D03*
%TD*%
D16*
%TO.N,/ISN*%
X118443000Y-123738000D02*
X118443000Y-123224000D01*
X122300000Y-127595000D02*
X118443000Y-123738000D01*
%TO.N,/ISP*%
X117210000Y-127648000D02*
X117210000Y-122226000D01*
X119292000Y-129730000D02*
X117210000Y-127648000D01*
%TO.N,/GND*%
X104162000Y-109363000D02*
X108615000Y-113816000D01*
X144460000Y-108540000D02*
X147000000Y-108540000D01*
X110733000Y-113816000D02*
X110733000Y-119865000D01*
X144460000Y-123780000D02*
X148410000Y-127730000D01*
X108615000Y-113816000D02*
X110733000Y-113816000D01*
X110733000Y-113816000D02*
X113694000Y-110856000D01*
X157760000Y-143535000D02*
X154974000Y-140748000D01*
X141410000Y-149800000D02*
X138428000Y-146818000D01*
X107508000Y-127760000D02*
X113068000Y-122200000D01*
X142748000Y-110252000D02*
X139573000Y-110252000D01*
X148410000Y-127730000D02*
X148410000Y-130958000D01*
X110733000Y-119865000D02*
X113068000Y-122200000D01*
X144460000Y-108540000D02*
X142748000Y-110252000D01*
X157760000Y-149800000D02*
X157760000Y-143535000D01*
X107508000Y-135813000D02*
X107508000Y-127760000D01*
X154974000Y-133899000D02*
X154974000Y-140748000D01*
X155266000Y-133606000D02*
X154974000Y-133899000D01*
X138428000Y-146818000D02*
X138428000Y-142789000D01*
%TO.N,/ALERT*%
X114061000Y-123176000D02*
X115654000Y-121583000D01*
X121852000Y-124742000D02*
X121852000Y-124845000D01*
X121922000Y-123881000D02*
X121922000Y-124671000D01*
X123037000Y-126030000D02*
X137878000Y-126030000D01*
X121852000Y-124845000D02*
X123037000Y-126030000D01*
X121922000Y-124671000D02*
X121852000Y-124742000D01*
X137878000Y-126030000D02*
X141451000Y-122457000D01*
X115654000Y-121583000D02*
X119624000Y-121583000D01*
X119624000Y-121583000D02*
X121922000Y-123881000D01*
%TO.N,/SDA*%
X158430000Y-114246000D02*
X156966000Y-114246000D01*
X145809000Y-117509000D02*
X130030000Y-117509000D01*
X130030000Y-117509000D02*
X122716000Y-124823000D01*
X147000000Y-118700000D02*
X145809000Y-117509000D01*
X156966000Y-114246000D02*
X154578000Y-116634000D01*
%TO.N,/SCL*%
X115984000Y-124884000D02*
X115984000Y-127382000D01*
X143266000Y-122596000D02*
X152680000Y-122596000D01*
X143266000Y-125084000D02*
X143266000Y-122596000D01*
X143266000Y-119894000D02*
X143266000Y-122596000D01*
X115984000Y-127382000D02*
X118959000Y-130357000D01*
X156616000Y-126532000D02*
X157475000Y-126532000D01*
X118959000Y-130357000D02*
X137993000Y-130357000D01*
X137993000Y-130357000D02*
X143266000Y-125084000D01*
X152680000Y-122596000D02*
X156616000Y-126532000D01*
X144460000Y-118700000D02*
X143266000Y-119894000D01*
X160999000Y-123008000D02*
X160999000Y-112060000D01*
X157475000Y-126532000D02*
X160999000Y-123008000D01*
%TO.N,/3V3*%
X121283000Y-124915000D02*
X121283000Y-124200000D01*
X122850000Y-126482000D02*
X121283000Y-124915000D01*
X140979000Y-126482000D02*
X122850000Y-126482000D01*
X141430000Y-126030000D02*
X140979000Y-126482000D01*
D17*
%TO.N,/V5*%
X159239000Y-113913000D02*
X149872000Y-104546000D01*
X107830000Y-104546000D02*
X107322000Y-105054000D01*
X103257000Y-112404000D02*
X103257000Y-109119000D01*
X159239000Y-117482000D02*
X159239000Y-113913000D01*
X103257000Y-109119000D02*
X107322000Y-105054000D01*
X158973000Y-117748000D02*
X159239000Y-117482000D01*
X149872000Y-104546000D02*
X107830000Y-104546000D01*
D16*
%TO.N,/PWM1*%
X155288000Y-119368000D02*
X147000000Y-111080000D01*
X155288000Y-120689000D02*
X155288000Y-119368000D01*
%TO.N,/PWM2*%
X148508000Y-117537000D02*
X155622000Y-124652000D01*
X145823000Y-112443000D02*
X145823000Y-114125000D01*
X147461000Y-114890000D02*
X148508000Y-115937000D01*
X144460000Y-111080000D02*
X145823000Y-112443000D01*
X145823000Y-114125000D02*
X146588000Y-114890000D01*
X148508000Y-115937000D02*
X148508000Y-117537000D01*
X146588000Y-114890000D02*
X147461000Y-114890000D01*
%TO.N,/DB2*%
X157792000Y-126983000D02*
X161712000Y-123063000D01*
X156149000Y-126983000D02*
X157792000Y-126983000D01*
X155061000Y-125896000D02*
X156149000Y-126983000D01*
%TO.N,/PWM3*%
X157183000Y-122472000D02*
X156583000Y-121873000D01*
X147562000Y-113620000D02*
X147000000Y-113620000D01*
X154475000Y-120763000D02*
X154475000Y-120533000D01*
X157183000Y-125896000D02*
X157183000Y-122472000D01*
X154475000Y-120533000D02*
X147562000Y-113620000D01*
X155584000Y-121873000D02*
X154475000Y-120763000D01*
X156583000Y-121873000D02*
X155584000Y-121873000D01*
%TO.N,/PWM4*%
X149134000Y-116116000D02*
X155665000Y-122646000D01*
X155665000Y-122646000D02*
X156398000Y-122646000D01*
%TO.N,/DAT1*%
X119980000Y-149800000D02*
X137513000Y-132267000D01*
X163531000Y-122182000D02*
X163531000Y-122000000D01*
X137513000Y-132267000D02*
X148018000Y-132267000D01*
X158278000Y-127435000D02*
X163531000Y-122182000D01*
X152473000Y-127747000D02*
X152785000Y-127435000D01*
X152473000Y-127812000D02*
X152473000Y-127747000D01*
X152785000Y-127435000D02*
X158278000Y-127435000D01*
X148018000Y-132267000D02*
X152473000Y-127812000D01*
%TO.N,/DAT2*%
X159394000Y-127944000D02*
X163538000Y-123800000D01*
X136330000Y-149800000D02*
X136330000Y-143955000D01*
X152980000Y-127944000D02*
X159394000Y-127944000D01*
X136330000Y-143955000D02*
X147554000Y-132731000D01*
X148193000Y-132731000D02*
X152980000Y-127944000D01*
X147554000Y-132731000D02*
X148193000Y-132731000D01*
%TO.N,/DAT3*%
X163123000Y-124863000D02*
X152680000Y-135306000D01*
X152680000Y-135306000D02*
X152680000Y-149800000D01*
X163362000Y-124863000D02*
X163123000Y-124863000D01*
%TO.N,/DAT4*%
X169030000Y-149800000D02*
X163360000Y-144130000D01*
X163360000Y-144130000D02*
X163360000Y-128135000D01*
%TD*%
%TA.AperFunction,Conductor*%
%TO.N,/GND*%
G36*
X146534075Y-108732993D02*
G01*
X146599901Y-108847007D01*
X146692993Y-108940099D01*
X146807007Y-109005925D01*
X146870590Y-109022962D01*
X146238282Y-109655269D01*
X146238282Y-109655270D01*
X146292449Y-109694624D01*
X146481780Y-109791094D01*
X146510705Y-109800492D01*
X146568381Y-109839929D01*
X146595580Y-109904287D01*
X146583667Y-109973134D01*
X146536424Y-110024610D01*
X146528685Y-110028908D01*
X146397004Y-110096004D01*
X146250505Y-110202441D01*
X146250500Y-110202445D01*
X146122445Y-110330500D01*
X146122441Y-110330505D01*
X146016006Y-110477002D01*
X145933788Y-110638360D01*
X145933787Y-110638363D01*
X145877829Y-110810589D01*
X145852473Y-110970678D01*
X145822544Y-111033813D01*
X145763232Y-111070744D01*
X145693369Y-111069746D01*
X145635137Y-111031136D01*
X145607527Y-110970678D01*
X145593740Y-110883639D01*
X145582171Y-110810591D01*
X145526211Y-110638361D01*
X145526211Y-110638360D01*
X145497740Y-110582484D01*
X145443996Y-110477006D01*
X145430396Y-110458287D01*
X145337558Y-110330505D01*
X145337554Y-110330500D01*
X145209499Y-110202445D01*
X145209494Y-110202441D01*
X145062995Y-110096004D01*
X144931314Y-110028908D01*
X144880519Y-109980934D01*
X144863724Y-109913113D01*
X144886262Y-109846978D01*
X144940977Y-109803527D01*
X144949295Y-109800492D01*
X144978217Y-109791095D01*
X145167554Y-109694622D01*
X145221716Y-109655270D01*
X145221717Y-109655270D01*
X144589408Y-109022962D01*
X144652993Y-109005925D01*
X144767007Y-108940099D01*
X144860099Y-108847007D01*
X144925925Y-108732993D01*
X144942962Y-108669409D01*
X145575270Y-109301717D01*
X145575270Y-109301716D01*
X145614622Y-109247554D01*
X145619514Y-109237954D01*
X145667488Y-109187157D01*
X145735308Y-109170361D01*
X145801444Y-109192897D01*
X145840486Y-109237954D01*
X145845375Y-109247550D01*
X145884728Y-109301716D01*
X146517037Y-108669408D01*
X146534075Y-108732993D01*
G37*
%TD.AperFunction*%
%TA.AperFunction,Conductor*%
G36*
X145762130Y-106038661D02*
G01*
X145820363Y-106077271D01*
X145848477Y-106141234D01*
X145849500Y-106157127D01*
X145849500Y-106894856D01*
X145849502Y-106894882D01*
X145852413Y-106919987D01*
X145852415Y-106919991D01*
X145897793Y-107022764D01*
X145897794Y-107022765D01*
X145977235Y-107102206D01*
X146080009Y-107147585D01*
X146105135Y-107150500D01*
X146236923Y-107150499D01*
X146303960Y-107170183D01*
X146349715Y-107222987D01*
X146359659Y-107292145D01*
X146330635Y-107355701D01*
X146296387Y-107382507D01*
X146296590Y-107382838D01*
X146293715Y-107384599D01*
X146293239Y-107384972D01*
X146292451Y-107385373D01*
X146292440Y-107385380D01*
X146238282Y-107424727D01*
X146238282Y-107424728D01*
X146870591Y-108057037D01*
X146807007Y-108074075D01*
X146692993Y-108139901D01*
X146599901Y-108232993D01*
X146534075Y-108347007D01*
X146517037Y-108410591D01*
X145884728Y-107778282D01*
X145884727Y-107778282D01*
X145845380Y-107832440D01*
X145840483Y-107842051D01*
X145792506Y-107892845D01*
X145724684Y-107909638D01*
X145658550Y-107887098D01*
X145619516Y-107842048D01*
X145614626Y-107832452D01*
X145575270Y-107778282D01*
X145575269Y-107778282D01*
X144942962Y-108410590D01*
X144925925Y-108347007D01*
X144860099Y-108232993D01*
X144767007Y-108139901D01*
X144652993Y-108074075D01*
X144589409Y-108057037D01*
X145221716Y-107424728D01*
X145167550Y-107385375D01*
X144978217Y-107288904D01*
X144949292Y-107279506D01*
X144891616Y-107240068D01*
X144864418Y-107175710D01*
X144876333Y-107106863D01*
X144923577Y-107055388D01*
X144931315Y-107051090D01*
X145062994Y-106983996D01*
X145209501Y-106877553D01*
X145337553Y-106749501D01*
X145443996Y-106602994D01*
X145526211Y-106441639D01*
X145582171Y-106269409D01*
X145603027Y-106137729D01*
X145632956Y-106074595D01*
X145692267Y-106037663D01*
X145762130Y-106038661D01*
G37*
%TD.AperFunction*%
%TA.AperFunction,Conductor*%
G36*
X172443039Y-100320185D02*
G01*
X172488794Y-100372989D01*
X172500000Y-100424500D01*
X172500000Y-130500000D01*
X187575500Y-130500000D01*
X187642539Y-130519685D01*
X187688294Y-130572489D01*
X187699500Y-130624000D01*
X187699500Y-153995572D01*
X187699184Y-154004418D01*
X187699184Y-154004419D01*
X187682833Y-154233019D01*
X187680315Y-154250530D01*
X187632544Y-154470133D01*
X187627560Y-154487109D01*
X187549016Y-154697691D01*
X187541666Y-154713783D01*
X187433961Y-154911032D01*
X187424396Y-154925917D01*
X187289708Y-155105838D01*
X187278123Y-155119207D01*
X187119208Y-155278122D01*
X187105838Y-155289708D01*
X186925917Y-155424396D01*
X186911032Y-155433961D01*
X186713783Y-155541666D01*
X186697691Y-155549016D01*
X186487109Y-155627560D01*
X186470136Y-155632543D01*
X186470133Y-155632544D01*
X186250530Y-155680315D01*
X186233019Y-155682833D01*
X186025320Y-155697688D01*
X186004417Y-155699184D01*
X185995572Y-155699500D01*
X102004428Y-155699500D01*
X101995582Y-155699184D01*
X101766982Y-155682834D01*
X101749470Y-155680316D01*
X101529862Y-155632543D01*
X101512887Y-155627559D01*
X101302311Y-155549019D01*
X101286217Y-155541669D01*
X101088963Y-155433959D01*
X101074080Y-155424394D01*
X100894163Y-155289710D01*
X100880792Y-155278124D01*
X100721875Y-155119207D01*
X100710289Y-155105836D01*
X100575605Y-154925919D01*
X100566040Y-154911036D01*
X100458330Y-154713782D01*
X100450983Y-154697694D01*
X100372437Y-154487103D01*
X100367458Y-154470144D01*
X100319683Y-154250529D01*
X100317165Y-154233017D01*
X100308959Y-154118284D01*
X100300816Y-154004418D01*
X100300500Y-153995572D01*
X100300500Y-152381995D01*
X182699500Y-152381995D01*
X182699500Y-152618004D01*
X182699501Y-152618020D01*
X182730306Y-152852010D01*
X182791394Y-153079993D01*
X182881714Y-153298045D01*
X182881719Y-153298056D01*
X182952677Y-153420957D01*
X182999727Y-153502450D01*
X182999729Y-153502453D01*
X182999730Y-153502454D01*
X183143406Y-153689697D01*
X183143412Y-153689704D01*
X183310295Y-153856587D01*
X183310301Y-153856592D01*
X183497550Y-154000273D01*
X183628918Y-154076118D01*
X183701943Y-154118280D01*
X183701948Y-154118282D01*
X183701951Y-154118284D01*
X183920007Y-154208606D01*
X184147986Y-154269693D01*
X184381989Y-154300500D01*
X184381996Y-154300500D01*
X184618004Y-154300500D01*
X184618011Y-154300500D01*
X184852014Y-154269693D01*
X185079993Y-154208606D01*
X185298049Y-154118284D01*
X185502450Y-154000273D01*
X185689699Y-153856592D01*
X185856592Y-153689699D01*
X186000273Y-153502450D01*
X186118284Y-153298049D01*
X186208606Y-153079993D01*
X186269693Y-152852014D01*
X186300500Y-152618011D01*
X186300500Y-152381989D01*
X186269693Y-152147986D01*
X186208606Y-151920007D01*
X186118284Y-151701951D01*
X186118282Y-151701948D01*
X186118280Y-151701943D01*
X186076118Y-151628918D01*
X186000273Y-151497550D01*
X185856592Y-151310301D01*
X185856587Y-151310295D01*
X185689704Y-151143412D01*
X185689697Y-151143406D01*
X185502454Y-150999730D01*
X185502453Y-150999729D01*
X185502450Y-150999727D01*
X185420957Y-150952677D01*
X185298056Y-150881719D01*
X185298045Y-150881714D01*
X185079993Y-150791394D01*
X184852010Y-150730306D01*
X184618020Y-150699501D01*
X184618017Y-150699500D01*
X184618011Y-150699500D01*
X184381989Y-150699500D01*
X184381983Y-150699500D01*
X184381979Y-150699501D01*
X184147989Y-150730306D01*
X183920006Y-150791394D01*
X183701954Y-150881714D01*
X183701943Y-150881719D01*
X183497545Y-150999730D01*
X183310302Y-151143406D01*
X183310295Y-151143412D01*
X183143412Y-151310295D01*
X183143406Y-151310302D01*
X182999730Y-151497545D01*
X182881719Y-151701943D01*
X182881714Y-151701954D01*
X182791394Y-151920006D01*
X182730306Y-152147989D01*
X182699501Y-152381979D01*
X182699500Y-152381995D01*
X100300500Y-152381995D01*
X100300500Y-148706898D01*
X101999500Y-148706898D01*
X101999500Y-150893102D01*
X102005126Y-150939954D01*
X102010122Y-150981561D01*
X102065639Y-151122343D01*
X102157077Y-151242922D01*
X102277656Y-151334360D01*
X102277657Y-151334360D01*
X102277658Y-151334361D01*
X102418436Y-151389877D01*
X102506898Y-151400500D01*
X102506903Y-151400500D01*
X104693097Y-151400500D01*
X104693102Y-151400500D01*
X104781564Y-151389877D01*
X104922342Y-151334361D01*
X105042922Y-151242922D01*
X105134361Y-151122342D01*
X105189877Y-150981564D01*
X105200500Y-150893102D01*
X105200500Y-149674038D01*
X107079500Y-149674038D01*
X107079500Y-149925961D01*
X107118910Y-150174785D01*
X107196760Y-150414383D01*
X107311132Y-150638848D01*
X107459201Y-150842649D01*
X107459205Y-150842654D01*
X107637345Y-151020794D01*
X107637350Y-151020798D01*
X107777116Y-151122343D01*
X107841155Y-151168870D01*
X107984184Y-151241747D01*
X108065616Y-151283239D01*
X108065618Y-151283239D01*
X108065621Y-151283241D01*
X108305215Y-151361090D01*
X108554038Y-151400500D01*
X108554039Y-151400500D01*
X108805961Y-151400500D01*
X108805962Y-151400500D01*
X109054785Y-151361090D01*
X109294379Y-151283241D01*
X109518845Y-151168870D01*
X109722656Y-151020793D01*
X109900793Y-150842656D01*
X110048870Y-150638845D01*
X110163241Y-150414379D01*
X110241090Y-150174785D01*
X110280500Y-149925962D01*
X110280500Y-149674038D01*
X110241090Y-149425215D01*
X110163241Y-149185621D01*
X110163239Y-149185618D01*
X110163239Y-149185616D01*
X110113979Y-149088939D01*
X110048870Y-148961155D01*
X110033206Y-148939595D01*
X109914404Y-148776077D01*
X109914403Y-148776076D01*
X109900796Y-148757347D01*
X109850347Y-148706898D01*
X113299500Y-148706898D01*
X113299500Y-150893102D01*
X113305126Y-150939954D01*
X113310122Y-150981561D01*
X113365639Y-151122343D01*
X113457077Y-151242922D01*
X113577656Y-151334360D01*
X113577657Y-151334360D01*
X113577658Y-151334361D01*
X113718436Y-151389877D01*
X113806898Y-151400500D01*
X113806903Y-151400500D01*
X115993097Y-151400500D01*
X115993102Y-151400500D01*
X116081564Y-151389877D01*
X116222342Y-151334361D01*
X116342922Y-151242922D01*
X116434361Y-151122342D01*
X116489877Y-150981564D01*
X116500500Y-150893102D01*
X116500500Y-148706898D01*
X116489877Y-148618436D01*
X116434361Y-148477658D01*
X116434360Y-148477657D01*
X116434360Y-148477656D01*
X116342922Y-148357077D01*
X116222343Y-148265639D01*
X116081561Y-148210122D01*
X116035926Y-148204642D01*
X115993102Y-148199500D01*
X113806898Y-148199500D01*
X113767853Y-148204188D01*
X113718438Y-148210122D01*
X113577656Y-148265639D01*
X113457077Y-148357077D01*
X113365639Y-148477656D01*
X113310122Y-148618438D01*
X113304188Y-148667853D01*
X113299500Y-148706898D01*
X109850347Y-148706898D01*
X109722654Y-148579205D01*
X109722649Y-148579201D01*
X109518848Y-148431132D01*
X109518847Y-148431131D01*
X109518845Y-148431130D01*
X109448747Y-148395413D01*
X109294383Y-148316760D01*
X109054785Y-148238910D01*
X108873032Y-148210123D01*
X108805962Y-148199500D01*
X108554038Y-148199500D01*
X108486974Y-148210122D01*
X108305214Y-148238910D01*
X108065616Y-148316760D01*
X107841151Y-148431132D01*
X107637350Y-148579201D01*
X107637345Y-148579205D01*
X107459205Y-148757345D01*
X107459201Y-148757350D01*
X107311132Y-148961151D01*
X107196760Y-149185616D01*
X107118910Y-149425214D01*
X107079500Y-149674038D01*
X105200500Y-149674038D01*
X105200500Y-148706898D01*
X105189877Y-148618436D01*
X105134361Y-148477658D01*
X105134360Y-148477657D01*
X105134360Y-148477656D01*
X105042922Y-148357077D01*
X104922343Y-148265639D01*
X104781561Y-148210122D01*
X104735926Y-148204642D01*
X104693102Y-148199500D01*
X102506898Y-148199500D01*
X102467853Y-148204188D01*
X102418438Y-148210122D01*
X102277656Y-148265639D01*
X102157077Y-148357077D01*
X102065639Y-148477656D01*
X102010122Y-148618438D01*
X102004188Y-148667853D01*
X101999500Y-148706898D01*
X100300500Y-148706898D01*
X100300500Y-127889205D01*
X101809500Y-127889205D01*
X101809500Y-128110794D01*
X101809501Y-128110810D01*
X101838424Y-128330504D01*
X101895780Y-128544559D01*
X101980581Y-128749286D01*
X101980585Y-128749296D01*
X102091384Y-128941206D01*
X102226286Y-129117014D01*
X102226292Y-129117021D01*
X102382978Y-129273707D01*
X102382985Y-129273713D01*
X102558793Y-129408615D01*
X102750703Y-129519414D01*
X102750704Y-129519414D01*
X102750707Y-129519416D01*
X102910100Y-129585439D01*
X102964503Y-129629280D01*
X102986568Y-129695574D01*
X102969289Y-129763273D01*
X102918152Y-129810884D01*
X102910100Y-129814561D01*
X102750713Y-129880581D01*
X102750703Y-129880585D01*
X102558793Y-129991384D01*
X102382985Y-130126286D01*
X102382978Y-130126292D01*
X102226292Y-130282978D01*
X102226286Y-130282985D01*
X102091384Y-130458793D01*
X101980585Y-130650703D01*
X101980581Y-130650713D01*
X101895780Y-130855440D01*
X101838424Y-131069495D01*
X101809501Y-131289189D01*
X101809500Y-131289205D01*
X101809500Y-131510794D01*
X101809501Y-131510810D01*
X101838424Y-131730504D01*
X101895780Y-131944559D01*
X101980581Y-132149286D01*
X101980585Y-132149296D01*
X102091384Y-132341206D01*
X102226286Y-132517014D01*
X102226292Y-132517021D01*
X102382978Y-132673707D01*
X102382985Y-132673713D01*
X102558793Y-132808615D01*
X102750703Y-132919414D01*
X102750704Y-132919414D01*
X102750707Y-132919416D01*
X102955441Y-133004220D01*
X103169492Y-133061575D01*
X103389199Y-133090500D01*
X103389206Y-133090500D01*
X103610794Y-133090500D01*
X103610801Y-133090500D01*
X103830508Y-133061575D01*
X104044559Y-133004220D01*
X104249293Y-132919416D01*
X104441207Y-132808615D01*
X104617016Y-132673712D01*
X104773712Y-132517016D01*
X104908615Y-132341207D01*
X105019416Y-132149293D01*
X105104220Y-131944559D01*
X105161575Y-131730508D01*
X105190500Y-131510801D01*
X105190500Y-131289199D01*
X105161575Y-131069492D01*
X105104220Y-130855441D01*
X105019416Y-130650707D01*
X104908615Y-130458793D01*
X104773712Y-130282984D01*
X104773707Y-130282978D01*
X104617021Y-130126292D01*
X104617014Y-130126286D01*
X104441206Y-129991384D01*
X104249296Y-129880585D01*
X104249281Y-129880578D01*
X104089900Y-129814561D01*
X104035496Y-129770720D01*
X104013431Y-129704426D01*
X104030710Y-129636727D01*
X104081847Y-129589116D01*
X104089900Y-129585439D01*
X104249281Y-129519421D01*
X104249281Y-129519420D01*
X104249293Y-129519416D01*
X104441207Y-129408615D01*
X104617016Y-129273712D01*
X104773712Y-129117016D01*
X104908615Y-128941207D01*
X105019416Y-128749293D01*
X105104220Y-128544559D01*
X105161575Y-128330508D01*
X105190500Y-128110801D01*
X105190500Y-127889205D01*
X111729500Y-127889205D01*
X111729500Y-128110794D01*
X111729501Y-128110810D01*
X111758424Y-128330504D01*
X111815780Y-128544559D01*
X111900581Y-128749286D01*
X111900585Y-128749296D01*
X112011384Y-128941206D01*
X112146286Y-129117014D01*
X112146292Y-129117021D01*
X112302978Y-129273707D01*
X112302985Y-129273713D01*
X112478793Y-129408615D01*
X112670703Y-129519414D01*
X112670704Y-129519414D01*
X112670707Y-129519416D01*
X112830100Y-129585439D01*
X112884503Y-129629280D01*
X112906568Y-129695574D01*
X112889289Y-129763273D01*
X112838152Y-129810884D01*
X112830100Y-129814561D01*
X112670713Y-129880581D01*
X112670703Y-129880585D01*
X112478793Y-129991384D01*
X112302985Y-130126286D01*
X112302978Y-130126292D01*
X112146292Y-130282978D01*
X112146286Y-130282985D01*
X112011384Y-130458793D01*
X111900585Y-130650703D01*
X111900581Y-130650713D01*
X111815780Y-130855440D01*
X111758424Y-131069495D01*
X111729501Y-131289189D01*
X111729500Y-131289205D01*
X111729500Y-131510794D01*
X111729501Y-131510810D01*
X111758424Y-131730504D01*
X111815780Y-131944559D01*
X111900581Y-132149286D01*
X111900585Y-132149296D01*
X112011384Y-132341206D01*
X112146286Y-132517014D01*
X112146292Y-132517021D01*
X112302978Y-132673707D01*
X112302985Y-132673713D01*
X112478793Y-132808615D01*
X112670703Y-132919414D01*
X112670704Y-132919414D01*
X112670707Y-132919416D01*
X112875441Y-133004220D01*
X113089492Y-133061575D01*
X113309199Y-133090500D01*
X113309206Y-133090500D01*
X113530794Y-133090500D01*
X113530801Y-133090500D01*
X113750508Y-133061575D01*
X113964559Y-133004220D01*
X114169293Y-132919416D01*
X114361207Y-132808615D01*
X114537016Y-132673712D01*
X114693712Y-132517016D01*
X114828615Y-132341207D01*
X114939416Y-132149293D01*
X115024220Y-131944559D01*
X115081575Y-131730508D01*
X115110500Y-131510801D01*
X115110500Y-131289199D01*
X115081575Y-131069492D01*
X115024220Y-130855441D01*
X114939416Y-130650707D01*
X114828615Y-130458793D01*
X114693712Y-130282984D01*
X114693707Y-130282978D01*
X114537021Y-130126292D01*
X114537014Y-130126286D01*
X114361206Y-129991384D01*
X114169296Y-129880585D01*
X114169281Y-129880578D01*
X114009900Y-129814561D01*
X113955496Y-129770720D01*
X113933431Y-129704426D01*
X113950710Y-129636727D01*
X114001847Y-129589116D01*
X114009900Y-129585439D01*
X114169281Y-129519421D01*
X114169281Y-129519420D01*
X114169293Y-129519416D01*
X114361207Y-129408615D01*
X114537016Y-129273712D01*
X114693712Y-129117016D01*
X114828615Y-128941207D01*
X114939416Y-128749293D01*
X115024220Y-128544559D01*
X115081575Y-128330508D01*
X115110500Y-128110801D01*
X115110500Y-127889199D01*
X115081575Y-127669492D01*
X115024220Y-127455441D01*
X114939416Y-127250707D01*
X114925315Y-127226284D01*
X114828615Y-127058793D01*
X114693713Y-126882985D01*
X114693707Y-126882978D01*
X114537021Y-126726292D01*
X114537014Y-126726286D01*
X114361206Y-126591384D01*
X114169296Y-126480585D01*
X114169286Y-126480581D01*
X113964559Y-126395780D01*
X113750504Y-126338424D01*
X113530810Y-126309501D01*
X113530807Y-126309500D01*
X113530801Y-126309500D01*
X113309199Y-126309500D01*
X113309193Y-126309500D01*
X113309189Y-126309501D01*
X113089495Y-126338424D01*
X112875440Y-126395780D01*
X112670713Y-126480581D01*
X112670703Y-126480585D01*
X112478793Y-126591384D01*
X112302985Y-126726286D01*
X112302978Y-126726292D01*
X112146292Y-126882978D01*
X112146286Y-126882985D01*
X112011384Y-127058793D01*
X111900585Y-127250703D01*
X111900581Y-127250713D01*
X111815780Y-127455440D01*
X111758424Y-127669495D01*
X111729501Y-127889189D01*
X111729500Y-127889205D01*
X105190500Y-127889205D01*
X105190500Y-127889199D01*
X105161575Y-127669492D01*
X105104220Y-127455441D01*
X105019416Y-127250707D01*
X105005315Y-127226284D01*
X104908615Y-127058793D01*
X104773713Y-126882985D01*
X104773707Y-126882978D01*
X104617021Y-126726292D01*
X104617014Y-126726286D01*
X104441206Y-126591384D01*
X104249296Y-126480585D01*
X104249286Y-126480581D01*
X104044559Y-126395780D01*
X103830504Y-126338424D01*
X103610810Y-126309501D01*
X103610807Y-126309500D01*
X103610801Y-126309500D01*
X103389199Y-126309500D01*
X103389193Y-126309500D01*
X103389189Y-126309501D01*
X103169495Y-126338424D01*
X102955440Y-126395780D01*
X102750713Y-126480581D01*
X102750703Y-126480585D01*
X102558793Y-126591384D01*
X102382985Y-126726286D01*
X102382978Y-126726292D01*
X102226292Y-126882978D01*
X102226286Y-126882985D01*
X102091384Y-127058793D01*
X101980585Y-127250703D01*
X101980581Y-127250713D01*
X101895780Y-127455440D01*
X101838424Y-127669495D01*
X101809501Y-127889189D01*
X101809500Y-127889205D01*
X100300500Y-127889205D01*
X100300500Y-109039943D01*
X102656499Y-109039943D01*
X102656499Y-109198057D01*
X102656500Y-109198060D01*
X102656500Y-112483057D01*
X102675453Y-112553788D01*
X102697423Y-112635783D01*
X102697426Y-112635790D01*
X102776475Y-112772709D01*
X102776479Y-112772714D01*
X102776480Y-112772716D01*
X102888284Y-112884520D01*
X102888286Y-112884521D01*
X102888290Y-112884524D01*
X103025209Y-112963573D01*
X103025216Y-112963577D01*
X103177943Y-113004500D01*
X103177945Y-113004500D01*
X103336055Y-113004500D01*
X103336057Y-113004500D01*
X103488784Y-112963577D01*
X103625716Y-112884520D01*
X103737520Y-112772716D01*
X103816577Y-112635784D01*
X103857500Y-112483057D01*
X103857500Y-109419096D01*
X103877185Y-109352057D01*
X103893814Y-109331420D01*
X107690713Y-105534521D01*
X107690716Y-105534520D01*
X107802520Y-105422716D01*
X107802521Y-105422713D01*
X108042417Y-105182816D01*
X108103739Y-105149334D01*
X108130097Y-105146500D01*
X143414643Y-105146500D01*
X143481682Y-105166185D01*
X143527437Y-105218989D01*
X143537381Y-105288147D01*
X143514961Y-105343385D01*
X143476006Y-105397002D01*
X143393788Y-105558360D01*
X143393787Y-105558363D01*
X143337829Y-105730589D01*
X143309500Y-105909448D01*
X143309500Y-106090551D01*
X143337829Y-106269410D01*
X143393787Y-106441636D01*
X143393788Y-106441639D01*
X143476006Y-106602997D01*
X143582441Y-106749494D01*
X143582445Y-106749499D01*
X143710500Y-106877554D01*
X143710505Y-106877558D01*
X143838287Y-106970396D01*
X143857006Y-106983996D01*
X143933092Y-107022764D01*
X143988684Y-107051090D01*
X144039480Y-107099065D01*
X144056275Y-107166886D01*
X144033737Y-107233021D01*
X143979022Y-107276472D01*
X143970708Y-107279506D01*
X143941781Y-107288905D01*
X143752439Y-107385380D01*
X143698282Y-107424727D01*
X143698282Y-107424728D01*
X144330591Y-108057037D01*
X144267007Y-108074075D01*
X144152993Y-108139901D01*
X144059901Y-108232993D01*
X143994075Y-108347007D01*
X143977037Y-108410591D01*
X143344728Y-107778282D01*
X143344727Y-107778282D01*
X143305380Y-107832439D01*
X143208904Y-108021782D01*
X143143242Y-108223869D01*
X143143242Y-108223872D01*
X143110000Y-108433753D01*
X143110000Y-108646246D01*
X143143242Y-108856127D01*
X143143242Y-108856130D01*
X143208904Y-109058217D01*
X143305375Y-109247550D01*
X143344728Y-109301716D01*
X143977037Y-108669408D01*
X143994075Y-108732993D01*
X144059901Y-108847007D01*
X144152993Y-108940099D01*
X144267007Y-109005925D01*
X144330590Y-109022962D01*
X143698282Y-109655269D01*
X143698282Y-109655270D01*
X143752449Y-109694624D01*
X143941780Y-109791094D01*
X143970705Y-109800492D01*
X144028381Y-109839929D01*
X144055580Y-109904287D01*
X144043667Y-109973134D01*
X143996424Y-110024610D01*
X143988685Y-110028908D01*
X143857004Y-110096004D01*
X143710505Y-110202441D01*
X143710500Y-110202445D01*
X143582445Y-110330500D01*
X143582441Y-110330505D01*
X143476006Y-110477002D01*
X143393788Y-110638360D01*
X143393787Y-110638363D01*
X143337829Y-110810589D01*
X143309500Y-110989448D01*
X143309500Y-111170551D01*
X143337829Y-111349410D01*
X143393787Y-111521636D01*
X143393788Y-111521639D01*
X143476006Y-111682997D01*
X143582441Y-111829494D01*
X143582445Y-111829499D01*
X143710500Y-111957554D01*
X143710505Y-111957558D01*
X143838287Y-112050396D01*
X143857006Y-112063996D01*
X143962484Y-112117740D01*
X144018360Y-112146211D01*
X144018363Y-112146212D01*
X144067260Y-112162099D01*
X144190591Y-112202171D01*
X144263639Y-112213740D01*
X144350678Y-112227527D01*
X144413813Y-112257456D01*
X144450744Y-112316768D01*
X144449746Y-112386631D01*
X144411136Y-112444863D01*
X144350678Y-112472473D01*
X144190589Y-112497829D01*
X144018363Y-112553787D01*
X144018360Y-112553788D01*
X143857002Y-112636006D01*
X143710505Y-112742441D01*
X143710500Y-112742445D01*
X143582445Y-112870500D01*
X143582441Y-112870505D01*
X143476006Y-113017002D01*
X143393788Y-113178360D01*
X143393787Y-113178363D01*
X143337829Y-113350589D01*
X143309500Y-113529448D01*
X143309500Y-113710551D01*
X143337829Y-113889410D01*
X143393787Y-114061636D01*
X143393788Y-114061639D01*
X143476006Y-114222997D01*
X143582441Y-114369494D01*
X143582445Y-114369499D01*
X143710500Y-114497554D01*
X143710505Y-114497558D01*
X143782019Y-114549515D01*
X143857006Y-114603996D01*
X143962484Y-114657740D01*
X144018360Y-114686211D01*
X144018363Y-114686212D01*
X144104476Y-114714191D01*
X144190591Y-114742171D01*
X144263639Y-114753740D01*
X144350678Y-114767527D01*
X144413813Y-114797456D01*
X144450744Y-114856768D01*
X144449746Y-114926631D01*
X144411136Y-114984863D01*
X144350678Y-115012473D01*
X144190589Y-115037829D01*
X144018363Y-115093787D01*
X144018360Y-115093788D01*
X143857002Y-115176006D01*
X143710505Y-115282441D01*
X143710500Y-115282445D01*
X143582445Y-115410500D01*
X143582441Y-115410505D01*
X143476006Y-115557002D01*
X143393788Y-115718360D01*
X143393787Y-115718363D01*
X143337829Y-115890589D01*
X143309500Y-116069448D01*
X143309500Y-116250551D01*
X143337829Y-116429410D01*
X143393787Y-116601636D01*
X143393788Y-116601639D01*
X143476003Y-116762993D01*
X143565819Y-116886615D01*
X143589298Y-116952422D01*
X143573472Y-117020476D01*
X143523366Y-117069170D01*
X143465500Y-117083500D01*
X129973982Y-117083500D01*
X129865763Y-117112497D01*
X129865760Y-117112498D01*
X129768740Y-117168513D01*
X129768734Y-117168517D01*
X122751071Y-124186181D01*
X122689748Y-124219666D01*
X122688668Y-124219896D01*
X122676162Y-124222500D01*
X122636943Y-124222500D01*
X122500210Y-124259137D01*
X122496778Y-124259852D01*
X122465311Y-124257319D01*
X122433743Y-124256568D01*
X122430743Y-124254537D01*
X122427133Y-124254247D01*
X122402028Y-124235102D01*
X122375881Y-124217405D01*
X122374455Y-124214075D01*
X122371575Y-124211879D01*
X122360805Y-124182199D01*
X122348377Y-124153177D01*
X122348004Y-124146923D01*
X122347742Y-124146200D01*
X122347915Y-124145434D01*
X122347500Y-124138456D01*
X122347500Y-123824984D01*
X122347500Y-123824982D01*
X122318503Y-123716763D01*
X122262485Y-123619737D01*
X122183263Y-123540515D01*
X119885263Y-121242515D01*
X119788237Y-121186497D01*
X119680018Y-121157500D01*
X115710018Y-121157500D01*
X115597981Y-121157500D01*
X115597979Y-121157500D01*
X115553122Y-121169519D01*
X115553122Y-121169520D01*
X115489763Y-121186497D01*
X115489762Y-121186497D01*
X115489760Y-121186498D01*
X115392740Y-121242513D01*
X115392734Y-121242517D01*
X114096071Y-122539181D01*
X114034748Y-122572666D01*
X114008390Y-122575500D01*
X113981943Y-122575500D01*
X113829216Y-122616423D01*
X113829209Y-122616426D01*
X113692290Y-122695475D01*
X113692282Y-122695481D01*
X113580481Y-122807282D01*
X113580475Y-122807290D01*
X113501426Y-122944209D01*
X113501423Y-122944216D01*
X113460500Y-123096943D01*
X113460500Y-123255057D01*
X113500773Y-123405356D01*
X113501423Y-123407783D01*
X113501426Y-123407790D01*
X113580475Y-123544709D01*
X113580479Y-123544714D01*
X113580480Y-123544716D01*
X113692284Y-123656520D01*
X113692286Y-123656521D01*
X113692290Y-123656524D01*
X113803860Y-123720938D01*
X113829216Y-123735577D01*
X113981943Y-123776500D01*
X113981945Y-123776500D01*
X114140055Y-123776500D01*
X114140057Y-123776500D01*
X114292784Y-123735577D01*
X114429716Y-123656520D01*
X114541520Y-123544716D01*
X114620577Y-123407784D01*
X114661500Y-123255057D01*
X114661500Y-123228609D01*
X114681185Y-123161570D01*
X114697819Y-123140928D01*
X115793928Y-122044819D01*
X115855251Y-122011334D01*
X115881609Y-122008500D01*
X116486332Y-122008500D01*
X116553371Y-122028185D01*
X116599126Y-122080989D01*
X116607790Y-122138816D01*
X116609500Y-122138816D01*
X116609500Y-122146943D01*
X116609500Y-122305057D01*
X116639176Y-122415807D01*
X116650423Y-122457783D01*
X116650426Y-122457790D01*
X116729475Y-122594709D01*
X116729481Y-122594717D01*
X116748181Y-122613417D01*
X116781666Y-122674740D01*
X116784500Y-122701098D01*
X116784500Y-124610466D01*
X116764815Y-124677505D01*
X116712011Y-124723260D01*
X116642853Y-124733204D01*
X116579297Y-124704179D01*
X116545938Y-124657917D01*
X116543574Y-124652209D01*
X116464524Y-124515290D01*
X116464518Y-124515282D01*
X116352717Y-124403481D01*
X116352709Y-124403475D01*
X116215790Y-124324426D01*
X116215786Y-124324424D01*
X116215784Y-124324423D01*
X116063057Y-124283500D01*
X115904943Y-124283500D01*
X115752216Y-124324423D01*
X115752209Y-124324426D01*
X115615290Y-124403475D01*
X115615282Y-124403481D01*
X115503481Y-124515282D01*
X115503475Y-124515290D01*
X115424426Y-124652209D01*
X115424423Y-124652216D01*
X115383500Y-124804943D01*
X115383500Y-124963057D01*
X115414631Y-125079237D01*
X115424423Y-125115783D01*
X115424426Y-125115790D01*
X115503475Y-125252709D01*
X115503481Y-125252717D01*
X115522181Y-125271417D01*
X115555666Y-125332740D01*
X115558500Y-125359098D01*
X115558500Y-127325982D01*
X115558500Y-127438018D01*
X115587497Y-127546237D01*
X115643515Y-127643263D01*
X117129752Y-129129500D01*
X118614174Y-130613921D01*
X118614184Y-130613932D01*
X118618514Y-130618262D01*
X118618515Y-130618263D01*
X118697737Y-130697485D01*
X118794763Y-130753503D01*
X118902981Y-130782500D01*
X118902982Y-130782500D01*
X118902983Y-130782500D01*
X138049016Y-130782500D01*
X138049018Y-130782500D01*
X138157237Y-130753503D01*
X138254263Y-130697485D01*
X143606485Y-125345263D01*
X143662503Y-125248237D01*
X143691500Y-125140018D01*
X143691500Y-125105919D01*
X143711185Y-125038880D01*
X143763989Y-124993125D01*
X143833147Y-124983181D01*
X143871796Y-124995435D01*
X143941780Y-125031094D01*
X144143870Y-125096757D01*
X144353754Y-125130000D01*
X144566246Y-125130000D01*
X144776127Y-125096757D01*
X144776130Y-125096757D01*
X144978217Y-125031095D01*
X145167554Y-124934622D01*
X145221716Y-124895270D01*
X145221717Y-124895270D01*
X144589409Y-124262962D01*
X144652993Y-124245925D01*
X144767007Y-124180099D01*
X144860099Y-124087007D01*
X144925925Y-123972993D01*
X144942962Y-123909409D01*
X145575270Y-124541717D01*
X145575270Y-124541716D01*
X145614622Y-124487554D01*
X145711095Y-124298217D01*
X145720492Y-124269295D01*
X145759928Y-124211618D01*
X145824286Y-124184419D01*
X145893133Y-124196331D01*
X145944610Y-124243574D01*
X145948908Y-124251314D01*
X146016004Y-124382995D01*
X146122441Y-124529494D01*
X146122445Y-124529499D01*
X146250500Y-124657554D01*
X146250505Y-124657558D01*
X146340937Y-124723260D01*
X146397006Y-124763996D01*
X146477369Y-124804943D01*
X146558360Y-124846211D01*
X146558363Y-124846212D01*
X146644476Y-124874191D01*
X146730591Y-124902171D01*
X146813429Y-124915291D01*
X146909449Y-124930500D01*
X146909454Y-124930500D01*
X147090551Y-124930500D01*
X147177259Y-124916765D01*
X147269409Y-124902171D01*
X147441639Y-124846211D01*
X147602994Y-124763996D01*
X147749501Y-124657553D01*
X147877553Y-124529501D01*
X147983996Y-124382994D01*
X148066211Y-124221639D01*
X148122171Y-124049409D01*
X148143706Y-123913442D01*
X148150500Y-123870551D01*
X148150500Y-123689448D01*
X148132954Y-123578675D01*
X148122171Y-123510591D01*
X148094191Y-123424476D01*
X148066212Y-123338363D01*
X148066211Y-123338360D01*
X147996627Y-123201795D01*
X147983731Y-123133126D01*
X148010007Y-123068385D01*
X148067114Y-123028128D01*
X148107112Y-123021500D01*
X152452390Y-123021500D01*
X152519429Y-123041185D01*
X152540071Y-123057819D01*
X154708550Y-125226298D01*
X154742035Y-125287621D01*
X154737051Y-125357313D01*
X154696364Y-125412348D01*
X154692287Y-125415476D01*
X154580481Y-125527282D01*
X154580475Y-125527290D01*
X154501426Y-125664209D01*
X154501423Y-125664216D01*
X154460500Y-125816943D01*
X154460500Y-125975057D01*
X154475066Y-126029416D01*
X154501423Y-126127783D01*
X154501426Y-126127790D01*
X154580475Y-126264709D01*
X154580479Y-126264714D01*
X154580480Y-126264716D01*
X154692284Y-126376520D01*
X154692286Y-126376521D01*
X154692290Y-126376524D01*
X154829209Y-126455573D01*
X154829216Y-126455577D01*
X154981943Y-126496500D01*
X155008698Y-126496500D01*
X155075737Y-126516185D01*
X155096339Y-126532778D01*
X155361583Y-126797778D01*
X155395096Y-126859086D01*
X155390144Y-126928780D01*
X155348298Y-126984733D01*
X155282845Y-127009180D01*
X155273942Y-127009500D01*
X152728982Y-127009500D01*
X152620763Y-127038497D01*
X152620760Y-127038498D01*
X152523740Y-127094513D01*
X152523734Y-127094517D01*
X152132517Y-127485734D01*
X152132512Y-127485740D01*
X152076498Y-127582759D01*
X152076495Y-127582767D01*
X152076313Y-127583447D01*
X152075961Y-127584055D01*
X152073388Y-127590269D01*
X152072569Y-127589930D01*
X152044221Y-127639029D01*
X147878071Y-131805181D01*
X147816748Y-131838666D01*
X147790390Y-131841500D01*
X137569018Y-131841500D01*
X137456981Y-131841500D01*
X137348763Y-131870497D01*
X137348761Y-131870498D01*
X137348760Y-131870498D01*
X137251740Y-131926513D01*
X137251734Y-131926517D01*
X120835035Y-148343215D01*
X120773712Y-148376700D01*
X120704020Y-148371716D01*
X120691060Y-148366019D01*
X120594386Y-148316761D01*
X120354785Y-148238910D01*
X120173032Y-148210123D01*
X120105962Y-148199500D01*
X119854038Y-148199500D01*
X119786974Y-148210122D01*
X119605214Y-148238910D01*
X119365616Y-148316760D01*
X119141151Y-148431132D01*
X118937350Y-148579201D01*
X118937345Y-148579205D01*
X118759205Y-148757345D01*
X118759201Y-148757350D01*
X118611132Y-148961151D01*
X118496760Y-149185616D01*
X118418910Y-149425214D01*
X118379500Y-149674038D01*
X118379500Y-149925961D01*
X118418910Y-150174785D01*
X118496760Y-150414383D01*
X118611132Y-150638848D01*
X118759201Y-150842649D01*
X118759205Y-150842654D01*
X118937345Y-151020794D01*
X118937350Y-151020798D01*
X119077116Y-151122343D01*
X119141155Y-151168870D01*
X119284184Y-151241747D01*
X119365616Y-151283239D01*
X119365618Y-151283239D01*
X119365621Y-151283241D01*
X119605215Y-151361090D01*
X119854038Y-151400500D01*
X119854039Y-151400500D01*
X120105961Y-151400500D01*
X120105962Y-151400500D01*
X120354785Y-151361090D01*
X120594379Y-151283241D01*
X120818845Y-151168870D01*
X120885106Y-151120728D01*
X120928768Y-151089007D01*
X121022650Y-151020798D01*
X121022652Y-151020795D01*
X121022656Y-151020793D01*
X121200793Y-150842656D01*
X121348870Y-150638845D01*
X121463241Y-150414379D01*
X121541090Y-150174785D01*
X121580500Y-149925962D01*
X121580500Y-149682014D01*
X123260000Y-149682014D01*
X123260000Y-149917985D01*
X123290799Y-150151914D01*
X123351870Y-150379837D01*
X123442160Y-150597819D01*
X123442165Y-150597828D01*
X123560144Y-150802171D01*
X123560145Y-150802172D01*
X123622721Y-150883723D01*
X124458958Y-150047487D01*
X124483978Y-150107890D01*
X124555112Y-150214351D01*
X124645649Y-150304888D01*
X124752110Y-150376022D01*
X124812511Y-150401041D01*
X123976275Y-151237277D01*
X124057827Y-151299854D01*
X124057828Y-151299855D01*
X124262171Y-151417834D01*
X124262180Y-151417839D01*
X124480163Y-151508129D01*
X124480161Y-151508129D01*
X124708085Y-151569200D01*
X124942014Y-151599999D01*
X124942029Y-151600000D01*
X125177971Y-151600000D01*
X125177985Y-151599999D01*
X125411914Y-151569200D01*
X125639837Y-151508129D01*
X125857819Y-151417839D01*
X125857828Y-151417834D01*
X126062181Y-151299850D01*
X126143723Y-151237279D01*
X126143723Y-151237276D01*
X125307487Y-150401041D01*
X125367890Y-150376022D01*
X125474351Y-150304888D01*
X125564888Y-150214351D01*
X125636022Y-150107890D01*
X125661041Y-150047487D01*
X126497276Y-150883723D01*
X126497279Y-150883723D01*
X126559850Y-150802181D01*
X126677834Y-150597828D01*
X126677839Y-150597819D01*
X126768129Y-150379837D01*
X126829200Y-150151914D01*
X126859999Y-149917985D01*
X126860000Y-149917971D01*
X126860000Y-149682028D01*
X126859999Y-149682014D01*
X126829200Y-149448085D01*
X126768129Y-149220162D01*
X126677839Y-149002180D01*
X126677834Y-149002171D01*
X126559855Y-148797828D01*
X126559849Y-148797819D01*
X126545164Y-148778681D01*
X126545162Y-148778679D01*
X126497277Y-148716275D01*
X125661041Y-149552511D01*
X125636022Y-149492110D01*
X125564888Y-149385649D01*
X125474351Y-149295112D01*
X125367890Y-149223978D01*
X125307488Y-149198958D01*
X125799547Y-148706898D01*
X129649500Y-148706898D01*
X129649500Y-150893102D01*
X129655126Y-150939954D01*
X129660122Y-150981561D01*
X129715639Y-151122343D01*
X129807077Y-151242922D01*
X129927656Y-151334360D01*
X129927657Y-151334360D01*
X129927658Y-151334361D01*
X130068436Y-151389877D01*
X130156898Y-151400500D01*
X130156903Y-151400500D01*
X132343097Y-151400500D01*
X132343102Y-151400500D01*
X132431564Y-151389877D01*
X132572342Y-151334361D01*
X132692922Y-151242922D01*
X132784361Y-151122342D01*
X132839877Y-150981564D01*
X132850500Y-150893102D01*
X132850500Y-148706898D01*
X132839877Y-148618436D01*
X132784361Y-148477658D01*
X132784360Y-148477657D01*
X132784360Y-148477656D01*
X132692922Y-148357077D01*
X132572343Y-148265639D01*
X132431561Y-148210122D01*
X132385926Y-148204642D01*
X132343102Y-148199500D01*
X130156898Y-148199500D01*
X130117853Y-148204188D01*
X130068438Y-148210122D01*
X129927656Y-148265639D01*
X129807077Y-148357077D01*
X129715639Y-148477656D01*
X129660122Y-148618438D01*
X129654188Y-148667853D01*
X129649500Y-148706898D01*
X125799547Y-148706898D01*
X126143723Y-148362721D01*
X126062172Y-148300145D01*
X126062171Y-148300144D01*
X125857828Y-148182165D01*
X125857819Y-148182160D01*
X125639836Y-148091870D01*
X125639838Y-148091870D01*
X125411914Y-148030799D01*
X125177985Y-148000000D01*
X124942014Y-148000000D01*
X124708085Y-148030799D01*
X124480162Y-148091870D01*
X124262180Y-148182160D01*
X124262171Y-148182165D01*
X124057828Y-148300144D01*
X124057818Y-148300150D01*
X123976275Y-148362720D01*
X123976275Y-148362721D01*
X124812512Y-149198958D01*
X124752110Y-149223978D01*
X124645649Y-149295112D01*
X124555112Y-149385649D01*
X124483978Y-149492110D01*
X124458958Y-149552512D01*
X123622721Y-148716275D01*
X123622720Y-148716275D01*
X123560150Y-148797818D01*
X123560144Y-148797828D01*
X123442165Y-149002171D01*
X123442160Y-149002180D01*
X123351870Y-149220162D01*
X123290799Y-149448085D01*
X123260000Y-149682014D01*
X121580500Y-149682014D01*
X121580500Y-149674038D01*
X121541090Y-149425215D01*
X121463241Y-149185621D01*
X121463239Y-149185618D01*
X121463239Y-149185616D01*
X121413979Y-149088939D01*
X121401083Y-149020270D01*
X121427359Y-148955529D01*
X121436774Y-148944972D01*
X137652929Y-132728819D01*
X137714252Y-132695334D01*
X137740610Y-132692500D01*
X146691390Y-132692500D01*
X146758429Y-132712185D01*
X146804184Y-132764989D01*
X146814128Y-132834147D01*
X146785103Y-132897703D01*
X146779071Y-132904181D01*
X135989517Y-143693734D01*
X135989513Y-143693740D01*
X135933498Y-143790760D01*
X135933497Y-143790763D01*
X135904500Y-143898982D01*
X135904500Y-148165297D01*
X135884815Y-148232336D01*
X135832011Y-148278091D01*
X135818824Y-148283225D01*
X135783001Y-148294865D01*
X135715616Y-148316760D01*
X135491151Y-148431132D01*
X135287350Y-148579201D01*
X135287345Y-148579205D01*
X135109205Y-148757345D01*
X135109201Y-148757350D01*
X134961132Y-148961151D01*
X134846760Y-149185616D01*
X134768910Y-149425214D01*
X134729500Y-149674038D01*
X134729500Y-149925961D01*
X134768910Y-150174785D01*
X134846760Y-150414383D01*
X134961132Y-150638848D01*
X135109201Y-150842649D01*
X135109205Y-150842654D01*
X135287345Y-151020794D01*
X135287350Y-151020798D01*
X135427116Y-151122343D01*
X135491155Y-151168870D01*
X135634184Y-151241747D01*
X135715616Y-151283239D01*
X135715618Y-151283239D01*
X135715621Y-151283241D01*
X135955215Y-151361090D01*
X136204038Y-151400500D01*
X136204039Y-151400500D01*
X136455961Y-151400500D01*
X136455962Y-151400500D01*
X136704785Y-151361090D01*
X136944379Y-151283241D01*
X137168845Y-151168870D01*
X137235106Y-151120728D01*
X137278768Y-151089007D01*
X137372650Y-151020798D01*
X137372652Y-151020795D01*
X137372656Y-151020793D01*
X137550793Y-150842656D01*
X137698870Y-150638845D01*
X137813241Y-150414379D01*
X137891090Y-150174785D01*
X137930500Y-149925962D01*
X137930500Y-149682014D01*
X139610000Y-149682014D01*
X139610000Y-149917985D01*
X139640799Y-150151914D01*
X139701870Y-150379837D01*
X139792160Y-150597819D01*
X139792165Y-150597828D01*
X139910144Y-150802171D01*
X139910145Y-150802172D01*
X139972721Y-150883723D01*
X140808958Y-150047487D01*
X140833978Y-150107890D01*
X140905112Y-150214351D01*
X140995649Y-150304888D01*
X141102110Y-150376022D01*
X141162511Y-150401041D01*
X140326275Y-151237277D01*
X140407827Y-151299854D01*
X140407828Y-151299855D01*
X140612171Y-151417834D01*
X140612180Y-151417839D01*
X140830163Y-151508129D01*
X140830161Y-151508129D01*
X141058085Y-151569200D01*
X141292014Y-151599999D01*
X141292029Y-151600000D01*
X141527971Y-151600000D01*
X141527985Y-151599999D01*
X141761914Y-151569200D01*
X141989837Y-151508129D01*
X142207819Y-151417839D01*
X142207828Y-151417834D01*
X142412181Y-151299850D01*
X142493723Y-151237279D01*
X142493723Y-151237276D01*
X141657487Y-150401041D01*
X141717890Y-150376022D01*
X141824351Y-150304888D01*
X141914888Y-150214351D01*
X141986022Y-150107890D01*
X142011041Y-150047488D01*
X142847276Y-150883723D01*
X142847279Y-150883723D01*
X142909850Y-150802181D01*
X143027834Y-150597828D01*
X143027839Y-150597819D01*
X143118129Y-150379837D01*
X143179200Y-150151914D01*
X143209999Y-149917985D01*
X143210000Y-149917971D01*
X143210000Y-149682028D01*
X143209999Y-149682014D01*
X143179200Y-149448085D01*
X143118129Y-149220162D01*
X143027839Y-149002180D01*
X143027834Y-149002171D01*
X142909855Y-148797828D01*
X142909849Y-148797819D01*
X142895164Y-148778681D01*
X142895162Y-148778679D01*
X142847277Y-148716275D01*
X142011041Y-149552511D01*
X141986022Y-149492110D01*
X141914888Y-149385649D01*
X141824351Y-149295112D01*
X141717890Y-149223978D01*
X141657488Y-149198958D01*
X142149547Y-148706898D01*
X145999500Y-148706898D01*
X145999500Y-150893102D01*
X146005126Y-150939954D01*
X146010122Y-150981561D01*
X146065639Y-151122343D01*
X146157077Y-151242922D01*
X146277656Y-151334360D01*
X146277657Y-151334360D01*
X146277658Y-151334361D01*
X146418436Y-151389877D01*
X146506898Y-151400500D01*
X146506903Y-151400500D01*
X148693097Y-151400500D01*
X148693102Y-151400500D01*
X148781564Y-151389877D01*
X148922342Y-151334361D01*
X149042922Y-151242922D01*
X149134361Y-151122342D01*
X149189877Y-150981564D01*
X149200500Y-150893102D01*
X149200500Y-148706898D01*
X149189877Y-148618436D01*
X149134361Y-148477658D01*
X149134360Y-148477657D01*
X149134360Y-148477656D01*
X149042922Y-148357077D01*
X148922343Y-148265639D01*
X148781561Y-148210122D01*
X148735926Y-148204642D01*
X148693102Y-148199500D01*
X146506898Y-148199500D01*
X146467853Y-148204188D01*
X146418438Y-148210122D01*
X146277656Y-148265639D01*
X146157077Y-148357077D01*
X146065639Y-148477656D01*
X146010122Y-148618438D01*
X146004188Y-148667853D01*
X145999500Y-148706898D01*
X142149547Y-148706898D01*
X142493723Y-148362721D01*
X142412172Y-148300145D01*
X142412171Y-148300144D01*
X142207828Y-148182165D01*
X142207819Y-148182160D01*
X141989836Y-148091870D01*
X141989838Y-148091870D01*
X141761914Y-148030799D01*
X141527985Y-148000000D01*
X141292014Y-148000000D01*
X141058085Y-148030799D01*
X140830162Y-148091870D01*
X140612180Y-148182160D01*
X140612171Y-148182165D01*
X140407828Y-148300144D01*
X140407818Y-148300150D01*
X140326275Y-148362720D01*
X140326275Y-148362721D01*
X141162512Y-149198958D01*
X141102110Y-149223978D01*
X140995649Y-149295112D01*
X140905112Y-149385649D01*
X140833978Y-149492110D01*
X140808958Y-149552511D01*
X139972721Y-148716275D01*
X139972720Y-148716275D01*
X139910150Y-148797818D01*
X139910144Y-148797828D01*
X139792165Y-149002171D01*
X139792160Y-149002180D01*
X139701870Y-149220162D01*
X139640799Y-149448085D01*
X139610000Y-149682014D01*
X137930500Y-149682014D01*
X137930500Y-149674038D01*
X137891090Y-149425215D01*
X137813241Y-149185621D01*
X137813239Y-149185618D01*
X137813239Y-149185616D01*
X137763979Y-149088939D01*
X137698870Y-148961155D01*
X137679952Y-148935117D01*
X137550798Y-148757350D01*
X137550794Y-148757345D01*
X137372654Y-148579205D01*
X137372649Y-148579201D01*
X137278767Y-148510992D01*
X137168848Y-148431132D01*
X137168847Y-148431131D01*
X137168845Y-148431130D01*
X137098747Y-148395413D01*
X136944383Y-148316760D01*
X136893244Y-148300144D01*
X136841180Y-148283227D01*
X136783506Y-148243790D01*
X136756308Y-148179431D01*
X136755500Y-148165297D01*
X136755500Y-144182610D01*
X136775185Y-144115571D01*
X136791819Y-144094929D01*
X147693929Y-133192819D01*
X147755252Y-133159334D01*
X147781610Y-133156500D01*
X148249016Y-133156500D01*
X148249018Y-133156500D01*
X148357237Y-133127503D01*
X148454263Y-133071485D01*
X153119928Y-128405818D01*
X153181251Y-128372334D01*
X153207609Y-128369500D01*
X158715391Y-128369500D01*
X158782430Y-128389185D01*
X158828185Y-128441989D01*
X158838129Y-128511147D01*
X158809104Y-128574703D01*
X158803072Y-128581180D01*
X157101274Y-130282978D01*
X152401296Y-134982955D01*
X152401295Y-134982955D01*
X152401296Y-134982956D01*
X152339514Y-135044738D01*
X152339513Y-135044740D01*
X152283498Y-135141760D01*
X152283497Y-135141763D01*
X152254500Y-135249982D01*
X152254500Y-148165297D01*
X152234815Y-148232336D01*
X152182011Y-148278091D01*
X152168824Y-148283225D01*
X152133001Y-148294865D01*
X152065616Y-148316760D01*
X151841151Y-148431132D01*
X151637350Y-148579201D01*
X151637345Y-148579205D01*
X151459205Y-148757345D01*
X151459201Y-148757350D01*
X151311132Y-148961151D01*
X151196760Y-149185616D01*
X151118910Y-149425214D01*
X151079500Y-149674038D01*
X151079500Y-149925961D01*
X151118910Y-150174785D01*
X151196760Y-150414383D01*
X151311132Y-150638848D01*
X151459201Y-150842649D01*
X151459205Y-150842654D01*
X151637345Y-151020794D01*
X151637350Y-151020798D01*
X151777116Y-151122343D01*
X151841155Y-151168870D01*
X151984184Y-151241747D01*
X152065616Y-151283239D01*
X152065618Y-151283239D01*
X152065621Y-151283241D01*
X152305215Y-151361090D01*
X152554038Y-151400500D01*
X152554039Y-151400500D01*
X152805961Y-151400500D01*
X152805962Y-151400500D01*
X153054785Y-151361090D01*
X153294379Y-151283241D01*
X153518845Y-151168870D01*
X153585106Y-151120728D01*
X153628768Y-151089007D01*
X153722650Y-151020798D01*
X153722652Y-151020795D01*
X153722656Y-151020793D01*
X153900793Y-150842656D01*
X154048870Y-150638845D01*
X154163241Y-150414379D01*
X154241090Y-150174785D01*
X154280500Y-149925962D01*
X154280500Y-149682014D01*
X155960000Y-149682014D01*
X155960000Y-149917985D01*
X155990799Y-150151914D01*
X156051870Y-150379837D01*
X156142160Y-150597819D01*
X156142165Y-150597828D01*
X156260144Y-150802171D01*
X156260145Y-150802172D01*
X156322721Y-150883723D01*
X157158958Y-150047487D01*
X157183978Y-150107890D01*
X157255112Y-150214351D01*
X157345649Y-150304888D01*
X157452110Y-150376022D01*
X157512511Y-150401041D01*
X156676275Y-151237277D01*
X156757827Y-151299854D01*
X156757828Y-151299855D01*
X156962171Y-151417834D01*
X156962180Y-151417839D01*
X157180163Y-151508129D01*
X157180161Y-151508129D01*
X157408085Y-151569200D01*
X157642014Y-151599999D01*
X157642029Y-151600000D01*
X157877971Y-151600000D01*
X157877985Y-151599999D01*
X158111914Y-151569200D01*
X158339837Y-151508129D01*
X158557819Y-151417839D01*
X158557828Y-151417834D01*
X158762181Y-151299850D01*
X158843723Y-151237279D01*
X158843723Y-151237276D01*
X158007487Y-150401041D01*
X158067890Y-150376022D01*
X158174351Y-150304888D01*
X158264888Y-150214351D01*
X158336022Y-150107890D01*
X158361041Y-150047487D01*
X159197276Y-150883723D01*
X159197279Y-150883723D01*
X159259850Y-150802181D01*
X159377834Y-150597828D01*
X159377839Y-150597819D01*
X159468129Y-150379837D01*
X159529200Y-150151914D01*
X159559999Y-149917985D01*
X159560000Y-149917971D01*
X159560000Y-149682028D01*
X159559999Y-149682014D01*
X159529200Y-149448085D01*
X159468129Y-149220162D01*
X159377839Y-149002180D01*
X159377834Y-149002171D01*
X159259855Y-148797828D01*
X159259849Y-148797819D01*
X159245164Y-148778681D01*
X159245162Y-148778679D01*
X159197277Y-148716275D01*
X158361041Y-149552511D01*
X158336022Y-149492110D01*
X158264888Y-149385649D01*
X158174351Y-149295112D01*
X158067890Y-149223978D01*
X158007488Y-149198958D01*
X158499547Y-148706898D01*
X162349500Y-148706898D01*
X162349500Y-150893102D01*
X162355126Y-150939954D01*
X162360122Y-150981561D01*
X162415639Y-151122343D01*
X162507077Y-151242922D01*
X162627656Y-151334360D01*
X162627657Y-151334360D01*
X162627658Y-151334361D01*
X162768436Y-151389877D01*
X162856898Y-151400500D01*
X162856903Y-151400500D01*
X165043097Y-151400500D01*
X165043102Y-151400500D01*
X165131564Y-151389877D01*
X165272342Y-151334361D01*
X165392922Y-151242922D01*
X165484361Y-151122342D01*
X165539877Y-150981564D01*
X165550500Y-150893102D01*
X165550500Y-148706898D01*
X165539877Y-148618436D01*
X165484361Y-148477658D01*
X165484360Y-148477657D01*
X165484360Y-148477656D01*
X165392922Y-148357077D01*
X165272343Y-148265639D01*
X165131561Y-148210122D01*
X165085926Y-148204642D01*
X165043102Y-148199500D01*
X162856898Y-148199500D01*
X162817853Y-148204188D01*
X162768438Y-148210122D01*
X162627656Y-148265639D01*
X162507077Y-148357077D01*
X162415639Y-148477656D01*
X162360122Y-148618438D01*
X162354188Y-148667853D01*
X162349500Y-148706898D01*
X158499547Y-148706898D01*
X158843723Y-148362721D01*
X158762172Y-148300145D01*
X158762171Y-148300144D01*
X158557828Y-148182165D01*
X158557819Y-148182160D01*
X158339836Y-148091870D01*
X158339838Y-148091870D01*
X158111914Y-148030799D01*
X157877985Y-148000000D01*
X157642014Y-148000000D01*
X157408085Y-148030799D01*
X157180162Y-148091870D01*
X156962180Y-148182160D01*
X156962171Y-148182165D01*
X156757828Y-148300144D01*
X156757818Y-148300150D01*
X156676275Y-148362720D01*
X156676275Y-148362721D01*
X157512512Y-149198958D01*
X157452110Y-149223978D01*
X157345649Y-149295112D01*
X157255112Y-149385649D01*
X157183978Y-149492110D01*
X157158958Y-149552512D01*
X156322721Y-148716275D01*
X156322720Y-148716275D01*
X156260150Y-148797818D01*
X156260144Y-148797828D01*
X156142165Y-149002171D01*
X156142160Y-149002180D01*
X156051870Y-149220162D01*
X155990799Y-149448085D01*
X155960000Y-149682014D01*
X154280500Y-149682014D01*
X154280500Y-149674038D01*
X154241090Y-149425215D01*
X154163241Y-149185621D01*
X154163239Y-149185618D01*
X154163239Y-149185616D01*
X154113979Y-149088939D01*
X154048870Y-148961155D01*
X154029952Y-148935117D01*
X153900798Y-148757350D01*
X153900794Y-148757345D01*
X153722654Y-148579205D01*
X153722649Y-148579201D01*
X153628767Y-148510992D01*
X153518848Y-148431132D01*
X153518847Y-148431131D01*
X153518845Y-148431130D01*
X153448747Y-148395413D01*
X153294383Y-148316760D01*
X153243244Y-148300144D01*
X153191180Y-148283227D01*
X153133506Y-148243790D01*
X153106308Y-148179431D01*
X153105500Y-148165297D01*
X153105500Y-135533608D01*
X153125185Y-135466569D01*
X153141814Y-135445932D01*
X160531802Y-128055943D01*
X162759500Y-128055943D01*
X162759500Y-128214056D01*
X162800423Y-128366783D01*
X162800426Y-128366790D01*
X162879475Y-128503709D01*
X162879481Y-128503717D01*
X162898181Y-128522417D01*
X162931666Y-128583740D01*
X162934500Y-128610098D01*
X162934500Y-144073982D01*
X162934500Y-144186018D01*
X162963497Y-144294237D01*
X163019515Y-144391263D01*
X163019517Y-144391265D01*
X167573216Y-148944964D01*
X167606701Y-149006287D01*
X167601717Y-149075979D01*
X167596020Y-149088939D01*
X167546757Y-149185623D01*
X167546757Y-149185624D01*
X167468910Y-149425210D01*
X167468910Y-149425213D01*
X167429500Y-149674038D01*
X167429500Y-149925961D01*
X167468910Y-150174785D01*
X167546760Y-150414383D01*
X167661132Y-150638848D01*
X167809201Y-150842649D01*
X167809205Y-150842654D01*
X167987345Y-151020794D01*
X167987350Y-151020798D01*
X168127116Y-151122343D01*
X168191155Y-151168870D01*
X168334184Y-151241747D01*
X168415616Y-151283239D01*
X168415618Y-151283239D01*
X168415621Y-151283241D01*
X168655215Y-151361090D01*
X168904038Y-151400500D01*
X168904039Y-151400500D01*
X169155961Y-151400500D01*
X169155962Y-151400500D01*
X169404785Y-151361090D01*
X169644379Y-151283241D01*
X169868845Y-151168870D01*
X169935106Y-151120728D01*
X169978768Y-151089007D01*
X170072650Y-151020798D01*
X170072652Y-151020795D01*
X170072656Y-151020793D01*
X170250793Y-150842656D01*
X170398870Y-150638845D01*
X170513241Y-150414379D01*
X170591090Y-150174785D01*
X170630500Y-149925962D01*
X170630500Y-149682014D01*
X172310000Y-149682014D01*
X172310000Y-149917985D01*
X172340799Y-150151914D01*
X172401870Y-150379837D01*
X172492160Y-150597819D01*
X172492165Y-150597828D01*
X172610144Y-150802171D01*
X172610145Y-150802172D01*
X172672721Y-150883723D01*
X173508958Y-150047487D01*
X173533978Y-150107890D01*
X173605112Y-150214351D01*
X173695649Y-150304888D01*
X173802110Y-150376022D01*
X173862511Y-150401041D01*
X173026275Y-151237277D01*
X173107827Y-151299854D01*
X173107828Y-151299855D01*
X173312171Y-151417834D01*
X173312180Y-151417839D01*
X173530163Y-151508129D01*
X173530161Y-151508129D01*
X173758085Y-151569200D01*
X173992014Y-151599999D01*
X173992029Y-151600000D01*
X174227971Y-151600000D01*
X174227985Y-151599999D01*
X174461914Y-151569200D01*
X174689837Y-151508129D01*
X174907819Y-151417839D01*
X174907828Y-151417834D01*
X175112181Y-151299850D01*
X175193723Y-151237279D01*
X175193723Y-151237276D01*
X174357487Y-150401041D01*
X174417890Y-150376022D01*
X174524351Y-150304888D01*
X174614888Y-150214351D01*
X174686022Y-150107890D01*
X174711041Y-150047488D01*
X175547276Y-150883723D01*
X175547279Y-150883723D01*
X175609850Y-150802181D01*
X175727834Y-150597828D01*
X175727839Y-150597819D01*
X175818129Y-150379837D01*
X175879200Y-150151914D01*
X175909999Y-149917985D01*
X175910000Y-149917971D01*
X175910000Y-149682028D01*
X175909999Y-149682014D01*
X175879200Y-149448085D01*
X175818129Y-149220162D01*
X175727839Y-149002180D01*
X175727834Y-149002171D01*
X175609855Y-148797828D01*
X175609854Y-148797827D01*
X175547277Y-148716275D01*
X174711041Y-149552511D01*
X174686022Y-149492110D01*
X174614888Y-149385649D01*
X174524351Y-149295112D01*
X174417890Y-149223978D01*
X174357488Y-149198958D01*
X175193723Y-148362721D01*
X175112172Y-148300145D01*
X175112171Y-148300144D01*
X174907828Y-148182165D01*
X174907819Y-148182160D01*
X174689836Y-148091870D01*
X174689838Y-148091870D01*
X174461914Y-148030799D01*
X174227985Y-148000000D01*
X173992014Y-148000000D01*
X173758085Y-148030799D01*
X173530162Y-148091870D01*
X173312180Y-148182160D01*
X173312171Y-148182165D01*
X173107828Y-148300144D01*
X173107818Y-148300150D01*
X173026275Y-148362720D01*
X173026275Y-148362721D01*
X173862512Y-149198958D01*
X173802110Y-149223978D01*
X173695649Y-149295112D01*
X173605112Y-149385649D01*
X173533978Y-149492110D01*
X173508958Y-149552511D01*
X172672721Y-148716275D01*
X172672720Y-148716275D01*
X172610150Y-148797818D01*
X172610144Y-148797828D01*
X172492165Y-149002171D01*
X172492160Y-149002180D01*
X172401870Y-149220162D01*
X172340799Y-149448085D01*
X172310000Y-149682014D01*
X170630500Y-149682014D01*
X170630500Y-149674038D01*
X170591090Y-149425215D01*
X170513241Y-149185621D01*
X170513239Y-149185618D01*
X170513239Y-149185616D01*
X170463979Y-149088939D01*
X170398870Y-148961155D01*
X170379952Y-148935117D01*
X170250798Y-148757350D01*
X170250794Y-148757345D01*
X170072654Y-148579205D01*
X170072649Y-148579201D01*
X169978767Y-148510992D01*
X169868848Y-148431132D01*
X169868847Y-148431131D01*
X169868845Y-148431130D01*
X169798747Y-148395413D01*
X169644383Y-148316760D01*
X169404785Y-148238910D01*
X169223032Y-148210123D01*
X169155962Y-148199500D01*
X168904038Y-148199500D01*
X168836974Y-148210122D01*
X168655213Y-148238910D01*
X168655210Y-148238910D01*
X168415624Y-148316757D01*
X168415623Y-148316757D01*
X168318939Y-148366020D01*
X168250270Y-148378916D01*
X168185530Y-148352639D01*
X168174964Y-148343216D01*
X163821819Y-143990071D01*
X163788334Y-143928748D01*
X163785500Y-143902390D01*
X163785500Y-139381995D01*
X182699500Y-139381995D01*
X182699500Y-139618004D01*
X182699501Y-139618020D01*
X182730306Y-139852010D01*
X182791394Y-140079993D01*
X182881714Y-140298045D01*
X182881719Y-140298056D01*
X182952677Y-140420957D01*
X182999727Y-140502450D01*
X182999729Y-140502453D01*
X182999730Y-140502454D01*
X183143406Y-140689697D01*
X183143412Y-140689704D01*
X183310295Y-140856587D01*
X183310301Y-140856592D01*
X183497550Y-141000273D01*
X183628918Y-141076118D01*
X183701943Y-141118280D01*
X183701948Y-141118282D01*
X183701951Y-141118284D01*
X183920007Y-141208606D01*
X184147986Y-141269693D01*
X184381989Y-141300500D01*
X184381996Y-141300500D01*
X184618004Y-141300500D01*
X184618011Y-141300500D01*
X184852014Y-141269693D01*
X185079993Y-141208606D01*
X185298049Y-141118284D01*
X185502450Y-141000273D01*
X185689699Y-140856592D01*
X185856592Y-140689699D01*
X186000273Y-140502450D01*
X186118284Y-140298049D01*
X186208606Y-140079993D01*
X186269693Y-139852014D01*
X186300500Y-139618011D01*
X186300500Y-139381989D01*
X186269693Y-139147986D01*
X186208606Y-138920007D01*
X186118284Y-138701951D01*
X186118282Y-138701948D01*
X186118280Y-138701943D01*
X186076118Y-138628918D01*
X186000273Y-138497550D01*
X185856592Y-138310301D01*
X185856587Y-138310295D01*
X185689704Y-138143412D01*
X185689697Y-138143406D01*
X185502454Y-137999730D01*
X185502453Y-137999729D01*
X185502450Y-137999727D01*
X185420957Y-137952677D01*
X185298056Y-137881719D01*
X185298045Y-137881714D01*
X185079993Y-137791394D01*
X184852010Y-137730306D01*
X184618020Y-137699501D01*
X184618017Y-137699500D01*
X184618011Y-137699500D01*
X184381989Y-137699500D01*
X184381983Y-137699500D01*
X184381979Y-137699501D01*
X184147989Y-137730306D01*
X183920006Y-137791394D01*
X183701954Y-137881714D01*
X183701943Y-137881719D01*
X183497545Y-137999730D01*
X183310302Y-138143406D01*
X183310295Y-138143412D01*
X183143412Y-138310295D01*
X183143406Y-138310302D01*
X182999730Y-138497545D01*
X182881719Y-138701943D01*
X182881714Y-138701954D01*
X182791394Y-138920006D01*
X182730306Y-139147989D01*
X182699501Y-139381979D01*
X182699500Y-139381995D01*
X163785500Y-139381995D01*
X163785500Y-128610098D01*
X163805185Y-128543059D01*
X163821819Y-128522417D01*
X163840520Y-128503716D01*
X163919577Y-128366784D01*
X163960500Y-128214057D01*
X163960500Y-128055943D01*
X163919577Y-127903216D01*
X163875453Y-127826790D01*
X163840524Y-127766290D01*
X163840518Y-127766282D01*
X163728717Y-127654481D01*
X163728709Y-127654475D01*
X163591790Y-127575426D01*
X163591786Y-127575424D01*
X163591784Y-127575423D01*
X163439057Y-127534500D01*
X163280943Y-127534500D01*
X163128216Y-127575423D01*
X163128209Y-127575426D01*
X162991290Y-127654475D01*
X162991282Y-127654481D01*
X162879481Y-127766282D01*
X162879475Y-127766290D01*
X162800426Y-127903209D01*
X162800423Y-127903216D01*
X162759500Y-128055943D01*
X160531802Y-128055943D01*
X163107161Y-125480584D01*
X163168482Y-125447101D01*
X163226933Y-125448492D01*
X163282943Y-125463500D01*
X163282945Y-125463500D01*
X163441055Y-125463500D01*
X163441057Y-125463500D01*
X163593784Y-125422577D01*
X163730716Y-125343520D01*
X163842520Y-125231716D01*
X163921577Y-125094784D01*
X163962500Y-124942057D01*
X163962500Y-124783943D01*
X163921577Y-124631216D01*
X163921573Y-124631209D01*
X163842524Y-124494290D01*
X163842521Y-124494287D01*
X163842520Y-124494284D01*
X163842517Y-124494281D01*
X163837574Y-124487839D01*
X163839297Y-124486516D01*
X163811279Y-124435205D01*
X163816263Y-124365513D01*
X163858135Y-124309580D01*
X163870434Y-124301467D01*
X163906716Y-124280520D01*
X164018520Y-124168716D01*
X164097577Y-124031784D01*
X164138500Y-123879057D01*
X164138500Y-123720943D01*
X164097577Y-123568216D01*
X164084010Y-123544717D01*
X164018524Y-123431290D01*
X164018518Y-123431282D01*
X163906717Y-123319481D01*
X163906709Y-123319475D01*
X163769790Y-123240426D01*
X163769786Y-123240424D01*
X163769784Y-123240423D01*
X163617057Y-123199500D01*
X163458943Y-123199500D01*
X163458938Y-123199500D01*
X163436447Y-123205527D01*
X163366597Y-123203863D01*
X163308736Y-123164700D01*
X163281233Y-123100471D01*
X163292821Y-123031569D01*
X163316672Y-122998074D01*
X163733227Y-122581519D01*
X163758905Y-122561816D01*
X163762782Y-122559577D01*
X163762784Y-122559577D01*
X163899716Y-122480520D01*
X164011520Y-122368716D01*
X164090577Y-122231784D01*
X164131500Y-122079057D01*
X164131500Y-121920943D01*
X164090577Y-121768216D01*
X164090573Y-121768209D01*
X164011524Y-121631290D01*
X164011518Y-121631282D01*
X163899717Y-121519481D01*
X163899709Y-121519475D01*
X163762790Y-121440426D01*
X163762786Y-121440424D01*
X163762784Y-121440423D01*
X163610057Y-121399500D01*
X163451943Y-121399500D01*
X163299216Y-121440423D01*
X163299209Y-121440426D01*
X163162290Y-121519475D01*
X163162282Y-121519481D01*
X163050481Y-121631282D01*
X163050475Y-121631290D01*
X162971426Y-121768209D01*
X162971423Y-121768216D01*
X162930500Y-121920943D01*
X162930500Y-122079053D01*
X162930501Y-122079063D01*
X162933462Y-122090115D01*
X162931796Y-122159964D01*
X162901367Y-122209883D01*
X162388941Y-122722309D01*
X162327618Y-122755794D01*
X162257926Y-122750810D01*
X162201993Y-122708938D01*
X162193875Y-122696632D01*
X162192520Y-122694284D01*
X162080716Y-122582480D01*
X162080714Y-122582479D01*
X162080709Y-122582475D01*
X161943790Y-122503426D01*
X161943786Y-122503424D01*
X161943784Y-122503423D01*
X161791057Y-122462500D01*
X161632943Y-122462500D01*
X161580593Y-122476527D01*
X161510743Y-122474864D01*
X161452880Y-122435701D01*
X161425377Y-122371472D01*
X161424500Y-122356752D01*
X161424500Y-112535098D01*
X161444185Y-112468059D01*
X161460819Y-112447417D01*
X161465692Y-112442544D01*
X161479520Y-112428716D01*
X161558577Y-112291784D01*
X161599500Y-112139057D01*
X161599500Y-111980943D01*
X161558577Y-111828216D01*
X161518420Y-111758661D01*
X161479524Y-111691290D01*
X161479518Y-111691282D01*
X161367717Y-111579481D01*
X161367709Y-111579475D01*
X161230790Y-111500426D01*
X161230786Y-111500424D01*
X161230784Y-111500423D01*
X161078057Y-111459500D01*
X160919943Y-111459500D01*
X160767216Y-111500423D01*
X160767209Y-111500426D01*
X160630290Y-111579475D01*
X160630282Y-111579481D01*
X160518481Y-111691282D01*
X160518475Y-111691290D01*
X160439426Y-111828209D01*
X160439423Y-111828216D01*
X160398500Y-111980943D01*
X160398500Y-112139057D01*
X160435934Y-112278760D01*
X160439423Y-112291783D01*
X160439426Y-112291790D01*
X160518475Y-112428709D01*
X160518481Y-112428717D01*
X160537181Y-112447417D01*
X160570666Y-112508740D01*
X160573500Y-112535098D01*
X160573500Y-122780389D01*
X160553815Y-122847428D01*
X160537181Y-122868070D01*
X157856281Y-125548969D01*
X157794958Y-125582454D01*
X157725266Y-125577470D01*
X157676150Y-125543926D01*
X157667616Y-125534379D01*
X157663520Y-125527284D01*
X157642357Y-125506121D01*
X157640050Y-125503540D01*
X157626476Y-125474991D01*
X157611334Y-125447260D01*
X157610761Y-125441939D01*
X157610049Y-125440440D01*
X157610348Y-125438098D01*
X157608500Y-125420902D01*
X157608500Y-122536103D01*
X157608552Y-122535297D01*
X157608516Y-122492071D01*
X157608500Y-122472114D01*
X157608500Y-122415982D01*
X157608498Y-122415977D01*
X157608453Y-122415634D01*
X157608453Y-122415626D01*
X157593897Y-122361484D01*
X157579503Y-122307763D01*
X157579415Y-122307611D01*
X157579371Y-122307446D01*
X157579367Y-122307438D01*
X157579366Y-122307432D01*
X157577991Y-122305055D01*
X157551554Y-122259354D01*
X157551500Y-122259262D01*
X157523485Y-122210737D01*
X157523484Y-122210736D01*
X157523272Y-122210460D01*
X157523267Y-122210455D01*
X157523266Y-122210453D01*
X157484261Y-122171513D01*
X157444263Y-122131515D01*
X157438901Y-122126153D01*
X157438279Y-122125607D01*
X156884184Y-121572436D01*
X156884175Y-121572427D01*
X156844263Y-121532515D01*
X156844123Y-121532434D01*
X156844011Y-121532322D01*
X156843979Y-121532297D01*
X156796017Y-121504660D01*
X156795927Y-121504608D01*
X156747235Y-121476495D01*
X156746910Y-121476361D01*
X156692528Y-121461837D01*
X156692528Y-121461836D01*
X156692432Y-121461811D01*
X156692431Y-121461811D01*
X156692277Y-121461769D01*
X156691933Y-121461677D01*
X156691274Y-121461501D01*
X156639018Y-121447500D01*
X156638845Y-121447500D01*
X156638673Y-121447454D01*
X156638661Y-121447452D01*
X156582645Y-121447500D01*
X155811756Y-121447500D01*
X155782292Y-121438848D01*
X155752281Y-121432306D01*
X155747299Y-121428573D01*
X155744717Y-121427815D01*
X155724036Y-121411143D01*
X155662269Y-121349321D01*
X155657234Y-121344281D01*
X155623778Y-121282946D01*
X155628793Y-121213256D01*
X155657271Y-121168964D01*
X155768520Y-121057716D01*
X155847577Y-120920784D01*
X155888500Y-120768057D01*
X155888500Y-120609943D01*
X155847577Y-120457216D01*
X155792863Y-120362447D01*
X155768524Y-120320290D01*
X155768518Y-120320282D01*
X155749819Y-120301583D01*
X155716334Y-120240260D01*
X155713500Y-120213902D01*
X155713500Y-119311984D01*
X155713500Y-119311982D01*
X155684503Y-119203763D01*
X155628485Y-119106737D01*
X155549263Y-119027515D01*
X148114344Y-111592596D01*
X148080859Y-111531273D01*
X148084093Y-111466600D01*
X148122171Y-111349409D01*
X148130265Y-111298305D01*
X148150500Y-111170551D01*
X148150500Y-110989448D01*
X148134019Y-110885397D01*
X148122171Y-110810591D01*
X148066211Y-110638361D01*
X148066211Y-110638360D01*
X148037740Y-110582484D01*
X147983996Y-110477006D01*
X147970396Y-110458287D01*
X147877558Y-110330505D01*
X147877554Y-110330500D01*
X147749499Y-110202445D01*
X147749494Y-110202441D01*
X147602995Y-110096004D01*
X147471314Y-110028908D01*
X147420519Y-109980934D01*
X147403724Y-109913113D01*
X147426262Y-109846978D01*
X147480977Y-109803527D01*
X147489295Y-109800492D01*
X147518217Y-109791095D01*
X147707554Y-109694622D01*
X147761716Y-109655270D01*
X147761717Y-109655270D01*
X147129408Y-109022962D01*
X147192993Y-109005925D01*
X147307007Y-108940099D01*
X147400099Y-108847007D01*
X147465925Y-108732993D01*
X147482962Y-108669408D01*
X148115270Y-109301717D01*
X148115270Y-109301716D01*
X148154622Y-109247554D01*
X148251095Y-109058217D01*
X148316757Y-108856130D01*
X148316757Y-108856127D01*
X148350000Y-108646246D01*
X148350000Y-108433753D01*
X148316757Y-108223872D01*
X148316757Y-108223869D01*
X148251095Y-108021782D01*
X148154624Y-107832449D01*
X148115270Y-107778282D01*
X148115269Y-107778282D01*
X147482962Y-108410590D01*
X147465925Y-108347007D01*
X147400099Y-108232993D01*
X147307007Y-108139901D01*
X147192993Y-108074075D01*
X147129409Y-108057037D01*
X147761716Y-107424728D01*
X147707550Y-107385375D01*
X147706786Y-107384986D01*
X147706546Y-107384759D01*
X147703396Y-107382829D01*
X147703801Y-107382167D01*
X147655988Y-107337013D01*
X147639191Y-107269192D01*
X147661726Y-107203057D01*
X147716440Y-107159604D01*
X147763076Y-107150499D01*
X147894864Y-107150499D01*
X147894879Y-107150497D01*
X147894882Y-107150497D01*
X147919987Y-107147586D01*
X147919988Y-107147585D01*
X147919991Y-107147585D01*
X148022765Y-107102206D01*
X148102206Y-107022765D01*
X148147585Y-106919991D01*
X148150500Y-106894865D01*
X148150499Y-105270499D01*
X148170184Y-105203461D01*
X148222987Y-105157706D01*
X148274499Y-105146500D01*
X149571903Y-105146500D01*
X149638942Y-105166185D01*
X149659584Y-105182819D01*
X158064083Y-113587318D01*
X158068420Y-113595261D01*
X158075667Y-113600686D01*
X158084903Y-113625447D01*
X158097568Y-113648641D01*
X158096922Y-113657668D01*
X158100086Y-113666150D01*
X158094469Y-113691973D01*
X158092584Y-113718333D01*
X158086766Y-113727384D01*
X158085236Y-113734423D01*
X158064085Y-113762678D01*
X158042585Y-113784179D01*
X157981263Y-113817666D01*
X157954902Y-113820500D01*
X156909982Y-113820500D01*
X156801763Y-113849497D01*
X156801760Y-113849498D01*
X156704740Y-113905513D01*
X156704734Y-113905517D01*
X154613071Y-115997181D01*
X154551748Y-116030666D01*
X154525390Y-116033500D01*
X154498943Y-116033500D01*
X154346216Y-116074423D01*
X154346209Y-116074426D01*
X154209290Y-116153475D01*
X154209282Y-116153481D01*
X154097481Y-116265282D01*
X154097475Y-116265290D01*
X154018426Y-116402209D01*
X154018423Y-116402216D01*
X153977500Y-116554943D01*
X153977500Y-116713057D01*
X153990882Y-116762997D01*
X154018423Y-116865783D01*
X154018426Y-116865790D01*
X154097475Y-117002709D01*
X154097479Y-117002714D01*
X154097480Y-117002716D01*
X154209284Y-117114520D01*
X154209286Y-117114521D01*
X154209290Y-117114524D01*
X154260338Y-117143996D01*
X154346216Y-117193577D01*
X154498943Y-117234500D01*
X154498945Y-117234500D01*
X154657055Y-117234500D01*
X154657057Y-117234500D01*
X154809784Y-117193577D01*
X154946716Y-117114520D01*
X155058520Y-117002716D01*
X155137577Y-116865784D01*
X155178500Y-116713057D01*
X155178500Y-116686610D01*
X155198185Y-116619571D01*
X155214819Y-116598929D01*
X157105929Y-114707819D01*
X157167252Y-114674334D01*
X157193610Y-114671500D01*
X157954902Y-114671500D01*
X158021941Y-114691185D01*
X158042583Y-114707819D01*
X158061284Y-114726520D01*
X158061286Y-114726521D01*
X158061290Y-114726524D01*
X158137460Y-114770500D01*
X158198216Y-114805577D01*
X158350943Y-114846500D01*
X158350945Y-114846500D01*
X158514500Y-114846500D01*
X158581539Y-114866185D01*
X158627294Y-114918989D01*
X158638500Y-114970500D01*
X158638500Y-117181902D01*
X158618815Y-117248941D01*
X158602181Y-117269583D01*
X158492481Y-117379282D01*
X158492477Y-117379287D01*
X158449931Y-117452981D01*
X158449931Y-117452982D01*
X158413423Y-117516214D01*
X158401408Y-117561054D01*
X158372499Y-117668943D01*
X158372499Y-117668945D01*
X158372499Y-117827054D01*
X158372498Y-117827054D01*
X158401289Y-117934500D01*
X158413423Y-117979785D01*
X158415003Y-117982521D01*
X158419673Y-117990610D01*
X158492477Y-118116712D01*
X158492481Y-118116717D01*
X158604284Y-118228520D01*
X158691095Y-118278639D01*
X158691097Y-118278641D01*
X158729151Y-118300611D01*
X158741215Y-118307577D01*
X158893943Y-118348501D01*
X158893946Y-118348501D01*
X159052054Y-118348501D01*
X159052057Y-118348501D01*
X159204785Y-118307577D01*
X159254904Y-118278639D01*
X159341716Y-118228520D01*
X159453520Y-118116716D01*
X159453520Y-118116714D01*
X159463728Y-118106507D01*
X159463730Y-118106504D01*
X159607713Y-117962521D01*
X159607716Y-117962520D01*
X159719520Y-117850716D01*
X159769639Y-117763904D01*
X159798577Y-117713785D01*
X159839501Y-117561057D01*
X159839501Y-117402942D01*
X159839501Y-117395347D01*
X159839500Y-117395329D01*
X159839500Y-113833945D01*
X159839500Y-113833943D01*
X159798577Y-113681216D01*
X159755586Y-113606752D01*
X159719524Y-113544290D01*
X159719521Y-113544286D01*
X159719520Y-113544284D01*
X159607716Y-113432480D01*
X159607715Y-113432479D01*
X159603385Y-113428149D01*
X159603374Y-113428139D01*
X150359590Y-104184355D01*
X150359588Y-104184352D01*
X150240717Y-104065481D01*
X150240716Y-104065480D01*
X150153904Y-104015360D01*
X150153904Y-104015359D01*
X150153900Y-104015358D01*
X150103785Y-103986423D01*
X149951057Y-103945499D01*
X149792943Y-103945499D01*
X149785347Y-103945499D01*
X149785331Y-103945500D01*
X107750940Y-103945500D01*
X107710019Y-103956464D01*
X107710019Y-103956465D01*
X107672751Y-103966451D01*
X107598214Y-103986423D01*
X107598209Y-103986426D01*
X107461290Y-104065475D01*
X107461282Y-104065481D01*
X102776481Y-108750282D01*
X102776479Y-108750285D01*
X102726361Y-108837094D01*
X102726359Y-108837096D01*
X102697425Y-108887209D01*
X102697424Y-108887210D01*
X102697423Y-108887215D01*
X102656499Y-109039943D01*
X100300500Y-109039943D01*
X100300500Y-103381995D01*
X101699500Y-103381995D01*
X101699500Y-103618004D01*
X101699501Y-103618020D01*
X101730306Y-103852010D01*
X101791394Y-104079993D01*
X101881714Y-104298045D01*
X101881719Y-104298056D01*
X101952677Y-104420957D01*
X101999727Y-104502450D01*
X101999729Y-104502453D01*
X101999730Y-104502454D01*
X102143406Y-104689697D01*
X102143412Y-104689704D01*
X102310295Y-104856587D01*
X102310301Y-104856592D01*
X102497550Y-105000273D01*
X102628918Y-105076118D01*
X102701943Y-105118280D01*
X102701948Y-105118282D01*
X102701951Y-105118284D01*
X102920007Y-105208606D01*
X103147986Y-105269693D01*
X103381989Y-105300500D01*
X103381996Y-105300500D01*
X103618004Y-105300500D01*
X103618011Y-105300500D01*
X103852014Y-105269693D01*
X104079993Y-105208606D01*
X104298049Y-105118284D01*
X104502450Y-105000273D01*
X104689699Y-104856592D01*
X104856592Y-104689699D01*
X105000273Y-104502450D01*
X105118284Y-104298049D01*
X105208606Y-104079993D01*
X105269693Y-103852014D01*
X105300500Y-103618011D01*
X105300500Y-103381989D01*
X105269693Y-103147986D01*
X105208606Y-102920007D01*
X105118284Y-102701951D01*
X105118282Y-102701948D01*
X105118280Y-102701943D01*
X105076118Y-102628918D01*
X105000273Y-102497550D01*
X104856592Y-102310301D01*
X104856587Y-102310295D01*
X104689704Y-102143412D01*
X104689697Y-102143406D01*
X104502454Y-101999730D01*
X104502453Y-101999729D01*
X104502450Y-101999727D01*
X104420957Y-101952677D01*
X104298056Y-101881719D01*
X104298045Y-101881714D01*
X104079993Y-101791394D01*
X103955873Y-101758136D01*
X103852014Y-101730307D01*
X103852013Y-101730306D01*
X103852010Y-101730306D01*
X103618020Y-101699501D01*
X103618017Y-101699500D01*
X103618011Y-101699500D01*
X103381989Y-101699500D01*
X103381983Y-101699500D01*
X103381979Y-101699501D01*
X103147989Y-101730306D01*
X102920006Y-101791394D01*
X102701954Y-101881714D01*
X102701943Y-101881719D01*
X102497545Y-101999730D01*
X102310302Y-102143406D01*
X102310295Y-102143412D01*
X102143412Y-102310295D01*
X102143406Y-102310302D01*
X101999730Y-102497545D01*
X101881719Y-102701943D01*
X101881714Y-102701954D01*
X101791394Y-102920006D01*
X101730306Y-103147989D01*
X101699501Y-103381979D01*
X101699500Y-103381995D01*
X100300500Y-103381995D01*
X100300500Y-102004427D01*
X100300816Y-101995581D01*
X100308959Y-101881719D01*
X100317165Y-101766973D01*
X100319681Y-101749476D01*
X100367457Y-101529852D01*
X100372434Y-101512901D01*
X100450986Y-101302295D01*
X100458325Y-101286226D01*
X100566043Y-101088955D01*
X100575599Y-101074086D01*
X100710293Y-100894156D01*
X100721867Y-100880799D01*
X100880799Y-100721867D01*
X100894156Y-100710293D01*
X101074086Y-100575599D01*
X101088955Y-100566043D01*
X101286226Y-100458325D01*
X101302295Y-100450986D01*
X101512901Y-100372434D01*
X101529852Y-100367457D01*
X101749476Y-100319681D01*
X101766973Y-100317165D01*
X101995582Y-100300816D01*
X102004428Y-100300500D01*
X102047594Y-100300500D01*
X172376000Y-100300500D01*
X172443039Y-100320185D01*
G37*
%TD.AperFunction*%
%TD*%
M02*
