M48
; DRILL file {KiCad 9.0.9} date 2026-10-10T04:32:55+0000
; FORMAT={-:-/ absolute / metric / decimal}
; #@! TF.CreationDate,2026-10-10T04:32:55+00:00
; #@! TF.GenerationSoftware,Kicad,Pcbnew,9.0.9
; #@! TF.FileFunction,Plated,1,2,PTH
FMAT,2
METRIC
; #@! TA.AperFunction,Plated,PTH,ViaDrill
T1C0.300
; #@! TA.AperFunction,Plated,PTH,ComponentDrill
T2C0.300
; #@! TA.AperFunction,Plated,PTH,ComponentDrill
T3C0.600
; #@! TA.AperFunction,Plated,PTH,ComponentDrill
T4C0.950
%
G90
G05
T1
X100.751Y-132.4
X102.0Y-112.0
X102.0Y-117.0
X102.0Y-122.0
X102.0Y-127.0
X102.0Y-137.0
X102.0Y-147.0
X102.0Y-152.0
X107.0Y-102.0
X107.0Y-112.0
X107.0Y-117.0
X107.0Y-122.0
X107.0Y-137.0
X110.8Y-123.85
X111.762Y-111.53
X112.0Y-102.0
X112.0Y-122.0
X112.0Y-137.0
X112.1Y-109.472
X112.812Y-134.233
X113.475Y-150.076
X113.74Y-130.3
X113.914Y-132.496
X114.239Y-127.221
X115.839Y-109.476
X116.806Y-112.857
X117.0Y-102.0
X117.0Y-122.0
X117.0Y-127.0
X117.0Y-137.0
X117.62Y-111.395
X120.85Y-141.75
X122.0Y-112.0
X122.0Y-117.0
X122.0Y-122.0
X122.0Y-132.0
X122.0Y-137.0
X122.0Y-147.0
X127.0Y-107.0
X127.0Y-112.0
X127.0Y-117.0
X127.0Y-137.0
X127.673Y-105.343
X127.886Y-127.579
X128.936Y-101.001
X129.812Y-135.075
X130.657Y-137.653
X130.949Y-130.9
X132.0Y-112.0
X132.0Y-117.0
X132.0Y-122.0
X132.0Y-142.0
X132.23Y-104.469
X135.525Y-139.675
X136.995Y-106.742
X137.0Y-102.0
X137.0Y-112.0
X137.0Y-117.0
X137.0Y-127.0
X137.0Y-132.0
X137.0Y-137.0
X138.014Y-108.697
X138.463Y-110.466
X138.635Y-119.873
X139.019Y-143.825
X139.458Y-141.22
X140.416Y-140.095
X142.0Y-102.0
X142.0Y-107.0
X142.0Y-117.0
X142.0Y-127.0
X142.0Y-132.0
X142.0Y-137.0
X142.284Y-123.35
X142.491Y-144.715
X143.718Y-117.929
X144.408Y-139.858
X144.785Y-118.562
X147.0Y-102.0
X147.0Y-107.0
X147.0Y-112.0
X147.0Y-127.0
X147.0Y-132.0
X147.0Y-147.0
X148.216Y-114.83
X149.362Y-141.652
X152.0Y-102.0
X152.0Y-107.0
X152.0Y-122.0
X152.0Y-127.0
X152.0Y-137.0
X152.0Y-147.0
X152.732Y-117.934
X153.836Y-119.446
X153.995Y-118.553
X157.0Y-137.0
X157.0Y-147.0
X157.904Y-120.7
X157.978Y-118.937
X158.852Y-143.264
X159.216Y-140.488
X159.851Y-141.365
X160.155Y-140.136
X160.526Y-114.7
X160.541Y-136.976
X160.742Y-146.635
X161.153Y-116.81
X161.75Y-113.0
X162.0Y-122.0
X162.0Y-127.0
X162.091Y-117.172
X163.495Y-151.6
X163.679Y-116.2
X164.09Y-131.275
X164.373Y-142.635
X164.445Y-144.515
X165.584Y-144.085
X166.682Y-114.7
X167.0Y-147.0
X168.097Y-139.499
X172.0Y-122.0
X172.0Y-127.0
X176.259Y-130.466
X177.0Y-127.0
X178.015Y-122.268
X182.0Y-117.0
X182.0Y-122.0
X182.0Y-127.0
X182.0Y-132.0
X182.0Y-137.0
X182.0Y-142.0
X182.0Y-147.0
T2
X168.36Y-118.8
X168.36Y-120.0
X169.56Y-118.8
X169.56Y-120.0
T4
X104.0Y-150.4
X106.5Y-150.4
X109.0Y-150.4
X111.5Y-150.4
X118.0Y-150.4
X120.5Y-150.4
X123.0Y-150.4
X125.5Y-150.4
X157.0Y-150.4
X159.5Y-150.4
X162.0Y-150.4
T3
X110.18Y-103.45G85X110.18Y-102.85
G05
X110.18Y-107.88G85X110.18Y-106.78
G05
X118.82Y-103.45G85X118.82Y-102.85
G05
X118.82Y-107.88G85X118.82Y-106.78
G05
M30
