%TF.GenerationSoftware,KiCad,Pcbnew,9.0.9*%
%TF.CreationDate,2026-10-10T04:32:54+00:00*%
%TF.ProjectId,AP_Gate,41505f47-6174-4652-9e6b-696361645f70,rev?*%
%TF.SameCoordinates,Original*%
%TF.FileFunction,Paste,Top*%
%TF.FilePolarity,Positive*%
%FSLAX46Y46*%
G04 Gerber Fmt 4.6, Leading zero omitted, Abs format (unit mm)*
G04 Created by KiCad (PCBNEW 9.0.9) date 2026-10-10 04:32:54*
%MOMM*%
%LPD*%
G01*
G04 APERTURE LIST*
G04 Aperture macros list*
%AMRoundRect*
0 Rectangle with rounded corners*
0 $1 Rounding radius*
0 $2 $3 $4 $5 $6 $7 $8 $9 X,Y pos of 4 corners*
0 Add a 4 corners polygon primitive as box body*
4,1,4,$2,$3,$4,$5,$6,$7,$8,$9,$2,$3,0*
0 Add four circle primitives for the rounded corners*
1,1,$1+$1,$2,$3*
1,1,$1+$1,$4,$5*
1,1,$1+$1,$6,$7*
1,1,$1+$1,$8,$9*
0 Add four rect primitives between the rounded corners*
20,1,$1+$1,$2,$3,$4,$5,0*
20,1,$1+$1,$4,$5,$6,$7,0*
20,1,$1+$1,$6,$7,$8,$9,0*
20,1,$1+$1,$8,$9,$2,$3,0*%
G04 Aperture macros list end*
%ADD10RoundRect,0.200000X-0.200000X-0.275000X0.200000X-0.275000X0.200000X0.275000X-0.200000X0.275000X0*%
%ADD11RoundRect,0.218750X-0.218750X-0.256250X0.218750X-0.256250X0.218750X0.256250X-0.218750X0.256250X0*%
%ADD12RoundRect,0.225000X-0.225000X-0.250000X0.225000X-0.250000X0.225000X0.250000X-0.225000X0.250000X0*%
%ADD13RoundRect,0.250000X-0.312500X-0.625000X0.312500X-0.625000X0.312500X0.625000X-0.312500X0.625000X0*%
%ADD14R,0.600000X1.450000*%
%ADD15R,0.300000X1.450000*%
%ADD16RoundRect,0.250000X0.650000X-0.325000X0.650000X0.325000X-0.650000X0.325000X-0.650000X-0.325000X0*%
%ADD17RoundRect,0.225000X0.250000X-0.225000X0.250000X0.225000X-0.250000X0.225000X-0.250000X-0.225000X0*%
%ADD18RoundRect,0.250000X-1.000000X-0.900000X1.000000X-0.900000X1.000000X0.900000X-1.000000X0.900000X0*%
%ADD19RoundRect,0.250000X-0.250000X-0.475000X0.250000X-0.475000X0.250000X0.475000X-0.250000X0.475000X0*%
%ADD20RoundRect,0.200000X0.275000X-0.200000X0.275000X0.200000X-0.275000X0.200000X-0.275000X-0.200000X0*%
%ADD21RoundRect,0.150000X-0.825000X-0.150000X0.825000X-0.150000X0.825000X0.150000X-0.825000X0.150000X0*%
%ADD22RoundRect,0.250000X-0.300000X-1.600000X0.300000X-1.600000X0.300000X1.600000X-0.300000X1.600000X0*%
%ADD23RoundRect,0.250000X0.325000X0.650000X-0.325000X0.650000X-0.325000X-0.650000X0.325000X-0.650000X0*%
%ADD24RoundRect,0.150000X-0.512500X-0.150000X0.512500X-0.150000X0.512500X0.150000X-0.512500X0.150000X0*%
%ADD25RoundRect,0.250000X-0.375000X-0.625000X0.375000X-0.625000X0.375000X0.625000X-0.375000X0.625000X0*%
%ADD26RoundRect,0.250000X0.650000X-1.000000X0.650000X1.000000X-0.650000X1.000000X-0.650000X-1.000000X0*%
%ADD27RoundRect,0.150000X0.150000X0.625000X-0.150000X0.625000X-0.150000X-0.625000X0.150000X-0.625000X0*%
%ADD28RoundRect,0.250000X0.350000X0.650000X-0.350000X0.650000X-0.350000X-0.650000X0.350000X-0.650000X0*%
%ADD29RoundRect,0.225000X-0.225000X-0.375000X0.225000X-0.375000X0.225000X0.375000X-0.225000X0.375000X0*%
%ADD30R,1.000000X0.750000*%
%ADD31RoundRect,0.150000X-0.587500X-0.150000X0.587500X-0.150000X0.587500X0.150000X-0.587500X0.150000X0*%
%ADD32R,0.700000X0.700000*%
%ADD33R,1.500000X0.900000*%
%ADD34RoundRect,0.250000X-1.000000X-0.650000X1.000000X-0.650000X1.000000X0.650000X-1.000000X0.650000X0*%
G04 APERTURE END LIST*
D10*
%TO.C,R6*%
X139175000Y-111300000D03*
X140825000Y-111300000D03*
%TD*%
D11*
%TO.C,D6*%
X177212500Y-136400000D03*
X178787500Y-136400000D03*
%TD*%
D12*
%TO.C,C12*%
X134225000Y-138000000D03*
X135775000Y-138000000D03*
%TD*%
D10*
%TO.C,R5*%
X139175000Y-109500000D03*
X140825000Y-109500000D03*
%TD*%
D13*
%TO.C,RT*%
X133537500Y-150400000D03*
X136462500Y-150400000D03*
%TD*%
D14*
%TO.C,J5*%
X117750000Y-108245000D03*
X116950000Y-108245000D03*
D15*
X115750000Y-108245000D03*
X114750000Y-108245000D03*
X114250000Y-108245000D03*
X113250000Y-108245000D03*
D14*
X112050000Y-108245000D03*
X111250000Y-108245000D03*
X111250000Y-108245000D03*
X112050000Y-108245000D03*
D15*
X112750000Y-108245000D03*
X113750000Y-108245000D03*
X115250000Y-108245000D03*
X116250000Y-108245000D03*
D14*
X116950000Y-108245000D03*
X117750000Y-108245000D03*
%TD*%
D16*
%TO.C,C2*%
X127000000Y-143475000D03*
X127000000Y-140525000D03*
%TD*%
D10*
%TO.C,R10*%
X177175000Y-134600000D03*
X178825000Y-134600000D03*
%TD*%
D17*
%TO.C,C14*%
X154000000Y-142775000D03*
X154000000Y-141225000D03*
%TD*%
D12*
%TO.C,C4*%
X149225000Y-120000000D03*
X150775000Y-120000000D03*
%TD*%
D18*
%TO.C,D2*%
X118850000Y-142000000D03*
X123150000Y-142000000D03*
%TD*%
D12*
%TO.C,C8*%
X125225000Y-122300000D03*
X126775000Y-122300000D03*
%TD*%
D19*
%TO.C,C11*%
X130050000Y-132200000D03*
X131950000Y-132200000D03*
%TD*%
D10*
%TO.C,RPB*%
X169175000Y-139600000D03*
X170825000Y-139600000D03*
%TD*%
D20*
%TO.C,R3*%
X118600000Y-112425000D03*
X118600000Y-110775000D03*
%TD*%
D10*
%TO.C,RB1*%
X104175000Y-135000000D03*
X105825000Y-135000000D03*
%TD*%
D21*
%TO.C,U6*%
X157525000Y-140095000D03*
X157525000Y-141365000D03*
X157525000Y-142635000D03*
X157525000Y-143905000D03*
X162475000Y-143905000D03*
X162475000Y-142635000D03*
X162475000Y-141365000D03*
X162475000Y-140095000D03*
%TD*%
D22*
%TO.C,L2*%
X129500000Y-125200000D03*
X132500000Y-125200000D03*
%TD*%
D16*
%TO.C,C6*%
X115600000Y-135075000D03*
X115600000Y-132125000D03*
%TD*%
D19*
%TO.C,C1*%
X149050000Y-113000000D03*
X150950000Y-113000000D03*
%TD*%
D10*
%TO.C,RPA*%
X165175000Y-139600000D03*
X166825000Y-139600000D03*
%TD*%
D23*
%TO.C,C7*%
X106075000Y-132400000D03*
X103125000Y-132400000D03*
%TD*%
D24*
%TO.C,U3*%
X113362500Y-111450000D03*
X113362500Y-112400000D03*
X113362500Y-113350000D03*
X115637500Y-113350000D03*
X115637500Y-112400000D03*
X115637500Y-111450000D03*
%TD*%
D25*
%TO.C,F1*%
X103600000Y-142000000D03*
X106400000Y-142000000D03*
%TD*%
D24*
%TO.C,U2*%
X109862500Y-130050000D03*
X109862500Y-131000000D03*
X109862500Y-131950000D03*
X112137500Y-131950000D03*
X112137500Y-131000000D03*
X112137500Y-130050000D03*
%TD*%
D26*
%TO.C,D4*%
X115600000Y-129000000D03*
X115600000Y-125000000D03*
%TD*%
D10*
%TO.C,R1*%
X149175000Y-118000000D03*
X150825000Y-118000000D03*
%TD*%
D27*
%TO.C,J3*%
X131500000Y-105600000D03*
X130500000Y-105600000D03*
X129500000Y-105600000D03*
X128500000Y-105600000D03*
D28*
X132800000Y-101725000D03*
X127200000Y-101725000D03*
%TD*%
D12*
%TO.C,C13*%
X144225000Y-138000000D03*
X145775000Y-138000000D03*
%TD*%
D20*
%TO.C,R4*%
X110400000Y-112425000D03*
X110400000Y-110775000D03*
%TD*%
D21*
%TO.C,U4*%
X137525000Y-140095000D03*
X137525000Y-141365000D03*
X137525000Y-142635000D03*
X137525000Y-143905000D03*
X142475000Y-143905000D03*
X142475000Y-142635000D03*
X142475000Y-141365000D03*
X142475000Y-140095000D03*
%TD*%
D29*
%TO.C,D3*%
X112850000Y-117000000D03*
X116150000Y-117000000D03*
%TD*%
D10*
%TO.C,R9*%
X177175000Y-130500000D03*
X178825000Y-130500000D03*
%TD*%
D30*
%TO.C,SW2*%
X167000000Y-131625000D03*
X173000000Y-131625000D03*
X167000000Y-135375000D03*
X173000000Y-135375000D03*
%TD*%
D10*
%TO.C,RDE*%
X153175000Y-146200000D03*
X154825000Y-146200000D03*
%TD*%
D11*
%TO.C,D5*%
X177212500Y-132300000D03*
X178787500Y-132300000D03*
%TD*%
D31*
%TO.C,D7*%
X167062500Y-143050000D03*
X167062500Y-144950000D03*
X168937500Y-144000000D03*
%TD*%
D16*
%TO.C,C9*%
X122000000Y-126475000D03*
X122000000Y-123525000D03*
%TD*%
D12*
%TO.C,C3*%
X149225000Y-115000000D03*
X150775000Y-115000000D03*
%TD*%
D32*
%TO.C,U1*%
X167860000Y-118300000D03*
X167860000Y-119400000D03*
X167860000Y-120500000D03*
X168960000Y-118300000D03*
X168960000Y-119400000D03*
X168960000Y-120500000D03*
X170060000Y-118300000D03*
X170060000Y-119400000D03*
X170060000Y-120500000D03*
D33*
X159250000Y-113200000D03*
X159250000Y-114700000D03*
X159250000Y-116200000D03*
X159250000Y-117700000D03*
X159250000Y-119200000D03*
X159250000Y-120700000D03*
X159250000Y-122200000D03*
X159250000Y-123700000D03*
X159250000Y-125200000D03*
X176750000Y-125200000D03*
X176750000Y-123700000D03*
X176750000Y-122200000D03*
X176750000Y-120700000D03*
X176750000Y-119200000D03*
X176750000Y-117700000D03*
X176750000Y-116200000D03*
X176750000Y-114700000D03*
X176750000Y-113200000D03*
%TD*%
D17*
%TO.C,C5*%
X107800000Y-130575000D03*
X107800000Y-129025000D03*
%TD*%
D19*
%TO.C,C10*%
X130050000Y-129600000D03*
X131950000Y-129600000D03*
%TD*%
D10*
%TO.C,RB2*%
X108775000Y-135000000D03*
X110425000Y-135000000D03*
%TD*%
D24*
%TO.C,U5*%
X124862500Y-124050000D03*
X124862500Y-125000000D03*
X124862500Y-125950000D03*
X127137500Y-125950000D03*
X127137500Y-125000000D03*
X127137500Y-124050000D03*
%TD*%
D30*
%TO.C,SW1*%
X157000000Y-131625000D03*
X163000000Y-131625000D03*
X157000000Y-135375000D03*
X163000000Y-135375000D03*
%TD*%
D22*
%TO.C,L1*%
X109500000Y-126000000D03*
X112500000Y-126000000D03*
%TD*%
D10*
%TO.C,R2*%
X149175000Y-123000000D03*
X150825000Y-123000000D03*
%TD*%
D34*
%TO.C,D1*%
X110000000Y-142000000D03*
X114000000Y-142000000D03*
%TD*%
D13*
%TO.C,RT2*%
X169537500Y-148400000D03*
X172462500Y-148400000D03*
%TD*%
M02*
