M48
; DRILL file {KiCad 9.0.9} date 2026-10-10T08:08:36+0000
; FORMAT={-:-/ absolute / metric / decimal}
; #@! TF.CreationDate,2026-10-10T08:08:36+00:00
; #@! TF.GenerationSoftware,Kicad,Pcbnew,9.0.9
; #@! TF.FileFunction,Plated,1,4,PTH
FMAT,2
METRIC
; #@! TA.AperFunction,Plated,PTH,ViaDrill
T1C0.300
; #@! TA.AperFunction,Plated,PTH,ComponentDrill
T2C0.600
; #@! TA.AperFunction,Plated,PTH,ComponentDrill
T3C1.700
; #@! TA.AperFunction,Plated,PTH,ComponentDrill
T4C1.780
; #@! TA.AperFunction,Plated,PTH,ComponentDrill
T5C2.700
%
G90
G05
T1
X100.751Y-102.251
X100.751Y-117.7
X100.751Y-121.152
X100.751Y-125.036
X100.751Y-127.4
X101.55Y-118.514
X101.55Y-124.1
X102.0Y-107.0
X102.0Y-112.0
X102.0Y-132.0
X102.0Y-142.0
X103.258Y-123.598
X104.35Y-149.9
X105.475Y-125.977
X106.6Y-123.6
X106.822Y-130.506
X107.0Y-107.0
X107.0Y-112.0
X107.0Y-142.0
X107.568Y-127.209
X107.716Y-121.316
X108.4Y-127.0
X110.7Y-151.25
X112.0Y-112.0
X112.0Y-142.0
X112.936Y-101.001
X113.8Y-122.194
X113.901Y-150.0
X115.2Y-131.4
X116.936Y-105.152
X117.0Y-112.0
X117.0Y-122.0
X117.0Y-147.0
X122.0Y-112.0
X122.0Y-127.0
X122.313Y-131.55
X123.022Y-125.801
X126.305Y-135.773
X126.422Y-125.712
X126.606Y-112.566
X128.882Y-112.0
X129.101Y-117.7
X129.212Y-130.39
X129.276Y-138.25
X129.96Y-102.273
X130.054Y-127.405
X130.2Y-137.129
X130.5Y-131.6
X130.96Y-103.398
X131.115Y-124.865
X131.479Y-110.69
X131.6Y-136.1
X131.876Y-127.405
X132.497Y-119.126
X132.57Y-120.225
X132.8Y-136.1
X132.875Y-117.7
X133.739Y-119.018
X134.0Y-136.1
X134.0Y-137.3
X134.502Y-131.71
X135.951Y-136.023
X135.951Y-138.657
X137.0Y-112.0
X137.0Y-147.0
X138.168Y-107.642
X138.791Y-104.603
X142.0Y-147.0
X144.182Y-112.0
X144.401Y-117.7
X145.175Y-103.125
X145.586Y-109.546
X145.595Y-137.145
X145.8Y-131.6
X146.9Y-136.1
X147.0Y-147.0
X148.1Y-136.1
X148.175Y-112.977
X148.175Y-117.7
X148.534Y-119.018
X149.3Y-136.1
X149.3Y-137.3
X150.455Y-141.157
X151.25Y-136.023
X152.0Y-127.0
X152.0Y-147.0
X156.936Y-101.001
X157.0Y-127.0
X157.0Y-132.0
X157.0Y-147.0
X157.761Y-124.252
X158.304Y-108.275
X158.375Y-130.573
X159.218Y-112.258
X159.701Y-117.7
X159.713Y-119.716
X159.897Y-108.599
X160.137Y-112.29
X160.895Y-137.158
X161.005Y-106.238
X161.011Y-128.461
X161.083Y-131.6
X161.308Y-105.049
X162.0Y-122.0
X162.0Y-147.0
X162.004Y-124.865
X162.2Y-136.1
X163.4Y-136.1
X163.475Y-112.961
X163.475Y-117.7
X163.796Y-119.018
X164.6Y-136.1
X164.6Y-137.3
X165.064Y-132.525
X166.55Y-136.023
X167.0Y-102.0
X167.0Y-142.0
X167.0Y-147.0
X167.149Y-120.225
X169.045Y-122.262
X171.851Y-125.96
X171.93Y-130.904
X172.0Y-102.0
X172.0Y-132.0
X174.782Y-112.0
X175.001Y-117.7
X175.05Y-138.623
X175.532Y-137.438
X176.92Y-132.528
X177.0Y-102.0
X177.0Y-107.0
X177.5Y-136.1
X178.7Y-136.1
X179.9Y-136.1
X179.9Y-137.3
X182.0Y-102.0
X182.0Y-107.0
X182.0Y-112.0
X182.0Y-122.0
X182.0Y-127.0
X182.0Y-132.0
X182.0Y-137.0
X182.0Y-142.0
X182.0Y-147.0
T3
X123.3Y-150.4
X127.26Y-150.4
X138.6Y-150.4
X142.56Y-150.4
X153.9Y-150.4
X157.86Y-150.4
X169.2Y-150.4
X173.16Y-150.4
T4
X121.6Y-124.0
X121.6Y-133.92
X125.0Y-124.0
X125.0Y-133.92
X136.9Y-124.0
X136.9Y-133.92
X140.3Y-124.0
X140.3Y-133.92
X152.2Y-124.0
X152.2Y-133.92
X155.6Y-124.0
X155.6Y-133.92
X167.5Y-124.0
X167.5Y-133.92
X170.9Y-124.0
X170.9Y-133.92
T5
X117.0Y-136.8
X117.0Y-144.0
T2
X110.45Y-133.65G85X111.55Y-133.65
G05
X110.45Y-147.15G85X111.55Y-147.15
G05
M30
