%TF.GenerationSoftware,KiCad,Pcbnew,9.0.9*%
%TF.CreationDate,2026-10-10T08:08:36+00:00*%
%TF.ProjectId,AP_PWM4,41505f50-574d-4342-9e6b-696361645f70,rev?*%
%TF.SameCoordinates,Original*%
%TF.FileFunction,Copper,L2,Inr*%
%TF.FilePolarity,Positive*%
%FSLAX46Y46*%
G04 Gerber Fmt 4.6, Leading zero omitted, Abs format (unit mm)*
G04 Created by KiCad (PCBNEW 9.0.9) date 2026-10-10 08:08:36*
%MOMM*%
%LPD*%
G01*
G04 APERTURE LIST*
G04 Aperture macros list*
%AMRoundRect*
0 Rectangle with rounded corners*
0 $1 Rounding radius*
0 $2 $3 $4 $5 $6 $7 $8 $9 X,Y pos of 4 corners*
0 Add a 4 corners polygon primitive as box body*
4,1,4,$2,$3,$4,$5,$6,$7,$8,$9,$2,$3,0*
0 Add four circle primitives for the rounded corners*
1,1,$1+$1,$2,$3*
1,1,$1+$1,$4,$5*
1,1,$1+$1,$6,$7*
1,1,$1+$1,$8,$9*
0 Add four rect primitives between the rounded corners*
20,1,$1+$1,$2,$3,$4,$5,0*
20,1,$1+$1,$4,$5,$6,$7,0*
20,1,$1+$1,$6,$7,$8,$9,0*
20,1,$1+$1,$8,$9,$2,$3,0*%
G04 Aperture macros list end*
%TA.AperFunction,ComponentPad*%
%ADD10RoundRect,0.250001X-1.099999X-1.099999X1.099999X-1.099999X1.099999X1.099999X-1.099999X1.099999X0*%
%TD*%
%TA.AperFunction,ComponentPad*%
%ADD11C,2.700000*%
%TD*%
%TA.AperFunction,ComponentPad*%
%ADD12R,2.000000X0.900000*%
%TD*%
%TA.AperFunction,ComponentPad*%
%ADD13RoundRect,1.025000X1.025000X-1.025000X1.025000X1.025000X-1.025000X1.025000X-1.025000X-1.025000X0*%
%TD*%
%TA.AperFunction,ComponentPad*%
%ADD14C,4.100000*%
%TD*%
%TA.AperFunction,ComponentPad*%
%ADD15C,2.780000*%
%TD*%
%TA.AperFunction,ViaPad*%
%ADD16C,0.600000*%
%TD*%
G04 APERTURE END LIST*
D10*
%TO.N,/OUT3*%
%TO.C,J4*%
X153900000Y-150400000D03*
D11*
%TO.N,/CH3*%
X157860000Y-150400000D03*
%TD*%
D12*
%TO.N,*%
%TO.C,J1*%
X111000000Y-147150000D03*
X111000000Y-133650000D03*
D13*
%TO.N,/PGND*%
X117000000Y-144000000D03*
D14*
%TO.N,/VIN*%
X117000000Y-136800000D03*
%TD*%
D15*
%TO.N,/VIN*%
%TO.C,F1*%
X125000000Y-124000000D03*
X121600000Y-124000000D03*
%TO.N,/OUT1*%
X125000000Y-133920000D03*
X121600000Y-133920000D03*
%TD*%
D10*
%TO.N,/OUT4*%
%TO.C,J5*%
X169200000Y-150400000D03*
D11*
%TO.N,/CH4*%
X173160000Y-150400000D03*
%TD*%
D10*
%TO.N,/OUT1*%
%TO.C,J2*%
X123300000Y-150400000D03*
D11*
%TO.N,/CH1*%
X127260000Y-150400000D03*
%TD*%
D15*
%TO.N,/VIN*%
%TO.C,F4*%
X170900000Y-124000000D03*
X167500000Y-124000000D03*
%TO.N,/OUT4*%
X170900000Y-133920000D03*
X167500000Y-133920000D03*
%TD*%
%TO.N,/VIN*%
%TO.C,F3*%
X155600000Y-124000000D03*
X152200000Y-124000000D03*
%TO.N,/OUT3*%
X155600000Y-133920000D03*
X152200000Y-133920000D03*
%TD*%
%TO.N,/VIN*%
%TO.C,F2*%
X140300000Y-124000000D03*
X136900000Y-124000000D03*
%TO.N,/OUT2*%
X140300000Y-133920000D03*
X136900000Y-133920000D03*
%TD*%
D10*
%TO.N,/OUT2*%
%TO.C,J3*%
X138600000Y-150400000D03*
D11*
%TO.N,/CH2*%
X142560000Y-150400000D03*
%TD*%
D16*
%TO.N,/GND*%
X182000000Y-102000000D03*
X161005000Y-106238000D03*
X145586278Y-109546500D03*
X102000000Y-112000000D03*
X137000000Y-112000000D03*
X177000000Y-107000000D03*
X182000000Y-107000000D03*
X160137000Y-112290000D03*
X117000000Y-112000000D03*
X112000000Y-112000000D03*
X102000000Y-107000000D03*
X163475315Y-112960644D03*
X167000000Y-102000000D03*
X144182257Y-112000500D03*
X116936396Y-105151677D03*
X159897022Y-108598500D03*
X130960009Y-103398500D03*
X112936395Y-101000500D03*
X145175499Y-103124986D03*
X182000000Y-112000000D03*
X107000000Y-112000000D03*
X177000000Y-102000000D03*
X100750500Y-102250500D03*
X148175315Y-112977127D03*
X156936395Y-101000500D03*
X122000000Y-112000000D03*
X107000000Y-107000000D03*
X174782257Y-112000500D03*
X172000000Y-102000000D03*
X128882257Y-112000500D03*
%TO.N,/SDA*%
X138791000Y-104603000D03*
X129960000Y-102273000D03*
%TO.N,/AD1*%
X138168000Y-107642000D03*
X161308000Y-105049000D03*
%TO.N,/PW1*%
X131479000Y-110690000D03*
X126606000Y-112566000D03*
%TO.N,/PW3*%
X158304000Y-108275000D03*
X159218000Y-112258000D03*
%TO.N,/PGND*%
X108400000Y-127000000D03*
X117000000Y-147000000D03*
X144401114Y-117700000D03*
X167000000Y-147000000D03*
X167000000Y-142000000D03*
X182000000Y-147000000D03*
X172000000Y-132000000D03*
X166550500Y-136022615D03*
X175050500Y-138623019D03*
X132875315Y-117700000D03*
X122312710Y-131550500D03*
X131600000Y-136100000D03*
X113800500Y-122193682D03*
X152000000Y-127000000D03*
X112000000Y-142000000D03*
X159701114Y-117700000D03*
X146900000Y-136100000D03*
X129276436Y-138249943D03*
X163795637Y-119018427D03*
X135950500Y-136022615D03*
X163475315Y-117700000D03*
X164600000Y-137300000D03*
X177500000Y-136100000D03*
X182000000Y-122000000D03*
X102000000Y-142000000D03*
X107000000Y-142000000D03*
X129101114Y-117700000D03*
X126421888Y-125712429D03*
X147000000Y-147000000D03*
X148100000Y-136100000D03*
X164600000Y-136100000D03*
X100750500Y-117700000D03*
X182000000Y-142000000D03*
X179900000Y-136100000D03*
X126305500Y-135772615D03*
X162000000Y-147000000D03*
X178700000Y-136100000D03*
X148534339Y-119018427D03*
X100750500Y-121151677D03*
X137000000Y-147000000D03*
X106822030Y-130505696D03*
X133738746Y-119018427D03*
X142000000Y-147000000D03*
X165063612Y-132524943D03*
X182000000Y-132000000D03*
X100750500Y-125036132D03*
X157000000Y-132000000D03*
X157000000Y-147000000D03*
X117000000Y-122000000D03*
X151250500Y-136022615D03*
X123021888Y-125800672D03*
X122000000Y-127000000D03*
X134000000Y-136100000D03*
X113900645Y-150000013D03*
X152000000Y-147000000D03*
X182000000Y-127000000D03*
X102000000Y-132000000D03*
X132800000Y-136100000D03*
X107567943Y-127209449D03*
X100750500Y-127400013D03*
X157000000Y-127000000D03*
X134000000Y-137300000D03*
X149300000Y-137300000D03*
X150455499Y-141156898D03*
X135950500Y-138656898D03*
X162200000Y-136100000D03*
X169045146Y-122262500D03*
X182000000Y-137000000D03*
X149300000Y-136100000D03*
X179900000Y-137300000D03*
X175001114Y-117700000D03*
X163400000Y-136100000D03*
X162000000Y-122000000D03*
X148175315Y-117700000D03*
%TO.N,/VIN*%
X115200000Y-131400000D03*
X104350000Y-149900000D03*
X101550000Y-124100000D03*
X110700000Y-151250000D03*
X106600000Y-123600000D03*
%TO.N,/V12*%
X107716000Y-121316000D03*
X105475000Y-125977000D03*
%TO.N,/V5*%
X101550000Y-118514000D03*
X132497000Y-119126000D03*
X103258000Y-123598000D03*
%TO.N,/IN2*%
X130054000Y-127405000D03*
X132570000Y-120225000D03*
%TO.N,/GO2*%
X131876000Y-127405000D03*
X134502000Y-131710000D03*
%TO.N,/GO1*%
X129212000Y-130390000D03*
X131115000Y-124865000D03*
%TO.N,/IN3*%
X159713000Y-119716000D03*
X157761000Y-124252000D03*
%TO.N,/IN4*%
X161011000Y-128461000D03*
X167149000Y-120225000D03*
%TO.N,/GO4*%
X171930000Y-130904000D03*
X171851000Y-125960000D03*
%TO.N,/GO3*%
X158375000Y-130573000D03*
X162004000Y-124865000D03*
%TO.N,/G1*%
X130200000Y-137129000D03*
X130500000Y-131600000D03*
%TO.N,/G2*%
X145595000Y-137145000D03*
X145800000Y-131600000D03*
%TO.N,/G3*%
X161083000Y-131600000D03*
X160895000Y-137158000D03*
%TO.N,/G4*%
X176920000Y-132528000D03*
X175532000Y-137438000D03*
%TD*%
%TA.AperFunction,Conductor*%
%TO.N,/PGND*%
G36*
X187642539Y-117019685D02*
G01*
X187688294Y-117072489D01*
X187699500Y-117124000D01*
X187699500Y-153995572D01*
X187699184Y-154004419D01*
X187682833Y-154233019D01*
X187680315Y-154250529D01*
X187680315Y-154250530D01*
X187632544Y-154470133D01*
X187627560Y-154487109D01*
X187549016Y-154697691D01*
X187541666Y-154713783D01*
X187433961Y-154911032D01*
X187424396Y-154925917D01*
X187289708Y-155105838D01*
X187278123Y-155119207D01*
X187119208Y-155278122D01*
X187105838Y-155289708D01*
X186925917Y-155424396D01*
X186911032Y-155433961D01*
X186713783Y-155541666D01*
X186697691Y-155549016D01*
X186487109Y-155627560D01*
X186470136Y-155632543D01*
X186470133Y-155632544D01*
X186250530Y-155680315D01*
X186233019Y-155682833D01*
X186025320Y-155697688D01*
X186004417Y-155699184D01*
X185995572Y-155699500D01*
X102004428Y-155699500D01*
X101995582Y-155699184D01*
X101766982Y-155682834D01*
X101749470Y-155680316D01*
X101529862Y-155632543D01*
X101512887Y-155627559D01*
X101302311Y-155549019D01*
X101286217Y-155541669D01*
X101088963Y-155433959D01*
X101074080Y-155424394D01*
X100894163Y-155289710D01*
X100880792Y-155278124D01*
X100721875Y-155119207D01*
X100710289Y-155105836D01*
X100575605Y-154925919D01*
X100566040Y-154911036D01*
X100458330Y-154713782D01*
X100450983Y-154697694D01*
X100372437Y-154487103D01*
X100367458Y-154470144D01*
X100319683Y-154250529D01*
X100317165Y-154233017D01*
X100308959Y-154118284D01*
X100300816Y-154004418D01*
X100300500Y-153995572D01*
X100300500Y-152381995D01*
X182699500Y-152381995D01*
X182699500Y-152618004D01*
X182699501Y-152618020D01*
X182730306Y-152852010D01*
X182791394Y-153079993D01*
X182881714Y-153298045D01*
X182881719Y-153298056D01*
X182952677Y-153420957D01*
X182999727Y-153502450D01*
X182999729Y-153502453D01*
X182999730Y-153502454D01*
X183143406Y-153689697D01*
X183143412Y-153689704D01*
X183310295Y-153856587D01*
X183310301Y-153856592D01*
X183497550Y-154000273D01*
X183628918Y-154076118D01*
X183701943Y-154118280D01*
X183701948Y-154118282D01*
X183701951Y-154118284D01*
X183920007Y-154208606D01*
X184147986Y-154269693D01*
X184381989Y-154300500D01*
X184381996Y-154300500D01*
X184618004Y-154300500D01*
X184618011Y-154300500D01*
X184852014Y-154269693D01*
X185079993Y-154208606D01*
X185298049Y-154118284D01*
X185502450Y-154000273D01*
X185689699Y-153856592D01*
X185856592Y-153689699D01*
X186000273Y-153502450D01*
X186118284Y-153298049D01*
X186208606Y-153079993D01*
X186269693Y-152852014D01*
X186300500Y-152618011D01*
X186300500Y-152381989D01*
X186269693Y-152147986D01*
X186208606Y-151920007D01*
X186118284Y-151701951D01*
X186118282Y-151701948D01*
X186118280Y-151701943D01*
X186070224Y-151618709D01*
X186000273Y-151497550D01*
X185870983Y-151329056D01*
X185856593Y-151310302D01*
X185856587Y-151310295D01*
X185689704Y-151143412D01*
X185689697Y-151143406D01*
X185502454Y-150999730D01*
X185502453Y-150999729D01*
X185502450Y-150999727D01*
X185420957Y-150952677D01*
X185298056Y-150881719D01*
X185298045Y-150881714D01*
X185079993Y-150791394D01*
X184852010Y-150730306D01*
X184618020Y-150699501D01*
X184618017Y-150699500D01*
X184618011Y-150699500D01*
X184381989Y-150699500D01*
X184381983Y-150699500D01*
X184381979Y-150699501D01*
X184147989Y-150730306D01*
X183920006Y-150791394D01*
X183701954Y-150881714D01*
X183701943Y-150881719D01*
X183497545Y-150999730D01*
X183310302Y-151143406D01*
X183310295Y-151143412D01*
X183143412Y-151310295D01*
X183143406Y-151310302D01*
X182999730Y-151497545D01*
X182881719Y-151701943D01*
X182881714Y-151701954D01*
X182791394Y-151920006D01*
X182730306Y-152147989D01*
X182699501Y-152381979D01*
X182699500Y-152381995D01*
X100300500Y-152381995D01*
X100300500Y-151170943D01*
X110099500Y-151170943D01*
X110099500Y-151329056D01*
X110140423Y-151481783D01*
X110140426Y-151481790D01*
X110219475Y-151618709D01*
X110219479Y-151618714D01*
X110219480Y-151618716D01*
X110331284Y-151730520D01*
X110331286Y-151730521D01*
X110331290Y-151730524D01*
X110468209Y-151809573D01*
X110468216Y-151809577D01*
X110620943Y-151850500D01*
X110620945Y-151850500D01*
X110779055Y-151850500D01*
X110779057Y-151850500D01*
X110931784Y-151809577D01*
X111068716Y-151730520D01*
X111180520Y-151618716D01*
X111259577Y-151481784D01*
X111300500Y-151329057D01*
X111300500Y-151170943D01*
X111259577Y-151018216D01*
X111248904Y-150999730D01*
X111180524Y-150881290D01*
X111180518Y-150881282D01*
X111068717Y-150769481D01*
X111068709Y-150769475D01*
X110931790Y-150690426D01*
X110931786Y-150690424D01*
X110931784Y-150690423D01*
X110779057Y-150649500D01*
X110620943Y-150649500D01*
X110468216Y-150690423D01*
X110468209Y-150690426D01*
X110331290Y-150769475D01*
X110331282Y-150769481D01*
X110219481Y-150881282D01*
X110219475Y-150881290D01*
X110140426Y-151018209D01*
X110140423Y-151018216D01*
X110099500Y-151170943D01*
X100300500Y-151170943D01*
X100300500Y-149820943D01*
X103749500Y-149820943D01*
X103749500Y-149979056D01*
X103790423Y-150131783D01*
X103790426Y-150131790D01*
X103869475Y-150268709D01*
X103869479Y-150268714D01*
X103869480Y-150268716D01*
X103981284Y-150380520D01*
X103981286Y-150380521D01*
X103981290Y-150380524D01*
X104118209Y-150459573D01*
X104118216Y-150459577D01*
X104270943Y-150500500D01*
X104270945Y-150500500D01*
X104429055Y-150500500D01*
X104429057Y-150500500D01*
X104581784Y-150459577D01*
X104718716Y-150380520D01*
X104830520Y-150268716D01*
X104909577Y-150131784D01*
X104950500Y-149979057D01*
X104950500Y-149820943D01*
X104909577Y-149668216D01*
X104832636Y-149534949D01*
X104830524Y-149531290D01*
X104830518Y-149531282D01*
X104718717Y-149419481D01*
X104718709Y-149419475D01*
X104616702Y-149360582D01*
X104581790Y-149340426D01*
X104581786Y-149340424D01*
X104581784Y-149340423D01*
X104429057Y-149299500D01*
X104270943Y-149299500D01*
X104118216Y-149340423D01*
X104118209Y-149340426D01*
X103981290Y-149419475D01*
X103981282Y-149419481D01*
X103869481Y-149531282D01*
X103869475Y-149531290D01*
X103790426Y-149668209D01*
X103790423Y-149668216D01*
X103749500Y-149820943D01*
X100300500Y-149820943D01*
X100300500Y-149256900D01*
X121649500Y-149256900D01*
X121649500Y-151543091D01*
X121660123Y-151631562D01*
X121715639Y-151772342D01*
X121715640Y-151772344D01*
X121807077Y-151892922D01*
X121855417Y-151929579D01*
X121927658Y-151984361D01*
X122068436Y-152039876D01*
X122156901Y-152050500D01*
X124443098Y-152050499D01*
X124531564Y-152039876D01*
X124672342Y-151984361D01*
X124792922Y-151892922D01*
X124884361Y-151772342D01*
X124939876Y-151631564D01*
X124950500Y-151543099D01*
X124950499Y-150270097D01*
X125609500Y-150270097D01*
X125609500Y-150529902D01*
X125650140Y-150786493D01*
X125730422Y-151033576D01*
X125848368Y-151265054D01*
X125894868Y-151329056D01*
X126001069Y-151475229D01*
X126184771Y-151658931D01*
X126394949Y-151811634D01*
X126542445Y-151886787D01*
X126626423Y-151929577D01*
X126626425Y-151929577D01*
X126626428Y-151929579D01*
X126873507Y-152009860D01*
X127005706Y-152030797D01*
X127130098Y-152050500D01*
X127130103Y-152050500D01*
X127389902Y-152050500D01*
X127503298Y-152032539D01*
X127646493Y-152009860D01*
X127893572Y-151929579D01*
X128125051Y-151811634D01*
X128335229Y-151658931D01*
X128518931Y-151475229D01*
X128671634Y-151265051D01*
X128789579Y-151033572D01*
X128869860Y-150786493D01*
X128892539Y-150643298D01*
X128910500Y-150529902D01*
X128910500Y-150270097D01*
X128888593Y-150131783D01*
X128869860Y-150013507D01*
X128789579Y-149766428D01*
X128789577Y-149766425D01*
X128789577Y-149766423D01*
X128671633Y-149534948D01*
X128671631Y-149534945D01*
X128518931Y-149324771D01*
X128451060Y-149256900D01*
X136949500Y-149256900D01*
X136949500Y-151543091D01*
X136960123Y-151631562D01*
X137015639Y-151772342D01*
X137015640Y-151772344D01*
X137107077Y-151892922D01*
X137155417Y-151929579D01*
X137227658Y-151984361D01*
X137368436Y-152039876D01*
X137456901Y-152050500D01*
X139743098Y-152050499D01*
X139831564Y-152039876D01*
X139972342Y-151984361D01*
X140092922Y-151892922D01*
X140184361Y-151772342D01*
X140239876Y-151631564D01*
X140250500Y-151543099D01*
X140250499Y-150270097D01*
X140909500Y-150270097D01*
X140909500Y-150529902D01*
X140950140Y-150786493D01*
X141030422Y-151033576D01*
X141148368Y-151265054D01*
X141194868Y-151329056D01*
X141301069Y-151475229D01*
X141484771Y-151658931D01*
X141694949Y-151811634D01*
X141842445Y-151886787D01*
X141926423Y-151929577D01*
X141926425Y-151929577D01*
X141926428Y-151929579D01*
X142173507Y-152009860D01*
X142305706Y-152030797D01*
X142430098Y-152050500D01*
X142430103Y-152050500D01*
X142689902Y-152050500D01*
X142803298Y-152032539D01*
X142946493Y-152009860D01*
X143193572Y-151929579D01*
X143425051Y-151811634D01*
X143635229Y-151658931D01*
X143818931Y-151475229D01*
X143971634Y-151265051D01*
X144089579Y-151033572D01*
X144169860Y-150786493D01*
X144192539Y-150643298D01*
X144210500Y-150529902D01*
X144210500Y-150270097D01*
X144188593Y-150131783D01*
X144169860Y-150013507D01*
X144089579Y-149766428D01*
X144089577Y-149766425D01*
X144089577Y-149766423D01*
X143971633Y-149534948D01*
X143971631Y-149534945D01*
X143818931Y-149324771D01*
X143751060Y-149256900D01*
X152249500Y-149256900D01*
X152249500Y-151543091D01*
X152260123Y-151631562D01*
X152315639Y-151772342D01*
X152315640Y-151772344D01*
X152407077Y-151892922D01*
X152455417Y-151929579D01*
X152527658Y-151984361D01*
X152668436Y-152039876D01*
X152756901Y-152050500D01*
X155043098Y-152050499D01*
X155131564Y-152039876D01*
X155272342Y-151984361D01*
X155392922Y-151892922D01*
X155484361Y-151772342D01*
X155539876Y-151631564D01*
X155550500Y-151543099D01*
X155550499Y-150270097D01*
X156209500Y-150270097D01*
X156209500Y-150529902D01*
X156250140Y-150786493D01*
X156330422Y-151033576D01*
X156448368Y-151265054D01*
X156494868Y-151329056D01*
X156601069Y-151475229D01*
X156784771Y-151658931D01*
X156994949Y-151811634D01*
X157142445Y-151886787D01*
X157226423Y-151929577D01*
X157226425Y-151929577D01*
X157226428Y-151929579D01*
X157473507Y-152009860D01*
X157605706Y-152030797D01*
X157730098Y-152050500D01*
X157730103Y-152050500D01*
X157989902Y-152050500D01*
X158103298Y-152032539D01*
X158246493Y-152009860D01*
X158493572Y-151929579D01*
X158725051Y-151811634D01*
X158935229Y-151658931D01*
X159118931Y-151475229D01*
X159271634Y-151265051D01*
X159389579Y-151033572D01*
X159469860Y-150786493D01*
X159492539Y-150643298D01*
X159510500Y-150529902D01*
X159510500Y-150270097D01*
X159488593Y-150131783D01*
X159469860Y-150013507D01*
X159389579Y-149766428D01*
X159389577Y-149766425D01*
X159389577Y-149766423D01*
X159271633Y-149534948D01*
X159271631Y-149534945D01*
X159118931Y-149324771D01*
X159051060Y-149256900D01*
X167549500Y-149256900D01*
X167549500Y-151543091D01*
X167560123Y-151631562D01*
X167615639Y-151772342D01*
X167615640Y-151772344D01*
X167707077Y-151892922D01*
X167755417Y-151929579D01*
X167827658Y-151984361D01*
X167968436Y-152039876D01*
X168056901Y-152050500D01*
X170343098Y-152050499D01*
X170431564Y-152039876D01*
X170572342Y-151984361D01*
X170692922Y-151892922D01*
X170784361Y-151772342D01*
X170839876Y-151631564D01*
X170850500Y-151543099D01*
X170850499Y-150270097D01*
X171509500Y-150270097D01*
X171509500Y-150529902D01*
X171550140Y-150786493D01*
X171630422Y-151033576D01*
X171748368Y-151265054D01*
X171794868Y-151329056D01*
X171901069Y-151475229D01*
X172084771Y-151658931D01*
X172294949Y-151811634D01*
X172442445Y-151886787D01*
X172526423Y-151929577D01*
X172526425Y-151929577D01*
X172526428Y-151929579D01*
X172773507Y-152009860D01*
X172905706Y-152030797D01*
X173030098Y-152050500D01*
X173030103Y-152050500D01*
X173289902Y-152050500D01*
X173403298Y-152032539D01*
X173546493Y-152009860D01*
X173793572Y-151929579D01*
X174025051Y-151811634D01*
X174235229Y-151658931D01*
X174418931Y-151475229D01*
X174571634Y-151265051D01*
X174689579Y-151033572D01*
X174769860Y-150786493D01*
X174792539Y-150643298D01*
X174810500Y-150529902D01*
X174810500Y-150270097D01*
X174788593Y-150131783D01*
X174769860Y-150013507D01*
X174689579Y-149766428D01*
X174689577Y-149766425D01*
X174689577Y-149766423D01*
X174639534Y-149668209D01*
X174571634Y-149534949D01*
X174418931Y-149324771D01*
X174235229Y-149141069D01*
X174025051Y-148988366D01*
X173952764Y-148951534D01*
X173793576Y-148870422D01*
X173546493Y-148790140D01*
X173289902Y-148749500D01*
X173289897Y-148749500D01*
X173030103Y-148749500D01*
X173030098Y-148749500D01*
X172773506Y-148790140D01*
X172526423Y-148870422D01*
X172294945Y-148988368D01*
X172084774Y-149141066D01*
X172084768Y-149141071D01*
X171901071Y-149324768D01*
X171901066Y-149324774D01*
X171748368Y-149534945D01*
X171630422Y-149766423D01*
X171550140Y-150013506D01*
X171509500Y-150270097D01*
X170850499Y-150270097D01*
X170850499Y-149256902D01*
X170839876Y-149168436D01*
X170784361Y-149027658D01*
X170784359Y-149027655D01*
X170692922Y-148907077D01*
X170572344Y-148815640D01*
X170572342Y-148815639D01*
X170431564Y-148760124D01*
X170431561Y-148760123D01*
X170343099Y-148749500D01*
X168056908Y-148749500D01*
X167968437Y-148760123D01*
X167827657Y-148815639D01*
X167827655Y-148815640D01*
X167707077Y-148907077D01*
X167615640Y-149027655D01*
X167615639Y-149027658D01*
X167570916Y-149141071D01*
X167560124Y-149168437D01*
X167560123Y-149168438D01*
X167549500Y-149256900D01*
X159051060Y-149256900D01*
X158935229Y-149141069D01*
X158725051Y-148988366D01*
X158652764Y-148951534D01*
X158493576Y-148870422D01*
X158246493Y-148790140D01*
X157989902Y-148749500D01*
X157989897Y-148749500D01*
X157730103Y-148749500D01*
X157730098Y-148749500D01*
X157473506Y-148790140D01*
X157226423Y-148870422D01*
X156994945Y-148988368D01*
X156784774Y-149141066D01*
X156784768Y-149141071D01*
X156601071Y-149324768D01*
X156601066Y-149324774D01*
X156448368Y-149534945D01*
X156330422Y-149766423D01*
X156250140Y-150013506D01*
X156209500Y-150270097D01*
X155550499Y-150270097D01*
X155550499Y-149256902D01*
X155539876Y-149168436D01*
X155484361Y-149027658D01*
X155484359Y-149027655D01*
X155392922Y-148907077D01*
X155272344Y-148815640D01*
X155272342Y-148815639D01*
X155131564Y-148760124D01*
X155131561Y-148760123D01*
X155043099Y-148749500D01*
X152756908Y-148749500D01*
X152668437Y-148760123D01*
X152527657Y-148815639D01*
X152527655Y-148815640D01*
X152407077Y-148907077D01*
X152315640Y-149027655D01*
X152315639Y-149027658D01*
X152270916Y-149141071D01*
X152260124Y-149168437D01*
X152260123Y-149168438D01*
X152249500Y-149256900D01*
X143751060Y-149256900D01*
X143635229Y-149141069D01*
X143425051Y-148988366D01*
X143352764Y-148951534D01*
X143193576Y-148870422D01*
X142946493Y-148790140D01*
X142689902Y-148749500D01*
X142689897Y-148749500D01*
X142430103Y-148749500D01*
X142430098Y-148749500D01*
X142173506Y-148790140D01*
X141926423Y-148870422D01*
X141694945Y-148988368D01*
X141484774Y-149141066D01*
X141484768Y-149141071D01*
X141301071Y-149324768D01*
X141301066Y-149324774D01*
X141148368Y-149534945D01*
X141030422Y-149766423D01*
X140950140Y-150013506D01*
X140909500Y-150270097D01*
X140250499Y-150270097D01*
X140250499Y-149256902D01*
X140239876Y-149168436D01*
X140184361Y-149027658D01*
X140184359Y-149027655D01*
X140092922Y-148907077D01*
X139972344Y-148815640D01*
X139972342Y-148815639D01*
X139831564Y-148760124D01*
X139831561Y-148760123D01*
X139743099Y-148749500D01*
X137456908Y-148749500D01*
X137368437Y-148760123D01*
X137227657Y-148815639D01*
X137227655Y-148815640D01*
X137107077Y-148907077D01*
X137015640Y-149027655D01*
X137015639Y-149027658D01*
X136970916Y-149141071D01*
X136960124Y-149168437D01*
X136960123Y-149168438D01*
X136949500Y-149256900D01*
X128451060Y-149256900D01*
X128335229Y-149141069D01*
X128125051Y-148988366D01*
X128052764Y-148951534D01*
X127893576Y-148870422D01*
X127646493Y-148790140D01*
X127389902Y-148749500D01*
X127389897Y-148749500D01*
X127130103Y-148749500D01*
X127130098Y-148749500D01*
X126873506Y-148790140D01*
X126626423Y-148870422D01*
X126394945Y-148988368D01*
X126184774Y-149141066D01*
X126184768Y-149141071D01*
X126001071Y-149324768D01*
X126001066Y-149324774D01*
X125848368Y-149534945D01*
X125730422Y-149766423D01*
X125650140Y-150013506D01*
X125609500Y-150270097D01*
X124950499Y-150270097D01*
X124950499Y-149256902D01*
X124939876Y-149168436D01*
X124884361Y-149027658D01*
X124884359Y-149027655D01*
X124792922Y-148907077D01*
X124672344Y-148815640D01*
X124672342Y-148815639D01*
X124531564Y-148760124D01*
X124531561Y-148760123D01*
X124443099Y-148749500D01*
X122156908Y-148749500D01*
X122068437Y-148760123D01*
X121927657Y-148815639D01*
X121927655Y-148815640D01*
X121807077Y-148907077D01*
X121715640Y-149027655D01*
X121715639Y-149027658D01*
X121670916Y-149141071D01*
X121660124Y-149168437D01*
X121660123Y-149168438D01*
X121649500Y-149256900D01*
X100300500Y-149256900D01*
X100300500Y-146655131D01*
X109699500Y-146655131D01*
X109699500Y-147644856D01*
X109699502Y-147644882D01*
X109702413Y-147669987D01*
X109702415Y-147669991D01*
X109747793Y-147772764D01*
X109747794Y-147772765D01*
X109827235Y-147852206D01*
X109930009Y-147897585D01*
X109955135Y-147900500D01*
X112044864Y-147900499D01*
X112044879Y-147900497D01*
X112044882Y-147900497D01*
X112069987Y-147897586D01*
X112069988Y-147897585D01*
X112069991Y-147897585D01*
X112172765Y-147852206D01*
X112252206Y-147772765D01*
X112297585Y-147669991D01*
X112300500Y-147644865D01*
X112300499Y-146655136D01*
X112300497Y-146655117D01*
X112297586Y-146630012D01*
X112297585Y-146630010D01*
X112297585Y-146630009D01*
X112252206Y-146527235D01*
X112172765Y-146447794D01*
X112172763Y-146447793D01*
X112069992Y-146402415D01*
X112044865Y-146399500D01*
X109955143Y-146399500D01*
X109955117Y-146399502D01*
X109930012Y-146402413D01*
X109930008Y-146402415D01*
X109827235Y-146447793D01*
X109747794Y-146527234D01*
X109702415Y-146630006D01*
X109702415Y-146630008D01*
X109699500Y-146655131D01*
X100300500Y-146655131D01*
X100300500Y-142904731D01*
X114450000Y-142904731D01*
X114450000Y-143750000D01*
X115672769Y-143750000D01*
X115650000Y-143893753D01*
X115650000Y-144106247D01*
X115672769Y-144250000D01*
X114450000Y-144250000D01*
X114450000Y-145095268D01*
X114460215Y-145239958D01*
X114460217Y-145239968D01*
X114514313Y-145480165D01*
X114514315Y-145480172D01*
X114606244Y-145708585D01*
X114733620Y-145919289D01*
X114733627Y-145919299D01*
X114893153Y-146106846D01*
X115080700Y-146266372D01*
X115080710Y-146266379D01*
X115291414Y-146393755D01*
X115519827Y-146485684D01*
X115519834Y-146485686D01*
X115760031Y-146539782D01*
X115760041Y-146539784D01*
X115904731Y-146549999D01*
X115904734Y-146550000D01*
X116750000Y-146550000D01*
X116750000Y-145327231D01*
X116893753Y-145350000D01*
X117106247Y-145350000D01*
X117250000Y-145327231D01*
X117250000Y-146550000D01*
X118095266Y-146550000D01*
X118095268Y-146549999D01*
X118239958Y-146539784D01*
X118239968Y-146539782D01*
X118480165Y-146485686D01*
X118480172Y-146485684D01*
X118708585Y-146393755D01*
X118919289Y-146266379D01*
X118919299Y-146266372D01*
X119106846Y-146106846D01*
X119266372Y-145919299D01*
X119266379Y-145919289D01*
X119393755Y-145708585D01*
X119485684Y-145480172D01*
X119485686Y-145480165D01*
X119539782Y-145239968D01*
X119539784Y-145239958D01*
X119549999Y-145095268D01*
X119550000Y-145095266D01*
X119550000Y-144250000D01*
X118327231Y-144250000D01*
X118350000Y-144106247D01*
X118350000Y-143893753D01*
X118327231Y-143750000D01*
X119550000Y-143750000D01*
X119550000Y-142904734D01*
X119549999Y-142904731D01*
X119539784Y-142760041D01*
X119539782Y-142760031D01*
X119485686Y-142519834D01*
X119485684Y-142519827D01*
X119393755Y-142291414D01*
X119266379Y-142080710D01*
X119266372Y-142080700D01*
X119106846Y-141893153D01*
X118919299Y-141733627D01*
X118919289Y-141733620D01*
X118708585Y-141606244D01*
X118480172Y-141514315D01*
X118480165Y-141514313D01*
X118239968Y-141460217D01*
X118239958Y-141460215D01*
X118095268Y-141450000D01*
X117250000Y-141450000D01*
X117250000Y-142672768D01*
X117106247Y-142650000D01*
X116893753Y-142650000D01*
X116750000Y-142672768D01*
X116750000Y-141450000D01*
X115904731Y-141450000D01*
X115760041Y-141460215D01*
X115760031Y-141460217D01*
X115519834Y-141514313D01*
X115519827Y-141514315D01*
X115291414Y-141606244D01*
X115080710Y-141733620D01*
X115080700Y-141733627D01*
X114893153Y-141893153D01*
X114733627Y-142080700D01*
X114733620Y-142080710D01*
X114606244Y-142291414D01*
X114514315Y-142519827D01*
X114514313Y-142519834D01*
X114460217Y-142760031D01*
X114460215Y-142760041D01*
X114450000Y-142904731D01*
X100300500Y-142904731D01*
X100300500Y-139381995D01*
X182699500Y-139381995D01*
X182699500Y-139618004D01*
X182699501Y-139618020D01*
X182730306Y-139852010D01*
X182791394Y-140079993D01*
X182881714Y-140298045D01*
X182881719Y-140298056D01*
X182952677Y-140420957D01*
X182999727Y-140502450D01*
X182999729Y-140502453D01*
X182999730Y-140502454D01*
X183143406Y-140689697D01*
X183143412Y-140689704D01*
X183310295Y-140856587D01*
X183310301Y-140856592D01*
X183497550Y-141000273D01*
X183628918Y-141076118D01*
X183701943Y-141118280D01*
X183701948Y-141118282D01*
X183701951Y-141118284D01*
X183920007Y-141208606D01*
X184147986Y-141269693D01*
X184381989Y-141300500D01*
X184381996Y-141300500D01*
X184618004Y-141300500D01*
X184618011Y-141300500D01*
X184852014Y-141269693D01*
X185079993Y-141208606D01*
X185298049Y-141118284D01*
X185502450Y-141000273D01*
X185689699Y-140856592D01*
X185856592Y-140689699D01*
X186000273Y-140502450D01*
X186118284Y-140298049D01*
X186208606Y-140079993D01*
X186269693Y-139852014D01*
X186300500Y-139618011D01*
X186300500Y-139381989D01*
X186269693Y-139147986D01*
X186208606Y-138920007D01*
X186118284Y-138701951D01*
X186118282Y-138701948D01*
X186118280Y-138701943D01*
X186076118Y-138628918D01*
X186000273Y-138497550D01*
X185856592Y-138310301D01*
X185856587Y-138310295D01*
X185689704Y-138143412D01*
X185689697Y-138143406D01*
X185502454Y-137999730D01*
X185502453Y-137999729D01*
X185502450Y-137999727D01*
X185420957Y-137952677D01*
X185298056Y-137881719D01*
X185298045Y-137881714D01*
X185079993Y-137791394D01*
X184957231Y-137758500D01*
X184852014Y-137730307D01*
X184852013Y-137730306D01*
X184852010Y-137730306D01*
X184618020Y-137699501D01*
X184618017Y-137699500D01*
X184618011Y-137699500D01*
X184381989Y-137699500D01*
X184381983Y-137699500D01*
X184381979Y-137699501D01*
X184147989Y-137730306D01*
X183920006Y-137791394D01*
X183701954Y-137881714D01*
X183701943Y-137881719D01*
X183497545Y-137999730D01*
X183310302Y-138143406D01*
X183310295Y-138143412D01*
X183143412Y-138310295D01*
X183143406Y-138310302D01*
X182999730Y-138497545D01*
X182881719Y-138701943D01*
X182881714Y-138701954D01*
X182791394Y-138920006D01*
X182730306Y-139147989D01*
X182699501Y-139381979D01*
X182699500Y-139381995D01*
X100300500Y-139381995D01*
X100300500Y-136645946D01*
X114649500Y-136645946D01*
X114649500Y-136954053D01*
X114649501Y-136954069D01*
X114689717Y-137259542D01*
X114769464Y-137557162D01*
X114887376Y-137841826D01*
X114887381Y-137841837D01*
X114931657Y-137918524D01*
X115041438Y-138108670D01*
X115041440Y-138108673D01*
X115041441Y-138108674D01*
X115229007Y-138353115D01*
X115229013Y-138353122D01*
X115446877Y-138570986D01*
X115446883Y-138570991D01*
X115691330Y-138758562D01*
X115862830Y-138857578D01*
X115958162Y-138912618D01*
X115958167Y-138912620D01*
X115958170Y-138912622D01*
X116242836Y-139030535D01*
X116540456Y-139110282D01*
X116845940Y-139150500D01*
X116845947Y-139150500D01*
X117154053Y-139150500D01*
X117154060Y-139150500D01*
X117459544Y-139110282D01*
X117757164Y-139030535D01*
X118041830Y-138912622D01*
X118308670Y-138758562D01*
X118553117Y-138570991D01*
X118770991Y-138353117D01*
X118958562Y-138108670D01*
X119112622Y-137841830D01*
X119230535Y-137557164D01*
X119310282Y-137259544D01*
X119333228Y-137085250D01*
X119337877Y-137049943D01*
X129599500Y-137049943D01*
X129599500Y-137208057D01*
X129639931Y-137358945D01*
X129640423Y-137360783D01*
X129640426Y-137360790D01*
X129719475Y-137497709D01*
X129719479Y-137497714D01*
X129719480Y-137497716D01*
X129831284Y-137609520D01*
X129831286Y-137609521D01*
X129831290Y-137609524D01*
X129968209Y-137688573D01*
X129968216Y-137688577D01*
X130120943Y-137729500D01*
X130120945Y-137729500D01*
X130279055Y-137729500D01*
X130279057Y-137729500D01*
X130431784Y-137688577D01*
X130568716Y-137609520D01*
X130680520Y-137497716D01*
X130759577Y-137360784D01*
X130800500Y-137208057D01*
X130800500Y-137065943D01*
X144994500Y-137065943D01*
X144994500Y-137224057D01*
X145031138Y-137360790D01*
X145035423Y-137376783D01*
X145035426Y-137376790D01*
X145114475Y-137513709D01*
X145114479Y-137513714D01*
X145114480Y-137513716D01*
X145226284Y-137625520D01*
X145226286Y-137625521D01*
X145226290Y-137625524D01*
X145335496Y-137688573D01*
X145363216Y-137704577D01*
X145515943Y-137745500D01*
X145515945Y-137745500D01*
X145674055Y-137745500D01*
X145674057Y-137745500D01*
X145826784Y-137704577D01*
X145963716Y-137625520D01*
X146075520Y-137513716D01*
X146154577Y-137376784D01*
X146195500Y-137224057D01*
X146195500Y-137078943D01*
X160294500Y-137078943D01*
X160294500Y-137237057D01*
X160331942Y-137376790D01*
X160335423Y-137389783D01*
X160335426Y-137389790D01*
X160414475Y-137526709D01*
X160414479Y-137526714D01*
X160414480Y-137526716D01*
X160526284Y-137638520D01*
X160526286Y-137638521D01*
X160526290Y-137638524D01*
X160612979Y-137688573D01*
X160663216Y-137717577D01*
X160815943Y-137758500D01*
X160815945Y-137758500D01*
X160974055Y-137758500D01*
X160974057Y-137758500D01*
X161126784Y-137717577D01*
X161263716Y-137638520D01*
X161375520Y-137526716D01*
X161454577Y-137389784D01*
X161462841Y-137358943D01*
X174931500Y-137358943D01*
X174931500Y-137517057D01*
X174964046Y-137638518D01*
X174972423Y-137669783D01*
X174972426Y-137669790D01*
X175051475Y-137806709D01*
X175051479Y-137806714D01*
X175051480Y-137806716D01*
X175163284Y-137918520D01*
X175163286Y-137918521D01*
X175163290Y-137918524D01*
X175300209Y-137997573D01*
X175300216Y-137997577D01*
X175452943Y-138038500D01*
X175452945Y-138038500D01*
X175611055Y-138038500D01*
X175611057Y-138038500D01*
X175763784Y-137997577D01*
X175900716Y-137918520D01*
X176012520Y-137806716D01*
X176091577Y-137669784D01*
X176132500Y-137517057D01*
X176132500Y-137358943D01*
X176091577Y-137206216D01*
X176018097Y-137078943D01*
X176012524Y-137069290D01*
X176012518Y-137069282D01*
X175900717Y-136957481D01*
X175900709Y-136957475D01*
X175763790Y-136878426D01*
X175763786Y-136878424D01*
X175763784Y-136878423D01*
X175611057Y-136837500D01*
X175452943Y-136837500D01*
X175300216Y-136878423D01*
X175300209Y-136878426D01*
X175163290Y-136957475D01*
X175163282Y-136957481D01*
X175051481Y-137069282D01*
X175051475Y-137069290D01*
X174972426Y-137206209D01*
X174972423Y-137206216D01*
X174931500Y-137358943D01*
X161462841Y-137358943D01*
X161495500Y-137237057D01*
X161495500Y-137078943D01*
X161454577Y-136926216D01*
X161447072Y-136913216D01*
X161375524Y-136789290D01*
X161375518Y-136789282D01*
X161263717Y-136677481D01*
X161263709Y-136677475D01*
X161126790Y-136598426D01*
X161126786Y-136598424D01*
X161126784Y-136598423D01*
X160974057Y-136557500D01*
X160815943Y-136557500D01*
X160663216Y-136598423D01*
X160663209Y-136598426D01*
X160526290Y-136677475D01*
X160526282Y-136677481D01*
X160414481Y-136789282D01*
X160414475Y-136789290D01*
X160335426Y-136926209D01*
X160335423Y-136926216D01*
X160294500Y-137078943D01*
X146195500Y-137078943D01*
X146195500Y-137065943D01*
X146154577Y-136913216D01*
X146154573Y-136913209D01*
X146075524Y-136776290D01*
X146075518Y-136776282D01*
X145963717Y-136664481D01*
X145963709Y-136664475D01*
X145826790Y-136585426D01*
X145826786Y-136585424D01*
X145826784Y-136585423D01*
X145674057Y-136544500D01*
X145515943Y-136544500D01*
X145363216Y-136585423D01*
X145363209Y-136585426D01*
X145226290Y-136664475D01*
X145226282Y-136664481D01*
X145114481Y-136776282D01*
X145114475Y-136776290D01*
X145035426Y-136913209D01*
X145035423Y-136913216D01*
X144994500Y-137065943D01*
X130800500Y-137065943D01*
X130800500Y-137049943D01*
X130759577Y-136897216D01*
X130748727Y-136878423D01*
X130680524Y-136760290D01*
X130680518Y-136760282D01*
X130568717Y-136648481D01*
X130568709Y-136648475D01*
X130431790Y-136569426D01*
X130431786Y-136569424D01*
X130431784Y-136569423D01*
X130279057Y-136528500D01*
X130120943Y-136528500D01*
X129968216Y-136569423D01*
X129968209Y-136569426D01*
X129831290Y-136648475D01*
X129831282Y-136648481D01*
X129719481Y-136760282D01*
X129719475Y-136760290D01*
X129640426Y-136897209D01*
X129640423Y-136897216D01*
X129599500Y-137049943D01*
X119337877Y-137049943D01*
X119341078Y-137025630D01*
X119341078Y-137025629D01*
X119343954Y-137003775D01*
X119350500Y-136954060D01*
X119350500Y-136645940D01*
X119310282Y-136340456D01*
X119230535Y-136042836D01*
X119112622Y-135758170D01*
X119112620Y-135758167D01*
X119112618Y-135758162D01*
X119057578Y-135662830D01*
X118958562Y-135491330D01*
X118770991Y-135246883D01*
X118770986Y-135246877D01*
X118553122Y-135029013D01*
X118553115Y-135029007D01*
X118308674Y-134841441D01*
X118308673Y-134841440D01*
X118308670Y-134841438D01*
X118202280Y-134780014D01*
X118041837Y-134687381D01*
X118041826Y-134687376D01*
X117757162Y-134569464D01*
X117459542Y-134489717D01*
X117154069Y-134449501D01*
X117154066Y-134449500D01*
X117154060Y-134449500D01*
X116845940Y-134449500D01*
X116845934Y-134449500D01*
X116845930Y-134449501D01*
X116540457Y-134489717D01*
X116242837Y-134569464D01*
X115958173Y-134687376D01*
X115958162Y-134687381D01*
X115691325Y-134841441D01*
X115446884Y-135029007D01*
X115446877Y-135029013D01*
X115229013Y-135246877D01*
X115229007Y-135246884D01*
X115041441Y-135491325D01*
X114887381Y-135758162D01*
X114887376Y-135758173D01*
X114769464Y-136042837D01*
X114689717Y-136340457D01*
X114649501Y-136645930D01*
X114649500Y-136645946D01*
X100300500Y-136645946D01*
X100300500Y-133155131D01*
X109699500Y-133155131D01*
X109699500Y-134144856D01*
X109699502Y-134144882D01*
X109702413Y-134169987D01*
X109702415Y-134169991D01*
X109747793Y-134272764D01*
X109747794Y-134272765D01*
X109827235Y-134352206D01*
X109930009Y-134397585D01*
X109955135Y-134400500D01*
X112044864Y-134400499D01*
X112044879Y-134400497D01*
X112044882Y-134400497D01*
X112069987Y-134397586D01*
X112069988Y-134397585D01*
X112069991Y-134397585D01*
X112172765Y-134352206D01*
X112252206Y-134272765D01*
X112297585Y-134169991D01*
X112300500Y-134144865D01*
X112300499Y-133809205D01*
X119909500Y-133809205D01*
X119909500Y-134030794D01*
X119909501Y-134030810D01*
X119927824Y-134169991D01*
X119938425Y-134250508D01*
X119944389Y-134272765D01*
X119995780Y-134464559D01*
X120080581Y-134669286D01*
X120080585Y-134669296D01*
X120191384Y-134861206D01*
X120326286Y-135037014D01*
X120326292Y-135037021D01*
X120482978Y-135193707D01*
X120482985Y-135193713D01*
X120658793Y-135328615D01*
X120850703Y-135439414D01*
X120850704Y-135439414D01*
X120850707Y-135439416D01*
X121055441Y-135524220D01*
X121269492Y-135581575D01*
X121489199Y-135610500D01*
X121489206Y-135610500D01*
X121710794Y-135610500D01*
X121710801Y-135610500D01*
X121930508Y-135581575D01*
X122144559Y-135524220D01*
X122349293Y-135439416D01*
X122541207Y-135328615D01*
X122717016Y-135193712D01*
X122873712Y-135037016D01*
X123008615Y-134861207D01*
X123119416Y-134669293D01*
X123185439Y-134509899D01*
X123229280Y-134455496D01*
X123295574Y-134433431D01*
X123363273Y-134450710D01*
X123410884Y-134501847D01*
X123414561Y-134509900D01*
X123480578Y-134669281D01*
X123480585Y-134669296D01*
X123591384Y-134861206D01*
X123726286Y-135037014D01*
X123726292Y-135037021D01*
X123882978Y-135193707D01*
X123882985Y-135193713D01*
X124058793Y-135328615D01*
X124250703Y-135439414D01*
X124250704Y-135439414D01*
X124250707Y-135439416D01*
X124455441Y-135524220D01*
X124669492Y-135581575D01*
X124889199Y-135610500D01*
X124889206Y-135610500D01*
X125110794Y-135610500D01*
X125110801Y-135610500D01*
X125330508Y-135581575D01*
X125544559Y-135524220D01*
X125749293Y-135439416D01*
X125941207Y-135328615D01*
X126117016Y-135193712D01*
X126273712Y-135037016D01*
X126408615Y-134861207D01*
X126519416Y-134669293D01*
X126604220Y-134464559D01*
X126661575Y-134250508D01*
X126690500Y-134030801D01*
X126690500Y-133809205D01*
X135209500Y-133809205D01*
X135209500Y-134030794D01*
X135209501Y-134030810D01*
X135227824Y-134169991D01*
X135238425Y-134250508D01*
X135244389Y-134272765D01*
X135295780Y-134464559D01*
X135380581Y-134669286D01*
X135380585Y-134669296D01*
X135491384Y-134861206D01*
X135626286Y-135037014D01*
X135626292Y-135037021D01*
X135782978Y-135193707D01*
X135782985Y-135193713D01*
X135958793Y-135328615D01*
X136150703Y-135439414D01*
X136150704Y-135439414D01*
X136150707Y-135439416D01*
X136355441Y-135524220D01*
X136569492Y-135581575D01*
X136789199Y-135610500D01*
X136789206Y-135610500D01*
X137010794Y-135610500D01*
X137010801Y-135610500D01*
X137230508Y-135581575D01*
X137444559Y-135524220D01*
X137649293Y-135439416D01*
X137841207Y-135328615D01*
X138017016Y-135193712D01*
X138173712Y-135037016D01*
X138308615Y-134861207D01*
X138419416Y-134669293D01*
X138485439Y-134509899D01*
X138529280Y-134455496D01*
X138595574Y-134433431D01*
X138663273Y-134450710D01*
X138710884Y-134501847D01*
X138714561Y-134509900D01*
X138780578Y-134669281D01*
X138780585Y-134669296D01*
X138891384Y-134861206D01*
X139026286Y-135037014D01*
X139026292Y-135037021D01*
X139182978Y-135193707D01*
X139182985Y-135193713D01*
X139358793Y-135328615D01*
X139550703Y-135439414D01*
X139550704Y-135439414D01*
X139550707Y-135439416D01*
X139755441Y-135524220D01*
X139969492Y-135581575D01*
X140189199Y-135610500D01*
X140189206Y-135610500D01*
X140410794Y-135610500D01*
X140410801Y-135610500D01*
X140630508Y-135581575D01*
X140844559Y-135524220D01*
X141049293Y-135439416D01*
X141241207Y-135328615D01*
X141417016Y-135193712D01*
X141573712Y-135037016D01*
X141708615Y-134861207D01*
X141819416Y-134669293D01*
X141904220Y-134464559D01*
X141961575Y-134250508D01*
X141990500Y-134030801D01*
X141990500Y-133809205D01*
X150509500Y-133809205D01*
X150509500Y-134030794D01*
X150509501Y-134030810D01*
X150527824Y-134169991D01*
X150538425Y-134250508D01*
X150544389Y-134272765D01*
X150595780Y-134464559D01*
X150680581Y-134669286D01*
X150680585Y-134669296D01*
X150791384Y-134861206D01*
X150926286Y-135037014D01*
X150926292Y-135037021D01*
X151082978Y-135193707D01*
X151082985Y-135193713D01*
X151258793Y-135328615D01*
X151450703Y-135439414D01*
X151450704Y-135439414D01*
X151450707Y-135439416D01*
X151655441Y-135524220D01*
X151869492Y-135581575D01*
X152089199Y-135610500D01*
X152089206Y-135610500D01*
X152310794Y-135610500D01*
X152310801Y-135610500D01*
X152530508Y-135581575D01*
X152744559Y-135524220D01*
X152949293Y-135439416D01*
X153141207Y-135328615D01*
X153317016Y-135193712D01*
X153473712Y-135037016D01*
X153608615Y-134861207D01*
X153719416Y-134669293D01*
X153785439Y-134509899D01*
X153829280Y-134455496D01*
X153895574Y-134433431D01*
X153963273Y-134450710D01*
X154010884Y-134501847D01*
X154014561Y-134509900D01*
X154080578Y-134669281D01*
X154080585Y-134669296D01*
X154191384Y-134861206D01*
X154326286Y-135037014D01*
X154326292Y-135037021D01*
X154482978Y-135193707D01*
X154482985Y-135193713D01*
X154658793Y-135328615D01*
X154850703Y-135439414D01*
X154850704Y-135439414D01*
X154850707Y-135439416D01*
X155055441Y-135524220D01*
X155269492Y-135581575D01*
X155489199Y-135610500D01*
X155489206Y-135610500D01*
X155710794Y-135610500D01*
X155710801Y-135610500D01*
X155930508Y-135581575D01*
X156144559Y-135524220D01*
X156349293Y-135439416D01*
X156541207Y-135328615D01*
X156717016Y-135193712D01*
X156873712Y-135037016D01*
X157008615Y-134861207D01*
X157119416Y-134669293D01*
X157204220Y-134464559D01*
X157261575Y-134250508D01*
X157290500Y-134030801D01*
X157290500Y-133809205D01*
X165809500Y-133809205D01*
X165809500Y-134030794D01*
X165809501Y-134030810D01*
X165827824Y-134169991D01*
X165838425Y-134250508D01*
X165844389Y-134272765D01*
X165895780Y-134464559D01*
X165980581Y-134669286D01*
X165980585Y-134669296D01*
X166091384Y-134861206D01*
X166226286Y-135037014D01*
X166226292Y-135037021D01*
X166382978Y-135193707D01*
X166382985Y-135193713D01*
X166558793Y-135328615D01*
X166750703Y-135439414D01*
X166750704Y-135439414D01*
X166750707Y-135439416D01*
X166955441Y-135524220D01*
X167169492Y-135581575D01*
X167389199Y-135610500D01*
X167389206Y-135610500D01*
X167610794Y-135610500D01*
X167610801Y-135610500D01*
X167830508Y-135581575D01*
X168044559Y-135524220D01*
X168249293Y-135439416D01*
X168441207Y-135328615D01*
X168617016Y-135193712D01*
X168773712Y-135037016D01*
X168908615Y-134861207D01*
X169019416Y-134669293D01*
X169085439Y-134509899D01*
X169129280Y-134455496D01*
X169195574Y-134433431D01*
X169263273Y-134450710D01*
X169310884Y-134501847D01*
X169314561Y-134509900D01*
X169380578Y-134669281D01*
X169380585Y-134669296D01*
X169491384Y-134861206D01*
X169626286Y-135037014D01*
X169626292Y-135037021D01*
X169782978Y-135193707D01*
X169782985Y-135193713D01*
X169958793Y-135328615D01*
X170150703Y-135439414D01*
X170150704Y-135439414D01*
X170150707Y-135439416D01*
X170355441Y-135524220D01*
X170569492Y-135581575D01*
X170789199Y-135610500D01*
X170789206Y-135610500D01*
X171010794Y-135610500D01*
X171010801Y-135610500D01*
X171230508Y-135581575D01*
X171444559Y-135524220D01*
X171649293Y-135439416D01*
X171841207Y-135328615D01*
X172017016Y-135193712D01*
X172173712Y-135037016D01*
X172308615Y-134861207D01*
X172419416Y-134669293D01*
X172504220Y-134464559D01*
X172561575Y-134250508D01*
X172590500Y-134030801D01*
X172590500Y-133809199D01*
X172561575Y-133589492D01*
X172504220Y-133375441D01*
X172419416Y-133170707D01*
X172410423Y-133155131D01*
X172308615Y-132978793D01*
X172173713Y-132802985D01*
X172173707Y-132802978D01*
X172017021Y-132646292D01*
X172017014Y-132646286D01*
X171877446Y-132539192D01*
X171841206Y-132511384D01*
X171733055Y-132448943D01*
X176319500Y-132448943D01*
X176319500Y-132607057D01*
X176330012Y-132646286D01*
X176360423Y-132759783D01*
X176360426Y-132759790D01*
X176439475Y-132896709D01*
X176439479Y-132896714D01*
X176439480Y-132896716D01*
X176551284Y-133008520D01*
X176551286Y-133008521D01*
X176551290Y-133008524D01*
X176688209Y-133087573D01*
X176688216Y-133087577D01*
X176840943Y-133128500D01*
X176840945Y-133128500D01*
X176999055Y-133128500D01*
X176999057Y-133128500D01*
X177151784Y-133087577D01*
X177288716Y-133008520D01*
X177400520Y-132896716D01*
X177479577Y-132759784D01*
X177520500Y-132607057D01*
X177520500Y-132448943D01*
X177479577Y-132296216D01*
X177457758Y-132258424D01*
X177400524Y-132159290D01*
X177400518Y-132159282D01*
X177288717Y-132047481D01*
X177288709Y-132047475D01*
X177151790Y-131968426D01*
X177151786Y-131968424D01*
X177151784Y-131968423D01*
X176999057Y-131927500D01*
X176840943Y-131927500D01*
X176688216Y-131968423D01*
X176688209Y-131968426D01*
X176551290Y-132047475D01*
X176551282Y-132047481D01*
X176439481Y-132159282D01*
X176439475Y-132159290D01*
X176360426Y-132296209D01*
X176360423Y-132296216D01*
X176319500Y-132448943D01*
X171733055Y-132448943D01*
X171649296Y-132400585D01*
X171649286Y-132400581D01*
X171444559Y-132315780D01*
X171371519Y-132296209D01*
X171230508Y-132258425D01*
X171230507Y-132258424D01*
X171230504Y-132258424D01*
X171010810Y-132229501D01*
X171010807Y-132229500D01*
X171010801Y-132229500D01*
X170789199Y-132229500D01*
X170789193Y-132229500D01*
X170789189Y-132229501D01*
X170569495Y-132258424D01*
X170355440Y-132315780D01*
X170150713Y-132400581D01*
X170150703Y-132400585D01*
X169958793Y-132511384D01*
X169782985Y-132646286D01*
X169782978Y-132646292D01*
X169626292Y-132802978D01*
X169626286Y-132802985D01*
X169491384Y-132978793D01*
X169380585Y-133170703D01*
X169380581Y-133170713D01*
X169314561Y-133330100D01*
X169270720Y-133384503D01*
X169204426Y-133406568D01*
X169136727Y-133389289D01*
X169089116Y-133338152D01*
X169085439Y-133330100D01*
X169019418Y-133170713D01*
X169019414Y-133170703D01*
X168908615Y-132978793D01*
X168773713Y-132802985D01*
X168773707Y-132802978D01*
X168617021Y-132646292D01*
X168617014Y-132646286D01*
X168441206Y-132511384D01*
X168249296Y-132400585D01*
X168249286Y-132400581D01*
X168044559Y-132315780D01*
X167971519Y-132296209D01*
X167830508Y-132258425D01*
X167830507Y-132258424D01*
X167830504Y-132258424D01*
X167610810Y-132229501D01*
X167610807Y-132229500D01*
X167610801Y-132229500D01*
X167389199Y-132229500D01*
X167389193Y-132229500D01*
X167389189Y-132229501D01*
X167169495Y-132258424D01*
X166955440Y-132315780D01*
X166750713Y-132400581D01*
X166750703Y-132400585D01*
X166558793Y-132511384D01*
X166382985Y-132646286D01*
X166382978Y-132646292D01*
X166226292Y-132802978D01*
X166226286Y-132802985D01*
X166091384Y-132978793D01*
X165980585Y-133170703D01*
X165980581Y-133170713D01*
X165895780Y-133375440D01*
X165838424Y-133589495D01*
X165809501Y-133809189D01*
X165809500Y-133809205D01*
X157290500Y-133809205D01*
X157290500Y-133809199D01*
X157261575Y-133589492D01*
X157204220Y-133375441D01*
X157119416Y-133170707D01*
X157110423Y-133155131D01*
X157008615Y-132978793D01*
X156873713Y-132802985D01*
X156873707Y-132802978D01*
X156717021Y-132646292D01*
X156717014Y-132646286D01*
X156541206Y-132511384D01*
X156349296Y-132400585D01*
X156349286Y-132400581D01*
X156144559Y-132315780D01*
X156071519Y-132296209D01*
X155930508Y-132258425D01*
X155930507Y-132258424D01*
X155930504Y-132258424D01*
X155710810Y-132229501D01*
X155710807Y-132229500D01*
X155710801Y-132229500D01*
X155489199Y-132229500D01*
X155489193Y-132229500D01*
X155489189Y-132229501D01*
X155269495Y-132258424D01*
X155055440Y-132315780D01*
X154850713Y-132400581D01*
X154850703Y-132400585D01*
X154658793Y-132511384D01*
X154482985Y-132646286D01*
X154482978Y-132646292D01*
X154326292Y-132802978D01*
X154326286Y-132802985D01*
X154191384Y-132978793D01*
X154080585Y-133170703D01*
X154080581Y-133170713D01*
X154014561Y-133330100D01*
X153970720Y-133384503D01*
X153904426Y-133406568D01*
X153836727Y-133389289D01*
X153789116Y-133338152D01*
X153785439Y-133330100D01*
X153719418Y-133170713D01*
X153719414Y-133170703D01*
X153608615Y-132978793D01*
X153473713Y-132802985D01*
X153473707Y-132802978D01*
X153317021Y-132646292D01*
X153317014Y-132646286D01*
X153141206Y-132511384D01*
X152949296Y-132400585D01*
X152949286Y-132400581D01*
X152744559Y-132315780D01*
X152671519Y-132296209D01*
X152530508Y-132258425D01*
X152530507Y-132258424D01*
X152530504Y-132258424D01*
X152310810Y-132229501D01*
X152310807Y-132229500D01*
X152310801Y-132229500D01*
X152089199Y-132229500D01*
X152089193Y-132229500D01*
X152089189Y-132229501D01*
X151869495Y-132258424D01*
X151655440Y-132315780D01*
X151450713Y-132400581D01*
X151450703Y-132400585D01*
X151258793Y-132511384D01*
X151082985Y-132646286D01*
X151082978Y-132646292D01*
X150926292Y-132802978D01*
X150926286Y-132802985D01*
X150791384Y-132978793D01*
X150680585Y-133170703D01*
X150680581Y-133170713D01*
X150595780Y-133375440D01*
X150538424Y-133589495D01*
X150509501Y-133809189D01*
X150509500Y-133809205D01*
X141990500Y-133809205D01*
X141990500Y-133809199D01*
X141961575Y-133589492D01*
X141904220Y-133375441D01*
X141819416Y-133170707D01*
X141810423Y-133155131D01*
X141708615Y-132978793D01*
X141573713Y-132802985D01*
X141573707Y-132802978D01*
X141417021Y-132646292D01*
X141417014Y-132646286D01*
X141241206Y-132511384D01*
X141049296Y-132400585D01*
X141049286Y-132400581D01*
X140844559Y-132315780D01*
X140771519Y-132296209D01*
X140630508Y-132258425D01*
X140630507Y-132258424D01*
X140630504Y-132258424D01*
X140410810Y-132229501D01*
X140410807Y-132229500D01*
X140410801Y-132229500D01*
X140189199Y-132229500D01*
X140189193Y-132229500D01*
X140189189Y-132229501D01*
X139969495Y-132258424D01*
X139755440Y-132315780D01*
X139550713Y-132400581D01*
X139550703Y-132400585D01*
X139358793Y-132511384D01*
X139182985Y-132646286D01*
X139182978Y-132646292D01*
X139026292Y-132802978D01*
X139026286Y-132802985D01*
X138891384Y-132978793D01*
X138780585Y-133170703D01*
X138780581Y-133170713D01*
X138714561Y-133330100D01*
X138670720Y-133384503D01*
X138604426Y-133406568D01*
X138536727Y-133389289D01*
X138489116Y-133338152D01*
X138485439Y-133330100D01*
X138419418Y-133170713D01*
X138419414Y-133170703D01*
X138308615Y-132978793D01*
X138173713Y-132802985D01*
X138173707Y-132802978D01*
X138017021Y-132646292D01*
X138017014Y-132646286D01*
X137841206Y-132511384D01*
X137649296Y-132400585D01*
X137649286Y-132400581D01*
X137444559Y-132315780D01*
X137371519Y-132296209D01*
X137230508Y-132258425D01*
X137230507Y-132258424D01*
X137230504Y-132258424D01*
X137010810Y-132229501D01*
X137010807Y-132229500D01*
X137010801Y-132229500D01*
X136789199Y-132229500D01*
X136789193Y-132229500D01*
X136789189Y-132229501D01*
X136569495Y-132258424D01*
X136355440Y-132315780D01*
X136150713Y-132400581D01*
X136150703Y-132400585D01*
X135958793Y-132511384D01*
X135782985Y-132646286D01*
X135782978Y-132646292D01*
X135626292Y-132802978D01*
X135626286Y-132802985D01*
X135491384Y-132978793D01*
X135380585Y-133170703D01*
X135380581Y-133170713D01*
X135295780Y-133375440D01*
X135238424Y-133589495D01*
X135209501Y-133809189D01*
X135209500Y-133809205D01*
X126690500Y-133809205D01*
X126690500Y-133809199D01*
X126661575Y-133589492D01*
X126604220Y-133375441D01*
X126519416Y-133170707D01*
X126510423Y-133155131D01*
X126408615Y-132978793D01*
X126273713Y-132802985D01*
X126273707Y-132802978D01*
X126117021Y-132646292D01*
X126117014Y-132646286D01*
X125941206Y-132511384D01*
X125749296Y-132400585D01*
X125749286Y-132400581D01*
X125544559Y-132315780D01*
X125471519Y-132296209D01*
X125330508Y-132258425D01*
X125330507Y-132258424D01*
X125330504Y-132258424D01*
X125110810Y-132229501D01*
X125110807Y-132229500D01*
X125110801Y-132229500D01*
X124889199Y-132229500D01*
X124889193Y-132229500D01*
X124889189Y-132229501D01*
X124669495Y-132258424D01*
X124455440Y-132315780D01*
X124250713Y-132400581D01*
X124250703Y-132400585D01*
X124058793Y-132511384D01*
X123882985Y-132646286D01*
X123882978Y-132646292D01*
X123726292Y-132802978D01*
X123726286Y-132802985D01*
X123591384Y-132978793D01*
X123480585Y-133170703D01*
X123480581Y-133170713D01*
X123414561Y-133330100D01*
X123370720Y-133384503D01*
X123304426Y-133406568D01*
X123236727Y-133389289D01*
X123189116Y-133338152D01*
X123185439Y-133330100D01*
X123119418Y-133170713D01*
X123119414Y-133170703D01*
X123008615Y-132978793D01*
X122873713Y-132802985D01*
X122873707Y-132802978D01*
X122717021Y-132646292D01*
X122717014Y-132646286D01*
X122541206Y-132511384D01*
X122349296Y-132400585D01*
X122349286Y-132400581D01*
X122144559Y-132315780D01*
X122071519Y-132296209D01*
X121930508Y-132258425D01*
X121930507Y-132258424D01*
X121930504Y-132258424D01*
X121710810Y-132229501D01*
X121710807Y-132229500D01*
X121710801Y-132229500D01*
X121489199Y-132229500D01*
X121489193Y-132229500D01*
X121489189Y-132229501D01*
X121269495Y-132258424D01*
X121055440Y-132315780D01*
X120850713Y-132400581D01*
X120850703Y-132400585D01*
X120658793Y-132511384D01*
X120482985Y-132646286D01*
X120482978Y-132646292D01*
X120326292Y-132802978D01*
X120326286Y-132802985D01*
X120191384Y-132978793D01*
X120080585Y-133170703D01*
X120080581Y-133170713D01*
X119995780Y-133375440D01*
X119938424Y-133589495D01*
X119909501Y-133809189D01*
X119909500Y-133809205D01*
X112300499Y-133809205D01*
X112300499Y-133589495D01*
X112300499Y-133155143D01*
X112300499Y-133155136D01*
X112300497Y-133155117D01*
X112297586Y-133130012D01*
X112297585Y-133130010D01*
X112297585Y-133130009D01*
X112252206Y-133027235D01*
X112172765Y-132947794D01*
X112172763Y-132947793D01*
X112069992Y-132902415D01*
X112044865Y-132899500D01*
X109955143Y-132899500D01*
X109955117Y-132899502D01*
X109930012Y-132902413D01*
X109930008Y-132902415D01*
X109827235Y-132947793D01*
X109747794Y-133027234D01*
X109702415Y-133130006D01*
X109702415Y-133130008D01*
X109699500Y-133155131D01*
X100300500Y-133155131D01*
X100300500Y-131320943D01*
X114599500Y-131320943D01*
X114599500Y-131479057D01*
X114610724Y-131520943D01*
X114640423Y-131631783D01*
X114640426Y-131631790D01*
X114719475Y-131768709D01*
X114719479Y-131768714D01*
X114719480Y-131768716D01*
X114831284Y-131880520D01*
X114831286Y-131880521D01*
X114831290Y-131880524D01*
X114968209Y-131959573D01*
X114968216Y-131959577D01*
X115120943Y-132000500D01*
X115120945Y-132000500D01*
X115279055Y-132000500D01*
X115279057Y-132000500D01*
X115431784Y-131959577D01*
X115568716Y-131880520D01*
X115680520Y-131768716D01*
X115759577Y-131631784D01*
X115789277Y-131520943D01*
X129899500Y-131520943D01*
X129899500Y-131679057D01*
X129928975Y-131789057D01*
X129940423Y-131831783D01*
X129940426Y-131831790D01*
X130019475Y-131968709D01*
X130019479Y-131968714D01*
X130019480Y-131968716D01*
X130131284Y-132080520D01*
X130131286Y-132080521D01*
X130131290Y-132080524D01*
X130267719Y-132159290D01*
X130268216Y-132159577D01*
X130420943Y-132200500D01*
X130420945Y-132200500D01*
X130579055Y-132200500D01*
X130579057Y-132200500D01*
X130731784Y-132159577D01*
X130868716Y-132080520D01*
X130980520Y-131968716D01*
X131059577Y-131831784D01*
X131100500Y-131679057D01*
X131100500Y-131630943D01*
X133901500Y-131630943D01*
X133901500Y-131789057D01*
X133926009Y-131880524D01*
X133942423Y-131941783D01*
X133942426Y-131941790D01*
X134021475Y-132078709D01*
X134021479Y-132078714D01*
X134021480Y-132078716D01*
X134133284Y-132190520D01*
X134133286Y-132190521D01*
X134133290Y-132190524D01*
X134250898Y-132258424D01*
X134270216Y-132269577D01*
X134422943Y-132310500D01*
X134422945Y-132310500D01*
X134581055Y-132310500D01*
X134581057Y-132310500D01*
X134733784Y-132269577D01*
X134870716Y-132190520D01*
X134982520Y-132078716D01*
X135061577Y-131941784D01*
X135102500Y-131789057D01*
X135102500Y-131630943D01*
X135073026Y-131520943D01*
X145199500Y-131520943D01*
X145199500Y-131679057D01*
X145228975Y-131789057D01*
X145240423Y-131831783D01*
X145240426Y-131831790D01*
X145319475Y-131968709D01*
X145319479Y-131968714D01*
X145319480Y-131968716D01*
X145431284Y-132080520D01*
X145431286Y-132080521D01*
X145431290Y-132080524D01*
X145567719Y-132159290D01*
X145568216Y-132159577D01*
X145720943Y-132200500D01*
X145720945Y-132200500D01*
X145879055Y-132200500D01*
X145879057Y-132200500D01*
X146031784Y-132159577D01*
X146168716Y-132080520D01*
X146280520Y-131968716D01*
X146359577Y-131831784D01*
X146400500Y-131679057D01*
X146400500Y-131520943D01*
X160482500Y-131520943D01*
X160482500Y-131679057D01*
X160511975Y-131789057D01*
X160523423Y-131831783D01*
X160523426Y-131831790D01*
X160602475Y-131968709D01*
X160602479Y-131968714D01*
X160602480Y-131968716D01*
X160714284Y-132080520D01*
X160714286Y-132080521D01*
X160714290Y-132080524D01*
X160850719Y-132159290D01*
X160851216Y-132159577D01*
X161003943Y-132200500D01*
X161003945Y-132200500D01*
X161162055Y-132200500D01*
X161162057Y-132200500D01*
X161314784Y-132159577D01*
X161451716Y-132080520D01*
X161563520Y-131968716D01*
X161642577Y-131831784D01*
X161683500Y-131679057D01*
X161683500Y-131520943D01*
X161642577Y-131368216D01*
X161642573Y-131368209D01*
X161563524Y-131231290D01*
X161563518Y-131231282D01*
X161451717Y-131119481D01*
X161451709Y-131119475D01*
X161314790Y-131040426D01*
X161314786Y-131040424D01*
X161314784Y-131040423D01*
X161162057Y-130999500D01*
X161003943Y-130999500D01*
X160851216Y-131040423D01*
X160851209Y-131040426D01*
X160714290Y-131119475D01*
X160714282Y-131119481D01*
X160602481Y-131231282D01*
X160602475Y-131231290D01*
X160523426Y-131368209D01*
X160523423Y-131368216D01*
X160482500Y-131520943D01*
X146400500Y-131520943D01*
X146359577Y-131368216D01*
X146359573Y-131368209D01*
X146280524Y-131231290D01*
X146280518Y-131231282D01*
X146168717Y-131119481D01*
X146168709Y-131119475D01*
X146031790Y-131040426D01*
X146031786Y-131040424D01*
X146031784Y-131040423D01*
X145879057Y-130999500D01*
X145720943Y-130999500D01*
X145568216Y-131040423D01*
X145568209Y-131040426D01*
X145431290Y-131119475D01*
X145431282Y-131119481D01*
X145319481Y-131231282D01*
X145319475Y-131231290D01*
X145240426Y-131368209D01*
X145240423Y-131368216D01*
X145199500Y-131520943D01*
X135073026Y-131520943D01*
X135061577Y-131478216D01*
X135053123Y-131463573D01*
X134982524Y-131341290D01*
X134982518Y-131341282D01*
X134870717Y-131229481D01*
X134870709Y-131229475D01*
X134733790Y-131150426D01*
X134733786Y-131150424D01*
X134733784Y-131150423D01*
X134581057Y-131109500D01*
X134422943Y-131109500D01*
X134270216Y-131150423D01*
X134270209Y-131150426D01*
X134133290Y-131229475D01*
X134133282Y-131229481D01*
X134021481Y-131341282D01*
X134021475Y-131341290D01*
X133942426Y-131478209D01*
X133942424Y-131478214D01*
X133942423Y-131478216D01*
X133901500Y-131630943D01*
X131100500Y-131630943D01*
X131100500Y-131520943D01*
X131059577Y-131368216D01*
X131059573Y-131368209D01*
X130980524Y-131231290D01*
X130980518Y-131231282D01*
X130868717Y-131119481D01*
X130868709Y-131119475D01*
X130731790Y-131040426D01*
X130731786Y-131040424D01*
X130731784Y-131040423D01*
X130579057Y-130999500D01*
X130420943Y-130999500D01*
X130268216Y-131040423D01*
X130268209Y-131040426D01*
X130131290Y-131119475D01*
X130131282Y-131119481D01*
X130019481Y-131231282D01*
X130019475Y-131231290D01*
X129940426Y-131368209D01*
X129940423Y-131368216D01*
X129899500Y-131520943D01*
X115789277Y-131520943D01*
X115800500Y-131479057D01*
X115800500Y-131320943D01*
X115759577Y-131168216D01*
X115739001Y-131132577D01*
X115680524Y-131031290D01*
X115680518Y-131031282D01*
X115568717Y-130919481D01*
X115568709Y-130919475D01*
X115431790Y-130840426D01*
X115431786Y-130840424D01*
X115431784Y-130840423D01*
X115279057Y-130799500D01*
X115120943Y-130799500D01*
X114968216Y-130840423D01*
X114968209Y-130840426D01*
X114831290Y-130919475D01*
X114831282Y-130919481D01*
X114719481Y-131031282D01*
X114719475Y-131031290D01*
X114640426Y-131168209D01*
X114640423Y-131168216D01*
X114599500Y-131320943D01*
X100300500Y-131320943D01*
X100300500Y-130310943D01*
X128611500Y-130310943D01*
X128611500Y-130469057D01*
X128629246Y-130535284D01*
X128652423Y-130621783D01*
X128652426Y-130621790D01*
X128731475Y-130758709D01*
X128731479Y-130758714D01*
X128731480Y-130758716D01*
X128843284Y-130870520D01*
X128843286Y-130870521D01*
X128843290Y-130870524D01*
X128966588Y-130941709D01*
X128980216Y-130949577D01*
X129132943Y-130990500D01*
X129132945Y-130990500D01*
X129291055Y-130990500D01*
X129291057Y-130990500D01*
X129443784Y-130949577D01*
X129580716Y-130870520D01*
X129692520Y-130758716D01*
X129771577Y-130621784D01*
X129805832Y-130493943D01*
X157774500Y-130493943D01*
X157774500Y-130652057D01*
X157810048Y-130784722D01*
X157815423Y-130804783D01*
X157815426Y-130804790D01*
X157894475Y-130941709D01*
X157894479Y-130941714D01*
X157894480Y-130941716D01*
X158006284Y-131053520D01*
X158006286Y-131053521D01*
X158006290Y-131053524D01*
X158103245Y-131109500D01*
X158143216Y-131132577D01*
X158295943Y-131173500D01*
X158295945Y-131173500D01*
X158454055Y-131173500D01*
X158454057Y-131173500D01*
X158606784Y-131132577D01*
X158743716Y-131053520D01*
X158855520Y-130941716D01*
X158922938Y-130824943D01*
X171329500Y-130824943D01*
X171329500Y-130983057D01*
X171369564Y-131132576D01*
X171370423Y-131135783D01*
X171370426Y-131135790D01*
X171449475Y-131272709D01*
X171449479Y-131272714D01*
X171449480Y-131272716D01*
X171561284Y-131384520D01*
X171561286Y-131384521D01*
X171561290Y-131384524D01*
X171698209Y-131463573D01*
X171698216Y-131463577D01*
X171850943Y-131504500D01*
X171850945Y-131504500D01*
X172009055Y-131504500D01*
X172009057Y-131504500D01*
X172161784Y-131463577D01*
X172298716Y-131384520D01*
X172410520Y-131272716D01*
X172489577Y-131135784D01*
X172530500Y-130983057D01*
X172530500Y-130824943D01*
X172489577Y-130672216D01*
X172460464Y-130621790D01*
X172410524Y-130535290D01*
X172410518Y-130535282D01*
X172298717Y-130423481D01*
X172298709Y-130423475D01*
X172161790Y-130344426D01*
X172161786Y-130344424D01*
X172161784Y-130344423D01*
X172009057Y-130303500D01*
X171850943Y-130303500D01*
X171698216Y-130344423D01*
X171698209Y-130344426D01*
X171561290Y-130423475D01*
X171561282Y-130423481D01*
X171449481Y-130535282D01*
X171449475Y-130535290D01*
X171370426Y-130672209D01*
X171370423Y-130672216D01*
X171329500Y-130824943D01*
X158922938Y-130824943D01*
X158934577Y-130804784D01*
X158975500Y-130652057D01*
X158975500Y-130493943D01*
X158934577Y-130341216D01*
X158912802Y-130303500D01*
X158855524Y-130204290D01*
X158855518Y-130204282D01*
X158743717Y-130092481D01*
X158743709Y-130092475D01*
X158606790Y-130013426D01*
X158606786Y-130013424D01*
X158606784Y-130013423D01*
X158454057Y-129972500D01*
X158295943Y-129972500D01*
X158143216Y-130013423D01*
X158143209Y-130013426D01*
X158006290Y-130092475D01*
X158006282Y-130092481D01*
X157894481Y-130204282D01*
X157894475Y-130204290D01*
X157815426Y-130341209D01*
X157815423Y-130341216D01*
X157774500Y-130493943D01*
X129805832Y-130493943D01*
X129812500Y-130469057D01*
X129812500Y-130310943D01*
X129771577Y-130158216D01*
X129771573Y-130158209D01*
X129692524Y-130021290D01*
X129692518Y-130021282D01*
X129580717Y-129909481D01*
X129580709Y-129909475D01*
X129443790Y-129830426D01*
X129443786Y-129830424D01*
X129443784Y-129830423D01*
X129291057Y-129789500D01*
X129132943Y-129789500D01*
X128980216Y-129830423D01*
X128980209Y-129830426D01*
X128843290Y-129909475D01*
X128843282Y-129909481D01*
X128731481Y-130021282D01*
X128731475Y-130021290D01*
X128652426Y-130158209D01*
X128652423Y-130158216D01*
X128611500Y-130310943D01*
X100300500Y-130310943D01*
X100300500Y-128381943D01*
X160410500Y-128381943D01*
X160410500Y-128540056D01*
X160451423Y-128692783D01*
X160451426Y-128692790D01*
X160530475Y-128829709D01*
X160530479Y-128829714D01*
X160530480Y-128829716D01*
X160642284Y-128941520D01*
X160642286Y-128941521D01*
X160642290Y-128941524D01*
X160779209Y-129020573D01*
X160779216Y-129020577D01*
X160931943Y-129061500D01*
X160931945Y-129061500D01*
X161090055Y-129061500D01*
X161090057Y-129061500D01*
X161242784Y-129020577D01*
X161379716Y-128941520D01*
X161491520Y-128829716D01*
X161570577Y-128692784D01*
X161611500Y-128540057D01*
X161611500Y-128381943D01*
X161570577Y-128229216D01*
X161570573Y-128229209D01*
X161491524Y-128092290D01*
X161491518Y-128092282D01*
X161379717Y-127980481D01*
X161379709Y-127980475D01*
X161242790Y-127901426D01*
X161242786Y-127901424D01*
X161242784Y-127901423D01*
X161090057Y-127860500D01*
X160931943Y-127860500D01*
X160779216Y-127901423D01*
X160779209Y-127901426D01*
X160642290Y-127980475D01*
X160642282Y-127980481D01*
X160530481Y-128092282D01*
X160530475Y-128092290D01*
X160451426Y-128229209D01*
X160451423Y-128229216D01*
X160410500Y-128381943D01*
X100300500Y-128381943D01*
X100300500Y-127325943D01*
X129453500Y-127325943D01*
X129453500Y-127484056D01*
X129494423Y-127636783D01*
X129494426Y-127636790D01*
X129573475Y-127773709D01*
X129573479Y-127773714D01*
X129573480Y-127773716D01*
X129685284Y-127885520D01*
X129685286Y-127885521D01*
X129685290Y-127885524D01*
X129822209Y-127964573D01*
X129822216Y-127964577D01*
X129974943Y-128005500D01*
X129974945Y-128005500D01*
X130133055Y-128005500D01*
X130133057Y-128005500D01*
X130285784Y-127964577D01*
X130422716Y-127885520D01*
X130534520Y-127773716D01*
X130613577Y-127636784D01*
X130654500Y-127484057D01*
X130654500Y-127325943D01*
X131275500Y-127325943D01*
X131275500Y-127484056D01*
X131316423Y-127636783D01*
X131316426Y-127636790D01*
X131395475Y-127773709D01*
X131395479Y-127773714D01*
X131395480Y-127773716D01*
X131507284Y-127885520D01*
X131507286Y-127885521D01*
X131507290Y-127885524D01*
X131644209Y-127964573D01*
X131644216Y-127964577D01*
X131796943Y-128005500D01*
X131796945Y-128005500D01*
X131955055Y-128005500D01*
X131955057Y-128005500D01*
X132107784Y-127964577D01*
X132244716Y-127885520D01*
X132356520Y-127773716D01*
X132435577Y-127636784D01*
X132476500Y-127484057D01*
X132476500Y-127325943D01*
X132435577Y-127173216D01*
X132435573Y-127173209D01*
X132356524Y-127036290D01*
X132356518Y-127036282D01*
X132244717Y-126924481D01*
X132244709Y-126924475D01*
X132107790Y-126845426D01*
X132107786Y-126845424D01*
X132107784Y-126845423D01*
X131955057Y-126804500D01*
X131796943Y-126804500D01*
X131644216Y-126845423D01*
X131644209Y-126845426D01*
X131507290Y-126924475D01*
X131507282Y-126924481D01*
X131395481Y-127036282D01*
X131395475Y-127036290D01*
X131316426Y-127173209D01*
X131316423Y-127173216D01*
X131275500Y-127325943D01*
X130654500Y-127325943D01*
X130613577Y-127173216D01*
X130613573Y-127173209D01*
X130534524Y-127036290D01*
X130534518Y-127036282D01*
X130422717Y-126924481D01*
X130422709Y-126924475D01*
X130285790Y-126845426D01*
X130285786Y-126845424D01*
X130285784Y-126845423D01*
X130133057Y-126804500D01*
X129974943Y-126804500D01*
X129822216Y-126845423D01*
X129822209Y-126845426D01*
X129685290Y-126924475D01*
X129685282Y-126924481D01*
X129573481Y-127036282D01*
X129573475Y-127036290D01*
X129494426Y-127173209D01*
X129494423Y-127173216D01*
X129453500Y-127325943D01*
X100300500Y-127325943D01*
X100300500Y-125897943D01*
X104874500Y-125897943D01*
X104874500Y-126056057D01*
X104910870Y-126191790D01*
X104915423Y-126208783D01*
X104915426Y-126208790D01*
X104994475Y-126345709D01*
X104994479Y-126345714D01*
X104994480Y-126345716D01*
X105106284Y-126457520D01*
X105106286Y-126457521D01*
X105106290Y-126457524D01*
X105213764Y-126519573D01*
X105243216Y-126536577D01*
X105395943Y-126577500D01*
X105395945Y-126577500D01*
X105554055Y-126577500D01*
X105554057Y-126577500D01*
X105706784Y-126536577D01*
X105843716Y-126457520D01*
X105955520Y-126345716D01*
X106034577Y-126208784D01*
X106075500Y-126056057D01*
X106075500Y-125897943D01*
X106034577Y-125745216D01*
X106002987Y-125690500D01*
X105955524Y-125608290D01*
X105955518Y-125608282D01*
X105843717Y-125496481D01*
X105843709Y-125496475D01*
X105706790Y-125417426D01*
X105706786Y-125417424D01*
X105706784Y-125417423D01*
X105554057Y-125376500D01*
X105395943Y-125376500D01*
X105243216Y-125417423D01*
X105243209Y-125417426D01*
X105106290Y-125496475D01*
X105106282Y-125496481D01*
X104994481Y-125608282D01*
X104994475Y-125608290D01*
X104915426Y-125745209D01*
X104915423Y-125745216D01*
X104874500Y-125897943D01*
X100300500Y-125897943D01*
X100300500Y-124020943D01*
X100949500Y-124020943D01*
X100949500Y-124179057D01*
X100983361Y-124305426D01*
X100990423Y-124331783D01*
X100990426Y-124331790D01*
X101069475Y-124468709D01*
X101069479Y-124468714D01*
X101069480Y-124468716D01*
X101181284Y-124580520D01*
X101181286Y-124580521D01*
X101181290Y-124580524D01*
X101272545Y-124633209D01*
X101318216Y-124659577D01*
X101470943Y-124700500D01*
X101470945Y-124700500D01*
X101629055Y-124700500D01*
X101629057Y-124700500D01*
X101781784Y-124659577D01*
X101918716Y-124580520D01*
X102030520Y-124468716D01*
X102109577Y-124331784D01*
X102150500Y-124179057D01*
X102150500Y-124020943D01*
X102109577Y-123868216D01*
X102087392Y-123829790D01*
X102030524Y-123731290D01*
X102030518Y-123731282D01*
X101918715Y-123619479D01*
X101916504Y-123618203D01*
X101916503Y-123618202D01*
X101781784Y-123540423D01*
X101709091Y-123520945D01*
X101701619Y-123518943D01*
X102657500Y-123518943D01*
X102657500Y-123677057D01*
X102661618Y-123692423D01*
X102698423Y-123829783D01*
X102698426Y-123829790D01*
X102777475Y-123966709D01*
X102777479Y-123966714D01*
X102777480Y-123966716D01*
X102889284Y-124078520D01*
X102889286Y-124078521D01*
X102889290Y-124078524D01*
X102945212Y-124110810D01*
X103026216Y-124157577D01*
X103178943Y-124198500D01*
X103178945Y-124198500D01*
X103337055Y-124198500D01*
X103337057Y-124198500D01*
X103489784Y-124157577D01*
X103626716Y-124078520D01*
X103738520Y-123966716D01*
X103817577Y-123829784D01*
X103858500Y-123677057D01*
X103858500Y-123520943D01*
X105999500Y-123520943D01*
X105999500Y-123679057D01*
X106024264Y-123771475D01*
X106040423Y-123831783D01*
X106040426Y-123831790D01*
X106119475Y-123968709D01*
X106119479Y-123968714D01*
X106119480Y-123968716D01*
X106231284Y-124080520D01*
X106231286Y-124080521D01*
X106231290Y-124080524D01*
X106283748Y-124110810D01*
X106368216Y-124159577D01*
X106520943Y-124200500D01*
X106520945Y-124200500D01*
X106679055Y-124200500D01*
X106679057Y-124200500D01*
X106831784Y-124159577D01*
X106968716Y-124080520D01*
X107080520Y-123968716D01*
X107126425Y-123889205D01*
X119909500Y-123889205D01*
X119909500Y-124110794D01*
X119909501Y-124110810D01*
X119935122Y-124305426D01*
X119938425Y-124330508D01*
X119952887Y-124384480D01*
X119995780Y-124544559D01*
X120080581Y-124749286D01*
X120080585Y-124749296D01*
X120191384Y-124941206D01*
X120326286Y-125117014D01*
X120326292Y-125117021D01*
X120482978Y-125273707D01*
X120482985Y-125273713D01*
X120658793Y-125408615D01*
X120850703Y-125519414D01*
X120850704Y-125519414D01*
X120850707Y-125519416D01*
X121055441Y-125604220D01*
X121269492Y-125661575D01*
X121489199Y-125690500D01*
X121489206Y-125690500D01*
X121710794Y-125690500D01*
X121710801Y-125690500D01*
X121930508Y-125661575D01*
X122144559Y-125604220D01*
X122349293Y-125519416D01*
X122541207Y-125408615D01*
X122717016Y-125273712D01*
X122873712Y-125117016D01*
X123008615Y-124941207D01*
X123119416Y-124749293D01*
X123185439Y-124589899D01*
X123229280Y-124535496D01*
X123295574Y-124513431D01*
X123363273Y-124530710D01*
X123410884Y-124581847D01*
X123414561Y-124589900D01*
X123480578Y-124749281D01*
X123480585Y-124749296D01*
X123591384Y-124941206D01*
X123726286Y-125117014D01*
X123726292Y-125117021D01*
X123882978Y-125273707D01*
X123882985Y-125273713D01*
X124058793Y-125408615D01*
X124250703Y-125519414D01*
X124250704Y-125519414D01*
X124250707Y-125519416D01*
X124455441Y-125604220D01*
X124669492Y-125661575D01*
X124889199Y-125690500D01*
X124889206Y-125690500D01*
X125110794Y-125690500D01*
X125110801Y-125690500D01*
X125330508Y-125661575D01*
X125544559Y-125604220D01*
X125749293Y-125519416D01*
X125941207Y-125408615D01*
X126117016Y-125273712D01*
X126273712Y-125117016D01*
X126408615Y-124941207D01*
X126498256Y-124785943D01*
X130514500Y-124785943D01*
X130514500Y-124944056D01*
X130555423Y-125096783D01*
X130555426Y-125096790D01*
X130634475Y-125233709D01*
X130634479Y-125233714D01*
X130634480Y-125233716D01*
X130746284Y-125345520D01*
X130746286Y-125345521D01*
X130746290Y-125345524D01*
X130855569Y-125408615D01*
X130883216Y-125424577D01*
X131035943Y-125465500D01*
X131035945Y-125465500D01*
X131194055Y-125465500D01*
X131194057Y-125465500D01*
X131346784Y-125424577D01*
X131483716Y-125345520D01*
X131595520Y-125233716D01*
X131674577Y-125096784D01*
X131715500Y-124944057D01*
X131715500Y-124785943D01*
X131674577Y-124633216D01*
X131649569Y-124589900D01*
X131595524Y-124496290D01*
X131595518Y-124496282D01*
X131483717Y-124384481D01*
X131483709Y-124384475D01*
X131346790Y-124305426D01*
X131346786Y-124305424D01*
X131346784Y-124305423D01*
X131194057Y-124264500D01*
X131035943Y-124264500D01*
X130883216Y-124305423D01*
X130883209Y-124305426D01*
X130746290Y-124384475D01*
X130746282Y-124384481D01*
X130634481Y-124496282D01*
X130634475Y-124496290D01*
X130555426Y-124633209D01*
X130555423Y-124633216D01*
X130514500Y-124785943D01*
X126498256Y-124785943D01*
X126519416Y-124749293D01*
X126604220Y-124544559D01*
X126661575Y-124330508D01*
X126690500Y-124110801D01*
X126690500Y-123889205D01*
X135209500Y-123889205D01*
X135209500Y-124110794D01*
X135209501Y-124110810D01*
X135235122Y-124305426D01*
X135238425Y-124330508D01*
X135252887Y-124384480D01*
X135295780Y-124544559D01*
X135380581Y-124749286D01*
X135380585Y-124749296D01*
X135491384Y-124941206D01*
X135626286Y-125117014D01*
X135626292Y-125117021D01*
X135782978Y-125273707D01*
X135782985Y-125273713D01*
X135958793Y-125408615D01*
X136150703Y-125519414D01*
X136150704Y-125519414D01*
X136150707Y-125519416D01*
X136355441Y-125604220D01*
X136569492Y-125661575D01*
X136789199Y-125690500D01*
X136789206Y-125690500D01*
X137010794Y-125690500D01*
X137010801Y-125690500D01*
X137230508Y-125661575D01*
X137444559Y-125604220D01*
X137649293Y-125519416D01*
X137841207Y-125408615D01*
X138017016Y-125273712D01*
X138173712Y-125117016D01*
X138308615Y-124941207D01*
X138419416Y-124749293D01*
X138485439Y-124589899D01*
X138529280Y-124535496D01*
X138595574Y-124513431D01*
X138663273Y-124530710D01*
X138710884Y-124581847D01*
X138714561Y-124589900D01*
X138780578Y-124749281D01*
X138780585Y-124749296D01*
X138891384Y-124941206D01*
X139026286Y-125117014D01*
X139026292Y-125117021D01*
X139182978Y-125273707D01*
X139182985Y-125273713D01*
X139358793Y-125408615D01*
X139550703Y-125519414D01*
X139550704Y-125519414D01*
X139550707Y-125519416D01*
X139755441Y-125604220D01*
X139969492Y-125661575D01*
X140189199Y-125690500D01*
X140189206Y-125690500D01*
X140410794Y-125690500D01*
X140410801Y-125690500D01*
X140630508Y-125661575D01*
X140844559Y-125604220D01*
X141049293Y-125519416D01*
X141241207Y-125408615D01*
X141417016Y-125273712D01*
X141573712Y-125117016D01*
X141708615Y-124941207D01*
X141819416Y-124749293D01*
X141904220Y-124544559D01*
X141961575Y-124330508D01*
X141990500Y-124110801D01*
X141990500Y-123889205D01*
X150509500Y-123889205D01*
X150509500Y-124110794D01*
X150509501Y-124110810D01*
X150535122Y-124305426D01*
X150538425Y-124330508D01*
X150552887Y-124384480D01*
X150595780Y-124544559D01*
X150680581Y-124749286D01*
X150680585Y-124749296D01*
X150791384Y-124941206D01*
X150926286Y-125117014D01*
X150926292Y-125117021D01*
X151082978Y-125273707D01*
X151082985Y-125273713D01*
X151258793Y-125408615D01*
X151450703Y-125519414D01*
X151450704Y-125519414D01*
X151450707Y-125519416D01*
X151655441Y-125604220D01*
X151869492Y-125661575D01*
X152089199Y-125690500D01*
X152089206Y-125690500D01*
X152310794Y-125690500D01*
X152310801Y-125690500D01*
X152530508Y-125661575D01*
X152744559Y-125604220D01*
X152949293Y-125519416D01*
X153141207Y-125408615D01*
X153317016Y-125273712D01*
X153473712Y-125117016D01*
X153608615Y-124941207D01*
X153719416Y-124749293D01*
X153785439Y-124589899D01*
X153829280Y-124535496D01*
X153895574Y-124513431D01*
X153963273Y-124530710D01*
X154010884Y-124581847D01*
X154014561Y-124589900D01*
X154080578Y-124749281D01*
X154080585Y-124749296D01*
X154191384Y-124941206D01*
X154326286Y-125117014D01*
X154326292Y-125117021D01*
X154482978Y-125273707D01*
X154482985Y-125273713D01*
X154658793Y-125408615D01*
X154850703Y-125519414D01*
X154850704Y-125519414D01*
X154850707Y-125519416D01*
X155055441Y-125604220D01*
X155269492Y-125661575D01*
X155489199Y-125690500D01*
X155489206Y-125690500D01*
X155710794Y-125690500D01*
X155710801Y-125690500D01*
X155930508Y-125661575D01*
X156144559Y-125604220D01*
X156349293Y-125519416D01*
X156541207Y-125408615D01*
X156717016Y-125273712D01*
X156873712Y-125117016D01*
X157008615Y-124941207D01*
X157119416Y-124749293D01*
X157126364Y-124732520D01*
X157133232Y-124715939D01*
X157177072Y-124661535D01*
X157243366Y-124639470D01*
X157311066Y-124656749D01*
X157335474Y-124675710D01*
X157392284Y-124732520D01*
X157392286Y-124732521D01*
X157392290Y-124732524D01*
X157529209Y-124811573D01*
X157529216Y-124811577D01*
X157681943Y-124852500D01*
X157681945Y-124852500D01*
X157840055Y-124852500D01*
X157840057Y-124852500D01*
X157992784Y-124811577D01*
X158037184Y-124785943D01*
X161403500Y-124785943D01*
X161403500Y-124944056D01*
X161444423Y-125096783D01*
X161444426Y-125096790D01*
X161523475Y-125233709D01*
X161523479Y-125233714D01*
X161523480Y-125233716D01*
X161635284Y-125345520D01*
X161635286Y-125345521D01*
X161635290Y-125345524D01*
X161744569Y-125408615D01*
X161772216Y-125424577D01*
X161924943Y-125465500D01*
X161924945Y-125465500D01*
X162083055Y-125465500D01*
X162083057Y-125465500D01*
X162235784Y-125424577D01*
X162372716Y-125345520D01*
X162484520Y-125233716D01*
X162563577Y-125096784D01*
X162604500Y-124944057D01*
X162604500Y-124785943D01*
X162563577Y-124633216D01*
X162538569Y-124589900D01*
X162484524Y-124496290D01*
X162484518Y-124496282D01*
X162372717Y-124384481D01*
X162372709Y-124384475D01*
X162235790Y-124305426D01*
X162235786Y-124305424D01*
X162235784Y-124305423D01*
X162083057Y-124264500D01*
X161924943Y-124264500D01*
X161772216Y-124305423D01*
X161772209Y-124305426D01*
X161635290Y-124384475D01*
X161635282Y-124384481D01*
X161523481Y-124496282D01*
X161523475Y-124496290D01*
X161444426Y-124633209D01*
X161444423Y-124633216D01*
X161403500Y-124785943D01*
X158037184Y-124785943D01*
X158129716Y-124732520D01*
X158241520Y-124620716D01*
X158320577Y-124483784D01*
X158361500Y-124331057D01*
X158361500Y-124172943D01*
X158320577Y-124020216D01*
X158244938Y-123889205D01*
X165809500Y-123889205D01*
X165809500Y-124110794D01*
X165809501Y-124110810D01*
X165835122Y-124305426D01*
X165838425Y-124330508D01*
X165852887Y-124384480D01*
X165895780Y-124544559D01*
X165980581Y-124749286D01*
X165980585Y-124749296D01*
X166091384Y-124941206D01*
X166226286Y-125117014D01*
X166226292Y-125117021D01*
X166382978Y-125273707D01*
X166382985Y-125273713D01*
X166558793Y-125408615D01*
X166750703Y-125519414D01*
X166750704Y-125519414D01*
X166750707Y-125519416D01*
X166955441Y-125604220D01*
X167169492Y-125661575D01*
X167389199Y-125690500D01*
X167389206Y-125690500D01*
X167610794Y-125690500D01*
X167610801Y-125690500D01*
X167830508Y-125661575D01*
X168044559Y-125604220D01*
X168249293Y-125519416D01*
X168441207Y-125408615D01*
X168617016Y-125273712D01*
X168773712Y-125117016D01*
X168908615Y-124941207D01*
X169019416Y-124749293D01*
X169085439Y-124589899D01*
X169129280Y-124535496D01*
X169195574Y-124513431D01*
X169263273Y-124530710D01*
X169310884Y-124581847D01*
X169314561Y-124589900D01*
X169380578Y-124749281D01*
X169380585Y-124749296D01*
X169491384Y-124941206D01*
X169626286Y-125117014D01*
X169626292Y-125117021D01*
X169782978Y-125273707D01*
X169782985Y-125273713D01*
X169958793Y-125408615D01*
X170150703Y-125519414D01*
X170150704Y-125519414D01*
X170150707Y-125519416D01*
X170355441Y-125604220D01*
X170569492Y-125661575D01*
X170789199Y-125690500D01*
X170789206Y-125690500D01*
X171010794Y-125690500D01*
X171010801Y-125690500D01*
X171128168Y-125675048D01*
X171197203Y-125685813D01*
X171249458Y-125732193D01*
X171268344Y-125799462D01*
X171264128Y-125830078D01*
X171250500Y-125880938D01*
X171250500Y-126039056D01*
X171291423Y-126191783D01*
X171291426Y-126191790D01*
X171370475Y-126328709D01*
X171370479Y-126328714D01*
X171370480Y-126328716D01*
X171482284Y-126440520D01*
X171482286Y-126440521D01*
X171482290Y-126440524D01*
X171619209Y-126519573D01*
X171619216Y-126519577D01*
X171771943Y-126560500D01*
X171771945Y-126560500D01*
X171930055Y-126560500D01*
X171930057Y-126560500D01*
X172082784Y-126519577D01*
X172219716Y-126440520D01*
X172331520Y-126328716D01*
X172410577Y-126191784D01*
X172451500Y-126039057D01*
X172451500Y-125880943D01*
X172410577Y-125728216D01*
X172372102Y-125661575D01*
X172331524Y-125591290D01*
X172331518Y-125591282D01*
X172219717Y-125479481D01*
X172219712Y-125479477D01*
X172100707Y-125410770D01*
X172052491Y-125360203D01*
X172039268Y-125291596D01*
X172065236Y-125226731D01*
X172075018Y-125215709D01*
X172173712Y-125117016D01*
X172308615Y-124941207D01*
X172419416Y-124749293D01*
X172504220Y-124544559D01*
X172561575Y-124330508D01*
X172590500Y-124110801D01*
X172590500Y-123889199D01*
X172561575Y-123669492D01*
X172504220Y-123455441D01*
X172419416Y-123250707D01*
X172407047Y-123229284D01*
X172308615Y-123058793D01*
X172173713Y-122882985D01*
X172173707Y-122882978D01*
X172017021Y-122726292D01*
X172017014Y-122726286D01*
X171841206Y-122591384D01*
X171649296Y-122480585D01*
X171649286Y-122480581D01*
X171444559Y-122395780D01*
X171230504Y-122338424D01*
X171010810Y-122309501D01*
X171010807Y-122309500D01*
X171010801Y-122309500D01*
X170789199Y-122309500D01*
X170789193Y-122309500D01*
X170789189Y-122309501D01*
X170569495Y-122338424D01*
X170355440Y-122395780D01*
X170150713Y-122480581D01*
X170150703Y-122480585D01*
X169958793Y-122591384D01*
X169782985Y-122726286D01*
X169782978Y-122726292D01*
X169626292Y-122882978D01*
X169626286Y-122882985D01*
X169491384Y-123058793D01*
X169380585Y-123250703D01*
X169380581Y-123250713D01*
X169314561Y-123410100D01*
X169270720Y-123464503D01*
X169204426Y-123486568D01*
X169136727Y-123469289D01*
X169089116Y-123418152D01*
X169085439Y-123410100D01*
X169068087Y-123368209D01*
X169019416Y-123250707D01*
X169007047Y-123229284D01*
X168908615Y-123058793D01*
X168773713Y-122882985D01*
X168773707Y-122882978D01*
X168617021Y-122726292D01*
X168617014Y-122726286D01*
X168441206Y-122591384D01*
X168249296Y-122480585D01*
X168249286Y-122480581D01*
X168044559Y-122395780D01*
X167830504Y-122338424D01*
X167610810Y-122309501D01*
X167610807Y-122309500D01*
X167610801Y-122309500D01*
X167389199Y-122309500D01*
X167389193Y-122309500D01*
X167389189Y-122309501D01*
X167169495Y-122338424D01*
X166955440Y-122395780D01*
X166750713Y-122480581D01*
X166750703Y-122480585D01*
X166558793Y-122591384D01*
X166382985Y-122726286D01*
X166382978Y-122726292D01*
X166226292Y-122882978D01*
X166226286Y-122882985D01*
X166091384Y-123058793D01*
X165980585Y-123250703D01*
X165980581Y-123250713D01*
X165895780Y-123455440D01*
X165838424Y-123669495D01*
X165809501Y-123889189D01*
X165809500Y-123889205D01*
X158244938Y-123889205D01*
X158241520Y-123883284D01*
X158129716Y-123771480D01*
X158129714Y-123771479D01*
X158129709Y-123771475D01*
X157992790Y-123692426D01*
X157992786Y-123692424D01*
X157992784Y-123692423D01*
X157840057Y-123651500D01*
X157681943Y-123651500D01*
X157529216Y-123692423D01*
X157529211Y-123692425D01*
X157442700Y-123742371D01*
X157374800Y-123758842D01*
X157308773Y-123735989D01*
X157265584Y-123681067D01*
X157260930Y-123667085D01*
X157204220Y-123455441D01*
X157119416Y-123250707D01*
X157107047Y-123229284D01*
X157008615Y-123058793D01*
X156873713Y-122882985D01*
X156873707Y-122882978D01*
X156717021Y-122726292D01*
X156717014Y-122726286D01*
X156541206Y-122591384D01*
X156349296Y-122480585D01*
X156349286Y-122480581D01*
X156144559Y-122395780D01*
X155930504Y-122338424D01*
X155710810Y-122309501D01*
X155710807Y-122309500D01*
X155710801Y-122309500D01*
X155489199Y-122309500D01*
X155489193Y-122309500D01*
X155489189Y-122309501D01*
X155269495Y-122338424D01*
X155055440Y-122395780D01*
X154850713Y-122480581D01*
X154850703Y-122480585D01*
X154658793Y-122591384D01*
X154482985Y-122726286D01*
X154482978Y-122726292D01*
X154326292Y-122882978D01*
X154326286Y-122882985D01*
X154191384Y-123058793D01*
X154080585Y-123250703D01*
X154080581Y-123250713D01*
X154014561Y-123410100D01*
X153970720Y-123464503D01*
X153904426Y-123486568D01*
X153836727Y-123469289D01*
X153789116Y-123418152D01*
X153785439Y-123410100D01*
X153768087Y-123368209D01*
X153719416Y-123250707D01*
X153707047Y-123229284D01*
X153608615Y-123058793D01*
X153473713Y-122882985D01*
X153473707Y-122882978D01*
X153317021Y-122726292D01*
X153317014Y-122726286D01*
X153141206Y-122591384D01*
X152949296Y-122480585D01*
X152949286Y-122480581D01*
X152744559Y-122395780D01*
X152530504Y-122338424D01*
X152310810Y-122309501D01*
X152310807Y-122309500D01*
X152310801Y-122309500D01*
X152089199Y-122309500D01*
X152089193Y-122309500D01*
X152089189Y-122309501D01*
X151869495Y-122338424D01*
X151655440Y-122395780D01*
X151450713Y-122480581D01*
X151450703Y-122480585D01*
X151258793Y-122591384D01*
X151082985Y-122726286D01*
X151082978Y-122726292D01*
X150926292Y-122882978D01*
X150926286Y-122882985D01*
X150791384Y-123058793D01*
X150680585Y-123250703D01*
X150680581Y-123250713D01*
X150595780Y-123455440D01*
X150538424Y-123669495D01*
X150509501Y-123889189D01*
X150509500Y-123889205D01*
X141990500Y-123889205D01*
X141990500Y-123889199D01*
X141961575Y-123669492D01*
X141904220Y-123455441D01*
X141819416Y-123250707D01*
X141807047Y-123229284D01*
X141708615Y-123058793D01*
X141573713Y-122882985D01*
X141573707Y-122882978D01*
X141417021Y-122726292D01*
X141417014Y-122726286D01*
X141241206Y-122591384D01*
X141049296Y-122480585D01*
X141049286Y-122480581D01*
X140844559Y-122395780D01*
X140630504Y-122338424D01*
X140410810Y-122309501D01*
X140410807Y-122309500D01*
X140410801Y-122309500D01*
X140189199Y-122309500D01*
X140189193Y-122309500D01*
X140189189Y-122309501D01*
X139969495Y-122338424D01*
X139755440Y-122395780D01*
X139550713Y-122480581D01*
X139550703Y-122480585D01*
X139358793Y-122591384D01*
X139182985Y-122726286D01*
X139182978Y-122726292D01*
X139026292Y-122882978D01*
X139026286Y-122882985D01*
X138891384Y-123058793D01*
X138780585Y-123250703D01*
X138780581Y-123250713D01*
X138714561Y-123410100D01*
X138670720Y-123464503D01*
X138604426Y-123486568D01*
X138536727Y-123469289D01*
X138489116Y-123418152D01*
X138485439Y-123410100D01*
X138468087Y-123368209D01*
X138419416Y-123250707D01*
X138407047Y-123229284D01*
X138308615Y-123058793D01*
X138173713Y-122882985D01*
X138173707Y-122882978D01*
X138017021Y-122726292D01*
X138017014Y-122726286D01*
X137841206Y-122591384D01*
X137649296Y-122480585D01*
X137649286Y-122480581D01*
X137444559Y-122395780D01*
X137230504Y-122338424D01*
X137010810Y-122309501D01*
X137010807Y-122309500D01*
X137010801Y-122309500D01*
X136789199Y-122309500D01*
X136789193Y-122309500D01*
X136789189Y-122309501D01*
X136569495Y-122338424D01*
X136355440Y-122395780D01*
X136150713Y-122480581D01*
X136150703Y-122480585D01*
X135958793Y-122591384D01*
X135782985Y-122726286D01*
X135782978Y-122726292D01*
X135626292Y-122882978D01*
X135626286Y-122882985D01*
X135491384Y-123058793D01*
X135380585Y-123250703D01*
X135380581Y-123250713D01*
X135295780Y-123455440D01*
X135238424Y-123669495D01*
X135209501Y-123889189D01*
X135209500Y-123889205D01*
X126690500Y-123889205D01*
X126690500Y-123889199D01*
X126661575Y-123669492D01*
X126604220Y-123455441D01*
X126519416Y-123250707D01*
X126507047Y-123229284D01*
X126408615Y-123058793D01*
X126273713Y-122882985D01*
X126273707Y-122882978D01*
X126117021Y-122726292D01*
X126117014Y-122726286D01*
X125941206Y-122591384D01*
X125749296Y-122480585D01*
X125749286Y-122480581D01*
X125544559Y-122395780D01*
X125330504Y-122338424D01*
X125110810Y-122309501D01*
X125110807Y-122309500D01*
X125110801Y-122309500D01*
X124889199Y-122309500D01*
X124889193Y-122309500D01*
X124889189Y-122309501D01*
X124669495Y-122338424D01*
X124455440Y-122395780D01*
X124250713Y-122480581D01*
X124250703Y-122480585D01*
X124058793Y-122591384D01*
X123882985Y-122726286D01*
X123882978Y-122726292D01*
X123726292Y-122882978D01*
X123726286Y-122882985D01*
X123591384Y-123058793D01*
X123480585Y-123250703D01*
X123480581Y-123250713D01*
X123414561Y-123410100D01*
X123370720Y-123464503D01*
X123304426Y-123486568D01*
X123236727Y-123469289D01*
X123189116Y-123418152D01*
X123185439Y-123410100D01*
X123168087Y-123368209D01*
X123119416Y-123250707D01*
X123107047Y-123229284D01*
X123008615Y-123058793D01*
X122873713Y-122882985D01*
X122873707Y-122882978D01*
X122717021Y-122726292D01*
X122717014Y-122726286D01*
X122541206Y-122591384D01*
X122349296Y-122480585D01*
X122349286Y-122480581D01*
X122144559Y-122395780D01*
X121930504Y-122338424D01*
X121710810Y-122309501D01*
X121710807Y-122309500D01*
X121710801Y-122309500D01*
X121489199Y-122309500D01*
X121489193Y-122309500D01*
X121489189Y-122309501D01*
X121269495Y-122338424D01*
X121055440Y-122395780D01*
X120850713Y-122480581D01*
X120850703Y-122480585D01*
X120658793Y-122591384D01*
X120482985Y-122726286D01*
X120482978Y-122726292D01*
X120326292Y-122882978D01*
X120326286Y-122882985D01*
X120191384Y-123058793D01*
X120080585Y-123250703D01*
X120080581Y-123250713D01*
X119995780Y-123455440D01*
X119938424Y-123669495D01*
X119909501Y-123889189D01*
X119909500Y-123889205D01*
X107126425Y-123889205D01*
X107159577Y-123831784D01*
X107200500Y-123679057D01*
X107200500Y-123520943D01*
X107159577Y-123368216D01*
X107158418Y-123366209D01*
X107080524Y-123231290D01*
X107080518Y-123231282D01*
X106968717Y-123119481D01*
X106968709Y-123119475D01*
X106831790Y-123040426D01*
X106831786Y-123040424D01*
X106831784Y-123040423D01*
X106679057Y-122999500D01*
X106520943Y-122999500D01*
X106368216Y-123040423D01*
X106368209Y-123040426D01*
X106231290Y-123119475D01*
X106231282Y-123119481D01*
X106119481Y-123231282D01*
X106119475Y-123231290D01*
X106040426Y-123368209D01*
X106040423Y-123368216D01*
X105999500Y-123520943D01*
X103858500Y-123520943D01*
X103858500Y-123518943D01*
X103817577Y-123366216D01*
X103750892Y-123250713D01*
X103738524Y-123229290D01*
X103738518Y-123229282D01*
X103626717Y-123117481D01*
X103626709Y-123117475D01*
X103489790Y-123038426D01*
X103489786Y-123038424D01*
X103489784Y-123038423D01*
X103337057Y-122997500D01*
X103178943Y-122997500D01*
X103026216Y-123038423D01*
X103026209Y-123038426D01*
X102889290Y-123117475D01*
X102889282Y-123117481D01*
X102777481Y-123229282D01*
X102777475Y-123229290D01*
X102698426Y-123366209D01*
X102698423Y-123366216D01*
X102657500Y-123518943D01*
X101701619Y-123518943D01*
X101629057Y-123499500D01*
X101470943Y-123499500D01*
X101318216Y-123540423D01*
X101318209Y-123540426D01*
X101181290Y-123619475D01*
X101181282Y-123619481D01*
X101069481Y-123731282D01*
X101069475Y-123731290D01*
X100990426Y-123868209D01*
X100990423Y-123868216D01*
X100949500Y-124020943D01*
X100300500Y-124020943D01*
X100300500Y-121236943D01*
X107115500Y-121236943D01*
X107115500Y-121395056D01*
X107156423Y-121547783D01*
X107156426Y-121547790D01*
X107235475Y-121684709D01*
X107235479Y-121684714D01*
X107235480Y-121684716D01*
X107347284Y-121796520D01*
X107347286Y-121796521D01*
X107347290Y-121796524D01*
X107484209Y-121875573D01*
X107484216Y-121875577D01*
X107636943Y-121916500D01*
X107636945Y-121916500D01*
X107795055Y-121916500D01*
X107795057Y-121916500D01*
X107947784Y-121875577D01*
X108084716Y-121796520D01*
X108196520Y-121684716D01*
X108275577Y-121547784D01*
X108316500Y-121395057D01*
X108316500Y-121236943D01*
X108275577Y-121084216D01*
X108275573Y-121084209D01*
X108196524Y-120947290D01*
X108196518Y-120947282D01*
X108084717Y-120835481D01*
X108084709Y-120835475D01*
X107947790Y-120756426D01*
X107947786Y-120756424D01*
X107947784Y-120756423D01*
X107795057Y-120715500D01*
X107636943Y-120715500D01*
X107484216Y-120756423D01*
X107484209Y-120756426D01*
X107347290Y-120835475D01*
X107347282Y-120835481D01*
X107235481Y-120947282D01*
X107235475Y-120947290D01*
X107156426Y-121084209D01*
X107156423Y-121084216D01*
X107115500Y-121236943D01*
X100300500Y-121236943D01*
X100300500Y-118434943D01*
X100949500Y-118434943D01*
X100949500Y-118593057D01*
X100963546Y-118645475D01*
X100990423Y-118745783D01*
X100990426Y-118745790D01*
X101069475Y-118882709D01*
X101069479Y-118882714D01*
X101069480Y-118882716D01*
X101181284Y-118994520D01*
X101181286Y-118994521D01*
X101181290Y-118994524D01*
X101318209Y-119073573D01*
X101318216Y-119073577D01*
X101470943Y-119114500D01*
X101470945Y-119114500D01*
X101629055Y-119114500D01*
X101629057Y-119114500D01*
X101781784Y-119073577D01*
X101827916Y-119046943D01*
X131896500Y-119046943D01*
X131896500Y-119205057D01*
X131904651Y-119235475D01*
X131937423Y-119357783D01*
X131937426Y-119357790D01*
X132016475Y-119494709D01*
X132016479Y-119494714D01*
X132016480Y-119494716D01*
X132128284Y-119606520D01*
X132128286Y-119606521D01*
X132134735Y-119611470D01*
X132132721Y-119614094D01*
X132170304Y-119653526D01*
X132183513Y-119722136D01*
X132157532Y-119786995D01*
X132147759Y-119798005D01*
X132089478Y-119856286D01*
X132089475Y-119856290D01*
X132010426Y-119993209D01*
X132010423Y-119993216D01*
X131969500Y-120145943D01*
X131969500Y-120304056D01*
X132010423Y-120456783D01*
X132010426Y-120456790D01*
X132089475Y-120593709D01*
X132089479Y-120593714D01*
X132089480Y-120593716D01*
X132201284Y-120705520D01*
X132201286Y-120705521D01*
X132201290Y-120705524D01*
X132338209Y-120784573D01*
X132338216Y-120784577D01*
X132490943Y-120825500D01*
X132490945Y-120825500D01*
X132649055Y-120825500D01*
X132649057Y-120825500D01*
X132801784Y-120784577D01*
X132938716Y-120705520D01*
X133050520Y-120593716D01*
X133129577Y-120456784D01*
X133170500Y-120304057D01*
X133170500Y-120145943D01*
X133129577Y-119993216D01*
X133103347Y-119947784D01*
X133050524Y-119856290D01*
X133050518Y-119856282D01*
X132938717Y-119744481D01*
X132932265Y-119739530D01*
X132934274Y-119736911D01*
X132927641Y-119729947D01*
X132907655Y-119714985D01*
X132903962Y-119705084D01*
X132896673Y-119697431D01*
X132891961Y-119672910D01*
X132883238Y-119649521D01*
X132885484Y-119639195D01*
X132885051Y-119636943D01*
X159112500Y-119636943D01*
X159112500Y-119795057D01*
X159128908Y-119856290D01*
X159153423Y-119947783D01*
X159153426Y-119947790D01*
X159232475Y-120084709D01*
X159232479Y-120084714D01*
X159232480Y-120084716D01*
X159344284Y-120196520D01*
X159344286Y-120196521D01*
X159344290Y-120196524D01*
X159481209Y-120275573D01*
X159481216Y-120275577D01*
X159633943Y-120316500D01*
X159633945Y-120316500D01*
X159792055Y-120316500D01*
X159792057Y-120316500D01*
X159944784Y-120275577D01*
X160081716Y-120196520D01*
X160132293Y-120145943D01*
X166548500Y-120145943D01*
X166548500Y-120304056D01*
X166589423Y-120456783D01*
X166589426Y-120456790D01*
X166668475Y-120593709D01*
X166668479Y-120593714D01*
X166668480Y-120593716D01*
X166780284Y-120705520D01*
X166780286Y-120705521D01*
X166780290Y-120705524D01*
X166917209Y-120784573D01*
X166917216Y-120784577D01*
X167069943Y-120825500D01*
X167069945Y-120825500D01*
X167228055Y-120825500D01*
X167228057Y-120825500D01*
X167380784Y-120784577D01*
X167517716Y-120705520D01*
X167629520Y-120593716D01*
X167708577Y-120456784D01*
X167749500Y-120304057D01*
X167749500Y-120145943D01*
X167708577Y-119993216D01*
X167682347Y-119947784D01*
X167629524Y-119856290D01*
X167629518Y-119856282D01*
X167517717Y-119744481D01*
X167517709Y-119744475D01*
X167380790Y-119665426D01*
X167380786Y-119665424D01*
X167380784Y-119665423D01*
X167228057Y-119624500D01*
X167069943Y-119624500D01*
X166917216Y-119665423D01*
X166917209Y-119665426D01*
X166780290Y-119744475D01*
X166780282Y-119744481D01*
X166668481Y-119856282D01*
X166668475Y-119856290D01*
X166589426Y-119993209D01*
X166589423Y-119993216D01*
X166548500Y-120145943D01*
X160132293Y-120145943D01*
X160193520Y-120084716D01*
X160272577Y-119947784D01*
X160313500Y-119795057D01*
X160313500Y-119636943D01*
X160272577Y-119484216D01*
X160199586Y-119357790D01*
X160193524Y-119347290D01*
X160193518Y-119347282D01*
X160081717Y-119235481D01*
X160081709Y-119235475D01*
X159944790Y-119156426D01*
X159944786Y-119156424D01*
X159944784Y-119156423D01*
X159792057Y-119115500D01*
X159633943Y-119115500D01*
X159481216Y-119156423D01*
X159481209Y-119156426D01*
X159344290Y-119235475D01*
X159344282Y-119235481D01*
X159232481Y-119347282D01*
X159232475Y-119347290D01*
X159153426Y-119484209D01*
X159153423Y-119484216D01*
X159112500Y-119636943D01*
X132885051Y-119636943D01*
X132883490Y-119628816D01*
X132892783Y-119605641D01*
X132898090Y-119581248D01*
X132907730Y-119568370D01*
X132909496Y-119563967D01*
X132919233Y-119553002D01*
X132977520Y-119494716D01*
X133056577Y-119357784D01*
X133097500Y-119205057D01*
X133097500Y-119046943D01*
X133056577Y-118894216D01*
X133049938Y-118882716D01*
X132977524Y-118757290D01*
X132977518Y-118757282D01*
X132865717Y-118645481D01*
X132865709Y-118645475D01*
X132728790Y-118566426D01*
X132728786Y-118566424D01*
X132728784Y-118566423D01*
X132576057Y-118525500D01*
X132417943Y-118525500D01*
X132265216Y-118566423D01*
X132265209Y-118566426D01*
X132128290Y-118645475D01*
X132128282Y-118645481D01*
X132016481Y-118757282D01*
X132016475Y-118757290D01*
X131937426Y-118894209D01*
X131937423Y-118894216D01*
X131896500Y-119046943D01*
X101827916Y-119046943D01*
X101918716Y-118994520D01*
X102030520Y-118882716D01*
X102109577Y-118745784D01*
X102150500Y-118593057D01*
X102150500Y-118434943D01*
X102109577Y-118282216D01*
X102109573Y-118282209D01*
X102030524Y-118145290D01*
X102030518Y-118145282D01*
X101918717Y-118033481D01*
X101918709Y-118033475D01*
X101781790Y-117954426D01*
X101781786Y-117954424D01*
X101781784Y-117954423D01*
X101629057Y-117913500D01*
X101470943Y-117913500D01*
X101318216Y-117954423D01*
X101318209Y-117954426D01*
X101181290Y-118033475D01*
X101181282Y-118033481D01*
X101069481Y-118145282D01*
X101069475Y-118145290D01*
X100990426Y-118282209D01*
X100990423Y-118282216D01*
X100949500Y-118434943D01*
X100300500Y-118434943D01*
X100300500Y-117124000D01*
X100320185Y-117056961D01*
X100372989Y-117011206D01*
X100424500Y-117000000D01*
X187575500Y-117000000D01*
X187642539Y-117019685D01*
G37*
%TD.AperFunction*%
%TD*%
M02*
