%TF.GenerationSoftware,KiCad,Pcbnew,9.0.9*%
%TF.CreationDate,2026-10-06T22:22:31+00:00*%
%TF.ProjectId,AP_Dist4,41505f44-6973-4743-942e-6b696361645f,rev?*%
%TF.SameCoordinates,Original*%
%TF.FileFunction,Legend,Top*%
%TF.FilePolarity,Positive*%
%FSLAX46Y46*%
G04 Gerber Fmt 4.6, Leading zero omitted, Abs format (unit mm)*
G04 Created by KiCad (PCBNEW 9.0.9) date 2026-10-06 22:22:31*
%MOMM*%
%LPD*%
G01*
G04 APERTURE LIST*
G04 Aperture macros list*
%AMRoundRect*
0 Rectangle with rounded corners*
0 $1 Rounding radius*
0 $2 $3 $4 $5 $6 $7 $8 $9 X,Y pos of 4 corners*
0 Add a 4 corners polygon primitive as box body*
4,1,4,$2,$3,$4,$5,$6,$7,$8,$9,$2,$3,0*
0 Add four circle primitives for the rounded corners*
1,1,$1+$1,$2,$3*
1,1,$1+$1,$4,$5*
1,1,$1+$1,$6,$7*
1,1,$1+$1,$8,$9*
0 Add four rect primitives between the rounded corners*
20,1,$1+$1,$2,$3,$4,$5,0*
20,1,$1+$1,$4,$5,$6,$7,0*
20,1,$1+$1,$6,$7,$8,$9,0*
20,1,$1+$1,$8,$9,$2,$3,0*%
%AMFreePoly0*
4,1,23,0.500000,-0.750000,0.000000,-0.750000,0.000000,-0.745722,-0.065263,-0.745722,-0.191342,-0.711940,-0.304381,-0.646677,-0.396677,-0.554381,-0.461940,-0.441342,-0.495722,-0.315263,-0.495722,-0.250000,-0.500000,-0.250000,-0.500000,0.250000,-0.495722,0.250000,-0.495722,0.315263,-0.461940,0.441342,-0.396677,0.554381,-0.304381,0.646677,-0.191342,0.711940,-0.065263,0.745722,0.000000,0.745722,
0.000000,0.750000,0.500000,0.750000,0.500000,-0.750000,0.500000,-0.750000,$1*%
%AMFreePoly1*
4,1,23,0.000000,0.745722,0.065263,0.745722,0.191342,0.711940,0.304381,0.646677,0.396677,0.554381,0.461940,0.441342,0.495722,0.315263,0.495722,0.250000,0.500000,0.250000,0.500000,-0.250000,0.495722,-0.250000,0.495722,-0.315263,0.461940,-0.441342,0.396677,-0.554381,0.304381,-0.646677,0.191342,-0.711940,0.065263,-0.745722,0.000000,-0.745722,0.000000,-0.750000,-0.500000,-0.750000,
-0.500000,0.750000,0.000000,0.750000,0.000000,0.745722,0.000000,0.745722,$1*%
G04 Aperture macros list end*
%ADD10C,0.120000*%
%ADD11C,0.135000*%
%ADD12C,0.150000*%
%ADD13RoundRect,0.200000X0.275000X-0.200000X0.275000X0.200000X-0.275000X0.200000X-0.275000X-0.200000X0*%
%ADD14C,3.200000*%
%ADD15RoundRect,0.150000X0.150000X-0.662500X0.150000X0.662500X-0.150000X0.662500X-0.150000X-0.662500X0*%
%ADD16RoundRect,0.250000X-0.312500X-0.625000X0.312500X-0.625000X0.312500X0.625000X-0.312500X0.625000X0*%
%ADD17RoundRect,0.250000X0.625000X-0.312500X0.625000X0.312500X-0.625000X0.312500X-0.625000X-0.312500X0*%
%ADD18RoundRect,0.250001X-1.099999X-1.099999X1.099999X-1.099999X1.099999X1.099999X-1.099999X1.099999X0*%
%ADD19C,2.700000*%
%ADD20RoundRect,0.225000X-0.225000X-0.250000X0.225000X-0.250000X0.225000X0.250000X-0.225000X0.250000X0*%
%ADD21RoundRect,0.218750X0.256250X-0.218750X0.256250X0.218750X-0.256250X0.218750X-0.256250X-0.218750X0*%
%ADD22RoundRect,0.150000X0.150000X0.625000X-0.150000X0.625000X-0.150000X-0.625000X0.150000X-0.625000X0*%
%ADD23RoundRect,0.250000X0.350000X0.650000X-0.350000X0.650000X-0.350000X-0.650000X0.350000X-0.650000X0*%
%ADD24RoundRect,0.200000X-0.200000X-0.275000X0.200000X-0.275000X0.200000X0.275000X-0.200000X0.275000X0*%
%ADD25FreePoly0,0.000000*%
%ADD26FreePoly1,0.000000*%
%ADD27C,2.780000*%
%ADD28R,2.000000X0.900000*%
%ADD29RoundRect,1.025000X1.025000X-1.025000X1.025000X1.025000X-1.025000X1.025000X-1.025000X-1.025000X0*%
%ADD30C,4.100000*%
%ADD31RoundRect,0.100000X-0.637500X-0.100000X0.637500X-0.100000X0.637500X0.100000X-0.637500X0.100000X0*%
G04 APERTURE END LIST*
D10*
X129814284Y-137344807D02*
X129547618Y-137344807D01*
X129547618Y-137763855D02*
X129547618Y-136963855D01*
X129547618Y-136963855D02*
X129928570Y-136963855D01*
X132433332Y-136963855D02*
X132699999Y-137763855D01*
X132699999Y-137763855D02*
X132966665Y-136963855D01*
X145814285Y-137344807D02*
X145547619Y-137344807D01*
X145547619Y-137763855D02*
X145547619Y-136963855D01*
X145547619Y-136963855D02*
X145928571Y-136963855D01*
X148433333Y-136963855D02*
X148700000Y-137763855D01*
X148700000Y-137763855D02*
X148966666Y-136963855D01*
X161814285Y-137344807D02*
X161547619Y-137344807D01*
X161547619Y-137763855D02*
X161547619Y-136963855D01*
X161547619Y-136963855D02*
X161928571Y-136963855D01*
X164433333Y-136963855D02*
X164700000Y-137763855D01*
X164700000Y-137763855D02*
X164966666Y-136963855D01*
X177814285Y-137344807D02*
X177547619Y-137344807D01*
X177547619Y-137763855D02*
X177547619Y-136963855D01*
X177547619Y-136963855D02*
X177928571Y-136963855D01*
X180433333Y-136963855D02*
X180700000Y-137763855D01*
X180700000Y-137763855D02*
X180966666Y-136963855D01*
D11*
X103321427Y-150537908D02*
X103621427Y-150537908D01*
X103749999Y-151009337D02*
X103321427Y-151009337D01*
X103321427Y-151009337D02*
X103321427Y-150109337D01*
X103321427Y-150109337D02*
X103749999Y-150109337D01*
X104135713Y-151009337D02*
X104135713Y-150109337D01*
X104135713Y-150109337D02*
X104649999Y-151009337D01*
X104649999Y-151009337D02*
X104649999Y-150109337D01*
X104949999Y-150109337D02*
X105464285Y-150109337D01*
X105207142Y-151009337D02*
X105207142Y-150109337D01*
X106278570Y-151009337D02*
X105978570Y-150580765D01*
X105764284Y-151009337D02*
X105764284Y-150109337D01*
X105764284Y-150109337D02*
X106107141Y-150109337D01*
X106107141Y-150109337D02*
X106192856Y-150152194D01*
X106192856Y-150152194D02*
X106235713Y-150195051D01*
X106235713Y-150195051D02*
X106278570Y-150280765D01*
X106278570Y-150280765D02*
X106278570Y-150409337D01*
X106278570Y-150409337D02*
X106235713Y-150495051D01*
X106235713Y-150495051D02*
X106192856Y-150537908D01*
X106192856Y-150537908D02*
X106107141Y-150580765D01*
X106107141Y-150580765D02*
X105764284Y-150580765D01*
X106621427Y-150752194D02*
X107049999Y-150752194D01*
X106535713Y-151009337D02*
X106835713Y-150109337D01*
X106835713Y-150109337D02*
X107135713Y-151009337D01*
X107435713Y-151009337D02*
X107435713Y-150109337D01*
X107435713Y-150109337D02*
X107649999Y-150109337D01*
X107649999Y-150109337D02*
X107778570Y-150152194D01*
X107778570Y-150152194D02*
X107864285Y-150237908D01*
X107864285Y-150237908D02*
X107907142Y-150323622D01*
X107907142Y-150323622D02*
X107949999Y-150495051D01*
X107949999Y-150495051D02*
X107949999Y-150623622D01*
X107949999Y-150623622D02*
X107907142Y-150795051D01*
X107907142Y-150795051D02*
X107864285Y-150880765D01*
X107864285Y-150880765D02*
X107778570Y-150966480D01*
X107778570Y-150966480D02*
X107649999Y-151009337D01*
X107649999Y-151009337D02*
X107435713Y-151009337D01*
X108292856Y-150752194D02*
X108721428Y-150752194D01*
X108207142Y-151009337D02*
X108507142Y-150109337D01*
X108507142Y-150109337D02*
X108807142Y-151009337D01*
X110264285Y-151009337D02*
X109749999Y-151009337D01*
X110007142Y-151009337D02*
X110007142Y-150109337D01*
X110007142Y-150109337D02*
X109921428Y-150237908D01*
X109921428Y-150237908D02*
X109835713Y-150323622D01*
X109835713Y-150323622D02*
X109749999Y-150366480D01*
X110607142Y-150195051D02*
X110649999Y-150152194D01*
X110649999Y-150152194D02*
X110735714Y-150109337D01*
X110735714Y-150109337D02*
X110949999Y-150109337D01*
X110949999Y-150109337D02*
X111035714Y-150152194D01*
X111035714Y-150152194D02*
X111078571Y-150195051D01*
X111078571Y-150195051D02*
X111121428Y-150280765D01*
X111121428Y-150280765D02*
X111121428Y-150366480D01*
X111121428Y-150366480D02*
X111078571Y-150495051D01*
X111078571Y-150495051D02*
X110564285Y-151009337D01*
X110564285Y-151009337D02*
X111121428Y-151009337D01*
X111507142Y-150666480D02*
X112192857Y-150666480D01*
X112578571Y-150195051D02*
X112621428Y-150152194D01*
X112621428Y-150152194D02*
X112707143Y-150109337D01*
X112707143Y-150109337D02*
X112921428Y-150109337D01*
X112921428Y-150109337D02*
X113007143Y-150152194D01*
X113007143Y-150152194D02*
X113050000Y-150195051D01*
X113050000Y-150195051D02*
X113092857Y-150280765D01*
X113092857Y-150280765D02*
X113092857Y-150366480D01*
X113092857Y-150366480D02*
X113050000Y-150495051D01*
X113050000Y-150495051D02*
X112535714Y-151009337D01*
X112535714Y-151009337D02*
X113092857Y-151009337D01*
X113864286Y-150409337D02*
X113864286Y-151009337D01*
X113650000Y-150066480D02*
X113435714Y-150709337D01*
X113435714Y-150709337D02*
X113992857Y-150709337D01*
X114207143Y-150109337D02*
X114507143Y-151009337D01*
X114507143Y-151009337D02*
X114807143Y-150109337D01*
X107500000Y-151709337D02*
X108100000Y-152609337D01*
X108100000Y-151709337D02*
X107500000Y-152609337D01*
X108314286Y-151709337D02*
X108828572Y-151709337D01*
X108571429Y-152609337D02*
X108571429Y-151709337D01*
X109514286Y-151709337D02*
X109342857Y-151709337D01*
X109342857Y-151709337D02*
X109257143Y-151752194D01*
X109257143Y-151752194D02*
X109214286Y-151795051D01*
X109214286Y-151795051D02*
X109128571Y-151923622D01*
X109128571Y-151923622D02*
X109085714Y-152095051D01*
X109085714Y-152095051D02*
X109085714Y-152437908D01*
X109085714Y-152437908D02*
X109128571Y-152523622D01*
X109128571Y-152523622D02*
X109171428Y-152566480D01*
X109171428Y-152566480D02*
X109257143Y-152609337D01*
X109257143Y-152609337D02*
X109428571Y-152609337D01*
X109428571Y-152609337D02*
X109514286Y-152566480D01*
X109514286Y-152566480D02*
X109557143Y-152523622D01*
X109557143Y-152523622D02*
X109600000Y-152437908D01*
X109600000Y-152437908D02*
X109600000Y-152223622D01*
X109600000Y-152223622D02*
X109557143Y-152137908D01*
X109557143Y-152137908D02*
X109514286Y-152095051D01*
X109514286Y-152095051D02*
X109428571Y-152052194D01*
X109428571Y-152052194D02*
X109257143Y-152052194D01*
X109257143Y-152052194D02*
X109171428Y-152095051D01*
X109171428Y-152095051D02*
X109128571Y-152137908D01*
X109128571Y-152137908D02*
X109085714Y-152223622D01*
X110157143Y-151709337D02*
X110242857Y-151709337D01*
X110242857Y-151709337D02*
X110328571Y-151752194D01*
X110328571Y-151752194D02*
X110371429Y-151795051D01*
X110371429Y-151795051D02*
X110414286Y-151880765D01*
X110414286Y-151880765D02*
X110457143Y-152052194D01*
X110457143Y-152052194D02*
X110457143Y-152266480D01*
X110457143Y-152266480D02*
X110414286Y-152437908D01*
X110414286Y-152437908D02*
X110371429Y-152523622D01*
X110371429Y-152523622D02*
X110328571Y-152566480D01*
X110328571Y-152566480D02*
X110242857Y-152609337D01*
X110242857Y-152609337D02*
X110157143Y-152609337D01*
X110157143Y-152609337D02*
X110071429Y-152566480D01*
X110071429Y-152566480D02*
X110028571Y-152523622D01*
X110028571Y-152523622D02*
X109985714Y-152437908D01*
X109985714Y-152437908D02*
X109942857Y-152266480D01*
X109942857Y-152266480D02*
X109942857Y-152052194D01*
X109942857Y-152052194D02*
X109985714Y-151880765D01*
X109985714Y-151880765D02*
X110028571Y-151795051D01*
X110028571Y-151795051D02*
X110071429Y-151752194D01*
X110071429Y-151752194D02*
X110157143Y-151709337D01*
X122792857Y-145409337D02*
X122492857Y-144980765D01*
X122278571Y-145409337D02*
X122278571Y-144509337D01*
X122278571Y-144509337D02*
X122621428Y-144509337D01*
X122621428Y-144509337D02*
X122707143Y-144552194D01*
X122707143Y-144552194D02*
X122750000Y-144595051D01*
X122750000Y-144595051D02*
X122792857Y-144680765D01*
X122792857Y-144680765D02*
X122792857Y-144809337D01*
X122792857Y-144809337D02*
X122750000Y-144895051D01*
X122750000Y-144895051D02*
X122707143Y-144937908D01*
X122707143Y-144937908D02*
X122621428Y-144980765D01*
X122621428Y-144980765D02*
X122278571Y-144980765D01*
X123650000Y-145409337D02*
X123135714Y-145409337D01*
X123392857Y-145409337D02*
X123392857Y-144509337D01*
X123392857Y-144509337D02*
X123307143Y-144637908D01*
X123307143Y-144637908D02*
X123221428Y-144723622D01*
X123221428Y-144723622D02*
X123135714Y-144766480D01*
X124035714Y-145066480D02*
X124721429Y-145066480D01*
X124378571Y-145409337D02*
X124378571Y-144723622D01*
X127031428Y-144509337D02*
X127117142Y-144509337D01*
X127117142Y-144509337D02*
X127202856Y-144552194D01*
X127202856Y-144552194D02*
X127245714Y-144595051D01*
X127245714Y-144595051D02*
X127288571Y-144680765D01*
X127288571Y-144680765D02*
X127331428Y-144852194D01*
X127331428Y-144852194D02*
X127331428Y-145066480D01*
X127331428Y-145066480D02*
X127288571Y-145237908D01*
X127288571Y-145237908D02*
X127245714Y-145323622D01*
X127245714Y-145323622D02*
X127202856Y-145366480D01*
X127202856Y-145366480D02*
X127117142Y-145409337D01*
X127117142Y-145409337D02*
X127031428Y-145409337D01*
X127031428Y-145409337D02*
X126945714Y-145366480D01*
X126945714Y-145366480D02*
X126902856Y-145323622D01*
X126902856Y-145323622D02*
X126859999Y-145237908D01*
X126859999Y-145237908D02*
X126817142Y-145066480D01*
X126817142Y-145066480D02*
X126817142Y-144852194D01*
X126817142Y-144852194D02*
X126859999Y-144680765D01*
X126859999Y-144680765D02*
X126902856Y-144595051D01*
X126902856Y-144595051D02*
X126945714Y-144552194D01*
X126945714Y-144552194D02*
X127031428Y-144509337D01*
X127588571Y-144509337D02*
X127888571Y-145409337D01*
X127888571Y-145409337D02*
X128188571Y-144509337D01*
X138792857Y-145409337D02*
X138492857Y-144980765D01*
X138278571Y-145409337D02*
X138278571Y-144509337D01*
X138278571Y-144509337D02*
X138621428Y-144509337D01*
X138621428Y-144509337D02*
X138707143Y-144552194D01*
X138707143Y-144552194D02*
X138750000Y-144595051D01*
X138750000Y-144595051D02*
X138792857Y-144680765D01*
X138792857Y-144680765D02*
X138792857Y-144809337D01*
X138792857Y-144809337D02*
X138750000Y-144895051D01*
X138750000Y-144895051D02*
X138707143Y-144937908D01*
X138707143Y-144937908D02*
X138621428Y-144980765D01*
X138621428Y-144980765D02*
X138278571Y-144980765D01*
X139135714Y-144595051D02*
X139178571Y-144552194D01*
X139178571Y-144552194D02*
X139264286Y-144509337D01*
X139264286Y-144509337D02*
X139478571Y-144509337D01*
X139478571Y-144509337D02*
X139564286Y-144552194D01*
X139564286Y-144552194D02*
X139607143Y-144595051D01*
X139607143Y-144595051D02*
X139650000Y-144680765D01*
X139650000Y-144680765D02*
X139650000Y-144766480D01*
X139650000Y-144766480D02*
X139607143Y-144895051D01*
X139607143Y-144895051D02*
X139092857Y-145409337D01*
X139092857Y-145409337D02*
X139650000Y-145409337D01*
X140035714Y-145066480D02*
X140721429Y-145066480D01*
X140378571Y-145409337D02*
X140378571Y-144723622D01*
X143031428Y-144509337D02*
X143117142Y-144509337D01*
X143117142Y-144509337D02*
X143202856Y-144552194D01*
X143202856Y-144552194D02*
X143245714Y-144595051D01*
X143245714Y-144595051D02*
X143288571Y-144680765D01*
X143288571Y-144680765D02*
X143331428Y-144852194D01*
X143331428Y-144852194D02*
X143331428Y-145066480D01*
X143331428Y-145066480D02*
X143288571Y-145237908D01*
X143288571Y-145237908D02*
X143245714Y-145323622D01*
X143245714Y-145323622D02*
X143202856Y-145366480D01*
X143202856Y-145366480D02*
X143117142Y-145409337D01*
X143117142Y-145409337D02*
X143031428Y-145409337D01*
X143031428Y-145409337D02*
X142945714Y-145366480D01*
X142945714Y-145366480D02*
X142902856Y-145323622D01*
X142902856Y-145323622D02*
X142859999Y-145237908D01*
X142859999Y-145237908D02*
X142817142Y-145066480D01*
X142817142Y-145066480D02*
X142817142Y-144852194D01*
X142817142Y-144852194D02*
X142859999Y-144680765D01*
X142859999Y-144680765D02*
X142902856Y-144595051D01*
X142902856Y-144595051D02*
X142945714Y-144552194D01*
X142945714Y-144552194D02*
X143031428Y-144509337D01*
X143588571Y-144509337D02*
X143888571Y-145409337D01*
X143888571Y-145409337D02*
X144188571Y-144509337D01*
X154792857Y-145409337D02*
X154492857Y-144980765D01*
X154278571Y-145409337D02*
X154278571Y-144509337D01*
X154278571Y-144509337D02*
X154621428Y-144509337D01*
X154621428Y-144509337D02*
X154707143Y-144552194D01*
X154707143Y-144552194D02*
X154750000Y-144595051D01*
X154750000Y-144595051D02*
X154792857Y-144680765D01*
X154792857Y-144680765D02*
X154792857Y-144809337D01*
X154792857Y-144809337D02*
X154750000Y-144895051D01*
X154750000Y-144895051D02*
X154707143Y-144937908D01*
X154707143Y-144937908D02*
X154621428Y-144980765D01*
X154621428Y-144980765D02*
X154278571Y-144980765D01*
X155092857Y-144509337D02*
X155650000Y-144509337D01*
X155650000Y-144509337D02*
X155350000Y-144852194D01*
X155350000Y-144852194D02*
X155478571Y-144852194D01*
X155478571Y-144852194D02*
X155564286Y-144895051D01*
X155564286Y-144895051D02*
X155607143Y-144937908D01*
X155607143Y-144937908D02*
X155650000Y-145023622D01*
X155650000Y-145023622D02*
X155650000Y-145237908D01*
X155650000Y-145237908D02*
X155607143Y-145323622D01*
X155607143Y-145323622D02*
X155564286Y-145366480D01*
X155564286Y-145366480D02*
X155478571Y-145409337D01*
X155478571Y-145409337D02*
X155221428Y-145409337D01*
X155221428Y-145409337D02*
X155135714Y-145366480D01*
X155135714Y-145366480D02*
X155092857Y-145323622D01*
X156035714Y-145066480D02*
X156721429Y-145066480D01*
X156378571Y-145409337D02*
X156378571Y-144723622D01*
X159031428Y-144509337D02*
X159117142Y-144509337D01*
X159117142Y-144509337D02*
X159202856Y-144552194D01*
X159202856Y-144552194D02*
X159245714Y-144595051D01*
X159245714Y-144595051D02*
X159288571Y-144680765D01*
X159288571Y-144680765D02*
X159331428Y-144852194D01*
X159331428Y-144852194D02*
X159331428Y-145066480D01*
X159331428Y-145066480D02*
X159288571Y-145237908D01*
X159288571Y-145237908D02*
X159245714Y-145323622D01*
X159245714Y-145323622D02*
X159202856Y-145366480D01*
X159202856Y-145366480D02*
X159117142Y-145409337D01*
X159117142Y-145409337D02*
X159031428Y-145409337D01*
X159031428Y-145409337D02*
X158945714Y-145366480D01*
X158945714Y-145366480D02*
X158902856Y-145323622D01*
X158902856Y-145323622D02*
X158859999Y-145237908D01*
X158859999Y-145237908D02*
X158817142Y-145066480D01*
X158817142Y-145066480D02*
X158817142Y-144852194D01*
X158817142Y-144852194D02*
X158859999Y-144680765D01*
X158859999Y-144680765D02*
X158902856Y-144595051D01*
X158902856Y-144595051D02*
X158945714Y-144552194D01*
X158945714Y-144552194D02*
X159031428Y-144509337D01*
X159588571Y-144509337D02*
X159888571Y-145409337D01*
X159888571Y-145409337D02*
X160188571Y-144509337D01*
X170792857Y-145409337D02*
X170492857Y-144980765D01*
X170278571Y-145409337D02*
X170278571Y-144509337D01*
X170278571Y-144509337D02*
X170621428Y-144509337D01*
X170621428Y-144509337D02*
X170707143Y-144552194D01*
X170707143Y-144552194D02*
X170750000Y-144595051D01*
X170750000Y-144595051D02*
X170792857Y-144680765D01*
X170792857Y-144680765D02*
X170792857Y-144809337D01*
X170792857Y-144809337D02*
X170750000Y-144895051D01*
X170750000Y-144895051D02*
X170707143Y-144937908D01*
X170707143Y-144937908D02*
X170621428Y-144980765D01*
X170621428Y-144980765D02*
X170278571Y-144980765D01*
X171564286Y-144809337D02*
X171564286Y-145409337D01*
X171350000Y-144466480D02*
X171135714Y-145109337D01*
X171135714Y-145109337D02*
X171692857Y-145109337D01*
X172035714Y-145066480D02*
X172721429Y-145066480D01*
X172378571Y-145409337D02*
X172378571Y-144723622D01*
X175031428Y-144509337D02*
X175117142Y-144509337D01*
X175117142Y-144509337D02*
X175202856Y-144552194D01*
X175202856Y-144552194D02*
X175245714Y-144595051D01*
X175245714Y-144595051D02*
X175288571Y-144680765D01*
X175288571Y-144680765D02*
X175331428Y-144852194D01*
X175331428Y-144852194D02*
X175331428Y-145066480D01*
X175331428Y-145066480D02*
X175288571Y-145237908D01*
X175288571Y-145237908D02*
X175245714Y-145323622D01*
X175245714Y-145323622D02*
X175202856Y-145366480D01*
X175202856Y-145366480D02*
X175117142Y-145409337D01*
X175117142Y-145409337D02*
X175031428Y-145409337D01*
X175031428Y-145409337D02*
X174945714Y-145366480D01*
X174945714Y-145366480D02*
X174902856Y-145323622D01*
X174902856Y-145323622D02*
X174859999Y-145237908D01*
X174859999Y-145237908D02*
X174817142Y-145066480D01*
X174817142Y-145066480D02*
X174817142Y-144852194D01*
X174817142Y-144852194D02*
X174859999Y-144680765D01*
X174859999Y-144680765D02*
X174902856Y-144595051D01*
X174902856Y-144595051D02*
X174945714Y-144552194D01*
X174945714Y-144552194D02*
X175031428Y-144509337D01*
X175588571Y-144509337D02*
X175888571Y-145409337D01*
X175888571Y-145409337D02*
X176188571Y-144509337D01*
D12*
X143024819Y-104119047D02*
X142548628Y-104452380D01*
X143024819Y-104690475D02*
X142024819Y-104690475D01*
X142024819Y-104690475D02*
X142024819Y-104309523D01*
X142024819Y-104309523D02*
X142072438Y-104214285D01*
X142072438Y-104214285D02*
X142120057Y-104166666D01*
X142120057Y-104166666D02*
X142215295Y-104119047D01*
X142215295Y-104119047D02*
X142358152Y-104119047D01*
X142358152Y-104119047D02*
X142453390Y-104166666D01*
X142453390Y-104166666D02*
X142501009Y-104214285D01*
X142501009Y-104214285D02*
X142548628Y-104309523D01*
X142548628Y-104309523D02*
X142548628Y-104690475D01*
X142501009Y-103357142D02*
X142501009Y-103690475D01*
X143024819Y-103690475D02*
X142024819Y-103690475D01*
X142024819Y-103690475D02*
X142024819Y-103214285D01*
X160404819Y-116321428D02*
X160404819Y-116130952D01*
X160404819Y-116130952D02*
X160452438Y-116035714D01*
X160452438Y-116035714D02*
X160547676Y-115940476D01*
X160547676Y-115940476D02*
X160738152Y-115892857D01*
X160738152Y-115892857D02*
X161071485Y-115892857D01*
X161071485Y-115892857D02*
X161261961Y-115940476D01*
X161261961Y-115940476D02*
X161357200Y-116035714D01*
X161357200Y-116035714D02*
X161404819Y-116130952D01*
X161404819Y-116130952D02*
X161404819Y-116321428D01*
X161404819Y-116321428D02*
X161357200Y-116416666D01*
X161357200Y-116416666D02*
X161261961Y-116511904D01*
X161261961Y-116511904D02*
X161071485Y-116559523D01*
X161071485Y-116559523D02*
X160738152Y-116559523D01*
X160738152Y-116559523D02*
X160547676Y-116511904D01*
X160547676Y-116511904D02*
X160452438Y-116416666D01*
X160452438Y-116416666D02*
X160404819Y-116321428D01*
X161404819Y-115464285D02*
X160404819Y-115464285D01*
X161404819Y-114892857D02*
X160833390Y-115321428D01*
X160404819Y-114892857D02*
X160976247Y-115464285D01*
X160404819Y-114559523D02*
X160404819Y-113940476D01*
X160404819Y-113940476D02*
X160785771Y-114273809D01*
X160785771Y-114273809D02*
X160785771Y-114130952D01*
X160785771Y-114130952D02*
X160833390Y-114035714D01*
X160833390Y-114035714D02*
X160881009Y-113988095D01*
X160881009Y-113988095D02*
X160976247Y-113940476D01*
X160976247Y-113940476D02*
X161214342Y-113940476D01*
X161214342Y-113940476D02*
X161309580Y-113988095D01*
X161309580Y-113988095D02*
X161357200Y-114035714D01*
X161357200Y-114035714D02*
X161404819Y-114130952D01*
X161404819Y-114130952D02*
X161404819Y-114416666D01*
X161404819Y-114416666D02*
X161357200Y-114511904D01*
X161357200Y-114511904D02*
X161309580Y-114559523D01*
X145295238Y-119524819D02*
X144961905Y-119048628D01*
X144723810Y-119524819D02*
X144723810Y-118524819D01*
X144723810Y-118524819D02*
X145104762Y-118524819D01*
X145104762Y-118524819D02*
X145200000Y-118572438D01*
X145200000Y-118572438D02*
X145247619Y-118620057D01*
X145247619Y-118620057D02*
X145295238Y-118715295D01*
X145295238Y-118715295D02*
X145295238Y-118858152D01*
X145295238Y-118858152D02*
X145247619Y-118953390D01*
X145247619Y-118953390D02*
X145200000Y-119001009D01*
X145200000Y-119001009D02*
X145104762Y-119048628D01*
X145104762Y-119048628D02*
X144723810Y-119048628D01*
X145723810Y-119524819D02*
X145723810Y-118524819D01*
X146152381Y-118620057D02*
X146200000Y-118572438D01*
X146200000Y-118572438D02*
X146295238Y-118524819D01*
X146295238Y-118524819D02*
X146533333Y-118524819D01*
X146533333Y-118524819D02*
X146628571Y-118572438D01*
X146628571Y-118572438D02*
X146676190Y-118620057D01*
X146676190Y-118620057D02*
X146723809Y-118715295D01*
X146723809Y-118715295D02*
X146723809Y-118810533D01*
X146723809Y-118810533D02*
X146676190Y-118953390D01*
X146676190Y-118953390D02*
X146104762Y-119524819D01*
X146104762Y-119524819D02*
X146723809Y-119524819D01*
X147324819Y-130666666D02*
X146848628Y-130999999D01*
X147324819Y-131238094D02*
X146324819Y-131238094D01*
X146324819Y-131238094D02*
X146324819Y-130857142D01*
X146324819Y-130857142D02*
X146372438Y-130761904D01*
X146372438Y-130761904D02*
X146420057Y-130714285D01*
X146420057Y-130714285D02*
X146515295Y-130666666D01*
X146515295Y-130666666D02*
X146658152Y-130666666D01*
X146658152Y-130666666D02*
X146753390Y-130714285D01*
X146753390Y-130714285D02*
X146801009Y-130761904D01*
X146801009Y-130761904D02*
X146848628Y-130857142D01*
X146848628Y-130857142D02*
X146848628Y-131238094D01*
X146372438Y-129714285D02*
X146324819Y-129809523D01*
X146324819Y-129809523D02*
X146324819Y-129952380D01*
X146324819Y-129952380D02*
X146372438Y-130095237D01*
X146372438Y-130095237D02*
X146467676Y-130190475D01*
X146467676Y-130190475D02*
X146562914Y-130238094D01*
X146562914Y-130238094D02*
X146753390Y-130285713D01*
X146753390Y-130285713D02*
X146896247Y-130285713D01*
X146896247Y-130285713D02*
X147086723Y-130238094D01*
X147086723Y-130238094D02*
X147181961Y-130190475D01*
X147181961Y-130190475D02*
X147277200Y-130095237D01*
X147277200Y-130095237D02*
X147324819Y-129952380D01*
X147324819Y-129952380D02*
X147324819Y-129857142D01*
X147324819Y-129857142D02*
X147277200Y-129714285D01*
X147277200Y-129714285D02*
X147229580Y-129666666D01*
X147229580Y-129666666D02*
X146896247Y-129666666D01*
X146896247Y-129666666D02*
X146896247Y-129857142D01*
X146420057Y-129285713D02*
X146372438Y-129238094D01*
X146372438Y-129238094D02*
X146324819Y-129142856D01*
X146324819Y-129142856D02*
X146324819Y-128904761D01*
X146324819Y-128904761D02*
X146372438Y-128809523D01*
X146372438Y-128809523D02*
X146420057Y-128761904D01*
X146420057Y-128761904D02*
X146515295Y-128714285D01*
X146515295Y-128714285D02*
X146610533Y-128714285D01*
X146610533Y-128714285D02*
X146753390Y-128761904D01*
X146753390Y-128761904D02*
X147324819Y-129333332D01*
X147324819Y-129333332D02*
X147324819Y-128714285D01*
X135833333Y-109929580D02*
X135785714Y-109977200D01*
X135785714Y-109977200D02*
X135642857Y-110024819D01*
X135642857Y-110024819D02*
X135547619Y-110024819D01*
X135547619Y-110024819D02*
X135404762Y-109977200D01*
X135404762Y-109977200D02*
X135309524Y-109881961D01*
X135309524Y-109881961D02*
X135261905Y-109786723D01*
X135261905Y-109786723D02*
X135214286Y-109596247D01*
X135214286Y-109596247D02*
X135214286Y-109453390D01*
X135214286Y-109453390D02*
X135261905Y-109262914D01*
X135261905Y-109262914D02*
X135309524Y-109167676D01*
X135309524Y-109167676D02*
X135404762Y-109072438D01*
X135404762Y-109072438D02*
X135547619Y-109024819D01*
X135547619Y-109024819D02*
X135642857Y-109024819D01*
X135642857Y-109024819D02*
X135785714Y-109072438D01*
X135785714Y-109072438D02*
X135833333Y-109120057D01*
X136785714Y-110024819D02*
X136214286Y-110024819D01*
X136500000Y-110024819D02*
X136500000Y-109024819D01*
X136500000Y-109024819D02*
X136404762Y-109167676D01*
X136404762Y-109167676D02*
X136309524Y-109262914D01*
X136309524Y-109262914D02*
X136214286Y-109310533D01*
X131724819Y-135838094D02*
X130724819Y-135838094D01*
X130724819Y-135838094D02*
X130724819Y-135599999D01*
X130724819Y-135599999D02*
X130772438Y-135457142D01*
X130772438Y-135457142D02*
X130867676Y-135361904D01*
X130867676Y-135361904D02*
X130962914Y-135314285D01*
X130962914Y-135314285D02*
X131153390Y-135266666D01*
X131153390Y-135266666D02*
X131296247Y-135266666D01*
X131296247Y-135266666D02*
X131486723Y-135314285D01*
X131486723Y-135314285D02*
X131581961Y-135361904D01*
X131581961Y-135361904D02*
X131677200Y-135457142D01*
X131677200Y-135457142D02*
X131724819Y-135599999D01*
X131724819Y-135599999D02*
X131724819Y-135838094D01*
X130772438Y-134314285D02*
X130724819Y-134409523D01*
X130724819Y-134409523D02*
X130724819Y-134552380D01*
X130724819Y-134552380D02*
X130772438Y-134695237D01*
X130772438Y-134695237D02*
X130867676Y-134790475D01*
X130867676Y-134790475D02*
X130962914Y-134838094D01*
X130962914Y-134838094D02*
X131153390Y-134885713D01*
X131153390Y-134885713D02*
X131296247Y-134885713D01*
X131296247Y-134885713D02*
X131486723Y-134838094D01*
X131486723Y-134838094D02*
X131581961Y-134790475D01*
X131581961Y-134790475D02*
X131677200Y-134695237D01*
X131677200Y-134695237D02*
X131724819Y-134552380D01*
X131724819Y-134552380D02*
X131724819Y-134457142D01*
X131724819Y-134457142D02*
X131677200Y-134314285D01*
X131677200Y-134314285D02*
X131629580Y-134266666D01*
X131629580Y-134266666D02*
X131296247Y-134266666D01*
X131296247Y-134266666D02*
X131296247Y-134457142D01*
X131724819Y-133314285D02*
X131724819Y-133885713D01*
X131724819Y-133599999D02*
X130724819Y-133599999D01*
X130724819Y-133599999D02*
X130867676Y-133695237D01*
X130867676Y-133695237D02*
X130962914Y-133790475D01*
X130962914Y-133790475D02*
X131010533Y-133885713D01*
X163324819Y-130666666D02*
X162848628Y-130999999D01*
X163324819Y-131238094D02*
X162324819Y-131238094D01*
X162324819Y-131238094D02*
X162324819Y-130857142D01*
X162324819Y-130857142D02*
X162372438Y-130761904D01*
X162372438Y-130761904D02*
X162420057Y-130714285D01*
X162420057Y-130714285D02*
X162515295Y-130666666D01*
X162515295Y-130666666D02*
X162658152Y-130666666D01*
X162658152Y-130666666D02*
X162753390Y-130714285D01*
X162753390Y-130714285D02*
X162801009Y-130761904D01*
X162801009Y-130761904D02*
X162848628Y-130857142D01*
X162848628Y-130857142D02*
X162848628Y-131238094D01*
X162372438Y-129714285D02*
X162324819Y-129809523D01*
X162324819Y-129809523D02*
X162324819Y-129952380D01*
X162324819Y-129952380D02*
X162372438Y-130095237D01*
X162372438Y-130095237D02*
X162467676Y-130190475D01*
X162467676Y-130190475D02*
X162562914Y-130238094D01*
X162562914Y-130238094D02*
X162753390Y-130285713D01*
X162753390Y-130285713D02*
X162896247Y-130285713D01*
X162896247Y-130285713D02*
X163086723Y-130238094D01*
X163086723Y-130238094D02*
X163181961Y-130190475D01*
X163181961Y-130190475D02*
X163277200Y-130095237D01*
X163277200Y-130095237D02*
X163324819Y-129952380D01*
X163324819Y-129952380D02*
X163324819Y-129857142D01*
X163324819Y-129857142D02*
X163277200Y-129714285D01*
X163277200Y-129714285D02*
X163229580Y-129666666D01*
X163229580Y-129666666D02*
X162896247Y-129666666D01*
X162896247Y-129666666D02*
X162896247Y-129857142D01*
X162324819Y-129333332D02*
X162324819Y-128714285D01*
X162324819Y-128714285D02*
X162705771Y-129047618D01*
X162705771Y-129047618D02*
X162705771Y-128904761D01*
X162705771Y-128904761D02*
X162753390Y-128809523D01*
X162753390Y-128809523D02*
X162801009Y-128761904D01*
X162801009Y-128761904D02*
X162896247Y-128714285D01*
X162896247Y-128714285D02*
X163134342Y-128714285D01*
X163134342Y-128714285D02*
X163229580Y-128761904D01*
X163229580Y-128761904D02*
X163277200Y-128809523D01*
X163277200Y-128809523D02*
X163324819Y-128904761D01*
X163324819Y-128904761D02*
X163324819Y-129190475D01*
X163324819Y-129190475D02*
X163277200Y-129285713D01*
X163277200Y-129285713D02*
X163229580Y-129333332D01*
X128724819Y-135838094D02*
X127724819Y-135838094D01*
X127724819Y-135838094D02*
X127724819Y-135599999D01*
X127724819Y-135599999D02*
X127772438Y-135457142D01*
X127772438Y-135457142D02*
X127867676Y-135361904D01*
X127867676Y-135361904D02*
X127962914Y-135314285D01*
X127962914Y-135314285D02*
X128153390Y-135266666D01*
X128153390Y-135266666D02*
X128296247Y-135266666D01*
X128296247Y-135266666D02*
X128486723Y-135314285D01*
X128486723Y-135314285D02*
X128581961Y-135361904D01*
X128581961Y-135361904D02*
X128677200Y-135457142D01*
X128677200Y-135457142D02*
X128724819Y-135599999D01*
X128724819Y-135599999D02*
X128724819Y-135838094D01*
X128724819Y-134266666D02*
X128248628Y-134599999D01*
X128724819Y-134838094D02*
X127724819Y-134838094D01*
X127724819Y-134838094D02*
X127724819Y-134457142D01*
X127724819Y-134457142D02*
X127772438Y-134361904D01*
X127772438Y-134361904D02*
X127820057Y-134314285D01*
X127820057Y-134314285D02*
X127915295Y-134266666D01*
X127915295Y-134266666D02*
X128058152Y-134266666D01*
X128058152Y-134266666D02*
X128153390Y-134314285D01*
X128153390Y-134314285D02*
X128201009Y-134361904D01*
X128201009Y-134361904D02*
X128248628Y-134457142D01*
X128248628Y-134457142D02*
X128248628Y-134838094D01*
X128724819Y-133314285D02*
X128724819Y-133885713D01*
X128724819Y-133599999D02*
X127724819Y-133599999D01*
X127724819Y-133599999D02*
X127867676Y-133695237D01*
X127867676Y-133695237D02*
X127962914Y-133790475D01*
X127962914Y-133790475D02*
X128010533Y-133885713D01*
X109024819Y-109442857D02*
X108548628Y-109776190D01*
X109024819Y-110014285D02*
X108024819Y-110014285D01*
X108024819Y-110014285D02*
X108024819Y-109633333D01*
X108024819Y-109633333D02*
X108072438Y-109538095D01*
X108072438Y-109538095D02*
X108120057Y-109490476D01*
X108120057Y-109490476D02*
X108215295Y-109442857D01*
X108215295Y-109442857D02*
X108358152Y-109442857D01*
X108358152Y-109442857D02*
X108453390Y-109490476D01*
X108453390Y-109490476D02*
X108501009Y-109538095D01*
X108501009Y-109538095D02*
X108548628Y-109633333D01*
X108548628Y-109633333D02*
X108548628Y-110014285D01*
X108024819Y-109014285D02*
X108834342Y-109014285D01*
X108834342Y-109014285D02*
X108929580Y-108966666D01*
X108929580Y-108966666D02*
X108977200Y-108919047D01*
X108977200Y-108919047D02*
X109024819Y-108823809D01*
X109024819Y-108823809D02*
X109024819Y-108633333D01*
X109024819Y-108633333D02*
X108977200Y-108538095D01*
X108977200Y-108538095D02*
X108929580Y-108490476D01*
X108929580Y-108490476D02*
X108834342Y-108442857D01*
X108834342Y-108442857D02*
X108024819Y-108442857D01*
X108024819Y-108109523D02*
X109024819Y-107776190D01*
X109024819Y-107776190D02*
X108024819Y-107442857D01*
X170404761Y-105024819D02*
X170071428Y-104548628D01*
X169833333Y-105024819D02*
X169833333Y-104024819D01*
X169833333Y-104024819D02*
X170214285Y-104024819D01*
X170214285Y-104024819D02*
X170309523Y-104072438D01*
X170309523Y-104072438D02*
X170357142Y-104120057D01*
X170357142Y-104120057D02*
X170404761Y-104215295D01*
X170404761Y-104215295D02*
X170404761Y-104358152D01*
X170404761Y-104358152D02*
X170357142Y-104453390D01*
X170357142Y-104453390D02*
X170309523Y-104501009D01*
X170309523Y-104501009D02*
X170214285Y-104548628D01*
X170214285Y-104548628D02*
X169833333Y-104548628D01*
X170785714Y-104739104D02*
X171261904Y-104739104D01*
X170690476Y-105024819D02*
X171023809Y-104024819D01*
X171023809Y-104024819D02*
X171357142Y-105024819D01*
X172214285Y-105024819D02*
X171642857Y-105024819D01*
X171928571Y-105024819D02*
X171928571Y-104024819D01*
X171928571Y-104024819D02*
X171833333Y-104167676D01*
X171833333Y-104167676D02*
X171738095Y-104262914D01*
X171738095Y-104262914D02*
X171642857Y-104310533D01*
X144404819Y-116321428D02*
X144404819Y-116130952D01*
X144404819Y-116130952D02*
X144452438Y-116035714D01*
X144452438Y-116035714D02*
X144547676Y-115940476D01*
X144547676Y-115940476D02*
X144738152Y-115892857D01*
X144738152Y-115892857D02*
X145071485Y-115892857D01*
X145071485Y-115892857D02*
X145261961Y-115940476D01*
X145261961Y-115940476D02*
X145357200Y-116035714D01*
X145357200Y-116035714D02*
X145404819Y-116130952D01*
X145404819Y-116130952D02*
X145404819Y-116321428D01*
X145404819Y-116321428D02*
X145357200Y-116416666D01*
X145357200Y-116416666D02*
X145261961Y-116511904D01*
X145261961Y-116511904D02*
X145071485Y-116559523D01*
X145071485Y-116559523D02*
X144738152Y-116559523D01*
X144738152Y-116559523D02*
X144547676Y-116511904D01*
X144547676Y-116511904D02*
X144452438Y-116416666D01*
X144452438Y-116416666D02*
X144404819Y-116321428D01*
X145404819Y-115464285D02*
X144404819Y-115464285D01*
X145404819Y-114892857D02*
X144833390Y-115321428D01*
X144404819Y-114892857D02*
X144976247Y-115464285D01*
X144500057Y-114511904D02*
X144452438Y-114464285D01*
X144452438Y-114464285D02*
X144404819Y-114369047D01*
X144404819Y-114369047D02*
X144404819Y-114130952D01*
X144404819Y-114130952D02*
X144452438Y-114035714D01*
X144452438Y-114035714D02*
X144500057Y-113988095D01*
X144500057Y-113988095D02*
X144595295Y-113940476D01*
X144595295Y-113940476D02*
X144690533Y-113940476D01*
X144690533Y-113940476D02*
X144833390Y-113988095D01*
X144833390Y-113988095D02*
X145404819Y-114559523D01*
X145404819Y-114559523D02*
X145404819Y-113940476D01*
X163724819Y-135838094D02*
X162724819Y-135838094D01*
X162724819Y-135838094D02*
X162724819Y-135599999D01*
X162724819Y-135599999D02*
X162772438Y-135457142D01*
X162772438Y-135457142D02*
X162867676Y-135361904D01*
X162867676Y-135361904D02*
X162962914Y-135314285D01*
X162962914Y-135314285D02*
X163153390Y-135266666D01*
X163153390Y-135266666D02*
X163296247Y-135266666D01*
X163296247Y-135266666D02*
X163486723Y-135314285D01*
X163486723Y-135314285D02*
X163581961Y-135361904D01*
X163581961Y-135361904D02*
X163677200Y-135457142D01*
X163677200Y-135457142D02*
X163724819Y-135599999D01*
X163724819Y-135599999D02*
X163724819Y-135838094D01*
X162772438Y-134314285D02*
X162724819Y-134409523D01*
X162724819Y-134409523D02*
X162724819Y-134552380D01*
X162724819Y-134552380D02*
X162772438Y-134695237D01*
X162772438Y-134695237D02*
X162867676Y-134790475D01*
X162867676Y-134790475D02*
X162962914Y-134838094D01*
X162962914Y-134838094D02*
X163153390Y-134885713D01*
X163153390Y-134885713D02*
X163296247Y-134885713D01*
X163296247Y-134885713D02*
X163486723Y-134838094D01*
X163486723Y-134838094D02*
X163581961Y-134790475D01*
X163581961Y-134790475D02*
X163677200Y-134695237D01*
X163677200Y-134695237D02*
X163724819Y-134552380D01*
X163724819Y-134552380D02*
X163724819Y-134457142D01*
X163724819Y-134457142D02*
X163677200Y-134314285D01*
X163677200Y-134314285D02*
X163629580Y-134266666D01*
X163629580Y-134266666D02*
X163296247Y-134266666D01*
X163296247Y-134266666D02*
X163296247Y-134457142D01*
X162724819Y-133933332D02*
X162724819Y-133314285D01*
X162724819Y-133314285D02*
X163105771Y-133647618D01*
X163105771Y-133647618D02*
X163105771Y-133504761D01*
X163105771Y-133504761D02*
X163153390Y-133409523D01*
X163153390Y-133409523D02*
X163201009Y-133361904D01*
X163201009Y-133361904D02*
X163296247Y-133314285D01*
X163296247Y-133314285D02*
X163534342Y-133314285D01*
X163534342Y-133314285D02*
X163629580Y-133361904D01*
X163629580Y-133361904D02*
X163677200Y-133409523D01*
X163677200Y-133409523D02*
X163724819Y-133504761D01*
X163724819Y-133504761D02*
X163724819Y-133790475D01*
X163724819Y-133790475D02*
X163677200Y-133885713D01*
X163677200Y-133885713D02*
X163629580Y-133933332D01*
X165166666Y-107154819D02*
X165166666Y-107869104D01*
X165166666Y-107869104D02*
X165119047Y-108011961D01*
X165119047Y-108011961D02*
X165023809Y-108107200D01*
X165023809Y-108107200D02*
X164880952Y-108154819D01*
X164880952Y-108154819D02*
X164785714Y-108154819D01*
X165642857Y-108154819D02*
X165642857Y-107154819D01*
X165642857Y-107154819D02*
X166023809Y-107154819D01*
X166023809Y-107154819D02*
X166119047Y-107202438D01*
X166119047Y-107202438D02*
X166166666Y-107250057D01*
X166166666Y-107250057D02*
X166214285Y-107345295D01*
X166214285Y-107345295D02*
X166214285Y-107488152D01*
X166214285Y-107488152D02*
X166166666Y-107583390D01*
X166166666Y-107583390D02*
X166119047Y-107631009D01*
X166119047Y-107631009D02*
X166023809Y-107678628D01*
X166023809Y-107678628D02*
X165642857Y-107678628D01*
X166595238Y-107250057D02*
X166642857Y-107202438D01*
X166642857Y-107202438D02*
X166738095Y-107154819D01*
X166738095Y-107154819D02*
X166976190Y-107154819D01*
X166976190Y-107154819D02*
X167071428Y-107202438D01*
X167071428Y-107202438D02*
X167119047Y-107250057D01*
X167119047Y-107250057D02*
X167166666Y-107345295D01*
X167166666Y-107345295D02*
X167166666Y-107440533D01*
X167166666Y-107440533D02*
X167119047Y-107583390D01*
X167119047Y-107583390D02*
X166547619Y-108154819D01*
X166547619Y-108154819D02*
X167166666Y-108154819D01*
X161295238Y-119524819D02*
X160961905Y-119048628D01*
X160723810Y-119524819D02*
X160723810Y-118524819D01*
X160723810Y-118524819D02*
X161104762Y-118524819D01*
X161104762Y-118524819D02*
X161200000Y-118572438D01*
X161200000Y-118572438D02*
X161247619Y-118620057D01*
X161247619Y-118620057D02*
X161295238Y-118715295D01*
X161295238Y-118715295D02*
X161295238Y-118858152D01*
X161295238Y-118858152D02*
X161247619Y-118953390D01*
X161247619Y-118953390D02*
X161200000Y-119001009D01*
X161200000Y-119001009D02*
X161104762Y-119048628D01*
X161104762Y-119048628D02*
X160723810Y-119048628D01*
X161723810Y-119524819D02*
X161723810Y-118524819D01*
X162104762Y-118524819D02*
X162723809Y-118524819D01*
X162723809Y-118524819D02*
X162390476Y-118905771D01*
X162390476Y-118905771D02*
X162533333Y-118905771D01*
X162533333Y-118905771D02*
X162628571Y-118953390D01*
X162628571Y-118953390D02*
X162676190Y-119001009D01*
X162676190Y-119001009D02*
X162723809Y-119096247D01*
X162723809Y-119096247D02*
X162723809Y-119334342D01*
X162723809Y-119334342D02*
X162676190Y-119429580D01*
X162676190Y-119429580D02*
X162628571Y-119477200D01*
X162628571Y-119477200D02*
X162533333Y-119524819D01*
X162533333Y-119524819D02*
X162247619Y-119524819D01*
X162247619Y-119524819D02*
X162152381Y-119477200D01*
X162152381Y-119477200D02*
X162104762Y-119429580D01*
X147724819Y-135838094D02*
X146724819Y-135838094D01*
X146724819Y-135838094D02*
X146724819Y-135599999D01*
X146724819Y-135599999D02*
X146772438Y-135457142D01*
X146772438Y-135457142D02*
X146867676Y-135361904D01*
X146867676Y-135361904D02*
X146962914Y-135314285D01*
X146962914Y-135314285D02*
X147153390Y-135266666D01*
X147153390Y-135266666D02*
X147296247Y-135266666D01*
X147296247Y-135266666D02*
X147486723Y-135314285D01*
X147486723Y-135314285D02*
X147581961Y-135361904D01*
X147581961Y-135361904D02*
X147677200Y-135457142D01*
X147677200Y-135457142D02*
X147724819Y-135599999D01*
X147724819Y-135599999D02*
X147724819Y-135838094D01*
X146772438Y-134314285D02*
X146724819Y-134409523D01*
X146724819Y-134409523D02*
X146724819Y-134552380D01*
X146724819Y-134552380D02*
X146772438Y-134695237D01*
X146772438Y-134695237D02*
X146867676Y-134790475D01*
X146867676Y-134790475D02*
X146962914Y-134838094D01*
X146962914Y-134838094D02*
X147153390Y-134885713D01*
X147153390Y-134885713D02*
X147296247Y-134885713D01*
X147296247Y-134885713D02*
X147486723Y-134838094D01*
X147486723Y-134838094D02*
X147581961Y-134790475D01*
X147581961Y-134790475D02*
X147677200Y-134695237D01*
X147677200Y-134695237D02*
X147724819Y-134552380D01*
X147724819Y-134552380D02*
X147724819Y-134457142D01*
X147724819Y-134457142D02*
X147677200Y-134314285D01*
X147677200Y-134314285D02*
X147629580Y-134266666D01*
X147629580Y-134266666D02*
X147296247Y-134266666D01*
X147296247Y-134266666D02*
X147296247Y-134457142D01*
X146820057Y-133885713D02*
X146772438Y-133838094D01*
X146772438Y-133838094D02*
X146724819Y-133742856D01*
X146724819Y-133742856D02*
X146724819Y-133504761D01*
X146724819Y-133504761D02*
X146772438Y-133409523D01*
X146772438Y-133409523D02*
X146820057Y-133361904D01*
X146820057Y-133361904D02*
X146915295Y-133314285D01*
X146915295Y-133314285D02*
X147010533Y-133314285D01*
X147010533Y-133314285D02*
X147153390Y-133361904D01*
X147153390Y-133361904D02*
X147724819Y-133933332D01*
X147724819Y-133933332D02*
X147724819Y-133314285D01*
X162224819Y-109490476D02*
X161748628Y-109823809D01*
X162224819Y-110061904D02*
X161224819Y-110061904D01*
X161224819Y-110061904D02*
X161224819Y-109680952D01*
X161224819Y-109680952D02*
X161272438Y-109585714D01*
X161272438Y-109585714D02*
X161320057Y-109538095D01*
X161320057Y-109538095D02*
X161415295Y-109490476D01*
X161415295Y-109490476D02*
X161558152Y-109490476D01*
X161558152Y-109490476D02*
X161653390Y-109538095D01*
X161653390Y-109538095D02*
X161701009Y-109585714D01*
X161701009Y-109585714D02*
X161748628Y-109680952D01*
X161748628Y-109680952D02*
X161748628Y-110061904D01*
X161224819Y-109061904D02*
X162034342Y-109061904D01*
X162034342Y-109061904D02*
X162129580Y-109014285D01*
X162129580Y-109014285D02*
X162177200Y-108966666D01*
X162177200Y-108966666D02*
X162224819Y-108871428D01*
X162224819Y-108871428D02*
X162224819Y-108680952D01*
X162224819Y-108680952D02*
X162177200Y-108585714D01*
X162177200Y-108585714D02*
X162129580Y-108538095D01*
X162129580Y-108538095D02*
X162034342Y-108490476D01*
X162034342Y-108490476D02*
X161224819Y-108490476D01*
X161224819Y-108109523D02*
X161224819Y-107490476D01*
X161224819Y-107490476D02*
X161605771Y-107823809D01*
X161605771Y-107823809D02*
X161605771Y-107680952D01*
X161605771Y-107680952D02*
X161653390Y-107585714D01*
X161653390Y-107585714D02*
X161701009Y-107538095D01*
X161701009Y-107538095D02*
X161796247Y-107490476D01*
X161796247Y-107490476D02*
X162034342Y-107490476D01*
X162034342Y-107490476D02*
X162129580Y-107538095D01*
X162129580Y-107538095D02*
X162177200Y-107585714D01*
X162177200Y-107585714D02*
X162224819Y-107680952D01*
X162224819Y-107680952D02*
X162224819Y-107966666D01*
X162224819Y-107966666D02*
X162177200Y-108061904D01*
X162177200Y-108061904D02*
X162129580Y-108109523D01*
X159801009Y-129293333D02*
X159801009Y-129626666D01*
X160324819Y-129626666D02*
X159324819Y-129626666D01*
X159324819Y-129626666D02*
X159324819Y-129150476D01*
X159324819Y-128864761D02*
X159324819Y-128245714D01*
X159324819Y-128245714D02*
X159705771Y-128579047D01*
X159705771Y-128579047D02*
X159705771Y-128436190D01*
X159705771Y-128436190D02*
X159753390Y-128340952D01*
X159753390Y-128340952D02*
X159801009Y-128293333D01*
X159801009Y-128293333D02*
X159896247Y-128245714D01*
X159896247Y-128245714D02*
X160134342Y-128245714D01*
X160134342Y-128245714D02*
X160229580Y-128293333D01*
X160229580Y-128293333D02*
X160277200Y-128340952D01*
X160277200Y-128340952D02*
X160324819Y-128436190D01*
X160324819Y-128436190D02*
X160324819Y-128721904D01*
X160324819Y-128721904D02*
X160277200Y-128817142D01*
X160277200Y-128817142D02*
X160229580Y-128864761D01*
X178224819Y-109490476D02*
X177748628Y-109823809D01*
X178224819Y-110061904D02*
X177224819Y-110061904D01*
X177224819Y-110061904D02*
X177224819Y-109680952D01*
X177224819Y-109680952D02*
X177272438Y-109585714D01*
X177272438Y-109585714D02*
X177320057Y-109538095D01*
X177320057Y-109538095D02*
X177415295Y-109490476D01*
X177415295Y-109490476D02*
X177558152Y-109490476D01*
X177558152Y-109490476D02*
X177653390Y-109538095D01*
X177653390Y-109538095D02*
X177701009Y-109585714D01*
X177701009Y-109585714D02*
X177748628Y-109680952D01*
X177748628Y-109680952D02*
X177748628Y-110061904D01*
X177224819Y-109061904D02*
X178034342Y-109061904D01*
X178034342Y-109061904D02*
X178129580Y-109014285D01*
X178129580Y-109014285D02*
X178177200Y-108966666D01*
X178177200Y-108966666D02*
X178224819Y-108871428D01*
X178224819Y-108871428D02*
X178224819Y-108680952D01*
X178224819Y-108680952D02*
X178177200Y-108585714D01*
X178177200Y-108585714D02*
X178129580Y-108538095D01*
X178129580Y-108538095D02*
X178034342Y-108490476D01*
X178034342Y-108490476D02*
X177224819Y-108490476D01*
X177558152Y-107585714D02*
X178224819Y-107585714D01*
X177177200Y-107823809D02*
X177891485Y-108061904D01*
X177891485Y-108061904D02*
X177891485Y-107442857D01*
X144724819Y-135838094D02*
X143724819Y-135838094D01*
X143724819Y-135838094D02*
X143724819Y-135599999D01*
X143724819Y-135599999D02*
X143772438Y-135457142D01*
X143772438Y-135457142D02*
X143867676Y-135361904D01*
X143867676Y-135361904D02*
X143962914Y-135314285D01*
X143962914Y-135314285D02*
X144153390Y-135266666D01*
X144153390Y-135266666D02*
X144296247Y-135266666D01*
X144296247Y-135266666D02*
X144486723Y-135314285D01*
X144486723Y-135314285D02*
X144581961Y-135361904D01*
X144581961Y-135361904D02*
X144677200Y-135457142D01*
X144677200Y-135457142D02*
X144724819Y-135599999D01*
X144724819Y-135599999D02*
X144724819Y-135838094D01*
X144724819Y-134266666D02*
X144248628Y-134599999D01*
X144724819Y-134838094D02*
X143724819Y-134838094D01*
X143724819Y-134838094D02*
X143724819Y-134457142D01*
X143724819Y-134457142D02*
X143772438Y-134361904D01*
X143772438Y-134361904D02*
X143820057Y-134314285D01*
X143820057Y-134314285D02*
X143915295Y-134266666D01*
X143915295Y-134266666D02*
X144058152Y-134266666D01*
X144058152Y-134266666D02*
X144153390Y-134314285D01*
X144153390Y-134314285D02*
X144201009Y-134361904D01*
X144201009Y-134361904D02*
X144248628Y-134457142D01*
X144248628Y-134457142D02*
X144248628Y-134838094D01*
X143820057Y-133885713D02*
X143772438Y-133838094D01*
X143772438Y-133838094D02*
X143724819Y-133742856D01*
X143724819Y-133742856D02*
X143724819Y-133504761D01*
X143724819Y-133504761D02*
X143772438Y-133409523D01*
X143772438Y-133409523D02*
X143820057Y-133361904D01*
X143820057Y-133361904D02*
X143915295Y-133314285D01*
X143915295Y-133314285D02*
X144010533Y-133314285D01*
X144010533Y-133314285D02*
X144153390Y-133361904D01*
X144153390Y-133361904D02*
X144724819Y-133933332D01*
X144724819Y-133933332D02*
X144724819Y-133314285D01*
X128404819Y-116321428D02*
X128404819Y-116130952D01*
X128404819Y-116130952D02*
X128452438Y-116035714D01*
X128452438Y-116035714D02*
X128547676Y-115940476D01*
X128547676Y-115940476D02*
X128738152Y-115892857D01*
X128738152Y-115892857D02*
X129071485Y-115892857D01*
X129071485Y-115892857D02*
X129261961Y-115940476D01*
X129261961Y-115940476D02*
X129357200Y-116035714D01*
X129357200Y-116035714D02*
X129404819Y-116130952D01*
X129404819Y-116130952D02*
X129404819Y-116321428D01*
X129404819Y-116321428D02*
X129357200Y-116416666D01*
X129357200Y-116416666D02*
X129261961Y-116511904D01*
X129261961Y-116511904D02*
X129071485Y-116559523D01*
X129071485Y-116559523D02*
X128738152Y-116559523D01*
X128738152Y-116559523D02*
X128547676Y-116511904D01*
X128547676Y-116511904D02*
X128452438Y-116416666D01*
X128452438Y-116416666D02*
X128404819Y-116321428D01*
X129404819Y-115464285D02*
X128404819Y-115464285D01*
X129404819Y-114892857D02*
X128833390Y-115321428D01*
X128404819Y-114892857D02*
X128976247Y-115464285D01*
X129404819Y-113940476D02*
X129404819Y-114511904D01*
X129404819Y-114226190D02*
X128404819Y-114226190D01*
X128404819Y-114226190D02*
X128547676Y-114321428D01*
X128547676Y-114321428D02*
X128642914Y-114416666D01*
X128642914Y-114416666D02*
X128690533Y-114511904D01*
X128324819Y-130666666D02*
X127848628Y-130999999D01*
X128324819Y-131238094D02*
X127324819Y-131238094D01*
X127324819Y-131238094D02*
X127324819Y-130857142D01*
X127324819Y-130857142D02*
X127372438Y-130761904D01*
X127372438Y-130761904D02*
X127420057Y-130714285D01*
X127420057Y-130714285D02*
X127515295Y-130666666D01*
X127515295Y-130666666D02*
X127658152Y-130666666D01*
X127658152Y-130666666D02*
X127753390Y-130714285D01*
X127753390Y-130714285D02*
X127801009Y-130761904D01*
X127801009Y-130761904D02*
X127848628Y-130857142D01*
X127848628Y-130857142D02*
X127848628Y-131238094D01*
X128324819Y-129666666D02*
X127848628Y-129999999D01*
X128324819Y-130238094D02*
X127324819Y-130238094D01*
X127324819Y-130238094D02*
X127324819Y-129857142D01*
X127324819Y-129857142D02*
X127372438Y-129761904D01*
X127372438Y-129761904D02*
X127420057Y-129714285D01*
X127420057Y-129714285D02*
X127515295Y-129666666D01*
X127515295Y-129666666D02*
X127658152Y-129666666D01*
X127658152Y-129666666D02*
X127753390Y-129714285D01*
X127753390Y-129714285D02*
X127801009Y-129761904D01*
X127801009Y-129761904D02*
X127848628Y-129857142D01*
X127848628Y-129857142D02*
X127848628Y-130238094D01*
X128324819Y-128714285D02*
X128324819Y-129285713D01*
X128324819Y-128999999D02*
X127324819Y-128999999D01*
X127324819Y-128999999D02*
X127467676Y-129095237D01*
X127467676Y-129095237D02*
X127562914Y-129190475D01*
X127562914Y-129190475D02*
X127610533Y-129285713D01*
X160724819Y-135838094D02*
X159724819Y-135838094D01*
X159724819Y-135838094D02*
X159724819Y-135599999D01*
X159724819Y-135599999D02*
X159772438Y-135457142D01*
X159772438Y-135457142D02*
X159867676Y-135361904D01*
X159867676Y-135361904D02*
X159962914Y-135314285D01*
X159962914Y-135314285D02*
X160153390Y-135266666D01*
X160153390Y-135266666D02*
X160296247Y-135266666D01*
X160296247Y-135266666D02*
X160486723Y-135314285D01*
X160486723Y-135314285D02*
X160581961Y-135361904D01*
X160581961Y-135361904D02*
X160677200Y-135457142D01*
X160677200Y-135457142D02*
X160724819Y-135599999D01*
X160724819Y-135599999D02*
X160724819Y-135838094D01*
X160724819Y-134266666D02*
X160248628Y-134599999D01*
X160724819Y-134838094D02*
X159724819Y-134838094D01*
X159724819Y-134838094D02*
X159724819Y-134457142D01*
X159724819Y-134457142D02*
X159772438Y-134361904D01*
X159772438Y-134361904D02*
X159820057Y-134314285D01*
X159820057Y-134314285D02*
X159915295Y-134266666D01*
X159915295Y-134266666D02*
X160058152Y-134266666D01*
X160058152Y-134266666D02*
X160153390Y-134314285D01*
X160153390Y-134314285D02*
X160201009Y-134361904D01*
X160201009Y-134361904D02*
X160248628Y-134457142D01*
X160248628Y-134457142D02*
X160248628Y-134838094D01*
X159724819Y-133933332D02*
X159724819Y-133314285D01*
X159724819Y-133314285D02*
X160105771Y-133647618D01*
X160105771Y-133647618D02*
X160105771Y-133504761D01*
X160105771Y-133504761D02*
X160153390Y-133409523D01*
X160153390Y-133409523D02*
X160201009Y-133361904D01*
X160201009Y-133361904D02*
X160296247Y-133314285D01*
X160296247Y-133314285D02*
X160534342Y-133314285D01*
X160534342Y-133314285D02*
X160629580Y-133361904D01*
X160629580Y-133361904D02*
X160677200Y-133409523D01*
X160677200Y-133409523D02*
X160724819Y-133504761D01*
X160724819Y-133504761D02*
X160724819Y-133790475D01*
X160724819Y-133790475D02*
X160677200Y-133885713D01*
X160677200Y-133885713D02*
X160629580Y-133933332D01*
X143801009Y-129293333D02*
X143801009Y-129626666D01*
X144324819Y-129626666D02*
X143324819Y-129626666D01*
X143324819Y-129626666D02*
X143324819Y-129150476D01*
X143420057Y-128817142D02*
X143372438Y-128769523D01*
X143372438Y-128769523D02*
X143324819Y-128674285D01*
X143324819Y-128674285D02*
X143324819Y-128436190D01*
X143324819Y-128436190D02*
X143372438Y-128340952D01*
X143372438Y-128340952D02*
X143420057Y-128293333D01*
X143420057Y-128293333D02*
X143515295Y-128245714D01*
X143515295Y-128245714D02*
X143610533Y-128245714D01*
X143610533Y-128245714D02*
X143753390Y-128293333D01*
X143753390Y-128293333D02*
X144324819Y-128864761D01*
X144324819Y-128864761D02*
X144324819Y-128245714D01*
X130224819Y-109490476D02*
X129748628Y-109823809D01*
X130224819Y-110061904D02*
X129224819Y-110061904D01*
X129224819Y-110061904D02*
X129224819Y-109680952D01*
X129224819Y-109680952D02*
X129272438Y-109585714D01*
X129272438Y-109585714D02*
X129320057Y-109538095D01*
X129320057Y-109538095D02*
X129415295Y-109490476D01*
X129415295Y-109490476D02*
X129558152Y-109490476D01*
X129558152Y-109490476D02*
X129653390Y-109538095D01*
X129653390Y-109538095D02*
X129701009Y-109585714D01*
X129701009Y-109585714D02*
X129748628Y-109680952D01*
X129748628Y-109680952D02*
X129748628Y-110061904D01*
X129224819Y-109061904D02*
X130034342Y-109061904D01*
X130034342Y-109061904D02*
X130129580Y-109014285D01*
X130129580Y-109014285D02*
X130177200Y-108966666D01*
X130177200Y-108966666D02*
X130224819Y-108871428D01*
X130224819Y-108871428D02*
X130224819Y-108680952D01*
X130224819Y-108680952D02*
X130177200Y-108585714D01*
X130177200Y-108585714D02*
X130129580Y-108538095D01*
X130129580Y-108538095D02*
X130034342Y-108490476D01*
X130034342Y-108490476D02*
X129224819Y-108490476D01*
X130224819Y-107490476D02*
X130224819Y-108061904D01*
X130224819Y-107776190D02*
X129224819Y-107776190D01*
X129224819Y-107776190D02*
X129367676Y-107871428D01*
X129367676Y-107871428D02*
X129462914Y-107966666D01*
X129462914Y-107966666D02*
X129510533Y-108061904D01*
X119614700Y-135071428D02*
X119614700Y-133928571D01*
X120186128Y-134499999D02*
X119043271Y-134499999D01*
X119614700Y-147371428D02*
X119614700Y-146228571D01*
X127801009Y-129293333D02*
X127801009Y-129626666D01*
X128324819Y-129626666D02*
X127324819Y-129626666D01*
X127324819Y-129626666D02*
X127324819Y-129150476D01*
X128324819Y-128245714D02*
X128324819Y-128817142D01*
X128324819Y-128531428D02*
X127324819Y-128531428D01*
X127324819Y-128531428D02*
X127467676Y-128626666D01*
X127467676Y-128626666D02*
X127562914Y-128721904D01*
X127562914Y-128721904D02*
X127610533Y-128817142D01*
X133133333Y-119924819D02*
X132800000Y-119448628D01*
X132561905Y-119924819D02*
X132561905Y-118924819D01*
X132561905Y-118924819D02*
X132942857Y-118924819D01*
X132942857Y-118924819D02*
X133038095Y-118972438D01*
X133038095Y-118972438D02*
X133085714Y-119020057D01*
X133085714Y-119020057D02*
X133133333Y-119115295D01*
X133133333Y-119115295D02*
X133133333Y-119258152D01*
X133133333Y-119258152D02*
X133085714Y-119353390D01*
X133085714Y-119353390D02*
X133038095Y-119401009D01*
X133038095Y-119401009D02*
X132942857Y-119448628D01*
X132942857Y-119448628D02*
X132561905Y-119448628D01*
X133561905Y-119924819D02*
X133561905Y-118924819D01*
X133561905Y-118924819D02*
X133942857Y-118924819D01*
X133942857Y-118924819D02*
X134038095Y-118972438D01*
X134038095Y-118972438D02*
X134085714Y-119020057D01*
X134085714Y-119020057D02*
X134133333Y-119115295D01*
X134133333Y-119115295D02*
X134133333Y-119258152D01*
X134133333Y-119258152D02*
X134085714Y-119353390D01*
X134085714Y-119353390D02*
X134038095Y-119401009D01*
X134038095Y-119401009D02*
X133942857Y-119448628D01*
X133942857Y-119448628D02*
X133561905Y-119448628D01*
X135085714Y-119924819D02*
X134514286Y-119924819D01*
X134800000Y-119924819D02*
X134800000Y-118924819D01*
X134800000Y-118924819D02*
X134704762Y-119067676D01*
X134704762Y-119067676D02*
X134609524Y-119162914D01*
X134609524Y-119162914D02*
X134514286Y-119210533D01*
X176324819Y-130666666D02*
X175848628Y-130999999D01*
X176324819Y-131238094D02*
X175324819Y-131238094D01*
X175324819Y-131238094D02*
X175324819Y-130857142D01*
X175324819Y-130857142D02*
X175372438Y-130761904D01*
X175372438Y-130761904D02*
X175420057Y-130714285D01*
X175420057Y-130714285D02*
X175515295Y-130666666D01*
X175515295Y-130666666D02*
X175658152Y-130666666D01*
X175658152Y-130666666D02*
X175753390Y-130714285D01*
X175753390Y-130714285D02*
X175801009Y-130761904D01*
X175801009Y-130761904D02*
X175848628Y-130857142D01*
X175848628Y-130857142D02*
X175848628Y-131238094D01*
X176324819Y-129666666D02*
X175848628Y-129999999D01*
X176324819Y-130238094D02*
X175324819Y-130238094D01*
X175324819Y-130238094D02*
X175324819Y-129857142D01*
X175324819Y-129857142D02*
X175372438Y-129761904D01*
X175372438Y-129761904D02*
X175420057Y-129714285D01*
X175420057Y-129714285D02*
X175515295Y-129666666D01*
X175515295Y-129666666D02*
X175658152Y-129666666D01*
X175658152Y-129666666D02*
X175753390Y-129714285D01*
X175753390Y-129714285D02*
X175801009Y-129761904D01*
X175801009Y-129761904D02*
X175848628Y-129857142D01*
X175848628Y-129857142D02*
X175848628Y-130238094D01*
X175658152Y-128809523D02*
X176324819Y-128809523D01*
X175277200Y-129047618D02*
X175991485Y-129285713D01*
X175991485Y-129285713D02*
X175991485Y-128666666D01*
X179324819Y-130666666D02*
X178848628Y-130999999D01*
X179324819Y-131238094D02*
X178324819Y-131238094D01*
X178324819Y-131238094D02*
X178324819Y-130857142D01*
X178324819Y-130857142D02*
X178372438Y-130761904D01*
X178372438Y-130761904D02*
X178420057Y-130714285D01*
X178420057Y-130714285D02*
X178515295Y-130666666D01*
X178515295Y-130666666D02*
X178658152Y-130666666D01*
X178658152Y-130666666D02*
X178753390Y-130714285D01*
X178753390Y-130714285D02*
X178801009Y-130761904D01*
X178801009Y-130761904D02*
X178848628Y-130857142D01*
X178848628Y-130857142D02*
X178848628Y-131238094D01*
X178372438Y-129714285D02*
X178324819Y-129809523D01*
X178324819Y-129809523D02*
X178324819Y-129952380D01*
X178324819Y-129952380D02*
X178372438Y-130095237D01*
X178372438Y-130095237D02*
X178467676Y-130190475D01*
X178467676Y-130190475D02*
X178562914Y-130238094D01*
X178562914Y-130238094D02*
X178753390Y-130285713D01*
X178753390Y-130285713D02*
X178896247Y-130285713D01*
X178896247Y-130285713D02*
X179086723Y-130238094D01*
X179086723Y-130238094D02*
X179181961Y-130190475D01*
X179181961Y-130190475D02*
X179277200Y-130095237D01*
X179277200Y-130095237D02*
X179324819Y-129952380D01*
X179324819Y-129952380D02*
X179324819Y-129857142D01*
X179324819Y-129857142D02*
X179277200Y-129714285D01*
X179277200Y-129714285D02*
X179229580Y-129666666D01*
X179229580Y-129666666D02*
X178896247Y-129666666D01*
X178896247Y-129666666D02*
X178896247Y-129857142D01*
X178658152Y-128809523D02*
X179324819Y-128809523D01*
X178277200Y-129047618D02*
X178991485Y-129285713D01*
X178991485Y-129285713D02*
X178991485Y-128666666D01*
X176404819Y-116321428D02*
X176404819Y-116130952D01*
X176404819Y-116130952D02*
X176452438Y-116035714D01*
X176452438Y-116035714D02*
X176547676Y-115940476D01*
X176547676Y-115940476D02*
X176738152Y-115892857D01*
X176738152Y-115892857D02*
X177071485Y-115892857D01*
X177071485Y-115892857D02*
X177261961Y-115940476D01*
X177261961Y-115940476D02*
X177357200Y-116035714D01*
X177357200Y-116035714D02*
X177404819Y-116130952D01*
X177404819Y-116130952D02*
X177404819Y-116321428D01*
X177404819Y-116321428D02*
X177357200Y-116416666D01*
X177357200Y-116416666D02*
X177261961Y-116511904D01*
X177261961Y-116511904D02*
X177071485Y-116559523D01*
X177071485Y-116559523D02*
X176738152Y-116559523D01*
X176738152Y-116559523D02*
X176547676Y-116511904D01*
X176547676Y-116511904D02*
X176452438Y-116416666D01*
X176452438Y-116416666D02*
X176404819Y-116321428D01*
X177404819Y-115464285D02*
X176404819Y-115464285D01*
X177404819Y-114892857D02*
X176833390Y-115321428D01*
X176404819Y-114892857D02*
X176976247Y-115464285D01*
X176738152Y-114035714D02*
X177404819Y-114035714D01*
X176357200Y-114273809D02*
X177071485Y-114511904D01*
X177071485Y-114511904D02*
X177071485Y-113892857D01*
X112380952Y-119924819D02*
X112047619Y-119448628D01*
X111809524Y-119924819D02*
X111809524Y-118924819D01*
X111809524Y-118924819D02*
X112190476Y-118924819D01*
X112190476Y-118924819D02*
X112285714Y-118972438D01*
X112285714Y-118972438D02*
X112333333Y-119020057D01*
X112333333Y-119020057D02*
X112380952Y-119115295D01*
X112380952Y-119115295D02*
X112380952Y-119258152D01*
X112380952Y-119258152D02*
X112333333Y-119353390D01*
X112333333Y-119353390D02*
X112285714Y-119401009D01*
X112285714Y-119401009D02*
X112190476Y-119448628D01*
X112190476Y-119448628D02*
X111809524Y-119448628D01*
X112809524Y-119924819D02*
X112809524Y-118924819D01*
X112809524Y-118924819D02*
X113190476Y-118924819D01*
X113190476Y-118924819D02*
X113285714Y-118972438D01*
X113285714Y-118972438D02*
X113333333Y-119020057D01*
X113333333Y-119020057D02*
X113380952Y-119115295D01*
X113380952Y-119115295D02*
X113380952Y-119258152D01*
X113380952Y-119258152D02*
X113333333Y-119353390D01*
X113333333Y-119353390D02*
X113285714Y-119401009D01*
X113285714Y-119401009D02*
X113190476Y-119448628D01*
X113190476Y-119448628D02*
X112809524Y-119448628D01*
X113666667Y-118924819D02*
X114000000Y-119924819D01*
X114000000Y-119924819D02*
X114333333Y-118924819D01*
X176724819Y-135838094D02*
X175724819Y-135838094D01*
X175724819Y-135838094D02*
X175724819Y-135599999D01*
X175724819Y-135599999D02*
X175772438Y-135457142D01*
X175772438Y-135457142D02*
X175867676Y-135361904D01*
X175867676Y-135361904D02*
X175962914Y-135314285D01*
X175962914Y-135314285D02*
X176153390Y-135266666D01*
X176153390Y-135266666D02*
X176296247Y-135266666D01*
X176296247Y-135266666D02*
X176486723Y-135314285D01*
X176486723Y-135314285D02*
X176581961Y-135361904D01*
X176581961Y-135361904D02*
X176677200Y-135457142D01*
X176677200Y-135457142D02*
X176724819Y-135599999D01*
X176724819Y-135599999D02*
X176724819Y-135838094D01*
X176724819Y-134266666D02*
X176248628Y-134599999D01*
X176724819Y-134838094D02*
X175724819Y-134838094D01*
X175724819Y-134838094D02*
X175724819Y-134457142D01*
X175724819Y-134457142D02*
X175772438Y-134361904D01*
X175772438Y-134361904D02*
X175820057Y-134314285D01*
X175820057Y-134314285D02*
X175915295Y-134266666D01*
X175915295Y-134266666D02*
X176058152Y-134266666D01*
X176058152Y-134266666D02*
X176153390Y-134314285D01*
X176153390Y-134314285D02*
X176201009Y-134361904D01*
X176201009Y-134361904D02*
X176248628Y-134457142D01*
X176248628Y-134457142D02*
X176248628Y-134838094D01*
X176058152Y-133409523D02*
X176724819Y-133409523D01*
X175677200Y-133647618D02*
X176391485Y-133885713D01*
X176391485Y-133885713D02*
X176391485Y-133266666D01*
X170404761Y-108524819D02*
X170071428Y-108048628D01*
X169833333Y-108524819D02*
X169833333Y-107524819D01*
X169833333Y-107524819D02*
X170214285Y-107524819D01*
X170214285Y-107524819D02*
X170309523Y-107572438D01*
X170309523Y-107572438D02*
X170357142Y-107620057D01*
X170357142Y-107620057D02*
X170404761Y-107715295D01*
X170404761Y-107715295D02*
X170404761Y-107858152D01*
X170404761Y-107858152D02*
X170357142Y-107953390D01*
X170357142Y-107953390D02*
X170309523Y-108001009D01*
X170309523Y-108001009D02*
X170214285Y-108048628D01*
X170214285Y-108048628D02*
X169833333Y-108048628D01*
X170785714Y-108239104D02*
X171261904Y-108239104D01*
X170690476Y-108524819D02*
X171023809Y-107524819D01*
X171023809Y-107524819D02*
X171357142Y-108524819D01*
X171642857Y-107620057D02*
X171690476Y-107572438D01*
X171690476Y-107572438D02*
X171785714Y-107524819D01*
X171785714Y-107524819D02*
X172023809Y-107524819D01*
X172023809Y-107524819D02*
X172119047Y-107572438D01*
X172119047Y-107572438D02*
X172166666Y-107620057D01*
X172166666Y-107620057D02*
X172214285Y-107715295D01*
X172214285Y-107715295D02*
X172214285Y-107810533D01*
X172214285Y-107810533D02*
X172166666Y-107953390D01*
X172166666Y-107953390D02*
X171595238Y-108524819D01*
X171595238Y-108524819D02*
X172214285Y-108524819D01*
X129295238Y-119524819D02*
X128961905Y-119048628D01*
X128723810Y-119524819D02*
X128723810Y-118524819D01*
X128723810Y-118524819D02*
X129104762Y-118524819D01*
X129104762Y-118524819D02*
X129200000Y-118572438D01*
X129200000Y-118572438D02*
X129247619Y-118620057D01*
X129247619Y-118620057D02*
X129295238Y-118715295D01*
X129295238Y-118715295D02*
X129295238Y-118858152D01*
X129295238Y-118858152D02*
X129247619Y-118953390D01*
X129247619Y-118953390D02*
X129200000Y-119001009D01*
X129200000Y-119001009D02*
X129104762Y-119048628D01*
X129104762Y-119048628D02*
X128723810Y-119048628D01*
X129723810Y-119524819D02*
X129723810Y-118524819D01*
X130723809Y-119524819D02*
X130152381Y-119524819D01*
X130438095Y-119524819D02*
X130438095Y-118524819D01*
X130438095Y-118524819D02*
X130342857Y-118667676D01*
X130342857Y-118667676D02*
X130247619Y-118762914D01*
X130247619Y-118762914D02*
X130152381Y-118810533D01*
X181133333Y-119924819D02*
X180800000Y-119448628D01*
X180561905Y-119924819D02*
X180561905Y-118924819D01*
X180561905Y-118924819D02*
X180942857Y-118924819D01*
X180942857Y-118924819D02*
X181038095Y-118972438D01*
X181038095Y-118972438D02*
X181085714Y-119020057D01*
X181085714Y-119020057D02*
X181133333Y-119115295D01*
X181133333Y-119115295D02*
X181133333Y-119258152D01*
X181133333Y-119258152D02*
X181085714Y-119353390D01*
X181085714Y-119353390D02*
X181038095Y-119401009D01*
X181038095Y-119401009D02*
X180942857Y-119448628D01*
X180942857Y-119448628D02*
X180561905Y-119448628D01*
X181561905Y-119924819D02*
X181561905Y-118924819D01*
X181561905Y-118924819D02*
X181942857Y-118924819D01*
X181942857Y-118924819D02*
X182038095Y-118972438D01*
X182038095Y-118972438D02*
X182085714Y-119020057D01*
X182085714Y-119020057D02*
X182133333Y-119115295D01*
X182133333Y-119115295D02*
X182133333Y-119258152D01*
X182133333Y-119258152D02*
X182085714Y-119353390D01*
X182085714Y-119353390D02*
X182038095Y-119401009D01*
X182038095Y-119401009D02*
X181942857Y-119448628D01*
X181942857Y-119448628D02*
X181561905Y-119448628D01*
X182990476Y-119258152D02*
X182990476Y-119924819D01*
X182752381Y-118877200D02*
X182514286Y-119591485D01*
X182514286Y-119591485D02*
X183133333Y-119591485D01*
X149133333Y-119924819D02*
X148800000Y-119448628D01*
X148561905Y-119924819D02*
X148561905Y-118924819D01*
X148561905Y-118924819D02*
X148942857Y-118924819D01*
X148942857Y-118924819D02*
X149038095Y-118972438D01*
X149038095Y-118972438D02*
X149085714Y-119020057D01*
X149085714Y-119020057D02*
X149133333Y-119115295D01*
X149133333Y-119115295D02*
X149133333Y-119258152D01*
X149133333Y-119258152D02*
X149085714Y-119353390D01*
X149085714Y-119353390D02*
X149038095Y-119401009D01*
X149038095Y-119401009D02*
X148942857Y-119448628D01*
X148942857Y-119448628D02*
X148561905Y-119448628D01*
X149561905Y-119924819D02*
X149561905Y-118924819D01*
X149561905Y-118924819D02*
X149942857Y-118924819D01*
X149942857Y-118924819D02*
X150038095Y-118972438D01*
X150038095Y-118972438D02*
X150085714Y-119020057D01*
X150085714Y-119020057D02*
X150133333Y-119115295D01*
X150133333Y-119115295D02*
X150133333Y-119258152D01*
X150133333Y-119258152D02*
X150085714Y-119353390D01*
X150085714Y-119353390D02*
X150038095Y-119401009D01*
X150038095Y-119401009D02*
X149942857Y-119448628D01*
X149942857Y-119448628D02*
X149561905Y-119448628D01*
X150514286Y-119020057D02*
X150561905Y-118972438D01*
X150561905Y-118972438D02*
X150657143Y-118924819D01*
X150657143Y-118924819D02*
X150895238Y-118924819D01*
X150895238Y-118924819D02*
X150990476Y-118972438D01*
X150990476Y-118972438D02*
X151038095Y-119020057D01*
X151038095Y-119020057D02*
X151085714Y-119115295D01*
X151085714Y-119115295D02*
X151085714Y-119210533D01*
X151085714Y-119210533D02*
X151038095Y-119353390D01*
X151038095Y-119353390D02*
X150466667Y-119924819D01*
X150466667Y-119924819D02*
X151085714Y-119924819D01*
X179724819Y-135838094D02*
X178724819Y-135838094D01*
X178724819Y-135838094D02*
X178724819Y-135599999D01*
X178724819Y-135599999D02*
X178772438Y-135457142D01*
X178772438Y-135457142D02*
X178867676Y-135361904D01*
X178867676Y-135361904D02*
X178962914Y-135314285D01*
X178962914Y-135314285D02*
X179153390Y-135266666D01*
X179153390Y-135266666D02*
X179296247Y-135266666D01*
X179296247Y-135266666D02*
X179486723Y-135314285D01*
X179486723Y-135314285D02*
X179581961Y-135361904D01*
X179581961Y-135361904D02*
X179677200Y-135457142D01*
X179677200Y-135457142D02*
X179724819Y-135599999D01*
X179724819Y-135599999D02*
X179724819Y-135838094D01*
X178772438Y-134314285D02*
X178724819Y-134409523D01*
X178724819Y-134409523D02*
X178724819Y-134552380D01*
X178724819Y-134552380D02*
X178772438Y-134695237D01*
X178772438Y-134695237D02*
X178867676Y-134790475D01*
X178867676Y-134790475D02*
X178962914Y-134838094D01*
X178962914Y-134838094D02*
X179153390Y-134885713D01*
X179153390Y-134885713D02*
X179296247Y-134885713D01*
X179296247Y-134885713D02*
X179486723Y-134838094D01*
X179486723Y-134838094D02*
X179581961Y-134790475D01*
X179581961Y-134790475D02*
X179677200Y-134695237D01*
X179677200Y-134695237D02*
X179724819Y-134552380D01*
X179724819Y-134552380D02*
X179724819Y-134457142D01*
X179724819Y-134457142D02*
X179677200Y-134314285D01*
X179677200Y-134314285D02*
X179629580Y-134266666D01*
X179629580Y-134266666D02*
X179296247Y-134266666D01*
X179296247Y-134266666D02*
X179296247Y-134457142D01*
X179058152Y-133409523D02*
X179724819Y-133409523D01*
X178677200Y-133647618D02*
X179391485Y-133885713D01*
X179391485Y-133885713D02*
X179391485Y-133266666D01*
X165166666Y-103654819D02*
X165166666Y-104369104D01*
X165166666Y-104369104D02*
X165119047Y-104511961D01*
X165119047Y-104511961D02*
X165023809Y-104607200D01*
X165023809Y-104607200D02*
X164880952Y-104654819D01*
X164880952Y-104654819D02*
X164785714Y-104654819D01*
X165642857Y-104654819D02*
X165642857Y-103654819D01*
X165642857Y-103654819D02*
X166023809Y-103654819D01*
X166023809Y-103654819D02*
X166119047Y-103702438D01*
X166119047Y-103702438D02*
X166166666Y-103750057D01*
X166166666Y-103750057D02*
X166214285Y-103845295D01*
X166214285Y-103845295D02*
X166214285Y-103988152D01*
X166214285Y-103988152D02*
X166166666Y-104083390D01*
X166166666Y-104083390D02*
X166119047Y-104131009D01*
X166119047Y-104131009D02*
X166023809Y-104178628D01*
X166023809Y-104178628D02*
X165642857Y-104178628D01*
X167166666Y-104654819D02*
X166595238Y-104654819D01*
X166880952Y-104654819D02*
X166880952Y-103654819D01*
X166880952Y-103654819D02*
X166785714Y-103797676D01*
X166785714Y-103797676D02*
X166690476Y-103892914D01*
X166690476Y-103892914D02*
X166595238Y-103940533D01*
X144324819Y-130666666D02*
X143848628Y-130999999D01*
X144324819Y-131238094D02*
X143324819Y-131238094D01*
X143324819Y-131238094D02*
X143324819Y-130857142D01*
X143324819Y-130857142D02*
X143372438Y-130761904D01*
X143372438Y-130761904D02*
X143420057Y-130714285D01*
X143420057Y-130714285D02*
X143515295Y-130666666D01*
X143515295Y-130666666D02*
X143658152Y-130666666D01*
X143658152Y-130666666D02*
X143753390Y-130714285D01*
X143753390Y-130714285D02*
X143801009Y-130761904D01*
X143801009Y-130761904D02*
X143848628Y-130857142D01*
X143848628Y-130857142D02*
X143848628Y-131238094D01*
X144324819Y-129666666D02*
X143848628Y-129999999D01*
X144324819Y-130238094D02*
X143324819Y-130238094D01*
X143324819Y-130238094D02*
X143324819Y-129857142D01*
X143324819Y-129857142D02*
X143372438Y-129761904D01*
X143372438Y-129761904D02*
X143420057Y-129714285D01*
X143420057Y-129714285D02*
X143515295Y-129666666D01*
X143515295Y-129666666D02*
X143658152Y-129666666D01*
X143658152Y-129666666D02*
X143753390Y-129714285D01*
X143753390Y-129714285D02*
X143801009Y-129761904D01*
X143801009Y-129761904D02*
X143848628Y-129857142D01*
X143848628Y-129857142D02*
X143848628Y-130238094D01*
X143420057Y-129285713D02*
X143372438Y-129238094D01*
X143372438Y-129238094D02*
X143324819Y-129142856D01*
X143324819Y-129142856D02*
X143324819Y-128904761D01*
X143324819Y-128904761D02*
X143372438Y-128809523D01*
X143372438Y-128809523D02*
X143420057Y-128761904D01*
X143420057Y-128761904D02*
X143515295Y-128714285D01*
X143515295Y-128714285D02*
X143610533Y-128714285D01*
X143610533Y-128714285D02*
X143753390Y-128761904D01*
X143753390Y-128761904D02*
X144324819Y-129333332D01*
X144324819Y-129333332D02*
X144324819Y-128714285D01*
X165133333Y-119924819D02*
X164800000Y-119448628D01*
X164561905Y-119924819D02*
X164561905Y-118924819D01*
X164561905Y-118924819D02*
X164942857Y-118924819D01*
X164942857Y-118924819D02*
X165038095Y-118972438D01*
X165038095Y-118972438D02*
X165085714Y-119020057D01*
X165085714Y-119020057D02*
X165133333Y-119115295D01*
X165133333Y-119115295D02*
X165133333Y-119258152D01*
X165133333Y-119258152D02*
X165085714Y-119353390D01*
X165085714Y-119353390D02*
X165038095Y-119401009D01*
X165038095Y-119401009D02*
X164942857Y-119448628D01*
X164942857Y-119448628D02*
X164561905Y-119448628D01*
X165561905Y-119924819D02*
X165561905Y-118924819D01*
X165561905Y-118924819D02*
X165942857Y-118924819D01*
X165942857Y-118924819D02*
X166038095Y-118972438D01*
X166038095Y-118972438D02*
X166085714Y-119020057D01*
X166085714Y-119020057D02*
X166133333Y-119115295D01*
X166133333Y-119115295D02*
X166133333Y-119258152D01*
X166133333Y-119258152D02*
X166085714Y-119353390D01*
X166085714Y-119353390D02*
X166038095Y-119401009D01*
X166038095Y-119401009D02*
X165942857Y-119448628D01*
X165942857Y-119448628D02*
X165561905Y-119448628D01*
X166466667Y-118924819D02*
X167085714Y-118924819D01*
X167085714Y-118924819D02*
X166752381Y-119305771D01*
X166752381Y-119305771D02*
X166895238Y-119305771D01*
X166895238Y-119305771D02*
X166990476Y-119353390D01*
X166990476Y-119353390D02*
X167038095Y-119401009D01*
X167038095Y-119401009D02*
X167085714Y-119496247D01*
X167085714Y-119496247D02*
X167085714Y-119734342D01*
X167085714Y-119734342D02*
X167038095Y-119829580D01*
X167038095Y-119829580D02*
X166990476Y-119877200D01*
X166990476Y-119877200D02*
X166895238Y-119924819D01*
X166895238Y-119924819D02*
X166609524Y-119924819D01*
X166609524Y-119924819D02*
X166514286Y-119877200D01*
X166514286Y-119877200D02*
X166466667Y-119829580D01*
X135238095Y-102504819D02*
X135238095Y-103314342D01*
X135238095Y-103314342D02*
X135285714Y-103409580D01*
X135285714Y-103409580D02*
X135333333Y-103457200D01*
X135333333Y-103457200D02*
X135428571Y-103504819D01*
X135428571Y-103504819D02*
X135619047Y-103504819D01*
X135619047Y-103504819D02*
X135714285Y-103457200D01*
X135714285Y-103457200D02*
X135761904Y-103409580D01*
X135761904Y-103409580D02*
X135809523Y-103314342D01*
X135809523Y-103314342D02*
X135809523Y-102504819D01*
X136809523Y-103504819D02*
X136238095Y-103504819D01*
X136523809Y-103504819D02*
X136523809Y-102504819D01*
X136523809Y-102504819D02*
X136428571Y-102647676D01*
X136428571Y-102647676D02*
X136333333Y-102742914D01*
X136333333Y-102742914D02*
X136238095Y-102790533D01*
X175801009Y-129293333D02*
X175801009Y-129626666D01*
X176324819Y-129626666D02*
X175324819Y-129626666D01*
X175324819Y-129626666D02*
X175324819Y-129150476D01*
X175658152Y-128340952D02*
X176324819Y-128340952D01*
X175277200Y-128579047D02*
X175991485Y-128817142D01*
X175991485Y-128817142D02*
X175991485Y-128198095D01*
X160324819Y-130666666D02*
X159848628Y-130999999D01*
X160324819Y-131238094D02*
X159324819Y-131238094D01*
X159324819Y-131238094D02*
X159324819Y-130857142D01*
X159324819Y-130857142D02*
X159372438Y-130761904D01*
X159372438Y-130761904D02*
X159420057Y-130714285D01*
X159420057Y-130714285D02*
X159515295Y-130666666D01*
X159515295Y-130666666D02*
X159658152Y-130666666D01*
X159658152Y-130666666D02*
X159753390Y-130714285D01*
X159753390Y-130714285D02*
X159801009Y-130761904D01*
X159801009Y-130761904D02*
X159848628Y-130857142D01*
X159848628Y-130857142D02*
X159848628Y-131238094D01*
X160324819Y-129666666D02*
X159848628Y-129999999D01*
X160324819Y-130238094D02*
X159324819Y-130238094D01*
X159324819Y-130238094D02*
X159324819Y-129857142D01*
X159324819Y-129857142D02*
X159372438Y-129761904D01*
X159372438Y-129761904D02*
X159420057Y-129714285D01*
X159420057Y-129714285D02*
X159515295Y-129666666D01*
X159515295Y-129666666D02*
X159658152Y-129666666D01*
X159658152Y-129666666D02*
X159753390Y-129714285D01*
X159753390Y-129714285D02*
X159801009Y-129761904D01*
X159801009Y-129761904D02*
X159848628Y-129857142D01*
X159848628Y-129857142D02*
X159848628Y-130238094D01*
X159324819Y-129333332D02*
X159324819Y-128714285D01*
X159324819Y-128714285D02*
X159705771Y-129047618D01*
X159705771Y-129047618D02*
X159705771Y-128904761D01*
X159705771Y-128904761D02*
X159753390Y-128809523D01*
X159753390Y-128809523D02*
X159801009Y-128761904D01*
X159801009Y-128761904D02*
X159896247Y-128714285D01*
X159896247Y-128714285D02*
X160134342Y-128714285D01*
X160134342Y-128714285D02*
X160229580Y-128761904D01*
X160229580Y-128761904D02*
X160277200Y-128809523D01*
X160277200Y-128809523D02*
X160324819Y-128904761D01*
X160324819Y-128904761D02*
X160324819Y-129190475D01*
X160324819Y-129190475D02*
X160277200Y-129285713D01*
X160277200Y-129285713D02*
X160229580Y-129333332D01*
X146224819Y-109490476D02*
X145748628Y-109823809D01*
X146224819Y-110061904D02*
X145224819Y-110061904D01*
X145224819Y-110061904D02*
X145224819Y-109680952D01*
X145224819Y-109680952D02*
X145272438Y-109585714D01*
X145272438Y-109585714D02*
X145320057Y-109538095D01*
X145320057Y-109538095D02*
X145415295Y-109490476D01*
X145415295Y-109490476D02*
X145558152Y-109490476D01*
X145558152Y-109490476D02*
X145653390Y-109538095D01*
X145653390Y-109538095D02*
X145701009Y-109585714D01*
X145701009Y-109585714D02*
X145748628Y-109680952D01*
X145748628Y-109680952D02*
X145748628Y-110061904D01*
X145224819Y-109061904D02*
X146034342Y-109061904D01*
X146034342Y-109061904D02*
X146129580Y-109014285D01*
X146129580Y-109014285D02*
X146177200Y-108966666D01*
X146177200Y-108966666D02*
X146224819Y-108871428D01*
X146224819Y-108871428D02*
X146224819Y-108680952D01*
X146224819Y-108680952D02*
X146177200Y-108585714D01*
X146177200Y-108585714D02*
X146129580Y-108538095D01*
X146129580Y-108538095D02*
X146034342Y-108490476D01*
X146034342Y-108490476D02*
X145224819Y-108490476D01*
X145320057Y-108061904D02*
X145272438Y-108014285D01*
X145272438Y-108014285D02*
X145224819Y-107919047D01*
X145224819Y-107919047D02*
X145224819Y-107680952D01*
X145224819Y-107680952D02*
X145272438Y-107585714D01*
X145272438Y-107585714D02*
X145320057Y-107538095D01*
X145320057Y-107538095D02*
X145415295Y-107490476D01*
X145415295Y-107490476D02*
X145510533Y-107490476D01*
X145510533Y-107490476D02*
X145653390Y-107538095D01*
X145653390Y-107538095D02*
X146224819Y-108109523D01*
X146224819Y-108109523D02*
X146224819Y-107490476D01*
X131324819Y-130666666D02*
X130848628Y-130999999D01*
X131324819Y-131238094D02*
X130324819Y-131238094D01*
X130324819Y-131238094D02*
X130324819Y-130857142D01*
X130324819Y-130857142D02*
X130372438Y-130761904D01*
X130372438Y-130761904D02*
X130420057Y-130714285D01*
X130420057Y-130714285D02*
X130515295Y-130666666D01*
X130515295Y-130666666D02*
X130658152Y-130666666D01*
X130658152Y-130666666D02*
X130753390Y-130714285D01*
X130753390Y-130714285D02*
X130801009Y-130761904D01*
X130801009Y-130761904D02*
X130848628Y-130857142D01*
X130848628Y-130857142D02*
X130848628Y-131238094D01*
X130372438Y-129714285D02*
X130324819Y-129809523D01*
X130324819Y-129809523D02*
X130324819Y-129952380D01*
X130324819Y-129952380D02*
X130372438Y-130095237D01*
X130372438Y-130095237D02*
X130467676Y-130190475D01*
X130467676Y-130190475D02*
X130562914Y-130238094D01*
X130562914Y-130238094D02*
X130753390Y-130285713D01*
X130753390Y-130285713D02*
X130896247Y-130285713D01*
X130896247Y-130285713D02*
X131086723Y-130238094D01*
X131086723Y-130238094D02*
X131181961Y-130190475D01*
X131181961Y-130190475D02*
X131277200Y-130095237D01*
X131277200Y-130095237D02*
X131324819Y-129952380D01*
X131324819Y-129952380D02*
X131324819Y-129857142D01*
X131324819Y-129857142D02*
X131277200Y-129714285D01*
X131277200Y-129714285D02*
X131229580Y-129666666D01*
X131229580Y-129666666D02*
X130896247Y-129666666D01*
X130896247Y-129666666D02*
X130896247Y-129857142D01*
X131324819Y-128714285D02*
X131324819Y-129285713D01*
X131324819Y-128999999D02*
X130324819Y-128999999D01*
X130324819Y-128999999D02*
X130467676Y-129095237D01*
X130467676Y-129095237D02*
X130562914Y-129190475D01*
X130562914Y-129190475D02*
X130610533Y-129285713D01*
X108142857Y-119524819D02*
X107809524Y-119048628D01*
X107571429Y-119524819D02*
X107571429Y-118524819D01*
X107571429Y-118524819D02*
X107952381Y-118524819D01*
X107952381Y-118524819D02*
X108047619Y-118572438D01*
X108047619Y-118572438D02*
X108095238Y-118620057D01*
X108095238Y-118620057D02*
X108142857Y-118715295D01*
X108142857Y-118715295D02*
X108142857Y-118858152D01*
X108142857Y-118858152D02*
X108095238Y-118953390D01*
X108095238Y-118953390D02*
X108047619Y-119001009D01*
X108047619Y-119001009D02*
X107952381Y-119048628D01*
X107952381Y-119048628D02*
X107571429Y-119048628D01*
X108571429Y-119524819D02*
X108571429Y-118524819D01*
X108904762Y-118524819D02*
X109238095Y-119524819D01*
X109238095Y-119524819D02*
X109571428Y-118524819D01*
X107204819Y-116273809D02*
X107204819Y-116083333D01*
X107204819Y-116083333D02*
X107252438Y-115988095D01*
X107252438Y-115988095D02*
X107347676Y-115892857D01*
X107347676Y-115892857D02*
X107538152Y-115845238D01*
X107538152Y-115845238D02*
X107871485Y-115845238D01*
X107871485Y-115845238D02*
X108061961Y-115892857D01*
X108061961Y-115892857D02*
X108157200Y-115988095D01*
X108157200Y-115988095D02*
X108204819Y-116083333D01*
X108204819Y-116083333D02*
X108204819Y-116273809D01*
X108204819Y-116273809D02*
X108157200Y-116369047D01*
X108157200Y-116369047D02*
X108061961Y-116464285D01*
X108061961Y-116464285D02*
X107871485Y-116511904D01*
X107871485Y-116511904D02*
X107538152Y-116511904D01*
X107538152Y-116511904D02*
X107347676Y-116464285D01*
X107347676Y-116464285D02*
X107252438Y-116369047D01*
X107252438Y-116369047D02*
X107204819Y-116273809D01*
X108204819Y-115416666D02*
X107204819Y-115416666D01*
X108204819Y-114845238D02*
X107633390Y-115273809D01*
X107204819Y-114845238D02*
X107776247Y-115416666D01*
X107204819Y-114559523D02*
X108204819Y-114226190D01*
X108204819Y-114226190D02*
X107204819Y-113892857D01*
X177295238Y-119524819D02*
X176961905Y-119048628D01*
X176723810Y-119524819D02*
X176723810Y-118524819D01*
X176723810Y-118524819D02*
X177104762Y-118524819D01*
X177104762Y-118524819D02*
X177200000Y-118572438D01*
X177200000Y-118572438D02*
X177247619Y-118620057D01*
X177247619Y-118620057D02*
X177295238Y-118715295D01*
X177295238Y-118715295D02*
X177295238Y-118858152D01*
X177295238Y-118858152D02*
X177247619Y-118953390D01*
X177247619Y-118953390D02*
X177200000Y-119001009D01*
X177200000Y-119001009D02*
X177104762Y-119048628D01*
X177104762Y-119048628D02*
X176723810Y-119048628D01*
X177723810Y-119524819D02*
X177723810Y-118524819D01*
X178628571Y-118858152D02*
X178628571Y-119524819D01*
X178390476Y-118477200D02*
X178152381Y-119191485D01*
X178152381Y-119191485D02*
X178771428Y-119191485D01*
D10*
%TO.C,RF*%
X143477500Y-104237258D02*
X143477500Y-103762742D01*
X144522500Y-104237258D02*
X144522500Y-103762742D01*
%TO.C,OK3*%
X161790000Y-112940000D02*
X162005000Y-112940000D01*
X161790000Y-117560000D02*
X161790000Y-112940000D01*
X162005000Y-117560000D02*
X161790000Y-117560000D01*
X164395000Y-112940000D02*
X164610000Y-112940000D01*
X164610000Y-112940000D02*
X164610000Y-117560000D01*
X164610000Y-117560000D02*
X164395000Y-117560000D01*
X162000000Y-118440000D02*
X161670000Y-118680000D01*
X161670000Y-118200000D01*
X162000000Y-118440000D01*
G36*
X162000000Y-118440000D02*
G01*
X161670000Y-118680000D01*
X161670000Y-118200000D01*
X162000000Y-118440000D01*
G37*
%TO.C,RI2*%
X144972936Y-119990000D02*
X146427064Y-119990000D01*
X144972936Y-121810000D02*
X146427064Y-121810000D01*
%TO.C,RG2*%
X147790000Y-130727064D02*
X147790000Y-129272936D01*
X149610000Y-130727064D02*
X149610000Y-129272936D01*
%TO.C,J3*%
X136640000Y-150100000D02*
X137240000Y-150400000D01*
X136640000Y-150700000D02*
X136640000Y-150100000D01*
X137240000Y-150400000D02*
X136640000Y-150700000D01*
X137440000Y-148290000D02*
X138640000Y-148290000D01*
X137440000Y-155310000D02*
X137440000Y-148290000D01*
X138640000Y-146590000D02*
X144320000Y-146590000D01*
X138640000Y-148290000D02*
X138640000Y-146590000D01*
X144320000Y-146590000D02*
X144320000Y-148290000D01*
X144320000Y-148290000D02*
X145520000Y-148290000D01*
X145520000Y-148290000D02*
X145520000Y-155310000D01*
X145520000Y-155310000D02*
X137440000Y-155310000D01*
%TO.C,C1*%
X135859420Y-110490000D02*
X136140580Y-110490000D01*
X135859420Y-111510000D02*
X136140580Y-111510000D01*
%TO.C,DG1*%
X131965000Y-133800000D02*
X131965000Y-136085000D01*
X131965000Y-136085000D02*
X133435000Y-136085000D01*
X133435000Y-136085000D02*
X133435000Y-133800000D01*
%TO.C,RG3*%
X163790000Y-130727064D02*
X163790000Y-129272936D01*
X165610000Y-130727064D02*
X165610000Y-129272936D01*
%TO.C,DR1*%
X128965000Y-133800000D02*
X128965000Y-136085000D01*
X128965000Y-136085000D02*
X130435000Y-136085000D01*
X130435000Y-136085000D02*
X130435000Y-133800000D01*
%TO.C,RUV*%
X109477500Y-109037258D02*
X109477500Y-108562742D01*
X110522500Y-109037258D02*
X110522500Y-108562742D01*
%TO.C,J7*%
X154890000Y-102885000D02*
X154890000Y-105385000D01*
X154890000Y-105385000D02*
X155940000Y-105385000D01*
X159940000Y-100915000D02*
X156060000Y-100915000D01*
X160060000Y-105385000D02*
X160060000Y-106375000D01*
X161110000Y-102885000D02*
X161110000Y-105385000D01*
X161110000Y-105385000D02*
X160060000Y-105385000D01*
%TO.C,RA1*%
X170762742Y-105477500D02*
X171237258Y-105477500D01*
X170762742Y-106522500D02*
X171237258Y-106522500D01*
%TO.C,J5*%
X168640000Y-150100000D02*
X169240000Y-150400000D01*
X168640000Y-150700000D02*
X168640000Y-150100000D01*
X169240000Y-150400000D02*
X168640000Y-150700000D01*
X169440000Y-148290000D02*
X170640000Y-148290000D01*
X169440000Y-155310000D02*
X169440000Y-148290000D01*
X170640000Y-146590000D02*
X176320000Y-146590000D01*
X170640000Y-148290000D02*
X170640000Y-146590000D01*
X176320000Y-146590000D02*
X176320000Y-148290000D01*
X176320000Y-148290000D02*
X177520000Y-148290000D01*
X177520000Y-148290000D02*
X177520000Y-155310000D01*
X177520000Y-155310000D02*
X169440000Y-155310000D01*
%TO.C,OK2*%
X145790000Y-112940000D02*
X146005000Y-112940000D01*
X145790000Y-117560000D02*
X145790000Y-112940000D01*
X146005000Y-117560000D02*
X145790000Y-117560000D01*
X148395000Y-112940000D02*
X148610000Y-112940000D01*
X148610000Y-112940000D02*
X148610000Y-117560000D01*
X148610000Y-117560000D02*
X148395000Y-117560000D01*
X146000000Y-118440000D02*
X145670000Y-118680000D01*
X145670000Y-118200000D01*
X146000000Y-118440000D01*
G36*
X146000000Y-118440000D02*
G01*
X145670000Y-118680000D01*
X145670000Y-118200000D01*
X146000000Y-118440000D01*
G37*
%TO.C,DG3*%
X163965000Y-133800000D02*
X163965000Y-136085000D01*
X163965000Y-136085000D02*
X165435000Y-136085000D01*
X165435000Y-136085000D02*
X165435000Y-133800000D01*
%TO.C,J2*%
X120640000Y-150100000D02*
X121240000Y-150400000D01*
X120640000Y-150700000D02*
X120640000Y-150100000D01*
X121240000Y-150400000D02*
X120640000Y-150700000D01*
X121440000Y-148290000D02*
X122640000Y-148290000D01*
X121440000Y-155310000D02*
X121440000Y-148290000D01*
X122640000Y-146590000D02*
X128320000Y-146590000D01*
X122640000Y-148290000D02*
X122640000Y-146590000D01*
X128320000Y-146590000D02*
X128320000Y-148290000D01*
X128320000Y-148290000D02*
X129520000Y-148290000D01*
X129520000Y-148290000D02*
X129520000Y-155310000D01*
X129520000Y-155310000D02*
X121440000Y-155310000D01*
%TO.C,JP2*%
X164600000Y-109800000D02*
X164600000Y-109200000D01*
X165300000Y-108500000D02*
X166700000Y-108500000D01*
X166700000Y-110500000D02*
X165300000Y-110500000D01*
X167400000Y-109200000D02*
X167400000Y-109800000D01*
X164600000Y-109200000D02*
G75*
G02*
X165300000Y-108500000I699999J1D01*
G01*
X165300000Y-110500000D02*
G75*
G02*
X164600000Y-109800000I-1J699999D01*
G01*
X166700000Y-108500000D02*
G75*
G02*
X167400000Y-109200000I0J-700000D01*
G01*
X167400000Y-109800000D02*
G75*
G02*
X166700000Y-110500000I-700000J0D01*
G01*
%TO.C,RI3*%
X160972936Y-119990000D02*
X162427064Y-119990000D01*
X160972936Y-121810000D02*
X162427064Y-121810000D01*
%TO.C,DG2*%
X147965000Y-133800000D02*
X147965000Y-136085000D01*
X147965000Y-136085000D02*
X149435000Y-136085000D01*
X149435000Y-136085000D02*
X149435000Y-133800000D01*
%TO.C,RU3*%
X162677500Y-109037258D02*
X162677500Y-108562742D01*
X163722500Y-109037258D02*
X163722500Y-108562742D01*
%TO.C,F3*%
X152030000Y-120860000D02*
X152030000Y-137060000D01*
X152030000Y-137060000D02*
X158970000Y-137060000D01*
X153500000Y-130560000D02*
X153500000Y-127360000D01*
X155500000Y-128210000D02*
X155500000Y-129710000D01*
X157500000Y-127360000D02*
X157500000Y-130560000D01*
X158970000Y-120860000D02*
X152030000Y-120860000D01*
X158970000Y-137060000D02*
X158970000Y-120860000D01*
%TO.C,RU4*%
X178677500Y-109037258D02*
X178677500Y-108562742D01*
X179722500Y-109037258D02*
X179722500Y-108562742D01*
%TO.C,DR2*%
X144965000Y-133800000D02*
X144965000Y-136085000D01*
X144965000Y-136085000D02*
X146435000Y-136085000D01*
X146435000Y-136085000D02*
X146435000Y-133800000D01*
%TO.C,OK1*%
X129790000Y-112940000D02*
X130005000Y-112940000D01*
X129790000Y-117560000D02*
X129790000Y-112940000D01*
X130005000Y-117560000D02*
X129790000Y-117560000D01*
X132395000Y-112940000D02*
X132610000Y-112940000D01*
X132610000Y-112940000D02*
X132610000Y-117560000D01*
X132610000Y-117560000D02*
X132395000Y-117560000D01*
X130000000Y-118440000D02*
X129670000Y-118680000D01*
X129670000Y-118200000D01*
X130000000Y-118440000D01*
G36*
X130000000Y-118440000D02*
G01*
X129670000Y-118680000D01*
X129670000Y-118200000D01*
X130000000Y-118440000D01*
G37*
%TO.C,RR1*%
X128790000Y-130727064D02*
X128790000Y-129272936D01*
X130610000Y-130727064D02*
X130610000Y-129272936D01*
%TO.C,DR3*%
X160965000Y-133800000D02*
X160965000Y-136085000D01*
X160965000Y-136085000D02*
X162435000Y-136085000D01*
X162435000Y-136085000D02*
X162435000Y-133800000D01*
%TO.C,F2*%
X136030000Y-120860000D02*
X136030000Y-137060000D01*
X136030000Y-137060000D02*
X142970000Y-137060000D01*
X137500000Y-130560000D02*
X137500000Y-127360000D01*
X139500000Y-128210000D02*
X139500000Y-129710000D01*
X141500000Y-127360000D02*
X141500000Y-130560000D01*
X142970000Y-120860000D02*
X136030000Y-120860000D01*
X142970000Y-137060000D02*
X142970000Y-120860000D01*
%TO.C,RU1*%
X130677500Y-109037258D02*
X130677500Y-108562742D01*
X131722500Y-109037258D02*
X131722500Y-108562742D01*
%TO.C,J1*%
X100540000Y-132540000D02*
X114850000Y-132540000D01*
X100540000Y-148260000D02*
X100540000Y-132540000D01*
X100540000Y-148260000D02*
X114850000Y-148260000D01*
X118960000Y-141690000D02*
X118960000Y-137950000D01*
X114850000Y-132540000D02*
G75*
G02*
X118780413Y-135448352I0J-4110000D01*
G01*
X118372958Y-146266806D02*
G75*
G02*
X114850000Y-148260000I-3522957J2116805D01*
G01*
%TO.C,F1*%
X120030000Y-120860000D02*
X120030000Y-137060000D01*
X120030000Y-137060000D02*
X126970000Y-137060000D01*
X121500000Y-130560000D02*
X121500000Y-127360000D01*
X123500000Y-128210000D02*
X123500000Y-129710000D01*
X125500000Y-127360000D02*
X125500000Y-130560000D01*
X126970000Y-120860000D02*
X120030000Y-120860000D01*
X126970000Y-137060000D02*
X126970000Y-120860000D01*
%TO.C,RP1*%
X133562742Y-120377500D02*
X134037258Y-120377500D01*
X133562742Y-121422500D02*
X134037258Y-121422500D01*
%TO.C,RR4*%
X176790000Y-130727064D02*
X176790000Y-129272936D01*
X178610000Y-130727064D02*
X178610000Y-129272936D01*
%TO.C,RG4*%
X179790000Y-130727064D02*
X179790000Y-129272936D01*
X181610000Y-130727064D02*
X181610000Y-129272936D01*
%TO.C,OK4*%
X177790000Y-112940000D02*
X178005000Y-112940000D01*
X177790000Y-117560000D02*
X177790000Y-112940000D01*
X178005000Y-117560000D02*
X177790000Y-117560000D01*
X180395000Y-112940000D02*
X180610000Y-112940000D01*
X180610000Y-112940000D02*
X180610000Y-117560000D01*
X180610000Y-117560000D02*
X180395000Y-117560000D01*
X178000000Y-118440000D02*
X177670000Y-118680000D01*
X177670000Y-118200000D01*
X178000000Y-118440000D01*
G36*
X178000000Y-118440000D02*
G01*
X177670000Y-118680000D01*
X177670000Y-118200000D01*
X178000000Y-118440000D01*
G37*
%TO.C,RPV*%
X112762742Y-120377500D02*
X113237258Y-120377500D01*
X112762742Y-121422500D02*
X113237258Y-121422500D01*
%TO.C,DR4*%
X176965000Y-133800000D02*
X176965000Y-136085000D01*
X176965000Y-136085000D02*
X178435000Y-136085000D01*
X178435000Y-136085000D02*
X178435000Y-133800000D01*
%TO.C,RA2*%
X170762742Y-108977500D02*
X171237258Y-108977500D01*
X170762742Y-110022500D02*
X171237258Y-110022500D01*
%TO.C,RI1*%
X128972936Y-119990000D02*
X130427064Y-119990000D01*
X128972936Y-121810000D02*
X130427064Y-121810000D01*
%TO.C,RP4*%
X181562742Y-120377500D02*
X182037258Y-120377500D01*
X181562742Y-121422500D02*
X182037258Y-121422500D01*
%TO.C,RP2*%
X149562742Y-120377500D02*
X150037258Y-120377500D01*
X149562742Y-121422500D02*
X150037258Y-121422500D01*
%TO.C,DG4*%
X179965000Y-133800000D02*
X179965000Y-136085000D01*
X179965000Y-136085000D02*
X181435000Y-136085000D01*
X181435000Y-136085000D02*
X181435000Y-133800000D01*
%TO.C,JP1*%
X164600000Y-106300000D02*
X164600000Y-105700000D01*
X165300000Y-105000000D02*
X166700000Y-105000000D01*
X166700000Y-107000000D02*
X165300000Y-107000000D01*
X167400000Y-105700000D02*
X167400000Y-106300000D01*
X164600000Y-105700000D02*
G75*
G02*
X165300000Y-105000000I699999J1D01*
G01*
X165300000Y-107000000D02*
G75*
G02*
X164600000Y-106300000I-1J699999D01*
G01*
X166700000Y-105000000D02*
G75*
G02*
X167400000Y-105700000I0J-700000D01*
G01*
X167400000Y-106300000D02*
G75*
G02*
X166700000Y-107000000I-700000J0D01*
G01*
%TO.C,RR2*%
X144790000Y-130727064D02*
X144790000Y-129272936D01*
X146610000Y-130727064D02*
X146610000Y-129272936D01*
%TO.C,RP3*%
X165562742Y-120377500D02*
X166037258Y-120377500D01*
X165562742Y-121422500D02*
X166037258Y-121422500D01*
%TO.C,U1*%
X133690000Y-103765000D02*
X138310000Y-103765000D01*
X138310000Y-109235000D02*
X133690000Y-109235000D01*
X132140000Y-104220000D02*
X131810000Y-104460000D01*
X131810000Y-103980000D01*
X132140000Y-104220000D01*
G36*
X132140000Y-104220000D02*
G01*
X131810000Y-104460000D01*
X131810000Y-103980000D01*
X132140000Y-104220000D01*
G37*
%TO.C,F4*%
X168030000Y-120860000D02*
X168030000Y-137060000D01*
X168030000Y-137060000D02*
X174970000Y-137060000D01*
X169500000Y-130560000D02*
X169500000Y-127360000D01*
X171500000Y-128210000D02*
X171500000Y-129710000D01*
X173500000Y-127360000D02*
X173500000Y-130560000D01*
X174970000Y-120860000D02*
X168030000Y-120860000D01*
X174970000Y-137060000D02*
X174970000Y-120860000D01*
%TO.C,J4*%
X152640000Y-150100000D02*
X153240000Y-150400000D01*
X152640000Y-150700000D02*
X152640000Y-150100000D01*
X153240000Y-150400000D02*
X152640000Y-150700000D01*
X153440000Y-148290000D02*
X154640000Y-148290000D01*
X153440000Y-155310000D02*
X153440000Y-148290000D01*
X154640000Y-146590000D02*
X160320000Y-146590000D01*
X154640000Y-148290000D02*
X154640000Y-146590000D01*
X160320000Y-146590000D02*
X160320000Y-148290000D01*
X160320000Y-148290000D02*
X161520000Y-148290000D01*
X161520000Y-148290000D02*
X161520000Y-155310000D01*
X161520000Y-155310000D02*
X153440000Y-155310000D01*
%TO.C,RR3*%
X160790000Y-130727064D02*
X160790000Y-129272936D01*
X162610000Y-130727064D02*
X162610000Y-129272936D01*
%TO.C,J6*%
X110890000Y-102885000D02*
X110890000Y-105385000D01*
X110890000Y-105385000D02*
X111940000Y-105385000D01*
X115940000Y-100915000D02*
X112060000Y-100915000D01*
X116060000Y-105385000D02*
X116060000Y-106375000D01*
X117110000Y-102885000D02*
X117110000Y-105385000D01*
X117110000Y-105385000D02*
X116060000Y-105385000D01*
%TO.C,RU2*%
X146677500Y-109037258D02*
X146677500Y-108562742D01*
X147722500Y-109037258D02*
X147722500Y-108562742D01*
%TO.C,RG1*%
X131790000Y-130727064D02*
X131790000Y-129272936D01*
X133610000Y-130727064D02*
X133610000Y-129272936D01*
%TO.C,RIV*%
X107772936Y-119990000D02*
X109227064Y-119990000D01*
X107772936Y-121810000D02*
X109227064Y-121810000D01*
%TO.C,OKV*%
X108590000Y-112940000D02*
X108805000Y-112940000D01*
X108590000Y-117560000D02*
X108590000Y-112940000D01*
X108805000Y-117560000D02*
X108590000Y-117560000D01*
X111195000Y-112940000D02*
X111410000Y-112940000D01*
X111410000Y-112940000D02*
X111410000Y-117560000D01*
X111410000Y-117560000D02*
X111195000Y-117560000D01*
X108800000Y-118440000D02*
X108470000Y-118680000D01*
X108470000Y-118200000D01*
X108800000Y-118440000D01*
G36*
X108800000Y-118440000D02*
G01*
X108470000Y-118680000D01*
X108470000Y-118200000D01*
X108800000Y-118440000D01*
G37*
%TO.C,RI4*%
X176972936Y-119990000D02*
X178427064Y-119990000D01*
X176972936Y-121810000D02*
X178427064Y-121810000D01*
%TD*%
%LPC*%
%TO.C,JP2*%
G36*
X165850000Y-108750000D02*
G01*
X166150000Y-108750000D01*
X166150000Y-110250000D01*
X165850000Y-110250000D01*
X165850000Y-108750000D01*
G37*
%TO.C,JP1*%
G36*
X165850000Y-105250000D02*
G01*
X166150000Y-105250000D01*
X166150000Y-106750000D01*
X165850000Y-106750000D01*
X165850000Y-105250000D01*
G37*
%TD*%
D13*
%TO.C,RF*%
X144000000Y-104825000D03*
X144000000Y-103175000D03*
%TD*%
D14*
%TO.C,H2*%
X184500000Y-139500000D03*
%TD*%
D15*
%TO.C,OK3*%
X162565000Y-118437500D03*
X163835000Y-118437500D03*
X163835000Y-112062500D03*
X162565000Y-112062500D03*
%TD*%
D14*
%TO.C,H3*%
X184500000Y-152500000D03*
%TD*%
D16*
%TO.C,RI2*%
X144237500Y-120900000D03*
X147162500Y-120900000D03*
%TD*%
D17*
%TO.C,RG2*%
X148700000Y-131462500D03*
X148700000Y-128537500D03*
%TD*%
D18*
%TO.C,J3*%
X139500000Y-150400000D03*
D19*
X143460000Y-150400000D03*
%TD*%
D20*
%TO.C,C1*%
X135225000Y-111000000D03*
X136775000Y-111000000D03*
%TD*%
D21*
%TO.C,DG1*%
X132700000Y-135387500D03*
X132700000Y-133812500D03*
%TD*%
D17*
%TO.C,RG3*%
X164700000Y-131462500D03*
X164700000Y-128537500D03*
%TD*%
D21*
%TO.C,DR1*%
X129700000Y-135387500D03*
X129700000Y-133812500D03*
%TD*%
D13*
%TO.C,RUV*%
X110000000Y-109625000D03*
X110000000Y-107975000D03*
%TD*%
D22*
%TO.C,J7*%
X159500000Y-105600000D03*
X158500000Y-105600000D03*
X157500000Y-105600000D03*
X156500000Y-105600000D03*
D23*
X160800000Y-101725000D03*
X155200000Y-101725000D03*
%TD*%
D24*
%TO.C,RA1*%
X170175000Y-106000000D03*
X171825000Y-106000000D03*
%TD*%
D18*
%TO.C,J5*%
X171500000Y-150400000D03*
D19*
X175460000Y-150400000D03*
%TD*%
D15*
%TO.C,OK2*%
X146565000Y-118437500D03*
X147835000Y-118437500D03*
X147835000Y-112062500D03*
X146565000Y-112062500D03*
%TD*%
D21*
%TO.C,DG3*%
X164700000Y-135387500D03*
X164700000Y-133812500D03*
%TD*%
D18*
%TO.C,J2*%
X123500000Y-150400000D03*
D19*
X127460000Y-150400000D03*
%TD*%
D25*
%TO.C,JP2*%
X165350000Y-109500000D03*
D26*
X166650000Y-109500000D03*
%TD*%
D16*
%TO.C,RI3*%
X160237500Y-120900000D03*
X163162500Y-120900000D03*
%TD*%
D21*
%TO.C,DG2*%
X148700000Y-135387500D03*
X148700000Y-133812500D03*
%TD*%
D13*
%TO.C,RU3*%
X163200000Y-109625000D03*
X163200000Y-107975000D03*
%TD*%
D27*
%TO.C,F3*%
X157200000Y-124000000D03*
X153800000Y-124000000D03*
X157200000Y-133920000D03*
X153800000Y-133920000D03*
%TD*%
D13*
%TO.C,RU4*%
X179200000Y-109625000D03*
X179200000Y-107975000D03*
%TD*%
D14*
%TO.C,H1*%
X103500000Y-103500000D03*
%TD*%
D21*
%TO.C,DR2*%
X145700000Y-135387500D03*
X145700000Y-133812500D03*
%TD*%
D15*
%TO.C,OK1*%
X130565000Y-118437500D03*
X131835000Y-118437500D03*
X131835000Y-112062500D03*
X130565000Y-112062500D03*
%TD*%
D17*
%TO.C,RR1*%
X129700000Y-131462500D03*
X129700000Y-128537500D03*
%TD*%
D21*
%TO.C,DR3*%
X161700000Y-135387500D03*
X161700000Y-133812500D03*
%TD*%
D27*
%TO.C,F2*%
X141200000Y-124000000D03*
X137800000Y-124000000D03*
X141200000Y-133920000D03*
X137800000Y-133920000D03*
%TD*%
D13*
%TO.C,RU1*%
X131200000Y-109625000D03*
X131200000Y-107975000D03*
%TD*%
D28*
%TO.C,J1*%
X111000000Y-147150000D03*
X111000000Y-133650000D03*
D29*
X117000000Y-144000000D03*
D30*
X117000000Y-136800000D03*
%TD*%
D27*
%TO.C,F1*%
X125200000Y-124000000D03*
X121800000Y-124000000D03*
X125200000Y-133920000D03*
X121800000Y-133920000D03*
%TD*%
D24*
%TO.C,RP1*%
X132975000Y-120900000D03*
X134625000Y-120900000D03*
%TD*%
D17*
%TO.C,RR4*%
X177700000Y-131462500D03*
X177700000Y-128537500D03*
%TD*%
%TO.C,RG4*%
X180700000Y-131462500D03*
X180700000Y-128537500D03*
%TD*%
D15*
%TO.C,OK4*%
X178565000Y-118437500D03*
X179835000Y-118437500D03*
X179835000Y-112062500D03*
X178565000Y-112062500D03*
%TD*%
D24*
%TO.C,RPV*%
X112175000Y-120900000D03*
X113825000Y-120900000D03*
%TD*%
D21*
%TO.C,DR4*%
X177700000Y-135387500D03*
X177700000Y-133812500D03*
%TD*%
D24*
%TO.C,RA2*%
X170175000Y-109500000D03*
X171825000Y-109500000D03*
%TD*%
D16*
%TO.C,RI1*%
X128237500Y-120900000D03*
X131162500Y-120900000D03*
%TD*%
D24*
%TO.C,RP4*%
X180975000Y-120900000D03*
X182625000Y-120900000D03*
%TD*%
%TO.C,RP2*%
X148975000Y-120900000D03*
X150625000Y-120900000D03*
%TD*%
D21*
%TO.C,DG4*%
X180700000Y-135387500D03*
X180700000Y-133812500D03*
%TD*%
D25*
%TO.C,JP1*%
X165350000Y-106000000D03*
D26*
X166650000Y-106000000D03*
%TD*%
D17*
%TO.C,RR2*%
X145700000Y-131462500D03*
X145700000Y-128537500D03*
%TD*%
D24*
%TO.C,RP3*%
X164975000Y-120900000D03*
X166625000Y-120900000D03*
%TD*%
D31*
%TO.C,U1*%
X133137500Y-104225000D03*
X133137500Y-104875000D03*
X133137500Y-105525000D03*
X133137500Y-106175000D03*
X133137500Y-106825000D03*
X133137500Y-107475000D03*
X133137500Y-108125000D03*
X133137500Y-108775000D03*
X138862500Y-108775000D03*
X138862500Y-108125000D03*
X138862500Y-107475000D03*
X138862500Y-106825000D03*
X138862500Y-106175000D03*
X138862500Y-105525000D03*
X138862500Y-104875000D03*
X138862500Y-104225000D03*
%TD*%
D27*
%TO.C,F4*%
X173200000Y-124000000D03*
X169800000Y-124000000D03*
X173200000Y-133920000D03*
X169800000Y-133920000D03*
%TD*%
D18*
%TO.C,J4*%
X155500000Y-150400000D03*
D19*
X159460000Y-150400000D03*
%TD*%
D17*
%TO.C,RR3*%
X161700000Y-131462500D03*
X161700000Y-128537500D03*
%TD*%
D22*
%TO.C,J6*%
X115500000Y-105600000D03*
X114500000Y-105600000D03*
X113500000Y-105600000D03*
X112500000Y-105600000D03*
D23*
X116800000Y-101725000D03*
X111200000Y-101725000D03*
%TD*%
D13*
%TO.C,RU2*%
X147200000Y-109625000D03*
X147200000Y-107975000D03*
%TD*%
D17*
%TO.C,RG1*%
X132700000Y-131462500D03*
X132700000Y-128537500D03*
%TD*%
D16*
%TO.C,RIV*%
X107037500Y-120900000D03*
X109962500Y-120900000D03*
%TD*%
D15*
%TO.C,OKV*%
X109365000Y-118437500D03*
X110635000Y-118437500D03*
X110635000Y-112062500D03*
X109365000Y-112062500D03*
%TD*%
D16*
%TO.C,RI4*%
X176237500Y-120900000D03*
X179162500Y-120900000D03*
%TD*%
%LPD*%
M02*
