M48
; DRILL file {KiCad 9.0.9} date 2026-10-06T22:22:32+0000
; FORMAT={-:-/ absolute / metric / decimal}
; #@! TF.CreationDate,2026-10-06T22:22:32+00:00
; #@! TF.GenerationSoftware,Kicad,Pcbnew,9.0.9
; #@! TF.FileFunction,Plated,1,2,PTH
FMAT,2
METRIC
; #@! TA.AperFunction,Plated,PTH,ViaDrill
T1C0.300
; #@! TA.AperFunction,Plated,PTH,ComponentDrill
T2C0.600
; #@! TA.AperFunction,Plated,PTH,ComponentDrill
T3C1.700
; #@! TA.AperFunction,Plated,PTH,ComponentDrill
T4C1.780
; #@! TA.AperFunction,Plated,PTH,ComponentDrill
T5C2.700
%
G90
G05
T1
X100.751Y-102.251
X100.751Y-117.7
X100.751Y-143.605
X102.0Y-107.0
X102.0Y-112.0
X102.0Y-122.0
X102.0Y-127.0
X102.0Y-132.0
X102.0Y-142.0
X107.0Y-107.0
X107.0Y-112.0
X107.0Y-127.0
X107.0Y-132.0
X107.0Y-142.0
X111.449Y-112.566
X111.671Y-105.6
X111.95Y-117.7
X112.0Y-127.0
X112.0Y-142.0
X112.936Y-101.001
X113.5Y-104.294
X114.712Y-120.013
X115.348Y-101.725
X117.0Y-112.0
X117.0Y-147.0
X122.0Y-102.0
X122.0Y-112.0
X122.0Y-127.0
X122.0Y-137.0
X127.0Y-102.0
X127.0Y-112.0
X127.0Y-132.0
X127.0Y-142.0
X127.0Y-147.0
X127.05Y-120.9
X129.713Y-110.39
X130.228Y-107.455
X130.796Y-130.367
X131.812Y-136.276
X131.885Y-106.645
X132.0Y-102.0
X132.0Y-142.0
X132.0Y-147.0
X132.312Y-109.818
X133.173Y-117.7
X133.271Y-111.409
X133.333Y-110.405
X134.388Y-107.599
X134.4Y-103.793
X135.488Y-106.299
X135.501Y-111.985
X135.512Y-120.013
X135.877Y-121.771
X135.983Y-108.279
X137.0Y-127.0
X137.0Y-137.0
X137.0Y-142.0
X137.0Y-147.0
X137.591Y-108.651
X140.103Y-104.262
X140.485Y-105.034
X142.0Y-147.0
X142.782Y-105.525
X143.025Y-120.9
X144.714Y-105.6
X146.796Y-130.367
X147.0Y-137.0
X147.0Y-142.0
X147.0Y-147.0
X148.668Y-112.566
X149.083Y-118.878
X149.173Y-117.7
X149.536Y-136.223
X150.496Y-110.38
X151.877Y-121.771
X152.0Y-112.0
X152.0Y-127.0
X152.0Y-132.0
X152.0Y-137.0
X152.0Y-142.0
X152.0Y-147.0
X156.936Y-101.001
X157.0Y-112.0
X157.5Y-104.309
X158.766Y-103.543
X159.05Y-120.9
X160.183Y-130.929
X161.739Y-112.062
X162.0Y-137.0
X162.0Y-142.0
X162.0Y-147.0
X163.836Y-106.964
X163.889Y-130.087
X164.22Y-107.975
X164.723Y-111.234
X165.271Y-112.195
X165.554Y-136.242
X166.65Y-104.742
X167.0Y-102.0
X167.0Y-127.0
X167.0Y-132.0
X167.0Y-137.0
X167.0Y-142.0
X167.0Y-147.0
X167.512Y-120.17
X172.0Y-102.0
X172.0Y-127.0
X172.0Y-132.0
X172.747Y-106.108
X176.238Y-122.446
X177.0Y-102.0
X177.0Y-107.0
X177.0Y-127.0
X177.0Y-137.0
X177.0Y-142.0
X177.0Y-147.0
X178.823Y-130.339
X179.864Y-136.223
X180.644Y-112.566
X182.0Y-102.0
X182.0Y-107.0
X182.0Y-112.0
X182.0Y-127.0
X182.0Y-137.0
X182.0Y-142.0
X182.0Y-147.0
X182.625Y-122.034
T3
X123.5Y-150.4
X127.46Y-150.4
X139.5Y-150.4
X143.46Y-150.4
X155.5Y-150.4
X159.46Y-150.4
X171.5Y-150.4
X175.46Y-150.4
T4
X121.8Y-124.0
X121.8Y-133.92
X125.2Y-124.0
X125.2Y-133.92
X137.8Y-124.0
X137.8Y-133.92
X141.2Y-124.0
X141.2Y-133.92
X153.8Y-124.0
X153.8Y-133.92
X157.2Y-124.0
X157.2Y-133.92
X169.8Y-124.0
X169.8Y-133.92
X173.2Y-124.0
X173.2Y-133.92
T5
X117.0Y-136.8
X117.0Y-144.0
T2
X110.45Y-133.65G85X111.55Y-133.65
G05
X110.45Y-147.15G85X111.55Y-147.15
G05
M30
