%TF.GenerationSoftware,KiCad,Pcbnew,9.0.9*%
%TF.CreationDate,2026-10-01T05:57:00+00:00*%
%TF.ProjectId,AP02,41503032-2e6b-4696-9361-645f70636258,rev?*%
%TF.SameCoordinates,Original*%
%TF.FileFunction,Copper,L2,Bot*%
%TF.FilePolarity,Positive*%
%FSLAX46Y46*%
G04 Gerber Fmt 4.6, Leading zero omitted, Abs format (unit mm)*
G04 Created by KiCad (PCBNEW 9.0.9) date 2026-10-01 05:57:00*
%MOMM*%
%LPD*%
G01*
G04 APERTURE LIST*
G04 Aperture macros list*
%AMRoundRect*
0 Rectangle with rounded corners*
0 $1 Rounding radius*
0 $2 $3 $4 $5 $6 $7 $8 $9 X,Y pos of 4 corners*
0 Add a 4 corners polygon primitive as box body*
4,1,4,$2,$3,$4,$5,$6,$7,$8,$9,$2,$3,0*
0 Add four circle primitives for the rounded corners*
1,1,$1+$1,$2,$3*
1,1,$1+$1,$4,$5*
1,1,$1+$1,$6,$7*
1,1,$1+$1,$8,$9*
0 Add four rect primitives between the rounded corners*
20,1,$1+$1,$2,$3,$4,$5,0*
20,1,$1+$1,$4,$5,$6,$7,0*
20,1,$1+$1,$6,$7,$8,$9,0*
20,1,$1+$1,$8,$9,$2,$3,0*%
G04 Aperture macros list end*
%TA.AperFunction,ComponentPad*%
%ADD10RoundRect,0.250000X-1.050000X-1.050000X1.050000X-1.050000X1.050000X1.050000X-1.050000X1.050000X0*%
%TD*%
%TA.AperFunction,ComponentPad*%
%ADD11C,2.600000*%
%TD*%
%TA.AperFunction,ComponentPad*%
%ADD12R,1.700000X1.700000*%
%TD*%
%TA.AperFunction,ComponentPad*%
%ADD13C,1.700000*%
%TD*%
%TA.AperFunction,ComponentPad*%
%ADD14C,3.000000*%
%TD*%
%TA.AperFunction,ComponentPad*%
%ADD15C,2.500000*%
%TD*%
%TA.AperFunction,HeatsinkPad*%
%ADD16O,2.100000X1.000000*%
%TD*%
%TA.AperFunction,HeatsinkPad*%
%ADD17O,1.600000X1.000000*%
%TD*%
%TA.AperFunction,ComponentPad*%
%ADD18C,3.500000*%
%TD*%
%TA.AperFunction,HeatsinkPad*%
%ADD19C,0.600000*%
%TD*%
%TA.AperFunction,ViaPad*%
%ADD20C,0.600000*%
%TD*%
%TA.AperFunction,ViaPad*%
%ADD21C,0.800000*%
%TD*%
%TA.AperFunction,Conductor*%
%ADD22C,0.300000*%
%TD*%
%TA.AperFunction,Conductor*%
%ADD23C,0.600000*%
%TD*%
%TA.AperFunction,Conductor*%
%ADD24C,0.250000*%
%TD*%
G04 APERTURE END LIST*
D10*
%TO.P,J4,1*%
%TO.N,/CH1*%
X136000000Y-163500000D03*
D11*
%TO.P,J4,2*%
%TO.N,/CH2*%
X141080000Y-163500000D03*
%TO.P,J4,3*%
%TO.N,/CH3*%
X146160000Y-163500000D03*
%TO.P,J4,4*%
%TO.N,/CH4*%
X151240000Y-163500000D03*
%TD*%
D12*
%TO.P,J6,1*%
%TO.N,/3V3*%
X187000000Y-109200000D03*
D13*
%TO.P,J6,2*%
%TO.N,/GND*%
X187000000Y-111740000D03*
%TO.P,J6,3*%
%TO.N,/SDA*%
X187000000Y-114280000D03*
%TO.P,J6,4*%
%TO.N,/SCL*%
X187000000Y-116820000D03*
%TO.P,J6,5*%
%TO.N,/IR*%
X187000000Y-119360000D03*
%TO.P,J6,6*%
%TO.N,/LDR*%
X187000000Y-121900000D03*
%TO.P,J6,7*%
%TO.N,/BOOT*%
X187000000Y-124440000D03*
%TD*%
D14*
%TO.P,K1,1*%
%TO.N,/COM*%
X168000000Y-147000000D03*
D15*
%TO.P,K1,2*%
%TO.N,/RLYD*%
X169950000Y-153050000D03*
D14*
%TO.P,K1,3*%
%TO.N,/NO*%
X182150000Y-153050000D03*
%TO.P,K1,4*%
%TO.N,unconnected-(K1-Pad4)*%
X182200000Y-141000000D03*
D15*
%TO.P,K1,5*%
%TO.N,/V12G*%
X169950000Y-141050000D03*
%TD*%
D16*
%TO.P,J2,S1*%
%TO.N,/GND*%
X181870000Y-136820000D03*
D17*
X186050000Y-136820000D03*
D16*
X181870000Y-128180000D03*
D17*
X186050000Y-128180000D03*
%TD*%
D18*
%TO.P,F1,1*%
%TO.N,/VIN_RAW*%
X117500000Y-150000000D03*
%TO.P,F1,2*%
%TO.N,/VFUS*%
X117500000Y-140800000D03*
%TD*%
D19*
%TO.P,U5,19*%
%TO.N,/GND*%
X167860000Y-119150000D03*
X167860000Y-120250000D03*
X168410000Y-118600000D03*
X168410000Y-119700000D03*
X168410000Y-120800000D03*
X168960000Y-119150000D03*
X168960000Y-120250000D03*
X169510000Y-118600000D03*
X169510000Y-119700000D03*
X169510000Y-120800000D03*
X170060000Y-119150000D03*
X170060000Y-120250000D03*
%TD*%
D10*
%TO.P,J5,1*%
%TO.N,/COM*%
X177000000Y-163500000D03*
D11*
%TO.P,J5,2*%
%TO.N,/NO*%
X182080000Y-163500000D03*
%TD*%
D10*
%TO.P,J1,1*%
%TO.N,/VIN_RAW*%
X117500000Y-163500000D03*
D11*
%TO.P,J1,2*%
%TO.N,/GNDIN*%
X122580000Y-163500000D03*
%TD*%
D10*
%TO.P,J3,1*%
%TO.N,/VIN*%
X105000000Y-163500000D03*
D11*
%TO.P,J3,2*%
X110080000Y-163500000D03*
%TD*%
D20*
%TO.N,/ISN*%
X107470000Y-143200000D03*
X101500000Y-137650000D03*
%TO.N,/ISP*%
X111600000Y-138300000D03*
X102900000Y-138300000D03*
%TO.N,/GND*%
X183422000Y-128180000D03*
D21*
X134200000Y-146200000D03*
X120900000Y-145400000D03*
X109500000Y-137200000D03*
X120900000Y-151200000D03*
X107975000Y-152600000D03*
X149400000Y-146200000D03*
X140000000Y-146200000D03*
X120900000Y-152400000D03*
D20*
X130309000Y-118750000D03*
D21*
X102300000Y-135800000D03*
D20*
X118813000Y-115988000D03*
D21*
X120900000Y-146600000D03*
X148200000Y-146200000D03*
X149400000Y-145100000D03*
X140000000Y-145100000D03*
X120900000Y-153600000D03*
D20*
X121355000Y-122000000D03*
D21*
X135400000Y-145100000D03*
D20*
X104600000Y-128753000D03*
D21*
X141200000Y-146200000D03*
D20*
X120882000Y-132600000D03*
D21*
X142400000Y-145100000D03*
D20*
X152450000Y-106768000D03*
D21*
X148200000Y-145100000D03*
X155200000Y-145100000D03*
X155200000Y-146200000D03*
D20*
X157447000Y-132788000D03*
D21*
X121950000Y-144200000D03*
D20*
X111497000Y-113062000D03*
D21*
X121950000Y-151200000D03*
X121950000Y-146600000D03*
X121950000Y-145400000D03*
D20*
X149495000Y-109050000D03*
D21*
X121950000Y-153600000D03*
X141200000Y-145100000D03*
D20*
X162459000Y-121838000D03*
D21*
X142400000Y-146200000D03*
X156400000Y-146200000D03*
D20*
X118434000Y-107459000D03*
D21*
X105700000Y-133500000D03*
X156400000Y-145100000D03*
D20*
X151520000Y-111255000D03*
X156639000Y-127562000D03*
D21*
X120900000Y-144200000D03*
X147000000Y-146200000D03*
D20*
X133145000Y-109060000D03*
D21*
X121950000Y-152400000D03*
X133000000Y-146200000D03*
X134200000Y-145100000D03*
D20*
X162459000Y-125500000D03*
D21*
X147000000Y-145100000D03*
D20*
X117245000Y-143448000D03*
D21*
X154000000Y-145100000D03*
D20*
X153100000Y-116325000D03*
D21*
X133000000Y-145100000D03*
X154000000Y-146200000D03*
X135400000Y-146200000D03*
D20*
%TO.N,/ALERT*%
X145744000Y-130612000D03*
X145110000Y-138000000D03*
X110288000Y-136440000D03*
%TO.N,/SDA*%
X111576000Y-135941000D03*
X160518000Y-116447000D03*
X141309000Y-138320000D03*
%TO.N,/SCL*%
X175480000Y-117074000D03*
X143365000Y-137989000D03*
X153084000Y-121259000D03*
X112235000Y-135300000D03*
%TO.N,/3V3*%
X175498000Y-113417000D03*
%TO.N,/VLOG*%
X139878000Y-121549000D03*
X127566000Y-117146000D03*
%TO.N,/V12G*%
X163500000Y-138300000D03*
X145828000Y-137423000D03*
X149399000Y-131674000D03*
X158723000Y-152719000D03*
X154542000Y-131456000D03*
%TO.N,/VBUS*%
X179728000Y-130050000D03*
X149410000Y-116000000D03*
X179728000Y-134900000D03*
X178934000Y-123813000D03*
%TO.N,/SW1*%
X125312000Y-114485000D03*
X129569000Y-110228000D03*
%TO.N,/BST2*%
X122037000Y-120225000D03*
X123225000Y-126514000D03*
%TO.N,/FB2*%
X126787000Y-120369000D03*
X126631000Y-118354000D03*
%TO.N,/PWM1*%
X135800000Y-135721000D03*
X156466000Y-116678000D03*
%TO.N,/PWM2*%
X136663000Y-138261000D03*
X157325000Y-118659000D03*
%TO.N,/GO1*%
X140978000Y-136294000D03*
X135534000Y-141738000D03*
%TO.N,/PWM3*%
X157985000Y-119773000D03*
X150453000Y-135721000D03*
%TO.N,/PWM4*%
X150607000Y-138261000D03*
X157971000Y-121000000D03*
%TO.N,/GO3*%
X150984000Y-136991000D03*
X145814000Y-142162000D03*
%TO.N,/RLYG*%
X169025000Y-139250000D03*
X172526000Y-115288000D03*
%TO.N,/EN*%
X156641000Y-115725000D03*
X166027000Y-128159000D03*
X156600000Y-125043000D03*
%TO.N,/BOOT*%
X173998000Y-124725000D03*
%TO.N,/LED*%
X175031000Y-126655000D03*
X157101000Y-135754000D03*
%TO.N,/TXD*%
X161307000Y-122500000D03*
X155714000Y-122614000D03*
%TO.N,/USB_DN*%
X178924000Y-133250000D03*
X176592000Y-127606000D03*
%TO.N,/USB_DP*%
X173361000Y-119500000D03*
X177868000Y-131300000D03*
%TO.N,/IR*%
X180789000Y-117275000D03*
%TO.N,/LDR*%
X178031000Y-114171000D03*
%TO.N,/CC1*%
X179757000Y-137896000D03*
X182190000Y-133725000D03*
%TO.N,/CC2*%
X182207000Y-130775000D03*
X172919000Y-136744000D03*
%TD*%
D22*
%TO.N,/ISN*%
X101500000Y-143200000D02*
X107470000Y-143200000D01*
X101500000Y-137650000D02*
X101500000Y-143200000D01*
%TO.N,/ISP*%
X111600000Y-138300000D02*
X102900000Y-138300000D01*
D23*
%TO.N,/GND*%
X121355000Y-122000000D02*
X118813000Y-119458000D01*
X104600000Y-133500000D02*
X102300000Y-135800000D01*
X186050000Y-136820000D02*
X186050000Y-130808000D01*
X105700000Y-133500000D02*
X104600000Y-133500000D01*
X186050000Y-128180000D02*
X187352000Y-128180000D01*
X118434000Y-113062000D02*
X118434000Y-107459000D01*
X167860000Y-120250000D02*
X168410000Y-120250000D01*
X188352000Y-127180000D02*
X188352000Y-113092000D01*
X133145000Y-115914000D02*
X133145000Y-109060000D01*
X168410000Y-118600000D02*
X168410000Y-119150000D01*
X118434000Y-113062000D02*
X111497000Y-113062000D01*
X118813000Y-115988000D02*
X118434000Y-115608000D01*
X151520000Y-111255000D02*
X152450000Y-110325000D01*
X162459000Y-121838000D02*
X162459000Y-125500000D01*
X151520000Y-111255000D02*
X151520000Y-111075000D01*
X168410000Y-119150000D02*
X168410000Y-119700000D01*
X121355000Y-122000000D02*
X120882000Y-122474000D01*
X181870000Y-128180000D02*
X183422000Y-128180000D01*
X118813000Y-119458000D02*
X118813000Y-115988000D01*
X120882000Y-122474000D02*
X120882000Y-132600000D01*
X168410000Y-119700000D02*
X168410000Y-120250000D01*
X151520000Y-111075000D02*
X149495000Y-109050000D01*
X107975000Y-152600000D02*
X117127000Y-143448000D01*
X153100000Y-116325000D02*
X151520000Y-114745000D01*
X168410000Y-119150000D02*
X168960000Y-119150000D01*
X152450000Y-110325000D02*
X152450000Y-106768000D01*
X187352000Y-128180000D02*
X188352000Y-127180000D01*
X157447000Y-132788000D02*
X156639000Y-131980000D01*
X188352000Y-113092000D02*
X187000000Y-111740000D01*
X104600000Y-133500000D02*
X104600000Y-128753000D01*
X117127000Y-143448000D02*
X117245000Y-143448000D01*
X118434000Y-115608000D02*
X118434000Y-113062000D01*
X186050000Y-130808000D02*
X183422000Y-128180000D01*
X168410000Y-120250000D02*
X168410000Y-120800000D01*
X156639000Y-131980000D02*
X156639000Y-127562000D01*
X151520000Y-114745000D02*
X151520000Y-111255000D01*
X130309000Y-118750000D02*
X133145000Y-115914000D01*
X167860000Y-119150000D02*
X168410000Y-119150000D01*
D24*
%TO.N,/ALERT*%
X145744000Y-130612000D02*
X145110000Y-131246000D01*
X145110000Y-131246000D02*
X145110000Y-138000000D01*
X111445000Y-137596000D02*
X121627000Y-137596000D01*
X121627000Y-137596000D02*
X127348000Y-143317000D01*
X139794000Y-143317000D02*
X145110000Y-138000000D01*
X110288000Y-136440000D02*
X111445000Y-137596000D01*
X127348000Y-143317000D02*
X139794000Y-143317000D01*
%TO.N,/SDA*%
X111963000Y-134628000D02*
X111576000Y-135015000D01*
X134880000Y-138527000D02*
X130980000Y-134628000D01*
X154604000Y-119592000D02*
X154991000Y-119205000D01*
X153814000Y-119592000D02*
X154604000Y-119592000D01*
X154991000Y-119205000D02*
X155138000Y-119205000D01*
X130980000Y-134628000D02*
X111963000Y-134628000D01*
X134880000Y-138527000D02*
X153814000Y-119592000D01*
X157896000Y-116447000D02*
X160518000Y-116447000D01*
X141309000Y-138320000D02*
X137264000Y-142365000D01*
X137264000Y-142365000D02*
X135252000Y-142365000D01*
X111576000Y-135015000D02*
X111576000Y-135941000D01*
X134880000Y-141992000D02*
X134880000Y-138527000D01*
X155138000Y-119205000D02*
X157896000Y-116447000D01*
X135252000Y-142365000D02*
X134880000Y-141992000D01*
%TO.N,/SCL*%
X157585000Y-119286000D02*
X157066000Y-119286000D01*
X143365000Y-132095000D02*
X143365000Y-137989000D01*
X157621000Y-118033000D02*
X157952000Y-118364000D01*
X157020000Y-119240000D02*
X155313000Y-120947000D01*
X187000000Y-116820000D02*
X186824000Y-116644000D01*
X155326000Y-119657000D02*
X156950000Y-118033000D01*
X186824000Y-116644000D02*
X175910000Y-116644000D01*
X155178000Y-119657000D02*
X155326000Y-119657000D01*
X154791000Y-120044000D02*
X155178000Y-119657000D01*
X120073000Y-135300000D02*
X112235000Y-135300000D01*
X155163000Y-120947000D02*
X146761000Y-129349000D01*
X154300000Y-120044000D02*
X154791000Y-120044000D01*
X157952000Y-118364000D02*
X157952000Y-118919000D01*
X146111000Y-129349000D02*
X143365000Y-132095000D01*
X138538000Y-142816000D02*
X127590000Y-142816000D01*
X156950000Y-118033000D02*
X157621000Y-118033000D01*
X146761000Y-129349000D02*
X146111000Y-129349000D01*
X153084000Y-121259000D02*
X154300000Y-120044000D01*
X157066000Y-119286000D02*
X157020000Y-119240000D01*
X143365000Y-137989000D02*
X138538000Y-142816000D01*
X127590000Y-142816000D02*
X120073000Y-135300000D01*
X157952000Y-118919000D02*
X157585000Y-119286000D01*
X155313000Y-120947000D02*
X155163000Y-120947000D01*
X175910000Y-116644000D02*
X175480000Y-117074000D01*
D23*
%TO.N,/3V3*%
X175546000Y-113369000D02*
X175498000Y-113417000D01*
X185648000Y-109200000D02*
X185648000Y-109538000D01*
X181817000Y-113369000D02*
X175546000Y-113369000D01*
X185648000Y-109538000D02*
X181817000Y-113369000D01*
X187000000Y-109200000D02*
X185648000Y-109200000D01*
%TO.N,/VLOG*%
X139878000Y-121549000D02*
X131969000Y-121549000D01*
X131969000Y-121549000D02*
X127566000Y-117146000D01*
%TO.N,/V12G*%
X154542000Y-134362000D02*
X154542000Y-131456000D01*
X160990000Y-140810000D02*
X154542000Y-134362000D01*
X163500000Y-138300000D02*
X160990000Y-140810000D01*
X149399000Y-131674000D02*
X145828000Y-135246000D01*
X145828000Y-135246000D02*
X145828000Y-137423000D01*
X160990000Y-140810000D02*
X158723000Y-143077000D01*
X158723000Y-143077000D02*
X158723000Y-152719000D01*
%TO.N,/VBUS*%
X179728000Y-134900000D02*
X179728000Y-130050000D01*
X149410000Y-116000000D02*
X150578000Y-117169000D01*
X153467000Y-117169000D02*
X156152000Y-114484000D01*
X172867000Y-114484000D02*
X173339000Y-114957000D01*
X150578000Y-117169000D02*
X153467000Y-117169000D01*
X156152000Y-114484000D02*
X172867000Y-114484000D01*
X173339000Y-114957000D02*
X173339000Y-118219000D01*
X173339000Y-118219000D02*
X178934000Y-123813000D01*
%TO.N,/SW1*%
X125312000Y-114485000D02*
X129569000Y-110228000D01*
D24*
%TO.N,/BST2*%
X123225000Y-126514000D02*
X123225000Y-121412000D01*
X123225000Y-121412000D02*
X122037000Y-120225000D01*
%TO.N,/FB2*%
X126787000Y-120369000D02*
X126631000Y-120213000D01*
X126631000Y-120213000D02*
X126631000Y-118354000D01*
%TO.N,/PWM1*%
X154417000Y-119140000D02*
X156466000Y-117092000D01*
X152380000Y-119140000D02*
X154417000Y-119140000D01*
X156466000Y-117092000D02*
X156466000Y-116678000D01*
X135800000Y-135721000D02*
X152380000Y-119140000D01*
%TO.N,/PWM2*%
X154744000Y-120496000D02*
X154978000Y-120496000D01*
X157150000Y-118484000D02*
X157325000Y-118659000D01*
X155365000Y-120109000D02*
X155513000Y-120109000D01*
X136663000Y-138261000D02*
X136663000Y-138098000D01*
X154978000Y-120496000D02*
X155365000Y-120109000D01*
X136663000Y-138098000D02*
X145864000Y-128897000D01*
X146342000Y-128897000D02*
X154744000Y-120496000D01*
X145864000Y-128897000D02*
X146342000Y-128897000D01*
X157137000Y-118484000D02*
X157150000Y-118484000D01*
X155513000Y-120109000D02*
X157137000Y-118484000D01*
%TO.N,/GO1*%
X140978000Y-136294000D02*
X135534000Y-141738000D01*
%TO.N,/PWM3*%
X150453000Y-135721000D02*
X150453000Y-126935000D01*
X155350000Y-121399000D02*
X156358000Y-121399000D01*
X153813000Y-123575000D02*
X153813000Y-122936000D01*
X150453000Y-126935000D02*
X153813000Y-123575000D01*
X153813000Y-122936000D02*
X155350000Y-121399000D01*
X156358000Y-121399000D02*
X157985000Y-119773000D01*
%TO.N,/PWM4*%
X152775000Y-136093000D02*
X152775000Y-130831000D01*
X154316000Y-123072000D02*
X155537000Y-121851000D01*
X157120000Y-121851000D02*
X157971000Y-121000000D01*
X152775000Y-130831000D02*
X154316000Y-129289000D01*
X155537000Y-121851000D02*
X157120000Y-121851000D01*
X154316000Y-129289000D02*
X154316000Y-123072000D01*
X150607000Y-138261000D02*
X152775000Y-136093000D01*
%TO.N,/GO3*%
X150984000Y-136991000D02*
X145814000Y-142162000D01*
%TO.N,/RLYG*%
X175357000Y-126028000D02*
X173688000Y-126028000D01*
X173688000Y-126028000D02*
X172526000Y-124866000D01*
X175685000Y-126357000D02*
X175357000Y-126028000D01*
X169025000Y-139250000D02*
X175685000Y-132590000D01*
X172526000Y-124866000D02*
X172526000Y-115288000D01*
X175685000Y-132590000D02*
X175685000Y-126357000D01*
%TO.N,/EN*%
X160684000Y-115725000D02*
X166027000Y-121067000D01*
X156641000Y-115725000D02*
X160684000Y-115725000D01*
X159716000Y-128159000D02*
X156600000Y-125043000D01*
X166027000Y-128159000D02*
X159716000Y-128159000D01*
X166027000Y-121067000D02*
X166027000Y-128159000D01*
%TO.N,/BOOT*%
X187000000Y-124440000D02*
X174283000Y-124440000D01*
X174283000Y-124440000D02*
X173998000Y-124725000D01*
%TO.N,/LED*%
X157101000Y-135754000D02*
X165932000Y-135754000D01*
X165932000Y-135754000D02*
X175031000Y-126655000D01*
%TO.N,/TXD*%
X161194000Y-122614000D02*
X161307000Y-122500000D01*
X155714000Y-122614000D02*
X161194000Y-122614000D01*
%TO.N,/USB_DN*%
X178924000Y-133250000D02*
X176592000Y-130918000D01*
X176592000Y-130918000D02*
X176592000Y-127606000D01*
%TO.N,/USB_DP*%
X173940000Y-125577000D02*
X173361000Y-124998000D01*
X177868000Y-127868000D02*
X175577000Y-125577000D01*
X173361000Y-124998000D02*
X173361000Y-119500000D01*
X177868000Y-131300000D02*
X177868000Y-127868000D01*
X175577000Y-125577000D02*
X173940000Y-125577000D01*
%TO.N,/IR*%
X184915000Y-117275000D02*
X187000000Y-119360000D01*
X180789000Y-117275000D02*
X184915000Y-117275000D01*
%TO.N,/LDR*%
X178031000Y-114171000D02*
X177495000Y-114171000D01*
X179368000Y-121900000D02*
X187000000Y-121900000D01*
X177495000Y-114171000D02*
X174824000Y-116842000D01*
X174824000Y-116842000D02*
X174824000Y-117356000D01*
X174824000Y-117356000D02*
X179368000Y-121900000D01*
%TO.N,/CC1*%
X179757000Y-136797000D02*
X181495000Y-135059000D01*
X181495000Y-135059000D02*
X181495000Y-134420000D01*
X181495000Y-134420000D02*
X182190000Y-133725000D01*
X179757000Y-137896000D02*
X179757000Y-136797000D01*
%TO.N,/CC2*%
X180800000Y-132182000D02*
X182207000Y-130775000D01*
X178781000Y-136744000D02*
X180800000Y-134725000D01*
X172919000Y-136744000D02*
X178781000Y-136744000D01*
X180800000Y-134725000D02*
X180800000Y-132182000D01*
%TD*%
%TA.AperFunction,Conductor*%
%TO.N,/GND*%
G36*
X181816043Y-135442217D02*
G01*
X181871977Y-135484088D01*
X181892484Y-135526303D01*
X181901493Y-135559924D01*
X181910313Y-135592838D01*
X181979492Y-135712661D01*
X181979496Y-135712666D01*
X182083082Y-135816252D01*
X182080690Y-135818643D01*
X182112661Y-135862367D01*
X182120000Y-135904392D01*
X182120000Y-136520000D01*
X181620000Y-136520000D01*
X181620000Y-135820000D01*
X181613753Y-135813753D01*
X181591777Y-135812182D01*
X181580993Y-135804109D01*
X181568071Y-135800315D01*
X181553572Y-135783583D01*
X181535843Y-135770311D01*
X181531135Y-135757688D01*
X181522316Y-135747511D01*
X181519164Y-135725595D01*
X181511426Y-135704847D01*
X181514289Y-135691685D01*
X181512372Y-135678353D01*
X181521571Y-135658208D01*
X181526278Y-135636574D01*
X181539547Y-135618846D01*
X181541397Y-135614797D01*
X181547414Y-135608333D01*
X181685032Y-135470715D01*
X181746351Y-135437233D01*
X181816043Y-135442217D01*
G37*
%TD.AperFunction*%
%TA.AperFunction,Conductor*%
G36*
X185898465Y-110239282D02*
G01*
X185942812Y-110267783D01*
X185977235Y-110302206D01*
X186080009Y-110347585D01*
X186105135Y-110350500D01*
X186236923Y-110350499D01*
X186303960Y-110370183D01*
X186349715Y-110422987D01*
X186359659Y-110492145D01*
X186330635Y-110555701D01*
X186296387Y-110582507D01*
X186296590Y-110582838D01*
X186293715Y-110584599D01*
X186293239Y-110584972D01*
X186292451Y-110585373D01*
X186292440Y-110585380D01*
X186238282Y-110624727D01*
X186238282Y-110624728D01*
X186870591Y-111257037D01*
X186807007Y-111274075D01*
X186692993Y-111339901D01*
X186599901Y-111432993D01*
X186534075Y-111547007D01*
X186517037Y-111610590D01*
X185884728Y-110978282D01*
X185884727Y-110978282D01*
X185845380Y-111032439D01*
X185748904Y-111221782D01*
X185683242Y-111423869D01*
X185683242Y-111423872D01*
X185650000Y-111633753D01*
X185650000Y-111846246D01*
X185683242Y-112056127D01*
X185683242Y-112056130D01*
X185748904Y-112258217D01*
X185845375Y-112447550D01*
X185884728Y-112501716D01*
X186517037Y-111869408D01*
X186534075Y-111932993D01*
X186599901Y-112047007D01*
X186692993Y-112140099D01*
X186807007Y-112205925D01*
X186870590Y-112222962D01*
X186238282Y-112855269D01*
X186238282Y-112855270D01*
X186292449Y-112894624D01*
X186481780Y-112991094D01*
X186510705Y-113000492D01*
X186568381Y-113039929D01*
X186595580Y-113104287D01*
X186583667Y-113173134D01*
X186536424Y-113224610D01*
X186528685Y-113228908D01*
X186397004Y-113296004D01*
X186250505Y-113402441D01*
X186250500Y-113402445D01*
X186122445Y-113530500D01*
X186122441Y-113530505D01*
X186016006Y-113677002D01*
X185933788Y-113838360D01*
X185933787Y-113838363D01*
X185877829Y-114010589D01*
X185849500Y-114189448D01*
X185849500Y-114370551D01*
X185877829Y-114549410D01*
X185933787Y-114721636D01*
X185933788Y-114721639D01*
X185974718Y-114801966D01*
X186013757Y-114878585D01*
X186016006Y-114882997D01*
X186122441Y-115029494D01*
X186122445Y-115029499D01*
X186250500Y-115157554D01*
X186250505Y-115157558D01*
X186348940Y-115229074D01*
X186397006Y-115263996D01*
X186502484Y-115317740D01*
X186558360Y-115346211D01*
X186558363Y-115346212D01*
X186622516Y-115367056D01*
X186730591Y-115402171D01*
X186803639Y-115413740D01*
X186890678Y-115427527D01*
X186953813Y-115457456D01*
X186990744Y-115516768D01*
X186989746Y-115586631D01*
X186951136Y-115644863D01*
X186890678Y-115672473D01*
X186730589Y-115697829D01*
X186558363Y-115753787D01*
X186558360Y-115753788D01*
X186397002Y-115836006D01*
X186250505Y-115942441D01*
X186250500Y-115942445D01*
X186122447Y-116070498D01*
X186116229Y-116079057D01*
X186060970Y-116155116D01*
X186052056Y-116167385D01*
X185996726Y-116210051D01*
X185951737Y-116218500D01*
X176348610Y-116218500D01*
X176281571Y-116198815D01*
X176235816Y-116146011D01*
X176225872Y-116076853D01*
X176254897Y-116013297D01*
X176260929Y-116006819D01*
X176911659Y-115356089D01*
X177565807Y-114701940D01*
X177627128Y-114668457D01*
X177696820Y-114673441D01*
X177715486Y-114682236D01*
X177799216Y-114730577D01*
X177951943Y-114771500D01*
X177951945Y-114771500D01*
X178110055Y-114771500D01*
X178110057Y-114771500D01*
X178262784Y-114730577D01*
X178399716Y-114651520D01*
X178511520Y-114539716D01*
X178590577Y-114402784D01*
X178631500Y-114250057D01*
X178631500Y-114093500D01*
X178651185Y-114026461D01*
X178703989Y-113980706D01*
X178755500Y-113969500D01*
X181730331Y-113969500D01*
X181730347Y-113969501D01*
X181737943Y-113969501D01*
X181896054Y-113969501D01*
X181896057Y-113969501D01*
X182048785Y-113928577D01*
X182102577Y-113897520D01*
X182185716Y-113849520D01*
X182297520Y-113737716D01*
X182297520Y-113737714D01*
X182307724Y-113727511D01*
X182307728Y-113727506D01*
X185767452Y-110267781D01*
X185828773Y-110234298D01*
X185898465Y-110239282D01*
G37*
%TD.AperFunction*%
%TA.AperFunction,Conductor*%
G36*
X189642539Y-100320185D02*
G01*
X189688294Y-100372989D01*
X189699500Y-100424500D01*
X189699500Y-169575500D01*
X189679815Y-169642539D01*
X189627011Y-169688294D01*
X189575500Y-169699500D01*
X184171652Y-169699500D01*
X184104613Y-169679815D01*
X184058858Y-169627011D01*
X184048914Y-169557853D01*
X184077939Y-169494297D01*
X184133334Y-169457569D01*
X184262387Y-169415637D01*
X184262387Y-169415636D01*
X184262393Y-169415635D01*
X184719801Y-169226171D01*
X185160933Y-169001402D01*
X185583071Y-168742716D01*
X185983611Y-168451707D01*
X186360084Y-168130169D01*
X186710169Y-167780084D01*
X187031707Y-167403611D01*
X187322716Y-167003071D01*
X187581402Y-166580933D01*
X187806171Y-166139801D01*
X187995635Y-165682393D01*
X188148628Y-165211530D01*
X188264205Y-164730115D01*
X188341655Y-164241116D01*
X188380500Y-163747547D01*
X188380500Y-163252453D01*
X188341655Y-162758884D01*
X188264205Y-162269885D01*
X188148628Y-161788470D01*
X187995635Y-161317607D01*
X187806171Y-160860199D01*
X187581402Y-160419067D01*
X187322716Y-159996929D01*
X187031707Y-159596389D01*
X186710169Y-159219916D01*
X186360084Y-158869831D01*
X185983611Y-158548293D01*
X185583071Y-158257284D01*
X185525139Y-158221783D01*
X185160949Y-157998607D01*
X185160938Y-157998601D01*
X185160937Y-157998600D01*
X185160933Y-157998598D01*
X184719801Y-157773829D01*
X184509933Y-157686899D01*
X184262387Y-157584362D01*
X183927363Y-157475507D01*
X183791530Y-157431372D01*
X183310115Y-157315795D01*
X183310109Y-157315794D01*
X182821125Y-157238346D01*
X182821116Y-157238345D01*
X182821114Y-157238344D01*
X182821106Y-157238344D01*
X182327552Y-157199500D01*
X182327547Y-157199500D01*
X181832453Y-157199500D01*
X181832447Y-157199500D01*
X181338893Y-157238344D01*
X181338874Y-157238346D01*
X180849890Y-157315794D01*
X180849887Y-157315794D01*
X180849885Y-157315795D01*
X180677480Y-157357185D01*
X180368481Y-157431369D01*
X180368475Y-157431370D01*
X180368470Y-157431372D01*
X180368458Y-157431376D01*
X180011683Y-157547298D01*
X179941841Y-157549293D01*
X179925913Y-157543928D01*
X179847492Y-157511445D01*
X179410229Y-157373576D01*
X178962604Y-157274340D01*
X178962595Y-157274339D01*
X178508045Y-157214496D01*
X178180243Y-157200184D01*
X178164563Y-157199500D01*
X178164562Y-157199500D01*
X175835437Y-157199500D01*
X175491954Y-157214496D01*
X175037404Y-157274339D01*
X175037395Y-157274340D01*
X174589770Y-157373576D01*
X174152512Y-157511444D01*
X173728924Y-157686899D01*
X173322258Y-157898596D01*
X172935563Y-158144947D01*
X172571834Y-158424046D01*
X172571829Y-158424050D01*
X172233799Y-158733798D01*
X172233798Y-158733799D01*
X171924050Y-159071829D01*
X171924046Y-159071834D01*
X171644947Y-159435563D01*
X171398596Y-159822258D01*
X171186899Y-160228924D01*
X171011444Y-160652512D01*
X170873576Y-161089770D01*
X170774340Y-161537395D01*
X170774339Y-161537404D01*
X170714496Y-161991954D01*
X170699500Y-162335437D01*
X170699500Y-164664562D01*
X170714496Y-165008045D01*
X170774339Y-165462595D01*
X170774340Y-165462604D01*
X170873576Y-165910229D01*
X171011444Y-166347487D01*
X171186899Y-166771075D01*
X171398596Y-167177741D01*
X171398600Y-167177747D01*
X171398602Y-167177751D01*
X171406214Y-167189699D01*
X171644947Y-167564436D01*
X171924046Y-167928165D01*
X171924050Y-167928170D01*
X172233798Y-168266200D01*
X172233799Y-168266201D01*
X172571829Y-168575949D01*
X172571834Y-168575953D01*
X172935563Y-168855052D01*
X172935568Y-168855055D01*
X173322249Y-169101398D01*
X173322255Y-169101401D01*
X173322258Y-169101403D01*
X173728924Y-169313100D01*
X173728929Y-169313102D01*
X174085841Y-169460940D01*
X174140243Y-169504780D01*
X174162308Y-169571074D01*
X174145029Y-169638773D01*
X174093892Y-169686384D01*
X174038387Y-169699500D01*
X100424500Y-169699500D01*
X100357461Y-169679815D01*
X100311706Y-169627011D01*
X100300500Y-169575500D01*
X100300500Y-165881995D01*
X160699500Y-165881995D01*
X160699500Y-166118004D01*
X160699501Y-166118020D01*
X160730306Y-166352010D01*
X160791394Y-166579993D01*
X160881714Y-166798045D01*
X160881719Y-166798056D01*
X160952677Y-166920957D01*
X160999727Y-167002450D01*
X160999729Y-167002453D01*
X160999730Y-167002454D01*
X161143406Y-167189697D01*
X161143412Y-167189704D01*
X161310295Y-167356587D01*
X161310301Y-167356592D01*
X161497550Y-167500273D01*
X161608677Y-167564432D01*
X161701943Y-167618280D01*
X161701948Y-167618282D01*
X161701951Y-167618284D01*
X161920007Y-167708606D01*
X162147986Y-167769693D01*
X162381989Y-167800500D01*
X162381996Y-167800500D01*
X162618004Y-167800500D01*
X162618011Y-167800500D01*
X162852014Y-167769693D01*
X163079993Y-167708606D01*
X163298049Y-167618284D01*
X163502450Y-167500273D01*
X163689699Y-167356592D01*
X163856592Y-167189699D01*
X164000273Y-167002450D01*
X164118284Y-166798049D01*
X164208606Y-166579993D01*
X164269693Y-166352014D01*
X164300500Y-166118011D01*
X164300500Y-165881989D01*
X164269693Y-165647986D01*
X164208606Y-165420007D01*
X164118284Y-165201951D01*
X164118282Y-165201948D01*
X164118280Y-165201943D01*
X164053578Y-165089877D01*
X164000273Y-164997550D01*
X163865832Y-164822343D01*
X163856593Y-164810302D01*
X163856587Y-164810295D01*
X163689704Y-164643412D01*
X163689697Y-164643406D01*
X163502454Y-164499730D01*
X163502453Y-164499729D01*
X163502450Y-164499727D01*
X163420957Y-164452677D01*
X163298056Y-164381719D01*
X163298045Y-164381714D01*
X163079993Y-164291394D01*
X162892387Y-164241125D01*
X162852014Y-164230307D01*
X162852013Y-164230306D01*
X162852010Y-164230306D01*
X162618020Y-164199501D01*
X162618017Y-164199500D01*
X162618011Y-164199500D01*
X162381989Y-164199500D01*
X162381983Y-164199500D01*
X162381979Y-164199501D01*
X162147989Y-164230306D01*
X161920006Y-164291394D01*
X161701954Y-164381714D01*
X161701943Y-164381719D01*
X161497545Y-164499730D01*
X161310302Y-164643406D01*
X161310295Y-164643412D01*
X161143412Y-164810295D01*
X161143406Y-164810302D01*
X160999730Y-164997545D01*
X160881719Y-165201943D01*
X160881714Y-165201954D01*
X160791394Y-165420006D01*
X160730306Y-165647989D01*
X160699501Y-165881979D01*
X160699500Y-165881995D01*
X100300500Y-165881995D01*
X100300500Y-162406898D01*
X103399500Y-162406898D01*
X103399500Y-164593102D01*
X103405126Y-164639954D01*
X103410122Y-164681561D01*
X103465639Y-164822343D01*
X103557077Y-164942922D01*
X103677656Y-165034360D01*
X103677657Y-165034360D01*
X103677658Y-165034361D01*
X103818436Y-165089877D01*
X103906898Y-165100500D01*
X103906903Y-165100500D01*
X106093097Y-165100500D01*
X106093102Y-165100500D01*
X106181564Y-165089877D01*
X106322342Y-165034361D01*
X106442922Y-164942922D01*
X106534361Y-164822342D01*
X106589877Y-164681564D01*
X106600500Y-164593102D01*
X106600500Y-163374038D01*
X108479500Y-163374038D01*
X108479500Y-163625961D01*
X108518910Y-163874785D01*
X108596760Y-164114383D01*
X108711132Y-164338848D01*
X108859201Y-164542649D01*
X108859205Y-164542654D01*
X109037345Y-164720794D01*
X109037350Y-164720798D01*
X109177116Y-164822343D01*
X109241155Y-164868870D01*
X109384184Y-164941747D01*
X109465616Y-164983239D01*
X109465618Y-164983239D01*
X109465621Y-164983241D01*
X109705215Y-165061090D01*
X109954038Y-165100500D01*
X109954039Y-165100500D01*
X110205961Y-165100500D01*
X110205962Y-165100500D01*
X110454785Y-165061090D01*
X110694379Y-164983241D01*
X110918845Y-164868870D01*
X111122656Y-164720793D01*
X111300793Y-164542656D01*
X111448870Y-164338845D01*
X111563241Y-164114379D01*
X111641090Y-163874785D01*
X111680500Y-163625962D01*
X111680500Y-163374038D01*
X111641090Y-163125215D01*
X111563241Y-162885621D01*
X111563239Y-162885618D01*
X111563239Y-162885616D01*
X111498660Y-162758874D01*
X111448870Y-162661155D01*
X111433206Y-162639595D01*
X111314404Y-162476077D01*
X111314403Y-162476076D01*
X111300796Y-162457347D01*
X111250347Y-162406898D01*
X115899500Y-162406898D01*
X115899500Y-164593102D01*
X115905126Y-164639954D01*
X115910122Y-164681561D01*
X115965639Y-164822343D01*
X116057077Y-164942922D01*
X116177656Y-165034360D01*
X116177657Y-165034360D01*
X116177658Y-165034361D01*
X116318436Y-165089877D01*
X116406898Y-165100500D01*
X116406903Y-165100500D01*
X118593097Y-165100500D01*
X118593102Y-165100500D01*
X118681564Y-165089877D01*
X118822342Y-165034361D01*
X118942922Y-164942922D01*
X119034361Y-164822342D01*
X119089877Y-164681564D01*
X119100500Y-164593102D01*
X119100500Y-163374038D01*
X120979500Y-163374038D01*
X120979500Y-163625961D01*
X121018910Y-163874785D01*
X121096760Y-164114383D01*
X121211132Y-164338848D01*
X121359201Y-164542649D01*
X121359205Y-164542654D01*
X121537345Y-164720794D01*
X121537350Y-164720798D01*
X121677116Y-164822343D01*
X121741155Y-164868870D01*
X121884184Y-164941747D01*
X121965616Y-164983239D01*
X121965618Y-164983239D01*
X121965621Y-164983241D01*
X122205215Y-165061090D01*
X122454038Y-165100500D01*
X122454039Y-165100500D01*
X122705961Y-165100500D01*
X122705962Y-165100500D01*
X122954785Y-165061090D01*
X123194379Y-164983241D01*
X123418845Y-164868870D01*
X123622656Y-164720793D01*
X123800793Y-164542656D01*
X123948870Y-164338845D01*
X124063241Y-164114379D01*
X124141090Y-163874785D01*
X124180500Y-163625962D01*
X124180500Y-163374038D01*
X124141090Y-163125215D01*
X124063241Y-162885621D01*
X124063239Y-162885618D01*
X124063239Y-162885616D01*
X123998660Y-162758874D01*
X123948870Y-162661155D01*
X123933206Y-162639595D01*
X123814404Y-162476077D01*
X123814403Y-162476076D01*
X123800796Y-162457347D01*
X123750347Y-162406898D01*
X134399500Y-162406898D01*
X134399500Y-164593102D01*
X134405126Y-164639954D01*
X134410122Y-164681561D01*
X134465639Y-164822343D01*
X134557077Y-164942922D01*
X134677656Y-165034360D01*
X134677657Y-165034360D01*
X134677658Y-165034361D01*
X134818436Y-165089877D01*
X134906898Y-165100500D01*
X134906903Y-165100500D01*
X137093097Y-165100500D01*
X137093102Y-165100500D01*
X137181564Y-165089877D01*
X137322342Y-165034361D01*
X137442922Y-164942922D01*
X137534361Y-164822342D01*
X137589877Y-164681564D01*
X137600500Y-164593102D01*
X137600500Y-163374038D01*
X139479500Y-163374038D01*
X139479500Y-163625961D01*
X139518910Y-163874785D01*
X139596760Y-164114383D01*
X139711132Y-164338848D01*
X139859201Y-164542649D01*
X139859205Y-164542654D01*
X140037345Y-164720794D01*
X140037350Y-164720798D01*
X140177116Y-164822343D01*
X140241155Y-164868870D01*
X140384184Y-164941747D01*
X140465616Y-164983239D01*
X140465618Y-164983239D01*
X140465621Y-164983241D01*
X140705215Y-165061090D01*
X140954038Y-165100500D01*
X140954039Y-165100500D01*
X141205961Y-165100500D01*
X141205962Y-165100500D01*
X141454785Y-165061090D01*
X141694379Y-164983241D01*
X141918845Y-164868870D01*
X142122656Y-164720793D01*
X142300793Y-164542656D01*
X142448870Y-164338845D01*
X142563241Y-164114379D01*
X142641090Y-163874785D01*
X142680500Y-163625962D01*
X142680500Y-163374038D01*
X144559500Y-163374038D01*
X144559500Y-163625961D01*
X144598910Y-163874785D01*
X144676760Y-164114383D01*
X144791132Y-164338848D01*
X144939201Y-164542649D01*
X144939205Y-164542654D01*
X145117345Y-164720794D01*
X145117350Y-164720798D01*
X145257116Y-164822343D01*
X145321155Y-164868870D01*
X145464184Y-164941747D01*
X145545616Y-164983239D01*
X145545618Y-164983239D01*
X145545621Y-164983241D01*
X145785215Y-165061090D01*
X146034038Y-165100500D01*
X146034039Y-165100500D01*
X146285961Y-165100500D01*
X146285962Y-165100500D01*
X146534785Y-165061090D01*
X146774379Y-164983241D01*
X146998845Y-164868870D01*
X147202656Y-164720793D01*
X147380793Y-164542656D01*
X147528870Y-164338845D01*
X147643241Y-164114379D01*
X147721090Y-163874785D01*
X147760500Y-163625962D01*
X147760500Y-163374038D01*
X149639500Y-163374038D01*
X149639500Y-163625961D01*
X149678910Y-163874785D01*
X149756760Y-164114383D01*
X149871132Y-164338848D01*
X150019201Y-164542649D01*
X150019205Y-164542654D01*
X150197345Y-164720794D01*
X150197350Y-164720798D01*
X150337116Y-164822343D01*
X150401155Y-164868870D01*
X150544184Y-164941747D01*
X150625616Y-164983239D01*
X150625618Y-164983239D01*
X150625621Y-164983241D01*
X150865215Y-165061090D01*
X151114038Y-165100500D01*
X151114039Y-165100500D01*
X151365961Y-165100500D01*
X151365962Y-165100500D01*
X151614785Y-165061090D01*
X151854379Y-164983241D01*
X152078845Y-164868870D01*
X152282656Y-164720793D01*
X152460793Y-164542656D01*
X152608870Y-164338845D01*
X152723241Y-164114379D01*
X152801090Y-163874785D01*
X152840500Y-163625962D01*
X152840500Y-163374038D01*
X152801090Y-163125215D01*
X152723241Y-162885621D01*
X152723239Y-162885618D01*
X152723239Y-162885616D01*
X152658660Y-162758874D01*
X152608870Y-162661155D01*
X152589952Y-162635117D01*
X152460798Y-162457350D01*
X152460794Y-162457345D01*
X152282654Y-162279205D01*
X152282649Y-162279201D01*
X152078848Y-162131132D01*
X152078847Y-162131131D01*
X152078845Y-162131130D01*
X152008747Y-162095413D01*
X151854383Y-162016760D01*
X151614785Y-161938910D01*
X151433032Y-161910123D01*
X151365962Y-161899500D01*
X151114038Y-161899500D01*
X151046974Y-161910122D01*
X150865214Y-161938910D01*
X150625616Y-162016760D01*
X150401151Y-162131132D01*
X150197350Y-162279201D01*
X150197345Y-162279205D01*
X150019205Y-162457345D01*
X150019201Y-162457350D01*
X149871132Y-162661151D01*
X149756760Y-162885616D01*
X149678910Y-163125214D01*
X149639500Y-163374038D01*
X147760500Y-163374038D01*
X147721090Y-163125215D01*
X147643241Y-162885621D01*
X147643239Y-162885618D01*
X147643239Y-162885616D01*
X147578660Y-162758874D01*
X147528870Y-162661155D01*
X147509952Y-162635117D01*
X147380798Y-162457350D01*
X147380794Y-162457345D01*
X147202654Y-162279205D01*
X147202649Y-162279201D01*
X146998848Y-162131132D01*
X146998847Y-162131131D01*
X146998845Y-162131130D01*
X146928747Y-162095413D01*
X146774383Y-162016760D01*
X146534785Y-161938910D01*
X146353032Y-161910123D01*
X146285962Y-161899500D01*
X146034038Y-161899500D01*
X145966974Y-161910122D01*
X145785214Y-161938910D01*
X145545616Y-162016760D01*
X145321151Y-162131132D01*
X145117350Y-162279201D01*
X145117345Y-162279205D01*
X144939205Y-162457345D01*
X144939201Y-162457350D01*
X144791132Y-162661151D01*
X144676760Y-162885616D01*
X144598910Y-163125214D01*
X144559500Y-163374038D01*
X142680500Y-163374038D01*
X142641090Y-163125215D01*
X142563241Y-162885621D01*
X142563239Y-162885618D01*
X142563239Y-162885616D01*
X142498660Y-162758874D01*
X142448870Y-162661155D01*
X142429952Y-162635117D01*
X142300798Y-162457350D01*
X142300794Y-162457345D01*
X142122654Y-162279205D01*
X142122649Y-162279201D01*
X141918848Y-162131132D01*
X141918847Y-162131131D01*
X141918845Y-162131130D01*
X141848747Y-162095413D01*
X141694383Y-162016760D01*
X141454785Y-161938910D01*
X141273032Y-161910123D01*
X141205962Y-161899500D01*
X140954038Y-161899500D01*
X140886974Y-161910122D01*
X140705214Y-161938910D01*
X140465616Y-162016760D01*
X140241151Y-162131132D01*
X140037350Y-162279201D01*
X140037345Y-162279205D01*
X139859205Y-162457345D01*
X139859201Y-162457350D01*
X139711132Y-162661151D01*
X139596760Y-162885616D01*
X139518910Y-163125214D01*
X139479500Y-163374038D01*
X137600500Y-163374038D01*
X137600500Y-162406898D01*
X137589877Y-162318436D01*
X137534361Y-162177658D01*
X137534360Y-162177657D01*
X137534360Y-162177656D01*
X137442922Y-162057077D01*
X137322343Y-161965639D01*
X137181561Y-161910122D01*
X137135926Y-161904642D01*
X137093102Y-161899500D01*
X134906898Y-161899500D01*
X134867853Y-161904188D01*
X134818438Y-161910122D01*
X134677656Y-161965639D01*
X134557077Y-162057077D01*
X134465639Y-162177656D01*
X134410122Y-162318438D01*
X134408081Y-162335437D01*
X134399500Y-162406898D01*
X123750347Y-162406898D01*
X123622654Y-162279205D01*
X123622649Y-162279201D01*
X123418848Y-162131132D01*
X123418847Y-162131131D01*
X123418845Y-162131130D01*
X123348747Y-162095413D01*
X123194383Y-162016760D01*
X122954785Y-161938910D01*
X122773032Y-161910123D01*
X122705962Y-161899500D01*
X122454038Y-161899500D01*
X122386974Y-161910122D01*
X122205214Y-161938910D01*
X121965616Y-162016760D01*
X121741151Y-162131132D01*
X121537350Y-162279201D01*
X121537345Y-162279205D01*
X121359205Y-162457345D01*
X121359201Y-162457350D01*
X121211132Y-162661151D01*
X121096760Y-162885616D01*
X121018910Y-163125214D01*
X120979500Y-163374038D01*
X119100500Y-163374038D01*
X119100500Y-162406898D01*
X119089877Y-162318436D01*
X119034361Y-162177658D01*
X119034360Y-162177657D01*
X119034360Y-162177656D01*
X118942922Y-162057077D01*
X118822343Y-161965639D01*
X118681561Y-161910122D01*
X118635926Y-161904642D01*
X118593102Y-161899500D01*
X116406898Y-161899500D01*
X116367853Y-161904188D01*
X116318438Y-161910122D01*
X116177656Y-161965639D01*
X116057077Y-162057077D01*
X115965639Y-162177656D01*
X115910122Y-162318438D01*
X115908081Y-162335437D01*
X115899500Y-162406898D01*
X111250347Y-162406898D01*
X111122654Y-162279205D01*
X111122649Y-162279201D01*
X110918848Y-162131132D01*
X110918847Y-162131131D01*
X110918845Y-162131130D01*
X110848747Y-162095413D01*
X110694383Y-162016760D01*
X110454785Y-161938910D01*
X110273032Y-161910123D01*
X110205962Y-161899500D01*
X109954038Y-161899500D01*
X109886974Y-161910122D01*
X109705214Y-161938910D01*
X109465616Y-162016760D01*
X109241151Y-162131132D01*
X109037350Y-162279201D01*
X109037345Y-162279205D01*
X108859205Y-162457345D01*
X108859201Y-162457350D01*
X108711132Y-162661151D01*
X108596760Y-162885616D01*
X108518910Y-163125214D01*
X108479500Y-163374038D01*
X106600500Y-163374038D01*
X106600500Y-162406898D01*
X106589877Y-162318436D01*
X106534361Y-162177658D01*
X106534360Y-162177657D01*
X106534360Y-162177656D01*
X106442922Y-162057077D01*
X106322343Y-161965639D01*
X106181561Y-161910122D01*
X106135926Y-161904642D01*
X106093102Y-161899500D01*
X103906898Y-161899500D01*
X103867853Y-161904188D01*
X103818438Y-161910122D01*
X103677656Y-161965639D01*
X103557077Y-162057077D01*
X103465639Y-162177656D01*
X103410122Y-162318438D01*
X103408081Y-162335437D01*
X103399500Y-162406898D01*
X100300500Y-162406898D01*
X100300500Y-149865602D01*
X115449500Y-149865602D01*
X115449500Y-150134397D01*
X115484582Y-150400880D01*
X115484583Y-150400885D01*
X115484584Y-150400891D01*
X115519368Y-150530708D01*
X115554152Y-150660524D01*
X115657011Y-150908850D01*
X115657019Y-150908866D01*
X115737047Y-151047477D01*
X115791413Y-151141641D01*
X115791415Y-151141644D01*
X115791416Y-151141645D01*
X115955042Y-151354888D01*
X115955048Y-151354895D01*
X116145104Y-151544951D01*
X116145110Y-151544956D01*
X116358359Y-151708587D01*
X116507968Y-151794964D01*
X116591133Y-151842980D01*
X116591149Y-151842988D01*
X116746008Y-151907132D01*
X116839474Y-151945847D01*
X117099109Y-152015416D01*
X117285216Y-152039917D01*
X117365602Y-152050500D01*
X117365603Y-152050500D01*
X117634398Y-152050500D01*
X117694905Y-152042534D01*
X117900891Y-152015416D01*
X118160526Y-151945847D01*
X118350061Y-151867339D01*
X118408850Y-151842988D01*
X118408853Y-151842986D01*
X118408859Y-151842984D01*
X118641641Y-151708587D01*
X118854890Y-151544956D01*
X119044956Y-151354890D01*
X119208587Y-151141641D01*
X119342984Y-150908859D01*
X119445847Y-150660526D01*
X119515416Y-150400891D01*
X119550500Y-150134397D01*
X119550500Y-149865603D01*
X119515416Y-149599109D01*
X119445847Y-149339474D01*
X119404985Y-149240825D01*
X119342988Y-149091149D01*
X119342980Y-149091133D01*
X119291820Y-149002522D01*
X119208587Y-148858359D01*
X119044956Y-148645110D01*
X119044951Y-148645104D01*
X118854895Y-148455048D01*
X118854888Y-148455042D01*
X118641645Y-148291416D01*
X118641644Y-148291415D01*
X118641641Y-148291413D01*
X118548832Y-148237830D01*
X118408866Y-148157019D01*
X118408850Y-148157011D01*
X118160524Y-148054152D01*
X118030708Y-148019368D01*
X117900891Y-147984584D01*
X117900885Y-147984583D01*
X117900880Y-147984582D01*
X117634398Y-147949500D01*
X117634397Y-147949500D01*
X117365603Y-147949500D01*
X117365602Y-147949500D01*
X117099119Y-147984582D01*
X117099112Y-147984583D01*
X117099109Y-147984584D01*
X117044239Y-147999286D01*
X116839475Y-148054152D01*
X116591149Y-148157011D01*
X116591133Y-148157019D01*
X116358354Y-148291416D01*
X116145111Y-148455042D01*
X116145104Y-148455048D01*
X115955048Y-148645104D01*
X115955042Y-148645111D01*
X115791416Y-148858354D01*
X115657019Y-149091133D01*
X115657011Y-149091149D01*
X115554152Y-149339475D01*
X115484585Y-149599106D01*
X115484582Y-149599119D01*
X115449500Y-149865602D01*
X100300500Y-149865602D01*
X100300500Y-145289778D01*
X117299500Y-145289778D01*
X117299500Y-145510222D01*
X117305217Y-145546316D01*
X117333985Y-145727952D01*
X117402103Y-145937603D01*
X117402104Y-145937606D01*
X117502187Y-146134025D01*
X117631752Y-146312358D01*
X117631756Y-146312363D01*
X117787636Y-146468243D01*
X117787641Y-146468247D01*
X117826691Y-146496618D01*
X117965978Y-146597815D01*
X118094375Y-146663237D01*
X118162393Y-146697895D01*
X118162396Y-146697896D01*
X118267221Y-146731955D01*
X118372049Y-146766015D01*
X118589778Y-146800500D01*
X118589779Y-146800500D01*
X118810221Y-146800500D01*
X118810222Y-146800500D01*
X119027951Y-146766015D01*
X119237606Y-146697895D01*
X119434022Y-146597815D01*
X119612365Y-146468242D01*
X119768242Y-146312365D01*
X119897815Y-146134022D01*
X119997895Y-145937606D01*
X120066015Y-145727951D01*
X120100500Y-145510222D01*
X120100500Y-145289778D01*
X120066015Y-145072049D01*
X119997895Y-144862394D01*
X119997895Y-144862393D01*
X119963237Y-144794375D01*
X119897815Y-144665978D01*
X119881260Y-144643192D01*
X119768247Y-144487641D01*
X119768243Y-144487636D01*
X119612363Y-144331756D01*
X119612358Y-144331752D01*
X119434025Y-144202187D01*
X119434024Y-144202186D01*
X119434022Y-144202185D01*
X119367376Y-144168227D01*
X119237606Y-144102104D01*
X119237603Y-144102103D01*
X119027952Y-144033985D01*
X118919086Y-144016742D01*
X118810222Y-143999500D01*
X118589778Y-143999500D01*
X118517201Y-144010995D01*
X118372047Y-144033985D01*
X118162396Y-144102103D01*
X118162393Y-144102104D01*
X117965974Y-144202187D01*
X117787641Y-144331752D01*
X117787636Y-144331756D01*
X117631756Y-144487636D01*
X117631752Y-144487641D01*
X117502187Y-144665974D01*
X117402104Y-144862393D01*
X117402103Y-144862396D01*
X117333985Y-145072047D01*
X117333985Y-145072049D01*
X117299500Y-145289778D01*
X100300500Y-145289778D01*
X100300500Y-137570943D01*
X100899500Y-137570943D01*
X100899500Y-137729057D01*
X100936224Y-137866111D01*
X100940423Y-137881783D01*
X100940426Y-137881790D01*
X101019473Y-138018706D01*
X101019477Y-138018712D01*
X101019480Y-138018716D01*
X101019482Y-138018718D01*
X101023872Y-138024438D01*
X101049069Y-138089606D01*
X101049500Y-138099930D01*
X101049500Y-143140691D01*
X101049500Y-143259309D01*
X101080201Y-143373886D01*
X101139511Y-143476613D01*
X101223387Y-143560489D01*
X101326114Y-143619799D01*
X101440691Y-143650500D01*
X107020069Y-143650500D01*
X107087108Y-143670185D01*
X107095557Y-143676125D01*
X107101281Y-143680517D01*
X107101284Y-143680520D01*
X107101287Y-143680521D01*
X107101290Y-143680524D01*
X107159095Y-143713897D01*
X107238216Y-143759577D01*
X107390943Y-143800500D01*
X107390945Y-143800500D01*
X107549055Y-143800500D01*
X107549057Y-143800500D01*
X107701784Y-143759577D01*
X107838716Y-143680520D01*
X107950520Y-143568716D01*
X108029577Y-143431784D01*
X108070500Y-143279057D01*
X108070500Y-143120943D01*
X108029577Y-142968216D01*
X108029573Y-142968209D01*
X107950524Y-142831290D01*
X107950518Y-142831282D01*
X107838717Y-142719481D01*
X107838709Y-142719475D01*
X107701790Y-142640426D01*
X107701786Y-142640424D01*
X107701784Y-142640423D01*
X107549057Y-142599500D01*
X107390943Y-142599500D01*
X107238216Y-142640423D01*
X107238209Y-142640426D01*
X107101290Y-142719475D01*
X107095557Y-142723875D01*
X107030388Y-142749070D01*
X107020069Y-142749500D01*
X102074500Y-142749500D01*
X102007461Y-142729815D01*
X101961706Y-142677011D01*
X101950500Y-142625500D01*
X101950500Y-140665602D01*
X115449500Y-140665602D01*
X115449500Y-140934397D01*
X115484582Y-141200880D01*
X115484583Y-141200885D01*
X115484584Y-141200891D01*
X115484585Y-141200893D01*
X115554152Y-141460524D01*
X115657011Y-141708850D01*
X115657019Y-141708866D01*
X115705762Y-141793290D01*
X115791413Y-141941641D01*
X115791415Y-141941644D01*
X115791416Y-141941645D01*
X115955042Y-142154888D01*
X115955048Y-142154895D01*
X116145104Y-142344951D01*
X116145111Y-142344957D01*
X116192889Y-142381618D01*
X116358359Y-142508587D01*
X116507968Y-142594964D01*
X116591133Y-142642980D01*
X116591149Y-142642988D01*
X116746008Y-142707132D01*
X116839474Y-142745847D01*
X117099109Y-142815416D01*
X117287319Y-142840193D01*
X117365602Y-142850500D01*
X117365603Y-142850500D01*
X117634398Y-142850500D01*
X117694905Y-142842534D01*
X117900891Y-142815416D01*
X118160526Y-142745847D01*
X118347457Y-142668417D01*
X118408850Y-142642988D01*
X118408853Y-142642986D01*
X118408859Y-142642984D01*
X118641641Y-142508587D01*
X118854890Y-142344956D01*
X119044956Y-142154890D01*
X119208587Y-141941641D01*
X119342984Y-141708859D01*
X119345441Y-141702929D01*
X119404022Y-141561500D01*
X119445847Y-141460526D01*
X119515416Y-141200891D01*
X119550500Y-140934397D01*
X119550500Y-140665603D01*
X119515416Y-140399109D01*
X119445847Y-140139474D01*
X119382962Y-139987656D01*
X119342988Y-139891149D01*
X119342980Y-139891133D01*
X119250248Y-139730518D01*
X119208587Y-139658359D01*
X119089254Y-139502841D01*
X119044957Y-139445111D01*
X119044951Y-139445104D01*
X118854895Y-139255048D01*
X118854888Y-139255042D01*
X118641645Y-139091416D01*
X118641644Y-139091415D01*
X118641641Y-139091413D01*
X118548832Y-139037830D01*
X118408866Y-138957019D01*
X118408850Y-138957011D01*
X118160524Y-138854152D01*
X118030708Y-138819368D01*
X117900891Y-138784584D01*
X117900885Y-138784583D01*
X117900880Y-138784582D01*
X117634398Y-138749500D01*
X117634397Y-138749500D01*
X117365603Y-138749500D01*
X117365602Y-138749500D01*
X117099119Y-138784582D01*
X117099112Y-138784583D01*
X117099109Y-138784584D01*
X117044239Y-138799286D01*
X116839475Y-138854152D01*
X116591149Y-138957011D01*
X116591133Y-138957019D01*
X116358354Y-139091416D01*
X116145111Y-139255042D01*
X116145104Y-139255048D01*
X115955048Y-139445104D01*
X115955042Y-139445111D01*
X115791416Y-139658354D01*
X115657019Y-139891133D01*
X115657011Y-139891149D01*
X115554152Y-140139475D01*
X115484585Y-140399106D01*
X115484582Y-140399119D01*
X115449500Y-140665602D01*
X101950500Y-140665602D01*
X101950500Y-138220943D01*
X102299500Y-138220943D01*
X102299500Y-138379057D01*
X102330213Y-138493677D01*
X102340423Y-138531783D01*
X102340426Y-138531790D01*
X102419475Y-138668709D01*
X102419479Y-138668714D01*
X102419480Y-138668716D01*
X102531284Y-138780520D01*
X102531286Y-138780521D01*
X102531290Y-138780524D01*
X102658821Y-138854153D01*
X102668216Y-138859577D01*
X102820943Y-138900500D01*
X102820945Y-138900500D01*
X102979055Y-138900500D01*
X102979057Y-138900500D01*
X103131784Y-138859577D01*
X103268716Y-138780520D01*
X103268721Y-138780514D01*
X103274443Y-138776125D01*
X103339612Y-138750930D01*
X103349931Y-138750500D01*
X111150069Y-138750500D01*
X111217108Y-138770185D01*
X111225557Y-138776125D01*
X111231281Y-138780517D01*
X111231284Y-138780520D01*
X111231287Y-138780521D01*
X111231290Y-138780524D01*
X111358821Y-138854153D01*
X111368216Y-138859577D01*
X111520943Y-138900500D01*
X111520945Y-138900500D01*
X111679055Y-138900500D01*
X111679057Y-138900500D01*
X111831784Y-138859577D01*
X111968716Y-138780520D01*
X112080520Y-138668716D01*
X112159577Y-138531784D01*
X112200500Y-138379057D01*
X112200500Y-138220943D01*
X112188884Y-138177591D01*
X112190547Y-138107744D01*
X112229709Y-138049881D01*
X112293938Y-138022377D01*
X112308659Y-138021500D01*
X121399390Y-138021500D01*
X121466429Y-138041185D01*
X121487071Y-138057819D01*
X127086737Y-143657485D01*
X127183763Y-143713503D01*
X127291982Y-143742500D01*
X127404019Y-143742500D01*
X139738003Y-143742500D01*
X139738022Y-143742505D01*
X139794040Y-143742500D01*
X139850018Y-143742500D01*
X139850023Y-143742500D01*
X139850054Y-143742495D01*
X139850058Y-143742495D01*
X139907330Y-143727143D01*
X139958237Y-143713503D01*
X139958241Y-143713500D01*
X139958257Y-143713496D01*
X139958268Y-143713489D01*
X139958274Y-143713488D01*
X140006171Y-143685827D01*
X140055263Y-143657485D01*
X140055265Y-143657482D01*
X140055278Y-143657475D01*
X140055290Y-143657462D01*
X140055295Y-143657460D01*
X140092949Y-143619799D01*
X140134485Y-143578263D01*
X140141048Y-143571700D01*
X140141112Y-143571625D01*
X144255243Y-139456723D01*
X145074985Y-138636827D01*
X145136305Y-138603336D01*
X145162674Y-138600500D01*
X145189055Y-138600500D01*
X145189057Y-138600500D01*
X145341784Y-138559577D01*
X145478716Y-138480520D01*
X145590520Y-138368716D01*
X145669577Y-138231784D01*
X145700760Y-138115405D01*
X145737125Y-138055746D01*
X145799972Y-138025217D01*
X145820535Y-138023500D01*
X145907055Y-138023500D01*
X145907057Y-138023500D01*
X146059784Y-137982577D01*
X146196716Y-137903520D01*
X146308520Y-137791716D01*
X146387577Y-137654784D01*
X146428500Y-137502057D01*
X146428500Y-135546038D01*
X146448185Y-135478999D01*
X146464802Y-135458373D01*
X149815807Y-132106427D01*
X149877125Y-132072935D01*
X149946817Y-132077910D01*
X150002757Y-132119774D01*
X150027183Y-132185235D01*
X150027500Y-132194098D01*
X150027500Y-135245902D01*
X150007815Y-135312941D01*
X149991181Y-135333583D01*
X149972481Y-135352282D01*
X149972475Y-135352290D01*
X149893426Y-135489209D01*
X149893423Y-135489216D01*
X149852500Y-135641943D01*
X149852500Y-135800057D01*
X149886055Y-135925284D01*
X149893423Y-135952783D01*
X149893426Y-135952790D01*
X149972475Y-136089709D01*
X149972479Y-136089714D01*
X149972480Y-136089716D01*
X150084284Y-136201520D01*
X150084286Y-136201521D01*
X150084290Y-136201524D01*
X150221209Y-136280573D01*
X150221216Y-136280577D01*
X150373943Y-136321500D01*
X150373945Y-136321500D01*
X150504902Y-136321500D01*
X150571941Y-136341185D01*
X150617696Y-136393989D01*
X150627640Y-136463147D01*
X150598615Y-136526703D01*
X150592583Y-136533181D01*
X150503481Y-136622282D01*
X150503475Y-136622290D01*
X150424426Y-136759209D01*
X150424423Y-136759216D01*
X150383500Y-136911943D01*
X150383500Y-136938454D01*
X150363815Y-137005493D01*
X150347190Y-137026127D01*
X149004868Y-138368709D01*
X146301398Y-141072702D01*
X145849014Y-141525173D01*
X145787694Y-141558664D01*
X145761324Y-141561500D01*
X145734943Y-141561500D01*
X145582216Y-141602423D01*
X145582209Y-141602426D01*
X145445290Y-141681475D01*
X145445282Y-141681481D01*
X145333481Y-141793282D01*
X145333475Y-141793290D01*
X145254426Y-141930209D01*
X145254423Y-141930216D01*
X145213500Y-142082943D01*
X145213500Y-142241057D01*
X145249686Y-142376103D01*
X145254423Y-142393783D01*
X145254426Y-142393790D01*
X145333475Y-142530709D01*
X145333479Y-142530714D01*
X145333480Y-142530716D01*
X145445284Y-142642520D01*
X145445286Y-142642521D01*
X145445290Y-142642524D01*
X145582209Y-142721573D01*
X145582216Y-142721577D01*
X145734943Y-142762500D01*
X145734945Y-142762500D01*
X145893055Y-142762500D01*
X145893057Y-142762500D01*
X146045784Y-142721577D01*
X146182716Y-142642520D01*
X146294520Y-142530716D01*
X146373577Y-142393784D01*
X146414500Y-142241057D01*
X146414500Y-142214544D01*
X146434185Y-142147505D01*
X146450805Y-142126875D01*
X149949197Y-138627807D01*
X150010514Y-138594318D01*
X150080206Y-138599296D01*
X150124565Y-138627801D01*
X150126480Y-138629716D01*
X150238284Y-138741520D01*
X150238286Y-138741521D01*
X150238290Y-138741524D01*
X150323522Y-138790732D01*
X150375216Y-138820577D01*
X150527943Y-138861500D01*
X150527945Y-138861500D01*
X150686055Y-138861500D01*
X150686057Y-138861500D01*
X150838784Y-138820577D01*
X150975716Y-138741520D01*
X151087520Y-138629716D01*
X151166577Y-138492784D01*
X151207500Y-138340057D01*
X151207500Y-138313610D01*
X151227185Y-138246571D01*
X151243819Y-138225929D01*
X152176077Y-137293671D01*
X153115485Y-136354263D01*
X153171503Y-136257237D01*
X153200500Y-136149018D01*
X153200500Y-136036982D01*
X153200500Y-131058506D01*
X153220185Y-130991467D01*
X153236790Y-130970853D01*
X153245310Y-130962328D01*
X154616526Y-129590221D01*
X154616529Y-129590224D01*
X154616552Y-129590194D01*
X154656485Y-129550263D01*
X154656489Y-129550254D01*
X154656560Y-129550160D01*
X154656569Y-129550153D01*
X154675149Y-129517946D01*
X154683885Y-129502805D01*
X154683903Y-129502773D01*
X154686990Y-129497425D01*
X154712503Y-129453237D01*
X154712504Y-129453233D01*
X154712515Y-129453214D01*
X154712548Y-129453133D01*
X154712553Y-129453112D01*
X154712556Y-129453108D01*
X154726920Y-129399430D01*
X154726940Y-129399396D01*
X154726930Y-129399394D01*
X154729471Y-129389907D01*
X154741500Y-129345018D01*
X154741500Y-129345009D01*
X154741516Y-129344885D01*
X154741518Y-129344881D01*
X154741500Y-129287335D01*
X154741500Y-123299609D01*
X154761185Y-123232570D01*
X154777815Y-123211932D01*
X155036327Y-122953419D01*
X155097648Y-122919936D01*
X155167339Y-122924920D01*
X155223273Y-122966791D01*
X155231393Y-122979102D01*
X155233477Y-122982712D01*
X155233479Y-122982715D01*
X155233480Y-122982716D01*
X155345284Y-123094520D01*
X155345286Y-123094521D01*
X155345290Y-123094524D01*
X155418460Y-123136768D01*
X155482216Y-123173577D01*
X155634943Y-123214500D01*
X155634945Y-123214500D01*
X155793055Y-123214500D01*
X155793057Y-123214500D01*
X155945784Y-123173577D01*
X156082716Y-123094520D01*
X156101417Y-123075819D01*
X156162740Y-123042334D01*
X156189098Y-123039500D01*
X161007216Y-123039500D01*
X161069216Y-123056113D01*
X161075216Y-123059577D01*
X161227943Y-123100500D01*
X161227945Y-123100500D01*
X161386055Y-123100500D01*
X161386057Y-123100500D01*
X161538784Y-123059577D01*
X161675716Y-122980520D01*
X161787520Y-122868716D01*
X161866577Y-122731784D01*
X161907500Y-122579057D01*
X161907500Y-122420943D01*
X161866577Y-122268216D01*
X161850567Y-122240485D01*
X161787524Y-122131290D01*
X161787518Y-122131282D01*
X161675717Y-122019481D01*
X161675709Y-122019475D01*
X161538790Y-121940426D01*
X161538786Y-121940424D01*
X161538784Y-121940423D01*
X161386057Y-121899500D01*
X161227943Y-121899500D01*
X161075216Y-121940423D01*
X161075209Y-121940426D01*
X160938290Y-122019475D01*
X160938282Y-122019481D01*
X160826481Y-122131282D01*
X160821530Y-122137735D01*
X160819272Y-122136002D01*
X160778688Y-122174709D01*
X160721855Y-122188500D01*
X157683610Y-122188500D01*
X157616571Y-122168815D01*
X157570816Y-122116011D01*
X157560872Y-122046853D01*
X157589897Y-121983297D01*
X157595929Y-121976819D01*
X157935929Y-121636819D01*
X157997252Y-121603334D01*
X158023610Y-121600500D01*
X158050055Y-121600500D01*
X158050057Y-121600500D01*
X158202784Y-121559577D01*
X158339716Y-121480520D01*
X158451520Y-121368716D01*
X158530577Y-121231784D01*
X158571500Y-121079057D01*
X158571500Y-120920943D01*
X158530577Y-120768216D01*
X158521488Y-120752473D01*
X158451524Y-120631290D01*
X158451518Y-120631282D01*
X158339717Y-120519481D01*
X158339709Y-120519475D01*
X158302388Y-120497928D01*
X158254172Y-120447362D01*
X158240948Y-120378755D01*
X158266916Y-120313890D01*
X158302387Y-120283154D01*
X158353716Y-120253520D01*
X158465520Y-120141716D01*
X158544577Y-120004784D01*
X158585500Y-119852057D01*
X158585500Y-119693943D01*
X158544577Y-119541216D01*
X158492232Y-119450551D01*
X158465524Y-119404290D01*
X158465518Y-119404282D01*
X158353714Y-119292478D01*
X158352657Y-119291667D01*
X158351991Y-119290755D01*
X158347969Y-119286733D01*
X158348596Y-119286105D01*
X158311455Y-119235239D01*
X158307302Y-119165493D01*
X158320758Y-119131292D01*
X158344259Y-119090587D01*
X158348503Y-119083237D01*
X158355724Y-119056288D01*
X158365588Y-119019479D01*
X158377499Y-118975021D01*
X158377500Y-118975019D01*
X158377500Y-118862982D01*
X158377500Y-118307982D01*
X158348503Y-118199763D01*
X158292485Y-118102737D01*
X158213263Y-118023515D01*
X157882263Y-117692515D01*
X157817579Y-117655169D01*
X157785239Y-117636498D01*
X157785238Y-117636497D01*
X157785237Y-117636497D01*
X157677018Y-117607500D01*
X157677017Y-117607500D01*
X157636610Y-117607500D01*
X157569571Y-117587815D01*
X157523816Y-117535011D01*
X157513872Y-117465853D01*
X157542897Y-117402297D01*
X157548929Y-117395819D01*
X158035929Y-116908819D01*
X158097252Y-116875334D01*
X158123610Y-116872500D01*
X160042902Y-116872500D01*
X160109941Y-116892185D01*
X160130583Y-116908819D01*
X160149284Y-116927520D01*
X160149286Y-116927521D01*
X160149290Y-116927524D01*
X160247085Y-116983985D01*
X160286216Y-117006577D01*
X160438943Y-117047500D01*
X160438945Y-117047500D01*
X160597055Y-117047500D01*
X160597057Y-117047500D01*
X160749784Y-117006577D01*
X160886716Y-116927520D01*
X160998139Y-116816096D01*
X161059458Y-116782614D01*
X161129150Y-116787598D01*
X161173490Y-116816091D01*
X163186875Y-118829098D01*
X165565173Y-121206950D01*
X165598664Y-121268269D01*
X165601500Y-121294638D01*
X165601500Y-127609500D01*
X165581815Y-127676539D01*
X165529011Y-127722294D01*
X165477500Y-127733500D01*
X159943610Y-127733500D01*
X159876571Y-127713815D01*
X159855929Y-127697181D01*
X157236819Y-125078071D01*
X157203334Y-125016748D01*
X157200500Y-124990390D01*
X157200500Y-124963945D01*
X157200500Y-124963943D01*
X157159577Y-124811216D01*
X157100800Y-124709410D01*
X157080524Y-124674290D01*
X157080518Y-124674282D01*
X156968717Y-124562481D01*
X156968709Y-124562475D01*
X156831790Y-124483426D01*
X156831786Y-124483424D01*
X156831784Y-124483423D01*
X156679057Y-124442500D01*
X156520943Y-124442500D01*
X156368216Y-124483423D01*
X156368209Y-124483426D01*
X156231290Y-124562475D01*
X156231282Y-124562481D01*
X156119481Y-124674282D01*
X156119475Y-124674290D01*
X156040426Y-124811209D01*
X156040423Y-124811216D01*
X155999500Y-124963943D01*
X155999500Y-125122057D01*
X156030170Y-125236517D01*
X156040423Y-125274783D01*
X156040426Y-125274790D01*
X156119475Y-125411709D01*
X156119479Y-125411714D01*
X156119480Y-125411716D01*
X156231284Y-125523520D01*
X156231286Y-125523521D01*
X156231290Y-125523524D01*
X156298228Y-125562170D01*
X156368216Y-125602577D01*
X156520943Y-125643500D01*
X156547390Y-125643500D01*
X156614429Y-125663185D01*
X156635071Y-125679819D01*
X159375515Y-128420263D01*
X159454737Y-128499485D01*
X159489385Y-128519489D01*
X159551763Y-128555503D01*
X159659981Y-128584500D01*
X159659982Y-128584500D01*
X165551902Y-128584500D01*
X165618941Y-128604185D01*
X165639583Y-128620819D01*
X165658284Y-128639520D01*
X165658286Y-128639521D01*
X165658290Y-128639524D01*
X165795209Y-128718573D01*
X165795216Y-128718577D01*
X165947943Y-128759500D01*
X165947945Y-128759500D01*
X166106055Y-128759500D01*
X166106057Y-128759500D01*
X166258784Y-128718577D01*
X166395716Y-128639520D01*
X166507520Y-128527716D01*
X166586577Y-128390784D01*
X166627500Y-128238057D01*
X166627500Y-128079943D01*
X166586577Y-127927216D01*
X166556992Y-127875973D01*
X166507524Y-127790290D01*
X166507518Y-127790282D01*
X166488819Y-127771583D01*
X166455334Y-127710260D01*
X166452500Y-127683902D01*
X166452500Y-121122997D01*
X166452505Y-121122979D01*
X166452500Y-121066960D01*
X166452500Y-121010982D01*
X166452500Y-121010981D01*
X166452497Y-121010959D01*
X166452497Y-121010958D01*
X166452495Y-121010943D01*
X166449227Y-120998752D01*
X166435758Y-120948500D01*
X166423503Y-120902763D01*
X166423501Y-120902760D01*
X166423497Y-120902744D01*
X166423489Y-120902730D01*
X166423488Y-120902726D01*
X166395827Y-120854828D01*
X166390260Y-120845185D01*
X166367533Y-120805819D01*
X166367486Y-120805737D01*
X166367467Y-120805712D01*
X166329964Y-120768216D01*
X166288263Y-120726515D01*
X166288244Y-120726504D01*
X166162506Y-120600790D01*
X160987967Y-115427219D01*
X160987958Y-115427210D01*
X160945265Y-115384516D01*
X160945239Y-115384496D01*
X160945231Y-115384491D01*
X160896365Y-115356284D01*
X160896364Y-115356283D01*
X160896357Y-115356279D01*
X160896355Y-115356278D01*
X160848237Y-115328497D01*
X160848216Y-115328491D01*
X160848200Y-115328482D01*
X160847927Y-115328409D01*
X160847924Y-115328407D01*
X160847439Y-115328278D01*
X160846795Y-115327885D01*
X160843268Y-115326391D01*
X160841972Y-115325943D01*
X160840974Y-115325536D01*
X160841346Y-115324622D01*
X160841107Y-115324485D01*
X160840956Y-115324327D01*
X160787776Y-115291918D01*
X160757241Y-115229074D01*
X160765529Y-115159698D01*
X160810010Y-115105816D01*
X160876560Y-115084535D01*
X160879522Y-115084500D01*
X171801500Y-115084500D01*
X171868539Y-115104185D01*
X171914294Y-115156989D01*
X171925500Y-115208500D01*
X171925500Y-115208943D01*
X171925500Y-115367057D01*
X171966367Y-115519573D01*
X171966423Y-115519783D01*
X171966426Y-115519790D01*
X172045475Y-115656709D01*
X172045481Y-115656717D01*
X172064181Y-115675417D01*
X172097666Y-115736740D01*
X172100500Y-115763098D01*
X172100500Y-124809982D01*
X172100500Y-124922018D01*
X172124109Y-125010126D01*
X172129497Y-125030236D01*
X172129498Y-125030239D01*
X172137888Y-125044770D01*
X172185515Y-125127263D01*
X173426737Y-126368485D01*
X173523763Y-126424503D01*
X173631981Y-126453500D01*
X173631982Y-126453500D01*
X174306500Y-126453500D01*
X174315185Y-126456050D01*
X174324147Y-126454762D01*
X174348187Y-126465740D01*
X174373539Y-126473185D01*
X174379466Y-126480025D01*
X174387703Y-126483787D01*
X174401992Y-126506021D01*
X174419294Y-126525989D01*
X174421581Y-126536503D01*
X174425477Y-126542565D01*
X174430500Y-126577500D01*
X174430500Y-126602390D01*
X174410815Y-126669429D01*
X174394181Y-126690071D01*
X165792071Y-135292181D01*
X165730748Y-135325666D01*
X165704390Y-135328500D01*
X157576098Y-135328500D01*
X157509059Y-135308815D01*
X157488417Y-135292181D01*
X157469717Y-135273481D01*
X157469709Y-135273475D01*
X157332790Y-135194426D01*
X157332786Y-135194424D01*
X157332784Y-135194423D01*
X157180057Y-135153500D01*
X157021943Y-135153500D01*
X156869216Y-135194423D01*
X156869209Y-135194426D01*
X156732290Y-135273475D01*
X156732282Y-135273481D01*
X156620477Y-135385286D01*
X156617123Y-135389657D01*
X156560691Y-135430853D01*
X156490944Y-135435000D01*
X156431075Y-135401840D01*
X155178819Y-134149584D01*
X155145334Y-134088261D01*
X155142500Y-134061903D01*
X155142500Y-131376945D01*
X155142500Y-131376943D01*
X155101577Y-131224216D01*
X155083862Y-131193532D01*
X155022524Y-131087290D01*
X155022518Y-131087282D01*
X154910717Y-130975481D01*
X154910709Y-130975475D01*
X154773790Y-130896426D01*
X154773786Y-130896424D01*
X154773784Y-130896423D01*
X154621057Y-130855500D01*
X154462943Y-130855500D01*
X154310216Y-130896423D01*
X154310209Y-130896426D01*
X154173290Y-130975475D01*
X154173282Y-130975481D01*
X154061481Y-131087282D01*
X154061475Y-131087290D01*
X153982426Y-131224209D01*
X153982423Y-131224216D01*
X153941500Y-131376943D01*
X153941500Y-134275330D01*
X153941499Y-134275348D01*
X153941499Y-134441054D01*
X153941498Y-134441054D01*
X153941499Y-134441057D01*
X153982423Y-134593785D01*
X153982424Y-134593787D01*
X153982423Y-134593787D01*
X153996691Y-134618498D01*
X153996693Y-134618500D01*
X154061479Y-134730714D01*
X154061481Y-134730717D01*
X154180349Y-134849585D01*
X154180355Y-134849590D01*
X160053083Y-140722318D01*
X160086568Y-140783641D01*
X160081584Y-140853333D01*
X160053083Y-140897680D01*
X158354286Y-142596478D01*
X158242481Y-142708282D01*
X158242479Y-142708284D01*
X158230049Y-142729815D01*
X158211179Y-142762500D01*
X158163423Y-142845215D01*
X158122499Y-142997943D01*
X158122499Y-142997945D01*
X158122499Y-143166046D01*
X158122500Y-143166059D01*
X158122500Y-152798057D01*
X158144858Y-152881496D01*
X158163423Y-152950783D01*
X158163426Y-152950790D01*
X158242475Y-153087709D01*
X158242479Y-153087714D01*
X158242480Y-153087716D01*
X158354284Y-153199520D01*
X158354286Y-153199521D01*
X158354290Y-153199524D01*
X158387172Y-153218508D01*
X158491216Y-153278577D01*
X158643943Y-153319500D01*
X158643945Y-153319500D01*
X158802055Y-153319500D01*
X158802057Y-153319500D01*
X158954784Y-153278577D01*
X159091716Y-153199520D01*
X159203520Y-153087716D01*
X159282577Y-152950784D01*
X159288689Y-152927973D01*
X168399500Y-152927973D01*
X168399500Y-153172026D01*
X168422857Y-153319499D01*
X168437679Y-153413076D01*
X168483272Y-153553397D01*
X168513097Y-153645187D01*
X168623896Y-153862642D01*
X168767339Y-154060076D01*
X168767343Y-154060081D01*
X168939918Y-154232656D01*
X168939923Y-154232660D01*
X169112136Y-154357779D01*
X169137361Y-154376106D01*
X169354815Y-154486904D01*
X169586924Y-154562321D01*
X169827973Y-154600500D01*
X169827974Y-154600500D01*
X170072026Y-154600500D01*
X170072027Y-154600500D01*
X170313076Y-154562321D01*
X170545185Y-154486904D01*
X170762639Y-154376106D01*
X170960083Y-154232655D01*
X171132655Y-154060083D01*
X171276106Y-153862639D01*
X171386904Y-153645185D01*
X171462321Y-153413076D01*
X171500500Y-153172027D01*
X171500500Y-152927973D01*
X171493138Y-152881491D01*
X179149500Y-152881491D01*
X179149500Y-153218508D01*
X179187231Y-153553381D01*
X179187233Y-153553397D01*
X179262223Y-153881953D01*
X179262227Y-153881965D01*
X179373532Y-154200054D01*
X179519752Y-154503683D01*
X179519754Y-154503686D01*
X179699054Y-154789039D01*
X179909175Y-155052523D01*
X180147477Y-155290825D01*
X180410961Y-155500946D01*
X180696314Y-155680246D01*
X180999949Y-155826469D01*
X181238848Y-155910063D01*
X181318034Y-155937772D01*
X181318046Y-155937776D01*
X181646606Y-156012767D01*
X181981492Y-156050499D01*
X181981493Y-156050500D01*
X181981496Y-156050500D01*
X182318507Y-156050500D01*
X182318507Y-156050499D01*
X182653394Y-156012767D01*
X182981954Y-155937776D01*
X183300051Y-155826469D01*
X183603686Y-155680246D01*
X183889039Y-155500946D01*
X184152523Y-155290825D01*
X184390825Y-155052523D01*
X184600946Y-154789039D01*
X184780246Y-154503686D01*
X184926469Y-154200051D01*
X185037776Y-153881954D01*
X185112767Y-153553394D01*
X185150500Y-153218504D01*
X185150500Y-152881496D01*
X185112767Y-152546606D01*
X185037776Y-152218046D01*
X184926469Y-151899949D01*
X184780246Y-151596314D01*
X184600946Y-151310961D01*
X184390825Y-151047477D01*
X184152523Y-150809175D01*
X183889039Y-150599054D01*
X183603686Y-150419754D01*
X183603683Y-150419752D01*
X183300054Y-150273532D01*
X182981965Y-150162227D01*
X182981953Y-150162223D01*
X182653397Y-150087233D01*
X182653381Y-150087231D01*
X182318508Y-150049500D01*
X182318504Y-150049500D01*
X181981496Y-150049500D01*
X181981491Y-150049500D01*
X181646618Y-150087231D01*
X181646602Y-150087233D01*
X181318046Y-150162223D01*
X181318034Y-150162227D01*
X180999945Y-150273532D01*
X180696316Y-150419752D01*
X180410962Y-150599053D01*
X180147477Y-150809174D01*
X179909174Y-151047477D01*
X179699053Y-151310962D01*
X179519752Y-151596316D01*
X179373532Y-151899945D01*
X179262227Y-152218034D01*
X179262223Y-152218046D01*
X179187233Y-152546602D01*
X179187231Y-152546618D01*
X179149500Y-152881491D01*
X171493138Y-152881491D01*
X171462321Y-152686924D01*
X171386904Y-152454815D01*
X171276106Y-152237361D01*
X171257779Y-152212136D01*
X171132660Y-152039923D01*
X171132656Y-152039918D01*
X170960081Y-151867343D01*
X170960076Y-151867339D01*
X170762642Y-151723896D01*
X170762641Y-151723895D01*
X170762639Y-151723894D01*
X170545185Y-151613096D01*
X170313076Y-151537679D01*
X170313074Y-151537678D01*
X170313072Y-151537678D01*
X170144769Y-151511021D01*
X170072027Y-151499500D01*
X169827973Y-151499500D01*
X169772093Y-151508350D01*
X169586927Y-151537678D01*
X169354812Y-151613097D01*
X169137357Y-151723896D01*
X168939923Y-151867339D01*
X168939918Y-151867343D01*
X168767343Y-152039918D01*
X168767339Y-152039923D01*
X168623896Y-152237357D01*
X168513097Y-152454812D01*
X168437678Y-152686927D01*
X168399500Y-152927973D01*
X159288689Y-152927973D01*
X159323500Y-152798057D01*
X159323500Y-146831491D01*
X164999500Y-146831491D01*
X164999500Y-147168508D01*
X165037231Y-147503381D01*
X165037233Y-147503397D01*
X165112223Y-147831953D01*
X165112227Y-147831965D01*
X165223532Y-148150054D01*
X165369752Y-148453683D01*
X165369754Y-148453686D01*
X165549054Y-148739039D01*
X165759175Y-149002523D01*
X165997477Y-149240825D01*
X166260961Y-149450946D01*
X166546314Y-149630246D01*
X166849949Y-149776469D01*
X167088848Y-149860063D01*
X167168034Y-149887772D01*
X167168046Y-149887776D01*
X167496606Y-149962767D01*
X167831492Y-150000499D01*
X167831493Y-150000500D01*
X167831496Y-150000500D01*
X168168507Y-150000500D01*
X168168507Y-150000499D01*
X168503394Y-149962767D01*
X168831954Y-149887776D01*
X169150051Y-149776469D01*
X169453686Y-149630246D01*
X169739039Y-149450946D01*
X170002523Y-149240825D01*
X170240825Y-149002523D01*
X170450946Y-148739039D01*
X170630246Y-148453686D01*
X170776469Y-148150051D01*
X170887776Y-147831954D01*
X170962767Y-147503394D01*
X171000500Y-147168504D01*
X171000500Y-146831496D01*
X170962767Y-146496606D01*
X170887776Y-146168046D01*
X170875870Y-146134022D01*
X170860063Y-146088848D01*
X170776469Y-145849949D01*
X170630246Y-145546314D01*
X170450946Y-145260961D01*
X170240825Y-144997477D01*
X170002523Y-144759175D01*
X169739039Y-144549054D01*
X169453686Y-144369754D01*
X169453683Y-144369752D01*
X169150054Y-144223532D01*
X168831965Y-144112227D01*
X168831953Y-144112223D01*
X168503397Y-144037233D01*
X168503381Y-144037231D01*
X168168508Y-143999500D01*
X168168504Y-143999500D01*
X167831496Y-143999500D01*
X167831491Y-143999500D01*
X167496618Y-144037231D01*
X167496602Y-144037233D01*
X167168046Y-144112223D01*
X167168034Y-144112227D01*
X166849945Y-144223532D01*
X166546316Y-144369752D01*
X166260962Y-144549053D01*
X165997477Y-144759174D01*
X165759174Y-144997477D01*
X165549053Y-145260962D01*
X165369752Y-145546316D01*
X165223532Y-145849945D01*
X165112227Y-146168034D01*
X165112223Y-146168046D01*
X165037233Y-146496602D01*
X165037231Y-146496618D01*
X164999500Y-146831491D01*
X159323500Y-146831491D01*
X159323500Y-143377097D01*
X159343185Y-143310058D01*
X159359819Y-143289416D01*
X161470519Y-141178716D01*
X161983633Y-140665602D01*
X163858506Y-138790727D01*
X163858511Y-138790724D01*
X163868714Y-138780520D01*
X163868716Y-138780520D01*
X163980520Y-138668716D01*
X164056212Y-138537613D01*
X164059577Y-138531785D01*
X164100501Y-138379057D01*
X164100501Y-138220943D01*
X164059577Y-138068215D01*
X164015823Y-137992432D01*
X163980520Y-137931284D01*
X163868716Y-137819480D01*
X163779923Y-137768216D01*
X163779922Y-137768215D01*
X163731783Y-137740422D01*
X163675881Y-137725443D01*
X163579057Y-137699499D01*
X163420943Y-137699499D01*
X163341010Y-137720917D01*
X163268216Y-137740422D01*
X163220075Y-137768217D01*
X163220074Y-137768216D01*
X163131287Y-137819477D01*
X163131282Y-137819481D01*
X163019478Y-137931286D01*
X161077680Y-139873083D01*
X161016357Y-139906568D01*
X160946665Y-139901584D01*
X160902318Y-139873083D01*
X157453159Y-136423924D01*
X157447721Y-136413966D01*
X157438894Y-136406834D01*
X157431275Y-136383848D01*
X157419674Y-136362601D01*
X157420483Y-136351284D01*
X157416913Y-136340512D01*
X157422930Y-136317059D01*
X157424658Y-136292909D01*
X157431908Y-136282073D01*
X157434279Y-136272834D01*
X157449704Y-136255475D01*
X157456459Y-136245381D01*
X157465587Y-136236903D01*
X157469716Y-136234520D01*
X157490048Y-136214187D01*
X157491717Y-136212638D01*
X157521022Y-136198015D01*
X157549740Y-136182334D01*
X157553192Y-136181962D01*
X157554236Y-136181442D01*
X157556124Y-136181647D01*
X157576098Y-136179500D01*
X165988016Y-136179500D01*
X165988018Y-136179500D01*
X166096237Y-136150503D01*
X166193263Y-136094485D01*
X174995928Y-127291818D01*
X175020393Y-127278459D01*
X175043115Y-127262298D01*
X175053044Y-127260631D01*
X175057251Y-127258334D01*
X175077775Y-127255637D01*
X175080684Y-127255500D01*
X175110057Y-127255500D01*
X175116320Y-127253821D01*
X175129666Y-127253193D01*
X175151120Y-127258409D01*
X175173189Y-127258923D01*
X175184402Y-127266503D01*
X175197558Y-127269702D01*
X175212785Y-127285689D01*
X175231074Y-127298052D01*
X175236409Y-127310493D01*
X175245746Y-127320295D01*
X175249912Y-127341974D01*
X175258615Y-127362265D01*
X175259500Y-127377056D01*
X175259500Y-132362390D01*
X175239815Y-132429429D01*
X175223181Y-132450071D01*
X169060071Y-138613181D01*
X168998748Y-138646666D01*
X168972390Y-138649500D01*
X168945943Y-138649500D01*
X168793216Y-138690423D01*
X168793209Y-138690426D01*
X168656290Y-138769475D01*
X168656282Y-138769481D01*
X168544481Y-138881282D01*
X168544475Y-138881290D01*
X168465426Y-139018209D01*
X168465423Y-139018216D01*
X168424500Y-139170943D01*
X168424500Y-139329057D01*
X168462345Y-139470294D01*
X168465423Y-139481783D01*
X168465426Y-139481790D01*
X168544475Y-139618709D01*
X168544479Y-139618714D01*
X168544480Y-139618716D01*
X168656284Y-139730520D01*
X168656285Y-139730521D01*
X168656287Y-139730522D01*
X168782894Y-139803618D01*
X168831109Y-139854184D01*
X168844333Y-139922791D01*
X168818365Y-139987656D01*
X168808576Y-139998685D01*
X168767343Y-140039918D01*
X168767339Y-140039923D01*
X168623896Y-140237357D01*
X168513097Y-140454812D01*
X168437678Y-140686927D01*
X168415329Y-140828034D01*
X168399500Y-140927973D01*
X168399500Y-141172027D01*
X168437679Y-141413076D01*
X168513096Y-141645185D01*
X168618258Y-141851578D01*
X168623896Y-141862642D01*
X168767339Y-142060076D01*
X168767343Y-142060081D01*
X168939918Y-142232656D01*
X168939923Y-142232660D01*
X169094488Y-142344957D01*
X169137361Y-142376106D01*
X169354815Y-142486904D01*
X169586924Y-142562321D01*
X169827973Y-142600500D01*
X169827974Y-142600500D01*
X170072026Y-142600500D01*
X170072027Y-142600500D01*
X170313076Y-142562321D01*
X170545185Y-142486904D01*
X170762639Y-142376106D01*
X170960083Y-142232655D01*
X171132655Y-142060083D01*
X171276106Y-141862639D01*
X171386904Y-141645185D01*
X171462321Y-141413076D01*
X171500500Y-141172027D01*
X171500500Y-140927973D01*
X171462321Y-140686924D01*
X171386904Y-140454815D01*
X171276106Y-140237361D01*
X171204987Y-140139474D01*
X171132660Y-140039923D01*
X171132656Y-140039918D01*
X170960081Y-139867343D01*
X170960076Y-139867339D01*
X170762642Y-139723896D01*
X170762641Y-139723895D01*
X170762639Y-139723894D01*
X170545185Y-139613096D01*
X170313076Y-139537679D01*
X170313074Y-139537678D01*
X170313072Y-139537678D01*
X170120964Y-139507251D01*
X170072027Y-139499500D01*
X169827973Y-139499500D01*
X169757424Y-139510674D01*
X169730936Y-139507251D01*
X169704228Y-139507506D01*
X169696815Y-139502841D01*
X169688130Y-139501719D01*
X169667696Y-139484518D01*
X169645092Y-139470294D01*
X169641378Y-139462363D01*
X169634678Y-139456723D01*
X169626788Y-139431205D01*
X169615462Y-139407018D01*
X169616041Y-139396447D01*
X169614039Y-139389972D01*
X169615125Y-139371726D01*
X169616184Y-139363823D01*
X169625500Y-139329057D01*
X169625500Y-139294332D01*
X169626599Y-139286134D01*
X169637580Y-139261469D01*
X169645185Y-139235570D01*
X169653957Y-139224683D01*
X169655017Y-139222304D01*
X169656838Y-139221108D01*
X169661819Y-139214928D01*
X170884317Y-137992430D01*
X172110673Y-136766073D01*
X172171994Y-136732590D01*
X172241686Y-136737574D01*
X172297619Y-136779446D01*
X172318127Y-136821663D01*
X172318500Y-136823055D01*
X172318500Y-136823057D01*
X172358796Y-136973444D01*
X172359423Y-136975783D01*
X172359426Y-136975790D01*
X172438475Y-137112709D01*
X172438479Y-137112714D01*
X172438480Y-137112716D01*
X172550284Y-137224520D01*
X172550286Y-137224521D01*
X172550290Y-137224524D01*
X172680218Y-137299537D01*
X172687216Y-137303577D01*
X172839943Y-137344500D01*
X172839945Y-137344500D01*
X172998055Y-137344500D01*
X172998057Y-137344500D01*
X173150784Y-137303577D01*
X173287716Y-137224520D01*
X173306417Y-137205819D01*
X173367740Y-137172334D01*
X173394098Y-137169500D01*
X178837016Y-137169500D01*
X178837018Y-137169500D01*
X178945237Y-137140503D01*
X179042263Y-137084485D01*
X179119819Y-137006929D01*
X179181142Y-136973444D01*
X179250834Y-136978428D01*
X179306767Y-137020300D01*
X179331184Y-137085764D01*
X179331500Y-137094610D01*
X179331500Y-137420902D01*
X179311815Y-137487941D01*
X179295181Y-137508583D01*
X179276481Y-137527282D01*
X179276475Y-137527290D01*
X179197426Y-137664209D01*
X179197423Y-137664216D01*
X179156500Y-137816943D01*
X179156500Y-137975057D01*
X179194107Y-138115406D01*
X179197423Y-138127783D01*
X179197426Y-138127790D01*
X179276475Y-138264709D01*
X179276479Y-138264714D01*
X179276480Y-138264716D01*
X179388284Y-138376520D01*
X179388286Y-138376521D01*
X179388290Y-138376524D01*
X179510679Y-138447184D01*
X179525216Y-138455577D01*
X179531707Y-138457316D01*
X179591367Y-138493677D01*
X179621899Y-138556522D01*
X179613608Y-138625898D01*
X179595471Y-138655755D01*
X179384983Y-138912236D01*
X179384975Y-138912248D01*
X179193904Y-139198206D01*
X179193893Y-139198224D01*
X179031772Y-139501530D01*
X179031770Y-139501535D01*
X178900150Y-139819293D01*
X178800308Y-140148427D01*
X178733210Y-140485750D01*
X178707188Y-140749966D01*
X178699500Y-140828031D01*
X178699500Y-141171969D01*
X178702349Y-141200891D01*
X178733210Y-141514249D01*
X178800308Y-141851572D01*
X178900150Y-142180706D01*
X179031770Y-142498464D01*
X179031772Y-142498469D01*
X179193893Y-142801775D01*
X179193904Y-142801793D01*
X179384975Y-143087751D01*
X179384985Y-143087765D01*
X179603176Y-143353632D01*
X179846367Y-143596823D01*
X179846372Y-143596827D01*
X179846373Y-143596828D01*
X180112240Y-143815019D01*
X180398213Y-144006100D01*
X180398222Y-144006105D01*
X180398224Y-144006106D01*
X180701530Y-144168227D01*
X180701532Y-144168227D01*
X180701538Y-144168231D01*
X181019295Y-144299850D01*
X181348422Y-144399690D01*
X181685750Y-144466789D01*
X182028031Y-144500500D01*
X182028034Y-144500500D01*
X182371966Y-144500500D01*
X182371969Y-144500500D01*
X182714250Y-144466789D01*
X183051578Y-144399690D01*
X183380705Y-144299850D01*
X183698462Y-144168231D01*
X184001787Y-144006100D01*
X184287760Y-143815019D01*
X184553627Y-143596828D01*
X184796828Y-143353627D01*
X185015019Y-143087760D01*
X185206100Y-142801787D01*
X185368231Y-142498462D01*
X185499850Y-142180705D01*
X185599690Y-141851578D01*
X185666789Y-141514250D01*
X185700500Y-141171969D01*
X185700500Y-140828031D01*
X185666789Y-140485750D01*
X185599690Y-140148422D01*
X185499850Y-139819295D01*
X185368231Y-139501538D01*
X185357675Y-139481790D01*
X185206106Y-139198224D01*
X185206105Y-139198222D01*
X185206100Y-139198213D01*
X185015019Y-138912240D01*
X184796828Y-138646373D01*
X184796827Y-138646372D01*
X184796823Y-138646367D01*
X184553632Y-138403176D01*
X184287765Y-138184985D01*
X184287764Y-138184984D01*
X184287760Y-138184981D01*
X184001787Y-137993900D01*
X184001782Y-137993897D01*
X184001775Y-137993893D01*
X183698469Y-137831772D01*
X183698464Y-137831770D01*
X183693744Y-137829815D01*
X183380705Y-137700150D01*
X183380704Y-137700149D01*
X183380700Y-137700148D01*
X183251335Y-137660905D01*
X183192897Y-137622608D01*
X183164440Y-137558795D01*
X183175001Y-137489728D01*
X183193798Y-137462921D01*
X183192886Y-137462173D01*
X183196751Y-137457462D01*
X183306185Y-137293684D01*
X183306192Y-137293671D01*
X183381569Y-137111692D01*
X183381569Y-137111690D01*
X183389862Y-137070000D01*
X182586988Y-137070000D01*
X182604205Y-137060060D01*
X182660060Y-137004205D01*
X182699556Y-136935796D01*
X182720000Y-136859496D01*
X182720000Y-136780504D01*
X182699556Y-136704204D01*
X182660060Y-136635795D01*
X182604205Y-136579940D01*
X182586988Y-136570000D01*
X183389862Y-136570000D01*
X184780138Y-136570000D01*
X185583012Y-136570000D01*
X185565795Y-136579940D01*
X185509940Y-136635795D01*
X185470444Y-136704204D01*
X185450000Y-136780504D01*
X185450000Y-136859496D01*
X185470444Y-136935796D01*
X185509940Y-137004205D01*
X185565795Y-137060060D01*
X185583012Y-137070000D01*
X184780138Y-137070000D01*
X184788430Y-137111690D01*
X184788430Y-137111692D01*
X184863807Y-137293671D01*
X184863814Y-137293684D01*
X184973248Y-137457462D01*
X184973251Y-137457466D01*
X185112533Y-137596748D01*
X185112537Y-137596751D01*
X185276315Y-137706185D01*
X185276328Y-137706192D01*
X185458306Y-137781569D01*
X185458318Y-137781572D01*
X185651504Y-137819999D01*
X185651508Y-137820000D01*
X185800000Y-137820000D01*
X185800000Y-137120000D01*
X186300000Y-137120000D01*
X186300000Y-137820000D01*
X186448492Y-137820000D01*
X186448495Y-137819999D01*
X186641681Y-137781572D01*
X186641693Y-137781569D01*
X186823671Y-137706192D01*
X186823684Y-137706185D01*
X186987462Y-137596751D01*
X186987466Y-137596748D01*
X187126748Y-137457466D01*
X187126751Y-137457462D01*
X187236185Y-137293684D01*
X187236192Y-137293671D01*
X187311569Y-137111692D01*
X187311569Y-137111690D01*
X187319862Y-137070000D01*
X186516988Y-137070000D01*
X186534205Y-137060060D01*
X186590060Y-137004205D01*
X186629556Y-136935796D01*
X186650000Y-136859496D01*
X186650000Y-136780504D01*
X186629556Y-136704204D01*
X186590060Y-136635795D01*
X186534205Y-136579940D01*
X186516988Y-136570000D01*
X187319862Y-136570000D01*
X187311569Y-136528309D01*
X187311569Y-136528307D01*
X187236192Y-136346328D01*
X187236185Y-136346315D01*
X187126751Y-136182537D01*
X187126748Y-136182533D01*
X186987466Y-136043251D01*
X186987462Y-136043248D01*
X186823684Y-135933814D01*
X186823671Y-135933807D01*
X186641693Y-135858430D01*
X186641681Y-135858427D01*
X186448495Y-135820000D01*
X186300000Y-135820000D01*
X186300000Y-136520000D01*
X185800000Y-136520000D01*
X185800000Y-135820000D01*
X185651504Y-135820000D01*
X185458318Y-135858427D01*
X185458306Y-135858430D01*
X185276328Y-135933807D01*
X185276315Y-135933814D01*
X185112537Y-136043248D01*
X185112533Y-136043251D01*
X184973251Y-136182533D01*
X184973248Y-136182537D01*
X184863814Y-136346315D01*
X184863807Y-136346328D01*
X184788430Y-136528307D01*
X184788430Y-136528309D01*
X184780138Y-136570000D01*
X183389862Y-136570000D01*
X183381569Y-136528309D01*
X183381569Y-136528307D01*
X183306192Y-136346328D01*
X183306185Y-136346315D01*
X183196751Y-136182537D01*
X183196748Y-136182533D01*
X183057466Y-136043251D01*
X183057462Y-136043248D01*
X182893684Y-135933814D01*
X182893677Y-135933811D01*
X182857014Y-135918624D01*
X182802611Y-135874782D01*
X182780547Y-135808488D01*
X182797827Y-135740788D01*
X182816784Y-135716385D01*
X182820505Y-135712665D01*
X182824036Y-135706550D01*
X182840315Y-135678353D01*
X182889688Y-135592836D01*
X182925500Y-135459183D01*
X182925500Y-135320817D01*
X182889688Y-135187164D01*
X182826800Y-135078238D01*
X182820507Y-135067338D01*
X182820503Y-135067333D01*
X182722666Y-134969496D01*
X182722661Y-134969492D01*
X182602838Y-134900313D01*
X182602837Y-134900312D01*
X182602836Y-134900312D01*
X182469183Y-134864500D01*
X182330817Y-134864500D01*
X182197164Y-134900312D01*
X182197163Y-134900312D01*
X182106499Y-134952657D01*
X182100597Y-134954088D01*
X182096011Y-134958063D01*
X182067048Y-134962227D01*
X182038599Y-134969129D01*
X182032861Y-134967143D01*
X182026853Y-134968007D01*
X182000231Y-134955849D01*
X181972572Y-134946276D01*
X181968819Y-134941503D01*
X181963297Y-134938982D01*
X181947473Y-134914359D01*
X181929382Y-134891354D01*
X181927965Y-134884004D01*
X181925523Y-134880204D01*
X181920500Y-134845269D01*
X181920500Y-134647610D01*
X181940185Y-134580571D01*
X181956819Y-134559929D01*
X182154929Y-134361819D01*
X182216252Y-134328334D01*
X182242610Y-134325500D01*
X182269055Y-134325500D01*
X182269057Y-134325500D01*
X182421784Y-134284577D01*
X182558716Y-134205520D01*
X182670520Y-134093716D01*
X182749577Y-133956784D01*
X182790500Y-133804057D01*
X182790500Y-133645943D01*
X182749577Y-133493216D01*
X182742976Y-133481783D01*
X182670524Y-133356290D01*
X182670518Y-133356282D01*
X182558717Y-133244481D01*
X182558709Y-133244475D01*
X182421790Y-133165426D01*
X182421786Y-133165424D01*
X182421784Y-133165423D01*
X182269057Y-133124500D01*
X182110943Y-133124500D01*
X181958216Y-133165423D01*
X181958209Y-133165426D01*
X181821290Y-133244475D01*
X181821282Y-133244481D01*
X181709481Y-133356282D01*
X181709475Y-133356290D01*
X181630426Y-133493209D01*
X181630423Y-133493216D01*
X181589500Y-133645943D01*
X181589500Y-133672390D01*
X181580855Y-133701830D01*
X181574332Y-133731817D01*
X181570577Y-133736832D01*
X181569815Y-133739429D01*
X181553181Y-133760071D01*
X181437181Y-133876071D01*
X181375858Y-133909556D01*
X181306166Y-133904572D01*
X181250233Y-133862700D01*
X181225816Y-133797236D01*
X181225500Y-133788390D01*
X181225500Y-132409610D01*
X181245185Y-132342571D01*
X181261819Y-132321929D01*
X182171929Y-131411819D01*
X182233252Y-131378334D01*
X182259610Y-131375500D01*
X182286055Y-131375500D01*
X182286057Y-131375500D01*
X182438784Y-131334577D01*
X182575716Y-131255520D01*
X182687520Y-131143716D01*
X182766577Y-131006784D01*
X182807500Y-130854057D01*
X182807500Y-130695943D01*
X182766577Y-130543216D01*
X182758818Y-130529777D01*
X182687524Y-130406290D01*
X182687518Y-130406282D01*
X182576417Y-130295181D01*
X182542932Y-130233858D01*
X182547916Y-130164166D01*
X182589788Y-130108233D01*
X182602099Y-130100112D01*
X182602831Y-130099689D01*
X182602836Y-130099688D01*
X182722665Y-130030505D01*
X182820505Y-129932665D01*
X182889688Y-129812836D01*
X182925500Y-129679183D01*
X182925500Y-129540817D01*
X182889688Y-129407164D01*
X182820505Y-129287335D01*
X182816787Y-129283617D01*
X182783302Y-129222294D01*
X182788286Y-129152602D01*
X182830158Y-129096669D01*
X182857016Y-129081374D01*
X182893680Y-129066187D01*
X182893684Y-129066185D01*
X183057462Y-128956751D01*
X183057466Y-128956748D01*
X183196748Y-128817466D01*
X183196751Y-128817462D01*
X183306185Y-128653684D01*
X183306192Y-128653671D01*
X183381569Y-128471692D01*
X183381569Y-128471690D01*
X183389862Y-128430000D01*
X182586988Y-128430000D01*
X182604205Y-128420060D01*
X182660060Y-128364205D01*
X182699556Y-128295796D01*
X182720000Y-128219496D01*
X182720000Y-128140504D01*
X182699556Y-128064204D01*
X182660060Y-127995795D01*
X182604205Y-127939940D01*
X182586988Y-127930000D01*
X183389862Y-127930000D01*
X184780138Y-127930000D01*
X185583012Y-127930000D01*
X185565795Y-127939940D01*
X185509940Y-127995795D01*
X185470444Y-128064204D01*
X185450000Y-128140504D01*
X185450000Y-128219496D01*
X185470444Y-128295796D01*
X185509940Y-128364205D01*
X185565795Y-128420060D01*
X185583012Y-128430000D01*
X184780138Y-128430000D01*
X184788430Y-128471690D01*
X184788430Y-128471692D01*
X184863807Y-128653671D01*
X184863814Y-128653684D01*
X184973248Y-128817462D01*
X184973251Y-128817466D01*
X185112533Y-128956748D01*
X185112537Y-128956751D01*
X185276315Y-129066185D01*
X185276328Y-129066192D01*
X185458306Y-129141569D01*
X185458318Y-129141572D01*
X185651504Y-129179999D01*
X185651508Y-129180000D01*
X185800000Y-129180000D01*
X185800000Y-128480000D01*
X186300000Y-128480000D01*
X186300000Y-129180000D01*
X186448492Y-129180000D01*
X186448495Y-129179999D01*
X186641681Y-129141572D01*
X186641693Y-129141569D01*
X186823671Y-129066192D01*
X186823684Y-129066185D01*
X186987462Y-128956751D01*
X186987466Y-128956748D01*
X187126748Y-128817466D01*
X187126751Y-128817462D01*
X187236185Y-128653684D01*
X187236192Y-128653671D01*
X187311569Y-128471692D01*
X187311569Y-128471690D01*
X187319862Y-128430000D01*
X186516988Y-128430000D01*
X186534205Y-128420060D01*
X186590060Y-128364205D01*
X186629556Y-128295796D01*
X186650000Y-128219496D01*
X186650000Y-128140504D01*
X186629556Y-128064204D01*
X186590060Y-127995795D01*
X186534205Y-127939940D01*
X186516988Y-127930000D01*
X187319862Y-127930000D01*
X187311569Y-127888309D01*
X187311569Y-127888307D01*
X187236192Y-127706328D01*
X187236185Y-127706315D01*
X187126751Y-127542537D01*
X187126748Y-127542533D01*
X186987466Y-127403251D01*
X186987462Y-127403248D01*
X186823684Y-127293814D01*
X186823671Y-127293807D01*
X186641693Y-127218430D01*
X186641681Y-127218427D01*
X186448495Y-127180000D01*
X186300000Y-127180000D01*
X186300000Y-127880000D01*
X185800000Y-127880000D01*
X185800000Y-127180000D01*
X185651504Y-127180000D01*
X185458318Y-127218427D01*
X185458306Y-127218430D01*
X185276328Y-127293807D01*
X185276315Y-127293814D01*
X185112537Y-127403248D01*
X185112533Y-127403251D01*
X184973251Y-127542533D01*
X184973248Y-127542537D01*
X184863814Y-127706315D01*
X184863807Y-127706328D01*
X184788430Y-127888307D01*
X184788430Y-127888309D01*
X184780138Y-127930000D01*
X183389862Y-127930000D01*
X183381569Y-127888309D01*
X183381569Y-127888307D01*
X183306192Y-127706328D01*
X183306185Y-127706315D01*
X183196751Y-127542537D01*
X183196748Y-127542533D01*
X183057466Y-127403251D01*
X183057462Y-127403248D01*
X182893684Y-127293814D01*
X182893671Y-127293807D01*
X182711693Y-127218430D01*
X182711681Y-127218427D01*
X182518495Y-127180000D01*
X182120000Y-127180000D01*
X182120000Y-127880000D01*
X181620000Y-127880000D01*
X181620000Y-127180000D01*
X181221504Y-127180000D01*
X181028318Y-127218427D01*
X181028306Y-127218430D01*
X180846328Y-127293807D01*
X180846315Y-127293814D01*
X180682537Y-127403248D01*
X180682533Y-127403251D01*
X180543251Y-127542533D01*
X180543248Y-127542537D01*
X180433814Y-127706315D01*
X180433807Y-127706328D01*
X180358430Y-127888307D01*
X180358430Y-127888309D01*
X180350138Y-127930000D01*
X181153012Y-127930000D01*
X181135795Y-127939940D01*
X181079940Y-127995795D01*
X181040444Y-128064204D01*
X181020000Y-128140504D01*
X181020000Y-128219496D01*
X181040444Y-128295796D01*
X181079940Y-128364205D01*
X181135795Y-128420060D01*
X181153012Y-128430000D01*
X180350138Y-128430000D01*
X180358430Y-128471690D01*
X180358430Y-128471692D01*
X180433807Y-128653671D01*
X180433814Y-128653684D01*
X180543248Y-128817462D01*
X180543251Y-128817466D01*
X180682533Y-128956748D01*
X180682537Y-128956751D01*
X180846315Y-129066185D01*
X180846328Y-129066192D01*
X181028306Y-129141569D01*
X181028318Y-129141572D01*
X181221504Y-129179999D01*
X181221508Y-129180000D01*
X181620000Y-129180000D01*
X181620000Y-128480000D01*
X182120000Y-128480000D01*
X182120000Y-129095607D01*
X182100315Y-129162646D01*
X182081950Y-129182616D01*
X182083082Y-129183748D01*
X181979496Y-129287333D01*
X181979492Y-129287338D01*
X181910313Y-129407161D01*
X181910312Y-129407164D01*
X181874500Y-129540817D01*
X181874500Y-129679183D01*
X181909772Y-129810818D01*
X181910312Y-129812835D01*
X181910313Y-129812838D01*
X181979492Y-129932661D01*
X181979496Y-129932666D01*
X182049726Y-130002896D01*
X182083211Y-130064219D01*
X182078227Y-130133911D01*
X182036355Y-130189844D01*
X181994144Y-130210350D01*
X181975221Y-130215421D01*
X181975209Y-130215426D01*
X181838290Y-130294475D01*
X181838282Y-130294481D01*
X181726481Y-130406282D01*
X181726475Y-130406290D01*
X181647426Y-130543209D01*
X181647423Y-130543216D01*
X181606500Y-130695943D01*
X181606500Y-130722390D01*
X181586815Y-130789429D01*
X181570181Y-130810071D01*
X180540181Y-131840071D01*
X180478858Y-131873556D01*
X180409166Y-131868572D01*
X180353233Y-131826700D01*
X180328816Y-131761236D01*
X180328500Y-131752390D01*
X180328500Y-129970945D01*
X180328500Y-129970943D01*
X180287577Y-129818216D01*
X180245596Y-129745502D01*
X180208524Y-129681290D01*
X180208518Y-129681282D01*
X180096717Y-129569481D01*
X180096709Y-129569475D01*
X179959790Y-129490426D01*
X179959786Y-129490424D01*
X179959784Y-129490423D01*
X179807057Y-129449500D01*
X179648943Y-129449500D01*
X179496216Y-129490423D01*
X179496209Y-129490426D01*
X179359290Y-129569475D01*
X179359282Y-129569481D01*
X179247481Y-129681282D01*
X179247475Y-129681290D01*
X179168426Y-129818209D01*
X179168423Y-129818216D01*
X179127500Y-129970943D01*
X179127500Y-132525500D01*
X179124949Y-132534185D01*
X179126238Y-132543147D01*
X179115259Y-132567187D01*
X179107815Y-132592539D01*
X179100974Y-132598466D01*
X179097213Y-132606703D01*
X179074978Y-132620992D01*
X179055011Y-132638294D01*
X179044496Y-132640581D01*
X179038435Y-132644477D01*
X179003500Y-132649500D01*
X178976610Y-132649500D01*
X178909571Y-132629815D01*
X178888929Y-132613181D01*
X178234173Y-131958425D01*
X178200688Y-131897102D01*
X178205672Y-131827410D01*
X178234173Y-131783063D01*
X178264846Y-131752390D01*
X178348520Y-131668716D01*
X178427577Y-131531784D01*
X178468500Y-131379057D01*
X178468500Y-131220943D01*
X178427577Y-131068216D01*
X178392109Y-131006783D01*
X178348524Y-130931290D01*
X178348518Y-130931282D01*
X178329819Y-130912583D01*
X178296334Y-130851260D01*
X178293500Y-130824902D01*
X178293500Y-127965798D01*
X178293500Y-127811982D01*
X178289890Y-127798511D01*
X178282565Y-127771172D01*
X178264504Y-127703765D01*
X178264503Y-127703764D01*
X178264503Y-127703763D01*
X178249906Y-127678480D01*
X178208485Y-127606737D01*
X178129263Y-127527515D01*
X178129262Y-127527514D01*
X178124932Y-127523184D01*
X178124921Y-127523174D01*
X175838265Y-125236517D01*
X175838264Y-125236516D01*
X175838263Y-125236515D01*
X175773579Y-125199169D01*
X175741239Y-125180498D01*
X175741238Y-125180497D01*
X175741237Y-125180497D01*
X175633018Y-125151500D01*
X175633017Y-125151500D01*
X174659932Y-125151500D01*
X174626631Y-125141721D01*
X174593125Y-125131964D01*
X174593030Y-125131855D01*
X174592893Y-125131815D01*
X174570255Y-125105689D01*
X174547252Y-125079262D01*
X174547231Y-125079118D01*
X174547138Y-125079011D01*
X174542214Y-125044770D01*
X174537155Y-125010126D01*
X174537210Y-125009965D01*
X174537194Y-125009853D01*
X174547023Y-124976239D01*
X174549519Y-124970740D01*
X174557577Y-124956784D01*
X174560056Y-124947531D01*
X174564275Y-124938239D01*
X174580691Y-124919208D01*
X174593769Y-124897751D01*
X174603121Y-124893207D01*
X174609913Y-124885334D01*
X174634010Y-124878199D01*
X174656614Y-124867218D01*
X174676799Y-124865532D01*
X174676908Y-124865500D01*
X174676969Y-124865517D01*
X174677184Y-124865500D01*
X185849579Y-124865500D01*
X185916618Y-124885185D01*
X185960062Y-124933203D01*
X185989201Y-124990390D01*
X186016006Y-125042998D01*
X186122441Y-125189494D01*
X186122445Y-125189499D01*
X186250500Y-125317554D01*
X186250505Y-125317558D01*
X186378287Y-125410396D01*
X186397006Y-125423996D01*
X186502484Y-125477740D01*
X186558360Y-125506211D01*
X186558363Y-125506212D01*
X186644476Y-125534191D01*
X186730591Y-125562171D01*
X186813429Y-125575291D01*
X186909449Y-125590500D01*
X186909454Y-125590500D01*
X187090551Y-125590500D01*
X187177259Y-125576765D01*
X187269409Y-125562171D01*
X187441639Y-125506211D01*
X187602994Y-125423996D01*
X187749501Y-125317553D01*
X187877553Y-125189501D01*
X187983996Y-125042994D01*
X188066211Y-124881639D01*
X188122171Y-124709409D01*
X188136765Y-124617259D01*
X188150500Y-124530551D01*
X188150500Y-124349448D01*
X188134019Y-124245397D01*
X188122171Y-124170591D01*
X188080877Y-124043498D01*
X188066212Y-123998363D01*
X188066211Y-123998360D01*
X188012046Y-123892057D01*
X187983996Y-123837006D01*
X187909117Y-123733943D01*
X187877558Y-123690505D01*
X187877554Y-123690500D01*
X187749499Y-123562445D01*
X187749494Y-123562441D01*
X187602997Y-123456006D01*
X187602996Y-123456005D01*
X187602994Y-123456004D01*
X187551300Y-123429664D01*
X187441639Y-123373788D01*
X187441636Y-123373787D01*
X187269410Y-123317829D01*
X187109321Y-123292473D01*
X187046186Y-123262544D01*
X187009255Y-123203232D01*
X187010253Y-123133370D01*
X187048863Y-123075137D01*
X187109321Y-123047527D01*
X187179425Y-123036422D01*
X187269409Y-123022171D01*
X187441639Y-122966211D01*
X187602994Y-122883996D01*
X187749501Y-122777553D01*
X187877553Y-122649501D01*
X187983996Y-122502994D01*
X188066211Y-122341639D01*
X188122171Y-122169409D01*
X188144327Y-122029521D01*
X188150500Y-121990551D01*
X188150500Y-121809448D01*
X188134019Y-121705397D01*
X188122171Y-121630591D01*
X188069974Y-121469943D01*
X188066212Y-121458363D01*
X188066211Y-121458360D01*
X188020534Y-121368716D01*
X187983996Y-121297006D01*
X187970396Y-121278287D01*
X187877558Y-121150505D01*
X187877554Y-121150500D01*
X187749499Y-121022445D01*
X187749494Y-121022441D01*
X187602997Y-120916006D01*
X187602996Y-120916005D01*
X187602994Y-120916004D01*
X187551300Y-120889664D01*
X187441639Y-120833788D01*
X187441636Y-120833787D01*
X187269410Y-120777829D01*
X187109321Y-120752473D01*
X187046186Y-120722544D01*
X187009255Y-120663232D01*
X187010253Y-120593370D01*
X187048863Y-120535137D01*
X187109321Y-120507527D01*
X187179425Y-120496422D01*
X187269409Y-120482171D01*
X187441639Y-120426211D01*
X187602994Y-120343996D01*
X187749501Y-120237553D01*
X187877553Y-120109501D01*
X187983996Y-119962994D01*
X188066211Y-119801639D01*
X188122171Y-119629409D01*
X188136765Y-119537259D01*
X188150500Y-119450551D01*
X188150500Y-119269448D01*
X188128617Y-119131292D01*
X188122171Y-119090591D01*
X188084094Y-118973400D01*
X188066212Y-118918363D01*
X188066211Y-118918360D01*
X188018378Y-118824485D01*
X187983996Y-118757006D01*
X187953115Y-118714502D01*
X187877558Y-118610505D01*
X187877554Y-118610500D01*
X187749499Y-118482445D01*
X187749494Y-118482441D01*
X187602997Y-118376006D01*
X187602996Y-118376005D01*
X187602994Y-118376004D01*
X187551300Y-118349664D01*
X187441639Y-118293788D01*
X187441636Y-118293787D01*
X187269410Y-118237829D01*
X187109321Y-118212473D01*
X187046186Y-118182544D01*
X187009255Y-118123232D01*
X187010253Y-118053370D01*
X187048863Y-117995137D01*
X187109321Y-117967527D01*
X187179425Y-117956422D01*
X187269409Y-117942171D01*
X187441639Y-117886211D01*
X187602994Y-117803996D01*
X187749501Y-117697553D01*
X187877553Y-117569501D01*
X187983996Y-117422994D01*
X188066211Y-117261639D01*
X188122171Y-117089409D01*
X188136765Y-116997259D01*
X188150500Y-116910551D01*
X188150500Y-116729448D01*
X188129829Y-116598943D01*
X188122171Y-116550591D01*
X188066211Y-116378361D01*
X188066211Y-116378360D01*
X188009281Y-116266631D01*
X187983996Y-116217006D01*
X187951131Y-116171771D01*
X187877558Y-116070505D01*
X187877554Y-116070500D01*
X187749499Y-115942445D01*
X187749494Y-115942441D01*
X187602997Y-115836006D01*
X187602996Y-115836005D01*
X187602994Y-115836004D01*
X187540293Y-115804056D01*
X187441639Y-115753788D01*
X187441636Y-115753787D01*
X187269410Y-115697829D01*
X187109321Y-115672473D01*
X187046186Y-115642544D01*
X187009255Y-115583232D01*
X187010253Y-115513370D01*
X187048863Y-115455137D01*
X187109321Y-115427527D01*
X187179425Y-115416422D01*
X187269409Y-115402171D01*
X187441639Y-115346211D01*
X187602994Y-115263996D01*
X187749501Y-115157553D01*
X187877553Y-115029501D01*
X187983996Y-114882994D01*
X188066211Y-114721639D01*
X188122171Y-114549409D01*
X188136765Y-114457259D01*
X188150500Y-114370551D01*
X188150500Y-114189448D01*
X188127144Y-114041989D01*
X188122171Y-114010591D01*
X188080904Y-113883582D01*
X188066212Y-113838363D01*
X188066211Y-113838360D01*
X188014928Y-113737713D01*
X187983996Y-113677006D01*
X187963492Y-113648785D01*
X187877558Y-113530505D01*
X187877554Y-113530500D01*
X187749499Y-113402445D01*
X187749494Y-113402441D01*
X187602995Y-113296004D01*
X187471314Y-113228908D01*
X187420519Y-113180934D01*
X187403724Y-113113113D01*
X187426262Y-113046978D01*
X187480977Y-113003527D01*
X187489295Y-113000492D01*
X187518217Y-112991095D01*
X187707554Y-112894622D01*
X187761716Y-112855270D01*
X187761717Y-112855270D01*
X187129408Y-112222962D01*
X187192993Y-112205925D01*
X187307007Y-112140099D01*
X187400099Y-112047007D01*
X187465925Y-111932993D01*
X187482962Y-111869408D01*
X188115270Y-112501717D01*
X188115270Y-112501716D01*
X188154622Y-112447554D01*
X188251095Y-112258217D01*
X188316757Y-112056130D01*
X188316757Y-112056127D01*
X188350000Y-111846246D01*
X188350000Y-111633753D01*
X188316757Y-111423872D01*
X188316757Y-111423869D01*
X188251095Y-111221782D01*
X188154624Y-111032449D01*
X188115270Y-110978282D01*
X188115269Y-110978282D01*
X187482962Y-111610590D01*
X187465925Y-111547007D01*
X187400099Y-111432993D01*
X187307007Y-111339901D01*
X187192993Y-111274075D01*
X187129409Y-111257037D01*
X187761716Y-110624728D01*
X187707550Y-110585375D01*
X187706786Y-110584986D01*
X187706546Y-110584759D01*
X187703396Y-110582829D01*
X187703801Y-110582167D01*
X187655988Y-110537013D01*
X187639191Y-110469192D01*
X187661726Y-110403057D01*
X187716440Y-110359604D01*
X187763076Y-110350499D01*
X187894864Y-110350499D01*
X187894879Y-110350497D01*
X187894882Y-110350497D01*
X187919987Y-110347586D01*
X187919988Y-110347585D01*
X187919991Y-110347585D01*
X188022765Y-110302206D01*
X188102206Y-110222765D01*
X188147585Y-110119991D01*
X188150500Y-110094865D01*
X188150499Y-108305136D01*
X188150497Y-108305117D01*
X188147586Y-108280012D01*
X188147585Y-108280010D01*
X188147585Y-108280009D01*
X188102206Y-108177235D01*
X188022765Y-108097794D01*
X188022763Y-108097793D01*
X187919992Y-108052415D01*
X187894865Y-108049500D01*
X186105143Y-108049500D01*
X186105117Y-108049502D01*
X186080012Y-108052413D01*
X186080008Y-108052415D01*
X185977235Y-108097793D01*
X185897794Y-108177234D01*
X185852415Y-108280006D01*
X185852415Y-108280008D01*
X185849500Y-108305131D01*
X185849500Y-108475500D01*
X185829815Y-108542539D01*
X185777011Y-108588294D01*
X185725500Y-108599500D01*
X185568943Y-108599500D01*
X185416216Y-108640423D01*
X185416209Y-108640426D01*
X185279290Y-108719475D01*
X185279282Y-108719481D01*
X185167481Y-108831282D01*
X185167475Y-108831290D01*
X185088426Y-108968209D01*
X185088423Y-108968216D01*
X185047500Y-109120943D01*
X185047500Y-109237903D01*
X185027815Y-109304942D01*
X185011181Y-109325584D01*
X182211681Y-112125084D01*
X182150358Y-112158569D01*
X182080666Y-112153585D01*
X182024733Y-112111713D01*
X182000316Y-112046249D01*
X182000000Y-112037403D01*
X182000000Y-103381995D01*
X184699500Y-103381995D01*
X184699500Y-103618004D01*
X184699501Y-103618020D01*
X184730306Y-103852010D01*
X184791394Y-104079993D01*
X184881714Y-104298045D01*
X184881719Y-104298056D01*
X184952677Y-104420957D01*
X184999727Y-104502450D01*
X184999729Y-104502453D01*
X184999730Y-104502454D01*
X185143406Y-104689697D01*
X185143412Y-104689704D01*
X185310295Y-104856587D01*
X185310301Y-104856592D01*
X185497550Y-105000273D01*
X185628918Y-105076118D01*
X185701943Y-105118280D01*
X185701948Y-105118282D01*
X185701951Y-105118284D01*
X185920007Y-105208606D01*
X186147986Y-105269693D01*
X186381989Y-105300500D01*
X186381996Y-105300500D01*
X186618004Y-105300500D01*
X186618011Y-105300500D01*
X186852014Y-105269693D01*
X187079993Y-105208606D01*
X187298049Y-105118284D01*
X187502450Y-105000273D01*
X187689699Y-104856592D01*
X187856592Y-104689699D01*
X188000273Y-104502450D01*
X188118284Y-104298049D01*
X188208606Y-104079993D01*
X188269693Y-103852014D01*
X188300500Y-103618011D01*
X188300500Y-103381989D01*
X188269693Y-103147986D01*
X188208606Y-102920007D01*
X188118284Y-102701951D01*
X188118282Y-102701948D01*
X188118280Y-102701943D01*
X188076118Y-102628918D01*
X188000273Y-102497550D01*
X187856592Y-102310301D01*
X187856587Y-102310295D01*
X187689704Y-102143412D01*
X187689697Y-102143406D01*
X187502454Y-101999730D01*
X187502453Y-101999729D01*
X187502450Y-101999727D01*
X187420957Y-101952677D01*
X187298056Y-101881719D01*
X187298045Y-101881714D01*
X187079993Y-101791394D01*
X186852010Y-101730306D01*
X186618020Y-101699501D01*
X186618017Y-101699500D01*
X186618011Y-101699500D01*
X186381989Y-101699500D01*
X186381983Y-101699500D01*
X186381979Y-101699501D01*
X186147989Y-101730306D01*
X185920006Y-101791394D01*
X185701954Y-101881714D01*
X185701943Y-101881719D01*
X185497545Y-101999730D01*
X185310302Y-102143406D01*
X185310295Y-102143412D01*
X185143412Y-102310295D01*
X185143406Y-102310302D01*
X184999730Y-102497545D01*
X184881719Y-102701943D01*
X184881714Y-102701954D01*
X184791394Y-102920006D01*
X184730306Y-103147989D01*
X184699501Y-103381979D01*
X184699500Y-103381995D01*
X182000000Y-103381995D01*
X182000000Y-101400000D01*
X154000000Y-101400000D01*
X154000000Y-112400000D01*
X181637403Y-112400000D01*
X181658648Y-112406238D01*
X181680737Y-112407818D01*
X181691520Y-112415890D01*
X181704442Y-112419685D01*
X181718941Y-112436418D01*
X181736670Y-112449690D01*
X181741377Y-112462310D01*
X181750197Y-112472489D01*
X181753348Y-112494406D01*
X181761087Y-112515154D01*
X181758224Y-112528314D01*
X181760141Y-112541647D01*
X181750941Y-112561790D01*
X181746235Y-112583427D01*
X181732966Y-112601152D01*
X181731116Y-112605203D01*
X181725084Y-112611681D01*
X181604584Y-112732181D01*
X181543261Y-112765666D01*
X181516903Y-112768500D01*
X175625057Y-112768500D01*
X175466942Y-112768500D01*
X175314215Y-112809423D01*
X175314214Y-112809423D01*
X175314212Y-112809424D01*
X175314209Y-112809425D01*
X175264096Y-112838359D01*
X175264095Y-112838360D01*
X175234808Y-112855269D01*
X175177285Y-112888479D01*
X175177282Y-112888481D01*
X175017481Y-113048282D01*
X175017480Y-113048284D01*
X174970590Y-113129500D01*
X174938423Y-113185215D01*
X174897499Y-113337943D01*
X174897499Y-113337945D01*
X174897499Y-113496054D01*
X174897498Y-113496054D01*
X174897499Y-113496057D01*
X174938423Y-113648785D01*
X174938424Y-113648787D01*
X174938423Y-113648787D01*
X174954714Y-113677002D01*
X174954716Y-113677004D01*
X174954717Y-113677006D01*
X174983870Y-113727501D01*
X175017479Y-113785715D01*
X175129284Y-113897520D01*
X175216095Y-113947639D01*
X175216097Y-113947641D01*
X175253958Y-113969500D01*
X175266215Y-113976577D01*
X175418943Y-114017501D01*
X175418946Y-114017501D01*
X175577054Y-114017501D01*
X175577057Y-114017501D01*
X175729785Y-113976577D01*
X175729786Y-113976575D01*
X175737635Y-113974473D01*
X175738085Y-113976152D01*
X175771535Y-113969500D01*
X176795390Y-113969500D01*
X176862429Y-113989185D01*
X176908184Y-114041989D01*
X176918128Y-114111147D01*
X176889103Y-114174703D01*
X176883071Y-114181181D01*
X174483517Y-116580734D01*
X174483513Y-116580740D01*
X174427498Y-116677760D01*
X174427497Y-116677763D01*
X174398500Y-116785982D01*
X174398500Y-117299982D01*
X174398500Y-117412018D01*
X174423893Y-117506784D01*
X174427497Y-117520236D01*
X174427498Y-117520239D01*
X174446169Y-117552579D01*
X174483515Y-117617263D01*
X179027515Y-122161263D01*
X179106737Y-122240485D01*
X179163947Y-122273515D01*
X179163948Y-122273516D01*
X179203757Y-122296500D01*
X179203758Y-122296501D01*
X179203760Y-122296501D01*
X179203763Y-122296503D01*
X179311981Y-122325500D01*
X179311982Y-122325500D01*
X185849579Y-122325500D01*
X185916618Y-122345185D01*
X185960062Y-122393203D01*
X185974197Y-122420943D01*
X186016006Y-122502998D01*
X186122441Y-122649494D01*
X186122445Y-122649499D01*
X186250500Y-122777554D01*
X186250505Y-122777558D01*
X186344411Y-122845784D01*
X186397006Y-122883996D01*
X186502484Y-122937740D01*
X186558360Y-122966211D01*
X186558363Y-122966212D01*
X186609159Y-122982716D01*
X186730591Y-123022171D01*
X186803639Y-123033740D01*
X186890678Y-123047527D01*
X186953813Y-123077456D01*
X186990744Y-123136768D01*
X186989746Y-123206631D01*
X186951136Y-123264863D01*
X186890678Y-123292473D01*
X186730589Y-123317829D01*
X186558363Y-123373787D01*
X186558360Y-123373788D01*
X186397002Y-123456006D01*
X186250505Y-123562441D01*
X186250500Y-123562445D01*
X186122445Y-123690500D01*
X186122441Y-123690505D01*
X186016006Y-123837001D01*
X186002183Y-123864131D01*
X185960062Y-123946796D01*
X185912090Y-123997591D01*
X185849579Y-124014500D01*
X179658508Y-124014500D01*
X179649826Y-124011950D01*
X179640872Y-124013239D01*
X179616829Y-124002261D01*
X179591469Y-123994815D01*
X179585544Y-123987977D01*
X179577314Y-123984220D01*
X179563020Y-123961983D01*
X179545714Y-123942011D01*
X179543427Y-123931503D01*
X179539534Y-123925446D01*
X179534508Y-123890511D01*
X179534500Y-123801652D01*
X179534500Y-123733938D01*
X179534493Y-123733885D01*
X179512555Y-123652044D01*
X179512552Y-123652033D01*
X179493577Y-123581216D01*
X179493574Y-123581210D01*
X179493573Y-123581207D01*
X179493557Y-123581167D01*
X179453378Y-123511587D01*
X179453373Y-123511580D01*
X179414520Y-123444284D01*
X179414518Y-123444282D01*
X179414514Y-123444275D01*
X179414490Y-123444244D01*
X179358592Y-123388356D01*
X179358586Y-123388350D01*
X179302716Y-123332480D01*
X179302692Y-123332466D01*
X179235077Y-123264863D01*
X173975827Y-118006553D01*
X173942336Y-117945233D01*
X173939500Y-117918864D01*
X173939500Y-114957635D01*
X173939584Y-114878585D01*
X173939583Y-114878584D01*
X173939584Y-114878578D01*
X173939582Y-114878571D01*
X173939501Y-114877948D01*
X173933008Y-114853717D01*
X173919142Y-114801967D01*
X173898821Y-114725807D01*
X173898660Y-114725528D01*
X173898577Y-114725216D01*
X173858938Y-114656559D01*
X173819909Y-114588793D01*
X173819908Y-114588792D01*
X173819900Y-114588778D01*
X173819521Y-114588285D01*
X173763193Y-114531957D01*
X173353658Y-114121555D01*
X173347682Y-114115566D01*
X173347520Y-114115284D01*
X173291431Y-114059195D01*
X173236224Y-114003871D01*
X173236223Y-114003870D01*
X173236218Y-114003865D01*
X173235716Y-114003480D01*
X173167439Y-113964060D01*
X173167326Y-113963995D01*
X173099371Y-113924665D01*
X173099184Y-113924588D01*
X173099100Y-113924553D01*
X173098795Y-113924425D01*
X173023296Y-113904195D01*
X173023172Y-113904162D01*
X172976588Y-113891627D01*
X172946693Y-113883583D01*
X172946691Y-113883582D01*
X172946688Y-113883582D01*
X172946561Y-113883565D01*
X172946560Y-113883564D01*
X172946077Y-113883500D01*
X172946057Y-113883500D01*
X172868109Y-113883500D01*
X172868037Y-113883499D01*
X172781290Y-113883407D01*
X172779874Y-113883500D01*
X156072941Y-113883500D01*
X156032311Y-113894386D01*
X156032312Y-113894387D01*
X155920214Y-113924423D01*
X155920209Y-113924426D01*
X155783290Y-114003475D01*
X155783282Y-114003481D01*
X155694821Y-114091943D01*
X155671480Y-114115284D01*
X155671478Y-114115286D01*
X154458268Y-115328497D01*
X153254584Y-116532181D01*
X153193261Y-116565666D01*
X153166903Y-116568500D01*
X150878280Y-116568500D01*
X150811241Y-116548815D01*
X150790561Y-116532144D01*
X150704706Y-116446216D01*
X149905118Y-115645943D01*
X149896458Y-115637276D01*
X149896458Y-115637275D01*
X149890584Y-115631396D01*
X149890520Y-115631284D01*
X149833801Y-115574565D01*
X149833799Y-115574562D01*
X149778922Y-115519639D01*
X149778863Y-115519594D01*
X149778713Y-115519478D01*
X149733225Y-115493216D01*
X149709571Y-115479559D01*
X149708922Y-115479185D01*
X149642024Y-115440523D01*
X149641899Y-115440489D01*
X149641784Y-115440423D01*
X149565850Y-115420076D01*
X149565849Y-115420075D01*
X149565850Y-115420068D01*
X149565798Y-115420062D01*
X149489312Y-115399532D01*
X149489075Y-115399500D01*
X149489057Y-115399500D01*
X149411438Y-115399500D01*
X149402521Y-115399496D01*
X149331200Y-115399466D01*
X149331199Y-115399466D01*
X149331192Y-115399466D01*
X149330950Y-115399498D01*
X149254933Y-115419866D01*
X149254884Y-115419879D01*
X149178456Y-115440323D01*
X149178223Y-115440418D01*
X149109195Y-115480270D01*
X149109156Y-115480294D01*
X149041490Y-115519323D01*
X149041399Y-115519413D01*
X149041284Y-115519480D01*
X148984398Y-115576365D01*
X148929638Y-115631079D01*
X148929573Y-115631190D01*
X148929480Y-115631284D01*
X148929407Y-115631409D01*
X148929406Y-115631411D01*
X148889594Y-115700366D01*
X148889533Y-115700474D01*
X148850523Y-115767976D01*
X148850489Y-115768100D01*
X148850423Y-115768216D01*
X148830076Y-115844149D01*
X148809531Y-115920693D01*
X148809500Y-115920922D01*
X148809500Y-115998615D01*
X148809466Y-116078800D01*
X148809499Y-116079055D01*
X148816651Y-116105745D01*
X148829866Y-116155065D01*
X148840400Y-116194448D01*
X148850325Y-116231550D01*
X148850347Y-116231603D01*
X148850418Y-116231775D01*
X148850422Y-116231783D01*
X148850423Y-116231784D01*
X148890294Y-116300843D01*
X148929323Y-116368510D01*
X148929413Y-116368600D01*
X148929481Y-116368717D01*
X148986500Y-116425736D01*
X148986526Y-116425785D01*
X148986538Y-116425774D01*
X150091600Y-117531782D01*
X150091599Y-117531782D01*
X150097414Y-117537602D01*
X150097480Y-117537716D01*
X150154197Y-117594433D01*
X150154198Y-117594435D01*
X150209080Y-117649363D01*
X150209281Y-117649517D01*
X150209284Y-117649520D01*
X150209287Y-117649521D01*
X150209290Y-117649524D01*
X150276852Y-117688531D01*
X150276926Y-117688572D01*
X150277597Y-117688960D01*
X150345976Y-117728478D01*
X150346104Y-117728512D01*
X150346216Y-117728577D01*
X150421011Y-117748617D01*
X150421059Y-117748646D01*
X150421063Y-117748632D01*
X150439200Y-117753500D01*
X150498686Y-117769467D01*
X150498689Y-117769467D01*
X150498708Y-117769470D01*
X150498831Y-117769470D01*
X150498943Y-117769500D01*
X150575413Y-117769500D01*
X150575418Y-117769500D01*
X150656801Y-117769535D01*
X150656805Y-117769533D01*
X150664575Y-117769537D01*
X150665156Y-117769500D01*
X153380331Y-117769500D01*
X153380347Y-117769501D01*
X153387943Y-117769501D01*
X153546054Y-117769501D01*
X153546057Y-117769501D01*
X153698785Y-117728577D01*
X153761246Y-117692515D01*
X153835716Y-117649520D01*
X153947520Y-117537716D01*
X153947520Y-117537714D01*
X153957724Y-117527511D01*
X153957727Y-117527506D01*
X155828820Y-115656414D01*
X155890142Y-115622930D01*
X155959834Y-115627914D01*
X156015767Y-115669786D01*
X156040184Y-115735250D01*
X156040500Y-115744096D01*
X156040500Y-115804057D01*
X156077582Y-115942447D01*
X156081423Y-115956783D01*
X156081423Y-115956784D01*
X156128222Y-116037844D01*
X156144693Y-116105745D01*
X156121841Y-116171771D01*
X156102801Y-116191503D01*
X156103031Y-116191733D01*
X155985481Y-116309282D01*
X155985475Y-116309290D01*
X155906426Y-116446209D01*
X155906423Y-116446216D01*
X155865500Y-116598943D01*
X155865500Y-116757057D01*
X155906165Y-116908819D01*
X155906423Y-116909783D01*
X155906424Y-116909786D01*
X155910060Y-116916084D01*
X155926530Y-116983985D01*
X155903676Y-117050011D01*
X155890331Y-117065784D01*
X154277128Y-118678203D01*
X154215797Y-118711673D01*
X154189468Y-118714500D01*
X152436013Y-118714500D01*
X152436006Y-118714498D01*
X152379987Y-118714500D01*
X152323978Y-118714500D01*
X152323963Y-118714503D01*
X152275145Y-118727585D01*
X152275024Y-118727617D01*
X152274849Y-118727665D01*
X152215763Y-118743497D01*
X152215757Y-118743500D01*
X152215751Y-118743502D01*
X152214649Y-118744138D01*
X152214646Y-118744139D01*
X152170721Y-118769501D01*
X152170720Y-118769501D01*
X152120807Y-118798318D01*
X152120802Y-118798322D01*
X152118737Y-118799515D01*
X152118731Y-118799520D01*
X152118727Y-118799523D01*
X152093767Y-118824485D01*
X152093108Y-118825143D01*
X152093045Y-118825205D01*
X152035220Y-118883030D01*
X152035176Y-118883077D01*
X139013334Y-131905706D01*
X135840994Y-135078238D01*
X135835053Y-135084179D01*
X135773731Y-135117665D01*
X135747369Y-135120500D01*
X135720943Y-135120500D01*
X135568216Y-135161423D01*
X135568209Y-135161426D01*
X135431290Y-135240475D01*
X135431282Y-135240481D01*
X135319481Y-135352282D01*
X135319475Y-135352290D01*
X135240426Y-135489209D01*
X135240423Y-135489216D01*
X135199500Y-135641943D01*
X135199500Y-135800057D01*
X135233055Y-135925284D01*
X135240423Y-135952783D01*
X135240426Y-135952790D01*
X135319475Y-136089709D01*
X135319479Y-136089714D01*
X135319480Y-136089716D01*
X135431284Y-136201520D01*
X135431286Y-136201521D01*
X135431290Y-136201524D01*
X135568209Y-136280573D01*
X135568216Y-136280577D01*
X135720943Y-136321500D01*
X135720945Y-136321500D01*
X135879055Y-136321500D01*
X135879057Y-136321500D01*
X136031784Y-136280577D01*
X136168716Y-136201520D01*
X136280520Y-136089716D01*
X136359577Y-135952784D01*
X136400500Y-135800057D01*
X136400500Y-135773589D01*
X136420185Y-135706550D01*
X136436812Y-135685914D01*
X152519937Y-119601820D01*
X152581259Y-119568335D01*
X152607621Y-119565500D01*
X152939415Y-119565500D01*
X153006454Y-119585185D01*
X153052209Y-119637989D01*
X153062153Y-119707147D01*
X153033128Y-119770703D01*
X153027099Y-119777179D01*
X134967622Y-137837607D01*
X134906299Y-137871094D01*
X134836608Y-137866111D01*
X134792269Y-137837620D01*
X131279248Y-134325500D01*
X131241263Y-134287515D01*
X131241241Y-134287502D01*
X131241222Y-134287483D01*
X131193493Y-134259935D01*
X131193479Y-134259927D01*
X131144237Y-134231497D01*
X131144235Y-134231496D01*
X131144231Y-134231494D01*
X131144194Y-134231478D01*
X131090566Y-134217116D01*
X131090551Y-134217112D01*
X131036013Y-134202498D01*
X131035969Y-134202493D01*
X131035964Y-134202493D01*
X130979945Y-134202500D01*
X111906982Y-134202500D01*
X111798763Y-134231497D01*
X111798760Y-134231498D01*
X111701740Y-134287513D01*
X111701734Y-134287517D01*
X111235517Y-134753734D01*
X111235513Y-134753740D01*
X111179498Y-134850760D01*
X111179497Y-134850763D01*
X111150500Y-134958982D01*
X111150500Y-135465902D01*
X111130815Y-135532941D01*
X111114181Y-135553583D01*
X111095481Y-135572282D01*
X111095475Y-135572290D01*
X111016426Y-135709209D01*
X111016423Y-135709216D01*
X110975500Y-135861943D01*
X110975500Y-135978902D01*
X110955815Y-136045941D01*
X110903011Y-136091696D01*
X110833853Y-136101640D01*
X110770297Y-136072615D01*
X110763819Y-136066583D01*
X110656717Y-135959481D01*
X110656709Y-135959475D01*
X110519790Y-135880426D01*
X110519786Y-135880424D01*
X110519784Y-135880423D01*
X110367057Y-135839500D01*
X110208943Y-135839500D01*
X110056216Y-135880423D01*
X110056209Y-135880426D01*
X109919290Y-135959475D01*
X109919282Y-135959481D01*
X109807481Y-136071282D01*
X109807475Y-136071290D01*
X109728426Y-136208209D01*
X109728423Y-136208216D01*
X109687500Y-136360943D01*
X109687500Y-136519057D01*
X109725994Y-136662716D01*
X109728423Y-136671783D01*
X109728426Y-136671790D01*
X109807475Y-136808709D01*
X109807479Y-136808714D01*
X109807480Y-136808716D01*
X109919284Y-136920520D01*
X109919286Y-136920521D01*
X109919290Y-136920524D01*
X110056209Y-136999573D01*
X110056216Y-136999577D01*
X110208943Y-137040500D01*
X110235680Y-137040500D01*
X110302719Y-137060185D01*
X110323323Y-137076781D01*
X110473824Y-137227151D01*
X110869623Y-137622608D01*
X110884810Y-137637781D01*
X110918322Y-137699089D01*
X110913368Y-137768783D01*
X110871520Y-137824735D01*
X110806067Y-137849180D01*
X110797167Y-137849500D01*
X103349931Y-137849500D01*
X103282892Y-137829815D01*
X103274443Y-137823875D01*
X103268709Y-137819475D01*
X103131790Y-137740426D01*
X103131786Y-137740424D01*
X103131784Y-137740423D01*
X102979057Y-137699500D01*
X102820943Y-137699500D01*
X102668216Y-137740423D01*
X102668209Y-137740426D01*
X102531290Y-137819475D01*
X102531282Y-137819481D01*
X102419481Y-137931282D01*
X102419475Y-137931290D01*
X102340426Y-138068209D01*
X102340423Y-138068216D01*
X102299500Y-138220943D01*
X101950500Y-138220943D01*
X101950500Y-138099930D01*
X101970185Y-138032891D01*
X101976128Y-138024438D01*
X101980512Y-138018723D01*
X101980520Y-138018716D01*
X101982961Y-138014489D01*
X102019448Y-137951290D01*
X102059577Y-137881784D01*
X102100500Y-137729057D01*
X102100500Y-137570943D01*
X102059577Y-137418216D01*
X102059573Y-137418209D01*
X101980524Y-137281290D01*
X101980518Y-137281282D01*
X101868717Y-137169481D01*
X101868709Y-137169475D01*
X101731790Y-137090426D01*
X101731786Y-137090424D01*
X101731784Y-137090423D01*
X101579057Y-137049500D01*
X101420943Y-137049500D01*
X101268216Y-137090423D01*
X101268209Y-137090426D01*
X101131290Y-137169475D01*
X101131282Y-137169481D01*
X101019481Y-137281282D01*
X101019475Y-137281290D01*
X100940426Y-137418209D01*
X100940423Y-137418216D01*
X100899500Y-137570943D01*
X100300500Y-137570943D01*
X100300500Y-120145943D01*
X121436500Y-120145943D01*
X121436500Y-120304057D01*
X121475085Y-120448056D01*
X121477423Y-120456783D01*
X121477426Y-120456790D01*
X121556475Y-120593709D01*
X121556479Y-120593714D01*
X121556480Y-120593716D01*
X121668284Y-120705520D01*
X121668286Y-120705521D01*
X121668290Y-120705524D01*
X121776879Y-120768217D01*
X121805216Y-120784577D01*
X121957943Y-120825500D01*
X121984673Y-120825500D01*
X122051712Y-120845185D01*
X122072314Y-120861780D01*
X122763144Y-121552028D01*
X122796655Y-121613336D01*
X122799500Y-121639745D01*
X122799500Y-126038902D01*
X122779815Y-126105941D01*
X122763181Y-126126583D01*
X122744481Y-126145282D01*
X122744475Y-126145290D01*
X122665426Y-126282209D01*
X122665423Y-126282216D01*
X122624500Y-126434943D01*
X122624500Y-126593056D01*
X122665423Y-126745783D01*
X122665426Y-126745790D01*
X122744475Y-126882709D01*
X122744479Y-126882714D01*
X122744480Y-126882716D01*
X122856284Y-126994520D01*
X122856286Y-126994521D01*
X122856290Y-126994524D01*
X122946183Y-127046423D01*
X122993216Y-127073577D01*
X123145943Y-127114500D01*
X123145945Y-127114500D01*
X123304055Y-127114500D01*
X123304057Y-127114500D01*
X123456784Y-127073577D01*
X123593716Y-126994520D01*
X123705520Y-126882716D01*
X123784577Y-126745784D01*
X123825500Y-126593057D01*
X123825500Y-126434943D01*
X123784577Y-126282216D01*
X123784573Y-126282209D01*
X123705524Y-126145290D01*
X123705518Y-126145282D01*
X123686819Y-126126583D01*
X123653334Y-126065260D01*
X123650500Y-126038902D01*
X123650500Y-121467928D01*
X123650524Y-121467839D01*
X123650500Y-121410629D01*
X123650500Y-121355982D01*
X123650500Y-121355979D01*
X123650477Y-121355808D01*
X123650477Y-121355803D01*
X123635746Y-121300919D01*
X123626998Y-121268269D01*
X123621504Y-121247764D01*
X123621436Y-121247600D01*
X123597943Y-121206949D01*
X123593415Y-121199113D01*
X123565485Y-121150737D01*
X123565420Y-121150672D01*
X123565375Y-121150594D01*
X123525985Y-121111237D01*
X123486263Y-121071515D01*
X123480661Y-121065913D01*
X123480347Y-121065638D01*
X122673856Y-120259824D01*
X122640345Y-120198515D01*
X122637500Y-120172106D01*
X122637500Y-120145945D01*
X122637500Y-120145943D01*
X122596577Y-119993216D01*
X122579130Y-119962997D01*
X122517524Y-119856290D01*
X122517518Y-119856282D01*
X122405717Y-119744481D01*
X122405709Y-119744475D01*
X122268790Y-119665426D01*
X122268786Y-119665424D01*
X122268784Y-119665423D01*
X122116057Y-119624500D01*
X121957943Y-119624500D01*
X121805216Y-119665423D01*
X121805209Y-119665426D01*
X121668290Y-119744475D01*
X121668282Y-119744481D01*
X121556481Y-119856282D01*
X121556475Y-119856290D01*
X121477426Y-119993209D01*
X121477423Y-119993216D01*
X121436500Y-120145943D01*
X100300500Y-120145943D01*
X100300500Y-118274943D01*
X126030500Y-118274943D01*
X126030500Y-118433057D01*
X126043734Y-118482445D01*
X126071423Y-118585783D01*
X126071426Y-118585790D01*
X126150475Y-118722709D01*
X126150481Y-118722717D01*
X126169181Y-118741417D01*
X126202666Y-118802740D01*
X126205500Y-118829098D01*
X126205500Y-120202708D01*
X126201275Y-120234800D01*
X126186500Y-120289941D01*
X126186500Y-120289943D01*
X126186500Y-120448057D01*
X126225530Y-120593717D01*
X126227423Y-120600783D01*
X126227426Y-120600790D01*
X126306475Y-120737709D01*
X126306479Y-120737714D01*
X126306480Y-120737716D01*
X126418284Y-120849520D01*
X126418286Y-120849521D01*
X126418290Y-120849524D01*
X126510475Y-120902746D01*
X126555216Y-120928577D01*
X126707943Y-120969500D01*
X126707945Y-120969500D01*
X126866055Y-120969500D01*
X126866057Y-120969500D01*
X127018784Y-120928577D01*
X127155716Y-120849520D01*
X127267520Y-120737716D01*
X127346577Y-120600784D01*
X127387500Y-120448057D01*
X127387500Y-120289943D01*
X127346577Y-120137216D01*
X127270122Y-120004790D01*
X127267524Y-120000290D01*
X127267518Y-120000282D01*
X127155717Y-119888481D01*
X127155712Y-119888477D01*
X127118500Y-119866993D01*
X127070284Y-119816426D01*
X127056500Y-119759606D01*
X127056500Y-118829098D01*
X127076185Y-118762059D01*
X127092819Y-118741417D01*
X127111520Y-118722716D01*
X127190577Y-118585784D01*
X127231500Y-118433057D01*
X127231500Y-118274943D01*
X127190577Y-118122216D01*
X127150829Y-118053370D01*
X127111524Y-117985290D01*
X127111518Y-117985282D01*
X126999717Y-117873481D01*
X126999709Y-117873475D01*
X126862790Y-117794426D01*
X126862786Y-117794424D01*
X126862784Y-117794423D01*
X126710057Y-117753500D01*
X126551943Y-117753500D01*
X126399216Y-117794423D01*
X126399209Y-117794426D01*
X126262290Y-117873475D01*
X126262282Y-117873481D01*
X126150481Y-117985282D01*
X126150475Y-117985290D01*
X126071426Y-118122209D01*
X126071423Y-118122216D01*
X126030500Y-118274943D01*
X100300500Y-118274943D01*
X100300500Y-117225054D01*
X126965498Y-117225054D01*
X127006423Y-117377786D01*
X127006424Y-117377787D01*
X127019840Y-117401024D01*
X127080900Y-117506784D01*
X127085481Y-117514717D01*
X127204349Y-117633585D01*
X127204355Y-117633590D01*
X131484139Y-121913374D01*
X131484149Y-121913385D01*
X131488479Y-121917715D01*
X131488480Y-121917716D01*
X131600284Y-122029520D01*
X131678627Y-122074751D01*
X131737215Y-122108577D01*
X131889942Y-122149500D01*
X131889943Y-122149500D01*
X131889944Y-122149500D01*
X139957055Y-122149500D01*
X139957057Y-122149500D01*
X140109784Y-122108577D01*
X140246716Y-122029520D01*
X140358520Y-121917716D01*
X140437577Y-121780784D01*
X140478500Y-121628057D01*
X140478500Y-121469943D01*
X140437577Y-121317216D01*
X140409318Y-121268269D01*
X140358524Y-121180290D01*
X140358518Y-121180282D01*
X140246717Y-121068481D01*
X140246709Y-121068475D01*
X140109790Y-120989426D01*
X140109786Y-120989424D01*
X140109784Y-120989423D01*
X139957057Y-120948500D01*
X139957056Y-120948500D01*
X132269097Y-120948500D01*
X132202058Y-120928815D01*
X132181416Y-120912181D01*
X128053590Y-116784355D01*
X128053588Y-116784352D01*
X127934717Y-116665481D01*
X127934712Y-116665477D01*
X127837622Y-116609423D01*
X127837621Y-116609422D01*
X127797790Y-116586425D01*
X127797789Y-116586424D01*
X127776554Y-116580734D01*
X127645057Y-116545499D01*
X127486943Y-116545499D01*
X127379587Y-116574265D01*
X127334210Y-116586424D01*
X127334209Y-116586425D01*
X127294379Y-116609422D01*
X127294378Y-116609423D01*
X127197287Y-116665477D01*
X127197282Y-116665481D01*
X127085481Y-116777282D01*
X127085479Y-116777285D01*
X127080458Y-116785982D01*
X127042409Y-116851886D01*
X127006423Y-116914215D01*
X126965499Y-117066943D01*
X126965499Y-117066945D01*
X126965499Y-117225054D01*
X126965498Y-117225054D01*
X100300500Y-117225054D01*
X100300500Y-114564054D01*
X124711498Y-114564054D01*
X124711499Y-114564057D01*
X124752423Y-114716785D01*
X124755224Y-114721636D01*
X124760384Y-114730575D01*
X124760386Y-114730577D01*
X124831477Y-114853712D01*
X124831478Y-114853713D01*
X124831480Y-114853716D01*
X124943284Y-114965520D01*
X125022729Y-115011387D01*
X125080215Y-115044577D01*
X125232943Y-115085501D01*
X125232946Y-115085501D01*
X125391054Y-115085501D01*
X125391057Y-115085501D01*
X125543785Y-115044577D01*
X125601271Y-115011387D01*
X125680716Y-114965520D01*
X125792520Y-114853716D01*
X125792520Y-114853714D01*
X125802724Y-114843511D01*
X125802728Y-114843506D01*
X129927506Y-110718728D01*
X129927511Y-110718724D01*
X129937714Y-110708520D01*
X129937716Y-110708520D01*
X130049520Y-110596716D01*
X130102695Y-110504613D01*
X130128577Y-110459785D01*
X130169500Y-110307057D01*
X130169500Y-110148943D01*
X130128577Y-109996215D01*
X130099639Y-109946095D01*
X130049520Y-109859284D01*
X129937716Y-109747480D01*
X129937714Y-109747479D01*
X129937709Y-109747475D01*
X129821738Y-109680520D01*
X129821736Y-109680519D01*
X129800785Y-109668423D01*
X129648057Y-109627500D01*
X129489943Y-109627500D01*
X129337215Y-109668423D01*
X129316263Y-109680520D01*
X129316262Y-109680520D01*
X129200290Y-109747475D01*
X129200282Y-109747481D01*
X124831481Y-114116282D01*
X124831475Y-114116290D01*
X124789236Y-114189452D01*
X124789236Y-114189454D01*
X124752423Y-114253214D01*
X124752423Y-114253215D01*
X124711499Y-114405943D01*
X124711499Y-114405945D01*
X124711499Y-114564054D01*
X124711498Y-114564054D01*
X100300500Y-114564054D01*
X100300500Y-103381995D01*
X101699500Y-103381995D01*
X101699500Y-103618004D01*
X101699501Y-103618020D01*
X101730306Y-103852010D01*
X101791394Y-104079993D01*
X101881714Y-104298045D01*
X101881719Y-104298056D01*
X101952677Y-104420957D01*
X101999727Y-104502450D01*
X101999729Y-104502453D01*
X101999730Y-104502454D01*
X102143406Y-104689697D01*
X102143412Y-104689704D01*
X102310295Y-104856587D01*
X102310301Y-104856592D01*
X102497550Y-105000273D01*
X102628918Y-105076118D01*
X102701943Y-105118280D01*
X102701948Y-105118282D01*
X102701951Y-105118284D01*
X102920007Y-105208606D01*
X103147986Y-105269693D01*
X103381989Y-105300500D01*
X103381996Y-105300500D01*
X103618004Y-105300500D01*
X103618011Y-105300500D01*
X103852014Y-105269693D01*
X104079993Y-105208606D01*
X104298049Y-105118284D01*
X104502450Y-105000273D01*
X104689699Y-104856592D01*
X104856592Y-104689699D01*
X105000273Y-104502450D01*
X105118284Y-104298049D01*
X105208606Y-104079993D01*
X105269693Y-103852014D01*
X105300500Y-103618011D01*
X105300500Y-103381989D01*
X105269693Y-103147986D01*
X105208606Y-102920007D01*
X105118284Y-102701951D01*
X105118282Y-102701948D01*
X105118280Y-102701943D01*
X105076118Y-102628918D01*
X105000273Y-102497550D01*
X104856592Y-102310301D01*
X104856587Y-102310295D01*
X104689704Y-102143412D01*
X104689697Y-102143406D01*
X104502454Y-101999730D01*
X104502453Y-101999729D01*
X104502450Y-101999727D01*
X104420957Y-101952677D01*
X104298056Y-101881719D01*
X104298045Y-101881714D01*
X104079993Y-101791394D01*
X103852010Y-101730306D01*
X103618020Y-101699501D01*
X103618017Y-101699500D01*
X103618011Y-101699500D01*
X103381989Y-101699500D01*
X103381983Y-101699500D01*
X103381979Y-101699501D01*
X103147989Y-101730306D01*
X102920006Y-101791394D01*
X102701954Y-101881714D01*
X102701943Y-101881719D01*
X102497545Y-101999730D01*
X102310302Y-102143406D01*
X102310295Y-102143412D01*
X102143412Y-102310295D01*
X102143406Y-102310302D01*
X101999730Y-102497545D01*
X101881719Y-102701943D01*
X101881714Y-102701954D01*
X101791394Y-102920006D01*
X101730306Y-103147989D01*
X101699501Y-103381979D01*
X101699500Y-103381995D01*
X100300500Y-103381995D01*
X100300500Y-100424500D01*
X100320185Y-100357461D01*
X100372989Y-100311706D01*
X100424500Y-100300500D01*
X189575500Y-100300500D01*
X189642539Y-100320185D01*
G37*
%TD.AperFunction*%
%TD*%
M02*
