%TF.GenerationSoftware,KiCad,Pcbnew,9.0.9*%
%TF.CreationDate,2026-10-02T00:22:03+00:00*%
%TF.ProjectId,AP02,41503032-2e6b-4696-9361-645f70636258,rev?*%
%TF.SameCoordinates,Original*%
%TF.FileFunction,Copper,L2,Bot*%
%TF.FilePolarity,Positive*%
%FSLAX46Y46*%
G04 Gerber Fmt 4.6, Leading zero omitted, Abs format (unit mm)*
G04 Created by KiCad (PCBNEW 9.0.9) date 2026-10-02 00:22:03*
%MOMM*%
%LPD*%
G01*
G04 APERTURE LIST*
G04 Aperture macros list*
%AMRoundRect*
0 Rectangle with rounded corners*
0 $1 Rounding radius*
0 $2 $3 $4 $5 $6 $7 $8 $9 X,Y pos of 4 corners*
0 Add a 4 corners polygon primitive as box body*
4,1,4,$2,$3,$4,$5,$6,$7,$8,$9,$2,$3,0*
0 Add four circle primitives for the rounded corners*
1,1,$1+$1,$2,$3*
1,1,$1+$1,$4,$5*
1,1,$1+$1,$6,$7*
1,1,$1+$1,$8,$9*
0 Add four rect primitives between the rounded corners*
20,1,$1+$1,$2,$3,$4,$5,0*
20,1,$1+$1,$4,$5,$6,$7,0*
20,1,$1+$1,$6,$7,$8,$9,0*
20,1,$1+$1,$8,$9,$2,$3,0*%
G04 Aperture macros list end*
%TA.AperFunction,ComponentPad*%
%ADD10RoundRect,0.250000X-1.050000X-1.050000X1.050000X-1.050000X1.050000X1.050000X-1.050000X1.050000X0*%
%TD*%
%TA.AperFunction,ComponentPad*%
%ADD11C,2.600000*%
%TD*%
%TA.AperFunction,HeatsinkPad*%
%ADD12C,0.600000*%
%TD*%
%TA.AperFunction,ComponentPad*%
%ADD13R,1.700000X1.700000*%
%TD*%
%TA.AperFunction,ComponentPad*%
%ADD14C,1.700000*%
%TD*%
%TA.AperFunction,ComponentPad*%
%ADD15C,3.500000*%
%TD*%
%TA.AperFunction,HeatsinkPad*%
%ADD16O,2.100000X1.000000*%
%TD*%
%TA.AperFunction,HeatsinkPad*%
%ADD17O,1.600000X1.000000*%
%TD*%
%TA.AperFunction,ComponentPad*%
%ADD18C,3.000000*%
%TD*%
%TA.AperFunction,ComponentPad*%
%ADD19C,2.500000*%
%TD*%
%TA.AperFunction,ViaPad*%
%ADD20C,0.600000*%
%TD*%
%TA.AperFunction,ViaPad*%
%ADD21C,0.800000*%
%TD*%
%TA.AperFunction,Conductor*%
%ADD22C,0.300000*%
%TD*%
%TA.AperFunction,Conductor*%
%ADD23C,0.600000*%
%TD*%
%TA.AperFunction,Conductor*%
%ADD24C,0.250000*%
%TD*%
%TA.AperFunction,Conductor*%
%ADD25C,0.400000*%
%TD*%
G04 APERTURE END LIST*
D10*
%TO.P,J1,1*%
%TO.N,/VIN_RAW*%
X117500000Y-163500000D03*
D11*
%TO.P,J1,2*%
%TO.N,/GNDIN*%
X122580000Y-163500000D03*
%TD*%
D12*
%TO.P,U5,19*%
%TO.N,/GND*%
X167860000Y-119150000D03*
X167860000Y-120250000D03*
X168410000Y-118600000D03*
X168410000Y-119700000D03*
X168410000Y-120800000D03*
X168960000Y-119150000D03*
X168960000Y-120250000D03*
X169510000Y-118600000D03*
X169510000Y-119700000D03*
X169510000Y-120800000D03*
X170060000Y-119150000D03*
X170060000Y-120250000D03*
%TD*%
D10*
%TO.P,J5,1*%
%TO.N,/COM*%
X177000000Y-163500000D03*
D11*
%TO.P,J5,2*%
%TO.N,/NO*%
X182080000Y-163500000D03*
%TD*%
D10*
%TO.P,J3,1*%
%TO.N,/VIN*%
X105000000Y-163500000D03*
D11*
%TO.P,J3,2*%
X110080000Y-163500000D03*
%TD*%
D13*
%TO.P,J6,1*%
%TO.N,/3V3*%
X187000000Y-109200000D03*
D14*
%TO.P,J6,2*%
%TO.N,/GND*%
X187000000Y-111740000D03*
%TO.P,J6,3*%
%TO.N,/SDA*%
X187000000Y-114280000D03*
%TO.P,J6,4*%
%TO.N,/SCL*%
X187000000Y-116820000D03*
%TO.P,J6,5*%
%TO.N,/IR*%
X187000000Y-119360000D03*
%TO.P,J6,6*%
%TO.N,/LDR*%
X187000000Y-121900000D03*
%TO.P,J6,7*%
%TO.N,/BOOT*%
X187000000Y-124440000D03*
%TD*%
D10*
%TO.P,J4,1*%
%TO.N,/CH1*%
X136000000Y-163500000D03*
D11*
%TO.P,J4,2*%
%TO.N,/CH2*%
X141080000Y-163500000D03*
%TO.P,J4,3*%
%TO.N,/CH3*%
X146160000Y-163500000D03*
%TO.P,J4,4*%
%TO.N,/CH4*%
X151240000Y-163500000D03*
%TD*%
D15*
%TO.P,F1,1*%
%TO.N,/VIN_RAW*%
X117500000Y-150000000D03*
%TO.P,F1,2*%
%TO.N,/VFUS*%
X117500000Y-140800000D03*
%TD*%
D16*
%TO.P,J2,S1*%
%TO.N,/GND*%
X181870000Y-136820000D03*
D17*
X186050000Y-136820000D03*
D16*
X181870000Y-128180000D03*
D17*
X186050000Y-128180000D03*
%TD*%
D18*
%TO.P,K1,1*%
%TO.N,/COM*%
X168000000Y-147000000D03*
D19*
%TO.P,K1,2*%
%TO.N,/RLYD*%
X169950000Y-153050000D03*
D18*
%TO.P,K1,3*%
%TO.N,/NO*%
X182150000Y-153050000D03*
%TO.P,K1,4*%
%TO.N,unconnected-(K1-Pad4)*%
X182200000Y-141000000D03*
D19*
%TO.P,K1,5*%
%TO.N,/V12G*%
X169950000Y-141050000D03*
%TD*%
D20*
%TO.N,/ISN*%
X101500000Y-137650000D03*
X107470000Y-143200000D03*
%TO.N,/ISP*%
X111600000Y-138300000D03*
X102900000Y-138300000D03*
D21*
%TO.N,/GND*%
X121950000Y-152400000D03*
X140000000Y-146200000D03*
X155200000Y-146200000D03*
X133000000Y-145100000D03*
X135400000Y-146200000D03*
X156400000Y-146200000D03*
X140000000Y-145100000D03*
X148200000Y-146200000D03*
D20*
X121488000Y-122000000D03*
X160502000Y-122670000D03*
D21*
X156400000Y-145100000D03*
D20*
X134330000Y-127688000D03*
D21*
X120900000Y-153600000D03*
X109500000Y-137200000D03*
X149400000Y-145100000D03*
D20*
X133150000Y-113238000D03*
X117245000Y-143448000D03*
X157184000Y-127562000D03*
X132678000Y-138104000D03*
X108576000Y-113062000D03*
D21*
X121950000Y-151200000D03*
X142400000Y-145100000D03*
X134200000Y-146200000D03*
X105700000Y-133500000D03*
X120900000Y-151200000D03*
D20*
X151513000Y-111286000D03*
D21*
X120900000Y-145400000D03*
D20*
X130309000Y-118750000D03*
D21*
X147000000Y-145100000D03*
D20*
X155673000Y-121152000D03*
X120429000Y-109619000D03*
X184498000Y-121726000D03*
X120882000Y-132600000D03*
D21*
X120900000Y-152400000D03*
X141200000Y-146200000D03*
X135400000Y-145100000D03*
X121950000Y-153600000D03*
D20*
X149278000Y-109050000D03*
X137490000Y-135975000D03*
D21*
X121950000Y-145400000D03*
X148200000Y-145100000D03*
X133000000Y-146200000D03*
X120900000Y-144200000D03*
X102300000Y-135800000D03*
X154000000Y-146200000D03*
X134200000Y-145100000D03*
X121950000Y-144200000D03*
D20*
X124627000Y-111815000D03*
D21*
X121950000Y-146600000D03*
X149400000Y-146200000D03*
D20*
X155688000Y-117700000D03*
X157472000Y-118600000D03*
X136713000Y-131118000D03*
D21*
X154000000Y-145100000D03*
D20*
X138601000Y-131674000D03*
D21*
X155200000Y-145100000D03*
D20*
X157202000Y-132900000D03*
D21*
X141200000Y-145100000D03*
X107975000Y-152600000D03*
X120900000Y-146600000D03*
D20*
X115852000Y-109556000D03*
D21*
X147000000Y-146200000D03*
D20*
X133227000Y-109554000D03*
X153872000Y-116265000D03*
D21*
X142400000Y-146200000D03*
D20*
X152450000Y-106768000D03*
%TO.N,/ALERT*%
X175472000Y-124000000D03*
X145744000Y-130612000D03*
X170216000Y-130612000D03*
X144171000Y-137988000D03*
X111061000Y-136440000D03*
%TO.N,/SDA*%
X111810000Y-136020000D03*
X183897000Y-112268000D03*
X140825000Y-138342000D03*
X161563000Y-116500000D03*
%TO.N,/SCL*%
X142763000Y-138129000D03*
X153064000Y-121238000D03*
X175490000Y-117512000D03*
X112235000Y-135300000D03*
%TO.N,/3V3*%
X121600000Y-108500000D03*
X102200000Y-131800000D03*
X175200000Y-113417000D03*
%TO.N,/V12G*%
X149399000Y-131820000D03*
X125669000Y-119476000D03*
X146533000Y-137785000D03*
X136233000Y-127688000D03*
X163500000Y-138300000D03*
X158723000Y-152719000D03*
%TO.N,/VBUS*%
X177906000Y-129382000D03*
X179728000Y-134900000D03*
X149407000Y-117407000D03*
%TO.N,/SW1*%
X129569000Y-110228000D03*
X129569000Y-114485000D03*
%TO.N,/BST2*%
X123225000Y-126514000D03*
X122037000Y-120225000D03*
%TO.N,/PWM1*%
X157966000Y-116998000D03*
X135823000Y-135721000D03*
%TO.N,/PWM2*%
X157335000Y-116482000D03*
X155491000Y-116004000D03*
X136348000Y-138270000D03*
%TO.N,/PWM3*%
X160509000Y-119500000D03*
X150453000Y-135721000D03*
X154026000Y-119349000D03*
%TO.N,/PWM4*%
X157994000Y-121144000D03*
X150938000Y-138261000D03*
%TO.N,/RLYG*%
X170924000Y-115619000D03*
X167712000Y-139700000D03*
%TO.N,/EN*%
X166312000Y-115000000D03*
X166312000Y-129100000D03*
X152156000Y-114069000D03*
%TO.N,/LED*%
X175562000Y-126224000D03*
X157099000Y-135754000D03*
%TO.N,/TXD*%
X162459000Y-124762000D03*
X157570000Y-124350000D03*
%TO.N,/USB_DN*%
X178287000Y-132625000D03*
X174247000Y-131694000D03*
X175464000Y-121000000D03*
%TO.N,/USB_DP*%
X175490000Y-119316000D03*
X177159000Y-130197000D03*
%TO.N,/IR*%
X179917000Y-118000000D03*
%TO.N,/LDR*%
X181864000Y-113892000D03*
%TO.N,/CC1*%
X179728000Y-137913000D03*
X182190000Y-133725000D03*
%TO.N,/CC2*%
X182207000Y-130775000D03*
X172919000Y-136744000D03*
%TD*%
D22*
%TO.N,/ISN*%
X101500000Y-137650000D02*
X101500000Y-143200000D01*
X101500000Y-143200000D02*
X107470000Y-143200000D01*
%TO.N,/ISP*%
X111600000Y-138300000D02*
X102900000Y-138300000D01*
D23*
%TO.N,/GND*%
X112082000Y-109556000D02*
X108576000Y-113062000D01*
X168410000Y-118600000D02*
X168410000Y-119150000D01*
X160123000Y-124624000D02*
X157184000Y-127562000D01*
X121185000Y-122000000D02*
X121185000Y-113255000D01*
X121185000Y-113255000D02*
X122625000Y-111815000D01*
X186050000Y-128180000D02*
X184748000Y-128180000D01*
X120882000Y-122303000D02*
X120882000Y-132600000D01*
X168410000Y-120250000D02*
X168410000Y-120800000D01*
X134200000Y-139626000D02*
X132678000Y-138104000D01*
X121488000Y-122000000D02*
X121185000Y-122000000D01*
X133150000Y-113238000D02*
X133227000Y-113161000D01*
X104600000Y-133500000D02*
X102300000Y-135800000D01*
X134330000Y-127688000D02*
X136713000Y-130070000D01*
X115852000Y-109556000D02*
X112082000Y-109556000D01*
X168410000Y-119150000D02*
X168410000Y-119700000D01*
X133150000Y-115908000D02*
X133150000Y-113238000D01*
X167860000Y-120250000D02*
X168410000Y-120250000D01*
X120429000Y-109619000D02*
X122625000Y-111815000D01*
X154253000Y-116265000D02*
X155688000Y-117700000D01*
X184498000Y-121726000D02*
X184498000Y-127930000D01*
X160123000Y-121250000D02*
X157472000Y-118600000D01*
X105700000Y-133500000D02*
X104600000Y-133500000D01*
X186050000Y-136820000D02*
X186050000Y-128180000D01*
X121185000Y-122000000D02*
X120882000Y-122303000D01*
X122625000Y-111815000D02*
X124627000Y-111815000D01*
X138601000Y-131674000D02*
X138601000Y-134864000D01*
X152450000Y-110349000D02*
X152450000Y-106768000D01*
X168410000Y-119150000D02*
X168960000Y-119150000D01*
X157184000Y-132883000D02*
X157202000Y-132900000D01*
X133227000Y-113161000D02*
X133227000Y-109554000D01*
X168410000Y-119700000D02*
X168410000Y-120250000D01*
X160123000Y-122670000D02*
X160123000Y-124624000D01*
X136713000Y-130070000D02*
X136713000Y-131118000D01*
X117127000Y-143448000D02*
X117245000Y-143448000D01*
X107975000Y-152600000D02*
X117127000Y-143448000D01*
X153872000Y-116265000D02*
X154253000Y-116265000D01*
X151513000Y-111286000D02*
X149278000Y-109050000D01*
X134200000Y-145100000D02*
X134200000Y-139626000D01*
X167860000Y-119150000D02*
X168410000Y-119150000D01*
X160123000Y-122670000D02*
X160123000Y-121250000D01*
X160123000Y-122670000D02*
X160502000Y-122670000D01*
X184498000Y-127930000D02*
X184748000Y-128180000D01*
X155673000Y-121152000D02*
X155673000Y-120399000D01*
X138601000Y-134864000D02*
X137490000Y-135975000D01*
X130309000Y-118750000D02*
X133150000Y-115908000D01*
X155673000Y-120399000D02*
X157472000Y-118600000D01*
X151513000Y-111286000D02*
X152450000Y-110349000D01*
X157184000Y-127562000D02*
X157184000Y-132883000D01*
D24*
%TO.N,/ALERT*%
X144171000Y-138388000D02*
X144171000Y-137988000D01*
X111061000Y-136440000D02*
X111882000Y-137261000D01*
X135048000Y-137516000D02*
X138874000Y-137516000D01*
X134794000Y-137261000D02*
X135048000Y-137516000D01*
X170216000Y-130612000D02*
X175472000Y-125356000D01*
X140621000Y-139262000D02*
X143296000Y-139262000D01*
X143296000Y-139262000D02*
X144171000Y-138388000D01*
X144171000Y-137988000D02*
X144171000Y-132186000D01*
X111882000Y-137261000D02*
X134794000Y-137261000D01*
X175472000Y-125356000D02*
X175472000Y-124000000D01*
X138874000Y-137516000D02*
X140621000Y-139262000D01*
X144171000Y-132186000D02*
X145744000Y-130612000D01*
%TO.N,/SDA*%
X140825000Y-138342000D02*
X141260000Y-138776000D01*
X152774000Y-120017000D02*
X152774000Y-115776000D01*
X143467000Y-138374000D02*
X143467000Y-131723000D01*
X111810000Y-136020000D02*
X134192000Y-136020000D01*
X135236000Y-137064000D02*
X139547000Y-137064000D01*
X143065000Y-138776000D02*
X143467000Y-138374000D01*
X187000000Y-114280000D02*
X184988000Y-112268000D01*
X153692000Y-120935000D02*
X152774000Y-120017000D01*
X134192000Y-136020000D02*
X135236000Y-137064000D01*
X152774000Y-115776000D02*
X153376000Y-115174000D01*
X141260000Y-138776000D02*
X143065000Y-138776000D01*
X139547000Y-137064000D02*
X140825000Y-138342000D01*
X160238000Y-115174000D02*
X161563000Y-116500000D01*
X153376000Y-115174000D02*
X160238000Y-115174000D01*
X184988000Y-112268000D02*
X183897000Y-112268000D01*
X143467000Y-131723000D02*
X153692000Y-121498000D01*
X153692000Y-121498000D02*
X153692000Y-120935000D01*
%TO.N,/SCL*%
X142763000Y-136612000D02*
X142763000Y-131539000D01*
X142763000Y-131539000D02*
X153064000Y-121238000D01*
X134336000Y-135300000D02*
X112235000Y-135300000D01*
X176182000Y-116820000D02*
X175490000Y-117512000D01*
X187000000Y-116820000D02*
X176182000Y-116820000D01*
X142763000Y-136612000D02*
X142763000Y-138129000D01*
X135648000Y-136612000D02*
X134336000Y-135300000D01*
X142763000Y-136612000D02*
X135648000Y-136612000D01*
D23*
%TO.N,/3V3*%
X183021000Y-112166000D02*
X182096000Y-113090000D01*
D25*
X102200000Y-108500000D02*
X121600000Y-108500000D01*
X102200000Y-131800000D02*
X102200000Y-108500000D01*
D23*
X182096000Y-113090000D02*
X175527000Y-113090000D01*
X183021000Y-111828000D02*
X183021000Y-112166000D01*
X187000000Y-109200000D02*
X185648000Y-109200000D01*
X175527000Y-113090000D02*
X175200000Y-113417000D01*
X185648000Y-109200000D02*
X183021000Y-111828000D01*
%TO.N,/V12G*%
X146533000Y-137785000D02*
X149399000Y-137785000D01*
X158723000Y-141638000D02*
X158723000Y-152719000D01*
X160162000Y-141638000D02*
X153142000Y-141638000D01*
X128022000Y-119476000D02*
X125669000Y-119476000D01*
X136233000Y-127688000D02*
X128022000Y-119476000D01*
X153142000Y-141638000D02*
X149399000Y-137895000D01*
X163500000Y-138300000D02*
X160162000Y-141638000D01*
X149399000Y-137785000D02*
X149399000Y-131820000D01*
X149399000Y-137895000D02*
X149399000Y-137785000D01*
%TO.N,/VBUS*%
X175685000Y-118314000D02*
X175158000Y-118314000D01*
X179728000Y-134900000D02*
X179728000Y-131204000D01*
X175158000Y-118314000D02*
X170111000Y-113267000D01*
X151752000Y-113267000D02*
X149407000Y-115612000D01*
X177906000Y-129382000D02*
X177906000Y-120535000D01*
X177906000Y-120535000D02*
X175685000Y-118314000D01*
X149407000Y-115612000D02*
X149407000Y-117407000D01*
X170111000Y-113267000D02*
X151752000Y-113267000D01*
X179728000Y-131204000D02*
X177906000Y-129382000D01*
%TO.N,/SW1*%
X129569000Y-110228000D02*
X129569000Y-114485000D01*
D24*
%TO.N,/BST2*%
X122037000Y-120225000D02*
X123225000Y-121412000D01*
X123225000Y-121412000D02*
X123225000Y-126514000D01*
%TO.N,/PWM1*%
X153121000Y-114714000D02*
X160685000Y-114714000D01*
X161784000Y-117168000D02*
X158136000Y-117168000D01*
X162215000Y-116737000D02*
X161784000Y-117168000D01*
X135823000Y-135721000D02*
X137501000Y-134042000D01*
X160685000Y-114714000D02*
X162215000Y-116244000D01*
X137501000Y-134042000D02*
X137501000Y-130334000D01*
X162215000Y-116244000D02*
X162215000Y-116737000D01*
X137501000Y-130334000D02*
X153121000Y-114714000D01*
X158136000Y-117168000D02*
X157966000Y-116998000D01*
%TO.N,/PWM2*%
X155491000Y-116004000D02*
X155969000Y-116482000D01*
X154196000Y-120595000D02*
X153232000Y-119631000D01*
X136348000Y-138270000D02*
X137838000Y-139761000D01*
X155114000Y-115627000D02*
X155491000Y-116004000D01*
X143486000Y-139761000D02*
X147996000Y-135252000D01*
X154196000Y-122061000D02*
X154196000Y-120595000D01*
X153232000Y-115979000D02*
X153584000Y-115627000D01*
X153232000Y-119631000D02*
X153232000Y-115979000D01*
X147996000Y-128262000D02*
X154196000Y-122061000D01*
X137838000Y-139761000D02*
X143486000Y-139761000D01*
X153584000Y-115627000D02*
X155114000Y-115627000D01*
X147996000Y-135252000D02*
X147996000Y-128262000D01*
X155969000Y-116482000D02*
X157335000Y-116482000D01*
%TO.N,/PWM3*%
X154252000Y-119575000D02*
X154648000Y-119575000D01*
X154648000Y-131526000D02*
X154648000Y-119575000D01*
X150453000Y-135721000D02*
X154648000Y-131526000D01*
X154648000Y-119575000D02*
X155092000Y-119575000D01*
X156766000Y-117900000D02*
X158909000Y-117900000D01*
X154026000Y-119349000D02*
X154252000Y-119575000D01*
X155092000Y-119575000D02*
X156766000Y-117900000D01*
X158909000Y-117900000D02*
X160509000Y-119500000D01*
%TO.N,/PWM4*%
X155530000Y-133668000D02*
X150938000Y-138261000D01*
X155530000Y-123608000D02*
X155530000Y-133668000D01*
X157994000Y-121144000D02*
X155530000Y-123608000D01*
%TO.N,/RLYG*%
X167712000Y-139700000D02*
X167712000Y-135637000D01*
X176197000Y-122658000D02*
X170924000Y-117385000D01*
X176197000Y-127152000D02*
X176197000Y-122658000D01*
X170924000Y-117385000D02*
X170924000Y-115619000D01*
X167712000Y-135637000D02*
X176197000Y-127152000D01*
%TO.N,/EN*%
X166312000Y-129100000D02*
X166312000Y-115000000D01*
X166312000Y-115000000D02*
X165380000Y-114069000D01*
X165380000Y-114069000D02*
X152156000Y-114069000D01*
%TO.N,/LED*%
X157099000Y-135754000D02*
X166032000Y-135754000D01*
X166032000Y-135754000D02*
X175562000Y-126224000D01*
%TO.N,/TXD*%
X156512000Y-133203000D02*
X156512000Y-125408000D01*
X162459000Y-128547000D02*
X157430000Y-133575000D01*
X157430000Y-133575000D02*
X156885000Y-133575000D01*
X156512000Y-125408000D02*
X157570000Y-124350000D01*
X162459000Y-124762000D02*
X162459000Y-128547000D01*
X156885000Y-133575000D02*
X156512000Y-133203000D01*
%TO.N,/USB_DN*%
X176256000Y-127997000D02*
X176651000Y-127602000D01*
X176651000Y-127602000D02*
X176651000Y-122187000D01*
X178287000Y-132625000D02*
X177186000Y-132625000D01*
X177186000Y-132625000D02*
X176256000Y-131694000D01*
X176256000Y-131694000D02*
X176256000Y-127997000D01*
X176256000Y-131694000D02*
X174247000Y-131694000D01*
X176651000Y-122187000D02*
X175464000Y-121000000D01*
%TO.N,/USB_DP*%
X175490000Y-119316000D02*
X177159000Y-120986000D01*
X177159000Y-120986000D02*
X177159000Y-130197000D01*
%TO.N,/IR*%
X179917000Y-118000000D02*
X185640000Y-118000000D01*
X185640000Y-118000000D02*
X187000000Y-119360000D01*
%TO.N,/LDR*%
X181864000Y-113892000D02*
X183522000Y-115550000D01*
X183522000Y-115550000D02*
X187402000Y-115550000D01*
X188194000Y-116342000D02*
X188194000Y-120706000D01*
X187402000Y-115550000D02*
X188194000Y-116342000D01*
X188194000Y-120706000D02*
X187000000Y-121900000D01*
%TO.N,/CC1*%
X181075000Y-135479000D02*
X181075000Y-134840000D01*
X179728000Y-137913000D02*
X179728000Y-136825000D01*
X179728000Y-136825000D02*
X181075000Y-135479000D01*
X181075000Y-134840000D02*
X182190000Y-133725000D01*
%TO.N,/CC2*%
X178773000Y-136744000D02*
X180606000Y-134912000D01*
X172919000Y-136744000D02*
X178773000Y-136744000D01*
X180606000Y-132376000D02*
X182207000Y-130775000D01*
X180606000Y-134912000D02*
X180606000Y-132376000D01*
%TD*%
%TA.AperFunction,Conductor*%
%TO.N,/GND*%
G36*
X152267834Y-116271428D02*
G01*
X152323767Y-116313300D01*
X152348184Y-116378764D01*
X152348500Y-116387610D01*
X152348500Y-119960982D01*
X152348500Y-120073018D01*
X152377497Y-120181237D01*
X152433515Y-120278263D01*
X152433517Y-120278265D01*
X152718872Y-120563620D01*
X152752357Y-120624943D01*
X152747373Y-120694635D01*
X152705501Y-120750568D01*
X152696888Y-120756248D01*
X152695282Y-120757481D01*
X152583481Y-120869282D01*
X152583475Y-120869290D01*
X152504426Y-121006209D01*
X152504423Y-121006216D01*
X152463500Y-121158943D01*
X152463500Y-121185390D01*
X152443815Y-121252429D01*
X152427181Y-121273071D01*
X142422517Y-131277734D01*
X142422513Y-131277740D01*
X142366498Y-131374760D01*
X142366497Y-131374763D01*
X142337500Y-131482982D01*
X142337500Y-136062500D01*
X142317815Y-136129539D01*
X142265011Y-136175294D01*
X142213500Y-136186500D01*
X136462416Y-136186500D01*
X136395377Y-136166815D01*
X136349622Y-136114011D01*
X136339678Y-136044853D01*
X136355028Y-136000501D01*
X136363521Y-135985790D01*
X136382577Y-135952784D01*
X136423500Y-135800057D01*
X136423500Y-135773409D01*
X136443185Y-135706370D01*
X136459793Y-135685754D01*
X136494240Y-135651287D01*
X137801321Y-134343426D01*
X137841485Y-134303263D01*
X137841489Y-134303255D01*
X137841554Y-134303169D01*
X137841563Y-134303161D01*
X137869128Y-134255382D01*
X137869129Y-134255380D01*
X137869130Y-134255381D01*
X137869139Y-134255362D01*
X137897503Y-134206237D01*
X137897505Y-134206231D01*
X137897554Y-134206112D01*
X137911812Y-134152834D01*
X137911816Y-134152817D01*
X137912070Y-134151869D01*
X137926500Y-134098018D01*
X137926500Y-134097954D01*
X137926517Y-134097891D01*
X137926500Y-134040175D01*
X137926500Y-130561610D01*
X137946185Y-130494571D01*
X137962819Y-130473929D01*
X152136819Y-116299929D01*
X152198142Y-116266444D01*
X152267834Y-116271428D01*
G37*
%TD.AperFunction*%
%TA.AperFunction,Conductor*%
G36*
X154854203Y-116072185D02*
G01*
X154899958Y-116124989D01*
X154906937Y-116144403D01*
X154931423Y-116235783D01*
X154931426Y-116235790D01*
X155010475Y-116372709D01*
X155010479Y-116372714D01*
X155010480Y-116372716D01*
X155122284Y-116484520D01*
X155122286Y-116484521D01*
X155122290Y-116484524D01*
X155259209Y-116563573D01*
X155259216Y-116563577D01*
X155411943Y-116604500D01*
X155438390Y-116604500D01*
X155505429Y-116624185D01*
X155526071Y-116640819D01*
X155628515Y-116743263D01*
X155707737Y-116822485D01*
X155804763Y-116878503D01*
X155912982Y-116907500D01*
X156859902Y-116907500D01*
X156926941Y-116927185D01*
X156947583Y-116943819D01*
X156966284Y-116962520D01*
X156966286Y-116962521D01*
X156966290Y-116962524D01*
X157085724Y-117031478D01*
X157103216Y-117041577D01*
X157255943Y-117082500D01*
X157271810Y-117082500D01*
X157290483Y-117087983D01*
X157309941Y-117088508D01*
X157323319Y-117097625D01*
X157338849Y-117102185D01*
X157351592Y-117116891D01*
X157367679Y-117127854D01*
X157377263Y-117146517D01*
X157384604Y-117154989D01*
X157385952Y-117158049D01*
X157389340Y-117166031D01*
X157406423Y-117229784D01*
X157444111Y-117295063D01*
X157447077Y-117302049D01*
X157450272Y-117329515D01*
X157456795Y-117356401D01*
X157454254Y-117363739D01*
X157455152Y-117371450D01*
X157442990Y-117396285D01*
X157433942Y-117422428D01*
X157427838Y-117427228D01*
X157424424Y-117434200D01*
X157400762Y-117448520D01*
X157379020Y-117465618D01*
X157369469Y-117467458D01*
X157364649Y-117470376D01*
X157355599Y-117470131D01*
X157332935Y-117474500D01*
X156830070Y-117474500D01*
X156829777Y-117474481D01*
X156821892Y-117474483D01*
X156813023Y-117474485D01*
X156764393Y-117474499D01*
X156764176Y-117474500D01*
X156709982Y-117474500D01*
X156709922Y-117474515D01*
X156709855Y-117474516D01*
X156709497Y-117474611D01*
X156709492Y-117474612D01*
X156654938Y-117489247D01*
X156654939Y-117489248D01*
X156654761Y-117489296D01*
X156601763Y-117503497D01*
X156601706Y-117503529D01*
X156601645Y-117503546D01*
X156601430Y-117503670D01*
X156601423Y-117503672D01*
X156553259Y-117531499D01*
X156553118Y-117531582D01*
X156504737Y-117559515D01*
X156504691Y-117559560D01*
X156504635Y-117559593D01*
X156504477Y-117559750D01*
X156504475Y-117559752D01*
X156464989Y-117599261D01*
X156464447Y-117599804D01*
X156425515Y-117638737D01*
X156425483Y-117638791D01*
X156419778Y-117644500D01*
X156419775Y-117644501D01*
X154952000Y-119113155D01*
X154890687Y-119146658D01*
X154864293Y-119149500D01*
X154675808Y-119149500D01*
X154608769Y-119129815D01*
X154568421Y-119087500D01*
X154506522Y-118980287D01*
X154506518Y-118980282D01*
X154394717Y-118868481D01*
X154394709Y-118868475D01*
X154257790Y-118789426D01*
X154257786Y-118789424D01*
X154257784Y-118789423D01*
X154105057Y-118748500D01*
X153946943Y-118748500D01*
X153813593Y-118784231D01*
X153743743Y-118782568D01*
X153685881Y-118743405D01*
X153658377Y-118679177D01*
X153657500Y-118664456D01*
X153657500Y-116206610D01*
X153666144Y-116177169D01*
X153672668Y-116147183D01*
X153676422Y-116142167D01*
X153677185Y-116139571D01*
X153693819Y-116118929D01*
X153723929Y-116088819D01*
X153785252Y-116055334D01*
X153811610Y-116052500D01*
X154787164Y-116052500D01*
X154854203Y-116072185D01*
G37*
%TD.AperFunction*%
%TA.AperFunction,Conductor*%
G36*
X185773512Y-110026369D02*
G01*
X185829454Y-110068230D01*
X185846828Y-110111840D01*
X185849965Y-110110987D01*
X185852415Y-110119991D01*
X185897793Y-110222764D01*
X185897794Y-110222765D01*
X185977235Y-110302206D01*
X186080009Y-110347585D01*
X186105135Y-110350500D01*
X186236923Y-110350499D01*
X186303960Y-110370183D01*
X186349715Y-110422987D01*
X186359659Y-110492145D01*
X186330635Y-110555701D01*
X186296387Y-110582507D01*
X186296590Y-110582838D01*
X186293715Y-110584599D01*
X186293239Y-110584972D01*
X186292451Y-110585373D01*
X186292440Y-110585380D01*
X186238282Y-110624727D01*
X186238282Y-110624728D01*
X186870591Y-111257037D01*
X186807007Y-111274075D01*
X186692993Y-111339901D01*
X186599901Y-111432993D01*
X186534075Y-111547007D01*
X186517037Y-111610591D01*
X185884728Y-110978282D01*
X185884727Y-110978282D01*
X185845380Y-111032439D01*
X185748904Y-111221782D01*
X185683242Y-111423869D01*
X185683242Y-111423872D01*
X185650000Y-111633753D01*
X185650000Y-111846247D01*
X185649999Y-111846247D01*
X185681008Y-112042028D01*
X185672053Y-112111321D01*
X185627057Y-112164773D01*
X185560305Y-112185412D01*
X185492992Y-112166687D01*
X185470854Y-112149106D01*
X185249265Y-111927517D01*
X185249263Y-111927515D01*
X185152237Y-111871497D01*
X185044018Y-111842500D01*
X185044017Y-111842500D01*
X184372098Y-111842500D01*
X184305059Y-111822815D01*
X184302656Y-111821232D01*
X184292817Y-111814581D01*
X184265716Y-111787480D01*
X184176651Y-111736058D01*
X184173015Y-111733601D01*
X184153439Y-111709921D01*
X184132242Y-111687690D01*
X184131384Y-111683241D01*
X184128498Y-111679750D01*
X184124833Y-111649253D01*
X184119018Y-111619083D01*
X184120702Y-111614875D01*
X184120162Y-111610379D01*
X184133567Y-111582740D01*
X184144986Y-111554218D01*
X184150313Y-111548214D01*
X184150653Y-111547514D01*
X184151267Y-111547139D01*
X184154759Y-111543204D01*
X184170758Y-111527199D01*
X185642504Y-110054893D01*
X185703820Y-110021398D01*
X185773512Y-110026369D01*
G37*
%TD.AperFunction*%
%TA.AperFunction,Conductor*%
G36*
X189642539Y-100320185D02*
G01*
X189688294Y-100372989D01*
X189699500Y-100424500D01*
X189699500Y-169575500D01*
X189679815Y-169642539D01*
X189627011Y-169688294D01*
X189575500Y-169699500D01*
X184171652Y-169699500D01*
X184104613Y-169679815D01*
X184058858Y-169627011D01*
X184048914Y-169557853D01*
X184077939Y-169494297D01*
X184133334Y-169457569D01*
X184262387Y-169415637D01*
X184262387Y-169415636D01*
X184262393Y-169415635D01*
X184719801Y-169226171D01*
X185160933Y-169001402D01*
X185583071Y-168742716D01*
X185983611Y-168451707D01*
X186360084Y-168130169D01*
X186710169Y-167780084D01*
X187031707Y-167403611D01*
X187322716Y-167003071D01*
X187581402Y-166580933D01*
X187806171Y-166139801D01*
X187995635Y-165682393D01*
X188148628Y-165211530D01*
X188264205Y-164730115D01*
X188341655Y-164241116D01*
X188380500Y-163747547D01*
X188380500Y-163252453D01*
X188341655Y-162758884D01*
X188264205Y-162269885D01*
X188148628Y-161788470D01*
X187995635Y-161317607D01*
X187806171Y-160860199D01*
X187581402Y-160419067D01*
X187322716Y-159996929D01*
X187031707Y-159596389D01*
X186710169Y-159219916D01*
X186360084Y-158869831D01*
X185983611Y-158548293D01*
X185583071Y-158257284D01*
X185525139Y-158221783D01*
X185160949Y-157998607D01*
X185160938Y-157998601D01*
X185160937Y-157998600D01*
X185160933Y-157998598D01*
X184719801Y-157773829D01*
X184509933Y-157686899D01*
X184262387Y-157584362D01*
X183927363Y-157475507D01*
X183791530Y-157431372D01*
X183310115Y-157315795D01*
X183310109Y-157315794D01*
X182821125Y-157238346D01*
X182821116Y-157238345D01*
X182821114Y-157238344D01*
X182821106Y-157238344D01*
X182327552Y-157199500D01*
X182327547Y-157199500D01*
X181832453Y-157199500D01*
X181832447Y-157199500D01*
X181338893Y-157238344D01*
X181338874Y-157238346D01*
X180849890Y-157315794D01*
X180849887Y-157315794D01*
X180849885Y-157315795D01*
X180677480Y-157357185D01*
X180368481Y-157431369D01*
X180368475Y-157431370D01*
X180368470Y-157431372D01*
X180368458Y-157431376D01*
X180011683Y-157547298D01*
X179941841Y-157549293D01*
X179925913Y-157543928D01*
X179847492Y-157511445D01*
X179410229Y-157373576D01*
X178962604Y-157274340D01*
X178962595Y-157274339D01*
X178508045Y-157214496D01*
X178180243Y-157200184D01*
X178164563Y-157199500D01*
X178164562Y-157199500D01*
X175835437Y-157199500D01*
X175491954Y-157214496D01*
X175037404Y-157274339D01*
X175037395Y-157274340D01*
X174589770Y-157373576D01*
X174152512Y-157511444D01*
X173728924Y-157686899D01*
X173322258Y-157898596D01*
X172935563Y-158144947D01*
X172571834Y-158424046D01*
X172571829Y-158424050D01*
X172233799Y-158733798D01*
X172233798Y-158733799D01*
X171924050Y-159071829D01*
X171924046Y-159071834D01*
X171644947Y-159435563D01*
X171398596Y-159822258D01*
X171186899Y-160228924D01*
X171011444Y-160652512D01*
X170873576Y-161089770D01*
X170774340Y-161537395D01*
X170774339Y-161537404D01*
X170714496Y-161991954D01*
X170699500Y-162335437D01*
X170699500Y-164664562D01*
X170714496Y-165008045D01*
X170774339Y-165462595D01*
X170774340Y-165462604D01*
X170873576Y-165910229D01*
X171011444Y-166347487D01*
X171186899Y-166771075D01*
X171398596Y-167177741D01*
X171398600Y-167177747D01*
X171398602Y-167177751D01*
X171406214Y-167189699D01*
X171644947Y-167564436D01*
X171924046Y-167928165D01*
X171924050Y-167928170D01*
X172233798Y-168266200D01*
X172233799Y-168266201D01*
X172571829Y-168575949D01*
X172571834Y-168575953D01*
X172935563Y-168855052D01*
X172935568Y-168855055D01*
X173322249Y-169101398D01*
X173322255Y-169101401D01*
X173322258Y-169101403D01*
X173728924Y-169313100D01*
X173728929Y-169313102D01*
X174085841Y-169460940D01*
X174140243Y-169504780D01*
X174162308Y-169571074D01*
X174145029Y-169638773D01*
X174093892Y-169686384D01*
X174038387Y-169699500D01*
X100424500Y-169699500D01*
X100357461Y-169679815D01*
X100311706Y-169627011D01*
X100300500Y-169575500D01*
X100300500Y-165881995D01*
X160699500Y-165881995D01*
X160699500Y-166118004D01*
X160699501Y-166118020D01*
X160730306Y-166352010D01*
X160791394Y-166579993D01*
X160881714Y-166798045D01*
X160881719Y-166798056D01*
X160952677Y-166920957D01*
X160999727Y-167002450D01*
X160999729Y-167002453D01*
X160999730Y-167002454D01*
X161143406Y-167189697D01*
X161143412Y-167189704D01*
X161310295Y-167356587D01*
X161310301Y-167356592D01*
X161497550Y-167500273D01*
X161608677Y-167564432D01*
X161701943Y-167618280D01*
X161701948Y-167618282D01*
X161701951Y-167618284D01*
X161920007Y-167708606D01*
X162147986Y-167769693D01*
X162381989Y-167800500D01*
X162381996Y-167800500D01*
X162618004Y-167800500D01*
X162618011Y-167800500D01*
X162852014Y-167769693D01*
X163079993Y-167708606D01*
X163298049Y-167618284D01*
X163502450Y-167500273D01*
X163689699Y-167356592D01*
X163856592Y-167189699D01*
X164000273Y-167002450D01*
X164118284Y-166798049D01*
X164208606Y-166579993D01*
X164269693Y-166352014D01*
X164300500Y-166118011D01*
X164300500Y-165881989D01*
X164269693Y-165647986D01*
X164208606Y-165420007D01*
X164118284Y-165201951D01*
X164118282Y-165201948D01*
X164118280Y-165201943D01*
X164053578Y-165089877D01*
X164000273Y-164997550D01*
X163865832Y-164822343D01*
X163856593Y-164810302D01*
X163856587Y-164810295D01*
X163689704Y-164643412D01*
X163689697Y-164643406D01*
X163502454Y-164499730D01*
X163502453Y-164499729D01*
X163502450Y-164499727D01*
X163420957Y-164452677D01*
X163298056Y-164381719D01*
X163298045Y-164381714D01*
X163079993Y-164291394D01*
X162892387Y-164241125D01*
X162852014Y-164230307D01*
X162852013Y-164230306D01*
X162852010Y-164230306D01*
X162618020Y-164199501D01*
X162618017Y-164199500D01*
X162618011Y-164199500D01*
X162381989Y-164199500D01*
X162381983Y-164199500D01*
X162381979Y-164199501D01*
X162147989Y-164230306D01*
X161920006Y-164291394D01*
X161701954Y-164381714D01*
X161701943Y-164381719D01*
X161497545Y-164499730D01*
X161310302Y-164643406D01*
X161310295Y-164643412D01*
X161143412Y-164810295D01*
X161143406Y-164810302D01*
X160999730Y-164997545D01*
X160881719Y-165201943D01*
X160881714Y-165201954D01*
X160791394Y-165420006D01*
X160730306Y-165647989D01*
X160699501Y-165881979D01*
X160699500Y-165881995D01*
X100300500Y-165881995D01*
X100300500Y-162406898D01*
X103399500Y-162406898D01*
X103399500Y-164593102D01*
X103405126Y-164639954D01*
X103410122Y-164681561D01*
X103465639Y-164822343D01*
X103557077Y-164942922D01*
X103677656Y-165034360D01*
X103677657Y-165034360D01*
X103677658Y-165034361D01*
X103818436Y-165089877D01*
X103906898Y-165100500D01*
X103906903Y-165100500D01*
X106093097Y-165100500D01*
X106093102Y-165100500D01*
X106181564Y-165089877D01*
X106322342Y-165034361D01*
X106442922Y-164942922D01*
X106534361Y-164822342D01*
X106589877Y-164681564D01*
X106600500Y-164593102D01*
X106600500Y-163374038D01*
X108479500Y-163374038D01*
X108479500Y-163625961D01*
X108518910Y-163874785D01*
X108596760Y-164114383D01*
X108711132Y-164338848D01*
X108859201Y-164542649D01*
X108859205Y-164542654D01*
X109037345Y-164720794D01*
X109037350Y-164720798D01*
X109177116Y-164822343D01*
X109241155Y-164868870D01*
X109384184Y-164941747D01*
X109465616Y-164983239D01*
X109465618Y-164983239D01*
X109465621Y-164983241D01*
X109705215Y-165061090D01*
X109954038Y-165100500D01*
X109954039Y-165100500D01*
X110205961Y-165100500D01*
X110205962Y-165100500D01*
X110454785Y-165061090D01*
X110694379Y-164983241D01*
X110918845Y-164868870D01*
X111122656Y-164720793D01*
X111300793Y-164542656D01*
X111448870Y-164338845D01*
X111563241Y-164114379D01*
X111641090Y-163874785D01*
X111680500Y-163625962D01*
X111680500Y-163374038D01*
X111641090Y-163125215D01*
X111563241Y-162885621D01*
X111563239Y-162885618D01*
X111563239Y-162885616D01*
X111498660Y-162758874D01*
X111448870Y-162661155D01*
X111433206Y-162639595D01*
X111314404Y-162476077D01*
X111314403Y-162476076D01*
X111300796Y-162457347D01*
X111250347Y-162406898D01*
X115899500Y-162406898D01*
X115899500Y-164593102D01*
X115905126Y-164639954D01*
X115910122Y-164681561D01*
X115965639Y-164822343D01*
X116057077Y-164942922D01*
X116177656Y-165034360D01*
X116177657Y-165034360D01*
X116177658Y-165034361D01*
X116318436Y-165089877D01*
X116406898Y-165100500D01*
X116406903Y-165100500D01*
X118593097Y-165100500D01*
X118593102Y-165100500D01*
X118681564Y-165089877D01*
X118822342Y-165034361D01*
X118942922Y-164942922D01*
X119034361Y-164822342D01*
X119089877Y-164681564D01*
X119100500Y-164593102D01*
X119100500Y-163374038D01*
X120979500Y-163374038D01*
X120979500Y-163625961D01*
X121018910Y-163874785D01*
X121096760Y-164114383D01*
X121211132Y-164338848D01*
X121359201Y-164542649D01*
X121359205Y-164542654D01*
X121537345Y-164720794D01*
X121537350Y-164720798D01*
X121677116Y-164822343D01*
X121741155Y-164868870D01*
X121884184Y-164941747D01*
X121965616Y-164983239D01*
X121965618Y-164983239D01*
X121965621Y-164983241D01*
X122205215Y-165061090D01*
X122454038Y-165100500D01*
X122454039Y-165100500D01*
X122705961Y-165100500D01*
X122705962Y-165100500D01*
X122954785Y-165061090D01*
X123194379Y-164983241D01*
X123418845Y-164868870D01*
X123622656Y-164720793D01*
X123800793Y-164542656D01*
X123948870Y-164338845D01*
X124063241Y-164114379D01*
X124141090Y-163874785D01*
X124180500Y-163625962D01*
X124180500Y-163374038D01*
X124141090Y-163125215D01*
X124063241Y-162885621D01*
X124063239Y-162885618D01*
X124063239Y-162885616D01*
X123998660Y-162758874D01*
X123948870Y-162661155D01*
X123933206Y-162639595D01*
X123814404Y-162476077D01*
X123814403Y-162476076D01*
X123800796Y-162457347D01*
X123750347Y-162406898D01*
X134399500Y-162406898D01*
X134399500Y-164593102D01*
X134405126Y-164639954D01*
X134410122Y-164681561D01*
X134465639Y-164822343D01*
X134557077Y-164942922D01*
X134677656Y-165034360D01*
X134677657Y-165034360D01*
X134677658Y-165034361D01*
X134818436Y-165089877D01*
X134906898Y-165100500D01*
X134906903Y-165100500D01*
X137093097Y-165100500D01*
X137093102Y-165100500D01*
X137181564Y-165089877D01*
X137322342Y-165034361D01*
X137442922Y-164942922D01*
X137534361Y-164822342D01*
X137589877Y-164681564D01*
X137600500Y-164593102D01*
X137600500Y-163374038D01*
X139479500Y-163374038D01*
X139479500Y-163625961D01*
X139518910Y-163874785D01*
X139596760Y-164114383D01*
X139711132Y-164338848D01*
X139859201Y-164542649D01*
X139859205Y-164542654D01*
X140037345Y-164720794D01*
X140037350Y-164720798D01*
X140177116Y-164822343D01*
X140241155Y-164868870D01*
X140384184Y-164941747D01*
X140465616Y-164983239D01*
X140465618Y-164983239D01*
X140465621Y-164983241D01*
X140705215Y-165061090D01*
X140954038Y-165100500D01*
X140954039Y-165100500D01*
X141205961Y-165100500D01*
X141205962Y-165100500D01*
X141454785Y-165061090D01*
X141694379Y-164983241D01*
X141918845Y-164868870D01*
X142122656Y-164720793D01*
X142300793Y-164542656D01*
X142448870Y-164338845D01*
X142563241Y-164114379D01*
X142641090Y-163874785D01*
X142680500Y-163625962D01*
X142680500Y-163374038D01*
X144559500Y-163374038D01*
X144559500Y-163625961D01*
X144598910Y-163874785D01*
X144676760Y-164114383D01*
X144791132Y-164338848D01*
X144939201Y-164542649D01*
X144939205Y-164542654D01*
X145117345Y-164720794D01*
X145117350Y-164720798D01*
X145257116Y-164822343D01*
X145321155Y-164868870D01*
X145464184Y-164941747D01*
X145545616Y-164983239D01*
X145545618Y-164983239D01*
X145545621Y-164983241D01*
X145785215Y-165061090D01*
X146034038Y-165100500D01*
X146034039Y-165100500D01*
X146285961Y-165100500D01*
X146285962Y-165100500D01*
X146534785Y-165061090D01*
X146774379Y-164983241D01*
X146998845Y-164868870D01*
X147202656Y-164720793D01*
X147380793Y-164542656D01*
X147528870Y-164338845D01*
X147643241Y-164114379D01*
X147721090Y-163874785D01*
X147760500Y-163625962D01*
X147760500Y-163374038D01*
X149639500Y-163374038D01*
X149639500Y-163625961D01*
X149678910Y-163874785D01*
X149756760Y-164114383D01*
X149871132Y-164338848D01*
X150019201Y-164542649D01*
X150019205Y-164542654D01*
X150197345Y-164720794D01*
X150197350Y-164720798D01*
X150337116Y-164822343D01*
X150401155Y-164868870D01*
X150544184Y-164941747D01*
X150625616Y-164983239D01*
X150625618Y-164983239D01*
X150625621Y-164983241D01*
X150865215Y-165061090D01*
X151114038Y-165100500D01*
X151114039Y-165100500D01*
X151365961Y-165100500D01*
X151365962Y-165100500D01*
X151614785Y-165061090D01*
X151854379Y-164983241D01*
X152078845Y-164868870D01*
X152282656Y-164720793D01*
X152460793Y-164542656D01*
X152608870Y-164338845D01*
X152723241Y-164114379D01*
X152801090Y-163874785D01*
X152840500Y-163625962D01*
X152840500Y-163374038D01*
X152801090Y-163125215D01*
X152723241Y-162885621D01*
X152723239Y-162885618D01*
X152723239Y-162885616D01*
X152658660Y-162758874D01*
X152608870Y-162661155D01*
X152589952Y-162635117D01*
X152460798Y-162457350D01*
X152460794Y-162457345D01*
X152282654Y-162279205D01*
X152282649Y-162279201D01*
X152078848Y-162131132D01*
X152078847Y-162131131D01*
X152078845Y-162131130D01*
X152008747Y-162095413D01*
X151854383Y-162016760D01*
X151614785Y-161938910D01*
X151433032Y-161910123D01*
X151365962Y-161899500D01*
X151114038Y-161899500D01*
X151046974Y-161910122D01*
X150865214Y-161938910D01*
X150625616Y-162016760D01*
X150401151Y-162131132D01*
X150197350Y-162279201D01*
X150197345Y-162279205D01*
X150019205Y-162457345D01*
X150019201Y-162457350D01*
X149871132Y-162661151D01*
X149756760Y-162885616D01*
X149678910Y-163125214D01*
X149639500Y-163374038D01*
X147760500Y-163374038D01*
X147721090Y-163125215D01*
X147643241Y-162885621D01*
X147643239Y-162885618D01*
X147643239Y-162885616D01*
X147578660Y-162758874D01*
X147528870Y-162661155D01*
X147509952Y-162635117D01*
X147380798Y-162457350D01*
X147380794Y-162457345D01*
X147202654Y-162279205D01*
X147202649Y-162279201D01*
X146998848Y-162131132D01*
X146998847Y-162131131D01*
X146998845Y-162131130D01*
X146928747Y-162095413D01*
X146774383Y-162016760D01*
X146534785Y-161938910D01*
X146353032Y-161910123D01*
X146285962Y-161899500D01*
X146034038Y-161899500D01*
X145966974Y-161910122D01*
X145785214Y-161938910D01*
X145545616Y-162016760D01*
X145321151Y-162131132D01*
X145117350Y-162279201D01*
X145117345Y-162279205D01*
X144939205Y-162457345D01*
X144939201Y-162457350D01*
X144791132Y-162661151D01*
X144676760Y-162885616D01*
X144598910Y-163125214D01*
X144559500Y-163374038D01*
X142680500Y-163374038D01*
X142641090Y-163125215D01*
X142563241Y-162885621D01*
X142563239Y-162885618D01*
X142563239Y-162885616D01*
X142498660Y-162758874D01*
X142448870Y-162661155D01*
X142429952Y-162635117D01*
X142300798Y-162457350D01*
X142300794Y-162457345D01*
X142122654Y-162279205D01*
X142122649Y-162279201D01*
X141918848Y-162131132D01*
X141918847Y-162131131D01*
X141918845Y-162131130D01*
X141848747Y-162095413D01*
X141694383Y-162016760D01*
X141454785Y-161938910D01*
X141273032Y-161910123D01*
X141205962Y-161899500D01*
X140954038Y-161899500D01*
X140886974Y-161910122D01*
X140705214Y-161938910D01*
X140465616Y-162016760D01*
X140241151Y-162131132D01*
X140037350Y-162279201D01*
X140037345Y-162279205D01*
X139859205Y-162457345D01*
X139859201Y-162457350D01*
X139711132Y-162661151D01*
X139596760Y-162885616D01*
X139518910Y-163125214D01*
X139479500Y-163374038D01*
X137600500Y-163374038D01*
X137600500Y-162406898D01*
X137589877Y-162318436D01*
X137534361Y-162177658D01*
X137534360Y-162177657D01*
X137534360Y-162177656D01*
X137442922Y-162057077D01*
X137322343Y-161965639D01*
X137181561Y-161910122D01*
X137135926Y-161904642D01*
X137093102Y-161899500D01*
X134906898Y-161899500D01*
X134867853Y-161904188D01*
X134818438Y-161910122D01*
X134677656Y-161965639D01*
X134557077Y-162057077D01*
X134465639Y-162177656D01*
X134410122Y-162318438D01*
X134408081Y-162335437D01*
X134399500Y-162406898D01*
X123750347Y-162406898D01*
X123622654Y-162279205D01*
X123622649Y-162279201D01*
X123418848Y-162131132D01*
X123418847Y-162131131D01*
X123418845Y-162131130D01*
X123348747Y-162095413D01*
X123194383Y-162016760D01*
X122954785Y-161938910D01*
X122773032Y-161910123D01*
X122705962Y-161899500D01*
X122454038Y-161899500D01*
X122386974Y-161910122D01*
X122205214Y-161938910D01*
X121965616Y-162016760D01*
X121741151Y-162131132D01*
X121537350Y-162279201D01*
X121537345Y-162279205D01*
X121359205Y-162457345D01*
X121359201Y-162457350D01*
X121211132Y-162661151D01*
X121096760Y-162885616D01*
X121018910Y-163125214D01*
X120979500Y-163374038D01*
X119100500Y-163374038D01*
X119100500Y-162406898D01*
X119089877Y-162318436D01*
X119034361Y-162177658D01*
X119034360Y-162177657D01*
X119034360Y-162177656D01*
X118942922Y-162057077D01*
X118822343Y-161965639D01*
X118681561Y-161910122D01*
X118635926Y-161904642D01*
X118593102Y-161899500D01*
X116406898Y-161899500D01*
X116367853Y-161904188D01*
X116318438Y-161910122D01*
X116177656Y-161965639D01*
X116057077Y-162057077D01*
X115965639Y-162177656D01*
X115910122Y-162318438D01*
X115908081Y-162335437D01*
X115899500Y-162406898D01*
X111250347Y-162406898D01*
X111122654Y-162279205D01*
X111122649Y-162279201D01*
X110918848Y-162131132D01*
X110918847Y-162131131D01*
X110918845Y-162131130D01*
X110848747Y-162095413D01*
X110694383Y-162016760D01*
X110454785Y-161938910D01*
X110273032Y-161910123D01*
X110205962Y-161899500D01*
X109954038Y-161899500D01*
X109886974Y-161910122D01*
X109705214Y-161938910D01*
X109465616Y-162016760D01*
X109241151Y-162131132D01*
X109037350Y-162279201D01*
X109037345Y-162279205D01*
X108859205Y-162457345D01*
X108859201Y-162457350D01*
X108711132Y-162661151D01*
X108596760Y-162885616D01*
X108518910Y-163125214D01*
X108479500Y-163374038D01*
X106600500Y-163374038D01*
X106600500Y-162406898D01*
X106589877Y-162318436D01*
X106534361Y-162177658D01*
X106534360Y-162177657D01*
X106534360Y-162177656D01*
X106442922Y-162057077D01*
X106322343Y-161965639D01*
X106181561Y-161910122D01*
X106135926Y-161904642D01*
X106093102Y-161899500D01*
X103906898Y-161899500D01*
X103867853Y-161904188D01*
X103818438Y-161910122D01*
X103677656Y-161965639D01*
X103557077Y-162057077D01*
X103465639Y-162177656D01*
X103410122Y-162318438D01*
X103408081Y-162335437D01*
X103399500Y-162406898D01*
X100300500Y-162406898D01*
X100300500Y-149865602D01*
X115449500Y-149865602D01*
X115449500Y-150134397D01*
X115484582Y-150400880D01*
X115484583Y-150400885D01*
X115484584Y-150400891D01*
X115519368Y-150530708D01*
X115554152Y-150660524D01*
X115657011Y-150908850D01*
X115657019Y-150908866D01*
X115737047Y-151047477D01*
X115791413Y-151141641D01*
X115791415Y-151141644D01*
X115791416Y-151141645D01*
X115955042Y-151354888D01*
X115955048Y-151354895D01*
X116145104Y-151544951D01*
X116145110Y-151544956D01*
X116358359Y-151708587D01*
X116507968Y-151794964D01*
X116591133Y-151842980D01*
X116591149Y-151842988D01*
X116746008Y-151907132D01*
X116839474Y-151945847D01*
X117099109Y-152015416D01*
X117285216Y-152039917D01*
X117365602Y-152050500D01*
X117365603Y-152050500D01*
X117634398Y-152050500D01*
X117694905Y-152042534D01*
X117900891Y-152015416D01*
X118160526Y-151945847D01*
X118350061Y-151867339D01*
X118408850Y-151842988D01*
X118408853Y-151842986D01*
X118408859Y-151842984D01*
X118641641Y-151708587D01*
X118854890Y-151544956D01*
X119044956Y-151354890D01*
X119208587Y-151141641D01*
X119342984Y-150908859D01*
X119445847Y-150660526D01*
X119515416Y-150400891D01*
X119550500Y-150134397D01*
X119550500Y-149865603D01*
X119515416Y-149599109D01*
X119445847Y-149339474D01*
X119404985Y-149240825D01*
X119342988Y-149091149D01*
X119342980Y-149091133D01*
X119291820Y-149002522D01*
X119208587Y-148858359D01*
X119044956Y-148645110D01*
X119044951Y-148645104D01*
X118854895Y-148455048D01*
X118854888Y-148455042D01*
X118641645Y-148291416D01*
X118641644Y-148291415D01*
X118641641Y-148291413D01*
X118548832Y-148237830D01*
X118408866Y-148157019D01*
X118408850Y-148157011D01*
X118160524Y-148054152D01*
X118030708Y-148019368D01*
X117900891Y-147984584D01*
X117900885Y-147984583D01*
X117900880Y-147984582D01*
X117634398Y-147949500D01*
X117634397Y-147949500D01*
X117365603Y-147949500D01*
X117365602Y-147949500D01*
X117099119Y-147984582D01*
X117099112Y-147984583D01*
X117099109Y-147984584D01*
X117044239Y-147999286D01*
X116839475Y-148054152D01*
X116591149Y-148157011D01*
X116591133Y-148157019D01*
X116358354Y-148291416D01*
X116145111Y-148455042D01*
X116145104Y-148455048D01*
X115955048Y-148645104D01*
X115955042Y-148645111D01*
X115791416Y-148858354D01*
X115657019Y-149091133D01*
X115657011Y-149091149D01*
X115554152Y-149339475D01*
X115484585Y-149599106D01*
X115484582Y-149599119D01*
X115449500Y-149865602D01*
X100300500Y-149865602D01*
X100300500Y-145289778D01*
X117299500Y-145289778D01*
X117299500Y-145510222D01*
X117305217Y-145546316D01*
X117333985Y-145727952D01*
X117402103Y-145937603D01*
X117402104Y-145937606D01*
X117502187Y-146134025D01*
X117631752Y-146312358D01*
X117631756Y-146312363D01*
X117787636Y-146468243D01*
X117787641Y-146468247D01*
X117826691Y-146496618D01*
X117965978Y-146597815D01*
X118094375Y-146663237D01*
X118162393Y-146697895D01*
X118162396Y-146697896D01*
X118267221Y-146731955D01*
X118372049Y-146766015D01*
X118589778Y-146800500D01*
X118589779Y-146800500D01*
X118810221Y-146800500D01*
X118810222Y-146800500D01*
X119027951Y-146766015D01*
X119237606Y-146697895D01*
X119434022Y-146597815D01*
X119612365Y-146468242D01*
X119768242Y-146312365D01*
X119897815Y-146134022D01*
X119997895Y-145937606D01*
X120066015Y-145727951D01*
X120100500Y-145510222D01*
X120100500Y-145289778D01*
X120066015Y-145072049D01*
X119997895Y-144862394D01*
X119997895Y-144862393D01*
X119963237Y-144794375D01*
X119897815Y-144665978D01*
X119881260Y-144643192D01*
X119768247Y-144487641D01*
X119768243Y-144487636D01*
X119612363Y-144331756D01*
X119612358Y-144331752D01*
X119434025Y-144202187D01*
X119434024Y-144202186D01*
X119434022Y-144202185D01*
X119367376Y-144168227D01*
X119237606Y-144102104D01*
X119237603Y-144102103D01*
X119027952Y-144033985D01*
X118919086Y-144016742D01*
X118810222Y-143999500D01*
X118589778Y-143999500D01*
X118517201Y-144010995D01*
X118372047Y-144033985D01*
X118162396Y-144102103D01*
X118162393Y-144102104D01*
X117965974Y-144202187D01*
X117787641Y-144331752D01*
X117787636Y-144331756D01*
X117631756Y-144487636D01*
X117631752Y-144487641D01*
X117502187Y-144665974D01*
X117402104Y-144862393D01*
X117402103Y-144862396D01*
X117333985Y-145072047D01*
X117333985Y-145072049D01*
X117299500Y-145289778D01*
X100300500Y-145289778D01*
X100300500Y-137570943D01*
X100899500Y-137570943D01*
X100899500Y-137729057D01*
X100940338Y-137881464D01*
X100940423Y-137881783D01*
X100940426Y-137881790D01*
X101019473Y-138018706D01*
X101019477Y-138018712D01*
X101019480Y-138018716D01*
X101019482Y-138018718D01*
X101023872Y-138024438D01*
X101049069Y-138089606D01*
X101049500Y-138099930D01*
X101049500Y-143140691D01*
X101049500Y-143259309D01*
X101080201Y-143373886D01*
X101139511Y-143476613D01*
X101223387Y-143560489D01*
X101326114Y-143619799D01*
X101440691Y-143650500D01*
X107020069Y-143650500D01*
X107087108Y-143670185D01*
X107095557Y-143676125D01*
X107101281Y-143680517D01*
X107101284Y-143680520D01*
X107101287Y-143680521D01*
X107101290Y-143680524D01*
X107238209Y-143759573D01*
X107238216Y-143759577D01*
X107390943Y-143800500D01*
X107390945Y-143800500D01*
X107549055Y-143800500D01*
X107549057Y-143800500D01*
X107701784Y-143759577D01*
X107838716Y-143680520D01*
X107950520Y-143568716D01*
X108029577Y-143431784D01*
X108070500Y-143279057D01*
X108070500Y-143120943D01*
X108029577Y-142968216D01*
X108029573Y-142968209D01*
X107950524Y-142831290D01*
X107950518Y-142831282D01*
X107838717Y-142719481D01*
X107838709Y-142719475D01*
X107701790Y-142640426D01*
X107701786Y-142640424D01*
X107701784Y-142640423D01*
X107549057Y-142599500D01*
X107390943Y-142599500D01*
X107238216Y-142640423D01*
X107238209Y-142640426D01*
X107101290Y-142719475D01*
X107095557Y-142723875D01*
X107030388Y-142749070D01*
X107020069Y-142749500D01*
X102074500Y-142749500D01*
X102007461Y-142729815D01*
X101961706Y-142677011D01*
X101950500Y-142625500D01*
X101950500Y-140665602D01*
X115449500Y-140665602D01*
X115449500Y-140934397D01*
X115484582Y-141200880D01*
X115484583Y-141200885D01*
X115484584Y-141200891D01*
X115484585Y-141200893D01*
X115554152Y-141460524D01*
X115657011Y-141708850D01*
X115657019Y-141708866D01*
X115737830Y-141848832D01*
X115791413Y-141941641D01*
X115791415Y-141941644D01*
X115791416Y-141941645D01*
X115955042Y-142154888D01*
X115955048Y-142154895D01*
X116145104Y-142344951D01*
X116145111Y-142344957D01*
X116270387Y-142441084D01*
X116358359Y-142508587D01*
X116507968Y-142594964D01*
X116591133Y-142642980D01*
X116591149Y-142642988D01*
X116673289Y-142677011D01*
X116839474Y-142745847D01*
X117099109Y-142815416D01*
X117287319Y-142840193D01*
X117365602Y-142850500D01*
X117365603Y-142850500D01*
X117634398Y-142850500D01*
X117694905Y-142842534D01*
X117900891Y-142815416D01*
X118160526Y-142745847D01*
X118347457Y-142668417D01*
X118408850Y-142642988D01*
X118408853Y-142642986D01*
X118408859Y-142642984D01*
X118641641Y-142508587D01*
X118854890Y-142344956D01*
X119044956Y-142154890D01*
X119208587Y-141941641D01*
X119342984Y-141708859D01*
X119445847Y-141460526D01*
X119515416Y-141200891D01*
X119550500Y-140934397D01*
X119550500Y-140665603D01*
X119515416Y-140399109D01*
X119445847Y-140139474D01*
X119394897Y-140016470D01*
X119342988Y-139891149D01*
X119342980Y-139891133D01*
X119278272Y-139779057D01*
X119208587Y-139658359D01*
X119088252Y-139501535D01*
X119044957Y-139445111D01*
X119044951Y-139445104D01*
X118854895Y-139255048D01*
X118854888Y-139255042D01*
X118641645Y-139091416D01*
X118641644Y-139091415D01*
X118641641Y-139091413D01*
X118548832Y-139037830D01*
X118408866Y-138957019D01*
X118408850Y-138957011D01*
X118160524Y-138854152D01*
X118029714Y-138819102D01*
X117900891Y-138784584D01*
X117900885Y-138784583D01*
X117900880Y-138784582D01*
X117634398Y-138749500D01*
X117634397Y-138749500D01*
X117365603Y-138749500D01*
X117365602Y-138749500D01*
X117099119Y-138784582D01*
X117099112Y-138784583D01*
X117099109Y-138784584D01*
X117044239Y-138799286D01*
X116839475Y-138854152D01*
X116591149Y-138957011D01*
X116591133Y-138957019D01*
X116358354Y-139091416D01*
X116145111Y-139255042D01*
X116145104Y-139255048D01*
X115955048Y-139445104D01*
X115955042Y-139445111D01*
X115791416Y-139658354D01*
X115657019Y-139891133D01*
X115657011Y-139891149D01*
X115554152Y-140139475D01*
X115484585Y-140399106D01*
X115484582Y-140399119D01*
X115449500Y-140665602D01*
X101950500Y-140665602D01*
X101950500Y-138220943D01*
X102299500Y-138220943D01*
X102299500Y-138379057D01*
X102335655Y-138513987D01*
X102340423Y-138531783D01*
X102340426Y-138531790D01*
X102419475Y-138668709D01*
X102419479Y-138668714D01*
X102419480Y-138668716D01*
X102531284Y-138780520D01*
X102531286Y-138780521D01*
X102531290Y-138780524D01*
X102658821Y-138854153D01*
X102668216Y-138859577D01*
X102820943Y-138900500D01*
X102820945Y-138900500D01*
X102979055Y-138900500D01*
X102979057Y-138900500D01*
X103131784Y-138859577D01*
X103268716Y-138780520D01*
X103268721Y-138780514D01*
X103274443Y-138776125D01*
X103339612Y-138750930D01*
X103349931Y-138750500D01*
X111150069Y-138750500D01*
X111217108Y-138770185D01*
X111225557Y-138776125D01*
X111231281Y-138780517D01*
X111231284Y-138780520D01*
X111231287Y-138780521D01*
X111231290Y-138780524D01*
X111358821Y-138854153D01*
X111368216Y-138859577D01*
X111520943Y-138900500D01*
X111520945Y-138900500D01*
X111679055Y-138900500D01*
X111679057Y-138900500D01*
X111831784Y-138859577D01*
X111968716Y-138780520D01*
X112080520Y-138668716D01*
X112159577Y-138531784D01*
X112200500Y-138379057D01*
X112200500Y-138220943D01*
X112159577Y-138068216D01*
X112148330Y-138048736D01*
X112080524Y-137931290D01*
X112080521Y-137931286D01*
X112080520Y-137931284D01*
X112047417Y-137898181D01*
X112013932Y-137836858D01*
X112018916Y-137767166D01*
X112060788Y-137711233D01*
X112126252Y-137686816D01*
X112135098Y-137686500D01*
X134565756Y-137686500D01*
X134595309Y-137695177D01*
X134625397Y-137701785D01*
X134630260Y-137705440D01*
X134632795Y-137706185D01*
X134653609Y-137722991D01*
X134701376Y-137770946D01*
X134702627Y-137772375D01*
X134707515Y-137777263D01*
X134746719Y-137816467D01*
X134786068Y-137855971D01*
X134786071Y-137855973D01*
X134786164Y-137856045D01*
X134786365Y-137856199D01*
X134786733Y-137856482D01*
X134786735Y-137856483D01*
X134786737Y-137856485D01*
X134834628Y-137884134D01*
X134834716Y-137884186D01*
X134882978Y-137912177D01*
X134882984Y-137912180D01*
X134883753Y-137912500D01*
X134883761Y-137912502D01*
X134883763Y-137912503D01*
X134937366Y-137926865D01*
X134991146Y-137941389D01*
X134991981Y-137941499D01*
X134991982Y-137941500D01*
X134991983Y-137941500D01*
X135047673Y-137941500D01*
X135103182Y-137941609D01*
X135103184Y-137941608D01*
X135110128Y-137941622D01*
X135112030Y-137941500D01*
X135652738Y-137941500D01*
X135719777Y-137961185D01*
X135765532Y-138013989D01*
X135775476Y-138083147D01*
X135772512Y-138097593D01*
X135747500Y-138190943D01*
X135747500Y-138349057D01*
X135786012Y-138492784D01*
X135788423Y-138501783D01*
X135788426Y-138501790D01*
X135867475Y-138638709D01*
X135867479Y-138638714D01*
X135867480Y-138638716D01*
X135979284Y-138750520D01*
X135979286Y-138750521D01*
X135979290Y-138750524D01*
X136116209Y-138829573D01*
X136116216Y-138829577D01*
X136268943Y-138870500D01*
X136295164Y-138870500D01*
X136362203Y-138890185D01*
X136382872Y-138906846D01*
X137133876Y-139658354D01*
X137491752Y-140016470D01*
X137491751Y-140016470D01*
X137497480Y-140022202D01*
X137497515Y-140022263D01*
X137535741Y-140060489D01*
X137576622Y-140101397D01*
X137576628Y-140101400D01*
X137576731Y-140101479D01*
X137576737Y-140101485D01*
X137624921Y-140129304D01*
X137673630Y-140157448D01*
X137673638Y-140157450D01*
X137673752Y-140157496D01*
X137673763Y-140157503D01*
X137727756Y-140171969D01*
X137727795Y-140171993D01*
X137727799Y-140171981D01*
X137781839Y-140186481D01*
X137781849Y-140186481D01*
X137781976Y-140186498D01*
X137781982Y-140186500D01*
X137781987Y-140186500D01*
X137837857Y-140186500D01*
X137893875Y-140186519D01*
X137893877Y-140186518D01*
X137901793Y-140186521D01*
X137902128Y-140186500D01*
X143485953Y-140186500D01*
X143541971Y-140186506D01*
X143541993Y-140186500D01*
X143542018Y-140186500D01*
X143597701Y-140171579D01*
X143649617Y-140157675D01*
X143650154Y-140157536D01*
X143650182Y-140157523D01*
X143650193Y-140157521D01*
X143650203Y-140157514D01*
X143650222Y-140157506D01*
X143650237Y-140157503D01*
X143650255Y-140157492D01*
X143650275Y-140157484D01*
X143650627Y-140157277D01*
X143699858Y-140128853D01*
X143746271Y-140102064D01*
X143747155Y-140101568D01*
X143747218Y-140101517D01*
X143747225Y-140101514D01*
X143747230Y-140101508D01*
X143747252Y-140101490D01*
X143747263Y-140101485D01*
X143747274Y-140101473D01*
X143747414Y-140101363D01*
X143748383Y-140100364D01*
X143788251Y-140060496D01*
X143788261Y-140060491D01*
X143788259Y-140060489D01*
X144069755Y-139779055D01*
X145807550Y-138041643D01*
X145868876Y-138008167D01*
X145938567Y-138013159D01*
X145994496Y-138055037D01*
X146002608Y-138067336D01*
X146052477Y-138153712D01*
X146052479Y-138153715D01*
X146052480Y-138153716D01*
X146164284Y-138265520D01*
X146164286Y-138265521D01*
X146164290Y-138265524D01*
X146293385Y-138340056D01*
X146301216Y-138344577D01*
X146453943Y-138385500D01*
X148988903Y-138385500D01*
X149055942Y-138405185D01*
X149076584Y-138421819D01*
X152657139Y-142002374D01*
X152657149Y-142002385D01*
X152661479Y-142006715D01*
X152661480Y-142006716D01*
X152773284Y-142118520D01*
X152773286Y-142118521D01*
X152773290Y-142118524D01*
X152880994Y-142180706D01*
X152910216Y-142197577D01*
X153022019Y-142227534D01*
X153062942Y-142238500D01*
X153062943Y-142238500D01*
X157998500Y-142238500D01*
X158065539Y-142258185D01*
X158111294Y-142310989D01*
X158122500Y-142362500D01*
X158122500Y-152798057D01*
X158144858Y-152881496D01*
X158163423Y-152950783D01*
X158163426Y-152950790D01*
X158242475Y-153087709D01*
X158242479Y-153087714D01*
X158242480Y-153087716D01*
X158354284Y-153199520D01*
X158354286Y-153199521D01*
X158354290Y-153199524D01*
X158387172Y-153218508D01*
X158491216Y-153278577D01*
X158643943Y-153319500D01*
X158643945Y-153319500D01*
X158802055Y-153319500D01*
X158802057Y-153319500D01*
X158954784Y-153278577D01*
X159091716Y-153199520D01*
X159203520Y-153087716D01*
X159282577Y-152950784D01*
X159288689Y-152927973D01*
X168399500Y-152927973D01*
X168399500Y-153172026D01*
X168422857Y-153319499D01*
X168437679Y-153413076D01*
X168483272Y-153553397D01*
X168513097Y-153645187D01*
X168623896Y-153862642D01*
X168767339Y-154060076D01*
X168767343Y-154060081D01*
X168939918Y-154232656D01*
X168939923Y-154232660D01*
X169112136Y-154357779D01*
X169137361Y-154376106D01*
X169354815Y-154486904D01*
X169586924Y-154562321D01*
X169827973Y-154600500D01*
X169827974Y-154600500D01*
X170072026Y-154600500D01*
X170072027Y-154600500D01*
X170313076Y-154562321D01*
X170545185Y-154486904D01*
X170762639Y-154376106D01*
X170960083Y-154232655D01*
X171132655Y-154060083D01*
X171276106Y-153862639D01*
X171386904Y-153645185D01*
X171462321Y-153413076D01*
X171500500Y-153172027D01*
X171500500Y-152927973D01*
X171493138Y-152881491D01*
X179149500Y-152881491D01*
X179149500Y-153218508D01*
X179187231Y-153553381D01*
X179187233Y-153553397D01*
X179262223Y-153881953D01*
X179262227Y-153881965D01*
X179373532Y-154200054D01*
X179519752Y-154503683D01*
X179519754Y-154503686D01*
X179699054Y-154789039D01*
X179909175Y-155052523D01*
X180147477Y-155290825D01*
X180410961Y-155500946D01*
X180696314Y-155680246D01*
X180999949Y-155826469D01*
X181238848Y-155910063D01*
X181318034Y-155937772D01*
X181318046Y-155937776D01*
X181646606Y-156012767D01*
X181981492Y-156050499D01*
X181981493Y-156050500D01*
X181981496Y-156050500D01*
X182318507Y-156050500D01*
X182318507Y-156050499D01*
X182653394Y-156012767D01*
X182981954Y-155937776D01*
X183300051Y-155826469D01*
X183603686Y-155680246D01*
X183889039Y-155500946D01*
X184152523Y-155290825D01*
X184390825Y-155052523D01*
X184600946Y-154789039D01*
X184780246Y-154503686D01*
X184926469Y-154200051D01*
X185037776Y-153881954D01*
X185112767Y-153553394D01*
X185150500Y-153218504D01*
X185150500Y-152881496D01*
X185112767Y-152546606D01*
X185037776Y-152218046D01*
X184926469Y-151899949D01*
X184780246Y-151596314D01*
X184600946Y-151310961D01*
X184390825Y-151047477D01*
X184152523Y-150809175D01*
X183889039Y-150599054D01*
X183603686Y-150419754D01*
X183603683Y-150419752D01*
X183300054Y-150273532D01*
X182981965Y-150162227D01*
X182981953Y-150162223D01*
X182653397Y-150087233D01*
X182653381Y-150087231D01*
X182318508Y-150049500D01*
X182318504Y-150049500D01*
X181981496Y-150049500D01*
X181981491Y-150049500D01*
X181646618Y-150087231D01*
X181646602Y-150087233D01*
X181318046Y-150162223D01*
X181318034Y-150162227D01*
X180999945Y-150273532D01*
X180696316Y-150419752D01*
X180410962Y-150599053D01*
X180147477Y-150809174D01*
X179909174Y-151047477D01*
X179699053Y-151310962D01*
X179519752Y-151596316D01*
X179373532Y-151899945D01*
X179262227Y-152218034D01*
X179262223Y-152218046D01*
X179187233Y-152546602D01*
X179187231Y-152546618D01*
X179149500Y-152881491D01*
X171493138Y-152881491D01*
X171462321Y-152686924D01*
X171386904Y-152454815D01*
X171276106Y-152237361D01*
X171257779Y-152212136D01*
X171132660Y-152039923D01*
X171132656Y-152039918D01*
X170960081Y-151867343D01*
X170960076Y-151867339D01*
X170762642Y-151723896D01*
X170762641Y-151723895D01*
X170762639Y-151723894D01*
X170545185Y-151613096D01*
X170313076Y-151537679D01*
X170313074Y-151537678D01*
X170313072Y-151537678D01*
X170144769Y-151511021D01*
X170072027Y-151499500D01*
X169827973Y-151499500D01*
X169772093Y-151508350D01*
X169586927Y-151537678D01*
X169354812Y-151613097D01*
X169137357Y-151723896D01*
X168939923Y-151867339D01*
X168939918Y-151867343D01*
X168767343Y-152039918D01*
X168767339Y-152039923D01*
X168623896Y-152237357D01*
X168513097Y-152454812D01*
X168437678Y-152686927D01*
X168399500Y-152927973D01*
X159288689Y-152927973D01*
X159323500Y-152798057D01*
X159323500Y-146831491D01*
X164999500Y-146831491D01*
X164999500Y-147168508D01*
X165037231Y-147503381D01*
X165037233Y-147503397D01*
X165112223Y-147831953D01*
X165112227Y-147831965D01*
X165223532Y-148150054D01*
X165369752Y-148453683D01*
X165369754Y-148453686D01*
X165549054Y-148739039D01*
X165759175Y-149002523D01*
X165997477Y-149240825D01*
X166260961Y-149450946D01*
X166546314Y-149630246D01*
X166849949Y-149776469D01*
X167088848Y-149860063D01*
X167168034Y-149887772D01*
X167168046Y-149887776D01*
X167496606Y-149962767D01*
X167831492Y-150000499D01*
X167831493Y-150000500D01*
X167831496Y-150000500D01*
X168168507Y-150000500D01*
X168168507Y-150000499D01*
X168503394Y-149962767D01*
X168831954Y-149887776D01*
X169150051Y-149776469D01*
X169453686Y-149630246D01*
X169739039Y-149450946D01*
X170002523Y-149240825D01*
X170240825Y-149002523D01*
X170450946Y-148739039D01*
X170630246Y-148453686D01*
X170776469Y-148150051D01*
X170887776Y-147831954D01*
X170962767Y-147503394D01*
X171000500Y-147168504D01*
X171000500Y-146831496D01*
X170962767Y-146496606D01*
X170887776Y-146168046D01*
X170875870Y-146134022D01*
X170860063Y-146088848D01*
X170776469Y-145849949D01*
X170630246Y-145546314D01*
X170450946Y-145260961D01*
X170240825Y-144997477D01*
X170002523Y-144759175D01*
X169739039Y-144549054D01*
X169453686Y-144369754D01*
X169453683Y-144369752D01*
X169150054Y-144223532D01*
X168831965Y-144112227D01*
X168831953Y-144112223D01*
X168503397Y-144037233D01*
X168503381Y-144037231D01*
X168168508Y-143999500D01*
X168168504Y-143999500D01*
X167831496Y-143999500D01*
X167831491Y-143999500D01*
X167496618Y-144037231D01*
X167496602Y-144037233D01*
X167168046Y-144112223D01*
X167168034Y-144112227D01*
X166849945Y-144223532D01*
X166546316Y-144369752D01*
X166260962Y-144549053D01*
X165997477Y-144759174D01*
X165759174Y-144997477D01*
X165549053Y-145260962D01*
X165369752Y-145546316D01*
X165223532Y-145849945D01*
X165112227Y-146168034D01*
X165112223Y-146168046D01*
X165037233Y-146496602D01*
X165037231Y-146496618D01*
X164999500Y-146831491D01*
X159323500Y-146831491D01*
X159323500Y-142362500D01*
X159343185Y-142295461D01*
X159395989Y-142249706D01*
X159447500Y-142238500D01*
X160075331Y-142238500D01*
X160075347Y-142238501D01*
X160082943Y-142238501D01*
X160241054Y-142238501D01*
X160241057Y-142238501D01*
X160393785Y-142197577D01*
X160443904Y-142168639D01*
X160530716Y-142118520D01*
X160642520Y-142006716D01*
X160642520Y-142006714D01*
X160652728Y-141996507D01*
X160652730Y-141996504D01*
X161721261Y-140927973D01*
X168399500Y-140927973D01*
X168399500Y-141172027D01*
X168437679Y-141413076D01*
X168513096Y-141645185D01*
X168618258Y-141851578D01*
X168623896Y-141862642D01*
X168767339Y-142060076D01*
X168767343Y-142060081D01*
X168939918Y-142232656D01*
X168939923Y-142232660D01*
X169094488Y-142344957D01*
X169137361Y-142376106D01*
X169354815Y-142486904D01*
X169586924Y-142562321D01*
X169827973Y-142600500D01*
X169827974Y-142600500D01*
X170072026Y-142600500D01*
X170072027Y-142600500D01*
X170313076Y-142562321D01*
X170545185Y-142486904D01*
X170762639Y-142376106D01*
X170960083Y-142232655D01*
X171132655Y-142060083D01*
X171276106Y-141862639D01*
X171386904Y-141645185D01*
X171462321Y-141413076D01*
X171500500Y-141172027D01*
X171500500Y-140927973D01*
X171462321Y-140686924D01*
X171386904Y-140454815D01*
X171276106Y-140237361D01*
X171239158Y-140186506D01*
X171132660Y-140039923D01*
X171132656Y-140039918D01*
X170960081Y-139867343D01*
X170960076Y-139867339D01*
X170762642Y-139723896D01*
X170762641Y-139723895D01*
X170762639Y-139723894D01*
X170545185Y-139613096D01*
X170313076Y-139537679D01*
X170313074Y-139537678D01*
X170313072Y-139537678D01*
X170144769Y-139511021D01*
X170072027Y-139499500D01*
X169827973Y-139499500D01*
X169772093Y-139508350D01*
X169586927Y-139537678D01*
X169354812Y-139613097D01*
X169137357Y-139723896D01*
X168939923Y-139867339D01*
X168939918Y-139867343D01*
X168767343Y-140039918D01*
X168767339Y-140039923D01*
X168623896Y-140237357D01*
X168513097Y-140454812D01*
X168437678Y-140686927D01*
X168415329Y-140828034D01*
X168399500Y-140927973D01*
X161721261Y-140927973D01*
X163858506Y-138790728D01*
X163858511Y-138790724D01*
X163868714Y-138780520D01*
X163868716Y-138780520D01*
X163980520Y-138668716D01*
X164047769Y-138552237D01*
X164059577Y-138531785D01*
X164100501Y-138379057D01*
X164100501Y-138220943D01*
X164059577Y-138068215D01*
X164015229Y-137991403D01*
X163980520Y-137931284D01*
X163868716Y-137819480D01*
X163868715Y-137819479D01*
X163868712Y-137819477D01*
X163759139Y-137756216D01*
X163759137Y-137756215D01*
X163731786Y-137740423D01*
X163731787Y-137740423D01*
X163659078Y-137720941D01*
X163579057Y-137699499D01*
X163420943Y-137699499D01*
X163340922Y-137720941D01*
X163268213Y-137740423D01*
X163240863Y-137756215D01*
X163240861Y-137756216D01*
X163131287Y-137819477D01*
X163131282Y-137819481D01*
X163069300Y-137881464D01*
X163019480Y-137931284D01*
X163019478Y-137931286D01*
X161482549Y-139468216D01*
X159949584Y-141001181D01*
X159888261Y-141034666D01*
X159861903Y-141037500D01*
X153442097Y-141037500D01*
X153375058Y-141017815D01*
X153354416Y-141001181D01*
X151286606Y-138933371D01*
X151253121Y-138872048D01*
X151258105Y-138802356D01*
X151299977Y-138746423D01*
X151302457Y-138744787D01*
X151306709Y-138741523D01*
X151306716Y-138741520D01*
X151418520Y-138629716D01*
X151497577Y-138492784D01*
X151538500Y-138340057D01*
X151538500Y-138313537D01*
X151558185Y-138246498D01*
X151574809Y-138225865D01*
X151733304Y-138067336D01*
X155829174Y-133970573D01*
X155829175Y-133970574D01*
X155829181Y-133970565D01*
X155869240Y-133930508D01*
X155870446Y-133929340D01*
X155870510Y-133929228D01*
X155870513Y-133929226D01*
X155898125Y-133881387D01*
X155926503Y-133832237D01*
X155926503Y-133832233D01*
X155926515Y-133832214D01*
X155926519Y-133832195D01*
X155926521Y-133832194D01*
X155941183Y-133777449D01*
X155941186Y-133777439D01*
X155946180Y-133758799D01*
X155955500Y-133724018D01*
X155955500Y-133724010D01*
X155955504Y-133723977D01*
X155955506Y-133723972D01*
X155955500Y-133665691D01*
X155955500Y-133547728D01*
X155961716Y-133526558D01*
X155963261Y-133504549D01*
X155971367Y-133493689D01*
X155975185Y-133480689D01*
X155991856Y-133466242D01*
X156005057Y-133448560D01*
X156017749Y-133443806D01*
X156027989Y-133434934D01*
X156049826Y-133431794D01*
X156070489Y-133424056D01*
X156083733Y-133426918D01*
X156097147Y-133424990D01*
X156117218Y-133434156D01*
X156138782Y-133438817D01*
X156156678Y-133452177D01*
X156160703Y-133454015D01*
X156167064Y-133459930D01*
X156171864Y-133464718D01*
X156171866Y-133464720D01*
X156187878Y-133480689D01*
X156211394Y-133504142D01*
X156211512Y-133504260D01*
X156255899Y-133548648D01*
X156256886Y-133549512D01*
X156584293Y-133876041D01*
X156623737Y-133915485D01*
X156623988Y-133915630D01*
X156624194Y-133915835D01*
X156672317Y-133943532D01*
X156672439Y-133943659D01*
X156672464Y-133943617D01*
X156720763Y-133971503D01*
X156720770Y-133971505D01*
X156720897Y-133971558D01*
X156720898Y-133971559D01*
X156720900Y-133971560D01*
X156721289Y-133971721D01*
X156721293Y-133971722D01*
X156721295Y-133971723D01*
X156775233Y-133986098D01*
X156828982Y-134000500D01*
X156829267Y-134000500D01*
X156829537Y-134000572D01*
X156829548Y-134000573D01*
X156829553Y-134000575D01*
X156829555Y-134000574D01*
X156829556Y-134000575D01*
X156885200Y-134000500D01*
X157424865Y-134000500D01*
X157485976Y-134000506D01*
X157485998Y-134000500D01*
X157486018Y-134000500D01*
X157524429Y-133990207D01*
X157539942Y-133986051D01*
X157539942Y-133986052D01*
X157539950Y-133986048D01*
X157594197Y-133971519D01*
X157594198Y-133971517D01*
X157594206Y-133971516D01*
X157594224Y-133971509D01*
X157594232Y-133971504D01*
X157594237Y-133971503D01*
X157645321Y-133942009D01*
X157691229Y-133915511D01*
X157691231Y-133915508D01*
X157691246Y-133915500D01*
X157691258Y-133915487D01*
X157691263Y-133915485D01*
X157731443Y-133875303D01*
X157731453Y-133875298D01*
X157731451Y-133875296D01*
X158179918Y-133426918D01*
X162720244Y-128887495D01*
X162720263Y-128887485D01*
X162759236Y-128848511D01*
X162798216Y-128809539D01*
X162799356Y-128808435D01*
X162799453Y-128808302D01*
X162799459Y-128808297D01*
X162799462Y-128808289D01*
X162799476Y-128808270D01*
X162799485Y-128808263D01*
X162799494Y-128808246D01*
X162799686Y-128807986D01*
X162800604Y-128806324D01*
X162827149Y-128760346D01*
X162827154Y-128760338D01*
X162855487Y-128711276D01*
X162855488Y-128711271D01*
X162855497Y-128711256D01*
X162855501Y-128711239D01*
X162855503Y-128711237D01*
X162868823Y-128661523D01*
X162884495Y-128603061D01*
X162884495Y-128603053D01*
X162884500Y-128603021D01*
X162884500Y-128552134D01*
X162884504Y-128511763D01*
X162884506Y-128491024D01*
X162884505Y-128491021D01*
X162884506Y-128483167D01*
X162884500Y-128483057D01*
X162884500Y-125237098D01*
X162904185Y-125170059D01*
X162920819Y-125149417D01*
X162923499Y-125146737D01*
X162939520Y-125130716D01*
X163018577Y-124993784D01*
X163059500Y-124841057D01*
X163059500Y-124682943D01*
X163018577Y-124530216D01*
X162986755Y-124475098D01*
X162939524Y-124393290D01*
X162939518Y-124393282D01*
X162827717Y-124281481D01*
X162827709Y-124281475D01*
X162690790Y-124202426D01*
X162690786Y-124202424D01*
X162690784Y-124202423D01*
X162538057Y-124161500D01*
X162379943Y-124161500D01*
X162227216Y-124202423D01*
X162227209Y-124202426D01*
X162090290Y-124281475D01*
X162090282Y-124281481D01*
X161978481Y-124393282D01*
X161978475Y-124393290D01*
X161899426Y-124530209D01*
X161899423Y-124530216D01*
X161858500Y-124682943D01*
X161858500Y-124841057D01*
X161888585Y-124953334D01*
X161899423Y-124993783D01*
X161899426Y-124993790D01*
X161978475Y-125130709D01*
X161978481Y-125130717D01*
X161997181Y-125149417D01*
X162030666Y-125210740D01*
X162033500Y-125237098D01*
X162033500Y-128319356D01*
X162013815Y-128386395D01*
X161997173Y-128407046D01*
X157290094Y-133113190D01*
X157263164Y-133127891D01*
X157237356Y-133144477D01*
X157231146Y-133145369D01*
X157228767Y-133146669D01*
X157202421Y-133149500D01*
X157112179Y-133149500D01*
X157045140Y-133129815D01*
X157024616Y-133113299D01*
X156973937Y-133062756D01*
X156940369Y-133001478D01*
X156937500Y-132974957D01*
X156937500Y-125635610D01*
X156957185Y-125568571D01*
X156973819Y-125547929D01*
X157534929Y-124986819D01*
X157596252Y-124953334D01*
X157622610Y-124950500D01*
X157649055Y-124950500D01*
X157649057Y-124950500D01*
X157801784Y-124909577D01*
X157938716Y-124830520D01*
X158050520Y-124718716D01*
X158129577Y-124581784D01*
X158170500Y-124429057D01*
X158170500Y-124270943D01*
X158129577Y-124118216D01*
X158106968Y-124079056D01*
X158050524Y-123981290D01*
X158050518Y-123981282D01*
X157938717Y-123869481D01*
X157938709Y-123869475D01*
X157801790Y-123790426D01*
X157801786Y-123790424D01*
X157801784Y-123790423D01*
X157649057Y-123749500D01*
X157490943Y-123749500D01*
X157338216Y-123790423D01*
X157338209Y-123790426D01*
X157201290Y-123869475D01*
X157201282Y-123869481D01*
X157089481Y-123981282D01*
X157089475Y-123981290D01*
X157010426Y-124118209D01*
X157010423Y-124118216D01*
X156969500Y-124270943D01*
X156969500Y-124297390D01*
X156949815Y-124364429D01*
X156933181Y-124385071D01*
X156167181Y-125151071D01*
X156105858Y-125184556D01*
X156036166Y-125179572D01*
X155980233Y-125137700D01*
X155955816Y-125072236D01*
X155955500Y-125063390D01*
X155955500Y-123835609D01*
X155975185Y-123768570D01*
X155991819Y-123747928D01*
X157958928Y-121780819D01*
X158020251Y-121747334D01*
X158046609Y-121744500D01*
X158073055Y-121744500D01*
X158073057Y-121744500D01*
X158225784Y-121703577D01*
X158362716Y-121624520D01*
X158474520Y-121512716D01*
X158553577Y-121375784D01*
X158594500Y-121223057D01*
X158594500Y-121064943D01*
X158553577Y-120912216D01*
X158528794Y-120869290D01*
X158474524Y-120775290D01*
X158474518Y-120775282D01*
X158362717Y-120663481D01*
X158362709Y-120663475D01*
X158225790Y-120584426D01*
X158225786Y-120584424D01*
X158225784Y-120584423D01*
X158073057Y-120543500D01*
X157914943Y-120543500D01*
X157762216Y-120584423D01*
X157762209Y-120584426D01*
X157625290Y-120663475D01*
X157625282Y-120663481D01*
X157513481Y-120775282D01*
X157513475Y-120775290D01*
X157434426Y-120912209D01*
X157434423Y-120912216D01*
X157393500Y-121064943D01*
X157393500Y-121091389D01*
X157373815Y-121158428D01*
X157357181Y-121179070D01*
X155285181Y-123251070D01*
X155223858Y-123284555D01*
X155154166Y-123279571D01*
X155098233Y-123237699D01*
X155073816Y-123172235D01*
X155073500Y-123163389D01*
X155073500Y-120115626D01*
X155081341Y-120088922D01*
X155085949Y-120061475D01*
X155091048Y-120055861D01*
X155093185Y-120048587D01*
X155114213Y-120030365D01*
X155132933Y-120009762D01*
X155142940Y-120005473D01*
X155145989Y-120002832D01*
X155165363Y-119995863D01*
X155196711Y-119987453D01*
X155201662Y-119986126D01*
X155201695Y-119986117D01*
X155256237Y-119971503D01*
X155256242Y-119971499D01*
X155256343Y-119971456D01*
X155256355Y-119971454D01*
X155292564Y-119950533D01*
X155304884Y-119943416D01*
X155304884Y-119943417D01*
X155304908Y-119943400D01*
X155353263Y-119915485D01*
X155353264Y-119915483D01*
X155353281Y-119915474D01*
X155353344Y-119915426D01*
X155353360Y-119915409D01*
X155353365Y-119915407D01*
X155393514Y-119875233D01*
X155393516Y-119875231D01*
X155393521Y-119875236D01*
X155393540Y-119875206D01*
X155432485Y-119836263D01*
X155432486Y-119836260D01*
X155438499Y-119830248D01*
X155438680Y-119830038D01*
X156785469Y-118482447D01*
X156905999Y-118361845D01*
X156967312Y-118328342D01*
X156993706Y-118325500D01*
X158681390Y-118325500D01*
X158748429Y-118345185D01*
X158769071Y-118361819D01*
X159872181Y-119464929D01*
X159905666Y-119526252D01*
X159908500Y-119552610D01*
X159908500Y-119579057D01*
X159936812Y-119684717D01*
X159949423Y-119731783D01*
X159949426Y-119731790D01*
X160028475Y-119868709D01*
X160028479Y-119868714D01*
X160028480Y-119868716D01*
X160140284Y-119980520D01*
X160140286Y-119980521D01*
X160140290Y-119980524D01*
X160260869Y-120050139D01*
X160277216Y-120059577D01*
X160429943Y-120100500D01*
X160429945Y-120100500D01*
X160588055Y-120100500D01*
X160588057Y-120100500D01*
X160740784Y-120059577D01*
X160877716Y-119980520D01*
X160989520Y-119868716D01*
X161068577Y-119731784D01*
X161109500Y-119579057D01*
X161109500Y-119420943D01*
X161068577Y-119268216D01*
X161000037Y-119149500D01*
X160989524Y-119131290D01*
X160989518Y-119131282D01*
X160877717Y-119019481D01*
X160877709Y-119019475D01*
X160740790Y-118940426D01*
X160740786Y-118940424D01*
X160740784Y-118940423D01*
X160588057Y-118899500D01*
X160588056Y-118899500D01*
X160561610Y-118899500D01*
X160494571Y-118879815D01*
X160473929Y-118863181D01*
X159415929Y-117805181D01*
X159382444Y-117743858D01*
X159387428Y-117674166D01*
X159429300Y-117618233D01*
X159494764Y-117593816D01*
X159503610Y-117593500D01*
X161840016Y-117593500D01*
X161840018Y-117593500D01*
X161948237Y-117564503D01*
X162045263Y-117508485D01*
X162555485Y-116998263D01*
X162611503Y-116901237D01*
X162640500Y-116793018D01*
X162640500Y-116680982D01*
X162640500Y-116187982D01*
X162611503Y-116079763D01*
X162555485Y-115982737D01*
X162476263Y-115903515D01*
X161278929Y-114706181D01*
X161245444Y-114644858D01*
X161250428Y-114575166D01*
X161292300Y-114519233D01*
X161357764Y-114494816D01*
X161366610Y-114494500D01*
X165152563Y-114494500D01*
X165219602Y-114514185D01*
X165240196Y-114530771D01*
X165586215Y-114876419D01*
X165675134Y-114965242D01*
X165708652Y-115026547D01*
X165711500Y-115052970D01*
X165711500Y-115079057D01*
X165748116Y-115215708D01*
X165752423Y-115231783D01*
X165752426Y-115231790D01*
X165831475Y-115368709D01*
X165831481Y-115368717D01*
X165850181Y-115387417D01*
X165883666Y-115448740D01*
X165886500Y-115475098D01*
X165886500Y-128624902D01*
X165866815Y-128691941D01*
X165850181Y-128712583D01*
X165831481Y-128731282D01*
X165831475Y-128731290D01*
X165752426Y-128868209D01*
X165752423Y-128868216D01*
X165711500Y-129020943D01*
X165711500Y-129179057D01*
X165740513Y-129287333D01*
X165752423Y-129331783D01*
X165752426Y-129331790D01*
X165831475Y-129468709D01*
X165831479Y-129468714D01*
X165831480Y-129468716D01*
X165943284Y-129580520D01*
X165943286Y-129580521D01*
X165943290Y-129580524D01*
X166080209Y-129659573D01*
X166080216Y-129659577D01*
X166232943Y-129700500D01*
X166232945Y-129700500D01*
X166391055Y-129700500D01*
X166391057Y-129700500D01*
X166543784Y-129659577D01*
X166680716Y-129580520D01*
X166792520Y-129468716D01*
X166871577Y-129331784D01*
X166912500Y-129179057D01*
X166912500Y-129020943D01*
X166871577Y-128868216D01*
X166860201Y-128848512D01*
X166792524Y-128731290D01*
X166792518Y-128731282D01*
X166773819Y-128712583D01*
X166740334Y-128651260D01*
X166737500Y-128624902D01*
X166737500Y-115475098D01*
X166757185Y-115408059D01*
X166773819Y-115387417D01*
X166781023Y-115380213D01*
X166792520Y-115368716D01*
X166871577Y-115231784D01*
X166912500Y-115079057D01*
X166912500Y-114920943D01*
X166871577Y-114768216D01*
X166844684Y-114721636D01*
X166792524Y-114631290D01*
X166792518Y-114631282D01*
X166680717Y-114519481D01*
X166680709Y-114519475D01*
X166543790Y-114440426D01*
X166543786Y-114440424D01*
X166543784Y-114440423D01*
X166391057Y-114399500D01*
X166391056Y-114399500D01*
X166364249Y-114399500D01*
X166297210Y-114379815D01*
X166276615Y-114363228D01*
X165992310Y-114079228D01*
X165958792Y-114017923D01*
X165963739Y-113948229D01*
X166005580Y-113892273D01*
X166071032Y-113867821D01*
X166079944Y-113867500D01*
X169810903Y-113867500D01*
X169877942Y-113887185D01*
X169898584Y-113903819D01*
X170825826Y-114831061D01*
X170859311Y-114892384D01*
X170854327Y-114962076D01*
X170812455Y-115018009D01*
X170770239Y-115038516D01*
X170752225Y-115043343D01*
X170692214Y-115059423D01*
X170692209Y-115059426D01*
X170555290Y-115138475D01*
X170555282Y-115138481D01*
X170443481Y-115250282D01*
X170443475Y-115250290D01*
X170364426Y-115387209D01*
X170364423Y-115387216D01*
X170323500Y-115539943D01*
X170323500Y-115698057D01*
X170364423Y-115850782D01*
X170364423Y-115850783D01*
X170364426Y-115850790D01*
X170443475Y-115987709D01*
X170443481Y-115987717D01*
X170462181Y-116006417D01*
X170495666Y-116067740D01*
X170498500Y-116094098D01*
X170498500Y-117328982D01*
X170498500Y-117441018D01*
X170527497Y-117549237D01*
X170583515Y-117646263D01*
X170583517Y-117646265D01*
X175735181Y-122797929D01*
X175768666Y-122859252D01*
X175771500Y-122885610D01*
X175771500Y-123296967D01*
X175751815Y-123364006D01*
X175699011Y-123409761D01*
X175629853Y-123419705D01*
X175615408Y-123416742D01*
X175551058Y-123399500D01*
X175551057Y-123399500D01*
X175392943Y-123399500D01*
X175240216Y-123440423D01*
X175240209Y-123440426D01*
X175103290Y-123519475D01*
X175103282Y-123519481D01*
X174991481Y-123631282D01*
X174991475Y-123631290D01*
X174912426Y-123768209D01*
X174912423Y-123768216D01*
X174871500Y-123920943D01*
X174871500Y-124079057D01*
X174896027Y-124170591D01*
X174912423Y-124231783D01*
X174912426Y-124231790D01*
X174991475Y-124368709D01*
X174991481Y-124368717D01*
X175010181Y-124387417D01*
X175043666Y-124448740D01*
X175046500Y-124475098D01*
X175046500Y-125128390D01*
X175026815Y-125195429D01*
X175010181Y-125216071D01*
X170251071Y-129975181D01*
X170189748Y-130008666D01*
X170163390Y-130011500D01*
X170136943Y-130011500D01*
X169984216Y-130052423D01*
X169984209Y-130052426D01*
X169847290Y-130131475D01*
X169847282Y-130131481D01*
X169735481Y-130243282D01*
X169735475Y-130243290D01*
X169656426Y-130380209D01*
X169656423Y-130380216D01*
X169615500Y-130532943D01*
X169615500Y-130691057D01*
X169654146Y-130835284D01*
X169656423Y-130843783D01*
X169656426Y-130843790D01*
X169735475Y-130980709D01*
X169735479Y-130980714D01*
X169735480Y-130980716D01*
X169847284Y-131092520D01*
X169847285Y-131092521D01*
X169847287Y-131092522D01*
X169862306Y-131101193D01*
X169910523Y-131151759D01*
X169923747Y-131220366D01*
X169897780Y-131285231D01*
X169887989Y-131296262D01*
X165892071Y-135292181D01*
X165830748Y-135325666D01*
X165804390Y-135328500D01*
X157574098Y-135328500D01*
X157507059Y-135308815D01*
X157486417Y-135292181D01*
X157467717Y-135273481D01*
X157467709Y-135273475D01*
X157330790Y-135194426D01*
X157330786Y-135194424D01*
X157330784Y-135194423D01*
X157178057Y-135153500D01*
X157019943Y-135153500D01*
X156867216Y-135194423D01*
X156867209Y-135194426D01*
X156730290Y-135273475D01*
X156730282Y-135273481D01*
X156618481Y-135385282D01*
X156618475Y-135385290D01*
X156539426Y-135522209D01*
X156539423Y-135522216D01*
X156498500Y-135674943D01*
X156498500Y-135833057D01*
X156530583Y-135952790D01*
X156539423Y-135985783D01*
X156539426Y-135985790D01*
X156618475Y-136122709D01*
X156618479Y-136122714D01*
X156618480Y-136122716D01*
X156730284Y-136234520D01*
X156730286Y-136234521D01*
X156730290Y-136234524D01*
X156841647Y-136298815D01*
X156867216Y-136313577D01*
X157019943Y-136354500D01*
X157019945Y-136354500D01*
X157178055Y-136354500D01*
X157178057Y-136354500D01*
X157330784Y-136313577D01*
X157467716Y-136234520D01*
X157486417Y-136215819D01*
X157547740Y-136182334D01*
X157574098Y-136179500D01*
X166088016Y-136179500D01*
X166088018Y-136179500D01*
X166196237Y-136150503D01*
X166293263Y-136094485D01*
X175526928Y-126860818D01*
X175553855Y-126846115D01*
X175579674Y-126829523D01*
X175585874Y-126828631D01*
X175588251Y-126827334D01*
X175614609Y-126824500D01*
X175623390Y-126824500D01*
X175690429Y-126844185D01*
X175736184Y-126896989D01*
X175746128Y-126966147D01*
X175717103Y-127029703D01*
X175711071Y-127036181D01*
X167371517Y-135375734D01*
X167371513Y-135375740D01*
X167315498Y-135472760D01*
X167315497Y-135472763D01*
X167286500Y-135580982D01*
X167286500Y-139224902D01*
X167266815Y-139291941D01*
X167250181Y-139312583D01*
X167231481Y-139331282D01*
X167231475Y-139331290D01*
X167152426Y-139468209D01*
X167152423Y-139468216D01*
X167111500Y-139620943D01*
X167111500Y-139779056D01*
X167152423Y-139931783D01*
X167152426Y-139931790D01*
X167231475Y-140068709D01*
X167231479Y-140068714D01*
X167231480Y-140068716D01*
X167343284Y-140180520D01*
X167343286Y-140180521D01*
X167343290Y-140180524D01*
X167441729Y-140237357D01*
X167480216Y-140259577D01*
X167632943Y-140300500D01*
X167632945Y-140300500D01*
X167791055Y-140300500D01*
X167791057Y-140300500D01*
X167943784Y-140259577D01*
X168080716Y-140180520D01*
X168192520Y-140068716D01*
X168271577Y-139931784D01*
X168312500Y-139779057D01*
X168312500Y-139620943D01*
X168271577Y-139468216D01*
X168271573Y-139468209D01*
X168192524Y-139331290D01*
X168192518Y-139331282D01*
X168173819Y-139312583D01*
X168140334Y-139251260D01*
X168137500Y-139224902D01*
X168137500Y-135864610D01*
X168157185Y-135797571D01*
X168173819Y-135776929D01*
X175618819Y-128331929D01*
X175680142Y-128298444D01*
X175749834Y-128303428D01*
X175805767Y-128345300D01*
X175830184Y-128410764D01*
X175830500Y-128419610D01*
X175830500Y-131144500D01*
X175810815Y-131211539D01*
X175758011Y-131257294D01*
X175706500Y-131268500D01*
X174722098Y-131268500D01*
X174655059Y-131248815D01*
X174634417Y-131232181D01*
X174615717Y-131213481D01*
X174615709Y-131213475D01*
X174478790Y-131134426D01*
X174478786Y-131134424D01*
X174478784Y-131134423D01*
X174326057Y-131093500D01*
X174167943Y-131093500D01*
X174015216Y-131134423D01*
X174015209Y-131134426D01*
X173878290Y-131213475D01*
X173878282Y-131213481D01*
X173766481Y-131325282D01*
X173766475Y-131325290D01*
X173687426Y-131462209D01*
X173687423Y-131462216D01*
X173646500Y-131614943D01*
X173646500Y-131773057D01*
X173674903Y-131879056D01*
X173687423Y-131925783D01*
X173687426Y-131925790D01*
X173766475Y-132062709D01*
X173766479Y-132062714D01*
X173766480Y-132062716D01*
X173878284Y-132174520D01*
X173878286Y-132174521D01*
X173878290Y-132174524D01*
X174015209Y-132253573D01*
X174015216Y-132253577D01*
X174167943Y-132294500D01*
X174167945Y-132294500D01*
X174326055Y-132294500D01*
X174326057Y-132294500D01*
X174478784Y-132253577D01*
X174615716Y-132174520D01*
X174634417Y-132155819D01*
X174695740Y-132122334D01*
X174722098Y-132119500D01*
X176028217Y-132119500D01*
X176095256Y-132139185D01*
X176115944Y-132155865D01*
X176845456Y-132886161D01*
X176845515Y-132886263D01*
X176885489Y-132926237D01*
X176924554Y-132965344D01*
X176924557Y-132965346D01*
X176924731Y-132965479D01*
X176924737Y-132965485D01*
X176973306Y-132993526D01*
X177021550Y-133021415D01*
X177021663Y-133021445D01*
X177021763Y-133021503D01*
X177024977Y-133022364D01*
X177024979Y-133022365D01*
X177040103Y-133026417D01*
X177075275Y-133035841D01*
X177129753Y-133050470D01*
X177129870Y-133050470D01*
X177129982Y-133050500D01*
X177129988Y-133050500D01*
X177185772Y-133050500D01*
X177241790Y-133050530D01*
X177241793Y-133050528D01*
X177249606Y-133050533D01*
X177250124Y-133050500D01*
X177811902Y-133050500D01*
X177878941Y-133070185D01*
X177899583Y-133086819D01*
X177918284Y-133105520D01*
X177918286Y-133105521D01*
X177918290Y-133105524D01*
X177994460Y-133149500D01*
X178055216Y-133184577D01*
X178207943Y-133225500D01*
X178207945Y-133225500D01*
X178366055Y-133225500D01*
X178366057Y-133225500D01*
X178518784Y-133184577D01*
X178655716Y-133105520D01*
X178767520Y-132993716D01*
X178846577Y-132856784D01*
X178883725Y-132718142D01*
X178920090Y-132658483D01*
X178982937Y-132627954D01*
X179052313Y-132636249D01*
X179106190Y-132680734D01*
X179127465Y-132747286D01*
X179127500Y-132750237D01*
X179127500Y-134979057D01*
X179165400Y-135120500D01*
X179168423Y-135131783D01*
X179168426Y-135131790D01*
X179247475Y-135268709D01*
X179247481Y-135268717D01*
X179359568Y-135380804D01*
X179393053Y-135442127D01*
X179388069Y-135511819D01*
X179359544Y-135556190D01*
X178633135Y-136282205D01*
X178571803Y-136315673D01*
X178545478Y-136318500D01*
X173394098Y-136318500D01*
X173327059Y-136298815D01*
X173306417Y-136282181D01*
X173287717Y-136263481D01*
X173287709Y-136263475D01*
X173150790Y-136184426D01*
X173150786Y-136184424D01*
X173150784Y-136184423D01*
X172998057Y-136143500D01*
X172839943Y-136143500D01*
X172687216Y-136184423D01*
X172687209Y-136184426D01*
X172550290Y-136263475D01*
X172550282Y-136263481D01*
X172438481Y-136375282D01*
X172438475Y-136375290D01*
X172359426Y-136512209D01*
X172359423Y-136512216D01*
X172318500Y-136664943D01*
X172318500Y-136823057D01*
X172351443Y-136946000D01*
X172359423Y-136975783D01*
X172359426Y-136975790D01*
X172438475Y-137112709D01*
X172438479Y-137112714D01*
X172438480Y-137112716D01*
X172550284Y-137224520D01*
X172550286Y-137224521D01*
X172550290Y-137224524D01*
X172687209Y-137303573D01*
X172687216Y-137303577D01*
X172839943Y-137344500D01*
X172839945Y-137344500D01*
X172998055Y-137344500D01*
X172998057Y-137344500D01*
X173150784Y-137303577D01*
X173287716Y-137224520D01*
X173306417Y-137205819D01*
X173367740Y-137172334D01*
X173394098Y-137169500D01*
X178772884Y-137169500D01*
X178828902Y-137169515D01*
X178828958Y-137169500D01*
X178829018Y-137169500D01*
X178883049Y-137155022D01*
X178883050Y-137155026D01*
X178883079Y-137155013D01*
X178937129Y-137140548D01*
X178937135Y-137140544D01*
X178937225Y-137140506D01*
X178937237Y-137140503D01*
X178985362Y-137112717D01*
X178985717Y-137112512D01*
X178985719Y-137112510D01*
X179034170Y-137084556D01*
X179034173Y-137084552D01*
X179034181Y-137084547D01*
X179034215Y-137084512D01*
X179034263Y-137084485D01*
X179074504Y-137044243D01*
X179090844Y-137027911D01*
X179152172Y-136994444D01*
X179221862Y-136999446D01*
X179277785Y-137041331D01*
X179302186Y-137106801D01*
X179302500Y-137115617D01*
X179302500Y-137437902D01*
X179282815Y-137504941D01*
X179266181Y-137525583D01*
X179247481Y-137544282D01*
X179247475Y-137544290D01*
X179168426Y-137681209D01*
X179168423Y-137681216D01*
X179127500Y-137833943D01*
X179127500Y-137992057D01*
X179156405Y-138099930D01*
X179168423Y-138144783D01*
X179168426Y-138144790D01*
X179247475Y-138281709D01*
X179247479Y-138281714D01*
X179247480Y-138281716D01*
X179359284Y-138393520D01*
X179359286Y-138393521D01*
X179359290Y-138393524D01*
X179496209Y-138472573D01*
X179496216Y-138472577D01*
X179515047Y-138477622D01*
X179574707Y-138513987D01*
X179605236Y-138576833D01*
X179596942Y-138646209D01*
X179578807Y-138676061D01*
X179384983Y-138912236D01*
X179384975Y-138912248D01*
X179193904Y-139198206D01*
X179193893Y-139198224D01*
X179031772Y-139501530D01*
X179031770Y-139501535D01*
X178900150Y-139819293D01*
X178800308Y-140148427D01*
X178733210Y-140485750D01*
X178713397Y-140686927D01*
X178699500Y-140828031D01*
X178699500Y-141171969D01*
X178702349Y-141200891D01*
X178733210Y-141514249D01*
X178800308Y-141851572D01*
X178900150Y-142180706D01*
X179031770Y-142498464D01*
X179031772Y-142498469D01*
X179193893Y-142801775D01*
X179193904Y-142801793D01*
X179384975Y-143087751D01*
X179384985Y-143087765D01*
X179603176Y-143353632D01*
X179846367Y-143596823D01*
X179846372Y-143596827D01*
X179846373Y-143596828D01*
X180112240Y-143815019D01*
X180398213Y-144006100D01*
X180398222Y-144006105D01*
X180398224Y-144006106D01*
X180701530Y-144168227D01*
X180701532Y-144168227D01*
X180701538Y-144168231D01*
X181019295Y-144299850D01*
X181348422Y-144399690D01*
X181685750Y-144466789D01*
X182028031Y-144500500D01*
X182028034Y-144500500D01*
X182371966Y-144500500D01*
X182371969Y-144500500D01*
X182714250Y-144466789D01*
X183051578Y-144399690D01*
X183380705Y-144299850D01*
X183698462Y-144168231D01*
X184001787Y-144006100D01*
X184287760Y-143815019D01*
X184553627Y-143596828D01*
X184796828Y-143353627D01*
X185015019Y-143087760D01*
X185206100Y-142801787D01*
X185368231Y-142498462D01*
X185499850Y-142180705D01*
X185599690Y-141851578D01*
X185666789Y-141514250D01*
X185700500Y-141171969D01*
X185700500Y-140828031D01*
X185666789Y-140485750D01*
X185599690Y-140148422D01*
X185499850Y-139819295D01*
X185368231Y-139501538D01*
X185338066Y-139445104D01*
X185206106Y-139198224D01*
X185206105Y-139198222D01*
X185206100Y-139198213D01*
X185015019Y-138912240D01*
X184796828Y-138646373D01*
X184796827Y-138646372D01*
X184796823Y-138646367D01*
X184553632Y-138403176D01*
X184287765Y-138184985D01*
X184287764Y-138184984D01*
X184287760Y-138184981D01*
X184001787Y-137993900D01*
X184001782Y-137993897D01*
X184001775Y-137993893D01*
X183698469Y-137831772D01*
X183698464Y-137831770D01*
X183693744Y-137829815D01*
X183380705Y-137700150D01*
X183380704Y-137700149D01*
X183380700Y-137700148D01*
X183251335Y-137660905D01*
X183192897Y-137622608D01*
X183164440Y-137558795D01*
X183175001Y-137489728D01*
X183193798Y-137462921D01*
X183192886Y-137462173D01*
X183196751Y-137457462D01*
X183306185Y-137293684D01*
X183306192Y-137293671D01*
X183381569Y-137111692D01*
X183381569Y-137111690D01*
X183389862Y-137070000D01*
X182586988Y-137070000D01*
X182604205Y-137060060D01*
X182660060Y-137004205D01*
X182699556Y-136935796D01*
X182720000Y-136859496D01*
X182720000Y-136780504D01*
X182699556Y-136704204D01*
X182660060Y-136635795D01*
X182604205Y-136579940D01*
X182586988Y-136570000D01*
X183389862Y-136570000D01*
X184780138Y-136570000D01*
X185583012Y-136570000D01*
X185565795Y-136579940D01*
X185509940Y-136635795D01*
X185470444Y-136704204D01*
X185450000Y-136780504D01*
X185450000Y-136859496D01*
X185470444Y-136935796D01*
X185509940Y-137004205D01*
X185565795Y-137060060D01*
X185583012Y-137070000D01*
X184780138Y-137070000D01*
X184788430Y-137111690D01*
X184788430Y-137111692D01*
X184863807Y-137293671D01*
X184863814Y-137293684D01*
X184973248Y-137457462D01*
X184973251Y-137457466D01*
X185112533Y-137596748D01*
X185112537Y-137596751D01*
X185276315Y-137706185D01*
X185276328Y-137706192D01*
X185458306Y-137781569D01*
X185458318Y-137781572D01*
X185651504Y-137819999D01*
X185651508Y-137820000D01*
X185800000Y-137820000D01*
X185800000Y-137120000D01*
X186300000Y-137120000D01*
X186300000Y-137820000D01*
X186448492Y-137820000D01*
X186448495Y-137819999D01*
X186641681Y-137781572D01*
X186641693Y-137781569D01*
X186823671Y-137706192D01*
X186823684Y-137706185D01*
X186987462Y-137596751D01*
X186987466Y-137596748D01*
X187126748Y-137457466D01*
X187126751Y-137457462D01*
X187236185Y-137293684D01*
X187236192Y-137293671D01*
X187311569Y-137111692D01*
X187311569Y-137111690D01*
X187319862Y-137070000D01*
X186516988Y-137070000D01*
X186534205Y-137060060D01*
X186590060Y-137004205D01*
X186629556Y-136935796D01*
X186650000Y-136859496D01*
X186650000Y-136780504D01*
X186629556Y-136704204D01*
X186590060Y-136635795D01*
X186534205Y-136579940D01*
X186516988Y-136570000D01*
X187319862Y-136570000D01*
X187311569Y-136528309D01*
X187311569Y-136528307D01*
X187236192Y-136346328D01*
X187236185Y-136346315D01*
X187126751Y-136182537D01*
X187126748Y-136182533D01*
X186987466Y-136043251D01*
X186987462Y-136043248D01*
X186823684Y-135933814D01*
X186823671Y-135933807D01*
X186641693Y-135858430D01*
X186641681Y-135858427D01*
X186448495Y-135820000D01*
X186300000Y-135820000D01*
X186300000Y-136520000D01*
X185800000Y-136520000D01*
X185800000Y-135820000D01*
X185651504Y-135820000D01*
X185458318Y-135858427D01*
X185458306Y-135858430D01*
X185276328Y-135933807D01*
X185276315Y-135933814D01*
X185112537Y-136043248D01*
X185112533Y-136043251D01*
X184973251Y-136182533D01*
X184973248Y-136182537D01*
X184863814Y-136346315D01*
X184863807Y-136346328D01*
X184788430Y-136528307D01*
X184788430Y-136528309D01*
X184780138Y-136570000D01*
X183389862Y-136570000D01*
X183381569Y-136528309D01*
X183381569Y-136528307D01*
X183306192Y-136346328D01*
X183306185Y-136346315D01*
X183196751Y-136182537D01*
X183196748Y-136182533D01*
X183057466Y-136043251D01*
X183057462Y-136043248D01*
X182893684Y-135933814D01*
X182893677Y-135933811D01*
X182857014Y-135918624D01*
X182802611Y-135874782D01*
X182780547Y-135808488D01*
X182797827Y-135740788D01*
X182816784Y-135716385D01*
X182820505Y-135712665D01*
X182889688Y-135592836D01*
X182925500Y-135459183D01*
X182925500Y-135320817D01*
X182889688Y-135187164D01*
X182851200Y-135120500D01*
X182820507Y-135067338D01*
X182820503Y-135067333D01*
X182722666Y-134969496D01*
X182722661Y-134969492D01*
X182602838Y-134900313D01*
X182602837Y-134900312D01*
X182602836Y-134900312D01*
X182469183Y-134864500D01*
X182330817Y-134864500D01*
X182197164Y-134900312D01*
X182197161Y-134900313D01*
X182077338Y-134969492D01*
X182077333Y-134969496D01*
X181979496Y-135067333D01*
X181979492Y-135067338D01*
X181910313Y-135187161D01*
X181910312Y-135187164D01*
X181874500Y-135320817D01*
X181874500Y-135459183D01*
X181909253Y-135588881D01*
X181910312Y-135592835D01*
X181910313Y-135592838D01*
X181979492Y-135712661D01*
X181979496Y-135712666D01*
X182083082Y-135816252D01*
X182080690Y-135818643D01*
X182112661Y-135862367D01*
X182120000Y-135904392D01*
X182120000Y-136520000D01*
X181620000Y-136520000D01*
X181620000Y-135820000D01*
X181583897Y-135820000D01*
X181552716Y-135810844D01*
X181521184Y-135802972D01*
X181519381Y-135801055D01*
X181516858Y-135800315D01*
X181495585Y-135775764D01*
X181473306Y-135752086D01*
X181472825Y-135749498D01*
X181471103Y-135747511D01*
X181466477Y-135715341D01*
X181460540Y-135683392D01*
X181461392Y-135679976D01*
X181461159Y-135678353D01*
X181469088Y-135649149D01*
X181471190Y-135643998D01*
X181471495Y-135643261D01*
X181471500Y-135643241D01*
X181471503Y-135643237D01*
X181486053Y-135588932D01*
X181486053Y-135588931D01*
X181486063Y-135588933D01*
X181486064Y-135588888D01*
X181500479Y-135535176D01*
X181500479Y-135535162D01*
X181500498Y-135535025D01*
X181500500Y-135535018D01*
X181500500Y-135479157D01*
X181500521Y-135423139D01*
X181500500Y-135423060D01*
X181500500Y-135067610D01*
X181520185Y-135000571D01*
X181536819Y-134979929D01*
X182154929Y-134361819D01*
X182216252Y-134328334D01*
X182242610Y-134325500D01*
X182269055Y-134325500D01*
X182269057Y-134325500D01*
X182421784Y-134284577D01*
X182558716Y-134205520D01*
X182670520Y-134093716D01*
X182749577Y-133956784D01*
X182790500Y-133804057D01*
X182790500Y-133645943D01*
X182749577Y-133493216D01*
X182733125Y-133464720D01*
X182670524Y-133356290D01*
X182670518Y-133356282D01*
X182558717Y-133244481D01*
X182558709Y-133244475D01*
X182421790Y-133165426D01*
X182421786Y-133165424D01*
X182421784Y-133165423D01*
X182269057Y-133124500D01*
X182110943Y-133124500D01*
X181958216Y-133165423D01*
X181958209Y-133165426D01*
X181821290Y-133244475D01*
X181821282Y-133244481D01*
X181709481Y-133356282D01*
X181709475Y-133356290D01*
X181630426Y-133493209D01*
X181630423Y-133493216D01*
X181589500Y-133645943D01*
X181589500Y-133672390D01*
X181569815Y-133739429D01*
X181553181Y-133760071D01*
X181243181Y-134070071D01*
X181181858Y-134103556D01*
X181112166Y-134098572D01*
X181056233Y-134056700D01*
X181031816Y-133991236D01*
X181031500Y-133982390D01*
X181031500Y-132603610D01*
X181051185Y-132536571D01*
X181067819Y-132515929D01*
X182171929Y-131411819D01*
X182233252Y-131378334D01*
X182259610Y-131375500D01*
X182286055Y-131375500D01*
X182286057Y-131375500D01*
X182438784Y-131334577D01*
X182575716Y-131255520D01*
X182687520Y-131143716D01*
X182766577Y-131006784D01*
X182807500Y-130854057D01*
X182807500Y-130695943D01*
X182766577Y-130543216D01*
X182738492Y-130494571D01*
X182687524Y-130406290D01*
X182687518Y-130406282D01*
X182576417Y-130295181D01*
X182542932Y-130233858D01*
X182547916Y-130164166D01*
X182589788Y-130108233D01*
X182602099Y-130100112D01*
X182602831Y-130099689D01*
X182602836Y-130099688D01*
X182722665Y-130030505D01*
X182820505Y-129932665D01*
X182889688Y-129812836D01*
X182925500Y-129679183D01*
X182925500Y-129540817D01*
X182889688Y-129407164D01*
X182820505Y-129287335D01*
X182816787Y-129283617D01*
X182783302Y-129222294D01*
X182788286Y-129152602D01*
X182830158Y-129096669D01*
X182857016Y-129081374D01*
X182893680Y-129066187D01*
X182893684Y-129066185D01*
X183057462Y-128956751D01*
X183057466Y-128956748D01*
X183196748Y-128817466D01*
X183196751Y-128817462D01*
X183306185Y-128653684D01*
X183306192Y-128653671D01*
X183381569Y-128471692D01*
X183381569Y-128471690D01*
X183389862Y-128430000D01*
X182586988Y-128430000D01*
X182604205Y-128420060D01*
X182660060Y-128364205D01*
X182699556Y-128295796D01*
X182720000Y-128219496D01*
X182720000Y-128140504D01*
X182699556Y-128064204D01*
X182660060Y-127995795D01*
X182604205Y-127939940D01*
X182586988Y-127930000D01*
X183389862Y-127930000D01*
X184780138Y-127930000D01*
X185583012Y-127930000D01*
X185565795Y-127939940D01*
X185509940Y-127995795D01*
X185470444Y-128064204D01*
X185450000Y-128140504D01*
X185450000Y-128219496D01*
X185470444Y-128295796D01*
X185509940Y-128364205D01*
X185565795Y-128420060D01*
X185583012Y-128430000D01*
X184780138Y-128430000D01*
X184788430Y-128471690D01*
X184788430Y-128471692D01*
X184863807Y-128653671D01*
X184863814Y-128653684D01*
X184973248Y-128817462D01*
X184973251Y-128817466D01*
X185112533Y-128956748D01*
X185112537Y-128956751D01*
X185276315Y-129066185D01*
X185276328Y-129066192D01*
X185458306Y-129141569D01*
X185458318Y-129141572D01*
X185651504Y-129179999D01*
X185651508Y-129180000D01*
X185800000Y-129180000D01*
X185800000Y-128480000D01*
X186300000Y-128480000D01*
X186300000Y-129180000D01*
X186448492Y-129180000D01*
X186448495Y-129179999D01*
X186641681Y-129141572D01*
X186641693Y-129141569D01*
X186823671Y-129066192D01*
X186823684Y-129066185D01*
X186987462Y-128956751D01*
X186987466Y-128956748D01*
X187126748Y-128817466D01*
X187126751Y-128817462D01*
X187236185Y-128653684D01*
X187236192Y-128653671D01*
X187311569Y-128471692D01*
X187311569Y-128471690D01*
X187319862Y-128430000D01*
X186516988Y-128430000D01*
X186534205Y-128420060D01*
X186590060Y-128364205D01*
X186629556Y-128295796D01*
X186650000Y-128219496D01*
X186650000Y-128140504D01*
X186629556Y-128064204D01*
X186590060Y-127995795D01*
X186534205Y-127939940D01*
X186516988Y-127930000D01*
X187319862Y-127930000D01*
X187311569Y-127888309D01*
X187311569Y-127888307D01*
X187236192Y-127706328D01*
X187236185Y-127706315D01*
X187126751Y-127542537D01*
X187126748Y-127542533D01*
X186987466Y-127403251D01*
X186987462Y-127403248D01*
X186823684Y-127293814D01*
X186823671Y-127293807D01*
X186641693Y-127218430D01*
X186641681Y-127218427D01*
X186448495Y-127180000D01*
X186300000Y-127180000D01*
X186300000Y-127880000D01*
X185800000Y-127880000D01*
X185800000Y-127180000D01*
X185651504Y-127180000D01*
X185458318Y-127218427D01*
X185458306Y-127218430D01*
X185276328Y-127293807D01*
X185276315Y-127293814D01*
X185112537Y-127403248D01*
X185112533Y-127403251D01*
X184973251Y-127542533D01*
X184973248Y-127542537D01*
X184863814Y-127706315D01*
X184863807Y-127706328D01*
X184788430Y-127888307D01*
X184788430Y-127888309D01*
X184780138Y-127930000D01*
X183389862Y-127930000D01*
X183381569Y-127888309D01*
X183381569Y-127888307D01*
X183306192Y-127706328D01*
X183306185Y-127706315D01*
X183196751Y-127542537D01*
X183196748Y-127542533D01*
X183057466Y-127403251D01*
X183057462Y-127403248D01*
X182893684Y-127293814D01*
X182893671Y-127293807D01*
X182711693Y-127218430D01*
X182711681Y-127218427D01*
X182518495Y-127180000D01*
X182120000Y-127180000D01*
X182120000Y-127880000D01*
X181620000Y-127880000D01*
X181620000Y-127180000D01*
X181221504Y-127180000D01*
X181028318Y-127218427D01*
X181028306Y-127218430D01*
X180846328Y-127293807D01*
X180846315Y-127293814D01*
X180682537Y-127403248D01*
X180682533Y-127403251D01*
X180543251Y-127542533D01*
X180543248Y-127542537D01*
X180433814Y-127706315D01*
X180433807Y-127706328D01*
X180358430Y-127888307D01*
X180358430Y-127888309D01*
X180350138Y-127930000D01*
X181153012Y-127930000D01*
X181135795Y-127939940D01*
X181079940Y-127995795D01*
X181040444Y-128064204D01*
X181020000Y-128140504D01*
X181020000Y-128219496D01*
X181040444Y-128295796D01*
X181079940Y-128364205D01*
X181135795Y-128420060D01*
X181153012Y-128430000D01*
X180350138Y-128430000D01*
X180358430Y-128471690D01*
X180358430Y-128471692D01*
X180433807Y-128653671D01*
X180433814Y-128653684D01*
X180543248Y-128817462D01*
X180543251Y-128817466D01*
X180682533Y-128956748D01*
X180682537Y-128956751D01*
X180846315Y-129066185D01*
X180846328Y-129066192D01*
X181028306Y-129141569D01*
X181028318Y-129141572D01*
X181221504Y-129179999D01*
X181221508Y-129180000D01*
X181620000Y-129180000D01*
X181620000Y-128480000D01*
X182120000Y-128480000D01*
X182120000Y-129095607D01*
X182100315Y-129162646D01*
X182081950Y-129182616D01*
X182083082Y-129183748D01*
X181979496Y-129287333D01*
X181979492Y-129287338D01*
X181910313Y-129407161D01*
X181910312Y-129407164D01*
X181874500Y-129540817D01*
X181874500Y-129679182D01*
X181910312Y-129812835D01*
X181910313Y-129812838D01*
X181979492Y-129932661D01*
X181979496Y-129932666D01*
X182049726Y-130002896D01*
X182083211Y-130064219D01*
X182078227Y-130133911D01*
X182036355Y-130189844D01*
X181994144Y-130210350D01*
X181975221Y-130215421D01*
X181975209Y-130215426D01*
X181838290Y-130294475D01*
X181838282Y-130294481D01*
X181726481Y-130406282D01*
X181726475Y-130406290D01*
X181647426Y-130543209D01*
X181647423Y-130543216D01*
X181606500Y-130695943D01*
X181606500Y-130722390D01*
X181586815Y-130789429D01*
X181570181Y-130810071D01*
X180540181Y-131840071D01*
X180478858Y-131873556D01*
X180409166Y-131868572D01*
X180353233Y-131826700D01*
X180328816Y-131761236D01*
X180328500Y-131752390D01*
X180328500Y-131124944D01*
X180328499Y-131124940D01*
X180319815Y-131092531D01*
X180319813Y-131092524D01*
X180319812Y-131092520D01*
X180287577Y-130972215D01*
X180239309Y-130888613D01*
X180208520Y-130835284D01*
X180096716Y-130723480D01*
X180096715Y-130723479D01*
X180092385Y-130719149D01*
X180092374Y-130719139D01*
X178542819Y-129169584D01*
X178509334Y-129108261D01*
X178506500Y-129081903D01*
X178506500Y-120455941D01*
X178503499Y-120444740D01*
X178503499Y-120444741D01*
X178503498Y-120444737D01*
X178465577Y-120303215D01*
X178427667Y-120237553D01*
X178427667Y-120237552D01*
X178386524Y-120166290D01*
X178386521Y-120166286D01*
X178386520Y-120166284D01*
X178274716Y-120054480D01*
X178274715Y-120054479D01*
X178270385Y-120050149D01*
X178270374Y-120050139D01*
X176172590Y-117952355D01*
X176165521Y-117945286D01*
X176165520Y-117945284D01*
X176082116Y-117861880D01*
X176051900Y-117806541D01*
X176048634Y-117800560D01*
X176050024Y-117742112D01*
X176090500Y-117591057D01*
X176090500Y-117564610D01*
X176110185Y-117497571D01*
X176126819Y-117476929D01*
X176321929Y-117281819D01*
X176383252Y-117248334D01*
X176409610Y-117245500D01*
X179560058Y-117245500D01*
X179627097Y-117265185D01*
X179672852Y-117317989D01*
X179682796Y-117387147D01*
X179653771Y-117450703D01*
X179622058Y-117476886D01*
X179606177Y-117486056D01*
X179548285Y-117519479D01*
X179548282Y-117519481D01*
X179436481Y-117631282D01*
X179436475Y-117631290D01*
X179357426Y-117768209D01*
X179357423Y-117768216D01*
X179316500Y-117920943D01*
X179316500Y-118079057D01*
X179329248Y-118126631D01*
X179357423Y-118231783D01*
X179357426Y-118231790D01*
X179436475Y-118368709D01*
X179436479Y-118368714D01*
X179436480Y-118368716D01*
X179548284Y-118480520D01*
X179548286Y-118480521D01*
X179548290Y-118480524D01*
X179584529Y-118501446D01*
X179685216Y-118559577D01*
X179837943Y-118600500D01*
X179837945Y-118600500D01*
X179996055Y-118600500D01*
X179996057Y-118600500D01*
X180148784Y-118559577D01*
X180285716Y-118480520D01*
X180304417Y-118461819D01*
X180365740Y-118428334D01*
X180392098Y-118425500D01*
X185412390Y-118425500D01*
X185479429Y-118445185D01*
X185500071Y-118461819D01*
X185885655Y-118847403D01*
X185919140Y-118908726D01*
X185915905Y-118973402D01*
X185877829Y-119090589D01*
X185849500Y-119269448D01*
X185849500Y-119450551D01*
X185877829Y-119629410D01*
X185933787Y-119801636D01*
X185933788Y-119801639D01*
X185989664Y-119911300D01*
X186012707Y-119956524D01*
X186016006Y-119962997D01*
X186122441Y-120109494D01*
X186122445Y-120109499D01*
X186250498Y-120237552D01*
X186250505Y-120237558D01*
X186340875Y-120303215D01*
X186397006Y-120343996D01*
X186502484Y-120397740D01*
X186558360Y-120426211D01*
X186558363Y-120426212D01*
X186615379Y-120444737D01*
X186730591Y-120482171D01*
X186803639Y-120493740D01*
X186890678Y-120507527D01*
X186953813Y-120537456D01*
X186990744Y-120596768D01*
X186989746Y-120666631D01*
X186951136Y-120724863D01*
X186890678Y-120752473D01*
X186730589Y-120777829D01*
X186558363Y-120833787D01*
X186558360Y-120833788D01*
X186397002Y-120916006D01*
X186250505Y-121022441D01*
X186250500Y-121022445D01*
X186122445Y-121150500D01*
X186122441Y-121150505D01*
X186016006Y-121297002D01*
X185933788Y-121458360D01*
X185933787Y-121458363D01*
X185877829Y-121630589D01*
X185849500Y-121809448D01*
X185849500Y-121990551D01*
X185877829Y-122169410D01*
X185933787Y-122341636D01*
X185933788Y-122341639D01*
X186016006Y-122502997D01*
X186122441Y-122649494D01*
X186122445Y-122649499D01*
X186250500Y-122777554D01*
X186250505Y-122777558D01*
X186328533Y-122834248D01*
X186397006Y-122883996D01*
X186481076Y-122926832D01*
X186558360Y-122966211D01*
X186558363Y-122966212D01*
X186644476Y-122994191D01*
X186730591Y-123022171D01*
X186803639Y-123033740D01*
X186890678Y-123047527D01*
X186953813Y-123077456D01*
X186990744Y-123136768D01*
X186989746Y-123206631D01*
X186951136Y-123264863D01*
X186890678Y-123292473D01*
X186730589Y-123317829D01*
X186558363Y-123373787D01*
X186558360Y-123373788D01*
X186397002Y-123456006D01*
X186250505Y-123562441D01*
X186250500Y-123562445D01*
X186122445Y-123690500D01*
X186122441Y-123690505D01*
X186016006Y-123837002D01*
X185933788Y-123998360D01*
X185933787Y-123998363D01*
X185877829Y-124170589D01*
X185849500Y-124349448D01*
X185849500Y-124530551D01*
X185877829Y-124709410D01*
X185933787Y-124881636D01*
X185933788Y-124881639D01*
X186016006Y-125042997D01*
X186122441Y-125189494D01*
X186122445Y-125189499D01*
X186250500Y-125317554D01*
X186250505Y-125317558D01*
X186378287Y-125410396D01*
X186397006Y-125423996D01*
X186502484Y-125477740D01*
X186558360Y-125506211D01*
X186558363Y-125506212D01*
X186644476Y-125534191D01*
X186730591Y-125562171D01*
X186813429Y-125575291D01*
X186909449Y-125590500D01*
X186909454Y-125590500D01*
X187090551Y-125590500D01*
X187177259Y-125576765D01*
X187269409Y-125562171D01*
X187441639Y-125506211D01*
X187602994Y-125423996D01*
X187749501Y-125317553D01*
X187877553Y-125189501D01*
X187983996Y-125042994D01*
X188066211Y-124881639D01*
X188122171Y-124709409D01*
X188142385Y-124581783D01*
X188150500Y-124530551D01*
X188150500Y-124349448D01*
X188127213Y-124202426D01*
X188122171Y-124170591D01*
X188066211Y-123998361D01*
X188066211Y-123998360D01*
X188026764Y-123920943D01*
X187983996Y-123837006D01*
X187934275Y-123768570D01*
X187877558Y-123690505D01*
X187877554Y-123690500D01*
X187749499Y-123562445D01*
X187749494Y-123562441D01*
X187602997Y-123456006D01*
X187602996Y-123456005D01*
X187602994Y-123456004D01*
X187531754Y-123419705D01*
X187441639Y-123373788D01*
X187441636Y-123373787D01*
X187269410Y-123317829D01*
X187109321Y-123292473D01*
X187046186Y-123262544D01*
X187009255Y-123203232D01*
X187010253Y-123133370D01*
X187048863Y-123075137D01*
X187109321Y-123047527D01*
X187179425Y-123036422D01*
X187269409Y-123022171D01*
X187441639Y-122966211D01*
X187602994Y-122883996D01*
X187749501Y-122777553D01*
X187877553Y-122649501D01*
X187983996Y-122502994D01*
X188066211Y-122341639D01*
X188122171Y-122169409D01*
X188136765Y-122077259D01*
X188150500Y-121990551D01*
X188150500Y-121809448D01*
X188122171Y-121630590D01*
X188084094Y-121513401D01*
X188082099Y-121443560D01*
X188114342Y-121387404D01*
X188534485Y-120967263D01*
X188590503Y-120870237D01*
X188619500Y-120762018D01*
X188619500Y-120649982D01*
X188619500Y-116285982D01*
X188618061Y-116280613D01*
X188590503Y-116177763D01*
X188534485Y-116080737D01*
X187768082Y-115314334D01*
X187734597Y-115253011D01*
X187739581Y-115183319D01*
X187768082Y-115138972D01*
X187821555Y-115085499D01*
X187877553Y-115029501D01*
X187983996Y-114882994D01*
X188066211Y-114721639D01*
X188122171Y-114549409D01*
X188139861Y-114437717D01*
X188150500Y-114370551D01*
X188150500Y-114189448D01*
X188123265Y-114017501D01*
X188122171Y-114010591D01*
X188075679Y-113867500D01*
X188066212Y-113838363D01*
X188066211Y-113838360D01*
X188034185Y-113775507D01*
X187983996Y-113677006D01*
X187935330Y-113610022D01*
X187877558Y-113530505D01*
X187877554Y-113530500D01*
X187749499Y-113402445D01*
X187749494Y-113402441D01*
X187602995Y-113296004D01*
X187471314Y-113228908D01*
X187420519Y-113180934D01*
X187403724Y-113113113D01*
X187426262Y-113046978D01*
X187480977Y-113003527D01*
X187489295Y-113000492D01*
X187518217Y-112991095D01*
X187707554Y-112894622D01*
X187761716Y-112855270D01*
X187761717Y-112855270D01*
X187129408Y-112222962D01*
X187192993Y-112205925D01*
X187307007Y-112140099D01*
X187400099Y-112047007D01*
X187465925Y-111932993D01*
X187482962Y-111869408D01*
X188115270Y-112501717D01*
X188115270Y-112501716D01*
X188154622Y-112447554D01*
X188251095Y-112258217D01*
X188316757Y-112056130D01*
X188316757Y-112056127D01*
X188350000Y-111846246D01*
X188350000Y-111633753D01*
X188316757Y-111423872D01*
X188316757Y-111423869D01*
X188251095Y-111221782D01*
X188154624Y-111032449D01*
X188115270Y-110978282D01*
X188115269Y-110978282D01*
X187482962Y-111610590D01*
X187465925Y-111547007D01*
X187400099Y-111432993D01*
X187307007Y-111339901D01*
X187192993Y-111274075D01*
X187129409Y-111257037D01*
X187761716Y-110624728D01*
X187707550Y-110585375D01*
X187706786Y-110584986D01*
X187706546Y-110584759D01*
X187703396Y-110582829D01*
X187703801Y-110582167D01*
X187655988Y-110537013D01*
X187639191Y-110469192D01*
X187661726Y-110403057D01*
X187716440Y-110359604D01*
X187763076Y-110350499D01*
X187894864Y-110350499D01*
X187894879Y-110350497D01*
X187894882Y-110350497D01*
X187919987Y-110347586D01*
X187919988Y-110347585D01*
X187919991Y-110347585D01*
X188022765Y-110302206D01*
X188102206Y-110222765D01*
X188147585Y-110119991D01*
X188150500Y-110094865D01*
X188150499Y-108305136D01*
X188150497Y-108305117D01*
X188147586Y-108280012D01*
X188147585Y-108280010D01*
X188147585Y-108280009D01*
X188102206Y-108177235D01*
X188022765Y-108097794D01*
X188022763Y-108097793D01*
X187919992Y-108052415D01*
X187894865Y-108049500D01*
X186105143Y-108049500D01*
X186105117Y-108049502D01*
X186080012Y-108052413D01*
X186080008Y-108052415D01*
X185977235Y-108097793D01*
X185897794Y-108177234D01*
X185852415Y-108280006D01*
X185852415Y-108280008D01*
X185849500Y-108305131D01*
X185849500Y-108475484D01*
X185846952Y-108484158D01*
X185848241Y-108493106D01*
X185837263Y-108517157D01*
X185829815Y-108542523D01*
X185822984Y-108548442D01*
X185819230Y-108556667D01*
X185796989Y-108570966D01*
X185777011Y-108588278D01*
X185766509Y-108590563D01*
X185760459Y-108594454D01*
X185725526Y-108599484D01*
X185647911Y-108599499D01*
X185647886Y-108599500D01*
X185568927Y-108599500D01*
X185568835Y-108599512D01*
X185493714Y-108619657D01*
X185493692Y-108619663D01*
X185416207Y-108640425D01*
X185416118Y-108640461D01*
X185350925Y-108678117D01*
X185350906Y-108678128D01*
X185279287Y-108719477D01*
X185279201Y-108719542D01*
X185266965Y-108731783D01*
X185226625Y-108772138D01*
X185167480Y-108831284D01*
X185161964Y-108836800D01*
X185161795Y-108836992D01*
X182598327Y-111401434D01*
X182598234Y-111401529D01*
X182540480Y-111459284D01*
X182540449Y-111459336D01*
X182540410Y-111459376D01*
X182540243Y-111459664D01*
X182540238Y-111459670D01*
X182501268Y-111527199D01*
X182501258Y-111527217D01*
X182461422Y-111596216D01*
X182461380Y-111596317D01*
X182451367Y-111633712D01*
X182440218Y-111675352D01*
X182420500Y-111748943D01*
X182420500Y-111748997D01*
X182420484Y-111749057D01*
X182420484Y-111749081D01*
X182420483Y-111749085D01*
X182420500Y-111830663D01*
X182420500Y-111865671D01*
X182400815Y-111932710D01*
X182384134Y-111953400D01*
X182211634Y-112125713D01*
X182150292Y-112159164D01*
X182080603Y-112154142D01*
X182024693Y-112112241D01*
X182000311Y-112046763D01*
X182000000Y-112037984D01*
X182000000Y-103381995D01*
X184699500Y-103381995D01*
X184699500Y-103618004D01*
X184699501Y-103618020D01*
X184730306Y-103852010D01*
X184791394Y-104079993D01*
X184881714Y-104298045D01*
X184881719Y-104298056D01*
X184952677Y-104420957D01*
X184999727Y-104502450D01*
X184999729Y-104502453D01*
X184999730Y-104502454D01*
X185143406Y-104689697D01*
X185143412Y-104689704D01*
X185310295Y-104856587D01*
X185310301Y-104856592D01*
X185497550Y-105000273D01*
X185628918Y-105076118D01*
X185701943Y-105118280D01*
X185701948Y-105118282D01*
X185701951Y-105118284D01*
X185920007Y-105208606D01*
X186147986Y-105269693D01*
X186381989Y-105300500D01*
X186381996Y-105300500D01*
X186618004Y-105300500D01*
X186618011Y-105300500D01*
X186852014Y-105269693D01*
X187079993Y-105208606D01*
X187298049Y-105118284D01*
X187502450Y-105000273D01*
X187689699Y-104856592D01*
X187856592Y-104689699D01*
X188000273Y-104502450D01*
X188118284Y-104298049D01*
X188208606Y-104079993D01*
X188269693Y-103852014D01*
X188300500Y-103618011D01*
X188300500Y-103381989D01*
X188269693Y-103147986D01*
X188208606Y-102920007D01*
X188118284Y-102701951D01*
X188118282Y-102701948D01*
X188118280Y-102701943D01*
X188076118Y-102628918D01*
X188000273Y-102497550D01*
X187856592Y-102310301D01*
X187856587Y-102310295D01*
X187689704Y-102143412D01*
X187689697Y-102143406D01*
X187502454Y-101999730D01*
X187502453Y-101999729D01*
X187502450Y-101999727D01*
X187420957Y-101952677D01*
X187298056Y-101881719D01*
X187298045Y-101881714D01*
X187079993Y-101791394D01*
X186852010Y-101730306D01*
X186618020Y-101699501D01*
X186618017Y-101699500D01*
X186618011Y-101699500D01*
X186381989Y-101699500D01*
X186381983Y-101699500D01*
X186381979Y-101699501D01*
X186147989Y-101730306D01*
X185920006Y-101791394D01*
X185701954Y-101881714D01*
X185701943Y-101881719D01*
X185497545Y-101999730D01*
X185310302Y-102143406D01*
X185310295Y-102143412D01*
X185143412Y-102310295D01*
X185143406Y-102310302D01*
X184999730Y-102497545D01*
X184881719Y-102701943D01*
X184881714Y-102701954D01*
X184791394Y-102920006D01*
X184730306Y-103147989D01*
X184699501Y-103381979D01*
X184699500Y-103381995D01*
X182000000Y-103381995D01*
X182000000Y-101400000D01*
X154000000Y-101400000D01*
X154000000Y-112400000D01*
X175068402Y-112400000D01*
X175135441Y-112419685D01*
X175181196Y-112472489D01*
X175191140Y-112541647D01*
X175162115Y-112605203D01*
X175156083Y-112611681D01*
X174719481Y-113048282D01*
X174719480Y-113048284D01*
X174672590Y-113129500D01*
X174640423Y-113185215D01*
X174599499Y-113337943D01*
X174599499Y-113337945D01*
X174599499Y-113496054D01*
X174599498Y-113496054D01*
X174599499Y-113496057D01*
X174640423Y-113648785D01*
X174664532Y-113690543D01*
X174719477Y-113785712D01*
X174719481Y-113785717D01*
X174831284Y-113897520D01*
X174918095Y-113947639D01*
X174918097Y-113947641D01*
X174956151Y-113969611D01*
X174968215Y-113976577D01*
X175120943Y-114017501D01*
X175120946Y-114017501D01*
X175279054Y-114017501D01*
X175279057Y-114017501D01*
X175431785Y-113976577D01*
X175481904Y-113947639D01*
X175568716Y-113897520D01*
X175680520Y-113785716D01*
X175680520Y-113785714D01*
X175690728Y-113775507D01*
X175690732Y-113775502D01*
X175739419Y-113726817D01*
X175800742Y-113693333D01*
X175827098Y-113690500D01*
X181139500Y-113690500D01*
X181206539Y-113710185D01*
X181252294Y-113762989D01*
X181263500Y-113814500D01*
X181263500Y-113971057D01*
X181292485Y-114079228D01*
X181304423Y-114123783D01*
X181304426Y-114123790D01*
X181383475Y-114260709D01*
X181383479Y-114260714D01*
X181383480Y-114260716D01*
X181495284Y-114372520D01*
X181495286Y-114372521D01*
X181495290Y-114372524D01*
X181612902Y-114440426D01*
X181632216Y-114451577D01*
X181784943Y-114492500D01*
X181811390Y-114492500D01*
X181878429Y-114512185D01*
X181899071Y-114528819D01*
X183181515Y-115811263D01*
X183260737Y-115890485D01*
X183357763Y-115946503D01*
X183465982Y-115975500D01*
X185948104Y-115975500D01*
X185953875Y-115977194D01*
X185959782Y-115976051D01*
X185987013Y-115986925D01*
X186015143Y-115995185D01*
X186019082Y-115999731D01*
X186024669Y-116001962D01*
X186041698Y-116025831D01*
X186060898Y-116047989D01*
X186061754Y-116053942D01*
X186065248Y-116058840D01*
X186066668Y-116088123D01*
X186070842Y-116117147D01*
X186068417Y-116124162D01*
X186068634Y-116128627D01*
X186061645Y-116143757D01*
X186055546Y-116161405D01*
X186052272Y-116167086D01*
X186016004Y-116217006D01*
X185958610Y-116329645D01*
X185957021Y-116332405D01*
X185933978Y-116354415D01*
X185912090Y-116377591D01*
X185908777Y-116378487D01*
X185906497Y-116380665D01*
X185886180Y-116384599D01*
X185849579Y-116394500D01*
X176125982Y-116394500D01*
X176017763Y-116423497D01*
X176017760Y-116423498D01*
X175920740Y-116479513D01*
X175920734Y-116479517D01*
X175525071Y-116875181D01*
X175463748Y-116908666D01*
X175437390Y-116911500D01*
X175410943Y-116911500D01*
X175258216Y-116952423D01*
X175258209Y-116952426D01*
X175121290Y-117031475D01*
X175121286Y-117031478D01*
X175010680Y-117142084D01*
X174949357Y-117175568D01*
X174879665Y-117170584D01*
X174835318Y-117142083D01*
X170598590Y-112905355D01*
X170598588Y-112905352D01*
X170479717Y-112786481D01*
X170479716Y-112786480D01*
X170374228Y-112725577D01*
X170374227Y-112725576D01*
X170351209Y-112712287D01*
X170342785Y-112707423D01*
X170342784Y-112707422D01*
X170342783Y-112707422D01*
X170267951Y-112687371D01*
X170190057Y-112666499D01*
X170031943Y-112666499D01*
X170024347Y-112666499D01*
X170024331Y-112666500D01*
X151838670Y-112666500D01*
X151838654Y-112666499D01*
X151831058Y-112666499D01*
X151672943Y-112666499D01*
X151520215Y-112707423D01*
X151520213Y-112707423D01*
X151520213Y-112707424D01*
X151383281Y-112786482D01*
X148926481Y-115243282D01*
X148926477Y-115243287D01*
X148907239Y-115276611D01*
X148907238Y-115276613D01*
X148847423Y-115380215D01*
X148806499Y-115532943D01*
X148806499Y-115532945D01*
X148806499Y-115701046D01*
X148806500Y-115701059D01*
X148806500Y-117486057D01*
X148847411Y-117638737D01*
X148847423Y-117638783D01*
X148847426Y-117638790D01*
X148926475Y-117775709D01*
X148926479Y-117775714D01*
X148926480Y-117775716D01*
X149038284Y-117887520D01*
X149093248Y-117919253D01*
X149141463Y-117969819D01*
X149154687Y-118038426D01*
X149128719Y-118103291D01*
X149118929Y-118114321D01*
X137239737Y-129993515D01*
X137160517Y-130072734D01*
X137160513Y-130072740D01*
X137104498Y-130169760D01*
X137104497Y-130169763D01*
X137075500Y-130277982D01*
X137075500Y-133814485D01*
X137055815Y-133881524D01*
X137039207Y-133902140D01*
X135857897Y-135084155D01*
X135796584Y-135117658D01*
X135770190Y-135120500D01*
X135743943Y-135120500D01*
X135591216Y-135161423D01*
X135591209Y-135161426D01*
X135454290Y-135240475D01*
X135454282Y-135240481D01*
X135342479Y-135352284D01*
X135294274Y-135435778D01*
X135243706Y-135483993D01*
X135175099Y-135497215D01*
X135110235Y-135471247D01*
X135099206Y-135461458D01*
X134597265Y-134959517D01*
X134597263Y-134959515D01*
X134500237Y-134903497D01*
X134392018Y-134874500D01*
X134392017Y-134874500D01*
X112710098Y-134874500D01*
X112643059Y-134854815D01*
X112622417Y-134838181D01*
X112603717Y-134819481D01*
X112603709Y-134819475D01*
X112466790Y-134740426D01*
X112466786Y-134740424D01*
X112466784Y-134740423D01*
X112314057Y-134699500D01*
X112155943Y-134699500D01*
X112003216Y-134740423D01*
X112003209Y-134740426D01*
X111866290Y-134819475D01*
X111866282Y-134819481D01*
X111754481Y-134931282D01*
X111754475Y-134931290D01*
X111675426Y-135068209D01*
X111675423Y-135068216D01*
X111634500Y-135220943D01*
X111634500Y-135356336D01*
X111614815Y-135423375D01*
X111572499Y-135463723D01*
X111441290Y-135539475D01*
X111441282Y-135539481D01*
X111329481Y-135651282D01*
X111329477Y-135651287D01*
X111256536Y-135777627D01*
X111205969Y-135825842D01*
X111148184Y-135836980D01*
X111148184Y-135839500D01*
X110981943Y-135839500D01*
X110829216Y-135880423D01*
X110829209Y-135880426D01*
X110692290Y-135959475D01*
X110692282Y-135959481D01*
X110580481Y-136071282D01*
X110580475Y-136071290D01*
X110501426Y-136208209D01*
X110501423Y-136208216D01*
X110460500Y-136360943D01*
X110460500Y-136519057D01*
X110477861Y-136583847D01*
X110501423Y-136671783D01*
X110501426Y-136671790D01*
X110580475Y-136808709D01*
X110580479Y-136808714D01*
X110580480Y-136808716D01*
X110692284Y-136920520D01*
X110692286Y-136920521D01*
X110692290Y-136920524D01*
X110828989Y-136999446D01*
X110829216Y-136999577D01*
X110981943Y-137040500D01*
X111008390Y-137040500D01*
X111075429Y-137060185D01*
X111096071Y-137076819D01*
X111525082Y-137505829D01*
X111558567Y-137567152D01*
X111553583Y-137636843D01*
X111511712Y-137692777D01*
X111469496Y-137713285D01*
X111440924Y-137720941D01*
X111368216Y-137740423D01*
X111368215Y-137740423D01*
X111368213Y-137740424D01*
X111368209Y-137740426D01*
X111231290Y-137819475D01*
X111225557Y-137823875D01*
X111160388Y-137849070D01*
X111150069Y-137849500D01*
X103349931Y-137849500D01*
X103282892Y-137829815D01*
X103274443Y-137823875D01*
X103268709Y-137819475D01*
X103131790Y-137740426D01*
X103131786Y-137740424D01*
X103131784Y-137740423D01*
X102979057Y-137699500D01*
X102820943Y-137699500D01*
X102668216Y-137740423D01*
X102668209Y-137740426D01*
X102531290Y-137819475D01*
X102531282Y-137819481D01*
X102419481Y-137931282D01*
X102419475Y-137931290D01*
X102340426Y-138068209D01*
X102340423Y-138068216D01*
X102299500Y-138220943D01*
X101950500Y-138220943D01*
X101950500Y-138099930D01*
X101970185Y-138032891D01*
X101976128Y-138024438D01*
X101980512Y-138018723D01*
X101980520Y-138018716D01*
X101981636Y-138016784D01*
X102017629Y-137954441D01*
X102059577Y-137881784D01*
X102100500Y-137729057D01*
X102100500Y-137570943D01*
X102059577Y-137418216D01*
X102059573Y-137418209D01*
X101980524Y-137281290D01*
X101980518Y-137281282D01*
X101868717Y-137169481D01*
X101868709Y-137169475D01*
X101731790Y-137090426D01*
X101731786Y-137090424D01*
X101731784Y-137090423D01*
X101579057Y-137049500D01*
X101420943Y-137049500D01*
X101268216Y-137090423D01*
X101268209Y-137090426D01*
X101131290Y-137169475D01*
X101131282Y-137169481D01*
X101019481Y-137281282D01*
X101019475Y-137281290D01*
X100940426Y-137418209D01*
X100940423Y-137418216D01*
X100899500Y-137570943D01*
X100300500Y-137570943D01*
X100300500Y-131720943D01*
X101599500Y-131720943D01*
X101599500Y-131879057D01*
X101638472Y-132024500D01*
X101640423Y-132031783D01*
X101640426Y-132031790D01*
X101719475Y-132168709D01*
X101719479Y-132168714D01*
X101719480Y-132168716D01*
X101831284Y-132280520D01*
X101831286Y-132280521D01*
X101831290Y-132280524D01*
X101968209Y-132359573D01*
X101968216Y-132359577D01*
X102120943Y-132400500D01*
X102120945Y-132400500D01*
X102279055Y-132400500D01*
X102279057Y-132400500D01*
X102431784Y-132359577D01*
X102568716Y-132280520D01*
X102680520Y-132168716D01*
X102759577Y-132031784D01*
X102800500Y-131879057D01*
X102800500Y-131720943D01*
X102759577Y-131568216D01*
X102729089Y-131515408D01*
X102717112Y-131494663D01*
X102700500Y-131432664D01*
X102700500Y-120145943D01*
X121436500Y-120145943D01*
X121436500Y-120304057D01*
X121473038Y-120440417D01*
X121477423Y-120456783D01*
X121477426Y-120456790D01*
X121556475Y-120593709D01*
X121556479Y-120593714D01*
X121556480Y-120593716D01*
X121668284Y-120705520D01*
X121668286Y-120705521D01*
X121668290Y-120705524D01*
X121805209Y-120784573D01*
X121805216Y-120784577D01*
X121957943Y-120825500D01*
X121984673Y-120825500D01*
X122051712Y-120845185D01*
X122072314Y-120861780D01*
X122763144Y-121552028D01*
X122796655Y-121613336D01*
X122799500Y-121639745D01*
X122799500Y-126038902D01*
X122779815Y-126105941D01*
X122763181Y-126126583D01*
X122744481Y-126145282D01*
X122744475Y-126145290D01*
X122665426Y-126282209D01*
X122665423Y-126282216D01*
X122624500Y-126434943D01*
X122624500Y-126593056D01*
X122665423Y-126745783D01*
X122665426Y-126745790D01*
X122744475Y-126882709D01*
X122744479Y-126882714D01*
X122744480Y-126882716D01*
X122856284Y-126994520D01*
X122856286Y-126994521D01*
X122856290Y-126994524D01*
X122993209Y-127073573D01*
X122993216Y-127073577D01*
X123145943Y-127114500D01*
X123145945Y-127114500D01*
X123304055Y-127114500D01*
X123304057Y-127114500D01*
X123456784Y-127073577D01*
X123593716Y-126994520D01*
X123705520Y-126882716D01*
X123784577Y-126745784D01*
X123825500Y-126593057D01*
X123825500Y-126434943D01*
X123784577Y-126282216D01*
X123784573Y-126282209D01*
X123705524Y-126145290D01*
X123705518Y-126145282D01*
X123686819Y-126126583D01*
X123653334Y-126065260D01*
X123650500Y-126038902D01*
X123650500Y-121467928D01*
X123650524Y-121467839D01*
X123650500Y-121410629D01*
X123650500Y-121355982D01*
X123650500Y-121355978D01*
X123650477Y-121355810D01*
X123650477Y-121355803D01*
X123635746Y-121300919D01*
X123634543Y-121296429D01*
X123621504Y-121247764D01*
X123621436Y-121247600D01*
X123607252Y-121223057D01*
X123593415Y-121199113D01*
X123565485Y-121150737D01*
X123565420Y-121150672D01*
X123565375Y-121150594D01*
X123526144Y-121111396D01*
X123486263Y-121071515D01*
X123480661Y-121065913D01*
X123480347Y-121065638D01*
X123479653Y-121064945D01*
X123092497Y-120678114D01*
X122673856Y-120259824D01*
X122640345Y-120198515D01*
X122637500Y-120172106D01*
X122637500Y-120145945D01*
X122637500Y-120145943D01*
X122596577Y-119993216D01*
X122579130Y-119962997D01*
X122517524Y-119856290D01*
X122517518Y-119856282D01*
X122405717Y-119744481D01*
X122405709Y-119744475D01*
X122268790Y-119665426D01*
X122268786Y-119665424D01*
X122268784Y-119665423D01*
X122116057Y-119624500D01*
X121957943Y-119624500D01*
X121805216Y-119665423D01*
X121805209Y-119665426D01*
X121668290Y-119744475D01*
X121668282Y-119744481D01*
X121556481Y-119856282D01*
X121556475Y-119856290D01*
X121477426Y-119993209D01*
X121477423Y-119993216D01*
X121436500Y-120145943D01*
X102700500Y-120145943D01*
X102700500Y-119396943D01*
X125068500Y-119396943D01*
X125068500Y-119555057D01*
X125098073Y-119665423D01*
X125109423Y-119707783D01*
X125109426Y-119707790D01*
X125188475Y-119844709D01*
X125188479Y-119844714D01*
X125188480Y-119844716D01*
X125300284Y-119956520D01*
X125300286Y-119956521D01*
X125300290Y-119956524D01*
X125409806Y-120019752D01*
X125437216Y-120035577D01*
X125589943Y-120076500D01*
X127721876Y-120076500D01*
X127788915Y-120096185D01*
X127809560Y-120112822D01*
X135752469Y-128056698D01*
X135752480Y-128056716D01*
X135814959Y-128119195D01*
X135864257Y-128168500D01*
X135864284Y-128168520D01*
X135929171Y-128205982D01*
X135929170Y-128205983D01*
X135929177Y-128205985D01*
X136001181Y-128247563D01*
X136001185Y-128247564D01*
X136001199Y-128247572D01*
X136001214Y-128247576D01*
X136001216Y-128247577D01*
X136068169Y-128265517D01*
X136068176Y-128265521D01*
X136068177Y-128265519D01*
X136153906Y-128288496D01*
X136153916Y-128288496D01*
X136153943Y-128288500D01*
X136217152Y-128288500D01*
X136312016Y-128288506D01*
X136312016Y-128288505D01*
X136312021Y-128288506D01*
X136312026Y-128288504D01*
X136312043Y-128288502D01*
X136312050Y-128288500D01*
X136312057Y-128288500D01*
X136375267Y-128271562D01*
X136375273Y-128271562D01*
X136375273Y-128271560D01*
X136375274Y-128271560D01*
X136464751Y-128247591D01*
X136464753Y-128247589D01*
X136464766Y-128247586D01*
X136464779Y-128247577D01*
X136464784Y-128247577D01*
X136466523Y-128246573D01*
X136531845Y-128208859D01*
X136531852Y-128208854D01*
X136531860Y-128208850D01*
X136601687Y-128168542D01*
X136601688Y-128168540D01*
X136601703Y-128168532D01*
X136601713Y-128168521D01*
X136601716Y-128168520D01*
X136662437Y-128107799D01*
X136712141Y-128058100D01*
X136713446Y-128056839D01*
X136713513Y-128056721D01*
X136713520Y-128056716D01*
X136753184Y-127988014D01*
X136753188Y-127988008D01*
X136791160Y-127922248D01*
X136792347Y-127920299D01*
X136792547Y-127919845D01*
X136792563Y-127919819D01*
X136792567Y-127919801D01*
X136792570Y-127919794D01*
X136792577Y-127919784D01*
X136792580Y-127919771D01*
X136792628Y-127919664D01*
X136792965Y-127918334D01*
X136803604Y-127878627D01*
X136810518Y-127852828D01*
X136810519Y-127852824D01*
X136833328Y-127767719D01*
X136833496Y-127767094D01*
X136833496Y-127767090D01*
X136833498Y-127767083D01*
X136833500Y-127767073D01*
X136833500Y-127703848D01*
X136833506Y-127608975D01*
X136833504Y-127608960D01*
X136833500Y-127608945D01*
X136833500Y-127608943D01*
X136816030Y-127543747D01*
X136816030Y-127543740D01*
X136816028Y-127543741D01*
X136816028Y-127543740D01*
X136792591Y-127456250D01*
X136792589Y-127456247D01*
X136792585Y-127456231D01*
X136792577Y-127456217D01*
X136792577Y-127456216D01*
X136749424Y-127381472D01*
X136713542Y-127319314D01*
X136713540Y-127319312D01*
X136713530Y-127319294D01*
X136688043Y-127293807D01*
X136647882Y-127253646D01*
X136647879Y-127253640D01*
X136647878Y-127253642D01*
X128508651Y-119113423D01*
X128502529Y-119107300D01*
X128502520Y-119107284D01*
X128439992Y-119044756D01*
X128439990Y-119044753D01*
X128390744Y-118995502D01*
X128390711Y-118995476D01*
X128316312Y-118952522D01*
X128316312Y-118952523D01*
X128316267Y-118952497D01*
X128253819Y-118916437D01*
X128253798Y-118916431D01*
X128253784Y-118916423D01*
X128253674Y-118916393D01*
X128253670Y-118916391D01*
X128186822Y-118898479D01*
X128186822Y-118898478D01*
X128186817Y-118898478D01*
X128101091Y-118875503D01*
X128101070Y-118875500D01*
X128101057Y-118875500D01*
X128030822Y-118875500D01*
X128030809Y-118875499D01*
X127942979Y-118875495D01*
X127942977Y-118875495D01*
X127935035Y-118875495D01*
X127934957Y-118875500D01*
X125589943Y-118875500D01*
X125437216Y-118916423D01*
X125437209Y-118916426D01*
X125300290Y-118995475D01*
X125300282Y-118995481D01*
X125188481Y-119107282D01*
X125188475Y-119107290D01*
X125109426Y-119244209D01*
X125109423Y-119244216D01*
X125068500Y-119396943D01*
X102700500Y-119396943D01*
X102700500Y-110148943D01*
X128968500Y-110148943D01*
X128968500Y-114564057D01*
X128997055Y-114670624D01*
X129009423Y-114716783D01*
X129009426Y-114716790D01*
X129088475Y-114853709D01*
X129088479Y-114853714D01*
X129088480Y-114853716D01*
X129200284Y-114965520D01*
X129200286Y-114965521D01*
X129200290Y-114965524D01*
X129248612Y-114993422D01*
X129337216Y-115044577D01*
X129489943Y-115085500D01*
X129489945Y-115085500D01*
X129648055Y-115085500D01*
X129648057Y-115085500D01*
X129800784Y-115044577D01*
X129937716Y-114965520D01*
X130049520Y-114853716D01*
X130128577Y-114716784D01*
X130169500Y-114564057D01*
X130169500Y-110148943D01*
X130128577Y-109996216D01*
X130128573Y-109996209D01*
X130049524Y-109859290D01*
X130049518Y-109859282D01*
X129937717Y-109747481D01*
X129937709Y-109747475D01*
X129800790Y-109668426D01*
X129800786Y-109668424D01*
X129800784Y-109668423D01*
X129648057Y-109627500D01*
X129489943Y-109627500D01*
X129337216Y-109668423D01*
X129337209Y-109668426D01*
X129200290Y-109747475D01*
X129200282Y-109747481D01*
X129088481Y-109859282D01*
X129088475Y-109859290D01*
X129009426Y-109996209D01*
X129009423Y-109996216D01*
X128968500Y-110148943D01*
X102700500Y-110148943D01*
X102700500Y-109124500D01*
X102720185Y-109057461D01*
X102772989Y-109011706D01*
X102824500Y-109000500D01*
X121232666Y-109000500D01*
X121294665Y-109017112D01*
X121368216Y-109059577D01*
X121520943Y-109100500D01*
X121520945Y-109100500D01*
X121679055Y-109100500D01*
X121679057Y-109100500D01*
X121831784Y-109059577D01*
X121968716Y-108980520D01*
X122080520Y-108868716D01*
X122159577Y-108731784D01*
X122200500Y-108579057D01*
X122200500Y-108420943D01*
X122159577Y-108268216D01*
X122115970Y-108192686D01*
X122080524Y-108131290D01*
X122080518Y-108131282D01*
X121968717Y-108019481D01*
X121968709Y-108019475D01*
X121831790Y-107940426D01*
X121831786Y-107940424D01*
X121831784Y-107940423D01*
X121679057Y-107899500D01*
X121520943Y-107899500D01*
X121368216Y-107940423D01*
X121368213Y-107940424D01*
X121294666Y-107982887D01*
X121232666Y-107999500D01*
X102134108Y-107999500D01*
X102006812Y-108033608D01*
X101892686Y-108099500D01*
X101892683Y-108099502D01*
X101799502Y-108192683D01*
X101799500Y-108192686D01*
X101733608Y-108306812D01*
X101699500Y-108434108D01*
X101699500Y-131432664D01*
X101682888Y-131494663D01*
X101640423Y-131568215D01*
X101640423Y-131568216D01*
X101599500Y-131720943D01*
X100300500Y-131720943D01*
X100300500Y-103381995D01*
X101699500Y-103381995D01*
X101699500Y-103618004D01*
X101699501Y-103618020D01*
X101730306Y-103852010D01*
X101791394Y-104079993D01*
X101881714Y-104298045D01*
X101881719Y-104298056D01*
X101952677Y-104420957D01*
X101999727Y-104502450D01*
X101999729Y-104502453D01*
X101999730Y-104502454D01*
X102143406Y-104689697D01*
X102143412Y-104689704D01*
X102310295Y-104856587D01*
X102310301Y-104856592D01*
X102497550Y-105000273D01*
X102628918Y-105076118D01*
X102701943Y-105118280D01*
X102701948Y-105118282D01*
X102701951Y-105118284D01*
X102920007Y-105208606D01*
X103147986Y-105269693D01*
X103381989Y-105300500D01*
X103381996Y-105300500D01*
X103618004Y-105300500D01*
X103618011Y-105300500D01*
X103852014Y-105269693D01*
X104079993Y-105208606D01*
X104298049Y-105118284D01*
X104502450Y-105000273D01*
X104689699Y-104856592D01*
X104856592Y-104689699D01*
X105000273Y-104502450D01*
X105118284Y-104298049D01*
X105208606Y-104079993D01*
X105269693Y-103852014D01*
X105300500Y-103618011D01*
X105300500Y-103381989D01*
X105269693Y-103147986D01*
X105208606Y-102920007D01*
X105118284Y-102701951D01*
X105118282Y-102701948D01*
X105118280Y-102701943D01*
X105076118Y-102628918D01*
X105000273Y-102497550D01*
X104856592Y-102310301D01*
X104856587Y-102310295D01*
X104689704Y-102143412D01*
X104689697Y-102143406D01*
X104502454Y-101999730D01*
X104502453Y-101999729D01*
X104502450Y-101999727D01*
X104420957Y-101952677D01*
X104298056Y-101881719D01*
X104298045Y-101881714D01*
X104079993Y-101791394D01*
X103852010Y-101730306D01*
X103618020Y-101699501D01*
X103618017Y-101699500D01*
X103618011Y-101699500D01*
X103381989Y-101699500D01*
X103381983Y-101699500D01*
X103381979Y-101699501D01*
X103147989Y-101730306D01*
X102920006Y-101791394D01*
X102701954Y-101881714D01*
X102701943Y-101881719D01*
X102497545Y-101999730D01*
X102310302Y-102143406D01*
X102310295Y-102143412D01*
X102143412Y-102310295D01*
X102143406Y-102310302D01*
X101999730Y-102497545D01*
X101881719Y-102701943D01*
X101881714Y-102701954D01*
X101791394Y-102920006D01*
X101730306Y-103147989D01*
X101699501Y-103381979D01*
X101699500Y-103381995D01*
X100300500Y-103381995D01*
X100300500Y-100424500D01*
X100320185Y-100357461D01*
X100372989Y-100311706D01*
X100424500Y-100300500D01*
X189575500Y-100300500D01*
X189642539Y-100320185D01*
G37*
%TD.AperFunction*%
%TD*%
M02*
