%TF.GenerationSoftware,KiCad,Pcbnew,9.0.9*%
%TF.CreationDate,2026-10-01T05:57:00+00:00*%
%TF.ProjectId,AP02,41503032-2e6b-4696-9361-645f70636258,rev?*%
%TF.SameCoordinates,Original*%
%TF.FileFunction,Paste,Top*%
%TF.FilePolarity,Positive*%
%FSLAX46Y46*%
G04 Gerber Fmt 4.6, Leading zero omitted, Abs format (unit mm)*
G04 Created by KiCad (PCBNEW 9.0.9) date 2026-10-01 05:57:00*
%MOMM*%
%LPD*%
G01*
G04 APERTURE LIST*
G04 Aperture macros list*
%AMRoundRect*
0 Rectangle with rounded corners*
0 $1 Rounding radius*
0 $2 $3 $4 $5 $6 $7 $8 $9 X,Y pos of 4 corners*
0 Add a 4 corners polygon primitive as box body*
4,1,4,$2,$3,$4,$5,$6,$7,$8,$9,$2,$3,0*
0 Add four circle primitives for the rounded corners*
1,1,$1+$1,$2,$3*
1,1,$1+$1,$4,$5*
1,1,$1+$1,$6,$7*
1,1,$1+$1,$8,$9*
0 Add four rect primitives between the rounded corners*
20,1,$1+$1,$2,$3,$4,$5,0*
20,1,$1+$1,$4,$5,$6,$7,0*
20,1,$1+$1,$6,$7,$8,$9,0*
20,1,$1+$1,$8,$9,$2,$3,0*%
G04 Aperture macros list end*
%ADD10RoundRect,0.200000X-0.200000X-0.275000X0.200000X-0.275000X0.200000X0.275000X-0.200000X0.275000X0*%
%ADD11RoundRect,0.250000X1.950000X1.000000X-1.950000X1.000000X-1.950000X-1.000000X1.950000X-1.000000X0*%
%ADD12RoundRect,0.375000X-0.375000X0.375000X-0.375000X-0.375000X0.375000X-0.375000X0.375000X0.375000X0*%
%ADD13RoundRect,0.125000X-0.125000X0.250000X-0.125000X-0.250000X0.125000X-0.250000X0.125000X0.250000X0*%
%ADD14RoundRect,0.100000X-0.100000X0.275000X-0.100000X-0.275000X0.100000X-0.275000X0.100000X0.275000X0*%
%ADD15RoundRect,0.218750X-0.218750X-0.256250X0.218750X-0.256250X0.218750X0.256250X-0.218750X0.256250X0*%
%ADD16RoundRect,0.225000X-0.225000X-0.250000X0.225000X-0.250000X0.225000X0.250000X-0.225000X0.250000X0*%
%ADD17RoundRect,0.375000X-0.375000X-0.375000X0.375000X-0.375000X0.375000X0.375000X-0.375000X0.375000X0*%
%ADD18RoundRect,0.125000X-0.250000X-0.125000X0.250000X-0.125000X0.250000X0.125000X-0.250000X0.125000X0*%
%ADD19RoundRect,0.100000X-0.275000X-0.100000X0.275000X-0.100000X0.275000X0.100000X-0.275000X0.100000X0*%
%ADD20RoundRect,0.250000X0.475000X-0.250000X0.475000X0.250000X-0.475000X0.250000X-0.475000X-0.250000X0*%
%ADD21RoundRect,0.150000X-0.512500X-0.150000X0.512500X-0.150000X0.512500X0.150000X-0.512500X0.150000X0*%
%ADD22RoundRect,0.225000X0.375000X-0.225000X0.375000X0.225000X-0.375000X0.225000X-0.375000X-0.225000X0*%
%ADD23RoundRect,0.250000X0.650000X-1.000000X0.650000X1.000000X-0.650000X1.000000X-0.650000X-1.000000X0*%
%ADD24RoundRect,0.200000X0.275000X-0.200000X0.275000X0.200000X-0.275000X0.200000X-0.275000X-0.200000X0*%
%ADD25RoundRect,0.243600X-0.901400X-0.771400X0.901400X-0.771400X0.901400X0.771400X-0.901400X0.771400X0*%
%ADD26RoundRect,0.091200X-0.608800X-0.288800X0.608800X-0.288800X0.608800X0.288800X-0.608800X0.288800X0*%
%ADD27RoundRect,0.190000X-0.510000X-0.190000X0.510000X-0.190000X0.510000X0.190000X-0.510000X0.190000X0*%
%ADD28R,1.700000X1.000000*%
%ADD29RoundRect,0.250000X0.650000X-0.325000X0.650000X0.325000X-0.650000X0.325000X-0.650000X-0.325000X0*%
%ADD30R,1.450000X0.600000*%
%ADD31R,1.450000X0.300000*%
%ADD32R,0.700000X0.700000*%
%ADD33R,1.500000X0.900000*%
%ADD34RoundRect,0.150000X0.150000X-0.825000X0.150000X0.825000X-0.150000X0.825000X-0.150000X-0.825000X0*%
%ADD35RoundRect,0.075000X0.650000X0.075000X-0.650000X0.075000X-0.650000X-0.075000X0.650000X-0.075000X0*%
%ADD36RoundRect,0.225000X0.250000X-0.225000X0.250000X0.225000X-0.250000X0.225000X-0.250000X-0.225000X0*%
%ADD37RoundRect,0.225000X-0.225000X-0.375000X0.225000X-0.375000X0.225000X0.375000X-0.225000X0.375000X0*%
%ADD38RoundRect,0.250000X-1.000000X-0.900000X1.000000X-0.900000X1.000000X0.900000X-1.000000X0.900000X0*%
%ADD39RoundRect,0.250000X-0.300000X-1.600000X0.300000X-1.600000X0.300000X1.600000X-0.300000X1.600000X0*%
%ADD40RoundRect,0.150000X-0.587500X-0.150000X0.587500X-0.150000X0.587500X0.150000X-0.587500X0.150000X0*%
%ADD41RoundRect,0.150000X-0.825000X-0.150000X0.825000X-0.150000X0.825000X0.150000X-0.825000X0.150000X0*%
%ADD42RoundRect,0.150000X0.150000X-0.512500X0.150000X0.512500X-0.150000X0.512500X-0.150000X-0.512500X0*%
%ADD43RoundRect,0.250000X-0.325000X-0.650000X0.325000X-0.650000X0.325000X0.650000X-0.325000X0.650000X0*%
%ADD44RoundRect,0.250000X-0.250000X-0.475000X0.250000X-0.475000X0.250000X0.475000X-0.250000X0.475000X0*%
G04 APERTURE END LIST*
D10*
%TO.C,RG2*%
X138075000Y-142900000D03*
X139725000Y-142900000D03*
%TD*%
D11*
%TO.C,C1*%
X114200000Y-127000000D03*
X105800000Y-127000000D03*
%TD*%
D12*
%TO.C,Q2*%
X141350000Y-149800000D03*
X139650000Y-149800000D03*
X141350000Y-151500000D03*
X139650000Y-151500000D03*
D13*
X142405000Y-152905000D03*
X141135000Y-152905000D03*
X139865000Y-152905000D03*
X138595000Y-152905000D03*
D14*
X142405000Y-147100000D03*
X141135000Y-147100000D03*
X139865000Y-147100000D03*
X138595000Y-147100000D03*
%TD*%
D15*
%TO.C,D5*%
X160212500Y-136500000D03*
X161787500Y-136500000D03*
%TD*%
D10*
%TO.C,R14*%
X173675000Y-137500000D03*
X175325000Y-137500000D03*
%TD*%
D16*
%TO.C,C18*%
X143225000Y-132000000D03*
X144775000Y-132000000D03*
%TD*%
D12*
%TO.C,Q4*%
X155350000Y-149800000D03*
X153650000Y-149800000D03*
X155350000Y-151500000D03*
X153650000Y-151500000D03*
D13*
X156405000Y-152905000D03*
X155135000Y-152905000D03*
X153865000Y-152905000D03*
X152595000Y-152905000D03*
D14*
X156405000Y-147100000D03*
X155135000Y-147100000D03*
X153865000Y-147100000D03*
X152595000Y-147100000D03*
%TD*%
D17*
%TO.C,QR2*%
X125800000Y-145150000D03*
X125800000Y-146850000D03*
X127500000Y-145150000D03*
X127500000Y-146850000D03*
D18*
X128905000Y-144095000D03*
X128905000Y-145365000D03*
X128905000Y-146635000D03*
X128905000Y-147905000D03*
D19*
X123100000Y-144095000D03*
X123100000Y-145365000D03*
X123100000Y-146635000D03*
X123100000Y-147905000D03*
%TD*%
D10*
%TO.C,RG3*%
X145075000Y-142900000D03*
X146725000Y-142900000D03*
%TD*%
D20*
%TO.C,C7*%
X137500000Y-110950000D03*
X137500000Y-109050000D03*
%TD*%
D17*
%TO.C,QR1*%
X125800000Y-152150000D03*
X125800000Y-153850000D03*
X127500000Y-152150000D03*
X127500000Y-153850000D03*
D18*
X128905000Y-151095000D03*
X128905000Y-152365000D03*
X128905000Y-153635000D03*
X128905000Y-154905000D03*
D19*
X123100000Y-151095000D03*
X123100000Y-152365000D03*
X123100000Y-153635000D03*
X123100000Y-154905000D03*
%TD*%
D16*
%TO.C,C15*%
X150725000Y-115500000D03*
X152275000Y-115500000D03*
%TD*%
%TO.C,C11*%
X136225000Y-132500000D03*
X137775000Y-132500000D03*
%TD*%
D10*
%TO.C,RP2*%
X141275000Y-142900000D03*
X142925000Y-142900000D03*
%TD*%
D21*
%TO.C,U1*%
X122862500Y-109050000D03*
X122862500Y-110000000D03*
X122862500Y-110950000D03*
X125137500Y-110950000D03*
X125137500Y-110000000D03*
X125137500Y-109050000D03*
%TD*%
D16*
%TO.C,C17*%
X103225000Y-133500000D03*
X104775000Y-133500000D03*
%TD*%
D22*
%TO.C,D4*%
X159500000Y-153650000D03*
X159500000Y-150350000D03*
%TD*%
D23*
%TO.C,D3*%
X148000000Y-120000000D03*
X148000000Y-116000000D03*
%TD*%
D24*
%TO.C,R11*%
X183500000Y-120825000D03*
X183500000Y-119175000D03*
%TD*%
D16*
%TO.C,C8*%
X123225000Y-125500000D03*
X124775000Y-125500000D03*
%TD*%
D10*
%TO.C,RF1*%
X123175000Y-118500000D03*
X124825000Y-118500000D03*
%TD*%
D25*
%TO.C,RS1*%
X107915000Y-140165000D03*
D26*
X107470000Y-142070000D03*
D27*
X114330000Y-139530000D03*
D25*
X113885000Y-141435000D03*
%TD*%
D10*
%TO.C,RP3*%
X148275000Y-142900000D03*
X149925000Y-142900000D03*
%TD*%
D28*
%TO.C,SW1*%
X155850000Y-129100000D03*
X162150000Y-129100000D03*
X155850000Y-132900000D03*
X162150000Y-132900000D03*
%TD*%
D10*
%TO.C,RG0*%
X122775000Y-141600000D03*
X124425000Y-141600000D03*
%TD*%
%TO.C,R13*%
X177175000Y-137500000D03*
X178825000Y-137500000D03*
%TD*%
D29*
%TO.C,C5*%
X119500000Y-111475000D03*
X119500000Y-108525000D03*
%TD*%
D10*
%TO.C,RF2*%
X127675000Y-118500000D03*
X129325000Y-118500000D03*
%TD*%
D30*
%TO.C,J2*%
X180955000Y-135750000D03*
X180955000Y-134950000D03*
D31*
X180955000Y-133750000D03*
X180955000Y-132750000D03*
X180955000Y-132250000D03*
X180955000Y-131250000D03*
D30*
X180955000Y-130050000D03*
X180955000Y-129250000D03*
X180955000Y-129250000D03*
X180955000Y-130050000D03*
D31*
X180955000Y-130750000D03*
X180955000Y-131750000D03*
X180955000Y-133250000D03*
X180955000Y-134250000D03*
D30*
X180955000Y-134950000D03*
X180955000Y-135750000D03*
%TD*%
D32*
%TO.C,U5*%
X167860000Y-118600000D03*
X167860000Y-119700000D03*
X167860000Y-120800000D03*
X168960000Y-118600000D03*
X168960000Y-119700000D03*
X168960000Y-120800000D03*
X170060000Y-118600000D03*
X170060000Y-119700000D03*
X170060000Y-120800000D03*
D33*
X159250000Y-113500000D03*
X159250000Y-115000000D03*
X159250000Y-116500000D03*
X159250000Y-118000000D03*
X159250000Y-119500000D03*
X159250000Y-121000000D03*
X159250000Y-122500000D03*
X159250000Y-124000000D03*
X159250000Y-125500000D03*
X176750000Y-125500000D03*
X176750000Y-124000000D03*
X176750000Y-122500000D03*
X176750000Y-121000000D03*
X176750000Y-119500000D03*
X176750000Y-118000000D03*
X176750000Y-116500000D03*
X176750000Y-115000000D03*
X176750000Y-113500000D03*
%TD*%
D34*
%TO.C,U8*%
X142095000Y-139475000D03*
X143365000Y-139475000D03*
X144635000Y-139475000D03*
X145905000Y-139475000D03*
X145905000Y-134525000D03*
X144635000Y-134525000D03*
X143365000Y-134525000D03*
X142095000Y-134525000D03*
%TD*%
D16*
%TO.C,C14*%
X150725000Y-110500000D03*
X152275000Y-110500000D03*
%TD*%
D35*
%TO.C,U7*%
X108200000Y-137300000D03*
X108200000Y-136800000D03*
X108200000Y-136300000D03*
X108200000Y-135800000D03*
X108200000Y-135300000D03*
X103800000Y-135300000D03*
X103800000Y-135800000D03*
X103800000Y-136300000D03*
X103800000Y-136800000D03*
X103800000Y-137300000D03*
%TD*%
D36*
%TO.C,C16*%
X183500000Y-123775000D03*
X183500000Y-122225000D03*
%TD*%
D28*
%TO.C,SW2*%
X164850000Y-129100000D03*
X171150000Y-129100000D03*
X164850000Y-132900000D03*
X171150000Y-132900000D03*
%TD*%
D10*
%TO.C,RP1*%
X134275000Y-142900000D03*
X135925000Y-142900000D03*
%TD*%
D37*
%TO.C,DZ1*%
X126350000Y-140400000D03*
X129650000Y-140400000D03*
%TD*%
D38*
%TO.C,D1*%
X118350000Y-132600000D03*
X122650000Y-132600000D03*
%TD*%
D23*
%TO.C,D2*%
X144000000Y-120000000D03*
X144000000Y-116000000D03*
%TD*%
D10*
%TO.C,RG1*%
X131075000Y-142900000D03*
X132725000Y-142900000D03*
%TD*%
D12*
%TO.C,Q1*%
X134350000Y-149800000D03*
X132650000Y-149800000D03*
X134350000Y-151500000D03*
X132650000Y-151500000D03*
D13*
X135405000Y-152905000D03*
X134135000Y-152905000D03*
X132865000Y-152905000D03*
X131595000Y-152905000D03*
D14*
X135405000Y-147100000D03*
X134135000Y-147100000D03*
X132865000Y-147100000D03*
X131595000Y-147100000D03*
%TD*%
D39*
%TO.C,L1*%
X128500000Y-110000000D03*
X131500000Y-110000000D03*
%TD*%
D10*
%TO.C,RP4*%
X155275000Y-142900000D03*
X156925000Y-142900000D03*
%TD*%
%TO.C,R6*%
X150675000Y-113000000D03*
X152325000Y-113000000D03*
%TD*%
D12*
%TO.C,Q3*%
X148350000Y-149800000D03*
X146650000Y-149800000D03*
X148350000Y-151500000D03*
X146650000Y-151500000D03*
D13*
X149405000Y-152905000D03*
X148135000Y-152905000D03*
X146865000Y-152905000D03*
X145595000Y-152905000D03*
D14*
X149405000Y-147100000D03*
X148135000Y-147100000D03*
X146865000Y-147100000D03*
X145595000Y-147100000D03*
%TD*%
D40*
%TO.C,Q5*%
X158562500Y-146050000D03*
X158562500Y-147950000D03*
X160437500Y-147000000D03*
%TD*%
D24*
%TO.C,R8*%
X183500000Y-114825000D03*
X183500000Y-113175000D03*
%TD*%
D16*
%TO.C,C12*%
X150225000Y-132500000D03*
X151775000Y-132500000D03*
%TD*%
D11*
%TO.C,C2*%
X114200000Y-112800000D03*
X105800000Y-112800000D03*
%TD*%
D29*
%TO.C,C10*%
X134500000Y-123475000D03*
X134500000Y-120525000D03*
%TD*%
D21*
%TO.C,U2*%
X122862500Y-121050000D03*
X122862500Y-122000000D03*
X122862500Y-122950000D03*
X125137500Y-122950000D03*
X125137500Y-122000000D03*
X125137500Y-121050000D03*
%TD*%
D29*
%TO.C,C9*%
X119500000Y-123475000D03*
X119500000Y-120525000D03*
%TD*%
D10*
%TO.C,R15*%
X143175000Y-130300000D03*
X144825000Y-130300000D03*
%TD*%
D41*
%TO.C,U3*%
X134525000Y-135095000D03*
X134525000Y-136365000D03*
X134525000Y-137635000D03*
X134525000Y-138905000D03*
X139475000Y-138905000D03*
X139475000Y-137635000D03*
X139475000Y-136365000D03*
X139475000Y-135095000D03*
%TD*%
D20*
%TO.C,C6*%
X134500000Y-110950000D03*
X134500000Y-109050000D03*
%TD*%
D24*
%TO.C,R10*%
X183500000Y-117825000D03*
X183500000Y-116175000D03*
%TD*%
D16*
%TO.C,C4*%
X123225000Y-113500000D03*
X124775000Y-113500000D03*
%TD*%
D42*
%TO.C,U6*%
X175050000Y-133637500D03*
X176000000Y-133637500D03*
X176950000Y-133637500D03*
X176950000Y-131362500D03*
X176000000Y-131362500D03*
X175050000Y-131362500D03*
%TD*%
D10*
%TO.C,R12*%
X156175000Y-136500000D03*
X157825000Y-136500000D03*
%TD*%
%TO.C,R5*%
X158675000Y-143500000D03*
X160325000Y-143500000D03*
%TD*%
D39*
%TO.C,L2*%
X128500000Y-122000000D03*
X131500000Y-122000000D03*
%TD*%
D43*
%TO.C,C3*%
X105025000Y-151000000D03*
X107975000Y-151000000D03*
%TD*%
D10*
%TO.C,R7*%
X150675000Y-118000000D03*
X152325000Y-118000000D03*
%TD*%
D41*
%TO.C,U4*%
X148525000Y-135095000D03*
X148525000Y-136365000D03*
X148525000Y-137635000D03*
X148525000Y-138905000D03*
X153475000Y-138905000D03*
X153475000Y-137635000D03*
X153475000Y-136365000D03*
X153475000Y-135095000D03*
%TD*%
D44*
%TO.C,C13*%
X150550000Y-108000000D03*
X152450000Y-108000000D03*
%TD*%
D10*
%TO.C,R9*%
X150675000Y-120500000D03*
X152325000Y-120500000D03*
%TD*%
%TO.C,RG4*%
X152075000Y-142900000D03*
X153725000Y-142900000D03*
%TD*%
M02*
