%TF.GenerationSoftware,KiCad,Pcbnew,9.0.9*%
%TF.CreationDate,2026-10-01T03:55:59+00:00*%
%TF.ProjectId,AP02,41503032-2e6b-4696-9361-645f70636258,rev?*%
%TF.SameCoordinates,Original*%
%TF.FileFunction,Copper,L2,Bot*%
%TF.FilePolarity,Positive*%
%FSLAX46Y46*%
G04 Gerber Fmt 4.6, Leading zero omitted, Abs format (unit mm)*
G04 Created by KiCad (PCBNEW 9.0.9) date 2026-10-01 03:55:59*
%MOMM*%
%LPD*%
G01*
G04 APERTURE LIST*
G04 Aperture macros list*
%AMRoundRect*
0 Rectangle with rounded corners*
0 $1 Rounding radius*
0 $2 $3 $4 $5 $6 $7 $8 $9 X,Y pos of 4 corners*
0 Add a 4 corners polygon primitive as box body*
4,1,4,$2,$3,$4,$5,$6,$7,$8,$9,$2,$3,0*
0 Add four circle primitives for the rounded corners*
1,1,$1+$1,$2,$3*
1,1,$1+$1,$4,$5*
1,1,$1+$1,$6,$7*
1,1,$1+$1,$8,$9*
0 Add four rect primitives between the rounded corners*
20,1,$1+$1,$2,$3,$4,$5,0*
20,1,$1+$1,$4,$5,$6,$7,0*
20,1,$1+$1,$6,$7,$8,$9,0*
20,1,$1+$1,$8,$9,$2,$3,0*%
G04 Aperture macros list end*
%TA.AperFunction,ComponentPad*%
%ADD10C,3.000000*%
%TD*%
%TA.AperFunction,ComponentPad*%
%ADD11C,2.500000*%
%TD*%
%TA.AperFunction,ComponentPad*%
%ADD12C,3.500000*%
%TD*%
%TA.AperFunction,ComponentPad*%
%ADD13RoundRect,0.250000X-1.050000X-1.050000X1.050000X-1.050000X1.050000X1.050000X-1.050000X1.050000X0*%
%TD*%
%TA.AperFunction,ComponentPad*%
%ADD14C,2.600000*%
%TD*%
%TA.AperFunction,HeatsinkPad*%
%ADD15C,0.600000*%
%TD*%
%TA.AperFunction,HeatsinkPad*%
%ADD16O,2.100000X1.000000*%
%TD*%
%TA.AperFunction,HeatsinkPad*%
%ADD17O,1.600000X1.000000*%
%TD*%
%TA.AperFunction,ComponentPad*%
%ADD18R,1.700000X1.700000*%
%TD*%
%TA.AperFunction,ComponentPad*%
%ADD19C,1.700000*%
%TD*%
%TA.AperFunction,ViaPad*%
%ADD20C,0.800000*%
%TD*%
%TA.AperFunction,ViaPad*%
%ADD21C,0.600000*%
%TD*%
%TA.AperFunction,Conductor*%
%ADD22C,2.000000*%
%TD*%
%TA.AperFunction,Conductor*%
%ADD23C,0.600000*%
%TD*%
%TA.AperFunction,Conductor*%
%ADD24C,0.250000*%
%TD*%
G04 APERTURE END LIST*
D10*
%TO.P,K1,1*%
%TO.N,/COM*%
X168000000Y-147000000D03*
D11*
%TO.P,K1,2*%
%TO.N,/RLYD*%
X169950000Y-153050000D03*
D10*
%TO.P,K1,3*%
%TO.N,/NO*%
X182150000Y-153050000D03*
%TO.P,K1,4*%
%TO.N,unconnected-(K1-Pad4)*%
X182200000Y-141000000D03*
D11*
%TO.P,K1,5*%
%TO.N,/V12G*%
X169950000Y-141050000D03*
%TD*%
D12*
%TO.P,F1,1*%
%TO.N,/VIN_RAW*%
X117500000Y-150000000D03*
%TO.P,F1,2*%
%TO.N,/VIN*%
X117500000Y-140800000D03*
%TD*%
D13*
%TO.P,J4,1*%
%TO.N,/CH1*%
X136000000Y-163500000D03*
D14*
%TO.P,J4,2*%
%TO.N,/CH2*%
X141080000Y-163500000D03*
%TO.P,J4,3*%
%TO.N,/CH3*%
X146160000Y-163500000D03*
%TO.P,J4,4*%
%TO.N,/CH4*%
X151240000Y-163500000D03*
%TD*%
D13*
%TO.P,J1,1*%
%TO.N,/VIN_RAW*%
X117500000Y-163500000D03*
D14*
%TO.P,J1,2*%
%TO.N,/GNDIN*%
X122580000Y-163500000D03*
%TD*%
D13*
%TO.P,J3,1*%
%TO.N,/VIN*%
X105000000Y-163500000D03*
D14*
%TO.P,J3,2*%
X110080000Y-163500000D03*
%TD*%
D15*
%TO.P,U5,19*%
%TO.N,/GND*%
X167860000Y-119150000D03*
X167860000Y-120250000D03*
X168410000Y-118600000D03*
X168410000Y-119700000D03*
X168410000Y-120800000D03*
X168960000Y-119150000D03*
X168960000Y-120250000D03*
X169510000Y-118600000D03*
X169510000Y-119700000D03*
X169510000Y-120800000D03*
X170060000Y-119150000D03*
X170060000Y-120250000D03*
%TD*%
D13*
%TO.P,J5,1*%
%TO.N,/COM*%
X177000000Y-163500000D03*
D14*
%TO.P,J5,2*%
%TO.N,/NO*%
X182080000Y-163500000D03*
%TD*%
D16*
%TO.P,J2,S1*%
%TO.N,/GND*%
X181870000Y-136820000D03*
D17*
X186050000Y-136820000D03*
D16*
X181870000Y-128180000D03*
D17*
X186050000Y-128180000D03*
%TD*%
D18*
%TO.P,J6,1*%
%TO.N,/3V3*%
X187000000Y-109200000D03*
D19*
%TO.P,J6,2*%
%TO.N,/GND*%
X187000000Y-111740000D03*
%TO.P,J6,3*%
%TO.N,/SDA*%
X187000000Y-114280000D03*
%TO.P,J6,4*%
%TO.N,/SCL*%
X187000000Y-116820000D03*
%TO.P,J6,5*%
%TO.N,/IR*%
X187000000Y-119360000D03*
%TO.P,J6,6*%
%TO.N,/LDR*%
X187000000Y-121900000D03*
%TO.P,J6,7*%
%TO.N,/BOOT*%
X187000000Y-124440000D03*
%TD*%
D20*
%TO.N,/VIN*%
X142185000Y-115988000D03*
X129729000Y-133985000D03*
%TO.N,/GND*%
X135400000Y-146200000D03*
D21*
X132971000Y-109554000D03*
D20*
X121950000Y-153600000D03*
X121950000Y-152400000D03*
X121950000Y-146600000D03*
X149400000Y-145100000D03*
X140000000Y-146200000D03*
X149400000Y-146200000D03*
D21*
X158905000Y-132886000D03*
D20*
X154000000Y-146200000D03*
D21*
X160798000Y-132900000D03*
X140894000Y-131599000D03*
D20*
X120900000Y-151200000D03*
D21*
X128583700Y-119315300D03*
D20*
X134200000Y-146200000D03*
D21*
X115903000Y-127688000D03*
X153036000Y-114739000D03*
X159255000Y-136500000D03*
X140894000Y-135883000D03*
D20*
X147000000Y-146200000D03*
D21*
X125016800Y-123793400D03*
D20*
X135400000Y-145100000D03*
X134200000Y-145100000D03*
D21*
X152275000Y-111495000D03*
D20*
X120900000Y-144200000D03*
X155200000Y-145100000D03*
X120900000Y-145400000D03*
X155200000Y-146200000D03*
X156400000Y-145100000D03*
X120900000Y-146600000D03*
X120900000Y-153600000D03*
D21*
X149547000Y-109050000D03*
D20*
X147000000Y-145100000D03*
X141200000Y-146200000D03*
D21*
X130866000Y-118750000D03*
D20*
X133000000Y-146200000D03*
X148200000Y-146200000D03*
X154000000Y-145100000D03*
X120900000Y-152400000D03*
X140000000Y-145100000D03*
D21*
X121779000Y-107140000D03*
X160502000Y-125425000D03*
D20*
X121950000Y-145400000D03*
D21*
X126327000Y-110801000D03*
D20*
X156400000Y-146200000D03*
X121950000Y-151200000D03*
X148200000Y-145100000D03*
X142400000Y-146200000D03*
D21*
X152450000Y-106768000D03*
D20*
X121950000Y-144200000D03*
X141200000Y-145100000D03*
X133000000Y-145100000D03*
D21*
X115903000Y-118912000D03*
D20*
X142400000Y-145100000D03*
D21*
%TO.N,/GREV*%
X123387000Y-155692000D03*
X124100000Y-144461000D03*
%TO.N,/VBUS*%
X179728000Y-134900000D03*
X177906000Y-129382000D03*
X149379000Y-114621000D03*
%TO.N,/3V3*%
X175498000Y-113512000D03*
X184495000Y-116520000D03*
%TO.N,/BST2*%
X123225000Y-126514000D03*
X125931000Y-120257000D03*
%TO.N,/V12G*%
X158723000Y-152719000D03*
X151685000Y-135400000D03*
X160370000Y-139388000D03*
%TO.N,/PWM1*%
X157994000Y-116500000D03*
X135801000Y-135721000D03*
%TO.N,/PWM2*%
X157978000Y-118000000D03*
X136663000Y-138261000D03*
%TO.N,/GO1*%
X137974000Y-136365000D03*
X132003000Y-142150000D03*
%TO.N,/PWM3*%
X155100000Y-120460000D03*
X150453000Y-135721000D03*
%TO.N,/PWM4*%
X149800000Y-138259000D03*
X157978000Y-120774000D03*
%TO.N,/RLYG*%
X161052000Y-142734000D03*
X168269000Y-125010000D03*
%TO.N,/EN*%
X157978000Y-115226000D03*
X172117000Y-126815000D03*
%TO.N,/SCL*%
X165533000Y-122296000D03*
%TO.N,/BOOT*%
X173902000Y-126093000D03*
%TO.N,/USB_DN*%
X174244000Y-131694000D03*
X178287000Y-132625000D03*
%TO.N,/USB_DP*%
X175491000Y-119318000D03*
X176950000Y-130197000D03*
%TO.N,/CC1*%
X182190000Y-133725000D03*
X179752000Y-138019000D03*
%TO.N,/CC2*%
X182207000Y-130775000D03*
X172919000Y-136744000D03*
%TD*%
D22*
%TO.N,/VIN*%
X129729000Y-128443000D02*
X129729000Y-133985000D01*
X142185000Y-115988000D02*
X129729000Y-128443000D01*
D23*
%TO.N,/GND*%
X186050000Y-136820000D02*
X186050000Y-128180000D01*
X168410000Y-118600000D02*
X168410000Y-119150000D01*
X160798000Y-132900000D02*
X159859000Y-133840000D01*
X188352000Y-127180000D02*
X188352000Y-113092000D01*
X186050000Y-128180000D02*
X187352000Y-128180000D01*
X121779000Y-107539000D02*
X121779000Y-107140000D01*
X152450000Y-111320000D02*
X152450000Y-106768000D01*
X167860000Y-120250000D02*
X168410000Y-120250000D01*
X152275000Y-111495000D02*
X152275000Y-113978000D01*
X159859000Y-133840000D02*
X159255000Y-134443000D01*
X160798000Y-132900000D02*
X160502000Y-132604000D01*
X127185000Y-111659000D02*
X126327000Y-110801000D01*
X149830000Y-109050000D02*
X149547000Y-109050000D01*
X126327000Y-110801000D02*
X125042000Y-110801000D01*
X188352000Y-113092000D02*
X187000000Y-111740000D01*
X128583700Y-119315300D02*
X128583700Y-120226500D01*
X159255000Y-134443000D02*
X159255000Y-136500000D01*
X140894000Y-135883000D02*
X140894000Y-131599000D01*
X115903000Y-118912000D02*
X115903000Y-127688000D01*
X130866000Y-111659000D02*
X132971000Y-109554000D01*
X168410000Y-119150000D02*
X168410000Y-119700000D01*
X159859000Y-133840000D02*
X158905000Y-132886000D01*
X152275000Y-113978000D02*
X153036000Y-114739000D01*
X168410000Y-119150000D02*
X168960000Y-119150000D01*
X168410000Y-119700000D02*
X168410000Y-120250000D01*
X152275000Y-111495000D02*
X149830000Y-109050000D01*
X187352000Y-128180000D02*
X188352000Y-127180000D01*
X168410000Y-120250000D02*
X168410000Y-120800000D01*
X167860000Y-119150000D02*
X168410000Y-119150000D01*
X130866000Y-118750000D02*
X130866000Y-111659000D01*
X130866000Y-111659000D02*
X127185000Y-111659000D01*
X160502000Y-132604000D02*
X160502000Y-125425000D01*
X128583700Y-120226500D02*
X125016800Y-123793400D01*
X152275000Y-111495000D02*
X152450000Y-111320000D01*
X125042000Y-110801000D02*
X121779000Y-107539000D01*
D24*
%TO.N,/GREV*%
X123387000Y-145174000D02*
X123387000Y-155692000D01*
X124100000Y-144461000D02*
X123387000Y-145174000D01*
D23*
%TO.N,/VBUS*%
X149379000Y-114621000D02*
X151970000Y-117213000D01*
X171785000Y-127616000D02*
X172022000Y-127616000D01*
X151970000Y-117213000D02*
X152452000Y-117213000D01*
X156811000Y-121037000D02*
X157018000Y-121037000D01*
X171316000Y-127147000D02*
X171785000Y-127616000D01*
X179728000Y-132891000D02*
X179728000Y-134900000D01*
X159741000Y-123760000D02*
X168165000Y-123760000D01*
X168165000Y-123760000D02*
X171316000Y-126910000D01*
X152452000Y-117213000D02*
X154898000Y-119658000D01*
X155432000Y-119658000D02*
X156811000Y-121037000D01*
X175424000Y-131019000D02*
X177294000Y-131019000D01*
X177906000Y-130407000D02*
X177575000Y-130738000D01*
X157018000Y-121037000D02*
X159741000Y-123760000D01*
X177906000Y-129382000D02*
X177906000Y-130407000D01*
X154898000Y-119658000D02*
X155432000Y-119658000D01*
X171316000Y-126910000D02*
X171316000Y-127147000D01*
X172022000Y-127616000D02*
X175424000Y-131019000D01*
X177575000Y-130738000D02*
X179728000Y-132891000D01*
X177294000Y-131019000D02*
X177575000Y-130738000D01*
%TO.N,/3V3*%
X184495000Y-111705000D02*
X184495000Y-116520000D01*
X184495000Y-114323000D02*
X176308000Y-114323000D01*
X176308000Y-114323000D02*
X175498000Y-113512000D01*
X187000000Y-109200000D02*
X184495000Y-111705000D01*
D24*
%TO.N,/BST2*%
X123225000Y-122962000D02*
X123225000Y-126514000D01*
X125931000Y-120257000D02*
X123225000Y-122962000D01*
D23*
%TO.N,/V12G*%
X158723000Y-152719000D02*
X158723000Y-142439000D01*
X158021000Y-141736000D02*
X160370000Y-139388000D01*
X158723000Y-142439000D02*
X158021000Y-141736000D01*
X158021000Y-141736000D02*
X151685000Y-135400000D01*
D24*
%TO.N,/PWM1*%
X148703000Y-112977000D02*
X135801000Y-125879000D01*
X152978000Y-115568000D02*
X150836000Y-113426000D01*
X157994000Y-116500000D02*
X157061000Y-115568000D01*
X150836000Y-113426000D02*
X150836000Y-113365000D01*
X150449000Y-112977000D02*
X148703000Y-112977000D01*
X157061000Y-115568000D02*
X152978000Y-115568000D01*
X150836000Y-113365000D02*
X150449000Y-112977000D01*
X135801000Y-125879000D02*
X135801000Y-135721000D01*
%TO.N,/PWM2*%
X152791000Y-116019000D02*
X155997000Y-116019000D01*
X150266000Y-113495000D02*
X150328000Y-113556000D01*
X136663000Y-125728000D02*
X148896000Y-113495000D01*
X136663000Y-138261000D02*
X136663000Y-125728000D01*
X155997000Y-116019000D02*
X157978000Y-118000000D01*
X148896000Y-113495000D02*
X150266000Y-113495000D01*
X150328000Y-113556000D02*
X152791000Y-116019000D01*
%TO.N,/GO1*%
X133701000Y-142150000D02*
X132003000Y-142150000D01*
X137974000Y-136365000D02*
X137974000Y-137878000D01*
X137974000Y-137878000D02*
X133701000Y-142150000D01*
%TO.N,/PWM3*%
X150453000Y-125106000D02*
X150453000Y-135721000D01*
X155100000Y-120460000D02*
X150453000Y-125106000D01*
%TO.N,/PWM4*%
X148745000Y-137205000D02*
X148745000Y-114354000D01*
X152680000Y-116548000D02*
X153752000Y-116548000D01*
X153752000Y-116548000D02*
X157978000Y-120774000D01*
X149111000Y-113988000D02*
X150120000Y-113988000D01*
X150120000Y-113988000D02*
X152680000Y-116548000D01*
X148745000Y-114354000D02*
X149111000Y-113988000D01*
X149800000Y-138259000D02*
X148745000Y-137205000D01*
%TO.N,/RLYG*%
X168269000Y-125010000D02*
X168269000Y-135518000D01*
X168269000Y-135518000D02*
X161052000Y-142734000D01*
%TO.N,/EN*%
X165225000Y-122922000D02*
X168225000Y-122922000D01*
X157978000Y-115226000D02*
X163282000Y-120530000D01*
X163282000Y-120979000D02*
X165225000Y-122922000D01*
X163282000Y-120530000D02*
X163282000Y-120979000D01*
X168225000Y-122922000D02*
X172117000Y-126815000D01*
%TO.N,/SCL*%
X165533000Y-120577000D02*
X165533000Y-122296000D01*
X168818000Y-117292000D02*
X165533000Y-120577000D01*
X186528000Y-117292000D02*
X168818000Y-117292000D01*
X187000000Y-116820000D02*
X186528000Y-117292000D01*
%TO.N,/BOOT*%
X187000000Y-124440000D02*
X181251000Y-118691000D01*
X175222000Y-118691000D02*
X173902000Y-120011000D01*
X181251000Y-118691000D02*
X175222000Y-118691000D01*
X173902000Y-120011000D02*
X173902000Y-126093000D01*
%TO.N,/USB_DN*%
X175175000Y-132625000D02*
X174244000Y-131694000D01*
X178287000Y-132625000D02*
X175175000Y-132625000D01*
%TO.N,/USB_DP*%
X176950000Y-120777000D02*
X175491000Y-119318000D01*
X176950000Y-130197000D02*
X176950000Y-120777000D01*
%TO.N,/CC1*%
X179752000Y-138019000D02*
X179752000Y-137043000D01*
X181498000Y-135297000D02*
X181498000Y-134417000D01*
X179752000Y-137043000D02*
X181498000Y-135297000D01*
X181498000Y-134417000D02*
X182190000Y-133725000D01*
%TO.N,/CC2*%
X181046000Y-131935000D02*
X182207000Y-130775000D01*
X178817000Y-136744000D02*
X181046000Y-134514000D01*
X172919000Y-136744000D02*
X178817000Y-136744000D01*
X181046000Y-134514000D02*
X181046000Y-131935000D01*
%TD*%
%TA.AperFunction,Conductor*%
%TO.N,/GND*%
G36*
X186258084Y-117723496D02*
G01*
X186279334Y-117724711D01*
X186300804Y-117736040D01*
X186304703Y-117737185D01*
X186310549Y-117741182D01*
X186381015Y-117792378D01*
X186397006Y-117803996D01*
X186486903Y-117849801D01*
X186558360Y-117886211D01*
X186558363Y-117886212D01*
X186644476Y-117914191D01*
X186730591Y-117942171D01*
X186803639Y-117953740D01*
X186890678Y-117967527D01*
X186953813Y-117997456D01*
X186990744Y-118056768D01*
X186989746Y-118126631D01*
X186951136Y-118184863D01*
X186890678Y-118212473D01*
X186730589Y-118237829D01*
X186558363Y-118293787D01*
X186558360Y-118293788D01*
X186397002Y-118376006D01*
X186250505Y-118482441D01*
X186250500Y-118482445D01*
X186122445Y-118610500D01*
X186122441Y-118610505D01*
X186016006Y-118757002D01*
X185933788Y-118918360D01*
X185933787Y-118918363D01*
X185877829Y-119090589D01*
X185849500Y-119269448D01*
X185849500Y-119450551D01*
X185877829Y-119629410D01*
X185933787Y-119801636D01*
X185933788Y-119801639D01*
X186016006Y-119962997D01*
X186122441Y-120109494D01*
X186122445Y-120109499D01*
X186250500Y-120237554D01*
X186250505Y-120237558D01*
X186358115Y-120315740D01*
X186397006Y-120343996D01*
X186502484Y-120397740D01*
X186558360Y-120426211D01*
X186558363Y-120426212D01*
X186644476Y-120454191D01*
X186730591Y-120482171D01*
X186803639Y-120493740D01*
X186890678Y-120507527D01*
X186953813Y-120537456D01*
X186990744Y-120596768D01*
X186989746Y-120666631D01*
X186951136Y-120724863D01*
X186890678Y-120752473D01*
X186730589Y-120777829D01*
X186558363Y-120833787D01*
X186558360Y-120833788D01*
X186397002Y-120916006D01*
X186250505Y-121022441D01*
X186250500Y-121022445D01*
X186122445Y-121150500D01*
X186122441Y-121150505D01*
X186016006Y-121297002D01*
X185933788Y-121458360D01*
X185933787Y-121458363D01*
X185877829Y-121630589D01*
X185849500Y-121809448D01*
X185849500Y-121990551D01*
X185877829Y-122169410D01*
X185933787Y-122341636D01*
X185933788Y-122341639D01*
X186016005Y-122502996D01*
X186023167Y-122512854D01*
X186046646Y-122578661D01*
X186030820Y-122646714D01*
X185980713Y-122695408D01*
X185912235Y-122709283D01*
X185847126Y-122683933D01*
X185835167Y-122673419D01*
X181512265Y-118350517D01*
X181512263Y-118350515D01*
X181415237Y-118294497D01*
X181307018Y-118265500D01*
X175278018Y-118265500D01*
X175165982Y-118265500D01*
X175057763Y-118294497D01*
X175057760Y-118294498D01*
X174960740Y-118350513D01*
X174960734Y-118350517D01*
X173561517Y-119749734D01*
X173561513Y-119749740D01*
X173505498Y-119846760D01*
X173505497Y-119846763D01*
X173476500Y-119954982D01*
X173476500Y-125617902D01*
X173456815Y-125684941D01*
X173440181Y-125705583D01*
X173421481Y-125724282D01*
X173421475Y-125724290D01*
X173342426Y-125861209D01*
X173342423Y-125861216D01*
X173301500Y-126013943D01*
X173301500Y-126172056D01*
X173342423Y-126324783D01*
X173342426Y-126324790D01*
X173421475Y-126461709D01*
X173421479Y-126461714D01*
X173421480Y-126461716D01*
X173533284Y-126573520D01*
X173533286Y-126573521D01*
X173533290Y-126573524D01*
X173567123Y-126593057D01*
X173670216Y-126652577D01*
X173822943Y-126693500D01*
X173822945Y-126693500D01*
X173981055Y-126693500D01*
X173981057Y-126693500D01*
X174133784Y-126652577D01*
X174270716Y-126573520D01*
X174382520Y-126461716D01*
X174461577Y-126324784D01*
X174502500Y-126172057D01*
X174502500Y-126013943D01*
X174461577Y-125861216D01*
X174439503Y-125822982D01*
X174382524Y-125724290D01*
X174382518Y-125724282D01*
X174363819Y-125705583D01*
X174330334Y-125644260D01*
X174327500Y-125617902D01*
X174327500Y-120238609D01*
X174347185Y-120171570D01*
X174363815Y-120150932D01*
X174831576Y-119683170D01*
X174892897Y-119649687D01*
X174962588Y-119654671D01*
X175006936Y-119683172D01*
X175010480Y-119686716D01*
X175122284Y-119798520D01*
X175122286Y-119798521D01*
X175122290Y-119798524D01*
X175205844Y-119846763D01*
X175259216Y-119877577D01*
X175411943Y-119918500D01*
X175438390Y-119918500D01*
X175505429Y-119938185D01*
X175526071Y-119954819D01*
X176488181Y-120916929D01*
X176521666Y-120978252D01*
X176524500Y-121004610D01*
X176524500Y-129721902D01*
X176504815Y-129788941D01*
X176488181Y-129809583D01*
X176469481Y-129828282D01*
X176469475Y-129828290D01*
X176390426Y-129965209D01*
X176390423Y-129965216D01*
X176349500Y-130117943D01*
X176349500Y-130276059D01*
X176349797Y-130278316D01*
X176349500Y-130280220D01*
X176349500Y-130284184D01*
X176348882Y-130284184D01*
X176339031Y-130347351D01*
X176292650Y-130399607D01*
X176226858Y-130418500D01*
X175724160Y-130418500D01*
X175657121Y-130398815D01*
X175636466Y-130382168D01*
X173697814Y-128442947D01*
X172605533Y-127350346D01*
X172572058Y-127289019D01*
X172577053Y-127219328D01*
X172594854Y-127187191D01*
X172597522Y-127183714D01*
X172661109Y-127073576D01*
X172676577Y-127046784D01*
X172717500Y-126894057D01*
X172717500Y-126735943D01*
X172676577Y-126583216D01*
X172670978Y-126573518D01*
X172597524Y-126446290D01*
X172597518Y-126446282D01*
X172485717Y-126334481D01*
X172485709Y-126334475D01*
X172348790Y-126255426D01*
X172348786Y-126255424D01*
X172348784Y-126255423D01*
X172196057Y-126214500D01*
X172196056Y-126214500D01*
X172169697Y-126214500D01*
X172102658Y-126194815D01*
X172082004Y-126178170D01*
X172049132Y-126145290D01*
X169957782Y-124053402D01*
X168571160Y-122666423D01*
X168571160Y-122666422D01*
X168565497Y-122660758D01*
X168565485Y-122660737D01*
X168525240Y-122620492D01*
X168520573Y-122615824D01*
X168486310Y-122581551D01*
X168486260Y-122581513D01*
X168464709Y-122569071D01*
X168437379Y-122553292D01*
X168437367Y-122553279D01*
X168437365Y-122553284D01*
X168389286Y-122525516D01*
X168389241Y-122525497D01*
X168353743Y-122515986D01*
X168336636Y-122511402D01*
X168336625Y-122511395D01*
X168336624Y-122511398D01*
X168305272Y-122502994D01*
X168281074Y-122496507D01*
X168281026Y-122496500D01*
X168281018Y-122496500D01*
X168225055Y-122496500D01*
X168169036Y-122496493D01*
X168169010Y-122496500D01*
X166257500Y-122496500D01*
X166190461Y-122476815D01*
X166144706Y-122424011D01*
X166133500Y-122372500D01*
X166133500Y-122216945D01*
X166133500Y-122216943D01*
X166092577Y-122064216D01*
X166050044Y-121990546D01*
X166013524Y-121927290D01*
X166013518Y-121927282D01*
X165994819Y-121908583D01*
X165961334Y-121847260D01*
X165958500Y-121820902D01*
X165958500Y-120804610D01*
X165978185Y-120737571D01*
X165994819Y-120716929D01*
X168957929Y-117753819D01*
X169019252Y-117720334D01*
X169045610Y-117717500D01*
X186237664Y-117717500D01*
X186258084Y-117723496D01*
G37*
%TD.AperFunction*%
%TA.AperFunction,Conductor*%
G36*
X185569334Y-111582414D02*
G01*
X185625267Y-111624286D01*
X185649684Y-111689750D01*
X185650000Y-111698596D01*
X185650000Y-111846246D01*
X185683242Y-112056127D01*
X185683242Y-112056130D01*
X185748904Y-112258217D01*
X185845375Y-112447550D01*
X185884728Y-112501716D01*
X186517037Y-111869408D01*
X186534075Y-111932993D01*
X186599901Y-112047007D01*
X186692993Y-112140099D01*
X186807007Y-112205925D01*
X186870590Y-112222962D01*
X186238282Y-112855269D01*
X186238282Y-112855270D01*
X186292449Y-112894624D01*
X186481780Y-112991094D01*
X186510705Y-113000492D01*
X186568381Y-113039929D01*
X186595580Y-113104287D01*
X186583667Y-113173134D01*
X186536424Y-113224610D01*
X186528685Y-113228908D01*
X186397004Y-113296004D01*
X186250505Y-113402441D01*
X186250500Y-113402445D01*
X186122445Y-113530500D01*
X186122441Y-113530505D01*
X186016006Y-113677002D01*
X185933788Y-113838360D01*
X185933787Y-113838363D01*
X185877829Y-114010589D01*
X185849500Y-114189448D01*
X185849500Y-114370551D01*
X185877829Y-114549410D01*
X185933787Y-114721636D01*
X185933788Y-114721639D01*
X185989664Y-114831300D01*
X186015719Y-114882435D01*
X186016006Y-114882997D01*
X186122441Y-115029494D01*
X186122445Y-115029499D01*
X186250500Y-115157554D01*
X186250505Y-115157558D01*
X186342991Y-115224752D01*
X186397006Y-115263996D01*
X186480283Y-115306428D01*
X186558360Y-115346211D01*
X186558363Y-115346212D01*
X186644476Y-115374191D01*
X186730591Y-115402171D01*
X186803639Y-115413740D01*
X186890678Y-115427527D01*
X186953813Y-115457456D01*
X186990744Y-115516768D01*
X186989746Y-115586631D01*
X186951136Y-115644863D01*
X186890678Y-115672473D01*
X186730589Y-115697829D01*
X186558363Y-115753787D01*
X186558360Y-115753788D01*
X186397002Y-115836006D01*
X186250505Y-115942441D01*
X186250500Y-115942445D01*
X186122445Y-116070500D01*
X186122441Y-116070505D01*
X186016006Y-116217002D01*
X185933788Y-116378360D01*
X185933787Y-116378363D01*
X185877829Y-116550589D01*
X185849500Y-116729448D01*
X185849500Y-116742500D01*
X185829815Y-116809539D01*
X185777011Y-116855294D01*
X185725500Y-116866500D01*
X185185439Y-116866500D01*
X185118400Y-116846815D01*
X185072645Y-116794011D01*
X185062701Y-116724853D01*
X185065664Y-116710407D01*
X185067578Y-116703261D01*
X185095500Y-116599057D01*
X185095500Y-112005096D01*
X185115185Y-111938057D01*
X185131814Y-111917420D01*
X185438320Y-111610914D01*
X185499642Y-111577430D01*
X185569334Y-111582414D01*
G37*
%TD.AperFunction*%
%TA.AperFunction,Conductor*%
G36*
X189642539Y-100320185D02*
G01*
X189688294Y-100372989D01*
X189699500Y-100424500D01*
X189699500Y-169575500D01*
X189679815Y-169642539D01*
X189627011Y-169688294D01*
X189575500Y-169699500D01*
X184171652Y-169699500D01*
X184104613Y-169679815D01*
X184058858Y-169627011D01*
X184048914Y-169557853D01*
X184077939Y-169494297D01*
X184133334Y-169457569D01*
X184262387Y-169415637D01*
X184262387Y-169415636D01*
X184262393Y-169415635D01*
X184719801Y-169226171D01*
X185160933Y-169001402D01*
X185583071Y-168742716D01*
X185983611Y-168451707D01*
X186360084Y-168130169D01*
X186710169Y-167780084D01*
X187031707Y-167403611D01*
X187322716Y-167003071D01*
X187581402Y-166580933D01*
X187806171Y-166139801D01*
X187995635Y-165682393D01*
X188148628Y-165211530D01*
X188264205Y-164730115D01*
X188341655Y-164241116D01*
X188380500Y-163747547D01*
X188380500Y-163252453D01*
X188341655Y-162758884D01*
X188264205Y-162269885D01*
X188148628Y-161788470D01*
X187995635Y-161317607D01*
X187806171Y-160860199D01*
X187581402Y-160419067D01*
X187322716Y-159996929D01*
X187031707Y-159596389D01*
X186710169Y-159219916D01*
X186360084Y-158869831D01*
X185983611Y-158548293D01*
X185583071Y-158257284D01*
X185525139Y-158221783D01*
X185160949Y-157998607D01*
X185160938Y-157998601D01*
X185160937Y-157998600D01*
X185160933Y-157998598D01*
X184719801Y-157773829D01*
X184509933Y-157686899D01*
X184262387Y-157584362D01*
X183927363Y-157475507D01*
X183791530Y-157431372D01*
X183310115Y-157315795D01*
X183310109Y-157315794D01*
X182821125Y-157238346D01*
X182821116Y-157238345D01*
X182821114Y-157238344D01*
X182821106Y-157238344D01*
X182327552Y-157199500D01*
X182327547Y-157199500D01*
X181832453Y-157199500D01*
X181832447Y-157199500D01*
X181338893Y-157238344D01*
X181338874Y-157238346D01*
X180849890Y-157315794D01*
X180849887Y-157315794D01*
X180849885Y-157315795D01*
X180677480Y-157357185D01*
X180368481Y-157431369D01*
X180368475Y-157431370D01*
X180368470Y-157431372D01*
X180368458Y-157431376D01*
X180011683Y-157547298D01*
X179941841Y-157549293D01*
X179925913Y-157543928D01*
X179847492Y-157511445D01*
X179410229Y-157373576D01*
X178962604Y-157274340D01*
X178962595Y-157274339D01*
X178508045Y-157214496D01*
X178180243Y-157200184D01*
X178164563Y-157199500D01*
X178164562Y-157199500D01*
X175835437Y-157199500D01*
X175491954Y-157214496D01*
X175037404Y-157274339D01*
X175037395Y-157274340D01*
X174589770Y-157373576D01*
X174152512Y-157511444D01*
X173728924Y-157686899D01*
X173322258Y-157898596D01*
X172935563Y-158144947D01*
X172571834Y-158424046D01*
X172571829Y-158424050D01*
X172233799Y-158733798D01*
X172233798Y-158733799D01*
X171924050Y-159071829D01*
X171924046Y-159071834D01*
X171644947Y-159435563D01*
X171398596Y-159822258D01*
X171186899Y-160228924D01*
X171011444Y-160652512D01*
X170873576Y-161089770D01*
X170774340Y-161537395D01*
X170774339Y-161537404D01*
X170714496Y-161991954D01*
X170699500Y-162335437D01*
X170699500Y-164664562D01*
X170714496Y-165008045D01*
X170774339Y-165462595D01*
X170774340Y-165462604D01*
X170873576Y-165910229D01*
X171011444Y-166347487D01*
X171186899Y-166771075D01*
X171398596Y-167177741D01*
X171398600Y-167177747D01*
X171398602Y-167177751D01*
X171406214Y-167189699D01*
X171644947Y-167564436D01*
X171924046Y-167928165D01*
X171924050Y-167928170D01*
X172233798Y-168266200D01*
X172233799Y-168266201D01*
X172571829Y-168575949D01*
X172571834Y-168575953D01*
X172935563Y-168855052D01*
X172935568Y-168855055D01*
X173322249Y-169101398D01*
X173322255Y-169101401D01*
X173322258Y-169101403D01*
X173728924Y-169313100D01*
X173728929Y-169313102D01*
X174085841Y-169460940D01*
X174140243Y-169504780D01*
X174162308Y-169571074D01*
X174145029Y-169638773D01*
X174093892Y-169686384D01*
X174038387Y-169699500D01*
X100424500Y-169699500D01*
X100357461Y-169679815D01*
X100311706Y-169627011D01*
X100300500Y-169575500D01*
X100300500Y-165881995D01*
X160699500Y-165881995D01*
X160699500Y-166118004D01*
X160699501Y-166118020D01*
X160730306Y-166352010D01*
X160791394Y-166579993D01*
X160881714Y-166798045D01*
X160881719Y-166798056D01*
X160952677Y-166920957D01*
X160999727Y-167002450D01*
X160999729Y-167002453D01*
X160999730Y-167002454D01*
X161143406Y-167189697D01*
X161143412Y-167189704D01*
X161310295Y-167356587D01*
X161310301Y-167356592D01*
X161497550Y-167500273D01*
X161608677Y-167564432D01*
X161701943Y-167618280D01*
X161701948Y-167618282D01*
X161701951Y-167618284D01*
X161920007Y-167708606D01*
X162147986Y-167769693D01*
X162381989Y-167800500D01*
X162381996Y-167800500D01*
X162618004Y-167800500D01*
X162618011Y-167800500D01*
X162852014Y-167769693D01*
X163079993Y-167708606D01*
X163298049Y-167618284D01*
X163502450Y-167500273D01*
X163689699Y-167356592D01*
X163856592Y-167189699D01*
X164000273Y-167002450D01*
X164118284Y-166798049D01*
X164208606Y-166579993D01*
X164269693Y-166352014D01*
X164300500Y-166118011D01*
X164300500Y-165881989D01*
X164269693Y-165647986D01*
X164208606Y-165420007D01*
X164118284Y-165201951D01*
X164118282Y-165201948D01*
X164118280Y-165201943D01*
X164053578Y-165089877D01*
X164000273Y-164997550D01*
X163865832Y-164822343D01*
X163856593Y-164810302D01*
X163856587Y-164810295D01*
X163689704Y-164643412D01*
X163689697Y-164643406D01*
X163502454Y-164499730D01*
X163502453Y-164499729D01*
X163502450Y-164499727D01*
X163420957Y-164452677D01*
X163298056Y-164381719D01*
X163298045Y-164381714D01*
X163079993Y-164291394D01*
X162892387Y-164241125D01*
X162852014Y-164230307D01*
X162852013Y-164230306D01*
X162852010Y-164230306D01*
X162618020Y-164199501D01*
X162618017Y-164199500D01*
X162618011Y-164199500D01*
X162381989Y-164199500D01*
X162381983Y-164199500D01*
X162381979Y-164199501D01*
X162147989Y-164230306D01*
X161920006Y-164291394D01*
X161701954Y-164381714D01*
X161701943Y-164381719D01*
X161497545Y-164499730D01*
X161310302Y-164643406D01*
X161310295Y-164643412D01*
X161143412Y-164810295D01*
X161143406Y-164810302D01*
X160999730Y-164997545D01*
X160881719Y-165201943D01*
X160881714Y-165201954D01*
X160791394Y-165420006D01*
X160730306Y-165647989D01*
X160699501Y-165881979D01*
X160699500Y-165881995D01*
X100300500Y-165881995D01*
X100300500Y-162406898D01*
X103399500Y-162406898D01*
X103399500Y-164593102D01*
X103405126Y-164639954D01*
X103410122Y-164681561D01*
X103465639Y-164822343D01*
X103557077Y-164942922D01*
X103677656Y-165034360D01*
X103677657Y-165034360D01*
X103677658Y-165034361D01*
X103818436Y-165089877D01*
X103906898Y-165100500D01*
X103906903Y-165100500D01*
X106093097Y-165100500D01*
X106093102Y-165100500D01*
X106181564Y-165089877D01*
X106322342Y-165034361D01*
X106442922Y-164942922D01*
X106534361Y-164822342D01*
X106589877Y-164681564D01*
X106600500Y-164593102D01*
X106600500Y-163374038D01*
X108479500Y-163374038D01*
X108479500Y-163625961D01*
X108518910Y-163874785D01*
X108596760Y-164114383D01*
X108711132Y-164338848D01*
X108859201Y-164542649D01*
X108859205Y-164542654D01*
X109037345Y-164720794D01*
X109037350Y-164720798D01*
X109177116Y-164822343D01*
X109241155Y-164868870D01*
X109384184Y-164941747D01*
X109465616Y-164983239D01*
X109465618Y-164983239D01*
X109465621Y-164983241D01*
X109705215Y-165061090D01*
X109954038Y-165100500D01*
X109954039Y-165100500D01*
X110205961Y-165100500D01*
X110205962Y-165100500D01*
X110454785Y-165061090D01*
X110694379Y-164983241D01*
X110918845Y-164868870D01*
X111122656Y-164720793D01*
X111300793Y-164542656D01*
X111448870Y-164338845D01*
X111563241Y-164114379D01*
X111641090Y-163874785D01*
X111680500Y-163625962D01*
X111680500Y-163374038D01*
X111641090Y-163125215D01*
X111563241Y-162885621D01*
X111563239Y-162885618D01*
X111563239Y-162885616D01*
X111498660Y-162758874D01*
X111448870Y-162661155D01*
X111433206Y-162639595D01*
X111314404Y-162476077D01*
X111314403Y-162476076D01*
X111300796Y-162457347D01*
X111250347Y-162406898D01*
X115899500Y-162406898D01*
X115899500Y-164593102D01*
X115905126Y-164639954D01*
X115910122Y-164681561D01*
X115965639Y-164822343D01*
X116057077Y-164942922D01*
X116177656Y-165034360D01*
X116177657Y-165034360D01*
X116177658Y-165034361D01*
X116318436Y-165089877D01*
X116406898Y-165100500D01*
X116406903Y-165100500D01*
X118593097Y-165100500D01*
X118593102Y-165100500D01*
X118681564Y-165089877D01*
X118822342Y-165034361D01*
X118942922Y-164942922D01*
X119034361Y-164822342D01*
X119089877Y-164681564D01*
X119100500Y-164593102D01*
X119100500Y-163374038D01*
X120979500Y-163374038D01*
X120979500Y-163625961D01*
X121018910Y-163874785D01*
X121096760Y-164114383D01*
X121211132Y-164338848D01*
X121359201Y-164542649D01*
X121359205Y-164542654D01*
X121537345Y-164720794D01*
X121537350Y-164720798D01*
X121677116Y-164822343D01*
X121741155Y-164868870D01*
X121884184Y-164941747D01*
X121965616Y-164983239D01*
X121965618Y-164983239D01*
X121965621Y-164983241D01*
X122205215Y-165061090D01*
X122454038Y-165100500D01*
X122454039Y-165100500D01*
X122705961Y-165100500D01*
X122705962Y-165100500D01*
X122954785Y-165061090D01*
X123194379Y-164983241D01*
X123418845Y-164868870D01*
X123622656Y-164720793D01*
X123800793Y-164542656D01*
X123948870Y-164338845D01*
X124063241Y-164114379D01*
X124141090Y-163874785D01*
X124180500Y-163625962D01*
X124180500Y-163374038D01*
X124141090Y-163125215D01*
X124063241Y-162885621D01*
X124063239Y-162885618D01*
X124063239Y-162885616D01*
X123998660Y-162758874D01*
X123948870Y-162661155D01*
X123933206Y-162639595D01*
X123814404Y-162476077D01*
X123814403Y-162476076D01*
X123800796Y-162457347D01*
X123750347Y-162406898D01*
X134399500Y-162406898D01*
X134399500Y-164593102D01*
X134405126Y-164639954D01*
X134410122Y-164681561D01*
X134465639Y-164822343D01*
X134557077Y-164942922D01*
X134677656Y-165034360D01*
X134677657Y-165034360D01*
X134677658Y-165034361D01*
X134818436Y-165089877D01*
X134906898Y-165100500D01*
X134906903Y-165100500D01*
X137093097Y-165100500D01*
X137093102Y-165100500D01*
X137181564Y-165089877D01*
X137322342Y-165034361D01*
X137442922Y-164942922D01*
X137534361Y-164822342D01*
X137589877Y-164681564D01*
X137600500Y-164593102D01*
X137600500Y-163374038D01*
X139479500Y-163374038D01*
X139479500Y-163625961D01*
X139518910Y-163874785D01*
X139596760Y-164114383D01*
X139711132Y-164338848D01*
X139859201Y-164542649D01*
X139859205Y-164542654D01*
X140037345Y-164720794D01*
X140037350Y-164720798D01*
X140177116Y-164822343D01*
X140241155Y-164868870D01*
X140384184Y-164941747D01*
X140465616Y-164983239D01*
X140465618Y-164983239D01*
X140465621Y-164983241D01*
X140705215Y-165061090D01*
X140954038Y-165100500D01*
X140954039Y-165100500D01*
X141205961Y-165100500D01*
X141205962Y-165100500D01*
X141454785Y-165061090D01*
X141694379Y-164983241D01*
X141918845Y-164868870D01*
X142122656Y-164720793D01*
X142300793Y-164542656D01*
X142448870Y-164338845D01*
X142563241Y-164114379D01*
X142641090Y-163874785D01*
X142680500Y-163625962D01*
X142680500Y-163374038D01*
X144559500Y-163374038D01*
X144559500Y-163625961D01*
X144598910Y-163874785D01*
X144676760Y-164114383D01*
X144791132Y-164338848D01*
X144939201Y-164542649D01*
X144939205Y-164542654D01*
X145117345Y-164720794D01*
X145117350Y-164720798D01*
X145257116Y-164822343D01*
X145321155Y-164868870D01*
X145464184Y-164941747D01*
X145545616Y-164983239D01*
X145545618Y-164983239D01*
X145545621Y-164983241D01*
X145785215Y-165061090D01*
X146034038Y-165100500D01*
X146034039Y-165100500D01*
X146285961Y-165100500D01*
X146285962Y-165100500D01*
X146534785Y-165061090D01*
X146774379Y-164983241D01*
X146998845Y-164868870D01*
X147202656Y-164720793D01*
X147380793Y-164542656D01*
X147528870Y-164338845D01*
X147643241Y-164114379D01*
X147721090Y-163874785D01*
X147760500Y-163625962D01*
X147760500Y-163374038D01*
X149639500Y-163374038D01*
X149639500Y-163625961D01*
X149678910Y-163874785D01*
X149756760Y-164114383D01*
X149871132Y-164338848D01*
X150019201Y-164542649D01*
X150019205Y-164542654D01*
X150197345Y-164720794D01*
X150197350Y-164720798D01*
X150337116Y-164822343D01*
X150401155Y-164868870D01*
X150544184Y-164941747D01*
X150625616Y-164983239D01*
X150625618Y-164983239D01*
X150625621Y-164983241D01*
X150865215Y-165061090D01*
X151114038Y-165100500D01*
X151114039Y-165100500D01*
X151365961Y-165100500D01*
X151365962Y-165100500D01*
X151614785Y-165061090D01*
X151854379Y-164983241D01*
X152078845Y-164868870D01*
X152282656Y-164720793D01*
X152460793Y-164542656D01*
X152608870Y-164338845D01*
X152723241Y-164114379D01*
X152801090Y-163874785D01*
X152840500Y-163625962D01*
X152840500Y-163374038D01*
X152801090Y-163125215D01*
X152723241Y-162885621D01*
X152723239Y-162885618D01*
X152723239Y-162885616D01*
X152658660Y-162758874D01*
X152608870Y-162661155D01*
X152589952Y-162635117D01*
X152460798Y-162457350D01*
X152460794Y-162457345D01*
X152282654Y-162279205D01*
X152282649Y-162279201D01*
X152078848Y-162131132D01*
X152078847Y-162131131D01*
X152078845Y-162131130D01*
X152008747Y-162095413D01*
X151854383Y-162016760D01*
X151614785Y-161938910D01*
X151433032Y-161910123D01*
X151365962Y-161899500D01*
X151114038Y-161899500D01*
X151046974Y-161910122D01*
X150865214Y-161938910D01*
X150625616Y-162016760D01*
X150401151Y-162131132D01*
X150197350Y-162279201D01*
X150197345Y-162279205D01*
X150019205Y-162457345D01*
X150019201Y-162457350D01*
X149871132Y-162661151D01*
X149756760Y-162885616D01*
X149678910Y-163125214D01*
X149639500Y-163374038D01*
X147760500Y-163374038D01*
X147721090Y-163125215D01*
X147643241Y-162885621D01*
X147643239Y-162885618D01*
X147643239Y-162885616D01*
X147578660Y-162758874D01*
X147528870Y-162661155D01*
X147509952Y-162635117D01*
X147380798Y-162457350D01*
X147380794Y-162457345D01*
X147202654Y-162279205D01*
X147202649Y-162279201D01*
X146998848Y-162131132D01*
X146998847Y-162131131D01*
X146998845Y-162131130D01*
X146928747Y-162095413D01*
X146774383Y-162016760D01*
X146534785Y-161938910D01*
X146353032Y-161910123D01*
X146285962Y-161899500D01*
X146034038Y-161899500D01*
X145966974Y-161910122D01*
X145785214Y-161938910D01*
X145545616Y-162016760D01*
X145321151Y-162131132D01*
X145117350Y-162279201D01*
X145117345Y-162279205D01*
X144939205Y-162457345D01*
X144939201Y-162457350D01*
X144791132Y-162661151D01*
X144676760Y-162885616D01*
X144598910Y-163125214D01*
X144559500Y-163374038D01*
X142680500Y-163374038D01*
X142641090Y-163125215D01*
X142563241Y-162885621D01*
X142563239Y-162885618D01*
X142563239Y-162885616D01*
X142498660Y-162758874D01*
X142448870Y-162661155D01*
X142429952Y-162635117D01*
X142300798Y-162457350D01*
X142300794Y-162457345D01*
X142122654Y-162279205D01*
X142122649Y-162279201D01*
X141918848Y-162131132D01*
X141918847Y-162131131D01*
X141918845Y-162131130D01*
X141848747Y-162095413D01*
X141694383Y-162016760D01*
X141454785Y-161938910D01*
X141273032Y-161910123D01*
X141205962Y-161899500D01*
X140954038Y-161899500D01*
X140886974Y-161910122D01*
X140705214Y-161938910D01*
X140465616Y-162016760D01*
X140241151Y-162131132D01*
X140037350Y-162279201D01*
X140037345Y-162279205D01*
X139859205Y-162457345D01*
X139859201Y-162457350D01*
X139711132Y-162661151D01*
X139596760Y-162885616D01*
X139518910Y-163125214D01*
X139479500Y-163374038D01*
X137600500Y-163374038D01*
X137600500Y-162406898D01*
X137589877Y-162318436D01*
X137534361Y-162177658D01*
X137534360Y-162177657D01*
X137534360Y-162177656D01*
X137442922Y-162057077D01*
X137322343Y-161965639D01*
X137181561Y-161910122D01*
X137135926Y-161904642D01*
X137093102Y-161899500D01*
X134906898Y-161899500D01*
X134867853Y-161904188D01*
X134818438Y-161910122D01*
X134677656Y-161965639D01*
X134557077Y-162057077D01*
X134465639Y-162177656D01*
X134410122Y-162318438D01*
X134408081Y-162335437D01*
X134399500Y-162406898D01*
X123750347Y-162406898D01*
X123622654Y-162279205D01*
X123622649Y-162279201D01*
X123418848Y-162131132D01*
X123418847Y-162131131D01*
X123418845Y-162131130D01*
X123348747Y-162095413D01*
X123194383Y-162016760D01*
X122954785Y-161938910D01*
X122773032Y-161910123D01*
X122705962Y-161899500D01*
X122454038Y-161899500D01*
X122386974Y-161910122D01*
X122205214Y-161938910D01*
X121965616Y-162016760D01*
X121741151Y-162131132D01*
X121537350Y-162279201D01*
X121537345Y-162279205D01*
X121359205Y-162457345D01*
X121359201Y-162457350D01*
X121211132Y-162661151D01*
X121096760Y-162885616D01*
X121018910Y-163125214D01*
X120979500Y-163374038D01*
X119100500Y-163374038D01*
X119100500Y-162406898D01*
X119089877Y-162318436D01*
X119034361Y-162177658D01*
X119034360Y-162177657D01*
X119034360Y-162177656D01*
X118942922Y-162057077D01*
X118822343Y-161965639D01*
X118681561Y-161910122D01*
X118635926Y-161904642D01*
X118593102Y-161899500D01*
X116406898Y-161899500D01*
X116367853Y-161904188D01*
X116318438Y-161910122D01*
X116177656Y-161965639D01*
X116057077Y-162057077D01*
X115965639Y-162177656D01*
X115910122Y-162318438D01*
X115908081Y-162335437D01*
X115899500Y-162406898D01*
X111250347Y-162406898D01*
X111122654Y-162279205D01*
X111122649Y-162279201D01*
X110918848Y-162131132D01*
X110918847Y-162131131D01*
X110918845Y-162131130D01*
X110848747Y-162095413D01*
X110694383Y-162016760D01*
X110454785Y-161938910D01*
X110273032Y-161910123D01*
X110205962Y-161899500D01*
X109954038Y-161899500D01*
X109886974Y-161910122D01*
X109705214Y-161938910D01*
X109465616Y-162016760D01*
X109241151Y-162131132D01*
X109037350Y-162279201D01*
X109037345Y-162279205D01*
X108859205Y-162457345D01*
X108859201Y-162457350D01*
X108711132Y-162661151D01*
X108596760Y-162885616D01*
X108518910Y-163125214D01*
X108479500Y-163374038D01*
X106600500Y-163374038D01*
X106600500Y-162406898D01*
X106589877Y-162318436D01*
X106534361Y-162177658D01*
X106534360Y-162177657D01*
X106534360Y-162177656D01*
X106442922Y-162057077D01*
X106322343Y-161965639D01*
X106181561Y-161910122D01*
X106135926Y-161904642D01*
X106093102Y-161899500D01*
X103906898Y-161899500D01*
X103867853Y-161904188D01*
X103818438Y-161910122D01*
X103677656Y-161965639D01*
X103557077Y-162057077D01*
X103465639Y-162177656D01*
X103410122Y-162318438D01*
X103408081Y-162335437D01*
X103399500Y-162406898D01*
X100300500Y-162406898D01*
X100300500Y-155612943D01*
X122786500Y-155612943D01*
X122786500Y-155771056D01*
X122827423Y-155923783D01*
X122827426Y-155923790D01*
X122906475Y-156060709D01*
X122906479Y-156060714D01*
X122906480Y-156060716D01*
X123018284Y-156172520D01*
X123018286Y-156172521D01*
X123018290Y-156172524D01*
X123155209Y-156251573D01*
X123155216Y-156251577D01*
X123307943Y-156292500D01*
X123307945Y-156292500D01*
X123466055Y-156292500D01*
X123466057Y-156292500D01*
X123618784Y-156251577D01*
X123755716Y-156172520D01*
X123867520Y-156060716D01*
X123946577Y-155923784D01*
X123987500Y-155771057D01*
X123987500Y-155612943D01*
X123946577Y-155460216D01*
X123946573Y-155460209D01*
X123867524Y-155323290D01*
X123867518Y-155323282D01*
X123848819Y-155304583D01*
X123815334Y-155243260D01*
X123812500Y-155216902D01*
X123812500Y-145401609D01*
X123832185Y-145334570D01*
X123848819Y-145313928D01*
X124064928Y-145097819D01*
X124126251Y-145064334D01*
X124152609Y-145061500D01*
X124179055Y-145061500D01*
X124179057Y-145061500D01*
X124331784Y-145020577D01*
X124468716Y-144941520D01*
X124580520Y-144829716D01*
X124659577Y-144692784D01*
X124700500Y-144540057D01*
X124700500Y-144381943D01*
X124659577Y-144229216D01*
X124624368Y-144168231D01*
X124580524Y-144092290D01*
X124580518Y-144092282D01*
X124468717Y-143980481D01*
X124468709Y-143980475D01*
X124331790Y-143901426D01*
X124331786Y-143901424D01*
X124331784Y-143901423D01*
X124179057Y-143860500D01*
X124020943Y-143860500D01*
X123868216Y-143901423D01*
X123868209Y-143901426D01*
X123731290Y-143980475D01*
X123731282Y-143980481D01*
X123619481Y-144092282D01*
X123619475Y-144092290D01*
X123540426Y-144229209D01*
X123540423Y-144229216D01*
X123499500Y-144381943D01*
X123499500Y-144408389D01*
X123479815Y-144475428D01*
X123463181Y-144496070D01*
X123108295Y-144850955D01*
X123108296Y-144850956D01*
X123046514Y-144912738D01*
X123046513Y-144912740D01*
X122990498Y-145009760D01*
X122990497Y-145009763D01*
X122961500Y-145117982D01*
X122961500Y-155216902D01*
X122941815Y-155283941D01*
X122925181Y-155304583D01*
X122906481Y-155323282D01*
X122906475Y-155323290D01*
X122827426Y-155460209D01*
X122827423Y-155460216D01*
X122786500Y-155612943D01*
X100300500Y-155612943D01*
X100300500Y-149865602D01*
X115449500Y-149865602D01*
X115449500Y-150134397D01*
X115484582Y-150400880D01*
X115484583Y-150400885D01*
X115484584Y-150400891D01*
X115519368Y-150530708D01*
X115554152Y-150660524D01*
X115657011Y-150908850D01*
X115657019Y-150908866D01*
X115737047Y-151047477D01*
X115791413Y-151141641D01*
X115791415Y-151141644D01*
X115791416Y-151141645D01*
X115955042Y-151354888D01*
X115955048Y-151354895D01*
X116145104Y-151544951D01*
X116145110Y-151544956D01*
X116358359Y-151708587D01*
X116507968Y-151794964D01*
X116591133Y-151842980D01*
X116591149Y-151842988D01*
X116746008Y-151907132D01*
X116839474Y-151945847D01*
X117099109Y-152015416D01*
X117285216Y-152039917D01*
X117365602Y-152050500D01*
X117365603Y-152050500D01*
X117634398Y-152050500D01*
X117694905Y-152042534D01*
X117900891Y-152015416D01*
X118160526Y-151945847D01*
X118350061Y-151867339D01*
X118408850Y-151842988D01*
X118408853Y-151842986D01*
X118408859Y-151842984D01*
X118641641Y-151708587D01*
X118854890Y-151544956D01*
X119044956Y-151354890D01*
X119208587Y-151141641D01*
X119342984Y-150908859D01*
X119445847Y-150660526D01*
X119515416Y-150400891D01*
X119550500Y-150134397D01*
X119550500Y-149865603D01*
X119515416Y-149599109D01*
X119445847Y-149339474D01*
X119404985Y-149240825D01*
X119342988Y-149091149D01*
X119342980Y-149091133D01*
X119291820Y-149002522D01*
X119208587Y-148858359D01*
X119044956Y-148645110D01*
X119044951Y-148645104D01*
X118854895Y-148455048D01*
X118854888Y-148455042D01*
X118641645Y-148291416D01*
X118641644Y-148291415D01*
X118641641Y-148291413D01*
X118548832Y-148237830D01*
X118408866Y-148157019D01*
X118408850Y-148157011D01*
X118160524Y-148054152D01*
X118030708Y-148019368D01*
X117900891Y-147984584D01*
X117900885Y-147984583D01*
X117900880Y-147984582D01*
X117634398Y-147949500D01*
X117634397Y-147949500D01*
X117365603Y-147949500D01*
X117365602Y-147949500D01*
X117099119Y-147984582D01*
X117099112Y-147984583D01*
X117099109Y-147984584D01*
X117044239Y-147999286D01*
X116839475Y-148054152D01*
X116591149Y-148157011D01*
X116591133Y-148157019D01*
X116358354Y-148291416D01*
X116145111Y-148455042D01*
X116145104Y-148455048D01*
X115955048Y-148645104D01*
X115955042Y-148645111D01*
X115791416Y-148858354D01*
X115657019Y-149091133D01*
X115657011Y-149091149D01*
X115554152Y-149339475D01*
X115484585Y-149599106D01*
X115484582Y-149599119D01*
X115449500Y-149865602D01*
X100300500Y-149865602D01*
X100300500Y-145289778D01*
X117299500Y-145289778D01*
X117299500Y-145510222D01*
X117305217Y-145546316D01*
X117333985Y-145727952D01*
X117402103Y-145937603D01*
X117402104Y-145937606D01*
X117502187Y-146134025D01*
X117631752Y-146312358D01*
X117631756Y-146312363D01*
X117787636Y-146468243D01*
X117787641Y-146468247D01*
X117826691Y-146496618D01*
X117965978Y-146597815D01*
X118094375Y-146663237D01*
X118162393Y-146697895D01*
X118162396Y-146697896D01*
X118267221Y-146731955D01*
X118372049Y-146766015D01*
X118589778Y-146800500D01*
X118589779Y-146800500D01*
X118810221Y-146800500D01*
X118810222Y-146800500D01*
X119027951Y-146766015D01*
X119237606Y-146697895D01*
X119434022Y-146597815D01*
X119612365Y-146468242D01*
X119768242Y-146312365D01*
X119897815Y-146134022D01*
X119997895Y-145937606D01*
X120066015Y-145727951D01*
X120100500Y-145510222D01*
X120100500Y-145289778D01*
X120066015Y-145072049D01*
X119997895Y-144862394D01*
X119997895Y-144862393D01*
X119963237Y-144794375D01*
X119897815Y-144665978D01*
X119881260Y-144643192D01*
X119768247Y-144487641D01*
X119768243Y-144487636D01*
X119612363Y-144331756D01*
X119612358Y-144331752D01*
X119434025Y-144202187D01*
X119434024Y-144202186D01*
X119434022Y-144202185D01*
X119367376Y-144168227D01*
X119237606Y-144102104D01*
X119237603Y-144102103D01*
X119027952Y-144033985D01*
X118919086Y-144016742D01*
X118810222Y-143999500D01*
X118589778Y-143999500D01*
X118517201Y-144010995D01*
X118372047Y-144033985D01*
X118162396Y-144102103D01*
X118162393Y-144102104D01*
X117965974Y-144202187D01*
X117787641Y-144331752D01*
X117787636Y-144331756D01*
X117631756Y-144487636D01*
X117631752Y-144487641D01*
X117502187Y-144665974D01*
X117402104Y-144862393D01*
X117402103Y-144862396D01*
X117333985Y-145072047D01*
X117333985Y-145072049D01*
X117299500Y-145289778D01*
X100300500Y-145289778D01*
X100300500Y-140665602D01*
X115449500Y-140665602D01*
X115449500Y-140934397D01*
X115484582Y-141200880D01*
X115484583Y-141200885D01*
X115484584Y-141200891D01*
X115484585Y-141200893D01*
X115554152Y-141460524D01*
X115657011Y-141708850D01*
X115657019Y-141708866D01*
X115698834Y-141781290D01*
X115791413Y-141941641D01*
X115791415Y-141941644D01*
X115791416Y-141941645D01*
X115955042Y-142154888D01*
X115955048Y-142154895D01*
X116145104Y-142344951D01*
X116145111Y-142344957D01*
X116193104Y-142381783D01*
X116358359Y-142508587D01*
X116472494Y-142574483D01*
X116591133Y-142642980D01*
X116591149Y-142642988D01*
X116746008Y-142707132D01*
X116839474Y-142745847D01*
X117099109Y-142815416D01*
X117287319Y-142840193D01*
X117365602Y-142850500D01*
X117365603Y-142850500D01*
X117634398Y-142850500D01*
X117694905Y-142842534D01*
X117900891Y-142815416D01*
X118160526Y-142745847D01*
X118347457Y-142668417D01*
X118408850Y-142642988D01*
X118408853Y-142642986D01*
X118408859Y-142642984D01*
X118641641Y-142508587D01*
X118854890Y-142344956D01*
X119044956Y-142154890D01*
X119109371Y-142070943D01*
X131402500Y-142070943D01*
X131402500Y-142229057D01*
X131439004Y-142365290D01*
X131443423Y-142381783D01*
X131443426Y-142381790D01*
X131522475Y-142518709D01*
X131522479Y-142518714D01*
X131522480Y-142518716D01*
X131634284Y-142630520D01*
X131634286Y-142630521D01*
X131634290Y-142630524D01*
X131655872Y-142642984D01*
X131771216Y-142709577D01*
X131923943Y-142750500D01*
X131923945Y-142750500D01*
X132082055Y-142750500D01*
X132082057Y-142750500D01*
X132234784Y-142709577D01*
X132371716Y-142630520D01*
X132390417Y-142611819D01*
X132451740Y-142578334D01*
X132478098Y-142575500D01*
X133696641Y-142575500D01*
X133756969Y-142575507D01*
X133756995Y-142575500D01*
X133757018Y-142575500D01*
X133809883Y-142561334D01*
X133865190Y-142546522D01*
X133865202Y-142546514D01*
X133865218Y-142546507D01*
X133865237Y-142546503D01*
X133865256Y-142546491D01*
X133865277Y-142546483D01*
X133865601Y-142546292D01*
X133917672Y-142516229D01*
X133961040Y-142491197D01*
X133962125Y-142490590D01*
X133962211Y-142490521D01*
X133962223Y-142490515D01*
X133962231Y-142490505D01*
X133962246Y-142490493D01*
X133962263Y-142490485D01*
X133962281Y-142490466D01*
X133962415Y-142490361D01*
X133963354Y-142489393D01*
X134004923Y-142447823D01*
X134004935Y-142447816D01*
X134004933Y-142447814D01*
X134107820Y-142344951D01*
X138235240Y-138218498D01*
X138235263Y-138218485D01*
X138276014Y-138177733D01*
X138313527Y-138140229D01*
X138314437Y-138139344D01*
X138314482Y-138139265D01*
X138314485Y-138139263D01*
X138345748Y-138085114D01*
X138370483Y-138042284D01*
X138370484Y-138042278D01*
X138370495Y-138042260D01*
X138370499Y-138042242D01*
X138370503Y-138042237D01*
X138386540Y-137982387D01*
X138386541Y-137982385D01*
X138386542Y-137982385D01*
X138386542Y-137982377D01*
X138399493Y-137934069D01*
X138399493Y-137934059D01*
X138399497Y-137934028D01*
X138399500Y-137934018D01*
X138399500Y-137873741D01*
X138399506Y-137822032D01*
X138399500Y-137822009D01*
X138399500Y-136840098D01*
X138419185Y-136773059D01*
X138435819Y-136752417D01*
X138454520Y-136733716D01*
X138533577Y-136596784D01*
X138574500Y-136444057D01*
X138574500Y-136285943D01*
X138533577Y-136133216D01*
X138508463Y-136089717D01*
X138454524Y-135996290D01*
X138454518Y-135996282D01*
X138342717Y-135884481D01*
X138342709Y-135884475D01*
X138205790Y-135805426D01*
X138205786Y-135805424D01*
X138205784Y-135805423D01*
X138053057Y-135764500D01*
X137894943Y-135764500D01*
X137742216Y-135805423D01*
X137742209Y-135805426D01*
X137605290Y-135884475D01*
X137605282Y-135884481D01*
X137493481Y-135996282D01*
X137493475Y-135996290D01*
X137414426Y-136133209D01*
X137414423Y-136133216D01*
X137373500Y-136285943D01*
X137373500Y-136444057D01*
X137407247Y-136570000D01*
X137414423Y-136596783D01*
X137414426Y-136596790D01*
X137493475Y-136733709D01*
X137493481Y-136733717D01*
X137512181Y-136752417D01*
X137545666Y-136813740D01*
X137548500Y-136840098D01*
X137548500Y-137650350D01*
X137539853Y-137679796D01*
X137533325Y-137709790D01*
X137529576Y-137714796D01*
X137528815Y-137717389D01*
X137512171Y-137738042D01*
X137336242Y-137913929D01*
X137274915Y-137947406D01*
X137205224Y-137942414D01*
X137149295Y-137900536D01*
X137145888Y-137895370D01*
X137143518Y-137892282D01*
X137124819Y-137873583D01*
X137091334Y-137812260D01*
X137088500Y-137785902D01*
X137088500Y-125955610D01*
X137108185Y-125888571D01*
X137124819Y-125867929D01*
X148107819Y-114884929D01*
X148169142Y-114851444D01*
X148238834Y-114856428D01*
X148294767Y-114898300D01*
X148319184Y-114963764D01*
X148319500Y-114972610D01*
X148319500Y-137149082D01*
X148319473Y-137149183D01*
X148319500Y-137204565D01*
X148319500Y-137261042D01*
X148319520Y-137261194D01*
X148333918Y-137314827D01*
X148333932Y-137314882D01*
X148348496Y-137369236D01*
X148348574Y-137369424D01*
X148376613Y-137417937D01*
X148376614Y-137417937D01*
X148376640Y-137417982D01*
X148404515Y-137466263D01*
X148404586Y-137466334D01*
X148404639Y-137466425D01*
X148404702Y-137466488D01*
X148404704Y-137466491D01*
X148444682Y-137506431D01*
X148444696Y-137506444D01*
X148483737Y-137545485D01*
X148483820Y-137545533D01*
X148489665Y-137551372D01*
X148489666Y-137551373D01*
X149163139Y-138224205D01*
X149196654Y-138285512D01*
X149199500Y-138311928D01*
X149199500Y-138338057D01*
X149216948Y-138403172D01*
X149240423Y-138490783D01*
X149240426Y-138490790D01*
X149319475Y-138627709D01*
X149319479Y-138627714D01*
X149319480Y-138627716D01*
X149431284Y-138739520D01*
X149431286Y-138739521D01*
X149431290Y-138739524D01*
X149548827Y-138807383D01*
X149568216Y-138818577D01*
X149720943Y-138859500D01*
X149720945Y-138859500D01*
X149879055Y-138859500D01*
X149879057Y-138859500D01*
X150031784Y-138818577D01*
X150168716Y-138739520D01*
X150280520Y-138627716D01*
X150359577Y-138490784D01*
X150400500Y-138338057D01*
X150400500Y-138179943D01*
X150359577Y-138027216D01*
X150357977Y-138024444D01*
X150280524Y-137890290D01*
X150280518Y-137890282D01*
X150168717Y-137778481D01*
X150168709Y-137778475D01*
X150031790Y-137699426D01*
X150031786Y-137699424D01*
X150031784Y-137699423D01*
X149879057Y-137658500D01*
X149879056Y-137658500D01*
X149852292Y-137658500D01*
X149785253Y-137638815D01*
X149764652Y-137622223D01*
X149206860Y-137064959D01*
X149173346Y-137003651D01*
X149170500Y-136977236D01*
X149170500Y-115561261D01*
X149190185Y-115494222D01*
X149242989Y-115448467D01*
X149312147Y-115438523D01*
X149375703Y-115467548D01*
X149382186Y-115473586D01*
X150803548Y-116895497D01*
X151348266Y-117440426D01*
X151489449Y-117581663D01*
X151489480Y-117581716D01*
X151546825Y-117639061D01*
X151601192Y-117693449D01*
X151601196Y-117693451D01*
X151601216Y-117693467D01*
X151601279Y-117693515D01*
X151601284Y-117693520D01*
X151655309Y-117724711D01*
X151670681Y-117733586D01*
X151670679Y-117733588D01*
X151670694Y-117733593D01*
X151738108Y-117772532D01*
X151738116Y-117772534D01*
X151738206Y-117772571D01*
X151738216Y-117772577D01*
X151812116Y-117792378D01*
X151812115Y-117792378D01*
X151812119Y-117792379D01*
X151890827Y-117813486D01*
X151890836Y-117813486D01*
X151890941Y-117813500D01*
X151964614Y-117813500D01*
X152048942Y-117813516D01*
X152048943Y-117813515D01*
X152056877Y-117813517D01*
X152057152Y-117813500D01*
X152151990Y-117813500D01*
X152219029Y-117833185D01*
X152239652Y-117849800D01*
X153297425Y-118907141D01*
X154470693Y-120079929D01*
X154506401Y-120115637D01*
X154539886Y-120176960D01*
X154538495Y-120235411D01*
X154499500Y-120380943D01*
X154499500Y-120407315D01*
X154479815Y-120474354D01*
X154463172Y-120495006D01*
X150197488Y-124759772D01*
X150197487Y-124759771D01*
X150191748Y-124765508D01*
X150191737Y-124765515D01*
X150160673Y-124796577D01*
X150154375Y-124802875D01*
X150154368Y-124802883D01*
X150112525Y-124844717D01*
X150084919Y-124892532D01*
X150084914Y-124892541D01*
X150056514Y-124941720D01*
X150056496Y-124941761D01*
X150041839Y-124996463D01*
X150041837Y-124996473D01*
X150027503Y-125049944D01*
X150027500Y-125049968D01*
X150027500Y-125049982D01*
X150027500Y-125105954D01*
X150027494Y-125161973D01*
X150027500Y-125161995D01*
X150027500Y-135245902D01*
X150007815Y-135312941D01*
X149991181Y-135333583D01*
X149972481Y-135352282D01*
X149972475Y-135352290D01*
X149893426Y-135489209D01*
X149893423Y-135489216D01*
X149852500Y-135641943D01*
X149852500Y-135800057D01*
X149893423Y-135952782D01*
X149893423Y-135952783D01*
X149893426Y-135952790D01*
X149972475Y-136089709D01*
X149972479Y-136089714D01*
X149972480Y-136089716D01*
X150084284Y-136201520D01*
X150084286Y-136201521D01*
X150084290Y-136201524D01*
X150202499Y-136269771D01*
X150221216Y-136280577D01*
X150373943Y-136321500D01*
X150373945Y-136321500D01*
X150532055Y-136321500D01*
X150532057Y-136321500D01*
X150684784Y-136280577D01*
X150821716Y-136201520D01*
X150933520Y-136089716D01*
X151012577Y-135952784D01*
X151036442Y-135863717D01*
X151039599Y-135858536D01*
X151040033Y-135852480D01*
X151057572Y-135829049D01*
X151072804Y-135804060D01*
X151078265Y-135801407D01*
X151081904Y-135796546D01*
X151109327Y-135786317D01*
X151135651Y-135773530D01*
X151141679Y-135774250D01*
X151147368Y-135772129D01*
X151175966Y-135778349D01*
X151205026Y-135781824D01*
X151211224Y-135786019D01*
X151215641Y-135786980D01*
X151243882Y-135808121D01*
X151243892Y-135808128D01*
X151316284Y-135880520D01*
X151316286Y-135880521D01*
X151323356Y-135887591D01*
X157595863Y-142160098D01*
X157595907Y-142160179D01*
X157595926Y-142160161D01*
X158078066Y-142642988D01*
X158086244Y-142651177D01*
X158119685Y-142712524D01*
X158122500Y-142738796D01*
X158122500Y-152798057D01*
X158144858Y-152881496D01*
X158163423Y-152950783D01*
X158163426Y-152950790D01*
X158242475Y-153087709D01*
X158242479Y-153087714D01*
X158242480Y-153087716D01*
X158354284Y-153199520D01*
X158354286Y-153199521D01*
X158354290Y-153199524D01*
X158387172Y-153218508D01*
X158491216Y-153278577D01*
X158643943Y-153319500D01*
X158643945Y-153319500D01*
X158802055Y-153319500D01*
X158802057Y-153319500D01*
X158954784Y-153278577D01*
X159091716Y-153199520D01*
X159203520Y-153087716D01*
X159282577Y-152950784D01*
X159288689Y-152927973D01*
X168399500Y-152927973D01*
X168399500Y-153172026D01*
X168422857Y-153319499D01*
X168437679Y-153413076D01*
X168483272Y-153553397D01*
X168513097Y-153645187D01*
X168623896Y-153862642D01*
X168767339Y-154060076D01*
X168767343Y-154060081D01*
X168939918Y-154232656D01*
X168939923Y-154232660D01*
X169112136Y-154357779D01*
X169137361Y-154376106D01*
X169354815Y-154486904D01*
X169586924Y-154562321D01*
X169827973Y-154600500D01*
X169827974Y-154600500D01*
X170072026Y-154600500D01*
X170072027Y-154600500D01*
X170313076Y-154562321D01*
X170545185Y-154486904D01*
X170762639Y-154376106D01*
X170960083Y-154232655D01*
X171132655Y-154060083D01*
X171276106Y-153862639D01*
X171386904Y-153645185D01*
X171462321Y-153413076D01*
X171500500Y-153172027D01*
X171500500Y-152927973D01*
X171493138Y-152881491D01*
X179149500Y-152881491D01*
X179149500Y-153218508D01*
X179187231Y-153553381D01*
X179187233Y-153553397D01*
X179262223Y-153881953D01*
X179262227Y-153881965D01*
X179373532Y-154200054D01*
X179519752Y-154503683D01*
X179519754Y-154503686D01*
X179699054Y-154789039D01*
X179909175Y-155052523D01*
X180147477Y-155290825D01*
X180410961Y-155500946D01*
X180696314Y-155680246D01*
X180999949Y-155826469D01*
X181238848Y-155910063D01*
X181318034Y-155937772D01*
X181318046Y-155937776D01*
X181646606Y-156012767D01*
X181981492Y-156050499D01*
X181981493Y-156050500D01*
X181981496Y-156050500D01*
X182318507Y-156050500D01*
X182318507Y-156050499D01*
X182653394Y-156012767D01*
X182981954Y-155937776D01*
X183300051Y-155826469D01*
X183603686Y-155680246D01*
X183889039Y-155500946D01*
X184152523Y-155290825D01*
X184390825Y-155052523D01*
X184600946Y-154789039D01*
X184780246Y-154503686D01*
X184926469Y-154200051D01*
X185037776Y-153881954D01*
X185112767Y-153553394D01*
X185150500Y-153218504D01*
X185150500Y-152881496D01*
X185112767Y-152546606D01*
X185037776Y-152218046D01*
X184926469Y-151899949D01*
X184780246Y-151596314D01*
X184600946Y-151310961D01*
X184390825Y-151047477D01*
X184152523Y-150809175D01*
X183889039Y-150599054D01*
X183603686Y-150419754D01*
X183603683Y-150419752D01*
X183300054Y-150273532D01*
X182981965Y-150162227D01*
X182981953Y-150162223D01*
X182653397Y-150087233D01*
X182653381Y-150087231D01*
X182318508Y-150049500D01*
X182318504Y-150049500D01*
X181981496Y-150049500D01*
X181981491Y-150049500D01*
X181646618Y-150087231D01*
X181646602Y-150087233D01*
X181318046Y-150162223D01*
X181318034Y-150162227D01*
X180999945Y-150273532D01*
X180696316Y-150419752D01*
X180410962Y-150599053D01*
X180147477Y-150809174D01*
X179909174Y-151047477D01*
X179699053Y-151310962D01*
X179519752Y-151596316D01*
X179373532Y-151899945D01*
X179262227Y-152218034D01*
X179262223Y-152218046D01*
X179187233Y-152546602D01*
X179187231Y-152546618D01*
X179149500Y-152881491D01*
X171493138Y-152881491D01*
X171462321Y-152686924D01*
X171386904Y-152454815D01*
X171276106Y-152237361D01*
X171257779Y-152212136D01*
X171132660Y-152039923D01*
X171132656Y-152039918D01*
X170960081Y-151867343D01*
X170960076Y-151867339D01*
X170762642Y-151723896D01*
X170762641Y-151723895D01*
X170762639Y-151723894D01*
X170545185Y-151613096D01*
X170313076Y-151537679D01*
X170313074Y-151537678D01*
X170313072Y-151537678D01*
X170144769Y-151511021D01*
X170072027Y-151499500D01*
X169827973Y-151499500D01*
X169772093Y-151508350D01*
X169586927Y-151537678D01*
X169354812Y-151613097D01*
X169137357Y-151723896D01*
X168939923Y-151867339D01*
X168939918Y-151867343D01*
X168767343Y-152039918D01*
X168767339Y-152039923D01*
X168623896Y-152237357D01*
X168513097Y-152454812D01*
X168437678Y-152686927D01*
X168399500Y-152927973D01*
X159288689Y-152927973D01*
X159323500Y-152798057D01*
X159323500Y-146831491D01*
X164999500Y-146831491D01*
X164999500Y-147168508D01*
X165037231Y-147503381D01*
X165037233Y-147503397D01*
X165112223Y-147831953D01*
X165112227Y-147831965D01*
X165223532Y-148150054D01*
X165369752Y-148453683D01*
X165369754Y-148453686D01*
X165549054Y-148739039D01*
X165759175Y-149002523D01*
X165997477Y-149240825D01*
X166260961Y-149450946D01*
X166546314Y-149630246D01*
X166849949Y-149776469D01*
X167088848Y-149860063D01*
X167168034Y-149887772D01*
X167168046Y-149887776D01*
X167496606Y-149962767D01*
X167831492Y-150000499D01*
X167831493Y-150000500D01*
X167831496Y-150000500D01*
X168168507Y-150000500D01*
X168168507Y-150000499D01*
X168503394Y-149962767D01*
X168831954Y-149887776D01*
X169150051Y-149776469D01*
X169453686Y-149630246D01*
X169739039Y-149450946D01*
X170002523Y-149240825D01*
X170240825Y-149002523D01*
X170450946Y-148739039D01*
X170630246Y-148453686D01*
X170776469Y-148150051D01*
X170887776Y-147831954D01*
X170962767Y-147503394D01*
X171000500Y-147168504D01*
X171000500Y-146831496D01*
X170962767Y-146496606D01*
X170887776Y-146168046D01*
X170875870Y-146134022D01*
X170860063Y-146088848D01*
X170776469Y-145849949D01*
X170630246Y-145546314D01*
X170450946Y-145260961D01*
X170240825Y-144997477D01*
X170002523Y-144759175D01*
X169739039Y-144549054D01*
X169453686Y-144369754D01*
X169453683Y-144369752D01*
X169150054Y-144223532D01*
X168831965Y-144112227D01*
X168831953Y-144112223D01*
X168503397Y-144037233D01*
X168503381Y-144037231D01*
X168168508Y-143999500D01*
X168168504Y-143999500D01*
X167831496Y-143999500D01*
X167831491Y-143999500D01*
X167496618Y-144037231D01*
X167496602Y-144037233D01*
X167168046Y-144112223D01*
X167168034Y-144112227D01*
X166849945Y-144223532D01*
X166546316Y-144369752D01*
X166260962Y-144549053D01*
X165997477Y-144759174D01*
X165759174Y-144997477D01*
X165549053Y-145260962D01*
X165369752Y-145546316D01*
X165223532Y-145849945D01*
X165112227Y-146168034D01*
X165112223Y-146168046D01*
X165037233Y-146496602D01*
X165037231Y-146496618D01*
X164999500Y-146831491D01*
X159323500Y-146831491D01*
X159323500Y-142439427D01*
X159323556Y-142360370D01*
X159323500Y-142360160D01*
X159323500Y-142359943D01*
X159303009Y-142283471D01*
X159282741Y-142207613D01*
X159282736Y-142207605D01*
X159282579Y-142207223D01*
X159282577Y-142207216D01*
X159242752Y-142138237D01*
X159203781Y-142070626D01*
X159203630Y-142070475D01*
X159203520Y-142070284D01*
X159147020Y-142013784D01*
X159146977Y-142013706D01*
X159146960Y-142013724D01*
X158957597Y-141824091D01*
X158924157Y-141762745D01*
X158929191Y-141693057D01*
X158957679Y-141648773D01*
X159016054Y-141590423D01*
X160738657Y-139868553D01*
X160738716Y-139868520D01*
X160796382Y-139810853D01*
X160850441Y-139756818D01*
X160850443Y-139756813D01*
X160850463Y-139756794D01*
X160850505Y-139756739D01*
X160850516Y-139756719D01*
X160850520Y-139756716D01*
X160890359Y-139687713D01*
X160929528Y-139619904D01*
X160929531Y-139619889D01*
X160929569Y-139619796D01*
X160929577Y-139619784D01*
X160949160Y-139546697D01*
X160970484Y-139467185D01*
X160970484Y-139467183D01*
X160970500Y-139467062D01*
X160970500Y-139392777D01*
X160970518Y-139309077D01*
X160970517Y-139309076D01*
X160970518Y-139309070D01*
X160970516Y-139309062D01*
X160970501Y-139308951D01*
X160970500Y-139308947D01*
X160970500Y-139308943D01*
X160950899Y-139235793D01*
X160950893Y-139235768D01*
X160940551Y-139197142D01*
X160929626Y-139156334D01*
X160929623Y-139156330D01*
X160929578Y-139156218D01*
X160890108Y-139087854D01*
X160890095Y-139087831D01*
X160850598Y-139019386D01*
X160850596Y-139019384D01*
X160850592Y-139019377D01*
X160850538Y-139019307D01*
X160850521Y-139019285D01*
X160793518Y-138962282D01*
X160738818Y-138907559D01*
X160738763Y-138907527D01*
X160738716Y-138907480D01*
X160670650Y-138868182D01*
X160601904Y-138828472D01*
X160601902Y-138828471D01*
X160601900Y-138828470D01*
X160601812Y-138828433D01*
X160601788Y-138828423D01*
X160528696Y-138808838D01*
X160528696Y-138808835D01*
X160528672Y-138808832D01*
X160449186Y-138787516D01*
X160449070Y-138787500D01*
X160449057Y-138787500D01*
X160374778Y-138787500D01*
X160291071Y-138787481D01*
X160290952Y-138787497D01*
X160216735Y-138807382D01*
X160216736Y-138807383D01*
X160216569Y-138807428D01*
X160138335Y-138828374D01*
X160138279Y-138828405D01*
X160138216Y-138828423D01*
X160137840Y-138828639D01*
X160137836Y-138828641D01*
X160084387Y-138859500D01*
X160067764Y-138869097D01*
X160001387Y-138907402D01*
X160001343Y-138907445D01*
X160001284Y-138907480D01*
X160001060Y-138907703D01*
X160001058Y-138907705D01*
X159942684Y-138966079D01*
X158108771Y-140799211D01*
X158047440Y-140832683D01*
X157977750Y-140827684D01*
X157933427Y-140799192D01*
X152172590Y-135038355D01*
X152172588Y-135038352D01*
X152053717Y-134919481D01*
X152053716Y-134919480D01*
X151958487Y-134864500D01*
X151916785Y-134840423D01*
X151764057Y-134799499D01*
X151605943Y-134799499D01*
X151491397Y-134830192D01*
X151453214Y-134840423D01*
X151411513Y-134864500D01*
X151411512Y-134864500D01*
X151316287Y-134919477D01*
X151316282Y-134919481D01*
X151204479Y-135031284D01*
X151181375Y-135071302D01*
X151181367Y-135071315D01*
X151179884Y-135073886D01*
X151125423Y-135168215D01*
X151118834Y-135192803D01*
X151112751Y-135204622D01*
X151097455Y-135220683D01*
X151085909Y-135239626D01*
X151073827Y-135245494D01*
X151064567Y-135255219D01*
X151043014Y-135260461D01*
X151023062Y-135270154D01*
X151009727Y-135268559D01*
X150996678Y-135271734D01*
X150975711Y-135264492D01*
X150953686Y-135261859D01*
X150943330Y-135253308D01*
X150930636Y-135248924D01*
X150916912Y-135231495D01*
X150899809Y-135217373D01*
X150895720Y-135204581D01*
X150887411Y-135194029D01*
X150885288Y-135171948D01*
X150878535Y-135150821D01*
X150878500Y-135147871D01*
X150878500Y-125333645D01*
X150898185Y-125266606D01*
X150914824Y-125245958D01*
X155064866Y-121096808D01*
X155126193Y-121063331D01*
X155152538Y-121060500D01*
X155179055Y-121060500D01*
X155179057Y-121060500D01*
X155331784Y-121019577D01*
X155468716Y-120940520D01*
X155579319Y-120829917D01*
X155640642Y-120796432D01*
X155710334Y-120801416D01*
X155754681Y-120829917D01*
X156442284Y-121517520D01*
X156442286Y-121517521D01*
X156442290Y-121517524D01*
X156579209Y-121596573D01*
X156579216Y-121596577D01*
X156731943Y-121637501D01*
X156731949Y-121637501D01*
X156733187Y-121637664D01*
X156734161Y-121638094D01*
X156739793Y-121639604D01*
X156739557Y-121640481D01*
X156797085Y-121665928D01*
X156804687Y-121672922D01*
X159372284Y-124240520D01*
X159372286Y-124240521D01*
X159372290Y-124240524D01*
X159509209Y-124319573D01*
X159509216Y-124319577D01*
X159661943Y-124360501D01*
X159661945Y-124360501D01*
X159827654Y-124360501D01*
X159827670Y-124360500D01*
X167769902Y-124360500D01*
X167836941Y-124380185D01*
X167882696Y-124432989D01*
X167892640Y-124502147D01*
X167863615Y-124565703D01*
X167857583Y-124572181D01*
X167788481Y-124641282D01*
X167788475Y-124641290D01*
X167709426Y-124778209D01*
X167709423Y-124778216D01*
X167668500Y-124930943D01*
X167668500Y-125089057D01*
X167695414Y-125189499D01*
X167709423Y-125241783D01*
X167709426Y-125241790D01*
X167788475Y-125378709D01*
X167788481Y-125378717D01*
X167807181Y-125397417D01*
X167840666Y-125458740D01*
X167843500Y-125485098D01*
X167843500Y-135290366D01*
X167823815Y-135357405D01*
X167807175Y-135378053D01*
X161087111Y-142097187D01*
X161025786Y-142130668D01*
X160999436Y-142133500D01*
X160972943Y-142133500D01*
X160820216Y-142174423D01*
X160820209Y-142174426D01*
X160683290Y-142253475D01*
X160683282Y-142253481D01*
X160571481Y-142365282D01*
X160571475Y-142365290D01*
X160492426Y-142502209D01*
X160492423Y-142502216D01*
X160451500Y-142654943D01*
X160451500Y-142813057D01*
X160452133Y-142815417D01*
X160492423Y-142965783D01*
X160492426Y-142965790D01*
X160571475Y-143102709D01*
X160571479Y-143102714D01*
X160571480Y-143102716D01*
X160683284Y-143214520D01*
X160683286Y-143214521D01*
X160683290Y-143214524D01*
X160820209Y-143293573D01*
X160820216Y-143293577D01*
X160972943Y-143334500D01*
X160972945Y-143334500D01*
X161131055Y-143334500D01*
X161131057Y-143334500D01*
X161283784Y-143293577D01*
X161420716Y-143214520D01*
X161532520Y-143102716D01*
X161611577Y-142965784D01*
X161652500Y-142813057D01*
X161652500Y-142786656D01*
X161672185Y-142719617D01*
X161688825Y-142698969D01*
X161757280Y-142630524D01*
X163460067Y-140927973D01*
X168399500Y-140927973D01*
X168399500Y-141172027D01*
X168437679Y-141413076D01*
X168513096Y-141645185D01*
X168618258Y-141851578D01*
X168623896Y-141862642D01*
X168767339Y-142060076D01*
X168767343Y-142060081D01*
X168939918Y-142232656D01*
X168939923Y-142232660D01*
X169094488Y-142344957D01*
X169137361Y-142376106D01*
X169354815Y-142486904D01*
X169586924Y-142562321D01*
X169827973Y-142600500D01*
X169827974Y-142600500D01*
X170072026Y-142600500D01*
X170072027Y-142600500D01*
X170313076Y-142562321D01*
X170545185Y-142486904D01*
X170762639Y-142376106D01*
X170960083Y-142232655D01*
X171132655Y-142060083D01*
X171276106Y-141862639D01*
X171386904Y-141645185D01*
X171462321Y-141413076D01*
X171500500Y-141172027D01*
X171500500Y-140927973D01*
X171462321Y-140686924D01*
X171386904Y-140454815D01*
X171276106Y-140237361D01*
X171204987Y-140139474D01*
X171132660Y-140039923D01*
X171132656Y-140039918D01*
X170960081Y-139867343D01*
X170960076Y-139867339D01*
X170762642Y-139723896D01*
X170762641Y-139723895D01*
X170762639Y-139723894D01*
X170545185Y-139613096D01*
X170313076Y-139537679D01*
X170313074Y-139537678D01*
X170313072Y-139537678D01*
X170144769Y-139511021D01*
X170072027Y-139499500D01*
X169827973Y-139499500D01*
X169772093Y-139508350D01*
X169586927Y-139537678D01*
X169354812Y-139613097D01*
X169137357Y-139723896D01*
X168939923Y-139867339D01*
X168939918Y-139867343D01*
X168767343Y-140039918D01*
X168767339Y-140039923D01*
X168623896Y-140237357D01*
X168513097Y-140454812D01*
X168437678Y-140686927D01*
X168399500Y-140927973D01*
X163460067Y-140927973D01*
X168530248Y-135858493D01*
X168530263Y-135858485D01*
X168573346Y-135815401D01*
X168607830Y-135780922D01*
X168609312Y-135779498D01*
X168609459Y-135779293D01*
X168609466Y-135779287D01*
X168609470Y-135779278D01*
X168609474Y-135779272D01*
X168609485Y-135779263D01*
X168609499Y-135779238D01*
X168609976Y-135778577D01*
X168611278Y-135776155D01*
X168639076Y-135728008D01*
X168663554Y-135685618D01*
X168665263Y-135682869D01*
X168665488Y-135682270D01*
X168665492Y-135682264D01*
X168665493Y-135682256D01*
X168665498Y-135682244D01*
X168665503Y-135682237D01*
X168665508Y-135682217D01*
X168665843Y-135681328D01*
X168666510Y-135678478D01*
X168679486Y-135630048D01*
X168694496Y-135574048D01*
X168694496Y-135574043D01*
X168694498Y-135574036D01*
X168694500Y-135574023D01*
X168694500Y-135518029D01*
X168694504Y-135462011D01*
X168694500Y-135461996D01*
X168694500Y-125485098D01*
X168714185Y-125418059D01*
X168730817Y-125397419D01*
X168730819Y-125397417D01*
X168749520Y-125378716D01*
X168749521Y-125378714D01*
X168754505Y-125373730D01*
X168815827Y-125340243D01*
X168885519Y-125345226D01*
X168929855Y-125373714D01*
X169646633Y-126090264D01*
X170679166Y-127122469D01*
X170712661Y-127183786D01*
X170715499Y-127210163D01*
X170715499Y-127226054D01*
X170715498Y-127226054D01*
X170715499Y-127226057D01*
X170756423Y-127378785D01*
X170756424Y-127378787D01*
X170756423Y-127378787D01*
X170763232Y-127390579D01*
X170763233Y-127390580D01*
X170835477Y-127515712D01*
X170835481Y-127515717D01*
X170954349Y-127634585D01*
X170954355Y-127634590D01*
X171300139Y-127980374D01*
X171300149Y-127980385D01*
X171304479Y-127984715D01*
X171304480Y-127984716D01*
X171416284Y-128096520D01*
X171488850Y-128138415D01*
X171503095Y-128146639D01*
X171503097Y-128146641D01*
X171541151Y-128168611D01*
X171553215Y-128175577D01*
X171705943Y-128216500D01*
X171721840Y-128216500D01*
X171788879Y-128236185D01*
X171809534Y-128252832D01*
X174441672Y-130885743D01*
X174475148Y-130947071D01*
X174470153Y-131016762D01*
X174428274Y-131072689D01*
X174362806Y-131097096D01*
X174331177Y-131094074D01*
X174331113Y-131094561D01*
X174323058Y-131093500D01*
X174323057Y-131093500D01*
X174164943Y-131093500D01*
X174012216Y-131134423D01*
X174012209Y-131134426D01*
X173875290Y-131213475D01*
X173875282Y-131213481D01*
X173763481Y-131325282D01*
X173763475Y-131325290D01*
X173684426Y-131462209D01*
X173684423Y-131462216D01*
X173643500Y-131614943D01*
X173643500Y-131773057D01*
X173671883Y-131878982D01*
X173684423Y-131925783D01*
X173684426Y-131925790D01*
X173763475Y-132062709D01*
X173763479Y-132062714D01*
X173763480Y-132062716D01*
X173875284Y-132174520D01*
X173875286Y-132174521D01*
X173875290Y-132174524D01*
X174012209Y-132253573D01*
X174012216Y-132253577D01*
X174164943Y-132294500D01*
X174191390Y-132294500D01*
X174258429Y-132314185D01*
X174279071Y-132330819D01*
X174834515Y-132886263D01*
X174913737Y-132965485D01*
X175010763Y-133021503D01*
X175118982Y-133050500D01*
X177811902Y-133050500D01*
X177878941Y-133070185D01*
X177899583Y-133086819D01*
X177918284Y-133105520D01*
X177918286Y-133105521D01*
X177918290Y-133105524D01*
X178022040Y-133165423D01*
X178055216Y-133184577D01*
X178207943Y-133225500D01*
X178207945Y-133225500D01*
X178366055Y-133225500D01*
X178366057Y-133225500D01*
X178518784Y-133184577D01*
X178655716Y-133105520D01*
X178767520Y-132993716D01*
X178767523Y-132993709D01*
X178772470Y-132987265D01*
X178774602Y-132988901D01*
X178783122Y-132980775D01*
X178798111Y-132960753D01*
X178807973Y-132957074D01*
X178815588Y-132949812D01*
X178840141Y-132945076D01*
X178863575Y-132936336D01*
X178873858Y-132938573D01*
X178884193Y-132936580D01*
X178907414Y-132945872D01*
X178931848Y-132951188D01*
X178944658Y-132960777D01*
X178949061Y-132962539D01*
X178960097Y-132972333D01*
X179091182Y-133103417D01*
X179124666Y-133164738D01*
X179127500Y-133191097D01*
X179127500Y-134979057D01*
X179152910Y-135073886D01*
X179168423Y-135131783D01*
X179168426Y-135131790D01*
X179247475Y-135268709D01*
X179247479Y-135268714D01*
X179247480Y-135268716D01*
X179359284Y-135380520D01*
X179359286Y-135380521D01*
X179365735Y-135385470D01*
X179364747Y-135386757D01*
X179406423Y-135430463D01*
X179419649Y-135499069D01*
X179393684Y-135563935D01*
X179383911Y-135574948D01*
X178677018Y-136282161D01*
X178615703Y-136315660D01*
X178589317Y-136318500D01*
X173394098Y-136318500D01*
X173327059Y-136298815D01*
X173306417Y-136282181D01*
X173287717Y-136263481D01*
X173287709Y-136263475D01*
X173150790Y-136184426D01*
X173150786Y-136184424D01*
X173150784Y-136184423D01*
X172998057Y-136143500D01*
X172839943Y-136143500D01*
X172687216Y-136184423D01*
X172687209Y-136184426D01*
X172550290Y-136263475D01*
X172550282Y-136263481D01*
X172438481Y-136375282D01*
X172438475Y-136375290D01*
X172359426Y-136512209D01*
X172359423Y-136512216D01*
X172318500Y-136664943D01*
X172318500Y-136823057D01*
X172351443Y-136946000D01*
X172359423Y-136975783D01*
X172359426Y-136975790D01*
X172438475Y-137112709D01*
X172438479Y-137112714D01*
X172438480Y-137112716D01*
X172550284Y-137224520D01*
X172550286Y-137224521D01*
X172550290Y-137224524D01*
X172678038Y-137298278D01*
X172687216Y-137303577D01*
X172839943Y-137344500D01*
X172839945Y-137344500D01*
X172998055Y-137344500D01*
X172998057Y-137344500D01*
X173150784Y-137303577D01*
X173287716Y-137224520D01*
X173306417Y-137205819D01*
X173367740Y-137172334D01*
X173394098Y-137169500D01*
X178761028Y-137169500D01*
X178761077Y-137169513D01*
X178819336Y-137169500D01*
X178873018Y-137169500D01*
X178873021Y-137169500D01*
X178873111Y-137169488D01*
X178873114Y-137169488D01*
X178928342Y-137154676D01*
X178928367Y-137154676D01*
X178928366Y-137154670D01*
X178949219Y-137149082D01*
X178981237Y-137140503D01*
X178981240Y-137140500D01*
X178981266Y-137140494D01*
X178981294Y-137140482D01*
X178981318Y-137140467D01*
X178981326Y-137140466D01*
X179026726Y-137114239D01*
X179029566Y-137112599D01*
X179029567Y-137112597D01*
X179078263Y-137084485D01*
X179078267Y-137084480D01*
X179078303Y-137084460D01*
X179078333Y-137084429D01*
X179078340Y-137084426D01*
X179114801Y-137047946D01*
X179176114Y-137014450D01*
X179245807Y-137019418D01*
X179301750Y-137061276D01*
X179326182Y-137126735D01*
X179326500Y-137135610D01*
X179326500Y-137543902D01*
X179306815Y-137610941D01*
X179290181Y-137631583D01*
X179271481Y-137650282D01*
X179271475Y-137650290D01*
X179192426Y-137787209D01*
X179192423Y-137787216D01*
X179151500Y-137939943D01*
X179151500Y-138098057D01*
X179174793Y-138184985D01*
X179192423Y-138250783D01*
X179192426Y-138250790D01*
X179271475Y-138387709D01*
X179271479Y-138387714D01*
X179271480Y-138387716D01*
X179383284Y-138499520D01*
X179487683Y-138559794D01*
X179535898Y-138610360D01*
X179549122Y-138678967D01*
X179523154Y-138743832D01*
X179521537Y-138745845D01*
X179384983Y-138912236D01*
X179384975Y-138912248D01*
X179193904Y-139198206D01*
X179193893Y-139198224D01*
X179031772Y-139501530D01*
X179031770Y-139501535D01*
X178900150Y-139819293D01*
X178800308Y-140148427D01*
X178733210Y-140485750D01*
X178713397Y-140686927D01*
X178699500Y-140828031D01*
X178699500Y-141171969D01*
X178702349Y-141200891D01*
X178733210Y-141514249D01*
X178800308Y-141851572D01*
X178900150Y-142180706D01*
X178976604Y-142365282D01*
X179028413Y-142490361D01*
X179031770Y-142498464D01*
X179031772Y-142498469D01*
X179193893Y-142801775D01*
X179193904Y-142801793D01*
X179384975Y-143087751D01*
X179384985Y-143087765D01*
X179603176Y-143353632D01*
X179846367Y-143596823D01*
X179846372Y-143596827D01*
X179846373Y-143596828D01*
X180112240Y-143815019D01*
X180398213Y-144006100D01*
X180398222Y-144006105D01*
X180398224Y-144006106D01*
X180701530Y-144168227D01*
X180701532Y-144168227D01*
X180701538Y-144168231D01*
X181019295Y-144299850D01*
X181348422Y-144399690D01*
X181685750Y-144466789D01*
X182028031Y-144500500D01*
X182028034Y-144500500D01*
X182371966Y-144500500D01*
X182371969Y-144500500D01*
X182714250Y-144466789D01*
X183051578Y-144399690D01*
X183380705Y-144299850D01*
X183698462Y-144168231D01*
X184001787Y-144006100D01*
X184287760Y-143815019D01*
X184553627Y-143596828D01*
X184796828Y-143353627D01*
X185015019Y-143087760D01*
X185206100Y-142801787D01*
X185368231Y-142498462D01*
X185499850Y-142180705D01*
X185599690Y-141851578D01*
X185666789Y-141514250D01*
X185700500Y-141171969D01*
X185700500Y-140828031D01*
X185666789Y-140485750D01*
X185599690Y-140148422D01*
X185499850Y-139819295D01*
X185368231Y-139501538D01*
X185349800Y-139467057D01*
X185206106Y-139198224D01*
X185206105Y-139198222D01*
X185206100Y-139198213D01*
X185015019Y-138912240D01*
X184796828Y-138646373D01*
X184796827Y-138646372D01*
X184796823Y-138646367D01*
X184553632Y-138403176D01*
X184287765Y-138184985D01*
X184287764Y-138184984D01*
X184287760Y-138184981D01*
X184001787Y-137993900D01*
X184001782Y-137993897D01*
X184001775Y-137993893D01*
X183698469Y-137831772D01*
X183698464Y-137831770D01*
X183674954Y-137822032D01*
X183380705Y-137700150D01*
X183380704Y-137700149D01*
X183380700Y-137700148D01*
X183251335Y-137660905D01*
X183192897Y-137622608D01*
X183164440Y-137558795D01*
X183175001Y-137489728D01*
X183193798Y-137462921D01*
X183192886Y-137462173D01*
X183196751Y-137457462D01*
X183306185Y-137293684D01*
X183306192Y-137293671D01*
X183381569Y-137111692D01*
X183381569Y-137111690D01*
X183389862Y-137070000D01*
X182586988Y-137070000D01*
X182604205Y-137060060D01*
X182660060Y-137004205D01*
X182699556Y-136935796D01*
X182720000Y-136859496D01*
X182720000Y-136780504D01*
X182699556Y-136704204D01*
X182660060Y-136635795D01*
X182604205Y-136579940D01*
X182586988Y-136570000D01*
X183389862Y-136570000D01*
X184780138Y-136570000D01*
X185583012Y-136570000D01*
X185565795Y-136579940D01*
X185509940Y-136635795D01*
X185470444Y-136704204D01*
X185450000Y-136780504D01*
X185450000Y-136859496D01*
X185470444Y-136935796D01*
X185509940Y-137004205D01*
X185565795Y-137060060D01*
X185583012Y-137070000D01*
X184780138Y-137070000D01*
X184788430Y-137111690D01*
X184788430Y-137111692D01*
X184863807Y-137293671D01*
X184863814Y-137293684D01*
X184973248Y-137457462D01*
X184973251Y-137457466D01*
X185112533Y-137596748D01*
X185112537Y-137596751D01*
X185276315Y-137706185D01*
X185276328Y-137706192D01*
X185458306Y-137781569D01*
X185458318Y-137781572D01*
X185651504Y-137819999D01*
X185651508Y-137820000D01*
X185800000Y-137820000D01*
X185800000Y-137120000D01*
X186300000Y-137120000D01*
X186300000Y-137820000D01*
X186448492Y-137820000D01*
X186448495Y-137819999D01*
X186641681Y-137781572D01*
X186641693Y-137781569D01*
X186823671Y-137706192D01*
X186823684Y-137706185D01*
X186987462Y-137596751D01*
X186987466Y-137596748D01*
X187126748Y-137457466D01*
X187126751Y-137457462D01*
X187236185Y-137293684D01*
X187236192Y-137293671D01*
X187311569Y-137111692D01*
X187311569Y-137111690D01*
X187319862Y-137070000D01*
X186516988Y-137070000D01*
X186534205Y-137060060D01*
X186590060Y-137004205D01*
X186629556Y-136935796D01*
X186650000Y-136859496D01*
X186650000Y-136780504D01*
X186629556Y-136704204D01*
X186590060Y-136635795D01*
X186534205Y-136579940D01*
X186516988Y-136570000D01*
X187319862Y-136570000D01*
X187311569Y-136528309D01*
X187311569Y-136528307D01*
X187236192Y-136346328D01*
X187236185Y-136346315D01*
X187126751Y-136182537D01*
X187126748Y-136182533D01*
X186987466Y-136043251D01*
X186987462Y-136043248D01*
X186823684Y-135933814D01*
X186823671Y-135933807D01*
X186641693Y-135858430D01*
X186641681Y-135858427D01*
X186448495Y-135820000D01*
X186300000Y-135820000D01*
X186300000Y-136520000D01*
X185800000Y-136520000D01*
X185800000Y-135820000D01*
X185651504Y-135820000D01*
X185458318Y-135858427D01*
X185458306Y-135858430D01*
X185276328Y-135933807D01*
X185276315Y-135933814D01*
X185112537Y-136043248D01*
X185112533Y-136043251D01*
X184973251Y-136182533D01*
X184973248Y-136182537D01*
X184863814Y-136346315D01*
X184863807Y-136346328D01*
X184788430Y-136528307D01*
X184788430Y-136528309D01*
X184780138Y-136570000D01*
X183389862Y-136570000D01*
X183381569Y-136528309D01*
X183381569Y-136528307D01*
X183306192Y-136346328D01*
X183306185Y-136346315D01*
X183196751Y-136182537D01*
X183196748Y-136182533D01*
X183057466Y-136043251D01*
X183057462Y-136043248D01*
X182893684Y-135933814D01*
X182893677Y-135933811D01*
X182857014Y-135918624D01*
X182802611Y-135874782D01*
X182780547Y-135808488D01*
X182797827Y-135740788D01*
X182816784Y-135716385D01*
X182820505Y-135712665D01*
X182889688Y-135592836D01*
X182925500Y-135459183D01*
X182925500Y-135320817D01*
X182889688Y-135187164D01*
X182824287Y-135073886D01*
X182820507Y-135067338D01*
X182820503Y-135067333D01*
X182722666Y-134969496D01*
X182722661Y-134969492D01*
X182602838Y-134900313D01*
X182602837Y-134900312D01*
X182602836Y-134900312D01*
X182469183Y-134864500D01*
X182330817Y-134864500D01*
X182197164Y-134900312D01*
X182197163Y-134900312D01*
X182109499Y-134950925D01*
X182103597Y-134952356D01*
X182099011Y-134956331D01*
X182070048Y-134960495D01*
X182041599Y-134967397D01*
X182035861Y-134965411D01*
X182029853Y-134966275D01*
X182003231Y-134954117D01*
X181975572Y-134944544D01*
X181971819Y-134939771D01*
X181966297Y-134937250D01*
X181950473Y-134912627D01*
X181932382Y-134889622D01*
X181930965Y-134882272D01*
X181928523Y-134878472D01*
X181923500Y-134843537D01*
X181923500Y-134644610D01*
X181943185Y-134577571D01*
X181959819Y-134556929D01*
X182154929Y-134361819D01*
X182216252Y-134328334D01*
X182242610Y-134325500D01*
X182269055Y-134325500D01*
X182269057Y-134325500D01*
X182421784Y-134284577D01*
X182558716Y-134205520D01*
X182670520Y-134093716D01*
X182749577Y-133956784D01*
X182790500Y-133804057D01*
X182790500Y-133645943D01*
X182749577Y-133493216D01*
X182697590Y-133403171D01*
X182670524Y-133356290D01*
X182670518Y-133356282D01*
X182558717Y-133244481D01*
X182558709Y-133244475D01*
X182421790Y-133165426D01*
X182421786Y-133165424D01*
X182421784Y-133165423D01*
X182269057Y-133124500D01*
X182110943Y-133124500D01*
X181958216Y-133165423D01*
X181958209Y-133165426D01*
X181821290Y-133244475D01*
X181821282Y-133244481D01*
X181709481Y-133356282D01*
X181709477Y-133356287D01*
X181702886Y-133367704D01*
X181652318Y-133415919D01*
X181583711Y-133429140D01*
X181518847Y-133403171D01*
X181478319Y-133346256D01*
X181471500Y-133305702D01*
X181471500Y-132162748D01*
X181491185Y-132095709D01*
X181507857Y-132075029D01*
X181569721Y-132013219D01*
X181949127Y-131634140D01*
X182171678Y-131411781D01*
X182233015Y-131378322D01*
X182259321Y-131375500D01*
X182286055Y-131375500D01*
X182286057Y-131375500D01*
X182438784Y-131334577D01*
X182575716Y-131255520D01*
X182687520Y-131143716D01*
X182766577Y-131006784D01*
X182807500Y-130854057D01*
X182807500Y-130695943D01*
X182766577Y-130543216D01*
X182733577Y-130486057D01*
X182687524Y-130406290D01*
X182687518Y-130406282D01*
X182576417Y-130295181D01*
X182542932Y-130233858D01*
X182547916Y-130164166D01*
X182589788Y-130108233D01*
X182602099Y-130100112D01*
X182602831Y-130099689D01*
X182602836Y-130099688D01*
X182722665Y-130030505D01*
X182820505Y-129932665D01*
X182889688Y-129812836D01*
X182925500Y-129679183D01*
X182925500Y-129540817D01*
X182889688Y-129407164D01*
X182855096Y-129347249D01*
X182820507Y-129287338D01*
X182820503Y-129287333D01*
X182816787Y-129283617D01*
X182783302Y-129222294D01*
X182788286Y-129152602D01*
X182830158Y-129096669D01*
X182857016Y-129081374D01*
X182893680Y-129066187D01*
X182893684Y-129066185D01*
X183057462Y-128956751D01*
X183057466Y-128956748D01*
X183196748Y-128817466D01*
X183196751Y-128817462D01*
X183306185Y-128653684D01*
X183306192Y-128653671D01*
X183381569Y-128471692D01*
X183381569Y-128471690D01*
X183389862Y-128430000D01*
X182586988Y-128430000D01*
X182604205Y-128420060D01*
X182660060Y-128364205D01*
X182699556Y-128295796D01*
X182720000Y-128219496D01*
X182720000Y-128140504D01*
X182699556Y-128064204D01*
X182660060Y-127995795D01*
X182604205Y-127939940D01*
X182586988Y-127930000D01*
X183389862Y-127930000D01*
X184780138Y-127930000D01*
X185583012Y-127930000D01*
X185565795Y-127939940D01*
X185509940Y-127995795D01*
X185470444Y-128064204D01*
X185450000Y-128140504D01*
X185450000Y-128219496D01*
X185470444Y-128295796D01*
X185509940Y-128364205D01*
X185565795Y-128420060D01*
X185583012Y-128430000D01*
X184780138Y-128430000D01*
X184788430Y-128471690D01*
X184788430Y-128471692D01*
X184863807Y-128653671D01*
X184863814Y-128653684D01*
X184973248Y-128817462D01*
X184973251Y-128817466D01*
X185112533Y-128956748D01*
X185112537Y-128956751D01*
X185276315Y-129066185D01*
X185276328Y-129066192D01*
X185458306Y-129141569D01*
X185458318Y-129141572D01*
X185651504Y-129179999D01*
X185651508Y-129180000D01*
X185800000Y-129180000D01*
X185800000Y-128480000D01*
X186300000Y-128480000D01*
X186300000Y-129180000D01*
X186448492Y-129180000D01*
X186448495Y-129179999D01*
X186641681Y-129141572D01*
X186641693Y-129141569D01*
X186823671Y-129066192D01*
X186823684Y-129066185D01*
X186987462Y-128956751D01*
X186987466Y-128956748D01*
X187126748Y-128817466D01*
X187126751Y-128817462D01*
X187236185Y-128653684D01*
X187236192Y-128653671D01*
X187311569Y-128471692D01*
X187311569Y-128471690D01*
X187319862Y-128430000D01*
X186516988Y-128430000D01*
X186534205Y-128420060D01*
X186590060Y-128364205D01*
X186629556Y-128295796D01*
X186650000Y-128219496D01*
X186650000Y-128140504D01*
X186629556Y-128064204D01*
X186590060Y-127995795D01*
X186534205Y-127939940D01*
X186516988Y-127930000D01*
X187319862Y-127930000D01*
X187311569Y-127888309D01*
X187311569Y-127888307D01*
X187236192Y-127706328D01*
X187236185Y-127706315D01*
X187126751Y-127542537D01*
X187126748Y-127542533D01*
X186987466Y-127403251D01*
X186987462Y-127403248D01*
X186823684Y-127293814D01*
X186823671Y-127293807D01*
X186641693Y-127218430D01*
X186641681Y-127218427D01*
X186448495Y-127180000D01*
X186300000Y-127180000D01*
X186300000Y-127880000D01*
X185800000Y-127880000D01*
X185800000Y-127180000D01*
X185651504Y-127180000D01*
X185458318Y-127218427D01*
X185458306Y-127218430D01*
X185276328Y-127293807D01*
X185276315Y-127293814D01*
X185112537Y-127403248D01*
X185112533Y-127403251D01*
X184973251Y-127542533D01*
X184973248Y-127542537D01*
X184863814Y-127706315D01*
X184863807Y-127706328D01*
X184788430Y-127888307D01*
X184788430Y-127888309D01*
X184780138Y-127930000D01*
X183389862Y-127930000D01*
X183381569Y-127888309D01*
X183381569Y-127888307D01*
X183306192Y-127706328D01*
X183306185Y-127706315D01*
X183196751Y-127542537D01*
X183196748Y-127542533D01*
X183057466Y-127403251D01*
X183057462Y-127403248D01*
X182893684Y-127293814D01*
X182893671Y-127293807D01*
X182711693Y-127218430D01*
X182711681Y-127218427D01*
X182518495Y-127180000D01*
X182120000Y-127180000D01*
X182120000Y-127880000D01*
X181620000Y-127880000D01*
X181620000Y-127180000D01*
X181221504Y-127180000D01*
X181028318Y-127218427D01*
X181028306Y-127218430D01*
X180846328Y-127293807D01*
X180846315Y-127293814D01*
X180682537Y-127403248D01*
X180682533Y-127403251D01*
X180543251Y-127542533D01*
X180543248Y-127542537D01*
X180433814Y-127706315D01*
X180433807Y-127706328D01*
X180358430Y-127888307D01*
X180358430Y-127888309D01*
X180350138Y-127930000D01*
X181153012Y-127930000D01*
X181135795Y-127939940D01*
X181079940Y-127995795D01*
X181040444Y-128064204D01*
X181020000Y-128140504D01*
X181020000Y-128219496D01*
X181040444Y-128295796D01*
X181079940Y-128364205D01*
X181135795Y-128420060D01*
X181153012Y-128430000D01*
X180350138Y-128430000D01*
X180358430Y-128471690D01*
X180358430Y-128471692D01*
X180433807Y-128653671D01*
X180433814Y-128653684D01*
X180543248Y-128817462D01*
X180543251Y-128817466D01*
X180682533Y-128956748D01*
X180682537Y-128956751D01*
X180846315Y-129066185D01*
X180846328Y-129066192D01*
X181028306Y-129141569D01*
X181028318Y-129141572D01*
X181221504Y-129179999D01*
X181221508Y-129180000D01*
X181620000Y-129180000D01*
X181620000Y-128480000D01*
X182120000Y-128480000D01*
X182120000Y-129095607D01*
X182100315Y-129162646D01*
X182081950Y-129182616D01*
X182083082Y-129183748D01*
X181979496Y-129287333D01*
X181979492Y-129287338D01*
X181910313Y-129407161D01*
X181910312Y-129407164D01*
X181874500Y-129540817D01*
X181874500Y-129679183D01*
X181909441Y-129809583D01*
X181910312Y-129812835D01*
X181910313Y-129812838D01*
X181979492Y-129932661D01*
X181979496Y-129932666D01*
X182049726Y-130002896D01*
X182083211Y-130064219D01*
X182078227Y-130133911D01*
X182036355Y-130189844D01*
X181994144Y-130210350D01*
X181975221Y-130215421D01*
X181975209Y-130215426D01*
X181838290Y-130294475D01*
X181838282Y-130294481D01*
X181726481Y-130406282D01*
X181726475Y-130406290D01*
X181647426Y-130543209D01*
X181647423Y-130543216D01*
X181606500Y-130695943D01*
X181606500Y-130722099D01*
X181586815Y-130789138D01*
X181570143Y-130809818D01*
X180790447Y-131588841D01*
X180784817Y-131594468D01*
X180784737Y-131594515D01*
X180745111Y-131634140D01*
X180745110Y-131634141D01*
X180745107Y-131634142D01*
X180705620Y-131673597D01*
X180705518Y-131673730D01*
X180677418Y-131722399D01*
X180677395Y-131722440D01*
X180649563Y-131770599D01*
X180649501Y-131770747D01*
X180635092Y-131824518D01*
X180635080Y-131824564D01*
X180620522Y-131878804D01*
X180620500Y-131878967D01*
X180620500Y-131878982D01*
X180620500Y-131934816D01*
X180620476Y-131990835D01*
X180620500Y-131990924D01*
X180620500Y-134286460D01*
X180600815Y-134353499D01*
X180584201Y-134374121D01*
X180540201Y-134418141D01*
X180478886Y-134451640D01*
X180409193Y-134446672D01*
X180353250Y-134404813D01*
X180328818Y-134339354D01*
X180328500Y-134330480D01*
X180328500Y-132980060D01*
X180328501Y-132980047D01*
X180328501Y-132811945D01*
X180328501Y-132811943D01*
X180287577Y-132659215D01*
X180208520Y-132522284D01*
X178481408Y-130795173D01*
X178447924Y-130733851D01*
X178452908Y-130664159D01*
X178461704Y-130645491D01*
X178465577Y-130638784D01*
X178506501Y-130486057D01*
X178506501Y-130327942D01*
X178506501Y-130320347D01*
X178506500Y-130320329D01*
X178506500Y-129302945D01*
X178506500Y-129302943D01*
X178465577Y-129150216D01*
X178465573Y-129150209D01*
X178386524Y-129013290D01*
X178386518Y-129013282D01*
X178274717Y-128901481D01*
X178274709Y-128901475D01*
X178137790Y-128822426D01*
X178137786Y-128822424D01*
X178137784Y-128822423D01*
X177985057Y-128781500D01*
X177826943Y-128781500D01*
X177674216Y-128822423D01*
X177674215Y-128822423D01*
X177561499Y-128887499D01*
X177493599Y-128903970D01*
X177427572Y-128881118D01*
X177384382Y-128826196D01*
X177375500Y-128780111D01*
X177375500Y-120720984D01*
X177375500Y-120720982D01*
X177346503Y-120612763D01*
X177290485Y-120515737D01*
X177211263Y-120436515D01*
X176127819Y-119353071D01*
X176113115Y-119326143D01*
X176096523Y-119300325D01*
X176095631Y-119294124D01*
X176094334Y-119291748D01*
X176091500Y-119265390D01*
X176091500Y-119240500D01*
X176111185Y-119173461D01*
X176163989Y-119127706D01*
X176215500Y-119116500D01*
X181023390Y-119116500D01*
X181090429Y-119136185D01*
X181111071Y-119152819D01*
X185885655Y-123927403D01*
X185919140Y-123988726D01*
X185915905Y-124053402D01*
X185877829Y-124170589D01*
X185849500Y-124349448D01*
X185849500Y-124530551D01*
X185877829Y-124709410D01*
X185933787Y-124881636D01*
X185933788Y-124881639D01*
X186016006Y-125042997D01*
X186122441Y-125189494D01*
X186122445Y-125189499D01*
X186250500Y-125317554D01*
X186250505Y-125317558D01*
X186327798Y-125373714D01*
X186397006Y-125423996D01*
X186465195Y-125458740D01*
X186558360Y-125506211D01*
X186558363Y-125506212D01*
X186644476Y-125534191D01*
X186730591Y-125562171D01*
X186813429Y-125575291D01*
X186909449Y-125590500D01*
X186909454Y-125590500D01*
X187090551Y-125590500D01*
X187177259Y-125576765D01*
X187269409Y-125562171D01*
X187441639Y-125506211D01*
X187602994Y-125423996D01*
X187749501Y-125317553D01*
X187877553Y-125189501D01*
X187983996Y-125042994D01*
X188066211Y-124881639D01*
X188122171Y-124709409D01*
X188144932Y-124565703D01*
X188150500Y-124530551D01*
X188150500Y-124349448D01*
X188133246Y-124240518D01*
X188122171Y-124170591D01*
X188066211Y-123998361D01*
X188066211Y-123998360D01*
X188030056Y-123927403D01*
X187983996Y-123837006D01*
X187970396Y-123818287D01*
X187877558Y-123690505D01*
X187877554Y-123690500D01*
X187749499Y-123562445D01*
X187749494Y-123562441D01*
X187602997Y-123456006D01*
X187602996Y-123456005D01*
X187602994Y-123456004D01*
X187551300Y-123429664D01*
X187441639Y-123373788D01*
X187441636Y-123373787D01*
X187269410Y-123317829D01*
X187109321Y-123292473D01*
X187046186Y-123262544D01*
X187009255Y-123203232D01*
X187010253Y-123133370D01*
X187048863Y-123075137D01*
X187109321Y-123047527D01*
X187179425Y-123036422D01*
X187269409Y-123022171D01*
X187441639Y-122966211D01*
X187602994Y-122883996D01*
X187749501Y-122777553D01*
X187877553Y-122649501D01*
X187983996Y-122502994D01*
X188066211Y-122341639D01*
X188122171Y-122169409D01*
X188138833Y-122064209D01*
X188150500Y-121990551D01*
X188150500Y-121809448D01*
X188134019Y-121705397D01*
X188122171Y-121630591D01*
X188066211Y-121458361D01*
X188066211Y-121458360D01*
X188037740Y-121402484D01*
X187983996Y-121297006D01*
X187953127Y-121254518D01*
X187877558Y-121150505D01*
X187877554Y-121150500D01*
X187749499Y-121022445D01*
X187749494Y-121022441D01*
X187602997Y-120916006D01*
X187602996Y-120916005D01*
X187602994Y-120916004D01*
X187551300Y-120889664D01*
X187441639Y-120833788D01*
X187441636Y-120833787D01*
X187269410Y-120777829D01*
X187109321Y-120752473D01*
X187046186Y-120722544D01*
X187009255Y-120663232D01*
X187010253Y-120593370D01*
X187048863Y-120535137D01*
X187109321Y-120507527D01*
X187179425Y-120496422D01*
X187269409Y-120482171D01*
X187441639Y-120426211D01*
X187602994Y-120343996D01*
X187749501Y-120237553D01*
X187877553Y-120109501D01*
X187983996Y-119962994D01*
X188066211Y-119801639D01*
X188122171Y-119629409D01*
X188136765Y-119537259D01*
X188150500Y-119450551D01*
X188150500Y-119269448D01*
X188128049Y-119127706D01*
X188122171Y-119090591D01*
X188090968Y-118994557D01*
X188066212Y-118918363D01*
X188066211Y-118918360D01*
X188029248Y-118845818D01*
X187983996Y-118757006D01*
X187970396Y-118738287D01*
X187877558Y-118610505D01*
X187877554Y-118610500D01*
X187749499Y-118482445D01*
X187749494Y-118482441D01*
X187602997Y-118376006D01*
X187602996Y-118376005D01*
X187602994Y-118376004D01*
X187551300Y-118349664D01*
X187441639Y-118293788D01*
X187441636Y-118293787D01*
X187269410Y-118237829D01*
X187109321Y-118212473D01*
X187046186Y-118182544D01*
X187009255Y-118123232D01*
X187010253Y-118053370D01*
X187048863Y-117995137D01*
X187109321Y-117967527D01*
X187179425Y-117956422D01*
X187269409Y-117942171D01*
X187441639Y-117886211D01*
X187602994Y-117803996D01*
X187749501Y-117697553D01*
X187877553Y-117569501D01*
X187983996Y-117422994D01*
X188066211Y-117261639D01*
X188122171Y-117089409D01*
X188144011Y-116951517D01*
X188150500Y-116910551D01*
X188150500Y-116729448D01*
X188133893Y-116624604D01*
X188122171Y-116550591D01*
X188066211Y-116378361D01*
X188066211Y-116378360D01*
X188022506Y-116292586D01*
X187983996Y-116217006D01*
X187970396Y-116198287D01*
X187877558Y-116070505D01*
X187877554Y-116070500D01*
X187749499Y-115942445D01*
X187749494Y-115942441D01*
X187602997Y-115836006D01*
X187602996Y-115836005D01*
X187602994Y-115836004D01*
X187551300Y-115809664D01*
X187441639Y-115753788D01*
X187441636Y-115753787D01*
X187269410Y-115697829D01*
X187109321Y-115672473D01*
X187046186Y-115642544D01*
X187009255Y-115583232D01*
X187010253Y-115513370D01*
X187048863Y-115455137D01*
X187109321Y-115427527D01*
X187179425Y-115416422D01*
X187269409Y-115402171D01*
X187441639Y-115346211D01*
X187602994Y-115263996D01*
X187749501Y-115157553D01*
X187877553Y-115029501D01*
X187983996Y-114882994D01*
X188066211Y-114721639D01*
X188122171Y-114549409D01*
X188136765Y-114457259D01*
X188150500Y-114370551D01*
X188150500Y-114189448D01*
X188134019Y-114085397D01*
X188122171Y-114010591D01*
X188066211Y-113838361D01*
X188066211Y-113838360D01*
X188018021Y-113743784D01*
X187983996Y-113677006D01*
X187970396Y-113658287D01*
X187877558Y-113530505D01*
X187877554Y-113530500D01*
X187749499Y-113402445D01*
X187749494Y-113402441D01*
X187602995Y-113296004D01*
X187471314Y-113228908D01*
X187420519Y-113180934D01*
X187403724Y-113113113D01*
X187426262Y-113046978D01*
X187480977Y-113003527D01*
X187489295Y-113000492D01*
X187518217Y-112991095D01*
X187707554Y-112894622D01*
X187761716Y-112855270D01*
X187761717Y-112855270D01*
X187129408Y-112222962D01*
X187192993Y-112205925D01*
X187307007Y-112140099D01*
X187400099Y-112047007D01*
X187465925Y-111932993D01*
X187482962Y-111869408D01*
X188115270Y-112501717D01*
X188115270Y-112501716D01*
X188154622Y-112447554D01*
X188251095Y-112258217D01*
X188316757Y-112056130D01*
X188316757Y-112056127D01*
X188350000Y-111846246D01*
X188350000Y-111633753D01*
X188316757Y-111423872D01*
X188316757Y-111423869D01*
X188251095Y-111221782D01*
X188154624Y-111032449D01*
X188115270Y-110978282D01*
X188115269Y-110978282D01*
X187482962Y-111610590D01*
X187465925Y-111547007D01*
X187400099Y-111432993D01*
X187307007Y-111339901D01*
X187192993Y-111274075D01*
X187129408Y-111257037D01*
X187761716Y-110624728D01*
X187707550Y-110585375D01*
X187706786Y-110584986D01*
X187706546Y-110584759D01*
X187703396Y-110582829D01*
X187703801Y-110582167D01*
X187655988Y-110537013D01*
X187639191Y-110469192D01*
X187661726Y-110403057D01*
X187716440Y-110359604D01*
X187763077Y-110350499D01*
X187894856Y-110350499D01*
X187894864Y-110350499D01*
X187894879Y-110350497D01*
X187894882Y-110350497D01*
X187919987Y-110347586D01*
X187919988Y-110347585D01*
X187919991Y-110347585D01*
X188022765Y-110302206D01*
X188102206Y-110222765D01*
X188147585Y-110119991D01*
X188150500Y-110094865D01*
X188150499Y-108305136D01*
X188150497Y-108305117D01*
X188147586Y-108280012D01*
X188147585Y-108280010D01*
X188147585Y-108280009D01*
X188102206Y-108177235D01*
X188022765Y-108097794D01*
X188022763Y-108097793D01*
X187919992Y-108052415D01*
X187894865Y-108049500D01*
X186105143Y-108049500D01*
X186105117Y-108049502D01*
X186080012Y-108052413D01*
X186080008Y-108052415D01*
X185977235Y-108097793D01*
X185897794Y-108177234D01*
X185852415Y-108280006D01*
X185852415Y-108280008D01*
X185849500Y-108305131D01*
X185849500Y-109449902D01*
X185829815Y-109516941D01*
X185813181Y-109537583D01*
X184014481Y-111336282D01*
X184014479Y-111336285D01*
X183964361Y-111423094D01*
X183964359Y-111423096D01*
X183935425Y-111473209D01*
X183935424Y-111473210D01*
X183935423Y-111473215D01*
X183894499Y-111625943D01*
X183894499Y-111625945D01*
X183894499Y-111794046D01*
X183894500Y-111794059D01*
X183894500Y-113598500D01*
X183874815Y-113665539D01*
X183822011Y-113711294D01*
X183770500Y-113722500D01*
X176608360Y-113722500D01*
X176541321Y-113702815D01*
X176520625Y-113686127D01*
X175984438Y-113149278D01*
X175978615Y-113143448D01*
X175978520Y-113143284D01*
X175922137Y-113086901D01*
X175867012Y-113031708D01*
X175867011Y-113031707D01*
X175867006Y-113031702D01*
X175866766Y-113031518D01*
X175866766Y-113031517D01*
X175866716Y-113031479D01*
X175798430Y-112992055D01*
X175798364Y-112992017D01*
X175730129Y-112952565D01*
X175729832Y-112952442D01*
X175729830Y-112952441D01*
X175729795Y-112952426D01*
X175729250Y-112952280D01*
X175654619Y-112932282D01*
X175654618Y-112932281D01*
X175654620Y-112932271D01*
X175654545Y-112932262D01*
X175577424Y-112911546D01*
X175577212Y-112911518D01*
X175577078Y-112911500D01*
X175577057Y-112911500D01*
X175499186Y-112911500D01*
X175419307Y-112911450D01*
X175418951Y-112911497D01*
X175343325Y-112931761D01*
X175343254Y-112931780D01*
X175266557Y-112952280D01*
X175266251Y-112952407D01*
X175266249Y-112952407D01*
X175266230Y-112952415D01*
X175266216Y-112952422D01*
X175266216Y-112952423D01*
X175197669Y-112991998D01*
X175197668Y-112991997D01*
X175197606Y-112992033D01*
X175197605Y-112992034D01*
X175129581Y-113031253D01*
X175129449Y-113031384D01*
X175129284Y-113031480D01*
X175129221Y-113031542D01*
X175129219Y-113031544D01*
X175072885Y-113087878D01*
X175072884Y-113087877D01*
X175072835Y-113087926D01*
X175072833Y-113087930D01*
X175072337Y-113088424D01*
X175071604Y-113089156D01*
X175017708Y-113142988D01*
X175017614Y-113143149D01*
X175017480Y-113143284D01*
X175017432Y-113143366D01*
X175017431Y-113143368D01*
X174978055Y-113211570D01*
X174978017Y-113211636D01*
X174938559Y-113279881D01*
X174938520Y-113279974D01*
X174938435Y-113280181D01*
X174938427Y-113280200D01*
X174918301Y-113355308D01*
X174918282Y-113355379D01*
X174897547Y-113432572D01*
X174897500Y-113432927D01*
X174897500Y-113510339D01*
X174897450Y-113590689D01*
X174897498Y-113591048D01*
X174897500Y-113591055D01*
X174897500Y-113591057D01*
X174909782Y-113636896D01*
X174917457Y-113665539D01*
X174917781Y-113666746D01*
X174932683Y-113722500D01*
X174938281Y-113743441D01*
X174938311Y-113743514D01*
X174938317Y-113743528D01*
X174938422Y-113743783D01*
X174938423Y-113743784D01*
X174977998Y-113812330D01*
X175017253Y-113880419D01*
X175017384Y-113880550D01*
X175017480Y-113880716D01*
X175017492Y-113880728D01*
X175074004Y-113937240D01*
X175809104Y-114673248D01*
X175827384Y-114691550D01*
X175827480Y-114691716D01*
X175883910Y-114748146D01*
X175883964Y-114748200D01*
X175938990Y-114803294D01*
X175939287Y-114803522D01*
X176008175Y-114843293D01*
X176008231Y-114843352D01*
X176008243Y-114843333D01*
X176075873Y-114882435D01*
X176076213Y-114882575D01*
X176076216Y-114882577D01*
X176152882Y-114903119D01*
X176228572Y-114923451D01*
X176228760Y-114923451D01*
X176228943Y-114923500D01*
X176228949Y-114923500D01*
X176307629Y-114923500D01*
X176386687Y-114923549D01*
X176386689Y-114923548D01*
X176394341Y-114923553D01*
X176395162Y-114923500D01*
X183770500Y-114923500D01*
X183837539Y-114943185D01*
X183883294Y-114995989D01*
X183894500Y-115047500D01*
X183894500Y-116599056D01*
X183924336Y-116710407D01*
X183922673Y-116780257D01*
X183883510Y-116838119D01*
X183819282Y-116865623D01*
X183804561Y-116866500D01*
X168761982Y-116866500D01*
X168653763Y-116895497D01*
X168653760Y-116895498D01*
X168556740Y-116951513D01*
X168556734Y-116951517D01*
X165192517Y-120315734D01*
X165192513Y-120315740D01*
X165136498Y-120412760D01*
X165136497Y-120412763D01*
X165107500Y-120520982D01*
X165107500Y-121820902D01*
X165100053Y-121846260D01*
X165096290Y-121872424D01*
X165089500Y-121882201D01*
X165087815Y-121887941D01*
X165077205Y-121902113D01*
X165074306Y-121905458D01*
X165052480Y-121927284D01*
X165046672Y-121937342D01*
X165038907Y-121946303D01*
X165019072Y-121959047D01*
X165002004Y-121975317D01*
X164990219Y-121977586D01*
X164980126Y-121984072D01*
X164956550Y-121984069D01*
X164933395Y-121988529D01*
X164922255Y-121984067D01*
X164910256Y-121984066D01*
X164890421Y-121971316D01*
X164868535Y-121962550D01*
X164857521Y-121952773D01*
X163743819Y-120839071D01*
X163710334Y-120777748D01*
X163707500Y-120751390D01*
X163707500Y-120473984D01*
X163707500Y-120473982D01*
X163678503Y-120365763D01*
X163622485Y-120268737D01*
X163543263Y-120189515D01*
X158614819Y-115261071D01*
X158581334Y-115199748D01*
X158578500Y-115173390D01*
X158578500Y-115146945D01*
X158578500Y-115146943D01*
X158537577Y-114994216D01*
X158496778Y-114923549D01*
X158458524Y-114857290D01*
X158458518Y-114857282D01*
X158346717Y-114745481D01*
X158346709Y-114745475D01*
X158209790Y-114666426D01*
X158209786Y-114666424D01*
X158209784Y-114666423D01*
X158057057Y-114625500D01*
X157898943Y-114625500D01*
X157746216Y-114666423D01*
X157746209Y-114666426D01*
X157609290Y-114745475D01*
X157609282Y-114745481D01*
X157497481Y-114857282D01*
X157497475Y-114857290D01*
X157418426Y-114994209D01*
X157418424Y-114994213D01*
X157418423Y-114994215D01*
X157418423Y-114994216D01*
X157404146Y-115047500D01*
X157392963Y-115089234D01*
X157384164Y-115103669D01*
X157380038Y-115120060D01*
X157366357Y-115132881D01*
X157356597Y-115148894D01*
X157341391Y-115156280D01*
X157329058Y-115167839D01*
X157310615Y-115171229D01*
X157293750Y-115179422D01*
X157276529Y-115177495D01*
X157260340Y-115180472D01*
X157232777Y-115173533D01*
X157232769Y-115173563D01*
X157232406Y-115173463D01*
X157232148Y-115173375D01*
X157226114Y-115171856D01*
X157225573Y-115171634D01*
X157225039Y-115171413D01*
X157171049Y-115156976D01*
X157171049Y-115156975D01*
X157171044Y-115156975D01*
X157170257Y-115156764D01*
X157117018Y-115142500D01*
X157116919Y-115142500D01*
X157116814Y-115142472D01*
X157116799Y-115142470D01*
X157116790Y-115142470D01*
X157060771Y-115142500D01*
X153205610Y-115142500D01*
X153138571Y-115122815D01*
X153117929Y-115106181D01*
X151263425Y-113251677D01*
X151257670Y-113242743D01*
X151251991Y-113238510D01*
X151242909Y-113219827D01*
X151235013Y-113207568D01*
X151232868Y-113201855D01*
X151232714Y-113201275D01*
X151232575Y-113201035D01*
X151232503Y-113200763D01*
X151204423Y-113152127D01*
X151176821Y-113104176D01*
X151176816Y-113104171D01*
X151176520Y-113103783D01*
X151176518Y-113103780D01*
X151176488Y-113103740D01*
X151136832Y-113064084D01*
X151112739Y-113039929D01*
X150789625Y-112715980D01*
X150789485Y-112715737D01*
X150749803Y-112676055D01*
X150710702Y-112636853D01*
X150710699Y-112636851D01*
X150710694Y-112636846D01*
X150710265Y-112636517D01*
X150710263Y-112636515D01*
X150710258Y-112636512D01*
X150661922Y-112608604D01*
X150661809Y-112608486D01*
X150661787Y-112608526D01*
X150613743Y-112580706D01*
X150613505Y-112580607D01*
X150613504Y-112580606D01*
X150613249Y-112580500D01*
X150559303Y-112566045D01*
X150559303Y-112566044D01*
X150559155Y-112566004D01*
X150559151Y-112566004D01*
X150558991Y-112565961D01*
X150558677Y-112565876D01*
X150558432Y-112565810D01*
X150505567Y-112551573D01*
X150505289Y-112551572D01*
X150505018Y-112551500D01*
X150504965Y-112551500D01*
X150449163Y-112551500D01*
X150393531Y-112551428D01*
X150393261Y-112551500D01*
X148759018Y-112551500D01*
X148646981Y-112551500D01*
X148539564Y-112580281D01*
X148539565Y-112580282D01*
X148538764Y-112580496D01*
X148538760Y-112580498D01*
X148441740Y-112636513D01*
X148441734Y-112636517D01*
X148362515Y-112715737D01*
X148362513Y-112715739D01*
X141950546Y-119127706D01*
X135522296Y-125555955D01*
X135522295Y-125555955D01*
X135522296Y-125555956D01*
X135460514Y-125617738D01*
X135460513Y-125617740D01*
X135404498Y-125714760D01*
X135404497Y-125714763D01*
X135375500Y-125822982D01*
X135375500Y-135245902D01*
X135355815Y-135312941D01*
X135339181Y-135333583D01*
X135320481Y-135352282D01*
X135320475Y-135352290D01*
X135241426Y-135489209D01*
X135241423Y-135489216D01*
X135200500Y-135641943D01*
X135200500Y-135800057D01*
X135241423Y-135952782D01*
X135241423Y-135952783D01*
X135241426Y-135952790D01*
X135320475Y-136089709D01*
X135320479Y-136089714D01*
X135320480Y-136089716D01*
X135432284Y-136201520D01*
X135432286Y-136201521D01*
X135432290Y-136201524D01*
X135550499Y-136269771D01*
X135569216Y-136280577D01*
X135721943Y-136321500D01*
X135721945Y-136321500D01*
X135880055Y-136321500D01*
X135880057Y-136321500D01*
X136032784Y-136280577D01*
X136051501Y-136269770D01*
X136119399Y-136253298D01*
X136185426Y-136276150D01*
X136228617Y-136331071D01*
X136237500Y-136377158D01*
X136237500Y-137785902D01*
X136217815Y-137852941D01*
X136201181Y-137873583D01*
X136182481Y-137892282D01*
X136182475Y-137892290D01*
X136103426Y-138029209D01*
X136103423Y-138029216D01*
X136062500Y-138181943D01*
X136062500Y-138340057D01*
X136075271Y-138387717D01*
X136103423Y-138492783D01*
X136103426Y-138492790D01*
X136182475Y-138629709D01*
X136182479Y-138629714D01*
X136182480Y-138629716D01*
X136294284Y-138741520D01*
X136294286Y-138741521D01*
X136300735Y-138746470D01*
X136299120Y-138748573D01*
X136338299Y-138789657D01*
X136351526Y-138858263D01*
X136325563Y-138923129D01*
X136315758Y-138934175D01*
X133561098Y-141688191D01*
X133499771Y-141721669D01*
X133473427Y-141724500D01*
X132478098Y-141724500D01*
X132411059Y-141704815D01*
X132390417Y-141688181D01*
X132371717Y-141669481D01*
X132371709Y-141669475D01*
X132234790Y-141590426D01*
X132234786Y-141590424D01*
X132234784Y-141590423D01*
X132082057Y-141549500D01*
X131923943Y-141549500D01*
X131771216Y-141590423D01*
X131771209Y-141590426D01*
X131634290Y-141669475D01*
X131634282Y-141669481D01*
X131522481Y-141781282D01*
X131522475Y-141781290D01*
X131443426Y-141918209D01*
X131443423Y-141918216D01*
X131402500Y-142070943D01*
X119109371Y-142070943D01*
X119208587Y-141941641D01*
X119342984Y-141708859D01*
X119349530Y-141693057D01*
X119369359Y-141645185D01*
X119445847Y-141460526D01*
X119515416Y-141200891D01*
X119550500Y-140934397D01*
X119550500Y-140665603D01*
X119515416Y-140399109D01*
X119445847Y-140139474D01*
X119404609Y-140039917D01*
X119342988Y-139891149D01*
X119342980Y-139891133D01*
X119265432Y-139756818D01*
X119208587Y-139658359D01*
X119088252Y-139501535D01*
X119044957Y-139445111D01*
X119044951Y-139445104D01*
X118854895Y-139255048D01*
X118854888Y-139255042D01*
X118641645Y-139091416D01*
X118641644Y-139091415D01*
X118641641Y-139091413D01*
X118516887Y-139019386D01*
X118408866Y-138957019D01*
X118408850Y-138957011D01*
X118160524Y-138854152D01*
X118027740Y-138818573D01*
X117900891Y-138784584D01*
X117900885Y-138784583D01*
X117900880Y-138784582D01*
X117634398Y-138749500D01*
X117634397Y-138749500D01*
X117365603Y-138749500D01*
X117365602Y-138749500D01*
X117099119Y-138784582D01*
X117099112Y-138784583D01*
X117099109Y-138784584D01*
X117044239Y-138799286D01*
X116839475Y-138854152D01*
X116591149Y-138957011D01*
X116591133Y-138957019D01*
X116358354Y-139091416D01*
X116145111Y-139255042D01*
X116145104Y-139255048D01*
X115955048Y-139445104D01*
X115955042Y-139445111D01*
X115791416Y-139658354D01*
X115657019Y-139891133D01*
X115657011Y-139891149D01*
X115554152Y-140139475D01*
X115484585Y-140399106D01*
X115484582Y-140399119D01*
X115449500Y-140665602D01*
X100300500Y-140665602D01*
X100300500Y-128550165D01*
X128428496Y-128550165D01*
X128428500Y-128550266D01*
X128428500Y-134087351D01*
X128460522Y-134289534D01*
X128523781Y-134484223D01*
X128571345Y-134577571D01*
X128605503Y-134644610D01*
X128616715Y-134666613D01*
X128737028Y-134832213D01*
X128881786Y-134976971D01*
X129006164Y-135067335D01*
X129047390Y-135097287D01*
X129146667Y-135147871D01*
X129229776Y-135190218D01*
X129229778Y-135190218D01*
X129229781Y-135190220D01*
X129334137Y-135224127D01*
X129424465Y-135253477D01*
X129520680Y-135268716D01*
X129626648Y-135285500D01*
X129626649Y-135285500D01*
X129831351Y-135285500D01*
X129831352Y-135285500D01*
X130033534Y-135253477D01*
X130228219Y-135190220D01*
X130410610Y-135097287D01*
X130503590Y-135029732D01*
X130576213Y-134976971D01*
X130576215Y-134976968D01*
X130576219Y-134976966D01*
X130720966Y-134832219D01*
X130720968Y-134832215D01*
X130720971Y-134832213D01*
X130773732Y-134759590D01*
X130841287Y-134666610D01*
X130934220Y-134484219D01*
X130997477Y-134289534D01*
X131029500Y-134087352D01*
X131029500Y-129033080D01*
X131049185Y-128966041D01*
X131065818Y-128945399D01*
X143176932Y-116835258D01*
X143297259Y-116669655D01*
X143364818Y-116537075D01*
X143390197Y-116487274D01*
X143390198Y-116487270D01*
X143390200Y-116487267D01*
X143453464Y-116292586D01*
X143485496Y-116090404D01*
X143485504Y-115885701D01*
X143453489Y-115683516D01*
X143390240Y-115488830D01*
X143297314Y-115306434D01*
X143280097Y-115282734D01*
X143177001Y-115140821D01*
X143176997Y-115140817D01*
X143032259Y-114996069D01*
X143029705Y-114994213D01*
X142866655Y-114875741D01*
X142866651Y-114875739D01*
X142866650Y-114875738D01*
X142684262Y-114782798D01*
X142489590Y-114719536D01*
X142489584Y-114719535D01*
X142287404Y-114687503D01*
X142287407Y-114687503D01*
X142082714Y-114687496D01*
X142082701Y-114687496D01*
X142082700Y-114687496D01*
X142082699Y-114687496D01*
X141880514Y-114719511D01*
X141880510Y-114719512D01*
X141685831Y-114782759D01*
X141503428Y-114875689D01*
X141337822Y-114995997D01*
X128884929Y-127447891D01*
X128884928Y-127447890D01*
X128881792Y-127451025D01*
X128881781Y-127451034D01*
X128820976Y-127511837D01*
X128799385Y-127533428D01*
X128799384Y-127533430D01*
X128737053Y-127595756D01*
X128737041Y-127595771D01*
X128671265Y-127686304D01*
X128671263Y-127686306D01*
X128616729Y-127761360D01*
X128616720Y-127761375D01*
X128564503Y-127863853D01*
X128564504Y-127863854D01*
X128564481Y-127863900D01*
X128523800Y-127943734D01*
X128523793Y-127943755D01*
X128523780Y-127943781D01*
X128523716Y-127943975D01*
X128523716Y-127943977D01*
X128492717Y-128039381D01*
X128492716Y-128039383D01*
X128460534Y-128138415D01*
X128460524Y-128138455D01*
X128445464Y-128233535D01*
X128445464Y-128233536D01*
X128428501Y-128340615D01*
X128428500Y-128340631D01*
X128428500Y-128442952D01*
X128428496Y-128550165D01*
X100300500Y-128550165D01*
X100300500Y-126434943D01*
X122624500Y-126434943D01*
X122624500Y-126593057D01*
X122651414Y-126693499D01*
X122665423Y-126745783D01*
X122665426Y-126745790D01*
X122744475Y-126882709D01*
X122744479Y-126882714D01*
X122744480Y-126882716D01*
X122856284Y-126994520D01*
X122856286Y-126994521D01*
X122856290Y-126994524D01*
X122946819Y-127046790D01*
X122993216Y-127073577D01*
X123145943Y-127114500D01*
X123145945Y-127114500D01*
X123304055Y-127114500D01*
X123304057Y-127114500D01*
X123456784Y-127073577D01*
X123593716Y-126994520D01*
X123705520Y-126882716D01*
X123784577Y-126745784D01*
X123825500Y-126593057D01*
X123825500Y-126434943D01*
X123784577Y-126282216D01*
X123745482Y-126214500D01*
X123705524Y-126145290D01*
X123705518Y-126145282D01*
X123686819Y-126126583D01*
X123653334Y-126065260D01*
X123650500Y-126038902D01*
X123650500Y-123189668D01*
X123670185Y-123122629D01*
X123686835Y-123101971D01*
X123711360Y-123077456D01*
X124916837Y-121872424D01*
X125895821Y-120893803D01*
X125957150Y-120860329D01*
X125983486Y-120857500D01*
X126010055Y-120857500D01*
X126010057Y-120857500D01*
X126162784Y-120816577D01*
X126299716Y-120737520D01*
X126411520Y-120625716D01*
X126490577Y-120488784D01*
X126531500Y-120336057D01*
X126531500Y-120177943D01*
X126490577Y-120025216D01*
X126454655Y-119962997D01*
X126411524Y-119888290D01*
X126411518Y-119888282D01*
X126299717Y-119776481D01*
X126299709Y-119776475D01*
X126162790Y-119697426D01*
X126162786Y-119697424D01*
X126162784Y-119697423D01*
X126010057Y-119656500D01*
X125851943Y-119656500D01*
X125699216Y-119697423D01*
X125699209Y-119697426D01*
X125562290Y-119776475D01*
X125562282Y-119776481D01*
X125450481Y-119888282D01*
X125450475Y-119888290D01*
X125371426Y-120025209D01*
X125371423Y-120025216D01*
X125330500Y-120177943D01*
X125330500Y-120204265D01*
X125310815Y-120271304D01*
X125294165Y-120291962D01*
X122969444Y-122615824D01*
X122963770Y-122621495D01*
X122963737Y-122621515D01*
X122922473Y-122662777D01*
X122922472Y-122662779D01*
X122922458Y-122662793D01*
X122884557Y-122700680D01*
X122884513Y-122700739D01*
X122856012Y-122750103D01*
X122856002Y-122750121D01*
X122828524Y-122797694D01*
X122828501Y-122797748D01*
X122814513Y-122849952D01*
X122814507Y-122849973D01*
X122799507Y-122905910D01*
X122799500Y-122905965D01*
X122799500Y-122905982D01*
X122799500Y-122961921D01*
X122799490Y-123017940D01*
X122799500Y-123017977D01*
X122799500Y-126038902D01*
X122779815Y-126105941D01*
X122763181Y-126126583D01*
X122744481Y-126145282D01*
X122744475Y-126145290D01*
X122665426Y-126282209D01*
X122665423Y-126282216D01*
X122624500Y-126434943D01*
X100300500Y-126434943D01*
X100300500Y-112400000D01*
X154000000Y-112400000D01*
X182000000Y-112400000D01*
X182000000Y-103381995D01*
X184699500Y-103381995D01*
X184699500Y-103618004D01*
X184699501Y-103618020D01*
X184730306Y-103852010D01*
X184791394Y-104079993D01*
X184881714Y-104298045D01*
X184881719Y-104298056D01*
X184952677Y-104420957D01*
X184999727Y-104502450D01*
X184999729Y-104502453D01*
X184999730Y-104502454D01*
X185143406Y-104689697D01*
X185143412Y-104689704D01*
X185310295Y-104856587D01*
X185310301Y-104856592D01*
X185497550Y-105000273D01*
X185628918Y-105076118D01*
X185701943Y-105118280D01*
X185701948Y-105118282D01*
X185701951Y-105118284D01*
X185920007Y-105208606D01*
X186147986Y-105269693D01*
X186381989Y-105300500D01*
X186381996Y-105300500D01*
X186618004Y-105300500D01*
X186618011Y-105300500D01*
X186852014Y-105269693D01*
X187079993Y-105208606D01*
X187298049Y-105118284D01*
X187502450Y-105000273D01*
X187689699Y-104856592D01*
X187856592Y-104689699D01*
X188000273Y-104502450D01*
X188118284Y-104298049D01*
X188208606Y-104079993D01*
X188269693Y-103852014D01*
X188300500Y-103618011D01*
X188300500Y-103381989D01*
X188269693Y-103147986D01*
X188208606Y-102920007D01*
X188118284Y-102701951D01*
X188118282Y-102701948D01*
X188118280Y-102701943D01*
X188076118Y-102628918D01*
X188000273Y-102497550D01*
X187856592Y-102310301D01*
X187856587Y-102310295D01*
X187689704Y-102143412D01*
X187689697Y-102143406D01*
X187502454Y-101999730D01*
X187502453Y-101999729D01*
X187502450Y-101999727D01*
X187420957Y-101952677D01*
X187298056Y-101881719D01*
X187298045Y-101881714D01*
X187079993Y-101791394D01*
X186852010Y-101730306D01*
X186618020Y-101699501D01*
X186618017Y-101699500D01*
X186618011Y-101699500D01*
X186381989Y-101699500D01*
X186381983Y-101699500D01*
X186381979Y-101699501D01*
X186147989Y-101730306D01*
X185920006Y-101791394D01*
X185701954Y-101881714D01*
X185701943Y-101881719D01*
X185497545Y-101999730D01*
X185310302Y-102143406D01*
X185310295Y-102143412D01*
X185143412Y-102310295D01*
X185143406Y-102310302D01*
X184999730Y-102497545D01*
X184881719Y-102701943D01*
X184881714Y-102701954D01*
X184791394Y-102920006D01*
X184730306Y-103147989D01*
X184699501Y-103381979D01*
X184699500Y-103381995D01*
X182000000Y-103381995D01*
X182000000Y-101400000D01*
X154000000Y-101400000D01*
X154000000Y-112400000D01*
X100300500Y-112400000D01*
X100300500Y-103381995D01*
X101699500Y-103381995D01*
X101699500Y-103618004D01*
X101699501Y-103618020D01*
X101730306Y-103852010D01*
X101791394Y-104079993D01*
X101881714Y-104298045D01*
X101881719Y-104298056D01*
X101952677Y-104420957D01*
X101999727Y-104502450D01*
X101999729Y-104502453D01*
X101999730Y-104502454D01*
X102143406Y-104689697D01*
X102143412Y-104689704D01*
X102310295Y-104856587D01*
X102310301Y-104856592D01*
X102497550Y-105000273D01*
X102628918Y-105076118D01*
X102701943Y-105118280D01*
X102701948Y-105118282D01*
X102701951Y-105118284D01*
X102920007Y-105208606D01*
X103147986Y-105269693D01*
X103381989Y-105300500D01*
X103381996Y-105300500D01*
X103618004Y-105300500D01*
X103618011Y-105300500D01*
X103852014Y-105269693D01*
X104079993Y-105208606D01*
X104298049Y-105118284D01*
X104502450Y-105000273D01*
X104689699Y-104856592D01*
X104856592Y-104689699D01*
X105000273Y-104502450D01*
X105118284Y-104298049D01*
X105208606Y-104079993D01*
X105269693Y-103852014D01*
X105300500Y-103618011D01*
X105300500Y-103381989D01*
X105269693Y-103147986D01*
X105208606Y-102920007D01*
X105118284Y-102701951D01*
X105118282Y-102701948D01*
X105118280Y-102701943D01*
X105076118Y-102628918D01*
X105000273Y-102497550D01*
X104856592Y-102310301D01*
X104856587Y-102310295D01*
X104689704Y-102143412D01*
X104689697Y-102143406D01*
X104502454Y-101999730D01*
X104502453Y-101999729D01*
X104502450Y-101999727D01*
X104420957Y-101952677D01*
X104298056Y-101881719D01*
X104298045Y-101881714D01*
X104079993Y-101791394D01*
X103852010Y-101730306D01*
X103618020Y-101699501D01*
X103618017Y-101699500D01*
X103618011Y-101699500D01*
X103381989Y-101699500D01*
X103381983Y-101699500D01*
X103381979Y-101699501D01*
X103147989Y-101730306D01*
X102920006Y-101791394D01*
X102701954Y-101881714D01*
X102701943Y-101881719D01*
X102497545Y-101999730D01*
X102310302Y-102143406D01*
X102310295Y-102143412D01*
X102143412Y-102310295D01*
X102143406Y-102310302D01*
X101999730Y-102497545D01*
X101881719Y-102701943D01*
X101881714Y-102701954D01*
X101791394Y-102920006D01*
X101730306Y-103147989D01*
X101699501Y-103381979D01*
X101699500Y-103381995D01*
X100300500Y-103381995D01*
X100300500Y-100424500D01*
X100320185Y-100357461D01*
X100372989Y-100311706D01*
X100424500Y-100300500D01*
X189575500Y-100300500D01*
X189642539Y-100320185D01*
G37*
%TD.AperFunction*%
%TD*%
M02*
