M48
; DRILL file {KiCad 9.0.9} date 2026-10-02T07:00:57+0000
; FORMAT={-:-/ absolute / metric / decimal}
; #@! TF.CreationDate,2026-10-02T07:00:57+00:00
; #@! TF.GenerationSoftware,Kicad,Pcbnew,9.0.9
; #@! TF.FileFunction,Plated,1,2,PTH
FMAT,2
METRIC
; #@! TA.AperFunction,Plated,PTH,ViaDrill
T1C0.300
; #@! TA.AperFunction,Plated,PTH,ComponentDrill
T2C0.300
; #@! TA.AperFunction,Plated,PTH,ViaDrill
T3C0.400
; #@! TA.AperFunction,Plated,PTH,ComponentDrill
T4C0.600
; #@! TA.AperFunction,Plated,PTH,ComponentDrill
T5C1.000
; #@! TA.AperFunction,Plated,PTH,ComponentDrill
T6C1.300
; #@! TA.AperFunction,Plated,PTH,ComponentDrill
T7C2.000
%
G90
G05
T1
X101.5Y-137.65
X102.2Y-131.8
X102.9Y-138.3
X109.3Y-143.2
X110.463Y-136.454
X111.497Y-113.062
X111.6Y-138.3
X111.78Y-135.957
X112.254Y-135.28
X117.892Y-143.448
X118.469Y-109.556
X118.469Y-119.401
X121.6Y-108.5
X121.698Y-110.248
X122.037Y-120.225
X123.225Y-126.514
X124.314Y-111.773
X125.44Y-111.834
X125.941Y-108.246
X130.309Y-118.75
X132.971Y-109.554
X133.396Y-141.711
X134.33Y-121.653
X134.33Y-127.688
X134.33Y-133.852
X135.801Y-138.27
X135.973Y-117.404
X135.973Y-123.623
X138.156Y-136.952
X140.768Y-136.984
X140.79Y-138.306
X140.83Y-132.238
X142.116Y-127.545
X142.116Y-130.489
X143.11Y-133.026
X143.84Y-137.048
X143.923Y-138.069
X144.082Y-129.208
X144.082Y-131.044
X144.736Y-137.586
X146.452Y-137.922
X146.457Y-141.918
X146.836Y-130.55
X147.212Y-135.721
X149.26Y-109.05
X149.668Y-115.501
X149.772Y-117.476
X150.939Y-138.261
X151.17Y-153.08
X151.5Y-111.29
X151.602Y-136.678
X152.45Y-106.768
X153.828Y-116.899
X153.844Y-120.5
X154.026Y-119.669
X154.133Y-117.752
X155.268Y-130.15
X155.632Y-115.9
X156.916Y-130.838
X156.916Y-137.241
X157.218Y-125.146
X157.355Y-120.638
X157.76Y-118.6
X157.969Y-117.796
X157.976Y-116.503
X157.985Y-122.5
X157.994Y-121.144
X158.934Y-142.502
X159.19Y-153.96
X159.272Y-136.5
X160.504Y-119.5
X160.523Y-115.228
X160.575Y-144.719
X161.533Y-119.253
X162.973Y-123.561
X163.348Y-124.433
X163.855Y-118.144
X164.503Y-116.5
X166.212Y-129.125
X167.716Y-122.408
X168.0Y-132.875
X170.757Y-122.904
X173.984Y-124.725
X174.589Y-138.238
X175.49Y-119.316
X175.498Y-113.512
X176.95Y-130.197
X177.904Y-134.9
X177.906Y-129.382
X179.398Y-121.0
X179.398Y-132.279
X179.757Y-137.896
X182.19Y-133.725
X182.207Y-130.775
X183.476Y-128.18
X184.514Y-118.128
T2
X168.36Y-119.1
X168.36Y-120.3
X169.56Y-119.1
X169.56Y-120.3
T3
X102.3Y-135.8
X105.7Y-133.5
X107.975Y-152.6
X109.5Y-137.2
X120.9Y-144.2
X120.9Y-145.4
X120.9Y-146.6
X120.9Y-151.2
X120.9Y-152.4
X120.9Y-153.6
X121.95Y-144.2
X121.95Y-145.4
X121.95Y-146.6
X121.95Y-151.2
X121.95Y-152.4
X121.95Y-153.6
X133.0Y-145.1
X133.0Y-146.2
X134.2Y-145.1
X134.2Y-146.2
X135.4Y-145.1
X135.4Y-146.2
X140.0Y-145.1
X140.0Y-146.2
X141.2Y-145.1
X141.2Y-146.2
X142.4Y-145.1
X142.4Y-146.2
X147.0Y-145.1
X147.0Y-146.2
X148.2Y-145.1
X148.2Y-146.2
X149.4Y-145.1
X149.4Y-146.2
X154.0Y-145.1
X154.0Y-146.2
X155.2Y-145.1
X155.2Y-146.2
X156.4Y-145.1
X156.4Y-146.2
T5
X169.95Y-141.05
X169.95Y-153.05
X187.0Y-109.2
X187.0Y-111.74
X187.0Y-114.28
X187.0Y-116.82
X187.0Y-119.36
X187.0Y-121.9
X187.0Y-124.44
T6
X105.0Y-163.5
X110.08Y-163.5
X117.5Y-163.5
X122.58Y-163.5
X136.0Y-163.5
X141.08Y-163.5
X146.16Y-163.5
X151.24Y-163.5
X168.0Y-147.0
X177.0Y-163.5
X182.08Y-163.5
X182.15Y-153.05
X182.2Y-141.0
T7
X117.5Y-140.8
X117.5Y-150.0
T4
X181.32Y-128.18G85X182.42Y-128.18
G05
X181.32Y-136.82G85X182.42Y-136.82
G05
X185.75Y-128.18G85X186.35Y-128.18
G05
X185.75Y-136.82G85X186.35Y-136.82
G05
M30
