%TF.GenerationSoftware,KiCad,Pcbnew,9.0.9*%
%TF.CreationDate,2026-10-01T03:55:59+00:00*%
%TF.ProjectId,AP02,41503032-2e6b-4696-9361-645f70636258,rev?*%
%TF.SameCoordinates,Original*%
%TF.FileFunction,Legend,Bot*%
%TF.FilePolarity,Positive*%
%FSLAX46Y46*%
G04 Gerber Fmt 4.6, Leading zero omitted, Abs format (unit mm)*
G04 Created by KiCad (PCBNEW 9.0.9) date 2026-10-01 03:55:59*
%MOMM*%
%LPD*%
G01*
G04 APERTURE LIST*
G04 Aperture macros list*
%AMRoundRect*
0 Rectangle with rounded corners*
0 $1 Rounding radius*
0 $2 $3 $4 $5 $6 $7 $8 $9 X,Y pos of 4 corners*
0 Add a 4 corners polygon primitive as box body*
4,1,4,$2,$3,$4,$5,$6,$7,$8,$9,$2,$3,0*
0 Add four circle primitives for the rounded corners*
1,1,$1+$1,$2,$3*
1,1,$1+$1,$4,$5*
1,1,$1+$1,$6,$7*
1,1,$1+$1,$8,$9*
0 Add four rect primitives between the rounded corners*
20,1,$1+$1,$2,$3,$4,$5,0*
20,1,$1+$1,$4,$5,$6,$7,0*
20,1,$1+$1,$6,$7,$8,$9,0*
20,1,$1+$1,$8,$9,$2,$3,0*%
G04 Aperture macros list end*
%ADD10C,0.150000*%
%ADD11C,0.210000*%
%ADD12C,3.000000*%
%ADD13C,2.500000*%
%ADD14C,2.400000*%
%ADD15C,3.500000*%
%ADD16RoundRect,0.250000X-1.050000X-1.050000X1.050000X-1.050000X1.050000X1.050000X-1.050000X1.050000X0*%
%ADD17C,2.600000*%
%ADD18C,3.200000*%
%ADD19C,0.650000*%
%ADD20O,2.100000X1.000000*%
%ADD21O,1.600000X1.000000*%
%ADD22R,1.700000X1.700000*%
%ADD23C,1.700000*%
G04 APERTURE END LIST*
D10*
X162166669Y-104359580D02*
X162214288Y-104407200D01*
X162214288Y-104407200D02*
X162357145Y-104454819D01*
X162357145Y-104454819D02*
X162452383Y-104454819D01*
X162452383Y-104454819D02*
X162595240Y-104407200D01*
X162595240Y-104407200D02*
X162690478Y-104311961D01*
X162690478Y-104311961D02*
X162738097Y-104216723D01*
X162738097Y-104216723D02*
X162785716Y-104026247D01*
X162785716Y-104026247D02*
X162785716Y-103883390D01*
X162785716Y-103883390D02*
X162738097Y-103692914D01*
X162738097Y-103692914D02*
X162690478Y-103597676D01*
X162690478Y-103597676D02*
X162595240Y-103502438D01*
X162595240Y-103502438D02*
X162452383Y-103454819D01*
X162452383Y-103454819D02*
X162357145Y-103454819D01*
X162357145Y-103454819D02*
X162214288Y-103502438D01*
X162214288Y-103502438D02*
X162166669Y-103550057D01*
X161595240Y-104454819D02*
X161690478Y-104407200D01*
X161690478Y-104407200D02*
X161738097Y-104359580D01*
X161738097Y-104359580D02*
X161785716Y-104264342D01*
X161785716Y-104264342D02*
X161785716Y-103978628D01*
X161785716Y-103978628D02*
X161738097Y-103883390D01*
X161738097Y-103883390D02*
X161690478Y-103835771D01*
X161690478Y-103835771D02*
X161595240Y-103788152D01*
X161595240Y-103788152D02*
X161452383Y-103788152D01*
X161452383Y-103788152D02*
X161357145Y-103835771D01*
X161357145Y-103835771D02*
X161309526Y-103883390D01*
X161309526Y-103883390D02*
X161261907Y-103978628D01*
X161261907Y-103978628D02*
X161261907Y-104264342D01*
X161261907Y-104264342D02*
X161309526Y-104359580D01*
X161309526Y-104359580D02*
X161357145Y-104407200D01*
X161357145Y-104407200D02*
X161452383Y-104454819D01*
X161452383Y-104454819D02*
X161595240Y-104454819D01*
X160833335Y-104454819D02*
X160833335Y-103454819D01*
X160833335Y-103835771D02*
X160738097Y-103788152D01*
X160738097Y-103788152D02*
X160547621Y-103788152D01*
X160547621Y-103788152D02*
X160452383Y-103835771D01*
X160452383Y-103835771D02*
X160404764Y-103883390D01*
X160404764Y-103883390D02*
X160357145Y-103978628D01*
X160357145Y-103978628D02*
X160357145Y-104264342D01*
X160357145Y-104264342D02*
X160404764Y-104359580D01*
X160404764Y-104359580D02*
X160452383Y-104407200D01*
X160452383Y-104407200D02*
X160547621Y-104454819D01*
X160547621Y-104454819D02*
X160738097Y-104454819D01*
X160738097Y-104454819D02*
X160833335Y-104407200D01*
X159928573Y-104454819D02*
X159928573Y-103788152D01*
X159928573Y-103978628D02*
X159880954Y-103883390D01*
X159880954Y-103883390D02*
X159833335Y-103835771D01*
X159833335Y-103835771D02*
X159738097Y-103788152D01*
X159738097Y-103788152D02*
X159642859Y-103788152D01*
X158928573Y-104407200D02*
X159023811Y-104454819D01*
X159023811Y-104454819D02*
X159214287Y-104454819D01*
X159214287Y-104454819D02*
X159309525Y-104407200D01*
X159309525Y-104407200D02*
X159357144Y-104311961D01*
X159357144Y-104311961D02*
X159357144Y-103931009D01*
X159357144Y-103931009D02*
X159309525Y-103835771D01*
X159309525Y-103835771D02*
X159214287Y-103788152D01*
X159214287Y-103788152D02*
X159023811Y-103788152D01*
X159023811Y-103788152D02*
X158928573Y-103835771D01*
X158928573Y-103835771D02*
X158880954Y-103931009D01*
X158880954Y-103931009D02*
X158880954Y-104026247D01*
X158880954Y-104026247D02*
X159357144Y-104121485D01*
X157738096Y-103550057D02*
X157690477Y-103502438D01*
X157690477Y-103502438D02*
X157595239Y-103454819D01*
X157595239Y-103454819D02*
X157357144Y-103454819D01*
X157357144Y-103454819D02*
X157261906Y-103502438D01*
X157261906Y-103502438D02*
X157214287Y-103550057D01*
X157214287Y-103550057D02*
X157166668Y-103645295D01*
X157166668Y-103645295D02*
X157166668Y-103740533D01*
X157166668Y-103740533D02*
X157214287Y-103883390D01*
X157214287Y-103883390D02*
X157785715Y-104454819D01*
X157785715Y-104454819D02*
X157166668Y-104454819D01*
X155833334Y-104454819D02*
X155928572Y-104407200D01*
X155928572Y-104407200D02*
X155976191Y-104359580D01*
X155976191Y-104359580D02*
X156023810Y-104264342D01*
X156023810Y-104264342D02*
X156023810Y-103978628D01*
X156023810Y-103978628D02*
X155976191Y-103883390D01*
X155976191Y-103883390D02*
X155928572Y-103835771D01*
X155928572Y-103835771D02*
X155833334Y-103788152D01*
X155833334Y-103788152D02*
X155690477Y-103788152D01*
X155690477Y-103788152D02*
X155595239Y-103835771D01*
X155595239Y-103835771D02*
X155547620Y-103883390D01*
X155547620Y-103883390D02*
X155500001Y-103978628D01*
X155500001Y-103978628D02*
X155500001Y-104264342D01*
X155500001Y-104264342D02*
X155547620Y-104359580D01*
X155547620Y-104359580D02*
X155595239Y-104407200D01*
X155595239Y-104407200D02*
X155690477Y-104454819D01*
X155690477Y-104454819D02*
X155833334Y-104454819D01*
X155166667Y-103788152D02*
X154642858Y-103788152D01*
X154642858Y-103788152D02*
X155166667Y-104454819D01*
X155166667Y-104454819D02*
X154642858Y-104454819D01*
X152738095Y-104073866D02*
X151976191Y-104073866D01*
X149976190Y-103788152D02*
X149976190Y-104454819D01*
X149976190Y-103883390D02*
X149928571Y-103835771D01*
X149928571Y-103835771D02*
X149833333Y-103788152D01*
X149833333Y-103788152D02*
X149690476Y-103788152D01*
X149690476Y-103788152D02*
X149595238Y-103835771D01*
X149595238Y-103835771D02*
X149547619Y-103931009D01*
X149547619Y-103931009D02*
X149547619Y-104454819D01*
X148928571Y-104454819D02*
X149023809Y-104407200D01*
X149023809Y-104407200D02*
X149071428Y-104359580D01*
X149071428Y-104359580D02*
X149119047Y-104264342D01*
X149119047Y-104264342D02*
X149119047Y-103978628D01*
X149119047Y-103978628D02*
X149071428Y-103883390D01*
X149071428Y-103883390D02*
X149023809Y-103835771D01*
X149023809Y-103835771D02*
X148928571Y-103788152D01*
X148928571Y-103788152D02*
X148785714Y-103788152D01*
X148785714Y-103788152D02*
X148690476Y-103835771D01*
X148690476Y-103835771D02*
X148642857Y-103883390D01*
X148642857Y-103883390D02*
X148595238Y-103978628D01*
X148595238Y-103978628D02*
X148595238Y-104264342D01*
X148595238Y-104264342D02*
X148642857Y-104359580D01*
X148642857Y-104359580D02*
X148690476Y-104407200D01*
X148690476Y-104407200D02*
X148785714Y-104454819D01*
X148785714Y-104454819D02*
X148928571Y-104454819D01*
X146976190Y-104407200D02*
X147071428Y-104454819D01*
X147071428Y-104454819D02*
X147261904Y-104454819D01*
X147261904Y-104454819D02*
X147357142Y-104407200D01*
X147357142Y-104407200D02*
X147404761Y-104359580D01*
X147404761Y-104359580D02*
X147452380Y-104264342D01*
X147452380Y-104264342D02*
X147452380Y-103978628D01*
X147452380Y-103978628D02*
X147404761Y-103883390D01*
X147404761Y-103883390D02*
X147357142Y-103835771D01*
X147357142Y-103835771D02*
X147261904Y-103788152D01*
X147261904Y-103788152D02*
X147071428Y-103788152D01*
X147071428Y-103788152D02*
X146976190Y-103835771D01*
X146404761Y-104454819D02*
X146499999Y-104407200D01*
X146499999Y-104407200D02*
X146547618Y-104359580D01*
X146547618Y-104359580D02*
X146595237Y-104264342D01*
X146595237Y-104264342D02*
X146595237Y-103978628D01*
X146595237Y-103978628D02*
X146547618Y-103883390D01*
X146547618Y-103883390D02*
X146499999Y-103835771D01*
X146499999Y-103835771D02*
X146404761Y-103788152D01*
X146404761Y-103788152D02*
X146261904Y-103788152D01*
X146261904Y-103788152D02*
X146166666Y-103835771D01*
X146166666Y-103835771D02*
X146119047Y-103883390D01*
X146119047Y-103883390D02*
X146071428Y-103978628D01*
X146071428Y-103978628D02*
X146071428Y-104264342D01*
X146071428Y-104264342D02*
X146119047Y-104359580D01*
X146119047Y-104359580D02*
X146166666Y-104407200D01*
X146166666Y-104407200D02*
X146261904Y-104454819D01*
X146261904Y-104454819D02*
X146404761Y-104454819D01*
X145642856Y-103788152D02*
X145642856Y-104454819D01*
X145642856Y-103883390D02*
X145595237Y-103835771D01*
X145595237Y-103835771D02*
X145499999Y-103788152D01*
X145499999Y-103788152D02*
X145357142Y-103788152D01*
X145357142Y-103788152D02*
X145261904Y-103835771D01*
X145261904Y-103835771D02*
X145214285Y-103931009D01*
X145214285Y-103931009D02*
X145214285Y-104454819D01*
X144357142Y-104407200D02*
X144452380Y-104454819D01*
X144452380Y-104454819D02*
X144642856Y-104454819D01*
X144642856Y-104454819D02*
X144738094Y-104407200D01*
X144738094Y-104407200D02*
X144785713Y-104311961D01*
X144785713Y-104311961D02*
X144785713Y-103931009D01*
X144785713Y-103931009D02*
X144738094Y-103835771D01*
X144738094Y-103835771D02*
X144642856Y-103788152D01*
X144642856Y-103788152D02*
X144452380Y-103788152D01*
X144452380Y-103788152D02*
X144357142Y-103835771D01*
X144357142Y-103835771D02*
X144309523Y-103931009D01*
X144309523Y-103931009D02*
X144309523Y-104026247D01*
X144309523Y-104026247D02*
X144785713Y-104121485D01*
X143452380Y-104407200D02*
X143547618Y-104454819D01*
X143547618Y-104454819D02*
X143738094Y-104454819D01*
X143738094Y-104454819D02*
X143833332Y-104407200D01*
X143833332Y-104407200D02*
X143880951Y-104359580D01*
X143880951Y-104359580D02*
X143928570Y-104264342D01*
X143928570Y-104264342D02*
X143928570Y-103978628D01*
X143928570Y-103978628D02*
X143880951Y-103883390D01*
X143880951Y-103883390D02*
X143833332Y-103835771D01*
X143833332Y-103835771D02*
X143738094Y-103788152D01*
X143738094Y-103788152D02*
X143547618Y-103788152D01*
X143547618Y-103788152D02*
X143452380Y-103835771D01*
X143166665Y-103788152D02*
X142785713Y-103788152D01*
X143023808Y-103454819D02*
X143023808Y-104311961D01*
X143023808Y-104311961D02*
X142976189Y-104407200D01*
X142976189Y-104407200D02*
X142880951Y-104454819D01*
X142880951Y-104454819D02*
X142785713Y-104454819D01*
X142023808Y-104454819D02*
X142023808Y-103931009D01*
X142023808Y-103931009D02*
X142071427Y-103835771D01*
X142071427Y-103835771D02*
X142166665Y-103788152D01*
X142166665Y-103788152D02*
X142357141Y-103788152D01*
X142357141Y-103788152D02*
X142452379Y-103835771D01*
X142023808Y-104407200D02*
X142119046Y-104454819D01*
X142119046Y-104454819D02*
X142357141Y-104454819D01*
X142357141Y-104454819D02*
X142452379Y-104407200D01*
X142452379Y-104407200D02*
X142499998Y-104311961D01*
X142499998Y-104311961D02*
X142499998Y-104216723D01*
X142499998Y-104216723D02*
X142452379Y-104121485D01*
X142452379Y-104121485D02*
X142357141Y-104073866D01*
X142357141Y-104073866D02*
X142119046Y-104073866D01*
X142119046Y-104073866D02*
X142023808Y-104026247D01*
X141547617Y-104454819D02*
X141547617Y-103788152D01*
X141547617Y-103978628D02*
X141499998Y-103883390D01*
X141499998Y-103883390D02*
X141452379Y-103835771D01*
X141452379Y-103835771D02*
X141357141Y-103788152D01*
X141357141Y-103788152D02*
X141261903Y-103788152D01*
X139642855Y-104454819D02*
X140214283Y-104454819D01*
X139928569Y-104454819D02*
X139928569Y-103454819D01*
X139928569Y-103454819D02*
X140023807Y-103597676D01*
X140023807Y-103597676D02*
X140119045Y-103692914D01*
X140119045Y-103692914D02*
X140214283Y-103740533D01*
X139261902Y-103550057D02*
X139214283Y-103502438D01*
X139214283Y-103502438D02*
X139119045Y-103454819D01*
X139119045Y-103454819D02*
X138880950Y-103454819D01*
X138880950Y-103454819D02*
X138785712Y-103502438D01*
X138785712Y-103502438D02*
X138738093Y-103550057D01*
X138738093Y-103550057D02*
X138690474Y-103645295D01*
X138690474Y-103645295D02*
X138690474Y-103740533D01*
X138690474Y-103740533D02*
X138738093Y-103883390D01*
X138738093Y-103883390D02*
X139309521Y-104454819D01*
X139309521Y-104454819D02*
X138690474Y-104454819D01*
X138357140Y-103454819D02*
X137690474Y-103454819D01*
X137690474Y-103454819D02*
X138119045Y-104454819D01*
X137452378Y-103454819D02*
X137119045Y-104454819D01*
X137119045Y-104454819D02*
X136785712Y-103454819D01*
X135261902Y-104454819D02*
X135261902Y-103931009D01*
X135261902Y-103931009D02*
X135309521Y-103835771D01*
X135309521Y-103835771D02*
X135404759Y-103788152D01*
X135404759Y-103788152D02*
X135595235Y-103788152D01*
X135595235Y-103788152D02*
X135690473Y-103835771D01*
X135261902Y-104407200D02*
X135357140Y-104454819D01*
X135357140Y-104454819D02*
X135595235Y-104454819D01*
X135595235Y-104454819D02*
X135690473Y-104407200D01*
X135690473Y-104407200D02*
X135738092Y-104311961D01*
X135738092Y-104311961D02*
X135738092Y-104216723D01*
X135738092Y-104216723D02*
X135690473Y-104121485D01*
X135690473Y-104121485D02*
X135595235Y-104073866D01*
X135595235Y-104073866D02*
X135357140Y-104073866D01*
X135357140Y-104073866D02*
X135261902Y-104026247D01*
X133738092Y-103454819D02*
X133738092Y-104169104D01*
X133738092Y-104169104D02*
X133785711Y-104311961D01*
X133785711Y-104311961D02*
X133880949Y-104407200D01*
X133880949Y-104407200D02*
X134023806Y-104454819D01*
X134023806Y-104454819D02*
X134119044Y-104454819D01*
X132738092Y-104454819D02*
X133309520Y-104454819D01*
X133023806Y-104454819D02*
X133023806Y-103454819D01*
X133023806Y-103454819D02*
X133119044Y-103597676D01*
X133119044Y-103597676D02*
X133214282Y-103692914D01*
X133214282Y-103692914D02*
X133309520Y-103740533D01*
X131595235Y-103407200D02*
X132452377Y-104692914D01*
X130976187Y-103454819D02*
X130976187Y-104169104D01*
X130976187Y-104169104D02*
X131023806Y-104311961D01*
X131023806Y-104311961D02*
X131119044Y-104407200D01*
X131119044Y-104407200D02*
X131261901Y-104454819D01*
X131261901Y-104454819D02*
X131357139Y-104454819D01*
X130595234Y-103454819D02*
X129976187Y-103454819D01*
X129976187Y-103454819D02*
X130309520Y-103835771D01*
X130309520Y-103835771D02*
X130166663Y-103835771D01*
X130166663Y-103835771D02*
X130071425Y-103883390D01*
X130071425Y-103883390D02*
X130023806Y-103931009D01*
X130023806Y-103931009D02*
X129976187Y-104026247D01*
X129976187Y-104026247D02*
X129976187Y-104264342D01*
X129976187Y-104264342D02*
X130023806Y-104359580D01*
X130023806Y-104359580D02*
X130071425Y-104407200D01*
X130071425Y-104407200D02*
X130166663Y-104454819D01*
X130166663Y-104454819D02*
X130452377Y-104454819D01*
X130452377Y-104454819D02*
X130547615Y-104407200D01*
X130547615Y-104407200D02*
X130595234Y-104359580D01*
X128833330Y-103407200D02*
X129690472Y-104692914D01*
X128214282Y-103454819D02*
X128214282Y-104169104D01*
X128214282Y-104169104D02*
X128261901Y-104311961D01*
X128261901Y-104311961D02*
X128357139Y-104407200D01*
X128357139Y-104407200D02*
X128499996Y-104454819D01*
X128499996Y-104454819D02*
X128595234Y-104454819D01*
X127309520Y-103788152D02*
X127309520Y-104454819D01*
X127547615Y-103407200D02*
X127785710Y-104121485D01*
X127785710Y-104121485D02*
X127166663Y-104121485D01*
X184761905Y-158454819D02*
X185333333Y-158454819D01*
X185047619Y-158454819D02*
X185047619Y-157454819D01*
X185047619Y-157454819D02*
X185142857Y-157597676D01*
X185142857Y-157597676D02*
X185238095Y-157692914D01*
X185238095Y-157692914D02*
X185333333Y-157740533D01*
X184380952Y-157550057D02*
X184333333Y-157502438D01*
X184333333Y-157502438D02*
X184238095Y-157454819D01*
X184238095Y-157454819D02*
X184000000Y-157454819D01*
X184000000Y-157454819D02*
X183904762Y-157502438D01*
X183904762Y-157502438D02*
X183857143Y-157550057D01*
X183857143Y-157550057D02*
X183809524Y-157645295D01*
X183809524Y-157645295D02*
X183809524Y-157740533D01*
X183809524Y-157740533D02*
X183857143Y-157883390D01*
X183857143Y-157883390D02*
X184428571Y-158454819D01*
X184428571Y-158454819D02*
X183809524Y-158454819D01*
X183476190Y-157454819D02*
X182809524Y-157454819D01*
X182809524Y-157454819D02*
X183238095Y-158454819D01*
X182428571Y-158073866D02*
X181666667Y-158073866D01*
X181238095Y-157550057D02*
X181190476Y-157502438D01*
X181190476Y-157502438D02*
X181095238Y-157454819D01*
X181095238Y-157454819D02*
X180857143Y-157454819D01*
X180857143Y-157454819D02*
X180761905Y-157502438D01*
X180761905Y-157502438D02*
X180714286Y-157550057D01*
X180714286Y-157550057D02*
X180666667Y-157645295D01*
X180666667Y-157645295D02*
X180666667Y-157740533D01*
X180666667Y-157740533D02*
X180714286Y-157883390D01*
X180714286Y-157883390D02*
X181285714Y-158454819D01*
X181285714Y-158454819D02*
X180666667Y-158454819D01*
X179809524Y-157788152D02*
X179809524Y-158454819D01*
X180047619Y-157407200D02*
X180285714Y-158121485D01*
X180285714Y-158121485D02*
X179666667Y-158121485D01*
X179095238Y-157454819D02*
X179000000Y-157454819D01*
X179000000Y-157454819D02*
X178904762Y-157502438D01*
X178904762Y-157502438D02*
X178857143Y-157550057D01*
X178857143Y-157550057D02*
X178809524Y-157645295D01*
X178809524Y-157645295D02*
X178761905Y-157835771D01*
X178761905Y-157835771D02*
X178761905Y-158073866D01*
X178761905Y-158073866D02*
X178809524Y-158264342D01*
X178809524Y-158264342D02*
X178857143Y-158359580D01*
X178857143Y-158359580D02*
X178904762Y-158407200D01*
X178904762Y-158407200D02*
X179000000Y-158454819D01*
X179000000Y-158454819D02*
X179095238Y-158454819D01*
X179095238Y-158454819D02*
X179190476Y-158407200D01*
X179190476Y-158407200D02*
X179238095Y-158359580D01*
X179238095Y-158359580D02*
X179285714Y-158264342D01*
X179285714Y-158264342D02*
X179333333Y-158073866D01*
X179333333Y-158073866D02*
X179333333Y-157835771D01*
X179333333Y-157835771D02*
X179285714Y-157645295D01*
X179285714Y-157645295D02*
X179238095Y-157550057D01*
X179238095Y-157550057D02*
X179190476Y-157502438D01*
X179190476Y-157502438D02*
X179095238Y-157454819D01*
X178476190Y-157454819D02*
X178142857Y-158454819D01*
X178142857Y-158454819D02*
X177809524Y-157454819D01*
X177619047Y-158073866D02*
X177571428Y-158026247D01*
X177571428Y-158026247D02*
X177476190Y-157978628D01*
X177476190Y-157978628D02*
X177285714Y-158073866D01*
X177285714Y-158073866D02*
X177190476Y-158026247D01*
X177190476Y-158026247D02*
X177142857Y-157978628D01*
X175476190Y-158454819D02*
X176047618Y-158454819D01*
X175761904Y-158454819D02*
X175761904Y-157454819D01*
X175761904Y-157454819D02*
X175857142Y-157597676D01*
X175857142Y-157597676D02*
X175952380Y-157692914D01*
X175952380Y-157692914D02*
X176047618Y-157740533D01*
X174857142Y-157454819D02*
X174761904Y-157454819D01*
X174761904Y-157454819D02*
X174666666Y-157502438D01*
X174666666Y-157502438D02*
X174619047Y-157550057D01*
X174619047Y-157550057D02*
X174571428Y-157645295D01*
X174571428Y-157645295D02*
X174523809Y-157835771D01*
X174523809Y-157835771D02*
X174523809Y-158073866D01*
X174523809Y-158073866D02*
X174571428Y-158264342D01*
X174571428Y-158264342D02*
X174619047Y-158359580D01*
X174619047Y-158359580D02*
X174666666Y-158407200D01*
X174666666Y-158407200D02*
X174761904Y-158454819D01*
X174761904Y-158454819D02*
X174857142Y-158454819D01*
X174857142Y-158454819D02*
X174952380Y-158407200D01*
X174952380Y-158407200D02*
X174999999Y-158359580D01*
X174999999Y-158359580D02*
X175047618Y-158264342D01*
X175047618Y-158264342D02*
X175095237Y-158073866D01*
X175095237Y-158073866D02*
X175095237Y-157835771D01*
X175095237Y-157835771D02*
X175047618Y-157645295D01*
X175047618Y-157645295D02*
X174999999Y-157550057D01*
X174999999Y-157550057D02*
X174952380Y-157502438D01*
X174952380Y-157502438D02*
X174857142Y-157454819D01*
X174142856Y-158169104D02*
X173666666Y-158169104D01*
X174238094Y-158454819D02*
X173904761Y-157454819D01*
X173904761Y-157454819D02*
X173571428Y-158454819D01*
D11*
X164500000Y-167136746D02*
X165166666Y-167136746D01*
X165166666Y-167136746D02*
X165166666Y-165736746D01*
X163500000Y-167070080D02*
X163633333Y-167136746D01*
X163633333Y-167136746D02*
X163900000Y-167136746D01*
X163900000Y-167136746D02*
X164033333Y-167070080D01*
X164033333Y-167070080D02*
X164100000Y-166936746D01*
X164100000Y-166936746D02*
X164100000Y-166403413D01*
X164100000Y-166403413D02*
X164033333Y-166270080D01*
X164033333Y-166270080D02*
X163900000Y-166203413D01*
X163900000Y-166203413D02*
X163633333Y-166203413D01*
X163633333Y-166203413D02*
X163500000Y-166270080D01*
X163500000Y-166270080D02*
X163433333Y-166403413D01*
X163433333Y-166403413D02*
X163433333Y-166536746D01*
X163433333Y-166536746D02*
X164100000Y-166670080D01*
X163033333Y-166203413D02*
X162500000Y-166203413D01*
X162833333Y-165736746D02*
X162833333Y-166936746D01*
X162833333Y-166936746D02*
X162766667Y-167070080D01*
X162766667Y-167070080D02*
X162633333Y-167136746D01*
X162633333Y-167136746D02*
X162500000Y-167136746D01*
X162033333Y-167136746D02*
X162033333Y-166203413D01*
X162033333Y-166470080D02*
X161966667Y-166336746D01*
X161966667Y-166336746D02*
X161900000Y-166270080D01*
X161900000Y-166270080D02*
X161766667Y-166203413D01*
X161766667Y-166203413D02*
X161633333Y-166203413D01*
X160633333Y-167070080D02*
X160766666Y-167136746D01*
X160766666Y-167136746D02*
X161033333Y-167136746D01*
X161033333Y-167136746D02*
X161166666Y-167070080D01*
X161166666Y-167070080D02*
X161233333Y-166936746D01*
X161233333Y-166936746D02*
X161233333Y-166403413D01*
X161233333Y-166403413D02*
X161166666Y-166270080D01*
X161166666Y-166270080D02*
X161033333Y-166203413D01*
X161033333Y-166203413D02*
X160766666Y-166203413D01*
X160766666Y-166203413D02*
X160633333Y-166270080D01*
X160633333Y-166270080D02*
X160566666Y-166403413D01*
X160566666Y-166403413D02*
X160566666Y-166536746D01*
X160566666Y-166536746D02*
X161233333Y-166670080D01*
X159966666Y-167136746D02*
X159966666Y-166203413D01*
X159966666Y-166470080D02*
X159900000Y-166336746D01*
X159900000Y-166336746D02*
X159833333Y-166270080D01*
X159833333Y-166270080D02*
X159700000Y-166203413D01*
X159700000Y-166203413D02*
X159566666Y-166203413D01*
X158899999Y-167136746D02*
X159033333Y-167070080D01*
X159033333Y-167070080D02*
X159099999Y-167003413D01*
X159099999Y-167003413D02*
X159166666Y-166870080D01*
X159166666Y-166870080D02*
X159166666Y-166470080D01*
X159166666Y-166470080D02*
X159099999Y-166336746D01*
X159099999Y-166336746D02*
X159033333Y-166270080D01*
X159033333Y-166270080D02*
X158899999Y-166203413D01*
X158899999Y-166203413D02*
X158699999Y-166203413D01*
X158699999Y-166203413D02*
X158566666Y-166270080D01*
X158566666Y-166270080D02*
X158499999Y-166336746D01*
X158499999Y-166336746D02*
X158433333Y-166470080D01*
X158433333Y-166470080D02*
X158433333Y-166870080D01*
X158433333Y-166870080D02*
X158499999Y-167003413D01*
X158499999Y-167003413D02*
X158566666Y-167070080D01*
X158566666Y-167070080D02*
X158699999Y-167136746D01*
X158699999Y-167136746D02*
X158899999Y-167136746D01*
X157166666Y-167136746D02*
X157833332Y-167136746D01*
X157833332Y-167136746D02*
X157833332Y-165736746D01*
X156099999Y-167136746D02*
X156099999Y-166403413D01*
X156099999Y-166403413D02*
X156166666Y-166270080D01*
X156166666Y-166270080D02*
X156299999Y-166203413D01*
X156299999Y-166203413D02*
X156566666Y-166203413D01*
X156566666Y-166203413D02*
X156699999Y-166270080D01*
X156099999Y-167070080D02*
X156233333Y-167136746D01*
X156233333Y-167136746D02*
X156566666Y-167136746D01*
X156566666Y-167136746D02*
X156699999Y-167070080D01*
X156699999Y-167070080D02*
X156766666Y-166936746D01*
X156766666Y-166936746D02*
X156766666Y-166803413D01*
X156766666Y-166803413D02*
X156699999Y-166670080D01*
X156699999Y-166670080D02*
X156566666Y-166603413D01*
X156566666Y-166603413D02*
X156233333Y-166603413D01*
X156233333Y-166603413D02*
X156099999Y-166536746D01*
X155433332Y-167136746D02*
X155433332Y-165736746D01*
X155433332Y-166270080D02*
X155299999Y-166203413D01*
X155299999Y-166203413D02*
X155033332Y-166203413D01*
X155033332Y-166203413D02*
X154899999Y-166270080D01*
X154899999Y-166270080D02*
X154833332Y-166336746D01*
X154833332Y-166336746D02*
X154766666Y-166470080D01*
X154766666Y-166470080D02*
X154766666Y-166870080D01*
X154766666Y-166870080D02*
X154833332Y-167003413D01*
X154833332Y-167003413D02*
X154899999Y-167070080D01*
X154899999Y-167070080D02*
X155033332Y-167136746D01*
X155033332Y-167136746D02*
X155299999Y-167136746D01*
X155299999Y-167136746D02*
X155433332Y-167070080D01*
X153166665Y-166736746D02*
X152499998Y-166736746D01*
X153299998Y-167136746D02*
X152833332Y-165736746D01*
X152833332Y-165736746D02*
X152366665Y-167136746D01*
X151899998Y-167136746D02*
X151899998Y-165736746D01*
X151899998Y-165736746D02*
X151366665Y-165736746D01*
X151366665Y-165736746D02*
X151233332Y-165803413D01*
X151233332Y-165803413D02*
X151166665Y-165870080D01*
X151166665Y-165870080D02*
X151099998Y-166003413D01*
X151099998Y-166003413D02*
X151099998Y-166203413D01*
X151099998Y-166203413D02*
X151166665Y-166336746D01*
X151166665Y-166336746D02*
X151233332Y-166403413D01*
X151233332Y-166403413D02*
X151366665Y-166470080D01*
X151366665Y-166470080D02*
X151899998Y-166470080D01*
X150499998Y-166603413D02*
X149433332Y-166603413D01*
X148499999Y-165736746D02*
X148366665Y-165736746D01*
X148366665Y-165736746D02*
X148233332Y-165803413D01*
X148233332Y-165803413D02*
X148166665Y-165870080D01*
X148166665Y-165870080D02*
X148099999Y-166003413D01*
X148099999Y-166003413D02*
X148033332Y-166270080D01*
X148033332Y-166270080D02*
X148033332Y-166603413D01*
X148033332Y-166603413D02*
X148099999Y-166870080D01*
X148099999Y-166870080D02*
X148166665Y-167003413D01*
X148166665Y-167003413D02*
X148233332Y-167070080D01*
X148233332Y-167070080D02*
X148366665Y-167136746D01*
X148366665Y-167136746D02*
X148499999Y-167136746D01*
X148499999Y-167136746D02*
X148633332Y-167070080D01*
X148633332Y-167070080D02*
X148699999Y-167003413D01*
X148699999Y-167003413D02*
X148766665Y-166870080D01*
X148766665Y-166870080D02*
X148833332Y-166603413D01*
X148833332Y-166603413D02*
X148833332Y-166270080D01*
X148833332Y-166270080D02*
X148766665Y-166003413D01*
X148766665Y-166003413D02*
X148699999Y-165870080D01*
X148699999Y-165870080D02*
X148633332Y-165803413D01*
X148633332Y-165803413D02*
X148499999Y-165736746D01*
X147433332Y-167003413D02*
X147366666Y-167070080D01*
X147366666Y-167070080D02*
X147433332Y-167136746D01*
X147433332Y-167136746D02*
X147499999Y-167070080D01*
X147499999Y-167070080D02*
X147433332Y-167003413D01*
X147433332Y-167003413D02*
X147433332Y-167136746D01*
X146833332Y-165870080D02*
X146766665Y-165803413D01*
X146766665Y-165803413D02*
X146633332Y-165736746D01*
X146633332Y-165736746D02*
X146299999Y-165736746D01*
X146299999Y-165736746D02*
X146166665Y-165803413D01*
X146166665Y-165803413D02*
X146099999Y-165870080D01*
X146099999Y-165870080D02*
X146033332Y-166003413D01*
X146033332Y-166003413D02*
X146033332Y-166136746D01*
X146033332Y-166136746D02*
X146099999Y-166336746D01*
X146099999Y-166336746D02*
X146899999Y-167136746D01*
X146899999Y-167136746D02*
X146033332Y-167136746D01*
X143299998Y-166403413D02*
X142833332Y-166403413D01*
X142633332Y-167136746D02*
X143299998Y-167136746D01*
X143299998Y-167136746D02*
X143299998Y-165736746D01*
X143299998Y-165736746D02*
X142633332Y-165736746D01*
X142099998Y-167070080D02*
X141899998Y-167136746D01*
X141899998Y-167136746D02*
X141566665Y-167136746D01*
X141566665Y-167136746D02*
X141433331Y-167070080D01*
X141433331Y-167070080D02*
X141366665Y-167003413D01*
X141366665Y-167003413D02*
X141299998Y-166870080D01*
X141299998Y-166870080D02*
X141299998Y-166736746D01*
X141299998Y-166736746D02*
X141366665Y-166603413D01*
X141366665Y-166603413D02*
X141433331Y-166536746D01*
X141433331Y-166536746D02*
X141566665Y-166470080D01*
X141566665Y-166470080D02*
X141833331Y-166403413D01*
X141833331Y-166403413D02*
X141966665Y-166336746D01*
X141966665Y-166336746D02*
X142033331Y-166270080D01*
X142033331Y-166270080D02*
X142099998Y-166136746D01*
X142099998Y-166136746D02*
X142099998Y-166003413D01*
X142099998Y-166003413D02*
X142033331Y-165870080D01*
X142033331Y-165870080D02*
X141966665Y-165803413D01*
X141966665Y-165803413D02*
X141833331Y-165736746D01*
X141833331Y-165736746D02*
X141499998Y-165736746D01*
X141499998Y-165736746D02*
X141299998Y-165803413D01*
X140699998Y-167136746D02*
X140699998Y-165736746D01*
X140699998Y-165736746D02*
X140166665Y-165736746D01*
X140166665Y-165736746D02*
X140033332Y-165803413D01*
X140033332Y-165803413D02*
X139966665Y-165870080D01*
X139966665Y-165870080D02*
X139899998Y-166003413D01*
X139899998Y-166003413D02*
X139899998Y-166203413D01*
X139899998Y-166203413D02*
X139966665Y-166336746D01*
X139966665Y-166336746D02*
X140033332Y-166403413D01*
X140033332Y-166403413D02*
X140166665Y-166470080D01*
X140166665Y-166470080D02*
X140699998Y-166470080D01*
X139433332Y-165736746D02*
X138566665Y-165736746D01*
X138566665Y-165736746D02*
X139033332Y-166270080D01*
X139033332Y-166270080D02*
X138833332Y-166270080D01*
X138833332Y-166270080D02*
X138699998Y-166336746D01*
X138699998Y-166336746D02*
X138633332Y-166403413D01*
X138633332Y-166403413D02*
X138566665Y-166536746D01*
X138566665Y-166536746D02*
X138566665Y-166870080D01*
X138566665Y-166870080D02*
X138633332Y-167003413D01*
X138633332Y-167003413D02*
X138699998Y-167070080D01*
X138699998Y-167070080D02*
X138833332Y-167136746D01*
X138833332Y-167136746D02*
X139233332Y-167136746D01*
X139233332Y-167136746D02*
X139366665Y-167070080D01*
X139366665Y-167070080D02*
X139433332Y-167003413D01*
X138033332Y-165870080D02*
X137966665Y-165803413D01*
X137966665Y-165803413D02*
X137833332Y-165736746D01*
X137833332Y-165736746D02*
X137499999Y-165736746D01*
X137499999Y-165736746D02*
X137366665Y-165803413D01*
X137366665Y-165803413D02*
X137299999Y-165870080D01*
X137299999Y-165870080D02*
X137233332Y-166003413D01*
X137233332Y-166003413D02*
X137233332Y-166136746D01*
X137233332Y-166136746D02*
X137299999Y-166336746D01*
X137299999Y-166336746D02*
X138099999Y-167136746D01*
X138099999Y-167136746D02*
X137233332Y-167136746D01*
X136633332Y-166603413D02*
X135566666Y-166603413D01*
X134099999Y-167003413D02*
X134166666Y-167070080D01*
X134166666Y-167070080D02*
X134366666Y-167136746D01*
X134366666Y-167136746D02*
X134499999Y-167136746D01*
X134499999Y-167136746D02*
X134699999Y-167070080D01*
X134699999Y-167070080D02*
X134833333Y-166936746D01*
X134833333Y-166936746D02*
X134899999Y-166803413D01*
X134899999Y-166803413D02*
X134966666Y-166536746D01*
X134966666Y-166536746D02*
X134966666Y-166336746D01*
X134966666Y-166336746D02*
X134899999Y-166070080D01*
X134899999Y-166070080D02*
X134833333Y-165936746D01*
X134833333Y-165936746D02*
X134699999Y-165803413D01*
X134699999Y-165803413D02*
X134499999Y-165736746D01*
X134499999Y-165736746D02*
X134366666Y-165736746D01*
X134366666Y-165736746D02*
X134166666Y-165803413D01*
X134166666Y-165803413D02*
X134099999Y-165870080D01*
X133633333Y-165736746D02*
X132766666Y-165736746D01*
X132766666Y-165736746D02*
X133233333Y-166270080D01*
X133233333Y-166270080D02*
X133033333Y-166270080D01*
X133033333Y-166270080D02*
X132899999Y-166336746D01*
X132899999Y-166336746D02*
X132833333Y-166403413D01*
X132833333Y-166403413D02*
X132766666Y-166536746D01*
X132766666Y-166536746D02*
X132766666Y-166870080D01*
X132766666Y-166870080D02*
X132833333Y-167003413D01*
X132833333Y-167003413D02*
X132899999Y-167070080D01*
X132899999Y-167070080D02*
X133033333Y-167136746D01*
X133033333Y-167136746D02*
X133433333Y-167136746D01*
X133433333Y-167136746D02*
X133566666Y-167070080D01*
X133566666Y-167070080D02*
X133633333Y-167003413D01*
X130166666Y-165736746D02*
X129833332Y-167136746D01*
X129833332Y-167136746D02*
X129566666Y-166136746D01*
X129566666Y-166136746D02*
X129299999Y-167136746D01*
X129299999Y-167136746D02*
X128966666Y-165736746D01*
X128433332Y-167136746D02*
X128433332Y-166203413D01*
X128433332Y-165736746D02*
X128499999Y-165803413D01*
X128499999Y-165803413D02*
X128433332Y-165870080D01*
X128433332Y-165870080D02*
X128366666Y-165803413D01*
X128366666Y-165803413D02*
X128433332Y-165736746D01*
X128433332Y-165736746D02*
X128433332Y-165870080D01*
X127766665Y-166603413D02*
X126699999Y-166603413D01*
X125566666Y-166403413D02*
X126033332Y-166403413D01*
X126033332Y-167136746D02*
X126033332Y-165736746D01*
X126033332Y-165736746D02*
X125366666Y-165736746D01*
X124833332Y-167136746D02*
X124833332Y-166203413D01*
X124833332Y-165736746D02*
X124899999Y-165803413D01*
X124899999Y-165803413D02*
X124833332Y-165870080D01*
X124833332Y-165870080D02*
X124766666Y-165803413D01*
X124766666Y-165803413D02*
X124833332Y-165736746D01*
X124833332Y-165736746D02*
X124833332Y-165870080D01*
%LPC*%
D12*
%TO.C,K1*%
X168000000Y-147000000D03*
D13*
X169950000Y-153050000D03*
D12*
X182150000Y-153050000D03*
X182200000Y-141000000D03*
D13*
X169950000Y-141050000D03*
%TD*%
D14*
%TO.C,F1*%
X118700000Y-145400000D03*
D15*
X117500000Y-150000000D03*
X117500000Y-140800000D03*
%TD*%
D16*
%TO.C,J4*%
X136000000Y-163500000D03*
D17*
X141080000Y-163500000D03*
X146160000Y-163500000D03*
X151240000Y-163500000D03*
%TD*%
D16*
%TO.C,J1*%
X117500000Y-163500000D03*
D17*
X122580000Y-163500000D03*
%TD*%
D16*
%TO.C,J3*%
X105000000Y-163500000D03*
D17*
X110080000Y-163500000D03*
%TD*%
D16*
%TO.C,J5*%
X177000000Y-163500000D03*
D17*
X182080000Y-163500000D03*
%TD*%
D18*
%TO.C,H3*%
X162500000Y-166000000D03*
%TD*%
%TO.C,H1*%
X103500000Y-103500000D03*
%TD*%
%TO.C,H2*%
X186500000Y-103500000D03*
%TD*%
D19*
%TO.C,J2*%
X182400000Y-135390000D03*
X182400000Y-129610000D03*
D20*
X181870000Y-136820000D03*
D21*
X186050000Y-136820000D03*
D20*
X181870000Y-128180000D03*
D21*
X186050000Y-128180000D03*
%TD*%
D22*
%TO.C,J6*%
X187000000Y-109200000D03*
D23*
X187000000Y-111740000D03*
X187000000Y-114280000D03*
X187000000Y-116820000D03*
X187000000Y-119360000D03*
X187000000Y-121900000D03*
X187000000Y-124440000D03*
%TD*%
%LPD*%
M02*
